<svg width="64" height="64" viewBox="0 0 64 64" fill="none" xmlns="http://www.w3.org/2000/svg">
<path d="M8.09299 55.8114C7.94998 55.8122 7.8082 55.7848 7.6758 55.7307C7.5434 55.6767 7.42299 55.597 7.32145 55.4963C7.2196 55.3952 7.13874 55.275 7.08357 55.1426C7.0284 55.0102 7 54.8682 7 54.7247C7 54.5812 7.0284 54.4392 7.08357 54.3068C7.13874 54.1744 7.2196 54.0542 7.32145 53.9532L20.0466 41.2389V35.1643C20.0466 34.876 20.1611 34.5996 20.3649 34.3959C20.5687 34.1921 20.8451 34.0776 21.1333 34.0776H21.3398L17.8732 28.5246L14.3958 34.0776H14.6131C14.9013 34.0776 15.1777 34.1921 15.3815 34.3959C15.5853 34.5996 15.6998 34.876 15.6998 35.1643V41.6844C15.7007 41.8274 15.6733 41.9692 15.6192 42.1016C15.5651 42.234 15.4854 42.3544 15.3847 42.456L9.95123 47.8894C9.7466 48.094 9.46907 48.209 9.17968 48.209C8.8903 48.209 8.61277 48.094 8.40814 47.8894C8.20351 47.6848 8.08855 47.4072 8.08855 47.1179C8.08855 46.8285 8.20351 46.5509 8.40814 46.3463L13.5264 41.2389V36.2509H12.4398C12.2456 36.2513 12.0549 36.1997 11.8874 36.1014C11.72 36.0031 11.5819 35.8617 11.4876 35.692C11.3933 35.5223 11.3462 35.3304 11.3512 35.1363C11.3562 34.9422 11.4132 34.753 11.5161 34.5883L16.9495 25.8948C17.047 25.7375 17.183 25.6078 17.3446 25.5178C17.5063 25.4278 17.6882 25.3806 17.8732 25.3806C18.0582 25.3806 18.2402 25.4278 18.4018 25.5178C18.5634 25.6078 18.6994 25.7375 18.7969 25.8948L24.2304 34.5883C24.3333 34.753 24.3902 34.9422 24.3952 35.1363C24.4002 35.3304 24.3531 35.5223 24.2588 35.692C24.1645 35.8617 24.0264 36.0031 23.859 36.1014C23.6916 36.1997 23.5008 36.2513 23.3067 36.2509H22.22V41.6844C22.2208 41.8274 22.1934 41.9692 22.1393 42.1016C22.0852 42.234 22.0055 42.3544 21.9048 42.456L8.86453 55.4963C8.76299 55.597 8.64258 55.6767 8.51019 55.7307C8.37779 55.7848 8.23601 55.8122 8.09299 55.8114V55.8114Z" fill="#404040"/>
<path d="M55.907 55.8114C55.764 55.8122 55.6223 55.7848 55.4899 55.7307C55.3575 55.6767 55.237 55.597 55.1355 55.4963L42.0952 42.456C41.9945 42.3544 41.9148 42.234 41.8607 42.1016C41.8066 41.9692 41.7792 41.8274 41.7801 41.6844V36.2509H40.6934C40.4992 36.2513 40.3085 36.1997 40.141 36.1014C39.9736 36.0031 39.8355 35.8617 39.7413 35.692C39.647 35.5223 39.5999 35.3304 39.6049 35.1363C39.6099 34.9422 39.6668 34.753 39.7697 34.5883L45.2031 25.8948C45.3006 25.7375 45.4366 25.6078 45.5982 25.5178C45.7599 25.4278 45.9418 25.3806 46.1268 25.3806C46.3118 25.3806 46.4938 25.4278 46.6554 25.5178C46.8171 25.6078 46.9531 25.7375 47.0505 25.8948L52.484 34.5883C52.5869 34.753 52.6438 34.9422 52.6488 35.1363C52.6538 35.3304 52.6067 35.5223 52.5124 35.692C52.4181 35.8617 52.2801 36.0031 52.1126 36.1014C51.9452 36.1997 51.7544 36.2513 51.5603 36.2509H50.4736V41.2389L55.5919 46.3463C55.6932 46.4476 55.7736 46.5679 55.8284 46.7003C55.8833 46.8327 55.9115 46.9746 55.9115 47.1179C55.9115 47.2612 55.8833 47.4031 55.8284 47.5354C55.7736 47.6678 55.6932 47.7881 55.5919 47.8894C55.4906 47.9907 55.3703 48.0711 55.2379 48.126C55.1055 48.1808 54.9636 48.209 54.8204 48.209C54.6771 48.209 54.5352 48.1808 54.4028 48.126C54.2704 48.0711 54.1501 47.9907 54.0488 47.8894L48.6154 42.456C48.5146 42.3544 48.4349 42.234 48.3809 42.1016C48.3268 41.9692 48.2994 41.8274 48.3002 41.6844V35.1643C48.3002 34.876 48.4147 34.5996 48.6185 34.3959C48.8223 34.1921 49.0987 34.0776 49.3869 34.0776H49.5934L46.1268 28.5246L42.6494 34.0776H42.8668C43.155 34.0776 43.4313 34.1921 43.6351 34.3959C43.8389 34.5996 43.9534 34.876 43.9534 35.1643V41.2389L56.6786 53.9532C56.7804 54.0542 56.8613 54.1744 56.9165 54.3068C56.9716 54.4392 57 54.5812 57 54.7247C57 54.8682 56.9716 55.0102 56.9165 55.1426C56.8613 55.275 56.7804 55.3952 56.6786 55.4963C56.577 55.597 56.4566 55.6767 56.3242 55.7307C56.1918 55.7848 56.0501 55.8122 55.907 55.8114Z" fill="#404040"/>
<path d="M17.8733 53.638C17.7302 53.6388 17.5885 53.6114 17.4561 53.5574C17.3237 53.5033 17.2033 53.4236 17.1017 53.3229C16.9999 53.2219 16.919 53.1017 16.8638 52.9692C16.8087 52.8368 16.7803 52.6948 16.7803 52.5513C16.7803 52.4079 16.8087 52.2658 16.8638 52.1334C16.919 52.001 16.9999 51.8808 17.1017 51.7798L27.6535 41.2389V23.2107H24.3934C24.2019 23.2114 24.0136 23.1616 23.8476 23.0662C23.6816 22.9707 23.5437 22.8331 23.448 22.6673C23.3526 22.5021 23.3024 22.3147 23.3024 22.124C23.3024 21.9332 23.3526 21.7458 23.448 21.5806L31.0548 8.54032C31.1267 8.41671 31.2223 8.3085 31.3361 8.2219C31.4499 8.13531 31.5797 8.07202 31.718 8.03568C31.8563 7.99933 32.0004 7.99065 32.1421 8.01012C32.2838 8.02958 32.4202 8.07681 32.5436 8.14911C32.7903 8.29427 32.9698 8.53093 33.043 8.80765C33.1163 9.08437 33.0774 9.3788 32.9348 9.62701L26.2842 21.0373H28.7402C29.0284 21.0373 29.3048 21.1518 29.5086 21.3556C29.7124 21.5594 29.8269 21.8358 29.8269 22.124V41.6844C29.8277 41.8274 29.8003 41.9692 29.7462 42.1016C29.6921 42.234 29.6124 42.3544 29.5117 42.456L18.6448 53.3229C18.5433 53.4236 18.4229 53.5033 18.2905 53.5574C18.1581 53.6114 18.0163 53.6388 17.8733 53.638V53.638Z" fill="#FA4616"/>
<path d="M46.1271 53.638C45.9841 53.6388 45.8423 53.6114 45.7099 53.5574C45.5775 53.5033 45.4571 53.4236 45.3556 53.3229L34.4887 42.456C34.3879 42.3544 34.3082 42.234 34.2542 42.1016C34.2001 41.9692 34.1727 41.8274 34.1735 41.6844V22.124C34.1735 21.8358 34.288 21.5594 34.4918 21.3556C34.6956 21.1518 34.972 21.0373 35.2602 21.0373H37.7378L31.0764 9.62702C30.9465 9.37866 30.9176 9.08972 30.9957 8.82054C31.0738 8.55136 31.2528 8.32276 31.4955 8.1825C31.7382 8.04223 32.0256 8.00114 32.2979 8.06783C32.5701 8.13451 32.806 8.30379 32.9564 8.54033L40.5633 21.5806C40.6586 21.7458 40.7088 21.9332 40.7088 22.124C40.7088 22.3147 40.6586 22.5021 40.5633 22.6673C40.4675 22.8331 40.3296 22.9708 40.1636 23.0662C39.9976 23.1616 39.8093 23.2114 39.6178 23.2107H36.3578V41.2389L46.9095 51.7798C47.0114 51.8808 47.0922 52.001 47.1474 52.1334C47.2026 52.2658 47.231 52.4079 47.231 52.5513C47.231 52.6948 47.2026 52.8368 47.1474 52.9692C47.0922 53.1017 47.0114 53.2219 46.9095 53.3229C46.8067 53.4249 46.6845 53.5053 46.5501 53.5595C46.4158 53.6136 46.2719 53.6403 46.1271 53.638V53.638Z" fill="#FA4616"/>
</svg>
