<svg width="64" height="64" viewBox="0 0 64 64" fill="none" xmlns="http://www.w3.org/2000/svg">
<path d="M33.0023 51.7917H30.9189V57H33.0023V51.7917Z" fill="#FA4616"/>
<path d="M40.2939 57C40.1409 57.0002 39.9897 56.9668 39.8511 56.902C39.7124 56.8371 39.5898 56.7426 39.4918 56.625L23.8668 37.875C23.7401 37.7228 23.6593 37.5376 23.634 37.3411C23.6088 37.1446 23.6401 36.9449 23.7243 36.7656C23.8085 36.5863 23.9421 36.4347 24.1094 36.3286C24.2767 36.2225 24.4708 36.1663 24.6689 36.1667H30.9189V28.875C30.9189 28.5987 31.0287 28.3338 31.224 28.1384C31.4194 27.9431 31.6843 27.8333 31.9606 27.8333H38.0648L24.6689 11.75L11.2627 27.8333H17.3773C17.6535 27.8333 17.9185 27.9431 18.1138 28.1384C18.3092 28.3338 18.4189 28.5987 18.4189 28.875V49.7083H16.3356V29.9167H9.04393C8.84469 29.9172 8.6495 29.8605 8.48148 29.7534C8.31347 29.6463 8.17969 29.4933 8.09601 29.3125C8.01333 29.1335 7.98315 28.9347 8.00897 28.7393C8.03478 28.5438 8.11553 28.3597 8.24184 28.2083L23.8668 9.45833C23.9646 9.34038 24.0871 9.24543 24.2258 9.18026C24.3644 9.11509 24.5157 9.0813 24.6689 9.0813C24.8221 9.0813 24.9734 9.11509 25.1121 9.18026C25.2507 9.24543 25.3733 9.34038 25.471 9.45833L41.096 28.2083C41.2228 28.3606 41.3035 28.5458 41.3288 28.7423C41.354 28.9388 41.3227 29.1384 41.2385 29.3177C41.1543 29.497 41.0207 29.6486 40.8534 29.7547C40.6861 29.8608 40.492 29.917 40.2939 29.9167H33.0023V37.2083C33.0023 37.4846 32.8925 37.7496 32.6972 37.9449C32.5018 38.1403 32.2369 38.25 31.9606 38.25H26.8877L40.2939 54.3333L53.6898 38.25H47.5856C47.3093 38.25 47.0444 38.1403 46.849 37.9449C46.6537 37.7496 46.5439 37.4846 46.5439 37.2083V14.2917H48.6273V36.1667H55.9189C56.1153 36.1672 56.3074 36.2233 56.4733 36.3283C56.6392 36.4334 56.772 36.5832 56.8564 36.7604C56.9427 36.9397 56.9757 37.14 56.9517 37.3375C56.9277 37.535 56.8477 37.7216 56.721 37.875L41.096 56.625C40.9981 56.7426 40.8754 56.8371 40.7368 56.902C40.5982 56.9668 40.447 57.0002 40.2939 57Z" fill="#404040"/>
<path d="M34.0438 9.08334H31.9604V14.2917H34.0438V9.08334Z" fill="#FA4616"/>
<path d="M23.6273 43.4583H21.5439V54.9167H23.6273V43.4583Z" fill="#FA4616"/>
<path d="M43.4188 7H41.3354V20.5417H43.4188V7Z" fill="#FA4616"/>
</svg>
