<svg width="64" height="64" viewBox="0 0 64 64" fill="none" xmlns="http://www.w3.org/2000/svg">
<path d="M50.2411 52.5543C49.9463 52.5543 49.6636 52.4372 49.4552 52.2287C49.2467 52.0203 49.1296 51.7376 49.1296 51.4428V31.4371H43.5725V51.4428C43.5725 51.7376 43.4554 52.0203 43.2469 52.2287C43.0385 52.4372 42.7558 52.5543 42.461 52.5543C42.1663 52.5543 41.8836 52.4372 41.6751 52.2287C41.4667 52.0203 41.3496 51.7376 41.3496 51.4428V30.3256C41.3496 30.0309 41.4667 29.7482 41.6751 29.5397C41.8836 29.3313 42.1663 29.2142 42.461 29.2142H50.2411C50.5358 29.2142 50.8185 29.3313 51.027 29.5397C51.2354 29.7482 51.3525 30.0309 51.3525 30.3256V51.4428C51.3525 51.7376 51.2354 52.0203 51.027 52.2287C50.8185 52.4372 50.5358 52.5543 50.2411 52.5543Z" fill="#404040"/>
<path d="M38.015 52.5543C37.7202 52.5543 37.4375 52.4372 37.2291 52.2287C37.0207 52.0203 36.9036 51.7376 36.9036 51.4428V39.2171H31.3464V51.4428C31.3464 51.7376 31.2293 52.0203 31.0209 52.2287C30.8124 52.4372 30.5297 52.5543 30.235 52.5543C29.9402 52.5543 29.6575 52.4372 29.4491 52.2287C29.2406 52.0203 29.1235 51.7376 29.1235 51.4428V38.1057C29.1235 37.8109 29.2406 37.5282 29.4491 37.3198C29.6575 37.1113 29.9402 36.9942 30.235 36.9942H38.015C38.3098 36.9942 38.5925 37.1113 38.8009 37.3198C39.0093 37.5282 39.1264 37.8109 39.1264 38.1057V51.4428C39.1264 51.7376 39.0093 52.0203 38.8009 52.2287C38.5925 52.4372 38.3098 52.5543 38.015 52.5543Z" fill="#404040"/>
<path d="M25.7894 52.5543C25.4946 52.5543 25.2119 52.4372 25.0035 52.2287C24.7951 52.0203 24.678 51.7376 24.678 51.4428V45.8857H19.1208V51.4428C19.1208 51.7376 19.0037 52.0203 18.7953 52.2287C18.5868 52.4372 18.3042 52.5543 18.0094 52.5543C17.7146 52.5543 17.4319 52.4372 17.2235 52.2287C17.015 52.0203 16.8979 51.7376 16.8979 51.4428V44.7742C16.8979 44.4795 17.015 44.1968 17.2235 43.9883C17.4319 43.7799 17.7146 43.6628 18.0094 43.6628H25.7894C26.0842 43.6628 26.3669 43.7799 26.5753 43.9883C26.7837 44.1968 26.9008 44.4795 26.9008 44.7742V51.4428C26.9008 51.7376 26.7837 52.0203 26.5753 52.2287C26.3669 52.4372 26.0842 52.5543 25.7894 52.5543Z" fill="#404040"/>
<path d="M9.1179 36.9942C8.89714 36.9955 8.68099 36.931 8.49703 36.809C8.31306 36.687 8.16961 36.5129 8.08496 36.309C8.0003 36.1051 7.97829 35.8806 8.02172 35.6642C8.06514 35.4477 8.17203 35.2491 8.32878 35.0937L26.1117 17.3108C26.3199 17.1038 26.6016 16.9876 26.8952 16.9876C27.1889 16.9876 27.4706 17.1038 27.6788 17.3108L32.458 22.0899L39.7712 14.7656L38.3374 13.3318C38.2027 13.1965 38.105 13.0287 38.054 12.8447C38.0029 12.6606 38.0002 12.4665 38.046 12.2811C38.0918 12.0957 38.1846 11.9252 38.3154 11.7861C38.4463 11.6469 38.6108 11.5439 38.7931 11.4869L53.2417 7.04114C53.4377 6.98628 53.645 6.98629 53.841 7.04117C54.037 7.09604 54.2142 7.20368 54.3532 7.35235C54.4952 7.50928 54.5896 7.70352 54.625 7.91223C54.6604 8.12094 54.6355 8.33542 54.5532 8.53045L48.9961 21.8676C48.9255 22.0359 48.8147 22.1843 48.6732 22.2995C48.5318 22.4148 48.3642 22.4935 48.1851 22.5287C48.0061 22.5638 47.8211 22.5544 47.6466 22.5011C47.4721 22.4478 47.3133 22.3524 47.1844 22.2233L45.7507 20.7784L33.1915 33.3376C32.9833 33.5446 32.7016 33.6608 32.408 33.6608C32.1143 33.6608 31.8326 33.5446 31.6244 33.3376L26.8563 28.5585L20.9657 34.449C20.7575 34.6561 20.4758 34.7722 20.1822 34.7722C19.8886 34.7722 19.6069 34.6561 19.3986 34.449C19.2945 34.3457 19.2118 34.2228 19.1553 34.0874C19.0989 33.9519 19.0699 33.8066 19.0699 33.6599C19.0699 33.5132 19.0989 33.3679 19.1553 33.2325C19.2118 33.0971 19.2945 32.9741 19.3986 32.8708L26.0672 26.2022C26.2755 25.9952 26.5572 25.879 26.8508 25.879C27.1444 25.879 27.4261 25.9952 27.6343 26.2022L32.4135 30.9814L44.9616 18.4222C45.1698 18.2152 45.4515 18.099 45.7451 18.099C46.0388 18.099 46.3204 18.2152 46.5287 18.4222L47.5845 19.4781L51.6079 9.87529L41.1938 13.0873L42.1052 13.9987C42.2094 14.102 42.292 14.225 42.3485 14.3604C42.4049 14.4958 42.4339 14.6411 42.4339 14.7878C42.4339 14.9345 42.4049 15.0798 42.3485 15.2153C42.292 15.3507 42.2094 15.4736 42.1052 15.5769L33.2137 24.4684C33.0055 24.6754 32.7238 24.7916 32.4302 24.7916C32.1365 24.7916 31.8548 24.6754 31.6466 24.4684L26.8786 19.6892L9.87367 36.6941C9.66869 36.886 9.39869 36.9932 9.1179 36.9942Z" fill="#FA4616"/>
<path d="M54.6865 57H13.5636C13.2688 57 12.9861 56.8829 12.7777 56.6745C12.5692 56.466 12.4521 56.1833 12.4521 55.8886C12.4521 55.5938 12.5692 55.3111 12.7777 55.1027C12.9861 54.8942 13.2688 54.7771 13.5636 54.7771H54.6865C54.9813 54.7771 55.264 54.8942 55.4724 55.1027C55.6809 55.3111 55.798 55.5938 55.798 55.8886C55.798 56.1833 55.6809 56.466 55.4724 56.6745C55.264 56.8829 54.9813 57 54.6865 57Z" fill="#404040"/>
</svg>
