<svg width="64" height="64" viewBox="0 0 64 64" fill="none" xmlns="http://www.w3.org/2000/svg">
<path d="M42.4132 34.8397C42.2454 34.8403 42.0803 34.7972 41.9341 34.7148C41.7659 34.6276 41.6246 34.4962 41.5255 34.3347C41.4264 34.1732 41.3732 33.9877 41.3717 33.7982V29.632H28.8731V27.5489H42.4132C42.6895 27.5489 42.9544 27.6586 43.1497 27.8539C43.345 28.0493 43.4548 28.3142 43.4548 28.5904V31.8088L54.1202 24.4242L43.4548 17.0292V20.258C43.4548 20.5343 43.345 20.7992 43.1497 20.9945C42.9544 21.1898 42.6895 21.2996 42.4132 21.2996H17.416V19.2165H41.3717V15.0503C41.3701 14.8594 41.421 14.6717 41.5188 14.5078C41.6166 14.3439 41.7576 14.21 41.9264 14.1208C42.0952 14.0315 42.2852 13.9904 42.4758 14.0019C42.6663 14.0134 42.8501 14.077 43.0069 14.1858L56.5471 23.5597C56.6867 23.6554 56.8009 23.7836 56.8798 23.9334C56.9587 24.0831 57 24.2498 57 24.419C57 24.5883 56.9587 24.755 56.8798 24.9047C56.8009 25.0544 56.6867 25.1827 56.5471 25.2783L43.0069 34.6523C42.8328 34.7738 42.6256 34.8392 42.4132 34.8397Z" fill="#FA4616"/>
<path d="M34.0812 15.0503H20.541V17.1334H34.0812V15.0503Z" fill="#404040"/>
<path d="M15.3331 19.2165H13.25V21.2996H15.3331V19.2165Z" fill="#FA4616"/>
<path d="M22.6238 50.463C22.4068 50.4616 22.1955 50.3924 22.0197 50.2651L7.43801 39.8496C7.30258 39.7533 7.19216 39.626 7.11596 39.4783C7.03976 39.3306 7 39.1669 7 39.0007C7 38.8345 7.03976 38.6708 7.11596 38.5231C7.19216 38.3754 7.30258 38.2481 7.43801 38.1518L22.0197 27.7363C22.1759 27.6251 22.3597 27.5592 22.551 27.5458C22.7422 27.5324 22.9334 27.572 23.1036 27.6603C23.2738 27.7486 23.4163 27.8822 23.5154 28.0463C23.6145 28.2104 23.6664 28.3987 23.6654 28.5904V33.7982H30.9562V35.8813H22.6238C22.3476 35.8813 22.0827 35.7715 21.8873 35.5762C21.692 35.3809 21.5823 35.116 21.5823 34.8397V30.611L9.83358 39.0059L21.5823 47.3904V43.1721C21.5823 42.8959 21.692 42.631 21.8873 42.4356C22.0827 42.2403 22.3476 42.1306 22.6238 42.1306H30.9562V44.2137H23.6654V49.4214C23.6658 49.6127 23.6135 49.8004 23.5143 49.9639C23.4151 50.1274 23.2728 50.2604 23.1029 50.3484C22.9538 50.4218 22.7901 50.461 22.6238 50.463V50.463Z" fill="#404040"/>
<path d="M35.1227 33.7982H33.0396V35.8813H35.1227V33.7982Z" fill="#404040"/>
<path d="M44.4966 42.1306H33.0396V44.2137H44.4966V42.1306Z" fill="#404040"/>
<path d="M48.6627 42.1306H46.5796V44.2137H48.6627V42.1306Z" fill="#404040"/>
<path d="M53.8702 46.2968H40.3301V48.3799H53.8702V46.2968Z" fill="#404040"/>
</svg>
