<svg width="64" height="64" viewBox="0 0 64 64" fill="none" xmlns="http://www.w3.org/2000/svg">
<path d="M42.9945 36.0024H20.997C20.7318 36.0024 20.4775 35.8971 20.29 35.7096C20.1025 35.522 19.9971 35.2677 19.9971 35.0026V29.0032H11.9981C11.8007 29.0023 11.608 28.9429 11.4443 28.8326C11.2806 28.7222 11.1532 28.5659 11.0782 28.3833C11.0016 28.2012 10.9807 28.0005 11.0181 27.8066C11.0554 27.6126 11.1494 27.4341 11.2882 27.2935L31.2858 7.29577C31.3788 7.20206 31.4894 7.12766 31.6112 7.0769C31.7331 7.02613 31.8638 7 31.9958 7C32.1277 7 32.2584 7.02613 32.3803 7.0769C32.5021 7.12766 32.6127 7.20206 32.7057 7.29577L52.7033 27.2935C52.8421 27.4341 52.9361 27.6126 52.9734 27.8066C53.0108 28.0005 52.9899 28.2012 52.9133 28.3833C52.8383 28.5659 52.7109 28.7222 52.5472 28.8326C52.3835 28.9429 52.1908 29.0023 51.9934 29.0032H43.9944V35.0026C43.9944 35.2677 43.889 35.522 43.7015 35.7096C43.514 35.8971 43.2597 36.0024 42.9945 36.0024ZM21.9969 34.0027H41.9946V28.0034C41.9946 27.7382 42.0999 27.4839 42.2874 27.2964C42.475 27.1088 42.7293 27.0035 42.9945 27.0035H49.5837L31.9958 9.41552L14.4078 27.0035H20.997C21.2622 27.0035 21.5165 27.1088 21.7041 27.2964C21.8916 27.4839 21.9969 27.7382 21.9969 28.0034V34.0027Z" fill="#404040"/>
<path d="M42.9944 45.0014H20.997C20.7318 45.0014 20.4774 44.896 20.2899 44.7085C20.1024 44.521 19.9971 44.2667 19.9971 44.0015V39.0021C19.9971 38.7369 20.1024 38.4826 20.2899 38.2951C20.4774 38.1076 20.7318 38.0022 20.997 38.0022H42.9944C43.2596 38.0022 43.5139 38.1076 43.7014 38.2951C43.8889 38.4826 43.9943 38.7369 43.9943 39.0021V44.0015C43.9943 44.2667 43.8889 44.521 43.7014 44.7085C43.5139 44.896 43.2596 45.0014 42.9944 45.0014ZM21.9968 43.0016H41.9945V40.002H21.9968V43.0016Z" fill="#404040"/>
<path d="M42.9944 53.0005H20.997C20.7318 53.0005 20.4774 52.8951 20.2899 52.7076C20.1024 52.5201 19.9971 52.2658 19.9971 52.0006V48.001C19.9971 47.7359 20.1024 47.4815 20.2899 47.294C20.4774 47.1065 20.7318 47.0012 20.997 47.0012H42.9944C43.2596 47.0012 43.5139 47.1065 43.7014 47.294C43.8889 47.4815 43.9943 47.7359 43.9943 48.001V52.0006C43.9943 52.2658 43.8889 52.5201 43.7014 52.7076C43.5139 52.8951 43.2596 53.0005 42.9944 53.0005ZM21.9968 51.0007H41.9945V49.0009H21.9968V51.0007Z" fill="#404040"/>
<path d="M42.9944 57H20.997C20.7318 57 20.4774 56.8946 20.2899 56.7071C20.1024 56.5196 19.9971 56.2653 19.9971 56.0001C19.9971 55.7349 20.1024 55.4806 20.2899 55.2931C20.4774 55.1056 20.7318 55.0002 20.997 55.0002H42.9944C43.2596 55.0002 43.5139 55.1056 43.7014 55.2931C43.8889 55.4806 43.9943 55.7349 43.9943 56.0001C43.9943 56.2653 43.8889 56.5196 43.7014 56.7071C43.5139 56.8946 43.2596 57 42.9944 57Z" fill="#FA4616"/>
</svg>
