<svg width="64" height="64" viewBox="0 0 64 64" fill="none" xmlns="http://www.w3.org/2000/svg">
<path d="M28.5544 47.5858H26.4624V29.8033H29.7364L23.3243 20.1799L16.9017 29.8033H20.1862V38.1715H18.0942V31.8954H13L23.3243 16.4142L33.6381 31.8954H28.5544V47.5858Z" fill="#404040"/>
<path d="M45.2907 27.7113H43.1987V20.3891H46.4727L40.0606 10.7657L33.638 20.3891H36.9225V26.6653H34.8305V22.4812H29.7363L40.0606 7L50.3744 22.4812H45.2907V27.7113Z" fill="#404040"/>
<path d="M43.1987 57H41.1066V41.3096H44.3807L37.9686 31.6862L32.5606 39.8033L30.8242 38.6423L37.9686 27.9205L48.2824 43.4017H43.1987V57Z" fill="#FA4616"/>
<path d="M20.1863 40.2636H18.0942V43.4017H20.1863V40.2636Z" fill="#404040"/>
<path d="M28.5545 49.6779H26.4624V52.8159H28.5545V49.6779Z" fill="#404040"/>
<path d="M45.2908 29.8034H43.1987V32.9415H45.2908V29.8034Z" fill="#404040"/>
</svg>
