<svg width="64" height="64" viewBox="0 0 64 64" fill="none" xmlns="http://www.w3.org/2000/svg">
<path d="M51.182 55.678C50.8736 55.678 50.5779 55.5555 50.3598 55.3375C50.1418 55.1194 50.0193 54.8237 50.0193 54.5153V25.4483C50.0193 25.1399 50.1418 24.8442 50.3598 24.6262C50.5779 24.4081 50.8736 24.2856 51.182 24.2856H53.8329L46.5313 11.4961L39.2296 24.2856H41.8805C42.1889 24.2856 42.4846 24.4081 42.7027 24.6262C42.9207 24.8442 43.0432 25.1399 43.0432 25.4483V28.9363C43.0432 29.2447 42.9207 29.5404 42.7027 29.7585C42.4846 29.9765 42.1889 30.099 41.8805 30.099C41.5722 30.099 41.2764 29.9765 41.0584 29.7585C40.8404 29.5404 40.7179 29.2447 40.7179 28.9363V26.611H37.2298C37.0249 26.6118 36.8235 26.5585 36.6458 26.4564C36.4682 26.3543 36.3207 26.2071 36.2183 26.0296C36.1162 25.8529 36.0625 25.6524 36.0625 25.4483C36.0625 25.2442 36.1162 25.0437 36.2183 24.867L45.5197 8.58941C45.6211 8.41048 45.7682 8.26166 45.9459 8.15811C46.1236 8.05456 46.3256 8 46.5313 8C46.7369 8 46.9389 8.05456 47.1166 8.15811C47.2943 8.26166 47.4414 8.41048 47.5428 8.58941L56.8442 24.867C56.9463 25.0437 57 25.2442 57 25.4483C57 25.6524 56.9463 25.8529 56.8442 26.0296C56.7428 26.2054 56.5971 26.3515 56.4217 26.4535C56.2463 26.5555 56.0472 26.6097 55.8443 26.611H52.3563V54.5153C52.3563 54.669 52.3258 54.8211 52.2667 54.963C52.2075 55.1048 52.1209 55.2335 52.0117 55.3416C51.9025 55.4497 51.7729 55.5351 51.6305 55.5929C51.4881 55.6506 51.3356 55.6795 51.182 55.678Z" fill="#FA4616"/>
<path d="M41.8806 53.3526C41.5722 53.3526 41.2765 53.2301 41.0584 53.0121C40.8404 52.794 40.7179 52.4983 40.7179 52.1899V34.7497H34.9045V52.1899C34.9045 52.4983 34.782 52.794 34.5639 53.0121C34.3459 53.2301 34.0501 53.3526 33.7418 53.3526C33.4334 53.3526 33.1377 53.2301 32.9196 53.0121C32.7016 52.794 32.5791 52.4983 32.5791 52.1899V33.587C32.5791 33.2787 32.7016 32.9829 32.9196 32.7649C33.1377 32.5468 33.4334 32.4243 33.7418 32.4243H41.8806C42.1889 32.4243 42.4846 32.5468 42.7027 32.7649C42.9207 32.9829 43.0432 33.2787 43.0432 33.587V52.1899C43.0432 52.4983 42.9207 52.794 42.7027 53.0121C42.4846 53.2301 42.1889 53.3526 41.8806 53.3526Z" fill="#404040"/>
<path d="M29.0905 53.3526C28.7822 53.3526 28.4864 53.2301 28.2684 53.0121C28.0503 52.794 27.9278 52.4983 27.9278 52.1899V41.7258H22.1144V52.1899C22.1144 52.4983 21.9919 52.794 21.7739 53.0121C21.5558 53.2301 21.2601 53.3526 20.9517 53.3526C20.6434 53.3526 20.3476 53.2301 20.1296 53.0121C19.9116 52.794 19.7891 52.4983 19.7891 52.1899V40.5631C19.7891 40.2548 19.9116 39.959 20.1296 39.741C20.3476 39.5229 20.6434 39.4005 20.9517 39.4005H29.0905C29.3989 39.4005 29.6946 39.5229 29.9126 39.741C30.1307 39.959 30.2532 40.2548 30.2532 40.5631V52.1899C30.2532 52.4983 30.1307 52.794 29.9126 53.0121C29.6946 53.2301 29.3989 53.3526 29.0905 53.3526Z" fill="#404040"/>
<path d="M16.3015 53.3526C15.9931 53.3526 15.6974 53.2301 15.4793 53.0121C15.2613 52.794 15.1388 52.4983 15.1388 52.1899V49.8646H9.32536V52.1899C9.32536 52.4983 9.20287 52.794 8.98482 53.0121C8.76678 53.2301 8.47104 53.3526 8.16268 53.3526C7.85432 53.3526 7.55859 53.2301 7.34054 53.0121C7.1225 52.794 7 52.4983 7 52.1899V48.7019C7 48.3935 7.1225 48.0978 7.34054 47.8798C7.55859 47.6617 7.85432 47.5392 8.16268 47.5392H16.3015C16.6098 47.5392 16.9055 47.6617 17.1236 47.8798C17.3416 48.0978 17.4641 48.3935 17.4641 48.7019V52.1899C17.4641 52.4983 17.3416 52.794 17.1236 53.0121C16.9055 53.2301 16.6098 53.3526 16.3015 53.3526Z" fill="#404040"/>
</svg>
