<svg width="64" height="64" viewBox="0 0 64 64" fill="none" xmlns="http://www.w3.org/2000/svg">
<path d="M27.4732 33.8721C27.2435 33.8826 27.0168 33.8168 26.8284 33.6849C26.64 33.5531 26.5006 33.3626 26.4319 33.1432C25.2899 29.6327 22.9539 26.6333 19.8298 24.6667L18.2053 26.3016C18.0717 26.4354 17.9042 26.5304 17.7208 26.5763C17.5373 26.6221 17.3448 26.6172 17.164 26.5619C16.9838 26.5072 16.8219 26.4048 16.6954 26.2654C16.5689 26.1261 16.4825 25.955 16.4454 25.7705L14.2378 14.7219C14.2056 14.5538 14.2154 14.3803 14.2662 14.2168C14.3171 14.0533 14.4075 13.9049 14.5294 13.7847C14.6506 13.6646 14.7995 13.5762 14.9629 13.5272C15.1263 13.4782 15.2993 13.47 15.4666 13.5035L26.5152 15.7112C26.6997 15.7482 26.8707 15.8346 27.0101 15.9611C27.1495 16.0877 27.2519 16.2496 27.3066 16.4297C27.3618 16.6106 27.3668 16.803 27.3209 16.9865C27.2751 17.1699 27.1801 17.3375 27.0462 17.471L25.7133 18.8039C30.0974 21.928 32.7944 25.4581 34.1378 29.7588C34.1796 29.8901 34.195 30.0283 34.183 30.1656C34.1711 30.3028 34.132 30.4363 34.0681 30.5584C34.0042 30.6804 33.9167 30.7885 33.8106 30.8765C33.7046 30.9645 33.5822 31.0306 33.4505 31.0709C33.1867 31.1522 32.9015 31.1255 32.6574 30.9967C32.4133 30.8678 32.2304 30.6473 32.1488 30.3836C30.8471 26.2183 28.1084 22.8652 23.5265 19.814C23.3969 19.73 23.2877 19.6182 23.2066 19.4867C23.1256 19.3553 23.0748 19.2074 23.0579 19.0539C23.0423 18.8997 23.0613 18.7439 23.1136 18.598C23.1658 18.4521 23.25 18.3196 23.3599 18.2104L24.193 17.3773L16.5912 15.8882L18.1116 23.49L18.9446 22.6569C19.1003 22.492 19.3056 22.3824 19.5293 22.3448C19.753 22.3072 19.9828 22.3437 20.1838 22.4486C24.1262 24.6366 27.0811 28.251 28.4416 32.5496C28.4837 32.6802 28.4996 32.8178 28.4883 32.9545C28.477 33.0913 28.4388 33.2244 28.3759 33.3463C28.313 33.4683 28.2266 33.5765 28.1218 33.665C28.0169 33.7534 27.8956 33.8203 27.7648 33.8617C27.6685 33.8788 27.5704 33.8823 27.4732 33.8721V33.8721Z" fill="#FA4616"/>
<path d="M35.7312 26.8118C35.5346 26.813 35.3423 26.7549 35.1792 26.6452C35.0637 26.5721 34.9637 26.4769 34.8849 26.3651C34.8061 26.2533 34.7501 26.127 34.7202 25.9936C34.6902 25.8601 34.6868 25.7221 34.7102 25.5873C34.7336 25.4526 34.7833 25.3237 34.8564 25.2082C37.0772 21.6876 40.3591 18.9636 44.2285 17.4294C44.4355 17.3429 44.6649 17.3255 44.8825 17.38C45.1002 17.4344 45.2945 17.5576 45.4364 17.7314L46.1862 18.6373L48.4355 11.223L40.7192 11.9936L41.4689 12.8996C41.5682 13.0208 41.6389 13.1628 41.6756 13.315C41.7124 13.4673 41.7144 13.6259 41.6813 13.7791C41.6483 13.9322 41.5812 14.0759 41.4849 14.1995C41.3886 14.3231 41.2657 14.4233 41.1253 14.4928C37.3036 16.4089 34.8044 18.3354 33.0133 20.7409C32.9368 20.8623 32.836 20.9666 32.7173 21.0473C32.5985 21.1279 32.4644 21.1831 32.3233 21.2095C32.1822 21.2358 32.0372 21.2327 31.8973 21.2004C31.7575 21.168 31.6259 21.1071 31.5107 21.0214C31.3955 20.9358 31.2993 20.8272 31.2281 20.7026C31.1569 20.578 31.1122 20.44 31.0968 20.2973C31.0814 20.1546 31.0958 20.0102 31.1388 19.8733C31.1819 19.7364 31.2528 19.6099 31.3471 19.5017C33.4026 16.8597 36.0348 14.7226 39.0426 13.2536L37.8867 11.8062C37.7705 11.6621 37.6948 11.4897 37.6673 11.3067C37.6398 11.1237 37.6617 10.9366 37.7305 10.7648C37.8011 10.59 37.9178 10.4376 38.0682 10.3239C38.2185 10.2102 38.397 10.1395 38.5844 10.1192L49.7996 9.00498C49.9698 8.98828 50.1415 9.01374 50.2995 9.07912C50.4575 9.1445 50.597 9.24779 50.7056 9.37986C50.8127 9.51208 50.8858 9.66854 50.9185 9.83556C50.9512 10.0026 50.9424 10.175 50.893 10.3379L47.6024 21.0949C47.5477 21.275 47.4453 21.4369 47.3059 21.5635C47.1666 21.69 46.9955 21.7764 46.811 21.8134C46.6207 21.8563 46.4222 21.8449 46.2381 21.7804C46.054 21.716 45.8917 21.6011 45.7696 21.449L44.2805 19.6474C41.1097 21.0543 38.4304 23.3747 36.5851 26.312C36.4953 26.4596 36.3703 26.5826 36.2213 26.6698C36.0722 26.7571 35.9038 26.8059 35.7312 26.8118Z" fill="#404040"/>
<path d="M36.1373 54.0219C35.8611 54.0219 35.5963 53.9122 35.401 53.7169C35.2057 53.5217 35.096 53.2568 35.096 52.9806C35.096 48.5617 33.3406 44.3238 30.216 41.1992C27.0914 38.0746 22.8535 36.3192 18.4346 36.3192H17.3933C17.1171 36.3192 16.8522 36.2095 16.6569 36.0142C16.4616 35.8189 16.3519 35.5541 16.3519 35.2779V34.1012L9.77067 38.4644L16.3207 43.5669V42.5256C16.3207 42.2494 16.4304 41.9845 16.6257 41.7893C16.821 41.594 17.0858 41.4843 17.362 41.4843H18.4034C21.4413 41.4843 24.3549 42.6911 26.5031 44.8393C28.6512 46.9874 29.8581 49.901 29.8581 52.939C29.8581 53.2151 29.7484 53.48 29.5531 53.6753C29.3578 53.8706 29.0929 53.9803 28.8167 53.9803C28.5405 53.9803 28.2757 53.8706 28.0804 53.6753C27.8851 53.48 27.7754 53.2151 27.7754 52.939C27.7754 50.4533 26.788 48.0695 25.0304 46.3119C23.2728 44.5543 20.889 43.5669 18.4034 43.5669V45.6496C18.4037 45.8448 18.3493 46.0361 18.2462 46.2018C18.1431 46.3675 17.9955 46.5009 17.8202 46.5868C17.652 46.6614 17.467 46.6901 17.2841 46.67C17.1012 46.6499 16.9268 46.5817 16.7789 46.4723L7.40684 39.1829C7.27511 39.0817 7.16951 38.9504 7.09886 38.8C7.02821 38.6497 6.99456 38.4846 7.00072 38.3186C7.0071 38.1551 7.05191 37.9954 7.13151 37.8525C7.21112 37.7096 7.32328 37.5874 7.4589 37.4959L16.8309 31.2479C16.9892 31.1565 17.1688 31.1084 17.3516 31.1084C17.5344 31.1084 17.714 31.1565 17.8723 31.2479C18.0386 31.3364 18.1777 31.4684 18.2749 31.6298C18.3721 31.7912 18.4237 31.9759 18.4242 32.1643V34.247C23.3954 34.247 28.163 36.2218 31.6782 39.737C35.1934 43.2522 37.1682 48.0198 37.1682 52.991C37.1655 53.2636 37.056 53.5243 36.8633 53.717C36.6705 53.9098 36.4099 54.0192 36.1373 54.0219Z" fill="#404040"/>
<path d="M36.4078 42.7443C36.2097 42.7446 36.0157 42.6884 35.8484 42.5824C35.6812 42.4763 35.5476 42.3248 35.4635 42.1455C35.3793 41.9662 35.348 41.7667 35.3732 41.5703C35.3985 41.3738 35.4792 41.1887 35.606 41.0365C36.6834 39.7304 38.037 38.6794 39.5693 37.9592C41.1016 37.2389 42.7746 36.8673 44.4677 36.8711H46.5504C46.8266 36.8711 47.0915 36.9808 47.2867 37.1761C47.482 37.3714 47.5917 37.6363 47.5917 37.9125V38.9538L54.1417 33.8513L47.5917 29.4256V30.6023C47.5917 30.8785 47.482 31.1433 47.2867 31.3386C47.0915 31.5339 46.8266 31.6436 46.5504 31.6436H44.4677C42.2288 31.6317 40.0109 32.075 37.9486 32.9468C35.8864 33.8186 34.0229 35.1006 32.4715 36.7149C32.2796 36.9138 32.0165 37.0282 31.7402 37.0331C31.4638 37.038 31.1969 36.9329 30.998 36.741C30.7992 36.549 30.6847 36.286 30.6799 36.0096C30.675 35.7333 30.7801 35.4663 30.972 35.2675C32.7208 33.4422 34.8229 31.9922 37.1503 31.0057C39.4777 30.0193 41.9816 29.5171 44.5094 29.5297H45.5507V27.447C45.5517 27.2595 45.6033 27.0757 45.7 26.9151C45.7968 26.7545 45.9351 26.6229 46.1005 26.5344C46.2658 26.4459 46.4519 26.4036 46.6393 26.4121C46.8266 26.4207 47.0082 26.4796 47.1648 26.5827L56.5368 32.8308C56.6739 32.9223 56.7873 33.045 56.8676 33.1888C56.948 33.3327 56.9931 33.4936 56.9992 33.6583C57.0053 33.8229 56.9723 33.9867 56.9027 34.1361C56.8332 34.2855 56.7292 34.4163 56.5993 34.5177L47.2273 41.8071C47.0738 41.9263 46.8901 42.0002 46.6969 42.0204C46.5037 42.0407 46.3087 42.0064 46.1339 41.9216C45.9586 41.8358 45.811 41.7024 45.7079 41.5367C45.6048 41.3709 45.5503 41.1796 45.5507 40.9844V38.9018H44.5094C43.1145 38.8919 41.7353 39.1955 40.4736 39.7903C39.2119 40.3851 38.1 41.2559 37.22 42.3382C37.1241 42.4628 37.0012 42.5641 36.8605 42.6344C36.7198 42.7048 36.5651 42.7423 36.4078 42.7443V42.7443Z" fill="#FA4616"/>
</svg>
