<svg width="64" height="64" viewBox="0 0 64 64" fill="none" xmlns="http://www.w3.org/2000/svg">
<path d="M23.982 50.6131C23.6997 50.6131 23.429 50.501 23.2293 50.3014C23.0297 50.1017 22.9175 49.831 22.9175 49.5487V24.0012C22.9175 23.7189 23.0297 23.4481 23.2293 23.2485C23.429 23.0489 23.6997 22.9367 23.982 22.9367H27.4203L19.7241 10.0991L11.0486 24.5441C10.9906 24.6848 10.9031 24.8114 10.7921 24.9154C10.681 25.0194 10.5489 25.0984 10.4047 25.147C10.2605 25.1957 10.1076 25.2128 9.95617 25.1974C9.80479 25.1819 9.65847 25.1341 9.52711 25.0573C9.39575 24.9805 9.28238 24.8764 9.19465 24.752C9.10693 24.6277 9.0469 24.486 9.01858 24.3364C8.99027 24.1869 8.99435 24.0331 9.03054 23.8853C9.06673 23.7374 9.13419 23.5991 9.22837 23.4796L18.8087 7.51241C18.9036 7.35599 19.0371 7.22666 19.1966 7.13691C19.356 7.04715 19.5358 7 19.7188 7C19.9017 7 20.0816 7.04715 20.241 7.13691C20.4004 7.22666 20.534 7.35599 20.6289 7.51241L30.2092 23.4796C30.3046 23.6404 30.3559 23.8235 30.358 24.0105C30.3602 24.1975 30.313 24.3817 30.2212 24.5447C30.1295 24.7076 29.9965 24.8435 29.8355 24.9387C29.6746 25.0339 29.4914 25.085 29.3044 25.0869H25.0465V49.5699C25.0409 49.8486 24.9263 50.1139 24.7273 50.3089C24.5283 50.504 24.2607 50.6132 23.982 50.6131Z" fill="#404040"/>
<path d="M15.4665 29.3236C15.1841 29.3236 14.9134 29.2114 14.7138 29.0118C14.5141 28.8122 14.402 28.5414 14.402 28.2591V25.0657H10.1441C9.86175 25.0657 9.59101 24.9535 9.39138 24.7539C9.19176 24.5543 9.07959 24.2835 9.07959 24.0012C9.07959 23.7189 9.19176 23.4481 9.39138 23.2485C9.59101 23.0489 9.86175 22.9367 10.1441 22.9367H15.4665C15.7488 22.9367 16.0195 23.0489 16.2192 23.2485C16.4188 23.4481 16.5309 23.7189 16.5309 24.0012V28.2591C16.5309 28.5414 16.4188 28.8122 16.2192 29.0118C16.0195 29.2114 15.7488 29.3236 15.4665 29.3236Z" fill="#404040"/>
<path d="M49.5297 41.0328C49.2474 41.0328 48.9767 40.9207 48.777 40.7211C48.5774 40.5214 48.4652 40.2507 48.4652 39.9684V32.517C48.4652 32.2347 48.5774 31.9639 48.777 31.7643C48.9767 31.5647 49.2474 31.4525 49.5297 31.4525H52.968L45.2718 18.6149L43.6857 21.2442C43.5267 21.446 43.3001 21.5835 43.0477 21.6313C42.7952 21.6791 42.534 21.634 42.3123 21.5043C42.0905 21.3746 41.9231 21.169 41.841 20.9256C41.7589 20.6822 41.7676 20.4172 41.8655 20.1797L44.3564 16.0389C44.4512 15.8825 44.5848 15.7531 44.7442 15.6634C44.9037 15.5736 45.0835 15.5265 45.2665 15.5265C45.4494 15.5265 45.6293 15.5736 45.7887 15.6634C45.9481 15.7531 46.0817 15.8825 46.1766 16.0389L55.7569 32.0061C55.8523 32.1669 55.9036 32.35 55.9057 32.537C55.9078 32.724 55.8607 32.9082 55.7689 33.0712C55.6772 33.2341 55.5441 33.37 55.3832 33.4652C55.2223 33.5604 55.0391 33.6115 54.8521 33.6134H50.5942V40.0003C50.5859 40.277 50.4701 40.5397 50.2713 40.7324C50.0726 40.9252 49.8066 41.033 49.5297 41.0328Z" fill="#404040"/>
<path d="M15.4663 35.7104C15.184 35.7104 14.9133 35.5983 14.7136 35.3986C14.514 35.199 14.4019 34.9283 14.4019 34.6459V32.517C14.4019 32.2347 14.514 31.9639 14.7136 31.7643C14.9133 31.5647 15.184 31.4525 15.4663 31.4525C15.7487 31.4525 16.0194 31.5647 16.2191 31.7643C16.4187 31.9639 16.5308 32.2347 16.5308 32.517V34.6459C16.5308 34.9283 16.4187 35.199 16.2191 35.3986C16.0194 35.5983 15.7487 35.7104 15.4663 35.7104Z" fill="#404040"/>
<path d="M23.9824 57C23.7001 57 23.4294 56.8879 23.2298 56.6882C23.0301 56.4886 22.918 56.2178 22.918 55.9355V53.8066C22.918 53.5243 23.0301 53.2535 23.2298 53.0539C23.4294 52.8542 23.7001 52.7421 23.9824 52.7421C24.2648 52.7421 24.5355 52.8542 24.7352 53.0539C24.9348 53.2535 25.0469 53.5243 25.0469 53.8066V55.9355C25.0469 56.2178 24.9348 56.4886 24.7352 56.6882C24.5355 56.8879 24.2648 57 23.9824 57Z" fill="#404040"/>
<path d="M36.7558 43.1618C36.4735 43.1618 36.2027 43.0496 36.0031 42.85C35.8035 42.6504 35.6913 42.3796 35.6913 42.0973V28.2591C35.6913 27.9768 35.8035 27.706 36.0031 27.5064C36.2027 27.3068 36.4735 27.1946 36.7558 27.1946H40.1941L32.4979 14.357L30.9118 16.9863C30.7528 17.1881 30.5262 17.3255 30.2737 17.3733C30.0213 17.4211 29.7601 17.376 29.5383 17.2463C29.3166 17.1166 29.1492 16.9111 29.0671 16.6677C28.985 16.4242 28.9937 16.1593 29.0916 15.9218L31.5824 11.781C31.6773 11.6245 31.8109 11.4952 31.9703 11.4055C32.1297 11.3157 32.3096 11.2686 32.4925 11.2686C32.6755 11.2686 32.8554 11.3157 33.0148 11.4055C33.1742 11.4952 33.3078 11.6245 33.4027 11.781L42.983 27.7481C43.0784 27.909 43.1297 28.0921 43.1318 28.2791C43.1339 28.4661 43.0867 28.6503 42.995 28.8132C42.9033 28.9762 42.7702 29.1121 42.6093 29.2073C42.4483 29.3025 42.2652 29.3536 42.0782 29.3555H37.8203V42.1292C37.812 42.406 37.6962 42.6686 37.4974 42.8614C37.2987 43.0541 37.0327 43.1619 36.7558 43.1618Z" fill="#FA4616"/>
<path d="M49.5298 47.4197C49.2475 47.4197 48.9768 47.3075 48.7771 47.1079C48.5775 46.9083 48.4653 46.6375 48.4653 46.3552V44.2263C48.4653 43.9439 48.5775 43.6732 48.7771 43.4736C48.9768 43.2739 49.2475 43.1618 49.5298 43.1618C49.8121 43.1618 50.0829 43.2739 50.2825 43.4736C50.4822 43.6732 50.5943 43.9439 50.5943 44.2263V46.3552C50.5943 46.6375 50.4822 46.9083 50.2825 47.1079C50.0829 47.3075 49.8121 47.4197 49.5298 47.4197Z" fill="#404040"/>
<path d="M49.5298 53.8066C49.2475 53.8066 48.9768 53.6944 48.7771 53.4948C48.5775 53.2952 48.4653 53.0244 48.4653 52.7421V50.6131C48.4653 50.3308 48.5775 50.0601 48.7771 49.8604C48.9768 49.6608 49.2475 49.5486 49.5298 49.5486C49.8121 49.5486 50.0829 49.6608 50.2825 49.8604C50.4822 50.0601 50.5943 50.3308 50.5943 50.6131V52.7421C50.5943 53.0244 50.4822 53.2952 50.2825 53.4948C50.0829 53.6944 49.8121 53.8066 49.5298 53.8066Z" fill="#404040"/>
</svg>
