<svg width="64" height="64" viewBox="0 0 64 64" fill="none" xmlns="http://www.w3.org/2000/svg">
<path d="M11.3467 51.4505C11.0588 51.4851 10.7689 51.4039 10.5409 51.2247C10.3129 51.0455 10.1654 50.7831 10.1308 50.4952C10.0963 50.2073 10.1775 49.9174 10.3567 49.6894C10.5358 49.4614 10.7983 49.3139 11.0862 49.2793C17.1873 47.7486 20.0316 43.949 20.0316 37.3376V34.0807C20.0316 33.7928 20.146 33.5167 20.3496 33.3131C20.5532 33.1095 20.8293 32.9951 21.1173 32.9951H22.344L17.8604 26.2643L13.3768 32.9951H14.6036C14.8915 32.9951 15.1676 33.1095 15.3712 33.3131C15.5748 33.5167 15.6892 33.7928 15.6892 34.0807V38.4232C15.6892 41.9514 14.5167 43.2976 14.2887 43.5364C14.0843 43.7408 13.8071 43.8557 13.518 43.8557C13.2289 43.8557 12.9516 43.7408 12.7472 43.5364C12.5427 43.332 12.4279 43.0547 12.4279 42.7656C12.4279 42.4765 12.5427 42.1993 12.7472 41.9949V41.9949C12.7472 41.9949 13.518 41.0504 13.518 38.4232V35.1663H11.3467C11.1503 35.1658 10.9578 35.112 10.7895 35.0107C10.6213 34.9094 10.4837 34.7643 10.3914 34.591C10.3042 34.4212 10.2633 34.2315 10.2729 34.0409C10.2824 33.8503 10.342 33.6656 10.4457 33.5053L16.9594 23.7348C17.0587 23.587 17.1928 23.466 17.3499 23.3822C17.5071 23.2985 17.6824 23.2547 17.8604 23.2547C18.0385 23.2547 18.2138 23.2985 18.3709 23.3822C18.528 23.466 18.6622 23.587 18.7615 23.7348L25.2752 33.5053C25.3788 33.6656 25.4384 33.8503 25.4479 34.0409C25.4575 34.2315 25.4166 34.4212 25.3294 34.591C25.2371 34.7643 25.0995 34.9094 24.9313 35.0107C24.7631 35.112 24.5705 35.1658 24.3741 35.1663H22.2029V37.3376C22.2029 44.9369 18.6421 49.6593 11.6073 51.4505H11.3467Z" fill="#404040"/>
<path d="M52.5996 51.4505H52.3391C45.3043 49.6918 41.7435 44.9369 41.7435 37.3376V35.1663H39.5723C39.3759 35.1658 39.1833 35.112 39.0151 35.0107C38.8468 34.9094 38.7092 34.7643 38.6169 34.591C38.5298 34.4212 38.4889 34.2315 38.4984 34.0409C38.508 33.8503 38.5676 33.6656 38.6712 33.5053L45.1849 23.7348C45.2842 23.587 45.4183 23.466 45.5755 23.3822C45.7326 23.2985 45.9079 23.2547 46.086 23.2547C46.264 23.2547 46.4393 23.2985 46.5964 23.3822C46.7536 23.466 46.8877 23.587 46.987 23.7348L53.5007 33.5053C53.596 33.6704 53.6461 33.8576 53.6461 34.0482C53.6461 34.2387 53.596 34.4259 53.5007 34.591C53.4084 34.7643 53.2708 34.9094 53.1026 35.0107C52.9343 35.112 52.7418 35.1658 52.5454 35.1663H50.3741V38.4232C50.3741 41.0829 51.1558 42.0166 51.1666 42.0274C51.3571 42.2388 51.457 42.5164 51.4448 42.8007C51.4326 43.0849 51.3093 43.353 51.1015 43.5473C50.8996 43.7397 50.6314 43.8471 50.3524 43.8471C50.0735 43.8471 49.8052 43.7397 49.6033 43.5473C49.3754 43.3084 48.2029 41.9623 48.2029 38.434V34.0916C48.2029 33.8037 48.3173 33.5275 48.5209 33.3239C48.7245 33.1203 49.0006 33.006 49.2885 33.006H50.5153L46.0317 26.2752L41.5481 33.006H42.7748C43.0628 33.006 43.3389 33.1203 43.5425 33.3239C43.7461 33.5275 43.8604 33.8037 43.8604 34.0916V37.3484C43.8604 43.9924 46.7048 47.792 52.8059 49.2902C53.0938 49.3247 53.3562 49.4722 53.5354 49.7003C53.7146 49.9283 53.7958 50.2181 53.7613 50.5061C53.7267 50.794 53.5792 51.0564 53.3512 51.2356C53.1231 51.4147 52.8333 51.496 52.5454 51.4614L52.5996 51.4505Z" fill="#404040"/>
<path d="M55.8564 56.8786H55.7695C42.4273 55.793 34.1441 47.0321 34.1441 34.0807V24.3102C34.1441 24.0223 34.2585 23.7461 34.4621 23.5425C34.6656 23.3389 34.9418 23.2246 35.2297 23.2246H37.8135L31.9729 11.5434L26.1323 23.2246H28.716C29.0039 23.2246 29.2801 23.3389 29.4837 23.5425C29.6873 23.7461 29.8016 24.0223 29.8016 24.3102V34.0807C29.8016 47.0321 21.5184 55.793 8.17621 56.8786C8.03355 56.8905 7.88995 56.874 7.75368 56.8302C7.61741 56.7863 7.49115 56.716 7.38218 56.6231C7.27321 56.5303 7.18368 56.4169 7.11873 56.2893C7.05378 56.1617 7.0147 56.0226 7.00374 55.8798C6.99187 55.7372 7.00833 55.5936 7.05217 55.4573C7.09601 55.3211 7.16637 55.1948 7.2592 55.0858C7.35203 54.9768 7.46549 54.8873 7.59306 54.8224C7.72062 54.7574 7.85978 54.7183 8.00251 54.7074C20.1071 53.6977 27.6304 45.7945 27.6304 34.0807V25.3958H24.3736C24.1891 25.3962 24.0075 25.3495 23.8461 25.2602C23.6846 25.171 23.5486 25.042 23.4508 24.8856C23.3555 24.7205 23.3053 24.5333 23.3053 24.3427C23.3053 24.1522 23.3555 23.965 23.4508 23.7999L31.0501 8.60136C31.1401 8.4207 31.2787 8.26872 31.4504 8.1625C31.622 8.05627 31.8199 8 32.0217 8C32.2236 8 32.4214 8.05627 32.593 8.1625C32.7647 8.26872 32.9033 8.4207 32.9933 8.60136L40.5926 23.7999C40.6759 23.9652 40.7156 24.149 40.7078 24.3339C40.7001 24.5188 40.6452 24.6987 40.5484 24.8564C40.4516 25.0141 40.3161 25.1445 40.1547 25.2351C39.9933 25.3257 39.8115 25.3735 39.6264 25.3741H36.3696V34.059C36.3696 45.7728 43.8929 53.676 55.9975 54.6857C56.1402 54.6966 56.2794 54.7357 56.4069 54.8006C56.5345 54.8656 56.648 54.9551 56.7408 55.0641C56.8336 55.1731 56.904 55.2993 56.9478 55.4356C56.9917 55.5719 57.0081 55.7155 56.9963 55.8581C56.9794 56.1443 56.8502 56.4121 56.6366 56.6033C56.4231 56.7945 56.1426 56.8934 55.8564 56.8786V56.8786Z" fill="#FA4616"/>
</svg>
