<svg width="64" height="64" viewBox="0 0 64 64" fill="none" xmlns="http://www.w3.org/2000/svg">
<path d="M54.8947 48.9114C54.6155 48.9114 54.3478 48.8005 54.1504 48.6031C53.953 48.4057 53.8421 48.1379 53.8421 47.8587V14.1745H48.5789V47.8587C48.5789 48.1379 48.468 48.4057 48.2706 48.6031C48.0732 48.8005 47.8054 48.9114 47.5263 48.9114C47.2471 48.9114 46.9793 48.8005 46.7819 48.6031C46.5845 48.4057 46.4736 48.1379 46.4736 47.8587V13.1219C46.4736 12.8427 46.5845 12.575 46.7819 12.3776C46.9793 12.1802 47.2471 12.0693 47.5263 12.0693H54.8947C55.1739 12.0693 55.4416 12.1802 55.639 12.3776C55.8364 12.575 55.9473 12.8427 55.9473 13.1219V47.8587C55.9473 48.1379 55.8364 48.4057 55.639 48.6031C55.4416 48.8005 55.1739 48.9114 54.8947 48.9114Z" fill="#404040"/>
<path d="M43.3156 48.9114C43.0364 48.9114 42.7687 48.8005 42.5713 48.6031C42.3739 48.4057 42.263 48.1379 42.263 47.8588V38.3851H36.9998V47.8588C36.9998 48.1379 36.8889 48.4057 36.6915 48.6031C36.4941 48.8005 36.2263 48.9114 35.9472 48.9114C35.668 48.9114 35.4002 48.8005 35.2028 48.6031C35.0054 48.4057 34.8945 48.1379 34.8945 47.8588V37.3324C34.8945 37.0533 35.0054 36.7855 35.2028 36.5881C35.4002 36.3907 35.668 36.2798 35.9472 36.2798H43.3156C43.5948 36.2798 43.8625 36.3907 44.0599 36.5881C44.2573 36.7855 44.3682 37.0533 44.3682 37.3324V47.8588C44.3682 48.1379 44.2573 48.4057 44.0599 48.6031C43.8625 48.8005 43.5948 48.9114 43.3156 48.9114Z" fill="#404040"/>
<path d="M31.737 48.9114C31.4578 48.9114 31.1901 48.8005 30.9926 48.6031C30.7952 48.4057 30.6843 48.1379 30.6843 47.8588V45.7535H25.4212V47.8588C25.4212 48.1379 25.3103 48.4057 25.1129 48.6031C24.9155 48.8005 24.6477 48.9114 24.3685 48.9114C24.0894 48.9114 23.8216 48.8005 23.6242 48.6031C23.4268 48.4057 23.3159 48.1379 23.3159 47.8588V44.7009C23.3159 44.4217 23.4268 44.1539 23.6242 43.9565C23.8216 43.7591 24.0894 43.6482 24.3685 43.6482H31.737C32.0161 43.6482 32.2839 43.7591 32.4813 43.9565C32.6787 44.1539 32.7896 44.4217 32.7896 44.7009V47.8588C32.7896 48.1379 32.6787 48.4057 32.4813 48.6031C32.2839 48.8005 32.0161 48.9114 31.737 48.9114Z" fill="#404040"/>
<path d="M8.05263 45.7535C7.77346 45.7535 7.50572 45.6426 7.30831 45.4452C7.1109 45.2478 7 44.98 7 44.7008C7 44.4217 7.1109 44.1539 7.30831 43.9565C7.50572 43.7591 7.77346 43.6482 8.05263 43.6482C15.9594 43.6537 23.5485 40.5363 29.1684 34.9745C31.6448 32.5308 33.612 29.6203 34.9563 26.4114C36.3006 23.2025 36.9952 19.7589 37 16.2798V12.0693C37 11.7901 37.1109 11.5223 37.3083 11.3249C37.5057 11.1275 37.7735 11.0166 38.0526 11.0166C38.3318 11.0166 38.5995 11.1275 38.797 11.3249C38.9944 11.5223 39.1053 11.7901 39.1053 12.0693V16.2798C39.1034 20.0327 38.3583 23.7481 36.913 27.2115C35.4676 30.6749 33.3506 33.8178 30.6842 36.4587C24.6615 42.4207 16.5271 45.7615 8.05263 45.7535V45.7535Z" fill="#FA4616"/>
<path d="M42.2635 17.3324C42.1249 17.3332 41.9876 17.3067 41.8593 17.2543C41.7311 17.2019 41.6144 17.1247 41.5161 17.0272L38.0529 13.5535L34.5898 17.0272C34.3902 17.2254 34.12 17.3362 33.8387 17.3352C33.5574 17.3342 33.288 17.2215 33.0898 17.0219C32.8916 16.8223 32.7808 16.5521 32.7817 16.2708C32.7827 15.9895 32.8954 15.7201 33.095 15.5219L37.3056 11.3114C37.4034 11.2127 37.5198 11.1344 37.6481 11.081C37.7764 11.0275 37.914 11 38.0529 11C38.1919 11 38.3295 11.0275 38.4577 11.081C38.586 11.1344 38.7024 11.2127 38.8003 11.3114L43.0108 15.5219C43.1095 15.6197 43.1878 15.7362 43.2412 15.8644C43.2947 15.9927 43.3222 16.1303 43.3222 16.2693C43.3222 16.4082 43.2947 16.5458 43.2412 16.6741C43.1878 16.8024 43.1095 16.9188 43.0108 17.0166C42.9133 17.1161 42.7971 17.1952 42.6688 17.2494C42.5405 17.3036 42.4027 17.3318 42.2635 17.3324V17.3324Z" fill="#FA4616"/>
<path d="M55.9474 52.0693H18.0526C17.7735 52.0693 17.5057 51.9584 17.3083 51.761C17.1109 51.5636 17 51.2958 17 51.0167C17 50.7375 17.1109 50.4697 17.3083 50.2723C17.5057 50.0749 17.7735 49.964 18.0526 49.964H55.9474C56.2265 49.964 56.4943 50.0749 56.6917 50.2723C56.8891 50.4697 57 50.7375 57 51.0167C57 51.2958 56.8891 51.5636 56.6917 51.761C56.4943 51.9584 56.2265 52.0693 55.9474 52.0693Z" fill="#404040"/>
</svg>
