<svg width="64" height="64" viewBox="0 0 64 64" fill="none" xmlns="http://www.w3.org/2000/svg">
<path d="M27.605 43.7782C24.3886 43.7782 21.2445 42.8245 18.5702 41.0376C15.8959 39.2507 13.8115 36.7109 12.5807 33.7393C11.3498 30.7678 11.0278 27.498 11.6552 24.3435C12.2827 21.1889 13.8316 18.2913 16.1059 16.017C18.3802 13.7427 21.2778 12.1939 24.4324 11.5664C27.5869 10.9389 30.8567 11.2609 33.8282 12.4918C36.7997 13.7226 39.3395 15.807 41.1264 18.4813C42.9134 21.1556 43.8671 24.2997 43.8671 27.5161C43.8671 31.8291 42.1538 35.9654 39.104 39.0152C36.0543 42.0649 31.9179 43.7782 27.605 43.7782ZM27.605 13.4222C24.8174 13.4222 22.0925 14.2488 19.7748 15.7974C17.4571 17.3461 15.6506 19.5473 14.5839 22.1226C13.5172 24.6979 13.2381 27.5317 13.7819 30.2657C14.3257 32.9996 15.668 35.5109 17.6391 37.4819C19.6101 39.453 22.1214 40.7953 24.8554 41.3391C27.5893 41.883 30.4231 41.6039 32.9984 40.5371C35.5738 39.4704 37.7749 37.6639 39.3236 35.3462C40.8722 33.0285 41.6988 30.3036 41.6988 27.5161C41.6988 23.7781 40.2139 20.1933 37.5708 17.5502C34.9277 14.9071 31.3429 13.4222 27.605 13.4222V13.4222Z" fill="#FA4616"/>
<path d="M53.6244 56.9181C53.1789 56.9189 52.7376 56.8312 52.3263 56.66C51.9149 56.4887 51.5418 56.2374 51.2285 55.9207L40.387 45.0792C40.072 44.7659 39.822 44.3934 39.6514 43.9831C39.4809 43.5729 39.3931 43.133 39.3931 42.6887C39.3931 42.2444 39.4809 41.8045 39.6514 41.3942C39.822 40.9839 40.072 40.6115 40.387 40.2981C41.0324 39.6818 41.8905 39.3379 42.783 39.3379C43.6754 39.3379 44.5335 39.6818 45.1789 40.2981L56.0204 51.1396C56.4898 51.6147 56.8087 52.2177 56.9369 52.8732C57.0651 53.5287 56.9971 54.2075 56.7413 54.8244C56.4854 55.4414 56.0532 55.9692 55.4988 56.3416C54.9443 56.7141 54.2923 56.9146 53.6244 56.9181V56.9181ZM42.783 41.469C42.5435 41.4728 42.3104 41.5467 42.1125 41.6815C41.9145 41.8164 41.7605 42.0063 41.6693 42.2278C41.5782 42.4493 41.554 42.6926 41.5997 42.9277C41.6454 43.1628 41.759 43.3793 41.9265 43.5506L52.7679 54.392C52.9994 54.6108 53.3059 54.7328 53.6244 54.7328C53.9429 54.7328 54.2494 54.6108 54.4809 54.392C54.5946 54.2791 54.6849 54.1449 54.7465 53.9969C54.8081 53.849 54.8398 53.6904 54.8398 53.5301C54.8398 53.3699 54.8081 53.2112 54.7465 53.0633C54.6849 52.9154 54.5946 52.7811 54.4809 52.6682L43.6395 41.8268C43.5275 41.7134 43.3941 41.6234 43.2471 41.562C43.1001 41.5006 42.9423 41.469 42.783 41.469V41.469Z" fill="#FA4616"/>
<path d="M39.6284 37.9995L38.0952 39.5327L40.3874 41.8249L41.9206 40.2917L39.6284 37.9995Z" fill="#FA4616"/>
<path d="M15.6793 31.8526C15.464 31.8539 15.2532 31.7909 15.0737 31.6719C14.8943 31.5529 14.7543 31.3831 14.6717 31.1842C14.5892 30.9853 14.5677 30.7664 14.61 30.5552C14.6524 30.3441 14.7567 30.1504 14.9096 29.9987L25.209 19.6993C25.3098 19.5977 25.4296 19.5171 25.5618 19.462C25.6939 19.407 25.8356 19.3787 25.9787 19.3787C26.1218 19.3787 26.2635 19.407 26.3956 19.462C26.5278 19.5171 26.6477 19.5977 26.7484 19.6993L33.0256 25.9765L37.6766 21.3256C37.7774 21.2239 37.8973 21.1433 38.0294 21.0883C38.1615 21.0332 38.3032 21.0049 38.4464 21.0049C38.5895 21.0049 38.7312 21.0332 38.8633 21.0883C38.9954 21.1433 39.1153 21.2239 39.2161 21.3256C39.418 21.5287 39.5314 21.8035 39.5314 22.0899C39.5314 22.3763 39.418 22.6511 39.2161 22.8542L33.7954 28.2749C33.6946 28.3765 33.5747 28.4572 33.4426 28.5122C33.3105 28.5673 33.1688 28.5956 33.0256 28.5956C32.8825 28.5956 32.7408 28.5673 32.6087 28.5122C32.4766 28.4572 32.3567 28.3765 32.2559 28.2749L25.9787 21.9977L16.4491 31.5274C16.3487 31.6298 16.2289 31.7113 16.0968 31.7671C15.9647 31.823 15.8228 31.852 15.6793 31.8526Z" fill="#404040"/>
<path d="M44.9512 23.1795C44.7359 23.1807 44.5251 23.1178 44.3456 22.9988C44.1662 22.8797 44.0262 22.71 43.9437 22.5111C43.8611 22.3122 43.8396 22.0932 43.882 21.8821C43.9243 21.671 44.0286 21.4772 44.1815 21.3256L47.976 17.5311C48.0768 17.4295 48.1967 17.3488 48.3288 17.2938C48.4609 17.2387 48.6026 17.2104 48.7458 17.2104C48.8889 17.2104 49.0306 17.2387 49.1627 17.2938C49.2948 17.3488 49.4147 17.4295 49.5155 17.5311L50.9032 18.9188L53.1582 10.6251L44.8645 12.9451L46.2631 14.3329C46.465 14.536 46.5783 14.8108 46.5783 15.0972C46.5783 15.3836 46.465 15.6584 46.2631 15.8615L43.5527 18.5719C43.4519 18.6735 43.332 18.7541 43.1999 18.8092C43.0678 18.8642 42.9261 18.8925 42.783 18.8925C42.6398 18.8925 42.4981 18.8642 42.366 18.8092C42.2339 18.7541 42.114 18.6735 42.0132 18.5719C41.8113 18.3687 41.698 18.094 41.698 17.8075C41.698 17.5211 41.8113 17.2463 42.0132 17.0432L43.9538 15.1026L42.0132 13.1511C41.872 13.0132 41.7711 12.8393 41.7214 12.6483C41.6717 12.4572 41.6752 12.2562 41.7313 12.067C41.7804 11.8822 41.8774 11.7137 42.0126 11.5785C42.1478 11.4433 42.3163 11.3463 42.5011 11.2972L54.4267 8.04481C54.6159 7.98864 54.8169 7.98521 55.008 8.03489C55.199 8.08456 55.3729 8.18546 55.5108 8.3267C55.6502 8.46577 55.749 8.64016 55.7968 8.83116C55.8445 9.02215 55.8394 9.22256 55.7818 9.41085L52.5294 21.3364C52.4787 21.5189 52.3811 21.6849 52.2463 21.8179C52.1115 21.9509 51.9442 22.0463 51.7611 22.0946C51.5779 22.1428 51.3854 22.1422 51.2025 22.0929C51.0197 22.0436 50.8529 21.9472 50.7189 21.8134L48.7783 19.8728L45.7535 22.8976C45.6457 22.9962 45.519 23.072 45.3812 23.1205C45.2433 23.1689 45.0971 23.189 44.9512 23.1795V23.1795Z" fill="#404040"/>
<path d="M17.8478 36.1892C17.6325 36.1905 17.4216 36.1275 17.2422 36.0085C17.0627 35.8895 16.9228 35.7197 16.8402 35.5208C16.7576 35.3219 16.7361 35.103 16.7785 34.8918C16.8209 34.6807 16.9252 34.4869 17.0781 34.3353L25.2091 26.2042C25.3099 26.1026 25.4298 26.022 25.5619 25.9669C25.694 25.9119 25.8358 25.8835 25.9789 25.8835C26.122 25.8835 26.2637 25.9119 26.3958 25.9669C26.5279 26.022 26.6478 26.1026 26.7486 26.2042L33.0258 32.4814L38.7609 26.7463C38.8617 26.6447 38.9816 26.564 39.1137 26.509C39.2458 26.454 39.3876 26.4256 39.5307 26.4256C39.6738 26.4256 39.8155 26.454 39.9476 26.509C40.0797 26.564 40.1996 26.6447 40.3004 26.7463C40.5023 26.9494 40.6157 27.2242 40.6157 27.5106C40.6157 27.797 40.5023 28.0718 40.3004 28.2749L33.7955 34.7798C33.6948 34.8814 33.5749 34.9621 33.4427 35.0171C33.3106 35.0722 33.1689 35.1005 33.0258 35.1005C32.8827 35.1005 32.741 35.0722 32.6089 35.0171C32.4768 34.9621 32.3569 34.8814 32.2561 34.7798L25.9789 28.5026L18.6175 35.864C18.5171 35.9664 18.3974 36.0479 18.2653 36.1037C18.1331 36.1596 17.9912 36.1886 17.8478 36.1892Z" fill="#404040"/>
<path d="M8.09047 39.4416C7.87513 39.4429 7.66428 39.38 7.48484 39.2609C7.30539 39.1419 7.16546 38.9721 7.08288 38.7732C7.00031 38.5744 6.97882 38.3554 7.02118 38.1442C7.06354 37.9331 7.16784 37.7394 7.32073 37.5877L10.5732 34.3353C10.674 34.2337 10.7938 34.153 10.926 34.098C11.0581 34.043 11.1998 34.0146 11.3429 34.0146C11.486 34.0146 11.6277 34.043 11.7598 34.098C11.892 34.153 12.0118 34.2337 12.1126 34.3353C12.3146 34.5384 12.4279 34.8132 12.4279 35.0996C12.4279 35.386 12.3146 35.6608 12.1126 35.8639L8.8602 39.1164C8.75979 39.2188 8.64007 39.3003 8.50794 39.3561C8.37581 39.412 8.23391 39.441 8.09047 39.4416Z" fill="#404040"/>
<path d="M8.09047 45.9465C7.87513 45.9477 7.66428 45.8848 7.48484 45.7658C7.30539 45.6468 7.16546 45.477 7.08288 45.2781C7.00031 45.0792 6.97882 44.8602 7.02118 44.6491C7.06354 44.438 7.16784 44.2442 7.32073 44.0926L12.7415 38.6719C12.8422 38.5703 12.9621 38.4896 13.0942 38.4346C13.2264 38.3795 13.3681 38.3512 13.5112 38.3512C13.6543 38.3512 13.796 38.3795 13.9281 38.4346C14.0602 38.4896 14.1801 38.5703 14.2809 38.6719C14.4828 38.875 14.5962 39.1498 14.5962 39.4362C14.5962 39.7226 14.4828 39.9974 14.2809 40.2005L8.8602 45.6212C8.75979 45.7237 8.64007 45.8052 8.50794 45.861C8.37581 45.9168 8.23391 45.9459 8.09047 45.9465Z" fill="#404040"/>
</svg>
