<svg width="64" height="64" viewBox="0 0 64 64" fill="none" xmlns="http://www.w3.org/2000/svg">
<path d="M9.71109 52.0853H7.60938V54.187H9.71109V52.0853Z" fill="#404040"/>
<path d="M57.0002 52.0853H54.8984V54.187H57.0002V52.0853Z" fill="#404040"/>
<path d="M49.6439 54.187H39.1353V30.0172H49.6439V54.187ZM41.237 52.0852H47.5421V32.1189H41.237V52.0852Z" fill="#404040"/>
<path d="M24.4236 54.187H13.915V44.7292H24.4236V54.187ZM16.0168 52.0853H22.3219V46.831H16.0168V52.0853Z" fill="#404040"/>
<path d="M37.034 54.187H26.5254V39.4749H37.034V54.187ZM28.6271 52.0853H34.9323V41.5767H28.6271V52.0853Z" fill="#404040"/>
<path d="M52.7965 52.0853H11.813V54.187H52.7965V52.0853Z" fill="#404040"/>
<path d="M13.2001 38.2349L7 31.9823L22.1009 16.8815L28.6162 23.3863L39.5241 12.4678L36.1193 9H49.6439V22.1358L45.9449 18.6994L28.0277 36.438L21.5124 29.9226L13.2001 38.2349ZM9.9634 31.9928L13.2001 35.2505L21.5124 26.9487L28.0277 33.464L45.8923 15.778L47.5316 17.3123V11.1017H41.1214L42.4665 12.4678L28.6162 26.3392L22.1009 19.8344L9.9634 31.9928Z" fill="#FA4616"/>
</svg>
