<svg width="64" height="64" viewBox="0 0 64 64" fill="none" xmlns="http://www.w3.org/2000/svg">
<path d="M43.4586 46.4998H41.3753V23.5832H37.2086C37.0145 23.5846 36.8239 23.5317 36.6582 23.4304C36.4926 23.3292 36.3585 23.1837 36.2711 23.0103C36.1848 22.8364 36.1489 22.6419 36.1673 22.4486C36.1857 22.2554 36.2577 22.0711 36.3753 21.9166L45.7502 9.41666C45.8473 9.28729 45.9731 9.18229 46.1177 9.10997C46.2624 9.03765 46.4219 9 46.5836 9C46.7453 9 46.9048 9.03765 47.0494 9.10997C47.1941 9.18229 47.3199 9.28729 47.4169 9.41666L56.7918 21.9166C56.9079 22.0713 56.9786 22.2554 56.996 22.448C57.0133 22.6407 56.9767 22.8344 56.8902 23.0074C56.8037 23.1805 56.6707 23.326 56.5061 23.4277C56.3416 23.5294 56.152 23.5832 55.9585 23.5832H51.7919V36.0832H49.7086V22.5416C49.7086 22.2653 49.8183 22.0004 50.0137 21.805C50.209 21.6097 50.474 21.4999 50.7502 21.4999H53.8752L46.5836 11.7812L39.292 21.4999H42.4169C42.6932 21.4999 42.9581 21.6097 43.1535 21.805C43.3488 22.0004 43.4586 22.2653 43.4586 22.5416V46.4998Z" fill="#FA4616"/>
<path d="M43.4583 48.5831H41.375V50.6664H43.4583V48.5831Z" fill="#FA4616"/>
<path d="M43.4583 52.7497H41.375V54.833H43.4583V52.7497Z" fill="#FA4616"/>
<path d="M51.7913 38.1665H49.708V43.3748H51.7913V38.1665Z" fill="#FA4616"/>
<path d="M51.7913 45.4581H49.708V47.5415H51.7913V45.4581Z" fill="#FA4616"/>
<path d="M55.9578 40.2498H53.8745V52.7497H55.9578V40.2498Z" fill="#404040"/>
<path d="M39.2914 54.8331H37.2081V29.8332H31.9998V54.8331H29.9165V28.7916C29.9165 28.5153 30.0262 28.2504 30.2216 28.055C30.4169 27.8597 30.6819 27.7499 30.9582 27.7499H38.2498C38.5261 27.7499 38.791 27.8597 38.9863 28.055C39.1817 28.2504 39.2914 28.5153 39.2914 28.7916V54.8331Z" fill="#404040"/>
<path d="M27.8334 54.8331H25.7501V39.2082H20.5418V54.8331H18.4585V38.1665C18.4585 37.8902 18.5682 37.6253 18.7636 37.4299C18.9589 37.2346 19.2239 37.1248 19.5002 37.1248H26.7918C27.0681 37.1248 27.333 37.2346 27.5283 37.4299C27.7237 37.6253 27.8334 37.8902 27.8334 38.1665V54.8331Z" fill="#404040"/>
<path d="M16.3749 54.8331H14.2916V47.5415H9.08332V54.8331H7V46.4998C7 46.2235 7.10975 45.9586 7.30509 45.7632C7.50044 45.5679 7.76539 45.4581 8.04166 45.4581H15.3333C15.6095 45.4581 15.8745 45.5679 16.0698 45.7632C16.2652 45.9586 16.3749 46.2235 16.3749 46.4998V54.8331Z" fill="#404040"/>
</svg>
