<svg width="64" height="64" viewBox="0 0 64 64" fill="none" xmlns="http://www.w3.org/2000/svg">
<path d="M37.9993 51.9998C37.7341 51.9998 37.4797 51.8945 37.2922 51.7069C37.1046 51.5194 36.9993 51.265 36.9993 50.9998V23.999C36.9993 23.7338 37.1046 23.4795 37.2922 23.2919C37.4797 23.1044 37.7341 22.999 37.9993 22.999H43.7895L31.9992 9.51863L20.1988 22.999H25.999C26.2642 22.999 26.5186 23.1044 26.7061 23.2919C26.8936 23.4795 26.999 23.7338 26.999 23.999V50.9998C26.999 51.265 26.8936 51.5194 26.7061 51.7069C26.5186 51.8945 26.2642 51.9998 25.999 51.9998C25.7338 51.9998 25.4794 51.8945 25.2918 51.7069C25.1043 51.5194 24.999 51.265 24.999 50.9998V24.9991H17.9988C17.8066 24.9988 17.6185 24.9432 17.4571 24.8389C17.2957 24.7346 17.1678 24.5859 17.0887 24.4108C17.0096 24.2357 16.9826 24.0414 17.011 23.8514C17.0394 23.6613 17.1219 23.4834 17.2487 23.339L31.2491 7.33857C31.343 7.23216 31.4584 7.14694 31.5877 7.08856C31.717 7.03019 31.8573 7 31.9992 7C32.141 7 32.2813 7.03019 32.4106 7.08856C32.5399 7.14694 32.6553 7.23216 32.7492 7.33857L46.7496 23.339C46.8764 23.4834 46.959 23.6613 46.9874 23.8514C47.0157 24.0414 46.9888 24.2357 46.9096 24.4108C46.8305 24.5859 46.7026 24.7346 46.5412 24.8389C46.3798 24.9432 46.1917 24.9988 45.9996 24.9991H38.9994V50.9998C38.9994 51.265 38.894 51.5194 38.7064 51.7069C38.5189 51.8945 38.2646 51.9998 37.9993 51.9998Z" fill="#FA4616"/>
<path d="M25.9995 56.9999C25.7343 56.9999 25.4799 56.8946 25.2924 56.707C25.1049 56.5195 24.9995 56.2651 24.9995 55.9999V54.9999C24.9995 54.7347 25.1049 54.4803 25.2924 54.2928C25.4799 54.1053 25.7343 53.9999 25.9995 53.9999C26.2647 53.9999 26.5191 54.1053 26.7066 54.2928C26.8941 54.4803 26.9995 54.7347 26.9995 54.9999V55.9999C26.9995 56.2651 26.8941 56.5195 26.7066 56.707C26.5191 56.8946 26.2647 56.9999 25.9995 56.9999Z" fill="#FA4616"/>
<path d="M33.999 56.9986C33.7338 56.9986 33.4794 56.8932 33.2919 56.7057C33.1044 56.5181 32.999 56.2638 32.999 55.9986V33.9986C32.999 33.7333 33.1044 33.479 33.2919 33.2915C33.4794 33.1039 33.7338 32.9986 33.999 32.9986C34.2642 32.9986 34.5186 33.1039 34.7061 33.2915C34.8937 33.479 34.999 33.7333 34.999 33.9986V55.9986C34.999 56.2638 34.8937 56.5181 34.7061 56.7057C34.5186 56.8932 34.2642 56.9986 33.999 56.9986Z" fill="#FA4616"/>
<path d="M29.9995 56.9996C29.7343 56.9996 29.4799 56.8942 29.2924 56.7067C29.1049 56.5192 28.9995 56.2648 28.9995 55.9996V43.9996C28.9995 43.7344 29.1049 43.48 29.2924 43.2925C29.4799 43.105 29.7343 42.9996 29.9995 42.9996C30.2647 42.9996 30.5191 43.105 30.7066 43.2925C30.8941 43.48 30.9995 43.7344 30.9995 43.9996V55.9996C30.9995 56.2648 30.8941 56.5192 30.7066 56.7067C30.5191 56.8942 30.2647 56.9996 29.9995 56.9996Z" fill="#FA4616"/>
<path d="M38 56.9999C37.7348 56.9999 37.4804 56.8946 37.2929 56.707C37.1053 56.5195 37 56.2651 37 55.9999V54.9999C37 54.7347 37.1053 54.4803 37.2929 54.2928C37.4804 54.1053 37.7348 53.9999 38 53.9999C38.2652 53.9999 38.5196 54.1053 38.7071 54.2928C38.8946 54.4803 39 54.7347 39 54.9999V55.9999C39 56.2651 38.8946 56.5195 38.7071 56.707C38.5196 56.8946 38.2652 56.9999 38 56.9999Z" fill="#FA4616"/>
<path d="M51.9987 47.9986C51.7335 47.9986 51.4791 47.8932 51.2916 47.7057C51.1041 47.5181 50.9987 47.2638 50.9987 46.9986V35.9986C50.9987 35.7333 51.1041 35.479 51.2916 35.2915C51.4791 35.1039 51.7335 34.9986 51.9987 34.9986H53.7887L48.9987 29.5186L44.1987 34.9986H45.9987C46.2639 34.9986 46.5183 35.1039 46.7058 35.2915C46.8934 35.479 46.9987 35.7333 46.9987 35.9986V46.9986C46.9987 47.2638 46.8934 47.5181 46.7058 47.7057C46.5183 47.8932 46.2639 47.9986 45.9987 47.9986C45.7335 47.9986 45.4791 47.8932 45.2916 47.7057C45.1041 47.5181 44.9987 47.2638 44.9987 46.9986V36.9986H41.9987C41.8066 36.9983 41.6185 36.9427 41.4571 36.8384C41.2957 36.7341 41.1678 36.5854 41.0887 36.4103C41.0096 36.2352 40.9826 36.0409 41.011 35.8509C41.0393 35.6608 41.1219 35.4829 41.2487 35.3386L48.2487 27.3386C48.3426 27.2322 48.458 27.1469 48.5873 27.0886C48.7166 27.0302 48.8569 27 48.9987 27C49.1406 27 49.2809 27.0302 49.4102 27.0886C49.5395 27.1469 49.6549 27.2322 49.7487 27.3386L56.7487 35.3386C56.8756 35.4829 56.9581 35.6608 56.9865 35.8509C57.0149 36.0409 56.9879 36.2352 56.9088 36.4103C56.8296 36.5854 56.7017 36.7341 56.5403 36.8384C56.3789 36.9427 56.1909 36.9983 55.9987 36.9986H52.9987V46.9986C52.9987 47.2638 52.8934 47.5181 52.7058 47.7057C52.5183 47.8932 52.2639 47.9986 51.9987 47.9986Z" fill="#404040"/>
<path d="M46 52.9998C45.7348 52.9998 45.4804 52.8944 45.2929 52.7069C45.1053 52.5194 45 52.265 45 51.9998V50.9998C45 50.7346 45.1053 50.4802 45.2929 50.2927C45.4804 50.1051 45.7348 49.9998 46 49.9998C46.2652 49.9998 46.5196 50.1051 46.7071 50.2927C46.8946 50.4802 47 50.7346 47 50.9998V51.9998C47 52.265 46.8946 52.5194 46.7071 52.7069C46.5196 52.8944 46.2652 52.9998 46 52.9998Z" fill="#404040"/>
<path d="M52.0005 52.9998C51.7353 52.9998 51.4809 52.8944 51.2934 52.7069C51.1058 52.5194 51.0005 52.265 51.0005 51.9998V50.9998C51.0005 50.7346 51.1058 50.4802 51.2934 50.2927C51.4809 50.1051 51.7353 49.9998 52.0005 49.9998C52.2657 49.9998 52.52 50.1051 52.7076 50.2927C52.8951 50.4802 53.0005 50.7346 53.0005 50.9998V51.9998C53.0005 52.265 52.8951 52.5194 52.7076 52.7069C52.52 52.8944 52.2657 52.9998 52.0005 52.9998Z" fill="#404040"/>
<path d="M11.999 52.9998C11.7338 52.9998 11.4794 52.8944 11.2919 52.7069C11.1044 52.5194 10.999 52.265 10.999 51.9998V50.9998C10.999 50.7346 11.1044 50.4802 11.2919 50.2927C11.4794 50.1051 11.7338 49.9998 11.999 49.9998C12.2642 49.9998 12.5186 50.1051 12.7061 50.2927C12.8937 50.4802 12.999 50.7346 12.999 50.9998V51.9998C12.999 52.265 12.8937 52.5194 12.7061 52.7069C12.5186 52.8944 12.2642 52.9998 11.999 52.9998Z" fill="#404040"/>
<path d="M17.9995 52.9998C17.7343 52.9998 17.4799 52.8944 17.2924 52.7069C17.1049 52.5194 16.9995 52.265 16.9995 51.9998V50.9998C16.9995 50.7346 17.1049 50.4802 17.2924 50.2927C17.4799 50.1051 17.7343 49.9998 17.9995 49.9998C18.2647 49.9998 18.5191 50.1051 18.7066 50.2927C18.8941 50.4802 18.9995 50.7346 18.9995 50.9998V51.9998C18.9995 52.265 18.8941 52.5194 18.7066 52.7069C18.5191 52.8944 18.2647 52.9998 17.9995 52.9998Z" fill="#404040"/>
<path d="M17.9987 47.9986C17.7335 47.9986 17.4791 47.8932 17.2916 47.7057C17.1041 47.5181 16.9987 47.2638 16.9987 46.9986V35.9986C16.9987 35.7333 17.1041 35.479 17.2916 35.2915C17.4791 35.1039 17.7335 34.9986 17.9987 34.9986H19.7887L14.9987 29.5186L10.1987 34.9986H11.9987C12.2639 34.9986 12.5183 35.1039 12.7058 35.2915C12.8934 35.479 12.9987 35.7333 12.9987 35.9986V46.9986C12.9987 47.2638 12.8934 47.5181 12.7058 47.7057C12.5183 47.8932 12.2639 47.9986 11.9987 47.9986C11.7335 47.9986 11.4791 47.8932 11.2916 47.7057C11.1041 47.5181 10.9987 47.2638 10.9987 46.9986V36.9986H7.99873C7.80655 36.9983 7.61853 36.9427 7.45713 36.8384C7.29574 36.7341 7.16782 36.5854 7.0887 36.4103C7.00957 36.2352 6.98258 36.0409 7.01097 35.8509C7.03935 35.6608 7.12189 35.4829 7.24873 35.3386L14.2487 27.3386C14.3426 27.2322 14.458 27.1469 14.5873 27.0886C14.7166 27.0302 14.8569 27 14.9987 27C15.1406 27 15.2809 27.0302 15.4102 27.0886C15.5395 27.1469 15.6549 27.2322 15.7487 27.3386L22.7487 35.3386C22.8756 35.4829 22.9581 35.6608 22.9865 35.8509C23.0149 36.0409 22.9879 36.2352 22.9088 36.4103C22.8296 36.5854 22.7017 36.7341 22.5403 36.8384C22.3789 36.9427 22.1909 36.9983 21.9987 36.9986H18.9987V46.9986C18.9987 47.2638 18.8934 47.5181 18.7058 47.7057C18.5183 47.8932 18.2639 47.9986 17.9987 47.9986Z" fill="#404040"/>
</svg>
