<svg width="64" height="64" viewBox="0 0 64 64" fill="none" xmlns="http://www.w3.org/2000/svg">
<path d="M19.598 50.478C19.4553 50.4951 19.3106 50.484 19.1721 50.4452C19.0337 50.4064 18.9043 50.3407 18.7912 50.2518C18.6782 50.163 18.5837 50.0528 18.5133 49.9275C18.4428 49.8022 18.3977 49.6642 18.3806 49.5214C18.3635 49.3787 18.3746 49.234 18.4134 49.0955C18.4522 48.9571 18.5179 48.8276 18.6067 48.7146C18.6956 48.6015 18.8058 48.5071 18.9311 48.4367C19.0565 48.3662 19.1944 48.3211 19.3372 48.304C25.457 46.7713 28.3049 42.9668 28.3049 36.347V33.086C28.3049 32.7977 28.4194 32.5212 28.6233 32.3174C28.8272 32.1135 29.1036 31.999 29.3919 31.999H31.642L26.1309 24.1074L20.609 31.999H22.8699C23.1582 31.999 23.4347 32.1135 23.6386 32.3174C23.8424 32.5212 23.9569 32.7977 23.9569 33.086V37.434C23.9569 40.9667 22.783 42.3146 22.5438 42.5538C22.3402 42.7562 22.0646 42.8699 21.7775 42.8699C21.4903 42.8699 21.2148 42.7562 21.0112 42.5538C20.9093 42.4527 20.8284 42.3325 20.7732 42.2C20.718 42.0676 20.6896 41.9255 20.6896 41.782C20.6896 41.6385 20.718 41.4964 20.7732 41.364C20.8284 41.2315 20.9093 41.1113 21.0112 41.0102V41.0102C21.0112 41.0102 21.7829 40.0645 21.7829 37.434V34.173H18.5219C18.3223 34.1734 18.1264 34.1189 17.9558 34.0153C17.7851 33.9118 17.6463 33.7633 17.5545 33.586C17.4704 33.4142 17.4331 33.2232 17.4465 33.0323C17.4599 32.8415 17.5233 32.6575 17.6306 32.499L25.2396 21.6291C25.3401 21.4877 25.4729 21.3725 25.6271 21.2929C25.7812 21.2134 25.952 21.1719 26.1255 21.1719C26.2989 21.1719 26.4698 21.2134 26.6239 21.2929C26.778 21.3725 26.9109 21.4877 27.0114 21.6291L34.6204 32.499C34.7276 32.6575 34.7911 32.8415 34.8045 33.0323C34.8178 33.2232 34.7806 33.4142 34.6965 33.586C34.6055 33.7616 34.4683 33.9091 34.2998 34.0125C34.1312 34.116 33.9377 34.1714 33.7399 34.173H30.4789V36.347C30.4789 43.956 26.9027 48.6844 19.8698 50.478C19.7795 50.4886 19.6883 50.4886 19.598 50.478V50.478Z" fill="#404040"/>
<path d="M17.435 57H13.087C12.7987 57 12.5222 56.8855 12.3184 56.6816C12.1145 56.4778 12 56.2013 12 55.913C12 55.6247 12.1145 55.3482 12.3184 55.1444C12.5222 54.9405 12.7987 54.826 13.087 54.826H17.435C22.6242 54.826 27.6009 52.7646 31.2702 49.0953C34.9396 45.4259 37.001 40.4492 37.001 35.26V24.39H32.653C32.4614 24.3908 32.2731 24.341 32.107 24.2455C31.9409 24.1501 31.8031 24.0124 31.7073 23.8465C31.6119 23.6813 31.5617 23.4939 31.5617 23.303C31.5617 23.1122 31.6119 22.9248 31.7073 22.7595L40.4033 7.54158C40.4988 7.37685 40.636 7.24012 40.801 7.14507C40.966 7.05003 41.1531 7 41.3435 7C41.534 7 41.721 7.05003 41.8861 7.14507C42.0511 7.24012 42.1882 7.37685 42.2838 7.54158L50.9798 22.7595C51.0749 22.9243 51.1251 23.1112 51.1254 23.3014C51.1257 23.4917 51.076 23.6787 50.9814 23.8437C50.8868 24.0088 50.7505 24.1461 50.5862 24.242C50.4218 24.3379 50.2352 24.3889 50.045 24.39H45.697V35.26C45.8754 40.2916 44.2441 45.2204 41.099 49.1519C40.915 49.371 40.652 49.5087 40.3671 49.5351C40.0822 49.5616 39.7984 49.4747 39.5771 49.2932C39.3564 49.1107 39.2167 48.8485 39.1882 48.5636C39.1597 48.2786 39.2448 47.994 39.425 47.7714C42.2383 44.2226 43.6916 39.7856 43.523 35.26V23.303C43.523 23.0148 43.6375 22.7383 43.8413 22.5344C44.0452 22.3306 44.3217 22.216 44.61 22.216H48.1645L41.349 10.2591L34.5226 22.216H38.088C38.3763 22.216 38.6528 22.3306 38.8566 22.5344C39.0605 22.7383 39.175 23.0148 39.175 23.303V35.26C39.175 38.115 38.6127 40.9419 37.5201 43.5796C36.4276 46.2172 34.8262 48.6138 32.8075 50.6325C30.7887 52.6513 28.3922 54.2526 25.7545 55.3452C23.1169 56.4377 20.2899 57 17.435 57V57Z" fill="#FA4616"/>
<path d="M48.9468 45.043C48.7588 45.0417 48.5743 44.9916 48.4114 44.8976C48.2486 44.8036 48.1129 44.669 48.0176 44.5069C47.9223 44.3448 47.8707 44.1608 47.8678 43.9728C47.8649 43.7848 47.9108 43.5992 48.0011 43.4343C50.0446 39.695 50.0447 37.3471 50.0447 33.0861V28.7381C50.0447 28.4498 50.1592 28.1733 50.363 27.9694C50.5669 27.7656 50.8434 27.6511 51.1317 27.6511C51.4199 27.6511 51.6964 27.7656 51.9003 27.9694C52.1041 28.1733 52.2187 28.4498 52.2187 28.7381V33.0861C52.2187 37.5536 52.2186 40.2494 49.9033 44.4778C49.8095 44.6494 49.6711 44.7924 49.5027 44.8919C49.3344 44.9914 49.1423 45.0436 48.9468 45.043V45.043Z" fill="#404040"/>
</svg>
