<svg width="64" height="64" viewBox="0 0 64 64" fill="none" xmlns="http://www.w3.org/2000/svg">
<path d="M31.834 56.9886C31.7443 57.0038 31.6528 57.0038 31.5631 56.9886C30.4589 56.6553 11 46.3321 11 36.1651V16.3728C11 16.0965 11.1097 15.8316 11.3051 15.6362C11.5005 15.4409 11.7654 15.3311 12.0417 15.3311C16.7814 15.3311 29.3339 9.79971 30.9902 7.44547C31.0862 7.30793 31.214 7.19561 31.3627 7.11806C31.5114 7.0405 31.6767 7 31.8444 7C32.0121 7 32.1774 7.0405 32.3261 7.11806C32.4748 7.19561 32.6026 7.30793 32.6986 7.44547C34.3028 9.72679 46.3136 15.3311 51.6262 15.3311C51.9025 15.3311 52.1675 15.4409 52.3628 15.6362C52.5582 15.8316 52.6679 16.0965 52.6679 16.3728V37.2068C52.6679 45.655 33.0215 56.7074 32.1048 56.947C32.0175 56.9761 31.926 56.9902 31.834 56.9886V56.9886ZM13.0834 17.352V36.1651C13.0834 43.9778 28.7089 53.4677 31.834 54.8219C34.5424 53.5302 50.5845 43.5924 50.5845 37.2068V17.3624C45.0219 16.8312 35.1882 12.4873 31.834 9.53928C28.4068 12.5185 18.2086 16.7895 13.0834 17.352V17.352Z" fill="#404040"/>
<path d="M27.6673 42.4048C27.5302 42.4056 27.3943 42.3794 27.2674 42.3275C27.1405 42.2757 27.025 42.1993 26.9277 42.1028L20.6775 35.8526L22.1567 34.3838L27.5735 39.8006L41.4281 21.9771L43.074 23.2584L28.4902 42.009C28.3988 42.1252 28.2837 42.2205 28.1526 42.2888C28.0215 42.357 27.8774 42.3966 27.7298 42.4048H27.6673Z" fill="#FA4616"/>
</svg>
