<svg width="64" height="64" viewBox="0 0 64 64" fill="none" xmlns="http://www.w3.org/2000/svg">
<path d="M54.8333 51.7917H39.2083V48.125C37.6116 46.6573 36.3778 44.8386 35.6041 42.8125C35.4478 42.4688 35.302 42.1354 35.1562 41.8438L32.9583 37.4583V37.2083C33.0096 36.7006 33.2072 36.2188 33.5271 35.8212C33.847 35.4237 34.2754 35.1275 34.7603 34.9688C35.277 34.7197 35.8562 34.6302 36.424 34.7119C36.9917 34.7935 37.5223 35.0425 37.9478 35.4271C38.4166 35.8854 38.8541 36.3333 39.2083 36.6979V26.7917C39.2083 25.9629 39.5375 25.168 40.1236 24.5819C40.7096 23.9959 41.5045 23.6667 42.3333 23.6667C43.153 23.6803 43.9345 24.0156 44.5094 24.6002C45.0842 25.1847 45.4063 25.9718 45.4062 26.7917V33.2396L51.8229 34.5625C52.9469 34.7378 53.9701 35.3125 54.7048 36.1811C55.4395 37.0497 55.8364 38.1541 55.8228 39.2917V44.5C55.7838 45.2373 55.5619 45.9533 55.177 46.5833C54.9748 46.8996 54.8401 47.2543 54.7812 47.625L54.8333 51.7917ZM41.2916 49.7083H52.7499V47.625C52.7906 46.9236 53.0054 46.2434 53.3749 45.6458C53.6004 45.3012 53.743 44.909 53.7916 44.5V39.2917C53.7907 38.638 53.5543 38.0066 53.1258 37.513C52.6973 37.0195 52.1053 36.6968 51.4583 36.6042L43.3749 34.9375V26.7917C43.3749 26.5154 43.2652 26.2504 43.0698 26.0551C42.8745 25.8597 42.6095 25.75 42.3333 25.75C42.057 25.75 41.792 25.8597 41.5967 26.0551C41.4013 26.2504 41.2916 26.5154 41.2916 26.7917V39.2917H38.802L38.4999 38.9688C38.4999 38.9688 37.5416 37.9271 36.4895 36.8854C36.4006 36.8207 36.2978 36.7777 36.1893 36.7596C36.0808 36.7415 35.9696 36.7489 35.8645 36.7813C35.5987 36.8362 35.3513 36.9581 35.1458 37.1354L37.0208 40.8958C37.177 41.2083 37.3333 41.5625 37.5104 41.9375C38.1975 43.8166 39.3647 45.4829 40.8958 46.7708L41.2916 47.0833V49.7083Z" fill="#404040"/>
<path d="M55.875 57H37.125V49.7083H55.875V57ZM39.2083 54.9167H53.7917V51.7917H39.2083V54.9167Z" fill="#404040"/>
<path d="M35.0417 54.9167H10.0417C9.7654 54.9167 9.50046 54.8069 9.30511 54.6116C9.10976 54.4162 9 54.1513 9 53.875V8.04167C9 7.7654 9.10976 7.50043 9.30511 7.30508C9.50046 7.10973 9.7654 7 10.0417 7H53.7917C54.0679 7 54.3329 7.10973 54.5283 7.30508C54.7236 7.50043 54.8333 7.7654 54.8333 8.04167V32H52.75V9.08333H11.0833V52.8333H35.0417V54.9167Z" fill="#404040"/>
<path d="M53.7917 13.25H10.0417V15.3333H53.7917V13.25Z" fill="#404040"/>
<path d="M15.2501 10.125H13.1667V12.2083H15.2501V10.125Z" fill="#404040"/>
<path d="M19.4166 10.125H17.3333V12.2083H19.4166V10.125Z" fill="#404040"/>
<path d="M27.75 47.625H16.2917C16.0154 47.625 15.7505 47.5152 15.5551 47.3199C15.3598 47.1245 15.25 46.8596 15.25 46.5833V36.1667C15.25 35.8904 15.3598 35.6254 15.5551 35.4301C15.7505 35.2347 16.0154 35.125 16.2917 35.125H27.75C28.0263 35.125 28.2912 35.2347 28.4866 35.4301C28.6819 35.6254 28.7917 35.8904 28.7917 36.1667V46.5833C28.7917 46.8596 28.6819 47.1245 28.4866 47.3199C28.2912 47.5152 28.0263 47.625 27.75 47.625ZM17.3333 45.5417H26.7083V37.2083H17.3333V45.5417Z" fill="#404040"/>
<path d="M20.4582 29.9167C20.1849 29.9155 19.923 29.807 19.729 29.6146L16.604 26.4896L18.0728 25.0208L20.4582 27.4062L28.0623 19.8125L29.5311 21.2812L21.1978 29.6146C21.1004 29.7111 20.985 29.7875 20.8581 29.8394C20.7311 29.8912 20.5952 29.9175 20.4582 29.9167V29.9167Z" fill="#FA4616"/>
<path d="M49.6249 20.5417H32.9583V22.625H49.6249V20.5417Z" fill="#404040"/>
<path d="M37.1249 24.7083H32.9583V26.7917H37.1249V24.7083Z" fill="#404040"/>
<path d="M37.1249 28.875H32.9583V30.9583H37.1249V28.875Z" fill="#404040"/>
</svg>
