<svg width="64" height="64" viewBox="0 0 64 64" fill="none" xmlns="http://www.w3.org/2000/svg">
<path d="M13.6681 30.0692C12.8788 29.3726 12.3965 28.3926 12.3259 27.3423C12.4206 26.2367 12.8688 25.1909 13.6041 24.3599C14.0458 23.8658 14.3473 23.2627 14.4776 22.6129C14.2935 21.8265 13.9994 21.0699 13.6041 20.3654C12.6774 18.4162 11.6229 16.2219 13.0929 14.9543C14.3498 13.708 16.5334 14.688 18.6531 15.6254C19.4613 16.0528 20.3254 16.3647 21.2202 16.5521C21.9425 16.4173 22.6176 16.0981 23.1801 15.6254C24.0879 14.8767 25.2029 14.4233 26.3756 14.3259C27.517 14.4161 28.5977 14.8761 29.454 15.636C29.9665 16.1074 30.6015 16.4249 31.2861 16.5521C31.9715 16.4271 32.607 16.1093 33.1182 15.636C33.9798 14.8779 35.0633 14.4184 36.2072 14.3259C37.3804 14.4212 38.496 14.8749 39.4028 15.6254C39.9653 16.0981 40.6404 16.4173 41.3627 16.5521V16.5521C42.3311 16.3597 43.272 16.0484 44.1641 15.6254C46.6247 14.6454 48.9361 13.7081 50.1291 15.0609C51.1943 16.126 50.4593 18.0647 50.1291 18.9807L48.0414 18.1712C48.3096 17.6602 48.4623 17.0966 48.4888 16.5202C47.8816 16.3923 45.943 17.1806 44.8884 17.5853C43.7548 18.1352 42.5385 18.495 41.2881 18.6505C40.1149 18.5552 38.9994 18.1015 38.0926 17.351C37.534 16.8723 36.8571 16.5523 36.1327 16.4243C35.4439 16.5484 34.8047 16.8662 34.2899 17.3403C33.4312 18.0963 32.3518 18.5558 31.2115 18.6505C30.0713 18.5558 28.9919 18.0963 28.1332 17.3403C27.6206 16.8689 26.9857 16.5515 26.3011 16.4243C25.5733 16.5519 24.893 16.8719 24.3305 17.351C23.4252 18.1039 22.3088 18.5579 21.135 18.6505C19.9311 18.516 18.7637 18.1546 17.6944 17.5853C16.789 17.1806 14.893 16.3284 14.435 16.5202C14.2539 16.9569 15.0528 18.6505 15.4362 19.4281C16.0041 20.4101 16.3665 21.4973 16.5014 22.6236C16.4053 23.7269 15.9615 24.7712 15.2339 25.6061C14.7857 26.0971 14.4801 26.7011 14.3498 27.353C14.3498 27.7578 14.648 28.1093 15.1273 28.6419L13.6681 30.0692Z" fill="#404040"/>
<path d="M25.1081 50.4035L20.8474 47.5595L16.5867 50.4035V39.8902H18.717V46.4197L20.8474 45.003L22.9777 46.4197V39.8902H25.1081V50.4035Z" fill="#404040"/>
<path d="M20.8474 42.0205C19.5833 42.0205 18.3477 41.6457 17.2967 40.9435C16.2457 40.2412 15.4265 39.243 14.9428 38.0752C14.4591 36.9074 14.3325 35.6224 14.5791 34.3826C14.8257 33.1429 15.4344 32.0041 16.3282 31.1103C17.222 30.2165 18.3608 29.6078 19.6005 29.3612C20.8403 29.1146 22.1253 29.2412 23.2931 29.7249C24.461 30.2086 25.4591 31.0278 26.1614 32.0788C26.8636 33.1298 27.2384 34.3654 27.2384 35.6295C27.2384 37.3245 26.5651 38.9501 25.3665 40.1486C24.168 41.3472 22.5424 42.0205 20.8474 42.0205ZM20.8474 31.3688C20.0047 31.3688 19.1809 31.6187 18.4802 32.0868C17.7796 32.555 17.2335 33.2204 16.911 33.9989C16.5885 34.7775 16.5041 35.6342 16.6685 36.4607C16.8329 37.2872 17.2387 38.0464 17.8346 38.6423C18.4305 39.2381 19.1897 39.6439 20.0162 39.8083C20.8426 39.9727 21.6993 39.8883 22.4779 39.5658C23.2564 39.2434 23.9219 38.6973 24.39 37.9966C24.8582 37.2959 25.1081 36.4722 25.1081 35.6295C25.1081 34.4995 24.6592 33.4157 23.8602 32.6167C23.0611 31.8176 21.9774 31.3688 20.8474 31.3688Z" fill="#404040"/>
<path d="M38.9555 21.7822H24.043V23.9125H38.9555V21.7822Z" fill="#404040"/>
<path d="M35.7597 26.0429H27.2383V28.1732H35.7597V26.0429Z" fill="#404040"/>
<path d="M32.5644 43.0857H24.043V45.2161H32.5644V43.0857Z" fill="#404040"/>
<path d="M17.6518 45.2161H8.06518C7.78268 45.2161 7.51174 45.1038 7.31198 44.9041C7.11222 44.7043 7 44.4334 7 44.1509V10.0652C7 9.78268 7.11222 9.51176 7.31198 9.312C7.51174 9.11224 7.78268 9 8.06518 9H54.933C55.2155 9 55.4865 9.11224 55.6862 9.312C55.886 9.51176 55.9982 9.78268 55.9982 10.0652V24.9777H53.8679V11.1304H9.13036V43.0857H17.6518V45.2161Z" fill="#404040"/>
<path d="M53.8681 44.1509H51.7377V33.4991C51.7377 33.2166 51.8499 32.9457 52.0497 32.7459C52.2495 32.5462 52.5204 32.4339 52.8029 32.4339H54.0066L49.6074 25.8298L45.2082 32.4339H46.4118C46.6943 32.4339 46.9653 32.5462 47.165 32.7459C47.3648 32.9457 47.477 33.2166 47.477 33.4991V37.7598H45.3466V34.5643H43.2163C43.0236 34.5638 42.8347 34.511 42.6696 34.4116C42.5045 34.3122 42.3695 34.1698 42.2789 33.9997C42.1854 33.8378 42.1362 33.6541 42.1362 33.4671C42.1362 33.2802 42.1854 33.0965 42.2789 32.9345L48.67 23.3479C48.7674 23.2029 48.899 23.0841 49.0532 23.002C49.2074 22.9198 49.3794 22.8769 49.5541 22.8769C49.7288 22.8769 49.9008 22.9198 50.055 23.002C50.2092 23.0841 50.3408 23.2029 50.4382 23.3479L56.8293 32.9345C56.931 33.0917 56.9895 33.273 56.9988 33.46C57.0082 33.647 56.9681 33.8332 56.8825 33.9997C56.792 34.1698 56.657 34.3122 56.4919 34.4116C56.3268 34.511 56.1379 34.5638 55.9452 34.5643H53.8148L53.8681 44.1509Z" fill="#FA4616"/>
<path d="M38.9553 54.8027H36.8249V47.3464H34.6946C34.5019 47.3459 34.3129 47.2931 34.1479 47.1937C33.9828 47.0943 33.8478 46.952 33.7572 46.7819C33.6637 46.6199 33.6145 46.4363 33.6145 46.2493C33.6145 46.0623 33.6637 45.8786 33.7572 45.7167L40.1483 36.1301C40.2457 35.9851 40.3773 35.8663 40.5315 35.7841C40.6857 35.702 40.8577 35.6591 41.0324 35.6591C41.2071 35.6591 41.3791 35.702 41.5333 35.7841C41.6874 35.8663 41.819 35.9851 41.9165 36.1301L48.3076 45.7167C48.4093 45.8739 48.4677 46.0551 48.4771 46.2421C48.4864 46.4291 48.4463 46.6153 48.3608 46.7819C48.2702 46.952 48.1352 47.0943 47.9702 47.1937C47.8051 47.2931 47.6162 47.3459 47.4235 47.3464H45.2931V50.542H43.1627V46.2813C43.1627 45.9988 43.275 45.7278 43.4747 45.5281C43.6745 45.3283 43.9454 45.2161 44.2279 45.2161H45.4316L41.0324 38.612L36.6332 45.2161H37.8368C38.1194 45.2161 38.3903 45.3283 38.59 45.5281C38.7898 45.7278 38.902 45.9988 38.902 46.2813L38.9553 54.8027Z" fill="#FA4616"/>
</svg>
