<svg width="64" height="64" viewBox="0 0 64 64" fill="none" xmlns="http://www.w3.org/2000/svg">
<path d="M38.5616 23.8347C38.4186 23.8355 38.2768 23.8081 38.1444 23.754C38.0119 23.7 37.8915 23.6203 37.79 23.5195L34.5295 20.2591L36.0619 18.7267L38.4529 21.1177L45.3107 12.3036L47.0279 13.6404L39.4202 23.4217C39.3248 23.5429 39.2047 23.6424 39.068 23.7136C38.9312 23.7848 38.7808 23.8261 38.6268 23.8347H38.5616Z" fill="#FA4616"/>
<path d="M20.9115 40.6911C20.1705 40.6924 19.4372 40.5421 18.7565 40.2495C18.0758 39.9569 17.4621 39.5282 16.9531 38.9898C16.4442 38.4513 16.0507 37.8144 15.7969 37.1183C15.5432 36.4222 15.4344 35.6816 15.4774 34.9419V33.3986C15.4774 31.9574 16.0499 30.5753 17.069 29.5562C18.0881 28.5371 19.4703 27.9646 20.9115 27.9646C22.3527 27.9646 23.7348 28.5371 24.7539 29.5562C25.773 30.5753 26.3455 31.9574 26.3455 33.3986V34.9419C26.3885 35.6816 26.2797 36.4222 26.026 37.1183C25.7722 37.8144 25.3787 38.4513 24.8698 38.9898C24.3609 39.5282 23.7472 39.9569 23.0665 40.2495C22.3857 40.5421 21.6524 40.6924 20.9115 40.6911ZM20.9115 29.823C20.4579 29.829 20.0104 29.9281 19.5967 30.114C19.1829 30.3 18.8118 30.5689 18.5061 30.904C18.2005 31.2392 17.9669 31.6336 17.8198 32.0626C17.6727 32.4917 17.6153 32.9464 17.651 33.3986V34.9419C17.651 35.8066 17.9945 36.6359 18.606 37.2474C19.2174 37.8588 20.0467 38.2023 20.9115 38.2023C21.7762 38.2023 22.6055 37.8588 23.2169 37.2474C23.8284 36.6359 24.1719 35.8066 24.1719 34.9419V33.3986C24.216 32.9447 24.1644 32.4866 24.0204 32.0539C23.8764 31.6212 23.6432 31.2235 23.3359 30.8866C23.0287 30.5496 22.6541 30.2808 22.2365 30.0976C21.8189 29.9144 21.3675 29.8209 20.9115 29.823Z" fill="#404040"/>
<path d="M29.5951 56.9933H22.5851L16.8251 50.0812L18.4879 48.6901L23.5959 54.8197H29.5951C29.8772 54.8423 30.1607 54.8024 30.4256 54.7028C30.6905 54.6033 30.9302 54.4465 31.1275 54.2437C31.4925 53.787 31.7087 53.2294 31.747 52.6461H25.8347L18.227 43.9516H16.5425C15.4557 43.9516 14.0102 44.3537 13.282 47.462L11.1084 56.1565L9 55.6348L11.1736 46.9403C12.0105 43.506 13.8254 41.7671 16.6077 41.7671H19.2813L26.8889 50.4616H33.888L33.9967 51.4288C34.1702 52.9438 33.7495 54.4671 32.8229 55.6783C32.4166 56.1237 31.9159 56.4729 31.3575 56.7004C30.7991 56.9279 30.197 57.028 29.5951 56.9933Z" fill="#404040"/>
<path d="M44.8215 53.7329H35.0402V51.5593H44.1802L49.5165 41.778H32.4101L28.378 48.8422L26.4978 47.7554L30.845 40.1477C30.9399 39.9835 31.0761 39.8469 31.24 39.7516C31.404 39.6562 31.5901 39.6055 31.7797 39.6043H51.3423C51.5312 39.6038 51.717 39.6526 51.8814 39.7457C52.0457 39.8389 52.1829 39.9733 52.2795 40.1357C52.376 40.2981 52.4285 40.4828 52.4319 40.6717C52.4353 40.8606 52.3894 41.0471 52.2987 41.2128L45.7779 53.1677C45.684 53.3393 45.5456 53.4823 45.3773 53.5817C45.209 53.6812 45.017 53.7334 44.8215 53.7329V53.7329Z" fill="#404040"/>
<path d="M53.516 54.8197H18.738V56.9933H53.516V54.8197Z" fill="#404040"/>
<path d="M33.9751 36.3439C33.7354 36.3443 33.4972 36.3076 33.2687 36.2352C32.8349 36.0913 32.4576 35.8142 32.1903 35.4435C31.923 35.0728 31.7793 34.6273 31.7798 34.1703V29.823H30.6929C29.54 29.823 28.4342 29.365 27.619 28.5498C26.8037 27.7345 26.3457 26.6288 26.3457 25.4758V11.3472C26.3457 10.1943 26.8037 9.08854 27.619 8.27328C28.4342 7.45801 29.54 7 30.6929 7H50.2555C51.4085 7 52.5143 7.45801 53.3295 8.27328C54.1448 9.08854 54.6028 10.1943 54.6028 11.3472V24.389C54.6028 25.8302 54.0303 27.2124 53.0112 28.2314C51.9921 29.2505 50.6099 29.823 49.1687 29.823H39.9308L35.6923 35.4745C35.492 35.7415 35.233 35.9588 34.9352 36.1096C34.6374 36.2604 34.3089 36.3406 33.9751 36.3439ZM30.7147 9.17362C30.1382 9.17362 29.5853 9.40263 29.1777 9.81026C28.7701 10.2179 28.541 10.7708 28.541 11.3472V25.4758C28.541 26.0523 28.7701 26.6051 29.1777 27.0128C29.5853 27.4204 30.1382 27.6494 30.7147 27.6494H32.8883C33.1765 27.6494 33.453 27.7639 33.6568 27.9677C33.8606 28.1716 33.9751 28.448 33.9751 28.7362V34.1703L38.4962 28.1059C38.5975 27.9709 38.7287 27.8613 38.8797 27.7859C39.0306 27.7104 39.197 27.6712 39.3657 27.6712H49.147C50.0117 27.6712 50.841 27.3276 51.4525 26.7162C52.0639 26.1047 52.4074 25.2754 52.4074 24.4107V11.369C52.4074 10.7925 52.1784 10.2396 51.7708 9.832C51.3631 9.42437 50.8103 9.19536 50.2338 9.19536L30.7147 9.17362Z" fill="#FA4616"/>
</svg>
