<svg width="64" height="64" viewBox="0 0 64 64" fill="none" xmlns="http://www.w3.org/2000/svg">
<path d="M51.6783 42.1225L50.8899 40.2033C51.9273 39.778 52.7986 38.8548 53.9086 36.998C52.8172 36.5333 51.6028 36.4422 50.4542 36.7387C49.4433 37.0878 48.5119 37.6344 47.7141 38.3468C46.9162 39.0591 46.268 39.923 45.8069 40.888L44.002 39.8507C44.5979 38.6513 45.4281 37.5835 46.4437 36.7105C47.4593 35.8374 48.6396 35.1768 49.9148 34.7677C50.9198 34.5105 51.9666 34.4598 52.9917 34.6184C54.0169 34.7771 54.9993 35.142 55.8796 35.6909L56.7509 36.2096L56.2634 37.0913C54.9045 39.5291 53.6389 41.3237 51.6783 42.1225Z" fill="#FA4616"/>
<path d="M44.7283 49.4565C43.3249 49.4381 41.9552 49.0247 40.776 48.2636L41.8756 46.5001C44.3237 48.0146 46.8237 47.5374 49.4897 45.1411C48.3814 44.3403 47.0403 43.9266 45.6734 43.9641C44.3066 44.0016 42.9901 44.4882 41.9274 45.3486L40.7241 43.6578C42.3232 42.3957 44.3307 41.7659 46.3641 41.8884C48.3976 42.0108 50.315 42.8769 51.7511 44.3217L52.498 45.0478L51.7822 45.7947C49.1681 48.5333 46.7718 49.4565 44.7283 49.4565Z" fill="#FA4616"/>
<path d="M48.7012 34.1038L46.6265 33.9689C47.0103 28.2324 50.7758 24.6329 55.9626 24.9441L56.9999 25.0166L56.9377 26.054C56.6887 29.7054 55.5061 32.2781 53.4003 33.7615L52.2178 32.0499C53.5767 31.1059 54.4273 29.4253 54.7489 27.0291C51.2427 27.2573 48.9812 29.8922 48.7012 34.1038Z" fill="#FA4616"/>
<path d="M46.4295 27.3196C44.6557 21.8424 46.7822 17.0913 51.72 15.4938L52.7055 15.1826L53.0271 16.2199C54.1474 19.7054 54.0022 22.5582 52.581 24.6847L50.8486 23.5332C51.7719 22.1639 51.886 20.276 51.3569 17.9212C48.2449 19.4254 47.1038 22.7034 48.4005 26.7283L46.4295 27.3196Z" fill="#FA4616"/>
<path d="M12.3008 42.1225C10.3713 41.3237 9.06425 39.5291 7.70533 37.0602L7.21777 36.1785L8.08914 35.6598C8.97145 35.1111 9.95558 34.7465 10.9824 34.5879C12.0092 34.4292 13.0575 34.4797 14.0643 34.7365C15.3395 35.1457 16.5198 35.8063 17.5354 36.6793C18.5509 37.5524 19.3812 38.6202 19.9771 39.8196L18.1721 40.8569C17.7111 39.8918 17.0628 39.028 16.265 38.3157C15.4672 37.6034 14.5358 37.0567 13.5248 36.7075C12.3728 36.411 11.1552 36.5022 10.0601 36.9669C11.1804 38.8237 12.0622 39.747 13.0891 40.1723L12.3008 42.1225Z" fill="#FA4616"/>
<path d="M19.2407 49.4564C17.166 49.4564 14.8112 48.5332 12.1867 45.7946L11.4709 45.0477L12.2282 44.3216C13.663 42.8753 15.5797 42.0073 17.6132 41.8829C19.6467 41.7586 21.6549 42.3866 23.2552 43.6473L22.0519 45.3486C20.9892 44.4881 19.6727 44.0016 18.3059 43.9641C16.939 43.9266 15.5979 44.3402 14.4896 45.1411C17.1556 47.5789 19.6764 48.0145 22.1037 46.4896L23.2033 48.2532C22.0211 49.0172 20.6481 49.4341 19.2407 49.4564V49.4564Z" fill="#FA4616"/>
<path d="M15.2573 34.1038C14.9772 29.8922 12.7054 27.2574 9.25104 27.0188C9.58299 29.415 10.4336 31.0955 11.7925 32.0395L10.61 33.7511C8.53527 32.2885 7.3112 29.6951 7.07261 26.0437L7 25.0063L8.03735 24.9337C13.2241 24.6018 16.9481 28.222 17.3216 33.9586L15.2573 34.1038Z" fill="#FA4616"/>
<path d="M17.5498 27.3196L15.5789 26.6764C16.8755 22.6515 15.7448 19.415 12.6224 17.8694C12.0415 20.2241 12.2075 22.1121 13.1203 23.4814L11.3984 24.6328C9.97719 22.4959 9.82159 19.6536 10.9523 16.1681L11.2635 15.1307L12.3008 15.4419C17.1867 17.0913 19.3133 21.8009 17.5498 27.3196Z" fill="#FA4616"/>
<path d="M37.1762 41.1577C36.9011 41.1577 36.6372 41.0485 36.4427 40.8539C36.2482 40.6594 36.1389 40.3955 36.1389 40.1204C36.1389 39.8452 36.2482 39.5814 36.4427 39.3869C36.6372 39.1923 36.9011 39.083 37.1762 39.083C37.9847 39.0316 38.7468 38.6873 39.3197 38.1144C39.8925 37.5416 40.2369 36.7795 40.2883 35.971V28.7096C40.2883 26.2199 35.2883 24.5602 31.9895 24.5602C31.7144 24.5602 31.4505 24.4509 31.256 24.2564C31.0614 24.0619 30.9521 23.798 30.9521 23.5228C30.9521 23.2477 31.0614 22.9839 31.256 22.7893C31.4505 22.5948 31.7144 22.4855 31.9895 22.4855C36.336 22.4855 42.3629 24.6535 42.3629 28.7096V35.971C42.3116 37.3302 41.7487 38.6199 40.7869 39.5817C39.8251 40.5435 38.5354 41.1064 37.1762 41.1577Z" fill="#404040"/>
<path d="M26.8027 41.1577C25.4427 41.1088 24.1517 40.5466 23.1894 39.5843C22.2271 38.622 21.6649 37.331 21.616 35.971V28.7096C21.616 24.6535 27.6429 22.4855 31.9894 22.4855C32.2645 22.4855 32.5284 22.5948 32.7229 22.7893C32.9175 22.9839 33.0268 23.2477 33.0268 23.5228C33.0268 23.798 32.9175 24.0619 32.7229 24.2564C32.5284 24.4509 32.2645 24.5602 31.9894 24.5602C28.6803 24.5602 23.6907 26.2199 23.6907 28.7096V35.971C23.742 36.7795 24.0864 37.5416 24.6593 38.1144C25.2321 38.6873 25.9942 39.0316 26.8027 39.083C27.0778 39.083 27.3417 39.1923 27.5362 39.3869C27.7307 39.5814 27.84 39.8452 27.84 40.1204C27.84 40.3955 27.7307 40.6594 27.5362 40.8539C27.3417 41.0485 27.0778 41.1577 26.8027 41.1577Z" fill="#404040"/>
<path d="M37.176 54.6432C36.9009 54.6432 36.637 54.534 36.4425 54.3394C36.248 54.1449 36.1387 53.881 36.1387 53.6059V29.7469C36.1387 29.6107 36.1655 29.4758 36.2176 29.35C36.2698 29.2241 36.3462 29.1097 36.4425 29.0134C36.5388 28.9171 36.6532 28.8407 36.779 28.7886C36.9049 28.7364 37.0398 28.7096 37.176 28.7096C37.3122 28.7096 37.4471 28.7364 37.573 28.7886C37.6988 28.8407 37.8132 28.9171 37.9095 29.0134C38.0059 29.1097 38.0823 29.2241 38.1344 29.35C38.1865 29.4758 38.2134 29.6107 38.2134 29.7469V53.6059C38.2134 53.881 38.1041 54.1449 37.9095 54.3394C37.715 54.534 37.4511 54.6432 37.176 54.6432Z" fill="#404040"/>
<path d="M26.8027 54.6432C26.5276 54.6432 26.2638 54.534 26.0692 54.3394C25.8747 54.1449 25.7654 53.881 25.7654 53.6059V29.7469C25.7654 29.4718 25.8747 29.208 26.0692 29.0134C26.2638 28.8189 26.5276 28.7096 26.8027 28.7096C27.0778 28.7096 27.3417 28.8189 27.5362 29.0134C27.7308 29.208 27.8401 29.4718 27.8401 29.7469V53.6059C27.8401 53.881 27.7308 54.1449 27.5362 54.3394C27.3417 54.534 27.0778 54.6432 26.8027 54.6432Z" fill="#404040"/>
<path d="M31.9895 54.6432C31.7144 54.6432 31.4505 54.534 31.256 54.3394C31.0614 54.1449 30.9521 53.881 30.9521 53.6059V39.083C30.9521 38.8079 31.0614 38.5441 31.256 38.3495C31.4505 38.155 31.7144 38.0457 31.9895 38.0457C32.2646 38.0457 32.5285 38.155 32.723 38.3495C32.9175 38.5441 33.0268 38.8079 33.0268 39.083V53.6059C33.0268 53.881 32.9175 54.1449 32.723 54.3394C32.5285 54.534 32.2646 54.6432 31.9895 54.6432Z" fill="#404040"/>
<path d="M31.9898 21.4481C31.302 21.4728 30.6165 21.3556 29.9761 21.1037C29.3356 20.8517 28.7539 20.4705 28.2673 19.9839C27.7807 19.4972 27.3995 18.9156 27.1476 18.2751C26.8956 17.6347 26.7784 16.9492 26.803 16.2614V14.1867C26.803 12.8111 27.3495 11.4919 28.3222 10.5192C29.2949 9.54647 30.6141 9 31.9898 9C33.3654 9 34.6846 9.54647 35.6573 10.5192C36.63 11.4919 37.1765 12.8111 37.1765 14.1867V16.2614C37.1996 16.9488 37.0813 17.6336 36.8288 18.2734C36.5763 18.9131 36.1951 19.4941 35.7088 19.9805C35.2225 20.4668 34.6414 20.848 34.0017 21.1005C33.3619 21.353 32.6771 21.4713 31.9898 21.4481ZM31.9898 11.0747C31.5748 11.0506 31.1594 11.1146 30.7709 11.2624C30.3824 11.4103 30.0296 11.6387 29.7356 11.9327C29.4417 12.2266 29.2133 12.5794 29.0654 12.9679C28.9176 13.3564 28.8536 13.7717 28.8777 14.1867V16.2614C28.8777 17.0868 29.2056 17.8784 29.7892 18.462C30.3728 19.0456 31.1644 19.3735 31.9898 19.3735C32.8151 19.3735 33.6067 19.0456 34.1903 18.462C34.7739 17.8784 35.1018 17.0868 35.1018 16.2614V14.1867C35.1259 13.7717 35.0619 13.3564 34.9141 12.9679C34.7662 12.5794 34.5378 12.2266 34.2439 11.9327C33.9499 11.6387 33.5971 11.4103 33.2086 11.2624C32.8201 11.1146 32.4047 11.0506 31.9898 11.0747V11.0747Z" fill="#404040"/>
</svg>
