<svg width="64" height="64" viewBox="0 0 64 64" fill="none" xmlns="http://www.w3.org/2000/svg">
<path d="M42.4989 43.7232C40.4808 43.7232 38.508 43.1247 36.83 42.0035C35.152 40.8823 33.8442 39.2887 33.0719 37.4242C32.2996 35.5597 32.0975 33.5081 32.4912 31.5288C32.8849 29.5495 33.8568 27.7314 35.2838 26.3043C36.7108 24.8773 38.5289 23.9055 40.5082 23.5118C42.4876 23.1181 44.5392 23.3202 46.4037 24.0925C48.2682 24.8647 49.8618 26.1726 50.983 27.8506C52.1042 29.5286 52.7026 31.5013 52.7026 33.5194C52.7026 36.2256 51.6276 38.821 49.714 40.7346C47.8004 42.6481 45.2051 43.7232 42.4989 43.7232ZM42.4989 25.3565C40.8844 25.3565 39.3062 25.8352 37.9638 26.7322C36.6214 27.6292 35.5751 28.904 34.9573 30.3956C34.3394 31.8872 34.1778 33.5285 34.4928 35.112C34.8077 36.6954 35.5852 38.1499 36.7268 39.2915C37.8684 40.4332 39.3229 41.2106 40.9064 41.5256C42.4898 41.8405 44.1311 41.6789 45.6227 41.061C47.1143 40.4432 48.3892 39.3969 49.2861 38.0546C50.1831 36.7122 50.6618 35.1339 50.6618 33.5194C50.6618 31.3545 49.8018 29.2782 48.271 27.7474C46.7401 26.2165 44.6638 25.3565 42.4989 25.3565Z" fill="#FA4616"/>
<path d="M46.5806 56.9982C46.3598 56.9982 46.145 56.9265 45.9684 56.7941L42.4991 54.1921L39.0298 56.7941C38.8839 56.8996 38.7126 56.9647 38.5334 56.9826C38.3542 57.0005 38.1734 56.9707 38.0095 56.8961C37.8396 56.8106 37.6971 56.6792 37.5979 56.517C37.4988 56.3547 37.4469 56.1679 37.4483 55.9778V41.764C37.4483 41.4934 37.5558 41.2339 37.7471 41.0425C37.9385 40.8512 38.198 40.7437 38.4686 40.7437C38.7393 40.7437 38.9988 40.8512 39.1901 41.0425C39.3815 41.2339 39.489 41.4934 39.489 41.764V53.937L41.9379 52.1004C42.1145 51.9679 42.3293 51.8963 42.5501 51.8963C42.7709 51.8963 42.9857 51.9679 43.1623 52.1004L45.6112 53.937V41.764C45.6112 41.4934 45.7187 41.2339 45.9101 41.0425C46.1014 40.8512 46.361 40.7437 46.6316 40.7437C46.9022 40.7437 47.1618 40.8512 47.3531 41.0425C47.5445 41.2339 47.652 41.4934 47.652 41.764V55.9778C47.6533 56.1679 47.6015 56.3547 47.5023 56.517C47.4031 56.6792 47.2606 56.8106 47.0908 56.8961C46.9324 56.9737 46.7566 57.0088 46.5806 56.9982Z" fill="#FA4616"/>
<path d="M34.4685 48.8352H12.0204C11.7498 48.8352 11.4902 48.7277 11.2989 48.5363C11.1075 48.345 11 48.0854 11 47.8148V8.02037C11 7.74975 11.1075 7.49022 11.2989 7.29886C11.4902 7.1075 11.7498 7 12.0204 7H42.6315C42.9021 7 43.1616 7.1075 43.353 7.29886C43.5444 7.49022 43.6519 7.74975 43.6519 8.02037V20.2648C43.6519 20.5354 43.5444 20.795 43.353 20.9863C43.1616 21.1777 42.9021 21.2852 42.6315 21.2852C42.3609 21.2852 42.1013 21.1777 41.91 20.9863C41.7186 20.795 41.6111 20.5354 41.6111 20.2648V9.04074H13.0407V46.7945H34.4685C34.7391 46.7945 34.9987 46.902 35.19 47.0933C35.3814 47.2847 35.4889 47.5442 35.4889 47.8148C35.4889 48.0854 35.3814 48.345 35.19 48.5363C34.9987 48.7277 34.7391 48.8352 34.4685 48.8352V48.8352Z" fill="#404040"/>
<path d="M36.5092 13.1222H16.3977V15.163H36.5092V13.1222Z" fill="#404040"/>
<path d="M36.5092 17.2037H16.3977V19.2444H36.5092V17.2037Z" fill="#404040"/>
<path d="M31.4788 21.2852H16.3977V23.3259H31.4788V21.2852Z" fill="#404040"/>
<path d="M28.9687 25.3667H16.3977V27.4074H28.9687V25.3667Z" fill="#404040"/>
<path d="M27.7136 29.4481H16.3977V31.4889H27.7136V29.4481Z" fill="#404040"/>
<path d="M22.6832 37.6111H16.3977V39.6518H22.6832V37.6111Z" fill="#404040"/>
<path d="M40.9479 38.3356C40.8129 38.335 40.6794 38.3077 40.555 38.2551C40.4307 38.2026 40.318 38.1259 40.2235 38.0295L37.1624 34.9684L38.6113 33.5296L40.8255 35.7745L46.213 29.0196L47.815 30.2849L41.6928 37.9376C41.6033 38.0514 41.4905 38.1448 41.3621 38.2117C41.2337 38.2785 41.0925 38.3173 40.9479 38.3254V38.3356Z" fill="#FA4616"/>
</svg>
