<svg width="64" height="64" viewBox="0 0 64 64" fill="none" xmlns="http://www.w3.org/2000/svg">
<path d="M38.0311 27.2187C37.7578 27.2176 37.4959 27.1091 37.3019 26.9167L33.479 23.0938L34.9478 21.625L37.9373 24.6042L46.1248 14.0833L47.8123 15.375L38.854 26.8333C38.7636 26.9514 38.649 27.0488 38.5178 27.1188C38.3866 27.1889 38.242 27.2301 38.0936 27.2396L38.0311 27.2187Z" fill="#FA4616"/>
<path d="M12.2083 49.625H10.125V24.625C10.125 23.7962 10.4542 23.0013 11.0403 22.4153C11.6263 21.8292 12.4212 21.5 13.25 21.5H22.625V23.5833H13.25C12.9737 23.5833 12.7088 23.6931 12.5134 23.8884C12.3181 24.0838 12.2083 24.3487 12.2083 24.625V49.625Z" fill="#404040"/>
<path d="M53.8751 35.0417H51.7917V49.625H53.8751V35.0417Z" fill="#404040"/>
<path d="M36.1772 41.8958C35.9023 41.8953 35.63 41.8423 35.3751 41.7396C34.993 41.5826 34.6662 41.3156 34.4362 40.9725C34.2062 40.6293 34.0834 40.2256 34.0834 39.8125V34H30.9584V31.9167H36.1667V39.8125L44.073 31.9167H52.8334C53.386 31.9167 53.9159 31.6972 54.3066 31.3065C54.6973 30.9158 54.9168 30.3859 54.9168 29.8333V13.1667C54.9168 12.6141 54.6973 12.0842 54.3066 11.6935C53.9159 11.3028 53.386 11.0833 52.8334 11.0833H27.8334C27.2809 11.0833 26.751 11.3028 26.3603 11.6935C25.9696 12.0842 25.7501 12.6141 25.7501 13.1667V26.7083H23.6667V13.1667C23.6667 12.0616 24.1057 11.0018 24.8871 10.2204C25.6685 9.43898 26.7283 9 27.8334 9H52.8334C53.9385 9 54.9983 9.43898 55.7797 10.2204C56.5611 11.0018 57.0001 12.0616 57.0001 13.1667V29.8333C57.0001 30.9384 56.5611 31.9982 55.7797 32.7796C54.9983 33.561 53.9385 34 52.8334 34H44.9376L37.6459 41.2917C37.2553 41.6791 36.7273 41.8963 36.1772 41.8958V41.8958Z" fill="#FA4616"/>
<path d="M34.0833 47.5417H31.9999V45.8646C31.9999 44 27.052 42.3333 24.7083 42.3333C22.3645 42.3333 17.4166 44 17.4166 45.8646V47.5417H15.3333V45.8646C15.3333 41.9375 22.4583 40.25 24.7083 40.25C26.9583 40.25 34.0833 41.9375 34.0833 45.8646V47.5417Z" fill="#404040"/>
<path d="M24.7083 39.2083C23.327 39.2083 22.0022 38.6596 21.0255 37.6828C20.0487 36.7061 19.5 35.3813 19.5 34V32.9583C19.5 31.577 20.0487 30.2522 21.0255 29.2755C22.0022 28.2987 23.327 27.75 24.7083 27.75C26.0897 27.75 27.4144 28.2987 28.3912 29.2755C29.3679 30.2522 29.9167 31.577 29.9167 32.9583V34C29.9167 35.3813 29.3679 36.7061 28.3912 37.6828C27.4144 38.6596 26.0897 39.2083 24.7083 39.2083ZM24.7083 29.8333C23.8795 29.8333 23.0847 30.1626 22.4986 30.7486C21.9126 31.3347 21.5833 32.1295 21.5833 32.9583V34C21.5833 34.8288 21.9126 35.6236 22.4986 36.2097C23.0847 36.7957 23.8795 37.125 24.7083 37.125C25.5371 37.125 26.332 36.7957 26.918 36.2097C27.5041 35.6236 27.8333 34.8288 27.8333 34V32.9583C27.8333 32.1295 27.5041 31.3347 26.918 30.7486C26.332 30.1626 25.5371 29.8333 24.7083 29.8333Z" fill="#404040"/>
<path d="M51.7917 55.875H12.2083C10.827 55.875 9.50224 55.3263 8.52549 54.3495C7.54873 53.3728 7 52.048 7 50.6667V48.5833H28.2708L30.3542 50.6667H34.6979L36.7813 48.5833H57V50.6667C57 52.048 56.4513 53.3728 55.4745 54.3495C54.4978 55.3263 53.173 55.875 51.7917 55.875ZM9.08333 50.6667C9.08333 51.4955 9.41257 52.2903 9.99863 52.8764C10.5847 53.4624 11.3795 53.7917 12.2083 53.7917H51.7917C52.6205 53.7917 53.4153 53.4624 54.0014 52.8764C54.5874 52.2903 54.9167 51.4955 54.9167 50.6667H37.6458L35.5625 52.75H29.4896L27.4062 50.6667H9.08333Z" fill="#404040"/>
</svg>
