<svg width="64" height="64" viewBox="0 0 64 64" fill="none" xmlns="http://www.w3.org/2000/svg">
<path d="M23.4064 27.8333C22.7006 27.82 22.0045 27.6661 21.3589 27.3807C20.7132 27.0953 20.1309 26.684 19.646 26.171C19.1611 25.6579 18.7833 25.0534 18.5347 24.3927C18.2861 23.732 18.1716 23.0284 18.1981 22.3229V20.8438C18.1981 19.4624 18.7468 18.1377 19.7235 17.1609C20.7003 16.1842 22.0251 15.6354 23.4064 15.6354C24.7877 15.6354 26.1125 16.1842 27.0892 17.1609C28.066 18.1377 28.6147 19.4624 28.6147 20.8438V22.3229C28.6411 23.0284 28.5267 23.732 28.2781 24.3927C28.0295 25.0534 27.6517 25.6579 27.1668 26.171C26.6819 26.684 26.0996 27.0953 25.4539 27.3807C24.8082 27.6661 24.1122 27.82 23.4064 27.8333V27.8333ZM23.4064 17.4167C22.9749 17.4326 22.5509 17.5344 22.1592 17.7161C21.7675 17.8977 21.4159 18.1556 21.1249 18.4746C20.834 18.7937 20.6096 19.1675 20.4647 19.5743C20.3199 19.9811 20.2576 20.4126 20.2814 20.8438V22.3229C20.2814 23.1517 20.6106 23.9466 21.1967 24.5326C21.7827 25.1187 22.5776 25.4479 23.4064 25.4479C24.2352 25.4479 25.03 25.1187 25.6161 24.5326C26.2021 23.9466 26.5314 23.1517 26.5314 22.3229V20.8438C26.5552 20.4126 26.4929 19.9811 26.348 19.5743C26.2032 19.1675 25.9788 18.7937 25.6878 18.4746C25.3969 18.1556 25.0453 17.8977 24.6536 17.7161C24.2619 17.5344 23.8379 17.4326 23.4064 17.4167V17.4167Z" fill="#404040"/>
<path d="M24.4478 43.4583H22.3645V57H24.4478V43.4583Z" fill="#404040"/>
<path d="M19.2396 36.1667H17.1562V57H19.2396V36.1667Z" fill="#404040"/>
<path d="M49.4478 24.7084H31.7395V8.04172H44.2395C44.5158 8.04172 44.7807 8.15146 44.9761 8.34681C45.1714 8.54216 45.2812 8.80712 45.2812 9.08338C45.2812 9.35965 45.1714 9.6246 44.9761 9.81995C44.7807 10.0153 44.5158 10.125 44.2395 10.125H33.8228V22.625H47.3645V17.4167C47.3645 17.1404 47.4742 16.8755 47.6696 16.6801C47.8649 16.4848 48.1299 16.375 48.4061 16.375C48.6824 16.375 48.9474 16.4848 49.1427 16.6801C49.3381 16.8755 49.4478 17.1404 49.4478 17.4167V24.7084Z" fill="#404040"/>
<path d="M40.7396 21.1771L36.25 17.1459C36.1393 17.057 36.048 16.9464 35.9816 16.8209C35.9152 16.6954 35.8751 16.5576 35.8639 16.4161C35.8526 16.2746 35.8705 16.1322 35.9162 15.9978C35.962 15.8634 36.0348 15.7398 36.1301 15.6345C36.2254 15.5293 36.3412 15.4446 36.4704 15.3858C36.5996 15.3269 36.7395 15.2951 36.8814 15.2922C37.0234 15.2894 37.1644 15.3156 37.2959 15.3692C37.4273 15.4229 37.5464 15.5029 37.6459 15.6042L40.5417 18.198L49.6979 7.36463C49.8775 7.15467 50.1331 7.02464 50.4086 7.00316C50.545 6.99252 50.6821 7.00884 50.8122 7.05121C50.9423 7.09357 51.0627 7.16115 51.1667 7.25006C51.2706 7.33898 51.3561 7.4475 51.4181 7.56943C51.4801 7.69136 51.5175 7.82431 51.5281 7.96069C51.5388 8.09708 51.5225 8.23423 51.4801 8.3643C51.4377 8.49438 51.3702 8.61483 51.2813 8.7188L40.7396 21.1771Z" fill="#FA4616"/>
<path d="M29.6562 57H27.5729V36.1667C27.5734 35.9891 27.6194 35.8146 27.7063 35.6598C27.7932 35.505 27.9183 35.3749 28.0697 35.282C28.221 35.1892 28.3936 35.1365 28.571 35.1291C28.7484 35.1216 28.9247 35.1597 29.0833 35.2396L31.9062 36.6458C32.1015 36.7422 32.3221 36.7749 32.537 36.7394C32.7519 36.7039 32.9502 36.602 33.1041 36.4479L36.2291 33.3229C38.0937 31.6042 38.2187 30.3646 37.7812 29.375C35.9271 30.9375 34.3229 32.2083 33.3854 32.8438C33.2317 32.9432 33.0544 33.0004 32.8715 33.0095C32.6887 33.0187 32.5066 32.9795 32.3437 32.8958C30.5523 31.8789 28.5829 31.2142 26.5416 30.9375H20.2917C17.1667 30.9375 15.0833 32.5729 15.0833 35.1042V40.3125C15.0833 41.4792 15.3542 43.4375 17.1667 43.4375H18.2083V45.5208H17.1667C14.5937 45.5208 13 43.5208 13 40.3125V35.1042C13 31.4271 16 28.8542 20.2917 28.8542H26.5416C28.7018 29.0817 30.7966 29.7292 32.7083 30.7604C33.75 29.9688 35.4896 28.5938 37.3229 27.0208C37.4287 26.9299 37.5516 26.8611 37.6845 26.8186C37.8174 26.7761 37.9574 26.7607 38.0963 26.7733C38.2353 26.7859 38.3702 26.8263 38.4933 26.8921C38.6163 26.9579 38.7248 27.0477 38.8125 27.1563C40.2083 28.875 41.1458 31.6042 37.6666 34.8229L34.5416 37.9479C34.0779 38.4107 33.4804 38.716 32.8336 38.8207C32.1868 38.9254 31.5236 38.8241 30.9375 38.5313L29.6146 37.875L29.6562 57Z" fill="#404040"/>
</svg>
