<svg width="64" height="64" viewBox="0 0 64 64" fill="none" xmlns="http://www.w3.org/2000/svg">
<path d="M13.2505 42.3356C12.9742 42.3356 12.7092 42.2259 12.5139 42.0305C12.3185 41.8351 12.2087 41.5702 12.2087 41.2939V29.8348C12.2087 25.7407 16.782 22.5426 22.6261 22.5426C22.9024 22.5426 23.1674 22.6524 23.3627 22.8477C23.5581 23.0431 23.6678 23.3081 23.6678 23.5843C23.6678 23.8606 23.5581 24.1256 23.3627 24.321C23.1674 24.5163 22.9024 24.6261 22.6261 24.6261C18.105 24.6261 14.2922 27.0117 14.2922 29.8348V41.2939C14.2922 41.5702 14.1825 41.8351 13.9871 42.0305C13.7917 42.2259 13.5268 42.3356 13.2505 42.3356Z" fill="#404040"/>
<path d="M22.626 21.5008C21.9353 21.5256 21.2469 21.4078 20.6038 21.1548C19.9606 20.9018 19.3765 20.5191 18.8878 20.0304C18.3991 19.5417 18.0163 18.9575 17.7633 18.3144C17.5103 17.6712 17.3925 16.9828 17.4173 16.2922V14.2087C17.4173 12.8273 17.9661 11.5024 18.9429 10.5256C19.9197 9.54877 21.2446 9 22.626 9C24.0074 9 25.3323 9.54877 26.3091 10.5256C27.2859 11.5024 27.8347 12.8273 27.8347 14.2087V16.2922C27.8594 16.9828 27.7417 17.6712 27.4887 18.3144C27.2357 18.9575 26.8529 19.5417 26.3642 20.0304C25.8755 20.5191 25.2913 20.9018 24.6482 21.1548C24.005 21.4078 23.3167 21.5256 22.626 21.5008V21.5008ZM22.626 11.0835C22.2092 11.0593 21.7921 11.1235 21.402 11.272C21.0118 11.4205 20.6575 11.6498 20.3623 11.945C20.0672 12.2402 19.8378 12.5945 19.6893 12.9846C19.5408 13.3748 19.4765 13.7919 19.5008 14.2087V16.2922C19.5008 17.121 19.83 17.9159 20.4161 18.502C21.0022 19.0881 21.7971 19.4174 22.626 19.4174C23.4548 19.4174 24.2498 19.0881 24.8359 18.502C25.4219 17.9159 25.7512 17.121 25.7512 16.2922V14.2087C25.7754 13.7919 25.7112 13.3748 25.5627 12.9846C25.4142 12.5945 25.1848 12.2402 24.8896 11.945C24.5945 11.6498 24.2402 11.4205 23.85 11.272C23.4599 11.1235 23.0427 11.0593 22.626 11.0835V11.0835Z" fill="#404040"/>
<path d="M17.4175 42.3356C17.1412 42.3356 16.8762 42.2258 16.6809 42.0305C16.4855 41.8351 16.3757 41.5701 16.3757 41.2939V30.8765C16.3757 30.6002 16.4855 30.3352 16.6809 30.1399C16.8762 29.9445 17.1412 29.8347 17.4175 29.8347C17.6938 29.8347 17.9587 29.9445 18.1541 30.1399C18.3495 30.3352 18.4592 30.6002 18.4592 30.8765V41.2939C18.4592 41.5701 18.3495 41.8351 18.1541 42.0305C17.9587 42.2258 17.6938 42.3356 17.4175 42.3356Z" fill="#404040"/>
<path d="M27.8349 42.3356C27.5586 42.3356 27.2937 42.2259 27.0983 42.0305C26.9029 41.8351 26.7932 41.5702 26.7932 41.2939C26.7932 41.0176 26.9029 40.7526 27.0983 40.5572C27.2937 40.3619 27.5586 40.2521 27.8349 40.2521C28.6638 40.2521 29.4587 39.9229 30.0448 39.3368C30.6309 38.7507 30.9601 37.9558 30.9601 37.1269V29.8348C30.9601 27.0117 27.1473 24.6261 22.6262 24.6261C22.3499 24.6261 22.085 24.5163 21.8896 24.321C21.6942 24.1256 21.5845 23.8606 21.5845 23.5843C21.5845 23.3081 21.6942 23.0431 21.8896 22.8477C22.085 22.6524 22.3499 22.5426 22.6262 22.5426C28.4704 22.5426 33.0436 25.7407 33.0436 29.8348V37.1269C33.0436 38.5083 32.4948 39.8332 31.518 40.81C30.5412 41.7868 29.2163 42.3356 27.8349 42.3356V42.3356Z" fill="#404040"/>
<path d="M27.8347 55.8782C27.5584 55.8782 27.2935 55.7684 27.0981 55.5731C26.9027 55.3777 26.793 55.1127 26.793 54.8364V30.8765C26.793 30.6002 26.9027 30.3352 27.0981 30.1399C27.2935 29.9445 27.5584 29.8347 27.8347 29.8347C28.111 29.8347 28.376 29.9445 28.5713 30.1399C28.7667 30.3352 28.8764 30.6002 28.8764 30.8765V54.8364C28.8764 55.1127 28.7667 55.3777 28.5713 55.5731C28.376 55.7684 28.111 55.8782 27.8347 55.8782Z" fill="#404040"/>
<path d="M17.4175 55.8782C17.1412 55.8782 16.8762 55.7684 16.6809 55.5731C16.4855 55.3777 16.3757 55.1127 16.3757 54.8364V50.6695C16.3757 50.3932 16.4855 50.1282 16.6809 49.9329C16.8762 49.7375 17.1412 49.6277 17.4175 49.6277C17.6938 49.6277 17.9587 49.7375 18.1541 49.9329C18.3495 50.1282 18.4592 50.3932 18.4592 50.6695V54.8364C18.4592 55.1127 18.3495 55.3777 18.1541 55.5731C17.9587 55.7684 17.6938 55.8782 17.4175 55.8782Z" fill="#404040"/>
<path d="M23.668 55.8782C23.3917 55.8782 23.1267 55.7684 22.9314 55.573C22.736 55.3777 22.6262 55.1127 22.6262 54.8364V41.2938C22.6262 41.0176 22.736 40.7526 22.9314 40.5572C23.1267 40.3619 23.3917 40.2521 23.668 40.2521C23.9442 40.2521 24.2092 40.3619 24.4046 40.5572C24.6 40.7526 24.7097 41.0176 24.7097 41.2938V54.8364C24.7097 55.1127 24.6 55.3777 24.4046 55.573C24.2092 55.7684 23.9442 55.8782 23.668 55.8782Z" fill="#404040"/>
<path d="M19.5008 51.7112H8.04174C7.76545 51.7112 7.5005 51.6015 7.30513 51.4061C7.10977 51.2107 7 50.9458 7 50.6695V41.2938C7 41.0176 7.10977 40.7526 7.30513 40.5572C7.5005 40.3619 7.76545 40.2521 8.04174 40.2521H19.5008C19.7771 40.2521 20.0421 40.3619 20.2375 40.5572C20.4328 40.7526 20.5426 41.0176 20.5426 41.2938V50.6695C20.5426 50.9458 20.4328 51.2107 20.2375 51.4061C20.0421 51.6015 19.7771 51.7112 19.5008 51.7112ZM9.08347 49.6277H18.4591V42.3356H9.08347V49.6277Z" fill="#404040"/>
<path d="M41.8982 45.4608C38.5812 45.4597 35.3578 44.3608 32.7309 42.3356L34.0019 40.6792C36.0776 42.2628 38.5815 43.1859 41.1885 43.3286C43.7955 43.4713 46.3852 42.827 48.6214 41.4794C50.8576 40.1317 52.6371 38.143 53.7288 35.7713C54.8205 33.3996 55.1741 30.7545 54.7437 28.1794C54.3132 25.6042 53.1185 23.2179 51.3148 21.3303C49.5111 19.4426 47.1816 18.1408 44.6286 17.5937C42.0757 17.0466 39.4173 17.2796 36.9984 18.2624C34.5796 19.2452 32.512 20.9324 31.0641 23.1051L29.3245 21.9488C30.7718 19.7765 32.7574 18.0163 35.0877 16.84C37.4179 15.6636 40.0132 15.1112 42.6205 15.2366C45.2278 15.362 47.7581 16.1609 49.9647 17.5554C52.1713 18.9499 53.9788 20.8925 55.2111 23.1936C56.4433 25.4948 57.0582 28.076 56.9958 30.6856C56.9334 33.2951 56.1957 35.844 54.8549 38.0836C53.514 40.3232 51.6156 42.1771 49.3449 43.4645C47.0742 44.7519 44.5085 45.4289 41.8982 45.4295V45.4608Z" fill="#FA4616"/>
<path d="M40.4708 36.8248C40.1961 36.8208 39.934 36.7085 39.7416 36.5122L35.8872 32.6995L37.3561 31.2202L40.3458 34.21L48.5339 23.678L50.1798 24.9594L41.2626 36.4185C41.1752 36.5365 41.0624 36.6333 40.9326 36.7018C40.8028 36.7704 40.6592 36.8088 40.5125 36.8143L40.4708 36.8248Z" fill="#FA4616"/>
</svg>
