<svg width="64" height="64" viewBox="0 0 64 64" fill="none" xmlns="http://www.w3.org/2000/svg">
<path d="M38.3572 56.996C38.2066 56.9953 38.0579 56.9627 37.9209 56.9002L31.7805 54.1333L25.6401 56.9002C25.4711 56.9748 25.2855 57.0041 25.1017 56.9852C24.918 56.9663 24.7423 56.8999 24.592 56.7925C24.4417 56.6851 24.3218 56.5404 24.2444 56.3727C24.1669 56.205 24.1345 56.0201 24.1502 55.836L25.108 49.1209L20.3404 43.5551C20.2163 43.4111 20.133 43.2364 20.0993 43.0492C20.0657 42.8621 20.0827 42.6693 20.1488 42.4909C20.2185 42.3117 20.3355 42.1548 20.4873 42.0367C20.639 41.9187 20.82 41.8439 21.0108 41.8205L27.6407 40.9798L30.8333 34.3073C30.9196 34.1262 31.0553 33.9732 31.2247 33.8658C31.3942 33.7585 31.5905 33.7012 31.7911 33.7007C31.9917 33.7012 32.188 33.7585 32.3575 33.8658C32.527 33.9732 32.6626 34.1262 32.7489 34.3073L35.9415 40.9798L42.5714 41.8205C42.7623 41.8439 42.9432 41.9187 43.095 42.0367C43.2468 42.1548 43.3637 42.3117 43.4334 42.4909C43.5009 42.6683 43.5197 42.8606 43.4879 43.0477C43.4561 43.2348 43.3748 43.41 43.2525 43.5551L38.4743 49.1209L39.4321 55.836C39.4587 56.0246 39.4343 56.217 39.3613 56.3929C39.2883 56.5689 39.1694 56.722 39.017 56.8363C38.8204 56.9601 38.5887 57.0162 38.3572 56.996ZM31.7805 51.8985C31.9311 51.8992 32.0798 51.9318 32.2168 51.9942L37.027 54.1226L36.282 48.8016C36.2609 48.6522 36.2717 48.4999 36.3139 48.3549C36.3561 48.21 36.4287 48.0757 36.5268 47.9609L40.3579 43.619L35.1114 42.9485C34.9342 42.9268 34.7652 42.8609 34.6202 42.7567C34.4751 42.6526 34.3586 42.5136 34.2813 42.3526L31.8124 37.1806L29.3435 42.3526C29.2662 42.5136 29.1497 42.6526 29.0046 42.7567C28.8596 42.8609 28.6906 42.9268 28.5134 42.9485L23.2669 43.619L27.0661 48.0461C27.1642 48.1608 27.2367 48.2951 27.2789 48.4401C27.3211 48.585 27.332 48.7373 27.3108 48.8868L26.5659 54.2078L31.3761 52.0794C31.4967 51.9914 31.6345 51.9297 31.7805 51.8985Z" fill="#FA4616"/>
<path d="M34.6221 35.0416C34.482 35.0424 34.3432 35.0155 34.2135 34.9626C34.0839 34.9096 33.9659 34.8316 33.8665 34.733C33.6683 34.5336 33.557 34.2638 33.557 33.9827C33.557 33.7015 33.6683 33.4318 33.8665 33.2324L41.3159 25.783V9.16029H22.1603V25.7405L29.6097 33.1899C29.7094 33.2888 29.7886 33.4065 29.8427 33.5362C29.8967 33.6659 29.9245 33.805 29.9245 33.9455C29.9245 34.086 29.8967 34.2251 29.8427 34.3547C29.7886 34.4844 29.7094 34.6021 29.6097 34.701C29.4103 34.8992 29.1406 35.0105 28.8595 35.0105C28.5783 35.0105 28.3086 34.8992 28.1092 34.701L20.3086 26.9005C20.112 26.7023 20.0012 26.4347 20 26.1555V8.0642C20 7.78195 20.1121 7.51129 20.3117 7.31171C20.5113 7.11214 20.782 7 21.0642 7H42.3481C42.6304 7 42.9011 7.11214 43.1007 7.31171C43.3002 7.51129 43.4123 7.78195 43.4123 8.0642V26.1555C43.4112 26.4347 43.3003 26.7023 43.1037 26.9005L35.3777 34.7862C35.1684 34.966 34.8975 35.0576 34.6221 35.0416Z" fill="#404040"/>
<path d="M25.3953 31.5084C25.113 31.5084 24.8423 31.3963 24.6427 31.1968C24.4432 30.9972 24.3311 30.7265 24.3311 30.4442V8.09609C24.3311 7.81385 24.4432 7.54318 24.6427 7.3436C24.8423 7.14403 25.113 7.03189 25.3953 7.03189C25.6775 7.03189 25.9482 7.14403 26.1477 7.3436C26.3473 7.54318 26.4594 7.81385 26.4594 8.09609V30.4442C26.4594 30.7265 26.3473 30.9972 26.1477 31.1968C25.9482 31.3963 25.6775 31.5084 25.3953 31.5084Z" fill="#404040"/>
<path d="M38.1658 31.5084C37.8835 31.5084 37.6128 31.3963 37.4132 31.1968C37.2137 30.9972 37.1016 30.7265 37.1016 30.4442V8.09609C37.1016 7.81385 37.2137 7.54318 37.4132 7.3436C37.6128 7.14403 37.8835 7.03189 38.1658 7.03189C38.448 7.03189 38.7187 7.14403 38.9182 7.3436C39.1178 7.54318 39.23 7.81385 39.23 8.09609V30.4442C39.23 30.7265 39.1178 30.9972 38.9182 31.1968C38.7187 31.3963 38.448 31.5084 38.1658 31.5084Z" fill="#404040"/>
</svg>
