<svg width="64" height="64" viewBox="0 0 64 64" fill="none" xmlns="http://www.w3.org/2000/svg">
<path d="M15.6591 56.0682C15.4497 56.0739 15.2412 56.0377 15.0461 55.9616C14.8509 55.8855 14.6729 55.771 14.5227 55.625C13.5341 54.6705 14.3523 53.0454 14.6136 52.5227C15.8566 50.0024 16.6269 47.2755 16.8864 44.4773C10.6818 40.5796 7 34.6023 7 28.3636C7 17.1363 18.1705 8 31.8977 8C45.625 8 57 17.0909 57 28.3636C57 39.6363 45.7841 48.8182 32 48.8182C30.7081 48.7852 29.4204 48.6561 28.1477 48.4318H28.0341C24.747 51.1475 21.1906 53.5197 17.4205 55.5114C16.8838 55.8296 16.2811 56.0201 15.6591 56.0682V56.0682ZM31.9318 10.2727C19.4318 10.2727 9.30682 18.3863 9.30682 28.3636C9.30682 34.0454 12.8182 39.4204 18.6932 42.8977L19.3068 43.25L19.25 43.9659C19.0271 47.2017 18.1862 50.3648 16.7727 53.2841C20.415 51.3422 23.8429 49.0226 27 46.3636L27.3977 46.0113L28.5341 46.1818C29.6937 46.3911 30.8675 46.5126 32.0455 46.5454C44.3636 46.5454 54.7727 38.2273 54.7727 28.3636C54.7727 18.5 44.3068 10.2727 31.9318 10.2727V10.2727Z" fill="#404040"/>
<path d="M29.0114 35.4432C28.8619 35.444 28.7136 35.4154 28.5752 35.3588C28.4367 35.3023 28.3108 35.2189 28.2046 35.1136L23.6592 30.5682L25.2615 28.9659L28.8978 32.5909L38.716 19.9772L40.5115 21.375L29.8978 35.0114C29.7994 35.1367 29.6756 35.2399 29.5347 35.3143C29.3937 35.3887 29.2387 35.4326 29.0796 35.4432H29.0114Z" fill="#FA4616"/>
</svg>
