<svg width="64" height="64" viewBox="0 0 64 64" fill="none" xmlns="http://www.w3.org/2000/svg">
<path d="M21.0966 23.8358L19.5442 22.4501C21.232 20.5538 21.7321 17.0636 21.628 14.8027C20.7138 15.3503 19.9228 16.0811 19.3046 16.949L17.6167 15.7299C18.7202 14.0732 20.3733 12.8592 22.2843 12.3021L23.3262 12.0833L23.5346 13.1252C24.0764 15.8445 23.5659 21.0748 21.0966 23.8358Z" fill="#404040"/>
<path d="M17.4914 22.325L15.4077 22.2521C15.3989 20.4046 14.9183 18.5899 14.0115 16.9802C13.424 18.447 13.244 20.0454 13.4906 21.6061L11.4068 21.9291C11.1732 20.6181 11.2089 19.2733 11.5116 17.9765C11.8143 16.6797 12.3777 15.458 13.1676 14.3859L13.949 13.469L14.6992 14.3859C16.5037 16.6388 17.4884 19.4385 17.4914 22.325V22.325Z" fill="#404040"/>
<path d="M13.741 34.2442C7.48969 33.5357 7 25.6799 7 23.2836V21.8562L8.36487 22.2938C9.17754 22.5647 13.3034 24.0233 14.2411 26.9406L12.2615 27.5761C11.9177 26.5343 10.5841 25.4924 9.13586 24.8464C9.35466 27.5032 10.2924 31.7645 13.9494 32.1396L13.741 34.2442Z" fill="#404040"/>
<path d="M16.481 34.6402C15.8207 34.1388 15.3011 33.4754 14.9725 32.7142C14.644 31.953 14.5176 31.1199 14.6056 30.2955C14.8146 29.0498 15.304 27.8679 16.0368 26.839C16.7696 25.8102 17.7266 24.9614 18.8356 24.3568L19.617 23.94L20.1588 24.6381C20.9966 25.7311 21.4862 27.0507 21.5643 28.4257C21.6423 29.8006 21.3051 31.1672 20.5964 32.348L18.8669 31.2227C19.2694 30.5503 19.4957 29.7872 19.5248 29.0041C19.5539 28.221 19.385 27.4431 19.0336 26.7426C17.8231 27.6637 16.9957 28.9995 16.7102 30.4935C16.6571 30.9777 16.7322 31.4674 16.9278 31.9135C17.1235 32.3597 17.4329 32.7466 17.825 33.0357L16.481 34.6402Z" fill="#404040"/>
<path d="M23.6491 44.7777L21.9925 43.5587C22.2986 43.2048 22.5143 42.7821 22.6214 42.3267C22.7284 41.8713 22.7236 41.3967 22.6072 40.9435C22.1491 39.6439 21.2592 38.5406 20.0859 37.8179C19.7837 39.2036 19.7108 41.0894 20.9819 42.2459L19.5857 43.7983C16.9394 41.402 17.9083 37.4949 18.4501 35.9216L18.8148 34.8798L19.8566 35.3278C21.1903 35.9112 23.92 37.7137 24.6285 40.4122C24.8146 41.166 24.8229 41.9527 24.653 42.7103C24.483 43.4679 24.1394 44.1756 23.6491 44.7777V44.7777Z" fill="#404040"/>
<path d="M15.9602 44.3714C14.5781 44.3751 13.2323 43.9289 12.1261 43.1002C9.79455 41.1259 8.32855 38.3173 8.04193 35.2757L7.96899 34.0983L9.14632 34.1608C12.7825 34.3588 15.5643 35.5258 17.1897 37.5262L15.5643 38.8389C14.2017 37.3879 12.3408 36.5059 10.3549 36.3696C10.7802 38.3522 11.8367 40.1435 13.366 41.4749C13.9038 41.8792 14.5275 42.1543 15.1888 42.2789C15.85 42.4036 16.5311 42.3745 17.1793 42.1938L17.6585 44.2151C17.1004 44.3328 16.5305 44.3853 15.9602 44.3714V44.3714Z" fill="#404040"/>
<path d="M23.8887 52.5397C19.2523 52.5397 15.6786 49.2787 14.1366 46.9553L13.3552 45.7779L14.7201 45.382C17.304 44.6214 28.0771 43.7775 29.8795 49.81L30.1192 50.6019L29.3898 51.0186C27.7181 51.9917 25.8229 52.5158 23.8887 52.5397V52.5397ZM16.9081 47.0803C18.6376 48.9452 22.4405 51.9459 27.5249 49.6225C25.8266 46.9761 20.1692 46.6844 16.9081 47.0803Z" fill="#404040"/>
<path d="M42.9137 23.8358C40.4548 21.0748 39.9235 15.8549 40.4965 13.1356L40.7361 12L41.8301 12.3646C43.665 12.983 45.2606 14.1597 46.3936 15.7299L44.7057 16.949C44.0857 16.0994 43.2941 15.3895 42.3823 14.8652C42.2886 17.1261 42.7991 20.5643 44.4661 22.4396L42.9137 23.8358Z" fill="#404040"/>
<path d="M46.5188 22.3251C46.5117 19.4438 47.4813 16.6452 49.2694 14.3859L50.0612 13.4795L50.8427 14.3963C51.6258 15.4695 52.1828 16.6905 52.4801 17.9853C52.7774 19.2801 52.8087 20.6218 52.5722 21.9291L50.4884 21.6062C50.7351 20.0454 50.5551 18.447 49.9675 16.9802C49.0654 18.5918 48.5851 20.4052 48.5714 22.2521L46.5188 22.3251Z" fill="#404040"/>
<path d="M50.2693 34.2442L50.0401 32.1604C53.6971 31.7541 54.6348 27.4928 54.864 24.8672C53.4262 25.5549 52.0926 26.5447 51.7384 27.597L49.7588 26.9614C50.6965 24.0442 54.8223 22.5855 55.635 22.3146L56.9999 21.877V23.3044C57.0103 25.6799 56.5206 33.5357 50.2693 34.2442Z" fill="#404040"/>
<path d="M47.5292 34.6402L46.206 33.0357C46.6 32.7478 46.9114 32.3614 47.1089 31.9152C47.3064 31.469 47.3831 30.9787 47.3312 30.4935C47.0457 28.9995 46.2182 27.6637 45.0078 26.7426C44.6564 27.4431 44.4875 28.221 44.5166 29.0041C44.5457 29.7872 44.772 30.5503 45.1745 31.2227L43.4137 32.348C42.7037 31.1671 42.3667 29.7994 42.4466 28.4238C42.5265 27.0482 43.0197 25.7288 43.8617 24.6381L44.3931 23.94L45.1745 24.3568C46.2835 24.9614 47.2405 25.8102 47.9733 26.839C48.7062 27.8679 49.1955 29.0498 49.4046 30.2955C49.4926 31.1199 49.3662 31.953 49.0376 32.7142C48.7091 33.4754 48.1895 34.1388 47.5292 34.6402V34.6402Z" fill="#404040"/>
<path d="M40.3611 44.7777C39.8664 44.1679 39.5219 43.4504 39.3554 42.6831C39.1889 41.9157 39.2051 41.12 39.4025 40.3601C40.1214 37.6616 42.8407 35.8591 44.1744 35.2757L45.2162 34.8277L45.5913 35.8696C46.1227 37.4428 47.0916 41.3499 44.4453 43.7462L43.0491 42.1938C44.3306 41.0373 44.2473 39.1515 43.9556 37.7658C42.7766 38.4848 41.8823 39.5889 41.4238 40.8914C41.3074 41.3446 41.3026 41.8191 41.4096 42.2746C41.5167 42.73 41.7324 43.1527 42.0385 43.5066L40.3611 44.7777Z" fill="#404040"/>
<path d="M48.0398 44.3714C47.4676 44.3676 46.8977 44.2977 46.3416 44.163L46.8208 42.1417C47.4666 42.3314 48.1474 42.3699 48.8104 42.2543C49.4735 42.1387 50.1011 41.872 50.6445 41.4749C52.1758 40.1616 53.2427 38.3896 53.6868 36.4218C51.701 36.558 49.8401 37.4401 48.4774 38.891L46.8521 37.5783C48.4774 35.5778 51.2592 34.4526 54.9058 34.213L56.0728 34.1504L55.9998 35.3278C55.7132 38.3694 54.2472 41.178 51.9156 43.1523C50.7915 43.9711 49.4302 44.3993 48.0398 44.3714V44.3714Z" fill="#404040"/>
<path d="M40.1213 52.5397C38.1871 52.5158 36.292 51.9917 34.6202 51.0185L33.8909 50.6018L34.1305 49.81C35.933 43.7775 46.7061 44.6006 49.2899 45.382L50.6548 45.7779L49.8734 46.9552C48.3314 49.2786 44.7577 52.5397 40.1213 52.5397ZM36.4852 49.6225C41.58 51.9459 45.3724 48.9452 47.102 47.0803C43.8721 46.6843 38.1834 46.9761 36.4852 49.6225V49.6225Z" fill="#404040"/>
</svg>
