<svg width="64" height="64" viewBox="0 0 64 64" fill="none" xmlns="http://www.w3.org/2000/svg">
<path d="M34.1966 40.2426H10.1381C9.3058 40.2426 8.50764 39.912 7.91913 39.3235C7.33063 38.735 7 37.9368 7 37.1046V15.1381C7 14.3058 7.33063 13.5076 7.91913 12.9191C8.50764 12.3306 9.3058 12 10.1381 12H42.5648C43.3971 12 44.1953 12.3306 44.7838 12.9191C45.3723 13.5076 45.7029 14.3058 45.7029 15.1381V20.3682C45.7029 20.6456 45.5927 20.9117 45.3965 21.1078C45.2004 21.304 44.9343 21.4142 44.6569 21.4142C44.3794 21.4142 44.1134 21.304 43.9172 21.1078C43.7211 20.9117 43.6108 20.6456 43.6108 20.3682V15.1381C43.6108 14.8606 43.5006 14.5946 43.3045 14.3984C43.1083 14.2023 42.8422 14.092 42.5648 14.092H10.1381C9.86065 14.092 9.5946 14.2023 9.39844 14.3984C9.20227 14.5946 9.09205 14.8606 9.09205 15.1381V37.1046C9.09205 37.382 9.20227 37.6481 9.39844 37.8442C9.5946 38.0404 9.86065 38.1506 10.1381 38.1506H34.1966C34.474 38.1506 34.7401 38.2608 34.9363 38.457C35.1325 38.6531 35.2426 38.9192 35.2426 39.1966C35.2426 39.474 35.1325 39.7401 34.9363 39.9363C34.7401 40.1324 34.474 40.2426 34.1966 40.2426Z" fill="#404040"/>
<path d="M26.3515 30.3263C25.4092 30.3262 24.4766 30.1353 23.6101 29.7649C22.7436 29.3946 21.961 28.8525 21.3097 28.1715L10.4311 16.9163C10.2327 16.7165 10.1218 16.4462 10.1228 16.1647C10.1238 15.8832 10.2365 15.6136 10.4363 15.4152C10.636 15.2169 10.9064 15.106 11.1879 15.107C11.4694 15.108 11.739 15.2207 11.9373 15.4205L22.816 26.6757C23.2714 27.1555 23.8197 27.5376 24.4276 27.7987C25.0354 28.0599 25.69 28.1945 26.3515 28.1945C27.0131 28.1945 27.6677 28.0599 28.2755 27.7987C28.8834 27.5376 29.4317 27.1555 29.8871 26.6757L40.7658 15.4205C40.9586 15.2207 41.2228 15.1057 41.5004 15.1008C41.778 15.0959 42.0461 15.2015 42.2459 15.3943C42.4456 15.5871 42.5606 15.8514 42.5655 16.129C42.5704 16.4065 42.4648 16.6747 42.272 16.8744L31.3934 28.1297C30.7464 28.8193 29.9657 29.3697 29.0988 29.7474C28.2319 30.1251 27.2971 30.3221 26.3515 30.3263V30.3263Z" fill="#404040"/>
<path d="M11.1845 37.1046C10.9789 37.1037 10.7781 37.0423 10.6072 36.9279C10.4363 36.8136 10.3029 36.6514 10.2236 36.4617C10.1444 36.2719 10.1228 36.063 10.1616 35.8611C10.2004 35.6592 10.2979 35.4732 10.4418 35.3263L20.2117 25.5564C20.3089 25.4584 20.4246 25.3806 20.5521 25.3275C20.6796 25.2744 20.8163 25.247 20.9544 25.247C21.0925 25.247 21.2292 25.2744 21.3566 25.3275C21.4841 25.3806 21.5998 25.4584 21.6971 25.5564C21.8919 25.7524 22.0013 26.0176 22.0013 26.2939C22.0013 26.5702 21.8919 26.8354 21.6971 27.0313L11.9272 36.8012C11.8295 36.8982 11.7135 36.9749 11.5861 37.0269C11.4586 37.079 11.3222 37.1053 11.1845 37.1046Z" fill="#404040"/>
<path d="M34.2386 29.8242C33.9642 29.8231 33.7012 29.7141 33.5064 29.5209L31.0168 27.0314C30.822 26.8354 30.7126 26.5703 30.7126 26.2939C30.7126 26.0176 30.822 25.7524 31.0168 25.5565C31.2128 25.3616 31.4779 25.2523 31.7543 25.2523C32.0306 25.2523 32.2957 25.3616 32.4917 25.5565L34.9812 28.046C35.1761 28.242 35.2854 28.5071 35.2854 28.7834C35.2854 29.0598 35.1761 29.3249 34.9812 29.5209C34.8835 29.6178 34.7676 29.6945 34.6402 29.7466C34.5127 29.7987 34.3762 29.825 34.2386 29.8242Z" fill="#404040"/>
<path d="M46.5396 44.092C44.4708 44.092 42.4484 43.4785 40.7282 42.3292C39.008 41.1798 37.6673 39.5461 36.8756 37.6347C36.0839 35.7234 35.8767 33.6202 36.2803 31.5911C36.684 29.562 37.6802 27.6982 39.1431 26.2353C40.606 24.7724 42.4698 23.7761 44.4989 23.3725C46.528 22.9689 48.6312 23.1761 50.5426 23.9678C52.4539 24.7595 54.0876 26.1002 55.237 27.8204C56.3864 29.5406 56.9998 31.5629 56.9998 33.6318C56.9998 36.406 55.8978 39.0666 53.9361 41.0283C51.9744 42.99 49.3138 44.092 46.5396 44.092V44.092ZM46.5396 25.2636C44.8845 25.2636 43.2666 25.7544 41.8905 26.6739C40.5143 27.5934 39.4417 28.9003 38.8084 30.4294C38.175 31.9585 38.0093 33.6411 38.3322 35.2643C38.6551 36.8876 39.4521 38.3787 40.6224 39.549C41.7927 40.7193 43.2838 41.5163 44.907 41.8392C46.5303 42.1621 48.2129 41.9964 49.742 41.363C51.271 40.7296 52.578 39.657 53.4975 38.2809C54.417 36.9048 54.9078 35.2869 54.9078 33.6318C54.9078 31.4124 54.0261 29.2839 52.4568 27.7146C50.8875 26.1452 48.759 25.2636 46.5396 25.2636Z" fill="#FA4616"/>
<path d="M50.7238 52.7949C50.4964 52.8015 50.274 52.7274 50.0961 52.5857L46.5397 49.9393L42.9727 52.5857C42.8173 52.7023 42.6325 52.7732 42.439 52.7907C42.2456 52.8081 42.0511 52.7714 41.8773 52.6845C41.7036 52.5976 41.5574 52.4641 41.4553 52.2988C41.3532 52.1336 41.2991 51.9432 41.2991 51.7489V42.4079C41.2991 42.1305 41.4093 41.8644 41.6055 41.6683C41.8016 41.4721 42.0677 41.3619 42.3451 41.3619C42.6225 41.3619 42.8886 41.4721 43.0848 41.6683C43.2809 41.8644 43.3911 42.1305 43.3911 42.4079V49.6569L45.9016 47.774C46.0826 47.6382 46.3029 47.5648 46.5292 47.5648C46.7555 47.5648 46.9757 47.6382 47.1568 47.774L49.6673 49.6569V42.4079C49.6673 42.1305 49.7775 41.8644 49.9737 41.6683C50.1698 41.4721 50.4359 41.3619 50.7133 41.3619C50.9907 41.3619 51.2568 41.4721 51.453 41.6683C51.6491 41.8644 51.7593 42.1305 51.7593 42.4079V51.7489C51.7597 51.9449 51.705 52.1371 51.6014 52.3036C51.4979 52.4701 51.3496 52.6041 51.1735 52.6903C51.0333 52.7583 50.8796 52.794 50.7238 52.7949Z" fill="#FA4616"/>
<path d="M44.9603 38.6004C44.8219 38.5998 44.685 38.5718 44.5575 38.5179C44.4301 38.464 44.3145 38.3854 44.2177 38.2866L41.0796 35.1485L42.5649 33.6736L44.8453 35.9749L50.3997 29.0188L52.0315 30.3263L45.7553 38.1715C45.6635 38.2881 45.548 38.3839 45.4163 38.4524C45.2846 38.521 45.1399 38.5607 44.9917 38.569L44.9603 38.6004Z" fill="#FA4616"/>
</svg>
