<svg width="64" height="64" viewBox="0 0 64 64" fill="none" xmlns="http://www.w3.org/2000/svg">
<path d="M43.7077 18.5311H20.4148V11.27H27.897V11.1643C27.897 10.0598 28.3358 9.00063 29.1167 8.21968C29.8977 7.43873 30.9569 7 32.0613 7C33.1657 7 34.2249 7.43873 35.0059 8.21968C35.7868 9.00063 36.2255 10.0598 36.2255 11.1643V11.27H43.7077V18.5311ZM22.3382 16.6076H41.7843V13.1935H33.7058L34.1675 11.9048C34.2514 11.6667 34.2968 11.4167 34.3021 11.1643C34.3021 10.57 34.066 10 33.6458 9.57977C33.2255 9.15953 32.6556 8.92345 32.0613 8.92345C31.467 8.92345 30.897 9.15953 30.4768 9.57977C30.0566 10 29.8204 10.57 29.8204 11.1643C29.8209 11.4171 29.8665 11.6679 29.9551 11.9048L30.4167 13.1935H22.3382V16.6076Z" fill="#404040"/>
<path d="M49.1606 57H14.9617C14.7067 57 14.462 56.8987 14.2817 56.7183C14.1013 56.538 14 56.2934 14 56.0383V14.3668C14 14.1117 14.1013 13.8671 14.2817 13.6868C14.462 13.5064 14.7067 13.4051 14.9617 13.4051H21.3764V15.3285H15.9234V55.0766H48.1989V15.3285H42.7459V13.4051H49.1606C49.4157 13.4051 49.6603 13.5064 49.8406 13.6868C50.021 13.8671 50.1223 14.1117 50.1223 14.3668V56.0383C50.1223 56.2934 50.021 56.538 49.8406 56.7183C49.6603 56.8987 49.4157 57 49.1606 57Z" fill="#404040"/>
<path d="M22.7616 32.3222C22.5079 32.3186 22.266 32.2149 22.0884 32.0337L19.9437 29.8986C19.7646 29.7184 19.6641 29.4747 19.6641 29.2206C19.6641 28.9665 19.7646 28.7228 19.9437 28.5426C20.0331 28.4525 20.1395 28.3809 20.2567 28.3321C20.3739 28.2833 20.4996 28.2581 20.6265 28.2581C20.7535 28.2581 20.8792 28.2833 20.9964 28.3321C21.1136 28.3809 21.22 28.4525 21.3094 28.5426L22.7616 29.9948L27.9645 24.8015C28.1485 24.6439 28.3851 24.5616 28.6272 24.571C28.8692 24.5803 29.0988 24.6807 29.2701 24.8519C29.4414 25.0232 29.5417 25.2528 29.5511 25.4949C29.5604 25.7369 29.4781 25.9736 29.3205 26.1575L23.4636 32.0337C23.3723 32.1269 23.263 32.2005 23.1423 32.2501C23.0216 32.2997 22.8921 32.3242 22.7616 32.3222Z" fill="#FA4616"/>
<path d="M22.7613 47.277C22.509 47.2759 22.2673 47.1758 22.0881 46.9981L19.9435 44.8631C19.8538 44.7734 19.7827 44.6669 19.7342 44.5498C19.6856 44.4326 19.6606 44.3071 19.6606 44.1802C19.6606 44.0534 19.6856 43.9278 19.7342 43.8107C19.7827 43.6935 19.8538 43.5871 19.9435 43.4974C20.0332 43.4077 20.1396 43.3366 20.2568 43.2881C20.3739 43.2396 20.4995 43.2146 20.6263 43.2146C20.7531 43.2146 20.8787 43.2396 20.9958 43.2881C21.113 43.3366 21.2195 43.4077 21.3091 43.4974L22.7613 44.9592L27.9643 39.7563C28.1444 39.5772 28.3882 39.4767 28.6423 39.4767C28.8964 39.4767 29.1401 39.5772 29.3203 39.7563C29.4104 39.8457 29.482 39.9521 29.5308 40.0693C29.5796 40.1865 29.6048 40.3122 29.6048 40.4391C29.6048 40.5661 29.5796 40.6918 29.5308 40.809C29.482 40.9262 29.4104 41.0326 29.3203 41.122L23.4634 46.9981C23.3713 47.0896 23.2616 47.1614 23.1409 47.2094C23.0202 47.2573 22.8911 47.2803 22.7613 47.277V47.277Z" fill="#FA4616"/>
<path d="M43.9191 26.2249H33.2344V28.1483H43.9191V26.2249Z" fill="#404040"/>
<path d="M39.6491 30.5045H33.2344V32.428H39.6491V30.5045Z" fill="#404040"/>
<path d="M43.9191 41.1893H33.2344V43.1127H43.9191V41.1893Z" fill="#404040"/>
<path d="M39.6491 45.4593H33.2344V47.3828H39.6491V45.4593Z" fill="#404040"/>
</svg>
