<svg width="64" height="64" viewBox="0 0 64 64" fill="none" xmlns="http://www.w3.org/2000/svg">
<path d="M25.6746 52.1598C25.4995 52.1606 25.3271 52.1175 25.1731 52.0344L18.9051 48.6183L12.6998 52.0344C12.5224 52.1325 12.3203 52.1768 12.1181 52.1619C11.9159 52.1471 11.7224 52.0737 11.5612 51.9508C11.4047 51.8309 11.2854 51.6691 11.217 51.4843C11.1487 51.2994 11.1339 51.099 11.1746 50.9061L12.6998 44.1263L7.33027 39.1224C7.18258 38.984 7.07829 38.8056 7.03007 38.609C6.98186 38.4124 6.99179 38.2061 7.05866 38.015C7.12701 37.8244 7.2493 37.6577 7.41067 37.5352C7.57203 37.4128 7.76549 37.34 7.96752 37.3255L15.0712 36.8346L17.944 30.0546C18.024 29.8658 18.1578 29.7047 18.3287 29.5914C18.4996 29.4781 18.7001 29.4176 18.9051 29.4174C19.1102 29.4176 19.3107 29.4781 19.4816 29.5914C19.6525 29.7047 19.7863 29.8658 19.8662 30.0546L21.4228 33.4812C21.477 33.6074 21.5058 33.743 21.5075 33.8804C21.5093 34.0177 21.484 34.1541 21.4331 34.2816C21.3821 34.4092 21.3066 34.5255 21.2107 34.6238C21.1148 34.7222 21.0005 34.8007 20.8743 34.8549C20.7481 34.9091 20.6125 34.9379 20.4751 34.9396C20.3378 34.9414 20.2014 34.9161 20.0739 34.8652C19.9463 34.8142 19.83 34.7387 19.7317 34.6428C19.6333 34.547 19.5548 34.4326 19.5006 34.3064L18.9887 33.0947L16.8263 38.1926C16.7515 38.3705 16.629 38.5242 16.4723 38.6366C16.3155 38.7491 16.1307 38.816 15.9383 38.8298L10.6001 39.1955L14.6429 42.9667C14.7773 43.0903 14.877 43.247 14.932 43.4211C14.987 43.5952 14.9954 43.7808 14.9563 43.9592L13.8072 49.0675L18.4873 46.4977C18.6461 46.406 18.8262 46.3577 19.0096 46.3577C19.193 46.3577 19.3731 46.406 19.5319 46.4977L24.212 49.0675L23.0629 43.9592C23.0226 43.7817 23.0293 43.5967 23.0824 43.4226C23.1356 43.2486 23.2333 43.0914 23.3659 42.9667L27.4191 39.1955H26.6148C26.4774 39.1862 26.3433 39.1499 26.2201 39.0887C26.0969 39.0274 25.987 38.9424 25.8967 38.8385C25.8064 38.7346 25.7375 38.6139 25.694 38.4834C25.6505 38.3528 25.6333 38.215 25.6432 38.0777C25.662 37.8023 25.789 37.5456 25.9965 37.3635C26.204 37.1815 26.4751 37.0889 26.7506 37.1061L29.9681 37.336C30.1701 37.3504 30.3636 37.4233 30.525 37.5457C30.6863 37.6681 30.8086 37.8348 30.877 38.0254C30.9439 38.2165 30.9538 38.4228 30.9056 38.6194C30.8573 38.816 30.7531 38.9944 30.6054 39.1328L25.2358 44.1368L26.761 50.9166C26.8005 51.1105 26.7842 51.3115 26.714 51.4964C26.6437 51.6814 26.5223 51.8426 26.364 51.9613C26.1684 52.114 25.9214 52.1851 25.6746 52.1598V52.1598Z" fill="#404040"/>
<path d="M38.3254 52.1597C38.0994 52.1597 37.8794 52.0864 37.6986 51.9508C37.5422 51.8309 37.4229 51.6691 37.3545 51.4843C37.2861 51.2994 37.2714 51.099 37.3121 50.9061L38.8373 44.1263L33.4677 39.1224C33.32 38.984 33.2157 38.8056 33.1675 38.609C33.1193 38.4124 33.1292 38.2061 33.1961 38.015C33.2645 37.8244 33.3868 37.6576 33.5481 37.5352C33.7095 37.4128 33.9029 37.34 34.105 37.3255L37.3121 37.0957C37.4493 37.0858 37.5872 37.103 37.7178 37.1465C37.8483 37.19 37.969 37.2589 38.0729 37.3492C38.1768 37.4395 38.2618 37.5493 38.323 37.6726C38.3843 37.7958 38.4206 37.9299 38.4299 38.0673C38.4398 38.2045 38.4225 38.3423 38.379 38.4729C38.3355 38.6035 38.2667 38.7242 38.1764 38.828C38.0861 38.9319 37.9762 39.0169 37.853 39.0782C37.7298 39.1394 37.5956 39.1758 37.4583 39.185H36.6539L40.6968 42.9563C40.8312 43.0799 40.9309 43.2366 40.9859 43.4107C41.0409 43.5848 41.0492 43.7703 41.0102 43.9487L39.8611 49.0571L44.5411 46.4872C44.7 46.3955 44.8801 46.3473 45.0635 46.3473C45.2469 46.3473 45.427 46.3955 45.5858 46.4872L50.2764 49.0571L49.1272 43.9487C49.0869 43.7712 49.0936 43.5863 49.1468 43.4122C49.1999 43.2381 49.2976 43.081 49.4302 42.9563L53.4835 39.185L48.1452 38.8194C47.951 38.8074 47.764 38.7414 47.6052 38.6288C47.4465 38.5162 47.3224 38.3615 47.2468 38.1821L45.0844 33.0842L44.5725 34.296C44.4631 34.5509 44.2568 34.7519 43.9992 34.8547C43.7416 34.9576 43.4537 34.9539 43.1988 34.8444C42.9439 34.735 42.7429 34.5288 42.64 34.2712C42.5372 34.0135 42.5409 33.7256 42.6503 33.4707L44.1233 30.0024C44.2033 29.8136 44.337 29.6525 44.5079 29.5392C44.6788 29.4259 44.8793 29.3654 45.0844 29.3652V29.3652C45.2894 29.3654 45.4899 29.4259 45.6608 29.5392C45.8317 29.6525 45.9655 29.8136 46.0455 30.0024L48.9287 36.7823L56.022 37.2733C56.2259 37.2858 56.4216 37.3577 56.585 37.4803C56.7484 37.6028 56.8722 37.7705 56.9413 37.9627C57.0082 38.1538 57.0181 38.3602 56.9699 38.5567C56.9217 38.7533 56.8174 38.9317 56.6697 39.0701L51.3001 44.0741L52.7627 50.8852C52.8022 51.0791 52.7859 51.2802 52.7156 51.4651C52.6453 51.6501 52.524 51.8112 52.3657 51.9299C52.2055 52.0507 52.0139 52.1228 51.8139 52.1376C51.6138 52.1524 51.4137 52.1094 51.2374 52.0135L44.9695 48.5974L38.7015 52.0135C38.5868 52.0862 38.4591 52.1359 38.3254 52.1597V52.1597Z" fill="#404040"/>
<path d="M24.6193 35.8108C24.3897 35.813 24.1657 35.7397 23.982 35.6019C23.8256 35.4819 23.7063 35.3202 23.6379 35.1353C23.5695 34.9505 23.5548 34.7501 23.5955 34.5572L25.2879 27.0356L19.3333 21.4989C19.1836 21.3596 19.0781 21.1794 19.0298 20.9807C18.9815 20.782 18.9926 20.5736 19.0617 20.3811C19.1307 20.1889 19.2546 20.0211 19.418 19.8986C19.5814 19.776 19.7771 19.7041 19.981 19.6916L27.8577 19.1484L31.044 11.6373C31.1239 11.4485 31.2577 11.2873 31.4286 11.174C31.5995 11.0607 31.8 11.0002 32.0051 11C32.2101 11.0002 32.4106 11.0607 32.5815 11.174C32.7524 11.2873 32.8862 11.4485 32.9661 11.6373L36.1524 19.1484L44.0291 19.6916C44.2312 19.7061 44.4246 19.7789 44.586 19.9013C44.7473 20.0237 44.8696 20.1905 44.938 20.3811C45.0071 20.5736 45.0182 20.782 44.9699 20.9807C44.9216 21.1794 44.8161 21.3596 44.6664 21.4989L38.7222 27.0356L40.4146 34.5572C40.4577 34.7534 40.4433 34.9578 40.3732 35.146C40.3031 35.3343 40.1802 35.4982 40.0192 35.6184C39.8583 35.7385 39.6661 35.8098 39.4657 35.8235C39.2653 35.8372 39.0652 35.7929 38.8894 35.6959L32.0051 31.9142L25.1207 35.6959C24.9668 35.778 24.7937 35.8177 24.6193 35.8108V35.8108ZM32.0051 29.6577C32.1814 29.6572 32.3546 29.704 32.5065 29.7935L37.8656 32.729L36.5493 26.8894C36.499 26.7042 36.5007 26.5088 36.5541 26.3245C36.6076 26.1402 36.7107 25.9742 36.8523 25.8447L41.4802 21.5302L35.3689 21.1123C35.1765 21.0985 34.9916 21.0316 34.8349 20.9191C34.6782 20.8067 34.5557 20.653 34.4809 20.4751L32.0051 14.6772L29.5292 20.5065C29.4537 20.6858 29.3296 20.8405 29.1708 20.9531C29.0121 21.0657 28.825 21.1317 28.6308 21.1437L22.5195 21.5616L27.1474 25.876C27.2908 26.0044 27.3959 26.1699 27.4512 26.3542C27.5065 26.5385 27.5098 26.7346 27.4608 26.9207L26.1445 32.7604L31.5036 29.8249C31.6516 29.7229 31.8255 29.6649 32.0051 29.6577V29.6577Z" fill="#404040"/>
</svg>
