<svg width="64" height="64" viewBox="0 0 64 64" fill="none" xmlns="http://www.w3.org/2000/svg">
<path d="M34.4238 57H32.3232V51.6434C32.3229 51.1856 32.4224 50.7333 32.6147 50.3179C32.807 49.9026 33.0874 49.5341 33.4366 49.2381L38.8142 44.7006C39.1901 44.3804 39.5065 43.9965 39.749 43.5663L42.1753 39.281C42.3605 38.6401 42.3943 37.9649 42.274 37.3087C42.1537 36.6526 41.8826 36.0333 41.482 35.4998L38.3311 40.6464C38.14 40.951 37.9026 41.2238 37.6273 41.4552L33.8462 44.4906C33.0986 45.0904 32.1683 45.4165 31.2098 45.4149H22.9123C22.8216 45.4258 22.7299 45.4258 22.6392 45.4149L18.2803 44.2281C17.9324 44.1344 17.6144 43.9529 17.3569 43.7009C17.0994 43.4489 16.911 43.1349 16.8099 42.789L15.602 37.8315C15.0349 38.3938 14.6067 39.0805 14.3515 39.8371C14.0962 40.5938 14.0209 41.3996 14.1315 42.1904C14.2471 42.6 14.3731 43.3352 14.5202 44.123C14.6672 44.9107 14.7512 45.4674 14.8458 45.814C14.931 46.1237 15.0861 46.4097 15.2991 46.65C15.5121 46.8904 15.7775 47.0787 16.0747 47.2004L22.2611 49.7318C22.4529 49.8106 22.6171 49.9444 22.733 50.1163C22.8489 50.2883 22.9112 50.4907 22.9123 50.698V57H20.8116V51.4123L15.2764 49.1436C14.682 48.9 14.1514 48.5234 13.7253 48.0427C13.2992 47.562 12.9891 46.99 12.8186 46.3707C12.7031 45.9296 12.5771 45.2259 12.451 44.4906C12.325 43.7554 12.1989 43.0727 12.0939 42.7156C11.8556 41.2284 12.0733 39.7038 12.7182 38.3427C13.3632 36.9816 14.4052 35.8477 15.707 35.0902C15.8486 35.0068 16.0078 34.9579 16.1718 34.9472C16.3358 34.9366 16.5 34.9646 16.6512 35.029C16.8024 35.0933 16.9364 35.1922 17.0424 35.3178C17.1484 35.4433 17.2234 35.5921 17.2615 35.7519L18.8475 42.2534L23.0488 43.3038H31.2098C31.6909 43.3058 32.1581 43.1426 32.5333 42.8416L36.3039 39.8062C36.3998 39.7299 36.4815 39.6375 36.5455 39.5331L40.3582 33.3046C40.4315 33.1858 40.5278 33.0828 40.6415 33.0017C40.7551 32.9205 40.8837 32.8628 41.0199 32.832C41.1554 32.8008 41.2957 32.7968 41.4327 32.8202C41.5697 32.8437 41.7008 32.8941 41.8182 32.9685C42.9325 33.7751 43.7523 34.9242 44.1525 36.2403C44.5526 37.5565 44.5111 38.9674 44.0343 40.2578L41.5766 44.5851C41.2112 45.2307 40.7348 45.8067 40.1691 46.2867L34.802 50.8346C34.6848 50.9322 34.5902 51.0542 34.5249 51.192C34.4596 51.3299 34.4251 51.4803 34.4238 51.6328V57Z" fill="#404040"/>
<path d="M27.5965 42.2954C26.9628 42.3105 26.3327 42.195 25.7455 41.9562C25.1582 41.7173 24.6264 41.3602 24.1831 40.9071C23.7398 40.4539 23.3945 39.9144 23.1686 39.322C22.9427 38.7297 22.8411 38.0972 22.8701 37.464V35.5733C22.8701 34.3198 23.368 33.1176 24.2544 32.2312C25.1408 31.3449 26.343 30.8469 27.5965 30.8469C28.8501 30.8469 30.0523 31.3449 30.9387 32.2312C31.8251 33.1176 32.323 34.3198 32.323 35.5733V37.464C32.352 38.0972 32.2504 38.7297 32.0245 39.322C31.7986 39.9144 31.4533 40.4539 31.01 40.9071C30.5667 41.3602 30.0349 41.7173 29.4476 41.9562C28.8604 42.195 28.2303 42.3105 27.5965 42.2954V42.2954ZM27.5965 32.8425C27.2392 32.8297 26.8832 32.8924 26.5518 33.0265C26.2204 33.1606 25.921 33.3632 25.6732 33.6209C25.4253 33.8786 25.2347 34.1857 25.1136 34.5222C24.9926 34.8586 24.9439 35.2168 24.9707 35.5733V37.464C24.9707 38.1604 25.2474 38.8283 25.7398 39.3207C26.2323 39.8131 26.9001 40.0898 27.5965 40.0898C28.293 40.0898 28.9608 39.8131 29.4533 39.3207C29.9457 38.8283 30.2224 38.1604 30.2224 37.464V35.5733C30.2492 35.2168 30.2005 34.8586 30.0794 34.5222C29.9584 34.1857 29.7678 33.8786 29.5199 33.6209C29.2721 33.3632 28.9727 33.1606 28.6413 33.0265C28.3099 32.8924 27.9539 32.8297 27.5965 32.8425V32.8425Z" fill="#404040"/>
<path d="M27.8172 27.4753C27.224 27.522 26.6289 27.4128 26.0909 27.1585C25.5529 26.9043 25.0908 26.5138 24.7502 26.0259L22.261 21.7195C22.1812 21.6031 22.1257 21.4718 22.0979 21.3334C22.07 21.1951 22.0703 21.0525 22.0987 20.9143C22.1271 20.7761 22.1831 20.645 22.2633 20.5289C22.3435 20.4128 22.4463 20.3141 22.5656 20.2386L26.8824 17.7493C27.1248 17.61 27.4125 17.5727 27.6824 17.6456C27.9522 17.7184 28.1821 17.8955 28.3213 18.1379C28.4606 18.3803 28.4979 18.668 28.4251 18.9379C28.3522 19.2077 28.1751 19.4376 27.9327 19.5768L24.5297 21.5409L26.4938 24.9335C26.7354 25.3536 28.2163 25.6057 29.5397 24.839L30.5901 24.2193C30.7096 24.1433 30.8433 24.0923 30.9831 24.0693C31.1228 24.0463 31.2658 24.0518 31.4034 24.0855C31.541 24.1192 31.6703 24.1804 31.7837 24.2654C31.897 24.3504 31.992 24.4574 32.0629 24.5801C32.1338 24.7027 32.1791 24.8384 32.1962 24.979C32.2133 25.1196 32.2017 25.2623 32.1623 25.3983C32.1228 25.5344 32.0562 25.661 31.9665 25.7707C31.8768 25.8803 31.7659 25.9707 31.6404 26.0364L30.5901 26.6665C29.7482 27.1645 28.7947 27.4426 27.8172 27.4753Z" fill="#FA4616"/>
<path d="M46.5866 37.4429C46.354 37.4446 46.1275 37.369 45.9425 37.228C45.7576 37.087 45.6246 36.8886 45.5645 36.6639C45.5045 36.4392 45.5207 36.201 45.6106 35.9866C45.7005 35.7721 45.8591 35.5935 46.0614 35.4788L50.2627 33.0316L48.9603 30.7419C48.6242 30.1537 48.0045 30.1431 46.7651 30.2587C45.7148 30.3532 44.4964 30.4688 43.8557 29.3764L42.6163 27.2128C41.566 25.4482 42.7424 23.7782 43.5826 22.5598C44.2864 21.5095 44.7065 20.8688 44.4334 20.4592L38.1315 9.51473L27.019 15.9323L33.321 26.8767C33.5835 27.3283 34.3713 27.3073 35.6107 27.2023C37.0811 27.0867 39.0977 26.9292 40.1271 28.6937L41.0304 30.2692C41.1673 30.5104 41.2033 30.7959 41.1305 31.0635C41.0577 31.3311 40.882 31.5591 40.6417 31.6976C40.4006 31.8346 40.115 31.8706 39.8474 31.7978C39.5798 31.725 39.3518 31.5492 39.2133 31.309L38.3205 29.6915C38.0054 29.1349 37.2702 29.1244 35.7997 29.2504C34.3293 29.3764 32.4702 29.513 31.5249 27.8745L24.6663 16.0373C24.5293 15.7961 24.4933 15.5105 24.5661 15.2429C24.6389 14.9753 24.8146 14.7474 25.0549 14.6088L37.9844 7.14104C38.104 7.07189 38.2361 7.027 38.3731 7.00898C38.51 6.99096 38.6492 7.00012 38.7827 7.03597C39.0517 7.10587 39.2821 7.27964 39.4234 7.51914L46.2715 19.3773C47.2168 21.0158 46.1664 22.5283 45.3157 23.7572C44.4649 24.986 44.1183 25.6163 44.4439 26.173L45.6203 28.221C45.9417 28.2507 46.2652 28.2507 46.5866 28.221C47.7629 28.1055 49.7376 27.927 50.7879 29.744L52.6575 32.9791C52.7944 33.2202 52.8304 33.5058 52.7576 33.7734C52.6848 34.041 52.5091 34.2689 52.2688 34.4075L47.1222 37.3799C46.9522 37.4472 46.7676 37.4689 46.5866 37.4429Z" fill="#FA4616"/>
<path d="M44.1078 18.7576C43.8753 18.7592 43.6487 18.6836 43.4638 18.5426C43.2788 18.4016 43.1459 18.2033 43.0858 17.9786C43.0257 17.7539 43.0419 17.5157 43.1318 17.3012C43.2218 17.0867 43.3803 16.9081 43.5827 16.7935L44.633 16.1738C45.9564 15.4071 46.4816 13.9996 46.24 13.59L44.2759 10.1869L40.8728 12.151C40.6305 12.2903 40.3427 12.3276 40.0729 12.2547C39.803 12.1819 39.5731 12.0048 39.4339 11.7624C39.2946 11.5201 39.2573 11.2323 39.3302 10.9625C39.403 10.6926 39.5801 10.4627 39.8225 10.3235L44.1393 7.8342C44.3805 7.69726 44.666 7.66126 44.9337 7.73406C45.2013 7.80687 45.4292 7.98257 45.5678 8.22281L48.0571 12.5396C48.9813 14.1361 47.8575 16.7409 45.6833 17.9908L44.633 18.6106C44.4739 18.705 44.2928 18.7557 44.1078 18.7576V18.7576Z" fill="#FA4616"/>
</svg>
