<svg width="64" height="64" viewBox="0 0 64 64" fill="none" xmlns="http://www.w3.org/2000/svg">
<path d="M39.9786 43.8724H28.2765C27.9943 43.8724 27.7238 43.7603 27.5243 43.5608C27.3247 43.3613 27.2126 43.0907 27.2126 42.8085V30.0426H29.3403V41.7447H39.9786V43.8724Z" fill="#404040"/>
<path d="M55.9361 43.8724H44.2339V41.7447H54.8722V14.0851H29.3403V19.4043H27.2126V13.0213C27.2126 12.7392 27.3247 12.4686 27.5243 12.2691C27.7238 12.0696 27.9943 11.9575 28.2765 11.9575H55.9361C56.2182 11.9575 56.4888 12.0696 56.6883 12.2691C56.8878 12.4686 56.9999 12.7392 56.9999 13.0213V42.8085C56.9999 43.0907 56.8878 43.3613 56.6883 43.5608C56.4888 43.7603 56.2182 43.8724 55.9361 43.8724Z" fill="#404040"/>
<path d="M17.6384 20.4681C16.9176 20.4545 16.2067 20.2973 15.5473 20.0058C14.8879 19.7143 14.2932 19.2943 13.798 18.7704C13.3028 18.2464 12.9169 17.629 12.663 16.9542C12.4091 16.2795 12.2922 15.5609 12.3192 14.8404V13.3191C12.3192 11.9084 12.8797 10.5555 13.8772 9.55795C14.8747 8.56042 16.2277 8 17.6384 8C19.0491 8 20.4021 8.56042 21.3996 9.55795C22.3971 10.5555 22.9575 11.9084 22.9575 13.3191V14.8404C22.9845 15.5609 22.8677 16.2795 22.6138 16.9542C22.3599 17.629 21.974 18.2464 21.4788 18.7704C20.9836 19.2943 20.3889 19.7143 19.7295 20.0058C19.0701 20.2973 18.3592 20.4545 17.6384 20.4681V20.4681ZM17.6384 9.82982C17.1987 9.84615 16.7666 9.94976 16.3673 10.1346C15.9679 10.3195 15.6093 10.5819 15.3124 10.9066C15.0154 11.2313 14.7859 11.6117 14.6374 12.0259C14.4888 12.4401 14.424 12.8797 14.4469 13.3191V14.8404C14.4469 15.6869 14.7832 16.4986 15.3817 17.0972C15.9802 17.6957 16.7919 18.0319 17.6384 18.0319C18.4848 18.0319 19.2966 17.6957 19.8951 17.0972C20.4936 16.4986 20.8299 15.6869 20.8299 14.8404V13.3191C20.8527 12.8797 20.788 12.4401 20.6394 12.0259C20.4908 11.6117 20.2614 11.2313 19.9644 10.9066C19.6675 10.5819 19.3089 10.3195 18.9095 10.1346C18.5102 9.94976 18.0781 9.84615 17.6384 9.82982V9.82982Z" fill="#404040"/>
<path d="M24.0213 55.5745H21.8936V26.8511C21.8936 26.5689 22.0057 26.2984 22.2052 26.0989C22.4047 25.8994 22.6753 25.7873 22.9574 25.7873H28.2766C30.0957 25.7873 31.0745 25.1171 31.3723 23.6596H13.383C10.5 23.6596 9.12766 24.4575 9.12766 28.9788V36.4256C9.12766 37.6171 9.40426 39.6171 11.2553 39.6171H12.3191V41.7447H11.2553C8.62766 41.7447 7 39.7022 7 36.4256V28.9788C7 23.7553 8.90426 21.5319 13.383 21.5319H32.5319C32.8141 21.5319 33.0847 21.644 33.2842 21.8435C33.4837 22.0431 33.5957 22.3136 33.5957 22.5958C33.5957 25.9788 31.6596 27.9149 28.2766 27.9149H24.0213V55.5745Z" fill="#404040"/>
<path d="M18.7021 37.4894H16.5745V55.5745H18.7021V37.4894Z" fill="#404040"/>
<path d="M13.3828 28.9788H11.2551V55.5745H13.3828V28.9788Z" fill="#404040"/>
<path d="M42.1067 41.7447C41.0547 41.7447 40.0263 41.4328 39.1516 40.8483C38.2769 40.2638 37.5951 39.433 37.1925 38.4611C36.7899 37.4891 36.6846 36.4197 36.8898 35.3878C37.0951 34.356 37.6016 33.4083 38.3455 32.6644C39.0894 31.9205 40.0372 31.4139 41.069 31.2086C42.1008 31.0034 43.1703 31.1087 44.1423 31.5113C45.1142 31.9139 45.945 32.5957 46.5294 33.4704C47.1139 34.3452 47.4259 35.3735 47.4259 36.4256C47.4259 37.8363 46.8655 39.1892 45.868 40.1868C44.8704 41.1843 43.5175 41.7447 42.1067 41.7447V41.7447ZM42.1067 33.2341C41.4755 33.2341 40.8585 33.4212 40.3337 33.7719C39.8088 34.1226 39.3997 34.621 39.1582 35.2042C38.9166 35.7874 38.8534 36.4291 38.9766 37.0482C39.0997 37.6673 39.4037 38.236 39.85 38.6823C40.2964 39.1286 40.865 39.4326 41.4841 39.5557C42.1032 39.6788 42.7449 39.6156 43.3281 39.3741C43.9112 39.1325 44.4097 38.7235 44.7604 38.1986C45.111 37.6738 45.2982 37.0568 45.2982 36.4256C45.2982 35.5791 44.962 34.7673 44.3635 34.1688C43.7649 33.5703 42.9532 33.2341 42.1067 33.2341V33.2341Z" fill="#FA4616"/>
<path d="M45.2976 50.2554C45.1569 50.2548 45.0177 50.2262 44.888 50.1715C44.7584 50.1167 44.6409 50.0367 44.5423 49.9362L42.1061 47.5L39.67 49.9362C39.5218 50.0856 39.3327 50.1877 39.1265 50.2296C38.9203 50.2715 38.7063 50.2513 38.5116 50.1716C38.3169 50.0919 38.1502 49.9562 38.0326 49.7817C37.915 49.6073 37.8517 49.4019 37.8508 49.1915V39.6171C37.8508 39.3349 37.9629 39.0643 38.1624 38.8648C38.3619 38.6653 38.6325 38.5532 38.9147 38.5532C39.1968 38.5532 39.4674 38.6653 39.6669 38.8648C39.8664 39.0643 39.9785 39.3349 39.9785 39.6171V46.6171L41.3508 45.2447C41.4497 45.145 41.5674 45.0659 41.6971 45.0118C41.8267 44.9578 41.9657 44.93 42.1061 44.93C42.2466 44.93 42.3856 44.9578 42.5153 45.0118C42.6449 45.0659 42.7626 45.145 42.8615 45.2447L44.2338 46.6171V39.6171C44.2338 39.3349 44.3459 39.0643 44.5454 38.8648C44.7449 38.6653 45.0155 38.5532 45.2976 38.5532C45.5798 38.5532 45.8504 38.6653 46.0499 38.8648C46.2494 39.0643 46.3615 39.3349 46.3615 39.6171V49.1915C46.3615 49.4737 46.2494 49.7442 46.0499 49.9437C45.8504 50.1433 45.5798 50.2554 45.2976 50.2554V50.2554Z" fill="#FA4616"/>
<path d="M47.4257 21.5319H36.7874V23.6596H47.4257V21.5319Z" fill="#404040"/>
<path d="M45.2978 25.7873H38.9148V27.9149H45.2978V25.7873Z" fill="#404040"/>
<path d="M32.532 18.3405H30.4043V16.2128C30.4043 15.9306 30.5164 15.6601 30.7159 15.4606C30.9154 15.2611 31.186 15.149 31.4681 15.149H33.5958V17.2766H32.532V18.3405Z" fill="#404040"/>
<path d="M53.8087 18.3405H51.681V17.2766H50.6172V15.149H52.7448C53.027 15.149 53.2976 15.2611 53.4971 15.4606C53.6966 15.6601 53.8087 15.9306 53.8087 16.2128V18.3405Z" fill="#404040"/>
<path d="M52.7448 40.6809H50.6172V38.5532H51.681V37.4894H53.8087V39.6171C53.8087 39.8992 53.6966 40.1698 53.4971 40.3693C53.2976 40.5688 53.027 40.6809 52.7448 40.6809Z" fill="#404040"/>
<path d="M33.5958 40.6809H31.4681C31.186 40.6809 30.9154 40.5688 30.7159 40.3693C30.5164 40.1698 30.4043 39.8992 30.4043 39.6171V37.4894H32.532V38.5532H33.5958V40.6809Z" fill="#404040"/>
</svg>
