<svg width="64" height="64" viewBox="0 0 64 64" fill="none" xmlns="http://www.w3.org/2000/svg">
<path d="M29.7471 29.7799C29.4691 29.7788 29.2028 29.6684 29.0054 29.4727L25.1169 25.5842L26.6109 24.0902L29.6517 27.1205L37.9796 16.4193L39.6537 17.7119L30.5841 29.3667C30.4922 29.4868 30.3756 29.5858 30.2421 29.6571C30.1087 29.7284 29.9616 29.7703 29.8107 29.7799H29.7471Z" fill="#FA4616"/>
<path d="M32.3537 38.7859C29.2103 38.7859 26.1376 37.8538 23.524 36.1075C20.9104 34.3611 18.8734 31.879 17.6705 28.9749C16.4676 26.0709 16.1528 22.8753 16.7661 19.7924C17.3793 16.7095 18.893 13.8776 21.1156 11.6549C23.3383 9.43228 26.1702 7.91862 29.2531 7.30539C32.336 6.69215 35.5316 7.00688 38.4356 8.20978C41.3397 9.41269 43.8218 11.4497 45.5682 14.0633C47.3145 16.6769 48.2466 19.7496 48.2466 22.893C48.2466 27.108 46.5722 31.1505 43.5917 34.131C40.6112 37.1115 36.5687 38.7859 32.3537 38.7859V38.7859ZM32.3537 9.11907C29.6294 9.11907 26.9664 9.92689 24.7013 11.4404C22.4362 12.9539 20.6708 15.1051 19.6282 17.6219C18.5857 20.1388 18.313 22.9082 18.8444 25.5801C19.3759 28.252 20.6877 30.7063 22.614 32.6326C24.5404 34.5589 26.9946 35.8707 29.6665 36.4022C32.3384 36.9337 35.1079 36.6609 37.6247 35.6184C40.1416 34.5759 42.2927 32.8104 43.8062 30.5453C45.3197 28.2802 46.1276 25.6172 46.1276 22.893C46.1276 19.2399 44.6764 15.7365 42.0933 13.1533C39.5102 10.5702 36.0067 9.11907 32.3537 9.11907V9.11907Z" fill="#404040"/>
<path d="M24.9371 56.978C24.8424 56.9942 24.7457 56.9942 24.651 56.978C24.4836 56.9312 24.3303 56.8438 24.2047 56.7237C24.0791 56.6036 23.9849 56.4544 23.9305 56.2893C23.5499 55.1212 23.0493 53.9956 22.4366 52.9306C20.5042 53.9632 18.3638 54.5463 16.1747 54.6365C15.9609 54.6599 15.7451 54.6177 15.5558 54.5156C15.3665 54.4134 15.2129 54.256 15.1152 54.0643C15.0216 53.8804 14.9838 53.6731 15.0064 53.4679C15.029 53.2627 15.111 53.0686 15.2423 52.9094C21.3982 45.4927 22.5955 39.3263 22.6591 39.2627C22.7106 38.9878 22.8687 38.7444 23.0989 38.5856C23.3292 38.4268 23.6129 38.3655 23.8881 38.4151C24.0252 38.4394 24.1561 38.4904 24.2735 38.5654C24.3908 38.6403 24.4922 38.7376 24.5719 38.8517C24.6516 38.9659 24.7081 39.0946 24.738 39.2306C24.7679 39.3665 24.7707 39.5071 24.7463 39.6441C24.6934 39.8984 23.6868 45.249 18.5693 52.1572C19.889 51.7948 21.1541 51.2566 22.3306 50.5573C22.5534 50.4382 22.8115 50.4026 23.0582 50.457C23.305 50.5114 23.5241 50.6522 23.6762 50.854C24.3757 51.8396 24.9521 52.907 25.3927 54.0325C27.3873 51.5472 28.9099 48.7174 29.8851 45.6835C29.9637 45.4137 30.1464 45.1862 30.3927 45.0511C30.6391 44.916 30.9291 44.8843 31.1989 44.963C31.4686 45.0417 31.6961 45.2243 31.8312 45.4707C31.9663 45.717 31.998 46.007 31.9194 46.2768C31.1247 49.0316 28.5818 54.2656 25.6575 56.7555C25.4528 56.9155 25.1964 56.9947 24.9371 56.978Z" fill="#404040"/>
<path d="M39.7707 56.9781C39.4994 56.9798 39.2377 56.8774 39.0396 56.692C34.4836 52.4539 32.4599 42.7592 32.3752 42.3565C32.3186 42.0827 32.3727 41.7975 32.5255 41.5633C32.6783 41.3291 32.9175 41.1648 33.191 41.1063C33.3281 41.0769 33.4697 41.075 33.6075 41.1007C33.7454 41.1264 33.8768 41.1792 33.9941 41.2561C34.1113 41.333 34.2122 41.4324 34.2908 41.5485C34.3694 41.6647 34.4241 41.7953 34.4518 41.9327C34.4518 42.0175 36.0623 49.6355 39.3893 53.916C39.8212 52.818 40.3832 51.7758 41.0633 50.8116C41.2154 50.6098 41.4345 50.469 41.6813 50.4147C41.928 50.3603 42.1861 50.3958 42.4089 50.5149C43.5758 51.1905 44.8261 51.7106 46.1279 52.0618C41.0209 45.1537 40.0038 39.8031 39.9614 39.5488C39.9119 39.2735 39.9732 38.9898 40.132 38.7596C40.2907 38.5294 40.5341 38.3712 40.809 38.3197C40.9461 38.2953 41.0866 38.2982 41.2226 38.3281C41.3585 38.358 41.4872 38.4144 41.6014 38.4941C41.7155 38.5738 41.8128 38.6753 41.8878 38.7926C41.9627 38.9099 42.0138 39.0409 42.0381 39.178C42.0381 39.178 43.2459 45.3868 49.4548 52.8141C49.5862 52.9733 49.6682 53.1674 49.6908 53.3726C49.7134 53.5777 49.6755 53.785 49.5819 53.969C49.4843 54.1606 49.3306 54.318 49.1413 54.4202C48.9521 54.5224 48.7362 54.5646 48.5224 54.5411C46.341 54.4787 44.2014 53.9284 42.2606 52.9307C41.6552 54.0016 41.1583 55.1303 40.7772 56.3C40.7214 56.4707 40.6231 56.6245 40.4915 56.7469C40.3599 56.8692 40.1994 56.956 40.025 56.9992C39.9397 57.0025 39.8543 56.9953 39.7707 56.9781V56.9781Z" fill="#404040"/>
</svg>
