<svg width="64" height="64" viewBox="0 0 64 64" fill="none" xmlns="http://www.w3.org/2000/svg">
<path d="M11.1667 49.625C10.0616 49.625 9.00179 49.186 8.22039 48.4046C7.43899 47.6232 7 46.5634 7 45.4584V12.125C7 11.2962 7.32924 10.5013 7.91529 9.91529C8.50134 9.32924 9.2962 9.00002 10.125 9.00002H23.6667C23.8038 8.99922 23.9397 9.02549 24.0666 9.07733C24.1935 9.12917 24.3089 9.20553 24.4062 9.30208L27.2187 12.125H50.75C51.0263 12.125 51.2912 12.2348 51.4866 12.4301C51.6819 12.6255 51.7917 12.8904 51.7917 13.1667V16.2917H49.7083V14.2084H26.7917C26.6538 14.2078 26.5175 14.1799 26.3906 14.1262C26.2636 14.0726 26.1486 13.9943 26.0521 13.8959L23.2396 11.0834H10.125C9.84873 11.0834 9.58378 11.1931 9.38843 11.3885C9.19308 11.5838 9.08333 11.8488 9.08333 12.125V45.4584C9.0829 45.7419 9.14034 46.0224 9.25213 46.283C9.36392 46.5435 9.52771 46.7785 9.73346 46.9735C9.93922 47.1686 10.1826 47.3196 10.4488 47.4173C10.7149 47.515 10.9982 47.5573 11.2813 47.5417C11.8345 47.484 12.3454 47.2186 12.7107 46.7992C13.0761 46.3797 13.2688 45.8373 13.25 45.2813V20.4584C13.25 19.6296 13.5792 18.8347 14.1653 18.2486C14.7513 17.6626 15.5462 17.3334 16.375 17.3334H53.875C54.7038 17.3334 55.4987 17.6626 56.0847 18.2486C56.6708 18.8347 57 19.6296 57 20.4584V48.5834C57 48.8596 56.8903 49.1246 56.6949 49.3199C56.4996 49.5153 56.2346 49.625 55.9583 49.625H50.75V47.5417H54.9167V20.4584C54.9167 20.1821 54.8069 19.9171 54.6116 19.7218C54.4162 19.5264 54.1513 19.4167 53.875 19.4167H16.375C16.0987 19.4167 15.8338 19.5264 15.6384 19.7218C15.4431 19.9171 15.3333 20.1821 15.3333 20.4584V45.2813C15.3549 46.3716 14.9576 47.4287 14.2231 48.2349C13.4887 49.041 12.473 49.5348 11.3854 49.6146L11.1667 49.625Z" fill="#404040"/>
<path d="M30.9582 47.5417H11.1665V49.625H30.9582V47.5417Z" fill="#404040"/>
<path d="M47.0523 54.8854C46.9213 54.8858 46.7911 54.8647 46.6669 54.8229L40.4169 52.3333L34.0836 54.7813C33.9163 54.8451 33.7354 54.8648 33.5583 54.8383C33.3811 54.8119 33.2138 54.7403 33.0725 54.6303C32.9311 54.5204 32.8205 54.3759 32.7513 54.2107C32.6821 54.0455 32.6566 53.8654 32.6774 53.6875L33.4273 47.4375L28.7919 42.0104C28.6706 41.8685 28.5897 41.6967 28.5575 41.5128C28.5254 41.3289 28.5433 41.1397 28.6093 40.9651C28.6753 40.7905 28.787 40.6368 28.9328 40.5202C29.0785 40.4036 29.2529 40.3282 29.4378 40.3021L36.094 39.375L39.4794 32.9792C39.568 32.8128 39.7 32.6736 39.8615 32.5764C40.0229 32.4792 40.2077 32.4276 40.3961 32.4271V32.4271C40.5845 32.4276 40.7693 32.4792 40.9307 32.5764C41.0922 32.6736 41.2242 32.8128 41.3128 32.9792L44.6982 39.375L51.3544 40.3021C51.5393 40.3282 51.7137 40.4036 51.8594 40.5202C52.0052 40.6368 52.1169 40.7905 52.1829 40.9651C52.2489 41.1397 52.2668 41.3289 52.2347 41.5128C52.2025 41.6967 52.1216 41.8685 52.0003 42.0104L47.3649 47.4271L48.1149 53.7708C48.1364 53.9495 48.1113 54.1308 48.0419 54.297C47.9725 54.4631 47.8613 54.6084 47.719 54.7188C47.522 54.8481 47.287 54.9068 47.0523 54.8854ZM40.3336 50.177C40.4655 50.1767 40.5963 50.2015 40.719 50.25L45.7815 52.2396L45.1774 47.1771C45.1611 47.0334 45.1749 46.8878 45.2179 46.7497C45.2609 46.6116 45.3323 46.484 45.4274 46.375L49.1253 42.0625L43.8232 41.3229C43.6593 41.3011 43.503 41.2406 43.3672 41.1464C43.2313 41.0522 43.1198 40.927 43.0419 40.7812L40.3336 35.6562L37.6253 40.7812C37.5474 40.927 37.4359 41.0522 37.3 41.1464C37.1642 41.2406 37.0079 41.3011 36.844 41.3229L31.5419 42.0625L35.2503 46.3854C35.3435 46.4953 35.4129 46.6232 35.4542 46.7613C35.4954 46.8994 35.5076 47.0445 35.4898 47.1875L34.8857 52.2083L39.9586 50.25C40.0774 50.2007 40.205 50.1759 40.3336 50.177Z" fill="#FA4616"/>
</svg>
