<svg width="64" height="64" viewBox="0 0 64 64" fill="none" xmlns="http://www.w3.org/2000/svg">
<path d="M28.609 38.25C25.1696 38.2465 21.8274 37.1082 19.1008 35.0117C16.3742 32.9152 14.4155 29.9776 13.5285 26.6545C12.6415 23.3315 12.8758 19.8086 14.195 16.6322C15.5141 13.4558 17.8445 10.8034 20.8247 9.08637C23.8048 7.36933 27.2683 6.68358 30.6779 7.13547C34.0875 7.58735 37.2527 9.15163 39.6828 11.5857C42.1128 14.0198 43.6718 17.1876 44.118 20.598C44.5642 24.0083 43.8726 27.4706 42.1506 30.4479C42.0855 30.5724 41.9959 30.6824 41.8871 30.7714C41.7784 30.8603 41.6528 30.9264 41.5179 30.9655C41.3829 31.0046 41.2415 31.0161 41.102 30.9992C40.9626 30.9822 40.828 30.9372 40.7063 30.8669C40.5847 30.7966 40.4785 30.7024 40.3943 30.59C40.31 30.4776 40.2493 30.3494 40.2159 30.2129C40.1824 30.0765 40.177 29.9347 40.1998 29.796C40.2226 29.6574 40.2732 29.5248 40.3485 29.4063C41.8797 26.7522 42.4655 23.6572 42.0101 20.6272C41.5548 17.5971 40.0854 14.811 37.8418 12.7241C35.5983 10.6372 32.7133 9.37289 29.6582 9.1377C26.6032 8.90251 23.5587 9.71036 21.0222 11.4293C18.4856 13.1482 16.607 15.6765 15.6933 18.6012C14.7796 21.5259 14.8847 24.674 15.9916 27.5311C17.0984 30.3883 19.1416 32.7857 21.7871 34.3315C24.4327 35.8773 27.5243 36.4802 30.5569 36.0417C30.8332 36.003 31.1135 36.0756 31.3362 36.2436C31.5589 36.4116 31.7057 36.6612 31.7444 36.9375C31.7831 37.2138 31.7104 37.4941 31.5424 37.7168C31.3744 37.9395 31.1248 38.0863 30.8486 38.125C30.1059 38.2193 29.3575 38.261 28.609 38.25V38.25Z" fill="#FA4616"/>
<path d="M49.4422 57H47.3589C47.4596 56.0494 47.82 55.1448 48.4005 54.3854C48.9709 53.6281 49.3303 52.7331 49.4422 51.7917V41.375C49.4149 41.1081 49.2963 40.8587 49.1066 40.669C48.9168 40.4792 48.6675 40.3607 48.4005 40.3333H45.2756V39.2917C45.2482 39.0247 45.1296 38.7754 44.9399 38.5856C44.7502 38.3959 44.5008 38.2774 44.2339 38.25H41.5776L41.2651 37.7708C40.9486 37.4424 40.5221 37.2421 40.0672 37.2083H37.9839V35.125H40.0672C41.0171 35.1609 41.9242 35.5296 42.6297 36.1667H44.2339C44.8737 36.1884 45.493 36.3973 46.0152 36.7677C46.5373 37.138 46.9393 37.6534 47.1714 38.25H48.4005C49.2219 38.2736 50.0031 38.6104 50.5841 39.1914C51.1651 39.7724 51.502 40.5537 51.5255 41.375V51.7917C51.4256 53.1196 50.9566 54.3932 50.1714 55.4688C49.8326 55.9278 49.5851 56.4476 49.4422 57V57Z" fill="#404040"/>
<path d="M43.1922 37.2083H41.1089V42.4166H43.1922V37.2083Z" fill="#404040"/>
<path d="M47.359 39.2917H45.2756V43.4583H47.359V39.2917Z" fill="#404040"/>
<path d="M32.7756 57C32.7756 56.5625 32.7756 56.3958 32.036 55.6563C30.5732 54.155 29.3726 52.4192 28.4839 50.5208C27.7007 48.9441 26.7396 47.4622 25.6193 46.1042C25.2931 45.7438 25.0554 45.3123 24.9252 44.8439C24.795 44.3756 24.7759 43.8833 24.8693 43.4063C24.9613 42.9558 25.157 42.533 25.4409 42.1713C25.7247 41.8097 26.089 41.5192 26.5047 41.3229C27.098 41.0416 27.7536 40.9177 28.4086 40.9633C29.0636 41.0089 29.6958 41.2225 30.2443 41.5833C31.1588 42.2807 32.0063 43.0618 32.7756 43.9167V29.8854C32.7734 29.4754 32.8545 29.0692 33.0138 28.6914C33.1732 28.3136 33.4075 27.9721 33.7027 27.6875C34.2882 27.1055 35.0802 26.7788 35.9058 26.7788C36.7313 26.7788 37.5234 27.1055 38.1089 27.6875C38.4004 27.9786 38.6315 28.3246 38.7888 28.7053C38.9461 29.0861 39.0266 29.4943 39.0256 29.9063V42.4063H36.9422V29.9063C36.9411 29.633 36.8326 29.3711 36.6401 29.1771C36.4384 28.9823 36.1706 28.8707 35.8901 28.8646C35.6221 28.881 35.3664 28.9832 35.161 29.1563C34.9685 29.3503 34.8601 29.6121 34.8589 29.8854V45.7917C34.8591 46.066 34.7754 46.3337 34.619 46.559C34.4626 46.7844 34.2409 46.9564 33.9839 47.0521C33.7278 47.149 33.4484 47.1661 33.1825 47.101C32.9166 47.0359 32.6766 46.8917 32.4943 46.6875C31.46 45.4416 30.3089 44.2975 29.0568 43.2708C28.8118 43.1149 28.5309 43.0243 28.2409 43.0079C27.9509 42.9915 27.6616 43.0498 27.4006 43.1771C27.2759 43.236 27.1668 43.3231 27.0818 43.4316C26.9968 43.5401 26.9383 43.667 26.911 43.8021C26.8804 43.9606 26.8871 44.124 26.9305 44.2795C26.9738 44.4349 27.0528 44.5782 27.161 44.6979C28.3904 46.1758 29.4394 47.7949 30.286 49.5208C31.0827 51.2272 32.1562 52.7899 33.4631 54.1458C34.7443 55.4271 34.8381 56.1042 34.8381 56.9167L32.7756 57Z" fill="#404040"/>
<path d="M25.5255 29.0833C25.3876 29.0828 25.2513 29.0548 25.1244 29.0012C24.9974 28.9475 24.8823 28.8693 24.7859 28.7708L20.9734 24.9583L22.4421 23.4792L25.4213 26.4687L33.6088 15.9375L35.2546 17.2187L26.3484 28.6771C26.258 28.7952 26.1433 28.8925 26.0122 28.9626C25.881 29.0326 25.7364 29.0738 25.588 29.0833H25.5255Z" fill="#FA4616"/>
</svg>
