<svg width="64" height="64" viewBox="0 0 64 64" fill="none" xmlns="http://www.w3.org/2000/svg">
<path d="M29.6875 39.4167C29.4142 39.4155 29.1524 39.307 28.9584 39.1146L26.6354 36.8021C26.4414 36.6069 26.3325 36.3429 26.3325 36.0677C26.3325 35.7925 26.4414 35.5285 26.6354 35.3334C26.7323 35.2357 26.8475 35.1582 26.9744 35.1053C27.1013 35.0525 27.2375 35.0252 27.375 35.0252C27.5125 35.0252 27.6487 35.0525 27.7756 35.1053C27.9025 35.1582 28.0178 35.2357 28.1146 35.3334L29.6875 36.9063L35.3229 31.2813C35.5222 31.1106 35.7785 31.0214 36.0407 31.0316C36.3028 31.0417 36.5515 31.1504 36.7371 31.3359C36.9226 31.5214 37.0313 31.7701 37.0414 32.0322C37.0515 32.2944 36.9623 32.5507 36.7917 32.75L30.4479 39.1146C30.3481 39.2137 30.2293 39.2915 30.0986 39.3434C29.9679 39.3953 29.8281 39.4203 29.6875 39.4167V39.4167Z" fill="#FA4616"/>
<path d="M51.625 40.3333H44.3333V38.25H50.5833V9.08333H13.0833V38.25H19.3333V40.3333H12.0417C11.7654 40.3333 11.5004 40.2236 11.3051 40.0282C11.1097 39.8329 11 39.5679 11 39.2917V8.04167C11 7.7654 11.1097 7.50043 11.3051 7.30508C11.5004 7.10973 11.7654 7 12.0417 7H51.625C51.9013 7 52.1662 7.10973 52.3616 7.30508C52.5569 7.50043 52.6667 7.7654 52.6667 8.04167V39.2917C52.6667 39.5679 52.5569 39.8329 52.3616 40.0282C52.1662 40.2236 51.9013 40.3333 51.625 40.3333Z" fill="#404040"/>
<path d="M31.8334 45.5417C29.7732 45.5417 27.7592 44.9308 26.0462 43.7862C24.3332 42.6416 22.9981 41.0147 22.2097 39.1113C21.4213 37.2079 21.215 35.1135 21.6169 33.0928C22.0188 31.0722 23.0109 29.2161 24.4677 27.7593C25.9245 26.3025 27.7806 25.3104 29.8012 24.9085C31.8219 24.5066 33.9163 24.7129 35.8197 25.5013C37.7231 26.2897 39.35 27.6248 40.4946 29.3378C41.6392 31.0508 42.2501 33.0648 42.2501 35.125C42.2501 37.8877 41.1526 40.5372 39.1991 42.4907C37.2456 44.4442 34.5961 45.5417 31.8334 45.5417ZM31.8334 26.7917C30.1852 26.7917 28.5741 27.2804 27.2037 28.1961C25.8333 29.1118 24.7652 30.4133 24.1344 31.936C23.5037 33.4587 23.3387 35.1343 23.6602 36.7508C23.9818 38.3673 24.7754 39.8521 25.9409 41.0176C27.1063 42.183 28.5912 42.9767 30.2077 43.2982C31.8242 43.6198 33.4997 43.4547 35.0225 42.824C36.5452 42.1933 37.8467 41.1252 38.7623 39.7548C39.678 38.3843 40.1668 36.7732 40.1668 35.125C40.1668 32.9149 39.2888 30.7953 37.726 29.2325C36.1632 27.6696 34.0436 26.7917 31.8334 26.7917Z" fill="#FA4616"/>
<path d="M37.0417 57L31.8333 53.0937L26.625 57V44.5H28.7083V52.8333L31.8333 50.4896L34.9583 52.8333V44.5H37.0417V57Z" fill="#FA4616"/>
<path d="M40.1667 14.2917H23.5V16.375H40.1667V14.2917Z" fill="#404040"/>
<path d="M37.0417 18.4583H26.625V20.5417H37.0417V18.4583Z" fill="#404040"/>
</svg>
