<svg width="64" height="64" viewBox="0 0 64 64" fill="none" xmlns="http://www.w3.org/2000/svg">
<path d="M35.0441 33.3732C34.7691 33.372 34.5056 33.2628 34.3104 33.0692L30.6416 29.4004L32.1196 27.9119L34.9498 30.7421L42.78 20.6792L44.4361 21.9685L35.8722 32.9748C35.7814 33.0905 35.6672 33.1856 35.5372 33.2543C35.4072 33.3229 35.2642 33.3634 35.1175 33.3732H35.0441Z" fill="#FA4616"/>
<path d="M50.2224 23.3103C49.9749 23.3086 49.7285 23.2769 49.4886 23.2159C48.7337 22.9966 48.0526 22.5763 47.518 22V22L47.3398 21.8113C46.019 20.4172 45.7884 18.5619 46.8157 17.6185L49.3209 15.2495C49.9824 14.6473 50.8552 14.3314 51.7488 14.3706C52.6425 14.4099 53.4842 14.8013 54.0903 15.4591L54.2685 15.6373C54.8862 16.2882 55.2313 17.1509 55.2329 18.0482C55.2287 18.4937 55.1336 18.9335 54.9533 19.3409C54.7731 19.7483 54.5115 20.1145 54.1846 20.4172L51.6689 22.7862C51.2706 23.1379 50.7536 23.3252 50.2224 23.3103ZM49.0379 20.5535C49.1865 20.748 49.3764 20.9072 49.5939 21.0196C49.8114 21.132 50.0511 21.1947 50.2958 21.2033L52.78 18.8658C52.8949 18.7544 52.9857 18.6207 53.047 18.4729C53.1083 18.3251 53.1387 18.1663 53.1364 18.0063C53.1369 17.6498 52.9976 17.3074 52.7486 17.0524L52.5704 16.8637C52.3479 16.6082 52.033 16.4514 51.6949 16.4278C51.3569 16.4042 51.0233 16.5158 50.7675 16.738L48.2517 19.1069C48.2849 19.5888 48.5027 20.0394 48.8597 20.3648L49.0379 20.5535Z" fill="#404040"/>
<path d="M28.0527 56.9895L26.5537 55.5325C26.6376 55.4486 28.6501 53.4361 29.6984 52.3879L30.0338 52.0734H30.495C32.6909 52.3181 34.9115 51.9443 36.9063 50.9942C38.9011 50.044 40.5906 48.5553 41.7843 46.696C41.9102 46.5068 42.0467 46.3248 42.1931 46.151L43.7864 47.5136L43.4824 47.9225C42.1226 50.0054 40.2305 51.6868 38.0023 52.7926C35.7741 53.8984 33.2907 54.3884 30.8095 54.2118C29.7298 55.2705 28.0736 56.9686 28.0527 56.9895Z" fill="#404040"/>
<path d="M50.6312 42.6604C49.7442 42.6292 48.8971 42.2837 48.2413 41.6856V41.6856L48.0736 41.5388C47.5064 41.0645 47.0848 40.4395 46.8577 39.7359C46.7361 39.3846 46.7051 39.0084 46.7674 38.642C46.8297 38.2756 46.9833 37.9308 47.214 37.6394L49.3105 35.218C49.584 34.8993 49.9186 34.6387 50.2945 34.4514C50.6704 34.2641 51.08 34.1541 51.4992 34.1277C51.9183 34.1013 52.3385 34.1592 52.7349 34.2978C53.1314 34.4365 53.496 34.6531 53.8073 34.935L53.9855 35.0818C54.6287 35.6324 55.029 36.4143 55.0997 37.258C55.1703 38.1017 54.9056 38.9392 54.3629 39.5891L52.2665 42.0105C52.0573 42.2309 51.8027 42.4031 51.5203 42.5153C51.238 42.6275 50.9346 42.677 50.6312 42.6604V42.6604ZM49.583 40.1027C49.7252 40.2529 49.898 40.3709 50.0897 40.4487C50.2813 40.5264 50.4875 40.5622 50.6941 40.5535L52.7906 38.174C52.9715 37.947 53.0554 37.6576 53.0239 37.369C52.9925 37.0804 52.8484 36.8159 52.6229 36.6331L52.4551 36.4759C52.2382 36.2831 51.9544 36.1828 51.6645 36.1965C51.3746 36.2103 51.1016 36.3369 50.9038 36.5493L48.8073 38.9707C48.9059 39.3578 49.1309 39.7009 49.4468 39.9455L49.583 40.1027Z" fill="#404040"/>
<path d="M29.3418 49.2746L27.3606 48.5828C28.1892 46.2806 28.454 43.8135 28.133 41.3879C27.8121 38.9623 26.9146 36.6489 25.5158 34.6415L25.1699 34.1908L25.3481 33.6562C26.137 31.302 26.6265 28.8579 26.8051 26.3815C26.8695 25.0683 26.4562 23.7762 25.6416 22.7442C25.5483 22.6371 25.4285 22.5565 25.2942 22.5105C25.1598 22.4644 25.0157 22.4547 24.8764 22.4822C24.7703 22.4933 24.6687 22.5308 24.5808 22.5912C24.493 22.6516 24.4216 22.7331 24.3732 22.8281C23.7652 24.7568 23.325 26.1929 22.9896 27.3564C22.3397 29.5052 21.9413 30.805 21.2495 32.5975C20.7167 34.3708 20.4725 36.2183 20.5262 38.0692C20.5952 39.1711 20.4601 40.2763 20.1279 41.3292C20.0336 41.5388 19.216 42.8596 17.7065 45.26L15.9351 44.1384C16.9833 42.5136 18.1153 40.6583 18.2411 40.4172C18.3894 39.6261 18.4527 38.8214 18.4298 38.0168C18.3768 35.9256 18.6672 33.8399 19.2894 31.8428C19.9707 30.0922 20.3376 28.8973 20.977 26.7275C21.3334 25.5535 21.7632 24.1174 22.3711 22.1782C22.5282 21.7059 22.8149 21.2874 23.1986 20.9704C23.5823 20.6534 24.0475 20.4508 24.5409 20.3857C25.0637 20.2877 25.6036 20.3389 26.0986 20.5336C26.5936 20.7282 27.0237 21.0585 27.3397 21.4864C28.4582 22.9277 29.0101 24.7287 28.891 26.5493C28.72 28.9999 28.2555 31.4211 27.5074 33.761C28.9965 36.027 29.9376 38.6086 30.256 41.3013C30.5744 43.994 30.2614 46.7239 29.3418 49.2746Z" fill="#404040"/>
<path d="M50.673 36.0881C49.7781 36.0552 48.9238 35.7061 48.2621 35.1027L48.0839 34.9455C46.7002 33.7505 46.3124 32 47.2139 30.9623L49.3103 28.499C49.8772 27.8573 50.6751 27.4662 51.5296 27.4112C52.3841 27.3562 53.2255 27.6417 53.87 28.2054L54.0482 28.3627C54.6968 28.9219 55.1027 29.7111 55.1803 30.5639C55.2192 30.986 55.1725 31.4115 55.0428 31.815C54.9131 32.2185 54.7031 32.5917 54.4256 32.912L52.3292 35.3858C52.1198 35.615 51.8635 35.7964 51.5777 35.9176C51.2919 36.0388 50.9833 36.0969 50.673 36.0881ZM51.7212 29.5053C51.5645 29.5006 51.4088 29.5311 51.2655 29.5946C51.1222 29.6581 50.9949 29.753 50.8931 29.8721L48.7967 32.3354C48.8861 32.7519 49.12 33.1232 49.457 33.3836L49.6352 33.5304C49.782 33.6847 49.9596 33.8064 50.1564 33.8877C50.3532 33.9689 50.5649 34.0079 50.7778 34.0021L52.8742 31.5703C52.9826 31.4572 53.0643 31.3213 53.1133 31.1726C53.1623 31.0239 53.1773 30.866 53.1573 30.7107C53.1475 30.557 53.1061 30.4069 53.0358 30.2698C52.9655 30.1328 52.8676 30.0116 52.7485 29.914L52.5703 29.7568C52.3418 29.5756 52.0541 29.486 51.7631 29.5053H51.7212Z" fill="#404040"/>
<path d="M50.6732 29.6625C49.7782 29.6297 48.924 29.2805 48.2623 28.6771V28.6771L48.0841 28.5199C47.5096 28.0436 47.081 27.4151 46.8471 26.7065C46.7167 26.3438 46.682 25.9536 46.7462 25.5735C46.8105 25.1934 46.9716 24.8363 47.214 24.5367L49.3105 22.0734C49.5903 21.7597 49.9303 21.5053 50.3102 21.3253C50.6901 21.1452 51.1022 21.0432 51.5222 21.0252C52.379 20.9734 53.2219 21.2593 53.8702 21.8218L54.0484 21.9686C54.6935 22.5305 55.0986 23.3183 55.1805 24.1698C55.2209 24.5936 55.1748 25.0211 55.0451 25.4265C54.9153 25.8319 54.7047 26.2067 54.4258 26.5283L52.3293 28.9916C52.1198 29.2185 51.8626 29.3964 51.5763 29.5124C51.29 29.6283 50.9816 29.6796 50.6732 29.6625ZM49.6249 27.0839C49.77 27.2403 49.9473 27.3635 50.1445 27.4449C50.3418 27.5263 50.5543 27.5641 50.7675 27.5555L52.8639 25.1237C52.9564 25.0144 53.0255 24.8873 53.0669 24.7503C53.1084 24.6133 53.1214 24.4693 53.105 24.327C53.0952 24.1733 53.0539 24.0232 52.9836 23.8861C52.9132 23.7491 52.8154 23.628 52.6962 23.5304L52.518 23.3732C52.2808 23.1742 51.9785 23.0697 51.669 23.0797C51.5247 23.0855 51.3832 23.1211 51.2533 23.1843C51.1234 23.2474 51.008 23.3367 50.9142 23.4465L48.8178 25.9099C48.9061 26.3241 49.1359 26.6947 49.4677 26.9581L49.6249 27.0839Z" fill="#404040"/>
<path d="M38.8282 42.6394H35.6836V44.7359H38.8282V42.6394Z" fill="#404040"/>
<path d="M26.2498 21.6751H24.1533V11.1929C24.1533 10.0809 24.5951 9.01438 25.3814 8.22806C26.1677 7.44174 27.2342 7 28.3462 7H46.1659C47.2779 7 48.3444 7.44174 49.1307 8.22806C49.917 9.01438 50.3588 10.0809 50.3588 11.1929V16.434H48.2623V11.1929C48.2623 10.6369 48.0415 10.1036 47.6483 9.71047C47.2552 9.31731 46.7219 9.09644 46.1659 9.09644H28.3462C27.7902 9.09644 27.2569 9.31731 26.8638 9.71047C26.4706 10.1036 26.2498 10.6369 26.2498 11.1929V21.6751Z" fill="#404040"/>
<path d="M46.1659 47.8805H28.3462V45.7841H46.1659C46.7219 45.7841 47.2552 45.5632 47.6483 45.1701C48.0415 44.7769 48.2623 44.2437 48.2623 43.6877V41.5912H50.3588V43.6877C50.3588 44.7997 49.917 45.8661 49.1307 46.6525C48.3444 47.4388 47.2779 47.8805 46.1659 47.8805Z" fill="#404040"/>
<path d="M27.6122 57L14.7191 44.1174L10.9665 47.8805L18.608 55.522L17.13 57L8 47.8805L14.7191 41.1509L29.0901 55.522L27.6122 57Z" fill="#404040"/>
<path d="M15.4575 47.1392L13.9751 48.6216L15.0202 49.6667L16.5026 48.1843L15.4575 47.1392Z" fill="#404040"/>
</svg>
