<svg width="64" height="64" viewBox="0 0 64 64" fill="none" xmlns="http://www.w3.org/2000/svg">
<path d="M25.75 54.3964C25.6635 54.4064 25.5761 54.4064 25.4896 54.3964C24.6042 54.1673 7 43.8652 7 34.6048V16.8964C7 16.6202 7.10976 16.3552 7.30511 16.1598C7.50046 15.9645 7.7654 15.8548 8.04167 15.8548C12.5208 15.8548 23.5104 11.4277 24.9167 9.43809C25.013 9.30264 25.1403 9.19221 25.288 9.116C25.4357 9.03979 25.5995 9 25.7656 9C25.9318 9 26.0956 9.03979 26.2433 9.116C26.391 9.19221 26.5183 9.30264 26.6146 9.43809C28.0938 11.5214 38.75 15.8548 43.4583 15.8548C43.7346 15.8548 43.9996 15.9645 44.1949 16.1598C44.3903 16.3552 44.5 16.6202 44.5 16.8964V21.0631C44.5 21.3394 44.3903 21.6043 44.1949 21.7996C43.9996 21.995 43.7346 22.1048 43.4583 22.1048C43.1821 22.1048 42.9171 21.995 42.7218 21.7996C42.5264 21.6043 42.4167 21.3394 42.4167 21.0631V17.886C37.5 17.4277 28.875 14.0839 25.75 11.511C22.625 14.1047 13.6354 17.386 9.08333 17.8756V34.6048C9.08333 41.5318 22.7708 50.6881 25.6979 52.1881C26.3854 51.7506 27.8542 50.7193 28.9792 49.9277L29.4479 49.6048C29.5599 49.5248 29.6866 49.4678 29.8207 49.4371C29.9548 49.4064 30.0936 49.4026 30.2292 49.4258C30.3648 49.4491 30.4944 49.4989 30.6106 49.5726C30.7268 49.6462 30.8273 49.7421 30.9063 49.8547C30.9857 49.9673 31.042 50.0946 31.0719 50.2291C31.1018 50.3636 31.1047 50.5026 31.0805 50.6383C31.0563 50.7739 31.0054 50.9034 30.9308 51.0192C30.8562 51.135 30.7593 51.2349 30.6458 51.3131L30.1771 51.636C26.9896 53.8756 26.4063 54.2506 26.0104 54.3548C25.9255 54.3787 25.8381 54.3927 25.75 54.3964V54.3964Z" fill="#404040"/>
<path d="M42.4166 52.3131C39.5323 52.3131 36.7127 51.4578 34.3145 49.8553C31.9163 48.2529 30.0471 45.9753 28.9434 43.3105C27.8396 40.6458 27.5508 37.7135 28.1135 34.8847C28.6762 32.0558 30.0651 29.4573 32.1046 27.4178C34.1441 25.3783 36.7426 23.9893 39.5715 23.4266C42.4004 22.8639 45.3326 23.1527 47.9974 24.2565C50.6621 25.3603 52.9398 27.2295 54.5422 29.6277C56.1446 32.0259 56.9999 34.8454 56.9999 37.7298C56.9999 41.5975 55.4635 45.3068 52.7286 48.0417C49.9937 50.7766 46.2843 52.3131 42.4166 52.3131V52.3131ZM42.4166 25.2298C39.9443 25.2298 37.5276 25.9628 35.472 27.3364C33.4163 28.7099 31.8142 30.6621 30.8681 32.9462C29.922 35.2303 29.6745 37.7436 30.1568 40.1684C30.6391 42.5931 31.8296 44.8204 33.5778 46.5686C35.3259 48.3167 37.5532 49.5072 39.978 49.9896C42.4027 50.4719 44.9161 50.2243 47.2001 49.2782C49.4842 48.3321 51.4365 46.73 52.81 44.6744C54.1835 42.6188 54.9166 40.202 54.9166 37.7298C54.9166 34.4145 53.5996 31.2351 51.2554 28.8909C48.9112 26.5467 45.7318 25.2298 42.4166 25.2298Z" fill="#FA4616"/>
<path d="M39.6875 44.6776L35.0312 40.0214L36.5 38.5526L39.4896 41.5318L47.6771 31.011L49.3229 32.2818L39.6875 44.6776Z" fill="#FA4616"/>
</svg>
