<svg width="64" height="64" viewBox="0 0 64 64" fill="none" xmlns="http://www.w3.org/2000/svg">
<path d="M54.7778 54.5556H9.22222C8.63285 54.5556 8.06762 54.3214 7.65087 53.9047C7.23412 53.4879 7 52.9227 7 52.3333V14.5556C7 13.9662 7.23412 13.401 7.65087 12.9842C8.06762 12.5675 8.63285 12.3333 9.22222 12.3333H15.8889V14.5556H9.22222V52.3333H54.7778V14.5556H48.1111V12.3333H54.7778C55.3672 12.3333 55.9324 12.5675 56.3491 12.9842C56.7659 13.401 57 13.9662 57 14.5556V52.3333C57 52.9227 56.7659 53.4879 56.3491 53.9047C55.9324 54.3214 55.3672 54.5556 54.7778 54.5556Z" fill="#404040"/>
<path d="M55.8889 21.2222H8.11108V23.4444H55.8889V21.2222Z" fill="#404040"/>
<path d="M47.0001 9H44.7778V16.7778H47.0001V9Z" fill="#404040"/>
<path d="M43.6666 12.3333H20.3333V14.5556H43.6666V12.3333Z" fill="#404040"/>
<path d="M19.2222 9H17V16.7778H19.2222V9Z" fill="#404040"/>
<path d="M28.5446 45.2C28.2531 45.1988 27.9737 45.083 27.7668 44.8778L22.5779 39.6889L24.1445 38.1222L28.4446 42.4111L39.7668 27.8889L41.5223 29.2555L29.4223 44.8111C29.3248 44.935 29.2021 45.0368 29.0622 45.1096C28.9224 45.1824 28.7686 45.2245 28.6112 45.2333L28.5446 45.2Z" fill="#FA4616"/>
</svg>
