<svg width="64" height="64" viewBox="0 0 64 64" fill="none" xmlns="http://www.w3.org/2000/svg">
<path d="M25.5758 37.8615C25.3517 37.8645 25.1326 37.7952 24.9511 37.6637C24.7915 37.5467 24.6685 37.3866 24.5966 37.2022C24.5246 37.0178 24.5068 36.8167 24.5451 36.6225L25.8153 29.8759L20.8385 24.6701C20.7118 24.5322 20.6247 24.3627 20.5862 24.1795C20.5477 23.9962 20.5594 23.8061 20.6199 23.6289C20.689 23.4473 20.8075 23.2886 20.962 23.1708C21.1166 23.0531 21.301 22.9809 21.4945 22.9625L28.1683 22.3378L31.0627 15.6327C31.1417 15.4462 31.2735 15.2867 31.4417 15.1739C31.61 15.0611 31.8076 14.9998 32.0102 14.9976C32.2145 14.9978 32.4143 15.0581 32.5847 15.1711C32.755 15.284 32.8883 15.4445 32.968 15.6327L35.8625 22.3378L42.5363 22.9625C42.7297 22.9809 42.9142 23.0531 43.0687 23.1708C43.2233 23.2886 43.3418 23.4473 43.4109 23.6289C43.4714 23.8061 43.483 23.9962 43.4446 24.1795C43.4061 24.3627 43.3189 24.5322 43.1922 24.6701L38.2155 29.8759L39.4753 36.6225C39.5117 36.8151 39.4931 37.0141 39.4215 37.1966C39.3499 37.379 39.2282 37.5375 39.0705 37.6539C38.9128 37.7703 38.7254 37.8398 38.53 37.8544C38.3345 37.869 38.1389 37.8282 37.9656 37.7366L32.0102 34.6131L26.0547 37.7366C25.9088 37.8195 25.7436 37.8626 25.5758 37.8615V37.8615ZM23.8267 24.795L27.6894 28.8243C27.8043 28.9443 27.8889 29.0901 27.936 29.2495C27.9831 29.4089 27.9914 29.5773 27.9601 29.7405L26.9918 34.9463L31.5312 32.5516C31.6806 32.4731 31.8467 32.4322 32.0154 32.4322C32.1841 32.4322 32.3502 32.4731 32.4995 32.5516L37.039 34.9463L36.0707 29.7405C36.0394 29.5773 36.0477 29.4089 36.0948 29.2495C36.1419 29.0901 36.2264 28.9443 36.3414 28.8243L40.1937 24.795L35.0608 24.316C34.8738 24.2995 34.6948 24.2327 34.5427 24.1227C34.3905 24.0127 34.271 23.8637 34.1966 23.6914L32.0102 18.6313L29.8342 23.6914C29.7598 23.8637 29.6402 24.0127 29.4881 24.1227C29.336 24.2327 29.157 24.2995 28.97 24.316L23.8267 24.795Z" fill="#FA4616"/>
<path d="M13.1239 37.57C11.8428 34.8253 11.1816 31.8323 11.1873 28.8034C11.1902 25.6894 11.8916 22.6157 13.2397 19.8086C14.5877 17.0015 16.5482 14.5326 18.9768 12.5835C21.4054 10.6343 24.2402 9.25471 27.2725 8.54618C30.3049 7.83764 33.4575 7.81823 36.4983 8.48937C39.5391 9.1605 42.3907 10.5051 44.8431 12.4242C47.2955 14.3432 49.2863 16.7879 50.6688 19.5781C52.0514 22.3684 52.7905 25.4332 52.8318 28.5469C52.8731 31.6607 52.2156 34.744 50.9076 37.57L49.023 36.6954C50.3448 33.8398 50.9263 30.6974 50.7138 27.5579C50.5013 24.4184 49.5018 21.3829 47.8073 18.7314C46.1129 16.0799 43.7781 13.8978 41.0182 12.3863C38.2584 10.8747 35.1624 10.0824 32.0157 10.0824C28.869 10.0824 25.773 10.8747 23.0132 12.3863C20.2533 13.8978 17.9185 16.0799 16.2241 18.7314C14.5296 21.3829 13.5301 24.4184 13.3176 27.5579C13.1051 30.6974 13.6866 33.8398 15.0083 36.6954L13.1239 37.57Z" fill="#404040"/>
<path d="M15.3518 52.7501H8.06371C7.86659 52.7485 7.67397 52.6909 7.50828 52.5841C7.34259 52.4773 7.21063 52.3256 7.12774 52.1467C7.04485 51.9679 7.01445 51.7692 7.04006 51.5737C7.06567 51.3783 7.14626 51.1941 7.27244 51.0426L11.8848 45.462L7.24119 39.8814C7.11501 39.7299 7.03444 39.5457 7.00883 39.3503C6.98321 39.1548 7.01362 38.9561 7.09651 38.7773C7.17939 38.5984 7.31135 38.4467 7.47704 38.3399C7.64273 38.2331 7.83535 38.1755 8.03248 38.1739H19.4852C19.7614 38.1739 20.0262 38.2836 20.2214 38.4788C20.4167 38.6741 20.5264 38.9389 20.5264 39.215V41.2974H18.4441V40.2562H10.2606L14.04 44.7956C14.1958 44.9827 14.2811 45.2185 14.2811 45.462C14.2811 45.7055 14.1958 45.9413 14.04 46.1284L10.2918 50.6678H15.3518V52.7501Z" fill="#404040"/>
<path d="M55.957 52.7501H48.6689V50.6678H53.7394L49.96 46.1284C49.8042 45.9413 49.7188 45.7055 49.7188 45.462C49.7188 45.2185 49.8042 44.9827 49.96 44.7956L53.7394 40.2562H45.5455V41.2974H43.4631V39.215C43.4631 38.9389 43.5728 38.6741 43.7681 38.4788C43.9633 38.2836 44.2282 38.1739 44.5043 38.1739H55.957C56.155 38.1736 56.3491 38.2297 56.5163 38.3357C56.6835 38.4418 56.817 38.5933 56.9012 38.7726C56.9853 38.9518 57.0167 39.1513 56.9914 39.3477C56.9662 39.5441 56.8855 39.7292 56.7588 39.8814L52.1152 45.462L56.7588 51.0426C56.8855 51.1947 56.9662 51.3799 56.9914 51.5763C57.0167 51.7727 56.9853 51.9722 56.9012 52.1514C56.817 52.3307 56.6835 52.4822 56.5163 52.5883C56.3491 52.6943 56.155 52.7504 55.957 52.7501V52.7501Z" fill="#404040"/>
<path d="M46.5867 56.9148H17.4342C17.1581 56.9148 16.8933 56.805 16.698 56.6098C16.5028 56.4145 16.3931 56.1497 16.3931 55.8736V43.3797C16.3931 43.1035 16.5028 42.8387 16.698 42.6435C16.8933 42.4482 17.1581 42.3385 17.4342 42.3385H46.5867C46.8628 42.3385 47.1277 42.4482 47.3229 42.6435C47.5182 42.8387 47.6279 43.1035 47.6279 43.3797V55.8736C47.6279 56.1497 47.5182 56.4145 47.3229 56.6098C47.1277 56.805 46.8628 56.9148 46.5867 56.9148ZM18.4754 54.8324H45.5455V44.4208H18.4754V54.8324Z" fill="#404040"/>
</svg>
