<svg width="64" height="64" viewBox="0 0 64 64" fill="none" xmlns="http://www.w3.org/2000/svg">
<path d="M29.3409 30.7727C29.1906 30.7721 29.0418 30.7417 28.9033 30.6831C28.7648 30.6246 28.6394 30.5392 28.5341 30.4318L24.75 26.6477L26.3523 25.0341L29.2387 27.9205L37.2841 17.5682L39.0796 18.9659L30.2387 30.3295C30.1389 30.4563 30.0134 30.5603 29.8704 30.6347C29.7273 30.7092 29.5701 30.7524 29.4091 30.7614L29.3409 30.7727Z" fill="#FA4616"/>
<path d="M47.7728 35.4091H45.5001V9.27273H18.2273V35.4091H15.9546V8.13636C15.9546 7.83498 16.0743 7.54594 16.2874 7.33283C16.5005 7.11972 16.7896 7 17.091 7H46.6364C46.9378 7 47.2269 7.11972 47.44 7.33283C47.6531 7.54594 47.7728 7.83498 47.7728 8.13636V35.4091Z" fill="#404040"/>
<path d="M51.1818 57H12.5455C11.3399 57 10.1838 56.5211 9.33133 55.6687C8.47889 54.8162 8 53.6601 8 52.4545V29.7273C8.06276 28.9116 8.31406 28.1217 8.73409 27.4196C9.15411 26.7176 9.73139 26.1227 10.4205 25.6818L10.6705 25.4659C11.6705 24.6023 16.1932 21.0341 16.3523 20.9204L17.7955 22.6477C17.7955 22.6477 13.1136 26.3409 12.1136 27.1932L11.8523 27.4204C10.8523 28.2727 10.2386 28.8409 10.2386 29.6932V52.4204C10.2386 53.0232 10.4781 53.6013 10.9043 54.0275C11.3305 54.4537 11.9086 54.6932 12.5114 54.6932H51.1477C51.7505 54.6932 52.3286 54.4537 52.7548 54.0275C53.181 53.6013 53.4205 53.0232 53.4205 52.4204V29.6932C53.4205 28.7954 52.8182 28.2273 51.8182 27.4204L51.5455 27.1932C50.5796 26.375 45.9432 22.7159 45.8637 22.6477L47.2727 20.8636C47.4659 21.0113 51.9886 24.5795 52.9546 25.4091L53.2159 25.625C53.9017 26.0685 54.4759 26.6642 54.8937 27.3659C55.3116 28.0676 55.5618 28.8562 55.625 29.6704V52.3977C55.6403 53.5955 55.1821 54.751 54.3501 55.6128C53.518 56.4746 52.3794 56.9731 51.1818 57Z" fill="#404040"/>
<path d="M21.9765 40.2852L11.7476 50.5141L13.3546 52.1212L23.5835 41.8923L21.9765 40.2852Z" fill="#404040"/>
<path d="M41.7611 40.2959L40.1541 41.9029L50.383 52.1319L51.9901 50.5248L41.7611 40.2959Z" fill="#404040"/>
<path d="M34.1361 45.6364H29.5907C28.4063 45.6579 27.2294 45.4451 26.1275 45.0102C25.0257 44.5753 24.0207 43.9269 23.1702 43.1023L11.7498 31.7386L13.352 30.1364L24.7157 41.5C25.3544 42.1363 26.1161 42.6357 26.9543 42.9678C27.7924 43.3 28.6895 43.4578 29.5907 43.4318H34.1361C35.0533 43.4557 35.9655 43.2904 36.8159 42.9463C37.6663 42.6022 38.4368 42.0867 39.0793 41.4318L50.3861 30.1364L51.9884 31.7386L40.6248 43.1023C39.7629 43.9305 38.7462 44.5806 37.6328 45.0154C36.5194 45.4503 35.3312 45.6613 34.1361 45.6364V45.6364Z" fill="#404040"/>
</svg>
