<svg width="64" height="64" viewBox="0 0 64 64" fill="none" xmlns="http://www.w3.org/2000/svg">
<path d="M40.7541 57H38.6708V54.9167C38.6732 54.7141 38.7308 54.516 38.8374 54.3438L44.3999 45.9479C44.7112 45.5215 44.8489 44.9929 44.7853 44.4688C44.5874 42.9271 44.2228 40.1042 43.8999 38.4583C43.8208 37.8272 43.59 37.2246 43.2272 36.7022C42.8643 36.1797 42.3803 35.7529 41.8166 35.4583V42.875C41.8158 43.4485 41.6572 44.0106 41.3583 44.5C41.3375 44.5371 41.3131 44.572 41.2853 44.6042L38.4312 48.2709C37.3895 49.7084 35.3062 49.7083 34.5249 49.7083H30.3583C29.5666 49.7083 27.4833 49.7084 26.4208 48.2292L23.5874 44.6042C23.5667 44.5671 23.5422 44.5322 23.5145 44.5C23.2216 44.0085 23.0669 43.4471 23.0666 42.875V35.4583C22.5 35.7493 22.0137 36.1752 21.6504 36.6983C21.2872 37.2214 21.058 37.8258 20.9833 38.4583C20.6603 40.1146 20.2853 42.9375 20.0978 44.4688C20.0337 44.9833 20.1636 45.5033 20.4624 45.9271L26.0353 54.3438C26.1493 54.5132 26.2108 54.7125 26.2124 54.9167V57H24.1291V55.2292L18.7437 47.1042C18.1536 46.2654 17.9007 45.2354 18.0353 44.2188C18.2228 42.6459 18.5978 39.7708 18.9416 38.0521C19.1163 36.7807 19.7047 35.6023 20.6159 34.6986C21.5271 33.7949 22.7105 33.2163 23.9833 33.0521C24.1303 33.0328 24.2798 33.0451 24.4217 33.0882C24.5636 33.1313 24.6947 33.2042 24.8062 33.3021C24.9192 33.3987 25.0102 33.5185 25.0731 33.6532C25.136 33.788 25.1693 33.9346 25.1708 34.0833V42.875C25.1699 43.0495 25.2129 43.2215 25.2958 43.375L28.1187 46.9896C28.577 47.625 29.9312 47.625 30.3791 47.625H34.5458C34.9937 47.625 36.3478 47.625 36.7749 47.0209L39.6291 43.375C39.712 43.2215 39.755 43.0495 39.7541 42.875V34.0833C39.7543 33.9354 39.786 33.7893 39.847 33.6546C39.9081 33.5199 39.9971 33.3997 40.1083 33.3021C40.2209 33.2028 40.3537 33.1291 40.4976 33.0859C40.6414 33.0428 40.7929 33.0312 40.9416 33.0521C42.2144 33.2163 43.3977 33.7949 44.3089 34.6986C45.2201 35.6023 45.8085 36.7807 45.9833 38.0521C46.3166 39.7604 46.6916 42.6459 46.8895 44.2188C47.0152 45.2444 46.7554 46.2802 46.1603 47.125L40.7958 55.2292L40.7541 57Z" fill="#404040"/>
<path d="M26.1707 18.4583H25.1291C22.9103 18.4583 20.9624 17 20.9624 15.3333V11.1667C20.9624 10.8904 21.0721 10.6255 21.2675 10.4301C21.4628 10.2348 21.7278 10.125 22.0041 10.125H26.1707V12.2083H23.0457V15.3333C23.2641 15.6813 23.5739 15.9626 23.9413 16.1463C24.3088 16.33 24.7197 16.4092 25.1291 16.375H26.1707V18.4583Z" fill="#FA4616"/>
<path d="M38.6708 27.8333H36.5875V26.7917C36.5875 26.3438 36.2646 26.1251 35.2958 25.6771C34.5146 25.323 33.4625 24.8333 33.4625 23.6667V22.625C33.4625 20.8125 35.0458 20.0625 36.2021 19.5C37.0666 19.0938 37.6292 18.7917 37.6292 18.4583V9.08333H27.2125V18.4583C27.2125 18.8021 27.775 19.1042 28.6396 19.5C29.7958 20.0521 31.3792 20.8021 31.3792 22.625V23.6667C31.3792 24.8333 30.3375 25.323 29.5458 25.6771C28.5771 26.1251 28.2542 26.3438 28.2542 26.7917V27.8333H26.1708V26.7917C26.1708 24.9375 27.7333 24.2188 28.6708 23.7813C28.885 23.6931 29.0937 23.5922 29.2958 23.4792V22.625C29.2958 22.1979 28.8375 21.9063 27.7437 21.3958C26.65 20.8854 25.1292 20.1458 25.1292 18.4583V8.04167C25.1292 7.7654 25.2389 7.50046 25.4342 7.30511C25.6296 7.10976 25.8946 7 26.1708 7H38.6708C38.9471 7 39.212 7.10976 39.4074 7.30511C39.6027 7.50046 39.7125 7.7654 39.7125 8.04167V18.4583C39.7125 20.1458 38.2021 20.8646 37.0979 21.3958C35.9937 21.9271 35.5458 22.1979 35.5458 22.625V23.5C35.7433 23.6151 35.9487 23.7161 36.1604 23.8021C37.0979 24.2396 38.6708 24.9584 38.6708 26.8125V27.8333Z" fill="#FA4616"/>
<path d="M39.7126 18.4583H38.6709V16.375H39.7126C40.122 16.4092 40.5329 16.33 40.9003 16.1463C41.2677 15.9626 41.5776 15.6813 41.7959 15.3333V12.2083H38.6709V10.125H42.8376C43.1138 10.125 43.3788 10.2348 43.5741 10.4301C43.7695 10.6255 43.8792 10.8904 43.8792 11.1667V15.3333C43.8792 17 41.9313 18.4583 39.7126 18.4583Z" fill="#FA4616"/>
<path d="M40.7542 35.125H24.0876C23.8113 35.125 23.5463 35.0153 23.351 34.82C23.1556 34.6246 23.0459 34.3596 23.0459 34.0833V27.8333C23.0459 27.5571 23.1556 27.2921 23.351 27.0968C23.5463 26.9014 23.8113 26.7917 24.0876 26.7917H40.7542C41.0305 26.7917 41.2955 26.9014 41.4908 27.0968C41.6862 27.2921 41.7959 27.5571 41.7959 27.8333V34.0833C41.7959 34.3596 41.6862 34.6246 41.4908 34.82C41.2955 35.0153 41.0305 35.125 40.7542 35.125ZM25.1292 33.0417H39.7126V28.875H25.1292V33.0417Z" fill="#FA4616"/>
<path d="M32.4207 46.5833C31.8555 46.584 31.2961 46.4698 30.7765 46.2475C30.2569 46.0252 29.788 45.6995 29.3982 45.2903C29.0084 44.881 28.706 44.3968 28.5093 43.867C28.3126 43.3371 28.2257 42.7728 28.254 42.2084V40.5417C28.254 39.4366 28.693 38.3768 29.4744 37.5954C30.2558 36.814 31.3156 36.375 32.4207 36.375C33.5257 36.375 34.5855 36.814 35.3669 37.5954C36.1483 38.3768 36.5873 39.4366 36.5873 40.5417V42.25C36.6098 42.8111 36.5186 43.3708 36.3193 43.8958C36.12 44.4207 35.8166 44.8999 35.4275 45.3047C35.0383 45.7094 34.5713 46.0313 34.0546 46.251C33.5379 46.4708 32.9821 46.5838 32.4207 46.5833ZM32.4207 38.25C32.1286 38.2485 31.8395 38.3085 31.5722 38.426C31.3048 38.5435 31.0651 38.7159 30.8687 38.9319C30.6722 39.148 30.5234 39.403 30.4319 39.6803C30.3403 39.9576 30.3081 40.2511 30.3373 40.5417V42.25C30.3373 42.8026 30.5568 43.3324 30.9475 43.7231C31.3382 44.1138 31.8681 44.3334 32.4207 44.3334C32.9732 44.3334 33.5031 44.1138 33.8938 43.7231C34.2845 43.3324 34.504 42.8026 34.504 42.25V40.5834C34.5395 40.2896 34.512 39.9915 34.4234 39.7091C34.3347 39.4268 34.1869 39.1666 33.9898 38.9458C33.7926 38.725 33.5507 38.5488 33.2802 38.4288C33.0096 38.3088 32.7166 38.2479 32.4207 38.25V38.25Z" fill="#404040"/>
</svg>
