<svg width="64" height="64" viewBox="0 0 64 64" fill="none" xmlns="http://www.w3.org/2000/svg">
<path d="M24.041 32.0046H20.7808V29.8311H24.041C24.5014 29.8722 24.9652 29.815 25.4018 29.6633C25.8383 29.5115 26.2376 29.2686 26.5732 28.9508C26.9427 28.5487 27.2578 28.1466 27.5512 27.7771C28.4424 26.6904 29.3661 25.4841 31.0941 25.4841V27.6576C30.4746 27.6576 30.116 28.0379 29.2575 29.1247C28.9423 29.5268 28.5837 29.9832 28.1707 30.4397C27.6303 30.9751 26.9834 31.391 26.272 31.6606C25.5606 31.9302 24.8006 32.0474 24.041 32.0046V32.0046Z" fill="#FA4616"/>
<path d="M21.8676 47.2192H11V27.6576H21.8676V47.2192ZM13.1735 45.0457H19.694V29.8311H13.1735V45.0457Z" fill="#FA4616"/>
<path d="M17.5204 32.0046H15.3469V35.2649H17.5204V32.0046Z" fill="#FA4616"/>
<path d="M33.9415 31.7111C27.421 25.6362 25.1279 16.0945 25.1279 9.18271V8.35676L25.9213 8.1394C29.5868 7.34519 33.3323 6.98049 37.0822 7.05264V9.22616C33.8025 9.198 30.5275 9.48187 27.3014 10.0739C27.4862 16.4422 29.6814 24.8103 35.4195 30.168L33.9415 31.7111Z" fill="#404040"/>
<path d="M42.516 47.2192H40.3425V50.4795H42.516V47.2192Z" fill="#404040"/>
<path d="M32.735 47.2192H30.5615V50.4795H32.735V47.2192Z" fill="#404040"/>
<path d="M45.7761 57H27.3013V52.077L31.3223 49.3927H34.9086V51.5662H31.9743L29.4748 53.2289V54.8265H43.6026V53.2289L41.1031 51.5662H38.1688V49.3927H41.7551L45.7761 52.077V57Z" fill="#404040"/>
<path d="M28.301 24.5495C27.3561 24.5289 26.432 24.267 25.6168 23.7887C23.1789 22.2383 21.4048 19.8367 20.6394 17.0508C19.4331 12.2908 23.8997 10.9541 25.9754 10.3129L26.6057 12.3995C23.1172 13.4863 22.2587 14.4209 22.7477 16.5292C23.3619 18.7351 24.761 20.6404 26.6818 21.8869C27.0095 22.1039 27.3781 22.2515 27.765 22.3206C28.1519 22.3898 28.5488 22.379 28.9314 22.289L29.5617 24.3647C29.1536 24.4913 28.7283 24.5536 28.301 24.5495V24.5495Z" fill="#404040"/>
<path d="M40.2229 31.7112L38.7449 30.1246C44.4721 24.7669 46.6782 16.3988 46.8521 10.0305C43.6261 9.43846 40.3511 9.15459 37.0713 9.18275V7.00924C40.8212 6.93579 44.5669 7.30051 48.2323 8.09599L49.0256 8.31336V9.18275C49.0365 16.0945 46.7217 25.6362 40.2229 31.7112Z" fill="#404040"/>
<path d="M45.8631 24.5495C45.4394 24.5536 45.0177 24.4912 44.6133 24.3647L45.2436 22.289C45.6244 22.3788 46.0196 22.3894 46.4047 22.3202C46.7898 22.2511 47.1565 22.1036 47.4823 21.8869C49.4093 20.6446 50.8131 18.7381 51.4272 16.5292C51.9598 14.4209 51.0577 13.4537 47.5693 12.3995L48.1996 10.3129C50.3188 10.9541 54.7201 12.2908 53.5356 17.0508C52.7664 19.8348 50.9932 22.2353 48.5582 23.7887C47.739 24.267 46.8115 24.5289 45.8631 24.5495V24.5495Z" fill="#404040"/>
<path d="M41.4293 48.3059H31.6485C29.801 48.3059 28.0839 47.0562 26.6928 46.0455C26.2029 45.6486 25.6664 45.3129 25.0953 45.0457H20.7483V42.8722H25.0953C26.1575 43.0588 27.1428 43.5496 27.9317 44.2849C29.0185 45.1109 30.4748 46.1324 31.6159 46.1324H41.3967C41.9509 45.7629 43.0703 42.0897 43.3202 33.863C43.3184 33.6314 43.2704 33.4025 43.179 33.1898C43.0875 32.977 42.9545 32.7847 42.7877 32.6241C42.6083 32.434 42.3929 32.2814 42.1542 32.1751C41.9154 32.0687 41.658 32.0108 41.3967 32.0046H32.7026V29.8311H41.3967C41.9499 29.8377 42.4962 29.9544 43.0038 30.1746C43.5113 30.3948 43.9699 30.714 44.3526 31.1134C44.7116 31.487 44.9925 31.9282 45.1791 32.4115C45.3657 32.8947 45.4542 33.4104 45.4394 33.9282C45.0916 48.306 42.4291 48.3059 41.4293 48.3059Z" fill="#FA4616"/>
</svg>
