<svg width="64" height="64" viewBox="0 0 64 64" fill="none" xmlns="http://www.w3.org/2000/svg">
<path d="M31.9831 17.1343C31.4006 17.1364 30.8242 17.0172 30.2903 16.7844C29.7564 16.5516 29.2769 16.2102 28.8822 15.7819C28.4874 15.3536 28.1862 14.8479 27.9976 14.2968C27.809 13.7458 27.7372 13.1615 27.7867 12.5812V11.1964C27.7867 10.0834 28.2288 9.01607 29.0158 8.22909C29.8027 7.44212 30.8701 7 31.9831 7C33.096 7 34.1634 7.44212 34.9504 8.22909C35.7373 9.01607 36.1795 10.0834 36.1795 11.1964V12.5707C36.2305 13.1519 36.1598 13.7373 35.9719 14.2896C35.784 14.8419 35.483 15.3489 35.0881 15.7783C34.6933 16.2078 34.2132 16.5502 33.6785 16.7836C33.1439 17.0171 32.5665 17.1365 31.9831 17.1343ZM31.9831 8.74148C31.6803 8.7568 31.3838 8.83393 31.1119 8.96802C30.8399 9.10211 30.5983 9.29036 30.4018 9.52126C30.2053 9.75215 30.0581 10.0208 29.9692 10.3106C29.8803 10.6005 29.8516 10.9055 29.8849 11.2069V12.5812C29.8849 13.1377 30.1059 13.6713 30.4994 14.0648C30.8929 14.4583 31.4266 14.6794 31.9831 14.6794C32.5395 14.6794 33.0732 14.4583 33.4667 14.0648C33.8602 13.6713 34.0813 13.1377 34.0813 12.5812V11.1964C34.113 10.8959 34.0832 10.592 33.9936 10.3033C33.904 10.0147 33.7565 9.74741 33.5602 9.51767C33.3638 9.28793 33.1227 9.10063 32.8516 8.96719C32.5804 8.83374 32.2849 8.75691 31.9831 8.74148V8.74148Z" fill="#404040"/>
<path d="M38.2773 45.4599H36.1791V24.5304C36.1787 24.2853 36.264 24.0477 36.4204 23.859L44.6768 13.8716C45.1566 13.3448 45.4834 12.6971 45.622 11.9982C45.7607 11.2994 45.7059 10.576 45.4637 9.90601L36.3994 19.6731C35.5606 20.6354 34.3779 21.2304 33.1053 21.3306H30.9336C30.3111 21.2875 29.7033 21.1216 29.1451 20.8425C28.5869 20.5634 28.0895 20.1767 27.6814 19.7045L18.3445 10.0004C18.09 10.6545 18.0239 11.3669 18.1537 12.0567C18.2835 12.7465 18.604 13.3862 19.0788 13.9031L27.5346 23.8485C27.6971 24.0385 27.7864 24.2804 27.7863 24.5304V45.4599H25.6881V24.9081L17.5052 15.2879C16.5675 14.2401 16.0343 12.8921 16.0016 11.4863C15.9689 10.0805 16.4388 8.70925 17.3268 7.61898C17.4189 7.502 17.5348 7.40591 17.6668 7.33718C17.7989 7.26844 17.9441 7.22863 18.0927 7.22032C18.2428 7.21352 18.3925 7.239 18.5319 7.29511C18.6713 7.35121 18.797 7.43665 18.9005 7.54554L29.1292 18.2568C29.5669 18.7888 30.1884 19.137 30.8707 19.2324H33.1053C33.7975 19.1346 34.4271 18.7786 34.8678 18.2359L44.8971 7.43009C44.9997 7.3193 45.125 7.23196 45.2644 7.17402C45.4038 7.11608 45.5541 7.08897 45.7049 7.09443C45.8554 7.10127 46.0026 7.14039 46.1365 7.20918C46.2705 7.27796 46.3881 7.37476 46.4813 7.49303C47.3739 8.59978 47.8422 9.98883 47.8018 11.4101C47.7614 12.8314 47.215 14.1916 46.261 15.2459L38.2773 24.8976V45.4599Z" fill="#404040"/>
<path d="M33.053 32.8707H30.9548V45.4599H33.053V32.8707Z" fill="#404040"/>
<path d="M46.6702 57H42.4738C42.1956 57 41.9287 56.8895 41.732 56.6928C41.5352 56.496 41.4247 56.2291 41.4247 55.9509V46.509H22.5409V55.9509C22.5409 56.2291 22.4304 56.496 22.2336 56.6928C22.0369 56.8895 21.7701 57 21.4918 57H17.2954C17.0172 57 16.7504 56.8895 16.5536 56.6928C16.3569 56.496 16.2463 56.2291 16.2463 55.9509C16.2463 55.6727 16.3569 55.4058 16.5536 55.2091C16.7504 55.0123 17.0172 54.9018 17.2954 54.9018H20.4427V45.4599C20.4427 45.1817 20.5533 44.9149 20.75 44.7181C20.9468 44.5214 21.2136 44.4108 21.4918 44.4108H42.4738C42.752 44.4108 43.0189 44.5214 43.2156 44.7181C43.4124 44.9149 43.5229 45.1817 43.5229 45.4599V54.9018H46.6702C46.9484 54.9018 47.2153 55.0123 47.412 55.2091C47.6087 55.4058 47.7193 55.6727 47.7193 55.9509C47.7193 56.2291 47.6087 56.496 47.412 56.6928C47.2153 56.8895 46.9484 57 46.6702 57Z" fill="#FA4616"/>
<path d="M37.2283 54.9018H26.7373C26.4591 54.9018 26.1923 54.7913 25.9955 54.5946C25.7988 54.3978 25.6882 54.1309 25.6882 53.8527V49.6563C25.6882 49.3781 25.7988 49.1112 25.9955 48.9145C26.1923 48.7178 26.4591 48.6072 26.7373 48.6072H37.2283C37.5066 48.6072 37.7734 48.7178 37.9701 48.9145C38.1669 49.1112 38.2774 49.3781 38.2774 49.6563V53.8527C38.2774 54.1309 38.1669 54.3978 37.9701 54.5946C37.7734 54.7913 37.5066 54.9018 37.2283 54.9018ZM27.7864 52.8036H36.1792V50.7054H27.7864V52.8036Z" fill="#FA4616"/>
</svg>
