<svg width="64" height="64" viewBox="0 0 64 64" fill="none" xmlns="http://www.w3.org/2000/svg">
<path d="M25.7906 57L25.2671 55.4081C24.8829 54.2287 24.3818 53.0906 23.7714 52.0107C21.8187 53.0524 19.6576 53.6437 17.4466 53.7415L15 53.8804L16.5599 51.9893C22.7778 44.5107 23.9744 38.2927 24.0385 38.2393L26.1752 38.6133C26.1752 38.8697 25.1069 44.2757 19.9573 51.2308C21.2687 50.8829 22.5267 50.3581 23.6966 49.671L24.5086 49.2436L25.0641 49.9701C25.7469 50.9289 26.3135 51.9654 26.7521 53.0577C27.8476 51.5762 28.7488 49.9605 29.4338 48.25L31.3996 49.0834C30.4474 51.6068 28.9936 53.911 27.1261 55.8568L25.7906 57Z" fill="#404040"/>
<path d="M37.4573 57L36.2393 55.8568C31.6346 51.5299 29.594 41.8184 29.5085 41.4017L31.6453 40.9744C31.6453 41.0598 33.2799 48.7415 36.6239 53.0577C37.07 51.9668 37.64 50.9308 38.3226 49.9701L38.8782 49.2436L39.6795 49.671C40.8527 50.359 42.1144 50.8838 43.4295 51.2308C38.2799 44.2757 37.2543 38.8697 37.2008 38.6133L39.3376 38.2393C39.3376 38.2393 40.5555 44.5 46.7628 51.9893L48.3333 53.8804L45.8761 53.7415C43.6685 53.6436 41.5109 53.0522 39.562 52.0107C38.9435 53.0879 38.4386 54.2265 38.0556 55.4081L37.4573 57Z" fill="#404040"/>
<path d="M37.2543 32.0855C37.1032 32.0848 36.9539 32.052 36.8163 31.9893L31.6347 29.6603L26.4424 31.9893C26.2698 32.0659 26.08 32.0953 25.8923 32.0747C25.7046 32.0541 25.5258 31.9841 25.374 31.8718C25.221 31.7571 25.1017 31.6033 25.0284 31.4267C24.9551 31.25 24.9305 31.0569 24.9573 30.8676L25.7693 25.1945L21.7308 20.4829C21.6062 20.3367 21.5233 20.1596 21.4909 19.9702C21.4585 19.7808 21.4778 19.5862 21.5466 19.4068C21.6155 19.2275 21.7315 19.07 21.8824 18.951C22.0333 18.8321 22.2134 18.7559 22.4039 18.7308L27.9915 18.0257L30.6731 12.3953C30.7594 12.2117 30.8961 12.0565 31.0674 11.9478C31.2386 11.8391 31.4372 11.7814 31.64 11.7814C31.8428 11.7814 32.0415 11.8391 32.2127 11.9478C32.3839 12.0565 32.5206 12.2117 32.6069 12.3953L35.2885 18.0257L40.8868 18.7521C41.0782 18.7757 41.2596 18.8506 41.4119 18.9689C41.5642 19.0872 41.6816 19.2445 41.7517 19.4241C41.8218 19.6037 41.8419 19.799 41.8101 19.9891C41.7782 20.1793 41.6954 20.3574 41.5706 20.5043L37.5107 25.1624L38.312 30.8355C38.3336 30.9878 38.322 31.143 38.278 31.2904C38.2341 31.4378 38.1588 31.574 38.0573 31.6896C37.9559 31.8053 37.8307 31.8977 37.6903 31.9605C37.5498 32.0232 37.3975 32.055 37.2436 32.0534L37.2543 32.0855ZM31.6347 27.4167C31.7858 27.4174 31.9351 27.4502 32.0727 27.5128L35.9295 29.2436L35.3206 24.9701C35.2993 24.82 35.3102 24.6672 35.3526 24.5217C35.395 24.3761 35.4678 24.2413 35.5663 24.1261L38.6326 20.5577L34.4338 20.0235C34.2559 20.0017 34.0863 19.9355 33.9406 19.831C33.795 19.7264 33.678 19.5869 33.6005 19.4252L31.6347 15.2906L29.6582 19.4252C29.5806 19.5869 29.4636 19.7264 29.318 19.831C29.1724 19.9355 29.0028 20.0017 28.8248 20.0235L24.6261 20.5577L27.6924 24.1261C27.7908 24.2413 27.8637 24.3761 27.906 24.5217C27.9484 24.6672 27.9593 24.82 27.9381 24.9701L27.3398 29.2436L31.1966 27.5128C31.3342 27.4502 31.4835 27.4174 31.6347 27.4167V27.4167Z" fill="#FA4616"/>
<path d="M31.624 39.0513C28.4545 39.0513 25.3561 38.1114 22.7207 36.3505C20.0853 34.5896 18.0312 32.0867 16.8183 29.1584C15.6053 26.2301 15.288 23.0079 15.9063 19.8992C16.5247 16.7906 18.051 13.935 20.2922 11.6938C22.5334 9.45257 25.3889 7.92629 28.4976 7.30794C31.6063 6.68959 34.8285 7.00694 37.7568 8.21988C40.6851 9.43282 43.1879 11.4869 44.9489 14.1223C46.7098 16.7577 47.6497 19.8561 47.6497 23.0257C47.6497 27.2759 45.9613 31.3521 42.9559 34.3575C39.9505 37.3629 35.8743 39.0513 31.624 39.0513ZM31.624 9.13678C28.8771 9.13678 26.1918 9.95137 23.9078 11.4775C21.6238 13.0036 19.8436 15.1727 18.7924 17.7106C17.7412 20.2485 17.4661 23.0411 18.002 25.7353C18.5379 28.4295 19.8607 30.9042 21.8031 32.8466C23.7455 34.789 26.2203 36.1118 28.9144 36.6477C31.6086 37.1836 34.4012 36.9086 36.9391 35.8573C39.4769 34.8061 41.6461 33.0259 43.1722 30.7419C44.6984 28.4579 45.5129 25.7726 45.5129 23.0257C45.5129 19.3421 44.0497 15.8094 41.445 13.2047C38.8403 10.6001 35.3076 9.13678 31.624 9.13678Z" fill="#404040"/>
</svg>
