<svg width="64" height="64" viewBox="0 0 64 64" fill="none" xmlns="http://www.w3.org/2000/svg">
<path d="M32 51.0125L7 26.0125V23.7751L16.4375 13H47.5625L57 23.7751V26.0125L32 51.0125ZM9.5 24.975L32 47.475L54.5 24.975V24.675L46.4375 15.4625H17.5625L9.5 24.675V24.975Z" fill="#404040"/>
<path d="M55.75 23H8.25V25.5H55.75V23Z" fill="#404040"/>
<path d="M33.1376 49.7625L30.8625 48.7375L41.8625 24.275L37.1251 14.8L39.3625 13.6876L44.6375 24.2125L33.1376 49.7625Z" fill="#404040"/>
<path d="M30.8626 49.7625L19.3625 24.2125L24.6251 13.6876L26.8625 14.8L22.1376 24.275L33.1376 48.7375L30.8626 49.7625Z" fill="#404040"/>
</svg>
