<svg width="64" height="64" viewBox="0 0 64 64" fill="none" xmlns="http://www.w3.org/2000/svg">
<path d="M26.2175 47.2174C25.4973 47.2416 24.7797 47.1176 24.1094 46.8531C23.4391 46.5885 22.8302 46.1891 22.3206 45.6795C21.8111 45.1699 21.4116 44.5611 21.1471 43.8907C20.8825 43.2204 20.7585 42.5029 20.7828 41.7826V39.6087C20.7828 38.1673 21.3553 36.7849 22.3746 35.7657C23.3938 34.7465 24.7761 34.1739 26.2175 34.1739C27.6589 34.1739 29.0413 34.7465 30.0605 35.7657C31.0797 36.7849 31.6523 38.1673 31.6523 39.6087V41.7826C31.6782 42.5033 31.5553 43.2215 31.2913 43.8926C31.0273 44.5637 30.6279 45.1732 30.118 45.6831C29.6081 46.193 28.9986 46.5924 28.3275 46.8564C27.6564 47.1203 26.9382 47.2432 26.2175 47.2174ZM26.2175 36.3478C25.7827 36.3226 25.3474 36.3896 24.9404 36.5445C24.5333 36.6995 24.1636 36.9388 23.8556 37.2468C23.5476 37.5548 23.3083 37.9244 23.1534 38.3315C22.9984 38.7386 22.9314 39.1739 22.9567 39.6087V41.7826C22.9567 42.6475 23.3002 43.4769 23.9118 44.0884C24.5233 44.6999 25.3527 45.0435 26.2175 45.0435C27.0824 45.0435 27.9118 44.6999 28.5233 44.0884C29.1348 43.4769 29.4784 42.6475 29.4784 41.7826V39.6087C29.5037 39.1739 29.4366 38.7386 29.2817 38.3315C29.1268 37.9244 28.8874 37.5548 28.5795 37.2468C28.2715 36.9388 27.9018 36.6995 27.4947 36.5445C27.0876 36.3896 26.6524 36.3226 26.2175 36.3478V36.3478Z" fill="#404040"/>
<path d="M36.0001 57C35.7118 57 35.4353 56.8855 35.2315 56.6816C35.0276 56.4778 34.9131 56.2013 34.9131 55.9131V51.5652C34.9131 49.087 29.6414 47.2174 26.2175 47.2174C22.7936 47.2174 17.5218 49.087 17.5218 51.5652V55.9131C17.5218 56.2013 17.4073 56.4778 17.2035 56.6816C16.9996 56.8855 16.7231 57 16.4349 57C16.1466 57 15.8701 56.8855 15.6663 56.6816C15.4624 56.4778 15.3479 56.2013 15.3479 55.9131V51.5652C15.3479 47.0109 22.5544 45.0435 26.2175 45.0435C29.8805 45.0435 37.087 47.0109 37.087 51.5652V55.9131C37.087 56.2013 36.9725 56.4778 36.7687 56.6816C36.5648 56.8855 36.2884 57 36.0001 57Z" fill="#404040"/>
<path d="M39.2826 47.3152C39.0352 47.3126 38.7896 47.2723 38.5543 47.1956C38.1263 47.0486 37.7549 46.7716 37.4919 46.4033C37.2288 46.0351 37.0873 45.5939 37.087 45.1413V39.6087H34.913C34.6248 39.6087 34.3483 39.4942 34.1444 39.2903C33.9406 39.0865 33.8261 38.81 33.8261 38.5217C33.8261 38.2335 33.9406 37.957 34.1444 37.7531C34.3483 37.5493 34.6248 37.4348 34.913 37.4348H38.1739C38.4622 37.4348 38.7387 37.5493 38.9425 37.7531C39.1464 37.957 39.2609 38.2335 39.2609 38.5217V45.1413L44.9239 37.8587C45.0252 37.7272 45.1552 37.6205 45.304 37.5471C45.4529 37.4736 45.6166 37.4352 45.7826 37.4348H49.0435C49.62 37.4348 50.173 37.2057 50.5807 36.7981C50.9883 36.3904 51.2174 35.8374 51.2174 35.2609V11.3478C51.2174 10.7713 50.9883 10.2183 50.5807 9.81064C50.173 9.40295 49.62 9.17391 49.0435 9.17391H15.3478C14.7713 9.17391 14.2183 9.40295 13.8106 9.81064C13.4029 10.2183 13.1739 10.7713 13.1739 11.3478V35.2609C13.1739 35.8374 13.4029 36.3904 13.8106 36.7981C14.2183 37.2057 14.7713 37.4348 15.3478 37.4348H17.5217C17.81 37.4348 18.0865 37.5493 18.2903 37.7531C18.4942 37.957 18.6087 38.2335 18.6087 38.5217C18.6087 38.81 18.4942 39.0865 18.2903 39.2903C18.0865 39.4942 17.81 39.6087 17.5217 39.6087H15.3478C14.1947 39.6087 13.0888 39.1506 12.2734 38.3352C11.4581 37.5199 11 36.414 11 35.2609V11.3478C11 10.1947 11.4581 9.08882 12.2734 8.27345C13.0888 7.45807 14.1947 7 15.3478 7H49.0435C50.1966 7 51.3025 7.45807 52.1178 8.27345C52.9332 9.08882 53.3913 10.1947 53.3913 11.3478V35.2609C53.3913 36.414 52.9332 37.5199 52.1178 38.3352C51.3025 39.1506 50.1966 39.6087 49.0435 39.6087H46.3152L40.9782 46.4674C40.778 46.7276 40.5214 46.939 40.2277 47.0859C39.934 47.2327 39.6109 47.3111 39.2826 47.3152Z" fill="#404040"/>
<path d="M29.0654 29.9674C28.9224 29.9682 28.7806 29.9408 28.6481 29.8867C28.5157 29.8326 28.3952 29.7529 28.2937 29.6522L23.5872 24.9456L25.1198 23.4022L28.9567 27.25L39.1959 14.0869L40.9132 15.4239L29.9133 29.5543C29.8191 29.6742 29.7007 29.7729 29.5659 29.8441C29.4311 29.9153 29.2828 29.9573 29.1306 29.9674H29.0654Z" fill="#FA4616"/>
</svg>
