<svg width="64" height="64" viewBox="0 0 64 64" fill="none" xmlns="http://www.w3.org/2000/svg">
<path d="M48.4545 57H15.1247C14.296 57 13.5012 56.6708 12.9152 56.0848C12.3292 55.4988 12 54.704 12 53.8753V15.3377C12 14.509 12.3292 13.7142 12.9152 13.1282C13.5012 12.5422 14.296 12.213 15.1247 12.213H19.2909V14.2961H15.1247C14.8484 14.2961 14.5835 14.4058 14.3882 14.6012C14.1929 14.7965 14.0831 15.0614 14.0831 15.3377V53.8753C14.0831 54.1516 14.1929 54.4165 14.3882 54.6118C14.5835 54.8071 14.8484 54.9169 15.1247 54.9169H48.4545C48.7308 54.9169 48.9957 54.8071 49.191 54.6118C49.3864 54.4165 49.4961 54.1516 49.4961 53.8753V15.3377C49.4961 15.0614 49.3864 14.7965 49.191 14.6012C48.9957 14.4058 48.7308 14.2961 48.4545 14.2961H44.2883V12.213H48.4545C49.2833 12.213 50.078 12.5422 50.664 13.1282C51.25 13.7142 51.5792 14.509 51.5792 15.3377V53.8753C51.5792 54.704 51.25 55.4988 50.664 56.0848C50.078 56.6708 49.2833 57 48.4545 57Z" fill="#404040"/>
<path d="M46.3714 52.8338H17.2078C16.9316 52.8338 16.6667 52.724 16.4713 52.5287C16.276 52.3334 16.1663 52.0685 16.1663 51.7922V17.4208C16.1663 17.1446 16.276 16.8796 16.4713 16.6843C16.6667 16.489 16.9316 16.3792 17.2078 16.3792H19.2909V18.4624H18.2494V50.7507H45.3299V18.4624H44.2883V16.3792H46.3714C46.6477 16.3792 46.9126 16.489 47.108 16.6843C47.3033 16.8796 47.413 17.1446 47.413 17.4208V51.7922C47.413 52.0685 47.3033 52.3334 47.108 52.5287C46.9126 52.724 46.6477 52.8338 46.3714 52.8338Z" fill="#404040"/>
<path d="M43.2468 19.5039H20.3325V15.3377C20.3325 14.2327 20.7715 13.173 21.5528 12.3917C22.3341 11.6104 23.3938 11.1714 24.4988 11.1714H26.686C26.9251 9.99418 27.5638 8.93577 28.4939 8.17554C29.424 7.4153 30.5884 7 31.7897 7C32.9909 7 34.1553 7.4153 35.0854 8.17554C36.0156 8.93577 36.6543 9.99418 36.8933 11.1714H39.0806C40.1855 11.1714 41.2452 11.6104 42.0265 12.3917C42.8079 13.173 43.2468 14.2327 43.2468 15.3377V19.5039ZM22.4156 17.4208H41.1637V15.3377C41.1637 14.7852 40.9442 14.2554 40.5536 13.8647C40.1629 13.474 39.633 13.2546 39.0806 13.2546H34.9143V12.213C34.9143 11.3843 34.5851 10.5895 33.9992 10.0035C33.4132 9.41752 32.6184 9.08833 31.7897 9.08833C30.9609 9.08833 30.1662 9.41752 29.5802 10.0035C28.9942 10.5895 28.665 11.3843 28.665 12.213V13.2546H24.4988C23.9463 13.2546 23.4164 13.474 23.0258 13.8647C22.6351 14.2554 22.4156 14.7852 22.4156 15.3377V17.4208Z" fill="#404040"/>
<path d="M32.8312 11.1714H30.748V13.2546H32.8312V11.1714Z" fill="#404040"/>
<path d="M29.2482 39.2935C29.1104 39.2929 28.974 39.265 28.8471 39.2114C28.7202 39.1577 28.6051 39.0794 28.5086 38.981L24.6965 35.1689L26.1651 33.6899L29.144 36.6792L37.3306 26.149L38.9763 27.4301L30.071 38.8873C29.9796 39.0034 29.8645 39.0988 29.7334 39.167C29.6023 39.2353 29.4582 39.2748 29.3107 39.2831L29.2482 39.2935Z" fill="#FA4616"/>
</svg>
