<svg width="64" height="64" viewBox="0 0 64 64" fill="none" xmlns="http://www.w3.org/2000/svg">
<path d="M17.8643 47.8288C17.5848 47.8249 17.317 47.7155 17.1147 47.5226L13.5989 43.9962L15.0876 42.5075L17.7693 45.1787L25.2444 35.5709L26.9126 36.8589L18.6984 47.417C18.6068 47.5367 18.4906 47.6354 18.3577 47.7064C18.2247 47.7774 18.0781 47.8192 17.9277 47.8288H17.8643Z" fill="#FA4616"/>
<path d="M39.92 40.1003C36.7526 40.1003 32.9728 38.3899 29.7948 35.2119C24.748 30.1651 24.5158 22.5422 27.6832 19.3747L30.5128 16.5452C32.3499 14.7081 35.2956 14.2752 38.6003 15.3732L37.9351 17.3793C35.4223 16.5452 33.2579 16.788 32.012 18.0339L29.1824 20.8634C26.7541 23.3024 27.2292 29.7111 31.2941 33.7232C35.3589 37.7353 40.7435 39.1923 43.098 36.8378L46.9834 32.9525C48.1976 31.7383 48.4615 29.6267 47.6802 27.1772L49.6968 26.5437C50.7526 29.7639 50.2669 32.6463 48.4721 34.4517L44.5867 38.3371C43.9687 38.9315 43.2364 39.3943 42.4342 39.6974C41.6321 40.0005 40.7767 40.1375 39.92 40.1003V40.1003Z" fill="#404040"/>
<path d="M43.8583 36.1621C42.3114 36.1335 40.7858 35.7961 39.3711 35.1697C38.5523 34.815 37.7617 34.3986 37.0061 33.9238L38.1358 32.1395C38.79 32.5507 39.4789 32.904 40.1946 33.1953C43.0559 34.4095 45.6109 34.2511 47.0257 32.8786L48.5144 34.3778C47.8973 34.9717 47.1671 35.4357 46.3673 35.7422C45.5675 36.0487 44.7143 36.1915 43.8583 36.1621V36.1621Z" fill="#404040"/>
<path d="M33.7225 31.3265C28.6969 26.3008 27.3243 19.8076 30.5551 16.5452L32.0544 18.0339C29.6999 20.3883 31.1252 25.794 35.169 29.8378L33.7225 31.3265Z" fill="#404040"/>
<path d="M52.294 21.3808C51.8391 21.3784 51.3858 21.3253 50.9426 21.2224C49.2353 20.7589 47.6787 19.8576 46.4268 18.6076C45.175 17.3576 44.2713 15.8023 43.8053 14.0957C43.5829 13.3582 43.5554 12.5756 43.7256 11.8243C43.8959 11.073 44.258 10.3787 44.7767 9.80911L45.4207 9.16507C45.9886 8.64368 46.683 8.27976 47.4348 8.10938C48.1867 7.939 48.9701 7.96808 49.7073 8.19373C51.4268 8.62436 52.9895 9.53202 54.2156 10.8121C57.1508 13.7367 57.8687 17.601 55.8732 19.607L55.2292 20.2511C54.8405 20.6264 54.3805 20.9197 53.8763 21.1138C53.3721 21.3079 52.834 21.3987 52.294 21.3808V21.3808ZM48.3664 10.1575C47.8364 10.1295 47.3166 10.3116 46.92 10.6643L46.2759 11.3084C46.0289 11.6377 45.8637 12.021 45.794 12.4267C45.7242 12.8323 45.7519 13.2488 45.8747 13.6417C46.259 14.9555 46.9683 16.1513 47.9372 17.1183C48.9061 18.0853 50.1031 18.7924 51.4177 19.1741C51.8095 19.2972 52.2251 19.324 52.6295 19.2524C53.0338 19.1807 53.4149 19.0126 53.7405 18.7624L54.3846 18.1289C55.3665 17.1364 54.9336 14.5075 52.7375 12.3114C51.7825 11.3263 50.5784 10.6185 49.2533 10.2631C48.9624 10.1956 48.665 10.1602 48.3664 10.1575V10.1575Z" fill="#404040"/>
<path d="M41.2923 28.9932C39.9233 28.9403 38.6285 28.3572 37.6815 27.3672C35.8021 25.4879 35.5065 22.8483 37.0058 21.3491C37.1958 21.1485 44.1958 14.159 44.3964 13.9584L45.8851 15.4471L38.4944 22.8378C37.8715 23.4713 38.1882 24.8861 39.1701 25.868C40.152 26.8499 41.5774 27.1772 42.2003 26.5437L49.591 19.153L51.0902 20.6417L43.6996 28.0324C43.3813 28.3431 43.0048 28.5879 42.5917 28.7528C42.1787 28.9177 41.7371 28.9993 41.2923 28.9932Z" fill="#404040"/>
<path d="M20.7255 55.399C17.0853 55.399 13.5941 53.9529 11.0201 51.3788C8.44607 48.8048 7 45.3137 7 41.6734C7 38.0332 8.44607 34.5421 11.0201 31.968C13.5941 29.394 17.0853 27.9479 20.7255 27.9479C22.1579 27.9455 23.5822 28.1627 24.9487 28.592L24.3047 30.6086C23.1571 30.2458 21.9608 30.0606 20.7572 30.0595C18.4602 30.0595 16.2147 30.7407 14.3048 32.0168C12.3949 33.293 10.9064 35.1068 10.0273 37.229C9.14832 39.3512 8.91831 41.6863 9.36643 43.9392C9.81456 46.1921 10.9207 48.2615 12.5449 49.8857C14.1691 51.5099 16.2385 52.616 18.4914 53.0642C20.7443 53.5123 23.0795 53.2823 25.2016 52.4033C27.3238 51.5243 29.1376 50.0357 30.4138 48.1258C31.6899 46.2159 32.3711 43.9705 32.3711 41.6734C32.3731 41.1297 32.3378 40.5864 32.2655 40.0475L34.3771 39.7519C34.4617 40.3889 34.504 41.0308 34.5038 41.6734C34.5038 43.4804 34.1471 45.2695 33.454 46.9382C32.7609 48.6069 31.7452 50.1223 30.465 51.3976C29.1849 52.6728 27.6656 53.6827 25.9942 54.3694C24.3229 55.056 22.5324 55.4059 20.7255 55.399Z" fill="#FA4616"/>
</svg>
