<svg width="64" height="64" viewBox="0 0 64 64" fill="none" xmlns="http://www.w3.org/2000/svg">
<path d="M48.4853 51.411H8.03713C7.76207 51.411 7.49827 51.3017 7.30377 51.1072C7.10927 50.9127 7 50.6489 7 50.3739V13.0371C7 12.7621 7.10927 12.4983 7.30377 12.3038C7.49827 12.1093 7.76207 12 8.03713 12H48.4853C48.6215 12 48.7563 12.0268 48.8822 12.0789C49.008 12.1311 49.1223 12.2074 49.2186 12.3038C49.3149 12.4001 49.3913 12.5144 49.4434 12.6402C49.4956 12.7661 49.5224 12.9009 49.5224 13.0371V26.5198H47.4481V14.0743H9.07426V49.3367H47.4481V38.9654H49.5224V50.3739C49.5224 50.5101 49.4956 50.6449 49.4434 50.7708C49.3913 50.8966 49.3149 51.0109 49.2186 51.1072C49.1223 51.2035 49.008 51.2799 48.8822 51.3321C48.7563 51.3842 48.6215 51.411 48.4853 51.411V51.411Z" fill="#404040"/>
<path d="M48.4852 18.2228H8.03711V20.2971H48.4852V18.2228Z" fill="#404040"/>
<path d="M13.2227 15.1114H11.1484V17.1857H13.2227V15.1114Z" fill="#404040"/>
<path d="M16.334 15.1114H14.2598V17.1857H16.334V15.1114Z" fill="#404040"/>
<path d="M24.6311 36.8912H13.2227C12.9476 36.8912 12.6838 36.7819 12.4893 36.5874C12.2948 36.3929 12.1855 36.1291 12.1855 35.854V23.4084C12.1855 23.1334 12.2948 22.8696 12.4893 22.6751C12.6838 22.4806 12.9476 22.3713 13.2227 22.3713H24.6311C24.9062 22.3713 25.17 22.4806 25.3645 22.6751C25.559 22.8696 25.6683 23.1334 25.6683 23.4084V35.854C25.6683 36.1291 25.559 36.3929 25.3645 36.5874C25.17 36.7819 24.9062 36.8912 24.6311 36.8912ZM14.2598 34.8169H23.594V24.4456H14.2598V34.8169Z" fill="#404040"/>
<path d="M25.6683 40.0026H12.1855V42.0768H25.6683V40.0026Z" fill="#404040"/>
<path d="M25.6683 44.1511H12.1855V46.2253H25.6683V44.1511Z" fill="#404040"/>
<path d="M40.1882 44.1511H28.7798V46.2253H40.1882V44.1511Z" fill="#404040"/>
<path d="M40.1882 40.0026H28.7798V42.0768H40.1882V40.0026Z" fill="#404040"/>
<path d="M40.1882 23.4085H28.7798V25.4827H40.1882V23.4085Z" fill="#404040"/>
<path d="M36.0397 27.557H28.7798V29.6312H36.0397V27.557Z" fill="#404040"/>
<path d="M46.4939 36.4556C46.2218 36.4544 45.9611 36.3464 45.7679 36.1548L41.6194 32.0063L43.0817 30.5335L46.4006 33.8524L55.3614 22.3402L57.0001 23.6055L47.3132 36.0511C47.2232 36.1686 47.1091 36.2655 46.9785 36.3353C46.8479 36.4051 46.7039 36.4461 46.5561 36.4556H46.4939Z" fill="#FA4616"/>
</svg>
