<svg width="64" height="64" viewBox="0 0 64 64" fill="none" xmlns="http://www.w3.org/2000/svg">
<path d="M41.0833 46.5833H22.3333C22.0571 46.5833 21.7921 46.4736 21.5968 46.2782C21.4014 46.0829 21.2917 45.8179 21.2917 45.5417V43.4583C21.2902 42.661 21.5936 41.8933 22.1397 41.3124C22.6858 40.7314 23.4333 40.3812 24.2292 40.3333C25.7813 40.0417 27.5417 39.4583 27.5417 38.25V36.1667C27.5417 34.4271 26.3021 33.4896 24.2604 32.1354C22.3854 30.9063 20.25 29.5 20.25 26.7917V8.04167C20.25 7.7654 20.3598 7.50046 20.5551 7.30511C20.7505 7.10976 21.0154 7 21.2917 7H42.125C42.4013 7 42.6662 7.10976 42.8616 7.30511C43.0569 7.50046 43.1667 7.7654 43.1667 8.04167V26.7917C43.1667 29.5 41.0833 30.9583 39.1667 32.1354C37.0833 33.4896 35.875 34.4271 35.875 36.1667V38.25C35.875 39.4792 37.6459 40.0625 39.125 40.3333C41.0313 40.6979 42.125 41.8542 42.125 43.4583V45.5417C42.125 45.8179 42.0153 46.0829 41.8199 46.2782C41.6246 46.4736 41.3596 46.5833 41.0833 46.5833ZM23.375 44.5H40.0417V43.4583C40.0417 43.25 40.0417 42.6354 38.8125 42.4167C34.6458 41.6458 33.7917 39.7396 33.7917 38.25V36.1667C33.7917 33.1875 36.0417 31.7084 38.0209 30.3959C40 29.0834 41.0833 28.3125 41.0833 26.7917V9.08333H22.3333V26.7917C22.3333 28.2708 23.5 29.1459 25.4063 30.3959C27.3125 31.6459 29.625 33.1875 29.625 36.1667V38.25C29.625 39.7187 28.7708 41.625 24.6771 42.4167C23.375 42.6667 23.375 43.2812 23.375 43.4583V44.5Z" fill="#404040"/>
<path d="M20.25 25.75H19.0313C18.2027 25.7493 17.4084 25.4195 16.8229 24.8333L15.5313 23.5417C15.046 23.058 14.661 22.4833 14.3983 21.8505C14.1355 21.2177 14.0001 20.5393 14 19.8542V11.1667C14 10.8904 14.1098 10.6255 14.3051 10.4301C14.5005 10.2348 14.7654 10.125 15.0417 10.125H21.2917V12.2083H16.0833V19.8542C16.0841 20.6827 16.4138 21.477 17 22.0625L18.2917 23.3646C18.4913 23.555 18.7555 23.6628 19.0313 23.6667H20.25V25.75Z" fill="#404040"/>
<path d="M44.3854 25.75H43.1667V23.6667H44.3854C44.5225 23.6675 44.6584 23.6412 44.7853 23.5894C44.9123 23.5375 45.0277 23.4611 45.125 23.3646L46.4167 22.0625C47.0029 21.477 47.3326 20.6827 47.3333 19.8542V12.2083H42.125V10.125H48.375C48.6513 10.125 48.9162 10.2348 49.1116 10.4301C49.3069 10.6255 49.4167 10.8904 49.4167 11.1667V19.8542C49.4179 20.5386 49.2842 21.2166 49.0232 21.8493C48.7623 22.482 48.3792 23.0571 47.8958 23.5417L46.6042 24.8333C46.313 25.1248 45.9671 25.3559 45.5863 25.5132C45.2055 25.6706 44.7974 25.751 44.3854 25.75V25.75Z" fill="#404040"/>
<path d="M44.2084 57H19.2084C18.9321 57 18.6672 56.8902 18.4719 56.6949C18.2765 56.4995 18.1667 56.2346 18.1667 55.9583V45.5417C18.1667 45.2654 18.2765 45.0005 18.4719 44.8051C18.6672 44.6098 18.9321 44.5 19.2084 44.5H44.2084C44.4847 44.5 44.7497 44.6098 44.945 44.8051C45.1404 45.0005 45.2501 45.2654 45.2501 45.5417V55.9583C45.2501 56.2346 45.1404 56.4995 44.945 56.6949C44.7497 56.8902 44.4847 57 44.2084 57ZM20.2501 54.9167H43.1667V46.5833H20.2501V54.9167Z" fill="#404040"/>
</svg>
