<svg width="64" height="64" viewBox="0 0 64 64" fill="none" xmlns="http://www.w3.org/2000/svg">
<path d="M42.0833 50.75H40V46.5833H33.75V44.5H40C40.5525 44.5 41.0824 44.7195 41.4731 45.1102C41.8638 45.5009 42.0833 46.0308 42.0833 46.5833V50.75Z" fill="#404040"/>
<path d="M23.3333 50.75H21.25V46.5833C21.25 46.0308 21.4695 45.5009 21.8602 45.1102C22.2509 44.7195 22.7808 44.5 23.3333 44.5H31.6667V46.5833H23.3333V50.75Z" fill="#404040"/>
<path d="M44.1667 57H19.1667V51.7917C19.1667 51.2391 19.3862 50.7093 19.7769 50.3186C20.1676 49.9279 20.6975 49.7083 21.2501 49.7083H31.6667V51.7917H21.2501V54.9167H42.0834V51.7917H33.7501V49.7083H42.0834C42.6359 49.7083 43.1659 49.9279 43.5566 50.3186C43.9473 50.7093 44.1667 51.2391 44.1667 51.7917V57Z" fill="#404040"/>
<path d="M28.5416 38.25H26.4583V45.5417H28.5416V38.25Z" fill="#404040"/>
<path d="M36.8751 38.25H34.7917V45.5417H36.8751V38.25Z" fill="#404040"/>
<path d="M31.6667 40.3333C28.3703 40.3333 25.148 39.3559 22.4072 37.5245C19.6663 35.6932 17.5301 33.0901 16.2687 30.0447C15.0072 26.9993 14.6772 23.6482 15.3203 20.4151C15.9633 17.1821 17.5507 14.2124 19.8816 11.8815C22.2124 9.55067 25.1822 7.96333 28.4152 7.32024C31.6482 6.67716 34.9993 7.00724 38.0447 8.26871C41.0902 9.53017 43.6931 11.6664 45.5245 14.4072C47.3559 17.148 48.3333 20.3703 48.3333 23.6667C48.3333 28.0869 46.5774 32.3262 43.4518 35.4518C40.3262 38.5774 36.087 40.3333 31.6667 40.3333ZM31.6667 9.08333C28.7824 9.08333 25.9628 9.93864 23.5646 11.5411C21.1664 13.1435 19.2972 15.4211 18.1934 18.0859C17.0897 20.7506 16.8008 23.6828 17.3635 26.5117C17.9262 29.3406 19.3152 31.9391 21.3547 33.9786C23.3942 36.0181 25.9927 37.4071 28.8216 37.9698C31.6505 38.5325 34.5827 38.2437 37.2475 37.1399C39.9122 36.0361 42.1898 34.1669 43.7923 31.7687C45.3947 29.3705 46.25 26.551 46.25 23.6667C46.25 19.7989 44.7136 16.0896 41.9786 13.3547C39.2437 10.6198 35.5344 9.08333 31.6667 9.08333V9.08333Z" fill="#404040"/>
<path d="M26.5519 32.9688C26.3312 32.9695 26.116 32.9002 25.9373 32.7708C25.7776 32.6538 25.6545 32.4936 25.5826 32.3091C25.5106 32.1246 25.4927 31.9235 25.531 31.7292L26.8435 26.3125L22.6769 22.4896C22.5258 22.3519 22.4186 22.1728 22.3686 21.9746C22.3186 21.7764 22.328 21.5679 22.3956 21.375C22.4635 21.1798 22.5879 21.0093 22.753 20.885C22.9181 20.7607 23.1164 20.6884 23.3227 20.6771L28.6873 20.4063L30.7185 15.0209C30.793 14.8215 30.9268 14.6497 31.1019 14.5286C31.2769 14.4076 31.4849 14.3431 31.6977 14.3438C31.9088 14.3452 32.1144 14.4107 32.2874 14.5316C32.4604 14.6525 32.5926 14.8231 32.6664 15.0209L34.7498 20.4063L40.1144 20.6771C40.3189 20.6904 40.5149 20.7637 40.678 20.8878C40.841 21.0119 40.9638 21.1814 41.031 21.375C41.0999 21.5669 41.111 21.7748 41.0628 21.973C41.0147 22.1711 40.9095 22.3507 40.7602 22.4896L36.5935 26.3125L37.906 31.7292C37.9583 31.932 37.9481 32.146 37.8769 32.343C37.8057 32.54 37.6768 32.7109 37.507 32.8335C37.3371 32.9561 37.1342 33.0247 36.9248 33.0302C36.7154 33.0358 36.5092 32.9781 36.3331 32.8646L31.7498 29.9896L27.156 32.8646C26.9697 32.9592 26.7591 32.9954 26.5519 32.9688V32.9688ZM31.6873 27.6771C31.8823 27.6765 32.0736 27.7306 32.2394 27.8334L35.2185 29.6876L34.3644 26.1459C34.3154 25.9603 34.3187 25.7648 34.3739 25.581C34.429 25.3972 34.5339 25.2322 34.6769 25.1042L37.4685 22.625L33.9165 22.4375C33.7126 22.4279 33.516 22.3586 33.3512 22.2382C33.1864 22.1178 33.0606 21.9517 32.9894 21.7604L31.6873 18.3125L30.3852 21.7604C30.314 21.9517 30.1882 22.1178 30.0234 22.2382C29.8585 22.3586 29.662 22.4279 29.4581 22.4375L25.906 22.625L28.6977 25.1771C28.8407 25.3051 28.9455 25.4701 29.0007 25.6539C29.0558 25.8377 29.0591 26.0332 29.0102 26.2188L28.156 29.7604L31.1352 27.9063C31.2929 27.7776 31.4848 27.6979 31.6873 27.6771V27.6771Z" fill="#FA4616"/>
</svg>
