<svg width="64" height="64" viewBox="0 0 64 64" fill="none" xmlns="http://www.w3.org/2000/svg">
<path d="M24.5417 21.5833H12.0417C11.7654 21.5833 11.5004 21.4736 11.3051 21.2782C11.1097 21.0829 11 20.8179 11 20.5417V8.04167C11 7.7654 11.1097 7.50045 11.3051 7.3051C11.5004 7.10975 11.7654 7 12.0417 7H20.375C20.6513 7 20.9162 7.10975 21.1116 7.3051C21.3069 7.50045 21.4167 7.7654 21.4167 8.04167C21.4167 8.31793 21.3069 8.58289 21.1116 8.77824C20.9162 8.97359 20.6513 9.08333 20.375 9.08333H13.0833V19.5H23.5V15.3333C23.5 15.0571 23.6097 14.7921 23.8051 14.5968C24.0004 14.4014 24.2654 14.2917 24.5417 14.2917C24.8179 14.2917 25.0829 14.4014 25.2782 14.5968C25.4736 14.7921 25.5833 15.0571 25.5833 15.3333V20.5417C25.5833 20.8179 25.4736 21.0829 25.2782 21.2782C25.0829 21.4736 24.8179 21.5833 24.5417 21.5833Z" fill="#404040"/>
<path d="M18.2917 18.4583C18.1546 18.4591 18.0187 18.4328 17.8918 18.381C17.7649 18.3292 17.6494 18.2528 17.5521 18.1562L14.4271 15.0312C14.318 14.9378 14.2295 14.8229 14.167 14.6937C14.1044 14.5645 14.0693 14.4237 14.0638 14.2802C14.0582 14.1368 14.0824 13.9937 14.1348 13.8601C14.1871 13.7264 14.2666 13.605 14.3681 13.5035C14.4696 13.4019 14.591 13.3225 14.7247 13.2701C14.8583 13.2178 15.0014 13.1936 15.1449 13.1991C15.2883 13.2047 15.4291 13.2398 15.5583 13.3023C15.6875 13.3649 15.8025 13.4534 15.8958 13.5625L18.1875 15.8541L24.7604 7.40622C24.8446 7.29815 24.9491 7.20771 25.0682 7.14007C25.1873 7.07242 25.3186 7.02889 25.4545 7.01196C25.5904 6.99504 25.7282 7.00505 25.8603 7.04142C25.9923 7.07778 26.1159 7.1398 26.224 7.22393C26.332 7.30805 26.4225 7.41264 26.4901 7.53172C26.5578 7.6508 26.6013 7.78204 26.6182 7.91795C26.6352 8.05385 26.6252 8.19176 26.5888 8.32379C26.5524 8.45583 26.4904 8.57941 26.4063 8.68747L19.1146 18.0625C19.0232 18.1786 18.9081 18.274 18.777 18.3422C18.6459 18.4105 18.5018 18.4501 18.3542 18.4583H18.2917Z" fill="#FA4616"/>
<path d="M24.5417 38.25H12.0417C11.7654 38.25 11.5004 38.1403 11.3051 37.9449C11.1097 37.7496 11 37.4846 11 37.2084V24.7084C11 24.4321 11.1097 24.1671 11.3051 23.9718C11.5004 23.7764 11.7654 23.6667 12.0417 23.6667H20.375C20.6513 23.6667 20.9162 23.7764 21.1116 23.9718C21.3069 24.1671 21.4167 24.4321 21.4167 24.7084C21.4167 24.9846 21.3069 25.2496 21.1116 25.4449C20.9162 25.6403 20.6513 25.75 20.375 25.75H13.0833V36.1667H23.5V32C23.5 31.7238 23.6097 31.4588 23.8051 31.2634C24.0004 31.0681 24.2654 30.9584 24.5417 30.9584C24.8179 30.9584 25.0829 31.0681 25.2782 31.2634C25.4736 31.4588 25.5833 31.7238 25.5833 32V37.2084C25.5833 37.4846 25.4736 37.7496 25.2782 37.9449C25.0829 38.1403 24.8179 38.25 24.5417 38.25Z" fill="#404040"/>
<path d="M18.2917 35.125C18.1546 35.1258 18.0187 35.0995 17.8918 35.0477C17.7649 34.9958 17.6494 34.9195 17.5521 34.8229L14.4271 31.6979C14.318 31.6045 14.2295 31.4896 14.167 31.3604C14.1044 31.2311 14.0693 31.0904 14.0638 30.9469C14.0582 30.8035 14.0824 30.6604 14.1348 30.5267C14.1871 30.3931 14.2666 30.2717 14.3681 30.1702C14.4696 30.0686 14.591 29.9892 14.7247 29.9368C14.8583 29.8845 15.0014 29.8603 15.1449 29.8658C15.2883 29.8714 15.4291 29.9065 15.5583 29.969C15.6875 30.0316 15.8025 30.1201 15.8958 30.2292L18.1875 32.5208L24.7604 24.0729C24.8446 23.9648 24.9491 23.8744 25.0682 23.8068C25.1873 23.7391 25.3186 23.6956 25.4545 23.6786C25.5904 23.6617 25.7282 23.6717 25.8603 23.7081C25.9923 23.7445 26.1159 23.8065 26.224 23.8906C26.332 23.9747 26.4225 24.0793 26.4901 24.1984C26.5578 24.3175 26.6013 24.4487 26.6182 24.5846C26.6352 24.7205 26.6252 24.8584 26.5888 24.9905C26.5524 25.1225 26.4904 25.2461 26.4063 25.3542L19.1146 34.7292C19.0232 34.8453 18.9081 34.9407 18.777 35.0089C18.6459 35.0772 18.5018 35.1167 18.3542 35.125H18.2917Z" fill="#FA4616"/>
<path d="M24.5417 57H12.0417C11.7654 57 11.5004 56.8903 11.3051 56.6949C11.1097 56.4996 11 56.2346 11 55.9583V43.4583C11 43.1821 11.1097 42.9171 11.3051 42.7218C11.5004 42.5264 11.7654 42.4167 12.0417 42.4167H20.375C20.6513 42.4167 20.9162 42.5264 21.1116 42.7218C21.3069 42.9171 21.4167 43.1821 21.4167 43.4583C21.4167 43.7346 21.3069 43.9995 21.1116 44.1949C20.9162 44.3902 20.6513 44.5 20.375 44.5H13.0833V54.9167H23.5V53.875C23.5 53.5987 23.6097 53.3338 23.8051 53.1384C24.0004 52.9431 24.2654 52.8333 24.5417 52.8333C24.8179 52.8333 25.0829 52.9431 25.2782 53.1384C25.4736 53.3338 25.5833 53.5987 25.5833 53.875V55.9583C25.5833 56.2346 25.4736 56.4996 25.2782 56.6949C25.0829 56.8903 24.8179 57 24.5417 57Z" fill="#404040"/>
<path d="M23.3229 50.4479C23.1645 50.4518 23.0073 50.4195 22.8632 50.3535C22.7192 50.2875 22.5921 50.1895 22.4916 50.0669C22.3912 49.9444 22.3201 49.8005 22.2836 49.6463C22.2471 49.4921 22.2463 49.3316 22.2812 49.1771C23.1831 45.2685 25.1646 41.6917 27.9999 38.8542L45.7187 21.2187C46.379 20.5585 47.2745 20.1875 48.2083 20.1875C49.1421 20.1875 50.0376 20.5585 50.6979 21.2187L51.5729 22.0937C52.2332 22.754 52.6041 23.6495 52.6041 24.5833C52.6041 25.5171 52.2332 26.4126 51.5729 27.0729L33.8854 44.7188C31.0498 47.5588 27.4727 49.5441 23.5625 50.4479H23.3229ZM48.1562 22.3229C47.768 22.3207 47.3942 22.4702 47.1145 22.7396L29.4896 40.375C27.3577 42.5013 25.7556 45.0989 24.8124 47.9583C27.6657 47.0085 30.2585 45.4071 32.3854 43.2812L50.0208 25.6458C50.162 25.5115 50.2744 25.35 50.3513 25.1709C50.4281 24.9918 50.4677 24.799 50.4677 24.6042C50.4677 24.4093 50.4281 24.2165 50.3513 24.0374C50.2744 23.8584 50.162 23.6968 50.0208 23.5625L49.1458 22.6875C48.8804 22.4287 48.5268 22.2798 48.1562 22.2708V22.3229Z" fill="#404040"/>
<path d="M43.7814 39.625C43.6443 39.6258 43.5084 39.5995 43.3815 39.5477C43.2546 39.4958 43.1392 39.4195 43.0418 39.3229C42.8478 39.1278 42.7389 38.8637 42.7389 38.5885C42.7389 38.3134 42.8478 38.0493 43.0418 37.8542L48.2502 32.6458C48.3856 32.5147 48.4934 32.3577 48.5669 32.1841C48.6405 32.0105 48.6784 31.8239 48.6784 31.6354C48.6784 31.4469 48.6405 31.2603 48.5669 31.0867C48.4934 30.9131 48.3856 30.7561 48.2502 30.625L43.0418 25.4167C42.9328 25.3233 42.8442 25.2084 42.7817 25.0791C42.7192 24.9499 42.6841 24.8091 42.6785 24.6657C42.673 24.5222 42.6971 24.3792 42.7495 24.2455C42.8019 24.1118 42.8813 23.9904 42.9828 23.8889C43.0843 23.7874 43.2057 23.7079 43.3394 23.6556C43.4731 23.6032 43.6161 23.579 43.7596 23.5846C43.9031 23.5901 44.0438 23.6252 44.173 23.6878C44.3023 23.7503 44.4172 23.8389 44.5106 23.9479L49.771 29.1562C50.4313 29.8165 50.8022 30.7121 50.8022 31.6458C50.8022 32.5796 50.4313 33.4751 49.771 34.1354L44.5106 39.3437C44.3132 39.5286 44.0518 39.6294 43.7814 39.625Z" fill="#404040"/>
<path d="M37.3856 40.7605C37.2485 40.7612 37.1126 40.735 36.9857 40.6831C36.8588 40.6313 36.7433 40.5549 36.646 40.4584L32.271 36.0729C32.1003 35.8737 32.0112 35.6173 32.0213 35.3552C32.0314 35.093 32.1401 34.8443 32.3256 34.6588C32.5111 34.4733 32.7598 34.3646 33.022 34.3545C33.2841 34.3444 33.5405 34.4335 33.7397 34.6042L38.1252 38.9792C38.2228 39.076 38.3003 39.1913 38.3532 39.3182C38.4061 39.4451 38.4333 39.5813 38.4333 39.7188C38.4333 39.8563 38.4061 39.9925 38.3532 40.1194C38.3003 40.2463 38.2228 40.3615 38.1252 40.4584C38.0278 40.5549 37.9124 40.6313 37.7855 40.6831C37.6586 40.735 37.5227 40.7612 37.3856 40.7605Z" fill="#404040"/>
</svg>
