<svg width="64" height="64" viewBox="0 0 64 64" fill="none" xmlns="http://www.w3.org/2000/svg">
<path d="M8.13636 55.6818C7.83498 55.6818 7.54592 55.5621 7.33281 55.349C7.11971 55.1359 7 54.8469 7 54.5455V42.0455C7 41.7441 7.11971 41.4551 7.33281 41.242C7.54592 41.0289 7.83498 40.9091 8.13636 40.9091H24.0455C24.3468 40.9091 24.6359 41.0289 24.849 41.242C25.0621 41.4551 25.1818 41.7441 25.1818 42.0455C25.1818 42.3469 25.0621 42.6359 24.849 42.849C24.6359 43.0621 24.3468 43.1818 24.0455 43.1818H9.27273V54.5455C9.27273 54.8469 9.15299 55.1359 8.93988 55.349C8.72677 55.5621 8.43775 55.6818 8.13636 55.6818Z" fill="#404040"/>
<path d="M55.8636 55.6818C55.5622 55.6818 55.2731 55.5621 55.06 55.349C54.8469 55.1359 54.7272 54.8469 54.7272 54.5455V47.7273H39.9545C39.6531 47.7273 39.364 47.6076 39.1509 47.3945C38.9378 47.1813 38.8181 46.8923 38.8181 46.5909C38.8181 46.2896 38.9378 46.0005 39.1509 45.7874C39.364 45.5743 39.6531 45.4546 39.9545 45.4546H55.8636C56.165 45.4546 56.454 45.5743 56.6671 45.7874C56.8802 46.0005 56.9999 46.2896 56.9999 46.5909V54.5455C56.9999 54.8469 56.8802 55.1359 56.6671 55.349C56.454 55.5621 56.165 55.6818 55.8636 55.6818Z" fill="#404040"/>
<path d="M39.9546 55.6819C39.6533 55.6819 39.3642 55.5621 39.1511 55.349C38.938 55.1359 38.8183 54.8469 38.8183 54.5455V36.3637H25.1819V54.5455C25.1819 54.8469 25.0622 55.1359 24.8491 55.349C24.6359 55.5621 24.3469 55.6819 24.0455 55.6819C23.7442 55.6819 23.4551 55.5621 23.242 55.349C23.0289 55.1359 22.9092 54.8469 22.9092 54.5455V35.2273C22.9092 34.9259 23.0289 34.6369 23.242 34.4238C23.4551 34.2107 23.7442 34.0909 24.0455 34.0909H39.9546C40.256 34.0909 40.545 34.2107 40.7581 34.4238C40.9713 34.6369 41.091 34.9259 41.091 35.2273V54.5455C41.091 54.8469 40.9713 55.1359 40.7581 55.349C40.545 55.5621 40.256 55.6819 39.9546 55.6819Z" fill="#404040"/>
<path d="M38.4548 31.8182C38.2769 31.8171 38.1018 31.7743 37.9435 31.6932L31.4321 28.4091L24.9321 31.7159C24.742 31.8139 24.5282 31.8563 24.3151 31.8383C24.102 31.8202 23.8984 31.7423 23.7276 31.6137C23.5554 31.4846 23.4234 31.3092 23.3469 31.108C23.2705 30.9069 23.2527 30.6882 23.2957 30.4773L24.6935 23.5228L19.273 18.1818C19.1212 18.0287 19.0161 17.8356 18.9699 17.625C18.9238 17.4144 18.9385 17.195 19.0124 16.9924C19.0863 16.7899 19.2163 16.6125 19.3872 16.481C19.5581 16.3496 19.7628 16.2694 19.9775 16.25L27.273 15.625L30.398 8.67049C30.4876 8.47111 30.6329 8.30182 30.8163 8.1829C30.9997 8.06398 31.2135 8.00046 31.4321 8C31.6507 8.00046 31.8645 8.06398 32.0479 8.1829C32.2313 8.30182 32.3766 8.47111 32.4662 8.67049L35.5912 15.625L42.8866 16.25C43.1014 16.2694 43.3061 16.3496 43.477 16.481C43.6479 16.6125 43.7779 16.7899 43.8518 16.9924C43.9257 17.195 43.9404 17.4144 43.8943 17.625C43.8481 17.8356 43.743 18.0287 43.5912 18.1818L38.1707 23.5341L39.5685 30.4887C39.6127 30.6985 39.5967 30.9165 39.5223 31.1176C39.4479 31.3186 39.3182 31.4946 39.148 31.625C38.942 31.7586 38.7002 31.8259 38.4548 31.8182V31.8182ZM31.4321 25.9773C31.61 25.9783 31.7852 26.0211 31.9435 26.1023L36.8753 28.6023L35.8184 23.3409C35.7814 23.1557 35.791 22.9642 35.8466 22.7836C35.9021 22.6031 36.0018 22.4392 36.1366 22.3068L40.2389 18.2614L34.7389 17.7954C34.5361 17.7784 34.3415 17.7073 34.1756 17.5893C34.0097 17.4714 33.8785 17.311 33.7957 17.125L31.4321 11.875L29.0684 17.125C28.9857 17.311 28.8545 17.4714 28.6886 17.5893C28.5227 17.7073 28.3281 17.7784 28.1253 17.7954L22.6253 18.2614L26.7275 22.3068C26.8624 22.4392 26.962 22.6031 27.0176 22.7836C27.0732 22.9642 27.0828 23.1557 27.0457 23.3409L25.9889 28.6023L30.9321 26.1364C31.0841 26.0451 31.2553 25.9906 31.4321 25.9773V25.9773Z" fill="#FA4616"/>
<path d="M55.8636 55.6818H8.13636C7.83498 55.6818 7.54592 55.5621 7.33281 55.349C7.11971 55.1359 7 54.8469 7 54.5455C7 54.2441 7.11971 53.9551 7.33281 53.742C7.54592 53.5289 7.83498 53.4091 8.13636 53.4091H55.8636C56.165 53.4091 56.454 53.5289 56.6671 53.742C56.8803 53.9551 57 54.2441 57 54.5455C57 54.8469 56.8803 55.1359 56.6671 55.349C56.454 55.5621 56.165 55.6818 55.8636 55.6818Z" fill="#404040"/>
</svg>
