<svg width="64" height="64" viewBox="0 0 64 64" fill="none" xmlns="http://www.w3.org/2000/svg">
<path d="M37.6939 29.9796C37.4262 29.9785 37.1696 29.8722 36.9796 29.6837L32.8979 25.602L34.3367 24.1326L37.602 27.398L46.4592 16.0918L48.0714 17.3367L38.5408 29.5816C38.4522 29.6973 38.3399 29.7927 38.2115 29.8613C38.083 29.9299 37.9413 29.9703 37.7959 29.9796H37.6939Z" fill="#FA4616"/>
<path d="M48.8367 44.2755C48.2963 44.2732 47.7789 44.0567 47.3979 43.6735L40.2551 36.5306H28.4286C27.346 36.5306 26.3079 36.1006 25.5424 35.3351C24.7769 34.5697 24.3469 33.5315 24.3469 32.449V14.0816C24.3469 12.9991 24.7769 11.9609 25.5424 11.1955C26.3079 10.43 27.346 10 28.4286 10H52.9184C54.0009 10 55.039 10.43 55.8045 11.1955C56.57 11.9609 57 12.9991 57 14.0816V32.449C57 33.5315 56.57 34.5697 55.8045 35.3351C55.039 36.1006 54.0009 36.5306 52.9184 36.5306H50.8775V42.2245C50.8784 42.628 50.7596 43.0227 50.5362 43.3587C50.3128 43.6947 49.9948 43.9569 49.6224 44.1122C49.3748 44.2209 49.1071 44.2765 48.8367 44.2755V44.2755ZM28.4286 12.0408C27.8873 12.0408 27.3682 12.2558 26.9855 12.6386C26.6028 13.0213 26.3877 13.5404 26.3877 14.0816V32.449C26.3877 32.9902 26.6028 33.5093 26.9855 33.8921C27.3682 34.2748 27.8873 34.4898 28.4286 34.4898H41.102L48.8367 42.2245V34.4898H52.9184C53.4596 34.4898 53.9787 34.2748 54.3614 33.8921C54.7442 33.5093 54.9592 32.9902 54.9592 32.449V14.0816C54.9592 13.5404 54.7442 13.0213 54.3614 12.6386C53.9787 12.2558 53.4596 12.0408 52.9184 12.0408H28.4286Z" fill="#FA4616"/>
<path d="M16.1939 53.4592C15.9235 53.4602 15.6558 53.4045 15.4082 53.2959C15.0339 53.1421 14.7137 52.8806 14.4884 52.5445C14.2631 52.2083 14.1429 51.8128 14.1429 51.4082V45.7143H11.0816C9.99912 45.7143 8.96093 45.2843 8.19548 44.5188C7.43002 43.7534 7 42.7152 7 41.6327V23.2653C7 22.1828 7.43002 21.1446 8.19548 20.3791C8.96093 19.6137 9.99912 19.1837 11.0816 19.1837H22.3061V21.2245H11.0816C10.5404 21.2245 10.0213 21.4395 9.63856 21.8222C9.25583 22.205 9.04082 22.724 9.04082 23.2653V41.6327C9.04082 42.1739 9.25583 42.693 9.63856 43.0757C10.0213 43.4585 10.5404 43.6735 11.0816 43.6735H16.1837V51.4082L23.9286 43.6735H32.5102C33.0515 43.6735 33.5705 43.4585 33.9533 43.0757C34.336 42.693 34.551 42.1739 34.551 41.6327V38.5714H36.5918V41.6327C36.5918 42.7152 36.1618 43.7534 35.3963 44.5188C34.6309 45.2843 33.5927 45.7143 32.5102 45.7143H24.7755L17.6327 52.8571C17.2517 53.2404 16.7343 53.4569 16.1939 53.4592Z" fill="#404040"/>
</svg>
