<svg width="64" height="64" viewBox="0 0 64 64" fill="none" xmlns="http://www.w3.org/2000/svg">
<path d="M31.9999 51.7917C28.0855 51.7917 24.259 50.6309 21.0043 48.4562C17.7496 46.2815 15.2128 43.1904 13.7148 39.574C12.2168 35.9575 11.8249 31.9781 12.5886 28.1389C13.3522 24.2996 15.2372 20.7731 18.0051 18.0052C20.773 15.2373 24.2996 13.3523 28.1388 12.5886C31.978 11.825 35.9574 12.2169 39.5739 13.7149C43.1903 15.2129 46.2814 17.7496 48.4561 21.0044C50.6309 24.2591 51.7916 28.0856 51.7916 32C51.7916 37.2491 49.7064 42.2832 45.9948 45.9949C42.2831 49.7065 37.249 51.7917 31.9999 51.7917V51.7917ZM31.9999 14.2917C28.4975 14.2917 25.0738 15.3302 22.1617 17.2761C19.2496 19.2219 16.9799 21.9876 15.6396 25.2233C14.2993 28.4591 13.9486 32.0197 14.6319 35.4547C15.3151 38.8898 17.0017 42.0452 19.4782 44.5217C21.9548 46.9983 25.1101 48.6848 28.5452 49.3681C31.9803 50.0514 35.5409 49.7007 38.7766 48.3604C42.0124 47.0201 44.7781 44.7504 46.7239 41.8383C48.6697 38.9261 49.7083 35.5024 49.7083 32C49.7083 27.3035 47.8426 22.7993 44.5216 19.4783C41.2007 16.1574 36.6965 14.2917 31.9999 14.2917V14.2917Z" fill="#404040"/>
<path d="M17.4167 33.0417H8.04167C7.7654 33.0417 7.50046 32.9319 7.30511 32.7366C7.10976 32.5412 7 32.2763 7 32C7 31.7237 7.10976 31.4588 7.30511 31.2635C7.50046 31.0681 7.7654 30.9583 8.04167 30.9583H17.4167C17.6929 30.9583 17.9579 31.0681 18.1533 31.2635C18.3486 31.4588 18.4583 31.7237 18.4583 32C18.4583 32.2763 18.3486 32.5412 18.1533 32.7366C17.9579 32.9319 17.6929 33.0417 17.4167 33.0417Z" fill="#404040"/>
<path d="M55.9584 33.0417H46.5834C46.3071 33.0417 46.0422 32.9319 45.8469 32.7366C45.6515 32.5412 45.5417 32.2763 45.5417 32C45.5417 31.7237 45.6515 31.4588 45.8469 31.2635C46.0422 31.0681 46.3071 30.9583 46.5834 30.9583H55.9584C56.2347 30.9583 56.4997 31.0681 56.695 31.2635C56.8904 31.4588 57.0001 31.7237 57.0001 32C57.0001 32.2763 56.8904 32.5412 56.695 32.7366C56.4997 32.9319 56.2347 33.0417 55.9584 33.0417Z" fill="#404040"/>
<path d="M31.9999 18.4583C31.7237 18.4583 31.4587 18.3486 31.2634 18.1532C31.068 17.9579 30.9583 17.6929 30.9583 17.4167V8.04167C30.9583 7.7654 31.068 7.50046 31.2634 7.30511C31.4587 7.10976 31.7237 7 31.9999 7C32.2762 7 32.5412 7.10976 32.7365 7.30511C32.9319 7.50046 33.0416 7.7654 33.0416 8.04167V17.4167C33.0416 17.6929 32.9319 17.9579 32.7365 18.1532C32.5412 18.3486 32.2762 18.4583 31.9999 18.4583Z" fill="#404040"/>
<path d="M31.9999 57C31.7237 57 31.4587 56.8902 31.2634 56.6949C31.068 56.4995 30.9583 56.2346 30.9583 55.9583V46.5833C30.9583 46.3071 31.068 46.0421 31.2634 45.8468C31.4587 45.6514 31.7237 45.5417 31.9999 45.5417C32.2762 45.5417 32.5412 45.6514 32.7365 45.8468C32.9319 46.0421 33.0416 46.3071 33.0416 46.5833V55.9583C33.0416 56.2346 32.9319 56.4995 32.7365 56.6949C32.5412 56.8902 32.2762 57 31.9999 57Z" fill="#404040"/>
<path d="M38.4378 42.4166C38.2747 42.4157 38.1141 42.3764 37.969 42.3021L32.0003 39.2916L26.042 42.3229C25.8675 42.4107 25.6719 42.4477 25.4774 42.4296C25.283 42.4116 25.0975 42.3393 24.9422 42.2209C24.7869 42.1025 24.668 41.9428 24.599 41.7601C24.5301 41.5773 24.5139 41.379 24.5523 41.1875L25.8336 34.8125L20.8649 29.9166C20.726 29.777 20.6296 29.6008 20.5869 29.4085C20.5441 29.2163 20.5567 29.0159 20.6232 28.8305C20.6897 28.6452 20.8074 28.4825 20.9627 28.3613C21.1179 28.2401 21.3043 28.1653 21.5003 28.1458L28.1878 27.5729L31.0524 21.1979C31.1345 21.0151 31.2676 20.8599 31.4358 20.7509C31.6039 20.6419 31.7999 20.5837 32.0003 20.5833C32.2024 20.5817 32.4007 20.639 32.5708 20.7481C32.741 20.8572 32.8757 21.0135 32.9586 21.1979L35.8232 27.5729L42.5107 28.1458C42.7073 28.1632 42.8948 28.2361 43.0516 28.356C43.2083 28.4759 43.3278 28.6378 43.3961 28.8229C43.4631 29.0101 43.4752 29.2125 43.4309 29.4063C43.3866 29.6001 43.2878 29.7772 43.1461 29.9166L38.1774 34.8229L39.4586 41.1979C39.4992 41.3902 39.4845 41.59 39.4163 41.7744C39.3481 41.9587 39.2292 42.12 39.0732 42.2396C38.8862 42.3659 38.6632 42.428 38.4378 42.4166ZM32.0003 37.0625C32.1665 37.0644 32.3303 37.1036 32.4794 37.177L37.0003 39.4687L36.0315 34.6458C35.9962 34.4769 36.0034 34.3018 36.0525 34.1363C36.1016 33.9709 36.191 33.8202 36.3128 33.6979L40.0732 29.9896L35.0315 29.5624C34.8456 29.5468 34.6672 29.4816 34.5151 29.3735C34.363 29.2654 34.2428 29.1184 34.1669 28.9479L32.0003 24.1354L29.8336 28.9479C29.7586 29.1169 29.64 29.2629 29.4898 29.3709C29.3397 29.479 29.1635 29.5451 28.9794 29.5624L23.9273 29.9896L27.6982 33.6979C27.8199 33.8202 27.9094 33.9709 27.9585 34.1363C28.0076 34.3018 28.0148 34.4769 27.9794 34.6458L27.0107 39.4687L31.5315 37.177C31.6767 37.1027 31.8372 37.0634 32.0003 37.0625V37.0625Z" fill="#FA4616"/>
</svg>
