<svg width="64" height="64" viewBox="0 0 64 64" fill="none" xmlns="http://www.w3.org/2000/svg">
<path d="M12.2072 50.8669C10.8352 50.867 9.51851 50.3255 8.54345 49.3602C7.56839 48.3949 7.01372 47.0838 7 45.7118V42.5874L27.0999 42.3791L30.2242 44.462H34.692L36.7749 42.3791L56.9997 42.1604V45.2848C57.0066 45.973 56.877 46.6557 56.6184 47.2935C56.3598 47.9313 55.9773 48.5115 55.4931 49.0005C55.0089 49.4896 54.4325 49.8778 53.7973 50.1428C53.1621 50.4077 52.4807 50.5441 51.7925 50.544L12.2176 50.971L12.2072 50.8669ZM9.08289 44.6183V45.6597C9.08289 46.4883 9.41206 47.283 9.99798 47.8689C10.5839 48.4548 11.3786 48.784 12.2072 48.784V48.784L51.7821 48.357C52.1928 48.3578 52.5993 48.2752 52.9771 48.114C53.3548 47.9529 53.6959 47.7167 53.9795 47.4197C54.2672 47.1269 54.4944 46.7803 54.6481 46.3997C54.8017 46.0191 54.8789 45.6119 54.8752 45.2015V44.16L37.5976 44.3475L35.5147 46.4304L29.5577 46.4928L26.4334 44.41L9.08289 44.6183Z" fill="#404040"/>
<path d="M10.1035 43.5976L9.82227 16.5201C9.82227 15.6915 10.1514 14.8968 10.7374 14.3108C11.3233 13.7249 12.118 13.3958 12.9466 13.3958L50.4386 13C51.2672 13 52.0619 13.3292 52.6478 13.9151C53.2338 14.501 53.5629 15.2957 53.5629 16.1243L53.8545 43.2019H51.7716L51.48 16.1243C51.4795 15.9865 51.4516 15.8502 51.3979 15.7233C51.3443 15.5964 51.266 15.4814 51.1676 15.3849C51.0728 15.2857 50.9576 15.2082 50.8299 15.1578C50.7023 15.1075 50.5652 15.0855 50.4282 15.0933L12.9362 15.4891C12.7984 15.4896 12.6621 15.5175 12.5352 15.5712C12.4082 15.6248 12.2932 15.7031 12.1968 15.8015C12.0992 15.8975 12.0228 16.0129 11.9725 16.1403C11.9223 16.2677 11.8994 16.4041 11.9052 16.5409L12.1863 43.6184L10.1035 43.5976Z" fill="#404040"/>
<path d="M21.3512 24.7267C21.0795 24.7283 20.8178 24.6237 20.6222 24.4351L18.5393 22.3522L19.9973 20.8629L21.3512 22.1959L24.7463 18.7279L26.2356 20.186L22.0698 24.3517C21.8775 24.5479 21.6155 24.6603 21.3408 24.6642L21.3512 24.7267Z" fill="#FA4616"/>
<path d="M21.4242 32.0168C21.1525 32.0184 20.8908 31.9138 20.6952 31.7252L18.6123 29.6423L20.0703 28.153L21.4346 29.486L24.8297 26.0181L26.319 27.4761L22.1532 31.6418C22.0634 31.7504 21.9525 31.8396 21.8272 31.904C21.7018 31.9685 21.5648 32.0069 21.4242 32.0168V32.0168Z" fill="#FA4616"/>
<path d="M21.5072 39.3069C21.2355 39.3085 20.9739 39.2039 20.7782 39.0153L18.6953 36.9324L20.1533 35.4431L21.5072 36.7761L24.9023 33.3082L26.3916 34.7662L22.2258 38.9319C22.1372 39.0393 22.0279 39.1278 21.9045 39.1922C21.7811 39.2566 21.646 39.2956 21.5072 39.3069Z" fill="#FA4616"/>
<path d="M43.2132 20.3141L28.6338 20.4719L28.6563 22.5547L43.2357 22.3969L43.2132 20.3141Z" fill="#404040"/>
<path d="M43.2918 27.5926L28.7124 27.7504L28.7349 29.8332L43.3143 29.6754L43.2918 27.5926Z" fill="#404040"/>
<path d="M43.3709 34.8814L28.7915 35.0392L28.814 37.122L43.3934 36.9642L43.3709 34.8814Z" fill="#404040"/>
</svg>
