<svg width="64" height="64" viewBox="0 0 64 64" fill="none" xmlns="http://www.w3.org/2000/svg">
<path d="M12.0648 49.5317H10.0388V24.2075C10.0388 23.4015 10.359 22.6286 10.9289 22.0587C11.4988 21.4887 12.2718 21.1686 13.0777 21.1686H20.1685V23.1945H13.0777C12.8091 23.1945 12.5514 23.3012 12.3614 23.4912C12.1715 23.6812 12.0648 23.9388 12.0648 24.2075V49.5317Z" fill="#404040"/>
<path d="M52.5836 37.3761H50.5576V49.5317H52.5836V37.3761Z" fill="#404040"/>
<path d="M50.5577 55.6095H12.0648C10.7216 55.6095 9.4333 55.0759 8.48345 54.1261C7.53361 53.1762 7 51.888 7 50.5447V48.5188H27.6848L29.7108 50.5447H33.9348L35.9608 48.5188H55.6225V50.5447C55.6225 51.888 55.0889 53.1762 54.139 54.1261C53.1892 55.0759 51.9009 55.6095 50.5577 55.6095V55.6095ZM9.02594 50.5447C9.02594 51.3507 9.3461 52.1236 9.91601 52.6935C10.4859 53.2634 11.2589 53.5836 12.0648 53.5836H50.5577C51.3636 53.5836 52.1366 53.2634 52.7065 52.6935C53.2764 52.1236 53.5966 51.3507 53.5966 50.5447H36.8015L34.7756 52.5706H28.87L26.8441 50.5447H9.02594Z" fill="#404040"/>
<path d="M37.3078 27.368C37.1745 27.3687 37.0423 27.3432 36.9189 27.2928C36.7955 27.2424 36.6832 27.1681 36.5886 27.0742L32.8811 23.3566L34.3094 21.9283L37.2166 24.8254L45.1785 14.5944L46.779 15.8404L38.108 26.983C38.0191 27.096 37.9072 27.1887 37.7797 27.2551C37.6522 27.3215 37.5121 27.3599 37.3685 27.368H37.3078Z" fill="#FA4616"/>
<path d="M34.7046 42.0155C34.4439 42.0142 34.186 41.9626 33.9448 41.8635C33.5733 41.7109 33.2555 41.4512 33.0318 41.1176C32.8082 40.7839 32.6888 40.3912 32.6888 39.9895V35.3502H26.611C25.5363 35.3502 24.5057 34.9233 23.7458 34.1634C22.986 33.4035 22.5591 32.3729 22.5591 31.2983V12.0519C22.5591 10.9773 22.986 9.94664 23.7458 9.18676C24.5057 8.42689 25.5363 8 26.611 8H52.9481C54.0228 8 55.0534 8.42689 55.8133 9.18676C56.5731 9.94664 57 10.9773 57 12.0519V31.2983C57 32.3729 56.5731 33.4035 55.8133 34.1634C55.0534 34.9233 54.0228 35.3502 52.9481 35.3502H41.2686L36.2038 41.3571C36.0094 41.56 35.777 41.7226 35.5197 41.8355C35.2625 41.9485 34.9855 42.0097 34.7046 42.0155V42.0155ZM26.6008 10.0259C26.0635 10.0259 25.5482 10.2394 25.1683 10.6193C24.7883 10.9993 24.5749 11.5146 24.5749 12.0519V31.2983C24.5749 31.8356 24.7883 32.3509 25.1683 32.7308C25.5482 33.1108 26.0635 33.3242 26.6008 33.3242H34.7046V39.9895L40.3164 33.3242H52.938C53.4753 33.3242 53.9906 33.1108 54.3706 32.7308C54.7505 32.3509 54.9639 31.8356 54.9639 31.2983V12.0519C54.9639 11.5146 54.7505 10.9993 54.3706 10.6193C53.9906 10.2394 53.4753 10.0259 52.938 10.0259H26.6008Z" fill="#FA4616"/>
</svg>
