<svg width="64" height="64" viewBox="0 0 64 64" fill="none" xmlns="http://www.w3.org/2000/svg">
<path d="M42.2037 56.9375C41.9827 56.9366 41.7678 56.8656 41.59 56.7345C41.4121 56.6035 41.2805 56.4193 41.2142 56.2085C41.1722 56.0779 41.1563 55.9403 41.1676 55.8035C41.1789 55.6668 41.2171 55.5336 41.28 55.4116C41.3429 55.2897 41.4293 55.1814 41.5341 55.0929C41.639 55.0045 41.7604 54.9376 41.8912 54.8962C46.578 53.3964 50.5357 45.5227 50.5357 41.3566C50.5357 36.1491 47.6716 31.0665 41.5371 25.432C35.8505 20.2245 33.2675 16.1522 33.3821 12.6319C33.4096 11.9667 33.5396 11.3098 33.7675 10.6843C29.6015 13.0485 26.1124 16.7667 26.9977 21.391C27.3355 23.5547 28.2819 25.5776 29.7264 27.2234C30.3263 27.8143 30.7914 28.5279 31.0898 29.3152C31.3882 30.1026 31.5129 30.9452 31.4553 31.7852C31.4065 32.6356 31.1105 33.4533 30.6036 34.1379C30.0966 34.8224 29.4008 35.3441 28.6016 35.6388C26.1332 36.6803 22.7587 36.0241 21.3735 34.8055C20.6644 34.2243 20.0978 33.4885 19.7169 32.6545C19.336 31.8205 19.1509 30.9103 19.176 29.9938C17.5667 31.5745 16.2877 33.4594 15.4133 35.5388C14.539 37.6182 14.0868 39.8507 14.083 42.1065C14.083 45.7205 16.2494 49.2929 20.7174 53.0319C20.9067 53.2149 21.0196 53.4628 21.0335 53.7257C21.0473 53.9885 20.9611 54.247 20.7922 54.4489C20.6233 54.6508 20.3842 54.7813 20.123 54.814C19.8618 54.8468 19.5978 54.7794 19.3843 54.6254C14.4163 50.4594 12 46.3767 12 42.1273C12 35.6492 15.7494 28.8273 20.5404 26.6089C20.741 26.5152 20.9664 26.4879 21.1836 26.531C21.4009 26.574 21.5988 26.6853 21.7485 26.8485C21.8994 27.012 21.9939 27.2195 22.0183 27.4407C22.0427 27.6618 21.9956 27.885 21.8839 28.0774C21.3467 28.896 21.1383 29.8872 21.3005 30.8527C21.4628 31.8183 21.9836 32.6869 22.7588 33.285C23.5149 33.7287 24.3593 34.0007 25.2322 34.0817C26.1052 34.1627 26.9852 34.0507 27.8101 33.7537C28.2511 33.606 28.6368 33.3277 28.9158 32.9556C29.1949 32.5836 29.3541 32.1354 29.3723 31.6707C29.4765 30.2646 28.987 29.6605 28.1017 28.5461C26.4553 26.6292 25.3736 24.2927 24.9772 21.7971C23.592 14.5691 30.4451 9.29911 36.7357 7.05988C36.9685 6.97737 37.223 6.9802 37.4538 7.06795C37.6847 7.15571 37.8768 7.32263 37.996 7.53893C38.1164 7.75449 38.1564 8.00583 38.1087 8.2481C38.061 8.49037 37.9288 8.70784 37.7356 8.86166C37.0972 9.29825 36.5641 9.87156 36.175 10.5399C35.7858 11.2083 35.5505 11.955 35.486 12.7257C35.3922 15.5065 37.9022 19.2767 42.964 23.9114C49.5671 29.973 52.6396 35.5242 52.6396 41.3774C52.6396 46.2204 48.3069 55.094 42.5474 57C42.4303 56.9965 42.3144 56.9755 42.2037 56.9375V56.9375Z" fill="#404040"/>
<path d="M38.5687 55.896C38.3311 55.8915 38.1012 55.8113 37.9125 55.6669C37.8055 55.5809 37.7166 55.4747 37.6508 55.3543C37.585 55.2338 37.5437 55.1016 37.5291 54.9651C37.5146 54.8286 37.5272 54.6907 37.5662 54.5591C37.6052 54.4275 37.6698 54.3049 37.7563 54.1984C41.0162 50.1469 40.2351 47.4181 39.329 44.2624C38.7961 42.6641 38.4911 40.9987 38.4229 39.3152C36.8702 40.7488 35.8034 42.6311 35.3712 44.6998C34.4756 47.991 31.4969 50.5947 28.5806 50.626C27.6539 50.6373 26.7416 50.3961 25.9416 49.9282C25.1416 49.4603 24.4841 48.7834 24.0397 47.9701C23.7064 50.8343 25.1957 52.5632 26.8101 54.0942C26.9209 54.1847 27.0118 54.2971 27.0772 54.4244C27.1426 54.5516 27.1812 54.691 27.1903 54.8338C27.1995 54.9765 27.1792 55.1196 27.1306 55.2542C27.082 55.3888 27.0063 55.5119 26.908 55.6159C26.8098 55.7199 26.6912 55.8025 26.5596 55.8587C26.4279 55.9148 26.2862 55.9432 26.1431 55.9421C26 55.9411 25.8588 55.9105 25.728 55.8524C25.5973 55.7943 25.4799 55.7099 25.3832 55.6044C23.7168 54.0317 20.2486 50.7614 22.8732 44.4916C22.9563 44.2876 23.1018 44.1153 23.2889 43.9993C23.476 43.8833 23.6951 43.8296 23.9147 43.8458C24.1284 43.8553 24.334 43.9303 24.5036 44.0607C24.6732 44.1912 24.7985 44.3707 24.8625 44.5748C25.7582 47.3765 26.8413 48.5221 28.6015 48.543C30.6012 48.543 32.7675 46.5433 33.4132 44.1478C33.747 42.4862 34.4402 40.9176 35.4441 39.552C36.448 38.1865 37.7384 37.057 39.2248 36.2428C39.4004 36.1429 39.6012 36.0962 39.8028 36.1083C40.0044 36.1205 40.1982 36.191 40.3604 36.3113C40.5227 36.4316 40.6464 36.5965 40.7167 36.7859C40.7869 36.9753 40.8005 37.1811 40.7558 37.3781C40.3971 39.4992 40.6091 41.6775 41.3703 43.6896C42.3077 46.9287 43.3596 50.6052 39.4227 55.5003C39.3214 55.6287 39.1913 55.7314 39.043 55.8001C38.8946 55.8689 38.7321 55.9017 38.5687 55.896Z" fill="#FA4616"/>
</svg>
