<svg width="64" height="64" viewBox="0 0 64 64" fill="none" xmlns="http://www.w3.org/2000/svg">
<path d="M37.3214 56.9964C37.1378 56.9953 36.9578 56.9462 36.7991 56.8539C36.6404 56.7616 36.5086 56.6295 36.4169 56.4705L28.5286 42.7975L30.3481 41.7457L37.2162 53.6623L39.6143 48.4981C39.7048 48.3 39.8547 48.1349 40.0431 48.0257C40.2315 47.9164 40.4491 47.8683 40.666 47.888L46.3351 48.4035L41.2761 39.6947L43.0956 38.643L49.1749 49.1607C49.2672 49.3206 49.3158 49.502 49.3158 49.6866C49.3158 49.8712 49.2672 50.0526 49.1749 50.2125C49.0717 50.3749 48.9259 50.5058 48.7534 50.5912C48.581 50.6765 48.3884 50.7128 48.1967 50.6963L41.2445 50.0757L38.31 56.3864C38.228 56.5591 38.1004 56.7062 37.9411 56.8118C37.7817 56.9174 37.5965 56.9776 37.4055 56.9859L37.3214 56.9964Z" fill="#404040"/>
<path d="M26.6876 56.9964C26.4966 56.9881 26.3114 56.9279 26.152 56.8223C25.9927 56.7167 25.8651 56.5696 25.7831 56.3969L22.8486 50.0863L15.8964 50.7068C15.7047 50.7233 15.5121 50.687 15.3397 50.6017C15.1672 50.5164 15.0214 50.3854 14.9183 50.223C14.8259 50.0631 14.7773 49.8817 14.7773 49.6971C14.7773 49.5125 14.8259 49.3311 14.9183 49.1712L20.987 38.6535L22.8065 39.7053L17.7475 48.4666L23.4166 47.9511C23.6335 47.9314 23.8512 47.9795 24.0396 48.0888C24.2279 48.198 24.3778 48.3631 24.4683 48.5612L26.8664 53.7254L31.2943 46.0054L33.1139 47.0572L27.6552 56.5231C27.5516 56.6819 27.4069 56.8097 27.2366 56.8931C27.0663 56.9764 26.8766 57.0121 26.6876 56.9964Z" fill="#404040"/>
<path d="M31.9887 44.575C31.7612 44.575 31.5397 44.5012 31.3577 44.3646L29.0122 42.6082L26.2355 43.5653C26.0143 43.6406 25.7743 43.6402 25.5534 43.564C25.3325 43.4879 25.1432 43.3403 25.0155 43.1446L23.4063 40.6834L20.4718 40.6308C20.2301 40.6373 19.9936 40.5603 19.802 40.4128C19.6105 40.2653 19.4756 40.0563 19.4201 39.821L18.7469 36.9602L16.0123 35.9084C15.8025 35.828 15.6239 35.6825 15.5028 35.4932C15.3816 35.3039 15.3243 35.0808 15.3392 34.8566L15.6968 31.9432L13.4775 30.0184C13.2992 29.8651 13.1775 29.6563 13.1317 29.4257C13.086 29.195 13.1189 28.9556 13.2251 28.7458L14.5609 26.1269L13.1305 23.5605C13.018 23.3563 12.9766 23.1204 13.0127 22.8901C13.0489 22.6597 13.1606 22.4479 13.3303 22.2879L15.4338 20.279L14.9711 17.3762C14.9363 17.1451 14.9795 16.9091 15.0937 16.7053C15.208 16.5016 15.3869 16.3416 15.6021 16.2508L18.3052 15.0938L18.8626 12.2119C18.907 11.981 19.0274 11.7717 19.2047 11.6172C19.382 11.4628 19.606 11.3722 19.8408 11.36L22.7647 11.2022L24.2792 8.68852C24.4003 8.48751 24.5852 8.33271 24.8043 8.24885C25.0235 8.16499 25.2644 8.15689 25.4888 8.22574L28.297 9.07767L30.5688 7.22654C30.7545 7.07981 30.9843 7 31.2209 7C31.4576 7 31.6874 7.07981 31.873 7.22654L34.2185 8.98299L36.9952 8.0259C37.2164 7.95052 37.4564 7.95094 37.6773 8.02712C37.8982 8.1033 38.0875 8.25087 38.2152 8.44657L39.8139 10.9077L42.7484 10.9603C42.99 10.9539 43.2266 11.0309 43.4182 11.1784C43.6097 11.3259 43.7446 11.5349 43.8001 11.7702L44.4627 14.631L47.2079 15.6828C47.4158 15.7649 47.5921 15.9112 47.7112 16.1003C47.8303 16.2894 47.8861 16.5116 47.8705 16.7345L47.5234 19.648L49.7426 21.5727C49.9192 21.7274 50.0389 21.9367 50.0828 22.1674C50.1266 22.398 50.092 22.6366 49.9846 22.8453L48.6593 25.4642L50.0792 28.0306C50.1943 28.2359 50.2372 28.474 50.201 28.7067C50.1647 28.9393 50.0515 29.1531 49.8794 29.3138L47.7758 31.3122L48.2386 34.215C48.2766 34.4464 48.2362 34.6839 48.1238 34.8897C48.0113 35.0956 47.8333 35.2579 47.6181 35.3509L44.9676 36.4763L44.4102 39.3582C44.3658 39.5891 44.2453 39.7984 44.068 39.9529C43.8907 40.1073 43.6668 40.1979 43.432 40.2101L40.4976 40.3679L38.9515 42.8501C38.8304 43.0511 38.6455 43.2058 38.4264 43.2897C38.2072 43.3735 37.9663 43.3817 37.7419 43.3128L34.9337 42.4609L32.6513 44.312C32.4678 44.4741 32.2335 44.5671 31.9887 44.575V44.575ZM29.191 40.3679C29.4222 40.3656 29.6477 40.4395 29.8326 40.5783L31.9361 42.1874L34.0397 40.5046C34.1723 40.3946 34.3298 40.3188 34.4986 40.284C34.6673 40.2491 34.842 40.2563 35.0073 40.3048L37.5631 41.0831L38.9409 38.7902C39.0306 38.6426 39.1552 38.5193 39.3038 38.4313C39.4524 38.3432 39.6203 38.2931 39.7929 38.2853L42.4539 38.1381L42.9692 35.5192C43.0019 35.3503 43.0756 35.1919 43.1838 35.058C43.292 34.9241 43.4314 34.8188 43.5898 34.7514L46.0404 33.6996L45.6302 31.0597C45.6039 30.8914 45.6189 30.7192 45.6739 30.558C45.7288 30.3968 45.8221 30.2513 45.9457 30.1341L47.902 28.304L46.5978 26.0217C46.5168 25.8695 46.4744 25.6998 46.4744 25.5274C46.4744 25.355 46.5168 25.1852 46.5978 25.033L47.7969 22.6455L45.788 20.8996C45.6568 20.7866 45.5556 20.6431 45.4932 20.4816C45.4308 20.3202 45.4092 20.1458 45.4304 19.974L45.7459 17.3235L43.2532 16.3664C43.0935 16.3038 42.9515 16.2029 42.8396 16.0728C42.7278 15.9426 42.6495 15.787 42.6116 15.6197L42.0016 13.0113H39.3301C39.1586 13.0087 38.9904 12.9642 38.8401 12.8817C38.6898 12.7992 38.5619 12.6812 38.4677 12.538L36.9952 10.2451L34.4709 11.1181C34.3075 11.1742 34.1327 11.1891 33.9621 11.1616C33.7915 11.1341 33.6303 11.065 33.4928 10.9603L31.3892 9.36161L29.2857 11.0445C29.1521 11.1527 28.9941 11.2265 28.8254 11.2595C28.6567 11.2925 28.4825 11.2837 28.318 11.2338L25.7622 10.4555L24.3844 12.7483C24.2958 12.8946 24.1728 13.0169 24.0262 13.1049C23.8796 13.1929 23.7137 13.2438 23.543 13.2532L20.8715 13.4004L20.3666 16.0193C20.3339 16.1883 20.2603 16.3467 20.1521 16.4806C20.0439 16.6145 19.9045 16.7197 19.7461 16.7871L17.2849 17.8389L17.7057 20.4788C17.7337 20.6488 17.7196 20.823 17.6646 20.9862C17.6096 21.1495 17.5154 21.2967 17.3901 21.4149L15.4338 23.2345L16.7275 25.5695C16.8085 25.7216 16.8509 25.8914 16.8509 26.0638C16.8509 26.2362 16.8085 26.4059 16.7275 26.5581L15.518 28.9141L17.5374 30.6705C17.667 30.7824 17.7673 30.9243 17.8296 31.0837C17.8919 31.2432 17.9143 31.4154 17.895 31.5856L17.5689 34.236L20.0616 35.1931C20.2233 35.2544 20.3674 35.3546 20.4812 35.4849C20.5949 35.6151 20.6748 35.7714 20.7137 35.9399L21.3238 38.5483H23.9953C24.1667 38.5509 24.3349 38.5954 24.4852 38.6779C24.6356 38.7604 24.7634 38.8784 24.8577 39.0216L26.3197 41.2619L28.8439 40.3889C28.9586 40.37 29.0754 40.3666 29.191 40.3784V40.3679Z" fill="#404040"/>
<path d="M32.5357 24.402H29.3804V26.5056H32.5357V24.402Z" fill="#FA4616"/>
<path d="M33.5875 30.7126H28.3286V20.1949H33.5875V22.2985H30.4322V28.6091H33.5875V30.7126Z" fill="#FA4616"/>
<path d="M27.2767 30.7126H24.784L22.0179 24.4966V30.7126H19.9143V20.1949H22.3965L25.1732 26.4109V20.1949H27.2767V30.7126Z" fill="#FA4616"/>
<path d="M43.0533 30.7126H40.5817L38.8462 27.4942L37.1003 30.7126H34.6392V20.1949H36.7427V26.9578L38.8462 23.0662L40.9498 26.9578V20.1949H43.0533V30.7126Z" fill="#FA4616"/>
</svg>
