<svg width="64" height="64" viewBox="0 0 64 64" fill="none" xmlns="http://www.w3.org/2000/svg">
<path d="M30.4674 57H28.2935V53.1957L28.7282 52.8696C28.7282 52.8696 31.5543 50.6957 31.5543 48.3043V47.2174H33.7282V48.3043C33.7282 51.1087 31.4565 53.4022 30.4674 54.25V57Z" fill="#404040"/>
<path d="M12 57V42.8696C12 39.0761 14.0978 37.163 15.6196 35.7717L20.0217 32.2391L21.3804 33.9348L17.0326 37.4131C15.663 38.6848 14.1739 40.0326 14.1739 42.8478V56.9783L12 57Z" fill="#404040"/>
<path d="M22.6957 52.6522V50.4782C23.6825 50.2639 24.564 49.7128 25.1887 48.9194C25.8135 48.1261 26.1426 47.14 26.1196 46.1304V43.4565L26.5001 43.1304C26.5001 43.1304 27.587 42.1739 28.7392 41.0652C29.1783 40.4962 29.4083 39.7935 29.3904 39.075C29.3726 38.3565 29.1081 37.666 28.6414 37.1195C28.3153 36.8261 28.174 36.9239 27.9783 37.1195C25.9892 39.1087 19.2826 45.5543 18.9348 45.8152L17.4348 44.2391C17.5109 44.1739 24.4783 37.5326 26.4457 35.5435C26.6752 35.2922 26.9531 35.0899 27.2628 34.9488C27.5725 34.8078 27.9076 34.7309 28.2478 34.7227C28.588 34.7146 28.9263 34.7754 29.2424 34.9015C29.5585 35.0276 29.8458 35.2164 30.087 35.4565C30.977 36.3813 31.4999 37.5986 31.5579 38.8808C31.6159 40.163 31.2051 41.4225 30.4022 42.4239L30.3153 42.5108C29.5218 43.3043 28.7501 44.0108 28.2935 44.413V46.0869C28.3201 47.6753 27.7661 49.2187 26.7354 50.4275C25.7047 51.6363 24.2683 52.4273 22.6957 52.6522V52.6522Z" fill="#404040"/>
<path d="M51.3913 48.3043H27.4782V46.1304H50.3043V9.17391H21.5108V43.3913H19.3369V8.08696C19.3369 7.79868 19.4514 7.52219 19.6553 7.31834C19.8591 7.1145 20.1356 7 20.4239 7H51.3913C51.6796 7 51.956 7.1145 52.1599 7.31834C52.3637 7.52219 52.4782 7.79868 52.4782 8.08696V47.2174C52.4782 47.5057 52.3637 47.7821 52.1599 47.986C51.956 48.1898 51.6796 48.3043 51.3913 48.3043Z" fill="#404040"/>
<path d="M33.0108 31.9022C32.7257 31.901 32.4524 31.7878 32.2499 31.587L27.9021 27.2391L29.4347 25.7065L32.913 29.1848L42.3043 17.1087L44.0217 18.4457L33.8695 31.4891C33.7741 31.6103 33.654 31.7099 33.5172 31.7811C33.3804 31.8523 33.23 31.8936 33.076 31.9022H33.0108Z" fill="#FA4616"/>
</svg>
