<svg width="64" height="64" viewBox="0 0 64 64" fill="none" xmlns="http://www.w3.org/2000/svg">
<path d="M39.3284 45.5498C39.1274 45.5508 38.9309 45.4904 38.7652 45.3765L31.3891 40.7949L24.0131 45.3657C23.8309 45.4786 23.6193 45.5349 23.405 45.5275C23.1908 45.5201 22.9836 45.4493 22.8096 45.324C22.6357 45.1988 22.5028 45.0247 22.4278 44.8239C22.3528 44.6231 22.3391 44.4045 22.3884 44.1959L24.4355 35.5309L17.796 29.3896C17.6408 29.2452 17.5314 29.0585 17.4813 28.8524C17.4313 28.6464 17.4427 28.4302 17.5144 28.2307C17.586 28.0314 17.7144 27.8575 17.8838 27.7305C18.0532 27.6034 18.2562 27.5288 18.4675 27.5159L27.0675 27.0393L30.3168 18.3743C30.3948 18.1688 30.5334 17.9919 30.7143 17.867C30.8952 17.7422 31.1098 17.6753 31.3296 17.6753C31.5494 17.6753 31.7639 17.7422 31.9448 17.867C32.1257 17.9919 32.2643 18.1688 32.3423 18.3743L35.6458 27.0393L44.2458 27.5159C44.4581 27.5269 44.6625 27.6002 44.8335 27.7267C45.0045 27.8531 45.1344 28.0271 45.2072 28.2269C45.28 28.4267 45.2923 28.6435 45.2427 28.8503C45.193 29.057 45.0837 29.2446 44.9281 29.3896L38.2886 35.5201L40.3357 44.185C40.3755 44.387 40.357 44.5962 40.2821 44.7881C40.2073 44.9799 40.0794 45.1464 39.9133 45.2682C39.7495 45.4163 39.5464 45.5141 39.3284 45.5498V45.5498ZM31.3891 38.4445C31.5919 38.4439 31.7908 38.5002 31.9632 38.607L37.6821 42.1596L36.0899 35.4009C36.0377 35.209 36.0394 35.0064 36.0949 34.8153C36.1503 34.6242 36.2572 34.4521 36.404 34.3178L41.6355 29.4872L34.8876 29.1189C34.6788 29.1077 34.4776 29.0363 34.3085 28.9133C34.1394 28.7903 34.0095 28.6209 33.9345 28.4257L31.3891 21.7428L28.8438 28.4257C28.7688 28.6209 28.6389 28.7903 28.4698 28.9133C28.3006 29.0363 28.0995 29.1077 27.8907 29.1189L21.1428 29.4872L26.3635 34.3178C26.5121 34.4509 26.6212 34.6225 26.6785 34.8136C26.7358 35.0048 26.7393 35.208 26.6884 35.4009L25.0962 42.1163L30.8151 38.5745C30.9908 38.479 31.1895 38.434 31.3891 38.4445V38.4445Z" fill="#FA4616"/>
<path d="M31.6165 56.9984C31.3734 57 31.1369 56.92 30.9449 56.7709L27.6955 54.2256L23.7638 55.5036C23.5352 55.5766 23.2887 55.5714 23.0633 55.4891C22.8378 55.4068 22.6461 55.2519 22.5182 55.0488L20.352 51.5503L16.2253 51.3986C15.9846 51.3895 15.7538 51.3004 15.5695 51.1455C15.3851 50.9905 15.2576 50.7785 15.2072 50.543L14.3407 46.5029L10.5173 44.9541C10.2936 44.8646 10.1061 44.7031 9.98452 44.4952C9.8629 44.2873 9.81406 44.0448 9.84574 43.806L10.4198 39.7118L7.35457 36.9498C7.17631 36.7878 7.05715 36.5709 7.01595 36.3335C6.97476 36.0962 7.01387 35.8519 7.12711 35.6393L9.06589 31.9999L7.12711 28.3498C7.01387 28.1372 6.97476 27.8929 7.01595 27.6556C7.05715 27.4182 7.17631 27.2013 7.35457 27.0393L10.4198 24.2774L9.84574 20.1831C9.81406 19.9443 9.8629 19.7018 9.98452 19.4939C10.1061 19.286 10.2936 19.1245 10.5173 19.035L14.3407 17.4862L15.2072 13.4462C15.2576 13.2106 15.3851 12.9986 15.5695 12.8436C15.7538 12.6887 15.9846 12.5996 16.2253 12.5905L20.352 12.4496L22.5182 8.95119C22.6445 8.74613 22.8356 8.58897 23.0612 8.50463C23.2867 8.42028 23.534 8.41356 23.7638 8.48546L27.6955 9.76353L30.9449 7.229C31.1352 7.08056 31.3697 7 31.611 7C31.8524 7 32.0868 7.08056 32.2772 7.229L35.5265 9.76353L39.4474 8.48546C39.6787 8.41087 39.9284 8.41625 40.1563 8.50073C40.3842 8.5852 40.577 8.74385 40.7038 8.95119L42.8701 12.4496L46.9967 12.5905C47.2374 12.5996 47.4682 12.6887 47.6526 12.8436C47.837 12.9986 47.9645 13.2106 48.0149 13.4462L48.8705 17.4862L52.7048 19.035C52.9264 19.1263 53.1115 19.2886 53.2311 19.4963C53.3507 19.7041 53.3979 19.9456 53.3655 20.1831L52.7914 24.2774L55.8567 27.0393C56.0367 27.2 56.1579 27.4162 56.2011 27.6536C56.2443 27.891 56.2069 28.1361 56.0949 28.3498L54.2212 31.9999L56.1599 35.6393C56.2719 35.8531 56.3092 36.0981 56.2661 36.3355C56.2229 36.573 56.1017 36.7891 55.9217 36.9498L52.8564 39.7118L53.4305 43.806C53.4629 44.0435 53.4157 44.285 53.2961 44.4928C53.1765 44.7005 52.9914 44.8628 52.7698 44.9541L48.9355 46.5029L48.0799 50.543C48.0295 50.7785 47.902 50.9905 47.7176 51.1455C47.5332 51.3004 47.3024 51.3895 47.0617 51.3986L42.935 51.5503L40.7688 55.0488C40.6404 55.2542 40.4469 55.4106 40.2191 55.4931C39.9913 55.5755 39.7425 55.5792 39.5124 55.5036L35.5915 54.2256L32.3421 56.7709C32.1357 56.932 31.8779 57.0127 31.6165 56.9984V56.9984ZM27.9122 51.9402C28.1515 51.941 28.3838 52.021 28.5729 52.1677L31.6165 54.5397L34.66 52.1677C34.7995 52.0599 34.9631 51.9877 35.1368 51.9575C35.3104 51.9273 35.4888 51.94 35.6565 51.9944L39.3283 53.175L41.3754 49.9256C41.4689 49.7756 41.5978 49.6508 41.7507 49.562C41.9037 49.4733 42.076 49.4233 42.2527 49.4165L46.1086 49.2757L46.9101 45.5065C46.9465 45.3333 47.0247 45.1717 47.138 45.0357C47.2513 44.8998 47.3962 44.7936 47.56 44.7266L51.1343 43.2753L50.6035 39.4627C50.5773 39.2858 50.5952 39.1053 50.6557 38.9371C50.7161 38.7689 50.8173 38.6183 50.9501 38.4987L53.8204 35.9209L52.0549 32.4982C51.9733 32.3429 51.9307 32.1701 51.9307 31.9946C51.9307 31.8191 51.9733 31.6462 52.0549 31.4909L53.8637 28.0791L50.9718 25.5012C50.8406 25.3827 50.7405 25.2339 50.68 25.0677C50.6196 24.9016 50.6008 24.7232 50.6252 24.5481L51.1559 20.7247L47.5816 19.2733C47.4178 19.2063 47.273 19.1002 47.1597 18.9642C47.0464 18.8283 46.9681 18.6667 46.9318 18.4935L46.1302 14.7242L42.2743 14.5834C42.0987 14.5778 41.927 14.5295 41.7741 14.4427C41.6213 14.3559 41.4919 14.2332 41.397 14.0852L39.3499 10.8358L35.6782 12.0272C35.5096 12.0801 35.3307 12.091 35.1571 12.0589C34.9834 12.0268 34.8202 11.9527 34.6817 11.8431L31.6381 9.47106L28.5729 11.789C28.4344 11.8986 28.2712 11.9726 28.0975 12.0047C27.9238 12.0368 27.7449 12.0259 27.5764 11.9731L23.8938 10.8141L21.8467 14.0635C21.7519 14.2115 21.6224 14.3342 21.4696 14.421C21.3167 14.5078 21.1451 14.5561 20.9694 14.5617L17.1135 14.7026L16.312 18.4718C16.2745 18.6461 16.1946 18.8086 16.0794 18.9446C15.9641 19.0806 15.8171 19.1861 15.6513 19.2517L12.077 20.703L12.6185 24.5265C12.6429 24.7016 12.6241 24.8799 12.5637 25.0461C12.5033 25.2122 12.4031 25.3611 12.2719 25.4796L9.41249 28.0358L11.2213 31.4476C11.3029 31.6029 11.3455 31.7758 11.3455 31.9512C11.3455 32.1267 11.3029 32.2996 11.2213 32.4549L9.41249 35.8667L12.2828 38.4445C12.4112 38.5674 12.5094 38.7184 12.5695 38.8857C12.6297 39.053 12.6502 39.232 12.6294 39.4085L12.0878 43.2211L15.6621 44.6725C15.8279 44.738 15.975 44.8435 16.0902 44.9795C16.2055 45.1156 16.2854 45.278 16.3228 45.4523L17.1243 49.2216L20.9802 49.3624C21.1569 49.3692 21.3292 49.4191 21.4822 49.5079C21.6351 49.5966 21.764 49.7214 21.8575 49.8714L23.9046 53.1208L27.5764 51.9402C27.6873 51.9186 27.8013 51.9186 27.9122 51.9402V51.9402Z" fill="#404040"/>
</svg>
