<svg width="64" height="64" viewBox="0 0 64 64" fill="none" xmlns="http://www.w3.org/2000/svg">
<path d="M42.5581 56.8547C39.7017 56.8547 36.9096 56.0077 34.5346 54.4208C32.1597 52.8339 30.3086 50.5784 29.2155 47.9395C28.1225 45.3006 27.8365 42.3968 28.3937 39.5954C28.951 36.794 30.3264 34.2207 32.3461 32.2009C34.3659 30.1812 36.9392 28.8058 39.7406 28.2485C42.5421 27.6913 45.4458 27.9773 48.0847 29.0703C50.7236 30.1634 52.9792 32.0144 54.566 34.3894C56.1529 36.7644 56.9999 39.5565 56.9999 42.4129C56.9999 46.2431 55.4784 49.9164 52.77 52.6248C50.0616 55.3332 46.3883 56.8547 42.5581 56.8547ZM42.5581 30.0341C40.1098 30.0341 37.7165 30.7601 35.6808 32.1203C33.6451 33.4805 32.0585 35.4138 31.1216 37.6757C30.1847 39.9376 29.9396 42.4266 30.4172 44.8278C30.8948 47.2291 32.0738 49.4347 33.805 51.1659C35.5362 52.8971 37.7419 54.0761 40.1431 54.5537C42.5443 55.0314 45.0333 54.7862 47.2952 53.8493C49.5571 52.9124 51.4904 51.3258 52.8506 49.2901C54.2108 47.2544 54.9368 44.8611 54.9368 42.4129C54.9368 39.1298 53.6326 35.9812 51.3112 33.6598C48.9897 31.3383 45.8411 30.0341 42.5581 30.0341Z" fill="#404040"/>
<path d="M22.4735 27.3934C21.3653 27.4187 20.2636 27.2156 19.2373 26.7967C18.2109 26.3779 17.2817 25.7523 16.5076 24.9588C15.7334 24.1653 15.1309 23.221 14.7376 22.1845C14.3442 21.1481 14.1684 20.0419 14.221 18.9346V16.2525C14.221 14.0638 15.0905 11.9647 16.6381 10.4171C18.1858 8.86945 20.2848 8 22.4735 8C24.6622 8 26.7613 8.86945 28.3089 10.4171C29.8566 11.9647 30.726 14.0638 30.726 16.2525V18.9346C30.7772 20.0415 30.6003 21.1471 30.2063 22.1828C29.8124 23.2185 29.2099 24.1623 28.436 24.9554C27.6622 25.7486 26.7337 26.3743 25.708 26.7936C24.6823 27.213 23.5814 27.4171 22.4735 27.3934ZM22.4735 9.85681C21.6364 9.83225 20.8033 9.98251 20.0275 10.298C19.2517 10.6135 18.5502 11.0873 17.9678 11.6891C17.3854 12.2909 16.9348 13.0076 16.6449 13.7933C16.355 14.5791 16.2322 15.4166 16.2842 16.2525V18.9346C16.2842 20.5761 16.9363 22.1504 18.097 23.3111C19.2577 24.4718 20.832 25.1239 22.4735 25.1239C24.115 25.1239 25.6893 24.4718 26.8501 23.3111C28.0108 22.1504 28.6629 20.5761 28.6629 18.9346V16.2525C28.7149 15.4166 28.592 14.5791 28.3021 13.7933C28.0122 13.0076 27.5617 12.2909 26.9793 11.6891C26.3969 11.0873 25.6954 10.6135 24.9195 10.298C24.1437 9.98251 23.3107 9.83225 22.4735 9.85681V9.85681Z" fill="#404040"/>
<path d="M8.03156 44.9299C7.75797 44.9299 7.49559 44.8212 7.30214 44.6278C7.10868 44.4343 7 44.1719 7 43.8983V35.6458C7 28.3527 17.0784 25.3302 22.4734 25.3302C25.8908 25.402 29.2478 26.2448 32.2939 27.7957C32.4171 27.8567 32.5268 27.9418 32.6166 28.0459C32.7065 28.1501 32.7746 28.2711 32.817 28.4019C32.8593 28.5327 32.8751 28.6706 32.8634 28.8076C32.8517 28.9446 32.8128 29.0779 32.7488 29.1997C32.6848 29.3214 32.5972 29.4291 32.491 29.5164C32.3848 29.6038 32.2623 29.6691 32.1305 29.7084C31.9987 29.7477 31.8604 29.7602 31.7237 29.7453C31.5871 29.7304 31.4547 29.6883 31.3345 29.6215C28.5867 28.2199 25.5574 27.4581 22.4734 27.3934C17.656 27.3934 9.06312 30.1476 9.06312 35.6458V43.8983C9.06312 44.0338 9.03644 44.1679 8.9846 44.2931C8.93276 44.4182 8.85678 44.532 8.76099 44.6278C8.6652 44.7235 8.55148 44.7995 8.42632 44.8514C8.30117 44.9032 8.16703 44.9299 8.03156 44.9299Z" fill="#404040"/>
<path d="M39.8142 49.6338C39.6785 49.6346 39.5439 49.6086 39.4182 49.5572C39.2925 49.5059 39.1782 49.4303 39.0818 49.3347L34.9556 45.2084L36.4101 43.7539L39.7111 47.0446L48.6238 35.5943L50.2536 36.8837L40.6292 49.2625C40.5386 49.3775 40.4247 49.4719 40.2948 49.5395C40.165 49.6071 40.0223 49.6463 39.8761 49.6545L39.8142 49.6338Z" fill="#FA4616"/>
</svg>
