<svg width="64" height="64" viewBox="0 0 64 64" fill="none" xmlns="http://www.w3.org/2000/svg">
<path fill-rule="evenodd" clip-rule="evenodd" d="M30.4681 27.7735C30.138 27.69 29.7912 27.6996 29.4661 27.8011C29.141 27.9026 28.8504 28.0922 28.6266 28.3488C28.4027 28.6053 28.2542 28.919 28.1977 29.2548L28.1973 29.2571L28.1348 29.6216C28.0621 30.0455 27.6605 30.3309 27.2363 30.2602L26.8613 30.1977L26.8561 30.1968C26.5206 30.1386 26.1755 30.1743 25.8592 30.3002C25.5428 30.426 25.2675 30.637 25.0637 30.9098C24.8599 31.1825 24.7356 31.5064 24.7045 31.8455C24.6736 32.184 24.7368 32.5245 24.8873 32.8294C24.8875 32.8298 24.8877 32.8303 24.888 32.8307L25.0531 33.1611C25.246 33.547 25.0896 34.0162 24.7038 34.2092L24.3664 34.3779C24.0615 34.5282 23.804 34.7599 23.6226 35.0474C23.4411 35.3349 23.3426 35.667 23.3381 36.007C23.3335 36.3469 23.4231 36.6815 23.5968 36.9738C23.7705 37.266 24.0217 37.5045 24.3225 37.6629L24.325 37.6642L24.6583 37.8413C24.8413 37.9385 24.9782 38.1044 25.0389 38.3026C25.0995 38.5007 25.079 38.7148 24.9818 38.8978L24.8057 39.2292C24.8056 39.2295 24.8059 39.2289 24.8057 39.2292C24.6473 39.5299 24.5746 39.8693 24.5965 40.2085C24.6184 40.548 24.7338 40.8748 24.93 41.1527C25.1261 41.4307 25.3954 41.6489 25.7079 41.7833C26.0204 41.9178 26.364 41.9631 26.7007 41.9143L26.7052 41.9137L27.0802 41.8616C27.304 41.8305 27.5303 41.8979 27.7007 42.0462C27.8711 42.1946 27.9689 42.4095 27.9689 42.6354V42.9497C28.0237 43.2683 28.1613 43.5672 28.3684 43.8163C28.5864 44.0784 28.8727 44.2749 29.1956 44.3841C29.5185 44.4932 29.8654 44.5107 30.1977 44.4346C30.5288 44.3588 30.8326 44.1929 31.0755 43.9552L31.3332 43.6976C31.4816 43.5492 31.6834 43.4667 31.8933 43.4688C32.1031 43.4708 32.3033 43.5572 32.4488 43.7085L32.7092 43.9794L32.7198 43.9906C32.9543 44.2444 33.2551 44.4276 33.5881 44.5195C33.9212 44.6114 34.2734 44.6085 34.6049 44.5109C34.9364 44.4134 35.234 44.2251 35.4642 43.9675C35.6938 43.7106 35.8471 43.3948 35.9072 43.0556L35.9691 42.6841C36.0033 42.4791 36.1177 42.2961 36.2871 42.1757C36.4565 42.0553 36.6669 42.0074 36.8717 42.0425L37.238 42.1053C37.5735 42.1635 37.9185 42.1278 38.2349 42.0019C38.5512 41.8761 38.8266 41.6651 39.0304 41.3923C39.2342 41.1196 39.3585 40.7957 39.3896 40.4567C39.4205 40.1181 39.3573 39.7776 39.2068 39.4727C39.2066 39.4723 39.2064 39.4718 39.2061 39.4714L39.041 39.1411C38.9476 38.9543 38.9329 38.7378 39.0001 38.5401C39.0674 38.3424 39.211 38.1798 39.399 38.0887L39.7381 37.9243C39.7388 37.924 39.7395 37.9236 39.7402 37.9233C40.0442 37.7729 40.3009 37.5416 40.482 37.2547C40.6634 36.9672 40.7619 36.6352 40.7664 36.2952C40.771 35.9552 40.6814 35.6206 40.5077 35.3284C40.3339 35.0361 40.0828 34.7976 39.782 34.6392L39.7795 34.6379L39.4462 34.4608C39.2632 34.3636 39.1263 34.1977 39.0656 33.9995C39.005 33.8014 39.0255 33.5873 39.1227 33.4043L39.2991 33.0724C39.2992 33.0722 39.299 33.0726 39.2991 33.0724C39.4582 32.7711 39.531 32.431 39.5089 32.091C39.4867 31.7507 39.3706 31.4233 39.1735 31.145C38.9763 30.8668 38.7059 30.6486 38.3923 30.5149C38.0786 30.3811 37.734 30.3369 37.3968 30.3873C37.3586 30.393 37.32 30.3958 37.2814 30.3958H36.9168C36.5281 30.3958 36.1984 30.11 36.1434 29.7251L36.0914 29.3605L36.091 29.3583C36.0437 29.0203 35.9035 28.702 35.686 28.439C35.4685 28.1759 35.1823 27.9784 34.8592 27.8685C34.5361 27.7585 34.1888 27.7403 33.856 27.8161C33.5232 27.8918 33.2179 28.0584 32.9742 28.2974L32.9688 28.3028L32.6979 28.5632C32.5486 28.7068 32.3483 28.7852 32.1411 28.7811C31.9339 28.7771 31.7369 28.6909 31.5933 28.5415L31.3348 28.2727C31.0974 28.0296 30.7974 27.8569 30.4681 27.7735ZM32.1736 26.9254C31.7883 26.6099 31.3372 26.3817 30.8514 26.2588C30.2414 26.1044 29.6007 26.1221 29.0002 26.3097C28.3997 26.4972 27.8629 26.8474 27.4492 27.3215C27.1218 27.6967 26.8817 28.1379 26.7441 28.6132C26.2468 28.5835 25.7475 28.663 25.2817 28.8483C24.6972 29.0808 24.1885 29.4706 23.812 29.9745C23.4355 30.4784 23.2058 31.0767 23.1485 31.7031C23.103 32.201 23.1677 32.7012 23.3362 33.1685C22.9206 33.4364 22.5669 33.7925 22.3013 34.2133C21.966 34.7445 21.7841 35.358 21.7757 35.9861C21.7673 36.6142 21.9328 37.2323 22.2537 37.7722C22.5089 38.2015 22.8545 38.568 23.2648 38.8473C23.0833 39.3106 23.0049 39.8096 23.0372 40.3092C23.0777 40.9364 23.291 41.5402 23.6534 42.0536C24.0157 42.5671 24.5131 42.9704 25.0905 43.2187C25.5336 43.4093 26.0106 43.5029 26.4896 43.4955C26.6153 43.9783 26.846 44.4293 27.167 44.8153C27.5697 45.2995 28.0986 45.6626 28.6953 45.8643C29.2918 46.066 29.9327 46.0983 30.5465 45.9577C31.0282 45.8474 31.4784 45.634 31.867 45.3341C32.2453 45.656 32.6905 45.8927 33.1724 46.0257C33.7862 46.1951 34.4351 46.1896 35.046 46.0099C35.6568 45.8301 36.2052 45.4833 36.6295 45.0085C36.9697 44.6277 37.2191 44.1767 37.3613 43.6895C37.8548 43.7174 38.3501 43.6377 38.8124 43.4538C39.3969 43.2213 39.9056 42.8315 40.2821 42.3276C40.6586 41.8237 40.8883 41.2254 40.9456 40.599C40.9909 40.103 40.9269 39.6049 40.7598 39.139C41.1791 38.8705 41.5358 38.5124 41.8032 38.0888C42.1385 37.5576 42.3204 36.9442 42.3288 36.3161C42.3372 35.688 42.1718 35.0699 41.8508 34.5299C41.5956 34.1008 41.2501 33.7343 40.8399 33.455C41.0221 32.9906 41.1007 32.4903 41.068 31.9894C41.0271 31.3608 40.8126 30.7558 40.4484 30.2418C40.0843 29.7277 39.5847 29.3247 39.0052 29.0776C38.5519 28.8843 38.0636 28.7923 37.5741 28.8059C37.4524 28.3073 37.2191 27.8411 36.8902 27.4433C36.4884 26.9574 35.9596 26.5925 35.3627 26.3893C34.7657 26.1861 34.1241 26.1526 33.5093 26.2925C33.0216 26.4035 32.5659 26.6202 32.1736 26.9254Z" fill="#FA4616"/>
<path fill-rule="evenodd" clip-rule="evenodd" d="M25.1889 51.3597L28.8222 45.0787L27.4697 44.2963L23.053 51.9317C22.9047 52.188 22.9141 52.5061 23.0772 52.7532C23.2402 53.0003 23.529 53.134 23.8229 53.0985L26.6036 52.7628L27.6973 55.3462C27.8125 55.6183 28.0712 55.8021 28.366 55.8213C28.6608 55.8405 28.9412 55.6917 29.0906 55.4369L31.6323 51.1036L30.2845 50.3131L28.5298 53.3047L27.8133 51.6121C27.6775 51.2914 27.3459 51.0993 27.0002 51.141L25.1889 51.3597Z" fill="#FA4616"/>
<path fill-rule="evenodd" clip-rule="evenodd" d="M36.8951 43.7654L41.6138 51.9321C41.7619 52.1884 41.7524 52.5063 41.5894 52.7534C41.4263 53.0004 41.1376 53.134 40.8437 53.0985L38.063 52.7628L36.9693 55.3462C36.8538 55.6191 36.5938 55.8032 36.298 55.8214C36.0022 55.8397 35.7215 55.689 35.5733 55.4323L29.865 45.5469L31.2181 44.7656L36.142 53.2925L36.8534 51.6121C36.9891 51.2914 37.3207 51.0993 37.6664 51.1411L39.4786 51.3599L35.5422 44.5471L36.8951 43.7654Z" fill="#FA4616"/>
<path fill-rule="evenodd" clip-rule="evenodd" d="M7 9.04167C7 8.46637 7.46637 8 8.04167 8H55.9583C56.5336 8 57 8.46637 57 9.04167V41.3333C57 41.9086 56.5336 42.375 55.9583 42.375H42.4167V40.2917H54.9167V10.0833H9.08333V40.2917H21.5833V42.375H8.04167C7.46637 42.375 7 41.9086 7 41.3333V9.04167Z" fill="#404040"/>
<path fill-rule="evenodd" clip-rule="evenodd" d="M40.3332 18.4167H23.6665V16.3333H40.3332V18.4167Z" fill="#404040"/>
<path fill-rule="evenodd" clip-rule="evenodd" d="M37.2084 22.5833H26.7917V20.5H37.2084V22.5833Z" fill="#404040"/>
<path fill-rule="evenodd" clip-rule="evenodd" d="M11.1667 12.1667H16.3751V14.25H13.2501V17.375H11.1667V12.1667Z" fill="#404040"/>
<path fill-rule="evenodd" clip-rule="evenodd" d="M47.625 12.1667H52.8333V17.375H50.75V14.25H47.625V12.1667Z" fill="#404040"/>
<path fill-rule="evenodd" clip-rule="evenodd" d="M11.1667 33H13.2501V36.125H16.3751V38.2083H11.1667V33Z" fill="#404040"/>
<path fill-rule="evenodd" clip-rule="evenodd" d="M50.75 36.125V33H52.8333V38.2083H47.625V36.125H50.75Z" fill="#404040"/>
<path fill-rule="evenodd" clip-rule="evenodd" d="M31.9999 30.1354C32.2867 30.1354 32.5504 30.2926 32.6869 30.5448L34.2032 33.3463L37.3028 33.7245C37.5943 33.7601 37.8412 33.956 37.942 34.2318C38.0428 34.5076 37.9804 34.8166 37.7806 35.0317L35.5871 37.3932L35.9917 40.1794C36.0317 40.4548 35.9222 40.7306 35.7043 40.9036C35.4863 41.0766 35.1928 41.1206 34.9337 41.0191L31.9999 39.8703L29.066 41.0191C28.8069 41.1206 28.5134 41.0766 28.2954 40.9036C28.0775 40.7306 27.968 40.4548 28.008 40.1794L28.4126 37.3932L26.2191 35.0317C26.0193 34.8166 25.957 34.5076 26.0577 34.2318C26.1585 33.956 26.4054 33.7601 26.6969 33.7245L29.7965 33.3463L31.3128 30.5448C31.4493 30.2926 31.7131 30.1354 31.9999 30.1354ZM31.9999 32.5579L30.9786 34.4448C30.8581 34.6673 30.6373 34.8178 30.3862 34.8484L28.4059 35.0901L29.8119 36.6037C29.9728 36.777 30.0466 37.0137 30.0126 37.2477L29.7473 39.0743L31.715 38.3038C31.8981 38.2321 32.1016 38.2321 32.2847 38.3038L34.2524 39.0743L33.9871 37.2477C33.9532 37.0137 34.027 36.777 34.1879 36.6037L35.5938 35.0901L33.6136 34.8484C33.3624 34.8178 33.1416 34.6673 33.0211 34.4448L31.9999 32.5579Z" fill="#FA4616"/>
</svg>
