<svg width="64" height="64" viewBox="0 0 64 64" fill="none" xmlns="http://www.w3.org/2000/svg">
<path d="M51.4261 41.861C51.1825 41.8641 50.9456 41.7818 50.7565 41.6282C50.5673 41.4747 50.438 41.2598 50.391 41.0208C50.3439 40.7818 50.3821 40.5338 50.4989 40.3201C50.6157 40.1063 50.8037 39.9403 51.0303 39.8508C52.0719 39.4341 52.9468 38.5072 54.0613 36.6427C52.9654 36.1762 51.7461 36.0846 50.5928 36.3823C49.5767 36.7308 48.6404 37.2789 47.8391 37.9944C47.0377 38.7099 46.3875 39.5783 45.9265 40.5487C45.8581 40.6677 45.7669 40.772 45.6582 40.8558C45.5495 40.9396 45.4253 41.0011 45.2928 41.0369C45.1603 41.0727 45.022 41.082 44.8859 41.0644C44.7498 41.0468 44.6185 41.0025 44.4995 40.9341C44.3805 40.8657 44.2761 40.7745 44.1923 40.6658C44.1086 40.5571 44.047 40.4329 44.0112 40.3004C43.9755 40.1679 43.9661 40.0296 43.9838 39.8935C44.0014 39.7574 44.0457 39.6261 44.1141 39.5071C44.7124 38.3028 45.5461 37.2306 46.5659 36.354C47.5856 35.4774 48.7707 34.814 50.0512 34.4032C51.0603 34.145 52.1113 34.0941 53.1407 34.2534C54.1701 34.4127 55.1565 34.7791 56.0404 35.3303C56.2758 35.4676 56.4481 35.6917 56.5201 35.9546C56.5922 36.2175 56.5583 36.4982 56.4258 36.7364C55.0613 39.205 53.7593 41.0174 51.8219 41.809C51.6946 41.8517 51.5602 41.8694 51.4261 41.861Z" fill="#404040"/>
<path d="M44.801 49.1523H44.4572C42.3396 48.9601 40.3652 48.0008 38.9055 46.4546C38.8079 46.3578 38.7304 46.2425 38.6775 46.1156C38.6246 45.9887 38.5974 45.8525 38.5974 45.715C38.5974 45.5775 38.6246 45.4414 38.6775 45.3144C38.7304 45.1875 38.8079 45.0724 38.9055 44.9755C42.8948 40.8091 48.1132 40.4133 51.8734 44.0068C52.0674 44.2019 52.1763 44.466 52.1763 44.7411C52.1763 45.0163 52.0674 45.2803 51.8734 45.4755C49.5402 47.9128 47.1654 49.1523 44.801 49.1523ZM41.1762 45.6525C42.1328 46.4588 43.3151 46.9499 44.5614 47.0587C45.504 47.035 46.4325 46.8238 47.2926 46.4375C48.1528 46.0513 48.9275 45.4976 49.5715 44.8088C47.0091 42.9548 43.9156 43.2569 41.1762 45.6525Z" fill="#404040"/>
<path d="M47.7384 34.7053H47.6655C47.391 34.6865 47.135 34.56 46.9535 34.3531C46.7719 34.1462 46.6797 33.8759 46.6969 33.6012C47.0822 27.8307 50.8632 24.2268 56.0191 24.5393C56.1564 24.5479 56.2906 24.5837 56.4139 24.6445C56.5373 24.7053 56.6474 24.7899 56.7379 24.8934C56.9202 25.0993 57.0139 25.3688 56.9983 25.6434C56.7483 29.3098 55.5608 31.893 53.4464 33.3721C53.2196 33.5128 52.9475 33.5611 52.6862 33.507C52.4248 33.453 52.1942 33.3007 52.0419 33.0815C51.8895 32.8624 51.8271 32.5932 51.8675 32.3294C51.9079 32.0656 52.0481 31.8273 52.259 31.6638C53.6235 30.716 54.4776 29.0182 54.8005 26.6121C51.332 26.8621 49.0613 29.4973 48.78 33.7366C48.7616 34 48.6437 34.2466 48.4503 34.4264C48.257 34.6063 48.0025 34.7059 47.7384 34.7053Z" fill="#404040"/>
<path d="M47.4887 27.6329C47.2691 27.6327 47.0551 27.5631 46.8774 27.434C46.6997 27.305 46.5673 27.123 46.4992 26.9142C44.7181 21.4146 46.8533 16.644 51.8114 15.0504C52.0731 14.9659 52.3577 14.9883 52.603 15.1129C52.7252 15.1744 52.8341 15.2594 52.9235 15.3631C53.0128 15.4668 53.0809 15.587 53.1238 15.717C54.2487 19.2168 54.1029 22.0812 52.6759 24.2269C52.6 24.3411 52.5023 24.4392 52.3885 24.5157C52.2746 24.5921 52.1468 24.6455 52.0124 24.6726C51.8779 24.6997 51.7395 24.7 51.6049 24.6735C51.4703 24.6471 51.3423 24.5944 51.2281 24.5185C51.1138 24.4426 51.0157 24.345 50.9392 24.2311C50.8628 24.1173 50.8095 23.9895 50.7824 23.855C50.7553 23.7206 50.755 23.5821 50.7814 23.4476C50.8078 23.313 50.8605 23.1849 50.9364 23.0707C51.8634 21.6854 52.0301 19.7897 51.4468 17.4253C48.322 18.9356 47.1762 22.2374 48.4782 26.2788C48.5203 26.4095 48.5362 26.5471 48.5249 26.6839C48.5136 26.8206 48.4754 26.9538 48.4125 27.0757C48.3496 27.1977 48.2632 27.306 48.1583 27.3945C48.0534 27.483 47.932 27.5498 47.8012 27.5913C47.6998 27.6209 47.5944 27.6349 47.4887 27.6329V27.6329Z" fill="#404040"/>
<path d="M12.6264 41.8611C12.4902 41.8594 12.3558 41.8312 12.2305 41.7778C10.2932 40.9862 8.98076 39.1738 7.61627 36.7052C7.48374 36.467 7.44986 36.1863 7.52191 35.9234C7.59396 35.6605 7.7662 35.4364 8.00166 35.299C8.88758 34.7481 9.87575 34.382 10.9068 34.2227C11.9378 34.0634 12.9904 34.1141 14.0013 34.372C15.2817 34.7828 16.4668 35.4461 17.4866 36.3228C18.5063 37.1994 19.34 38.2715 19.9384 39.4758C20.0733 39.7163 20.1074 40.0004 20.0332 40.2659C19.959 40.5315 19.7826 40.7567 19.5426 40.8924C19.3034 41.0282 19.0202 41.0639 18.7548 40.9917C18.4895 40.9195 18.2634 40.7453 18.126 40.507C17.665 39.5367 17.0147 38.6683 16.2134 37.9528C15.4121 37.2373 14.4758 36.6892 13.4596 36.3406C12.3029 36.0429 11.0803 36.1344 9.98069 36.601C11.1056 38.4655 11.991 39.3925 13.0222 39.8092C13.1489 39.8616 13.264 39.9385 13.3608 40.0355C13.4577 40.1326 13.5345 40.2478 13.5868 40.3746C13.639 40.5014 13.6657 40.6372 13.6654 40.7743C13.665 40.9115 13.6376 41.0472 13.5846 41.1736C13.5131 41.3717 13.3832 41.5433 13.2122 41.666C13.0411 41.7887 12.8368 41.8568 12.6264 41.8611Z" fill="#404040"/>
<path d="M19.1987 49.1523C16.8343 49.1523 14.4595 47.9128 12.1159 45.465C11.9219 45.2699 11.813 45.0059 11.813 44.7307C11.813 44.4555 11.9219 44.1916 12.1159 43.9964C15.876 40.4029 21.084 40.7883 25.0733 44.9651C25.1693 45.0645 25.2445 45.182 25.2945 45.3108C25.3446 45.4395 25.3685 45.5769 25.365 45.715C25.3617 45.8518 25.3315 45.9866 25.2761 46.1117C25.2207 46.2368 25.1412 46.3498 25.0421 46.4442C23.5836 47.9919 21.6085 48.9517 19.4904 49.1419L19.1987 49.1523ZM14.4178 44.8088C16.1573 46.3816 17.8342 47.142 19.4279 47.0587C20.6778 46.952 21.864 46.4607 22.8235 45.6525C20.0737 43.2569 16.9906 42.9548 14.4178 44.8088Z" fill="#404040"/>
<path d="M16.2615 34.7053C15.9974 34.7059 15.743 34.6063 15.5496 34.4264C15.3562 34.2466 15.2384 34 15.2199 33.7366C14.9387 29.4973 12.6576 26.8621 9.18903 26.6121C9.52234 29.0182 10.3765 30.716 11.7409 31.6638C11.9672 31.8215 12.1216 32.0625 12.1704 32.3339C12.2192 32.6053 12.1584 32.885 12.0013 33.1117C11.8436 33.3379 11.6027 33.4923 11.3313 33.5411C11.0599 33.5899 10.7802 33.5291 10.5535 33.3721C8.47034 31.9034 7.24125 29.3098 7.00168 25.6434C6.98608 25.3688 7.07968 25.0992 7.26208 24.8934C7.44234 24.6867 7.69685 24.5595 7.97037 24.5393C13.1784 24.1851 16.9177 27.8307 17.2927 33.6012C17.3098 33.8759 17.2176 34.1462 17.0361 34.3531C16.8546 34.5599 16.5986 34.6865 16.324 34.7053H16.2615Z" fill="#404040"/>
<path d="M16.5113 27.6329C16.4042 27.6481 16.2955 27.6481 16.1884 27.6329C15.9261 27.5471 15.7085 27.3607 15.5836 27.1146C15.4586 26.8686 15.4363 26.5829 15.5218 26.3205C16.8238 22.2791 15.6884 18.9772 12.5532 17.4669C11.9699 19.8313 12.1366 21.727 13.0532 23.1123C13.1383 23.2255 13.1995 23.3549 13.2329 23.4926C13.2664 23.6302 13.2714 23.7733 13.2477 23.9129C13.2239 24.0526 13.172 24.1859 13.095 24.3048C13.0179 24.4237 12.9175 24.5256 12.7997 24.6043C12.682 24.683 12.5494 24.737 12.4101 24.7627C12.2709 24.7885 12.1278 24.7855 11.9896 24.7541C11.8515 24.7226 11.7213 24.6634 11.6069 24.5799C11.4924 24.4964 11.3962 24.3905 11.3241 24.2686C9.89715 22.1229 9.74092 19.2584 10.8763 15.7587C10.9603 15.498 11.1437 15.281 11.3866 15.1546C11.5095 15.0915 11.6437 15.0535 11.7814 15.0428C11.9191 15.032 12.0575 15.0488 12.1887 15.0921C17.1363 16.6857 19.2715 21.4562 17.5008 26.9558C17.4257 27.1569 17.2904 27.3298 17.1132 27.451C16.9361 27.5722 16.7259 27.6357 16.5113 27.6329V27.6329Z" fill="#404040"/>
<path d="M32.0002 43.1214C29.5281 43.1214 27.1115 42.3884 25.056 41.015C23.0005 39.6415 21.3985 37.6894 20.4524 35.4055C19.5064 33.1216 19.2589 30.6084 19.7412 28.1838C20.2234 25.7592 21.4139 23.532 23.1619 21.784C24.9099 20.0359 27.1371 18.8455 29.5617 18.3633C31.9863 17.881 34.4995 18.1285 36.7834 19.0745C39.0673 20.0206 41.0194 21.6226 42.3928 23.678C43.7663 25.7335 44.4993 28.1501 44.4993 30.6222C44.4993 33.9372 43.1825 37.1165 40.8384 39.4605C38.4944 41.8046 35.3151 43.1214 32.0002 43.1214ZM32.0002 20.2063C29.9401 20.2063 27.9262 20.8172 26.2133 21.9617C24.5004 23.1062 23.1654 24.7329 22.377 26.6362C21.5887 28.5395 21.3824 30.6338 21.7843 32.6543C22.1862 34.6748 23.1782 36.5307 24.6349 37.9874C26.0916 39.4441 27.9476 40.4362 29.9681 40.8381C31.9886 41.24 34.0829 41.0337 35.9862 40.2453C37.8894 39.457 39.5162 38.122 40.6607 36.4091C41.8052 34.6962 42.4161 32.6823 42.4161 30.6222C42.4161 27.8598 41.3187 25.2104 39.3654 23.2571C37.412 21.3037 34.7626 20.2063 32.0002 20.2063V20.2063Z" fill="#404040"/>
<path d="M35.9579 36.8719C35.8499 36.8686 35.7437 36.8438 35.6454 36.7989L31.9998 35.174L28.3542 36.7989C28.2263 36.8569 28.0849 36.8789 27.9453 36.8624C27.8058 36.8459 27.6735 36.7915 27.5626 36.7052C27.4512 36.6198 27.3645 36.5063 27.3114 36.3764C27.2584 36.2464 27.2408 36.1047 27.2605 35.9657L27.8751 32.1742L25.0107 29.0494C24.9131 28.9432 24.8469 28.812 24.8193 28.6705C24.7918 28.5289 24.8039 28.3825 24.8545 28.2474C24.9059 28.1119 24.9932 27.9929 25.1069 27.9031C25.2206 27.8132 25.3565 27.7558 25.5002 27.737L29.4479 27.2891L31.2915 23.5186C31.3563 23.3863 31.4572 23.2751 31.5825 23.1976C31.7079 23.1202 31.8525 23.0798 31.9998 23.0811V23.0811C32.1456 23.0806 32.2885 23.1214 32.4121 23.1988C32.5356 23.2762 32.6346 23.3871 32.6977 23.5186L34.5517 27.2891L38.4994 27.737C38.6431 27.7558 38.779 27.8132 38.8927 27.9031C39.0064 27.9929 39.0937 28.1119 39.1452 28.2474C39.1932 28.3836 39.203 28.5303 39.1736 28.6717C39.1443 28.8131 39.0768 28.9437 38.9785 29.0494L36.1245 32.1742L36.7287 35.9657C36.753 36.1038 36.7387 36.2461 36.6872 36.3766C36.6357 36.5071 36.5491 36.6209 36.437 36.7052C36.2992 36.8105 36.1313 36.8689 35.9579 36.8719V36.8719ZM27.2085 29.1536L29.2917 31.393C29.3693 31.4821 29.4271 31.5867 29.4612 31.6999C29.4953 31.813 29.505 31.9321 29.4896 32.0493L29.0313 34.7887L31.6769 33.6012C31.8806 33.5184 32.1086 33.5184 32.3123 33.6012L34.9579 34.7887L34.5205 32.0493C34.4998 31.932 34.5069 31.8115 34.5413 31.6976C34.5757 31.5836 34.6363 31.4793 34.7184 31.393L36.8016 29.1536L33.958 28.8308C33.827 28.8156 33.7019 28.7676 33.5944 28.6911C33.487 28.6146 33.4006 28.5121 33.3435 28.3932L32.0102 25.6747L30.677 28.3932C30.6176 28.5104 30.5306 28.6115 30.4236 28.6876C30.3165 28.7638 30.1926 28.813 30.0624 28.8308L27.2085 29.1536Z" fill="#FA4616"/>
</svg>
