<svg width="64" height="64" viewBox="0 0 64 64" fill="none" xmlns="http://www.w3.org/2000/svg">
<path d="M28.6983 40.3529C28.5516 40.3537 28.4063 40.3256 28.2705 40.2702C28.1348 40.2147 28.0113 40.133 27.9072 40.0298L23.0713 35.205L24.6535 33.6228L28.5869 37.5673L39.0832 24.0736L40.8437 25.4441L29.5674 39.9295C29.4709 40.0524 29.3495 40.1536 29.2113 40.2265C29.0731 40.2995 28.9211 40.3425 28.7652 40.3529H28.6983Z" fill="#FA4616"/>
<path d="M34.3476 56.9999C33.9441 57.0029 33.5466 56.902 33.1934 56.7068C32.8401 56.5117 32.5431 56.2289 32.3308 55.8857C32.0467 55.4109 31.657 55.0081 31.1919 54.7084C30.7268 54.4088 30.1989 54.2203 29.6492 54.1578C29.0995 54.0953 28.5428 54.1604 28.0223 54.348C27.5018 54.5355 27.0315 54.8406 26.6481 55.2394C26.3407 55.5614 25.9479 55.7891 25.5156 55.8957C25.0834 56.0023 24.6297 55.9833 24.2079 55.8411C23.7849 55.702 23.4098 55.4462 23.1259 55.1032C22.842 54.7601 22.6609 54.3438 22.6033 53.9023C22.5376 53.3529 22.3461 52.8261 22.0437 52.3628C21.7413 51.8994 21.3362 51.512 20.8598 51.2307C20.3833 50.9494 19.8485 50.7817 19.2967 50.7406C18.7449 50.6996 18.1911 50.7863 17.6783 50.9941C17.2658 51.1666 16.8127 51.218 16.372 51.1421C15.9314 51.0662 15.5215 50.8662 15.1905 50.5656C14.8595 50.265 14.6211 49.8762 14.5032 49.4449C14.3853 49.0136 14.3929 48.5576 14.525 48.1304C14.6909 47.5998 14.7312 47.0379 14.6427 46.4891C14.5543 45.9402 14.3395 45.4194 14.0154 44.9678C13.6912 44.5162 13.2666 44.146 12.7749 43.8866C12.2832 43.6271 11.738 43.4855 11.1822 43.4728C10.737 43.4585 10.3049 43.3185 9.93576 43.0691C9.56667 42.8196 9.27563 42.4709 9.09622 42.0632C8.91682 41.6555 8.85636 41.2053 8.92183 40.7647C8.9873 40.324 9.17602 39.9109 9.46623 39.5729C9.82231 39.1573 10.0792 38.6661 10.2175 38.1365C10.3559 37.607 10.3719 37.0529 10.2646 36.5162C10.1573 35.9795 9.92929 35.4742 9.59794 35.0386C9.26659 34.603 8.84053 34.2484 8.35197 34.0016C7.94778 33.8119 7.60599 33.511 7.36657 33.1341C7.12715 32.7572 7 32.3199 7 31.8734C7 31.4269 7.12715 30.9896 7.36657 30.6127C7.60599 30.2358 7.94778 29.9349 8.35197 29.7452C8.85332 29.5135 9.29442 29.1693 9.64092 28.7392C9.98743 28.3091 10.23 27.8049 10.3497 27.2657C10.4694 26.7266 10.463 26.1671 10.331 25.6308C10.199 25.0945 9.94503 24.5959 9.58879 24.1739C9.30038 23.8335 9.11424 23.4184 9.05193 22.9766C8.98963 22.5349 9.0537 22.0845 9.23673 21.6776C9.41976 21.2708 9.71428 20.9241 10.0862 20.6776C10.4581 20.4312 10.8922 20.2951 11.3382 20.2851C11.8921 20.2797 12.4371 20.1461 12.9307 19.8948C13.4243 19.6435 13.8531 19.2813 14.1833 18.8367C14.5136 18.392 14.7364 17.8769 14.8343 17.3318C14.9323 16.7866 14.9027 16.2262 14.7478 15.6944C14.6057 15.2606 14.5922 14.7949 14.7091 14.3537C14.826 13.9124 15.0683 13.5145 15.4066 13.208C15.7449 12.9015 16.1647 12.6996 16.6154 12.6268C17.066 12.5539 17.5281 12.6131 17.9457 12.7973C18.4541 13.015 19.0058 13.1126 19.5581 13.0825C20.1103 13.0525 20.6481 12.8955 21.1299 12.6239C21.6116 12.3523 22.0243 11.9734 22.3359 11.5165C22.6475 11.0596 22.8496 10.537 22.9265 9.98936C22.9869 9.5481 23.1708 9.13289 23.457 8.79165C23.7432 8.4504 24.12 8.19701 24.544 8.06072C24.968 7.92443 25.4219 7.91079 25.8534 8.02137C26.2848 8.13195 26.6762 8.36224 26.9824 8.68568C27.3639 9.08778 27.8323 9.39724 28.3518 9.59038C28.8714 9.78351 29.4282 9.8552 29.9797 9.79994C30.5275 9.74753 31.0557 9.56945 31.5234 9.27956C31.9911 8.98967 32.3856 8.59579 32.6762 8.12855C32.9098 7.74713 33.2469 7.43985 33.6483 7.24247C34.0496 7.04509 34.4988 6.96571 34.9435 7.01356C35.3882 7.06142 35.8101 7.23454 36.1603 7.5128C36.5105 7.79105 36.7745 8.16301 36.9216 8.5854C37.1001 9.10693 37.396 9.58049 37.7865 9.96955C38.177 10.3586 38.6516 10.6528 39.1738 10.8293C39.696 11.0059 40.2518 11.0602 40.7983 10.988C41.3447 10.9157 41.8673 10.719 42.3257 10.4128C42.6939 10.1576 43.1271 10.0125 43.5747 9.99417C44.0223 9.97589 44.4659 10.0853 44.8537 10.3095C45.2415 10.5338 45.5575 10.8637 45.7649 11.2608C45.9723 11.6579 46.0625 12.1057 46.0251 12.5522C45.9736 13.1024 46.0499 13.657 46.2481 14.1729C46.4463 14.6887 46.761 15.1518 47.1676 15.5261C47.5742 15.9003 48.0617 16.1756 48.5922 16.3304C49.1227 16.4852 49.6817 16.5154 50.2258 16.4186C50.6658 16.3375 51.1198 16.383 51.535 16.5499C51.9501 16.7168 52.3094 16.9981 52.5708 17.3611C52.8323 17.7242 52.9854 18.1541 53.0121 18.6007C53.0388 19.0473 52.9381 19.4923 52.7218 19.884C52.4537 20.3636 52.2991 20.8981 52.2696 21.4468C52.2402 21.9954 52.3367 22.5434 52.5518 23.049C52.7669 23.5545 53.0949 24.0041 53.5107 24.3632C53.9264 24.7224 54.4189 24.9816 54.9503 25.121C55.3845 25.2264 55.78 25.4529 56.0907 25.7741C56.4014 26.0952 56.6147 26.498 56.7057 26.9355C56.7967 27.373 56.7617 27.8274 56.6048 28.2458C56.448 28.6643 56.1756 29.0296 55.8194 29.2995C55.3761 29.6287 55.0162 30.0572 54.7685 30.5506C54.5208 31.0441 54.3923 31.5887 54.3931 32.1408C54.3857 32.6914 54.5056 33.2363 54.7433 33.733C54.981 34.2297 55.3302 34.6649 55.7637 35.0045C56.1198 35.2767 56.3912 35.6446 56.5461 36.0652C56.7009 36.4859 56.7329 36.9419 56.6383 37.3801C56.5437 37.8183 56.3263 38.2204 56.0116 38.5397C55.6969 38.8589 55.2979 39.082 54.8611 39.1829C54.3233 39.3034 53.8208 39.5474 53.3934 39.8955C52.966 40.2435 52.6255 40.6863 52.3986 41.1886C52.1677 41.691 52.0556 42.2397 52.0711 42.7924C52.0865 43.3451 52.2291 43.8867 52.4878 44.3754C52.6998 44.7682 52.7962 45.2132 52.7658 45.6586C52.7353 46.104 52.5793 46.5316 52.3157 46.892C52.0522 47.2523 51.6919 47.5306 51.2766 47.6946C50.8614 47.8586 50.4082 47.9015 49.9695 47.8184C49.4271 47.7127 48.8676 47.7332 48.3344 47.8786C47.8012 48.0239 47.3086 48.29 46.8949 48.6564C46.4811 49.0227 46.1573 49.4794 45.9485 49.9911C45.7396 50.5028 45.6515 51.0557 45.6908 51.6069C45.723 52.0524 45.6283 52.4978 45.4177 52.8916C45.2071 53.2854 44.8891 53.6115 44.5007 53.8319C44.1123 54.0523 43.6694 54.1582 43.2233 54.1371C42.7772 54.116 42.3462 53.9689 41.9803 53.7129V53.7129C41.5274 53.396 41.0076 53.1876 40.4611 53.104C39.9147 53.0205 39.3564 53.0639 38.8294 53.2309C38.3025 53.3979 37.8211 53.6841 37.4226 54.0672C37.0241 54.4503 36.7192 54.92 36.5316 55.44C36.3821 55.8619 36.1147 56.232 35.7612 56.5065C35.4077 56.7811 34.9828 56.9484 34.537 56.9888L34.3476 56.9999ZM29.2332 51.8855C29.4522 51.8744 29.6716 51.8744 29.8906 51.8855C30.7799 51.9811 31.6351 52.2814 32.389 52.7628C33.1429 53.2441 33.7752 53.8935 34.2362 54.66C34.2476 54.6853 34.2667 54.7063 34.2906 54.7203C34.3146 54.7343 34.3423 54.7405 34.3699 54.738C34.395 54.7352 34.4188 54.7253 34.4385 54.7095C34.4582 54.6938 34.4731 54.6727 34.4813 54.6488C34.7855 53.8083 35.279 53.049 35.9235 52.4296C36.5681 51.8103 37.3465 51.3475 38.1986 51.0771C39.0506 50.8068 39.9535 50.736 40.8372 50.8704C41.721 51.0048 42.562 51.3407 43.2951 51.8521L42.6711 52.7658L43.3063 51.8521C43.3255 51.8665 43.349 51.8743 43.3731 51.8743C43.3972 51.8743 43.4207 51.8665 43.44 51.8521C43.518 51.8521 43.518 51.7518 43.5068 51.7295C43.4404 50.8353 43.5812 49.9379 43.9183 49.1071C44.2554 48.2762 44.7796 47.5344 45.4503 46.9392C46.1209 46.3441 46.9198 45.9117 47.7848 45.6757C48.6498 45.4398 49.5576 45.4066 50.4375 45.5788C50.4568 45.5932 50.4803 45.6011 50.5044 45.6011C50.5285 45.6011 50.5519 45.5932 50.5712 45.5788C50.5885 45.5586 50.598 45.5329 50.598 45.5064C50.598 45.4798 50.5885 45.4541 50.5712 45.4339C50.1497 44.6444 49.9156 43.7684 49.8873 42.8738C49.8589 41.9793 50.0369 41.0902 50.4076 40.2755C50.7783 39.4609 51.3317 38.7426 52.0248 38.1763C52.7179 37.61 53.5321 37.211 54.4043 37.0101C54.4282 37.0034 54.45 36.9907 54.4675 36.9731C54.4851 36.9555 54.4978 36.9338 54.5046 36.9099C54.5138 36.8888 54.5185 36.866 54.5185 36.843C54.5185 36.82 54.5138 36.7972 54.5046 36.7761C53.7989 36.2258 53.2291 35.5205 52.8394 34.7149C52.4496 33.9093 52.2503 33.0249 52.2567 32.1299C52.2632 31.235 52.4753 30.3535 52.8766 29.5536C53.278 28.7537 53.8578 28.0568 54.5714 27.5167C54.5844 27.4968 54.5913 27.4735 54.5913 27.4498C54.5913 27.4261 54.5844 27.4028 54.5714 27.3829C54.5714 27.3049 54.5046 27.2938 54.4711 27.2827C53.6028 27.0679 52.7955 26.6561 52.1119 26.0792C51.4283 25.5023 50.8866 24.7757 50.5289 23.9558C50.1712 23.1359 50.0071 22.2447 50.0492 21.3511C50.0913 20.4576 50.3386 19.5858 50.7718 18.8031C50.7872 18.7821 50.7955 18.7568 50.7955 18.7307C50.7955 18.7047 50.7872 18.6793 50.7718 18.6583C50.7553 18.6426 50.7333 18.6339 50.7105 18.6339C50.6877 18.6339 50.6658 18.6426 50.6492 18.6583C49.7681 18.8152 48.8628 18.7674 48.0031 18.5187C47.1434 18.27 46.3524 17.827 45.6911 17.2239C45.0299 16.6209 44.5162 15.8738 44.1896 15.0406C43.863 14.2074 43.7323 13.3102 43.8077 12.4184C43.8159 12.3932 43.8147 12.3658 43.8045 12.3413C43.7943 12.3168 43.7757 12.2967 43.752 12.2847C43.731 12.2693 43.7056 12.261 43.6795 12.261C43.6535 12.261 43.6281 12.2693 43.6071 12.2847C42.8668 12.7851 42.0216 13.1089 41.1365 13.2311C40.2513 13.3534 39.3499 13.2709 38.5017 12.9899C37.6535 12.709 36.8811 12.2371 36.244 11.6107C35.6068 10.9842 35.122 10.2199 34.8267 9.37652C34.8203 9.35058 34.8063 9.32717 34.7864 9.30929C34.7666 9.29142 34.7418 9.2799 34.7153 9.27624C34.6262 9.27624 34.6039 9.27624 34.5928 9.33195C34.1209 10.0908 33.4811 10.7312 32.7227 11.2038C31.9643 11.6765 31.1075 11.9687 30.2183 12.0581C29.3292 12.1474 28.4314 12.0315 27.5941 11.7192C26.7569 11.4069 26.0024 10.9066 25.389 10.2568C25.3688 10.2395 25.3431 10.23 25.3166 10.23C25.29 10.23 25.2643 10.2395 25.2441 10.2568C25.2182 10.2632 25.1948 10.2773 25.1769 10.2971C25.159 10.317 25.1475 10.3417 25.1439 10.3682C25.0219 11.2525 24.6984 12.0969 24.1984 12.8364C23.6984 13.5758 23.0352 14.1905 22.2599 14.6331C21.4847 15.0756 20.6182 15.3341 19.7272 15.3887C18.8362 15.4433 17.9446 15.2924 17.1212 14.9478C17.0975 14.9288 17.068 14.9185 17.0376 14.9185C17.0072 14.9185 16.9778 14.9288 16.954 14.9478C16.9396 14.9671 16.9318 14.9906 16.9318 15.0147C16.9318 15.0388 16.9396 15.0622 16.954 15.0815C17.2017 15.9391 17.2491 16.8421 17.0925 17.7209C16.9359 18.5997 16.5796 19.4308 16.0509 20.15C15.5222 20.8692 14.8354 21.4574 14.0434 21.8692C13.2514 22.2809 12.3754 22.5052 11.483 22.5248C11.4538 22.5215 11.4243 22.5273 11.3985 22.5412C11.3726 22.5551 11.3516 22.5766 11.3382 22.6028C11.3228 22.6238 11.3145 22.6492 11.3145 22.6752C11.3145 22.7012 11.3228 22.7266 11.3382 22.7476C11.9137 23.4297 12.3248 24.2348 12.5399 25.1009C12.7551 25.967 12.7684 26.871 12.5789 27.743C12.3894 28.6151 12.0022 29.432 11.4471 30.1307C10.8919 30.8295 10.1837 31.3914 9.37708 31.7731C9.32137 31.7731 9.26567 31.7731 9.26567 31.9068C9.26454 31.9314 9.27157 31.9557 9.28568 31.9758C9.29979 31.996 9.32018 32.0109 9.34366 32.0183C10.1471 32.4078 10.8502 32.9768 11.3988 33.6813C11.9474 34.3857 12.3268 35.2068 12.5077 36.0812C12.6886 36.9555 12.6662 37.8598 12.4421 38.7241C12.2181 39.5884 11.7985 40.3897 11.2156 41.066C11.1984 41.0905 11.1891 41.1197 11.1891 41.1496C11.1891 41.1795 11.1984 41.2087 11.2156 41.2332C11.223 41.2567 11.2379 41.277 11.258 41.2912C11.2782 41.3053 11.3025 41.3123 11.327 41.3112C12.2195 41.3418 13.0931 41.5768 13.8806 41.998C14.668 42.4192 15.3484 43.0154 15.8693 43.7408C16.3902 44.4662 16.7377 45.3014 16.8852 46.1821C17.0327 47.0629 16.9762 47.9658 16.72 48.8213C16.7019 48.8432 16.692 48.8708 16.692 48.8993C16.692 48.9277 16.7019 48.9553 16.72 48.9773C16.7393 48.9917 16.7628 48.9996 16.7869 48.9996C16.811 48.9996 16.8345 48.9917 16.8538 48.9773C17.6821 48.6407 18.5766 48.4989 19.4684 48.5628C20.3602 48.6266 21.2254 48.8944 21.9973 49.3455C22.7693 49.7966 23.4273 50.419 23.9207 51.1646C24.414 51.9102 24.7296 52.7592 24.843 53.646C24.8397 53.6739 24.847 53.7021 24.8635 53.7248C24.8801 53.7475 24.9046 53.7632 24.9321 53.7686C24.9505 53.785 24.9743 53.7941 24.999 53.7941C25.0237 53.7941 25.0475 53.785 25.0658 53.7686C25.5968 53.1889 26.2399 52.7231 26.9563 52.3994C27.6726 52.0757 28.4473 51.9009 29.2332 51.8855V51.8855Z" fill="#404040"/>
<path d="M31.9072 48.7098C28.6016 48.7098 25.3701 47.7296 22.6215 45.893C19.8729 44.0565 17.7307 41.4462 16.4656 38.3921C15.2006 35.338 14.8696 31.9774 15.5145 28.7352C16.1594 25.4931 17.7513 22.5149 20.0887 20.1775C22.4262 17.84 25.4044 16.2481 28.6465 15.6032C31.8887 14.9583 35.2493 15.2893 38.3034 16.5544C41.3574 17.8194 43.9678 19.9616 45.8043 22.7102C47.6409 25.4588 48.6211 28.6903 48.6211 31.996C48.6211 36.4288 46.8602 40.68 43.7257 43.8145C40.5913 46.9489 36.34 48.7098 31.9072 48.7098V48.7098ZM31.9072 17.5106C29.0423 17.5106 26.2417 18.3602 23.8596 19.9518C21.4775 21.5435 19.6209 23.8058 18.5245 26.4527C17.4281 29.0995 17.1413 32.012 17.7002 34.8219C18.2591 37.6318 19.6387 40.2128 21.6646 42.2387C23.6904 44.2645 26.2714 45.6441 29.0813 46.203C31.8912 46.7619 34.8037 46.4751 37.4506 45.3787C40.0974 44.2823 42.3597 42.4257 43.9514 40.0436C45.5431 37.6615 46.3926 34.8609 46.3926 31.996C46.3926 30.0937 46.0179 28.2101 45.29 26.4527C44.562 24.6952 43.495 23.0984 42.1499 21.7533C40.8048 20.4082 39.208 19.3412 37.4506 18.6132C35.6931 17.8853 33.8095 17.5106 31.9072 17.5106V17.5106Z" fill="#404040"/>
</svg>
