<svg width="64" height="64" viewBox="0 0 64 64" fill="none" xmlns="http://www.w3.org/2000/svg">
<path d="M31.562 57C28.9825 57 26.4609 56.2351 24.3161 54.802C22.1714 53.3689 20.4997 51.3319 19.5126 48.9488C18.5254 46.5656 18.2671 43.9433 18.7704 41.4133C19.2736 38.8834 20.5158 36.5595 22.3398 34.7355C24.1637 32.9115 26.4877 31.6694 29.0176 31.1662C31.5476 30.6629 34.1699 30.9212 36.5531 31.9083C38.9362 32.8955 40.9731 34.5671 42.4062 36.7119C43.8393 38.8566 44.6043 41.3783 44.6043 43.9578C44.6043 47.4168 43.2302 50.7341 40.7843 53.18C38.3384 55.6259 35.021 57 31.562 57V57ZM31.562 33.0892C29.4124 33.0892 27.3111 33.7267 25.5238 34.9209C23.7365 36.1152 22.3434 37.8126 21.5208 39.7986C20.6982 41.7845 20.483 43.9698 20.9023 46.0781C21.3217 48.1864 22.3568 50.123 23.8768 51.643C25.3968 53.1629 27.3334 54.1981 29.4417 54.6175C31.55 55.0368 33.7353 54.8216 35.7212 53.999C37.7072 53.1763 39.4046 51.7833 40.5989 49.996C41.7931 48.2086 42.4305 46.1074 42.4305 43.9578C42.4305 41.0753 41.2855 38.3108 39.2472 36.2725C37.209 34.2343 34.4445 33.0892 31.562 33.0892V33.0892Z" fill="#404040"/>
<path d="M38.0833 33.0892H35.9095V28.7418H27.2147V33.0892H25.041V26.5681H38.0833V33.0892Z" fill="#404040"/>
<path d="M36.9961 28.741H26.1276C25.9496 28.7412 25.7742 28.6978 25.6169 28.6144C25.4596 28.531 25.3252 28.4102 25.2255 28.2627L12.1833 8.69938C12.1037 8.58033 12.0484 8.4467 12.0206 8.30621C11.9929 8.16572 11.9931 8.02112 12.0214 7.88073C12.0497 7.74034 12.1054 7.60692 12.1854 7.48815C12.2654 7.36938 12.3681 7.2676 12.4876 7.18864C12.7272 7.03134 13.0193 6.97509 13.3002 7.03209C13.5811 7.08908 13.8281 7.25474 13.9875 7.49299L26.7145 26.5672H34.9637L23.0518 8.75371C22.9722 8.63466 22.917 8.50103 22.8892 8.36054C22.8614 8.22005 22.8617 8.07545 22.8899 7.93506C22.9182 7.79467 22.9739 7.66125 23.054 7.54248C23.134 7.42371 23.2367 7.32193 23.3561 7.24297C23.5957 7.08567 23.8878 7.02942 24.1687 7.08642C24.4496 7.14341 24.6966 7.30907 24.856 7.54732L37.8982 27.1107C38.002 27.2711 38.0617 27.456 38.0712 27.6468C38.0808 27.8376 38.0398 28.0276 37.9526 28.1975C37.8559 28.365 37.7163 28.5037 37.5482 28.5992C37.38 28.6947 37.1895 28.7436 36.9961 28.741V28.741Z" fill="#404040"/>
<path d="M33.7356 17.8733C33.5322 17.874 33.3326 17.8175 33.1596 17.7103C33.0381 17.6348 32.9327 17.5361 32.8494 17.4198C32.7661 17.3035 32.7066 17.1719 32.6743 17.0326C32.642 16.8932 32.6375 16.7488 32.6611 16.6078C32.6847 16.4667 32.7359 16.3317 32.8118 16.2104L38.2461 7.51559C38.3988 7.27058 38.6427 7.09629 38.924 7.03107C39.2053 6.96584 39.5009 7.01501 39.7459 7.16779C39.9909 7.32056 40.1652 7.5644 40.2305 7.84568C40.2957 8.12696 40.2465 8.42264 40.0937 8.66765L34.6595 17.3625C34.5616 17.5191 34.4254 17.6482 34.2637 17.7376C34.1021 17.827 33.9203 17.8737 33.7356 17.8733V17.8733Z" fill="#404040"/>
<path d="M36.9961 27.655C36.7708 27.6567 36.5505 27.5884 36.3657 27.4594C36.2482 27.377 36.1481 27.2722 36.0713 27.1509C35.9945 27.0297 35.9425 26.8944 35.9182 26.7529C35.894 26.6114 35.898 26.4666 35.93 26.3267C35.9621 26.1868 36.0215 26.0546 36.1049 25.9378L49.1471 7.46126C49.2299 7.34423 49.3349 7.24464 49.4562 7.16819C49.5775 7.09174 49.7126 7.03991 49.8539 7.01568C49.9952 6.99146 50.1399 6.99534 50.2797 7.02703C50.4195 7.05872 50.5517 7.11765 50.6687 7.20043C50.7858 7.28321 50.8853 7.38822 50.9618 7.50949C51.0382 7.63076 51.09 7.76588 51.1143 7.90718C51.1385 8.04847 51.1346 8.19318 51.103 8.33299C51.0713 8.4728 51.0123 8.60495 50.9296 8.72198L37.8873 27.1985C37.7862 27.3404 37.6525 27.456 37.4974 27.5355C37.3423 27.6149 37.1704 27.6559 36.9961 27.655Z" fill="#404040"/>
<path d="M35.703 50.7397C35.5492 50.739 35.3973 50.7056 35.2574 50.6419L31.5621 48.9899L27.8668 50.6419C27.6883 50.7202 27.492 50.7492 27.2985 50.7256C27.105 50.702 26.9214 50.6269 26.7669 50.5079C26.6125 50.389 26.4928 50.2308 26.4205 50.0498C26.3482 49.8687 26.326 49.6715 26.3561 49.4789L26.9647 45.6533L24.0737 42.5231C23.9433 42.3781 23.8543 42.2007 23.816 42.0095C23.7778 41.8183 23.7917 41.6203 23.8563 41.4363C23.9268 41.2497 24.0472 41.0862 24.2044 40.9635C24.3615 40.8408 24.5495 40.7637 24.7475 40.7407L28.7254 40.2842L30.5839 36.4802C30.6735 36.2973 30.8128 36.1432 30.9857 36.0356C31.1587 35.928 31.3584 35.8712 31.5621 35.8716V35.8716C31.7658 35.8712 31.9655 35.928 32.1385 36.0356C32.3114 36.1432 32.4506 36.2973 32.5402 36.4802L34.3988 40.2842L38.3767 40.7407C38.5747 40.7637 38.7626 40.8408 38.9198 40.9635C39.077 41.0862 39.1974 41.2497 39.2679 41.4363C39.3325 41.6203 39.3464 41.8183 39.3081 42.0095C39.2699 42.2007 39.1809 42.3781 39.0505 42.5231L36.1595 45.7076L36.7681 49.5333C36.7986 49.7267 36.7764 49.9247 36.7037 50.1064C36.631 50.2881 36.5106 50.4468 36.3551 50.5658C36.1617 50.6915 35.9333 50.7524 35.703 50.7397V50.7397ZM31.5621 46.7184C31.7159 46.7191 31.8678 46.7524 32.0077 46.8162L34.301 47.8378L33.9314 45.4793C33.9044 45.3165 33.9149 45.1497 33.9619 44.9915C34.009 44.8333 34.0915 44.688 34.2031 44.5664L35.9965 42.6209L33.5619 42.3492C33.3809 42.327 33.2083 42.2597 33.0602 42.1533C32.912 42.0469 32.793 41.905 32.7142 41.7405L31.5621 39.393L30.41 41.7405C30.3311 41.905 30.2121 42.0469 30.064 42.1533C29.9158 42.2597 29.7433 42.327 29.5623 42.3492L27.1277 42.6209L28.921 44.6207C29.0346 44.7413 29.1191 44.8863 29.1681 45.0445C29.217 45.2027 29.2292 45.3701 29.2036 45.5337L28.8232 47.8922L31.1165 46.8705C31.2521 46.7879 31.4042 46.7359 31.5621 46.7184V46.7184Z" fill="#FA4616"/>
</svg>
