<svg width="64" height="64" viewBox="0 0 64 64" fill="none" xmlns="http://www.w3.org/2000/svg">
<path d="M33.0385 54.8175H10.1245C9.84832 54.8175 9.58339 54.7078 9.38807 54.5125C9.19274 54.3171 9.08301 54.0522 9.08301 53.776V48.5683C9.08301 48.2921 9.19274 48.0271 9.38807 47.8318C9.58339 47.6365 9.84832 47.5267 10.1245 47.5267C10.4008 47.5267 10.6657 47.6365 10.861 47.8318C11.0564 48.0271 11.1661 48.2921 11.1661 48.5683V52.7345H31.9969V48.5683C31.9969 48.2921 32.1067 48.0271 32.302 47.8318C32.4973 47.6365 32.7622 47.5267 33.0385 47.5267C33.3147 47.5267 33.5796 47.6365 33.7749 47.8318C33.9703 48.0271 34.08 48.2921 34.08 48.5683V53.776C34.08 54.0522 33.9703 54.3171 33.7749 54.5125C33.5796 54.7078 33.3147 54.8175 33.0385 54.8175Z" fill="#404040"/>
<path d="M35.1216 49.6098H28.8724C28.5961 49.6098 28.3312 49.5001 28.1359 49.3048C27.9406 49.1094 27.8308 48.8445 27.8308 48.5683C27.8308 48.2921 27.9406 48.0271 28.1359 47.8318C28.3312 47.6365 28.5961 47.5268 28.8724 47.5268H34.0801V43.3606C34.0801 41.4858 33.0385 41.0067 29.5181 39.6215L28.6641 39.2882C23.1543 37.1217 23.4564 31.2058 23.6751 27.675C23.8338 25.2487 24.2671 22.8482 24.9666 20.5196C25.4039 19.1449 25.6663 17.7207 25.7478 16.2805C25.7478 15.1756 25.3088 14.1159 24.5275 13.3346C23.7462 12.5533 22.6865 12.1143 21.5816 12.1143C20.4766 12.1143 19.417 12.5533 18.6357 13.3346C17.8543 14.1159 17.4154 15.1756 17.4154 16.2805C17.4956 17.7217 17.7617 19.1465 18.207 20.5196C18.9065 22.8482 19.3398 25.2487 19.4985 27.675C19.6964 31.2058 20.0193 37.1217 14.4991 39.2882L13.6555 39.6215C10.1038 41.0067 9.08308 41.4858 9.08308 43.3606V47.5268H23.6647C23.9409 47.5268 24.2058 47.6365 24.4011 47.8318C24.5965 48.0271 24.7062 48.2921 24.7062 48.5683C24.7062 48.8445 24.5965 49.1094 24.4011 49.3048C24.2058 49.5001 23.9409 49.6098 23.6647 49.6098H8.04154C7.76531 49.6098 7.50039 49.5001 7.30506 49.3048C7.10973 49.1094 7 48.8445 7 48.5683V43.3606C7 39.9756 9.34347 39.0694 12.8951 37.6842L13.7388 37.3509C17.5404 35.8511 17.655 31.9765 17.4258 27.7895C17.2652 25.4981 16.8531 23.2313 16.1968 21.0299C15.6996 19.4813 15.4089 17.8739 15.3323 16.2493C15.3323 14.5918 15.9907 13.0023 17.1627 11.8304C18.3347 10.6584 19.9242 10 21.5816 10C23.239 10 24.8285 10.6584 26.0005 11.8304C27.1724 13.0023 27.8308 14.5918 27.8308 16.2493C27.758 17.8735 27.4708 19.4809 26.9768 21.0299C26.3178 23.2199 25.9056 25.4767 25.7478 27.7583C25.5186 31.9244 25.6332 35.8198 29.4348 37.3197L30.2785 37.6529C33.8197 39.0382 36.1632 39.9547 36.1632 43.3293V48.537C36.1674 48.6764 36.1435 48.8152 36.093 48.9452C36.0426 49.0752 35.9665 49.1937 35.8694 49.2938C35.7722 49.3938 35.656 49.4734 35.5276 49.5277C35.3991 49.582 35.2611 49.6099 35.1216 49.6098V49.6098Z" fill="#404040"/>
<path d="M40.3291 45.4437C39.8083 45.4437 39.2876 45.4437 38.7668 45.3708C38.492 45.3444 38.2389 45.21 38.0631 44.9971C37.8874 44.7842 37.8033 44.5103 37.8294 44.2355C37.8558 43.9607 37.9902 43.7076 38.203 43.5318C38.4159 43.356 38.6899 43.272 38.9647 43.2981C39.4125 43.2981 39.8708 43.3606 40.3291 43.3606C42.6653 43.3605 44.9672 42.7992 47.0412 41.7238C49.1151 40.6484 50.9003 39.0904 52.2464 37.181C53.5925 35.2716 54.4602 33.0668 54.7763 30.7521C55.0924 28.4374 54.8477 26.0807 54.0629 23.8803C53.278 21.6799 51.976 19.7003 50.2664 18.1082C48.5568 16.516 46.4896 15.358 44.239 14.7315C41.9884 14.105 39.6202 14.0285 37.3339 14.5083C35.0475 14.9881 32.9099 16.0103 31.101 17.4887C30.9952 17.5758 30.8731 17.6411 30.7419 17.681C30.6107 17.7208 30.4729 17.7343 30.3365 17.7208C30.2 17.7072 30.0676 17.6669 29.9468 17.602C29.826 17.5372 29.7192 17.4491 29.6325 17.3429C29.4598 17.1296 29.3783 16.8568 29.4056 16.5838C29.4329 16.3108 29.5668 16.0596 29.7783 15.8847C31.8448 14.1928 34.2877 13.0223 36.9012 12.472C39.5146 11.9216 42.2221 12.0075 44.7954 12.7223C47.3687 13.4371 49.7326 14.76 51.6878 16.5794C53.643 18.3988 55.1322 20.6615 56.03 23.1769C56.9279 25.6922 57.208 28.3865 56.8468 31.0327C56.4856 33.679 55.4936 36.1997 53.9546 38.3824C52.4155 40.5651 50.3743 42.3459 48.003 43.5748C45.6318 44.8037 42.9999 45.4447 40.3291 45.4437V45.4437Z" fill="#FA4616"/>
<path d="M38.3296 34.57C38.0563 34.5688 37.7945 34.4603 37.6005 34.2679L33.4343 30.1017L34.9029 28.6228L38.2358 31.9557L47.2764 20.4154L48.9221 21.6861L39.1941 34.1846C39.1037 34.3027 38.989 34.4 38.8579 34.47C38.7267 34.5401 38.5821 34.5813 38.4337 34.5908L38.3296 34.57Z" fill="#FA4616"/>
</svg>
