<svg width="64" height="64" viewBox="0 0 64 64" fill="none" xmlns="http://www.w3.org/2000/svg">
<path d="M55.1755 54.5678C54.2217 53.0209 53.3491 51.4254 52.5613 49.7876C52.3048 48.8408 52.3048 47.8428 52.5613 46.896C52.8123 45.9629 52.8123 44.9801 52.5613 44.0471L48.6027 34.1345C48.4772 33.889 48.27 33.695 48.0168 33.586C47.7636 33.4769 47.4802 33.4596 47.2156 33.537L44.2493 34.732L43.8545 33.7397C43.7259 33.497 43.5184 33.3055 43.2661 33.1969C43.0139 33.0882 42.7321 33.0689 42.4674 33.1422L39.9386 34.1558L39.4584 33.8144C39.2051 33.694 38.928 33.6315 38.6475 33.6315C38.367 33.6315 38.09 33.694 37.8366 33.8144L36.1187 34.4973L35.3291 32.5127L37.0256 31.8404C38.015 31.403 39.1351 31.3647 40.152 31.7337L41.6672 31.1255C42.2857 30.905 42.9551 30.8693 43.5937 31.0227C44.2322 31.1762 44.8122 31.5122 45.263 31.9898L46.426 31.531C47.2159 31.2381 48.088 31.2596 48.8624 31.5912C49.6368 31.9228 50.2543 32.5392 50.5874 33.3129L54.546 43.2148C54.9548 44.5156 54.9954 45.9042 54.6634 47.2267C54.5113 47.7933 54.4715 48.3841 54.546 48.966C55.2873 50.4936 56.1064 51.9823 57.0001 53.4261L55.1755 54.5678Z" fill="#404040"/>
<path d="M41.0795 32.55L39.0979 33.3421L41.0783 38.296L43.0599 37.5039L41.0795 32.55Z" fill="#404040"/>
<path d="M45.8314 32.9409L43.8499 33.7331L45.4342 37.6962L47.4157 36.904L45.8314 32.9409Z" fill="#404040"/>
<path d="M43.4706 59.9562C42.5423 58.6225 40.8778 56.3177 40.3976 55.8269C39.7162 55.2928 38.9472 54.8812 38.1249 54.6105L37.4846 54.3331C35.5226 53.4601 33.7196 52.2665 32.1496 50.8013C30.8067 49.598 29.3278 48.5559 27.7428 47.6962C27.2939 47.4762 26.9028 47.1541 26.6008 46.7558C26.2988 46.3574 26.0942 45.8938 26.0036 45.4022C25.9181 44.9359 25.942 44.4561 26.0735 44.0006C26.2049 43.5451 26.4403 43.1264 26.7612 42.7773C27.2194 42.2846 27.797 41.9186 28.4383 41.7149C29.0795 41.5111 29.7625 41.4765 30.421 41.6143C31.5465 41.9261 32.6397 42.3441 33.6861 42.8627C31.9468 38.648 28.6925 31.0402 28.6498 30.9548C28.4949 30.5639 28.4186 30.1463 28.4252 29.7258C28.4318 29.3054 28.5211 28.8904 28.688 28.5045C28.855 28.1186 29.0963 27.7693 29.3982 27.4766C29.7001 27.184 30.0568 26.9536 30.4477 26.7988C30.8386 26.644 31.2562 26.5677 31.6767 26.5742C32.0971 26.5808 32.5121 26.6701 32.8981 26.837C33.284 27.004 33.6332 27.2453 33.9259 27.5472C34.2186 27.8492 34.4489 28.2058 34.6037 28.5967L39.0852 39.0641L37.1219 39.9071L32.6297 29.397C32.5792 29.2631 32.5022 29.1407 32.4034 29.0371C32.3045 28.9336 32.1859 28.851 32.0545 28.7942C31.9231 28.7375 31.7816 28.7078 31.6384 28.7068C31.4953 28.7059 31.3534 28.7337 31.2213 28.7888C30.9657 28.8934 30.7606 29.0931 30.6491 29.3458C30.5377 29.5985 30.5286 29.8846 30.6238 30.1439C30.6238 30.2186 35.1372 40.686 36.4176 43.887C36.5206 44.1481 36.5419 44.4342 36.4788 44.7077C36.4157 44.9811 36.2712 45.229 36.0643 45.4186C35.8573 45.6082 35.5978 45.7305 35.3199 45.7695C35.042 45.8085 34.7588 45.7623 34.5077 45.6369C33.0502 44.8468 31.5211 44.1965 29.9409 43.6949C29.6482 43.6391 29.346 43.6598 29.0637 43.7552C28.7814 43.8505 28.5286 44.0173 28.3297 44.2391C28.2323 44.3413 28.161 44.4655 28.122 44.6011C28.083 44.7367 28.0774 44.8798 28.1056 45.0181C28.1364 45.1803 28.2046 45.3332 28.3046 45.4647C28.4045 45.5961 28.5337 45.7026 28.6818 45.7756C30.424 46.7074 32.047 47.8468 33.5154 49.1687C34.9192 50.4897 36.5305 51.5711 38.2849 52.3698L38.9571 52.6472C40.0258 53.0183 41.0117 53.5946 41.8594 54.3437C42.6383 55.1227 44.9217 58.3877 45.1778 58.7612L43.4706 59.9562Z" fill="#404040"/>
<path d="M21.9382 28.9382H7V14H17.6701V16.134H9.13403V26.8042H19.8042V21.4691H21.9382V28.9382Z" fill="#404040"/>
<path d="M14.5756 26.2813L10.521 22.216L12.0255 20.7115L14.3729 23.0589L21.0951 14.4055L22.781 15.7179L14.5756 26.2813Z" fill="#FA4616"/>
<path d="M39.0104 28.9382H35.8094V26.8042H36.8764V16.134H26.2063V26.8042H27.2733V28.9382H24.0723V14H39.0104V28.9382Z" fill="#404040"/>
<path d="M56.0827 28.9382H41.1445V14H56.0827V28.9382ZM43.2786 26.8042H53.9487V16.134H43.2786V26.8042Z" fill="#404040"/>
</svg>
