<svg width="64" height="64" viewBox="0 0 64 64" fill="none" xmlns="http://www.w3.org/2000/svg">
<path d="M27.6526 52.3053C23.4183 52.2924 19.2909 50.9752 15.832 48.5328C12.3731 46.0904 9.7509 42.6415 8.32217 38.6555C6.89345 34.6696 6.72765 30.3402 7.84736 26.2566C8.96707 22.1731 11.3179 18.5338 14.5798 15.834C17.8418 13.1342 21.8564 11.5052 26.0773 11.1685C30.2981 10.8319 34.5202 11.8041 38.1688 13.9528C41.8174 16.1014 44.7153 19.3222 46.4681 23.1766C48.2209 27.0311 48.7434 31.332 47.9645 35.494C47.9138 35.7679 47.7564 36.0104 47.5269 36.1682C47.2974 36.3261 47.0147 36.3863 46.7408 36.3356C46.4669 36.285 46.2244 36.1276 46.0666 35.8981C45.9087 35.6686 45.8485 35.3858 45.8992 35.112C46.3936 32.5651 46.3493 29.9429 45.7692 27.4141C45.1892 24.8854 44.0861 22.5061 42.5311 20.4293C40.9761 18.3525 39.0035 16.6243 36.7403 15.3558C34.4771 14.0873 31.9735 13.3067 29.3904 13.0641C26.8074 12.8215 24.2021 13.1223 21.7423 13.9473C19.2825 14.7722 17.0227 16.1029 15.1082 17.8538C13.1937 19.6048 11.6669 21.7371 10.6262 24.1136C9.58542 26.4901 9.05367 29.0582 9.0652 31.6526C9.0652 36.5823 11.0235 41.3101 14.5093 44.7959C17.9951 48.2817 22.7229 50.24 27.6526 50.24C28.5405 50.2401 29.4273 50.178 30.3064 50.0541C30.4421 50.0352 30.5801 50.0431 30.7126 50.0774C30.8452 50.1118 30.9697 50.1719 31.079 50.2543C31.1883 50.3368 31.2803 50.44 31.3497 50.558C31.4192 50.6761 31.4647 50.8066 31.4837 50.9422C31.5026 51.0778 31.4947 51.2158 31.4604 51.3484C31.426 51.4809 31.3659 51.6054 31.2834 51.7147C31.201 51.824 31.0978 51.916 30.9798 51.9855C30.8617 52.0549 30.7312 52.1004 30.5956 52.1194C29.62 52.2488 28.6367 52.3109 27.6526 52.3053V52.3053Z" fill="#404040"/>
<path d="M27.6527 52.3053C21.839 52.3053 17.3264 43.2284 17.3264 31.6526C17.3264 20.0768 21.8803 11 27.6527 11C33.4252 11 38.0307 20.0768 38.0307 31.6526C38.0416 34.231 37.7994 36.8043 37.3079 39.3354C37.2821 39.471 37.2299 39.6002 37.1542 39.7157C37.0785 39.8311 36.9808 39.9305 36.8667 40.0081C36.7526 40.0858 36.6243 40.1402 36.4891 40.1683C36.354 40.1964 36.2146 40.1976 36.079 40.1719C35.9434 40.1461 35.8142 40.0939 35.6988 40.0182C35.5834 39.9425 35.484 39.8448 35.4063 39.7307C35.3286 39.6166 35.2742 39.4883 35.2461 39.3531C35.218 39.218 35.2168 39.0786 35.2426 38.943C35.7045 36.5406 35.9328 34.0991 35.9241 31.6526C35.9241 21.5742 32.1241 13.0653 27.6115 13.0653C23.0989 13.0653 19.3504 21.5742 19.3504 31.6526C19.3504 41.7311 23.1505 50.24 27.6115 50.24C27.8853 50.24 28.148 50.3488 28.3416 50.5425C28.5353 50.7361 28.6441 50.9988 28.6441 51.2727C28.6441 51.5465 28.5353 51.8092 28.3416 52.0028C28.148 52.1965 27.8853 52.3053 27.6115 52.3053H27.6527Z" fill="#404040"/>
<path d="M27.6527 52.3053C27.3789 52.3053 27.1162 52.1965 26.9226 52.0028C26.7289 51.8092 26.6201 51.5465 26.6201 51.2727V12.0326C26.6201 11.7588 26.7289 11.4961 26.9226 11.3025C27.1162 11.1088 27.3789 11 27.6527 11C27.9266 11 28.1893 11.1088 28.3829 11.3025C28.5766 11.4961 28.6854 11.7588 28.6854 12.0326V51.2727C28.6854 51.5465 28.5766 51.8092 28.3829 52.0028C28.1893 52.1965 27.9266 52.3053 27.6527 52.3053Z" fill="#404040"/>
<path d="M47.2727 32.6853H8.03263C7.75876 32.6853 7.49612 32.5765 7.30247 32.3828C7.10881 32.1892 7 31.9265 7 31.6526C7 31.3788 7.10881 31.1161 7.30247 30.9225C7.49612 30.7288 7.75876 30.62 8.03263 30.62H47.2727C47.5465 30.62 47.8092 30.7288 48.0029 30.9225C48.1965 31.1161 48.3053 31.3788 48.3053 31.6526C48.3053 31.9265 48.1965 32.1892 48.0029 32.3828C47.8092 32.5765 47.5465 32.6853 47.2727 32.6853Z" fill="#404040"/>
<path d="M27.6524 23.3916C21.7251 23.3916 16.087 22.1214 12.1629 19.9116C11.9268 19.7754 11.754 19.5513 11.6825 19.2882C11.6109 19.0251 11.6463 18.7443 11.7809 18.5072C11.9154 18.2693 12.1387 18.0943 12.402 18.0208C12.6652 17.9472 12.9469 17.9811 13.1853 18.1148C16.7685 20.1801 22.0349 21.3263 27.6421 21.3263C33.2493 21.3263 38.4951 20.1594 42.099 18.1251C42.3361 17.9905 42.6168 17.9551 42.8799 18.0267C43.143 18.0983 43.3671 18.271 43.5033 18.5072C43.6371 18.7456 43.6709 19.0273 43.5974 19.2905C43.5238 19.5538 43.3489 19.7771 43.1109 19.9116C39.2282 22.1214 33.5901 23.3916 27.6524 23.3916Z" fill="#404040"/>
<path d="M12.7103 45.3144C12.5284 45.3151 12.3495 45.2677 12.1917 45.177C12.034 45.0864 11.9029 44.9557 11.812 44.7981C11.7437 44.6802 11.6994 44.55 11.6816 44.415C11.6639 44.2799 11.6731 44.1427 11.7086 44.0112C11.7441 43.8797 11.8053 43.7565 11.8886 43.6488C11.9719 43.541 12.0757 43.4508 12.194 43.3833C16.087 41.1838 21.7252 39.9137 27.6835 39.9137C29.507 39.9127 31.3285 40.0335 33.1358 40.2751C33.4097 40.3121 33.6576 40.4563 33.8252 40.6761C33.9927 40.8959 34.066 41.1733 34.029 41.4471C33.9921 41.721 33.8478 41.969 33.628 42.1365C33.4082 42.304 33.1309 42.3774 32.857 42.3404C31.1455 42.1112 29.4206 41.9974 27.6938 41.9996C22.1073 41.9996 16.8409 43.1665 13.237 45.2008C13.0746 45.2846 12.8928 45.3238 12.7103 45.3144Z" fill="#404040"/>
<path d="M41.7686 53.9368C41.6327 53.9376 41.4979 53.9116 41.3721 53.8602C41.2463 53.8088 41.1319 53.7331 41.0354 53.6374L34.8396 47.4416L36.2956 45.9856L41.6653 51.3449L55.3683 33.7179L56.9999 34.9881L42.543 53.5754C42.4503 53.6882 42.3357 53.7811 42.2061 53.8486C42.0766 53.916 41.9348 53.9565 41.7892 53.9678L41.7686 53.9368Z" fill="#FA4616"/>
</svg>
