<svg width="64" height="64" viewBox="0 0 64 64" fill="none" xmlns="http://www.w3.org/2000/svg">
<path d="M53.875 43.125H51.7917V18.125C51.7917 17.8487 51.6819 17.5838 51.4866 17.3884C51.2912 17.1931 51.0263 17.0833 50.75 17.0833H13.25C12.9737 17.0833 12.7088 17.1931 12.5134 17.3884C12.3181 17.5838 12.2083 17.8487 12.2083 18.125V43.125H10.125V18.125C10.125 17.2962 10.4542 16.5013 11.0403 15.9153C11.6263 15.3292 12.4212 15 13.25 15H50.75C51.5788 15 52.3737 15.3292 52.9597 15.9153C53.5458 16.5013 53.875 17.2962 53.875 18.125V43.125Z" fill="#404040"/>
<path d="M51.7917 49.375H12.2083C10.827 49.375 9.50224 48.8263 8.52549 47.8495C7.54873 46.8728 7 45.548 7 44.1667V43.125H27.2292L28.2708 44.1667H35.7083L36.75 43.125H57V44.1667C57 45.548 56.4513 46.8728 55.4745 47.8495C54.4978 48.8263 53.173 49.375 51.7917 49.375ZM9.26042 45.2083C9.47592 45.8179 9.87517 46.3456 10.4031 46.7187C10.9311 47.0918 11.5618 47.292 12.2083 47.2917H51.7917C52.4382 47.292 53.0689 47.0918 53.5969 46.7187C54.1248 46.3456 54.5241 45.8179 54.7396 45.2083H37.6458L36.6042 46.25H27.375L26.3333 45.2083H9.26042Z" fill="#404040"/>
<path d="M42.4167 38.9583H40.3333V28.5416H37.2083V38.9583H35.125V26.4583H42.4167V38.9583Z" fill="#FA4616"/>
<path d="M32.0002 38.9583H29.9168V31.6667H26.7918V38.9583H24.7085V29.5833H32.0002V38.9583Z" fill="#FA4616"/>
<path d="M37.2087 38.9583H35.1253V23.3333H32.0003V38.9583H29.917V21.25H37.2087V38.9583Z" fill="#FA4616"/>
<path d="M26.7917 38.9583H24.7083V34.7916H21.5833V38.9583H19.5V32.7083H26.7917V38.9583Z" fill="#FA4616"/>
<path d="M44.4998 37.9167H17.4165V40H44.4998V37.9167Z" fill="#FA4616"/>
</svg>
