<svg width="64" height="64" viewBox="0 0 64 64" fill="none" xmlns="http://www.w3.org/2000/svg">
<path d="M43 57H21.125C20.2962 57 19.5013 56.6708 18.9153 56.0847C18.3292 55.4987 18 54.7038 18 53.875V10.125C18 9.2962 18.3292 8.50134 18.9153 7.91529C19.5013 7.32924 20.2962 7 21.125 7H43C43.8288 7 44.6236 7.32924 45.2097 7.91529C45.7958 8.50134 46.125 9.2962 46.125 10.125V53.875C46.125 54.7038 45.7958 55.4987 45.2097 56.0847C44.6236 56.6708 43.8288 57 43 57V57ZM21.125 9.08333C20.8487 9.08333 20.5838 9.19308 20.3884 9.38843C20.1931 9.58378 20.0833 9.84873 20.0833 10.125V53.875C20.0833 54.1513 20.1931 54.4162 20.3884 54.6116C20.5838 54.8069 20.8487 54.9167 21.125 54.9167H43C43.2763 54.9167 43.5412 54.8069 43.7366 54.6116C43.9319 54.4162 44.0417 54.1513 44.0417 53.875V10.125C44.0417 9.84873 43.9319 9.58378 43.7366 9.38843C43.5412 9.19308 43.2763 9.08333 43 9.08333H21.125Z" fill="#404040"/>
<path d="M45.0832 48.6667H19.0415V50.75H45.0832V48.6667Z" fill="#404040"/>
<path d="M33.625 51.7917H30.5V53.875H33.625V51.7917Z" fill="#404040"/>
<path d="M40.9167 44.5H38.8333V36.1667H35.7083V44.5H33.625V34.0833H40.9167V44.5Z" fill="#FA4616"/>
<path d="M30.5002 44.5H28.4168V40.3333H25.2918V44.5H23.2085V38.25H30.5002V44.5Z" fill="#FA4616"/>
<path d="M35.7082 44.5H33.6248V30.9583H30.4998V44.5H28.4165V28.875H35.7082V44.5Z" fill="#FA4616"/>
<path d="M40.9167 15.3333H33.625V17.4167H40.9167V15.3333Z" fill="#404040"/>
<path d="M40.9167 19.5H33.625V21.5833H40.9167V19.5Z" fill="#404040"/>
<path d="M37.7917 23.6667H33.625V25.75H37.7917V23.6667Z" fill="#404040"/>
<path d="M31.5418 25.75H23.2085V15.3333H31.5418V25.75ZM25.2918 23.6667H29.4585V17.4167H25.2918V23.6667Z" fill="#404040"/>
</svg>
