<svg width="64" height="64" viewBox="0 0 64 64" fill="none" xmlns="http://www.w3.org/2000/svg">
<path d="M46.3257 22.8913H38.0322V14.6087H39.1192C41.0277 14.6116 42.8574 15.3703 44.208 16.7188C45.5585 18.0673 46.32 19.8958 46.3257 21.8044V22.8913ZM40.2061 20.7174H44.0322C43.8196 19.7852 43.3475 18.9322 42.6704 18.257C41.9933 17.5819 41.139 17.1122 40.2061 16.9022V20.7174Z" fill="#FA4616"/>
<path d="M37.0873 31.0435C36.1423 31.0435 35.2066 30.8574 34.3336 30.4958C33.4606 30.1341 32.6674 29.6041 31.9992 28.9359C31.331 28.2678 30.801 27.4745 30.4393 26.6015C30.0777 25.7285 29.8916 24.7928 29.8916 23.8478C29.8916 22.9029 30.0777 21.9672 30.4393 21.0942C30.801 20.2212 31.331 19.4279 31.9992 18.7597C32.6674 18.0916 33.4606 17.5615 34.3336 17.1999C35.2066 16.8383 36.1423 16.6522 37.0873 16.6522V18.8261C36.0941 18.8261 35.1231 19.1206 34.2973 19.6724C33.4715 20.2242 32.8279 21.0085 32.4478 21.9261C32.0677 22.8437 31.9682 23.8534 32.162 24.8275C32.3558 25.8017 32.834 26.6964 33.5363 27.3987C34.2386 28.1011 35.1334 28.5793 36.1076 28.7731C37.0817 28.9669 38.0914 28.8674 39.009 28.4873C39.9266 28.1072 40.7109 27.4636 41.2627 26.6378C41.8145 25.8119 42.109 24.841 42.109 23.8478H44.2829C44.28 25.7554 43.521 27.5839 42.1722 28.9328C40.8233 30.2816 38.9948 31.0406 37.0873 31.0435Z" fill="#FA4616"/>
<path d="M27.9129 21.7391H19.7607V23.913H27.9129V21.7391Z" fill="#404040"/>
<path d="M27.9129 25.8152H19.7607V27.9891H27.9129V25.8152Z" fill="#404040"/>
<path d="M45.2396 37.0326H37.0874V39.2065H45.2396V37.0326Z" fill="#404040"/>
<path d="M45.2396 41.1087H37.0874V43.2826H45.2396V41.1087Z" fill="#404040"/>
<path d="M43.207 45.1848H37.0874V47.3587H43.207V45.1848Z" fill="#404040"/>
<path d="M24.8586 29.8913H19.7607V32.0652H24.8586V29.8913Z" fill="#404040"/>
<path d="M34.0981 48.3043H31.9242V41.2391H30.0221V48.3043H27.8481V39.0652H34.0981V48.3043Z" fill="#FA4616"/>
<path d="M25.9458 48.3043H23.7719V44.2935H21.8697V48.3043H19.6958V42.1196H25.9458V48.3043Z" fill="#FA4616"/>
<path d="M30.022 48.3044H27.8481V37.163H25.9459V48.3044H23.772V34.9891H30.022V48.3044Z" fill="#FA4616"/>
<path d="M49.8696 57H15.087C14.7987 57 14.5222 56.8855 14.3184 56.6816C14.1145 56.4778 14 56.2013 14 55.913V8.08696C14 7.79868 14.1145 7.52221 14.3184 7.31836C14.5222 7.11452 14.7987 7 15.087 7H49.8696C50.1578 7 50.4343 7.11452 50.6382 7.31836C50.842 7.52221 50.9565 7.79868 50.9565 8.08696V55.913C50.9565 56.2013 50.842 56.4778 50.6382 56.6816C50.4343 56.8855 50.1578 57 49.8696 57ZM16.1739 54.8261H48.7826V9.17391H16.1739V54.8261Z" fill="#404040"/>
</svg>
