<svg width="64" height="64" viewBox="0 0 64 64" fill="none" xmlns="http://www.w3.org/2000/svg">
<path d="M53.7391 45.7826H10.2609C9.39603 45.7826 8.5666 45.4391 7.95507 44.8275C7.34354 44.216 7 43.3866 7 42.5217V14.2609C7 13.396 7.34354 12.5666 7.95507 11.9551C8.5666 11.3436 9.39603 11 10.2609 11H53.7391C54.604 11 55.4334 11.3436 56.0449 11.9551C56.6564 12.5666 57 13.396 57 14.2609V42.5217C57 43.3866 56.6564 44.216 56.0449 44.8275C55.4334 45.4391 54.604 45.7826 53.7391 45.7826V45.7826ZM10.2609 13.1739C9.97259 13.1739 9.6961 13.2884 9.49226 13.4923C9.28841 13.6961 9.17391 13.9726 9.17391 14.2609V42.5217C9.17391 42.81 9.28841 43.0865 9.49226 43.2903C9.6961 43.4942 9.97259 43.6087 10.2609 43.6087H53.7391C54.0274 43.6087 54.3039 43.4942 54.5077 43.2903C54.7116 43.0865 54.8261 42.81 54.8261 42.5217V14.2609C54.8261 13.9726 54.7116 13.6961 54.5077 13.4923C54.3039 13.2884 54.0274 13.1739 53.7391 13.1739H10.2609Z" fill="#404040"/>
<path d="M29.8263 44.6957H27.6523V51.2174H29.8263V44.6957Z" fill="#404040"/>
<path d="M36.3477 44.6957H34.1738V51.2174H36.3477V44.6957Z" fill="#404040"/>
<path d="M41.7825 50.1304H22.2173V52.3043H41.7825V50.1304Z" fill="#404040"/>
<path d="M55.913 37.0869H8.08691V39.2609H55.913V37.0869Z" fill="#404040"/>
<path d="M33.087 40.3478H30.9131V42.5217H33.087V40.3478Z" fill="#404040"/>
<path d="M31.9999 25.1304H23.3042V16.4348H24.3912C26.4091 16.4348 28.3444 17.2364 29.7713 18.6633C31.1982 20.0902 31.9999 22.0255 31.9999 24.0435V25.1304ZM25.4781 22.9565H29.7172C29.5042 21.9121 28.9888 20.9533 28.235 20.1996C27.4813 19.4458 26.5226 18.9304 25.4781 18.7174V22.9565Z" fill="#FA4616"/>
<path d="M22.2171 33.8261C20.1991 33.8261 18.2638 33.0245 16.8369 31.5976C15.41 30.1706 14.6084 28.2354 14.6084 26.2174C14.6084 24.1994 15.41 22.2641 16.8369 20.8372C18.2638 19.4103 20.1991 18.6087 22.2171 18.6087V20.7826C21.1422 20.7826 20.0914 21.1014 19.1977 21.6985C18.3039 22.2957 17.6073 23.1445 17.196 24.1376C16.7846 25.1307 16.677 26.2234 16.8867 27.2777C17.0964 28.3319 17.614 29.3003 18.3741 30.0604C19.1342 30.8204 20.1026 31.338 21.1568 31.5478C22.2111 31.7575 23.3038 31.6498 24.2969 31.2385C25.2899 30.8271 26.1388 30.1305 26.736 29.2368C27.3331 28.3431 27.6519 27.2923 27.6519 26.2174H29.8258C29.8258 28.2354 29.0242 30.1706 27.5972 31.5976C26.1703 33.0245 24.235 33.8261 22.2171 33.8261Z" fill="#FA4616"/>
<path d="M49.3912 20.7826H35.2607V22.9565H49.3912V20.7826Z" fill="#404040"/>
<path d="M49.3912 25.1304H35.2607V27.3043H49.3912V25.1304Z" fill="#404040"/>
<path d="M43.9564 29.4782H35.2607V31.6522H43.9564V29.4782Z" fill="#404040"/>
</svg>
