<svg width="64" height="64" viewBox="0 0 64 64" fill="none" xmlns="http://www.w3.org/2000/svg">
<path d="M53.4638 26.4372H45.1335V22.7349C45.1335 21.9985 44.8409 21.2922 44.3202 20.7715C43.7995 20.2507 43.0932 19.9582 42.3568 19.9582H37.0809L24.7985 12.933V7H22.9473V12.933L10.4612 20.0785C10.3209 20.1599 10.2045 20.2767 10.1236 20.4172C10.0426 20.5577 10 20.717 10 20.8791C10 21.0413 10.0426 21.2006 10.1236 21.3411C10.2045 21.4816 10.3209 21.5984 10.4612 21.6798L22.9473 28.8253V45.893C18.2083 46.1707 14.617 48.4939 14.617 51.4465C14.617 54.5565 18.6803 57 23.8729 57C29.0654 57 33.1287 54.5565 33.1287 51.4465C33.1287 48.5124 29.5374 46.1892 24.7985 45.893V43.1163H42.3845C43.121 43.1163 43.8272 42.8237 44.348 42.303C44.8687 41.7822 45.1613 41.0759 45.1613 40.3395V36.6372H53.4915C53.737 36.6372 53.9724 36.5396 54.146 36.3661C54.3196 36.1925 54.4171 35.9571 54.4171 35.7116V27.3814C54.4197 27.2559 54.3967 27.1312 54.3496 27.0149C54.3024 26.8986 54.2322 26.793 54.143 26.7047C54.0538 26.6164 53.9476 26.5472 53.8308 26.5012C53.7141 26.4552 53.5892 26.4334 53.4638 26.4372V26.4372ZM23.8451 14.5435L34.9521 20.8837L23.8451 27.2148L12.7381 20.8837L23.8451 14.5435ZM31.2498 51.428C31.2498 53.1773 28.2139 55.1303 23.8451 55.1303C19.4764 55.1303 16.4404 53.1773 16.4404 51.428C16.4404 49.6786 19.4856 47.7256 23.8451 47.7256C28.2046 47.7256 31.2498 49.6694 31.2498 51.428ZM43.2823 40.321C43.2823 40.5665 43.1848 40.8019 43.0112 40.9755C42.8376 41.1491 42.6022 41.2466 42.3568 41.2466H24.7707V28.8253L37.0809 21.8093H42.3845C42.63 21.8093 42.8654 21.9069 43.039 22.0804C43.2126 22.254 43.3101 22.4894 43.3101 22.7349V26.4372H34.9799C34.7344 26.4372 34.4989 26.5348 34.3254 26.7083C34.1518 26.8819 34.0543 27.1173 34.0543 27.3628V35.6931C34.0543 35.9385 34.1518 36.174 34.3254 36.3476C34.4989 36.5211 34.7344 36.6186 34.9799 36.6186H43.3101L43.2823 40.321ZM52.5382 34.7675H35.8777V28.2884H52.5382V34.7675Z" fill="#404040"/>
</svg>
