<svg width="64" height="64" viewBox="0 0 64 64" fill="none" xmlns="http://www.w3.org/2000/svg">
<path d="M57 50.5628H7V52.6461H57V50.5628Z" fill="#404040"/>
<path d="M53.8752 34.9378H51.7919V20.6044L47.0627 24.2919C46.9504 24.3797 46.8212 24.4435 46.6832 24.4793C46.5453 24.5151 46.4014 24.5223 46.2606 24.5003C46.1206 24.4786 45.9865 24.4286 45.8665 24.3534C45.7465 24.2782 45.6432 24.1793 45.5627 24.0628L39.3127 14.8648L29.3335 28.5211L27.6147 27.2815L38.4481 12.4273C38.5471 12.2918 38.6774 12.1821 38.828 12.1077C38.9785 12.0334 39.1448 11.9965 39.3127 12.0003C39.4788 12.0022 39.6421 12.0439 39.7889 12.1218C39.9357 12.1997 40.0617 12.3117 40.1564 12.4482L46.6564 21.9482L51.1252 18.469C51.3098 18.3257 51.5373 18.2487 51.771 18.2503H52.8127C53.0889 18.2503 53.3539 18.36 53.5493 18.5554C53.7446 18.7507 53.8543 19.0157 53.8543 19.2919L53.8752 34.9378Z" fill="#FA4616"/>
<path d="M17.5728 43.2711C17.3721 43.2675 17.1768 43.206 17.0102 43.094L10.604 38.9273L11.7394 37.1878L17.3332 40.8232L24.3332 31.6149L25.9894 32.8753L18.4061 42.9065C18.3038 43.0264 18.1757 43.1214 18.0313 43.1846C17.887 43.2477 17.7302 43.2773 17.5728 43.2711Z" fill="#FA4616"/>
<path d="M53.875 49.5211H51.7917V36.8544L46.9896 39.9794C46.8057 40.0985 46.5889 40.1566 46.3701 40.1454C46.1513 40.1341 45.9416 40.0542 45.7708 39.9169L40.0729 35.2919L36.4792 38.8024C36.286 38.984 36.0308 39.0851 35.7656 39.0851C35.5004 39.0851 35.2453 38.984 35.0521 38.8024L20.8542 26.0211L17.3125 30.4065C17.1433 30.6109 16.9025 30.743 16.6393 30.7759C16.376 30.8089 16.1101 30.7401 15.8958 30.5836L12.2083 27.8961V49.5419H10.125V26.6253C10.125 26.349 10.2347 26.0841 10.4301 25.8887C10.6254 25.6934 10.8904 25.5836 11.1667 25.5836H12.2083C12.429 25.5828 12.6442 25.6521 12.8229 25.7815L16.3021 28.3232L19.9479 23.8753C20.0371 23.7667 20.1474 23.6773 20.2721 23.6124C20.3968 23.5475 20.5333 23.5086 20.6735 23.4979C20.8136 23.4871 20.9545 23.5049 21.0875 23.5501C21.2206 23.5953 21.3432 23.6669 21.4479 23.7607L35.7187 36.6565L39.2917 33.1774C39.4747 32.9987 39.717 32.8936 39.9725 32.882C40.228 32.8705 40.4787 32.9534 40.6771 33.1149L46.4896 37.844L52.2708 34.094C52.4281 33.9931 52.6096 33.9364 52.7963 33.9297C52.983 33.9231 53.1681 33.9668 53.3321 34.0563C53.4962 34.1457 53.6331 34.2777 53.7286 34.4383C53.8241 34.5989 53.8747 34.7822 53.875 34.969V49.5211Z" fill="#404040"/>
</svg>
