<svg width="64" height="64" viewBox="0 0 64 64" fill="none" xmlns="http://www.w3.org/2000/svg">
<path d="M36.3478 38.3478C36.204 38.3472 36.0617 38.3181 35.9293 38.2621C35.7968 38.2061 35.6767 38.1244 35.576 38.0217L23.3043 25.75L15.3804 33.6739L13.8369 32.1413L22.5326 23.4457C22.6336 23.3438 22.7538 23.2629 22.8863 23.2077C23.0188 23.1525 23.1608 23.1241 23.3043 23.1241C23.4478 23.1241 23.5899 23.1525 23.7223 23.2077C23.8548 23.2629 23.975 23.3438 24.0761 23.4457L36.3478 35.7174L55.1413 16.9239L56.6848 18.4565L37.1195 38.0217C37.0189 38.1244 36.8988 38.2061 36.7663 38.2621C36.6339 38.3181 36.4916 38.3472 36.3478 38.3478Z" fill="#FA4616"/>
<path d="M48.2594 30.2166L46.7222 31.7538L55.146 40.1776L56.6832 38.6404L48.2594 30.2166Z" fill="#404040"/>
<path d="M32.7715 29.3261L31.228 27.7935L37.7498 21.2717C37.8508 21.1699 37.971 21.089 38.1035 21.0338C38.236 20.9786 38.378 20.9502 38.5215 20.9502C38.665 20.9502 38.8071 20.9786 38.9395 21.0338C39.072 21.089 39.1922 21.1699 39.2933 21.2717L43.8693 25.8478L42.3259 27.3804L38.5215 23.5761L32.7715 29.3261Z" fill="#404040"/>
<path d="M26.7909 32.2307L14.9238 44.0978L16.461 45.635L28.3281 33.7679L26.7909 32.2307Z" fill="#404040"/>
<path d="M57 54.6522H8.08696C7.79868 54.6522 7.52219 54.5376 7.31834 54.3338C7.1145 54.13 7 53.8535 7 53.5652V9H9.17391V52.4783H57V54.6522Z" fill="#404040"/>
<path d="M12.4347 45.9565H8.08691V48.1304H12.4347V45.9565Z" fill="#404040"/>
<path d="M12.4347 39.4348H8.08691V41.6087H12.4347V39.4348Z" fill="#404040"/>
<path d="M12.4347 32.913H8.08691V35.087H12.4347V32.913Z" fill="#404040"/>
<path d="M12.4347 26.3913H8.08691V28.5652H12.4347V26.3913Z" fill="#404040"/>
<path d="M12.4347 19.8696H8.08691V22.0435H12.4347V19.8696Z" fill="#404040"/>
<path d="M12.4347 13.3478H8.08691V15.5217H12.4347V13.3478Z" fill="#404040"/>
</svg>
