<svg width="64" height="64" viewBox="0 0 64 64" fill="none" xmlns="http://www.w3.org/2000/svg">
<path d="M30.3735 35.0138L28.8984 36.4889L36.2148 43.8052L37.6898 42.3301L30.3735 35.0138Z" fill="#FA4616"/>
<path d="M33.1069 30.5251L31.6318 32.0002L39.9291 40.2975L41.4042 38.8224L33.1069 30.5251Z" fill="#FA4616"/>
<path d="M37.2851 27.3393L35.8101 28.8144L42.5806 35.5849L44.0557 34.1099L37.2851 27.3393Z" fill="#FA4616"/>
<path d="M42.4211 54.8829C40.1152 54.8825 37.8422 54.3359 35.7881 53.2881C33.7341 52.2402 31.9574 50.7208 30.6035 48.8542L32.2932 47.6235C33.4484 49.232 34.9688 50.5434 36.7294 51.45C38.4901 52.3566 40.4407 52.8325 42.4211 52.8386C45.3665 52.8292 48.2143 51.7813 50.4633 49.8793C52.7123 47.9773 54.2185 45.3431 54.7169 42.4401C55.2153 39.5371 54.6739 36.5513 53.188 34.0081C51.7021 31.4649 49.3669 29.5273 46.5932 28.536L47.292 26.5647C50.5306 27.7169 53.2589 29.9747 54.9966 32.9406C56.7343 35.9065 57.37 39.3903 56.7917 42.7788C56.2135 46.1672 54.4584 49.2431 51.8354 51.4648C49.2125 53.6865 45.8898 54.9117 42.4524 54.9247L42.4211 54.8829Z" fill="#404040"/>
<path d="M29.2059 46.5804C28.1516 44.3578 27.6759 41.9048 27.823 39.4492C27.97 36.9937 28.7351 34.615 30.0471 32.5341C31.3591 30.4532 33.1756 28.7375 35.3279 27.5462C37.4802 26.3549 39.8985 25.7267 42.3585 25.7198C43.1018 25.72 43.8442 25.7722 44.5802 25.8762L44.2673 27.9623C43.6423 27.8697 43.0112 27.8244 42.3794 27.8267V27.8267C39.0598 27.8267 35.8762 29.1454 33.529 31.4927C31.1817 33.84 29.863 37.0235 29.863 40.3431C29.8563 42.1997 30.2737 44.0334 31.0834 45.7042L29.2059 46.5804Z" fill="#404040"/>
<path d="M26.2961 47.5921C21.1784 47.5921 16.2704 45.5592 12.6517 41.9404C9.03297 38.3217 7 33.4137 7 28.2961C7 23.1784 9.03297 18.2704 12.6517 14.6517C16.2704 11.033 21.1784 9 26.2961 9C31.4001 9.00551 36.2938 11.0341 39.9049 14.6412C43.5159 18.2484 45.5498 23.1399 45.5608 28.2439V28.2439C45.5609 33.3507 43.5365 38.2493 39.9313 41.8662C36.3261 45.4831 31.4341 47.5234 26.3274 47.54L26.2961 47.5921ZM26.2961 11.0861C21.7317 11.0861 17.3543 12.8993 14.1267 16.1268C10.8992 19.3543 9.08606 23.7317 9.08606 28.2961C9.08606 32.8604 10.8992 37.2379 14.1267 40.4654C17.3543 43.6929 21.7317 45.5061 26.2961 45.5061V45.5061C30.8504 45.4923 35.2134 43.6727 38.428 40.4464C41.6426 37.2201 43.4463 32.8505 43.4435 28.2961C43.4325 23.7507 41.6227 19.3945 38.4096 16.1795C35.1965 12.9645 30.8414 11.152 26.2961 11.1382V11.0861Z" fill="#404040"/>
</svg>
