<svg width="64" height="64" viewBox="0 0 64 64" fill="none" xmlns="http://www.w3.org/2000/svg">
<path d="M56 55.03H8C7.73478 55.03 7.48043 54.9247 7.29289 54.7371C7.10536 54.5496 7 54.2952 7 54.03C7 53.7648 7.10536 53.5105 7.29289 53.3229C7.48043 53.1354 7.73478 53.03 8 53.03H56C56.2652 53.03 56.5196 53.1354 56.7071 53.3229C56.8946 53.5105 57 53.7648 57 54.03C57 54.2952 56.8946 54.5496 56.7071 54.7371C56.5196 54.9247 56.2652 55.03 56 55.03Z" fill="#404040"/>
<path d="M8.02002 47C8.5723 47 9.02002 46.5523 9.02002 46C9.02002 45.4477 8.5723 45 8.02002 45C7.46773 45 7.02002 45.4477 7.02002 46C7.02002 46.5523 7.46773 47 8.02002 47Z" fill="#404040"/>
<path d="M8.02002 41C8.5723 41 9.02002 40.5523 9.02002 40C9.02002 39.4477 8.5723 39 8.02002 39C7.46773 39 7.02002 39.4477 7.02002 40C7.02002 40.5523 7.46773 41 8.02002 41Z" fill="#404040"/>
<path d="M8.02002 35C8.5723 35 9.02002 34.5523 9.02002 34C9.02002 33.4477 8.5723 33 8.02002 33C7.46773 33 7.02002 33.4477 7.02002 34C7.02002 34.5523 7.46773 35 8.02002 35Z" fill="#404040"/>
<path d="M8.02002 29C8.5723 29 9.02002 28.5523 9.02002 28C9.02002 27.4477 8.5723 27 8.02002 27C7.46773 27 7.02002 27.4477 7.02002 28C7.02002 28.5523 7.46773 29 8.02002 29Z" fill="#404040"/>
<path d="M8.02002 23C8.5723 23 9.02002 22.5523 9.02002 22C9.02002 21.4477 8.5723 21 8.02002 21C7.46773 21 7.02002 21.4477 7.02002 22C7.02002 22.5523 7.46773 23 8.02002 23Z" fill="#404040"/>
<path d="M8.02002 17C8.5723 17 9.02002 16.5523 9.02002 16C9.02002 15.4477 8.5723 15 8.02002 15C7.46773 15 7.02002 15.4477 7.02002 16C7.02002 16.5523 7.46773 17 8.02002 17Z" fill="#404040"/>
<path d="M8.02002 11C8.5723 11 9.02002 10.5523 9.02002 10C9.02002 9.44772 8.5723 9 8.02002 9C7.46773 9 7.02002 9.44772 7.02002 10C7.02002 10.5523 7.46773 11 8.02002 11Z" fill="#404040"/>
<path d="M53 17.03C52.2089 17.03 51.4355 16.7954 50.7777 16.3559C50.1199 15.9164 49.6072 15.2917 49.3045 14.5608C49.0017 13.8299 48.9225 13.0256 49.0769 12.2497C49.2312 11.4738 49.6122 10.761 50.1716 10.2016C50.731 9.6422 51.4437 9.26122 52.2196 9.10688C52.9956 8.95254 53.7998 9.03179 54.5307 9.33454C55.2616 9.63729 55.8864 10.15 56.3259 10.8077C56.7654 11.4655 57 12.2389 57 13.03C57 14.0909 56.5786 15.1083 55.8284 15.8585C55.0783 16.6086 54.0609 17.03 53 17.03ZM53 11.03C52.6044 11.03 52.2178 11.1473 51.8889 11.3671C51.56 11.5868 51.3036 11.8992 51.1522 12.2647C51.0009 12.6301 50.9613 13.0323 51.0384 13.4202C51.1156 13.8082 51.3061 14.1645 51.5858 14.4442C51.8655 14.7239 52.2219 14.9144 52.6098 14.9916C52.9978 15.0688 53.3999 15.0292 53.7654 14.8778C54.1308 14.7264 54.4432 14.4701 54.6629 14.1412C54.8827 13.8123 55 13.4256 55 13.03C55 12.4996 54.7893 11.9909 54.4142 11.6159C54.0391 11.2408 53.5304 11.03 53 11.03Z" fill="#FA4616"/>
<path d="M53.0001 16.03C52.376 16.0289 51.7677 15.8331 51.2601 15.47L48.2601 26.03H45.5001L41.8001 21.41C41.7049 21.2895 41.5832 21.1925 41.4445 21.1266C41.3058 21.0607 41.1537 21.0277 41.0001 21.03H37.6701L33.9201 11.66C33.8404 11.4642 33.7006 11.2988 33.521 11.1874C33.3413 11.076 33.1309 11.0244 32.9201 11.04C32.704 11.0601 32.5002 11.15 32.3396 11.2961C32.1791 11.4423 32.0704 11.6367 32.0301 11.85L28.1901 32.03H25.6301L21.9101 24.59C21.8194 24.4073 21.675 24.2567 21.4963 24.1584C21.3176 24.0601 21.113 24.0188 20.9101 24.04C20.7095 24.0584 20.519 24.137 20.3638 24.2654C20.2085 24.3939 20.0957 24.5663 20.0401 24.76L16.0401 38.64L12.1001 45.54C11.9698 45.7696 11.9355 46.0415 12.0048 46.2963C12.0741 46.551 12.2414 46.7681 12.4701 46.9C12.6225 46.9864 12.7949 47.0312 12.9701 47.03C13.1446 47.029 13.3158 46.9822 13.4667 46.8945C13.6176 46.8068 13.7429 46.6812 13.8301 46.53L17.8301 39.53C17.8694 39.4596 17.9029 39.386 17.9301 39.31L21.2201 27.78L24.0701 33.48C24.154 33.6465 24.2827 33.7862 24.4417 33.8834C24.6007 33.9805 24.7838 34.0313 24.9701 34.03H28.9701C29.2055 34.0343 29.4348 33.9554 29.6177 33.8072C29.8006 33.6591 29.9254 33.4511 29.9701 33.22L33.3301 15.58L36.0601 22.41C36.1358 22.5942 36.2647 22.7517 36.4304 22.8621C36.5961 22.9726 36.791 23.031 36.9901 23.03H40.5001L44.2101 27.66C44.3043 27.776 44.4232 27.8695 44.5581 27.9335C44.6931 27.9975 44.8407 28.0305 44.9901 28.03H48.9901C49.2133 28.0389 49.433 27.9728 49.6142 27.8423C49.7954 27.7118 49.9278 27.5245 49.9901 27.31L53.2001 16.03H53.0001Z" fill="#FA4616"/>
<path d="M50.47 39.58L48.54 42.03H45.54L41.84 37.4101C41.7419 37.2858 41.6157 37.1867 41.4717 37.1207C41.3278 37.0548 41.1703 37.024 41.0121 37.0308C40.8539 37.0377 40.6997 37.082 40.562 37.1601C40.4242 37.2381 40.307 37.3478 40.22 37.4801L36.52 43.03H33.59L29.89 37.4801C29.8072 37.3562 29.6978 37.2525 29.5698 37.1763C29.4417 37.1002 29.2983 37.0537 29.15 37.0401C29.0035 37.0266 28.8559 37.0456 28.7176 37.0957C28.5793 37.1458 28.4538 37.2258 28.35 37.33L24.6 41.03H21C20.8677 41.0306 20.7368 41.0574 20.6149 41.1089C20.4931 41.1604 20.3826 41.2355 20.29 41.33L16.6 45.03H13C12.7348 45.03 12.4804 45.1354 12.2929 45.323C12.1054 45.5105 12 45.7648 12 46.03C12 46.2953 12.1054 46.5496 12.2929 46.7371C12.4804 46.9247 12.7348 47.03 13 47.03H17C17.2623 47.0289 17.5137 46.9248 17.7 46.7401L21.41 43.03H25C25.2623 43.0289 25.5137 42.9248 25.7 42.7401L28.84 39.6001L32.16 44.6001C32.2527 44.7372 32.3779 44.8491 32.5245 44.9259C32.6711 45.0027 32.8345 45.042 33 45.0401H37C37.1638 45.0403 37.3252 45.0003 37.4699 44.9236C37.6146 44.8469 37.7383 44.7358 37.83 44.6001L41.07 39.7401L44.22 43.6701C44.3141 43.7861 44.433 43.8795 44.568 43.9436C44.703 44.0076 44.8506 44.0406 45 44.0401H49C49.1494 44.0406 49.297 44.0076 49.432 43.9436C49.567 43.8795 49.6859 43.7861 49.78 43.6701L52.02 40.8701C51.37 40.6318 50.8223 40.176 50.47 39.58V39.58Z" fill="#404040"/>
<path d="M53 42.03C52.2089 42.03 51.4355 41.7954 50.7777 41.3559C50.1199 40.9164 49.6072 40.2917 49.3045 39.5608C49.0017 38.8299 48.9225 38.0256 49.0769 37.2497C49.2312 36.4738 49.6122 35.761 50.1716 35.2016C50.731 34.6422 51.4437 34.2612 52.2196 34.1069C52.9956 33.9525 53.7998 34.0318 54.5307 34.3345C55.2616 34.6373 55.8864 35.15 56.3259 35.8077C56.7654 36.4655 57 37.2389 57 38.03C57 39.0909 56.5786 40.1083 55.8284 40.8585C55.0783 41.6086 54.0609 42.03 53 42.03ZM53 36.03C52.6044 36.03 52.2178 36.1473 51.8889 36.3671C51.56 36.5868 51.3036 36.8992 51.1522 37.2647C51.0009 37.6301 50.9613 38.0323 51.0384 38.4202C51.1156 38.8082 51.3061 39.1645 51.5858 39.4442C51.8655 39.7239 52.2219 39.9144 52.6098 39.9916C52.9978 40.0688 53.3999 40.0292 53.7654 39.8778C54.1308 39.7264 54.4432 39.4701 54.6629 39.1412C54.8827 38.8123 55 38.4256 55 38.03C55 37.4996 54.7893 36.9909 54.4142 36.6159C54.0391 36.2408 53.5304 36.03 53 36.03Z" fill="#404040"/>
</svg>
