<svg width="64" height="64" viewBox="0 0 64 64" fill="none" xmlns="http://www.w3.org/2000/svg">
<path d="M53.7391 45.9565H46.1304V48.1304H53.7391V45.9565Z" fill="#FA4616"/>
<path d="M41.7825 37.2609H34.1738V39.4348H41.7825V37.2609Z" fill="#FA4616"/>
<path d="M29.826 41.6087H22.2173V43.7826H29.826V41.6087Z" fill="#FA4616"/>
<path d="M17.8694 35.087H10.2607V37.2609H17.8694V35.087Z" fill="#FA4616"/>
<path d="M57 52.4783H7V54.6522H57V52.4783Z" fill="#404040"/>
<path d="M30.913 51.3913H28.7391V26.3913H23.3043V51.3913H21.1304V25.3043C21.1304 25.0161 21.2449 24.7396 21.4487 24.5358C21.6526 24.3319 21.929 24.2174 22.2173 24.2174H29.826C30.1143 24.2174 30.3908 24.3319 30.5946 24.5358C30.7984 24.7396 30.913 25.0161 30.913 25.3043V51.3913Z" fill="#404040"/>
<path d="M18.9564 51.3913H16.7825V19.8696H11.3477V51.3913H9.17383V18.7826C9.17383 18.4943 9.28833 18.2179 9.49217 18.014C9.69602 17.8102 9.97251 17.6957 10.2608 17.6957H17.8695C18.1578 17.6957 18.4342 17.8102 18.6381 18.014C18.8419 18.2179 18.9564 18.4943 18.9564 18.7826V51.3913Z" fill="#404040"/>
<path d="M42.8695 51.3913H40.6956V11.1739H35.2608V51.3913H33.0869V10.087C33.0869 9.79868 33.2014 9.52222 33.4053 9.31838C33.6091 9.11453 33.8856 9 34.1739 9H41.7826C42.0708 9 42.3473 9.11453 42.5511 9.31838C42.755 9.52222 42.8695 9.79868 42.8695 10.087V51.3913Z" fill="#404040"/>
<path d="M54.8261 51.3913H52.6522V37.2609H47.2174V51.3913H45.0435V36.1739C45.0435 35.8856 45.158 35.6092 45.3618 35.4053C45.5656 35.2015 45.8421 35.087 46.1304 35.087H53.7391C54.0274 35.087 54.3038 35.2015 54.5077 35.4053C54.7115 35.6092 54.8261 35.8856 54.8261 36.1739V51.3913Z" fill="#404040"/>
</svg>
