<svg width="64" height="64" viewBox="0 0 64 64" fill="none" xmlns="http://www.w3.org/2000/svg">
<path d="M19 46.03C18.0111 46.03 17.0444 45.7368 16.2221 45.1874C15.3999 44.638 14.759 43.857 14.3806 42.9434C14.0022 42.0298 13.9032 41.0245 14.0961 40.0546C14.289 39.0847 14.7652 38.1938 15.4645 37.4945C16.1637 36.7952 17.0546 36.319 18.0245 36.1261C18.9945 35.9332 19.9998 36.0322 20.9134 36.4106C21.827 36.7891 22.6079 37.4299 23.1574 38.2522C23.7068 39.0744 24 40.0411 24 41.03C24 42.3561 23.4732 43.6279 22.5355 44.5655C21.5978 45.5032 20.3261 46.03 19 46.03ZM19 38.03C18.4067 38.03 17.8266 38.206 17.3333 38.5356C16.8399 38.8653 16.4554 39.3338 16.2284 39.882C16.0013 40.4301 15.9419 41.0333 16.0576 41.6153C16.1734 42.1972 16.4591 42.7318 16.8787 43.1514C17.2982 43.5709 17.8328 43.8567 18.4147 43.9724C18.9967 44.0882 19.5999 44.0288 20.148 43.8017C20.6962 43.5746 21.1647 43.1901 21.4944 42.6967C21.824 42.2034 22 41.6234 22 41.03C22 40.2344 21.6839 39.4713 21.1213 38.9087C20.5587 38.3461 19.7957 38.03 19 38.03Z" fill="#404040"/>
<path d="M27.1299 25.78L20.1299 37.19C20.7747 37.3747 21.3628 37.7186 21.8399 38.19L28.8399 26.78C28.1951 26.5953 27.607 26.2515 27.1299 25.78V25.78Z" fill="#404040"/>
<path d="M33.43 25.03C33.0849 25.6102 32.6002 26.0949 32.02 26.44L36.58 31.03C36.9193 30.4427 37.4051 29.9534 37.99 29.61L33.43 25.03Z" fill="#404040"/>
<path d="M30 28.03C29.0111 28.03 28.0444 27.7368 27.2221 27.1874C26.3999 26.638 25.759 25.8571 25.3806 24.9434C25.0022 24.0298 24.9032 23.0245 25.0961 22.0546C25.289 21.0847 25.7652 20.1938 26.4645 19.4945C27.1637 18.7952 28.0546 18.319 29.0245 18.1261C29.9945 17.9332 30.9998 18.0322 31.9134 18.4106C32.827 18.7891 33.6079 19.43 34.1574 20.2522C34.7068 21.0744 35 22.0411 35 23.03C35 24.3561 34.4732 25.6279 33.5355 26.5656C32.5978 27.5032 31.3261 28.03 30 28.03ZM30 20.03C29.4067 20.03 28.8266 20.206 28.3333 20.5356C27.8399 20.8653 27.4554 21.3338 27.2284 21.882C27.0013 22.4301 26.9419 23.0334 27.0576 23.6153C27.1734 24.1972 27.4591 24.7318 27.8787 25.1514C28.2982 25.5709 28.8328 25.8567 29.4147 25.9724C29.9967 26.0882 30.5999 26.0288 31.148 25.8017C31.6962 25.5746 32.1647 25.1901 32.4944 24.6967C32.824 24.2034 33 23.6234 33 23.03C33 22.2344 32.6839 21.4713 32.1213 20.9087C31.5587 20.3461 30.7957 20.03 30 20.03V20.03Z" fill="#404040"/>
<path d="M42.9099 30.28L50.7899 17.8C50.1425 17.5966 49.5575 17.2319 49.09 16.7401L41.21 29.21C41.8584 29.4163 42.4435 29.7846 42.9099 30.28Z" fill="#404040"/>
<path d="M40 38.03C39.0111 38.03 38.0444 37.7368 37.2221 37.1874C36.3999 36.638 35.759 35.8571 35.3806 34.9434C35.0022 34.0298 34.9032 33.0245 35.0961 32.0546C35.289 31.0847 35.7652 30.1938 36.4645 29.4945C37.1637 28.7952 38.0546 28.319 39.0245 28.1261C39.9945 27.9332 40.9998 28.0322 41.9134 28.4106C42.827 28.7891 43.6079 29.43 44.1574 30.2522C44.7068 31.0744 45 32.0411 45 33.03C45 34.3561 44.4732 35.6279 43.5355 36.5656C42.5978 37.5032 41.3261 38.03 40 38.03ZM40 30.03C39.4067 30.03 38.8266 30.206 38.3333 30.5356C37.8399 30.8653 37.4554 31.3338 37.2284 31.882C37.0013 32.4301 36.9419 33.0334 37.0576 33.6153C37.1734 34.1972 37.4591 34.7318 37.8787 35.1514C38.2982 35.5709 38.8328 35.8567 39.4147 35.9724C39.9967 36.0882 40.5999 36.0288 41.148 35.8017C41.6962 35.5746 42.1647 35.1901 42.4944 34.6967C42.824 34.2034 43 33.6234 43 33.03C43 32.2344 42.6839 31.4713 42.1213 30.9087C41.5587 30.3461 40.7957 30.03 40 30.03Z" fill="#404040"/>
<path d="M52 19.03C51.0111 19.03 50.0444 18.7368 49.2221 18.1874C48.3999 17.638 47.759 16.8571 47.3806 15.9434C47.0022 15.0298 46.9032 14.0245 47.0961 13.0546C47.289 12.0847 47.7652 11.1938 48.4645 10.4945C49.1637 9.79525 50.0546 9.31903 51.0245 9.1261C51.9945 8.93317 52.9998 9.03221 53.9134 9.41065C54.827 9.78908 55.6079 10.43 56.1574 11.2522C56.7068 12.0744 57 13.0411 57 14.03C57 15.3561 56.4732 16.6279 55.5355 17.5656C54.5978 18.5032 53.3261 19.03 52 19.03ZM52 11.03C51.4067 11.03 50.8266 11.206 50.3333 11.5356C49.8399 11.8653 49.4554 12.3338 49.2284 12.882C49.0013 13.4301 48.9419 14.0334 49.0576 14.6153C49.1734 15.1972 49.4591 15.7318 49.8787 16.1514C50.2982 16.5709 50.8328 16.8567 51.4147 16.9724C51.9967 17.0882 52.5999 17.0288 53.148 16.8017C53.6962 16.5746 54.1647 16.1901 54.4944 15.6967C54.824 15.2034 55 14.6234 55 14.03C55 13.2344 54.6839 12.4713 54.1213 11.9087C53.5587 11.3461 52.7957 11.03 52 11.03Z" fill="#404040"/>
<path d="M56 55.03H8C7.73478 55.03 7.48041 54.9247 7.29288 54.7371C7.10534 54.5496 7 54.2952 7 54.03C7 53.7648 7.10534 53.5105 7.29288 53.3229C7.48041 53.1354 7.73478 53.03 8 53.03H56C56.2652 53.03 56.5195 53.1354 56.7071 53.3229C56.8946 53.5105 57 53.7648 57 54.03C57 54.2952 56.8946 54.5496 56.7071 54.7371C56.5195 54.9247 56.2652 55.03 56 55.03Z" fill="#404040"/>
<path d="M8 47C8.55228 47 9 46.5523 9 46C9 45.4477 8.55228 45 8 45C7.44772 45 7 45.4477 7 46C7 46.5523 7.44772 47 8 47Z" fill="#FA4616"/>
<path d="M8 41C8.55228 41 9 40.5523 9 40C9 39.4477 8.55228 39 8 39C7.44772 39 7 39.4477 7 40C7 40.5523 7.44772 41 8 41Z" fill="#FA4616"/>
<path d="M8 35C8.55228 35 9 34.5523 9 34C9 33.4477 8.55228 33 8 33C7.44772 33 7 33.4477 7 34C7 34.5523 7.44772 35 8 35Z" fill="#FA4616"/>
<path d="M8 29C8.55228 29 9 28.5523 9 28C9 27.4477 8.55228 27 8 27C7.44772 27 7 27.4477 7 28C7 28.5523 7.44772 29 8 29Z" fill="#FA4616"/>
<path d="M8 23C8.55228 23 9 22.5523 9 22C9 21.4477 8.55228 21 8 21C7.44772 21 7 21.4477 7 22C7 22.5523 7.44772 23 8 23Z" fill="#FA4616"/>
<path d="M8 17C8.55228 17 9 16.5523 9 16C9 15.4477 8.55228 15 8 15C7.44772 15 7 15.4477 7 16C7 16.5523 7.44772 17 8 17Z" fill="#FA4616"/>
<path d="M8 11C8.55228 11 9 10.5523 9 10C9 9.44772 8.55228 9 8 9C7.44772 9 7 9.44772 7 10C7 10.5523 7.44772 11 8 11Z" fill="#FA4616"/>
</svg>
