<svg width="64" height="64" viewBox="0 0 64 64" fill="none" xmlns="http://www.w3.org/2000/svg">
<path d="M22.5637 46.1501H20.3266V23.7786H14.7337V46.1501H12.4966V22.66C12.4966 22.3634 12.6144 22.0788 12.8242 21.8691C13.034 21.6593 13.3185 21.5414 13.6152 21.5414H21.4452C21.7418 21.5414 22.0263 21.6593 22.2361 21.8691C22.4459 22.0788 22.5637 22.3634 22.5637 22.66V46.1501Z" fill="#404040"/>
<path d="M27.0379 46.1501H24.8008V15.9486C24.8008 15.6519 24.9186 15.3674 25.1284 15.1576C25.3382 14.9479 25.6227 14.83 25.9194 14.83H33.7494C34.046 14.83 34.3305 14.9479 34.5403 15.1576C34.7501 15.3674 34.8679 15.6519 34.8679 15.9486V30.49H32.6308V17.0672H27.0379V46.1501Z" fill="#404040"/>
<path d="M47.1726 29.3715H44.9355V9.23715H39.3426V29.3715H37.1055V8.11857C37.1055 7.82191 37.2233 7.53739 37.4331 7.32762C37.6429 7.11785 37.9274 7 38.224 7H46.0541C46.3507 7 46.6352 7.11785 46.845 7.32762C47.0548 7.53739 47.1726 7.82191 47.1726 8.11857V29.3715Z" fill="#404040"/>
<path d="M28.1343 47.2686H8V49.5058H28.1343V47.2686Z" fill="#404040"/>
<path d="M41.5797 55.0986C39.1461 55.0986 36.7672 54.377 34.7438 53.025C32.7204 51.673 31.1433 49.7513 30.212 47.503C29.2807 45.2547 29.0371 42.7807 29.5118 40.3939C29.9866 38.0071 31.1585 35.8146 32.8792 34.0939C34.6 32.3731 36.7924 31.2012 39.1792 30.7265C41.566 30.2517 44.04 30.4954 46.2883 31.4266C48.5367 32.3579 50.4583 33.935 51.8103 35.9584C53.1624 37.9818 53.884 40.3608 53.884 42.7943C53.884 46.0576 52.5876 49.1873 50.2801 51.4948C47.9726 53.8023 44.843 55.0986 41.5797 55.0986V55.0986ZM41.5797 32.7272C39.5886 32.7272 37.6422 33.3176 35.9867 34.4238C34.3311 35.53 33.0408 37.1023 32.2789 38.9418C31.5169 40.7813 31.3175 42.8055 31.706 44.7583C32.0944 46.7112 33.0532 48.505 34.4611 49.9129C35.8691 51.3208 37.6629 52.2796 39.6157 52.668C41.5685 53.0565 43.5927 52.8571 45.4322 52.0952C47.2718 51.3332 48.844 50.0429 49.9502 48.3873C51.0564 46.7318 51.6469 44.7854 51.6469 42.7943C51.6469 40.1244 50.5862 37.5637 48.6983 35.6758C46.8103 33.7878 44.2497 32.7272 41.5797 32.7272V32.7272Z" fill="#404040"/>
<path d="M51.2919 49.8261L49.71 51.408L55.302 57L56.8839 55.4181L51.2919 49.8261Z" fill="#404040"/>
<path d="M42.6756 37.2015H40.4385V49.5058H42.6756V37.2015Z" fill="#FA4616"/>
<path d="M45.2372 42.47L41.557 38.7787L37.8769 42.47L36.2886 40.8816L41.557 35.6243L46.8255 40.8816L45.2372 42.47Z" fill="#FA4616"/>
</svg>
