<svg width="64" height="64" viewBox="0 0 64 64" fill="none" xmlns="http://www.w3.org/2000/svg">
<path d="M56 53.03H8C7.73478 53.03 7.48041 53.1354 7.29288 53.3229C7.10534 53.5105 7 53.7648 7 54.03C7 54.2952 7.10534 54.5496 7.29288 54.7371C7.48041 54.9247 7.73478 55.03 8 55.03H56C56.2652 55.03 56.5196 54.9247 56.7071 54.7371C56.8946 54.5496 57 54.2952 57 54.03C57 53.7648 56.8946 53.5105 56.7071 53.3229C56.5196 53.1354 56.2652 53.03 56 53.03Z" fill="#404040"/>
<path d="M8 47C8.55228 47 9 46.5523 9 46C9 45.4477 8.55228 45 8 45C7.44772 45 7 45.4477 7 46C7 46.5523 7.44772 47 8 47Z" fill="#FA4616"/>
<path d="M8 41C8.55228 41 9 40.5523 9 40C9 39.4477 8.55228 39 8 39C7.44772 39 7 39.4477 7 40C7 40.5523 7.44772 41 8 41Z" fill="#FA4616"/>
<path d="M8 35C8.55228 35 9 34.5523 9 34C9 33.4477 8.55228 33 8 33C7.44772 33 7 33.4477 7 34C7 34.5523 7.44772 35 8 35Z" fill="#FA4616"/>
<path d="M8 29C8.55228 29 9 28.5523 9 28C9 27.4477 8.55228 27 8 27C7.44772 27 7 27.4477 7 28C7 28.5523 7.44772 29 8 29Z" fill="#FA4616"/>
<path d="M8 23C8.55228 23 9 22.5523 9 22C9 21.4477 8.55228 21 8 21C7.44772 21 7 21.4477 7 22C7 22.5523 7.44772 23 8 23Z" fill="#FA4616"/>
<path d="M8 17C8.55228 17 9 16.5523 9 16C9 15.4477 8.55228 15 8 15C7.44772 15 7 15.4477 7 16C7 16.5523 7.44772 17 8 17Z" fill="#FA4616"/>
<path d="M8 11C8.55228 11 9 10.5523 9 10C9 9.44772 8.55228 9 8 9C7.44772 9 7 9.44772 7 10C7 10.5523 7.44772 11 8 11Z" fill="#FA4616"/>
<path d="M17 26.03C16.7348 26.03 16.4804 26.1354 16.2929 26.3229C16.1053 26.5105 16 26.7648 16 27.03V46.03C16 46.2952 16.1053 46.5496 16.2929 46.7371C16.4804 46.9247 16.7348 47.03 17 47.03H25C25.2652 47.03 25.5196 46.9247 25.7071 46.7371C25.8946 46.5496 26 46.2952 26 46.03V27.03C26 26.7648 25.8946 26.5105 25.7071 26.3229C25.5196 26.1354 25.2652 26.03 25 26.03H17ZM24 45.03H18V28.03H24V45.03Z" fill="#404040"/>
<path d="M30 34.03V46.03C30 46.2952 30.1053 46.5496 30.2929 46.7371C30.4804 46.9247 30.7348 47.03 31 47.03H39C39.2652 47.03 39.5196 46.9247 39.7071 46.7371C39.8946 46.5496 40 46.2952 40 46.03V34.03C40 33.7648 39.8946 33.5105 39.7071 33.3229C39.5196 33.1354 39.2652 33.03 39 33.03H31C30.7348 33.03 30.4804 33.1354 30.2929 33.3229C30.1053 33.5105 30 33.7648 30 34.03ZM32 35.03H38V45.03H32V35.03Z" fill="#404040"/>
<path d="M45 47.03H53C53.2652 47.03 53.5196 46.9247 53.7071 46.7371C53.8946 46.5496 54 46.2952 54 46.03V13.03C54 12.7648 53.8946 12.5105 53.7071 12.3229C53.5196 12.1354 53.2652 12.03 53 12.03H45C44.7348 12.03 44.4804 12.1354 44.2929 12.3229C44.1053 12.5105 44 12.7648 44 13.03V46.03C44 46.2952 44.1053 46.5496 44.2929 46.7371C44.4804 46.9247 44.7348 47.03 45 47.03ZM46 14.03H52V45.03H46V14.03Z" fill="#404040"/>
<path d="M14 11.03H31C31.2652 11.03 31.5196 10.9247 31.7071 10.7371C31.8946 10.5496 32 10.2952 32 10.03C32 9.76481 31.8946 9.51047 31.7071 9.32294C31.5196 9.1354 31.2652 9.03003 31 9.03003H14C13.7348 9.03003 13.4804 9.1354 13.2929 9.32294C13.1053 9.51047 13 9.76481 13 10.03C13 10.2952 13.1053 10.5496 13.2929 10.7371C13.4804 10.9247 13.7348 11.03 14 11.03Z" fill="#404040"/>
<path d="M14 15.03H23C23.2652 15.03 23.5196 14.9247 23.7071 14.7371C23.8946 14.5496 24 14.2952 24 14.03C24 13.7648 23.8946 13.5105 23.7071 13.3229C23.5196 13.1354 23.2652 13.03 23 13.03H14C13.7348 13.03 13.4804 13.1354 13.2929 13.3229C13.1053 13.5105 13 13.7648 13 14.03C13 14.2952 13.1053 14.5496 13.2929 14.7371C13.4804 14.9247 13.7348 15.03 14 15.03Z" fill="#404040"/>
<path d="M14 19.03H18C18.2652 19.03 18.5196 18.9247 18.7071 18.7371C18.8946 18.5496 19 18.2952 19 18.03C19 17.7648 18.8946 17.5105 18.7071 17.3229C18.5196 17.1354 18.2652 17.03 18 17.03H14C13.7348 17.03 13.4804 17.1354 13.2929 17.3229C13.1053 17.5105 13 17.7648 13 18.03C13 18.2952 13.1053 18.5496 13.2929 18.7371C13.4804 18.9247 13.7348 19.03 14 19.03Z" fill="#404040"/>
</svg>
