<svg width="64" height="64" viewBox="0 0 64 64" fill="none" xmlns="http://www.w3.org/2000/svg">
<path d="M15.7508 16.6944L12.152 13.0956L8.55327 16.6944L7 15.1521L12.152 10L17.3041 15.1521L15.7508 16.6944Z" fill="#FA4616"/>
<path d="M57 54.2136H11.0581V11.5533H13.2458V52.0259H57V54.2136Z" fill="#FA4616"/>
<path d="M41.7082 27.983H14.3618V25.7952H40.6143V21.4198H14.3618V19.2321H41.7082C41.9983 19.2321 42.2765 19.3474 42.4816 19.5525C42.6868 19.7577 42.802 20.0359 42.802 20.326V26.8891C42.802 27.1792 42.6868 27.4575 42.4816 27.6626C42.2765 27.8677 41.9983 27.983 41.7082 27.983Z" fill="#404040"/>
<path d="M51.5528 38.9215H14.3618V36.7338H50.459V32.3584H14.3618V30.1707H51.5528C51.8429 30.1707 52.1212 30.2859 52.3263 30.4911C52.5314 30.6962 52.6467 30.9744 52.6467 31.2645V37.8276C52.6467 38.1177 52.5314 38.396 52.3263 38.6011C52.1212 38.8063 51.8429 38.9215 51.5528 38.9215Z" fill="#404040"/>
<path d="M34.0512 49.86H14.3618V47.6723H32.9573V43.2969H14.3618V41.1092H34.0512C34.3413 41.1092 34.6195 41.2245 34.8247 41.4296C35.0298 41.6347 35.145 41.9129 35.145 42.203V48.7662C35.145 49.0563 35.0298 49.3345 34.8247 49.5397C34.6195 49.7448 34.3413 49.86 34.0512 49.86Z" fill="#404040"/>
</svg>
