<svg width="64" height="64" viewBox="0 0 64 64" fill="none" xmlns="http://www.w3.org/2000/svg">
<path d="M25.1586 49.0761L23.626 47.5326L23.7564 47.3913C24.0949 46.979 24.5242 46.6506 25.0107 46.4318C25.4972 46.2131 26.0277 46.1099 26.5608 46.1304H41.6695C42.9086 45.6196 48.4194 40.2826 49.6694 38.8804C51.4898 36.4366 53.1318 33.8647 54.5825 31.1848C53.7267 30.7484 52.7408 30.6401 51.8107 30.8804C50.3977 31.2065 49.4521 32.2065 48.1803 34.6739C48.0768 34.8744 47.9135 35.0378 47.7129 35.1413L42.7347 37.7282L41.7347 35.7935L46.4086 33.3696C47.702 30.9239 49.0064 29.3043 51.3216 28.7717C52.2761 28.4869 53.2914 28.4755 54.2521 28.7387C55.2128 29.0019 56.0804 29.5293 56.7564 30.2609C56.8724 30.4143 56.9455 30.5958 56.9684 30.7867C56.9914 30.9777 56.9632 31.1713 56.8868 31.3478C55.2876 34.5104 53.4068 37.5226 51.2673 40.3478C51.1912 40.4239 43.789 48.3152 41.7564 48.3152H26.539C26.3048 48.2981 26.07 48.341 25.857 48.4399C25.644 48.5388 25.4597 48.6904 25.3216 48.8804L25.1586 49.0761Z" fill="#404040"/>
<path d="M21.1259 57C20.8407 56.9988 20.5675 56.8856 20.365 56.6848L7.32153 43.6413C7.21965 43.5402 7.13877 43.42 7.08359 43.2876C7.02841 43.1551 7 43.013 7 42.8696C7 42.7261 7.02841 42.584 7.08359 42.4515C7.13877 42.3191 7.21965 42.1989 7.32153 42.0978L12.7563 36.663C12.96 36.4606 13.2354 36.347 13.5226 36.347C13.8098 36.347 14.0853 36.4606 14.2889 36.663L27.3324 49.7065C27.4343 49.8076 27.5151 49.9278 27.5703 50.0602C27.6255 50.1927 27.6539 50.3348 27.6539 50.4782C27.6539 50.6217 27.6255 50.7638 27.5703 50.8963C27.5151 51.0287 27.4343 51.1489 27.3324 51.25L21.8976 56.6848C21.796 56.7855 21.6756 56.8652 21.5431 56.9193C21.4107 56.9734 21.2689 57.0008 21.1259 57V57ZM9.62587 42.8696L21.1259 54.3804L25.0281 50.4782L13.5172 38.9674L9.62587 42.8696Z" fill="#404040"/>
<path d="M14.2935 42.107L12.7563 43.6442L14.9315 45.8194L16.4687 44.2822L14.2935 42.107Z" fill="#404040"/>
<path d="M26.5611 33.087H24.3872V23.3043C24.3872 23.0161 24.5017 22.7396 24.7056 22.5358C24.9094 22.3319 25.1859 22.2174 25.4742 22.2174H33.0829V24.3913H26.5611V33.087Z" fill="#404040"/>
<path d="M34.1695 34.1739H31.9956V8.08696C31.9956 7.79868 32.1101 7.52222 32.314 7.31838C32.5178 7.11453 32.7943 7 33.0826 7H40.6913C40.9795 7 41.256 7.11453 41.4598 7.31838C41.6637 7.52222 41.7782 7.79868 41.7782 8.08696V15.6956H39.6043V9.17391H34.1695V34.1739Z" fill="#FA4616"/>
<path d="M41.7784 35.2609H39.6045V15.6956C39.6045 15.4074 39.719 15.1309 39.9228 14.9271C40.1267 14.7232 40.4032 14.6087 40.6914 14.6087H48.3001C48.5884 14.6087 48.8649 14.7232 49.0687 14.9271C49.2726 15.1309 49.3871 15.4074 49.3871 15.6956V32.5435H47.2132V16.7826H41.7784V35.2609Z" fill="#404040"/>
<path d="M39.6041 41.7826H30.9084V39.6087H39.6041C41.1041 39.6087 41.778 38.7935 41.778 37.9783C41.778 37.163 41.1041 36.3478 39.6041 36.3478H33.865C33.0222 36.2321 32.238 35.8515 31.6258 35.2609C31.1147 34.7663 30.4977 34.3946 29.8215 34.1739H24.3867C23.0172 34.4091 21.7554 35.0666 20.778 36.0544L16.4302 40.4022L14.9302 38.837L19.278 34.4891C20.648 33.1022 22.4502 32.2242 24.3867 32H29.8215C30.9989 32.1512 32.0964 32.6771 32.9519 33.5C33.2608 33.762 33.596 33.9915 33.9519 34.1848H39.6041C42.4628 34.1848 43.9519 36.0978 43.9519 37.9891C43.9519 39.8804 42.4628 41.7826 39.6041 41.7826Z" fill="#404040"/>
</svg>
