<svg width="64" height="64" viewBox="0 0 64 64" fill="none" xmlns="http://www.w3.org/2000/svg">
<path d="M21.521 44.5H19.4377V22.625H14.2293V44.5H12.146V21.5833C12.146 21.3071 12.2557 21.0421 12.4511 20.8468C12.6464 20.6514 12.9114 20.5417 13.1877 20.5417H20.4793C20.7556 20.5417 21.0205 20.6514 21.2159 20.8468C21.4112 21.0421 21.521 21.3071 21.521 21.5833V44.5Z" fill="#404040"/>
<path d="M25.6873 44.5H23.604V15.3333C23.604 15.0571 23.7137 14.7921 23.9091 14.5968C24.1045 14.4014 24.3694 14.2917 24.6457 14.2917H31.9373C32.2136 14.2917 32.4786 14.4014 32.6739 14.5968C32.8693 14.7921 32.979 15.0571 32.979 15.3333V27.8333H30.8957V16.375H25.6873V44.5Z" fill="#404040"/>
<path d="M44.4375 26.7917H42.3542V9.08333H37.1458V26.7917H35.0625V8.04167C35.0625 7.7654 35.1722 7.50045 35.3676 7.3051C35.5629 7.10975 35.8279 7 36.1042 7H43.3958C43.6721 7 43.9371 7.10975 44.1324 7.3051C44.3278 7.50045 44.4375 7.7654 44.4375 8.04167V26.7917Z" fill="#404040"/>
<path d="M26.75 45.5417H8V47.625H26.75V45.5417Z" fill="#404040"/>
<path d="M42.3543 57C39.47 57 36.6505 56.1447 34.2523 54.5422C31.854 52.9398 29.9849 50.6622 28.8811 47.9974C27.7773 45.3327 27.4885 42.4005 28.0512 39.5716C28.6139 36.7427 30.0028 34.1442 32.0424 32.1047C34.0819 30.0652 36.6804 28.6762 39.5093 28.1135C42.3382 27.5508 45.2704 27.8396 47.9351 28.9434C50.5999 30.0472 52.8775 31.9164 54.4799 34.3146C56.0824 36.7128 56.9377 39.5323 56.9377 42.4167C56.9377 46.2844 55.4012 49.9937 52.6663 52.7286C49.9314 55.4635 46.2221 57 42.3543 57V57ZM42.3543 29.9167C39.8821 29.9167 37.4653 30.6498 35.4097 32.0233C33.3541 33.3968 31.7519 35.349 30.8058 37.6331C29.8597 39.9172 29.6122 42.4305 30.0945 44.8553C30.5768 47.28 31.7673 49.5073 33.5155 51.2555C35.2637 53.0036 37.4909 54.1942 39.9157 54.6765C42.3405 55.1588 44.8538 54.9112 47.1379 53.9651C49.4219 53.019 51.3742 51.4169 52.7477 49.3613C54.1212 47.3057 54.8543 44.8889 54.8543 42.4167C54.8543 39.1015 53.5374 35.922 51.1932 33.5778C48.8489 31.2336 45.6695 29.9167 42.3543 29.9167Z" fill="#404040"/>
<path d="M34.0208 42.4167H31.9375C31.9371 40.4585 32.4887 38.5399 33.5289 36.8809C34.5692 35.222 36.0559 33.8898 37.8187 33.0372C39.5815 32.1847 41.5489 31.8462 43.4953 32.0607C45.4416 32.2752 47.2881 33.034 48.8229 34.25C49.6891 34.9407 50.4413 35.7632 51.0521 36.6875L49.3125 37.8333C48.8381 37.0847 48.2474 36.4166 47.5625 35.8542C46.0851 34.6727 44.2458 34.0363 42.3542 34.0521C41.2572 34.0521 40.171 34.2686 39.1579 34.6894C38.1448 35.1101 37.2248 35.7268 36.4505 36.5039C35.6763 37.281 35.0631 38.2034 34.6462 39.218C34.2292 40.2327 34.0167 41.3197 34.0208 42.4167V42.4167Z" fill="#FA4616"/>
<path d="M42.3542 51.7916C41.5301 51.7916 40.7245 51.5473 40.0393 51.0894C39.3541 50.6316 38.82 49.9809 38.5047 49.2195C38.1893 48.4581 38.1068 47.6204 38.2676 46.8121C38.4283 46.0038 38.8252 45.2614 39.4079 44.6787C39.9906 44.096 40.733 43.6991 41.5413 43.5384C42.3495 43.3776 43.1873 43.4601 43.9487 43.7755C44.71 44.0908 45.3608 44.6249 45.8186 45.3101C46.2765 45.9953 46.5208 46.8009 46.5208 47.625C46.5208 48.7301 46.0818 49.7899 45.3004 50.5713C44.519 51.3527 43.4592 51.7916 42.3542 51.7916ZM42.3542 45.5416C41.9421 45.5416 41.5393 45.6638 41.1967 45.8927C40.8541 46.1217 40.5871 46.447 40.4294 46.8277C40.2717 47.2084 40.2305 47.6273 40.3109 48.0314C40.3913 48.4355 40.5897 48.8068 40.881 49.0981C41.1724 49.3895 41.5436 49.5879 41.9477 49.6683C42.3519 49.7487 42.7707 49.7074 43.1514 49.5497C43.5321 49.3921 43.8575 49.125 44.0864 48.7824C44.3153 48.4398 44.4375 48.037 44.4375 47.625C44.4375 47.0724 44.218 46.5425 43.8273 46.1518C43.4366 45.7611 42.9067 45.5416 42.3542 45.5416Z" fill="#FA4616"/>
<path d="M52.1363 38.4929L44.2095 44.9418L45.5242 46.5579L53.4511 40.109L52.1363 38.4929Z" fill="#FA4616"/>
</svg>
