<svg width="64" height="64" viewBox="0 0 64 64" fill="none" xmlns="http://www.w3.org/2000/svg">
<path d="M54.9167 53.7083H9.08333C8.5308 53.7083 8.00089 53.4888 7.61019 53.0981C7.21949 52.7074 7 52.1775 7 51.625V13.0833C7 12.5308 7.21949 12.0009 7.61019 11.6102C8.00089 11.2195 8.5308 11 9.08333 11H54.9167C55.4692 11 55.9991 11.2195 56.3898 11.6102C56.7805 12.0009 57 12.5308 57 13.0833V51.625C57 52.1775 56.7805 52.7074 56.3898 53.0981C55.9991 53.4888 55.4692 53.7083 54.9167 53.7083ZM9.08333 13.0833V51.625H54.9167V13.0833H9.08333Z" fill="#404040"/>
<path d="M55.9587 17.25H8.04199V19.3333H55.9587V17.25Z" fill="#404040"/>
<path d="M13.2498 14.125H11.1665V16.2083H13.2498V14.125Z" fill="#404040"/>
<path d="M17.4163 14.125H15.333V16.2083H17.4163V14.125Z" fill="#404040"/>
<path d="M21.5833 14.125H19.5V16.2083H21.5833V14.125Z" fill="#404040"/>
<path d="M28.8748 29.75H20.5415V21.4167H21.5832C23.517 21.4167 25.3717 22.1849 26.7391 23.5524C28.1066 24.9198 28.8748 26.7745 28.8748 28.7084V29.75ZM22.6248 27.6667H26.6873C26.4832 26.6658 25.9892 25.747 25.2669 25.0246C24.5446 24.3023 23.6258 23.8083 22.6248 23.6042V27.6667Z" fill="#FA4616"/>
<path d="M19.5002 38.0833C17.5663 38.0833 15.7116 37.3151 14.3442 35.9477C12.9767 34.5802 12.2085 32.7255 12.2085 30.7917C12.2085 28.8578 12.9767 27.0031 14.3442 25.6357C15.7116 24.2682 17.5663 23.5 19.5002 23.5V25.5833C18.4701 25.5833 17.4631 25.8888 16.6066 26.4611C15.75 27.0334 15.0825 27.8468 14.6883 28.7985C14.2941 29.7502 14.1909 30.7974 14.3919 31.8078C14.5929 32.8181 15.0889 33.7461 15.8173 34.4745C16.5457 35.2029 17.4737 35.699 18.4841 35.8999C19.4944 36.1009 20.5416 35.9977 21.4933 35.6035C22.445 35.2093 23.2584 34.5418 23.8307 33.6853C24.403 32.8288 24.7085 31.8218 24.7085 30.7917H26.7918C26.7918 32.7255 26.0236 34.5802 24.6561 35.9477C23.2887 37.3151 21.434 38.0833 19.5002 38.0833V38.0833Z" fill="#FA4616"/>
<path d="M50.75 23.5H32V25.5833H50.75V23.5Z" fill="#404040"/>
<path d="M50.75 27.6667H32V29.75H50.75V27.6667Z" fill="#404040"/>
<path d="M27.8335 42.25H12.2085V44.3333H27.8335V42.25Z" fill="#404040"/>
<path d="M21.5835 46.4167H12.2085V48.5H21.5835V46.4167Z" fill="#404040"/>
<path d="M42.4167 31.8333H32V33.9167H42.4167V31.8333Z" fill="#404040"/>
<path d="M46.5835 49.5416H44.5002V43.2916H42.4168V49.5416H40.3335V41.2083H46.5835V49.5416Z" fill="#FA4616"/>
<path d="M50.75 49.5417H48.6667V45.375H46.5833V49.5417H44.5V43.2917H50.75V49.5417Z" fill="#FA4616"/>
<path d="M38.25 49.5417H36.1667V46.4167H34.0833V49.5417H32V44.3333H38.25V49.5417Z" fill="#FA4616"/>
<path d="M42.417 49.5417H40.3337V39.125H38.2503V49.5417H36.167V37.0417H42.417V49.5417Z" fill="#FA4616"/>
</svg>
