<svg width="64" height="64" viewBox="0 0 64 64" fill="none" xmlns="http://www.w3.org/2000/svg">
<path d="M26.1748 48.4815L30.862 37.7649L50.3564 18.2812C50.5542 18.0831 50.7892 17.9259 51.0479 17.8187C51.3065 17.7115 51.5837 17.6563 51.8637 17.6563C52.1437 17.6563 52.4209 17.7115 52.6796 17.8187C52.9382 17.9259 53.1732 18.0831 53.3711 18.2812L56.3751 21.2852C56.5732 21.4831 56.7304 21.7181 56.8376 21.9767C56.9448 22.2354 57 22.5126 57 22.7926C57 23.0726 56.9448 23.3498 56.8376 23.6085C56.7304 23.8671 56.5732 24.1021 56.3751 24.2999L36.8914 43.7943L26.1748 48.4815ZM32.6516 38.99L30.308 44.3163L35.6344 41.9727L54.8092 22.7979L51.7945 19.7832L32.6516 38.99Z" fill="#404040"/>
<path d="M48.1374 22.0152L46.6309 23.5217L51.1504 28.0412L52.6569 26.5347L48.1374 22.0152Z" fill="#404040"/>
<path d="M17.6527 24.0443C16.8099 24.0443 15.9861 23.7944 15.2854 23.3261C14.5846 22.8579 14.0385 22.1924 13.716 21.4138C13.3935 20.6352 13.3091 19.7785 13.4735 18.9519C13.6379 18.1253 14.0437 17.3661 14.6396 16.7702C15.2356 16.1742 15.9948 15.7684 16.8214 15.604C17.6479 15.4396 18.5047 15.524 19.2833 15.8465C20.0619 16.169 20.7274 16.7151 21.1956 17.4159C21.6638 18.1166 21.9137 18.9404 21.9137 19.7832C21.9137 20.9133 21.4648 21.9971 20.6657 22.7962C19.8666 23.5953 18.7828 24.0443 17.6527 24.0443ZM17.6527 17.6527C17.2313 17.6527 16.8194 17.7776 16.469 18.0117C16.1186 18.2458 15.8456 18.5786 15.6843 18.9679C15.5231 19.3572 15.4809 19.7856 15.5631 20.1989C15.6453 20.6122 15.8482 20.9918 16.1462 21.2897C16.4441 21.5877 16.8237 21.7906 17.237 21.8728C17.6503 21.955 18.0787 21.9128 18.468 21.7515C18.8573 21.5903 19.19 21.3172 19.4241 20.9669C19.6582 20.6165 19.7832 20.2046 19.7832 19.7832C19.7832 19.2181 19.5587 18.6762 19.1592 18.2767C18.7596 17.8771 18.2177 17.6527 17.6527 17.6527Z" fill="#FA4616"/>
<path d="M27.2401 32.5664C26.3973 32.5664 25.5735 32.3165 24.8728 31.8483C24.172 31.3801 23.6259 30.7146 23.3034 29.936C22.9809 29.1574 22.8965 28.3006 23.0609 27.474C23.2253 26.6475 23.6311 25.8882 24.227 25.2923C24.823 24.6964 25.5822 24.2906 26.4088 24.1261C27.2353 23.9617 28.0921 24.0461 28.8707 24.3686C29.6493 24.6911 30.3148 25.2373 30.783 25.938C31.2512 26.6387 31.5011 27.4626 31.5011 28.3053C31.5011 29.4354 31.0522 30.5193 30.2531 31.3184C29.454 32.1175 28.3702 32.5664 27.2401 32.5664ZM27.2401 26.1748C26.8187 26.1748 26.4068 26.2998 26.0564 26.5339C25.706 26.768 25.433 27.1007 25.2717 27.49C25.1105 27.8793 25.0683 28.3077 25.1505 28.721C25.2327 29.1343 25.4356 29.5139 25.7336 29.8118C26.0315 30.1098 26.4111 30.3127 26.8244 30.3949C27.2377 30.4771 27.6661 30.4349 28.0554 30.2737C28.4447 30.1124 28.7774 29.8394 29.0115 29.489C29.2456 29.1386 29.3706 28.7267 29.3706 28.3053C29.3706 27.7403 29.1461 27.1984 28.7466 26.7988C28.347 26.3993 27.8051 26.1748 27.2401 26.1748Z" fill="#FA4616"/>
<path d="M27.4486 15.9525L15.7329 30.8619L17.4081 32.1783L29.1238 17.2689L27.4486 15.9525Z" fill="#FA4616"/>
<path d="M22.9577 45.3496H14.4355V47.4802H22.9577V45.3496Z" fill="#FA4616"/>
<path d="M42.1538 56.0023H8.06527C7.78274 56.0023 7.51179 55.8901 7.31201 55.6903C7.11223 55.4905 7 55.2196 7 54.937V8.06527C7 7.78274 7.11223 7.5118 7.31201 7.31203C7.51179 7.11225 7.78274 7 8.06527 7H42.1538C42.4364 7 42.7073 7.11225 42.9071 7.31203C43.1069 7.5118 43.2191 7.78274 43.2191 8.06527V20.8485H41.0886V9.13053H9.13053V53.8718H41.0886V45.3496H43.2191V54.937C43.2191 55.2196 43.1069 55.4905 42.9071 55.6903C42.7073 55.8901 42.4364 56.0023 42.1538 56.0023Z" fill="#404040"/>
</svg>
