<svg width="64" height="64" viewBox="0 0 64 64" fill="none" xmlns="http://www.w3.org/2000/svg">
<path d="M53.875 43.125H51.7917V18.125C51.7917 17.8487 51.6819 17.5838 51.4866 17.3884C51.2912 17.1931 51.0263 17.0833 50.75 17.0833H13.25C12.9737 17.0833 12.7088 17.1931 12.5134 17.3884C12.3181 17.5838 12.2083 17.8487 12.2083 18.125V43.125H10.125V18.125C10.125 17.2962 10.4542 16.5013 11.0403 15.9153C11.6263 15.3292 12.4212 15 13.25 15H50.75C51.5788 15 52.3736 15.3292 52.9597 15.9153C53.5457 16.5013 53.875 17.2962 53.875 18.125V43.125Z" fill="#404040"/>
<path d="M36.1668 30.625H34.0835V37.9167H36.1668V30.625Z" fill="#404040"/>
<path d="M40.3333 21.25H38.25V37.9167H40.3333V21.25Z" fill="#404040"/>
<path d="M48.6668 24.375H46.5835V37.9167H48.6668V24.375Z" fill="#404040"/>
<path d="M44.4998 28.5417H42.4165V37.9167H44.4998V28.5417Z" fill="#404040"/>
<path d="M31.9998 29.5833H23.6665V21.25H24.7082C26.642 21.25 28.4967 22.0182 29.8641 23.3857C31.2316 24.7531 31.9998 26.6078 31.9998 28.5417V29.5833ZM25.7498 27.5H29.8123C29.6082 26.4991 29.1142 25.5803 28.3919 24.8579C27.6696 24.1356 26.7508 23.6416 25.7498 23.4375V27.5Z" fill="#FA4616"/>
<path d="M22.6252 37.9167C20.6913 37.9167 18.8366 37.1484 17.4692 35.781C16.1017 34.4135 15.3335 32.5589 15.3335 30.625C15.3335 28.6911 16.1017 26.8365 17.4692 25.469C18.8366 24.1016 20.6913 23.3333 22.6252 23.3333V25.4167C21.5951 25.4167 20.5881 25.7221 19.7316 26.2944C18.875 26.8667 18.2075 27.6802 17.8133 28.6319C17.4191 29.5836 17.3159 30.6308 17.5169 31.6411C17.7179 32.6514 18.2139 33.5795 18.9423 34.3079C19.6707 35.0363 20.5987 35.5323 21.6091 35.7333C22.6194 35.9342 23.6666 35.8311 24.6183 35.4369C25.57 35.0427 26.3834 34.3751 26.9557 33.5186C27.528 32.6621 27.8335 31.6551 27.8335 30.625H29.9168C29.9168 32.5589 29.1486 34.4135 27.7811 35.781C26.4137 37.1484 24.559 37.9167 22.6252 37.9167V37.9167Z" fill="#FA4616"/>
<path d="M51.7917 48.3333H12.2083C10.827 48.3333 9.50222 47.7846 8.52547 46.8079C7.54871 45.8311 7 44.5063 7 43.125V42.0833H27.2187L28.2604 43.125H35.7292L36.7708 42.0833H57V43.125C57 44.5063 56.4513 45.8311 55.4745 46.8079C54.4977 47.7846 53.173 48.3333 51.7917 48.3333V48.3333ZM9.2604 44.1667C9.4759 44.7762 9.87515 45.3039 10.4031 45.677C10.9311 46.0502 11.5618 46.2503 12.2083 46.25H51.7917C52.4382 46.2503 53.0689 46.0502 53.5968 45.677C54.1248 45.3039 54.5241 44.7762 54.7396 44.1667H37.6354L36.5937 45.2083H27.3958L26.3542 44.1667H9.2604Z" fill="#404040"/>
</svg>
