<svg width="64" height="64" viewBox="0 0 64 64" fill="none" xmlns="http://www.w3.org/2000/svg">
<path d="M17.4168 32.875H10.1252C9.8489 32.875 9.58394 32.7653 9.38859 32.5699C9.19324 32.3746 9.0835 32.1096 9.0835 31.8333V12.0417C9.0835 11.7654 9.19324 11.5005 9.38859 11.3051C9.58394 11.1098 9.8489 11 10.1252 11H17.4168C17.6931 11 17.958 11.1098 18.1534 11.3051C18.3487 11.5005 18.4585 11.7654 18.4585 12.0417V31.8333C18.4585 32.1096 18.3487 32.3746 18.1534 32.5699C17.958 32.7653 17.6931 32.875 17.4168 32.875ZM11.1668 30.7917H16.3752V13.0833H11.1668V30.7917Z" fill="#404040"/>
<path d="M24.7083 32.875H17.4167C17.1404 32.875 16.8754 32.7653 16.6801 32.5699C16.4847 32.3746 16.375 32.1096 16.375 31.8333V16.2083C16.375 15.9321 16.4847 15.6671 16.6801 15.4718C16.8754 15.2764 17.1404 15.1667 17.4167 15.1667H24.7083C24.9846 15.1667 25.2496 15.2764 25.4449 15.4718C25.6403 15.6671 25.75 15.9321 25.75 16.2083V31.8333C25.75 32.1096 25.6403 32.3746 25.4449 32.5699C25.2496 32.7653 24.9846 32.875 24.7083 32.875ZM18.4583 30.7917H23.6667V17.25H18.4583V30.7917Z" fill="#404040"/>
<path d="M31.9998 32.875H24.7082C24.4319 32.875 24.167 32.7653 23.9716 32.5699C23.7762 32.3746 23.6665 32.1096 23.6665 31.8333V24.5417C23.6665 24.2654 23.7762 24.0005 23.9716 23.8051C24.167 23.6098 24.4319 23.5 24.7082 23.5H31.9998C32.2761 23.5 32.5411 23.6098 32.7364 23.8051C32.9318 24.0005 33.0415 24.2654 33.0415 24.5417V31.8333C33.0415 32.1096 32.9318 32.3746 32.7364 32.5699C32.5411 32.7653 32.2761 32.875 31.9998 32.875ZM25.7498 30.7917H30.9582V25.5833H25.7498V30.7917Z" fill="#404040"/>
<path d="M53.8748 52.6667H46.5832C46.3069 52.6667 46.042 52.5569 45.8466 52.3616C45.6512 52.1662 45.5415 51.9013 45.5415 51.625V31.8333C45.5415 31.5571 45.6512 31.2921 45.8466 31.0968C46.042 30.9014 46.3069 30.7917 46.5832 30.7917H53.8748C54.1511 30.7917 54.4161 30.9014 54.6114 31.0968C54.8068 31.2921 54.9165 31.5571 54.9165 31.8333V51.625C54.9165 51.9013 54.8068 52.1662 54.6114 52.3616C54.4161 52.5569 54.1511 52.6667 53.8748 52.6667ZM47.6248 50.5833H52.8332V32.875H47.6248V50.5833Z" fill="#404040"/>
<path d="M46.5833 48.5H39.2917C39.0154 48.5 38.7504 48.3903 38.5551 48.1949C38.3597 47.9996 38.25 47.7346 38.25 47.4583V31.8333C38.25 31.5571 38.3597 31.2921 38.5551 31.0968C38.7504 30.9014 39.0154 30.7917 39.2917 30.7917H46.5833C46.8596 30.7917 47.1246 30.9014 47.3199 31.0968C47.5153 31.2921 47.625 31.5571 47.625 31.8333V47.4583C47.625 47.7346 47.5153 47.9996 47.3199 48.1949C47.1246 48.3903 46.8596 48.5 46.5833 48.5ZM40.3333 46.4167H45.5417V32.875H40.3333V46.4167Z" fill="#404040"/>
<path d="M39.2918 40.1667H32.0002C31.7239 40.1667 31.4589 40.0569 31.2636 39.8616C31.0682 39.6662 30.9585 39.4013 30.9585 39.125V31.8333C30.9585 31.5571 31.0682 31.2921 31.2636 31.0968C31.4589 30.9014 31.7239 30.7917 32.0002 30.7917H39.2918C39.5681 30.7917 39.833 30.9014 40.0284 31.0968C40.2237 31.2921 40.3335 31.5571 40.3335 31.8333V39.125C40.3335 39.4013 40.2237 39.6662 40.0284 39.8616C39.833 40.0569 39.5681 40.1667 39.2918 40.1667ZM33.0418 38.0833H38.2502V32.875H33.0418V38.0833Z" fill="#404040"/>
<path d="M57 30.7917H7V32.875H57V30.7917Z" fill="#404040"/>
<path d="M46.5833 12.0417H44.5V22.4583H46.5833V12.0417Z" fill="#FA4616"/>
<path d="M50.7502 16.2083H40.3335V18.2917H50.7502V16.2083Z" fill="#FA4616"/>
<path d="M23.6667 43.2917H13.25V45.375H23.6667V43.2917Z" fill="#FA4616"/>
</svg>
