<svg width="64" height="64" viewBox="0 0 64 64" fill="none" xmlns="http://www.w3.org/2000/svg">
<path d="M25 35.03C24.2089 35.03 23.4355 34.7954 22.7777 34.3559C22.1199 33.9164 21.6072 33.2917 21.3045 32.5608C21.0017 31.8299 20.9225 31.0256 21.0769 30.2497C21.2312 29.4738 21.6122 28.761 22.1716 28.2016C22.731 27.6422 23.4437 27.2612 24.2196 27.1069C24.9956 26.9525 25.7998 27.0318 26.5307 27.3345C27.2616 27.6373 27.8864 28.1499 28.3259 28.8077C28.7654 29.4655 29 30.2389 29 31.03C29 32.0909 28.5786 33.1083 27.8284 33.8585C27.0783 34.6086 26.0609 35.03 25 35.03ZM25 29.03C24.6044 29.03 24.2178 29.1473 23.8889 29.3671C23.56 29.5868 23.3036 29.8992 23.1523 30.2647C23.0009 30.6301 22.9613 31.0323 23.0384 31.4202C23.1156 31.8082 23.3061 32.1645 23.5858 32.4442C23.8655 32.7239 24.2219 32.9144 24.6098 32.9916C24.9978 33.0687 25.3999 33.0292 25.7654 32.8778C26.1308 32.7264 26.4432 32.4701 26.6629 32.1412C26.8827 31.8123 27 31.4256 27 31.03C27 30.4996 26.7893 29.9909 26.4142 29.6158C26.0391 29.2408 25.5304 29.03 25 29.03Z" fill="#404040"/>
<path d="M41 29.03C40.2089 29.03 39.4355 28.7954 38.7777 28.3559C38.1199 27.9164 37.6072 27.2917 37.3045 26.5608C37.0017 25.8299 36.9225 25.0256 37.0769 24.2497C37.2312 23.4738 37.6122 22.761 38.1716 22.2016C38.731 21.6422 39.4437 21.2612 40.2196 21.1069C40.9956 20.9525 41.7998 21.0318 42.5307 21.3345C43.2616 21.6373 43.8864 22.1499 44.3259 22.8077C44.7654 23.4655 45 24.2389 45 25.03C45 26.0909 44.5786 27.1083 43.8284 27.8585C43.0783 28.6086 42.0609 29.03 41 29.03ZM41 23.03C40.6044 23.03 40.2178 23.1473 39.8889 23.3671C39.56 23.5868 39.3036 23.8992 39.1523 24.2647C39.0009 24.6301 38.9613 25.0323 39.0384 25.4202C39.1156 25.8082 39.3061 26.1645 39.5858 26.4442C39.8655 26.7239 40.2219 26.9144 40.6098 26.9916C40.9978 27.0687 41.3999 27.0292 41.7654 26.8778C42.1308 26.7264 42.4432 26.4701 42.6629 26.1412C42.8827 25.8123 43 25.4256 43 25.03C43 24.4996 42.7893 23.9909 42.4142 23.6158C42.0391 23.2408 41.5304 23.03 41 23.03Z" fill="#404040"/>
<path d="M31 27.03C30.2089 27.03 29.4355 26.7954 28.7777 26.3559C28.1199 25.9164 27.6072 25.2917 27.3045 24.5608C27.0017 23.8299 26.9225 23.0256 27.0769 22.2497C27.2312 21.4738 27.6122 20.761 28.1716 20.2016C28.731 19.6422 29.4437 19.2612 30.2196 19.1069C30.9956 18.9525 31.7998 19.0318 32.5307 19.3345C33.2616 19.6373 33.8864 20.1499 34.3259 20.8077C34.7654 21.4655 35 22.2389 35 23.03C35 24.0909 34.5786 25.1083 33.8284 25.8585C33.0783 26.6086 32.0609 27.03 31 27.03ZM31 21.03C30.6044 21.03 30.2178 21.1473 29.8889 21.3671C29.56 21.5868 29.3036 21.8992 29.1523 22.2647C29.0009 22.6301 28.9613 23.0323 29.0384 23.4202C29.1156 23.8082 29.3061 24.1645 29.5858 24.4442C29.8655 24.7239 30.2219 24.9144 30.6098 24.9916C30.9978 25.0688 31.3999 25.0292 31.7654 24.8778C32.1308 24.7264 32.4432 24.4701 32.6629 24.1412C32.8827 23.8123 33 23.4256 33 23.03C33 22.4996 32.7893 21.9909 32.4142 21.6158C32.0391 21.2408 31.5304 21.03 31 21.03Z" fill="#404040"/>
<path d="M52 18.03C51.2089 18.03 50.4355 17.7954 49.7777 17.3559C49.1199 16.9164 48.6072 16.2917 48.3045 15.5608C48.0017 14.8299 47.9225 14.0256 48.0769 13.2497C48.2312 12.4738 48.6122 11.761 49.1716 11.2016C49.731 10.6422 50.4437 10.2612 51.2196 10.1069C51.9956 9.95254 52.7998 10.0318 53.5307 10.3345C54.2616 10.6373 54.8864 11.1499 55.3259 11.8077C55.7654 12.4655 56 13.2389 56 14.03C56 15.0909 55.5786 16.1083 54.8284 16.8585C54.0783 17.6086 53.0609 18.03 52 18.03ZM52 12.03C51.6044 12.03 51.2178 12.1473 50.8889 12.3671C50.56 12.5868 50.3036 12.8992 50.1523 13.2647C50.0009 13.6301 49.9613 14.0323 50.0384 14.4202C50.1156 14.8082 50.3061 15.1645 50.5858 15.4442C50.8655 15.7239 51.2219 15.9144 51.6098 15.9916C51.9978 16.0688 52.3999 16.0292 52.7654 15.8778C53.1308 15.7264 53.4432 15.4701 53.6629 15.1412C53.8827 14.8123 54 14.4256 54 14.03C54 13.4996 53.7893 12.9909 53.4142 12.6159C53.0391 12.2408 52.5304 12.03 52 12.03Z" fill="#404040"/>
<path d="M35 37.03C34.2089 37.03 33.4355 36.7954 32.7777 36.3559C32.1199 35.9164 31.6072 35.2917 31.3045 34.5608C31.0017 33.8299 30.9225 33.0256 31.0769 32.2497C31.2312 31.4738 31.6122 30.761 32.1716 30.2016C32.731 29.6422 33.4437 29.2612 34.2196 29.1069C34.9956 28.9525 35.7998 29.0318 36.5307 29.3345C37.2616 29.6373 37.8864 30.1499 38.3259 30.8077C38.7654 31.4655 39 32.2389 39 33.03C39 34.0909 38.5786 35.1083 37.8284 35.8585C37.0783 36.6086 36.0609 37.03 35 37.03ZM35 31.03C34.6044 31.03 34.2178 31.1473 33.8889 31.3671C33.56 31.5868 33.3036 31.8992 33.1523 32.2646C33.0009 32.6301 32.9613 33.0323 33.0384 33.4202C33.1156 33.8082 33.3061 34.1645 33.5858 34.4442C33.8655 34.7239 34.2219 34.9144 34.6098 34.9916C34.9978 35.0687 35.3999 35.0292 35.7654 34.8778C36.1308 34.7264 36.4432 34.4701 36.6629 34.1412C36.8827 33.8123 37 33.4256 37 33.03C37 32.4996 36.7893 31.9909 36.4142 31.6158C36.0391 31.2408 35.5304 31.03 35 31.03Z" fill="#404040"/>
<path d="M17 47.03C16.2089 47.03 15.4355 46.7954 14.7777 46.3559C14.1199 45.9164 13.6072 45.2917 13.3045 44.5608C13.0017 43.8299 12.9225 43.0256 13.0769 42.2497C13.2312 41.4738 13.6122 40.761 14.1716 40.2016C14.731 39.6422 15.4437 39.2612 16.2196 39.1069C16.9956 38.9525 17.7998 39.0318 18.5307 39.3345C19.2616 39.6373 19.8864 40.1499 20.3259 40.8077C20.7654 41.4655 21 42.2389 21 43.03C21 44.0909 20.5786 45.1083 19.8284 45.8585C19.0783 46.6086 18.0609 47.03 17 47.03ZM17 41.03C16.6044 41.03 16.2178 41.1473 15.8889 41.3671C15.56 41.5868 15.3036 41.8992 15.1523 42.2646C15.0009 42.6301 14.9613 43.0323 15.0384 43.4202C15.1156 43.8082 15.3061 44.1645 15.5858 44.4442C15.8655 44.7239 16.2219 44.9144 16.6098 44.9916C16.9978 45.0687 17.3999 45.0292 17.7654 44.8778C18.1308 44.7264 18.4432 44.4701 18.6629 44.1412C18.8827 43.8123 19 43.4256 19 43.03C19 42.4996 18.7893 41.9909 18.4142 41.6158C18.0391 41.2408 17.5304 41.03 17 41.03Z" fill="#404040"/>
<path d="M56 55.03H8C7.73478 55.03 7.48043 54.9246 7.29289 54.7371C7.10536 54.5496 7 54.2952 7 54.03C7 53.7648 7.10536 53.5105 7.29289 53.3229C7.48043 53.1354 7.73478 53.03 8 53.03H56C56.2652 53.03 56.5196 53.1354 56.7071 53.3229C56.8946 53.5105 57 53.7648 57 54.03C57 54.2952 56.8946 54.5496 56.7071 54.7371C56.5196 54.9246 56.2652 55.03 56 55.03Z" fill="#404040"/>
<path d="M8 47C8.55228 47 9 46.5523 9 46C9 45.4477 8.55228 45 8 45C7.44772 45 7 45.4477 7 46C7 46.5523 7.44772 47 8 47Z" fill="#FA4616"/>
<path d="M8 41C8.55228 41 9 40.5523 9 40C9 39.4477 8.55228 39 8 39C7.44772 39 7 39.4477 7 40C7 40.5523 7.44772 41 8 41Z" fill="#FA4616"/>
<path d="M8 35C8.55228 35 9 34.5523 9 34C9 33.4477 8.55228 33 8 33C7.44772 33 7 33.4477 7 34C7 34.5523 7.44772 35 8 35Z" fill="#FA4616"/>
<path d="M8 29C8.55228 29 9 28.5523 9 28C9 27.4477 8.55228 27 8 27C7.44772 27 7 27.4477 7 28C7 28.5523 7.44772 29 8 29Z" fill="#FA4616"/>
<path d="M8 23C8.55228 23 9 22.5523 9 22C9 21.4477 8.55228 21 8 21C7.44772 21 7 21.4477 7 22C7 22.5523 7.44772 23 8 23Z" fill="#FA4616"/>
<path d="M8 17C8.55228 17 9 16.5523 9 16C9 15.4477 8.55228 15 8 15C7.44772 15 7 15.4477 7 16C7 16.5523 7.44772 17 8 17Z" fill="#FA4616"/>
<path d="M8 11C8.55228 11 9 10.5523 9 10C9 9.44772 8.55228 9 8 9C7.44772 9 7 9.44772 7 10C7 10.5523 7.44772 11 8 11Z" fill="#FA4616"/>
</svg>
