<svg width="64" height="64" viewBox="0 0 64 64" fill="none" xmlns="http://www.w3.org/2000/svg">
<path d="M54 53H6C5.73478 53 5.48043 52.8946 5.29289 52.7071C5.10536 52.5195 5 52.2652 5 52C5 51.7348 5.10536 51.4804 5.29289 51.2929C5.48043 51.1054 5.73478 51 6 51H54C54.2652 51 54.5196 51.1054 54.7071 51.2929C54.8946 51.4804 55 51.7348 55 52C55 52.2652 54.8946 52.5195 54.7071 52.7071C54.5196 52.8946 54.2652 53 54 53Z" fill="#404040"/>
<path d="M52.0001 45H42.0001C41.8561 45.0014 41.7135 44.9717 41.5821 44.913C41.4506 44.8542 41.3334 44.7677 41.2385 44.6595C41.1435 44.5512 41.0731 44.4237 41.0319 44.2858C40.9908 44.1478 40.9799 44.0026 41.0001 43.86L46.0001 8.85999C46.0001 8.59477 46.1054 8.34043 46.293 8.15289C46.4805 7.96536 46.7349 7.85999 47.0001 7.85999C47.2653 7.85999 47.5197 7.96536 47.7072 8.15289C47.8947 8.34043 48.0001 8.59477 48.0001 8.85999L53.0001 43.67C53.0411 43.7751 53.0614 43.8872 53.0601 44C53.0603 44.1365 53.0326 44.2716 52.9786 44.397C52.9247 44.5224 52.8456 44.6355 52.7463 44.7292C52.647 44.8229 52.5296 44.8953 52.4012 44.9418C52.2729 44.9884 52.1364 45.0082 52.0001 45ZM43.1301 43H50.8201L47.0001 16.12L43.1301 43Z" fill="#404040"/>
<path d="M37.0002 45H27.0002C26.8347 45.0019 26.6713 44.9627 26.5247 44.8859C26.3781 44.8091 26.2528 44.6971 26.1602 44.56C26.0689 44.4228 26.0129 44.2652 25.9972 44.1013C25.9815 43.9373 26.0066 43.772 26.0702 43.62L31.0702 31.62C31.1455 31.4366 31.2737 31.2797 31.4384 31.1693C31.6031 31.0589 31.7969 30.9999 31.9952 30.9999C32.1934 30.9999 32.3873 31.0589 32.552 31.1693C32.7167 31.2797 32.8448 31.4366 32.9202 31.62L37.8502 43.45C37.9595 43.6127 38.0186 43.804 38.0202 44C38.0202 44.133 37.9937 44.2647 37.9422 44.3873C37.8907 44.51 37.8152 44.6212 37.7203 44.7143C37.6253 44.8074 37.5126 44.8806 37.389 44.9297C37.2654 44.9787 37.1332 45.0027 37.0002 45ZM28.4802 43H35.4802L31.9802 34.6L28.4802 43Z" fill="#404040"/>
<path d="M22 45H12C11.8469 45.0041 11.6949 44.973 11.5557 44.909C11.4165 44.8451 11.2939 44.75 11.1972 44.6312C11.1006 44.5123 11.0326 44.3729 10.9984 44.2236C10.9642 44.0742 10.9648 43.9191 11 43.77L16 22.77C16.0528 22.5463 16.1811 22.3476 16.3632 22.2073C16.5453 22.0671 16.7702 21.9938 17 22C17.2298 21.9938 17.4547 22.0671 17.6369 22.2073C17.819 22.3476 17.9473 22.5463 18 22.77L22.95 43.58C23.0203 43.7318 23.0514 43.8988 23.0404 44.0657C23.0294 44.2326 22.9767 44.3941 22.8872 44.5353C22.7976 44.6766 22.6741 44.7932 22.5278 44.8744C22.3816 44.9556 22.2173 44.9987 22.05 45H22ZM13.24 43H20.71L17 27.32L13.24 43Z" fill="#404040"/>
<path d="M6.02002 45C6.5723 45 7.02002 44.5523 7.02002 44C7.02002 43.4477 6.5723 43 6.02002 43C5.46773 43 5.02002 43.4477 5.02002 44C5.02002 44.5523 5.46773 45 6.02002 45Z" fill="#FA4616"/>
<path d="M6.02002 39C6.5723 39 7.02002 38.5523 7.02002 38C7.02002 37.4477 6.5723 37 6.02002 37C5.46773 37 5.02002 37.4477 5.02002 38C5.02002 38.5523 5.46773 39 6.02002 39Z" fill="#FA4616"/>
<path d="M6.02002 33C6.5723 33 7.02002 32.5523 7.02002 32C7.02002 31.4477 6.5723 31 6.02002 31C5.46773 31 5.02002 31.4477 5.02002 32C5.02002 32.5523 5.46773 33 6.02002 33Z" fill="#FA4616"/>
<path d="M6.02002 27C6.5723 27 7.02002 26.5523 7.02002 26C7.02002 25.4477 6.5723 25 6.02002 25C5.46773 25 5.02002 25.4477 5.02002 26C5.02002 26.5523 5.46773 27 6.02002 27Z" fill="#FA4616"/>
<path d="M6.02002 21C6.5723 21 7.02002 20.5523 7.02002 20C7.02002 19.4477 6.5723 19 6.02002 19C5.46773 19 5.02002 19.4477 5.02002 20C5.02002 20.5523 5.46773 21 6.02002 21Z" fill="#FA4616"/>
<path d="M6.02002 15C6.5723 15 7.02002 14.5523 7.02002 14C7.02002 13.4477 6.5723 13 6.02002 13C5.46773 13 5.02002 13.4477 5.02002 14C5.02002 14.5523 5.46773 15 6.02002 15Z" fill="#FA4616"/>
<path d="M6.02002 9C6.5723 9 7.02002 8.55228 7.02002 8C7.02002 7.44772 6.5723 7 6.02002 7C5.46773 7 5.02002 7.44772 5.02002 8C5.02002 8.55228 5.46773 9 6.02002 9Z" fill="#FA4616"/>
</svg>
