<svg width="64" height="64" viewBox="0 0 64 64" fill="none" xmlns="http://www.w3.org/2000/svg">
<path d="M55.8636 15.9545H8.13636C7.83498 15.9545 7.54594 15.8348 7.33283 15.6217C7.11972 15.4086 7 15.1196 7 14.8182V9.13636C7 8.83498 7.11972 8.54594 7.33283 8.33283C7.54594 8.11972 7.83498 8 8.13636 8H55.8636C56.165 8 56.4541 8.11972 56.6672 8.33283C56.8803 8.54594 57 8.83498 57 9.13636V14.8182C57 15.1196 56.8803 15.4086 56.6672 15.6217C56.4541 15.8348 56.165 15.9545 55.8636 15.9545ZM9.27273 13.6818H54.7273V10.2727H9.27273V13.6818Z" fill="#404040"/>
<path d="M52.4546 52.3182H11.5455C11.2442 52.3182 10.9551 52.1985 10.742 51.9853C10.5289 51.7722 10.4092 51.4832 10.4092 51.1818V14.8182C10.4092 14.5168 10.5289 14.2278 10.742 14.0147C10.9551 13.8015 11.2442 13.6818 11.5455 13.6818H52.4546C52.756 13.6818 53.0451 13.8015 53.2582 14.0147C53.4713 14.2278 53.591 14.5168 53.591 14.8182V51.1818C53.591 51.4832 53.4713 51.7722 53.2582 51.9853C53.0451 52.1985 52.756 52.3182 52.4546 52.3182ZM12.6819 50.0454H51.3183V15.9546H12.6819V50.0454Z" fill="#404040"/>
<path d="M33.136 51.1818H30.8633V56.8636H33.136V51.1818Z" fill="#404040"/>
<path d="M44.5 43.2273H42.2272V29.5909H38.8181V43.2273H36.5454V27.3182H44.5V43.2273Z" fill="#FA4616"/>
<path d="M33.1362 43.2273H30.8635V33H27.4544V43.2273H25.1816V30.7273H33.1362V43.2273Z" fill="#FA4616"/>
<path d="M38.8178 43.2273H36.5451V23.9091H33.136V43.2273H30.8633V21.6364H38.8178V43.2273Z" fill="#FA4616"/>
<path d="M27.4545 43.2273H25.1818V38.6818H21.7727V43.2273H19.5V36.4091H27.4545V43.2273Z" fill="#FA4616"/>
<path d="M46.773 42.0909H17.2275V44.3636H46.773V42.0909Z" fill="#FA4616"/>
</svg>
