<svg width="64" height="64" viewBox="0 0 64 64" fill="none" xmlns="http://www.w3.org/2000/svg">
<path d="M8.53371 25.1074L7.76904 27.249L31.647 35.775L32.4117 33.6335L8.53371 25.1074Z" fill="#404040"/>
<path d="M31.1062 34.0477L16.3281 53.9463L18.1537 55.3021L32.9317 35.4034L31.1062 34.0477Z" fill="#404040"/>
<path d="M33.148 9.15263H30.874V34.7345H33.148V9.15263Z" fill="#404040"/>
<path d="M55.5196 25.1432L31.6387 33.661L32.4026 35.8027L56.2835 27.285L55.5196 25.1432Z" fill="#404040"/>
<path d="M32.9498 34.0327L31.1245 35.3888L45.906 55.2849L47.7314 53.9288L32.9498 34.0327Z" fill="#404040"/>
<path d="M46.792 55.7686H17.2307C16.9895 55.7676 16.7549 55.69 16.5607 55.5469C16.3666 55.4039 16.2229 55.2028 16.1506 54.9727L7.05479 26.5483C6.98086 26.3189 6.98177 26.0719 7.05739 25.843C7.133 25.6141 7.27941 25.4152 7.47547 25.2749L31.3519 8.22031C31.5388 8.08321 31.763 8.00649 31.9947 8.00039C32.2263 7.9943 32.4543 8.05912 32.6481 8.1862L56.5245 25.2408C56.7206 25.3811 56.867 25.58 56.9426 25.8089C57.0182 26.0378 57.0191 26.2848 56.9452 26.5142L47.8494 54.9386C47.7843 55.1714 47.6467 55.3773 47.4565 55.5266C47.2664 55.6758 47.0336 55.7606 46.792 55.7686V55.7686ZM18.0607 53.4946H45.962L54.5576 26.6507L32.0114 10.5397L9.47654 26.6507L18.0607 53.4946Z" fill="#404040"/>
<path d="M39.9696 46.5818H24.0519C23.7997 46.5926 23.551 46.5191 23.3452 46.3729C23.1393 46.2268 22.988 46.0162 22.915 45.7746L18.3671 30.5732C18.2966 30.3402 18.3027 30.0908 18.3846 29.8616C18.4665 29.6323 18.6197 29.4354 18.8219 29.2998L31.3741 20.6929C31.5621 20.5658 31.7838 20.4979 32.0108 20.4979C32.2377 20.4979 32.4595 20.5658 32.6475 20.6929L45.211 29.277C45.4111 29.4142 45.5621 29.6118 45.6419 29.841C45.7217 30.0701 45.7261 30.3187 45.6545 30.5505L41.1066 45.7518C41.0378 45.9978 40.8882 46.2134 40.682 46.3639C40.4757 46.5145 40.2248 46.5912 39.9696 46.5818V46.5818ZM24.8933 44.3078H39.1282L43.2441 30.6642L32.0108 22.9896L20.7775 30.6642L24.8933 44.3078Z" fill="#FA4616"/>
</svg>
