<svg width="64" height="64" viewBox="0 0 64 64" fill="none" xmlns="http://www.w3.org/2000/svg">
<path d="M12.4347 45.9565H8.08691V48.1304H12.4347V45.9565Z" fill="#FA4616"/>
<path d="M12.4347 39.4348H8.08691V41.6087H12.4347V39.4348Z" fill="#FA4616"/>
<path d="M12.4347 32.913H8.08691V35.087H12.4347V32.913Z" fill="#FA4616"/>
<path d="M12.4347 26.3913H8.08691V28.5652H12.4347V26.3913Z" fill="#FA4616"/>
<path d="M12.4347 19.8696H8.08691V22.0435H12.4347V19.8696Z" fill="#FA4616"/>
<path d="M12.4347 13.3478H8.08691V15.5217H12.4347V13.3478Z" fill="#FA4616"/>
<path d="M57 54.6522H8.08696C7.79868 54.6522 7.52221 54.5376 7.31837 54.3338C7.11453 54.1299 7 53.8535 7 53.5652V9H9.17391V52.4783H57V54.6522Z" fill="#404040"/>
<path d="M27.6522 51.3913H25.4783V26.3913H20.0435V51.3913H17.8696V25.3043C17.8696 25.0161 17.9841 24.7396 18.188 24.5357C18.3918 24.3319 18.6683 24.2174 18.9566 24.2174H26.5653C26.8536 24.2174 27.13 24.3319 27.3339 24.5357C27.5377 24.7396 27.6522 25.0161 27.6522 25.3043V51.3913Z" fill="#404040"/>
<path d="M39.6088 51.3913H37.4349V15.5217H32.0001V51.3913H29.8262V14.4348C29.8262 14.1465 29.9407 13.87 30.1445 13.6662C30.3484 13.4623 30.6248 13.3478 30.9131 13.3478H38.5218C38.8101 13.3478 39.0866 13.4623 39.2904 13.6662C39.4943 13.87 39.6088 14.1465 39.6088 14.4348V51.3913Z" fill="#404040"/>
<path d="M51.5653 51.3913H49.3914V37.2609H43.9566V51.3913H41.7827V36.1739C41.7827 35.8856 41.8972 35.6091 42.1011 35.4053C42.3049 35.2015 42.5814 35.087 42.8697 35.087H50.4784C50.7666 35.087 51.0431 35.2015 51.247 35.4053C51.4508 35.6091 51.5653 35.8856 51.5653 36.1739V51.3913Z" fill="#404040"/>
</svg>
