<svg width="64" height="64" viewBox="0 0 64 64" fill="none" xmlns="http://www.w3.org/2000/svg">
<path d="M57.0003 48.8936H32.5322V18.0426H57.0003V48.8936ZM34.6599 46.766H54.8727V20.1702H34.6599V46.766Z" fill="#404040"/>
<path d="M55.9361 27.617H33.5957V29.7447H55.9361V27.617Z" fill="#404040"/>
<path d="M55.9361 34H33.5957V36.1277H55.9361V34Z" fill="#404040"/>
<path d="M48.4893 40.383H33.5957V42.5106H48.4893V40.383Z" fill="#404040"/>
<path d="M42.1062 28.6808H39.9785V47.8298H42.1062V28.6808Z" fill="#404040"/>
<path d="M49.5534 28.6808H47.4258V47.8298H49.5534V28.6808Z" fill="#404040"/>
<path d="M41.0426 56.3404H10.1915C9.34505 56.3404 8.53327 56.0042 7.93475 55.4057C7.33623 54.8071 7 53.9954 7 53.1489V8H43.3404V15.4468H41.2127V10.1277H9.12766V53.1489C9.12766 53.4311 9.23972 53.7017 9.43923 53.9012C9.63874 54.1007 9.90934 54.2128 10.1915 54.2128H41.0426C41.3247 54.2128 41.5953 54.1007 41.7948 53.9012C41.9943 53.7017 42.1064 53.4311 42.1064 53.1489V51.0213H44.234V53.1489C44.234 53.9954 43.8978 54.8071 43.2993 55.4057C42.7007 56.0042 41.889 56.3404 41.0426 56.3404V56.3404Z" fill="#404040"/>
<path d="M13.0746 36.883L11.564 35.3724L17.6385 29.3085L20.8299 32.5L27.5214 25.7979L29.0321 27.3085L20.8299 35.5L17.6385 32.3085L13.0746 36.883Z" fill="#FA4616"/>
<path d="M29.3405 31.8723H27.2128V27.617H22.9575V25.4893H29.3405V31.8723Z" fill="#FA4616"/>
<path d="M14.447 40.383H12.3193V46.766H14.447V40.383Z" fill="#404040"/>
<path d="M18.7024 37.1915H16.5747V46.766H18.7024V37.1915Z" fill="#404040"/>
<path d="M22.9577 40.383H20.8301V46.766H22.9577V40.383Z" fill="#404040"/>
<path d="M27.2126 36.1277H25.085V46.766H27.2126V36.1277Z" fill="#404040"/>
</svg>
