<svg width="64" height="64" viewBox="0 0 64 64" fill="none" xmlns="http://www.w3.org/2000/svg">
<path d="M44.8847 29.6238C44.0454 29.6238 43.2249 29.3749 42.5271 28.9086C41.8292 28.4423 41.2853 27.7796 40.9641 27.0042C40.643 26.2288 40.5589 25.3756 40.7227 24.5524C40.8864 23.7292 41.2906 22.973 41.884 22.3796C42.4775 21.7861 43.2336 21.3819 44.0568 21.2182C44.88 21.0544 45.7332 21.1385 46.5086 21.4597C47.2841 21.7809 47.9468 22.3248 48.4131 23.0226C48.8794 23.7205 49.1283 24.5409 49.1283 25.3802C49.1283 26.5057 48.6812 27.5851 47.8854 28.3809C47.0895 29.1767 46.0102 29.6238 44.8847 29.6238ZM44.8847 23.2584C44.465 23.2584 44.0548 23.3829 43.7059 23.616C43.357 23.8492 43.085 24.1805 42.9244 24.5682C42.7638 24.956 42.7218 25.3826 42.8037 25.7942C42.8855 26.2058 43.0876 26.5838 43.3844 26.8805C43.6811 27.1773 44.0592 27.3794 44.4708 27.4612C44.8823 27.5431 45.309 27.5011 45.6967 27.3405C46.0844 27.1799 46.4158 26.908 46.6489 26.559C46.882 26.2101 47.0065 25.7999 47.0065 25.3802C47.0065 24.8175 46.7829 24.2778 46.385 23.8799C45.9871 23.482 45.4474 23.2584 44.8847 23.2584Z" fill="#404040"/>
<path d="M50.1889 19.0149C49.3496 19.0149 48.5291 18.766 47.8313 18.2997C47.1334 17.8334 46.5895 17.1707 46.2683 16.3953C45.9472 15.6198 45.8631 14.7666 46.0269 13.9434C46.1906 13.1203 46.5948 12.3641 47.1882 11.7706C47.7817 11.1771 48.5378 10.773 49.361 10.6092C50.1842 10.4455 51.0374 10.5296 51.8128 10.8507C52.5883 11.1719 53.251 11.7158 53.7173 12.4137C54.1836 13.1115 54.4325 13.932 54.4325 14.7713C54.4325 15.8967 53.9854 16.9761 53.1896 17.772C52.3937 18.5678 51.3144 19.0149 50.1889 19.0149ZM50.1889 12.6495C49.7692 12.6495 49.359 12.7739 49.0101 13.0071C48.6612 13.2402 48.3892 13.5716 48.2286 13.9593C48.068 14.347 48.026 14.7737 48.1079 15.1852C48.1897 15.5968 48.3918 15.9748 48.6886 16.2716C48.9853 16.5683 49.3634 16.7704 49.775 16.8523C50.1865 16.9341 50.6132 16.8922 51.0009 16.7316C51.3886 16.571 51.7199 16.299 51.9531 15.9501C52.1862 15.6012 52.3107 15.1909 52.3107 14.7713C52.3107 14.2085 52.0871 13.6689 51.6892 13.271C51.2913 12.8731 50.7516 12.6495 50.1889 12.6495Z" fill="#404040"/>
<path d="M38.519 40.2328C37.6797 40.2328 36.8592 39.9839 36.1614 39.5176C35.4635 39.0513 34.9196 38.3886 34.5984 37.6132C34.2772 36.8378 34.1932 35.9845 34.3569 35.1613C34.5207 34.3382 34.9248 33.582 35.5183 32.9885C36.1118 32.395 36.8679 31.9909 37.6911 31.8271C38.5143 31.6634 39.3675 31.7475 40.1429 32.0687C40.9183 32.3898 41.5811 32.9337 42.0474 33.6316C42.5137 34.3294 42.7626 35.1499 42.7626 35.9892C42.7626 37.1147 42.3155 38.194 41.5196 38.9899C40.7238 39.7857 39.6444 40.2328 38.519 40.2328ZM38.519 33.8674C38.0993 33.8674 37.6891 33.9918 37.3402 34.225C36.9912 34.4581 36.7193 34.7895 36.5587 35.1772C36.3981 35.5649 36.3561 35.9916 36.438 36.4032C36.5198 36.8147 36.7219 37.1928 37.0186 37.4895C37.3154 37.7862 37.6934 37.9883 38.105 38.0702C38.5166 38.1521 38.9432 38.1101 39.331 37.9495C39.7187 37.7889 40.05 37.5169 40.2832 37.168C40.5163 36.8191 40.6408 36.4088 40.6408 35.9892C40.6408 35.4265 40.4172 34.8868 40.0193 34.4889C39.6214 34.091 39.0817 33.8674 38.519 33.8674Z" fill="#404040"/>
<path d="M32.1537 29.6238C31.3144 29.6238 30.494 29.3749 29.7961 28.9086C29.0983 28.4423 28.5544 27.7796 28.2332 27.0042C27.912 26.2288 27.828 25.3756 27.9917 24.5524C28.1554 23.7292 28.5596 22.973 29.1531 22.3796C29.7466 21.7861 30.5027 21.3819 31.3259 21.2182C32.149 21.0544 33.0023 21.1385 33.7777 21.4597C34.5531 21.7809 35.2159 22.3248 35.6821 23.0226C36.1484 23.7205 36.3973 24.5409 36.3973 25.3802C36.3973 26.5057 35.9502 27.5851 35.1544 28.3809C34.3586 29.1767 33.2792 29.6238 32.1537 29.6238ZM32.1537 23.2584C31.7341 23.2584 31.3239 23.3829 30.9749 23.616C30.626 23.8492 30.3541 24.1805 30.1935 24.5682C30.0329 24.956 29.9908 25.3826 30.0727 25.7942C30.1546 26.2058 30.3567 26.5838 30.6534 26.8805C30.9501 27.1773 31.3282 27.3794 31.7398 27.4612C32.1514 27.5431 32.578 27.5011 32.9657 27.3405C33.3534 27.1799 33.6848 26.908 33.9179 26.559C34.1511 26.2101 34.2755 25.7999 34.2755 25.3802C34.2755 24.8175 34.052 24.2778 33.6541 23.8799C33.2562 23.482 32.7165 23.2584 32.1537 23.2584Z" fill="#404040"/>
<path d="M25.7885 45.5373C24.9492 45.5373 24.1288 45.2884 23.4309 44.8221C22.733 44.3558 22.1891 43.6931 21.8679 42.9176C21.5468 42.1422 21.4627 41.289 21.6265 40.4658C21.7902 39.6426 22.1944 38.8865 22.7878 38.293C23.3813 37.6995 24.1375 37.2953 24.9606 37.1316C25.7838 36.9679 26.637 37.0519 27.4125 37.3731C28.1879 37.6943 28.8506 38.2382 29.3169 38.9361C29.7832 39.6339 30.0321 40.4544 30.0321 41.2937C30.0321 42.4191 29.585 43.4985 28.7892 44.2943C27.9933 45.0902 26.914 45.5373 25.7885 45.5373ZM25.7885 39.1719C25.3689 39.1719 24.9586 39.2963 24.6097 39.5294C24.2608 39.7626 23.9888 40.094 23.8282 40.4817C23.6676 40.8694 23.6256 41.296 23.7075 41.7076C23.7894 42.1192 23.9914 42.4972 24.2882 42.794C24.5849 43.0907 24.963 43.2928 25.3746 43.3747C25.7862 43.4565 26.2128 43.4146 26.6005 43.254C26.9882 43.0934 27.3196 42.8214 27.5527 42.4725C27.7859 42.1236 27.9103 41.7133 27.9103 41.2937C27.9103 40.7309 27.6868 40.1913 27.2888 39.7934C26.8909 39.3955 26.3512 39.1719 25.7885 39.1719Z" fill="#404040"/>
<path d="M19.4228 35.9892C18.5835 35.9892 17.763 35.7403 17.0652 35.274C16.3673 34.8077 15.8234 34.145 15.5022 33.3696C15.181 32.5942 15.097 31.7409 15.2607 30.9178C15.4245 30.0946 15.8286 29.3384 16.4221 28.7449C17.0156 28.1515 17.7717 27.7473 18.5949 27.5835C19.4181 27.4198 20.2713 27.5039 21.0467 27.8251C21.8221 28.1463 22.4849 28.6901 22.9512 29.388C23.4175 30.0858 23.6664 30.9063 23.6664 31.7456C23.6664 32.8711 23.2193 33.9505 22.4235 34.7463C21.6276 35.5421 20.5483 35.9892 19.4228 35.9892ZM19.4228 29.6238C19.0031 29.6238 18.5929 29.7482 18.244 29.9814C17.8951 30.2145 17.6231 30.5459 17.4625 30.9336C17.3019 31.3213 17.2599 31.748 17.3418 32.1596C17.4236 32.5712 17.6257 32.9492 17.9225 33.2459C18.2192 33.5426 18.5973 33.7447 19.0088 33.8266C19.4204 33.9085 19.8471 33.8665 20.2348 33.7059C20.6225 33.5453 20.9538 33.2733 21.187 32.9244C21.4201 32.5755 21.5446 32.1653 21.5446 31.7456C21.5446 31.1829 21.321 30.6432 20.9231 30.2453C20.5252 29.8474 19.9855 29.6238 19.4228 29.6238Z" fill="#404040"/>
<path d="M15.4872 15.4927L11.9968 12.0024L8.50647 15.4927L7 13.9968L11.9968 9L16.9936 13.9968L15.4872 15.4927Z" fill="#FA4616"/>
<path d="M55.4936 51.8814H10.936V10.5065H13.0578V49.7596H55.4936V51.8814Z" fill="#FA4616"/>
<path d="M52.0035 55.8067L50.4971 54.3109L53.998 50.8205L50.4971 47.3195L52.0035 45.8237L57.0004 50.8205L52.0035 55.8067Z" fill="#FA4616"/>
</svg>
