<svg width="64" height="64" viewBox="0 0 64 64" fill="none" xmlns="http://www.w3.org/2000/svg">
<path d="M55.9583 52.625H8.04167C7.7654 52.625 7.50045 52.5152 7.3051 52.3199C7.10975 52.1245 7 51.8596 7 51.5833V13.0417C7 12.7654 7.10975 12.5004 7.3051 12.3051C7.50045 12.1097 7.7654 12 8.04167 12H55.9583C56.2346 12 56.4996 12.1097 56.6949 12.3051C56.8903 12.5004 57 12.7654 57 13.0417V51.5833C57 51.8596 56.8903 52.1245 56.6949 52.3199C56.4996 52.5152 56.2346 52.625 55.9583 52.625ZM9.08333 50.5417H54.9167V14.0833H9.08333V50.5417Z" fill="#404040"/>
<path d="M52.8542 46.375H11.1875V48.4583H52.8542V46.375Z" fill="#FA4616"/>
<path d="M55.9792 18.25H8.0625V20.3333H55.9792V18.25Z" fill="#404040"/>
<path d="M13.2708 15.125H11.1875V17.2083H13.2708V15.125Z" fill="#404040"/>
<path d="M16.3958 15.125H14.3125V17.2083H16.3958V15.125Z" fill="#404040"/>
<path d="M19.5208 15.125H17.4375V17.2083H19.5208V15.125Z" fill="#404040"/>
<path d="M22.625 45.3333H20.5417V37H18.4583V45.3333H16.375V35.9583C16.375 35.6821 16.4847 35.4171 16.6801 35.2218C16.8754 35.0264 17.1404 34.9167 17.4167 34.9167H21.5833C21.8596 34.9167 22.1246 35.0264 22.3199 35.2218C22.5153 35.4171 22.625 35.6821 22.625 35.9583V45.3333Z" fill="#FA4616"/>
<path d="M30.9585 45.3333H28.8752V30.75H26.7918V45.3333H24.7085V29.7083C24.7085 29.4321 24.8182 29.1671 25.0136 28.9718C25.2089 28.7764 25.4739 28.6667 25.7502 28.6667H29.9168C30.1931 28.6667 30.458 28.7764 30.6534 28.9718C30.8487 29.1671 30.9585 29.4321 30.9585 29.7083V45.3333Z" fill="#FA4616"/>
<path d="M39.2915 45.3333H37.2082V34.9166H35.1248V45.3333H33.0415V33.875C33.0415 33.5987 33.1512 33.3338 33.3466 33.1384C33.542 32.9431 33.8069 32.8333 34.0832 32.8333H38.2498C38.5261 32.8333 38.7911 32.9431 38.9864 33.1384C39.1818 33.3338 39.2915 33.5987 39.2915 33.875V45.3333Z" fill="#FA4616"/>
<path d="M47.625 45.3333H45.5417V27.625H43.4583V45.3333H41.375V26.5833C41.375 26.3071 41.4847 26.0421 41.6801 25.8468C41.8754 25.6514 42.1404 25.5417 42.4167 25.5417H46.5833C46.8596 25.5417 47.1246 25.6514 47.3199 25.8468C47.5153 26.0421 47.625 26.3071 47.625 26.5833V45.3333Z" fill="#FA4616"/>
</svg>
