<svg width="64" height="64" viewBox="0 0 64 64" fill="none" xmlns="http://www.w3.org/2000/svg">
<path d="M12.8913 47.2174C11.9239 47.2174 10.9782 46.9305 10.1738 46.3931C9.36946 45.8556 8.74254 45.0917 8.37233 44.1979C8.00212 43.3041 7.90526 42.3207 8.09399 41.3718C8.28272 40.423 8.74855 39.5515 9.43261 38.8674C10.1167 38.1834 10.9882 37.7175 11.937 37.5288C12.8859 37.34 13.8694 37.4369 14.7631 37.8071C15.6569 38.1773 16.4208 38.8043 16.9583 39.6086C17.4957 40.413 17.7826 41.3587 17.7826 42.3261C17.7797 43.6225 17.2635 44.8649 16.3468 45.7816C15.4301 46.6983 14.1877 47.2145 12.8913 47.2174V47.2174ZM12.8913 39.6087C12.3539 39.6087 11.8285 39.7681 11.3816 40.0667C10.9347 40.3653 10.5864 40.7897 10.3807 41.2862C10.1751 41.7827 10.1213 42.3291 10.2261 42.8562C10.331 43.3833 10.5898 43.8675 10.9698 44.2476C11.3498 44.6276 11.8341 44.8864 12.3612 44.9913C12.8883 45.0961 13.4347 45.0423 13.9312 44.8366C14.4277 44.631 14.8522 44.2827 15.1507 43.8358C15.4493 43.3889 15.6087 42.8635 15.6087 42.3261C15.6087 41.6054 15.3224 40.9142 14.8128 40.4046C14.3032 39.895 13.612 39.6087 12.8913 39.6087V39.6087Z" fill="#FA4616"/>
<path d="M23.7609 57C22.7935 57 21.8478 56.7131 21.0435 56.1757C20.2391 55.6382 19.6122 54.8743 19.242 53.9805C18.8717 53.0867 18.7749 52.1033 18.9636 51.1544C19.1523 50.2056 19.6182 49.3341 20.3022 48.65C20.9863 47.966 21.8579 47.5001 22.8067 47.3114C23.7555 47.1226 24.739 47.2195 25.6328 47.5897C26.5265 47.9599 27.2904 48.5868 27.8279 49.3912C28.3654 50.1956 28.6522 51.1413 28.6522 52.1087C28.6494 53.4051 28.1331 54.6475 27.2164 55.5642C26.2998 56.4809 25.0573 56.9971 23.7609 57V57ZM23.7609 49.3913C23.2235 49.3913 22.6981 49.5507 22.2512 49.8493C21.8043 50.1479 21.4561 50.5722 21.2504 51.0688C21.0447 51.5653 20.9909 52.1117 21.0958 52.6388C21.2006 53.1659 21.4594 53.6501 21.8394 54.0302C22.2195 54.4102 22.7037 54.669 23.2308 54.7739C23.7579 54.8787 24.3043 54.8249 24.8008 54.6192C25.2974 54.4136 25.7218 54.0653 26.0204 53.6184C26.319 53.1715 26.4783 52.6461 26.4783 52.1087C26.4783 51.388 26.192 50.6968 25.6824 50.1872C25.1728 49.6776 24.4816 49.3913 23.7609 49.3913V49.3913Z" fill="#FA4616"/>
<path d="M24.5266 37.7958L10.4004 55.1968L12.0882 56.5669L26.2144 39.166L24.5266 37.7958Z" fill="#FA4616"/>
<path d="M33.0001 54.8261H29.7393V57H33.0001V54.8261Z" fill="#404040"/>
<path d="M23.2174 36.3478H21.0435V18.9565C21.0435 18.6682 21.158 18.3918 21.3618 18.1879C21.5656 17.9841 21.8421 17.8696 22.1304 17.8696H33V20.0435H23.2174V36.3478Z" fill="#404040"/>
<path d="M43.8696 57H33C32.7118 57 32.4353 56.8855 32.2314 56.6816C32.0276 56.4778 31.9131 56.2013 31.9131 55.913V8.08696C31.9131 7.79868 32.0276 7.52221 32.2314 7.31836C32.4353 7.11452 32.7118 7 33 7H43.8696C44.1579 7 44.4343 7.11452 44.6382 7.31836C44.842 7.52221 44.9566 7.79868 44.9566 8.08696V55.913C44.9566 56.2013 44.842 56.4778 44.6382 56.6816C44.4343 56.8855 44.1579 57 43.8696 57ZM34.087 54.8261H42.7826V9.17391H34.087V54.8261Z" fill="#404040"/>
<path d="M54.7392 57H43.8696V54.8261H53.6522V32H43.8696V29.8261H54.7392C55.0275 29.8261 55.3039 29.9406 55.5078 30.1444C55.7116 30.3483 55.8261 30.6248 55.8261 30.913V55.913C55.8261 56.2013 55.7116 56.4778 55.5078 56.6816C55.3039 56.8855 55.0275 57 54.7392 57Z" fill="#404040"/>
</svg>
