<svg width="64" height="64" viewBox="0 0 64 64" fill="none" xmlns="http://www.w3.org/2000/svg">
<path d="M45.9113 45.7778C45.0322 45.7778 44.1729 45.5171 43.442 45.0288C42.7112 44.5404 42.1415 43.8463 41.8051 43.0341C41.4687 42.222 41.3807 41.3284 41.5522 40.4663C41.7237 39.6041 42.147 38.8122 42.7686 38.1906C43.3901 37.5691 44.182 37.1458 45.0442 36.9743C45.9063 36.8028 46.8 36.8908 47.6121 37.2272C48.4242 37.5636 49.1183 38.1332 49.6067 38.8641C50.095 39.595 50.3557 40.4543 50.3557 41.3333C50.3557 42.5121 49.8875 43.6425 49.054 44.476C48.2205 45.3095 47.09 45.7778 45.9113 45.7778ZM45.9113 39.0556C45.4717 39.0556 45.0421 39.1859 44.6767 39.4301C44.3112 39.6743 44.0264 40.0213 43.8582 40.4274C43.69 40.8334 43.646 41.2802 43.7317 41.7113C43.8175 42.1424 44.0291 42.5383 44.3399 42.8491C44.6507 43.1599 45.0466 43.3715 45.4777 43.4573C45.9088 43.543 46.3556 43.499 46.7616 43.3308C47.1677 43.1627 47.5148 42.8778 47.759 42.5124C48.0031 42.1469 48.1335 41.7173 48.1335 41.2778C48.1335 40.6884 47.8994 40.1232 47.4826 39.7064C47.0659 39.2897 46.5006 39.0556 45.9113 39.0556Z" fill="#FA4616"/>
<path d="M48.111 52.4444H43.6665C43.3718 52.4444 43.0892 52.3274 42.8808 52.119C42.6725 51.9106 42.5554 51.628 42.5554 51.3333V49.5333C41.803 49.2281 41.0963 48.8206 40.4554 48.3222L38.8887 49.2222C38.6362 49.3669 38.337 49.4068 38.0554 49.3333C37.9135 49.2954 37.7806 49.2297 37.6642 49.14C37.5479 49.0504 37.4505 48.9386 37.3776 48.8111L35.1554 44.9666C35.0823 44.8401 35.0348 44.7004 35.0157 44.5555C34.9966 44.4106 35.0064 44.2633 35.0443 44.1222C35.1182 43.8375 35.302 43.5938 35.5554 43.4444L37.1221 42.5444C37.056 42.1366 37.0226 41.7242 37.0221 41.3111C37.024 40.9095 37.0537 40.5086 37.1109 40.1111L35.5554 39.2222C35.429 39.1487 35.3184 39.0509 35.2298 38.9346C35.1413 38.8182 35.0766 38.6855 35.0394 38.5441C35.0023 38.4027 34.9934 38.2553 35.0133 38.1105C35.0332 37.9656 35.0815 37.8261 35.1554 37.7L37.3776 33.8555C37.4505 33.728 37.5479 33.6162 37.6642 33.5266C37.7806 33.4369 37.9135 33.3712 38.0554 33.3333C38.337 33.2598 38.6362 33.2997 38.8887 33.4444L40.4221 34.3222C41.0706 33.8083 41.7889 33.3893 42.5554 33.0777V31.3333C42.5554 31.0386 42.6725 30.756 42.8808 30.5476C43.0892 30.3393 43.3718 30.2222 43.6665 30.2222H48.111C48.4057 30.2222 48.6883 30.3393 48.8966 30.5476C49.105 30.756 49.2221 31.0386 49.2221 31.3333V33.0555C49.9949 33.3799 50.723 33.8018 51.3887 34.3111L52.8776 33.4444C53.0044 33.3709 53.1445 33.3233 53.2898 33.3042C53.4352 33.2851 53.5828 33.295 53.7243 33.3332C53.8658 33.3714 53.9983 33.4372 54.1143 33.5269C54.2302 33.6165 54.3272 33.7282 54.3998 33.8555L56.6221 37.7C56.6955 37.8268 56.7432 37.9669 56.7623 38.1122C56.7814 38.2575 56.7715 38.4052 56.7333 38.5466C56.6951 38.6881 56.6293 38.8207 56.5396 38.9366C56.45 39.0526 56.3383 39.1496 56.2109 39.2222L54.7109 40.0889C54.7733 40.4932 54.803 40.902 54.7999 41.3111C54.7971 41.7348 54.7674 42.1578 54.7109 42.5777L56.2109 43.4444C56.3385 43.5173 56.4503 43.6147 56.5399 43.731C56.6296 43.8474 56.6952 43.9803 56.7332 44.1222C56.7711 44.2633 56.7808 44.4106 56.7618 44.5555C56.7427 44.7004 56.6952 44.8401 56.6221 44.9666L54.3998 48.8111C54.327 48.9386 54.2296 49.0504 54.1132 49.14C53.9969 49.2297 53.864 49.2954 53.7221 49.3333C53.5809 49.3712 53.4337 49.3809 53.2888 49.3619C53.1439 49.3428 53.0041 49.2953 52.8776 49.2222L51.3443 48.3333C50.6947 48.8338 49.981 49.2449 49.2221 49.5555V51.3333C49.2221 51.628 49.105 51.9106 48.8966 52.119C48.6883 52.3274 48.4057 52.4444 48.111 52.4444ZM44.7776 50.2222H46.9999V48.7666C46.99 48.5187 47.0634 48.2746 47.2084 48.0732C47.3534 47.8718 47.5616 47.7248 47.7999 47.6555C48.7945 47.3556 49.7069 46.8309 50.4665 46.1222C50.641 45.9612 50.8624 45.8604 51.0983 45.8344C51.3342 45.8084 51.5723 45.8586 51.7776 45.9777L53.0332 46.7L54.1443 44.7666L52.9109 44.0555C52.7038 43.9353 52.5411 43.7514 52.4469 43.5311C52.3528 43.3109 52.3324 43.0661 52.3887 42.8333C52.5104 42.3198 52.5738 41.7943 52.5776 41.2666C52.5779 40.7504 52.5183 40.2358 52.3998 39.7333C52.3435 39.5005 52.364 39.2558 52.4581 39.0355C52.5522 38.8153 52.7149 38.6313 52.9221 38.5111L54.1443 37.8111L53.0332 35.8777L51.811 36.5889C51.6033 36.7092 51.3623 36.7591 51.124 36.731C50.8856 36.703 50.6628 36.5985 50.4887 36.4333C49.7307 35.7035 48.8086 35.1663 47.7999 34.8666C47.5616 34.7974 47.3534 34.6503 47.2084 34.449C47.0634 34.2476 46.99 34.0035 46.9999 33.7555V32.4444H44.7776V33.8666C44.776 34.1037 44.6985 34.3341 44.5566 34.524C44.4146 34.7139 44.2156 34.8534 43.9887 34.9222C42.9877 35.2318 42.0714 35.7679 41.3109 36.4889C41.1369 36.6541 40.9141 36.7586 40.6757 36.7866C40.4374 36.8146 40.1964 36.7648 39.9887 36.6444L38.7443 35.9222L37.6332 37.8555L38.8999 38.5778C39.107 38.698 39.2698 38.8819 39.3639 39.1022C39.458 39.3224 39.4784 39.5672 39.4221 39.8C39.3094 40.296 39.2498 40.8025 39.2443 41.3111C39.2482 41.8314 39.3115 42.3496 39.4332 42.8555C39.4895 43.0883 39.4691 43.3331 39.375 43.5533C39.2809 43.7736 39.1181 43.9575 38.911 44.0778L37.6332 44.8111L38.7443 46.7444L40.0332 46C40.2396 45.8823 40.4784 45.8339 40.7144 45.8619C40.9503 45.8899 41.1711 45.9928 41.3443 46.1555C42.0951 46.8646 43.0004 47.3895 43.9887 47.6889C44.2249 47.7602 44.4307 47.9081 44.5735 48.1093C44.7164 48.3105 44.7882 48.5535 44.7776 48.8V50.2222Z" fill="#FA4616"/>
<path d="M38.1109 32.4445H35.8887V21.3333C35.8887 21.0387 36.0057 20.756 36.2141 20.5477C36.4225 20.3393 36.7051 20.2222 36.9998 20.2222H45.8887C46.1834 20.2222 46.466 20.3393 46.6743 20.5477C46.8827 20.756 46.9998 21.0387 46.9998 21.3333V29.1111H44.7776V22.4445H38.1109V32.4445Z" fill="#404040"/>
<path d="M33.6668 52.4444H31.4446V10.2222H24.7779V52.4444H22.5557V9.11111C22.5557 8.81643 22.6727 8.53381 22.8811 8.32544C23.0895 8.11706 23.3721 8 23.6668 8H32.5557C32.8503 8 33.1329 8.11706 33.3413 8.32544C33.5497 8.53381 33.6668 8.81643 33.6668 9.11111V52.4444Z" fill="#404040"/>
<path d="M20.3333 52.4444H18.1111V30.2222H11.4444V52.4444H9.22217V29.1111C9.22217 28.8164 9.33921 28.5338 9.54759 28.3254C9.75596 28.1171 10.0386 28 10.3333 28H19.2222C19.5169 28 19.7995 28.1171 20.0078 28.3254C20.2162 28.5338 20.3333 28.8164 20.3333 29.1111V52.4444Z" fill="#404040"/>
<path d="M57 53.5555H7V55.7778H57V53.5555Z" fill="#404040"/>
</svg>
