<svg width="64" height="64" viewBox="0 0 64 64" fill="none" xmlns="http://www.w3.org/2000/svg">
<path d="M37.1739 43.9565C34.3792 43.9565 31.6472 43.1278 29.3235 41.5751C26.9997 40.0225 25.1886 37.8156 24.1191 35.2336C23.0496 32.6516 22.7697 29.8104 23.315 27.0694C23.8602 24.3284 25.206 21.8106 27.1822 19.8344C29.1583 17.8582 31.6762 16.5124 34.4172 15.9672C37.1582 15.4219 39.9994 15.7018 42.5814 16.7713C45.1634 17.8408 47.3702 19.6519 48.9229 21.9756C50.4756 24.2994 51.3043 27.0314 51.3043 29.8261C51.3043 33.5737 49.8156 37.1678 47.1656 39.8178C44.5157 42.4678 40.9215 43.9565 37.1739 43.9565ZM37.1739 17.8696C34.8091 17.8696 32.4974 18.5708 30.5312 19.8846C28.565 21.1984 27.0325 23.0658 26.1275 25.2505C25.2226 27.4353 24.9858 29.8394 25.4471 32.1587C25.9085 34.478 27.0472 36.6085 28.7194 38.2806C30.3915 39.9528 32.522 41.0915 34.8413 41.5529C37.1606 42.0142 39.5647 41.7775 41.7495 40.8725C43.9342 39.9675 45.8016 38.435 47.1154 36.4688C48.4292 34.5025 49.1304 32.1909 49.1304 29.8261C49.1304 26.655 47.8707 23.6138 45.6284 21.3716C43.3861 19.1293 40.345 17.8696 37.1739 17.8696Z" fill="#404040"/>
<path d="M45.5421 38.83L44.0049 40.3672L52.6977 49.06L54.2349 47.5228L45.5421 38.83Z" fill="#404040"/>
<path d="M28.4781 13.5217H15.4346V15.6957H28.4781V13.5217Z" fill="#404040"/>
<path d="M24.1302 17.8696H15.4346V20.0435H24.1302V17.8696Z" fill="#404040"/>
<path d="M20.8694 22.2174H15.4346V24.3913H20.8694V22.2174Z" fill="#404040"/>
<path d="M20.8694 26.5652H15.4346V28.7391H20.8694V26.5652Z" fill="#404040"/>
<path d="M20.8694 30.913H15.4346V33.087H20.8694V30.913Z" fill="#404040"/>
<path d="M42.6089 24.3913H30.6523V26.5652H42.6089V24.3913Z" fill="#FA4616"/>
<path d="M42.6089 28.7391H30.6523V30.913H42.6089V28.7391Z" fill="#FA4616"/>
<path d="M38.261 33.087H30.6523V35.2609H38.261V33.087Z" fill="#FA4616"/>
<path d="M17.6085 46.1304H15.4346V50.4783H17.6085V46.1304Z" fill="#404040"/>
<path d="M21.9566 41.7826H19.7827V50.4783H21.9566V41.7826Z" fill="#404040"/>
<path d="M26.3043 45.0435H24.1304V50.4783H26.3043V45.0435Z" fill="#404040"/>
<path d="M30.6519 48.3044H28.478V50.4783H30.6519V48.3044Z" fill="#404040"/>
<path d="M35.0001 46.1304H32.8262V50.4783H35.0001V46.1304Z" fill="#404040"/>
<path d="M45.8696 57H11.087C10.7987 57 10.5222 56.8855 10.3184 56.6817C10.1145 56.4778 10 56.2013 10 55.913V8.08696C10 7.79868 10.1145 7.52222 10.3184 7.31838C10.5222 7.11453 10.7987 7 11.087 7H45.8696C46.1579 7 46.4343 7.11453 46.6382 7.31838C46.842 7.52222 46.9565 7.79868 46.9565 8.08696V14.6087H44.7826V9.17391H12.1739V54.8261H44.7826V46.1304H46.9565V55.913C46.9565 56.2013 46.842 56.4778 46.6382 56.6817C46.4343 56.8855 46.1579 57 45.8696 57Z" fill="#404040"/>
</svg>
