<svg width="64" height="64" viewBox="0 0 64 64" fill="none" xmlns="http://www.w3.org/2000/svg">
<path d="M8.50932 49.0033L7 47.4939L16.6339 37.86C16.8345 37.6607 17.1058 37.5487 17.3886 37.5487C17.6714 37.5487 17.9427 37.6607 18.1432 37.86L24.887 44.5931L54.0992 15.3809L55.6085 16.8902L25.6363 46.8624C25.4357 47.0618 25.1644 47.1737 24.8816 47.1737C24.5988 47.1737 24.3275 47.0618 24.127 46.8624L17.3939 40.1401L8.50932 49.0033Z" fill="#FA4616"/>
<path d="M57.0001 23.6339H54.8593V16.1409H47.3662V14H55.9297C56.2136 14 56.4859 14.1128 56.6866 14.3135C56.8874 14.5143 57.0001 14.7865 57.0001 15.0704V23.6339Z" fill="#FA4616"/>
<path d="M31.8231 32.1974C29.9786 32.1946 28.2105 31.4606 26.9063 30.1564C25.602 28.8522 24.8681 27.084 24.8652 25.2396V23.0987C24.8652 21.2534 25.5983 19.4836 26.9031 18.1788C28.208 16.8739 29.9777 16.1409 31.8231 16.1409C33.6684 16.1409 35.4381 16.8739 36.743 18.1788C38.0478 19.4836 38.7809 21.2534 38.7809 23.0987V25.2396C38.7781 27.084 38.0441 28.8522 36.7399 30.1564C35.4356 31.4606 33.6675 32.1946 31.8231 32.1974V32.1974ZM31.8231 18.2817C30.5455 18.2817 29.3203 18.7892 28.417 19.6926C27.5136 20.596 27.0061 21.8212 27.0061 23.0987V25.2396C27.0061 26.5171 27.5136 27.7423 28.417 28.6457C29.3203 29.5491 30.5455 30.0565 31.8231 30.0565C33.1006 30.0565 34.3258 29.5491 35.2292 28.6457C36.1325 27.7423 36.64 26.5171 36.64 25.2396V23.0987C36.64 22.4661 36.5154 21.8397 36.2734 21.2553C36.0313 20.6709 35.6765 20.1399 35.2292 19.6926C34.7819 19.2453 34.2509 18.8905 33.6664 18.6484C33.082 18.4064 32.4556 18.2817 31.8231 18.2817V18.2817Z" fill="#404040"/>
<path d="M44.6688 49.3244C42.8243 49.3215 41.0562 48.5876 39.752 47.2834C38.4477 45.9791 37.7138 44.211 37.7109 42.3665V40.2257C37.7109 38.3803 38.444 36.6106 39.7488 35.3057C41.0537 34.0009 42.8234 33.2678 44.6688 33.2678C46.5141 33.2678 48.2838 34.0009 49.5887 35.3057C50.8935 36.6106 51.6266 38.3803 51.6266 40.2257V42.3665C51.6238 44.211 50.8898 45.9791 49.5856 47.2834C48.2813 48.5876 46.5132 49.3215 44.6688 49.3244V49.3244ZM44.6688 35.4087C43.3912 35.4087 42.166 35.9162 41.2627 36.8196C40.3593 37.7229 39.8518 38.9481 39.8518 40.2257V42.3665C39.8518 43.6441 40.3593 44.8693 41.2627 45.7727C42.166 46.676 43.3912 47.1835 44.6688 47.1835C45.9463 47.1835 47.1715 46.676 48.0749 45.7727C48.9782 44.8693 49.4857 43.6441 49.4857 42.3665V40.2257C49.4857 38.9481 48.9782 37.7229 48.0749 36.8196C47.1715 35.9162 45.9463 35.4087 44.6688 35.4087V35.4087Z" fill="#404040"/>
</svg>
