<svg width="64" height="64" viewBox="0 0 64 64" fill="none" xmlns="http://www.w3.org/2000/svg">
<path d="M49.2334 43.9445L48.8667 41.7222L53.4445 40.9556V30.5778H55.6667V41.9333C55.6701 42.1997 55.5778 42.4584 55.4065 42.6623C55.2352 42.8662 54.9963 43.0019 54.7334 43.0445L49.2334 43.9445Z" fill="#FA4616"/>
<path d="M36.2449 33.9667C36.0511 33.9663 35.8608 33.9153 35.6928 33.8187C35.5248 33.722 35.3851 33.5832 35.2873 33.4158C35.1896 33.2485 35.1374 33.0584 35.1358 32.8647C35.1342 32.6709 35.1833 32.48 35.2783 32.3111L40.1894 23.6111C40.2982 23.4184 40.4621 23.2625 40.6601 23.1635C40.858 23.0646 41.081 23.027 41.3005 23.0555C44.3707 23.3992 47.3692 24.2163 50.1894 25.4778V25.4778C52.4009 26.3782 54.2875 27.9278 55.6005 29.9222C55.6861 30.083 55.7309 30.2623 55.7309 30.4444C55.7309 30.6266 55.6861 30.8059 55.6005 30.9667C55.5191 31.1277 55.3996 31.2665 55.2525 31.3711C55.1053 31.4756 54.935 31.5428 54.7561 31.5667L36.3894 33.9L36.2449 33.9667ZM41.8005 25.3555L38.3449 31.4778L52.4672 29.6667C51.4829 28.7514 50.3573 28.001 49.1338 27.4444C46.773 26.395 44.2732 25.6915 41.7116 25.3555H41.8005Z" fill="#FA4616"/>
<path d="M28.4668 47.4111C23.856 47.5074 19.2762 46.6369 15.0223 44.8555C11.1446 43.0555 9.01123 40.5778 9.01123 37.8555C9.01123 35.1333 11.1446 32.6444 15.0223 30.8555C19.8668 28.6333 26.689 27.7667 33.2779 28.5667C33.4609 28.5891 33.6354 28.6567 33.7858 28.7634C33.9361 28.8701 34.0576 29.0126 34.1391 29.1779C34.2207 29.3433 34.2598 29.5263 34.253 29.7106C34.2462 29.8948 34.1937 30.0745 34.1001 30.2333L30.5223 36.4L46.0112 34.4778C46.2284 34.4471 46.4498 34.4813 46.6475 34.5763C46.8452 34.6712 47.0104 34.8225 47.1223 35.0111C47.5295 35.6555 47.793 36.3802 47.8946 37.1357C47.9962 37.8912 47.9337 38.6597 47.7112 39.3889C47.0557 41.5222 45.0557 43.4111 41.9334 44.8555C37.6715 46.6358 33.0846 47.5062 28.4668 47.4111ZM28.4668 30.5111C24.1778 30.429 19.9183 31.2348 15.9557 32.8778C12.9557 34.2667 11.2335 36.0778 11.2335 37.8555C11.2335 39.6333 12.9557 41.4444 15.9557 42.8333C22.8557 46.0222 34.089 46.0222 40.989 42.8333C43.4779 41.7222 45.1112 40.2222 45.5668 38.7333C45.7673 38.0966 45.7438 37.4104 45.5001 36.7889L28.5779 38.8778C28.3652 38.9128 28.147 38.8853 27.9497 38.7985C27.7524 38.7117 27.5846 38.5694 27.4668 38.3889C27.3564 38.2123 27.2979 38.0082 27.2979 37.8C27.2979 37.5917 27.3564 37.3877 27.4668 37.2111L31.3001 30.6111C30.3779 30.5444 29.4223 30.5111 28.4668 30.5111Z" fill="#404040"/>
<path d="M28.4667 57C17.5556 57 9 52.7778 9 47.3778V38.1111H11.2222V47.3778C11.2222 50.9556 18.1556 54.7778 28.4667 54.7778C38.7778 54.7778 45.7111 50.9556 45.7111 47.3778V38.1111H47.9333V47.3778C47.9333 52.7778 39.3889 57 28.4667 57Z" fill="#404040"/>
<path d="M15.6666 29.2222H13.4443V20.3333C13.4443 20.0387 13.5614 19.756 13.7698 19.5477C13.9781 19.3393 14.2608 19.2222 14.5554 19.2222H21.2221V21.4445H15.6666V29.2222Z" fill="#404040"/>
<path d="M29.0002 27H26.778V9.22222H22.3336V27H20.1113V8.11111C20.1113 7.81643 20.2284 7.53381 20.4368 7.32544C20.6451 7.11706 20.9278 7 21.2224 7H27.8891C28.1838 7 28.4664 7.11706 28.6748 7.32544C28.8832 7.53381 29.0002 7.81643 29.0002 8.11111V27Z" fill="#404040"/>
<path d="M35.6664 27H33.4442V15.8889H27.8887V13.6667H34.5553C34.85 13.6667 35.1326 13.7837 35.341 13.9921C35.5494 14.2005 35.6664 14.4831 35.6664 14.7778V27Z" fill="#404040"/>
</svg>
