<svg width="64" height="64" viewBox="0 0 64 64" fill="none" xmlns="http://www.w3.org/2000/svg">
<path d="M47.104 32.7917H32.8957L26.9478 19.8958L27.8852 19.4583C29.9484 18.5057 32.218 18.0875 34.4852 18.2424C36.7524 18.3972 38.9441 19.1201 40.8585 20.3445C42.7729 21.5689 44.3484 23.2554 45.4398 25.2486C46.5313 27.2417 47.1036 29.4775 47.104 31.75V32.7917ZM34.229 30.7083H44.9686C44.7088 27.8623 43.3949 25.2162 41.2846 23.289C39.1744 21.3619 36.4202 20.2928 33.5623 20.2917C32.2555 20.2887 30.9581 20.5143 29.729 20.9583L34.229 30.7083Z" fill="#404040"/>
<path d="M30.9586 49.4583C27.873 49.4571 24.8803 48.4021 22.4761 46.4681C20.0719 44.534 18.4003 41.8369 17.738 38.8232C17.0757 35.8095 17.4625 32.66 18.8343 29.8962C20.2061 27.1323 22.4807 24.9198 25.2815 23.625L26.2294 23.1875L31.6252 34.875H44.5002V35.9167C44.5002 39.5081 43.0735 42.9525 40.534 45.4921C37.9944 48.0316 34.55 49.4583 30.9586 49.4583V49.4583ZM25.2294 26C23.5247 26.983 22.1018 28.3884 21.0979 30.0809C20.094 31.7735 19.5429 33.696 19.4977 35.6633C19.4525 37.6306 19.9148 39.5764 20.8399 41.3133C21.7651 43.0501 23.1219 44.5193 24.7797 45.5795C26.4375 46.6397 28.3405 47.2551 30.3051 47.3664C32.2698 47.4777 34.2301 47.0811 35.997 46.2148C37.7639 45.3486 39.278 44.0419 40.3933 42.4206C41.5086 40.7994 42.1876 38.9182 42.3648 36.9583H30.2919L25.2294 26Z" fill="#404040"/>
<path d="M40.0314 26.2292L38.5522 24.7604L45.1043 18.1979H48.6669V20.2813H45.9689L40.0314 26.2292Z" fill="#FA4616"/>
<path d="M46.5835 49.4479H40.9377L35.4272 43.9375L36.9064 42.4688L41.8022 47.3646H46.5835V49.4479Z" fill="#FA4616"/>
<path d="M55.9583 22.375H48.6667C48.3904 22.375 48.1254 22.2653 47.9301 22.0699C47.7347 21.8746 47.625 21.6096 47.625 21.3333V14.0417C47.625 13.7654 47.7347 13.5005 47.9301 13.3051C48.1254 13.1098 48.3904 13 48.6667 13H55.9583C56.2346 13 56.4995 13.1098 56.6949 13.3051C56.8902 13.5005 57 13.7654 57 14.0417V21.3333C57 21.6096 56.8902 21.8746 56.6949 22.0699C56.4995 22.2653 56.2346 22.375 55.9583 22.375ZM49.7083 20.2917H54.9167V15.0833H49.7083V20.2917Z" fill="#FA4616"/>
<path d="M53.8748 51.5417H46.5832C46.3069 51.5417 46.0419 51.4319 45.8466 51.2366C45.6512 51.0412 45.5415 50.7763 45.5415 50.5V43.2083C45.5415 42.9321 45.6512 42.6671 45.8466 42.4718C46.0419 42.2764 46.3069 42.1667 46.5832 42.1667H53.8748C54.1511 42.1667 54.416 42.2764 54.6114 42.4718C54.8067 42.6671 54.9165 42.9321 54.9165 43.2083V50.5C54.9165 50.7763 54.8067 51.0412 54.6114 51.2366C54.416 51.4319 54.1511 51.5417 53.8748 51.5417ZM47.6248 49.4583H52.8332V44.25H47.6248V49.4583Z" fill="#FA4616"/>
<path d="M22.9272 32.4792L18.021 27.5729H15.3335V25.4896H18.8856L24.4064 31.0104L22.9272 32.4792Z" fill="#FA4616"/>
<path d="M15.3333 29.6667H8.04167C7.7654 29.6667 7.50043 29.5569 7.30508 29.3616C7.10973 29.1662 7 28.9013 7 28.625V21.3333C7 21.0571 7.10973 20.7921 7.30508 20.5968C7.50043 20.4014 7.7654 20.2917 8.04167 20.2917H15.3333C15.6096 20.2917 15.8745 20.4014 16.0699 20.5968C16.2652 20.7921 16.375 21.0571 16.375 21.3333V28.625C16.375 28.9013 16.2652 29.1662 16.0699 29.3616C15.8745 29.5569 15.6096 29.6667 15.3333 29.6667ZM9.08333 27.5833H14.2917V22.375H9.08333V27.5833Z" fill="#FA4616"/>
<path d="M29.975 35.5331L25.8086 46.9863L27.7664 47.6985L31.9328 36.2453L29.975 35.5331Z" fill="#404040"/>
</svg>
