<svg width="64" height="64" viewBox="0 0 64 64" fill="none" xmlns="http://www.w3.org/2000/svg">
<path d="M15.7508 16.6944L12.152 13.0956L8.55327 16.6944L7 15.1411L12.152 10L17.3041 15.1411L15.7508 16.6944Z" fill="#FA4616"/>
<path d="M57 54.2027H11.0581V11.5424H13.2458V52.0149H57V54.2027Z" fill="#FA4616"/>
<path d="M38.4045 32.3256H31.8414C31.5513 32.3256 31.2731 32.2103 31.0679 32.0052C30.8628 31.8001 30.7476 31.5218 30.7476 31.2317V17.0116C30.7476 16.7215 30.8628 16.4433 31.0679 16.2382C31.2731 16.033 31.5513 15.9178 31.8414 15.9178H38.4045C38.6946 15.9178 38.9729 16.033 39.178 16.2382C39.3831 16.4433 39.4984 16.7215 39.4984 17.0116V31.2317C39.4984 31.5218 39.3831 31.8001 39.178 32.0052C38.9729 32.2103 38.6946 32.3256 38.4045 32.3256ZM32.9353 30.1379H37.3107V18.1055H32.9353V30.1379Z" fill="#404040"/>
<path d="M36.217 11.5424H34.0293V17.0116H36.217V11.5424Z" fill="#404040"/>
<path d="M36.217 31.2317H34.0293V36.701H36.217V31.2317Z" fill="#404040"/>
<path d="M50.4368 44.358H43.8736C43.5835 44.358 43.3053 44.2427 43.1002 44.0376C42.895 43.8324 42.7798 43.5542 42.7798 43.2641V29.044C42.7798 28.7539 42.895 28.4757 43.1002 28.2706C43.3053 28.0654 43.5835 27.9502 43.8736 27.9502H50.4368C50.7269 27.9502 51.0051 28.0654 51.2102 28.2706C51.4154 28.4757 51.5306 28.7539 51.5306 29.044V43.2641C51.5306 43.5542 51.4154 43.8324 51.2102 44.0376C51.0051 44.2427 50.7269 44.358 50.4368 44.358ZM44.9675 42.1703H49.3429V30.1379H44.9675V42.1703Z" fill="#404040"/>
<path d="M48.2492 23.5748H46.0615V29.044H48.2492V23.5748Z" fill="#404040"/>
<path d="M48.2492 43.2641H46.0615V48.7334H48.2492V43.2641Z" fill="#404040"/>
<path d="M26.3718 43.2641H19.8087C19.5186 43.2641 19.2404 43.1489 19.0352 42.9437C18.8301 42.7386 18.7148 42.4604 18.7148 42.1703V25.7625C18.7148 25.4724 18.8301 25.1941 19.0352 24.989C19.2404 24.7839 19.5186 24.6686 19.8087 24.6686H26.3718C26.6619 24.6686 26.9402 24.7839 27.1453 24.989C27.3504 25.1941 27.4657 25.4724 27.4657 25.7625V42.1703C27.4657 42.4604 27.3504 42.7386 27.1453 42.9437C26.9402 43.1489 26.6619 43.2641 26.3718 43.2641ZM20.9026 41.0764H25.278V26.8563H20.9026V41.0764Z" fill="#404040"/>
<path d="M24.1843 19.1993H21.9966V25.7625H24.1843V19.1993Z" fill="#404040"/>
<path d="M24.1843 42.1703H21.9966V47.6395H24.1843V42.1703Z" fill="#404040"/>
</svg>
