<svg width="64" height="64" viewBox="0 0 64 64" fill="none" xmlns="http://www.w3.org/2000/svg">
<path d="M44.4349 32H36.8262V22.2174H44.4349V32ZM39.0001 29.8261H42.261V24.3913H39.0001V29.8261Z" fill="#FA4616"/>
<path d="M33.5652 32H25.9565V18.9565H33.5652V32ZM28.1305 29.8261H31.3913V21.1304H28.1305V29.8261Z" fill="#FA4616"/>
<path d="M38.9998 32H31.3911V14.6087H38.9998V32ZM33.565 29.8261H36.8259V16.7826H33.565V29.8261Z" fill="#FA4616"/>
<path d="M28.1307 32H20.522V24.3913H28.1307V32ZM22.6959 29.8261H25.9568V26.5652H22.6959V29.8261Z" fill="#FA4616"/>
<path d="M30.3046 36.3478H20.522V38.5218H30.3046V36.3478Z" fill="#404040"/>
<path d="M44.435 36.3478H34.6523V38.5218H44.435V36.3478Z" fill="#404040"/>
<path d="M30.3046 40.6956H20.522V42.8696H30.3046V40.6956Z" fill="#404040"/>
<path d="M44.435 40.6956H34.6523V42.8696H44.435V40.6956Z" fill="#404040"/>
<path d="M27.0437 45.0435H20.522V47.2174H27.0437V45.0435Z" fill="#404040"/>
<path d="M41.1741 45.0435H34.6523V47.2174H41.1741V45.0435Z" fill="#404040"/>
<path d="M49.8696 57H15.087C14.7987 57 14.5222 56.8855 14.3184 56.6816C14.1145 56.4778 14 56.2013 14 55.913V8.08696C14 7.79868 14.1145 7.52221 14.3184 7.31836C14.5222 7.11452 14.7987 7 15.087 7H49.8696C50.1579 7 50.4343 7.11452 50.6382 7.31836C50.842 7.52221 50.9565 7.79868 50.9565 8.08696V55.913C50.9565 56.2013 50.842 56.4778 50.6382 56.6816C50.4343 56.8855 50.1579 57 49.8696 57ZM16.1739 54.8261H48.7826V9.17391H16.1739V54.8261Z" fill="#404040"/>
</svg>
