<svg width="64" height="64" viewBox="0 0 64 64" fill="none" xmlns="http://www.w3.org/2000/svg">
<path d="M11 39H8V37H11C14.87 37 17.5 30 20 23.15C22.91 15.36 25.66 8 30.91 8C36.16 8 38.53 14.44 40.82 20.66C42.82 26.23 44.99 32 48.82 32H55.92V34H48.82C43.56 34 41.19 27.57 38.9 21.35C36.85 15.77 34.73 10 30.9 10C27.07 10 24.41 17 21.9 23.85C19 31.64 16.25 39 11 39Z" fill="#FA4616"/>
<path d="M46.38 51C42.82 51 40.88 45.14 38.82 38.94C37.64 35.38 35.82 30 34.54 30C33.26 30 32.54 31.45 31.71 33.84C30.88 36.23 29.86 39 27 39C25.75 39 25.29 40.67 24.75 43.21C24.21 45.75 23.5 49 20.54 49C17.78 49 16.31 46.19 14.88 43.47C13.74 41.27 12.55 39 11 39V37C13.76 37 15.23 39.82 16.66 42.54C17.8 44.73 18.99 47 20.54 47C21.79 47 22.24 45.34 22.79 42.79C23.34 40.24 24.04 37 27 37C28.35 37 29 35.55 29.83 33.16C30.66 30.77 31.68 28 34.54 28C37.4 28 38.8 32.55 40.72 38.31C42.21 42.82 44.26 49 46.38 49C50.19 49 54.01 39.89 55.05 36.69C55.05 36.69 56.5 38.69 55.96 40C54.32 44.04 50.85 51 46.38 51Z" fill="#FA4616"/>
<path d="M53 56H11C9.93913 56 8.92171 55.5786 8.17157 54.8284C7.42142 54.0783 7 53.0609 7 52V29C7 28.7348 7.10536 28.4804 7.29289 28.2929C7.48043 28.1054 7.73478 28 8 28H11C16.14 28 19.09 31.76 21.94 35.39C24.62 38.79 27.15 42 31.31 42C35.31 42 37.31 37 39.53 31.63C41.87 25.91 44.29 20 49.61 20H56C56.1313 20 56.2614 20.0259 56.3827 20.0761C56.504 20.1264 56.6142 20.2 56.7071 20.2929C56.8 20.3858 56.8736 20.496 56.9239 20.6173C56.9741 20.7386 57 20.8687 57 21V52C57 52.5253 56.8965 53.0454 56.6955 53.5307C56.4945 54.016 56.1998 54.457 55.8284 54.8284C55.457 55.1999 55.016 55.4945 54.5307 55.6955C54.0454 55.8965 53.5253 56 53 56ZM9 30V52C9 52.5304 9.21071 53.0391 9.58578 53.4142C9.96086 53.7892 10.4696 54 11 54H53C53.5304 54 54.0391 53.7892 54.4142 53.4142C54.7893 53.0391 55 52.5304 55 52V22H49.61C45.61 22 43.61 27 41.39 32.38C39.05 38.1 36.63 44 31.31 44C26.18 44 23.22 40.25 20.37 36.62C17.7 33.22 15.17 30 11 30H9Z" fill="#404040"/>
</svg>
