<svg width="64" height="64" viewBox="0 0 64 64" fill="none" xmlns="http://www.w3.org/2000/svg">
<path d="M32.0001 51.002H30.0001V35.002C30.0001 34.7367 30.1055 34.4824 30.293 34.2949C30.4806 34.1073 30.7349 34.002 31.0001 34.002H31.8701L29.0001 30.562L26.1401 34.002H27.0001C27.2654 34.002 27.5197 34.1073 27.7072 34.2949C27.8948 34.4824 28.0001 34.7367 28.0001 35.002V51.002H26.0001V36.002H24.0001C23.8038 36.0083 23.61 35.9567 23.4428 35.8535C23.2756 35.7504 23.1425 35.6003 23.0601 35.422C22.9794 35.2511 22.9488 35.0608 22.9718 34.8732C22.9948 34.6856 23.0705 34.5083 23.1901 34.362L28.1901 28.362C28.284 28.2487 28.4016 28.1576 28.5347 28.095C28.6678 28.0324 28.8131 28 28.9601 28C29.1072 28 29.2525 28.0324 29.3856 28.095C29.5187 28.1576 29.6363 28.2487 29.7301 28.362L34.7301 34.362C34.8514 34.5073 34.9289 34.684 34.9537 34.8717C34.9785 35.0593 34.9495 35.2501 34.8701 35.422C34.7898 35.5955 34.6614 35.7424 34.5001 35.8452C34.3388 35.948 34.1514 36.0024 33.9601 36.002H31.9601L32.0001 51.002Z" fill="#404040"/>
<path d="M21.0001 51.002H19.0001V43.002C19.0001 42.7367 19.1055 42.4824 19.293 42.2949C19.4806 42.1073 19.7349 42.002 20.0001 42.002H20.8701L18.0001 38.562L15.1401 42.002H16.0001C16.2654 42.002 16.5197 42.1073 16.7072 42.2949C16.8948 42.4824 17.0001 42.7367 17.0001 43.002V51.002H15.0001V44.002H13.0001C12.8038 44.0083 12.61 43.9567 12.4428 43.8535C12.2756 43.7504 12.1425 43.6003 12.0601 43.422C11.9794 43.2511 11.9488 43.0608 11.9718 42.8732C11.9948 42.6856 12.0705 42.5083 12.1901 42.362L17.1901 36.362C17.284 36.2487 17.4016 36.1576 17.5347 36.095C17.6678 36.0324 17.8131 36 17.9601 36C18.1072 36 18.2525 36.0324 18.3856 36.095C18.5187 36.1576 18.6363 36.2487 18.7301 36.362L23.7301 42.362C23.8514 42.5073 23.9289 42.684 23.9537 42.8717C23.9785 43.0593 23.9495 43.2501 23.8701 43.422C23.7898 43.5955 23.6614 43.7424 23.5001 43.8452C23.3388 43.948 23.1514 44.0024 22.9601 44.002H20.9601L21.0001 51.002Z" fill="#404040"/>
<path d="M43.0001 51.002H41.0001V27.002C41.0001 26.7367 41.1055 26.4824 41.293 26.2949C41.4806 26.1073 41.7349 26.002 42.0001 26.002H42.8701L40.0001 22.562L37.1401 26.002H38.0001C38.2654 26.002 38.5197 26.1073 38.7072 26.2949C38.8948 26.4824 39.0001 26.7367 39.0001 27.002V51.002H37.0001V28.002H35.0001C34.8038 28.0083 34.61 27.9567 34.4428 27.8535C34.2756 27.7504 34.1425 27.6003 34.0601 27.422C33.9794 27.2511 33.9488 27.0608 33.9718 26.8732C33.9948 26.6856 34.0705 26.5083 34.1901 26.362L39.1901 20.362C39.284 20.2487 39.4016 20.1576 39.5347 20.095C39.6678 20.0324 39.8131 20 39.9601 20C40.1072 20 40.2525 20.0324 40.3856 20.095C40.5187 20.1576 40.6363 20.2487 40.7301 20.362L45.7301 26.362C45.8514 26.5073 45.9289 26.684 45.9537 26.8717C45.9785 27.0593 45.9495 27.2501 45.8701 27.422C45.7898 27.5955 45.6614 27.7424 45.5001 27.8452C45.3388 27.948 45.1514 28.0024 44.9601 28.002H42.9601L43.0001 51.002Z" fill="#404040"/>
<path d="M54.0001 51.002H52.0001V19.002C52.0001 18.7367 52.1055 18.4824 52.293 18.2949C52.4806 18.1073 52.7349 18.002 53.0001 18.002H53.8701L51.0001 14.562L48.1401 18.002H49.0001C49.2654 18.002 49.5197 18.1073 49.7073 18.2949C49.8948 18.4824 50.0001 18.7367 50.0001 19.002V51.002H48.0001V20.002H46.0001C45.8038 20.0083 45.61 19.9567 45.4428 19.8535C45.2756 19.7504 45.1425 19.6003 45.0601 19.422C44.9794 19.2511 44.9488 19.0608 44.9718 18.8732C44.9948 18.6856 45.0705 18.5083 45.1901 18.362L50.1901 12.362C50.284 12.2487 50.4016 12.1576 50.5347 12.095C50.6678 12.0324 50.8131 12 50.9601 12C51.1072 12 51.2525 12.0324 51.3856 12.095C51.5187 12.1576 51.6363 12.2487 51.7301 12.362L56.7301 18.362C56.8514 18.5073 56.9289 18.684 56.9537 18.8717C56.9785 19.0593 56.9495 19.2501 56.8701 19.422C56.7898 19.5955 56.6614 19.7424 56.5001 19.8452C56.3388 19.948 56.1514 20.0024 55.9601 20.002H53.9601L54.0001 51.002Z" fill="#404040"/>
<path d="M57 52.002H8C7.73478 52.002 7.48043 51.8966 7.29289 51.7091C7.10536 51.5215 7 51.2672 7 51.002V12.002H9V50.002H57V52.002Z" fill="#FA4616"/>
</svg>
