<svg width="64" height="64" viewBox="0 0 64 64" fill="none" xmlns="http://www.w3.org/2000/svg">
<path d="M38.0868 46.1304H29.3911V33.087H38.0868V46.1304ZM31.565 43.9565H35.9129V35.2609H31.565V43.9565Z" fill="#FA4616"/>
<path d="M51.1302 46.1304H42.4346V36.3478H51.1302V46.1304ZM44.6085 43.9565H48.9563V38.5217H44.6085V43.9565Z" fill="#FA4616"/>
<path d="M44.6087 46.1304H35.9131V27.6522H44.6087V46.1304ZM38.087 43.9565H42.4348V29.8261H38.087V43.9565Z" fill="#FA4616"/>
<path d="M42.4346 22.2174H17.4346V24.3913H42.4346V22.2174Z" fill="#404040"/>
<path d="M42.4346 17.8696H17.4346V20.0435H42.4346V17.8696Z" fill="#404040"/>
<path d="M25.3259 26.5652H17.4346V28.7391H25.3259V26.5652Z" fill="#404040"/>
<path d="M47.8696 57H13.087C12.7987 57 12.5222 56.8855 12.3184 56.6817C12.1145 56.4778 12 56.2013 12 55.913V8.08696C12 7.79868 12.1145 7.52222 12.3184 7.31838C12.5222 7.11453 12.7987 7 13.087 7H47.8696C48.1579 7 48.4343 7.11453 48.6382 7.31838C48.842 7.52222 48.9565 7.79868 48.9565 8.08696V31.1196H46.7826V9.17391H14.1739V54.8261H46.7826V48.3043H48.9565V55.913C48.9565 56.2013 48.842 56.4778 48.6382 56.6817C48.4343 56.8855 48.1579 57 47.8696 57Z" fill="#404040"/>
</svg>
