<svg width="64" height="64" viewBox="0 0 64 64" fill="none" xmlns="http://www.w3.org/2000/svg">
<path d="M32.5557 54.5556H23.6668C23.3721 54.5556 23.0895 54.4386 22.8811 54.2302C22.6727 54.0218 22.5557 53.7392 22.5557 53.4445V16.7779C22.5557 16.4832 22.6727 16.2006 22.8811 15.9922C23.0895 15.7838 23.3721 15.6667 23.6668 15.6667H32.5557C32.8503 15.6667 33.133 15.7838 33.3413 15.9922C33.5497 16.2006 33.6668 16.4832 33.6668 16.7779V53.4445C33.6668 53.7392 33.5497 54.0218 33.3413 54.2302C33.133 54.4386 32.8503 54.5556 32.5557 54.5556ZM24.7779 52.3334H31.4446V17.889H24.7779V52.3334Z" fill="#FA4616"/>
<path d="M32.5557 17.889C32.3215 17.8875 32.0937 17.812 31.905 17.6734C31.7162 17.5347 31.5761 17.34 31.5047 17.1169C31.4332 16.8939 31.434 16.654 31.507 16.4315C31.58 16.209 31.7215 16.0152 31.9112 15.8779L39.689 10.3223C39.9282 10.1806 40.2119 10.1338 40.4839 10.191C40.756 10.2482 40.9967 10.4054 41.1586 10.6314C41.3205 10.8575 41.3917 11.136 41.3582 11.412C41.3248 11.688 41.1891 11.9415 40.9779 12.1223L33.2001 17.6778C33.0125 17.8137 32.7872 17.8875 32.5557 17.889Z" fill="#FA4616"/>
<path d="M40.3334 23.4445C40.0388 23.4445 39.7561 23.3275 39.5478 23.1191C39.3394 22.9107 39.2223 22.6281 39.2223 22.3334V11.2223H31.8001L24.7779 16.2334V16.7779C24.7779 17.0726 24.6608 17.3552 24.4524 17.5636C24.2441 17.7719 23.9615 17.889 23.6668 17.889C23.3721 17.889 23.0895 17.7719 22.8811 17.5636C22.6727 17.3552 22.5557 17.0726 22.5557 16.7779V15.6668C22.5565 15.4905 22.5992 15.3169 22.6804 15.1604C22.7615 15.0039 22.8787 14.869 23.0223 14.7668L30.8001 9.21122C30.9855 9.07113 31.2122 8.99684 31.4446 9.0001H40.3334C40.6281 9.0001 40.9107 9.11717 41.1191 9.32554C41.3275 9.53391 41.4446 9.81653 41.4446 10.1112V22.3334C41.4446 22.6281 41.3275 22.9107 41.1191 23.1191C40.9107 23.3275 40.6281 23.4445 40.3334 23.4445Z" fill="#FA4616"/>
<path d="M33.6666 54.5556H32.5554C32.2608 54.5556 31.9781 54.4386 31.7698 54.2302C31.5614 54.0218 31.4443 53.7392 31.4443 53.4445C31.4443 53.1498 31.5614 52.8672 31.7698 52.6588C31.9781 52.4505 32.2608 52.3334 32.5554 52.3334H33.2443L35.1554 50.6334C35.2625 50.5272 35.3901 50.4439 35.5305 50.3886C35.6708 50.3334 35.8209 50.3072 35.9716 50.3118C36.1224 50.3164 36.2706 50.3516 36.4073 50.4154C36.544 50.4791 36.6663 50.57 36.7667 50.6825C36.8672 50.795 36.9436 50.9268 36.9915 51.0698C37.0393 51.2128 37.0576 51.3641 37.0451 51.5144C37.0326 51.6647 36.9897 51.8109 36.9188 51.9441C36.848 52.0772 36.7509 52.1946 36.6332 52.289L34.411 54.2779C34.2056 54.459 33.9405 54.558 33.6666 54.5556Z" fill="#FA4616"/>
<path d="M18.1109 54.5556H16.9998C16.7051 54.5556 16.4225 54.4386 16.2141 54.2302C16.0057 54.0218 15.8887 53.7392 15.8887 53.4445C15.8887 53.1498 16.0057 52.8672 16.2141 52.6588C16.4225 52.4505 16.7051 52.3334 16.9998 52.3334H17.6887L19.5998 50.6334C19.7069 50.5272 19.8345 50.4439 19.9748 50.3886C20.1151 50.3334 20.2652 50.3072 20.416 50.3118C20.5667 50.3164 20.7149 50.3516 20.8516 50.4154C20.9883 50.4791 21.1106 50.57 21.2111 50.6825C21.3115 50.795 21.388 50.9268 21.4358 51.0698C21.4837 51.2128 21.5019 51.3641 21.4894 51.5144C21.4769 51.6647 21.434 51.8109 21.3632 51.9441C21.2924 52.0772 21.1952 52.1946 21.0776 52.289L18.8553 54.2779C18.6499 54.459 18.3848 54.558 18.1109 54.5556Z" fill="#404040"/>
<path d="M48.1108 54.5556H39.222C38.9273 54.5556 38.6447 54.4385 38.4363 54.2302C38.2279 54.0218 38.1108 53.7392 38.1108 53.4445V27.8889C38.1108 27.5943 38.2279 27.3116 38.4363 27.1033C38.6447 26.8949 38.9273 26.7778 39.222 26.7778H48.1108C48.4055 26.7778 48.6881 26.8949 48.8965 27.1033C49.1049 27.3116 49.222 27.5943 49.222 27.8889V53.4445C49.222 53.7392 49.1049 54.0218 48.8965 54.2302C48.6881 54.4385 48.4055 54.5556 48.1108 54.5556ZM40.3331 52.3334H46.9997V29.0001H40.3331V52.3334Z" fill="#404040"/>
<path d="M48.1113 29C47.8771 28.9985 47.6494 28.9231 47.4606 28.7844C47.2719 28.6458 47.1318 28.451 47.0603 28.228C46.9889 28.005 46.9897 27.7651 47.0627 27.5426C47.1357 27.32 47.2772 27.1263 47.4669 26.9889L55.2447 21.4334C55.4839 21.2917 55.7675 21.2449 56.0396 21.3021C56.3117 21.3593 56.5524 21.5165 56.7143 21.7425C56.8761 21.9686 56.9474 22.2471 56.9139 22.5231C56.8804 22.7991 56.7447 23.0525 56.5335 23.2334L48.7558 28.7889C48.5682 28.9247 48.3429 28.9986 48.1113 29Z" fill="#404040"/>
<path d="M49.222 54.5556H48.1108C47.8162 54.5556 47.5335 54.4386 47.3252 54.2302C47.1168 54.0218 46.9997 53.7392 46.9997 53.4445C46.9997 53.1498 47.1168 52.8672 47.3252 52.6588C47.5335 52.4505 47.8162 52.3334 48.1108 52.3334H48.822L54.7775 47.3667V22.3334H47.3553L40.3331 27.3445V27.889C40.3331 28.1836 40.216 28.4663 40.0076 28.6746C39.7993 28.883 39.5166 29.0001 39.222 29.0001C38.9273 29.0001 38.6447 28.883 38.4363 28.6746C38.2279 28.4663 38.1108 28.1836 38.1108 27.889V26.7779C38.1117 26.6016 38.1544 26.428 38.2355 26.2715C38.3167 26.115 38.4339 25.9801 38.5775 25.8779L46.3553 20.3223C46.5406 20.1822 46.7674 20.1079 46.9997 20.1112H55.8886C56.1833 20.1112 56.4659 20.2282 56.6743 20.4366C56.8827 20.645 56.9997 20.9276 56.9997 21.2223V47.889C57 48.0522 56.9643 48.2135 56.8952 48.3614C56.826 48.5092 56.7252 48.64 56.5997 48.7445L49.9331 54.3001C49.7332 54.4657 49.4816 54.5561 49.222 54.5556V54.5556Z" fill="#404040"/>
<path d="M17 54.5556H8.11111C7.81643 54.5556 7.53381 54.4386 7.32544 54.2302C7.11707 54.0218 7 53.7392 7 53.4445V37.889C7 37.5943 7.11707 37.3117 7.32544 37.1033C7.53381 36.8949 7.81643 36.7779 8.11111 36.7779H17C17.2947 36.7779 17.5773 36.8949 17.7857 37.1033C17.994 37.3117 18.1111 37.5943 18.1111 37.889V53.4445C18.1111 53.7392 17.994 54.0218 17.7857 54.2302C17.5773 54.4386 17.2947 54.5556 17 54.5556ZM9.22222 52.3334H15.8889V39.0001H9.22222V52.3334Z" fill="#404040"/>
<path d="M17 39.0001C16.7658 38.9986 16.5381 38.9232 16.3493 38.7845C16.1606 38.6459 16.0205 38.4511 15.949 38.2281C15.8775 38.0051 15.8784 37.7652 15.9514 37.5426C16.0244 37.3201 16.1658 37.1263 16.3556 36.989L19.6889 34.6223C19.8083 34.5371 19.9434 34.4763 20.0865 34.4436C20.2295 34.4108 20.3776 34.4067 20.5222 34.4315C20.6669 34.4563 20.8051 34.5095 20.9291 34.588C21.0531 34.6665 21.1602 34.7688 21.2444 34.889C21.4131 35.1294 21.4798 35.4268 21.4298 35.7163C21.3798 36.0057 21.2173 36.2635 20.9778 36.4335L17.6444 38.789C17.4569 38.9248 17.2316 38.9986 17 39.0001Z" fill="#404040"/>
<path d="M8.11111 39.0001C7.81643 39.0001 7.53381 38.883 7.32544 38.6747C7.11707 38.4663 7 38.1837 7 37.889V36.7779C7.00082 36.6016 7.04356 36.428 7.12471 36.2715C7.20585 36.1151 7.32307 35.9801 7.46667 35.8779L15.2444 30.3223C15.4298 30.1822 15.6566 30.108 15.8889 30.1112H20.4C20.6947 30.1112 20.9773 30.2283 21.1857 30.4367C21.394 30.645 21.5111 30.9276 21.5111 31.2223C21.5111 31.517 21.394 31.7996 21.1857 32.008C20.9773 32.2164 20.6947 32.3334 20.4 32.3334H16.2444L9.22222 37.3445V37.889C9.22222 38.1837 9.10516 38.4663 8.89679 38.6747C8.68841 38.883 8.4058 39.0001 8.11111 39.0001Z" fill="#404040"/>
</svg>
