<svg width="64" height="64" viewBox="0 0 64 64" fill="none" xmlns="http://www.w3.org/2000/svg">
<path d="M28.8751 55.875C28.5988 55.875 28.3339 55.7652 28.1385 55.5699C27.9432 55.3745 27.8334 55.1096 27.8334 54.8333V49.25C27.8334 47.4479 25.1147 46.5 23.6667 46.5C22.2188 46.5 19.5001 47.4479 19.5001 49.25V54.8333C19.5001 55.1096 19.3903 55.3745 19.195 55.5699C18.9996 55.7652 18.7347 55.875 18.4584 55.875C18.1821 55.875 17.9172 55.7652 17.7218 55.5699C17.5265 55.3745 17.4167 55.1096 17.4167 54.8333V49.25C17.4167 46.125 21.0417 44.4167 23.6667 44.4167C26.2917 44.4167 29.9167 46.1042 29.9167 49.25V54.8333C29.9167 55.1096 29.807 55.3745 29.6117 55.5699C29.4163 55.7652 29.1513 55.875 28.8751 55.875Z" fill="#404040"/>
<path d="M23.6666 46.5C23.1285 46.5329 22.5893 46.4547 22.0827 46.2701C21.5761 46.0856 21.113 45.7987 20.7221 45.4274C20.3312 45.056 20.0209 44.6082 19.8107 44.1117C19.6004 43.6152 19.4946 43.0808 19.4999 42.5416V41.0937C19.4999 39.9887 19.9389 38.9288 20.7203 38.1474C21.5017 37.366 22.5615 36.9271 23.6666 36.9271C24.7717 36.9271 25.8315 37.366 26.6129 38.1474C27.3943 38.9288 27.8333 39.9887 27.8333 41.0937V42.5416C27.837 43.0803 27.7302 43.6141 27.5194 44.1098C27.3087 44.6056 26.9984 45.0528 26.6078 45.4238C26.2173 45.7949 25.7547 46.0818 25.2488 46.2669C24.7429 46.452 24.2044 46.5313 23.6666 46.5V46.5ZM23.6666 39.2083C23.4023 39.177 23.1343 39.2027 22.8807 39.2837C22.6271 39.3646 22.3938 39.4989 22.1964 39.6775C21.999 39.8561 21.8422 40.0749 21.7364 40.3192C21.6307 40.5635 21.5785 40.8276 21.5833 41.0937V42.5416C21.5833 43.0942 21.8028 43.6241 22.1935 44.0148C22.5842 44.4055 23.1141 44.625 23.6666 44.625C24.2191 44.625 24.749 44.4055 25.1397 44.0148C25.5304 43.6241 25.7499 43.0942 25.7499 42.5416V41.0937C25.7548 40.8276 25.7025 40.5635 25.5968 40.3192C25.491 40.0749 25.3342 39.8561 25.1368 39.6775C24.9394 39.4989 24.7061 39.3646 24.4525 39.2837C24.1989 39.2027 23.931 39.177 23.6666 39.2083V39.2083Z" fill="#404040"/>
<path d="M42.4168 55.875C42.1406 55.875 41.8756 55.7653 41.6803 55.5699C41.4849 55.3746 41.3752 55.1096 41.3752 54.8334V52.375C41.3752 50.5729 38.6564 49.625 37.2085 49.625C35.7606 49.625 33.0418 50.5729 33.0418 52.375V54.8334C33.0418 55.1096 32.9321 55.3746 32.7367 55.5699C32.5414 55.7653 32.2764 55.875 32.0002 55.875C31.7239 55.875 31.4589 55.7653 31.2636 55.5699C31.0682 55.3746 30.9585 55.1096 30.9585 54.8334V52.375C30.9585 49.25 34.5835 47.5417 37.2085 47.5417C39.8335 47.5417 43.4585 49.2292 43.4585 52.375V54.8334C43.4585 55.1096 43.3487 55.3746 43.1534 55.5699C42.958 55.7653 42.6931 55.875 42.4168 55.875Z" fill="#404040"/>
<path d="M37.2084 49.625C36.6702 49.6579 36.131 49.5797 35.6245 49.3951C35.1179 49.2106 34.6547 48.9237 34.2638 48.5524C33.8729 48.181 33.5627 47.7332 33.3524 47.2367C33.1422 46.7403 33.0364 46.2058 33.0417 45.6667V44.2188C33.0417 43.1137 33.4807 42.0539 34.2621 41.2725C35.0435 40.4911 36.1033 40.0521 37.2084 40.0521C38.3134 40.0521 39.3732 40.4911 40.1546 41.2725C40.936 42.0539 41.375 43.1137 41.375 44.2188V45.6667C41.3788 46.2054 41.272 46.7391 41.0612 47.2349C40.8504 47.7306 40.5401 48.1778 40.1496 48.5489C39.759 48.9199 39.2965 49.2068 38.7906 49.392C38.2846 49.5771 37.7462 49.6564 37.2084 49.625V49.625ZM37.2084 42.3333C36.944 42.3021 36.676 42.3278 36.4224 42.4087C36.1688 42.4896 35.9355 42.6239 35.7381 42.8025C35.5408 42.9811 35.3839 43.2 35.2782 43.4442C35.1724 43.6885 35.1202 43.9526 35.125 44.2188V45.6667C35.125 46.2192 35.3445 46.7491 35.7352 47.1398C36.1259 47.5305 36.6558 47.75 37.2084 47.75C37.7609 47.75 38.2908 47.5305 38.6815 47.1398C39.0722 46.7491 39.2917 46.2192 39.2917 45.6667V44.2188C39.2965 43.9526 39.2443 43.6885 39.1385 43.4442C39.0328 43.2 38.8759 42.9811 38.6786 42.8025C38.4812 42.6239 38.2479 42.4896 37.9943 42.4087C37.7407 42.3278 37.4727 42.3021 37.2084 42.3333V42.3333Z" fill="#404040"/>
<path d="M55.9583 55.875C55.6821 55.875 55.4171 55.7653 55.2218 55.5699C55.0264 55.3746 54.9167 55.1096 54.9167 54.8333V54.4583C54.9167 52.6562 52.1979 51.7083 50.75 51.7083C49.3021 51.7083 46.5833 52.6562 46.5833 54.4583V54.8333C46.5833 55.1096 46.4736 55.3746 46.2782 55.5699C46.0829 55.7653 45.8179 55.875 45.5417 55.875C45.2654 55.875 45.0004 55.7653 44.8051 55.5699C44.6097 55.3746 44.5 55.1096 44.5 54.8333V54.4583C44.5 51.3333 48.125 49.625 50.75 49.625C53.375 49.625 57 51.3125 57 54.4583V54.8333C57 55.1096 56.8903 55.3746 56.6949 55.5699C56.4996 55.7653 56.2346 55.875 55.9583 55.875Z" fill="#404040"/>
<path d="M50.7501 51.7084C50.212 51.7413 49.6728 51.663 49.1662 51.4785C48.6596 51.294 48.1964 51.0071 47.8056 50.6357C47.4147 50.2644 47.1044 49.8165 46.8942 49.3201C46.6839 48.8236 46.5781 48.2891 46.5834 47.75V46.3021C46.5834 45.197 47.0224 44.1372 47.8038 43.3558C48.5852 42.5744 49.645 42.1354 50.7501 42.1354C51.8552 42.1354 52.915 42.5744 53.6964 43.3558C54.4778 44.1372 54.9168 45.197 54.9168 46.3021V47.75C54.9205 48.2887 54.8137 48.8225 54.6029 49.3182C54.3922 49.814 54.0819 50.2612 53.6913 50.6322C53.3008 51.0032 52.8382 51.2902 52.3323 51.4753C51.8264 51.6604 51.2879 51.7397 50.7501 51.7084V51.7084ZM50.7501 44.4167C50.4858 44.3854 50.2178 44.4111 49.9642 44.492C49.7106 44.573 49.4773 44.7072 49.2799 44.8859C49.0825 45.0645 48.9257 45.2833 48.8199 45.5276C48.7142 45.7719 48.662 46.036 48.6668 46.3021V47.75C48.6668 48.3026 48.8863 48.8325 49.277 49.2232C49.6677 49.6139 50.1976 49.8334 50.7501 49.8334C51.3026 49.8334 51.8325 49.6139 52.2232 49.2232C52.6139 48.8325 52.8334 48.3026 52.8334 47.75V46.3021C52.8383 46.036 52.786 45.7719 52.6803 45.5276C52.5745 45.2833 52.4177 45.0645 52.2203 44.8859C52.0229 44.7072 51.7896 44.573 51.536 44.492C51.2824 44.4111 51.0145 44.3854 50.7501 44.4167V44.4167Z" fill="#404040"/>
<path d="M15.3125 45.3438C14.9837 45.3406 14.6604 45.2597 14.3689 45.1076C14.0774 44.9555 13.8261 44.7366 13.6354 44.4688L10.625 40.3021H10.125C9.2962 40.3021 8.50134 39.9729 7.91529 39.3868C7.32924 38.8008 7 38.0059 7 37.1771V23.6354C7 22.8066 7.32924 22.0118 7.91529 21.4257C8.50134 20.8397 9.2962 20.5104 10.125 20.5104H30.9583C31.7871 20.5104 32.582 20.8397 33.168 21.4257C33.7541 22.0118 34.0833 22.8066 34.0833 23.6354V37.1771C34.0833 38.0059 33.7541 38.8008 33.168 39.3868C32.582 39.9729 31.7871 40.3021 30.9583 40.3021H29.9167V38.2188H30.9583C31.2346 38.2188 31.4996 38.109 31.6949 37.9137C31.8903 37.7183 32 37.4534 32 37.1771V23.6354C32 23.3592 31.8903 23.0942 31.6949 22.8989C31.4996 22.7035 31.2346 22.5938 30.9583 22.5938H10.125C9.84873 22.5938 9.58378 22.7035 9.38843 22.8989C9.19308 23.0942 9.08333 23.3592 9.08333 23.6354V37.1771C9.08333 37.4534 9.19308 37.7183 9.38843 37.9137C9.58378 38.109 9.84873 38.2188 10.125 38.2188H11.6979L15.3333 43.3021V38.2188H18.4583V40.3021H17.4167V43.3021C17.4167 43.8546 17.1972 44.3845 16.8065 44.7752C16.4158 45.1659 15.8859 45.3854 15.3333 45.3854L15.3125 45.3438Z" fill="#404040"/>
<path d="M39.3021 34.9271C39.0825 34.9282 38.8643 34.893 38.6563 34.8229C38.2349 34.688 37.8675 34.4224 37.6072 34.0647C37.3468 33.707 37.2072 33.2757 37.2083 32.8333V29.8333H35.125V27.75H39.2917V32.8333L42.9167 27.75H46.5833C46.8596 27.75 47.1246 27.6403 47.3199 27.4449C47.5153 27.2496 47.625 26.9846 47.625 26.7083V12.125C47.625 11.8487 47.5153 11.5838 47.3199 11.3884C47.1246 11.1931 46.8596 11.0833 46.5833 11.0833H19.5C19.2237 11.0833 18.9588 11.1931 18.7634 11.3884C18.5681 11.5838 18.4583 11.8487 18.4583 12.125V19.4167H16.375V12.125C16.375 11.2962 16.7042 10.5013 17.2903 9.91529C17.8763 9.32924 18.6712 9 19.5 9H46.5833C47.4121 9 48.207 9.32924 48.793 9.91529C49.3791 10.5013 49.7083 11.2962 49.7083 12.125V26.7083C49.7083 27.5371 49.3791 28.332 48.793 28.918C48.207 29.5041 47.4121 29.8333 46.5833 29.8333H43.9896L40.9792 34C40.7942 34.2775 40.5454 34.5065 40.2535 34.6678C39.9617 34.8291 39.6354 34.918 39.3021 34.9271Z" fill="#FA4616"/>
<path d="M46.5938 41.1771C46.3743 41.1782 46.1561 41.143 45.948 41.0729C45.5267 40.938 45.1592 40.6724 44.8989 40.3147C44.6386 39.957 44.4989 39.5257 44.5001 39.0833V36.0833H42.4167V34H46.5834V39.0833L50.2084 34H53.8751C54.1513 34 54.4163 33.8902 54.6117 33.6949C54.807 33.4995 54.9167 33.2346 54.9167 32.9583V19.4167C54.9167 19.1404 54.807 18.8754 54.6117 18.6801C54.4163 18.4847 54.1513 18.375 53.8751 18.375H50.7501V16.2917H53.8751C54.7039 16.2917 55.4987 16.6209 56.0848 17.2069C56.6708 17.793 57.0001 18.5879 57.0001 19.4167V32.9583C57.0001 33.7871 56.6708 34.582 56.0848 35.168C55.4987 35.7541 54.7039 36.0833 53.8751 36.0833H51.2813L48.2709 40.25C48.086 40.5275 47.8371 40.7565 47.5453 40.9178C47.2535 41.0791 46.9272 41.168 46.5938 41.1771Z" fill="#404040"/>
</svg>
