<svg width="64" height="64" viewBox="0 0 64 64" fill="none" xmlns="http://www.w3.org/2000/svg">
<path d="M17.4409 44.436C16.7321 44.4372 16.0305 44.2935 15.3792 44.0139C14.7279 43.7343 14.1406 43.3246 13.6532 42.8099C13.1659 42.2953 12.7888 41.6865 12.545 41.021C12.3013 40.3554 12.196 39.6471 12.2357 38.9394V37.4507C12.2357 36.0702 12.7841 34.7463 13.7603 33.7701C14.7364 32.794 16.0604 32.2456 17.4409 32.2456C18.8214 32.2456 20.1453 32.794 21.1215 33.7701C22.0976 34.7463 22.646 36.0702 22.646 37.4507V38.9394C22.6857 39.6471 22.5805 40.3554 22.3367 41.021C22.093 41.6865 21.7158 42.2953 21.2285 42.8099C20.7411 43.3246 20.1538 43.7343 19.5025 44.0139C18.8512 44.2935 18.1497 44.4372 17.4409 44.436V44.436ZM17.4409 34.0257C17.004 34.0237 16.5717 34.1133 16.1716 34.2888C15.7716 34.4643 15.4129 34.7217 15.1185 35.0445C14.8242 35.3673 14.6009 35.7482 14.4629 36.1627C14.325 36.5772 14.2755 37.016 14.3178 37.4507V38.9394C14.3178 39.3495 14.3986 39.7556 14.5555 40.1346C14.7125 40.5135 14.9425 40.8578 15.2325 41.1478C15.5225 41.4378 15.8668 41.6678 16.2457 41.8248C16.6246 41.9817 17.0307 42.0625 17.4409 42.0625C17.851 42.0625 18.2571 41.9817 18.636 41.8248C19.0149 41.6678 19.3592 41.4378 19.6492 41.1478C19.9393 40.8578 20.1693 40.5135 20.3262 40.1346C20.4832 39.7556 20.564 39.3495 20.564 38.9394V37.4507C20.6062 37.016 20.5568 36.5772 20.4188 36.1627C20.2809 35.7482 20.0576 35.3673 19.7632 35.0445C19.4689 34.7217 19.1101 34.4643 18.7101 34.2888C18.3101 34.1133 17.8777 34.0237 17.4409 34.0257V34.0257Z" fill="#404040"/>
<path d="M8.07157 56.9285C7.91104 56.9332 7.7516 56.9007 7.60573 56.8335C7.45985 56.7664 7.3315 56.6664 7.23068 56.5414C7.12987 56.4164 7.05935 56.2698 7.02463 56.113C6.9899 55.9562 6.99192 55.7935 7.03053 55.6376L9.1126 47.3093C9.90378 44.0301 11.6527 42.354 14.3178 42.354H16.8579L24.1451 50.6823H30.8598L30.9534 51.6088C31.1189 53.0615 30.7119 54.5216 29.8187 55.6792C29.4335 56.0927 28.9631 56.4176 28.4401 56.6314C27.9171 56.8453 27.3538 56.9431 26.7893 56.9181H20.1371L14.6197 51.411C14.4258 51.216 14.3169 50.9521 14.3169 50.6771C14.3169 50.4021 14.4258 50.1382 14.6197 49.9431C14.7164 49.8456 14.8316 49.7681 14.9584 49.7153C15.0853 49.6624 15.2214 49.6352 15.3588 49.6352C15.4962 49.6352 15.6323 49.6624 15.7591 49.7153C15.886 49.7681 16.0011 49.8456 16.0979 49.9431L20.9908 54.836H26.7893C27.0602 54.8577 27.3325 54.8205 27.5877 54.7271C27.8429 54.6337 28.0748 54.4861 28.2676 54.2947C28.6135 53.8511 28.82 53.3149 28.861 52.7539H23.1977L15.9105 44.4257H14.2969C13.2039 44.4257 11.8609 44.8109 11.1738 47.7986L9.09179 56.1269C9.03759 56.3562 8.90715 56.5604 8.72183 56.706C8.5365 56.8517 8.30725 56.9301 8.07157 56.9285Z" fill="#404040"/>
<path d="M41.3845 53.8054H32.0152V51.7233H40.8015L45.9025 42.354H29.4959L25.6336 49.1207L23.8223 48.0797L27.9864 40.7925C28.0768 40.6317 28.2083 40.4978 28.3674 40.4045C28.5265 40.3112 28.7076 40.2619 28.8921 40.2615H47.6306C47.8113 40.2616 47.9889 40.3086 48.1458 40.3981C48.3028 40.4875 48.4338 40.6162 48.5259 40.7716C48.6173 40.9299 48.6654 41.1094 48.6654 41.2922C48.6654 41.4749 48.6173 41.6544 48.5259 41.8127L42.2798 53.264C42.1916 53.4252 42.0623 53.5602 41.905 53.6553C41.7478 53.7504 41.5682 53.8022 41.3845 53.8054Z" fill="#404040"/>
<path d="M47.6309 56.9285H16.3999C16.1238 56.9285 15.859 56.8188 15.6638 56.6236C15.4686 56.4284 15.3589 56.1636 15.3589 55.8875C15.3589 55.6114 15.4686 55.3466 15.6638 55.1513C15.859 54.9561 16.1238 54.8464 16.3999 54.8464H47.6309C47.907 54.8464 48.1718 54.9561 48.367 55.1513C48.5622 55.3466 48.6719 55.6114 48.6719 55.8875C48.6719 56.1636 48.5622 56.4284 48.367 56.6236C48.1718 56.8188 47.907 56.9285 47.6309 56.9285Z" fill="#404040"/>
<path d="M44.5077 23.6155H42.4256V18.4103C42.4256 18.1342 42.316 17.8694 42.1208 17.6742C41.9255 17.479 41.6607 17.3693 41.3846 17.3693H35.1384V15.2872H41.3846C42.2129 15.2872 43.0073 15.6163 43.593 16.202C44.1787 16.7877 44.5077 17.582 44.5077 18.4103V23.6155Z" fill="#FA4616"/>
<path d="M27.8616 39.2414C27.6094 39.2378 27.3595 39.1921 27.1224 39.106C26.7239 38.9571 26.3806 38.6897 26.1386 38.3398C25.8967 37.9899 25.7677 37.5743 25.7691 37.1489V34.0258C24.9408 34.0258 24.1464 33.6968 23.5607 33.1111C22.975 32.5254 22.646 31.731 22.646 30.9027V18.4103C22.646 17.582 22.975 16.7877 23.5607 16.202C24.1464 15.6163 24.9408 15.2872 25.7691 15.2872H32.0153V17.3693H25.7691C25.493 17.3693 25.2282 17.479 25.033 17.6742C24.8378 17.8694 24.7281 18.1342 24.7281 18.4103V30.9027C24.7281 31.1788 24.8378 31.4436 25.033 31.6388C25.2282 31.8341 25.493 31.9437 25.7691 31.9437H27.8512V37.1489L32.5983 31.9437H41.3846C41.6607 31.9437 41.9255 31.8341 42.1207 31.6388C42.3159 31.4436 42.4256 31.1788 42.4256 30.9027V26.7386H44.5077V30.9027C44.5077 31.731 44.1786 32.5254 43.5929 33.1111C43.0072 33.6968 42.2129 34.0258 41.3846 34.0258H33.5144L29.4023 38.5439C29.2086 38.7615 28.9713 38.936 28.7059 39.0561C28.4406 39.1762 28.1529 39.2394 27.8616 39.2414V39.2414Z" fill="#FA4616"/>
<path d="M51.7843 32.9952C51.4879 32.9935 51.1953 32.9285 50.926 32.8047C50.6567 32.6808 50.4169 32.5008 50.2228 32.2768L46.1315 27.7796H34.0972C33.2689 27.7796 32.4746 27.4506 31.8889 26.8649C31.3032 26.2792 30.9741 25.4848 30.9741 24.6565V11.1231C30.9741 10.2948 31.3032 9.50043 31.8889 8.91473C32.4746 8.32904 33.2689 8 34.0972 8H53.8768C54.7051 8 55.4995 8.32904 56.0852 8.91473C56.6709 9.50043 56.9999 10.2948 56.9999 11.1231V24.6565C56.9999 25.4848 56.6709 26.2792 56.0852 26.8649C55.4995 27.4506 54.7051 27.7796 53.8768 27.7796V30.9027C53.8782 31.3281 53.7492 31.7437 53.5073 32.0936C53.2653 32.4435 52.922 32.7109 52.5235 32.8598C52.2864 32.9459 52.0365 32.9916 51.7843 32.9952V32.9952ZM34.0868 10.0925C33.8107 10.0925 33.5459 10.2022 33.3507 10.3974C33.1555 10.5926 33.0458 10.8574 33.0458 11.1335V24.6669C33.0458 24.943 33.1555 25.2078 33.3507 25.403C33.5459 25.5983 33.8107 25.7079 34.0868 25.7079H47.0476L51.7843 30.9131V25.7079H53.8664C54.1425 25.7079 54.4073 25.5983 54.6025 25.403C54.7978 25.2078 54.9074 24.943 54.9074 24.6669V11.1335C54.9074 10.8574 54.7978 10.5926 54.6025 10.3974C54.4073 10.2022 54.1425 10.0925 53.8664 10.0925H34.0868Z" fill="#404040"/>
</svg>
