<svg width="64" height="64" viewBox="0 0 64 64" fill="none" xmlns="http://www.w3.org/2000/svg">
<path d="M46.906 27.0337H44.7971V21.0131C44.7971 15.3931 39.1561 9.10882 31.617 9.10882C24.078 9.10882 18.4369 15.4352 18.4369 21.0131V23.8705H16.3281V21.0131C16.3281 14.4019 22.8655 7 31.617 7C40.3686 7 46.906 14.3808 46.906 21.0131V27.0337Z" fill="#FA4616"/>
<path d="M37.9856 39.4757L36.8152 37.7149C38.0153 36.8881 38.9888 35.7734 39.6465 34.4728C40.3041 33.1723 40.6249 31.7274 40.5794 30.2708V28.1619H42.6882V30.2708C42.7357 32.0758 42.3302 33.8639 41.5087 35.4719C40.6872 37.0799 39.476 38.4564 37.9856 39.4757V39.4757Z" fill="#404040"/>
<path d="M43.7428 29.1426C37.4163 29.1426 24.7634 21.0236 24.7634 14.3809H26.8722C26.8722 18.7461 36.9524 27.0337 43.7428 27.0337V29.1426Z" fill="#404040"/>
<path d="M27.178 40.5302C22.5386 38.4213 19.523 34.4251 19.502 30.2391V27.0759C19.502 23.0375 22.5703 19.9165 25.4172 18.725L26.2291 20.6757C24.9324 21.196 23.8101 22.0736 22.9926 23.2066C22.1751 24.3396 21.6959 25.6814 21.6108 27.0759V30.2391C21.6108 33.5921 24.1519 36.8819 28.0321 38.6111L27.178 40.5302Z" fill="#404040"/>
<path d="M33.1986 46.0131H32.1442C31.3052 46.0131 30.5007 45.6798 29.9074 45.0866C29.3142 44.4934 28.981 43.6888 28.981 42.8499C28.981 42.0109 29.3142 41.2063 29.9074 40.6131C30.5007 40.0199 31.3052 39.6866 32.1442 39.6866H33.1986C34.0375 39.6866 34.8421 40.0199 35.4353 40.6131C36.0285 41.2063 36.3618 42.0109 36.3618 42.8499C36.3618 43.6888 36.0285 44.4934 35.4353 45.0866C34.8421 45.6798 34.0375 46.0131 33.1986 46.0131V46.0131ZM32.1442 41.7955C31.8645 41.7955 31.5963 41.9065 31.3986 42.1043C31.2009 42.302 31.0898 42.5702 31.0898 42.8499C31.0898 43.1295 31.2009 43.3977 31.3986 43.5954C31.5963 43.7932 31.8645 43.9043 32.1442 43.9043H33.1986C33.4782 43.9043 33.7464 43.7932 33.9442 43.5954C34.1419 43.3977 34.253 43.1295 34.253 42.8499C34.253 42.5702 34.1419 42.302 33.9442 42.1043C33.7464 41.9065 33.4782 41.7955 33.1986 41.7955H32.1442Z" fill="#FA4616"/>
<path d="M35.3391 43.9043H34.2847V41.7955H35.3391C40.7166 41.7955 44.776 38.1472 44.776 33.3075H46.8848C46.8848 39.2543 41.8131 43.9043 35.3391 43.9043Z" fill="#FA4616"/>
<path d="M47.9603 34.4146H44.7971V22.8161H47.9603C48.7993 22.8161 49.6038 23.1494 50.1971 23.7426C50.7903 24.3358 51.1236 25.1404 51.1236 25.9793V31.2514C51.1236 32.0903 50.7903 32.8949 50.1971 33.4881C49.6038 34.0813 48.7993 34.4146 47.9603 34.4146V34.4146ZM46.9059 32.3058H47.9603C48.24 32.3058 48.5082 32.1947 48.7059 31.9969C48.9037 31.7992 49.0148 31.531 49.0148 31.2514V25.9793C49.0148 25.6997 48.9037 25.4315 48.7059 25.2337C48.5082 25.036 48.24 24.9249 47.9603 24.9249H46.9059V32.3058Z" fill="#FA4616"/>
<path d="M18.4368 34.4146H15.2736C14.4346 34.4146 13.6301 34.0813 13.0368 33.4881C12.4436 32.8949 12.1104 32.0903 12.1104 31.2514V25.9793C12.1104 25.1404 12.4436 24.3358 13.0368 23.7426C13.6301 23.1494 14.4346 22.8161 15.2736 22.8161H18.4368V34.4146ZM15.2736 24.9249C14.9939 24.9249 14.7257 25.036 14.528 25.2337C14.3303 25.4315 14.2192 25.6997 14.2192 25.9793V31.2514C14.2192 31.531 14.3303 31.7992 14.528 31.9969C14.7257 32.1947 14.9939 32.3058 15.2736 32.3058H16.328V24.9249H15.2736Z" fill="#FA4616"/>
<path d="M25.8178 37.5778H23.709V46.0131H25.8178V37.5778Z" fill="#404040"/>
<path d="M28.9812 57L20.103 48.1219L24.7635 43.472L33.6311 52.3395L28.9812 57ZM23.087 48.1219L28.9812 54.016L30.6471 52.3395L24.7635 46.4559L23.087 48.1219Z" fill="#404040"/>
<path d="M35.3075 57L30.647 52.3395L39.5251 43.472L44.175 48.1219L35.3075 57ZM33.6309 52.3395L35.3075 54.016L41.1911 48.1219L39.5251 46.4559L33.6309 52.3395Z" fill="#404040"/>
<path d="M10.9928 56.8946L9 56.2303L9.97005 53.299C10.3783 52.0914 11.0903 51.009 12.0375 50.1559C12.9848 49.3028 14.1355 48.7077 15.3792 48.4277L21.3682 47.0991L21.8216 49.1552L15.8326 50.4838C14.9436 50.6811 14.1209 51.1053 13.4446 51.7151C12.7682 52.3249 12.2614 53.0994 11.9734 53.9633L10.9928 56.8946Z" fill="#404040"/>
<path d="M53.2851 56.8946L52.3045 53.9633C52.0165 53.0994 51.5097 52.3249 50.8334 51.7151C50.157 51.1053 49.3343 50.6811 48.4453 50.4838L42.4563 49.1552L42.9097 47.0991L48.9093 48.4277C50.1531 48.7046 51.304 49.2987 52.2501 50.1524C53.1961 51.0061 53.905 52.0901 54.3078 53.299L55.2779 56.2303L53.2851 56.8946Z" fill="#404040"/>
</svg>
