<svg width="64" height="64" viewBox="0 0 64 64" fill="none" xmlns="http://www.w3.org/2000/svg">
<path d="M55.3538 49.5805C55.1681 49.5812 54.9855 49.5329 54.8245 49.4404C54.6636 49.3479 54.5299 49.2144 54.437 49.0536L53.9102 48.1474C53.5186 47.2611 53.373 46.2856 53.4887 45.3235C53.6106 44.3746 53.476 43.4104 53.0988 42.5312L47.8303 33.406C47.7557 33.2888 47.6586 33.1875 47.5447 33.1079C47.4307 33.0284 47.3022 32.9721 47.1664 32.9424C46.9092 32.8774 46.6374 32.9035 46.3972 33.0162L43.6576 34.5967L43.1307 33.68C42.9694 33.4617 42.7383 33.305 42.4757 33.2361C42.2132 33.1671 41.9349 33.1899 41.6871 33.3007L39.3584 34.6389L38.8526 34.3754C38.5842 34.3012 38.3028 34.2863 38.0281 34.3318C37.7533 34.3773 37.4917 34.482 37.2615 34.6389L35.6915 35.5451C35.5716 35.6213 35.4375 35.6725 35.2972 35.6956C35.157 35.7187 35.0136 35.7131 34.8755 35.6793C34.7375 35.6454 34.6077 35.5841 34.494 35.4989C34.3803 35.4136 34.2851 35.3062 34.214 35.1831C34.1428 35.0601 34.0973 34.924 34.0802 34.7829C34.0631 34.6418 34.0746 34.4987 34.1142 34.3622C34.1538 34.2258 34.2206 34.0987 34.3106 33.9887C34.4006 33.8787 34.5119 33.788 34.6378 33.7221L36.1973 32.8265C37.099 32.2558 38.1877 32.0592 39.232 32.2786L40.6334 31.4777C41.2052 31.1697 41.8553 31.0375 42.502 31.0974C43.1487 31.1574 43.7633 31.407 44.2687 31.8149L45.3224 31.1933C46.0232 30.8079 46.8441 30.7024 47.6195 30.8982C48.0378 30.9868 48.433 31.162 48.7796 31.4124C49.1262 31.6629 49.4166 31.983 49.6321 32.3523L54.9007 41.4775C55.4869 42.688 55.7206 44.0391 55.575 45.3762C55.5142 45.9522 55.5607 46.5346 55.712 47.0937L56.2389 47.9999C56.3311 48.1596 56.3798 48.3408 56.3801 48.5252C56.3803 48.7097 56.3322 48.8909 56.2405 49.0509C56.1487 49.2109 56.0166 49.3441 55.8573 49.437C55.698 49.5299 55.5171 49.5794 55.3327 49.5805H55.3538Z" fill="#404040"/>
<path d="M41.9717 39.0539C41.786 39.0546 41.6034 39.0063 41.4424 38.9138C41.2814 38.8213 41.1478 38.6878 41.0549 38.527L38.4206 33.9645C38.2809 33.7213 38.2435 33.4326 38.3166 33.1619C38.3897 32.8912 38.5674 32.6606 38.8105 32.5209C39.0537 32.3812 39.3423 32.3437 39.6131 32.4168C39.8838 32.49 40.1144 32.6676 40.2541 32.9108L42.8884 37.4733C42.981 37.6338 43.0297 37.8159 43.0296 38.0012C43.0294 38.1866 42.9803 38.3686 42.8873 38.5289C42.7944 38.6892 42.6607 38.8221 42.5 38.9143C42.3392 39.0065 42.157 39.0546 41.9717 39.0539V39.0539Z" fill="#404040"/>
<path d="M46.1337 37.8632C45.948 37.8639 45.7654 37.8156 45.6044 37.7231C45.4435 37.6306 45.3098 37.4971 45.2169 37.3363L43.1095 33.68C42.9713 33.4393 42.9335 33.1537 43.0046 32.8854C43.0756 32.6171 43.2496 32.3877 43.4888 32.2469C43.6085 32.1768 43.7408 32.131 43.8782 32.1121C44.0155 32.0932 44.1553 32.1016 44.2894 32.1369C44.4235 32.1721 44.5493 32.2335 44.6597 32.3175C44.77 32.4014 44.8627 32.5064 44.9324 32.6262L47.0399 36.2826C47.1772 36.5245 47.2133 36.811 47.1403 37.0795C47.0673 37.348 46.891 37.5767 46.65 37.7157C46.4959 37.8141 46.3165 37.8654 46.1337 37.8632V37.8632Z" fill="#404040"/>
<path d="M42.5934 56.9986C42.4095 56.9975 42.2291 56.9483 42.0701 56.8558C41.9112 56.7634 41.7791 56.631 41.6872 56.4717L41.1393 55.5234C40.9075 55.1335 40.8337 54.986 39.8116 54.7121C37.7687 54.1345 35.8354 53.2231 34.0899 52.0146C32.6103 51.0228 31.0187 50.2093 29.3482 49.591C28.881 49.4383 28.4559 49.1789 28.1065 48.8332C27.7571 48.4875 27.4932 48.0651 27.3357 47.5995C27.1822 47.1576 27.1356 46.6856 27.1997 46.2222C27.2638 45.7589 27.4368 45.3172 27.7045 44.9336C28.0788 44.3856 28.5897 43.9447 29.1866 43.6546C29.7835 43.3645 30.4457 43.2351 31.1079 43.2793C32.261 43.4205 33.3975 43.6746 34.5009 44.038L27.42 31.7622C27.0061 31.0366 26.8962 30.1766 27.1144 29.3703C27.2222 28.9707 27.4094 28.5968 27.6646 28.271C27.9198 27.9452 28.238 27.674 28.6001 27.4736C28.9605 27.2662 29.3582 27.132 29.7705 27.0786C30.1828 27.0251 30.6016 27.0535 31.0029 27.1622C31.4042 27.2708 31.7801 27.4575 32.1091 27.7117C32.4381 27.9658 32.7138 28.2824 32.9203 28.6432L39.2426 39.5807C39.3188 39.7007 39.37 39.8348 39.3931 39.975C39.4162 40.1153 39.4106 40.2587 39.3768 40.3967C39.343 40.5348 39.2816 40.6645 39.1964 40.7782C39.1111 40.8919 39.0037 40.9872 38.8807 41.0583C38.7576 41.1294 38.6215 41.1749 38.4804 41.192C38.3393 41.2092 38.1962 41.1976 38.0598 41.158C37.9233 41.1184 37.7962 41.0516 37.6862 40.9617C37.5762 40.8717 37.4855 40.7604 37.4197 40.6344L31.0974 29.6864C31.0277 29.5666 30.935 29.4616 30.8247 29.3777C30.7143 29.2937 30.5885 29.2323 30.4544 29.1971C30.3202 29.1618 30.1805 29.1534 30.0431 29.1723C29.9058 29.1912 29.7735 29.2369 29.6538 29.307C29.4184 29.4459 29.2462 29.6708 29.1734 29.9342C29.1007 30.1977 29.1331 30.4791 29.2639 30.719L37.3038 44.6491C37.4421 44.89 37.5038 45.1672 37.4809 45.4441C37.458 45.7209 37.3515 45.9842 37.1754 46.1991C36.9994 46.414 36.7622 46.5703 36.4953 46.6472C36.2285 46.7242 35.9445 46.7182 35.6811 46.6301C34.1433 46.0644 32.5557 45.6446 30.9393 45.3761C30.646 45.3651 30.3548 45.429 30.093 45.5617C29.8312 45.6945 29.6075 45.8917 29.4431 46.1348C29.3664 46.2498 29.3171 46.3808 29.2988 46.5178C29.2805 46.6547 29.2939 46.7941 29.3377 46.9251C29.3906 47.0807 29.4791 47.2217 29.5962 47.337C29.7133 47.4523 29.8557 47.5386 30.0121 47.589C31.8441 48.2532 33.5885 49.1378 35.2069 50.2232C36.767 51.3091 38.4929 52.1347 40.3174 52.6679C42.0982 53.142 42.5196 53.7215 42.9306 54.3959L43.5207 55.4496C43.658 55.6916 43.6941 55.9781 43.6211 56.2465C43.5481 56.515 43.3718 56.7437 43.1308 56.8827C42.9651 56.9682 42.7796 57.0082 42.5934 56.9986Z" fill="#404040"/>
<path d="M16.4402 36.8622C16.1845 36.8638 15.9307 36.8173 15.6921 36.7252C15.2904 36.5751 14.9441 36.3061 14.6993 35.954C14.4546 35.6019 14.323 35.1836 14.3223 34.7548V30.1817H12.2148C11.097 30.1817 10.0249 29.7376 9.2345 28.9472C8.44406 28.1567 8 27.0847 8 25.9668V11.2148C8 10.097 8.44406 9.02493 9.2345 8.2345C10.0249 7.44406 11.097 7 12.2148 7H36.4502C37.568 7 38.6401 7.44406 39.4305 8.2345C40.221 9.02493 40.665 10.097 40.665 11.2148V25.9668C40.665 27.0847 40.221 28.1567 39.4305 28.9472C38.6401 29.7376 37.568 30.1817 36.4502 30.1817H35.3965V28.0742H36.4502C37.0091 28.0742 37.5452 27.8522 37.9404 27.457C38.3356 27.0618 38.5576 26.5257 38.5576 25.9668V11.2148C38.5576 10.6559 38.3356 10.1199 37.9404 9.72467C37.5452 9.32945 37.0091 9.10742 36.4502 9.10742H12.2148C11.6559 9.10742 11.1199 9.32945 10.7247 9.72467C10.3295 10.1199 10.1074 10.6559 10.1074 11.2148V25.9668C10.1074 26.5257 10.3295 27.0618 10.7247 27.457C11.1199 27.8522 11.6559 28.0742 12.2148 28.0742H16.4297V34.7548L22.2778 28.0742H25.9131V30.1817H23.2367L17.9681 36.1351C17.7775 36.3553 17.5433 36.5336 17.2803 36.6587C17.0174 36.7839 16.7313 36.8532 16.4402 36.8622V36.8622Z" fill="#FA4616"/>
</svg>
