<svg width="64" height="64" viewBox="0 0 64 64" fill="none" xmlns="http://www.w3.org/2000/svg">
<path d="M49.7083 54.8333H8.04167C7.7654 54.8333 7.50046 54.7236 7.30511 54.5282C7.10976 54.3329 7 54.0679 7 53.7917V10.0417C7 9.7654 7.10976 9.50046 7.30511 9.30511C7.50046 9.10976 7.7654 9 8.04167 9H49.7083C49.9846 9 50.2496 9.10976 50.4449 9.30511C50.6403 9.50046 50.75 9.7654 50.75 10.0417V19.4167H48.6667V11.0833H9.08333V52.75H48.6667V45.4583H50.75V53.7917C50.75 54.0679 50.6403 54.3329 50.4449 54.5282C50.2496 54.7236 49.9846 54.8333 49.7083 54.8333Z" fill="#404040"/>
<path d="M49.7084 15.25H8.04175V17.3333H49.7084V15.25Z" fill="#404040"/>
<path d="M13.2498 12.125H11.1665V14.2083H13.2498V12.125Z" fill="#404040"/>
<path d="M17.4166 12.125H15.3333V14.2083H17.4166V12.125Z" fill="#404040"/>
<path d="M21.5833 12.125H19.5V14.2083H21.5833V12.125Z" fill="#404040"/>
<path d="M29.9167 50.2396C29.6406 50.2406 29.3674 50.1838 29.1146 50.0729C28.7361 49.915 28.4126 49.6489 28.1847 49.3079C27.9567 48.967 27.8345 48.5664 27.8333 48.1563V44.4167C26.452 44.4167 25.1272 43.8679 24.1505 42.8912C23.1737 41.9144 22.625 40.5897 22.625 39.2083V25.6667C22.625 24.2853 23.1737 22.9606 24.1505 21.9838C25.1272 21.0071 26.452 20.4583 27.8333 20.4583H51.7917C53.173 20.4583 54.4977 21.0071 55.4745 21.9838C56.4513 22.9606 57 24.2853 57 25.6667V39.2083C57 40.5897 56.4513 41.9144 55.4745 42.8912C54.4977 43.8679 53.173 44.4167 51.7917 44.4167H36.625L31.4167 49.625C31.2204 49.8225 30.9865 49.9786 30.7289 50.0842C30.4713 50.1897 30.1951 50.2426 29.9167 50.2396ZM27.8333 22.5417C27.0045 22.5417 26.2097 22.8709 25.6236 23.4569C25.0376 24.043 24.7083 24.8379 24.7083 25.6667V39.2083C24.7083 40.0371 25.0376 40.832 25.6236 41.4181C26.2097 42.0041 27.0045 42.3333 27.8333 42.3333H28.875C29.1513 42.3333 29.4162 42.4431 29.6116 42.6384C29.8069 42.8338 29.9167 43.0987 29.9167 43.375V48.1563L35.4271 42.6354C35.5244 42.5389 35.6398 42.4625 35.7668 42.4106C35.8937 42.3588 36.0296 42.3325 36.1667 42.3333H51.7917C52.6205 42.3333 53.4153 42.0041 54.0014 41.4181C54.5874 40.832 54.9167 40.0371 54.9167 39.2083V25.6667C54.9167 24.8379 54.5874 24.043 54.0014 23.4569C53.4153 22.8709 52.6205 22.5417 51.7917 22.5417H27.8333Z" fill="#FA4616"/>
<path d="M41.3751 37.125H39.2917V39.2083H41.3751V37.125Z" fill="#404040"/>
<path d="M41.4583 36.0833H39.375C39.2874 35.2702 39.4156 34.4483 39.7465 33.7004C40.0775 32.9524 40.5997 32.3049 41.2604 31.8229C41.8941 31.3208 42.3085 30.5928 42.4167 29.7917C42.4423 29.5117 42.406 29.2294 42.3104 28.965C42.2147 28.7006 42.0621 28.4606 41.8632 28.2617C41.6644 28.0629 41.4243 27.9103 41.1599 27.8147C40.8955 27.719 40.6133 27.6827 40.3333 27.7084C40.0517 27.6749 39.7661 27.7057 39.4981 27.7985C39.2301 27.8914 38.9866 28.0438 38.7861 28.2444C38.5855 28.4449 38.433 28.6884 38.3402 28.9564C38.2473 29.2244 38.2165 29.51 38.25 29.7917H36.1667C36.0825 29.2008 36.1262 28.5988 36.2949 28.0262C36.4636 27.4537 36.7533 26.9241 37.1444 26.4733C37.5356 26.0225 38.019 25.6609 38.562 25.4132C39.105 25.1654 39.6948 25.0372 40.2917 25.0372C40.8885 25.0372 41.4784 25.1654 42.0214 25.4132C42.5643 25.6609 43.0478 26.0225 43.4389 26.4733C43.83 26.9241 44.1197 27.4537 44.2884 28.0262C44.4571 28.5988 44.5009 29.2008 44.4167 29.7917C44.3694 30.5032 44.1724 31.1967 43.8385 31.8268C43.5046 32.4568 43.0414 33.0093 42.4792 33.4479C42.0763 33.7449 41.7664 34.1505 41.5856 34.6172C41.4048 35.0839 41.3607 35.5925 41.4583 36.0833V36.0833Z" fill="#404040"/>
</svg>
