<svg width="64" height="64" viewBox="0 0 64 64" fill="none" xmlns="http://www.w3.org/2000/svg">
<path d="M49.7069 44.9344C49.4279 44.9319 49.1523 44.8735 48.8964 44.7625C48.6405 44.6515 48.4095 44.4903 48.217 44.2884L41.2468 37.089H29.9111C28.5295 37.089 27.2044 36.5401 26.2275 35.5632C25.2505 34.5862 24.7017 33.2612 24.7017 31.8796V15.2094C24.7017 13.8278 25.2505 12.5028 26.2275 11.5258C27.2044 10.5488 28.5295 10 29.9111 10H51.7906C53.1723 10 54.4973 10.5488 55.4743 11.5258C56.4512 12.5028 57.0001 13.8278 57.0001 15.2094V31.8796C57.0001 33.2612 56.4512 34.5862 55.4743 35.5632C54.4973 36.5401 53.1723 37.089 51.7906 37.089V42.8402C51.7919 43.2563 51.6685 43.6633 51.4364 44.0087C51.2043 44.3541 50.8741 44.622 50.4883 44.7781C50.2403 44.88 49.975 44.933 49.7069 44.9344ZM29.9111 12.0838C29.0821 12.0838 28.2871 12.4131 27.7009 12.9992C27.1148 13.5854 26.7854 14.3804 26.7854 15.2094V31.8796C26.7854 32.7085 27.1148 33.5036 27.7009 34.0897C28.2871 34.6759 29.0821 35.0052 29.9111 35.0052H41.6948C41.8344 35.0044 41.9727 35.0316 42.1016 35.0853C42.2305 35.139 42.3472 35.2181 42.4449 35.3178L49.7381 42.8402V36.0471C49.7381 35.7708 49.8479 35.5058 50.0433 35.3104C50.2387 35.115 50.5037 35.0052 50.78 35.0052H51.8219C52.6509 35.0052 53.4459 34.6759 54.0321 34.0897C54.6183 33.5036 54.9476 32.7085 54.9476 31.8796V15.2094C54.9476 14.3804 54.6183 13.5854 54.0321 12.9992C53.4459 12.4131 52.6509 12.0838 51.8219 12.0838H29.9111Z" fill="#404040"/>
<path d="M14.2932 53.2694C13.7405 53.2694 13.2105 53.0499 12.8197 52.6591C12.429 52.2683 12.2094 51.7383 12.2094 51.1857V45.4345C10.8278 45.4345 9.50274 44.8856 8.52578 43.9087C7.54883 42.9317 7 41.6067 7 40.2251V23.5549C7 22.1733 7.54883 20.8482 8.52578 19.8713C9.50274 18.8943 10.8278 18.3455 12.2094 18.3455H23.6701V20.4293H12.2094C11.3804 20.4293 10.5854 20.7586 9.99923 21.3447C9.41306 21.9309 9.08377 22.7259 9.08377 23.5549V40.2251C9.08377 41.054 9.41306 41.8491 9.99923 42.4352C10.5854 43.0214 11.3804 43.3507 12.2094 43.3507H13.2513C13.5276 43.3507 13.7926 43.4605 13.988 43.6559C14.1834 43.8513 14.2932 44.1163 14.2932 44.3926V51.1857L21.5864 43.6633C21.6841 43.5636 21.8008 43.4845 21.9297 43.4308C22.0586 43.3771 22.1969 43.3499 22.3365 43.3507H32.026C32.855 43.3507 33.6501 43.0214 34.2362 42.4352C34.8224 41.8491 35.1517 41.054 35.1517 40.2251V38.1413H37.2355V40.2251C37.2355 41.6067 36.6866 42.9317 35.7096 43.9087C34.7327 44.8856 33.4077 45.4345 32.026 45.4345H22.7741L15.8143 52.6339C15.6173 52.8377 15.3808 52.9992 15.1193 53.1085C14.8577 53.2178 14.5766 53.2725 14.2932 53.2694V53.2694Z" fill="#FA4616"/>
<path d="M37.2042 32.9215H35.1204V23.5445C35.1204 22.7155 34.7912 21.9205 34.205 21.3343C33.6188 20.7482 32.8238 20.4189 31.9948 20.4189H28.8691V18.3351H31.9948C33.3764 18.3351 34.7014 18.8839 35.6784 19.8609C36.6554 20.8378 37.2042 22.1629 37.2042 23.5445V32.9215Z" fill="#FA4616"/>
</svg>
