<svg width="64" height="64" viewBox="0 0 64 64" fill="none" xmlns="http://www.w3.org/2000/svg">
<path d="M15.3333 47.0417C14.7808 47.0417 14.2509 46.8222 13.8602 46.4315C13.4695 46.0408 13.25 45.5109 13.25 44.9584V39.2083H12.2083C10.827 39.2083 9.50224 38.6596 8.52549 37.6828C7.54874 36.7061 7 35.3813 7 34V14.2083C7 12.827 7.54874 11.5023 8.52549 10.5255C9.50224 9.54875 10.827 9 12.2083 9H38.25C39.6314 9 40.9561 9.54875 41.9329 10.5255C42.9096 11.5023 43.4584 12.827 43.4584 14.2083V34C43.4584 35.3813 42.9096 36.7061 41.9329 37.6828C40.9561 38.6596 39.6314 39.2083 38.25 39.2083H23.7917L16.8333 46.3646C16.6424 46.5734 16.4109 46.7411 16.153 46.8575C15.8951 46.9739 15.6162 47.0366 15.3333 47.0417ZM12.2083 11.0729C11.3795 11.0729 10.5847 11.4021 9.99862 11.9882C9.41257 12.5742 9.08333 13.3691 9.08333 14.1979V33.9896C9.08333 34.8184 9.41257 35.6133 9.99862 36.1993C10.5847 36.7854 11.3795 37.1146 12.2083 37.1146H14.2917C14.5679 37.1146 14.8329 37.2243 15.0282 37.4197C15.2236 37.615 15.3333 37.88 15.3333 38.1562V44.9479L22.625 37.4271C22.7227 37.3274 22.8394 37.2484 22.9683 37.1947C23.0971 37.141 23.2354 37.1138 23.375 37.1146H38.2708C39.0996 37.1146 39.8945 36.7854 40.4806 36.1993C41.0666 35.6133 41.3958 34.8184 41.3958 33.9896V14.1979C41.3958 13.3691 41.0666 12.5742 40.4806 11.9882C39.8945 11.4021 39.0996 11.0729 38.2708 11.0729H12.2083Z" fill="#404040"/>
<path d="M49.7083 55.375C49.4218 55.3728 49.1389 55.3115 48.8773 55.195C48.6156 55.0785 48.3808 54.9093 48.1874 54.6979L41.2291 47.5H31.9791C30.5978 47.5 29.273 46.9513 28.2962 45.9745C27.3195 44.9978 26.7708 43.673 26.7708 42.2917V40.2084H28.8541V42.2917C28.8541 43.1205 29.1833 43.9153 29.7694 44.5014C30.3554 45.0874 31.1503 45.4167 31.9791 45.4167H41.6666C41.8062 45.4159 41.9445 45.4431 42.0733 45.4968C42.2022 45.5505 42.3189 45.6295 42.4166 45.7292L49.7083 53.25V46.4584C49.7083 46.1821 49.818 45.9171 50.0134 45.7218C50.2087 45.5264 50.4737 45.4167 50.7499 45.4167H51.7916C52.6204 45.4167 53.4152 45.0874 54.0013 44.5014C54.5873 43.9153 54.9166 43.1205 54.9166 42.2917V24.5834C54.9166 23.7546 54.5873 22.9597 54.0013 22.3736C53.4152 21.7876 52.6204 21.4584 51.7916 21.4584H44.4999V19.375H51.7916C53.1729 19.375 54.4977 19.9237 55.4744 20.9005C56.4512 21.8772 56.9999 23.202 56.9999 24.5834V42.2917C56.9999 43.673 56.4512 44.9978 55.4744 45.9745C54.4977 46.9513 53.1729 47.5 51.7916 47.5V53.25C51.7928 53.666 51.6695 54.0729 51.4374 54.4182C51.2053 54.7636 50.8752 55.0315 50.4895 55.1875C50.2437 55.3001 49.9784 55.3638 49.7083 55.375V55.375Z" fill="#404040"/>
<path d="M15.3333 19.4062H13.25V29.8229H15.3333V19.4062Z" fill="#FA4616"/>
<path d="M19.5001 19.4062H17.4167V29.8229H19.5001V19.4062Z" fill="#FA4616"/>
<path d="M18.4582 23.5729H14.2915V25.6562H18.4582V23.5729Z" fill="#FA4616"/>
<path d="M25.7499 23.5729H21.5833V25.6562H25.7499V23.5729Z" fill="#FA4616"/>
<path d="M25.7498 29.8229H21.5832C21.3069 29.8229 21.042 29.7132 20.8466 29.5178C20.6512 29.3225 20.5415 29.0575 20.5415 28.7813V20.4479C20.5415 20.1716 20.6512 19.9067 20.8466 19.7114C21.042 19.516 21.3069 19.4062 21.5832 19.4062H25.7498V21.4896H22.6248V27.7396H25.7498V29.8229Z" fill="#FA4616"/>
<path d="M30.9582 29.8229H27.8332C27.5569 29.8229 27.292 29.7132 27.0966 29.5178C26.9012 29.3225 26.7915 29.0575 26.7915 28.7813V19.4062H28.8748V27.7396H30.9582V29.8229Z" fill="#FA4616"/>
<path d="M36.1667 25.6563H33.0417C32.7654 25.6563 32.5004 25.5465 32.3051 25.3511C32.1097 25.1558 32 24.8909 32 24.6146V20.4479C32 20.1716 32.1097 19.9067 32.3051 19.7114C32.5004 19.516 32.7654 19.4062 33.0417 19.4062H36.1667C36.7192 19.4062 37.2491 19.6258 37.6398 20.0165C38.0305 20.4072 38.25 20.937 38.25 21.4896V23.5729C38.25 24.1255 38.0305 24.6554 37.6398 25.0461C37.2491 25.4368 36.7192 25.6563 36.1667 25.6563ZM34.0833 23.5729H36.1667V21.4896H34.0833V23.5729Z" fill="#FA4616"/>
<path d="M34.0833 20.4479H32V29.8229H34.0833V20.4479Z" fill="#FA4616"/>
</svg>
