<svg width="64" height="64" viewBox="0 0 64 64" fill="none" xmlns="http://www.w3.org/2000/svg">
<path d="M36.9788 56.9995C36.2279 56.9939 35.4887 56.8119 34.8211 56.4681C34.1534 56.1243 33.5759 55.6284 33.1351 55.0204C32.8955 54.7599 32.6455 54.4892 32.3435 54.2079C31.8498 53.7438 31.2684 53.3832 30.6333 53.147C29.9983 52.9109 29.3225 52.8041 28.6456 52.8329H26.5623V50.7496H28.6456C30.5431 50.6911 32.3863 51.3879 33.7705 52.6871C34.1039 52.9996 34.3955 53.3121 34.6664 53.6037C35.4788 54.4787 35.9163 54.9371 36.9997 54.9162H45.3329C45.4579 54.8641 45.5204 54.6037 45.3329 54.2704C44.9322 53.2706 44.3414 52.3579 43.5934 51.5829L44.8329 49.9163C45.8916 50.913 46.7199 52.1288 47.26 53.4787C47.4473 53.8897 47.5301 54.3406 47.501 54.7913C47.472 55.242 47.3319 55.6785 47.0933 56.062C46.8935 56.3571 46.6229 56.5976 46.3063 56.7613C45.9897 56.9251 45.6372 57.007 45.2808 56.9995H36.9476H36.9788Z" fill="#404040"/>
<path d="M27.6248 49.7079H19.2916C18.739 49.7079 18.2091 49.4884 17.8184 49.0977C17.4277 48.707 17.2083 48.1772 17.2083 47.6246V40.333C17.2083 39.7805 17.4277 39.2506 17.8184 38.8599C18.2091 38.4692 18.739 38.2497 19.2916 38.2497H27.6248C28.1774 38.2497 28.7073 38.4692 29.098 38.8599C29.4886 39.2506 29.7081 39.7805 29.7081 40.333V47.6246C29.7081 48.1772 29.4886 48.707 29.098 49.0977C28.7073 49.4884 28.1774 49.7079 27.6248 49.7079ZM19.2916 40.333V47.6246H27.6248V40.333H19.2916Z" fill="#FA4616"/>
<path d="M27.6248 39.2914H25.5414V36.1664H21.3748V39.2914H19.2915V36.1664C19.2915 35.6139 19.511 35.084 19.9017 34.6933C20.2924 34.3026 20.8223 34.0831 21.3748 34.0831H25.5414C26.094 34.0831 26.6239 34.3026 27.0146 34.6933C27.4053 35.084 27.6248 35.6139 27.6248 36.1664V39.2914Z" fill="#FA4616"/>
<path d="M25.5414 53.8746H21.3748C20.8223 53.8746 20.2924 53.655 19.9017 53.2643C19.511 52.8737 19.2915 52.3438 19.2915 51.7913V48.6663H21.3748V51.7913H25.5414V48.6663H27.6248V51.7913C27.6248 52.3438 27.4053 52.8737 27.0146 53.2643C26.6239 53.655 26.094 53.8746 25.5414 53.8746Z" fill="#FA4616"/>
<path d="M20.3333 35.1039H12V37.1872H20.3333V35.1039Z" fill="#404040"/>
<path d="M20.3333 50.7287H12V52.8121H20.3333V50.7287Z" fill="#404040"/>
<path d="M24.4999 32.531C23.9474 32.531 23.4175 32.3115 23.0268 31.9208C22.6361 31.5301 22.4166 31.0002 22.4166 30.4477V26.7915H19.2916C18.1866 26.7915 17.1268 26.3525 16.3454 25.5711C15.564 24.7897 15.125 23.7299 15.125 22.6249V11.1666C15.125 10.0616 15.564 9.00177 16.3454 8.22037C17.1268 7.43898 18.1866 7 19.2916 7H45.3331C46.4381 7 47.4979 7.43898 48.2793 8.22037C49.0607 9.00177 49.4997 10.0616 49.4997 11.1666V22.6249C49.4997 23.7299 49.0607 24.7897 48.2793 25.5711C47.4979 26.3525 46.4381 26.7915 45.3331 26.7915H30.8749L25.9999 31.906C25.8045 32.1053 25.571 32.2634 25.3134 32.3708C25.0557 32.4782 24.7791 32.5327 24.4999 32.531V32.531ZM19.2916 9.06246C18.7391 9.06246 18.2092 9.28198 17.8185 9.67268C17.4278 10.0634 17.2083 10.5932 17.2083 11.1458V22.604C17.2083 23.1565 17.4278 23.6865 17.8185 24.0772C18.2092 24.4679 18.7391 24.6873 19.2916 24.6873H23.4583C23.7345 24.6873 23.9995 24.7971 24.1948 24.9924C24.3902 25.1878 24.4999 25.4527 24.4999 25.729V30.4477L29.7082 25.0102C29.8062 24.9074 29.9243 24.8257 30.055 24.7702C30.1858 24.7146 30.3265 24.6864 30.4686 24.6873H45.3643C45.9168 24.6873 46.4467 24.4679 46.8374 24.0772C47.2281 23.6865 47.4476 23.1565 47.4476 22.604V11.1666C47.4476 10.6141 47.2281 10.0842 46.8374 9.69353C46.4467 9.30284 45.9168 9.08331 45.3643 9.08331L19.2916 9.06246Z" fill="#404040"/>
<path d="M41.1664 13.2291H23.4583V15.3124H41.1664V13.2291Z" fill="#404040"/>
<path d="M32.8332 17.3957H23.4583V19.479H32.8332V17.3957Z" fill="#404040"/>
<path d="M50.5412 51.7913H41.1663V49.7079H50.2704C50.4541 49.392 50.5478 49.0317 50.5412 48.6663C50.5697 48.2723 50.475 47.8792 50.2704 47.5413C50.3499 47.5963 50.4445 47.6255 50.5412 47.6246V45.5413C50.4359 45.5364 50.3323 45.5697 50.2495 45.6351C50.4411 45.2892 50.5415 44.9003 50.5415 44.5049C50.5415 44.1095 50.4411 43.7206 50.2495 43.3746C50.3366 43.4302 50.4379 43.4592 50.5412 43.458V41.3747C50.4359 41.3698 50.3323 41.4031 50.2495 41.4685C50.4684 41.1321 50.5709 40.7332 50.5412 40.333C50.5506 39.9723 50.472 39.6148 50.312 39.2914H49.4995V37.2081C49.4164 37.2117 49.3364 37.2408 49.2704 37.2914C49.4506 36.9453 49.53 36.5555 49.4995 36.1664C49.5174 35.8104 49.4569 35.4548 49.3225 35.1247H34.8955C33.8124 35.2363 32.7688 35.5925 31.8435 36.1664C30.8716 36.7546 29.7774 37.111 28.6456 37.2081H26.5623V35.1247H28.6456C29.4468 34.9993 30.2151 34.7161 30.906 34.2914C32.1185 33.5656 33.4856 33.1372 34.8955 33.0414H49.4787C50.7391 33.0414 51.562 34.2706 51.562 36.1664C51.5668 36.6122 51.5143 37.0569 51.4058 37.4893C51.8209 37.8318 52.1482 38.2686 52.3602 38.7633C52.5722 39.258 52.6628 39.7962 52.6245 40.333C52.2895 40.9764 52.1146 41.691 52.1146 42.4163C52.1146 43.1417 52.2895 43.8563 52.6245 44.4997C52.6423 45.2258 52.4699 45.944 52.1245 46.583C52.4672 47.223 52.6394 47.9404 52.6245 48.6663C52.6245 50.1559 51.812 51.7913 50.5412 51.7913Z" fill="#404040"/>
<path d="M50.5414 41.3538H49.4998V43.4371H50.5414V41.3538Z" fill="#404040"/>
<path d="M50.5414 45.5205H49.4998V47.6038H50.5414V45.5205Z" fill="#404040"/>
<path d="M49.4997 37.1872H48.458V39.2705H49.4997V37.1872Z" fill="#404040"/>
</svg>
