<svg width="64" height="64" viewBox="0 0 64 64" fill="none" xmlns="http://www.w3.org/2000/svg">
<path d="M14.2917 55.1875C14.0396 55.1909 13.789 55.1485 13.5521 55.0625C13.1569 54.9124 12.8168 54.6457 12.5768 54.2978C12.3368 53.9499 12.2083 53.5372 12.2083 53.1146V48.5937H9.08333C8.5308 48.5937 8.00089 48.3742 7.61019 47.9835C7.21949 47.5928 7 47.0629 7 46.5104V29.8437C7 29.2912 7.21949 28.7613 7.61019 28.3706C8.00089 27.9799 8.5308 27.7604 9.08333 27.7604H37.2083C37.7609 27.7604 38.2908 27.9799 38.6815 28.3706C39.0722 28.7613 39.2917 29.2912 39.2917 29.8437V46.5104C39.2917 47.0629 39.0722 47.5928 38.6815 47.9835C38.2908 48.3742 37.7609 48.5937 37.2083 48.5937H21.0104L15.8542 54.4895C15.658 54.7099 15.4172 54.886 15.1479 55.0063C14.8785 55.1267 14.5867 55.1884 14.2917 55.1875ZM9.08333 29.8333V46.5H13.25C13.5263 46.5 13.7912 46.6097 13.9866 46.8051C14.1819 47.0004 14.2917 47.2654 14.2917 47.5416V53.1041L19.75 46.8541C19.8488 46.7417 19.9706 46.6519 20.1072 46.5907C20.2438 46.5296 20.392 46.4987 20.5417 46.5H37.2083V29.8333H9.08333Z" fill="#404040"/>
<path d="M50.7397 45.8125C50.4439 45.8121 50.1515 45.7488 49.8821 45.6266C49.6127 45.5045 49.3724 45.3264 49.1772 45.1042L44.0209 39.2083H40.3334V37.125H44.5001C44.648 37.1252 44.7941 37.1569 44.9289 37.2179C45.0636 37.279 45.1837 37.3681 45.2813 37.4792L50.7501 43.7292V38.1667C50.7501 37.8904 50.8598 37.6255 51.0552 37.4301C51.2505 37.2348 51.5155 37.125 51.7917 37.125H54.9168V22.5417H28.8751V26.7083H26.7917V22.5417C26.7917 21.9891 27.0112 21.4592 27.4019 21.0685C27.7926 20.6778 28.3225 20.4583 28.8751 20.4583H54.9168C55.4693 20.4583 55.9992 20.6778 56.3899 21.0685C56.7806 21.4592 57.0001 21.9891 57.0001 22.5417V37.125C57.0001 37.6775 56.7806 38.2074 56.3899 38.5982C55.9992 38.9889 55.4693 39.2083 54.9168 39.2083H52.8334V43.7292C52.8327 44.1531 52.7026 44.5667 52.4607 44.9147C52.2187 45.2628 51.8763 45.5287 51.4792 45.6771C51.2434 45.7681 50.9925 45.814 50.7397 45.8125V45.8125Z" fill="#FA4616"/>
<path d="M15.3333 26.7083H13.25V16.2916C13.25 15.7391 13.4695 15.2092 13.8602 14.8185C14.2509 14.4278 14.7808 14.2083 15.3333 14.2083H39.2917C39.8442 14.2083 40.3741 14.4278 40.7648 14.8185C41.1555 15.2092 41.375 15.7391 41.375 16.2916V19.4166H39.2917V16.2916H15.3333V26.7083Z" fill="#404040"/>
<path d="M49.7083 19.4167H47.6249V11.0833H26.7916V13.1667H24.7083V11.0833C24.7083 10.5308 24.9277 10.0009 25.3184 9.61019C25.7091 9.21949 26.2391 9 26.7916 9H47.6249C48.1775 9 48.7073 9.21949 49.098 9.61019C49.4887 10.0009 49.7083 10.5308 49.7083 11.0833V19.4167Z" fill="#404040"/>
</svg>
