<svg width="64" height="64" viewBox="0 0 64 64" fill="none" xmlns="http://www.w3.org/2000/svg">
<path d="M21.5416 24.7083H19.4583V10.125C19.4583 9.2962 19.7875 8.50136 20.3736 7.9153C20.9596 7.32925 21.7545 7 22.5833 7H43.4166C44.2454 7 45.0403 7.32925 45.6263 7.9153C46.2124 8.50136 46.5416 9.2962 46.5416 10.125V14.2917H44.4583V10.125C44.4583 9.84873 44.3485 9.5838 44.1532 9.38845C43.9578 9.1931 43.6929 9.08333 43.4166 9.08333H22.5833C22.307 9.08333 22.042 9.1931 21.8467 9.38845C21.6513 9.5838 21.5416 9.84873 21.5416 10.125V24.7083Z" fill="#404040"/>
<path d="M43.4166 57H22.5833C21.7545 57 20.9596 56.6708 20.3736 56.0847C19.7875 55.4987 19.4583 54.7038 19.4583 53.875V42.4167H21.5416V53.875C21.5416 54.1513 21.6513 54.4162 21.8467 54.6116C22.042 54.8069 22.307 54.9167 22.5833 54.9167H43.4166C43.6929 54.9167 43.9578 54.8069 44.1532 54.6116C44.3485 54.4162 44.4583 54.1513 44.4583 53.875V32H46.5416V53.875C46.5416 54.7038 46.2124 55.4987 45.6263 56.0847C45.0403 56.6708 44.2454 57 43.4166 57Z" fill="#404040"/>
<path d="M36.4167 35.125C35.7877 35.1223 35.1852 34.8711 34.7404 34.4263C34.2956 33.9815 34.0445 33.379 34.0417 32.75V17.4167C34.0417 16.8641 34.2612 16.3342 34.6519 15.9435C35.0426 15.5528 35.5725 15.3333 36.1251 15.3333H54.8751C55.4276 15.3333 55.9575 15.5528 56.3482 15.9435C56.7389 16.3342 56.9584 16.8641 56.9584 17.4167V28.875C56.9584 29.4275 56.7389 29.9574 56.3482 30.3481C55.9575 30.7388 55.4276 30.9583 54.8751 30.9583H40.8022L38.4168 34.0833C38.1945 34.4078 37.8958 34.6725 37.547 34.8542C37.1982 35.0358 36.81 35.1289 36.4167 35.125V35.125ZM36.1251 17.4167V32.75C36.1304 32.8108 36.154 32.8685 36.1928 32.9157C36.2315 32.9628 36.2837 32.9971 36.3423 33.014C36.4009 33.0309 36.4633 33.0297 36.5212 33.0105C36.5792 32.9912 36.6299 32.9549 36.6667 32.9062L36.7397 32.8021L39.7813 28.875H54.8855V17.4167H36.1251Z" fill="#404040"/>
<path d="M51.75 20.5417H39.25V22.625H51.75V20.5417Z" fill="#FA4616"/>
<path d="M47.5833 23.6667H39.25V25.75H47.5833V23.6667Z" fill="#FA4616"/>
<path d="M28.5104 45.5417C28.117 45.5464 27.7285 45.4538 27.3796 45.2721C27.0306 45.0903 26.732 44.8251 26.5104 44.5L24.1146 41.375H10.0833C9.5308 41.375 9.00089 41.1555 8.61019 40.7648C8.21949 40.3741 8 39.8442 8 39.2917V27.8333C8 27.2808 8.21949 26.7509 8.61019 26.3602C9.00089 25.9695 9.5308 25.75 10.0833 25.75H28.8333C29.3859 25.75 29.9158 25.9695 30.3065 26.3602C30.6972 26.7509 30.9167 27.2808 30.9167 27.8333V43.1666C30.9167 43.4812 30.8542 43.7926 30.7329 44.0828C30.6116 44.373 30.4339 44.6362 30.21 44.8572C29.9862 45.0781 29.7207 45.2524 29.4289 45.3699C29.1371 45.4874 28.8249 45.5458 28.5104 45.5417ZM10.0417 27.8333V39.2917H25.1771L28.3021 43.3229C28.3398 43.368 28.3899 43.401 28.4462 43.418C28.5025 43.435 28.5625 43.4353 28.6189 43.4187C28.6752 43.4021 28.7256 43.3695 28.7637 43.3247C28.8018 43.2799 28.826 43.225 28.8333 43.1666V27.8333H10.0417Z" fill="#404040"/>
<path d="M25.7083 30.9583H13.2083V33.0417H25.7083V30.9583Z" fill="#FA4616"/>
<path d="M21.5416 34.0833H13.2083V36.1667H21.5416V34.0833Z" fill="#FA4616"/>
<path d="M45.5 48.6667H20.5V50.75H45.5V48.6667Z" fill="#404040"/>
<path d="M35.0834 51.7917H30.9167V53.875H35.0834V51.7917Z" fill="#404040"/>
</svg>
