<svg width="64" height="64" viewBox="0 0 64 64" fill="none" xmlns="http://www.w3.org/2000/svg">
<path d="M33.0436 55.341C32.7676 55.342 32.4944 55.2853 32.2416 55.1744C31.8631 55.0165 31.5397 54.7504 31.3118 54.4095C31.0839 54.0686 30.9617 53.668 30.9605 53.2579V48.4771H27.8357C26.7308 48.4771 25.671 48.0381 24.8897 47.2568C24.1084 46.4754 23.6694 45.4157 23.6694 44.3107V26.6039C23.6694 25.499 24.1084 24.4393 24.8897 23.6579C25.671 22.8766 26.7308 22.4376 27.8357 22.4376H52.8336C53.9385 22.4376 54.9983 22.8766 55.7796 23.6579C56.5609 24.4393 56.9999 25.499 56.9999 26.6039V44.3107C56.9999 45.4157 56.5609 46.4754 55.7796 47.2568C54.9983 48.0381 53.9385 48.4771 52.8336 48.4771H40.793L34.5435 54.7265C34.3472 54.924 34.1134 55.0801 33.8558 55.1856C33.5982 55.2912 33.322 55.344 33.0436 55.341V55.341ZM27.8357 24.5208C27.2833 24.5208 26.7534 24.7403 26.3627 25.1309C25.9721 25.5216 25.7526 26.0515 25.7526 26.6039V44.3107C25.7526 44.8632 25.9721 45.3931 26.3627 45.7838C26.7534 46.1744 27.2833 46.3939 27.8357 46.3939H33.0436V53.2579L39.9076 46.3939H52.8336C53.3861 46.3939 53.9159 46.1744 54.3066 45.7838C54.6973 45.3931 54.9167 44.8632 54.9167 44.3107V26.6039C54.9167 26.0515 54.6973 25.5216 54.3066 25.1309C53.9159 24.7403 53.3861 24.5208 52.8336 24.5208H27.8357Z" fill="#404040"/>
<path d="M46.5841 34.9366H44.501V37.0197H46.5841V34.9366Z" fill="#FA4616"/>
<path d="M41.3761 34.9366H39.293V37.0197H41.3761V34.9366Z" fill="#FA4616"/>
<path d="M36.1686 34.9366H34.0854V37.0197H36.1686V34.9366Z" fill="#FA4616"/>
<path d="M12.2121 28.6871C12.0751 28.6879 11.9392 28.6616 11.8123 28.6098C11.6854 28.5579 11.57 28.4816 11.4726 28.385L7.30633 24.2187C7.11019 24.0226 7 23.7566 7 23.4792C7 23.2018 7.11019 22.9358 7.30633 22.7397C7.50246 22.5435 7.76846 22.4334 8.04584 22.4334C8.32321 22.4334 8.58921 22.5435 8.78535 22.7397L12.2121 26.1769L15.6389 22.7397C15.8351 22.5435 16.1011 22.4334 16.3784 22.4334C16.6558 22.4334 16.9218 22.5435 17.118 22.7397C17.3141 22.9358 17.4243 23.2018 17.4243 23.4792C17.4243 23.7566 17.3141 24.0226 17.118 24.2187L12.9517 28.385C12.8543 28.4816 12.7389 28.5579 12.612 28.6098C12.4851 28.6616 12.3492 28.6879 12.2121 28.6871Z" fill="#404040"/>
<path d="M12.2122 28.6871C11.936 28.6871 11.6711 28.5773 11.4757 28.382C11.2804 28.1867 11.1707 27.9218 11.1707 27.6455V23.4792C11.1954 19.9779 12.4791 16.6024 14.7872 13.9695C17.0954 11.3366 20.2738 9.6221 23.7417 9.13932C27.2097 8.65653 30.7356 9.43768 33.6751 11.34C36.6146 13.2424 38.7714 16.139 39.7515 19.5004C39.7976 19.6341 39.8159 19.7757 39.8054 19.9167C39.7949 20.0578 39.7559 20.1952 39.6906 20.3206C39.6252 20.446 39.5351 20.5568 39.4256 20.6463C39.3161 20.7357 39.1895 20.8019 39.0536 20.8409C38.9176 20.8798 38.7752 20.8906 38.6349 20.8728C38.4946 20.8549 38.3595 20.8086 38.2377 20.7368C38.1159 20.665 38.01 20.5691 37.9264 20.455C37.8429 20.3409 37.7834 20.211 37.7517 20.0732C36.9325 17.1667 35.0888 14.6551 32.5613 13.0026C30.0338 11.3501 26.9935 10.6685 24.0024 11.0838C21.0114 11.4991 18.2718 12.9832 16.2902 15.2619C14.3086 17.5405 13.2189 20.4595 13.2226 23.4792V27.6455C13.2227 27.9164 13.1173 28.1767 12.9286 28.3712C12.74 28.5656 12.483 28.679 12.2122 28.6871Z" fill="#404040"/>
<path d="M21.43 37.353C21.3167 37.3562 21.2037 37.3385 21.0967 37.3009C17.9913 36.2467 15.3289 34.182 13.5349 31.4368C13.4476 31.323 13.3847 31.1924 13.3503 31.0531C13.3159 30.9139 13.3105 30.7691 13.3347 30.6277C13.3588 30.4863 13.412 30.3514 13.4907 30.2315C13.5694 30.1116 13.672 30.0092 13.7921 29.9308C13.9122 29.8524 14.0472 29.7997 14.1887 29.7759C14.3301 29.7521 14.475 29.7578 14.6141 29.7926C14.7533 29.8274 14.8837 29.8906 14.9973 29.9781C15.1109 30.0657 15.2052 30.1758 15.2743 30.3015C16.8169 32.6541 19.1006 34.4246 21.7633 35.3324C21.992 35.4152 22.1844 35.5754 22.3073 35.7852C22.4302 35.995 22.4758 36.2412 22.4362 36.4811C22.3967 36.7211 22.2744 36.9396 22.0906 37.0989C21.9069 37.2581 21.6731 37.348 21.43 37.353V37.353Z" fill="#404040"/>
</svg>
