<svg width="64" height="64" viewBox="0 0 64 64" fill="none" xmlns="http://www.w3.org/2000/svg">
<path d="M37.8281 42.0642C37.525 42.0625 37.2258 41.9961 36.9504 41.8695C36.675 41.7428 36.4299 41.5588 36.2314 41.3297L31.9733 35.6772H22.925V33.5482H33.0378L37.8707 39.9991V33.5482H41.0642C41.3466 33.5482 41.6173 33.436 41.817 33.2364C42.0166 33.0368 42.1287 32.766 42.1287 32.4837V11.1935C42.1287 10.9112 42.0166 10.6405 41.817 10.4408C41.6173 10.2412 41.3466 10.129 41.0642 10.129H10.1935C9.9112 10.129 9.64044 10.2412 9.4408 10.4408C9.24117 10.6405 9.12901 10.9112 9.12901 11.1935V32.4837C9.12901 32.766 9.24117 33.0368 9.4408 33.2364C9.64044 33.436 9.9112 33.5482 10.1935 33.5482H12.3225V35.6772H10.1935C9.34655 35.6772 8.53426 35.3408 7.93536 34.7419C7.33646 34.143 7 33.3306 7 32.4837V11.1935C7 10.3465 7.33646 9.53428 7.93536 8.93537C8.53426 8.33647 9.34655 8 10.1935 8H41.0642C41.9112 8 42.7235 8.33647 43.3224 8.93537C43.9213 9.53428 44.2578 10.3465 44.2578 11.1935V32.4837C44.2578 33.3306 43.9213 34.143 43.3224 34.7419C42.7235 35.3408 41.9112 35.6772 41.0642 35.6772H39.9997V39.9352C39.999 40.3684 39.8661 40.7911 39.6188 41.1468C39.3715 41.5025 39.0217 41.7742 38.6159 41.9258C38.3648 42.0229 38.0972 42.0699 37.8281 42.0642Z" fill="#FA4616"/>
<path d="M24.0002 48.4513H21.8711V46.3223C21.7221 45.7794 19.5186 44.1933 17.6131 44.1933C15.7077 44.1933 13.4935 45.7687 13.3551 46.3223V48.4513H11.2261V46.3223C11.2261 44.1933 14.9412 42.0642 17.6131 42.0642C20.285 42.0642 24.0002 44.1933 24.0002 46.3223V48.4513Z" fill="#404040"/>
<path d="M53.8063 50.5803H51.6773V48.4513C51.5283 47.8977 49.3247 46.3223 47.4193 46.3223C45.5138 46.3223 43.2996 47.8977 43.1612 48.4513V50.5803H41.0322V48.4513C41.0322 46.3223 44.7474 44.1933 47.4193 44.1933C50.0912 44.1933 53.8063 46.3223 53.8063 48.4513V50.5803Z" fill="#404040"/>
<path d="M17.613 44.1933C17.02 44.1747 16.4368 44.0366 15.8985 43.7871C15.3601 43.5377 14.8777 43.1822 14.4801 42.7418C14.0825 42.3015 13.7779 41.7854 13.5845 41.2244C13.3912 40.6635 13.3131 40.0693 13.355 39.4775V38.2639C13.355 37.1346 13.8036 36.0516 14.6021 35.2531C15.4007 34.4545 16.4837 34.0059 17.613 34.0059C18.7423 34.0059 19.8253 34.4545 20.6239 35.2531C21.4224 36.0516 21.871 37.1346 21.871 38.2639V39.4775C21.9129 40.0693 21.8348 40.6635 21.6415 41.2244C21.4481 41.7854 21.1435 42.3015 20.7459 42.7418C20.3483 43.1822 19.8659 43.5377 19.3275 43.7871C18.7892 44.0366 18.206 44.1747 17.613 44.1933V44.1933ZM17.613 35.6772C17.2998 35.6979 16.9942 35.7825 16.715 35.9258C16.4357 36.0691 16.1887 36.268 15.9893 36.5103C15.7898 36.7527 15.6421 37.0333 15.5552 37.3349C15.4683 37.6365 15.4441 37.9526 15.484 38.2639V39.4775C15.484 40.0421 15.7083 40.5837 16.1076 40.9829C16.5068 41.3822 17.0484 41.6065 17.613 41.6065C18.1777 41.6065 18.7192 41.3822 19.1184 40.9829C19.5177 40.5837 19.742 40.0421 19.742 39.4775V38.2639C19.7804 37.9529 19.755 37.6373 19.6675 37.3363C19.58 37.0354 19.4321 36.7554 19.2329 36.5134C19.0338 36.2714 18.7875 36.0725 18.509 35.9287C18.2305 35.785 17.9256 35.6994 17.613 35.6772V35.6772Z" fill="#404040"/>
<path d="M47.4194 46.3223C46.8264 46.3037 46.2432 46.1656 45.7049 45.9162C45.1665 45.6667 44.6841 45.3112 44.2865 44.8708C43.8889 44.4305 43.5843 43.9144 43.3909 43.3534C43.1976 42.7925 43.1195 42.1983 43.1614 41.6065V40.3823C43.1614 39.253 43.61 38.17 44.4085 37.3714C45.207 36.5729 46.2901 36.1243 47.4194 36.1243C48.5487 36.1243 49.6317 36.5729 50.4303 37.3714C51.2288 38.17 51.6774 39.253 51.6774 40.3823V41.6065C51.7193 42.1983 51.6412 42.7925 51.4479 43.3534C51.2545 43.9144 50.9499 44.4305 50.5523 44.8708C50.1547 45.3112 49.6722 45.6667 49.1339 45.9162C48.5956 46.1656 48.0124 46.3037 47.4194 46.3223ZM47.4194 37.8062C47.1072 37.827 46.8026 37.9113 46.5242 38.0539C46.2457 38.1966 45.9993 38.3945 45.8 38.6357C45.6007 38.8768 45.4527 39.1561 45.3651 39.4564C45.2774 39.7568 45.252 40.0718 45.2904 40.3823V41.6065C45.2904 42.1712 45.5147 42.7127 45.914 43.1119C46.3132 43.5112 46.8547 43.7355 47.4194 43.7355C47.984 43.7355 48.5256 43.5112 48.9248 43.1119C49.3241 42.7127 49.5484 42.1712 49.5484 41.6065V40.3823C49.5868 40.0718 49.5613 39.7568 49.4737 39.4564C49.3861 39.1561 49.2381 38.8768 49.0388 38.6357C48.8395 38.3945 48.5931 38.1966 48.3146 38.0539C48.0362 37.9113 47.7316 37.827 47.4194 37.8062V37.8062Z" fill="#404040"/>
<path d="M56.9998 36.7417H54.8708V34.6127C54.7218 34.0591 52.5183 32.4837 50.6128 32.4837C49.3768 32.5585 48.1909 32.9994 47.2064 33.7504L45.929 32.0366C47.2861 31.0186 48.9181 30.4325 50.6128 30.3547C53.2741 30.3547 56.9998 32.4837 56.9998 34.6127V36.7417Z" fill="#404040"/>
<path d="M50.613 32.4837C50.02 32.4651 49.4368 32.327 48.8985 32.0776C48.3601 31.8282 47.8777 31.4726 47.4801 31.0323C47.0825 30.5919 46.7779 30.0758 46.5845 29.5149C46.3912 28.9539 46.3131 28.3597 46.355 27.7679V26.5437C46.355 25.4144 46.8036 24.3314 47.6021 23.5329C48.4007 22.7343 49.4837 22.2857 50.613 22.2857C51.7423 22.2857 52.8253 22.7343 53.6239 23.5329C54.4224 24.3314 54.871 25.4144 54.871 26.5437V27.7679C54.9129 28.3597 54.8348 28.9539 54.6415 29.5149C54.4481 30.0758 54.1435 30.5919 53.7459 31.0323C53.3483 31.4726 52.8659 31.8282 52.3275 32.0776C51.7892 32.327 51.206 32.4651 50.613 32.4837ZM50.613 23.9676C50.3008 23.9884 49.9962 24.0727 49.7178 24.2154C49.4393 24.358 49.1929 24.5559 48.9936 24.7971C48.7943 25.0382 48.6463 25.3175 48.5587 25.6178C48.471 25.9182 48.4456 26.2332 48.484 26.5437V27.7679C48.484 28.3326 48.7083 28.8741 49.1076 29.2734C49.5068 29.6726 50.0484 29.8969 50.613 29.8969C51.1777 29.8969 51.7192 29.6726 52.1184 29.2734C52.5177 28.8741 52.742 28.3326 52.742 27.7679V26.5437C52.7804 26.2332 52.7549 25.9182 52.6673 25.6178C52.5797 25.3175 52.4317 25.0382 52.2324 24.7971C52.0331 24.5559 51.7867 24.358 51.5082 24.2154C51.2298 24.0727 50.9252 23.9884 50.613 23.9676V23.9676Z" fill="#404040"/>
<path d="M50.613 32.4837C50.02 32.4651 49.4368 32.327 48.8985 32.0776C48.3601 31.8282 47.8777 31.4726 47.4801 31.0323C47.0825 30.5919 46.7779 30.0758 46.5845 29.5149C46.3912 28.9539 46.3131 28.3597 46.355 27.7679V26.5437C46.355 25.4144 46.8036 24.3314 47.6021 23.5329C48.4007 22.7343 49.4837 22.2857 50.613 22.2857C51.7423 22.2857 52.8253 22.7343 53.6239 23.5329C54.4224 24.3314 54.871 25.4144 54.871 26.5437V27.7679C54.9129 28.3597 54.8348 28.9539 54.6415 29.5149C54.4481 30.0758 54.1435 30.5919 53.7459 31.0323C53.3483 31.4726 52.8659 31.8282 52.3275 32.0776C51.7892 32.327 51.206 32.4651 50.613 32.4837ZM50.613 23.9676C50.3008 23.9884 49.9962 24.0727 49.7178 24.2154C49.4393 24.358 49.1929 24.5559 48.9936 24.7971C48.7943 25.0382 48.6463 25.3175 48.5587 25.6178C48.471 25.9182 48.4456 26.2332 48.484 26.5437V27.7679C48.484 28.3326 48.7083 28.8741 49.1076 29.2734C49.5068 29.6726 50.0484 29.8969 50.613 29.8969C51.1777 29.8969 51.7192 29.6726 52.1184 29.2734C52.5177 28.8741 52.742 28.3326 52.742 27.7679V26.5437C52.7804 26.2332 52.7549 25.9182 52.6673 25.6178C52.5797 25.3175 52.4317 25.0382 52.2324 24.7971C52.0331 24.5559 51.7867 24.358 51.5082 24.2154C51.2298 24.0727 50.9252 23.9884 50.613 23.9676V23.9676Z" fill="#404040"/>
<path d="M37.8388 55.9028H35.7098V53.7738C35.5607 53.2309 33.3572 51.6448 31.4517 51.6448C29.5463 51.6448 27.3321 53.2203 27.1937 53.7738V55.9028H25.0647V53.7738C25.0647 51.6448 28.7798 49.5158 31.4517 49.5158C34.1237 49.5158 37.8388 51.6448 37.8388 53.7738V55.9028Z" fill="#404040"/>
<path d="M31.4519 51.6448C30.8589 51.6262 30.2757 51.4881 29.7373 51.2387C29.199 50.9893 28.7166 50.6337 28.319 50.1934C27.9213 49.753 27.6167 49.2369 27.4234 48.676C27.2301 48.1151 27.152 47.5209 27.1938 46.929V45.7155C27.1938 44.5862 27.6424 43.5031 28.441 42.7046C29.2395 41.9061 30.3226 41.4575 31.4519 41.4575C32.5812 41.4575 33.6642 41.9061 34.4627 42.7046C35.2613 43.5031 35.7099 44.5862 35.7099 45.7155V46.929C35.7518 47.5209 35.6737 48.1151 35.4803 48.676C35.287 49.2369 34.9824 49.753 34.5848 50.1934C34.1872 50.6337 33.7047 50.9893 33.1664 51.2387C32.628 51.4881 32.0449 51.6262 31.4519 51.6448V51.6448ZM31.4519 43.1287C31.1387 43.1494 30.8331 43.234 30.5538 43.3773C30.2746 43.5206 30.0276 43.7195 29.8282 43.9619C29.6287 44.2042 29.481 44.4848 29.3941 44.7864C29.3072 45.088 29.2829 45.4042 29.3229 45.7155V46.929C29.3229 47.4937 29.5472 48.0352 29.9464 48.4345C30.3457 48.8338 30.8872 49.0581 31.4519 49.0581C32.0165 49.0581 32.558 48.8338 32.9573 48.4345C33.3566 48.0352 33.5809 47.4937 33.5809 46.929V45.7155C33.6192 45.4044 33.5939 45.0888 33.5063 44.7879C33.4188 44.4869 33.271 44.207 33.0718 43.965C32.8726 43.723 32.6263 43.524 32.3478 43.3803C32.0693 43.2365 31.7645 43.1509 31.4519 43.1287Z" fill="#404040"/>
</svg>
