<svg width="64" height="64" viewBox="0 0 64 64" fill="none" xmlns="http://www.w3.org/2000/svg">
<path d="M33.0756 53.6214C32.7874 53.6214 32.5111 53.507 32.3073 53.3032C32.1036 53.0995 31.9891 52.8231 31.9891 52.5349V48.8844C31.9891 47.0047 29.1534 46.016 27.6432 46.016C26.133 46.016 23.2972 47.0047 23.2972 48.8844V52.5349C23.2972 52.8231 23.1828 53.0995 22.979 53.3032C22.7753 53.507 22.4989 53.6214 22.2108 53.6214C21.9226 53.6214 21.6463 53.507 21.4425 53.3032C21.2388 53.0995 21.1243 52.8231 21.1243 52.5349V48.8844C21.1243 45.6249 24.9052 43.8431 27.6432 43.8431C30.3811 43.8431 34.1621 45.6032 34.1621 48.8844V52.5349C34.1621 52.8231 34.0476 53.0995 33.8439 53.3032C33.6401 53.507 33.3637 53.6214 33.0756 53.6214Z" fill="#404040"/>
<path d="M27.6433 46.0161C27.0819 46.0504 26.5196 45.9688 25.9912 45.7763C25.4628 45.5838 24.9797 45.2846 24.572 44.8973C24.1643 44.51 23.8407 44.0429 23.6214 43.525C23.4021 43.0072 23.2918 42.4498 23.2973 41.8874V40.3772C23.2973 39.2246 23.7552 38.1192 24.5702 37.3042C25.3852 36.4892 26.4906 36.0313 27.6433 36.0313C28.7959 36.0313 29.9013 36.4892 30.7163 37.3042C31.5313 38.1192 31.9892 39.2246 31.9892 40.3772V41.8874C31.9947 42.4498 31.8844 43.0072 31.6651 43.525C31.4458 44.0429 31.1222 44.51 30.7145 44.8973C30.3068 45.2846 29.8237 45.5838 29.2953 45.7763C28.7669 45.9688 28.2046 46.0504 27.6433 46.0161V46.0161ZM27.6433 38.4107C27.3675 38.3781 27.088 38.4049 26.8235 38.4893C26.559 38.5737 26.3156 38.7137 26.1098 38.9C25.9039 39.0863 25.7403 39.3146 25.63 39.5694C25.5197 39.8242 25.4653 40.0996 25.4703 40.3772V41.8874C25.4703 42.4637 25.6992 43.0164 26.1067 43.4239C26.5142 43.8315 27.0669 44.0604 27.6433 44.0604C28.2196 44.0604 28.7723 43.8315 29.1798 43.4239C29.5873 43.0164 29.8162 42.4637 29.8162 41.8874V40.3772C29.8212 40.0996 29.7668 39.8242 29.6565 39.5694C29.5462 39.3146 29.3826 39.0863 29.1767 38.9C28.9709 38.7137 28.7275 38.5737 28.463 38.4893C28.1985 38.4049 27.919 38.3781 27.6433 38.4107V38.4107Z" fill="#404040"/>
<path d="M49.3727 56.8809C49.0846 56.8809 48.8082 56.7664 48.6045 56.5627C48.4007 56.3589 48.2862 56.0826 48.2862 55.7944V52.1438C48.2862 50.2642 45.4505 49.2755 43.9403 49.2755C42.4301 49.2755 39.5944 50.2642 39.5944 52.1438V55.7944C39.5944 56.0826 39.4799 56.3589 39.2761 56.5627C39.0724 56.7664 38.796 56.8809 38.5079 56.8809C38.2197 56.8809 37.9434 56.7664 37.7396 56.5627C37.5359 56.3589 37.4214 56.0826 37.4214 55.7944V52.1438C37.4214 48.8844 41.2023 47.1025 43.9403 47.1025C46.6782 47.1025 50.4592 48.8626 50.4592 52.1438V55.7944C50.4592 56.0826 50.3447 56.3589 50.141 56.5627C49.9372 56.7664 49.6609 56.8809 49.3727 56.8809Z" fill="#404040"/>
<path d="M43.9404 49.2755C43.3791 49.3098 42.8167 49.2282 42.2883 49.0357C41.7599 48.8433 41.2769 48.544 40.8692 48.1567C40.4614 47.7694 40.1378 47.3023 39.9185 46.7845C39.6992 46.2666 39.5889 45.7092 39.5944 45.1469V43.6366C39.5944 42.484 40.0523 41.3786 40.8673 40.5636C41.6823 39.7486 42.7878 39.2907 43.9404 39.2907C45.093 39.2907 46.1984 39.7486 47.0134 40.5636C47.8284 41.3786 48.2863 42.484 48.2863 43.6366V45.1469C48.2918 45.7092 48.1815 46.2666 47.9622 46.7845C47.7429 47.3023 47.4193 47.7694 47.0116 48.1567C46.6039 48.544 46.1208 48.8433 45.5924 49.0357C45.064 49.2282 44.5017 49.3098 43.9404 49.2755V49.2755ZM43.9404 41.6701C43.6646 41.6375 43.3851 41.6643 43.1206 41.7487C42.8561 41.8331 42.6128 41.9732 42.4069 42.1595C42.201 42.3458 42.0375 42.574 41.9272 42.8288C41.8168 43.0836 41.7624 43.359 41.7674 43.6366V45.1469C41.7674 45.7232 41.9963 46.2759 42.4038 46.6834C42.8114 47.0909 43.3641 47.3198 43.9404 47.3198C44.5167 47.3198 45.0694 47.0909 45.4769 46.6834C45.8844 46.2759 46.1133 45.7232 46.1133 45.1469V43.6366C46.1184 43.359 46.0639 43.0836 45.9536 42.8288C45.8433 42.574 45.6797 42.3458 45.4738 42.1595C45.268 41.9732 45.0246 41.8331 44.7601 41.7487C44.4956 41.6643 44.2161 41.6375 43.9404 41.6701Z" fill="#404040"/>
<path d="M17.8431 44.8101C17.5002 44.8068 17.1629 44.7224 16.8589 44.5637C16.5549 44.4051 16.2927 44.1768 16.0939 43.8974L12.9539 39.5515H10.2595C9.39499 39.5515 8.56595 39.2081 7.95469 38.5968C7.34342 37.9856 7 37.1565 7 36.2921V19.9948C7 19.1303 7.34342 18.3013 7.95469 17.69C8.56595 17.0788 9.39499 16.7354 10.2595 16.7354H36.3351C37.1995 16.7354 38.0286 17.0788 38.6399 17.69C39.2511 18.3013 39.5945 19.1303 39.5945 19.9948V36.2921C39.5945 37.1565 39.2511 37.9856 38.6399 38.5968C38.0286 39.2081 37.1995 39.5515 36.3351 39.5515H33.0756V37.3785H36.3351C36.6232 37.3785 36.8996 37.2641 37.1033 37.0603C37.3071 36.8566 37.4215 36.5802 37.4215 36.2921V19.9948C37.4215 19.7066 37.3071 19.4303 37.1033 19.2265C36.8996 19.0228 36.6232 18.9083 36.3351 18.9083H10.2595C9.9713 18.9083 9.69496 19.0228 9.49121 19.2265C9.28745 19.4303 9.17297 19.7066 9.17297 19.9948V36.2921C9.17297 36.5802 9.28745 36.8566 9.49121 37.0603C9.69496 37.2641 9.9713 37.3785 10.2595 37.3785H14.073L17.8648 42.6806V37.3785H22.2108V39.5515H20.0378V42.6806C20.0378 43.2569 19.8089 43.8096 19.4014 44.2171C18.9938 44.6246 18.4411 44.8535 17.8648 44.8535L17.8431 44.8101Z" fill="#FA4616"/>
<path d="M46.1352 38.2912C45.5589 38.2912 45.0062 38.0622 44.5987 37.6547C44.1911 37.2472 43.9622 36.6945 43.9622 36.1182V32.9891H40.7028V30.8162H46.1352V36.1182L49.9162 30.8162H53.7406C54.0287 30.8162 54.3051 30.7017 54.5088 30.4979C54.7126 30.2942 54.827 30.0178 54.827 29.7297V11.2595C54.827 10.9713 54.7126 10.6949 54.5088 10.4912C54.3051 10.2874 54.0287 10.173 53.7406 10.173H23.319C23.0309 10.173 22.7545 10.2874 22.5508 10.4912C22.347 10.6949 22.2325 10.9713 22.2325 11.2595V15.6054H20.0596V11.2595C20.0596 10.395 20.403 9.56593 21.0143 8.95467C21.6255 8.3434 22.4546 8 23.319 8H53.7406C54.605 8 55.4341 8.3434 56.0454 8.95467C56.6566 9.56593 57 10.395 57 11.2595V29.7297C57 30.5941 56.6566 31.4232 56.0454 32.0344C55.4341 32.6457 54.605 32.9891 53.7406 32.9891H51.0352L47.9062 37.335C47.7099 37.6254 47.4464 37.864 47.138 38.0305C46.8297 38.197 46.4856 38.2864 46.1352 38.2912Z" fill="#404040"/>
</svg>
