<svg width="64" height="64" viewBox="0 0 64 64" fill="none" xmlns="http://www.w3.org/2000/svg">
<path d="M51.6058 56.9662H50.9752C48.5991 56.8311 36.0315 55.491 22.2478 41.7072C8.46397 27.9234 7.12387 15.3559 7 12.9797V12.3491L7.52928 11.9887C10.7421 9.74922 14.3372 8.11581 18.1374 7.16895L18.7793 7L19.2297 7.47295C22.4529 10.8402 25.0601 14.7471 26.9324 19.0157L27.2252 19.714L22.5067 24.4324C23.036 25.9076 24.759 29.7928 29.4887 34.5113C34.2185 39.2297 38.0923 40.964 39.5676 41.4933L44.286 36.7861L44.9843 37.0789C49.2548 38.9429 53.1624 41.5467 56.527 44.7703L57 45.232L56.8311 45.8626C55.8842 49.6628 54.2508 53.2579 52.0113 56.4707L51.6058 56.9662ZM9.29731 13.4865C9.60136 16.4707 11.5495 27.8446 23.8468 40.1194C36.1441 52.3942 47.4955 54.3536 50.4685 54.6577C52.2537 51.9809 53.5959 49.034 54.4437 45.9302C51.584 43.2639 48.3284 41.0568 44.7928 39.3874L40.2095 43.9595L39.5788 43.8018C38.6779 43.5541 33.8806 42.0451 27.8784 36.0428C21.8761 30.0406 20.3671 25.2433 20.1306 24.3424L19.9617 23.7117L24.5225 19.1171C22.8713 15.5779 20.6833 12.315 18.036 9.44367C14.9226 10.3071 11.971 11.6727 9.29731 13.4865V13.4865Z" fill="#404040"/>
</svg>
