<svg width="64" height="64" viewBox="0 0 64 64" fill="none" xmlns="http://www.w3.org/2000/svg">
<path d="M14.2871 44.8845C14.0232 44.8875 13.7613 44.8379 13.5168 44.7387C13.1294 44.5844 12.7972 44.3174 12.5634 43.9721C12.3295 43.6269 12.2047 43.2194 12.2051 42.8024V39.1485H10.123C9.29476 39.1485 8.50042 38.8194 7.91473 38.2337C7.32905 37.648 7 36.8537 7 36.0254V13.123C7 12.2948 7.32905 11.5004 7.91473 10.9147C8.50042 10.329 9.29476 10 10.123 10H33.0254C33.8537 10 34.6481 10.329 35.2337 10.9147C35.8194 11.5004 36.1485 12.2948 36.1485 13.123V36.0254C36.1485 36.8537 35.8194 37.648 35.2337 38.2337C34.6481 38.8194 33.8537 39.1485 33.0254 39.1485H20.6581L15.7862 44.239C15.5927 44.442 15.3601 44.6038 15.1025 44.7147C14.8449 44.8257 14.5676 44.8834 14.2871 44.8845ZM10.123 12.082C9.84695 12.082 9.58218 12.1917 9.38695 12.387C9.19173 12.5822 9.08203 12.847 9.08203 13.123V36.0254C9.08203 36.3015 9.19173 36.5663 9.38695 36.7615C9.58218 36.9567 9.84695 37.0664 10.123 37.0664H13.2461C13.5222 37.0664 13.787 37.1761 13.9822 37.3713C14.1775 37.5666 14.2871 37.8313 14.2871 38.1074V42.8024L19.4922 37.3891C19.5902 37.2864 19.7081 37.2047 19.8388 37.1492C19.9695 37.0937 20.1102 37.0655 20.2521 37.0664H33.0566C33.3327 37.0664 33.5975 36.9567 33.7928 36.7615C33.988 36.5663 34.0976 36.3015 34.0976 36.0254V13.123C34.0976 12.847 33.988 12.5822 33.7928 12.387C33.5975 12.1917 33.3327 12.082 33.0566 12.082H10.123Z" fill="#404040"/>
<path d="M49.6816 53.2126C49.3994 53.2129 49.1201 53.1559 48.8606 53.0449C48.6011 52.934 48.3669 52.7714 48.1722 52.5672L43.3106 47.4766H34.0664C33.2381 47.4766 32.4438 47.1475 31.8581 46.5618C31.2724 45.9762 30.9434 45.1818 30.9434 44.3535V41.2305H33.0254V44.3535C33.0254 44.6296 33.1351 44.8944 33.3303 45.0896C33.5255 45.2849 33.7903 45.3945 34.0664 45.3945H43.7478C43.8898 45.3937 44.0305 45.4218 44.1612 45.4773C44.2919 45.5328 44.4098 45.6145 44.5078 45.7173L49.7129 51.1306V46.4356C49.7129 46.1595 49.8226 45.8947 50.0178 45.6995C50.213 45.5042 50.4778 45.3945 50.7539 45.3945H53.8769C54.153 45.3945 54.4178 45.2849 54.6131 45.0896C54.8083 44.8944 54.918 44.6296 54.918 44.3535V22.4922C54.918 22.2161 54.8083 21.9513 54.6131 21.7561C54.4178 21.5609 54.153 21.4512 53.8769 21.4512H38.2617V19.3691H53.8769C54.7052 19.3691 55.4996 19.6982 56.0853 20.2839C56.671 20.8696 57 21.6639 57 22.4922V44.3535C57 45.1818 56.671 45.9762 56.0853 46.5618C55.4996 47.1475 54.7052 47.4766 53.8769 47.4766H51.7949V51.1306C51.7953 51.5475 51.6705 51.955 51.4366 52.3003C51.2028 52.6455 50.8706 52.9125 50.4832 53.0668C50.2289 53.1702 49.956 53.2199 49.6816 53.2126V53.2126Z" fill="#404040"/>
<path d="M20.2835 31.8613C20.0526 31.8712 19.8249 31.8039 19.6364 31.6701C19.4479 31.5363 19.3093 31.3435 19.2425 31.1222C16.8898 23.2522 18.1495 19.2338 18.9823 16.548C19.1592 15.965 19.3154 15.507 19.4091 15.0177C19.4357 14.881 19.489 14.7509 19.566 14.6348C19.6429 14.5187 19.742 14.4189 19.8575 14.3411C19.973 14.2632 20.1027 14.2089 20.2392 14.1813C20.3758 14.1536 20.5164 14.153 20.6531 14.1797C20.7898 14.2064 20.9199 14.2597 21.036 14.3366C21.1521 14.4136 21.2519 14.5126 21.3297 14.6281C21.4075 14.7436 21.4619 14.8734 21.4896 15.0099C21.5172 15.1464 21.5178 15.287 21.4911 15.4237C21.36 16.0151 21.1966 16.599 21.0018 17.1726C20.2107 19.7335 19.1072 23.2417 21.2725 30.4976C21.3502 30.7613 21.3205 31.045 21.1898 31.2868C21.0591 31.5286 20.8381 31.709 20.575 31.7885C20.4824 31.8283 20.384 31.8529 20.2835 31.8613V31.8613Z" fill="#FA4616"/>
<path d="M15.5469 20.483C15.2708 20.483 15.006 20.3733 14.8108 20.1781C14.6156 19.9829 14.5059 19.7181 14.5059 19.442C14.5059 19.1659 14.6156 18.9011 14.8108 18.7059C15.006 18.5107 15.2708 18.401 15.5469 18.401C18.556 18.5224 21.557 18.0081 24.3539 16.8915C24.4807 16.8319 24.6182 16.7984 24.7582 16.7932C24.8982 16.788 25.0378 16.8111 25.1687 16.8611C25.2996 16.9111 25.419 16.987 25.5198 17.0843C25.6206 17.1816 25.7008 17.2982 25.7555 17.4272C25.8101 17.5562 25.8382 17.6949 25.838 17.835C25.8378 17.9751 25.8093 18.1137 25.7543 18.2426C25.6992 18.3714 25.6187 18.4878 25.5176 18.5848C25.4165 18.6818 25.2969 18.7573 25.1659 18.807C22.1147 20.0416 18.8358 20.6129 15.5469 20.483V20.483Z" fill="#FA4616"/>
<path d="M15.9842 33.9122C15.3785 33.9226 14.7803 33.7779 14.2464 33.4918C13.7125 33.2057 13.2607 32.7878 12.934 32.2777C11.6952 30.3623 12.0283 26.9998 14.7245 24.8969C17.156 23.0295 20.1041 21.9571 23.1672 21.8259C23.2631 21.6376 23.4141 21.483 23.6 21.3826C23.786 21.2822 23.9981 21.2408 24.2082 21.2638C24.4046 21.2875 24.5901 21.3667 24.7432 21.492C24.8962 21.6174 25.0104 21.7838 25.0722 21.9717C26.4843 22.2113 27.8008 22.8425 28.8719 23.7935C29.5139 24.3716 29.9903 25.1104 30.2519 25.9338C30.5136 26.7571 30.5511 27.6354 30.3606 28.478C30.023 29.71 29.3626 30.8295 28.4475 31.7208C27.5324 32.6121 26.3959 33.2428 25.1555 33.5478C24.8946 33.63 24.6117 33.6062 24.3682 33.4815C24.1247 33.3568 23.9401 33.1413 23.8542 32.8816C23.7688 32.6193 23.791 32.3338 23.916 32.0879C24.0409 31.8419 24.2583 31.6556 24.5205 31.5699C25.397 31.3605 26.2041 30.9271 26.8629 30.3121C27.5216 29.6972 28.0094 28.9217 28.2785 28.0616C28.3994 27.5767 28.3868 27.0681 28.242 26.5897C28.0972 26.1114 27.8257 25.6811 27.4561 25.3446C26.7142 24.6974 25.8116 24.2623 24.8432 24.085C24.6026 25.9882 23.91 27.8063 22.8234 29.3873C21.7368 30.9683 20.2877 32.2664 18.5971 33.173C17.7954 33.6191 16.9007 33.8722 15.9842 33.9122V33.9122ZM22.8028 23.9496C20.3378 24.1479 17.9801 25.0433 16.005 26.5314C14.2977 27.8743 13.9229 29.9979 14.6829 31.143C15.4428 32.2882 16.9002 31.7468 17.7122 31.32C19.0804 30.5781 20.2543 29.5241 21.1388 28.2435C22.0233 26.9629 22.5933 25.4918 22.8028 23.9496V23.9496Z" fill="#FA4616"/>
<path d="M48.6406 41.2305C48.3645 41.2305 48.0998 41.1208 47.9045 40.9256C47.7093 40.7303 47.5996 40.4656 47.5996 40.1895V39.2213C47.5081 35.8825 47.1881 32.5539 46.6419 29.2588C46.3296 27.8742 45.6009 27.6973 44.9971 27.6973C44.3933 27.6973 43.6646 27.8742 43.3523 29.2588C42.806 32.5539 42.486 35.8825 42.3945 39.2213V40.1895C42.3945 40.4656 42.2849 40.7303 42.0896 40.9256C41.8944 41.1208 41.6296 41.2305 41.3535 41.2305C41.0774 41.2305 40.8127 41.1208 40.6174 40.9256C40.4222 40.7303 40.3125 40.4656 40.3125 40.1895V39.2213C40.4143 35.7311 40.7622 32.2524 41.3535 28.8112C41.4701 27.919 41.9072 27.0997 42.5834 26.5061C43.2596 25.9126 44.1286 25.5853 45.0283 25.5853C45.928 25.5853 46.7971 25.9126 47.4732 26.5061C48.1494 27.0997 48.5865 27.919 48.7031 28.8112C49.2944 32.2524 49.6423 35.7311 49.7441 39.2213V40.1895C49.7444 40.3316 49.7155 40.4723 49.6593 40.6028C49.6032 40.7334 49.5208 40.851 49.4175 40.9486C49.3141 41.0461 49.1918 41.1214 49.0582 41.1699C48.9246 41.2184 48.7825 41.239 48.6406 41.2305Z" fill="#FA4616"/>
<path d="M48.4011 34.9844H41.6033V37.0664H48.4011V34.9844Z" fill="#FA4616"/>
</svg>
