<svg width="64" height="64" viewBox="0 0 64 64" fill="none" xmlns="http://www.w3.org/2000/svg">
<path d="M28.4456 44.5543C26.3045 43.9421 24.3546 42.7946 22.7799 41.22C21.2053 39.6453 20.0577 37.6954 19.4456 35.5543L21.5434 34.9674C22.0488 36.754 23.0036 38.3814 24.3165 39.6943C25.6294 41.0072 27.2568 41.9619 29.0434 42.4674L28.4456 44.5543ZM35.5543 44.5543L34.9673 42.4674C36.7519 41.9603 38.377 41.0049 39.688 39.6921C40.9989 38.3793 41.9519 36.7527 42.4564 34.9674L44.5543 35.5543C43.9384 37.6935 42.7896 39.6414 41.2155 41.2155C39.6414 42.7896 37.6935 43.9384 35.5543 44.5543V44.5543ZM42.4564 29.0434C41.9519 27.2581 40.9989 25.6316 39.688 24.3188C38.377 23.006 36.7519 22.0506 34.9673 21.5435L35.5543 19.4457C37.6935 20.0616 39.6414 21.2103 41.2155 22.7844C42.7896 24.3585 43.9384 26.3064 44.5543 28.4456L42.4564 29.0434ZM21.5434 29.0434L19.4456 28.4565C20.0615 26.3173 21.2103 24.3694 22.7844 22.7953C24.3585 21.2212 26.3063 20.0724 28.4456 19.4565L29.0325 21.5544C27.2528 22.0641 25.6318 23.0178 24.3218 24.326C23.0118 25.6341 22.0557 27.2536 21.5434 29.0326V29.0434Z" fill="#404040"/>
<path d="M28.7826 54.2717C23.9802 53.5661 19.5331 51.3315 16.1008 47.8992C12.6686 44.4669 10.4339 40.0198 9.72827 35.2173L11.9022 34.9022C12.5304 39.2462 14.5428 43.2718 17.6405 46.3813C20.7383 49.4908 24.7562 51.5184 29.0978 52.163L28.7826 54.2717ZM35.2174 54.2717L34.9022 52.0978C39.2414 51.4598 43.2596 49.4405 46.3609 46.3391C49.4622 43.2378 51.4816 39.2197 52.1196 34.8804L54.2935 35.1957C53.591 40.0051 51.3551 44.4595 47.9182 47.8964C44.4812 51.3333 40.0269 53.5692 35.2174 54.2717V54.2717ZM52.1196 29.0978C51.4816 24.7586 49.4622 20.7404 46.3609 17.6391C43.2596 14.5378 39.2414 12.5184 34.9022 11.8804L35.2174 9.70651C40.0245 10.4139 44.4751 12.6533 47.908 16.092C51.3408 19.5307 53.5726 23.9851 54.2717 28.7935L52.1196 29.0978ZM11.9022 29.0978L9.72827 28.7935C10.4403 23.997 12.6778 19.5572 16.1096 16.1313C19.5413 12.7055 23.9849 10.4756 28.7826 9.77173L29.0978 11.9456C24.768 12.5801 20.7568 14.5899 17.6566 17.6784C14.5563 20.7669 12.5313 24.7704 11.8804 29.0978H11.9022Z" fill="#404040"/>
<path d="M33.0869 57H30.913C30.0481 57 29.2187 56.6565 28.6072 56.0449C27.9957 55.4334 27.6521 54.604 27.6521 53.7391V43.9565C27.6521 43.0917 27.9957 42.2622 28.6072 41.6507C29.2187 41.0392 30.0481 40.6956 30.913 40.6956H33.0869C33.9517 40.6956 34.7811 41.0392 35.3927 41.6507C36.0042 42.2622 36.3478 43.0917 36.3478 43.9565V53.7391C36.3478 54.604 36.0042 55.4334 35.3927 56.0449C34.7811 56.6565 33.9517 57 33.0869 57ZM30.913 42.8696C30.6247 42.8696 30.3482 42.9841 30.1444 43.1879C29.9405 43.3918 29.826 43.6682 29.826 43.9565V53.7391C29.826 54.0274 29.9405 54.3039 30.1444 54.5077C30.3482 54.7115 30.6247 54.8261 30.913 54.8261H33.0869C33.3752 54.8261 33.6516 54.7115 33.8555 54.5077C34.0593 54.3039 34.1738 54.0274 34.1738 53.7391V43.9565C34.1738 43.6682 34.0593 43.3918 33.8555 43.1879C33.6516 42.9841 33.3752 42.8696 33.0869 42.8696H30.913Z" fill="#FA4616"/>
<path d="M53.739 36.3478H43.9564C43.0916 36.3478 42.2622 36.0043 41.6506 35.3928C41.0391 34.7812 40.6956 33.9518 40.6956 33.087V30.913C40.6956 30.0482 41.0391 29.2188 41.6506 28.6072C42.2622 27.9957 43.0916 27.6522 43.9564 27.6522H53.739C54.6039 27.6522 55.4333 27.9957 56.0448 28.6072C56.6564 29.2188 56.9999 30.0482 56.9999 30.913V33.087C56.9999 33.9518 56.6564 34.7812 56.0448 35.3928C55.4333 36.0043 54.6039 36.3478 53.739 36.3478ZM43.9564 29.8261C43.6681 29.8261 43.3917 29.9406 43.1878 30.1445C42.984 30.3483 42.8695 30.6248 42.8695 30.913V33.087C42.8695 33.3752 42.984 33.6517 43.1878 33.8555C43.3917 34.0594 43.6681 34.1739 43.9564 34.1739H53.739C54.0273 34.1739 54.3038 34.0594 54.5076 33.8555C54.7115 33.6517 54.826 33.3752 54.826 33.087V30.913C54.826 30.6248 54.7115 30.3483 54.5076 30.1445C54.3038 29.9406 54.0273 29.8261 53.739 29.8261H43.9564Z" fill="#FA4616"/>
<path d="M20.0435 36.3478H10.2609C9.39603 36.3478 8.56662 36.0043 7.95509 35.3928C7.34356 34.7812 7 33.9518 7 33.087V30.913C7 30.0482 7.34356 29.2188 7.95509 28.6072C8.56662 27.9957 9.39603 27.6522 10.2609 27.6522H20.0435C20.9083 27.6522 21.7377 27.9957 22.3493 28.6072C22.9608 29.2188 23.3043 30.0482 23.3043 30.913V33.087C23.3043 33.9518 22.9608 34.7812 22.3493 35.3928C21.7377 36.0043 20.9083 36.3478 20.0435 36.3478ZM10.2609 29.8261C9.97259 29.8261 9.69612 29.9406 9.49228 30.1445C9.28843 30.3483 9.17391 30.6248 9.17391 30.913V33.087C9.17391 33.3752 9.28843 33.6517 9.49228 33.8555C9.69612 34.0594 9.97259 34.1739 10.2609 34.1739H20.0435C20.3318 34.1739 20.6082 34.0594 20.8121 33.8555C21.0159 33.6517 21.1304 33.3752 21.1304 33.087V30.913C21.1304 30.6248 21.0159 30.3483 20.8121 30.1445C20.6082 29.9406 20.3318 29.8261 20.0435 29.8261H10.2609Z" fill="#FA4616"/>
<path d="M33.0869 23.3043H30.913C30.0481 23.3043 29.2187 22.9608 28.6072 22.3493C27.9957 21.7377 27.6521 20.9083 27.6521 20.0435V10.2609C27.6521 9.39603 27.9957 8.5666 28.6072 7.95507C29.2187 7.34354 30.0481 7 30.913 7H33.0869C33.9517 7 34.7811 7.34354 35.3927 7.95507C36.0042 8.5666 36.3478 9.39603 36.3478 10.2609V20.0435C36.3478 20.9083 36.0042 21.7377 35.3927 22.3493C34.7811 22.9608 33.9517 23.3043 33.0869 23.3043ZM30.913 9.17391C30.6247 9.17391 30.3482 9.28845 30.1444 9.49229C29.9405 9.69613 29.826 9.97259 29.826 10.2609V20.0435C29.826 20.3318 29.9405 20.6082 30.1444 20.8121C30.3482 21.0159 30.6247 21.1304 30.913 21.1304H33.0869C33.3752 21.1304 33.6516 21.0159 33.8555 20.8121C34.0593 20.6082 34.1738 20.3318 34.1738 20.0435V10.2609C34.1738 9.97259 34.0593 9.69613 33.8555 9.49229C33.6516 9.28845 33.3752 9.17391 33.0869 9.17391H30.913Z" fill="#FA4616"/>
<path d="M10.2608 20.0435H8.08691V16.7826C8.08691 14.4764 9.00306 12.2646 10.6338 10.6339C12.2646 9.0031 14.4763 8.08696 16.7826 8.08696H20.0434V10.2609H16.7826C15.0529 10.2609 13.3941 10.9479 12.171 12.171C10.9479 13.3941 10.2608 15.0529 10.2608 16.7826V20.0435Z" fill="#404040"/>
<path d="M55.9131 20.0435H53.7392V16.7826C53.7392 15.0529 53.052 13.3941 51.829 12.171C50.6059 10.9479 48.9471 10.2609 47.2174 10.2609H43.9565V8.08696H47.2174C49.5236 8.08696 51.7354 9.0031 53.3662 10.6339C54.9969 12.2646 55.9131 14.4764 55.9131 16.7826V20.0435Z" fill="#404040"/>
<path d="M20.0434 55.913H16.7826C14.4763 55.913 12.2646 54.9969 10.6338 53.3661C9.00306 51.7354 8.08691 49.5236 8.08691 47.2174V43.9565H10.2608V47.2174C10.2608 48.9471 10.9479 50.6059 12.171 51.8289C13.3941 53.052 15.0529 53.7391 16.7826 53.7391H20.0434V55.913Z" fill="#404040"/>
<path d="M47.2174 55.913H43.9565V53.7391H47.2174C48.9471 53.7391 50.6059 53.052 51.829 51.8289C53.052 50.6059 53.7392 48.9471 53.7392 47.2174V43.9565H55.9131V47.2174C55.9131 49.5236 54.9969 51.7354 53.3662 53.3661C51.7354 54.9969 49.5236 55.913 47.2174 55.913Z" fill="#404040"/>
</svg>
