<svg width="64" height="64" viewBox="0 0 64 64" fill="none" xmlns="http://www.w3.org/2000/svg">
<path d="M17.1146 27.9707L15.6411 29.4442L23.9735 37.7765L25.4469 36.303L17.1146 27.9707Z" fill="#404040"/>
<path d="M23.9735 27.9781L15.6411 36.3104L17.1146 37.7839L25.4469 29.4515L23.9735 27.9781Z" fill="#404040"/>
<path d="M15.3455 53.0296C15.0926 53.0311 14.8417 52.9852 14.6057 52.8941C14.2086 52.7458 13.8661 52.4797 13.6241 52.1316C13.3821 51.7835 13.252 51.3698 13.2513 50.9458V46.4241H11.1675C10.0622 46.4241 9.00221 45.985 8.22065 45.2034C7.43908 44.4218 7 43.3618 7 42.2565V23.5026C7 22.3973 7.43908 21.3373 8.22065 20.5557C9.00221 19.7741 10.0622 19.3351 11.1675 19.3351H27.8377V21.4188H11.1675C10.6149 21.4188 10.0849 21.6384 9.69409 22.0292C9.30331 22.4199 9.08377 22.95 9.08377 23.5026V42.2565C9.08377 42.8092 9.30331 43.3392 9.69409 43.73C10.0849 44.1207 10.6149 44.3403 11.1675 44.3403H14.2932C14.5695 44.3403 14.8345 44.4501 15.0299 44.6455C15.2253 44.8409 15.3351 45.1058 15.3351 45.3822V50.9458L20.805 44.6945C20.9026 44.5834 21.0228 44.4943 21.1575 44.4332C21.2923 44.3721 21.4385 44.3405 21.5864 44.3403H30.9633C31.516 44.3403 32.046 44.1207 32.4368 43.73C32.8276 43.3392 33.0471 42.8092 33.0471 42.2565V39.1309H35.1309V42.2565C35.1309 43.3618 34.6918 44.4218 33.9102 45.2034C33.1287 45.985 32.0686 46.4241 30.9633 46.4241H22.0552L16.9396 52.3211C16.7408 52.5474 16.4954 52.7279 16.2202 52.8502C15.945 52.9725 15.6466 53.0337 15.3455 53.0296Z" fill="#404040"/>
<path d="M48.6649 44.6945C48.3708 44.6927 48.0805 44.6286 47.8129 44.5065C47.5453 44.3844 47.3066 44.207 47.1125 43.986L41.9448 38.089H33.0367C31.9314 38.089 30.8713 37.6499 30.0898 36.8683C29.3082 36.0868 28.8691 35.0267 28.8691 33.9214V15.1675C28.8691 14.0622 29.3082 13.0022 30.0898 12.2206C30.8713 11.4391 31.9314 11 33.0367 11H52.8325C53.9378 11 54.9978 11.4391 55.7794 12.2206C56.5609 13.0022 57 14.0622 57 15.1675V33.9214C57 35.0267 56.5609 36.0868 55.7794 36.8683C54.9978 37.6499 53.9378 38.089 52.8325 38.089H50.7487V42.6108C50.748 43.0347 50.6179 43.4484 50.3759 43.7965C50.1339 44.1447 49.7914 44.4107 49.3943 44.5591C49.1616 44.6488 48.9143 44.6948 48.6649 44.6945V44.6945ZM33.0367 13.0838C32.484 13.0838 31.954 13.3033 31.5632 13.6941C31.1724 14.0849 30.9529 14.6149 30.9529 15.1675V33.9214C30.9529 34.4741 31.1724 35.0041 31.5632 35.3949C31.954 35.7857 32.484 36.0052 33.0367 36.0052H42.4136C42.5616 36.0054 42.7078 36.0371 42.8425 36.0982C42.9772 36.1592 43.0974 36.2483 43.195 36.3595L48.6649 42.6108V37.0471C48.6649 36.7708 48.7747 36.5058 48.9701 36.3104C49.1655 36.115 49.4305 36.0052 49.7068 36.0052H52.8325C53.3851 36.0052 53.9151 35.7857 54.3059 35.3949C54.6967 35.0041 54.9162 34.4741 54.9162 33.9214V15.1675C54.9162 14.6149 54.6967 14.0849 54.3059 13.6941C53.9151 13.3033 53.3851 13.0838 52.8325 13.0838H33.0367Z" fill="#FA4616"/>
<path d="M42.4241 29.7539C42.287 29.7547 42.1511 29.7284 42.0241 29.6766C41.8972 29.6247 41.7817 29.5483 41.6844 29.4518L37.5168 25.2842L38.9963 23.8048L42.2366 27.045L46.7479 19.8248L48.5191 20.9292L43.3097 29.2642C43.2257 29.3971 43.1127 29.5093 42.9792 29.5923C42.8456 29.6753 42.6951 29.7269 42.5387 29.7435L42.4241 29.7539Z" fill="#FA4616"/>
</svg>
