<svg width="64" height="64" viewBox="0 0 64 64" fill="none" xmlns="http://www.w3.org/2000/svg">
<path d="M52.3022 46.8437C52.1535 46.8635 52.0029 46.8635 51.8543 46.8437C48.8867 46.2161 46.1097 44.8954 43.7501 42.9895C41.8048 43.5201 39.7977 43.7898 37.7814 43.7916C27.1772 43.7916 18.5522 36.6562 18.5522 27.8958C18.5522 19.1354 27.1772 12 37.7814 12C48.3855 12 57.0001 19.0833 57.0001 27.8854C56.9719 29.7741 56.5698 31.6385 55.8171 33.371C55.0644 35.1034 53.976 36.6696 52.6147 37.9791C52.788 40.1332 53.2904 42.248 54.1043 44.2499C54.232 44.5741 54.2685 44.9271 54.2097 45.2705C54.151 45.6139 53.9992 45.9346 53.7709 46.1979C53.5892 46.4075 53.3631 46.5741 53.1091 46.6858C52.8551 46.7975 52.5795 46.8514 52.3022 46.8437V46.8437ZM44.2918 40.5937L44.7293 40.9999C46.8138 42.8124 49.3216 44.0699 52.0209 44.6562C51.1688 42.3773 50.67 39.9816 50.5418 37.552V37.0729L50.8959 36.7499C52.132 35.622 53.1258 34.2546 53.817 32.7307C54.5082 31.2069 54.8824 29.5583 54.9168 27.8854C54.9168 20.2708 47.2293 14.0729 37.7814 14.0729C28.3335 14.0729 20.6356 20.3229 20.6356 27.8854C20.6356 35.4479 28.3231 41.6979 37.7814 41.6979C39.7927 41.6977 41.793 41.4029 43.7189 40.8229L44.2918 40.5937Z" fill="#404040"/>
<path d="M38.7605 39.8958L36.8022 39.1979C37.1589 38.1945 37.3421 37.1377 37.3439 36.0729C37.3439 29.8229 31.0001 24.7604 23.2085 24.7604V22.6771C32.1564 22.6771 39.4272 28.6875 39.4272 36.0729C39.4262 37.376 39.2007 38.6692 38.7605 39.8958V39.8958Z" fill="#FA4616"/>
<path d="M11.0833 52.052C10.7978 52.0526 10.5166 51.9829 10.2644 51.849C10.0122 51.7152 9.79678 51.5214 9.63722 51.2846C9.47766 51.0478 9.37883 50.7754 9.34945 50.4914C9.32007 50.2074 9.36104 49.9206 9.46875 49.6562C10.1136 48.0225 10.5138 46.3026 10.6562 44.552C9.52046 43.4519 8.61287 42.1385 7.98547 40.6871C7.35807 39.2357 7.02318 37.6748 7 36.0937C7 30.625 10.9583 25.75 17.0833 23.6875L17.75 25.6666C12.4792 27.4375 9.08333 31.5312 9.08333 36.0833C9.11221 37.4638 9.4249 38.8236 10.0019 40.078C10.579 41.3324 11.408 42.4547 12.4375 43.3749L12.7812 43.6978V44.177C12.6858 46.104 12.3067 48.0064 11.6562 49.8228C13.7518 49.3277 15.6939 48.3263 17.3125 46.9062L17.75 46.4999L18.3229 46.6666C20.6863 47.3793 23.177 47.5668 25.6205 47.2159C28.064 46.8651 30.4013 45.9843 32.4687 44.6354L33.6562 46.3437C31.4121 47.8198 28.8809 48.8039 26.2291 49.2312C23.5772 49.6586 20.865 49.5194 18.2708 48.8228C16.29 50.3934 13.9726 51.4844 11.5 52.0103C11.3632 52.0402 11.2234 52.0542 11.0833 52.052V52.052Z" fill="#FA4616"/>
</svg>
