<svg width="64" height="64" viewBox="0 0 64 64" fill="none" xmlns="http://www.w3.org/2000/svg">
<path d="M31.875 50.1818C30.976 50.1818 30.0972 49.9152 29.3497 49.4158C28.6022 48.9163 28.0196 48.2064 27.6756 47.3758C27.3316 46.5452 27.2415 45.6313 27.4169 44.7496C27.5923 43.8678 28.0252 43.0579 28.6609 42.4223C29.2966 41.7866 30.1065 41.3536 30.9883 41.1782C31.87 41.0029 32.7839 41.0928 33.6145 41.4369C34.4451 41.7809 35.155 42.3636 35.6544 43.111C36.1539 43.8585 36.4205 44.7374 36.4205 45.6364C36.4205 46.8419 35.9416 47.9981 35.0892 48.8505C34.2367 49.7029 33.0806 50.1818 31.875 50.1818ZM31.875 43.3636C31.4255 43.3636 30.9861 43.4969 30.6124 43.7466C30.2386 43.9964 29.9473 44.3513 29.7753 44.7666C29.6033 45.1819 29.5583 45.6389 29.646 46.0798C29.7337 46.5206 29.9501 46.9256 30.268 47.2434C30.5858 47.5613 30.9908 47.7777 31.4317 47.8654C31.8725 47.9531 32.3295 47.9081 32.7448 47.7361C33.1601 47.564 33.515 47.2728 33.7647 46.899C34.0145 46.5253 34.1478 46.0859 34.1478 45.6364C34.1478 45.0336 33.9083 44.4555 33.4821 44.0293C33.0559 43.6031 32.4778 43.3636 31.875 43.3636Z" fill="#FA4616"/>
<path d="M33.0113 39.9546H29.6022C29.3098 39.9534 29.0207 39.8929 28.7524 39.7767C28.4841 39.6605 28.2422 39.4909 28.0413 39.2784C27.8405 39.0659 27.6849 38.8148 27.584 38.5404C27.4832 38.2659 27.4391 37.9738 27.4545 37.6819V35.4091C27.4545 32.5114 30.5454 29.8182 32.8067 27.8409C33.3749 27.3523 33.9431 26.8977 34.284 26.5114C34.5343 26.2576 34.726 25.9522 34.8458 25.6165C34.9655 25.2808 35.0104 24.923 34.9772 24.5682C34.9394 24.1954 34.8174 23.836 34.6206 23.5171C34.4238 23.1983 34.1572 22.9282 33.8408 22.7273C33.4457 22.4742 32.9862 22.3397 32.517 22.3397C32.0477 22.3397 31.5883 22.4742 31.1931 22.7273C30.8848 22.9235 30.6233 23.185 30.4269 23.4933C30.2306 23.8015 30.1042 24.149 30.0567 24.5114C30.0567 25.3977 29.9886 27.5114 27.3408 27.5114H25.0681C24.6171 27.5351 24.1658 27.469 23.7405 27.3168C23.3153 27.1647 22.9244 26.9295 22.5908 26.625C22.314 26.336 22.0996 25.9932 21.9608 25.6179C21.822 25.2426 21.7619 24.8427 21.784 24.4432C21.8512 22.5398 22.4245 20.6887 23.4449 19.0805C24.4653 17.4723 25.8958 16.1651 27.5893 15.2935C29.2827 14.4219 31.1779 14.0173 33.0796 14.1215C34.9814 14.2257 36.821 14.835 38.409 15.8864C39.7764 16.7924 40.9211 17.9958 41.7574 19.4068C42.5938 20.8178 43.1001 22.3997 43.2386 24.0341C43.3825 25.5788 43.1762 27.136 42.6352 28.5899C42.0942 30.0438 41.2322 31.3571 40.1136 32.4319C39.5598 32.9289 38.9794 33.3955 38.3749 33.8296C37.5113 34.4773 35.4886 36 35.4204 36.6137V37.75C35.3796 38.3569 35.1064 38.9246 34.6577 39.3352C34.209 39.7458 33.6194 39.9676 33.0113 39.9546V39.9546ZM29.7272 37.6819H33.0113C33.0652 37.6735 33.1139 37.6451 33.1477 37.6023V36.5455C33.1477 34.875 35.1022 33.3864 37.0113 32C37.5453 31.62 38.0574 31.2103 38.5454 30.7727C39.4187 29.9338 40.091 28.9082 40.5121 27.7728C40.9332 26.6374 41.0922 25.4214 40.9772 24.2159C40.8627 22.9207 40.4579 21.6679 39.793 20.5505C39.1281 19.4331 38.22 18.4798 37.1363 17.7614C35.8854 16.9393 34.4387 16.4641 32.944 16.3843C31.4493 16.3045 29.9602 16.623 28.6289 17.3071C27.2975 17.9913 26.1717 19.0166 25.3664 20.2784C24.5611 21.5401 24.1053 22.9931 24.0454 24.4887C24.036 24.6761 24.0923 24.8609 24.2045 25.0114C24.4586 25.1813 24.7639 25.2576 25.0681 25.2273H27.3408C27.4761 25.252 27.6147 25.252 27.7499 25.2273C27.7499 25.2273 27.7499 25.0455 27.7499 24.4887V24.3636C27.8759 23.1906 28.434 22.1064 29.3154 21.3221C30.1969 20.5379 31.3387 20.1099 32.5184 20.1212C33.6982 20.1326 34.8315 20.5825 35.6977 21.3835C36.5639 22.1846 37.101 23.2793 37.2045 24.4546C37.2714 25.1425 37.1849 25.8368 36.951 26.4872C36.7172 27.1377 36.3419 27.7281 35.8522 28.2159C35.4318 28.625 34.8863 29.1137 34.2727 29.6478C32.4431 31.2387 29.7272 33.6364 29.7272 35.5001V37.6819Z" fill="#FA4616"/>
<path d="M32 57C27.0555 57 22.222 55.5337 18.1108 52.7867C13.9995 50.0397 10.7952 46.1352 8.90302 41.5671C7.01083 36.9989 6.51575 31.9723 7.48038 27.1227C8.44501 22.2732 10.826 17.8187 14.3223 14.3224C17.8187 10.826 22.2732 8.44502 27.1228 7.48039C31.9723 6.51576 36.9989 7.0108 41.5671 8.90299C46.1352 10.7952 50.0397 13.9995 52.7867 18.1108C55.5338 22.222 57 27.0555 57 32C57 38.6304 54.3661 44.9892 49.6777 49.6777C44.9893 54.3661 38.6304 57 32 57ZM32 9.27274C27.505 9.27274 23.1109 10.6057 19.3734 13.103C15.6359 15.6003 12.7229 19.1498 11.0027 23.3026C9.28258 27.4555 8.83251 32.0252 9.70945 36.4339C10.5864 40.8425 12.7509 44.8922 15.9294 48.0706C19.1079 51.2491 23.1575 53.4137 27.5661 54.2906C31.9748 55.1675 36.5445 54.7174 40.6973 52.9973C44.8502 51.2771 48.3997 48.3641 50.897 44.6266C53.3943 40.8891 54.7273 36.495 54.7273 32C54.7273 25.9724 52.3328 20.1916 48.0706 15.9294C43.8084 11.6672 38.0277 9.27274 32 9.27274V9.27274Z" fill="#404040"/>
</svg>
