<svg width="64" height="64" viewBox="0 0 64 64" fill="none" xmlns="http://www.w3.org/2000/svg">
<path d="M15.2398 45.5417H13.1565V13.25C13.1565 11.5924 13.815 10.0026 14.9871 8.83055C16.1592 7.65844 17.7489 7 19.4065 7H50.6565V42.4167H47.5315V40.3333H48.5732V9.08333H19.4065C18.3014 9.08333 17.2416 9.52232 16.4602 10.3037C15.6788 11.0851 15.2398 12.1449 15.2398 13.25V45.5417Z" fill="#404040"/>
<path d="M33.9896 49.7083H17.6875C16.4443 49.7083 15.252 49.2144 14.3729 48.3354C13.4939 47.4563 13 46.264 13 45.0208C13 43.7776 13.4939 42.5853 14.3729 41.7063C15.252 40.8272 16.4443 40.3333 17.6875 40.3333H49.6146V42.4167H17.6875C17.0234 42.4437 16.3961 42.7288 15.939 43.2113C15.4818 43.6937 15.2309 44.3354 15.2396 45C15.2356 45.6673 15.4869 46.3108 15.942 46.7989C16.3971 47.2869 17.0216 47.5825 17.6875 47.625H33.9896V49.7083Z" fill="#404040"/>
<path d="M50.6564 49.7083H46.4897V47.625H48.5731V44.5H50.6564V49.7083Z" fill="#404040"/>
<path d="M45.4482 57L40.2398 53.0937L35.0315 57V44.5H45.4482V57ZM40.2398 50.4896L43.3648 52.8333V46.5833H37.1148V52.8333L40.2398 50.4896Z" fill="#404040"/>
<path d="M26.9273 36.4583L25.4586 34.9896L32.5315 27.9583C32.6964 27.7921 32.9125 27.6862 33.145 27.6579C33.3775 27.6295 33.6127 27.6803 33.8127 27.8021C34.6136 28.1816 35.5131 28.3014 36.3853 28.1445C37.2576 27.9876 38.0589 27.5619 38.6773 26.9271L39.344 26.25C39.9552 25.6026 40.3952 24.813 40.6244 23.9527C40.8536 23.0924 40.8646 22.1886 40.6565 21.3229L37.5315 24.4479C37.3363 24.6419 37.0723 24.7508 36.7971 24.7508C36.5219 24.7508 36.2579 24.6419 36.0627 24.4479L32.7711 21.1667C32.6734 21.0698 32.596 20.9547 32.5431 20.8277C32.4902 20.7008 32.463 20.5646 32.463 20.4271C32.463 20.2896 32.4902 20.1534 32.5431 20.0265C32.596 19.8996 32.6734 19.7843 32.7711 19.6875L35.8961 16.5625C35.0297 16.3522 34.1245 16.361 33.2625 16.5884C32.4004 16.8157 31.6086 17.2544 30.9586 17.8646L30.2919 18.5313C29.658 19.1502 29.2323 19.9508 29.0736 20.8224C28.915 21.694 29.0313 22.5933 29.4065 23.3958C29.5296 23.5948 29.5821 23.8293 29.5557 24.0618C29.5292 24.2942 29.4253 24.5109 29.2607 24.6771L22.2294 31.7083L20.7502 30.2396L27.2607 23.7292C26.8844 22.5823 26.8302 21.3542 27.1039 20.1787C27.3776 19.0031 27.9687 17.9252 28.8127 17.0625L29.4898 16.3959C31.6773 14.198 36.0002 13.3854 38.2815 15.625C38.3799 15.7215 38.4582 15.8365 38.5119 15.9635C38.5655 16.0904 38.5934 16.2268 38.594 16.3646C38.5948 16.5017 38.5685 16.6376 38.5167 16.7645C38.4648 16.8914 38.3885 17.0069 38.2919 17.1042L35.0107 20.3854L36.8232 22.1979L40.1044 18.9167C40.2017 18.8201 40.3172 18.7438 40.4441 18.6919C40.571 18.6401 40.7069 18.6138 40.844 18.6146C40.9818 18.6152 41.1181 18.6431 41.2451 18.6967C41.3721 18.7504 41.4871 18.8287 41.5836 18.9271C43.8232 21.2084 43.0107 25.5313 40.8232 27.7292L40.1461 28.3958C39.2866 29.245 38.2087 29.8394 37.0319 30.1134C35.8552 30.3874 34.6256 30.3301 33.4794 29.9479L26.9273 36.4583Z" fill="#FA4616"/>
</svg>
