<svg width="64" height="64" viewBox="0 0 64 64" fill="none" xmlns="http://www.w3.org/2000/svg">
<path d="M42.4032 35.125C42.1725 35.1277 41.9432 35.0889 41.7261 35.0104C41.3121 34.873 40.9517 34.6091 40.6956 34.2559C40.4396 33.9026 40.3009 33.4779 40.2991 33.0417V28.875H38.2157V26.7917H42.3824V33.0417L47.0699 26.7917H52.7991C53.0753 26.7917 53.3403 26.6819 53.5357 26.4866C53.731 26.2912 53.8407 26.0263 53.8407 25.75V10.125C53.8407 9.84873 53.731 9.5838 53.5357 9.38845C53.3403 9.1931 53.0753 9.08333 52.7991 9.08333H24.6741C24.3978 9.08333 24.1329 9.1931 23.9375 9.38845C23.7422 9.5838 23.6324 9.84873 23.6324 10.125V17.4167H21.5491V10.125C21.5491 9.2962 21.8783 8.50136 22.4644 7.9153C23.0504 7.32925 23.8453 7 24.6741 7H52.7991C53.6279 7 54.4227 7.32925 55.0088 7.9153C55.5948 8.50136 55.9241 9.2962 55.9241 10.125V25.75C55.9241 26.5788 55.5948 27.3737 55.0088 27.9597C54.4227 28.5458 53.6279 28.875 52.7991 28.875H48.1116L44.0491 34.2917C43.8571 34.5476 43.6088 34.7559 43.3234 34.9004C43.038 35.045 42.7231 35.1218 42.4032 35.125Z" fill="#FA4616"/>
<path d="M16.4239 38.2708V36.6042L10.2885 30.5104L8.30931 26.1042C7.82034 24.6856 7.914 23.1309 8.56973 21.7813C8.77495 21.2754 9.08128 20.8168 9.46997 20.4335C9.85865 20.0502 10.3215 19.7502 10.8301 19.5521L11.6218 19.2813L15.1114 25.1042L19.1843 29.1771C19.8408 29.6638 20.6379 29.9234 21.4551 29.9167H23.8301C24.6396 29.9257 25.4298 29.6696 26.0801 29.1875L30.1739 25.1042L33.6635 19.2917L34.4552 19.5521C34.9632 19.7513 35.4255 20.0516 35.814 20.4348C36.2026 20.818 36.5093 21.276 36.7156 21.7813C37.3603 23.118 37.4611 24.6529 36.9968 26.0625L34.9968 30.5313L29.851 35.4583L28.4031 33.9583L33.2572 29.3021L35.0801 25.25C35.311 24.3825 35.2185 23.4606 34.8197 22.6563C34.7165 22.4356 34.5909 22.2261 34.4447 22.0312L31.7364 26.4792L27.5697 30.6459C26.5292 31.5367 25.1998 32.0181 23.8301 32H21.5072C20.1294 32.0184 18.7922 31.5332 17.7468 30.6354L13.4135 26.2813L10.8614 22.0312C10.7078 22.2211 10.5816 22.4314 10.4864 22.6563C10.0763 23.4729 9.99066 24.4145 10.2468 25.2917L12.0489 29.3125L18.4656 35.7292V38.2292L16.4239 38.2708Z" fill="#404040"/>
<path d="M22.6321 28.8854C22.0814 28.8982 21.5339 28.7992 21.0225 28.5944C20.5112 28.3895 20.0468 28.0831 19.6573 27.6936C19.2678 27.3041 18.9613 26.8396 18.7565 26.3283C18.5516 25.817 18.4526 25.2694 18.4655 24.7188V23.6771C18.4655 22.572 18.9044 21.5122 19.6858 20.7308C20.4672 19.9494 21.5271 19.5104 22.6321 19.5104C23.7372 19.5104 24.797 19.9494 25.5784 20.7308C26.3598 21.5122 26.7988 22.572 26.7988 23.6771V24.7188C26.8116 25.2694 26.7126 25.817 26.5078 26.3283C26.3029 26.8396 25.9965 27.3041 25.607 27.6936C25.2175 28.0831 24.753 28.3895 24.2417 28.5944C23.7304 28.7992 23.1828 28.8982 22.6321 28.8854ZM22.6321 21.5938C22.3554 21.582 22.0792 21.6278 21.8211 21.7283C21.563 21.8288 21.3286 21.9819 21.1328 22.1777C20.9369 22.3736 20.7838 22.608 20.6833 22.8661C20.5828 23.1242 20.537 23.4004 20.5488 23.6771V24.7188C20.5488 25.2713 20.7683 25.8012 21.159 26.1919C21.5497 26.5826 22.0796 26.8021 22.6321 26.8021C23.1847 26.8021 23.7146 26.5826 24.1053 26.1919C24.496 25.8012 24.7155 25.2713 24.7155 24.7188V23.6771C24.7304 23.3991 24.6868 23.1211 24.5875 22.861C24.4882 22.6009 24.3354 22.3646 24.1391 22.1672C23.9427 21.9699 23.7071 21.816 23.4475 21.7154C23.188 21.6148 22.9102 21.5698 22.6321 21.5833V21.5938Z" fill="#404040"/>
<path d="M29.9657 57V51.1771L23.8302 45.0938L21.8511 40.6875C21.3621 39.2689 21.4557 37.7142 22.1115 36.3646C22.3167 35.8587 22.623 35.4001 23.0117 35.0168C23.4004 34.6335 23.8632 34.3336 24.3719 34.1354L25.1636 33.8646L28.6531 39.6875L32.7261 43.7604C33.3825 44.2472 34.1797 44.5068 34.9969 44.5H37.3719C38.1814 44.5091 38.9716 44.253 39.6219 43.7708L43.7156 39.6875L47.2052 33.875L47.9969 34.1354C48.5049 34.3346 48.9672 34.635 49.3558 35.0181C49.7443 35.4013 50.051 35.8594 50.2573 36.3646C50.902 37.7014 51.0029 39.2362 50.5386 40.6458L48.5386 45.0938L42.4552 51.1771V57H40.3719V50.3125L46.799 43.8958L48.6219 39.8333C48.8528 38.9658 48.7602 38.0439 48.3615 37.2396C48.2583 37.0189 48.1326 36.8095 47.9865 36.6146L45.2781 41.0625L41.1115 45.2292C40.0709 46.1201 38.7416 46.6014 37.3719 46.5833H35.049C33.6711 46.6017 32.334 46.1165 31.2886 45.2188L26.9552 40.8646L24.4031 36.6146C24.2496 36.8044 24.1233 37.0148 24.0281 37.2396C23.618 38.0562 23.5324 38.9978 23.7885 39.875L25.5906 43.8958L32.0073 50.3125V56.9896L29.9657 57Z" fill="#404040"/>
<path d="M36.1739 43.4688C35.6232 43.4816 35.0756 43.3826 34.5643 43.1777C34.053 42.9729 33.5885 42.6664 33.199 42.2769C32.8095 41.8874 32.5031 41.423 32.2982 40.9116C32.0934 40.4003 31.9944 39.8528 32.0072 39.3021V38.2604C32.0072 37.1554 32.4462 36.0955 33.2276 35.3141C34.009 34.5327 35.0688 34.0938 36.1739 34.0938C37.2789 34.0938 38.3388 34.5327 39.1202 35.3141C39.9016 36.0955 40.3405 37.1554 40.3405 38.2604V39.3021C40.3534 39.8528 40.2544 40.4003 40.0495 40.9116C39.8447 41.423 39.5382 41.8874 39.1487 42.2769C38.7592 42.6664 38.2947 42.9729 37.7834 43.1777C37.2721 43.3826 36.7246 43.4816 36.1739 43.4688ZM36.1739 36.1771C35.8971 36.1653 35.621 36.2111 35.3629 36.3116C35.1048 36.4121 34.8704 36.5652 34.6745 36.7611C34.4787 36.9569 34.3256 37.1913 34.2251 37.4494C34.1245 37.7075 34.0787 37.9837 34.0905 38.2604V39.3021C34.0905 39.8546 34.31 40.3845 34.7007 40.7752C35.0914 41.1659 35.6213 41.3854 36.1739 41.3854C36.7264 41.3854 37.2563 41.1659 37.647 40.7752C38.0377 40.3845 38.2572 39.8546 38.2572 39.3021V38.2604C38.2721 37.9824 38.2285 37.7044 38.1292 37.4443C38.0299 37.1843 37.8772 36.9479 37.6808 36.7506C37.4845 36.5532 37.2489 36.3993 36.9893 36.2987C36.7297 36.1981 36.4519 36.1531 36.1739 36.1667V36.1771Z" fill="#404040"/>
<path d="M16.3821 49.7188C15.8314 49.7316 15.2839 49.6326 14.7725 49.4277C14.2612 49.2229 13.7968 48.9164 13.4073 48.5269C13.0178 48.1374 12.7113 47.673 12.5065 47.1616C12.3016 46.6503 12.2026 46.1028 12.2155 45.5521V44.5104C12.2155 43.4054 12.6544 42.3456 13.4358 41.5642C14.2172 40.7827 15.2771 40.3438 16.3821 40.3438C17.4872 40.3438 18.547 40.7827 19.3284 41.5642C20.1098 42.3456 20.5488 43.4054 20.5488 44.5104V45.5521C20.5616 46.1028 20.4626 46.6503 20.2578 47.1616C20.0529 47.673 19.7465 48.1374 19.357 48.5269C18.9675 48.9164 18.503 49.2229 17.9917 49.4277C17.4804 49.6326 16.9328 49.7316 16.3821 49.7188ZM16.3821 42.4271C16.1054 42.4153 15.8292 42.4611 15.5711 42.5616C15.313 42.6622 15.0786 42.8152 14.8828 43.0111C14.6869 43.2069 14.5338 43.4413 14.4333 43.6994C14.3328 43.9575 14.287 44.2337 14.2988 44.5104V45.5521C14.2988 46.1046 14.5183 46.6345 14.909 47.0252C15.2997 47.4159 15.8296 47.6354 16.3821 47.6354C16.9347 47.6354 17.4646 47.4159 17.8553 47.0252C18.246 46.6345 18.4655 46.1046 18.4655 45.5521V44.5104C18.4804 44.2324 18.4368 43.9544 18.3375 43.6943C18.2382 43.4343 18.0854 43.1979 17.8891 43.0006C17.6927 42.8032 17.4571 42.6493 17.1975 42.5487C16.938 42.4481 16.6602 42.4032 16.3821 42.4167V42.4271Z" fill="#404040"/>
<path d="M23.6742 57H21.5908V55.9583C21.5908 53.1354 17.9554 52.8333 16.3825 52.8333C14.8096 52.8333 11.1742 53.1354 11.1742 55.9583V57H9.09082V55.9583C9.09082 52.6979 11.82 50.75 16.3825 50.75C20.945 50.75 23.6742 52.6979 23.6742 55.9583V57Z" fill="#404040"/>
</svg>
