<svg width="64" height="64" viewBox="0 0 64 64" fill="none" xmlns="http://www.w3.org/2000/svg">
<path d="M19.5104 53.75C19.239 53.7484 18.9704 53.6954 18.7188 53.5937C18.3347 53.4384 18.0057 53.1721 17.7738 52.8288C17.5418 52.4855 17.4175 52.0809 17.4167 51.6667V44.375H12.2083C10.827 44.375 9.50224 43.8262 8.52549 42.8495C7.54874 41.8727 7 40.548 7 39.1667V15.2083C7 13.827 7.54874 12.5022 8.52549 11.5255C9.50224 10.5487 10.827 10 12.2083 10H51.7917C53.173 10 54.4978 10.5487 55.4745 11.5255C56.4513 12.5022 57 13.827 57 15.2083V39.1667C57 40.548 56.4513 41.8727 55.4745 42.8495C54.4978 43.8262 53.173 44.375 51.7917 44.375H30.3333L20.9583 53.1458C20.7713 53.3404 20.5462 53.4944 20.2972 53.5984C20.0481 53.7023 19.7803 53.7539 19.5104 53.75ZM12.2188 12.0833C11.39 12.0833 10.5951 12.4126 10.009 12.9986C9.42299 13.5847 9.09375 14.3795 9.09375 15.2083V39.1667C9.09375 39.9955 9.42299 40.7903 10.009 41.3764C10.5951 41.9624 11.39 42.2917 12.2188 42.2917H18.4688C18.745 42.2917 19.01 42.4014 19.2053 42.5968C19.4007 42.7921 19.5104 43.0571 19.5104 43.3333V51.6667L29.2187 42.5729C29.4108 42.3931 29.6639 42.2926 29.9271 42.2917H51.8021C52.6309 42.2917 53.4257 41.9624 54.0118 41.3764C54.5978 40.7903 54.9271 39.9955 54.9271 39.1667V15.2083C54.9271 14.3795 54.5978 13.5847 54.0118 12.9986C53.4257 12.4126 52.6309 12.0833 51.8021 12.0833H12.2188Z" fill="#404040"/>
<path d="M45.0625 24.5833C44.1354 24.5833 43.2291 24.3084 42.4583 23.7934C41.6874 23.2783 41.0866 22.5462 40.7318 21.6896C40.377 20.8331 40.2842 19.8906 40.4651 18.9813C40.6459 18.072 41.0924 17.2368 41.7479 16.5812C42.4035 15.9257 43.2387 15.4793 44.148 15.2984C45.0573 15.1175 45.9998 15.2103 46.8563 15.5651C47.7129 15.9199 48.4449 16.5207 48.96 17.2916C49.4751 18.0625 49.75 18.9687 49.75 19.8958C49.7472 21.1382 49.2525 22.3289 48.374 23.2074C47.4955 24.0858 46.3049 24.5806 45.0625 24.5833V24.5833ZM45.0625 17.2917C44.5474 17.2917 44.0439 17.4444 43.6157 17.7305C43.1874 18.0167 42.8537 18.4234 42.6566 18.8992C42.4595 19.3751 42.4079 19.8987 42.5084 20.4039C42.6088 20.909 42.8569 21.373 43.2211 21.7372C43.5853 22.1014 44.0493 22.3495 44.5544 22.45C45.0596 22.5504 45.5832 22.4989 46.0591 22.3018C46.5349 22.1047 46.9416 21.7709 47.2278 21.3426C47.5139 20.9144 47.6667 20.4109 47.6667 19.8958C47.6667 19.2052 47.3923 18.5428 46.9039 18.0544C46.4155 17.566 45.7532 17.2917 45.0625 17.2917Z" fill="#FA4616"/>
<path d="M48.9377 38.8021L40.2918 29.1979L36.9064 32.5938L35.4272 31.1146L39.5939 26.9479C39.6949 26.8476 39.8154 26.769 39.948 26.717C40.0806 26.6651 40.2224 26.6408 40.3648 26.6458C40.5048 26.6504 40.6425 26.6833 40.7696 26.7423C40.8966 26.8014 41.0105 26.8855 41.1043 26.9896L50.4793 37.4062L48.9377 38.8021Z" fill="#FA4616"/>
<path d="M15.0312 38.8437L13.552 37.3646L27.0937 23.8229C27.1905 23.7253 27.3057 23.6478 27.4327 23.5949C27.5596 23.542 27.6957 23.5148 27.8333 23.5148C27.9708 23.5148 28.1069 23.542 28.2338 23.5949C28.3608 23.6478 28.476 23.7253 28.5728 23.8229L40.0312 35.2813L38.552 36.7604L27.8333 26.0417L15.0312 38.8437Z" fill="#FA4616"/>
</svg>
