<svg width="64" height="64" viewBox="0 0 64 64" fill="none" xmlns="http://www.w3.org/2000/svg">
<path d="M30.8334 50.75C30.2531 50.7318 29.6825 50.5967 29.1557 50.3526C28.6289 50.1085 28.1568 49.7606 27.7677 49.3297C27.3786 48.8988 27.0806 48.3938 26.8914 47.8449C26.7022 47.296 26.6258 46.7146 26.6667 46.1354V44.9479C26.6667 43.8428 27.1057 42.783 27.8871 42.0016C28.6685 41.2202 29.7283 40.7812 30.8334 40.7812C31.9385 40.7812 32.9983 41.2202 33.7797 42.0016C34.5611 42.783 35.0001 43.8428 35.0001 44.9479V46.1354C35.041 46.7146 34.9646 47.296 34.7754 47.8449C34.5863 48.3938 34.2882 48.8988 33.8991 49.3297C33.51 49.7606 33.0379 50.1085 32.5111 50.3526C31.9843 50.5967 31.4137 50.7318 30.8334 50.75V50.75ZM30.8334 42.4167C30.5275 42.4384 30.2292 42.5221 29.9567 42.6628C29.6842 42.8035 29.4431 42.9982 29.2482 43.235C29.0533 43.4717 28.9086 43.7457 28.823 44.0402C28.7374 44.3347 28.7126 44.6435 28.7501 44.9479V46.1354C28.7501 46.688 28.9696 47.2179 29.3603 47.6086C29.751 47.9993 30.2809 48.2188 30.8334 48.2188C31.3859 48.2188 31.9158 47.9993 32.3065 47.6086C32.6972 47.2179 32.9167 46.688 32.9167 46.1354V44.9479C32.9543 44.6435 32.9294 44.3347 32.8438 44.0402C32.7582 43.7457 32.6135 43.4717 32.4186 43.235C32.2237 42.9982 31.9827 42.8035 31.7101 42.6628C31.4376 42.5221 31.1393 42.4384 30.8334 42.4167V42.4167Z" fill="#404040"/>
<path d="M19.3752 52.8333C18.7949 52.8151 18.2242 52.68 17.6974 52.4359C17.1706 52.1919 16.6985 51.844 16.3095 51.4131C15.9204 50.9821 15.6223 50.4771 15.4331 49.9282C15.2439 49.3793 15.1675 48.7979 15.2085 48.2188V47.0312C15.2085 45.9262 15.6475 44.8664 16.4289 44.085C17.2103 43.3036 18.2701 42.8646 19.3752 42.8646C20.4802 42.8646 21.54 43.3036 22.3214 44.085C23.1028 44.8664 23.5418 45.9262 23.5418 47.0312V48.2188C23.5828 48.7979 23.5064 49.3793 23.3172 49.9282C23.128 50.4771 22.8299 50.9821 22.4408 51.4131C22.0518 51.844 21.5797 52.1919 21.0529 52.4359C20.5261 52.68 19.9555 52.8151 19.3752 52.8333V52.8333ZM19.3752 44.5C19.0692 44.5217 18.7709 44.6055 18.4984 44.7461C18.2259 44.8868 17.9849 45.0815 17.79 45.3183C17.5951 45.5551 17.4504 45.8291 17.3648 46.1235C17.2791 46.418 17.2543 46.7269 17.2918 47.0312V48.2188C17.2918 48.7713 17.5113 49.3012 17.902 49.6919C18.2927 50.0826 18.8226 50.3021 19.3752 50.3021C19.9277 50.3021 20.4576 50.0826 20.8483 49.6919C21.239 49.3012 21.4585 48.7713 21.4585 48.2188V47.0312C21.496 46.7269 21.4712 46.418 21.3856 46.1235C21.2999 45.8291 21.1552 45.5551 20.9603 45.3183C20.7654 45.0815 20.5244 44.8868 20.2519 44.7461C19.9794 44.6055 19.6811 44.5217 19.3752 44.5V44.5Z" fill="#404040"/>
<path d="M38.1251 57H36.0417V52.8333C36.0417 51.3021 32.9167 50.75 30.8334 50.75C28.7501 50.75 25.6251 51.3021 25.6251 52.8333V57H23.5417V52.8333C23.5417 49.7604 27.3126 48.6667 30.8334 48.6667C34.3542 48.6667 38.1251 49.7604 38.1251 52.8333V57Z" fill="#404040"/>
<path d="M14.1666 57H12.0833V54.9167C12.0833 51.8437 15.8541 50.75 19.3749 50.75C20.2812 50.75 23.3541 50.8542 25.1978 52.1771L23.9687 53.8646C22.5565 53.1171 20.9714 52.7577 19.3749 52.8229C17.2916 52.8229 14.1666 53.375 14.1666 54.9062V57Z" fill="#404040"/>
<path d="M42.2917 52.8333C41.7114 52.8151 41.1407 52.68 40.6139 52.4359C40.0871 52.1919 39.6151 51.844 39.226 51.4131C38.8369 50.9821 38.5388 50.4771 38.3496 49.9282C38.1605 49.3793 38.084 48.7979 38.125 48.2188V47.0312C38.125 45.9262 38.564 44.8664 39.3454 44.085C40.1268 43.3036 41.1866 42.8646 42.2917 42.8646C43.3967 42.8646 44.4565 43.3036 45.2379 44.085C46.0193 44.8664 46.4583 45.9262 46.4583 47.0312V48.2188C46.4993 48.7979 46.4229 49.3793 46.2337 49.9282C46.0445 50.4771 45.7464 50.9821 45.3573 51.4131C44.9683 51.844 44.4962 52.1919 43.9694 52.4359C43.4426 52.68 42.872 52.8151 42.2917 52.8333V52.8333ZM42.2917 44.5C41.9858 44.5217 41.6874 44.6055 41.4149 44.7461C41.1424 44.8868 40.9014 45.0815 40.7065 45.3183C40.5116 45.5551 40.3669 45.8291 40.2813 46.1235C40.1956 46.418 40.1708 46.7269 40.2083 47.0312V48.2188C40.2083 48.7713 40.4278 49.3012 40.8185 49.6919C41.2092 50.0826 41.7391 50.3021 42.2917 50.3021C42.8442 50.3021 43.3741 50.0826 43.7648 49.6919C44.1555 49.3012 44.375 48.7713 44.375 48.2188V47.0312C44.4125 46.7269 44.3877 46.418 44.3021 46.1235C44.2164 45.8291 44.0717 45.5551 43.8768 45.3183C43.682 45.0815 43.4409 44.8868 43.1684 44.7461C42.8959 44.6055 42.5976 44.5217 42.2917 44.5V44.5Z" fill="#404040"/>
<path d="M49.5836 57H47.5003V54.9167C47.5003 53.3854 44.3753 52.8333 42.2919 52.8333C40.6955 52.7681 39.1103 53.1275 37.6982 53.875L36.469 52.1875C38.3127 50.8646 41.3961 50.7604 42.2919 50.7604C45.8128 50.7604 49.5836 51.8542 49.5836 54.9271V57Z" fill="#404040"/>
<path d="M19.3958 36.1667C19.165 36.1702 18.9355 36.1314 18.7188 36.0521C18.3047 35.9147 17.9442 35.6507 17.6882 35.2975C17.4322 34.9443 17.2935 34.5196 17.2917 34.0833V29.9167H14.1667C13.0616 29.9167 12.0018 29.4777 11.2204 28.6963C10.439 27.9149 10 26.8551 10 25.75V11.1667C10 10.0616 10.439 9.00179 11.2204 8.22039C12.0018 7.43898 13.0616 7 14.1667 7H38.125C39.2301 7 40.2899 7.43898 41.0713 8.22039C41.8527 9.00179 42.2917 10.0616 42.2917 11.1667V25.75C42.2917 26.8551 41.8527 27.9149 41.0713 28.6963C40.2899 29.4777 39.2301 29.9167 38.125 29.9167H25.1458L21.0833 35.3333C20.8872 35.5949 20.6322 35.8067 20.339 35.9514C20.0459 36.0962 19.7228 36.1699 19.3958 36.1667V36.1667ZM14.1875 9.08333C13.635 9.08333 13.1051 9.30283 12.7144 9.69353C12.3237 10.0842 12.1042 10.6141 12.1042 11.1667V25.75C12.1042 26.3025 12.3237 26.8324 12.7144 27.2231C13.1051 27.6138 13.635 27.8333 14.1875 27.8333H19.3958V34.0833L24.0833 27.8333H38.1458C38.6984 27.8333 39.2283 27.6138 39.619 27.2231C40.0097 26.8324 40.2292 26.3025 40.2292 25.75V11.1667C40.2292 10.6141 40.0097 10.0842 39.619 9.69353C39.2283 9.30283 38.6984 9.08333 38.1458 9.08333H14.1875Z" fill="#404040"/>
<path d="M45.4062 41.6875C45.107 41.686 44.8117 41.6201 44.5403 41.4943C44.2688 41.3685 44.0277 41.1857 43.8332 40.9583L39.7291 36.1667H31.8749C30.7698 36.1667 29.71 35.7277 28.9286 34.9463C28.1472 34.1649 27.7083 33.1051 27.7083 32V30.9583H29.7916V32C29.7916 32.5525 30.0111 33.0824 30.4018 33.4731C30.7925 33.8638 31.3224 34.0833 31.8749 34.0833H40.6874L45.4166 39.5938V34.0833H49.5833C50.1358 34.0833 50.6657 33.8638 51.0564 33.4731C51.4471 33.0824 51.6666 32.5525 51.6666 32V17.4167C51.6666 16.8641 51.4471 16.3342 51.0564 15.9435C50.6657 15.5528 50.1358 15.3333 49.5833 15.3333H43.3333V13.25H49.5833C50.6883 13.25 51.7481 13.689 52.5295 14.4704C53.3109 15.2518 53.7499 16.3116 53.7499 17.4167V32C53.7499 33.1051 53.3109 34.1649 52.5295 34.9463C51.7481 35.7277 50.6883 36.1667 49.5833 36.1667H47.4999V39.5938C47.5005 40.0207 47.3699 40.4375 47.1259 40.7877C46.8818 41.138 46.536 41.4048 46.1353 41.5521C45.903 41.643 45.6556 41.6889 45.4062 41.6875V41.6875Z" fill="#FA4616"/>
</svg>
