<svg width="64" height="64" viewBox="0 0 64 64" fill="none" xmlns="http://www.w3.org/2000/svg">
<path d="M26.3274 39.9984C23.0203 39.3218 19.9966 37.657 17.6563 35.2244C15.316 32.7918 13.7695 29.706 13.2213 26.3752C12.6731 23.0444 13.1491 19.6257 14.5863 16.5714C16.0236 13.517 18.3543 10.9711 21.2701 9.27035C24.1859 7.56959 27.5494 6.79415 30.9155 7.04674C34.2816 7.29932 37.4917 8.56799 40.1211 10.6848C42.7504 12.8017 44.6751 15.667 45.6404 18.9016C46.6058 22.1362 46.5663 25.5877 45.5272 28.7994L43.5478 28.1535C44.0181 26.7202 44.2675 25.2238 44.2875 23.7155C44.2869 20.956 43.5035 18.2533 42.0282 15.9212C40.5529 13.5892 38.4463 11.7235 35.953 10.5409C33.4597 9.3583 30.6821 8.90734 27.9427 9.24034C25.2034 9.57334 22.6147 10.6767 20.4774 12.4222C18.34 14.1677 16.7417 16.4837 15.8681 19.1013C14.9945 21.7189 14.8815 24.5306 15.542 27.2099C16.2026 29.8892 17.6098 32.326 19.6 34.2375C21.5903 36.149 24.082 37.4566 26.7858 38.0085L26.3274 39.9984Z" fill="#404040"/>
<path d="M32.7862 28.8723H28.6192V22.6217H26.5356V20.5381H30.7027V26.7888H32.7862V28.8723Z" fill="#FA4616"/>
<path d="M29.6609 26.7887H26.5356V28.8723H29.6609V26.7887Z" fill="#FA4616"/>
<path d="M30.7027 17.4128H28.6191V19.4964H30.7027V17.4128Z" fill="#FA4616"/>
<path d="M50.538 54.9685H34.9115V51.2911C33.3119 49.8297 32.0774 48.0136 31.307 45.9885C31.1507 45.6343 31.0049 45.3114 30.859 45.0197L28.6609 40.5817V40.3838C28.7109 39.8756 28.9081 39.3931 29.2282 38.9953C29.5483 38.5975 29.9775 38.3016 30.4631 38.144C30.9802 37.8963 31.5591 37.8076 32.1266 37.8892C32.6941 37.9708 33.2246 38.219 33.6509 38.6024L34.9115 39.8733V28.9244C34.9115 28.0955 35.2408 27.3005 35.8269 26.7144C36.413 26.1283 37.2079 25.7991 38.0368 25.7991C38.8657 25.7991 39.6606 26.1283 40.2467 26.7144C40.8328 27.3005 41.1621 28.0955 41.1621 28.9244V36.4147L47.569 37.7377C48.695 37.9108 49.7208 38.4845 50.4577 39.3535C51.1945 40.2224 51.593 41.3281 51.5798 42.4673V47.6762C51.5376 48.4144 51.312 49.1305 50.9235 49.7597C50.7236 50.0762 50.5922 50.4311 50.538 50.8015V54.9685ZM36.995 52.885H48.4545V50.8015C48.4952 50.1 48.71 49.4197 49.0795 48.8221C49.3051 48.4774 49.4477 48.0852 49.4962 47.6762V42.4673C49.4953 41.8136 49.2589 41.1822 48.8304 40.6886C48.4018 40.1949 47.8098 39.8722 47.1627 39.7796L39.0786 38.1128V28.9244C39.0786 28.6481 38.9688 28.3831 38.7734 28.1877C38.5781 27.9924 38.3131 27.8826 38.0368 27.8826C37.7605 27.8826 37.4955 27.9924 37.3002 28.1877C37.1048 28.3831 36.995 28.6481 36.995 28.9244V42.4673H34.5052L34.1927 42.1444C34.1927 42.1444 33.2447 41.1026 32.1821 40.0609C32.0955 39.9955 31.9944 39.9519 31.8874 39.9338C31.7805 39.9157 31.6707 39.9236 31.5674 39.9567C31.2979 40.0099 31.0467 40.1319 30.8382 40.3109L32.7238 44.0613C32.88 44.3842 33.0363 44.7384 33.203 45.103C33.8955 46.9825 35.0617 48.6511 36.5887 49.9472L36.995 50.2597V52.885Z" fill="#404040"/>
<path d="M51.5379 57H49.4544V54.9165H34.8697V57H32.7861V52.8329H51.5379V57Z" fill="#404040"/>
<path d="M29.7026 36.2167C27.2301 36.2167 24.8131 35.4836 22.7573 34.1099C20.7015 32.7363 19.0992 30.7838 18.153 28.4995C17.2068 26.2152 16.9593 23.7017 17.4416 21.2767C17.924 18.8517 19.1146 16.6241 20.8629 14.8758C22.6113 13.1275 24.8388 11.9369 27.2638 11.4545C29.6888 10.9722 32.2023 11.2197 34.4866 12.1659C36.7709 13.1121 38.7233 14.7144 40.097 16.7702C41.4706 18.826 42.2038 21.243 42.2038 23.7155H40.1203C40.1203 21.6551 39.5093 19.6409 38.3646 17.9277C37.2199 16.2146 35.5929 14.8794 33.6893 14.0909C31.7857 13.3024 29.6911 13.096 27.6702 13.498C25.6494 13.9 23.7932 14.8922 22.3362 16.3491C20.8793 17.8061 19.8871 19.6623 19.4851 21.6831C19.0832 23.7039 19.2895 25.7986 20.0779 27.7022C20.8664 29.6058 22.2017 31.2328 23.9149 32.3775C25.628 33.5222 27.6422 34.1332 29.7026 34.1332C30.6635 34.1315 31.62 34.0019 32.5466 33.7477L33.1092 35.7479C32.0007 36.0603 30.8543 36.2181 29.7026 36.2167V36.2167Z" fill="#404040"/>
</svg>
