<svg width="64" height="64" viewBox="0 0 64 64" fill="none" xmlns="http://www.w3.org/2000/svg">
<path d="M15.3332 47.5833C14.6278 47.5714 13.932 47.4188 13.2864 47.1345C12.6408 46.8502 12.0584 46.4399 11.5734 45.9277C11.0883 45.4155 10.7104 44.8116 10.4616 44.1515C10.2129 43.4914 10.0984 42.7883 10.1248 42.0833V40.5938C10.1248 39.2124 10.6736 37.8877 11.6503 36.9109C12.6271 35.9342 13.9518 35.3854 15.3332 35.3854C16.7145 35.3854 18.0392 35.9342 19.016 36.9109C19.9927 37.8877 20.5415 39.2124 20.5415 40.5938V42.0833C20.5679 42.7883 20.4534 43.4914 20.2047 44.1515C19.9559 44.8116 19.578 45.4155 19.0929 45.9277C18.6079 46.4399 18.0255 46.8502 17.3799 47.1345C16.7343 47.4188 16.0385 47.5714 15.3332 47.5833V47.5833ZM15.3332 37.1667C14.9021 37.184 14.4788 37.2867 14.0877 37.4688C13.6967 37.6509 13.3456 37.9089 13.055 38.2276C12.7643 38.5464 12.5398 38.9197 12.3944 39.3258C12.2491 39.732 12.1858 40.163 12.2082 40.5938V42.0833C12.2082 42.9121 12.5374 43.707 13.1235 44.2931C13.7095 44.8791 14.5043 45.2083 15.3332 45.2083C16.162 45.2083 16.9568 44.8791 17.5429 44.2931C18.1289 43.707 18.4582 42.9121 18.4582 42.0833V40.5938C18.482 40.1626 18.4197 39.7311 18.2748 39.3243C18.13 38.9176 17.9055 38.5437 17.6146 38.2246C17.3237 37.9056 16.9721 37.6477 16.5804 37.4661C16.1886 37.2844 15.7646 37.1826 15.3332 37.1667V37.1667Z" fill="#404040"/>
<path d="M24.7083 55.9167H22.625V50.7083C22.625 48.9271 18.5208 47.5833 15.8542 47.5833C13.1875 47.5833 9.08333 48.9271 9.08333 50.7083V55.9167H7V50.7083C7 47.0313 12.7708 45.5 15.8542 45.5C18.9375 45.5 24.7083 47.0313 24.7083 50.7083V55.9167Z" fill="#404040"/>
<path d="M32.5209 50.7083C31.8797 50.6896 31.2487 50.5435 30.6645 50.2785C30.0804 50.0134 29.5549 49.6348 29.1186 49.1645C28.6823 48.6943 28.3439 48.1419 28.1233 47.5396C27.9027 46.9373 27.8041 46.2971 27.8334 45.6563V44.3125C27.7906 43.6707 27.8801 43.0269 28.0962 42.421C28.3124 41.8151 28.6508 41.2601 29.0902 40.7904C29.5297 40.3206 30.0609 39.9461 30.6511 39.6901C31.2412 39.434 31.8776 39.3019 32.5209 39.3019C33.1642 39.3019 33.8006 39.434 34.3908 39.6901C34.9809 39.9461 35.5121 40.3206 35.9516 40.7904C36.3911 41.2601 36.7294 41.8151 36.9456 42.421C37.1618 43.0269 37.2512 43.6707 37.2084 44.3125V45.6563C37.2391 46.2974 37.1416 46.9382 36.9215 47.5411C36.7014 48.1441 36.3631 48.697 35.9265 49.1675C35.4899 49.6381 34.9638 50.0167 34.3791 50.2813C33.7943 50.5459 33.1625 50.691 32.5209 50.7083ZM32.5209 41.3333C32.1535 41.3558 31.7943 41.4509 31.464 41.6133C31.1336 41.7756 30.8388 42.0019 30.5966 42.279C30.3543 42.5561 30.1695 42.8785 30.0528 43.2276C29.9361 43.5767 29.8899 43.9454 29.9167 44.3125V45.6563C29.8699 46.0259 29.9023 46.4013 30.0117 46.7574C30.1212 47.1136 30.3052 47.4423 30.5515 47.7219C30.7979 48.0014 31.1009 48.2253 31.4404 48.3786C31.78 48.532 32.1483 48.6113 32.5209 48.6113C32.8935 48.6113 33.2618 48.532 33.6014 48.3786C33.941 48.2253 34.244 48.0014 34.4903 47.7219C34.7367 47.4423 34.9206 47.1136 35.0301 46.7574C35.1395 46.4013 35.1719 46.0259 35.1251 45.6563V44.3125C35.152 43.9454 35.1057 43.5767 34.989 43.2276C34.8723 42.8785 34.6875 42.5561 34.4453 42.279C34.203 42.0019 33.9082 41.7756 33.5779 41.6133C33.2475 41.4509 32.8883 41.3558 32.5209 41.3333V41.3333Z" fill="#404040"/>
<path d="M41.375 55.9167H39.2917V53.8333C39.2917 51.8958 35.2187 50.7083 33.0417 50.7083C31.0642 50.7241 29.1371 51.3338 27.5104 52.4584L26.1562 50.875C28.162 49.4281 30.5685 48.6417 33.0417 48.625C35.9687 48.625 41.375 50.1562 41.375 53.8333V55.9167Z" fill="#404040"/>
<path d="M24.7291 40.3854C24.492 40.3829 24.2566 40.3443 24.0312 40.2708C23.621 40.1299 23.2651 39.8644 23.013 39.5115C22.7609 39.1586 22.6252 38.7358 22.6249 38.3021V33H12.2083C11.3795 33 10.5846 32.6708 9.99856 32.0847C9.41251 31.4987 9.08325 30.7038 9.08325 29.875V11.125C9.08325 10.2962 9.41251 9.50136 9.99856 8.9153C10.5846 8.32925 11.3795 8 12.2083 8H35.1249C35.9537 8 36.7486 8.32925 37.3346 8.9153C37.9207 9.50136 38.2499 10.2962 38.2499 11.125V29.875C38.2499 30.7038 37.9207 31.4987 37.3346 32.0847C36.7486 32.6708 35.9537 33 35.1249 33H31.4687L26.3541 39.5833C26.1611 39.8308 25.9148 40.0314 25.6334 40.1703C25.352 40.3092 25.0429 40.3828 24.7291 40.3854ZM12.2291 10.0833C11.9528 10.0833 11.6879 10.1931 11.4925 10.3884C11.2972 10.5838 11.1874 10.8487 11.1874 11.125V29.875C11.1874 30.1513 11.2972 30.4162 11.4925 30.6116C11.6879 30.8069 11.9528 30.9167 12.2291 30.9167H24.7291V38.3021L30.4687 30.9167H35.1457C35.422 30.9167 35.687 30.8069 35.8823 30.6116C36.0777 30.4162 36.1874 30.1513 36.1874 29.875V11.125C36.1874 10.8487 36.0777 10.5838 35.8823 10.3884C35.687 10.1931 35.422 10.0833 35.1457 10.0833H12.2291Z" fill="#404040"/>
<path d="M42.4374 44.5521C42.2003 44.5496 41.965 44.5109 41.7395 44.4375C41.3293 44.2966 40.9734 44.0311 40.7213 43.6782C40.4692 43.3253 40.3336 42.9025 40.3333 42.4688V37.1667H37.2083V35.0833H42.4166V42.4688L48.1562 35.0833H53.8749C54.1512 35.0833 54.4162 34.9736 54.6115 34.7782C54.8069 34.5829 54.9166 34.3179 54.9166 34.0417V15.2917C54.9166 15.0154 54.8069 14.7505 54.6115 14.5551C54.4162 14.3598 54.1512 14.25 53.8749 14.25H40.3333V12.1667H53.8749C54.7037 12.1667 55.4986 12.4959 56.0846 13.082C56.6707 13.668 56.9999 14.4629 56.9999 15.2917V34.0417C56.9999 34.8705 56.6707 35.6653 56.0846 36.2514C55.4986 36.8374 54.7037 37.1667 53.8749 37.1667H49.177L44.0624 43.75C43.8695 43.9974 43.6231 44.1981 43.3417 44.337C43.0603 44.4759 42.7512 44.5494 42.4374 44.5521Z" fill="#404040"/>
<path d="M46.5833 30.9167H41.375V18.4167H46.5833C47.4121 18.4167 48.207 18.7459 48.7931 19.332C49.3791 19.918 49.7083 20.7129 49.7083 21.5417V22.5833C49.1959 23.1563 48.9126 23.898 48.9126 24.6667C48.9126 25.4354 49.1959 26.1771 49.7083 26.75V27.7917C49.7083 28.6205 49.3791 29.4153 48.7931 30.0014C48.207 30.5874 47.4121 30.9167 46.5833 30.9167V30.9167ZM43.4583 28.8333H46.5833C46.8596 28.8333 47.1246 28.7236 47.3199 28.5283C47.5153 28.3329 47.625 28.0679 47.625 27.7917V26.75C47.625 26.4737 47.5153 26.2088 47.3199 26.0135C47.1246 25.8181 46.8596 25.7083 46.5833 25.7083H43.4583V28.8333ZM43.4583 23.625H46.5833C46.8596 23.625 47.1246 23.5153 47.3199 23.3199C47.5153 23.1246 47.625 22.8596 47.625 22.5833V21.5417C47.625 21.2654 47.5153 21.0005 47.3199 20.8051C47.1246 20.6098 46.8596 20.5 46.5833 20.5H43.4583V23.625Z" fill="#FA4616"/>
<path d="M27.8333 26.75H25.75V17.375C25.75 17.0987 25.6403 16.8338 25.4449 16.6384C25.2496 16.4431 24.9846 16.3333 24.7083 16.3333H22.625C22.3487 16.3333 22.0838 16.4431 21.8884 16.6384C21.6931 16.8338 21.5833 17.0987 21.5833 17.375V26.75H19.5V17.375C19.5 16.5462 19.8293 15.7514 20.4153 15.1653C21.0014 14.5793 21.7962 14.25 22.625 14.25H24.7083C25.5371 14.25 26.332 14.5793 26.9181 15.1653C27.5041 15.7514 27.8333 16.5462 27.8333 17.375V26.75Z" fill="#FA4616"/>
<path d="M26.7915 20.5H20.5415V22.5833H26.7915V20.5Z" fill="#FA4616"/>
</svg>
