<svg width="64" height="64" viewBox="0 0 64 64" fill="none" xmlns="http://www.w3.org/2000/svg">
<path d="M32.4359 48.4857H9.02173V50.6143H32.4359V48.4857Z" fill="#404040"/>
<path d="M29.2856 57H12.2571C11.1281 57 10.0452 56.5514 9.24688 55.7531C8.44851 54.9547 8 53.8719 8 52.7429V16.5573C8 15.4282 8.44851 14.3454 9.24688 13.547C10.0452 12.7486 11.1281 12.3001 12.2571 12.3001H18.6428V14.4287H12.2571C11.6926 14.4287 11.1512 14.653 10.752 15.0521C10.3528 15.4513 10.1286 15.9927 10.1286 16.5573V52.7429C10.1286 53.3074 10.3528 53.8488 10.752 54.248C11.1512 54.6471 11.6926 54.8714 12.2571 54.8714H29.2856C29.8502 54.8714 30.3916 54.6471 30.7908 54.248C31.1899 53.8488 31.4142 53.3074 31.4142 52.7429V37.8429H33.5428V52.7429C33.5428 53.8719 33.0942 54.9547 32.2959 55.7531C31.4975 56.5514 30.4147 57 29.2856 57Z" fill="#404040"/>
<path d="M22.8572 51.6786H18.6001V53.8072H22.8572V51.6786Z" fill="#404040"/>
<path d="M22.4634 39.0136C22.1674 39.0101 21.8754 38.9448 21.606 38.8221C21.3366 38.6993 21.0958 38.5217 20.8989 38.3006C20.6543 38.0103 20.4917 37.6598 20.4281 37.2855C20.3645 36.9113 20.4021 36.5268 20.5371 36.172C21.346 34.1217 21.8862 31.9753 22.1441 29.7863C19.9151 27.5464 18.6442 24.5276 18.6001 21.3678C18.6001 13.4495 26.9547 7 37.225 7C47.4953 7 55.85 13.4495 55.85 21.3678C55.85 29.2861 47.4953 35.7356 37.225 35.7356C35.3759 35.7366 33.5329 35.5223 31.7333 35.0971C29.0928 36.9586 26.108 38.2755 22.953 38.9711C22.7923 39.006 22.6278 39.0203 22.4634 39.0136V39.0136ZM37.225 9.10729C28.1254 9.10729 20.7287 14.599 20.7287 21.3466C20.7602 22.7176 21.0666 24.0682 21.6297 25.3187C22.1927 26.5691 23.001 27.6938 24.0066 28.6262L24.3578 28.9881V29.4883C24.0993 32.0417 23.4942 34.5481 22.5592 36.9383C25.565 36.2328 28.3941 34.9178 30.8713 33.0749L31.2863 32.745L31.8078 32.8833C33.5901 33.3508 35.4251 33.5869 37.2676 33.5858C46.3672 33.5858 53.764 28.0941 53.764 21.3466C53.764 14.599 46.314 9.10729 37.225 9.10729Z" fill="#404040"/>
<path d="M45.2071 20.8144H29.2429V22.943H45.2071V20.8144Z" fill="#FA4616"/>
<path d="M45.2071 16.5573H29.2429V18.6859H45.2071V16.5573Z" fill="#FA4616"/>
<path d="M37.7572 25.0715H29.2429V27.2001H37.7572V25.0715Z" fill="#FA4616"/>
</svg>
