<svg width="64" height="64" viewBox="0 0 64 64" fill="none" xmlns="http://www.w3.org/2000/svg">
<path d="M23.521 44.4841C22.8129 44.4852 22.112 44.3417 21.4613 44.0623C20.8106 43.7829 20.2238 43.3736 19.7369 42.8595C19.25 42.3453 18.8732 41.7371 18.6297 41.0722C18.3862 40.4072 18.281 39.6995 18.3207 38.9925V37.5156C18.3207 36.1364 18.8686 34.8137 19.8438 33.8384C20.8191 32.8632 22.1418 32.3153 23.521 32.3153C24.9002 32.3153 26.2229 32.8632 27.1982 33.8384C28.1734 34.8137 28.7213 36.1364 28.7213 37.5156V39.0029C28.7595 39.7091 28.6533 40.4156 28.4091 41.0793C28.1649 41.7431 27.7879 42.35 27.3012 42.863C26.8144 43.3761 26.2281 43.7844 25.5782 44.0632C24.9282 44.3419 24.2282 44.4851 23.521 44.4841ZM23.521 34.0834C23.087 34.0892 22.6587 34.184 22.2628 34.3619C21.8668 34.5398 21.5116 34.7972 21.2191 35.1179C20.9266 35.4387 20.7031 35.8161 20.5624 36.2267C20.4216 36.6373 20.3666 37.0725 20.4008 37.5052V38.9925C20.4008 39.82 20.7295 40.6137 21.3147 41.1988C21.8999 41.784 22.6935 42.1127 23.521 42.1127C24.3485 42.1127 25.1422 41.784 25.7273 41.1988C26.3125 40.6137 26.6412 39.82 26.6412 38.9925V37.5156C26.685 37.0804 26.6367 36.6409 26.4996 36.2256C26.3625 35.8102 26.1396 35.4283 25.8454 35.1047C25.5512 34.781 25.1922 34.5229 24.7918 34.3469C24.3914 34.171 23.9584 34.0812 23.521 34.0834Z" fill="#404040"/>
<path d="M14.1709 56.9649C14.0845 56.9751 13.9972 56.9751 13.9109 56.9649C13.6434 56.8985 13.4132 56.7287 13.2709 56.4927C13.1285 56.2568 13.0856 55.974 13.1516 55.7064L15.2317 47.3859C16.0326 44.1097 17.7695 42.4352 20.4321 42.4352H22.9906L30.2711 50.7557H36.9692L37.0732 51.6814C37.2387 53.1344 36.8363 54.5952 35.9499 55.7584C35.5631 56.1717 35.0913 56.4964 34.567 56.71C34.0428 56.9237 33.4785 57.0213 32.9129 56.9961H26.2149L20.7129 51.4942C20.5143 51.3024 20.4 51.0397 20.3951 50.7637C20.3902 50.4877 20.4952 50.2211 20.6869 50.0225C20.8786 49.8238 21.1414 49.7095 21.4174 49.7047C21.6934 49.6998 21.96 49.8047 22.1586 49.9965L27.0573 54.8848H32.8401C33.1107 54.9064 33.3828 54.8693 33.6377 54.776C33.8927 54.6826 34.1244 54.5352 34.317 54.3439C34.6626 53.9008 34.8689 53.3651 34.9098 52.8046H29.2519L21.9714 44.4841H20.3593C19.3192 44.4841 17.9359 44.8689 17.2391 47.8539L15.1589 56.1745C15.1041 56.3965 14.9775 56.5943 14.7989 56.7372C14.6203 56.8801 14.3996 56.9601 14.1709 56.9649Z" fill="#404040"/>
<path d="M47.4424 53.8447H38.0818V51.7646H46.86L51.8523 43.444H35.5544L32.0598 49.2684L30.2812 48.2283L34.0775 41.9047C34.1686 41.751 34.2979 41.6233 34.4527 41.534C34.6076 41.4448 34.7828 41.3969 34.9616 41.3951H53.6828C53.8671 41.3954 54.048 41.4447 54.207 41.5379C54.366 41.6311 54.4973 41.7649 54.5877 41.9255C54.6789 42.0836 54.727 42.263 54.727 42.4456C54.727 42.6281 54.6789 42.8075 54.5877 42.9656L48.3472 53.3663C48.2505 53.5173 48.1163 53.6407 47.9578 53.7245C47.7992 53.8083 47.6217 53.8497 47.4424 53.8447V53.8447Z" fill="#404040"/>
<path d="M53.6828 56.9649H22.4807C22.2049 56.9649 21.9404 56.8553 21.7453 56.6603C21.5503 56.4652 21.4407 56.2007 21.4407 55.9248C21.4407 55.649 21.5503 55.3844 21.7453 55.1894C21.9404 54.9943 22.2049 54.8848 22.4807 54.8848H53.6828C53.9587 54.8848 54.2232 54.9943 54.4183 55.1894C54.6133 55.3844 54.7229 55.649 54.7229 55.9248C54.7229 56.2007 54.6133 56.4652 54.4183 56.6603C54.2232 56.8553 53.9587 56.9649 53.6828 56.9649Z" fill="#404040"/>
<path d="M33.932 39.5958C33.6796 39.5973 33.429 39.5514 33.1935 39.4605C32.797 39.3124 32.4552 39.0469 32.2136 38.6993C31.972 38.3518 31.8422 37.9389 31.8414 37.5156V33.0433H29.7613V30.9632H32.8815C33.1574 30.9632 33.4219 31.0728 33.617 31.2678C33.812 31.4629 33.9216 31.7274 33.9216 32.0033V37.5156L39.3819 31.2752C39.4794 31.1643 39.5994 31.0753 39.7339 31.0144C39.8684 30.9534 40.0143 30.9218 40.162 30.9216H50.5627C50.8385 30.9216 51.1031 30.812 51.2981 30.617C51.4932 30.4219 51.6028 30.1574 51.6028 29.8815V10.1202C51.6028 9.84436 51.4932 9.57982 51.2981 9.38477C51.1031 9.18972 50.8385 9.08014 50.5627 9.08014H13.1202C12.8444 9.08014 12.5798 9.18972 12.3848 9.38477C12.1897 9.57982 12.0801 9.84436 12.0801 10.1202V29.8815C12.0801 30.1574 12.1897 30.4219 12.3848 30.617C12.5798 30.812 12.8444 30.9216 13.1202 30.9216H17.2805V33.0017H13.1202C12.2927 33.0017 11.4991 32.673 10.9139 32.0878C10.3287 31.5027 10 30.709 10 29.8815V10.1202C10 9.29268 10.3287 8.49904 10.9139 7.91389C11.4991 7.32873 12.2927 7 13.1202 7H50.5627C51.3902 7 52.1839 7.32873 52.769 7.91389C53.3542 8.49904 53.6829 9.29268 53.6829 10.1202V29.8815C53.6829 30.709 53.3542 31.5027 52.769 32.0878C52.1839 32.673 51.3902 33.0017 50.5627 33.0017H40.6404L35.4921 38.8885C35.2972 39.1104 35.0572 39.2882 34.7882 39.4102C34.5192 39.5321 34.2273 39.5954 33.932 39.5958Z" fill="#FA4616"/>
</svg>
