<svg width="64" height="64" viewBox="0 0 64 64" fill="none" xmlns="http://www.w3.org/2000/svg">
<path d="M14.2916 24.625H12.2083V13.1667C12.2083 12.0616 12.6472 11.0018 13.4286 10.2204C14.21 9.43898 15.2699 9 16.3749 9H42.4166C43.5217 9 44.5815 9.43898 45.3629 10.2204C46.1443 11.0018 46.5833 12.0616 46.5833 13.1667V17.3333H44.4999V13.1667C44.4999 12.6141 44.2804 12.0842 43.8897 11.6935C43.499 11.3028 42.9691 11.0833 42.4166 11.0833H16.3749C15.8224 11.0833 15.2925 11.3028 14.9018 11.6935C14.5111 12.0842 14.2916 12.6141 14.2916 13.1667V24.625Z" fill="#FA4616"/>
<path d="M19.4999 40.8646C19.2251 40.8641 18.9528 40.8111 18.6978 40.7083C18.3177 40.5498 17.9931 40.2821 17.765 39.9391C17.537 39.5961 17.4157 39.1931 17.4166 38.7812V35.0417H16.3749C15.2699 35.0417 14.21 34.6027 13.4286 33.8213C12.6472 33.0399 12.2083 31.9801 12.2083 30.875V27.75H14.2916V30.875C14.2916 31.4275 14.5111 31.9574 14.9018 32.3481C15.2925 32.7388 15.8224 32.9583 16.3749 32.9583H19.4999V38.7812L25.3645 32.9583H28.8749V35.0417H26.2187L21.0103 40.25C20.8128 40.4487 20.5773 40.6056 20.3178 40.7112C20.0582 40.8168 19.7801 40.869 19.4999 40.8646V40.8646Z" fill="#FA4616"/>
<path d="M40.3333 34H38.25V38.1667H40.3333V34Z" fill="#404040"/>
<path d="M40.3333 30.875H38.25V27.75C38.25 27.1975 38.0305 26.6676 37.6398 26.2769C37.2491 25.8862 36.7192 25.6667 36.1667 25.6667H32V23.5833H36.1667C37.2717 23.5833 38.3315 24.0223 39.1129 24.8037C39.8943 25.5851 40.3333 26.6449 40.3333 27.75V30.875Z" fill="#404040"/>
<path d="M16.375 55.7813C16.0646 55.7794 15.7585 55.7083 15.4792 55.5729C15.1246 55.4041 14.8251 55.1385 14.615 54.8067C14.4049 54.475 14.2928 54.0906 14.2917 53.6979V49.625H11.1667C10.0616 49.625 9.00179 49.186 8.22039 48.4046C7.43899 47.6232 7 46.5634 7 45.4583V27.75C7 26.6449 7.43899 25.5851 8.22039 24.8037C9.00179 24.0223 10.0616 23.5833 11.1667 23.5833H28.875V25.6667H11.1667C10.6141 25.6667 10.0842 25.8862 9.69353 26.2769C9.30283 26.6676 9.08333 27.1975 9.08333 27.75V45.4583C9.08333 46.0109 9.30283 46.5408 9.69353 46.9315C10.0842 47.3222 10.6141 47.5417 11.1667 47.5417H16.375V53.6979L24.0208 47.5417H36.1667C36.7192 47.5417 37.2491 47.3222 37.6398 46.9315C38.0305 46.5408 38.25 46.0109 38.25 45.4583V41.2917H40.3333V45.4583C40.3333 46.5634 39.8943 47.6232 39.1129 48.4046C38.3315 49.186 37.2717 49.625 36.1667 49.625H24.7083L17.625 55.3229C17.2697 55.6083 16.8306 55.7693 16.375 55.7813Z" fill="#404040"/>
<path d="M49.7085 48.0625C49.4279 48.0614 49.1503 48.0037 48.8926 47.8927C48.6348 47.7817 48.4021 47.6198 48.2085 47.4167L43.3335 42.3229H32.0002C30.8951 42.3229 29.8353 41.8839 29.0539 41.1025C28.2725 40.3211 27.8335 39.2613 27.8335 38.1562V20.4479C27.8335 19.3428 28.2725 18.283 29.0539 17.5016C29.8353 16.7202 30.8951 16.2812 32.0002 16.2812H52.8335C53.9386 16.2812 54.9984 16.7202 55.7798 17.5016C56.5612 18.283 57.0002 19.3428 57.0002 20.4479V38.1562C57.0002 39.2613 56.5612 40.3211 55.7798 41.1025C54.9984 41.8839 53.9386 42.3229 52.8335 42.3229H51.7918V45.9792C51.7918 46.5317 51.5723 47.0616 51.1816 47.4523C50.7909 47.843 50.261 48.0625 49.7085 48.0625ZM32.0002 18.3646C31.4476 18.3646 30.9177 18.5841 30.527 18.9748C30.1363 19.3655 29.9168 19.8954 29.9168 20.4479V38.1562C29.9168 38.7088 30.1363 39.2387 30.527 39.6294C30.9177 40.0201 31.4476 40.2396 32.0002 40.2396H44.2189L49.7085 45.9687V40.2396H52.8335C53.386 40.2396 53.9159 40.0201 54.3066 39.6294C54.6973 39.2387 54.9168 38.7088 54.9168 38.1562V20.4479C54.9168 19.8954 54.6973 19.3655 54.3066 18.9748C53.9159 18.5841 53.386 18.3646 52.8335 18.3646H32.0002Z" fill="#404040"/>
<path d="M42.4167 35.0416H32V32.9583H42.4167C42.9692 32.9583 43.4991 32.7388 43.8898 32.3481C44.2805 31.9574 44.5 31.4275 44.5 30.875V20.4583H46.5833V30.875C46.5833 31.98 46.1443 33.0399 45.3629 33.8213C44.5815 34.6027 43.5217 35.0416 42.4167 35.0416Z" fill="#FA4616"/>
</svg>
