<svg width="64" height="64" viewBox="0 0 64 64" fill="none" xmlns="http://www.w3.org/2000/svg">
<path d="M32 57C27.0555 57 22.222 55.5337 18.1108 52.7867C13.9995 50.0397 10.7952 46.1352 8.90302 41.5671C7.01083 36.9989 6.51575 31.9723 7.48038 27.1227C8.44501 22.2732 10.826 17.8187 14.3224 14.3224C17.8187 10.826 22.2732 8.44502 27.1227 7.48039C31.9723 6.51576 36.9989 7.0108 41.5671 8.90299C46.1352 10.7952 50.0397 13.9995 52.7867 18.1108C55.5338 22.222 57 27.0555 57 32C57 38.6304 54.3661 44.9892 49.6777 49.6777C44.9893 54.3661 38.6304 57 32 57ZM32 9.27274C27.505 9.27274 23.1109 10.6057 19.3734 13.103C15.6359 15.6003 12.7229 19.1498 11.0027 23.3026C9.28256 27.4555 8.83251 32.0252 9.70945 36.4339C10.5864 40.8425 12.7509 44.8922 15.9294 48.0706C19.1079 51.2491 23.1575 53.4137 27.5661 54.2906C31.9748 55.1675 36.5445 54.7174 40.6973 52.9973C44.8502 51.2771 48.3997 48.3641 50.897 44.6266C53.3943 40.8891 54.7273 36.495 54.7273 32C54.7273 25.9724 52.3328 20.1916 48.0706 15.9294C43.8084 11.6672 38.0276 9.27274 32 9.27274V9.27274Z" fill="#404040"/>
<path d="M39.9546 46.7727H25.1819V41.409L28.591 40.2727V31.6818L25.1819 30.5454V25.1818H36.5455V40.2727L39.9546 41.409V46.7727ZM27.4546 44.5H37.6819V43.0454L34.2728 41.909V27.4545H27.4546V28.909L30.8637 30.0454V41.909L27.4546 43.0454V44.5Z" fill="#FA4616"/>
<path d="M32.0113 24.0455C31.1123 24.0455 30.2335 23.7789 29.486 23.2794C28.7385 22.78 28.1559 22.07 27.8118 21.2395C27.4678 20.4089 27.3778 19.4949 27.5532 18.6132C27.7285 17.7315 28.1615 16.9216 28.7972 16.2859C29.4329 15.6502 30.2428 15.2173 31.1245 15.0419C32.0062 14.8665 32.9202 14.9565 33.7508 15.3005C34.5813 15.6446 35.2912 16.2272 35.7907 16.9747C36.2901 17.7222 36.5567 18.601 36.5567 19.5C36.5567 20.7056 36.0779 21.8617 35.2254 22.7141C34.373 23.5666 33.2168 24.0455 32.0113 24.0455ZM32.0113 17.2273C31.4085 17.2273 30.8304 17.4667 30.4042 17.8929C29.978 18.3191 29.7386 18.8973 29.7386 19.5C29.7386 20.1028 29.978 20.6808 30.4042 21.1071C30.8304 21.5333 31.4085 21.7728 32.0113 21.7728C32.6115 21.7732 33.1875 21.5363 33.6136 21.1136C33.8242 20.9013 33.9908 20.6495 34.1039 20.3725C34.217 20.0956 34.2744 19.7991 34.2726 19.5C34.2726 18.8973 34.0332 18.3191 33.607 17.8929C33.1808 17.4667 32.6027 17.2273 31.9999 17.2273H32.0113Z" fill="#FA4616"/>
</svg>
