<svg width="64" height="64" viewBox="0 0 64 64" fill="none" xmlns="http://www.w3.org/2000/svg">
<path d="M11.4444 20.2222H9.22217V14.6667C9.22217 13.7826 9.57337 12.9348 10.1985 12.3097C10.8236 11.6845 11.6714 11.3333 12.5555 11.3333H22.5555V13.5556H12.5555C12.2608 13.5556 11.9782 13.6726 11.7698 13.881C11.5615 14.0894 11.4444 14.372 11.4444 14.6667V20.2222Z" fill="#FA4616"/>
<path d="M20.0111 16.5667L18.4333 14.9889L20.9778 12.4444L18.4333 9.90001L20.0111 8.32224L24.1222 12.4444L20.0111 16.5667Z" fill="#FA4616"/>
<path d="M51.4446 46.8889H40.3335V44.6667H51.4446C51.7393 44.6667 52.0219 44.5496 52.2303 44.3412C52.4387 44.1329 52.5557 43.8502 52.5557 43.5556V38H54.7779V43.5556C54.7779 44.4396 54.4268 45.2875 53.8016 45.9126C53.1765 46.5377 52.3287 46.8889 51.4446 46.8889V46.8889Z" fill="#FA4616"/>
<path d="M42.8778 49.9L38.7556 45.7778L42.8778 41.6556L44.4556 43.2334L41.9 45.7778L44.4556 48.3222L42.8778 49.9Z" fill="#FA4616"/>
<path d="M46.9889 40.6C46.6734 40.5996 46.3616 40.532 46.0742 40.4017C45.7868 40.2715 45.5305 40.0815 45.3222 39.8445L39.8333 33.5556H29.2222C28.3382 33.5556 27.4904 33.2044 26.8652 32.5792C26.2401 31.9541 25.8889 31.1063 25.8889 30.2222V11.3333C25.8889 10.4493 26.2401 9.60143 26.8652 8.97631C27.4904 8.35119 28.3382 8 29.2222 8H53.6667C54.5507 8 55.3986 8.35119 56.0237 8.97631C56.6489 9.60143 57 10.4493 57 11.3333V30.2222C57 31.1063 56.6489 31.9541 56.0237 32.5792C55.3986 33.2044 54.5507 33.5556 53.6667 33.5556H49.2222V38.3778C49.2215 38.8299 49.0828 39.2711 48.8247 39.6424C48.5666 40.0136 48.2014 40.2973 47.7778 40.4556C47.5262 40.5526 47.2586 40.6016 46.9889 40.6V40.6ZM29.2111 10.2222C28.9164 10.2222 28.6338 10.3393 28.4255 10.5477C28.2171 10.756 28.1 11.0386 28.1 11.3333V30.2222C28.1 30.5169 28.2171 30.7995 28.4255 31.0079C28.6338 31.2163 28.9164 31.3333 29.2111 31.3333H40.8223L46.9889 38.3778V31.3333H53.6556C53.9503 31.3333 54.2329 31.2163 54.4413 31.0079C54.6496 30.7995 54.7667 30.5169 54.7667 30.2222V11.3333C54.7667 11.0386 54.6496 10.756 54.4413 10.5477C54.2329 10.3393 53.9503 10.2222 53.6556 10.2222H29.2111Z" fill="#404040"/>
<path d="M15.9 56.1556C15.6303 56.1572 15.3627 56.1082 15.1111 56.0111C14.6875 55.8529 14.3223 55.5692 14.0642 55.1979C13.8061 54.8267 13.6675 54.3855 13.6667 53.9333V49.1111H10.3333C9.44928 49.1111 8.60145 48.7599 7.97633 48.1348C7.3512 47.5097 7 46.6618 7 45.7778V25.7778C7 24.8937 7.3512 24.0459 7.97633 23.4208C8.60145 22.7956 9.44928 22.4445 10.3333 22.4445H23.6667V24.6667H10.3333C10.0386 24.6667 9.75605 24.7837 9.54768 24.9921C9.3393 25.2005 9.22222 25.4831 9.22222 25.7778V45.7778C9.22222 46.0725 9.3393 46.3551 9.54768 46.5635C9.75605 46.7718 10.0386 46.8889 10.3333 46.8889H15.8889V53.9333L22.0555 46.8889H32.5556C32.8502 46.8889 33.1329 46.7718 33.3412 46.5635C33.5496 46.3551 33.6667 46.0725 33.6667 45.7778V35.7778H35.8889V45.7778C35.8889 46.6618 35.5377 47.5097 34.9126 48.1348C34.2875 48.7599 33.4396 49.1111 32.5556 49.1111H23.0556L17.5667 55.4C17.3584 55.6371 17.1021 55.827 16.8147 55.9573C16.5274 56.0876 16.2155 56.1552 15.9 56.1556Z" fill="#404040"/>
</svg>
