<svg width="64" height="64" viewBox="0 0 64 64" fill="none" xmlns="http://www.w3.org/2000/svg">
<path d="M39.2081 22.6249H37.1248V16.3749C37.1248 16.0986 37.015 15.8337 36.8197 15.6383C36.6243 15.443 36.3594 15.3333 36.0831 15.3333H28.7915V13.2499H36.0831C36.9119 13.2499 37.7067 13.5792 38.2928 14.1652C38.8788 14.7513 39.2081 15.5461 39.2081 16.3749V22.6249Z" fill="#FA4616"/>
<path d="M26.7186 37.2185C26.4658 37.22 26.2149 37.1741 25.9791 37.0831C25.5803 36.9341 25.2368 36.6665 24.9947 36.3164C24.7526 35.9663 24.6235 35.5504 24.6249 35.1247V31.9998H18.375C17.5462 31.9998 16.7513 31.6705 16.1653 31.0845C15.5792 30.4984 15.25 29.7036 15.25 28.8748V16.3749C15.25 15.5461 15.5792 14.7513 16.1653 14.1652C16.7513 13.5792 17.5462 13.2499 18.375 13.2499H25.6666V15.3333H18.375C18.0987 15.3333 17.8338 15.443 17.6384 15.6383C17.4431 15.8337 17.3333 16.0986 17.3333 16.3749V28.8748C17.3333 29.1511 17.4431 29.416 17.6384 29.6114C17.8338 29.8067 18.0987 29.9164 18.375 29.9164H26.7082V35.1247L31.4582 29.9164H36.0831C36.3594 29.9164 36.6244 29.8067 36.8197 29.6114C37.015 29.416 37.1248 29.1511 37.1248 28.8748V25.7498H39.2081V28.8748C39.2081 29.7036 38.8789 30.4984 38.2928 31.0845C37.7068 31.6705 36.9119 31.9998 36.0831 31.9998H32.3748L28.2082 36.5205C28.0203 36.7319 27.7913 36.9028 27.5352 37.0227C27.2791 37.1427 27.0013 37.2093 26.7186 37.2185V37.2185Z" fill="#FA4616"/>
<path d="M51.708 56.9995C51.4317 56.9995 51.1668 56.8898 50.9714 56.6944C50.7761 56.4991 50.6664 56.2341 50.6664 55.9579V50.7496C50.6664 47.1246 47.406 46.5829 45.4581 46.5829H40.2498C37.6248 46.5829 36.3436 47.6246 34.6248 49.8017C34.4545 50.0179 34.2055 50.1579 33.9322 50.191C33.6589 50.2242 33.3837 50.1479 33.1665 49.9787C32.9503 49.8084 32.8103 49.5594 32.7771 49.2861C32.7439 49.0129 32.8203 48.7376 32.9894 48.5204C34.9894 45.9788 36.8123 44.4996 40.281 44.4996H45.4893C49.0101 44.4996 52.7809 46.1455 52.7809 50.7496V55.9579C52.781 56.0973 52.753 56.2354 52.6987 56.3638C52.6444 56.4923 52.5649 56.6085 52.4649 56.7057C52.3648 56.8028 52.2462 56.8789 52.1162 56.9294C51.9862 56.9798 51.8474 57.0037 51.708 56.9995V56.9995Z" fill="#404040"/>
<path d="M39.2083 56.9995C38.932 56.9995 38.6671 56.8898 38.4717 56.6944C38.2764 56.4991 38.1666 56.2341 38.1666 55.9579V52.9162L37.125 53.3016C36.8666 53.4011 36.5794 53.3939 36.3264 53.2815C36.0735 53.1692 35.8754 52.961 35.776 52.7027C35.6765 52.4444 35.6838 52.1571 35.7961 51.9042C35.9084 51.6512 36.1167 51.4532 36.375 51.3537L37.7604 50.8225C37.8807 50.7783 38.0073 50.7537 38.1353 50.7496H39.177C39.4533 50.7496 39.7182 50.8593 39.9136 51.0547C40.1089 51.25 40.2187 51.515 40.2187 51.7912V55.9579C40.2188 56.2288 40.1133 56.4891 39.9247 56.6836C39.7361 56.8781 39.4791 56.9914 39.2083 56.9995Z" fill="#404040"/>
<path d="M47.5414 56.9995C47.2651 56.9995 47.0002 56.8898 46.8048 56.6944C46.6095 56.4991 46.4998 56.2341 46.4998 55.9579V51.7912C46.4998 51.515 46.6095 51.25 46.8048 51.0547C47.0002 50.8593 47.2651 50.7496 47.5414 50.7496C47.8177 50.7496 48.0826 50.8593 48.278 51.0547C48.4733 51.25 48.5831 51.515 48.5831 51.7912V55.9579C48.5831 56.2341 48.4733 56.4991 48.278 56.6944C48.0826 56.8898 47.8177 56.9995 47.5414 56.9995Z" fill="#404040"/>
<path d="M23.5832 56.9995C23.3069 56.9995 23.042 56.8898 22.8466 56.6944C22.6513 56.4991 22.5415 56.2341 22.5415 55.9579V51.7912C22.5415 51.515 22.6513 51.25 22.8466 51.0547C23.042 50.8593 23.3069 50.7496 23.5832 50.7496H24.7082C24.876 50.749 25.0412 50.7921 25.1873 50.8746C25.1873 50.8746 28.4894 52.5933 30.5519 53.5933C30.8378 53.7295 31.157 53.7804 31.4711 53.7397C31.7852 53.6991 32.0809 53.5687 32.3227 53.3641C31.281 52.3225 29.3123 50.5517 28.0936 49.4475C26.1352 47.6767 24.354 46.5829 21.4999 46.5829H16.2916C15.5961 46.5386 14.8992 46.643 14.2472 46.889C13.5952 47.1351 13.0031 47.5172 12.5104 48.01C12.0176 48.5028 11.6355 49.0949 11.3894 49.7468C11.1433 50.3988 11.039 51.0958 11.0833 51.7912V55.9579C11.0833 56.2341 10.9736 56.4991 10.7782 56.6944C10.5829 56.8898 10.3179 56.9995 10.0417 56.9995C9.76539 56.9995 9.50044 56.8898 9.30509 56.6944C9.10974 56.4991 9 56.2341 9 55.9579V51.7912C9 46.76 12.6666 44.4996 16.2916 44.4996H21.4999C22.9903 44.5071 24.4644 44.8112 25.8361 45.3942C27.2078 45.9772 28.4497 46.8275 29.4894 47.8954C31.2602 49.4892 34.4893 52.5412 34.531 52.5725C34.7122 52.7444 34.8256 52.9758 34.8504 53.2244C34.8753 53.473 34.81 53.7222 34.6664 53.9266C34.1471 54.7387 33.3558 55.3397 32.4342 55.6221C31.5125 55.9046 30.5204 55.85 29.6352 55.4683C27.9894 54.6662 25.5728 53.385 24.6249 52.9266V55.9579C24.6249 56.2341 24.5151 56.4991 24.3198 56.6944C24.1244 56.8898 23.8595 56.9995 23.5832 56.9995Z" fill="#404040"/>
<path d="M14.2084 56.9995C13.9321 56.9995 13.6672 56.8898 13.4718 56.6944C13.2765 56.4991 13.1667 56.2341 13.1667 55.9579V51.7912C13.1667 51.515 13.2765 51.25 13.4718 51.0547C13.6672 50.8593 13.9321 50.7496 14.2084 50.7496C14.4847 50.7496 14.7496 50.8593 14.945 51.0547C15.1403 51.25 15.2501 51.515 15.2501 51.7912V55.9579C15.2501 56.2341 15.1403 56.4991 14.945 56.6944C14.7496 56.8898 14.4847 56.9995 14.2084 56.9995Z" fill="#404040"/>
<path d="M18.9375 46.583C18.3418 46.6095 17.7469 46.5171 17.1873 46.3111C16.6278 46.1052 16.1149 45.7899 15.6785 45.3836C15.2422 44.9773 14.8911 44.4882 14.6459 43.9447C14.4006 43.4013 14.266 42.8144 14.25 42.2184V39.4997C14.3293 38.3105 14.8577 37.1959 15.728 36.3817C16.5983 35.5675 17.7456 35.1145 18.9375 35.1145C20.1293 35.1145 21.2766 35.5675 22.1469 36.3817C23.0172 37.1959 23.5456 38.3105 23.6249 39.4997V42.2184C23.6089 42.8144 23.4743 43.4013 23.2291 43.9447C22.9838 44.4882 22.6327 44.9773 22.1964 45.3836C21.76 45.7899 21.2471 46.1052 20.6876 46.3111C20.128 46.5171 19.5331 46.6095 18.9375 46.583ZM18.9375 37.2081C18.6159 37.1869 18.2932 37.2294 17.9881 37.3332C17.683 37.437 17.4014 37.6001 17.1594 37.813C16.9174 38.0259 16.7199 38.2845 16.5782 38.574C16.4364 38.8634 16.3532 39.178 16.3333 39.4997V42.2184C16.4137 42.8524 16.7225 43.4352 17.2019 43.8577C17.6814 44.2802 18.2984 44.5133 18.9375 44.5133C19.5765 44.5133 20.1936 44.2802 20.673 43.8577C21.1524 43.4352 21.4612 42.8524 21.5416 42.2184V39.4997C21.5217 39.178 21.4385 38.8634 21.2968 38.574C21.155 38.2845 20.9575 38.0259 20.7155 37.813C20.4736 37.6001 20.1919 37.437 19.8868 37.3332C19.5817 37.2294 19.2591 37.1869 18.9375 37.2081Z" fill="#404040"/>
<path d="M43.9372 46.583C43.3416 46.6095 42.7466 46.5171 42.1871 46.3111C41.6276 46.1052 41.1146 45.7899 40.6783 45.3836C40.2419 44.9773 39.8909 44.4882 39.6456 43.9447C39.4003 43.4013 39.2658 42.8144 39.2498 42.2184V39.4997C39.3291 38.3105 39.8574 37.1959 40.7278 36.3817C41.5981 35.5675 42.7454 35.1145 43.9372 35.1145C45.129 35.1145 46.2763 35.5675 47.1467 36.3817C48.017 37.1959 48.5453 38.3105 48.6247 39.4997V42.2184C48.6087 42.8144 48.4741 43.4013 48.2288 43.9447C47.9835 44.4882 47.6325 44.9773 47.1961 45.3836C46.7598 45.7899 46.2469 46.1052 45.6873 46.3111C45.1278 46.5171 44.5328 46.6095 43.9372 46.583V46.583ZM43.9372 37.2081C43.6156 37.1869 43.293 37.2294 42.9879 37.3332C42.6827 37.437 42.4011 37.6001 42.1592 37.813C41.9172 38.0259 41.7197 38.2845 41.5779 38.574C41.4361 38.8634 41.3529 39.178 41.3331 39.4997V42.2184C41.4134 42.8524 41.7223 43.4352 42.2017 43.8577C42.6811 44.2802 43.2982 44.5133 43.9372 44.5133C44.5762 44.5133 45.1933 44.2802 45.6727 43.8577C46.1522 43.4352 46.461 42.8524 46.5414 42.2184V39.4997C46.5215 39.178 46.4383 38.8634 46.2965 38.574C46.1548 38.2845 45.9572 38.0259 45.7153 37.813C45.4733 37.6001 45.1917 37.437 44.8866 37.3332C44.5814 37.2294 44.2588 37.1869 43.9372 37.2081Z" fill="#404040"/>
<path d="M46.4891 32.0102C46.1943 32.007 45.9035 31.9413 45.6359 31.8174C45.3684 31.6935 45.1302 31.5142 44.9371 31.2914L40.8121 26.7915H27.7497C26.9209 26.7915 26.1261 26.4622 25.54 25.8762C24.954 25.2902 24.6248 24.4953 24.6248 23.6665V10.125C24.6248 9.29618 24.954 8.50133 25.54 7.91528C26.1261 7.32923 26.9209 7 27.7497 7H51.7078C52.5366 7 53.3315 7.32923 53.9175 7.91528C54.5036 8.50133 54.8328 9.29618 54.8328 10.125V23.6665C54.8328 24.4953 54.5036 25.2902 53.9175 25.8762C53.3315 26.4622 52.5366 26.7915 51.7078 26.7915H48.5829V29.9165C48.5842 30.3421 48.4552 30.758 48.2131 31.1081C47.971 31.4582 47.6275 31.7258 47.2287 31.8748C46.9915 31.9609 46.7415 32.0066 46.4891 32.0102V32.0102ZM27.7393 9.09373C27.463 9.09373 27.1981 9.20348 27.0027 9.39883C26.8074 9.59417 26.6976 9.85912 26.6976 10.1354V23.6769C26.6976 23.9532 26.8074 24.2181 27.0027 24.4135C27.1981 24.6088 27.463 24.7186 27.7393 24.7186H41.7496L46.4891 29.9269V24.7186H51.6974C51.9737 24.7186 52.2386 24.6088 52.434 24.4135C52.6293 24.2181 52.7391 23.9532 52.7391 23.6769V10.1354C52.7391 9.85912 52.6293 9.59417 52.434 9.39883C52.2386 9.20348 51.9737 9.09373 51.6974 9.09373H27.7393Z" fill="#404040"/>
</svg>
