<svg width="64" height="64" viewBox="0 0 64 64" fill="none" xmlns="http://www.w3.org/2000/svg">
<path d="M34.5107 57H32.3831V50.5319C32.3831 48.0851 27.2235 46.2766 23.8724 46.2766C20.5214 46.2766 15.3618 48.117 15.3618 50.5319V57H13.2341V50.5319C13.2341 46.0532 20.2767 44.1489 23.8724 44.1489C27.4682 44.1489 34.5107 46.0851 34.5107 50.5319V57Z" fill="#404040"/>
<path d="M23.8725 43.1702C22.1796 43.1702 20.5561 42.4977 19.359 41.3007C18.162 40.1036 17.4895 38.4801 17.4895 36.7872V35.7234C17.4895 34.0305 18.162 32.407 19.359 31.2099C20.5561 30.0129 22.1796 29.3404 23.8725 29.3404C25.5654 29.3404 27.1889 30.0129 28.3859 31.2099C29.583 32.407 30.2555 34.0305 30.2555 35.7234V36.7872C30.2555 38.4801 29.583 40.1036 28.3859 41.3007C27.1889 42.4977 25.5654 43.1702 23.8725 43.1702ZM23.8725 31.4681C22.7439 31.4681 21.6615 31.9164 20.8635 32.7144C20.0655 33.5125 19.6172 34.5948 19.6172 35.7234V36.7872C19.6172 37.9158 20.0655 38.9982 20.8635 39.7962C21.6615 40.5942 22.7439 41.0426 23.8725 41.0426C25.0011 41.0426 26.0834 40.5942 26.8814 39.7962C27.6795 38.9982 28.1278 37.9158 28.1278 36.7872V35.7234C28.1278 34.5948 27.6795 33.5125 26.8814 32.7144C26.0834 31.9164 25.0011 31.4681 23.8725 31.4681Z" fill="#404040"/>
<path d="M35.5532 44.2021C35.2326 44.2018 34.9162 44.1291 34.6277 43.9894C34.2717 43.8209 33.9713 43.5541 33.7621 43.2204C33.5529 42.8868 33.4435 42.5002 33.4468 42.1064V35.7234H31.3191V33.5957H35.5745V42.0426L43.2553 33.5957H50.4255C50.9898 33.5957 51.531 33.3716 51.93 32.9726C52.329 32.5736 52.5532 32.0324 52.5532 31.4681V11.2553C52.5532 10.691 52.329 10.1498 51.93 9.75083C51.531 9.35182 50.9898 9.12766 50.4255 9.12766H14.2553C13.691 9.12766 13.1498 9.35182 12.7508 9.75083C12.3518 10.1498 12.1277 10.691 12.1277 11.2553V31.4681C12.1277 32.0324 12.3518 32.5736 12.7508 32.9726C13.1498 33.3716 13.691 33.5957 14.2553 33.5957H16.383V35.7234H14.2553C13.1267 35.7234 12.0444 35.2751 11.2464 34.4771C10.4483 33.679 10 32.5967 10 31.4681V11.2553C10 10.1267 10.4483 9.04438 11.2464 8.24635C12.0444 7.44832 13.1267 7 14.2553 7H50.4255C51.5541 7 52.6365 7.44832 53.4345 8.24635C54.2325 9.04438 54.6808 10.1267 54.6808 11.2553V31.4681C54.6808 32.5967 54.2325 33.679 53.4345 34.4771C52.6365 35.2751 51.5541 35.7234 50.4255 35.7234H44.234L36.8723 43.7128C36.5008 44.0208 36.0357 44.1933 35.5532 44.2021V44.2021Z" fill="#404040"/>
<path d="M43.0213 15.5106H20.6809V17.6383H43.0213V15.5106Z" fill="#FA4616"/>
<path d="M43.0213 19.766H20.6809V21.8936H43.0213V19.766Z" fill="#FA4616"/>
<path d="M35.5745 24.0213H20.6809V26.1489H35.5745V24.0213Z" fill="#FA4616"/>
</svg>
