<svg width="64" height="64" viewBox="0 0 64 64" fill="none" xmlns="http://www.w3.org/2000/svg">
<path d="M47.6457 47.0938C47.3608 47.0942 47.0789 47.0361 46.8173 46.9233C46.5557 46.8104 46.3201 46.6451 46.1249 46.4375L41.2395 41.2917H28.8749C28.3326 41.3027 27.7935 41.2056 27.2891 41.006C26.7847 40.8064 26.3252 40.5084 25.9373 40.1292C25.5494 39.75 25.2409 39.2974 25.0299 38.7976C24.8188 38.2979 24.7095 37.7612 24.7083 37.2187V21.5C24.7083 20.3949 25.1472 19.3351 25.9286 18.5537C26.71 17.7723 27.7699 17.3333 28.8749 17.3333H52.8333C53.9383 17.3333 54.9981 17.7723 55.7795 18.5537C56.5609 19.3351 56.9999 20.3949 56.9999 21.5V37.2187C56.9987 37.7612 56.8893 38.2979 56.6783 38.7976C56.4673 39.2974 56.1588 39.75 55.7709 40.1292C55.383 40.5084 54.9234 40.8064 54.4191 41.006C53.9147 41.2056 53.3756 41.3027 52.8333 41.2917H49.7083V45.0417C49.7083 45.5942 49.4887 46.1241 49.098 46.5148C48.7073 46.9055 48.1775 47.125 47.6249 47.125L47.6457 47.0938ZM28.8957 19.4167C28.3432 19.4167 27.8133 19.6362 27.4226 20.0269C27.0319 20.4176 26.8124 20.9475 26.8124 21.5V37.2187C26.8164 37.4868 26.8737 37.7514 26.981 37.9971C27.0883 38.2428 27.2434 38.4647 27.4373 38.6499C27.6312 38.8351 27.86 38.9798 28.1104 39.0757C28.3608 39.1715 28.6278 39.2166 28.8957 39.2083H42.1562L47.6457 45V39.2083H52.8541C53.1221 39.2166 53.389 39.1715 53.6394 39.0757C53.8898 38.9798 54.1186 38.8351 54.3125 38.6499C54.5064 38.4647 54.6615 38.2428 54.7688 37.9971C54.8761 37.7514 54.9334 37.4868 54.9374 37.2187V21.5C54.9374 20.9475 54.7179 20.4176 54.3272 20.0269C53.9365 19.6362 53.4066 19.4167 52.8541 19.4167H28.8957Z" fill="#404040"/>
<path d="M14.2918 22.5417H12.2085V13.1667C12.2085 12.0616 12.6475 11.0018 13.4289 10.2204C14.2103 9.43898 15.2701 9 16.3752 9H39.2918C40.3969 9 41.4567 9.43898 42.2381 10.2204C43.0195 11.0018 43.4585 12.0616 43.4585 13.1667V15.25H41.3752V13.1667C41.3752 12.6141 41.1557 12.0842 40.765 11.6935C40.3743 11.3028 39.8444 11.0833 39.2918 11.0833H16.3752C15.8226 11.0833 15.2927 11.3028 14.902 11.6935C14.5113 12.0842 14.2918 12.6141 14.2918 13.1667V22.5417Z" fill="#404040"/>
<path d="M16.3542 54.8021C16.0406 54.799 15.7314 54.728 15.4479 54.5937C15.104 54.4229 14.8139 54.1602 14.6099 53.8348C14.4059 53.5095 14.2957 53.134 14.2917 52.75V48.5833H11.1667C10.6243 48.5944 10.0852 48.4973 9.58086 48.2977C9.07647 48.0981 8.61691 47.8 8.22901 47.4209C7.84111 47.0417 7.53264 46.589 7.32163 46.0893C7.11061 45.5896 7.00127 45.0529 7 44.5104V28.7917C7 27.6866 7.43899 26.6268 8.22039 25.8454C9.00179 25.064 10.0616 24.625 11.1667 24.625H22.625V26.7083H11.1667C10.6141 26.7083 10.0842 26.9278 9.69353 27.3185C9.30283 27.7092 9.08333 28.2391 9.08333 28.7917V44.5104C9.08735 44.7785 9.14467 45.0431 9.25196 45.2888C9.35925 45.5345 9.51436 45.7564 9.70826 45.9416C9.90216 46.1268 10.131 46.2715 10.3813 46.3673C10.6317 46.4632 10.8987 46.5083 11.1667 46.5H16.375V52.75L24.0208 46.5H33.0417C33.3097 46.5083 33.5766 46.4632 33.827 46.3673C34.0774 46.2715 34.3062 46.1268 34.5001 45.9416C34.694 45.7564 34.8491 45.5345 34.9564 45.2888C35.0637 45.0431 35.121 44.7785 35.125 44.5104V43.375H37.2083V44.5104C37.2071 45.0529 37.0977 45.5896 36.8867 46.0893C36.6757 46.589 36.3672 47.0417 35.9793 47.4209C35.5914 47.8 35.1319 48.0981 34.6275 48.2977C34.1231 48.4973 33.584 48.5944 33.0417 48.5833H24.7083L17.6354 54.3229C17.2717 54.6174 16.8219 54.7857 16.3542 54.8021V54.8021Z" fill="#FA4616"/>
</svg>
