<svg width="64" height="64" viewBox="0 0 64 64" fill="none" xmlns="http://www.w3.org/2000/svg">
<path d="M48.6668 44.9896C48.3919 44.9898 48.1197 44.9356 47.8658 44.8301C47.612 44.7246 47.3815 44.57 47.1877 44.375L39.896 37.0833H25.7502C24.6451 37.0833 23.5853 36.6443 22.8039 35.8629C22.0225 35.0815 21.5835 34.0217 21.5835 32.9167V14.1667C21.5835 13.0616 22.0225 12.0018 22.8039 11.2204C23.5853 10.439 24.6451 10 25.7502 10H52.8335C53.9386 10 54.9984 10.439 55.7798 11.2204C56.5612 12.0018 57.0002 13.0616 57.0002 14.1667V32.9167C57.0002 34.0217 56.5612 35.0815 55.7798 35.8629C54.9984 36.6443 53.9386 37.0833 52.8335 37.0833H50.7502V42.9062C50.7481 43.3175 50.6244 43.719 50.3945 44.0601C50.1646 44.4012 49.839 44.6666 49.4585 44.8229C49.2094 44.9339 48.9395 44.9907 48.6668 44.9896V44.9896ZM25.7502 12.0833C25.1976 12.0833 24.6677 12.3028 24.277 12.6935C23.8863 13.0842 23.6668 13.6141 23.6668 14.1667V32.9167C23.6668 33.4692 23.8863 33.9991 24.277 34.3898C24.6677 34.7805 25.1976 35 25.7502 35H40.7606L48.6668 42.9062V35H52.8335C53.386 35 53.9159 34.7805 54.3066 34.3898C54.6973 33.9991 54.9168 33.4692 54.9168 32.9167V14.1667C54.9168 13.6141 54.6973 13.0842 54.3066 12.6935C53.9159 12.3028 53.386 12.0833 52.8335 12.0833H25.7502Z" fill="#404040"/>
<path d="M16.375 53.3229C16.0989 53.3239 15.8257 53.2671 15.5729 53.1562C15.1944 52.9983 14.8709 52.7322 14.643 52.3913C14.4151 52.0503 14.2929 51.6497 14.2917 51.2396V45.4167H11.1667C10.0616 45.4167 9.00179 44.9777 8.22039 44.1963C7.43899 43.4149 7 42.3551 7 41.25V22.5C7 21.3949 7.43899 20.3351 8.22039 19.5537C9.00179 18.7723 10.0616 18.3333 11.1667 18.3333H19.5V20.4167H11.1667C10.6141 20.4167 10.0842 20.6362 9.69353 21.0269C9.30283 21.4176 9.08333 21.9475 9.08333 22.5V41.25C9.08333 41.8025 9.30283 42.3324 9.69353 42.7231C10.0842 43.1138 10.6141 43.3333 11.1667 43.3333H16.375V51.2396L24.2708 43.3333H33.0417C33.5942 43.3333 34.1241 43.1138 34.5148 42.7231C34.9055 42.3324 35.125 41.8025 35.125 41.25V39.1667H37.2083V41.25C37.2083 42.3551 36.7693 43.4149 35.9879 44.1963C35.2065 44.9777 34.1467 45.4167 33.0417 45.4167H25.1354L17.8437 52.7083C17.4548 53.0996 16.9266 53.3206 16.375 53.3229V53.3229Z" fill="#FA4616"/>
<path d="M35.1248 22.5H33.0415V24.5833H35.1248V22.5Z" fill="#404040"/>
<path d="M40.3333 22.5H38.25V24.5833H40.3333V22.5Z" fill="#404040"/>
<path d="M45.5416 22.5H43.4583V24.5833H45.5416V22.5Z" fill="#404040"/>
</svg>
