<svg width="64" height="64" viewBox="0 0 64 64" fill="none" xmlns="http://www.w3.org/2000/svg">
<path d="M16.2917 43.4583C16.0154 43.4583 15.7505 43.3486 15.5551 43.1532C15.3598 42.9579 15.25 42.6929 15.25 42.4167V32C15.25 27.9167 19.8333 24.7083 25.6667 24.7083C25.9429 24.7083 26.2079 24.8181 26.4033 25.0134C26.5986 25.2088 26.7083 25.4737 26.7083 25.75C26.7083 26.0263 26.5986 26.2912 26.4033 26.4866C26.2079 26.6819 25.9429 26.7917 25.6667 26.7917C21.1562 26.7917 17.3333 29.1771 17.3333 32V42.4167C17.3333 42.6929 17.2236 42.9579 17.0283 43.1532C16.8329 43.3486 16.5679 43.4583 16.2917 43.4583Z" fill="#404040"/>
<path d="M25.6665 26.7917C24.9763 26.8149 24.2886 26.696 23.6462 26.4425C23.0038 26.189 22.4203 25.8062 21.932 25.3178C21.4436 24.8295 21.0608 24.246 20.8073 23.6036C20.5538 22.9612 20.435 22.2736 20.4582 21.5833V19.5C20.4582 18.1187 21.0069 16.7939 21.9837 15.8171C22.9604 14.8404 24.2852 14.2917 25.6665 14.2917C27.0478 14.2917 28.3726 14.8404 29.3493 15.8171C30.3261 16.7939 30.8748 18.1187 30.8748 19.5V21.5833C30.8996 22.274 30.7818 22.9623 30.5288 23.6054C30.2759 24.2485 29.8931 24.8326 29.4045 25.3213C28.9158 25.8099 28.3317 26.1927 27.6886 26.4457C27.0455 26.6987 26.3571 26.8164 25.6665 26.7917V26.7917ZM25.6665 16.375C25.2498 16.3508 24.8327 16.415 24.4426 16.5635C24.0524 16.712 23.6982 16.9413 23.403 17.2365C23.1078 17.5316 22.8785 17.8859 22.73 18.276C22.5815 18.6662 22.5173 19.0833 22.5415 19.5V21.5833C22.5415 22.4121 22.8708 23.207 23.4568 23.793C24.0429 24.3791 24.8377 24.7083 25.6665 24.7083C26.4953 24.7083 27.2902 24.3791 27.8762 23.793C28.4623 23.207 28.7915 22.4121 28.7915 21.5833V19.5C28.8157 19.0833 28.7515 18.6662 28.603 18.276C28.4545 17.8859 28.2252 17.5316 27.93 17.2365C27.6349 16.9413 27.2806 16.712 26.8905 16.5635C26.5003 16.415 26.0832 16.3508 25.6665 16.375V16.375Z" fill="#404040"/>
<path d="M20.4584 43.4583C20.1821 43.4583 19.9172 43.3486 19.7219 43.1532C19.5265 42.9579 19.4167 42.6929 19.4167 42.4167V33.0417C19.4167 32.7654 19.5265 32.5004 19.7219 32.3051C19.9172 32.1097 20.1821 32 20.4584 32C20.7347 32 20.9997 32.1097 21.195 32.3051C21.3904 32.5004 21.5001 32.7654 21.5001 33.0417V42.4167C21.5001 42.6929 21.3904 42.9579 21.195 43.1532C20.9997 43.3486 20.7347 43.4583 20.4584 43.4583Z" fill="#404040"/>
<path d="M30.8749 57C30.5987 57 30.3337 56.8903 30.1384 56.6949C29.943 56.4996 29.8333 56.2346 29.8333 55.9583V33.0417C29.8333 32.7654 29.943 32.5004 30.1384 32.3051C30.3337 32.1097 30.5987 32 30.8749 32C31.1512 32 31.4162 32.1097 31.6115 32.3051C31.8069 32.5004 31.9166 32.7654 31.9166 33.0417V55.9583C31.9166 56.2346 31.8069 56.4996 31.6115 56.6949C31.4162 56.8903 31.1512 57 30.8749 57Z" fill="#404040"/>
<path d="M30.875 43.4583C30.5987 43.4583 30.3338 43.3486 30.1384 43.1532C29.9431 42.9579 29.8333 42.6929 29.8333 42.4167C29.8333 42.1404 29.9431 41.8755 30.1384 41.6801C30.3338 41.4848 30.5987 41.375 30.875 41.375C31.7038 41.375 32.4987 41.0458 33.0847 40.4597C33.6708 39.8737 34 39.0788 34 38.25V32C34 29.1771 30.1875 26.7917 25.6667 26.7917C25.3904 26.7917 25.1255 26.6819 24.9301 26.4866C24.7348 26.2912 24.625 26.0263 24.625 25.75C24.625 25.4737 24.7348 25.2088 24.9301 25.0134C25.1255 24.8181 25.3904 24.7083 25.6667 24.7083C31.5104 24.7083 36.0833 27.9167 36.0833 32V38.25C36.0833 39.6313 35.5346 40.9561 34.5578 41.9329C33.5811 42.9096 32.2563 43.4583 30.875 43.4583V43.4583Z" fill="#404040"/>
<path d="M20.4584 57C20.1821 57 19.9172 56.8903 19.7219 56.6949C19.5265 56.4996 19.4167 56.2346 19.4167 55.9583V50.75C19.4167 50.4737 19.5265 50.2088 19.7219 50.0134C19.9172 49.8181 20.1821 49.7083 20.4584 49.7083C20.7347 49.7083 20.9997 49.8181 21.195 50.0134C21.3904 50.2088 21.5001 50.4737 21.5001 50.75V55.9583C21.5001 56.2346 21.3904 56.4996 21.195 56.6949C20.9997 56.8903 20.7347 57 20.4584 57Z" fill="#404040"/>
<path d="M26.7084 57C26.4321 57 26.1672 56.8903 25.9719 56.6949C25.7765 56.4996 25.6667 56.2346 25.6667 55.9583V42.4167C25.6667 42.1404 25.7765 41.8754 25.9719 41.6801C26.1672 41.4847 26.4321 41.375 26.7084 41.375C26.9847 41.375 27.2497 41.4847 27.445 41.6801C27.6404 41.8754 27.7501 42.1404 27.7501 42.4167V55.9583C27.7501 56.2346 27.6404 56.4996 27.445 56.6949C27.2497 56.8903 26.9847 57 26.7084 57Z" fill="#404040"/>
<path d="M22.5416 51.7917H12.1249C11.8487 51.7917 11.5837 51.6819 11.3884 51.4866C11.193 51.2912 11.0833 51.0263 11.0833 50.75V42.4167C11.0833 42.1404 11.193 41.8754 11.3884 41.6801C11.5837 41.4847 11.8487 41.375 12.1249 41.375H22.5416C22.8179 41.375 23.0828 41.4847 23.2782 41.6801C23.4735 41.8754 23.5833 42.1404 23.5833 42.4167V50.75C23.5833 51.0263 23.4735 51.2912 23.2782 51.4866C23.0828 51.6819 22.8179 51.7917 22.5416 51.7917ZM13.1666 49.7083H21.4999V43.4583H13.1666V49.7083Z" fill="#404040"/>
<path d="M41.3229 38.1354C41.0966 38.1357 40.8717 38.1006 40.6563 38.0312C40.2349 37.8963 39.8675 37.6308 39.6072 37.2731C39.3469 36.9153 39.2072 36.4841 39.2083 36.0417V30.9583H37.125V28.875H41.2917V36.0417L47.0417 28.875H52.75C53.0263 28.875 53.2912 28.7653 53.4866 28.5699C53.6819 28.3746 53.7917 28.1096 53.7917 27.8333V10.125C53.7917 9.84873 53.6819 9.58378 53.4866 9.38843C53.2912 9.19308 53.0263 9.08333 52.75 9.08333H12.125C11.8487 9.08333 11.5838 9.19308 11.3884 9.38843C11.1931 9.58378 11.0833 9.84873 11.0833 10.125V27.8333C11.0833 28.1096 11.1931 28.3746 11.3884 28.5699C11.5838 28.7653 11.8487 28.875 12.125 28.875H14.2083V30.9583H12.125C11.2962 30.9583 10.5014 30.6291 9.9153 30.043C9.32925 29.457 9 28.6621 9 27.8333V10.125C9 9.2962 9.32925 8.50134 9.9153 7.91529C10.5014 7.32924 11.2962 7 12.125 7H52.75C53.5788 7 54.3737 7.32924 54.9597 7.91529C55.5458 8.50134 55.875 9.2962 55.875 10.125V27.8333C55.875 28.6621 55.5458 29.457 54.9597 30.043C54.3737 30.6291 53.5788 30.9583 52.75 30.9583H48.0417L42.9583 37.3542C42.7665 37.604 42.5184 37.8049 42.2342 37.9407C41.95 38.0764 41.6378 38.1432 41.3229 38.1354V38.1354Z" fill="#FA4616"/>
</svg>
