<svg width="64" height="64" viewBox="0 0 64 64" fill="none" xmlns="http://www.w3.org/2000/svg">
<path d="M17.4315 40.8907C16.7234 40.8918 16.0225 40.7483 15.3717 40.4689C14.721 40.1895 14.1342 39.7802 13.6473 39.266C13.1604 38.7518 12.7836 38.1436 12.5401 37.4787C12.2966 36.8137 12.1914 36.106 12.2311 35.399V33.9221C12.2311 32.5428 12.779 31.2201 13.7542 30.2448C14.7295 29.2695 16.0523 28.7216 17.4315 28.7216C18.8108 28.7216 20.1335 29.2695 21.1088 30.2448C22.0841 31.2201 22.632 32.5428 22.632 33.9221V35.4094C22.6701 36.1156 22.5639 36.8221 22.3197 37.4859C22.0755 38.1496 21.6985 38.7565 21.2117 39.2696C20.725 39.7826 20.1387 40.191 19.4887 40.4697C18.8387 40.7485 18.1387 40.8917 17.4315 40.8907V40.8907ZM17.4315 30.4898C16.9951 30.4877 16.5631 30.5773 16.1634 30.7526C15.7638 30.9279 15.4053 31.1851 15.1113 31.5076C14.8172 31.8301 14.5941 32.2107 14.4563 32.6248C14.3185 33.0389 14.269 33.4773 14.3112 33.9117V35.399C14.3112 36.2265 14.64 37.0202 15.2251 37.6054C15.8103 38.1905 16.604 38.5193 17.4315 38.5193C18.2591 38.5193 19.0527 38.1905 19.6379 37.6054C20.223 37.0202 20.5518 36.2265 20.5518 35.399V33.9221C20.5955 33.4869 20.5473 33.0473 20.4102 32.632C20.2731 32.2166 20.0502 31.8347 19.756 31.5111C19.4617 31.1874 19.1028 30.9293 18.7023 30.7533C18.3019 30.5774 17.8689 30.4876 17.4315 30.4898V30.4898Z" fill="#404040"/>
<path d="M8.0706 53.3718C7.91022 53.3765 7.75093 53.344 7.60519 53.2769C7.45944 53.2098 7.33119 53.1099 7.23047 52.9851C7.12975 52.8602 7.05929 52.7136 7.0246 52.557C6.98991 52.4003 6.99193 52.2378 7.03051 52.0821L9.11069 43.7613C9.90116 40.4851 11.6381 38.8105 14.3111 38.8105H16.8594L24.14 47.1312H30.8382L30.9422 48.0569C31.1132 49.5104 30.7102 50.9733 29.8189 52.1341C29.4336 52.5466 28.9636 52.8708 28.4411 53.0844C27.9187 53.2981 27.3561 53.3961 26.7922 53.3718H20.1356L14.6336 47.8697C14.4398 47.6748 14.3311 47.4112 14.3311 47.1364C14.3311 46.8617 14.4398 46.598 14.6336 46.4032C14.7303 46.3057 14.8453 46.2283 14.972 46.1755C15.0988 46.1227 15.2347 46.0955 15.372 46.0955C15.5093 46.0955 15.6453 46.1227 15.772 46.1755C15.8988 46.2283 16.0138 46.3057 16.1105 46.4032L20.9989 51.2916H26.7922C27.0628 51.3133 27.3349 51.2762 27.5899 51.1828C27.8448 51.0894 28.0765 50.9421 28.2691 50.7507C28.6147 50.3076 28.8211 49.7719 28.862 49.2114H23.1831L15.9025 40.8907H14.3111C13.219 40.8907 11.8773 41.2755 11.1909 44.2606L9.11069 52.5813C9.05374 52.8121 8.91947 53.0164 8.73023 53.1602C8.54099 53.304 8.30819 53.3787 8.0706 53.3718Z" fill="#404040"/>
<path d="M41.3532 50.2515H31.9924V48.1713H40.7395L45.836 38.8105H29.4754L25.6166 45.5711L23.8069 44.531L27.9672 37.2504C28.0576 37.0897 28.1889 36.9559 28.3479 36.8627C28.5069 36.7695 28.6878 36.7202 28.8721 36.7199H47.5937C47.7742 36.7199 47.9516 36.7669 48.1085 36.8563C48.2653 36.9457 48.3962 37.0743 48.4882 37.2296C48.5795 37.3877 48.6276 37.567 48.6276 37.7496C48.6276 37.9322 48.5795 38.1115 48.4882 38.2696L42.2477 49.7106C42.1596 49.8717 42.0304 50.0066 41.8733 50.1016C41.7162 50.1966 41.5368 50.2483 41.3532 50.2515Z" fill="#FA4616"/>
<path d="M49.6743 53.3717H16.3914C16.1156 53.3717 15.851 53.2622 15.656 53.0671C15.4609 52.8721 15.3513 52.6075 15.3513 52.3317C15.3513 52.0558 15.4609 51.7913 15.656 51.5962C15.851 51.4011 16.1156 51.2916 16.3914 51.2916H49.6743C49.9501 51.2916 50.2147 51.4011 50.4097 51.5962C50.6048 51.7913 50.7144 52.0558 50.7144 52.3317C50.7144 52.6075 50.6048 52.8721 50.4097 53.0671C50.2147 53.2622 49.9501 53.3717 49.6743 53.3717Z" fill="#404040"/>
<path d="M46.5541 22.1691C45.8459 22.1702 45.145 22.0266 44.4943 21.7473C43.8436 21.4679 43.2568 21.0586 42.7699 20.5444C42.283 20.0302 41.9062 19.422 41.6627 18.757C41.4191 18.0921 41.314 17.3844 41.3536 16.6774V15.2004C41.3536 13.8212 41.9015 12.4984 42.8768 11.5232C43.8521 10.5479 45.1748 10 46.5541 10C47.9333 10 49.2561 10.5479 50.2313 11.5232C51.2066 12.4984 51.7545 13.8212 51.7545 15.2004V16.6878C51.7927 17.394 51.6865 18.1005 51.4423 18.7642C51.1981 19.428 50.8211 20.0349 50.3343 20.548C49.8475 21.061 49.2612 21.4694 48.6113 21.7481C47.9613 22.0269 47.2613 22.1701 46.5541 22.1691V22.1691ZM46.5541 11.7682C46.1176 11.7661 45.6856 11.8556 45.286 12.031C44.8863 12.2063 44.5279 12.4635 44.2338 12.786C43.9398 13.1085 43.7166 13.4891 43.5788 13.9032C43.441 14.3173 43.3916 14.7557 43.4338 15.19V16.6774C43.4338 17.5049 43.7625 18.2986 44.3477 18.8837C44.9329 19.4689 45.7265 19.7976 46.5541 19.7976C47.3816 19.7976 48.1753 19.4689 48.7604 18.8837C49.3456 18.2986 49.6743 17.5049 49.6743 16.6774V15.2004C49.7181 14.7652 49.6698 14.3257 49.5327 13.9104C49.3956 13.495 49.1728 13.1131 48.8785 12.7895C48.5843 12.4658 48.2253 12.2076 47.8249 12.0317C47.4244 11.8558 46.9915 11.766 46.5541 11.7682Z" fill="#404040"/>
<path d="M55.9147 34.6501C55.6785 34.6576 55.4468 34.5844 55.2577 34.4426C55.0687 34.3008 54.9335 34.0989 54.8746 33.8701L52.7944 25.5493C52.0663 22.5539 50.7142 22.169 49.6741 22.169H48.062L40.7814 30.4898H35.1441C35.185 31.0502 35.3913 31.586 35.7369 32.0291C35.9295 32.2204 36.1613 32.3678 36.4162 32.4612C36.6711 32.5545 36.9432 32.5916 37.2139 32.5699H42.9968L47.8956 27.6815C47.9923 27.584 48.1073 27.5067 48.234 27.4539C48.3608 27.4011 48.4967 27.3739 48.634 27.3739C48.7713 27.3739 48.9073 27.4011 49.034 27.4539C49.1608 27.5067 49.2758 27.584 49.3725 27.6815C49.5662 27.8764 49.675 28.14 49.675 28.4148C49.675 28.6896 49.5662 28.9532 49.3725 29.148L43.86 34.6501H37.2139C36.6485 34.6739 36.0846 34.5757 35.5605 34.3621C35.0364 34.1485 34.5645 33.8246 34.1768 33.4124C33.2953 32.2467 32.8934 30.7879 33.0535 29.3353L33.1575 28.4096H39.8557L47.1363 20.0889H49.6949C52.3264 20.0889 54.0737 21.7634 54.8954 25.0501L56.9756 33.3708C57.0058 33.5076 57.008 33.6491 56.9822 33.7868C56.9564 33.9245 56.9031 34.0555 56.8254 34.1721C56.7476 34.2886 56.6472 34.3883 56.53 34.4651C56.4129 34.5419 56.2814 34.5942 56.1435 34.6189L55.9147 34.6501Z" fill="#404040"/>
<path d="M31.9927 31.5299H25.7522C25.5651 31.5304 25.3813 31.4804 25.2202 31.3852C25.0591 31.29 24.9267 31.1532 24.8369 30.989L18.5964 19.548C18.5051 19.3899 18.457 19.2106 18.457 19.028C18.457 18.8454 18.5051 18.6661 18.5964 18.5079C18.6884 18.3527 18.8193 18.224 18.9761 18.1347C19.133 18.0453 19.3104 17.9983 19.4909 17.9983H36.1323C36.3166 17.9986 36.4975 18.0479 36.6565 18.1411C36.8155 18.2343 36.9469 18.3681 37.0372 18.5287L41.1975 25.8094L39.3878 26.8495L35.5498 20.0889H21.259L26.3658 29.4497H31.9927V31.5299Z" fill="#FA4616"/>
</svg>
