<svg width="64" height="64" viewBox="0 0 64 64" fill="none" xmlns="http://www.w3.org/2000/svg">
<path d="M27.8116 45.3402C27.5356 45.3402 27.2709 45.2306 27.0758 45.0354C26.8806 44.8403 26.771 44.5756 26.771 44.2996V39.0967C26.771 38.8208 26.8806 38.5561 27.0758 38.3609C27.2709 38.1658 27.5356 38.0562 27.8116 38.0562C28.0876 38.0562 28.3522 38.1658 28.5474 38.3609C28.7425 38.5561 28.8522 38.8208 28.8522 39.0967V44.2996C28.8522 44.5756 28.7425 44.8403 28.5474 45.0354C28.3522 45.2306 28.0876 45.3402 27.8116 45.3402Z" fill="#404040"/>
<path d="M29.8928 40.1373C24.9708 40.1373 17.5307 34.539 16.3652 29.9917C16.3317 29.8591 16.3247 29.7213 16.3445 29.586C16.3643 29.4507 16.4105 29.3207 16.4806 29.2033C16.5506 29.0859 16.6431 28.9834 16.7528 28.9017C16.8624 28.8201 16.9871 28.7608 17.1196 28.7273C17.2522 28.6939 17.39 28.6868 17.5253 28.7066C17.6606 28.7264 17.7906 28.7727 17.908 28.8427C18.0254 28.9128 18.1279 29.0053 18.2095 29.1149C18.2912 29.2246 18.3504 29.3492 18.3839 29.4818C19.2788 33.0926 25.9281 38.0562 29.8303 38.0562C30.1063 38.0562 30.371 38.1658 30.5661 38.3609C30.7613 38.5561 30.8709 38.8208 30.8709 39.0967C30.8709 39.3727 30.7613 39.6374 30.5661 39.8325C30.371 40.0277 30.1063 40.1373 29.8303 40.1373H29.8928Z" fill="#404040"/>
<path d="M23.6493 51.5837H22.6088C22.3328 51.5837 22.0681 51.4741 21.8729 51.279C21.6778 51.0838 21.5682 50.8191 21.5682 50.5431V48.462C21.5682 48.186 21.6778 47.9213 21.8729 47.7262C22.0681 47.531 22.3328 47.4214 22.6088 47.4214C22.8847 47.4214 23.1494 47.531 23.3446 47.7262C23.5397 47.9213 23.6493 48.186 23.6493 48.462V49.5026C27.3226 49.5026 29.8928 46.7658 29.8928 44.2997C29.8934 44.1075 29.9472 43.9193 30.0482 43.7558C30.1492 43.5923 30.2935 43.46 30.4651 43.3735L31.974 42.6139V37.0156H30.9334C30.6574 37.0156 30.3927 36.906 30.1976 36.7108C30.0025 36.5157 29.8928 36.251 29.8928 35.975V32.8533C29.8928 29.1072 25.564 24.5286 20.5276 24.5286C15.4912 24.5286 11.1624 29.1072 11.1624 32.8533V35.975C11.1624 36.251 11.0527 36.5157 10.8576 36.7108C10.6624 36.906 10.3977 37.0156 10.1218 37.0156H9.08119V42.6139L10.5796 43.3735C10.8265 43.4965 11.0145 43.7124 11.1023 43.9738C11.1902 44.2353 11.1706 44.5209 11.0479 44.7679C10.925 45.0148 10.7091 45.2028 10.4476 45.2906C10.1861 45.3784 9.90052 45.3589 9.6535 45.2362L7.57233 44.1956C7.39914 44.1083 7.25379 43.9744 7.15266 43.8089C7.05153 43.6435 6.99868 43.453 7.00003 43.2591V35.975C7.00003 35.699 7.10966 35.4344 7.3048 35.2392C7.49995 35.0441 7.76463 34.9344 8.04061 34.9344H9.08119V32.8533C9.08119 27.6504 14.742 22.4474 20.5276 22.4474C26.3132 22.4474 31.974 27.6504 31.974 32.8533V34.9344H33.0146C33.2905 34.9344 33.5552 35.0441 33.7504 35.2392C33.9455 35.4344 34.0552 35.699 34.0552 35.975V43.2591C34.0555 43.4541 34.0011 43.6453 33.8981 43.8109C33.795 43.9765 33.6475 44.1098 33.4724 44.1956L31.9324 44.9656C31.5473 48.2747 28.3111 51.5837 23.6493 51.5837Z" fill="#404040"/>
<path d="M39.2581 44.6118C39.0057 44.6119 38.7553 44.5661 38.5193 44.4766C38.1246 44.3267 37.7848 44.0603 37.545 43.7127C37.3053 43.3651 37.1769 42.9529 37.177 42.5307V38.0562H36.1364V35.975H38.2175C38.4935 35.975 38.7582 36.0846 38.9533 36.2798C39.1485 36.4749 39.2581 36.7396 39.2581 37.0156V42.5307L44.7628 36.2872C44.8615 36.1749 44.9832 36.0851 45.1196 36.0241C45.2561 35.963 45.4041 35.9321 45.5536 35.9334H53.8783C54.1543 35.9334 54.4189 35.8237 54.6141 35.6286C54.8092 35.4335 54.9189 35.1688 54.9189 34.8928V15.1217C54.9189 14.8458 54.8092 14.5811 54.6141 14.3859C54.4189 14.1908 54.1543 14.0812 53.8783 14.0812H26.8232C26.5472 14.0812 26.2825 14.1908 26.0874 14.3859C25.8922 14.5811 25.7826 14.8458 25.7826 15.1217V20.3247H23.7014V15.1217C23.7014 14.2938 24.0303 13.4998 24.6158 12.9143C25.2012 12.3289 25.9952 12 26.8232 12H53.8783C54.7062 12 55.5003 12.3289 56.0857 12.9143C56.6711 13.4998 57 14.2938 57 15.1217V34.8928C57 35.7207 56.6711 36.5148 56.0857 37.1002C55.5003 37.6856 54.7062 38.0145 53.8783 38.0145H46.0219L40.871 43.9042C40.6703 44.1329 40.4218 44.3148 40.1431 44.4371C39.8644 44.5593 39.5624 44.619 39.2581 44.6118Z" fill="#FA4616"/>
<path d="M18.436 50.5431C18.2887 50.5425 18.1433 50.5105 18.0093 50.4495C14.7523 48.9823 12.2029 45.361 12.2029 42.2185V38.0562C12.2029 35.3194 15.9178 32.6972 18.1342 31.3756C18.2519 31.29 18.3864 31.23 18.5287 31.1996C18.6711 31.1692 18.8183 31.1689 18.9608 31.199C19.1033 31.229 19.2378 31.2886 19.3558 31.3739C19.4738 31.4592 19.5726 31.5683 19.6458 31.6942C19.719 31.82 19.7649 31.9599 19.7807 32.1046C19.7964 32.2494 19.7817 32.3958 19.7373 32.5345C19.6929 32.6731 19.6199 32.801 19.523 32.9096C19.4261 33.0183 19.3075 33.1055 19.1748 33.1654C16.2299 34.9136 14.2632 36.8803 14.2632 38.0562V42.2185C14.2632 44.5702 16.3444 47.4214 18.8522 48.5556C19.0689 48.6543 19.2452 48.8244 19.3516 49.0374C19.4581 49.2504 19.4882 49.4935 19.4371 49.7261C19.386 49.9586 19.2566 50.1666 19.0706 50.3153C18.8846 50.464 18.6533 50.5444 18.4151 50.5431H18.436Z" fill="#404040"/>
<path d="M46.5421 24.5286H44.4609V26.6098H46.5421V24.5286Z" fill="#404040"/>
<path d="M41.3392 24.5286H39.2581V26.6098H41.3392V24.5286Z" fill="#404040"/>
<path d="M36.1363 24.5286H34.0552V26.6098H36.1363V24.5286Z" fill="#404040"/>
</svg>
