<svg width="64" height="64" viewBox="0 0 64 64" fill="none" xmlns="http://www.w3.org/2000/svg">
<path d="M15.2177 26.798C14.962 26.7935 14.7088 26.7478 14.4678 26.6626C14.0711 26.5119 13.7298 26.2437 13.4898 25.8938C13.2497 25.5439 13.1222 25.129 13.1243 24.7046V20.5388C12.2957 20.5388 11.501 20.2097 10.9151 19.6238C10.3292 19.0378 10 18.2431 10 17.4145V10.1243C10 9.29572 10.3292 8.50104 10.9151 7.91511C11.501 7.32919 12.2957 7 13.1243 7H38.1191C38.9478 7 39.7424 7.32919 40.3284 7.91511C40.9143 8.50104 41.2435 9.29572 41.2435 10.1243V17.4145C41.2435 18.2431 40.9143 19.0378 40.3284 19.6238C39.7424 20.2097 38.9478 20.5388 38.1191 20.5388H21.9038L16.7486 26.1002C16.5585 26.3197 16.3234 26.4956 16.0592 26.616C15.795 26.7364 15.508 26.7985 15.2177 26.798V26.798ZM13.1348 9.09332C12.8585 9.09332 12.5936 9.20306 12.3983 9.39837C12.203 9.59368 12.0933 9.85856 12.0933 10.1348V17.4249C12.0933 17.7011 12.203 17.966 12.3983 18.1614C12.5936 18.3567 12.8585 18.4664 13.1348 18.4664H15.2177V24.7151L21.0081 18.4664H38.1295C38.4058 18.4664 38.6707 18.3567 38.866 18.1614C39.0613 17.966 39.171 17.7011 39.171 17.4249V10.1348C39.171 9.85856 39.0613 9.59368 38.866 9.39837C38.6707 9.20306 38.4058 9.09332 38.1295 9.09332H13.1348Z" fill="#404040"/>
<path d="M49.5646 42.4197C49.2681 42.418 48.9753 42.3531 48.7059 42.2291C48.4365 42.1052 48.1967 41.9252 48.0025 41.7011L42.8681 36.1606H26.6632C25.8345 36.1606 25.0398 35.8314 24.4539 35.2455C23.868 34.6596 23.5388 33.8649 23.5388 33.0362V25.7461C23.5388 24.9175 23.868 24.1228 24.4539 23.5368C25.0398 22.9509 25.8345 22.6217 26.6632 22.6217H51.658C52.4866 22.6217 53.2813 22.9509 53.8672 23.5368C54.4531 24.1228 54.7823 24.9175 54.7823 25.7461V33.0362C54.7823 33.8649 54.4531 34.6596 53.8672 35.2455C53.2813 35.8314 52.4866 36.1606 51.658 36.1606V40.3264C51.6593 40.752 51.5303 41.1678 51.2883 41.5178C51.0462 41.8679 50.7027 42.1354 50.3041 42.2843C50.0669 42.3704 49.8169 42.4162 49.5646 42.4197ZM26.6527 24.7151C26.3765 24.7151 26.1116 24.8248 25.9163 25.0201C25.721 25.2154 25.6113 25.4803 25.6113 25.7565V33.0467C25.6113 33.3229 25.721 33.5878 25.9163 33.7831C26.1116 33.9784 26.3765 34.0881 26.6527 34.0881H43.7638L49.5438 40.3368V34.0881H51.6267C51.9029 34.0881 52.1678 33.9784 52.3631 33.7831C52.5584 33.5878 52.6681 33.3229 52.6681 33.0467V25.7565C52.6681 25.4803 52.5584 25.2154 52.3631 25.0201C52.1678 24.8248 51.9029 24.7151 51.6267 24.7151H26.6527Z" fill="#FA4616"/>
<path d="M15.2072 57C14.9551 56.9946 14.7055 56.9489 14.4678 56.8646C14.0711 56.714 13.7298 56.4458 13.4898 56.0959C13.2497 55.7459 13.1222 55.331 13.1243 54.9067V51.7823C12.2957 51.7823 11.501 51.4532 10.9151 50.8672C10.3292 50.2813 10 49.4866 10 48.658V41.3678C10 40.5392 10.3292 39.7445 10.9151 39.1586C11.501 38.5727 12.2957 38.2435 13.1243 38.2435H38.1191C38.9478 38.2435 39.7424 38.5727 40.3284 39.1586C40.9143 39.7445 41.2435 40.5392 41.2435 41.3678V48.658C41.2435 49.4866 40.9143 50.2813 40.3284 50.8672C39.7424 51.4532 38.9478 51.7823 38.1191 51.7823H21.8517L16.7173 56.3335C16.5243 56.5416 16.2908 56.7081 16.0311 56.8227C15.7714 56.9373 15.4911 56.9977 15.2072 57ZM13.1243 40.3368C12.8481 40.3368 12.5832 40.4465 12.3879 40.6419C12.1926 40.8372 12.0829 41.102 12.0829 41.3783V48.6684C12.0829 48.9446 12.1926 49.2095 12.3879 49.4048C12.5832 49.6001 12.8481 49.7099 13.1243 49.7099H15.2072V54.9171L15.2905 54.8234L21.0602 49.7099H38.1191C38.3953 49.7099 38.6602 49.6001 38.8556 49.4048C39.0509 49.2095 39.1606 48.9446 39.1606 48.6684V41.3783C39.1606 41.102 39.0509 40.8372 38.8556 40.6419C38.6602 40.4465 38.3953 40.3368 38.1191 40.3368H13.1243Z" fill="#404040"/>
</svg>
