<svg width="64" height="64" viewBox="0 0 64 64" fill="none" xmlns="http://www.w3.org/2000/svg">
<path d="M56.9998 56.8888H54.7776V51.3333C54.622 50.7666 52.322 49.111 50.3332 49.111C48.3443 49.111 46.0332 50.7666 45.8887 51.3333V56.8888H43.6665V51.3333C43.6665 49.111 47.5443 46.8888 50.3332 46.8888C53.122 46.8888 56.9998 49.111 56.9998 51.3333V56.8888Z" fill="#FA4616"/>
<path d="M50.3333 49.111C49.7149 49.0931 49.1064 48.9503 48.5446 48.6912C47.9827 48.4321 47.479 48.062 47.0639 47.6032C46.6487 47.1445 46.3306 46.6065 46.1287 46.0216C45.9268 45.4368 45.8452 44.8171 45.8889 44.1999V42.9222C45.8889 41.7434 46.3572 40.613 47.1907 39.7795C48.0241 38.946 49.1546 38.4777 50.3333 38.4777C51.5121 38.4777 52.6425 38.946 53.476 39.7795C54.3095 40.613 54.7778 41.7434 54.7778 42.9222V44.1999C54.8215 44.8171 54.7399 45.4368 54.538 46.0216C54.3361 46.6065 54.018 47.1445 53.6028 47.6032C53.1876 48.062 52.684 48.4321 52.1221 48.6912C51.5603 48.9503 50.9518 49.0931 50.3333 49.111V49.111ZM50.3333 40.2222C50.0065 40.2438 49.6875 40.3321 49.396 40.4816C49.1045 40.6312 48.8467 40.8388 48.6386 41.0918C48.4304 41.3447 48.2762 41.6376 48.1855 41.9524C48.0948 42.2672 48.0695 42.5972 48.1111 42.9222V44.1999C48.1111 44.7893 48.3452 45.3545 48.762 45.7713C49.1787 46.188 49.744 46.4222 50.3333 46.4222C50.9227 46.4222 51.4879 46.188 51.9047 45.7713C52.3214 45.3545 52.5556 44.7893 52.5556 44.1999V42.9222C52.5956 42.5975 52.5691 42.2681 52.4778 41.954C52.3864 41.6398 52.2321 41.3476 52.0242 41.095C51.8163 40.8424 51.5592 40.6348 51.2685 40.4847C50.9778 40.3347 50.6597 40.2453 50.3333 40.2222V40.2222Z" fill="#FA4616"/>
<path d="M35.8888 56.8888H10.3333C9.44927 56.8888 8.60143 56.5376 7.97631 55.9125C7.35119 55.2874 7 54.4395 7 53.5555V36.8888C7 36.0048 7.35119 35.1569 7.97631 34.5318C8.60143 33.9067 9.44927 33.5555 10.3333 33.5555H35.8888C36.7729 33.5555 37.6207 33.9067 38.2459 34.5318C38.871 35.1569 39.2222 36.0048 39.2222 36.8888V41.8888L44.411 45.7777L39.2222 49.6666V53.5555C39.2222 54.4395 38.871 55.2874 38.2459 55.9125C37.6207 56.5376 36.7729 56.8888 35.8888 56.8888ZM10.3333 35.7777C10.0386 35.7777 9.75603 35.8948 9.54766 36.1032C9.33928 36.3115 9.22222 36.5942 9.22222 36.8888V53.5555C9.22222 53.8502 9.33928 54.1328 9.54766 54.3411C9.75603 54.5495 10.0386 54.6666 10.3333 54.6666H35.8888C36.1835 54.6666 36.4661 54.5495 36.6745 54.3411C36.8829 54.1328 36.9999 53.8502 36.9999 53.5555V48.5555L40.6999 45.7777L36.9999 42.9999V36.8888C36.9999 36.5942 36.8829 36.3115 36.6745 36.1032C36.4661 35.8948 36.1835 35.7777 35.8888 35.7777H10.3333Z" fill="#404040"/>
<path d="M20.3333 31.3333H18.1111V25.7778C17.9555 25.2111 15.6555 23.5555 13.6667 23.5555C11.6778 23.5555 9.36666 25.2111 9.22222 25.7778V31.3333H7V25.7778C7 23.5555 10.8778 21.3333 13.6667 21.3333C16.4555 21.3333 20.3333 23.5555 20.3333 25.7778V31.3333Z" fill="#FA4616"/>
<path d="M13.6666 23.5556C13.0481 23.5376 12.4397 23.3948 11.8778 23.1357C11.3159 22.8766 10.8123 22.5065 10.3971 22.0477C9.98195 21.589 9.66384 21.051 9.46193 20.4661C9.26001 19.8813 9.17845 19.2616 9.22216 18.6445V17.3667C9.22216 16.1879 9.69041 15.0575 10.5239 14.224C11.3574 13.3905 12.4879 12.9222 13.6666 12.9222C14.8453 12.9222 15.9758 13.3905 16.8093 14.224C17.6428 15.0575 18.111 16.1879 18.111 17.3667V18.6445C18.1547 19.2616 18.0732 19.8813 17.8713 20.4661C17.6693 21.051 17.3512 21.589 16.9361 22.0477C16.5209 22.5065 16.0172 22.8766 15.4554 23.1357C14.8935 23.3948 14.2851 23.5376 13.6666 23.5556V23.5556ZM13.6666 14.6667C13.3397 14.6883 13.0207 14.7766 12.7292 14.9261C12.4378 15.0757 12.18 15.2833 11.9718 15.5363C11.7636 15.7892 11.6094 16.0821 11.5187 16.3969C11.428 16.7117 11.4027 17.0417 11.4444 17.3667V18.6445C11.4444 19.2338 11.6785 19.799 12.0952 20.2158C12.512 20.6325 13.0772 20.8667 13.6666 20.8667C14.256 20.8667 14.8212 20.6325 15.2379 20.2158C15.6547 19.799 15.8888 19.2338 15.8888 18.6445V17.3667C15.9288 17.042 15.9024 16.7126 15.811 16.3985C15.7197 16.0843 15.5654 15.7921 15.3575 15.5395C15.1496 15.2869 14.8925 15.0793 14.6018 14.9292C14.3111 14.7792 13.9929 14.6899 13.6666 14.6667V14.6667Z" fill="#FA4616"/>
<path d="M53.6666 31.3333H28.1111C27.227 31.3333 26.3792 30.9821 25.7541 30.357C25.1289 29.7319 24.7777 28.884 24.7777 28V24.1111L19.5889 20.2222L24.7777 16.3333V11.3333C24.7777 10.4493 25.1289 9.60143 25.7541 8.97631C26.3792 8.35119 27.227 8 28.1111 8H53.6666C54.5506 8 55.3985 8.35119 56.0236 8.97631C56.6487 9.60143 56.9999 10.4493 56.9999 11.3333V28C56.9999 28.884 56.6487 29.7319 56.0236 30.357C55.3985 30.9821 54.5506 31.3333 53.6666 31.3333ZM23.3555 20.2222L27.0555 23V28C27.0555 28.2946 27.1726 28.5773 27.381 28.7856C27.5893 28.994 27.8719 29.1111 28.1666 29.1111H53.7221C54.0168 29.1111 54.2994 28.994 54.5078 28.7856C54.7162 28.5773 54.8333 28.2946 54.8333 28V11.3333C54.8333 11.0386 54.7162 10.756 54.5078 10.5477C54.2994 10.3393 54.0168 10.2222 53.7221 10.2222H28.1666C27.8719 10.2222 27.5893 10.3393 27.381 10.5477C27.1726 10.756 27.0555 11.0386 27.0555 11.3333V17.4444L23.3555 20.2222Z" fill="#404040"/>
</svg>
