<svg width="64" height="64" viewBox="0 0 64 64" fill="none" xmlns="http://www.w3.org/2000/svg">
<path d="M53.875 47.5209H10.125V21.4792C10.125 20.6504 10.4543 19.8555 11.0403 19.2695C11.6264 18.6834 12.4212 18.3542 13.25 18.3542H20.5417V20.4375H13.25C12.9737 20.4375 12.7088 20.5473 12.5134 20.7426C12.3181 20.938 12.2083 21.2029 12.2083 21.4792V45.4375H51.7917V36.0625H53.875V47.5209Z" fill="#404040"/>
<path d="M51.7917 53.7709H12.2083C10.827 53.7709 9.50225 53.2221 8.5255 52.2454C7.54875 51.2686 7 49.9439 7 48.5625V45.4375H57V48.5625C57 49.9439 56.4513 51.2686 55.4745 52.2454C54.4977 53.2221 53.173 53.7709 51.7917 53.7709V53.7709ZM9.08333 47.5209V48.5625C9.08333 49.3913 9.41259 50.1862 9.99864 50.7722C10.5847 51.3583 11.3795 51.6875 12.2083 51.6875H51.7917C52.6205 51.6875 53.4153 51.3583 54.0014 50.7722C54.5874 50.1862 54.9167 49.3913 54.9167 48.5625V47.5209H9.08333Z" fill="#404040"/>
<path d="M35.1251 48.5417H29.9167V50.625H35.1251V48.5417Z" fill="#404040"/>
<path d="M25.0625 40.875C24.7169 40.8782 24.3759 40.7954 24.0703 40.6339C23.7647 40.4725 23.504 40.2375 23.3118 39.9503C23.1196 39.663 23.0019 39.3324 22.9693 38.9883C22.9367 38.6442 22.9902 38.2975 23.125 37.9792C23.8739 36.0528 24.3982 34.0465 24.6875 32C22.7122 29.8241 21.6007 27.001 21.5625 24.0625C21.5625 16.3125 29.5104 10 39.2708 10C49.0313 10 56.9792 16.3125 56.9792 24.0625C56.9792 31.8125 49.0417 38.125 39.2708 38.125C37.4046 38.1237 35.546 37.8857 33.7396 37.4167C31.2173 39.0015 28.4458 40.1496 25.5416 40.8125C25.3849 40.8519 25.2241 40.8728 25.0625 40.875ZM39.2917 12.1042C30.6771 12.1042 23.6667 17.4792 23.6667 24.0834C23.7105 26.6665 24.7432 29.1345 26.5521 30.9792L26.8854 31.3437L26.8229 31.8229C26.5229 34.2023 25.9317 36.5357 25.0625 38.7708C27.8872 38.1718 30.5732 37.0444 32.9792 35.4479L33.3854 35.1667L33.8646 35.3021C35.63 35.8039 37.4563 36.0598 39.2917 36.0625C47.9167 36.0625 54.9167 30.6875 54.9167 24.0834C54.9167 17.4792 47.9167 12.1042 39.2917 12.1042Z" fill="#FA4616"/>
</svg>
