<svg width="64" height="64" viewBox="0 0 64 64" fill="none" xmlns="http://www.w3.org/2000/svg">
<path d="M27.0213 45.2979C26.8606 45.3 26.7015 45.2657 26.5559 45.1975C26.4104 45.1293 26.2822 45.029 26.1809 44.9042L22.2554 39.9787H19.5745C18.7281 39.9787 17.9163 39.6424 17.3178 39.0439C16.7193 38.4454 16.3831 37.6337 16.3831 36.7872V20.8298C16.3831 19.9834 16.7193 19.1716 17.3178 18.5731C17.9163 17.9746 18.7281 17.6383 19.5745 17.6383H51.4894C52.3359 17.6383 53.1476 17.9746 53.7461 18.5731C54.3446 19.1716 54.6809 19.9834 54.6809 20.8298V36.7872C54.6809 37.6337 54.3446 38.4454 53.7461 39.0439C53.1476 39.6424 52.3359 39.9787 51.4894 39.9787H31.7873L27.8511 44.9042C27.751 45.0276 27.6245 45.1271 27.4809 45.1952C27.3373 45.2633 27.1803 45.2984 27.0213 45.2979ZM19.5745 19.766C19.2924 19.766 19.0218 19.878 18.8223 20.0775C18.6228 20.277 18.5107 20.5477 18.5107 20.8298V36.7872C18.5107 37.0694 18.6228 37.34 18.8223 37.5395C19.0218 37.739 19.2924 37.8511 19.5745 37.8511H22.766C22.9258 37.8518 23.0834 37.8885 23.227 37.9585C23.3707 38.0285 23.4967 38.1299 23.5958 38.2553L27.0213 42.5106L30.4362 38.2553C30.5364 38.1285 30.6642 38.0262 30.8098 37.9562C30.9554 37.8862 31.1151 37.8502 31.2767 37.8511H51.4894C51.7716 37.8511 52.0422 37.739 52.2417 37.5395C52.4412 37.34 52.5532 37.0694 52.5532 36.7872V20.8298C52.5532 20.5477 52.4412 20.277 52.2417 20.0775C52.0422 19.878 51.7716 19.766 51.4894 19.766H19.5745Z" fill="#404040"/>
<path d="M35.5319 57H13.1915C12.3451 57 11.5333 56.6637 10.9348 56.0652C10.3362 55.4667 10 54.6549 10 53.8085V10.1915C10 9.34505 10.3362 8.5333 10.9348 7.93478C11.5333 7.33626 12.3451 7 13.1915 7H35.5319C36.3783 7 37.1901 7.33626 37.7886 7.93478C38.3871 8.5333 38.7234 9.34505 38.7234 10.1915V16.5745H36.5957V10.1915C36.5957 9.90934 36.4836 9.63877 36.2841 9.43926C36.0846 9.23976 35.814 9.12766 35.5319 9.12766H13.1915C12.9093 9.12766 12.6388 9.23976 12.4392 9.43926C12.2397 9.63877 12.1277 9.90934 12.1277 10.1915V53.8085C12.1277 54.0907 12.2397 54.3612 12.4392 54.5607C12.6388 54.7602 12.9093 54.8723 13.1915 54.8723H35.5319C35.814 54.8723 36.0846 54.7602 36.2841 54.5607C36.4836 54.3612 36.5957 54.0907 36.5957 53.8085V41.0426H38.7234V53.8085C38.7234 54.6549 38.3871 55.4667 37.7886 56.0652C37.1901 56.6637 36.3783 57 35.5319 57V57Z" fill="#404040"/>
<path d="M37.6594 48.4894H11.0637V50.617H37.6594V48.4894Z" fill="#404040"/>
<path d="M25.9574 51.6809H22.7659V53.8085H25.9574V51.6809Z" fill="#404040"/>
<path d="M38.7233 29.3404H24.8936V31.4681H38.7233V29.3404Z" fill="#FA4616"/>
<path d="M46.1701 25.0851H24.8936V27.2128H46.1701V25.0851Z" fill="#FA4616"/>
</svg>
