<svg width="64" height="64" viewBox="0 0 64 64" fill="none" xmlns="http://www.w3.org/2000/svg">
<path d="M47.5416 22.625H36.0833V24.7084H47.5416V22.625Z" fill="#FA4616"/>
<path d="M43.3749 26.7917H36.0833V28.875H43.3749V26.7917Z" fill="#FA4616"/>
<path d="M36.0833 47.625H13.1667C12.0616 47.625 11.0018 47.186 10.2204 46.4046C9.43898 45.6232 9 44.5634 9 43.4583V20.5417C9 19.4366 9.43898 18.3768 10.2204 17.5954C11.0018 16.814 12.0616 16.375 13.1667 16.375H28.7917V18.4583H13.1667C12.6141 18.4583 12.0842 18.6778 11.6935 19.0685C11.3028 19.4592 11.0833 19.9892 11.0833 20.5417V43.4583C11.0833 44.0109 11.3028 44.5408 11.6935 44.9315C12.0842 45.3222 12.6141 45.5417 13.1667 45.5417H36.0833C36.6359 45.5417 37.1658 45.3222 37.5565 44.9315C37.9472 44.5408 38.1666 44.0109 38.1666 43.4583V38.25H40.25V43.4583C40.25 44.5634 39.811 45.6232 39.0296 46.4046C38.2482 47.186 37.1884 47.625 36.0833 47.625Z" fill="#404040"/>
<path d="M14.2083 17.4167H12.125V10.125C12.125 9.2962 12.4543 8.50136 13.0403 7.9153C13.6264 7.32925 14.4212 7 15.25 7H34C34.8288 7 35.6237 7.32925 36.2097 7.9153C36.7958 8.50136 37.125 9.2962 37.125 10.125V13.25H35.0417V10.125C35.0417 9.84873 34.9319 9.58379 34.7366 9.38844C34.5412 9.19309 34.2763 9.08333 34 9.08333H15.25C14.9737 9.08333 14.7088 9.19309 14.5134 9.38844C14.3181 9.58379 14.2083 9.84873 14.2083 10.125V17.4167Z" fill="#404040"/>
<path d="M34 57H15.25C14.4212 57 13.6264 56.6707 13.0403 56.0847C12.4543 55.4986 12.125 54.7038 12.125 53.875V46.5833H14.2083V53.875C14.2083 54.1513 14.3181 54.4162 14.5134 54.6116C14.7088 54.8069 14.9737 54.9167 15.25 54.9167H34C34.2763 54.9167 34.5412 54.8069 34.7366 54.6116C34.9319 54.4162 35.0417 54.1513 35.0417 53.875V46.5833H37.125V53.875C37.125 54.7038 36.7958 55.4986 36.2097 56.0847C35.6237 56.6707 34.8288 57 34 57Z" fill="#404040"/>
<path d="M30.8126 39.6042C30.5619 39.6028 30.3143 39.5483 30.0862 39.4441C29.8582 39.34 29.6548 39.1886 29.4897 39C29.2799 38.7555 29.1417 38.4579 29.0902 38.14C29.0388 37.822 29.0761 37.496 29.198 37.1979C29.805 35.645 30.1907 34.0144 30.3438 32.3541C28.6998 30.5454 27.7801 28.1942 27.7605 25.75C27.7605 19.4375 34.0626 14.2917 41.823 14.2917C49.5834 14.2917 55.8855 19.4375 55.8855 25.75C55.8855 32.0625 49.573 37.2083 41.823 37.2083C40.4001 37.2082 38.9828 37.0297 37.6042 36.6771C35.6999 38.0708 33.5247 39.0502 31.2188 39.5521C31.0858 39.5847 30.9495 39.6022 30.8126 39.6042V39.6042ZM41.823 16.375C35.2188 16.375 29.8438 20.5417 29.8438 25.75C29.8763 27.8263 30.7127 29.8091 32.1772 31.2813L32.4792 31.6042V32.0625C32.3591 33.8726 31.9874 35.657 31.3751 37.3646C33.3198 36.8802 35.1383 35.9851 36.7084 34.7395L37.1355 34.375L37.6771 34.5313C39.0308 34.9258 40.4338 35.1257 41.8438 35.125C48.448 35.125 53.823 30.9584 53.823 25.75C53.823 20.5417 48.4167 16.375 41.8126 16.375H41.823Z" fill="#FA4616"/>
</svg>
