<svg width="64" height="64" viewBox="0 0 64 64" fill="none" xmlns="http://www.w3.org/2000/svg">
<path d="M49.7069 45.9763C49.4287 45.9751 49.1535 45.9183 48.8976 45.8092C48.6418 45.7 48.4103 45.5407 48.217 45.3407L41.2468 38.1309H29.9111C28.5295 38.1309 27.2044 37.582 26.2275 36.6051C25.2505 35.6281 24.7017 34.3031 24.7017 32.9214V15.2094C24.7017 13.8278 25.2505 12.5027 26.2275 11.5258C27.2044 10.5488 28.5295 10 29.9111 10H51.7906C53.1723 10 54.4973 10.5488 55.4743 11.5258C56.4512 12.5027 57.0001 13.8278 57.0001 15.2094V32.9214C57.0001 34.3031 56.4512 35.6281 55.4743 36.6051C54.4973 37.582 53.1723 38.1309 51.7906 38.1309V43.8925C51.7906 44.4451 51.5711 44.9751 51.1803 45.3659C50.7895 45.7567 50.2595 45.9763 49.7069 45.9763V45.9763ZM29.9111 12.0838C29.0821 12.0838 28.2871 12.4131 27.7009 12.9992C27.1148 13.5854 26.7854 14.3804 26.7854 15.2094V32.9214C26.7854 33.7504 27.1148 34.5454 27.7009 35.1316C28.2871 35.7178 29.0821 36.0471 29.9111 36.0471H41.6948C41.8351 36.0476 41.9739 36.0765 42.1028 36.132C42.2317 36.1875 42.3481 36.2685 42.4449 36.3701L49.7381 43.8925V37.089C49.7381 36.8127 49.8479 36.5476 50.0433 36.3522C50.2387 36.1569 50.5037 36.0471 50.78 36.0471H51.8219C52.6509 36.0471 53.4459 35.7178 54.0321 35.1316C54.6183 34.5454 54.9476 33.7504 54.9476 32.9214V15.2094C54.9476 14.3804 54.6183 13.5854 54.0321 12.9992C53.4459 12.4131 52.6509 12.0838 51.8219 12.0838H29.9111Z" fill="#404040"/>
<path d="M14.2932 54.3113C13.7405 54.3113 13.2105 54.0918 12.8197 53.701C12.429 53.3102 12.2094 52.7802 12.2094 52.2276V46.4659C10.8278 46.4659 9.50274 45.9171 8.52578 44.9401C7.54883 43.9632 7 42.6381 7 41.2565V24.5864C7 23.2047 7.54883 21.8797 8.52578 20.9027C9.50274 19.9258 10.8278 19.377 12.2094 19.377H23.6701V21.4607H12.2094C11.3804 21.4607 10.5854 21.79 9.99923 22.3762C9.41306 22.9624 9.08377 23.7574 9.08377 24.5864V41.2565C9.08377 42.0855 9.41306 42.8805 9.99923 43.4667C10.5854 44.0528 11.3804 44.3822 12.2094 44.3822H13.2513C13.5276 44.3822 13.7926 44.4919 13.988 44.6873C14.1834 44.8827 14.2932 45.1477 14.2932 45.4241V52.2276L21.5864 44.7051C21.6832 44.6036 21.7996 44.5226 21.9285 44.4671C22.0574 44.4116 22.1962 44.3827 22.3365 44.3822H32.026C32.855 44.3822 33.6501 44.0528 34.2362 43.4667C34.8224 42.8805 35.1517 42.0855 35.1517 41.2565V39.1727H37.2355V41.2565C37.2355 42.6381 36.6866 43.9632 35.7096 44.9401C34.7327 45.9171 33.4077 46.4659 32.026 46.4659H22.7741L15.8143 53.6758C15.6173 53.8796 15.3808 54.0411 15.1193 54.1504C14.8577 54.2596 14.5766 54.3144 14.2932 54.3113Z" fill="#404040"/>
<path d="M49.7069 17.2932H31.9949V19.377H49.7069V17.2932Z" fill="#FA4616"/>
<path d="M49.7069 22.5026H31.9949V24.5864H49.7069V22.5026Z" fill="#FA4616"/>
<path d="M40.3299 27.712H31.9949V29.7958H40.3299V27.712Z" fill="#FA4616"/>
</svg>
