<svg width="64" height="64" viewBox="0 0 64 64" fill="none" xmlns="http://www.w3.org/2000/svg">
<path d="M43.4443 44.5887C43.2174 44.5898 42.9919 44.5522 42.7776 44.4776C42.328 44.3362 41.9349 44.0555 41.6553 43.676C41.3756 43.2965 41.2239 42.8379 41.2221 42.3665V35.8888H38.9999V33.6665H43.4443V42.3665L49.5332 33.6665H52.3331C52.6278 33.6665 52.9104 33.5495 53.1188 33.3411C53.3272 33.1328 53.4442 32.8501 53.4442 32.5554V10.3333C53.4442 10.0386 53.3272 9.75604 53.1188 9.54766C52.9104 9.33929 52.6278 9.22221 52.3331 9.22221H12.3333C12.0386 9.22221 11.756 9.33929 11.5477 9.54766C11.3393 9.75604 11.2222 10.0386 11.2222 10.3333V32.5554C11.2222 32.8501 11.3393 33.1328 11.5477 33.3411C11.756 33.5495 12.0386 33.6665 12.3333 33.6665H14.5555V35.8888H12.3333C11.4493 35.8888 10.6014 35.5376 9.97631 34.9125C9.35119 34.2874 9 33.4395 9 32.5554V10.3333C9 9.44927 9.35119 8.60144 9.97631 7.97632C10.6014 7.3512 11.4493 7 12.3333 7H52.3331C53.2172 7 54.065 7.3512 54.6901 7.97632C55.3153 8.60144 55.6665 9.44927 55.6665 10.3333V32.5554C55.6665 33.4395 55.3153 34.2874 54.6901 34.9125C54.065 35.5376 53.2172 35.8888 52.3331 35.8888H50.6887L45.2665 43.6665C45.0586 43.9547 44.7847 44.1889 44.4676 44.3493C44.1506 44.5098 43.7996 44.5919 43.4443 44.5887Z" fill="#404040"/>
<path d="M28.9998 21.4444H26.7776V23.6666H28.9998V21.4444Z" fill="#FA4616"/>
<path d="M33.4444 21.4444H31.2222V23.6666H33.4444V21.4444Z" fill="#FA4616"/>
<path d="M37.8887 21.4444H35.6665V23.6666H37.8887V21.4444Z" fill="#FA4616"/>
<path d="M31.7777 43.6665C31.0933 43.6451 30.4199 43.4879 29.7968 43.204C29.1736 42.9201 28.6131 42.5151 28.1479 42.0126C27.6827 41.5102 27.3219 40.9202 27.0867 40.2771C26.8515 39.634 26.7465 38.9506 26.7777 38.2665V36.8332C26.732 36.1486 26.8275 35.4618 27.0581 34.8156C27.2887 34.1693 27.6495 33.5773 28.1183 33.0763C28.5871 32.5752 29.1537 32.1757 29.7832 31.9026C30.4127 31.6295 31.0915 31.4886 31.7777 31.4886C32.4639 31.4886 33.1427 31.6295 33.7722 31.9026C34.4016 32.1757 34.9683 32.5752 35.4371 33.0763C35.9058 33.5773 36.2667 34.1693 36.4973 34.8156C36.7279 35.4618 36.8233 36.1486 36.7777 36.8332V38.3221C36.8014 39.0016 36.6908 39.6791 36.4522 40.3158C36.2135 40.9524 35.8516 41.5357 35.3871 42.0322C34.9226 42.5287 34.3647 42.9287 33.7453 43.2091C33.1259 43.4896 32.4573 43.645 31.7777 43.6665ZM31.7777 33.6665C31.3863 33.6891 31.0033 33.7892 30.6511 33.9612C30.2988 34.1332 29.9842 34.3735 29.7257 34.6682C29.4672 34.9629 29.2699 35.3061 29.1453 35.6778C29.0207 36.0495 28.9713 36.4422 28.9999 36.8332V38.3221C28.95 38.7164 28.9845 39.1167 29.1012 39.4966C29.218 39.8765 29.4143 40.2272 29.677 40.5254C29.9398 40.8235 30.263 41.0624 30.6252 41.226C30.9874 41.3895 31.3803 41.4741 31.7777 41.4741C32.1751 41.4741 32.568 41.3895 32.9302 41.226C33.2924 41.0624 33.6156 40.8235 33.8784 40.5254C34.1411 40.2272 34.3374 39.8765 34.4541 39.4966C34.5709 39.1167 34.6054 38.7164 34.5555 38.3221V36.8887C34.5919 36.4934 34.5483 36.0947 34.4273 35.7165C34.3062 35.3383 34.1102 34.9884 33.8509 34.6877C33.5917 34.3869 33.2745 34.1415 32.9183 33.9661C32.5621 33.7906 32.1741 33.6888 31.7777 33.6665V33.6665Z" fill="#404040"/>
<path d="M38.9999 56.9998C38.7052 56.9998 38.4226 56.8827 38.2142 56.6744C38.0058 56.466 37.8888 56.1833 37.8888 55.8887V48.1109C37.8888 46.9322 37.4205 45.8017 36.587 44.9682C35.7535 44.1347 34.6231 43.6665 33.4443 43.6665H27.8888C27.7418 43.6659 27.5964 43.6361 27.461 43.5789C27.3256 43.5217 27.2028 43.4382 27.0999 43.3332L22.6555 38.8888C22.5343 38.7669 22.443 38.6185 22.3888 38.4554L20.4555 32.6777C19.5111 33.011 19.0222 34.0554 19 35.7776L20.0222 40.8887L26.4555 47.322C26.5585 47.4259 26.6399 47.549 26.6952 47.6844C26.7505 47.8197 26.7786 47.9647 26.7777 48.1109V55.8887C26.7777 56.1833 26.6607 56.466 26.4523 56.6744C26.2439 56.8827 25.9613 56.9998 25.6666 56.9998C25.3719 56.9998 25.0893 56.8827 24.8809 56.6744C24.6726 56.466 24.5555 56.1833 24.5555 55.8887V48.5665L18.2111 42.2221C18.0541 42.0693 17.9492 41.8711 17.9111 41.6554L16.8 36.0999C16.7945 36.0296 16.7945 35.959 16.8 35.8888C16.8 32.4554 18.5 30.3332 21.2444 30.3332C21.4773 30.3326 21.7046 30.4053 21.894 30.5408C22.0834 30.6764 22.2254 30.8681 22.3 31.0888L24.4333 37.511L28.3666 41.4443H33.4666C35.2347 41.4443 36.9304 42.1467 38.1806 43.3969C39.4308 44.6471 40.1332 46.3428 40.1332 48.1109V55.8887C40.1332 56.0365 40.1038 56.1828 40.0466 56.3191C39.9893 56.4553 39.9055 56.5788 39.8 56.6823C39.6944 56.7858 39.5693 56.8671 39.4319 56.9216C39.2945 56.9762 39.1477 57.0027 38.9999 56.9998Z" fill="#404040"/>
</svg>
