<svg width="64" height="64" viewBox="0 0 64 64" fill="none" xmlns="http://www.w3.org/2000/svg">
<path d="M42.3334 50.75H40.2501V47.625C40.2501 45.8333 35.5105 44.5 32.4376 44.5C29.3647 44.5 24.6251 45.8333 24.6251 47.625V50.75H22.5417V47.625C22.5417 43.7188 29.3334 42.4167 32.4376 42.4167C35.5417 42.4167 42.3334 43.7188 42.3334 47.625V50.75Z" fill="#404040"/>
<path d="M32.4374 41.3437C31.794 41.335 31.1591 41.196 30.571 40.935C29.9829 40.674 29.4538 40.2964 29.0156 39.8252C28.5775 39.354 28.2395 38.7988 28.0219 38.1933C27.8044 37.5877 27.7118 36.9444 27.7499 36.3021V34.9583C27.7071 34.3165 27.7966 33.6727 28.0128 33.0668C28.2289 32.4609 28.5673 31.9059 29.0067 31.4362C29.4462 30.9664 29.9775 30.5919 30.5676 30.3359C31.1577 30.0799 31.7941 29.9478 32.4374 29.9478C33.0807 29.9478 33.7171 30.0799 34.3073 30.3359C34.8974 30.5919 35.4286 30.9664 35.8681 31.4362C36.3076 31.9059 36.6459 32.4609 36.8621 33.0668C37.0783 33.6727 37.1677 34.3165 37.1249 34.9583V36.3021C37.1615 36.9441 37.0679 37.5868 36.8498 38.1917C36.6318 38.7966 36.2936 39.3511 35.8558 39.822C35.418 40.2929 34.8894 40.6705 34.302 40.932C33.7146 41.1935 33.0803 41.3336 32.4374 41.3437ZM32.4374 31.9687C32.0676 31.9783 31.7037 32.0642 31.3685 32.2209C31.0334 32.3776 30.7342 32.6019 30.4897 32.8796C30.2453 33.1573 30.0607 33.4825 29.9478 33.8348C29.8348 34.1872 29.7958 34.559 29.8333 34.9271V36.2708C29.7864 36.6405 29.8188 37.0158 29.9282 37.372C30.0377 37.7281 30.2217 38.0569 30.468 38.3364C30.7144 38.616 31.0174 38.8399 31.3569 38.9932C31.6965 39.1466 32.0648 39.2259 32.4374 39.2259C32.81 39.2259 33.1783 39.1466 33.5179 38.9932C33.8575 38.8399 34.1605 38.616 34.4068 38.3364C34.6532 38.0569 34.8372 37.7281 34.9466 37.372C35.056 37.0158 35.0884 36.6405 35.0416 36.2708V34.9271C35.0744 34.5615 35.0321 34.193 34.917 33.8444C34.802 33.4958 34.6167 33.1744 34.3727 32.9002C34.1287 32.6259 33.8311 32.4045 33.4983 32.2497C33.1654 32.0949 32.8044 32.0099 32.4374 32V31.9687Z" fill="#404040"/>
<path d="M16.8124 43.4167C16.1676 43.4066 15.5316 43.266 14.9427 43.0032C14.3538 42.7404 13.8243 42.3609 13.3862 41.8878C12.948 41.4146 12.6104 40.8575 12.3936 40.2501C12.1768 39.6428 12.0854 38.9978 12.1249 38.3542V37.0104C12.0821 36.3686 12.1716 35.7248 12.3878 35.1189C12.6039 34.513 12.9423 33.958 13.3817 33.4883C13.8212 33.0185 14.3525 32.644 14.9426 32.388C15.5327 32.132 16.1691 31.9998 16.8124 31.9998C17.4557 31.9998 18.0921 32.132 18.6823 32.388C19.2724 32.644 19.8036 33.0185 20.2431 33.4883C20.6826 33.958 21.0209 34.513 21.2371 35.1189C21.4533 35.7248 21.5427 36.3686 21.4999 37.0104V38.3542C21.5379 38.9975 21.4455 39.6419 21.2282 40.2486C21.0109 40.8553 20.6731 41.4118 20.2353 41.8846C19.7974 42.3575 19.2685 42.7369 18.6803 43.0002C18.0921 43.2635 17.4568 43.4051 16.8124 43.4167V43.4167ZM16.8124 34.0417C16.4421 34.0527 16.078 34.1398 15.7428 34.2977C15.4076 34.4556 15.1086 34.6808 14.8643 34.9593C14.6199 35.2378 14.4356 35.5637 14.3227 35.9166C14.2099 36.2695 14.1709 36.6418 14.2083 37.0104V38.3542C14.1614 38.7238 14.1938 39.0992 14.3032 39.4553C14.4127 39.8115 14.5967 40.1402 14.843 40.4198C15.0894 40.6993 15.3924 40.9232 15.7319 41.0766C16.0715 41.2299 16.4398 41.3092 16.8124 41.3092C17.185 41.3092 17.5533 41.2299 17.8929 41.0766C18.2325 40.9232 18.5355 40.6993 18.7818 40.4198C19.0282 40.1402 19.2122 39.8115 19.3216 39.4553C19.431 39.0992 19.4634 38.7238 19.4166 38.3542V37.0104C19.4539 36.6418 19.415 36.2695 19.3021 35.9166C19.1893 35.5637 19.0049 35.2378 18.7606 34.9593C18.5163 34.6808 18.2172 34.4556 17.882 34.2977C17.5469 34.1398 17.1828 34.0527 16.8124 34.0417V34.0417Z" fill="#404040"/>
<path d="M48.0624 43.4167C47.4176 43.4066 46.7816 43.266 46.1927 43.0032C45.6038 42.7404 45.0743 42.3609 44.6362 41.8878C44.198 41.4146 43.8604 40.8575 43.6436 40.2501C43.4268 39.6428 43.3354 38.9978 43.3749 38.3542V37.0104C43.3321 36.3686 43.4216 35.7248 43.6378 35.1189C43.8539 34.513 44.1923 33.958 44.6317 33.4883C45.0712 33.0185 45.6025 32.644 46.1926 32.388C46.7827 32.132 47.4191 31.9998 48.0624 31.9998C48.7057 31.9998 49.3421 32.132 49.9323 32.388C50.5224 32.644 51.0536 33.0185 51.4931 33.4883C51.9326 33.958 52.2709 34.513 52.4871 35.1189C52.7033 35.7248 52.7927 36.3686 52.7499 37.0104V38.3542C52.7879 38.9975 52.6955 39.6419 52.4782 40.2486C52.2609 40.8553 51.9231 41.4118 51.4853 41.8846C51.0474 42.3575 50.5185 42.7369 49.9303 43.0002C49.3421 43.2635 48.7068 43.4051 48.0624 43.4167V43.4167ZM48.0624 34.0417C47.6921 34.0527 47.328 34.1398 46.9928 34.2977C46.6576 34.4556 46.3586 34.6808 46.1143 34.9593C45.8699 35.2378 45.6856 35.5637 45.5727 35.9166C45.4599 36.2695 45.4209 36.6418 45.4583 37.0104V38.3542C45.4114 38.7238 45.4438 39.0992 45.5532 39.4553C45.6627 39.8115 45.8467 40.1402 46.093 40.4198C46.3394 40.6993 46.6424 40.9232 46.9819 41.0766C47.3215 41.2299 47.6898 41.3092 48.0624 41.3092C48.435 41.3092 48.8033 41.2299 49.1429 41.0766C49.4825 40.9232 49.7855 40.6993 50.0318 40.4198C50.2782 40.1402 50.4622 39.8115 50.5716 39.4553C50.681 39.0992 50.7134 38.7238 50.6666 38.3542V37.0104C50.7039 36.6418 50.665 36.2695 50.5521 35.9166C50.4393 35.5637 50.2549 35.2378 50.0106 34.9593C49.7663 34.6808 49.4672 34.4556 49.132 34.2977C48.7969 34.1398 48.4328 34.0527 48.0624 34.0417V34.0417Z" fill="#404040"/>
<path d="M55.8751 57H53.7918V48.6667C53.7918 48.1141 53.5723 47.5842 53.1816 47.1935C52.7909 46.8028 52.261 46.5833 51.7084 46.5833H49.0105L43.8022 51.7917H38.1772C38.2202 52.3494 38.4267 52.882 38.7709 53.3229C38.9617 53.5181 39.1931 53.6688 39.4488 53.7643C39.7045 53.8597 39.9781 53.8975 40.2501 53.875H46.0626L49.9272 49.9896L51.4063 51.4583L46.9376 55.9583H40.2501C39.6841 55.9849 39.1192 55.8868 38.5953 55.6707C38.0715 55.4547 37.6016 55.1262 37.2188 54.7083C36.3278 53.549 35.9242 52.0878 36.0939 50.6354L36.1876 49.7083H42.948L48.1563 44.5H51.7084C52.8135 44.5 53.8733 44.939 54.6547 45.7204C55.4361 46.5018 55.8751 47.5616 55.8751 48.6667V57Z" fill="#404040"/>
<path d="M11.0833 57H9V48.6667C9 47.5616 9.43898 46.5018 10.2204 45.7204C11.0018 44.939 12.0616 44.5 13.1667 44.5H16.7188L21.9271 49.7083H28.6875L28.7812 50.6354C28.9509 52.0878 28.5473 53.549 27.6563 54.7083C27.2735 55.1262 26.8036 55.4547 26.2798 55.6707C25.7559 55.8868 25.191 55.9849 24.625 55.9583H17.9375L13.4792 51.4583L14.9583 49.9896L18.8125 53.875H24.5625C24.8345 53.8975 25.1081 53.8597 25.3638 53.7643C25.6195 53.6688 25.851 53.5181 26.0417 53.3229C26.3859 52.882 26.5924 52.3494 26.6354 51.7917H21.0104L15.8021 46.5833H13.1042C12.5516 46.5833 12.0217 46.8028 11.631 47.1935C11.2403 47.5842 11.0208 48.1141 11.0208 48.6667L11.0833 57Z" fill="#404040"/>
<path d="M48.5833 53.875H46.5V57H48.5833V53.875Z" fill="#404040"/>
<path d="M18.3751 53.875H16.2917V57H18.3751V53.875Z" fill="#404040"/>
<path d="M40.25 53.875H24.625V55.9583H40.25V53.875Z" fill="#404040"/>
<path d="M41.2813 33.3542C40.9822 33.3527 40.6868 33.2868 40.4154 33.161C40.144 33.0351 39.9029 32.8524 39.7084 32.625L35.6043 27.8333H19.4167C18.5879 27.8333 17.7931 27.5041 17.2071 26.9181C16.621 26.332 16.2917 25.5371 16.2917 24.7083V10.125C16.2917 9.2962 16.621 8.50136 17.2071 7.9153C17.7931 7.32925 18.5879 7 19.4167 7H46.5001C47.3289 7 48.1238 7.32925 48.7098 7.9153C49.2959 8.50136 49.6251 9.2962 49.6251 10.125V24.7083C49.6251 25.5371 49.2959 26.332 48.7098 26.9181C48.1238 27.5041 47.3289 27.8333 46.5001 27.8333H43.3751V31.2604C43.3757 31.6873 43.2451 32.1041 43.001 32.4544C42.757 32.8047 42.4112 33.0715 42.0105 33.2188C41.7779 33.3087 41.5307 33.3546 41.2813 33.3542V33.3542ZM19.4063 9.08333C19.1301 9.08333 18.8651 9.1931 18.6698 9.38845C18.4744 9.5838 18.3647 9.84873 18.3647 10.125V24.7083C18.3647 24.9846 18.4744 25.2496 18.6698 25.4449C18.8651 25.6403 19.1301 25.75 19.4063 25.75H36.5522L41.2813 31.2604V25.75H46.4897C46.7659 25.75 47.0309 25.6403 47.2262 25.4449C47.4216 25.2496 47.5313 24.9846 47.5313 24.7083V10.125C47.5313 9.84873 47.4216 9.5838 47.2262 9.38845C47.0309 9.1931 46.7659 9.08333 46.4897 9.08333H19.4063Z" fill="#FA4616"/>
</svg>
