<svg width="64" height="64" viewBox="0 0 64 64" fill="none" xmlns="http://www.w3.org/2000/svg">
<path d="M51.7917 53.75H8.04167C7.7654 53.75 7.50045 53.6403 7.3051 53.4449C7.10975 53.2496 7 52.9846 7 52.7083V22.5C7 22.2237 7.10975 21.9588 7.3051 21.7634C7.50045 21.5681 7.7654 21.4583 8.04167 21.4583H21.5833V23.5417H9.08333V51.6667H50.75V36.0417H52.8333V52.7083C52.8333 52.9846 52.7236 53.2496 52.5282 53.4449C52.3329 53.6403 52.0679 53.75 51.7917 53.75Z" fill="#404040"/>
<path d="M35.125 42.9062C34.8501 42.9058 34.5779 42.8527 34.3229 42.75C33.9428 42.5914 33.6182 42.3237 33.3901 41.9807C33.1621 41.6377 33.0408 41.2348 33.0417 40.8229V35H29.9167V32.9167H35.125V40.8229L43.0312 32.9167H52.8333C53.3859 32.9167 53.9158 32.6972 54.3065 32.3065C54.6972 31.9158 54.9167 31.3859 54.9167 30.8333V14.1667C54.9167 13.6141 54.6972 13.0842 54.3065 12.6935C53.9158 12.3028 53.3859 12.0833 52.8333 12.0833H26.7917C26.2391 12.0833 25.7092 12.3028 25.3185 12.6935C24.9278 13.0842 24.7083 13.6141 24.7083 14.1667V27.7083H22.625V14.1667C22.625 13.0616 23.064 12.0018 23.8454 11.2204C24.6268 10.439 25.6866 10 26.7917 10H52.8333C53.9384 10 54.9982 10.439 55.7796 11.2204C56.561 12.0018 57 13.0616 57 14.1667V30.8333C57 31.9384 56.561 32.9982 55.7796 33.7796C54.9982 34.561 53.9384 35 52.8333 35H43.8854L36.5937 42.2917C36.2048 42.6829 35.6766 42.9039 35.125 42.9062Z" fill="#404040"/>
<path d="M33.0415 49.5833H30.9582V46.875C30.9582 45.0104 26.0103 43.3333 23.6665 43.3333C21.3228 43.3333 16.3748 45.0104 16.3748 46.875V49.5833H14.2915V46.875C14.2915 42.9479 21.4061 41.25 23.6665 41.25C25.9269 41.25 33.0415 42.9479 33.0415 46.875V49.5833Z" fill="#404040"/>
<path d="M23.6666 40.2187C22.2852 40.2187 20.9605 39.67 19.9837 38.6933C19.007 37.7165 18.4583 36.3917 18.4583 35.0104V33.9687C18.4583 32.5874 19.007 31.2626 19.9837 30.2859C20.9605 29.3091 22.2852 28.7604 23.6666 28.7604C25.0479 28.7604 26.3727 29.3091 27.3494 30.2859C28.3262 31.2626 28.8749 32.5874 28.8749 33.9687V35.0104C28.8749 36.3917 28.3262 37.7165 27.3494 38.6933C26.3727 39.67 25.0479 40.2187 23.6666 40.2187V40.2187ZM23.6666 30.8437C22.8378 30.8437 22.0429 31.173 21.4569 31.759C20.8708 32.3451 20.5416 33.1399 20.5416 33.9687V35.0104C20.5416 35.8392 20.8708 36.6341 21.4569 37.2201C22.0429 37.8062 22.8378 38.1354 23.6666 38.1354C24.4954 38.1354 25.2902 37.8062 25.8763 37.2201C26.4623 36.6341 26.7916 35.8392 26.7916 35.0104V33.9687C26.793 33.5575 26.7131 33.15 26.5567 32.7697C26.4003 32.3893 26.1703 32.0436 25.88 31.7523C25.5897 31.461 25.2447 31.2299 24.8649 31.0722C24.4851 30.9145 24.0778 30.8333 23.6666 30.8333V30.8437Z" fill="#404040"/>
<path d="M48.6666 21.4583H30.9583V23.5417H48.6666V21.4583Z" fill="#FA4616"/>
<path d="M48.6666 17.2917H30.9583V19.375H48.6666V17.2917Z" fill="#FA4616"/>
<path d="M40.3333 25.625H30.9583V27.7083H40.3333V25.625Z" fill="#FA4616"/>
<path d="M9.08333 22.5H7V16.25C7 15.9737 7.10975 15.7088 7.3051 15.5134C7.50045 15.3181 7.7654 15.2083 8.04167 15.2083H21.5833V17.2917H9.08333V22.5Z" fill="#404040"/>
<path d="M13.2501 18.3333H11.1667V20.4166H13.2501V18.3333Z" fill="#404040"/>
<path d="M17.4168 18.3333H15.3335V20.4166H17.4168V18.3333Z" fill="#404040"/>
</svg>
