<svg width="64" height="64" viewBox="0 0 64 64" fill="none" xmlns="http://www.w3.org/2000/svg">
<path d="M24.0454 48.5568C23.7455 48.5563 23.4485 48.4984 23.1704 48.3863C22.7557 48.2133 22.4015 47.9213 22.1528 47.5471C21.904 47.1729 21.7717 46.7334 21.7726 46.2841V41.0909H18.3635C17.7608 41.0909 17.1827 40.8514 16.7565 40.4252C16.3303 39.999 16.0908 39.4209 16.0908 38.8182V22.9091C16.0908 22.3063 16.3303 21.7283 16.7565 21.3021C17.1827 20.8758 17.7608 20.6364 18.3635 20.6364H45.6363C46.239 20.6364 46.8171 20.8758 47.2433 21.3021C47.6695 21.7283 47.909 22.3063 47.909 22.9091V38.8182C47.909 39.4209 47.6695 39.999 47.2433 40.4252C46.8171 40.8514 46.239 41.0909 45.6363 41.0909H32.4658L25.6476 47.9091C25.2197 48.3276 24.6439 48.5603 24.0454 48.5568V48.5568ZM18.3635 22.8863V38.7954H22.909C23.2104 38.7954 23.4994 38.9152 23.7125 39.1283C23.9256 39.3414 24.0454 39.6304 24.0454 39.9318V46.2841L30.8635 39.4659C31.2878 39.0391 31.864 38.798 32.4658 38.7954H45.6363V22.9091L18.3635 22.8863Z" fill="#FA4616"/>
<path d="M32 57C27.0555 57 22.222 55.5338 18.1108 52.7868C13.9995 50.0397 10.7952 46.1352 8.90302 41.5671C7.01083 36.9989 6.51575 31.9723 7.48038 27.1227C8.44501 22.2732 10.826 17.8187 14.3223 14.3224C17.8187 10.826 22.2732 8.44502 27.1228 7.48039C31.9723 6.51576 36.9989 7.0108 41.5671 8.90299C46.1352 10.7952 50.0397 13.9995 52.7867 18.1108C55.5338 22.222 57 27.0555 57 32C57 38.6304 54.3661 44.9892 49.6777 49.6777C44.9893 54.3661 38.6304 57 32 57ZM32 9.27274C27.505 9.27274 23.1109 10.6057 19.3734 13.103C15.6359 15.6003 12.7229 19.1498 11.0027 23.3026C9.28258 27.4555 8.83251 32.0252 9.70945 36.4339C10.5864 40.8425 12.7509 44.8922 15.9294 48.0706C19.1079 51.2491 23.1575 53.4137 27.5661 54.2906C31.9748 55.1675 36.5445 54.7174 40.6973 52.9973C44.8502 51.2771 48.3997 48.3641 50.897 44.6266C53.3943 40.8891 54.7273 36.495 54.7273 32C54.7273 25.9724 52.3328 20.1916 48.0706 15.9294C43.8084 11.6672 38.0277 9.27274 32 9.27274V9.27274Z" fill="#404040"/>
<path d="M15.9298 14.3061L14.3228 15.9131L48.071 49.6614L49.6781 48.0543L15.9298 14.3061Z" fill="#404040"/>
</svg>
