<svg width="64" height="64" viewBox="0 0 64 64" fill="none" xmlns="http://www.w3.org/2000/svg">
<path d="M28.0938 48.6667C27.9464 48.666 27.8008 48.634 27.6667 48.5729C27.4533 48.4764 27.2787 48.3109 27.171 48.103C27.0633 47.8951 27.0287 47.657 27.0729 47.4271L28.8229 38.25H23.7917C23.5954 38.2494 23.4032 38.1934 23.2373 38.0883C23.0714 37.9833 22.9386 37.8335 22.8542 37.6562C22.781 37.4871 22.754 37.3015 22.776 37.1185C22.7979 36.9355 22.8681 36.7616 22.9792 36.6146L34.5521 22.0312C34.7005 21.85 34.9057 21.724 35.1345 21.6738C35.3633 21.6235 35.6024 21.6518 35.8132 21.7542C36.0239 21.8565 36.194 22.0269 36.2959 22.2379C36.3979 22.4488 36.4257 22.6879 36.375 22.9167L34.1979 32.0521H39.1667C39.3601 32.0521 39.5498 32.1059 39.7143 32.2076C39.8789 32.3093 40.0119 32.4549 40.0984 32.6279C40.1849 32.8009 40.2215 32.9946 40.2041 33.1873C40.1868 33.38 40.1161 33.564 40 33.7187L28.9167 48.3021C28.8155 48.4205 28.6891 48.5147 28.5466 48.5778C28.4042 48.6409 28.2495 48.6713 28.0938 48.6667V48.6667ZM25.9479 36.1667H30.1146C30.2698 36.1638 30.4236 36.1957 30.5649 36.2599C30.7061 36.3242 30.8313 36.4192 30.9311 36.538C31.0309 36.6568 31.103 36.7964 31.1419 36.9466C31.1809 37.0969 31.1858 37.2539 31.1563 37.4062L30 43.4583L37.125 34.0833H32.9584C32.8019 34.0826 32.6476 34.0466 32.5069 33.9781C32.3663 33.9096 32.2429 33.8103 32.1459 33.6875C32.0467 33.5632 31.9773 33.4178 31.943 33.2625C31.9087 33.1072 31.9104 32.9462 31.9479 32.7917L33.3438 26.9479L25.9479 36.1667Z" fill="#FA4616"/>
<path d="M43.0417 57H20.125C19.2962 57 18.5013 56.6708 17.9153 56.0847C17.3292 55.4987 17 54.7038 17 53.875V15.3333C17 14.5045 17.3292 13.7097 17.9153 13.1236C18.5013 12.5376 19.2962 12.2083 20.125 12.2083H43.0417C43.8705 12.2083 44.6653 12.5376 45.2514 13.1236C45.8374 13.7097 46.1667 14.5045 46.1667 15.3333V53.875C46.1667 54.7038 45.8374 55.4987 45.2514 56.0847C44.6653 56.6708 43.8705 57 43.0417 57V57ZM20.125 14.2917C19.8487 14.2917 19.5838 14.4014 19.3884 14.5968C19.1931 14.7921 19.0833 15.0571 19.0833 15.3333V53.875C19.0833 54.1513 19.1931 54.4162 19.3884 54.6116C19.5838 54.8069 19.8487 54.9167 20.125 54.9167H43.0417C43.3179 54.9167 43.5829 54.8069 43.7782 54.6116C43.9736 54.4162 44.0833 54.1513 44.0833 53.875V15.3333C44.0833 15.0571 43.9736 14.7921 43.7782 14.5968C43.5829 14.4014 43.3179 14.2917 43.0417 14.2917H20.125Z" fill="#404040"/>
<path d="M37.8332 14.2917C37.5569 14.2917 37.292 14.1819 37.0966 13.9866C36.9012 13.7912 36.7915 13.5263 36.7915 13.25V9.08333H26.3748V13.25C26.3748 13.5263 26.2651 13.7912 26.0697 13.9866C25.8744 14.1819 25.6094 14.2917 25.3332 14.2917C25.0569 14.2917 24.792 14.1819 24.5966 13.9866C24.4012 13.7912 24.2915 13.5263 24.2915 13.25V9.08333C24.2915 8.5308 24.511 8.00089 24.9017 7.61019C25.2924 7.21949 25.8223 7 26.3748 7H36.7915C37.344 7 37.8739 7.21949 38.2646 7.61019C38.6553 8.00089 38.8748 8.5308 38.8748 9.08333V13.25C38.8748 13.5263 38.7651 13.7912 38.5697 13.9866C38.3744 14.1819 38.1094 14.2917 37.8332 14.2917Z" fill="#404040"/>
</svg>
