<svg width="64" height="64" viewBox="0 0 64 64" fill="none" xmlns="http://www.w3.org/2000/svg">
<path d="M30.9939 24.6914H15.3457V26.7779H30.9939V24.6914Z" fill="#404040"/>
<path d="M22.6482 33.0371H7V35.1236H22.6482V33.0371Z" fill="#404040"/>
<path d="M27.8645 41.3829H12.2163V43.4693H27.8645V41.3829Z" fill="#404040"/>
<path d="M43.5127 14.2593H38.2966V12.1729H41.4263V10.0864H33.0806V12.1729H36.2102V14.2593H30.9941V8H43.5127V14.2593Z" fill="#404040"/>
<path d="M37.2532 55.9879H21.605V53.9014H37.2532C41.7635 53.8689 46.0919 52.1191 49.3577 49.008C52.6235 45.897 54.5812 41.6585 54.8324 37.155C55.0836 32.6516 53.6095 28.2217 50.71 24.7667C47.8105 21.3117 43.7036 19.0913 39.2249 18.5573L38.2964 18.453V15.3234H40.3828V16.6274C45.2897 17.4311 49.7152 20.0497 52.7817 23.9638C55.8482 27.8778 57.3316 32.8014 56.9376 37.758C56.5437 42.7146 54.3013 47.3421 50.6551 50.7227C47.009 54.1033 42.2254 55.9901 37.2532 56.0087V55.9879Z" fill="#404040"/>
<path d="M25.1412 51.8776C23.1096 50.2894 21.4084 48.319 20.1338 46.0773L21.9385 45.0341C23.093 47.0546 24.6352 48.8272 26.4765 50.2502L25.1412 51.8776Z" fill="#404040"/>
<path d="M18.5378 42.6973C17.9352 40.9475 17.584 39.1211 17.4946 37.2726L19.5811 37.1578C19.6695 38.8121 19.9927 40.4454 20.5408 42.0088L18.5378 42.6973Z" fill="#404040"/>
<path d="M19.6333 34.1951L17.5469 33.9656C17.755 32.0702 18.2364 30.2149 18.9761 28.4574L20.906 29.2711C20.2442 30.8417 19.8154 32.5005 19.6333 34.1951V34.1951Z" fill="#404040"/>
<path d="M22.4814 26.371L20.7393 25.213C22.2546 22.9316 24.2262 20.9889 26.5299 19.5076C28.8335 18.0263 31.4192 17.0385 34.1237 16.6065V15.3025H36.2101V18.4321L35.2817 18.5365C32.7033 18.8209 30.2194 19.6705 28.0069 21.0247C25.7944 22.3788 23.9078 24.2043 22.4814 26.371V26.371Z" fill="#404040"/>
<path d="M37.2534 40.3396C36.4281 40.3396 35.6213 40.0949 34.9351 39.6364C34.2489 39.1779 33.714 38.5262 33.3982 37.7637C33.0824 37.0012 32.9997 36.1622 33.1608 35.3527C33.3218 34.5432 33.7192 33.7997 34.3028 33.2161C34.8864 32.6325 35.6299 32.2351 36.4393 32.0741C37.2488 31.9131 38.0878 31.9957 38.8503 32.3116C39.6128 32.6274 40.2645 33.1623 40.723 33.8485C41.1816 34.5347 41.4263 35.3415 41.4263 36.1668C41.4263 37.2735 40.9866 38.3349 40.2041 39.1174C39.4215 39.9 38.3601 40.3396 37.2534 40.3396ZM37.2534 34.0804C36.8408 34.0804 36.4374 34.2027 36.0943 34.432C35.7512 34.6612 35.4837 34.9871 35.3258 35.3683C35.1679 35.7496 35.1266 36.1691 35.2071 36.5738C35.2876 36.9786 35.4863 37.3503 35.7781 37.6421C36.0699 37.9339 36.4417 38.1326 36.8464 38.2131C37.2511 38.2936 37.6706 38.2523 38.0519 38.0944C38.4331 37.9365 38.759 37.6691 38.9882 37.3259C39.2175 36.9828 39.3399 36.5794 39.3399 36.1668C39.3399 35.6134 39.12 35.0827 38.7288 34.6915C38.3375 34.3002 37.8068 34.0804 37.2534 34.0804Z" fill="#FA4616"/>
<path d="M46.9529 25.0018L38.6099 33.3448L40.0852 34.8201L48.4282 26.4772L46.9529 25.0018Z" fill="#FA4616"/>
<path d="M52.5915 16.6571L51.1162 18.1325L54.2439 21.2602L55.7192 19.7848L52.5915 16.6571Z" fill="#404040"/>
<path d="M52.158 18.7419L49.0303 21.8696L50.5056 23.345L53.6333 20.2173L52.158 18.7419Z" fill="#404040"/>
<path d="M37.2534 51.815H33.0806V49.7285H37.2534C39.6342 49.7289 41.973 49.1024 44.0349 47.9123C46.0968 46.7221 47.8091 45.0101 48.9996 42.9484C50.1901 40.8867 50.8169 38.5479 50.8169 36.1672C50.817 33.7865 50.1904 31.4476 49 29.3859L50.8048 28.3427C52.1786 30.7222 52.9017 33.4216 52.9012 36.1693C52.9008 38.917 52.1769 41.6161 50.8023 43.9952C49.4277 46.3743 47.4508 48.3496 45.0706 49.7223C42.6904 51.095 39.9907 51.8167 37.243 51.815H37.2534Z" fill="#404040"/>
<path d="M19.5186 53.9014H17.4321V55.9878H19.5186V53.9014Z" fill="#404040"/>
</svg>
