<svg width="64" height="64" viewBox="0 0 64 64" fill="none" xmlns="http://www.w3.org/2000/svg">
<path d="M47.6746 51.8462H16.3866C16.2088 51.8598 16.0306 51.8276 15.8688 51.7527C15.707 51.6777 15.5672 51.5626 15.4626 51.4183C15.358 51.2739 15.2921 51.1052 15.2713 50.9281C15.2505 50.7511 15.2754 50.5716 15.3436 50.407L23.6871 27.4624C23.7617 27.2628 23.8957 27.0908 24.0709 26.9696C24.2462 26.8484 24.4544 26.7838 24.6675 26.7845H55.9556C56.1228 26.7836 56.2878 26.8229 56.4366 26.8991C56.5854 26.9754 56.7138 27.0863 56.8108 27.2225C56.9076 27.3604 56.9696 27.5198 56.9914 27.6869C57.0132 27.854 56.9941 28.0239 56.9359 28.182L48.5924 51.1266C48.5285 51.3243 48.4071 51.4985 48.2435 51.6267C48.08 51.7549 47.8819 51.8313 47.6746 51.8462V51.8462ZM17.878 49.7603H46.9446L54.5267 28.9016H25.4393L17.878 49.7603Z" fill="#404040"/>
<path d="M26.8158 51.8462C26.638 51.8598 26.4598 51.8276 26.298 51.7527C26.1362 51.6778 25.9964 51.5626 25.8918 51.4183C25.7872 51.2739 25.7213 51.1052 25.7005 50.9281C25.6797 50.7511 25.7046 50.5716 25.7728 50.407L34.1163 27.4624C34.2118 27.2024 34.4065 26.9909 34.6579 26.8746C34.9092 26.7582 35.1965 26.7464 35.4565 26.8418C35.7165 26.9373 35.928 27.1321 36.0443 27.3834C36.1607 27.6347 36.1725 27.922 36.0771 28.182L27.7336 51.1266C27.6697 51.3243 27.5482 51.4985 27.3847 51.6267C27.2211 51.7549 27.023 51.8313 26.8158 51.8462Z" fill="#404040"/>
<path d="M37.245 51.8462C37.0672 51.8598 36.889 51.8276 36.7272 51.7527C36.5654 51.6778 36.4256 51.5626 36.321 51.4183C36.2164 51.2739 36.1505 51.1052 36.1297 50.9281C36.1089 50.7511 36.1338 50.5716 36.202 50.407L44.5455 27.4624C44.641 27.2024 44.8357 26.9909 45.0871 26.8746C45.2115 26.8169 45.3461 26.7844 45.4831 26.7788C45.6202 26.7732 45.757 26.7946 45.8857 26.8418C46.0144 26.8891 46.1326 26.9612 46.2335 27.0542C46.3343 27.1471 46.4159 27.259 46.4735 27.3834C46.5312 27.5078 46.5637 27.6424 46.5693 27.7795C46.5749 27.9165 46.5535 28.0533 46.5062 28.182L38.1628 51.1266C38.0989 51.3243 37.9774 51.4985 37.8139 51.6267C37.6503 51.7549 37.4522 51.8313 37.245 51.8462Z" fill="#404040"/>
<path d="M51.8461 40.3739H20.5581C20.2815 40.3739 20.0162 40.264 19.8206 40.0685C19.625 39.8729 19.5151 39.6076 19.5151 39.331C19.5151 39.0544 19.625 38.7891 19.8206 38.5935C20.0162 38.3979 20.2815 38.2881 20.5581 38.2881H51.8461C52.1227 38.2881 52.388 38.3979 52.5836 38.5935C52.7792 38.7891 52.8891 39.0544 52.8891 39.331C52.8891 39.6076 52.7792 39.8729 52.5836 40.0685C52.388 40.264 52.1227 40.3739 51.8461 40.3739Z" fill="#404040"/>
<path d="M33.5737 56.018C33.2971 56.018 33.0318 55.9081 32.8362 55.7125C32.6406 55.5169 32.5308 55.2516 32.5308 54.975V51.0953C32.5308 50.8187 32.6406 50.5534 32.8362 50.3578C33.0318 50.1622 33.2971 50.0524 33.5737 50.0524C33.8503 50.0524 34.1156 50.1622 34.3111 50.3578C34.5067 50.5534 34.6166 50.8187 34.6166 51.0953V54.975C34.6166 55.2516 34.5067 55.5169 34.3111 55.7125C34.1156 55.9081 33.8503 56.018 33.5737 56.018Z" fill="#404040"/>
<path d="M40.374 56.018H26.8159C26.5393 56.018 26.274 55.9081 26.0784 55.7125C25.8828 55.5169 25.7729 55.2516 25.7729 54.975C25.7729 54.6984 25.8828 54.4332 26.0784 54.2376C26.274 54.042 26.5393 53.9321 26.8159 53.9321H40.374C40.6506 53.9321 40.9159 54.042 41.1115 54.2376C41.3071 54.4332 41.417 54.6984 41.417 54.975C41.417 55.2516 41.3071 55.5169 41.1115 55.7125C40.9159 55.9081 40.6506 56.018 40.374 56.018Z" fill="#404040"/>
<path d="M22.644 12.2147C22.3674 12.2147 22.1021 12.1048 21.9066 11.9092C21.711 11.7136 21.6011 11.4483 21.6011 11.1717V8.04294C21.6011 7.76633 21.711 7.50106 21.9066 7.30547C22.1021 7.10988 22.3674 7 22.644 7C22.9206 7 23.1859 7.10988 23.3815 7.30547C23.577 7.50106 23.6869 7.76633 23.6869 8.04294V11.1717C23.6869 11.4483 23.577 11.7136 23.3815 11.9092C23.1859 12.1048 22.9206 12.2147 22.644 12.2147Z" fill="#FA4616"/>
<path d="M14.5087 15.5729C14.3707 15.5724 14.2342 15.5444 14.1071 15.4907C13.98 15.437 13.8648 15.3586 13.7682 15.26L11.5572 13.049C11.3629 12.8536 11.2539 12.5893 11.2539 12.3138C11.2539 12.0382 11.3629 11.7739 11.5572 11.5785C11.6541 11.4807 11.7695 11.4031 11.8966 11.3502C12.0237 11.2972 12.16 11.27 12.2977 11.27C12.4353 11.27 12.5717 11.2972 12.6988 11.3502C12.8259 11.4031 12.9412 11.4807 13.0382 11.5785L15.2492 13.7895C15.3963 13.9354 15.4966 14.1218 15.5373 14.3249C15.5781 14.528 15.5574 14.7386 15.478 14.9299C15.3985 15.1213 15.2639 15.2846 15.0913 15.3991C14.9187 15.5136 14.7159 15.5741 14.5087 15.5729V15.5729Z" fill="#FA4616"/>
<path d="M11.1717 23.687H8.04294C7.76633 23.687 7.50107 23.5771 7.30548 23.3815C7.1099 23.1859 7 22.9206 7 22.644C7 22.3674 7.1099 22.1022 7.30548 21.9066C7.50107 21.711 7.76633 21.6011 8.04294 21.6011H11.1717C11.4483 21.6011 11.7136 21.711 11.9092 21.9066C12.1048 22.1022 12.2147 22.3674 12.2147 22.644C12.2147 22.9206 12.1048 23.1859 11.9092 23.3815C11.7136 23.5771 11.4483 23.687 11.1717 23.687Z" fill="#FA4616"/>
<path d="M12.2977 34.0016C12.1604 34.0024 12.0244 33.9761 11.8973 33.9242C11.7702 33.8723 11.6546 33.7958 11.5572 33.6991C11.3629 33.5037 11.2539 33.2394 11.2539 32.9639C11.2539 32.6883 11.3629 32.424 11.5572 32.2286L13.7682 30.0176C13.8652 29.9198 13.9805 29.8422 14.1076 29.7893C14.2347 29.7363 14.371 29.7091 14.5087 29.7091C14.6464 29.7091 14.7827 29.7363 14.9098 29.7893C15.0369 29.8422 15.1522 29.9198 15.2492 30.0176C15.4434 30.213 15.5525 30.4773 15.5525 30.7528C15.5525 31.0284 15.4434 31.2927 15.2492 31.4881L13.0382 33.72C12.838 33.9076 12.5719 34.0088 12.2977 34.0016Z" fill="#FA4616"/>
<path d="M37.245 23.687H34.1162C33.8396 23.687 33.5743 23.5771 33.3787 23.3815C33.1831 23.1859 33.0732 22.9206 33.0732 22.644C33.0732 22.3674 33.1831 22.1022 33.3787 21.9066C33.5743 21.711 33.8396 21.6011 34.1162 21.6011H37.245C37.5216 21.6011 37.7868 21.711 37.9824 21.9066C38.178 22.1022 38.2879 22.3674 38.2879 22.644C38.2879 22.9206 38.178 23.1859 37.9824 23.3815C37.7868 23.5771 37.5216 23.687 37.245 23.687Z" fill="#FA4616"/>
<path d="M30.7375 15.5729C30.5303 15.5741 30.3275 15.5136 30.1549 15.3991C29.9823 15.2846 29.8476 15.1213 29.7682 14.9299C29.6888 14.7386 29.6681 14.528 29.7088 14.3249C29.7496 14.1218 29.8499 13.9354 29.997 13.7895L32.208 11.5785C32.305 11.4807 32.4203 11.4031 32.5474 11.3502C32.6745 11.2972 32.8108 11.27 32.9485 11.27C33.0862 11.27 33.2225 11.2972 33.3496 11.3502C33.4767 11.4031 33.592 11.4807 33.689 11.5785C33.8832 11.7739 33.9923 12.0382 33.9923 12.3138C33.9923 12.5893 33.8832 12.8536 33.689 13.049L31.478 15.26C31.3814 15.3586 31.2662 15.437 31.1391 15.4907C31.012 15.5444 30.8755 15.5724 30.7375 15.5729Z" fill="#FA4616"/>
<path d="M20.3179 30.5912C20.2082 30.5891 20.0994 30.5715 19.9946 30.5391C18.4537 30.0277 17.0955 29.078 16.0863 27.8062C15.0772 26.5344 14.4611 24.9958 14.3134 23.379C14.1657 21.7622 14.493 20.1375 15.255 18.7039C16.0171 17.2703 17.1808 16.0903 18.6036 15.3083C20.0264 14.5263 21.6464 14.1764 23.2651 14.3015C24.8838 14.4266 26.4309 15.0212 27.7166 16.0125C29.0024 17.0037 29.971 18.3486 30.5038 19.8822C31.0365 21.4158 31.1103 23.0716 30.716 24.6465C30.6824 24.7793 30.6231 24.9043 30.5412 25.0142C30.4594 25.1241 30.3567 25.2168 30.239 25.287C30.1213 25.3572 29.991 25.4035 29.8554 25.4234C29.7198 25.4432 29.5817 25.4362 29.4488 25.4026C29.316 25.369 29.191 25.3097 29.0811 25.2278C28.9712 25.146 28.8785 25.0433 28.8083 24.9256C28.7381 24.808 28.6918 24.6776 28.6719 24.542C28.6521 24.4065 28.6591 24.2683 28.6927 24.1354C28.8179 23.6411 28.881 23.1331 28.8804 22.6232C28.8813 21.4706 28.5638 20.3402 27.963 19.3566C27.3622 18.373 26.5015 17.5744 25.4756 17.049C24.4498 16.5235 23.2988 16.2916 22.1495 16.3787C21.0003 16.4659 19.8974 16.8688 18.9626 17.543C18.0277 18.2171 17.2973 19.1364 16.8517 20.1994C16.4061 21.2623 16.2628 22.4277 16.4375 23.567C16.6122 24.7062 17.0982 25.7751 17.8418 26.6557C18.5854 27.5363 19.5578 28.1944 20.6517 28.5575C20.9283 28.6017 21.176 28.7541 21.3403 28.9809C21.5045 29.2078 21.572 29.4907 21.5277 29.7673C21.4835 30.0439 21.3311 30.2916 21.1043 30.4559C20.8774 30.6202 20.5945 30.6876 20.3179 30.6434V30.5912Z" fill="#FA4616"/>
</svg>
