<svg width="64" height="64" viewBox="0 0 64 64" fill="none" xmlns="http://www.w3.org/2000/svg">
<path d="M21.3856 42.7355H7V41.6931C7.00098 38.0855 7.81607 34.5246 9.38454 31.2757C10.953 28.0269 13.2344 25.1739 16.0588 22.9293L16.9344 22.2413L25.0237 34.2293L24.3566 34.8339C23.4097 35.7062 22.6561 36.7673 22.1444 37.9487C21.6326 39.1302 21.3742 40.4057 21.3856 41.6931V42.7355ZM9.11614 40.6507H19.3424C19.5451 38.1229 20.5915 35.7365 22.3134 33.8748L16.4862 25.2331C14.2867 27.1775 12.5007 29.5444 11.2346 32.193C9.9685 34.8417 9.24805 37.7179 9.11614 40.6507V40.6507Z" fill="#404040"/>
<path d="M37.0638 32.6969L36.2507 32.3008C34.9891 31.6736 33.5993 31.3472 32.1904 31.3472C30.7815 31.3472 29.3918 31.6736 28.1301 32.3008L27.317 32.6969L19.186 20.8444L20.1347 20.2815C23.7645 18.1333 27.9048 17 32.1227 17C36.3405 17 40.4808 18.1333 44.1107 20.2815L45.0697 20.8444L37.0638 32.6969ZM32.1852 29.2569C33.6139 29.2523 35.03 29.5249 36.3549 30.0595L42.1196 21.5011C39.0356 19.9137 35.6172 19.0856 32.1487 19.0856C28.6802 19.0856 25.2618 19.9137 22.1778 21.5011L28.005 30.0595C29.3332 29.5233 30.7529 29.2507 32.1852 29.2569Z" fill="#404040"/>
<path d="M56.9954 42.7355H44.4862V40.6507H54.9105C54.8331 37.7835 54.173 34.9621 52.9705 32.3582C51.768 29.7543 50.0482 27.4222 47.9158 25.5041L42.2553 33.927L40.5249 32.7699L47.4467 22.4602L48.3327 23.1482C51.0991 25.3707 53.3186 28.1983 54.8204 31.4134C56.3222 34.6285 57.0663 38.1453 56.9954 41.6931V42.7355Z" fill="#404040"/>
<path d="M32.5811 47.5412C31.9705 47.5443 31.3639 47.4421 30.7881 47.2389C30.0873 47 29.443 46.6195 28.8955 46.1211C28.3479 45.6227 27.9087 45.017 27.6051 44.3417C27.3015 43.6664 27.1401 42.9358 27.1308 42.1954C27.1215 41.4551 27.2646 40.7207 27.5512 40.038C27.8377 39.3552 28.2616 38.7387 28.7966 38.2268C29.3315 37.7148 29.966 37.3183 30.6606 37.062C31.3552 36.8056 32.0952 36.6948 32.8344 36.7366C33.5737 36.7783 34.2965 36.9716 34.9578 37.3045L45.0069 34.1772L46.8729 37.9195L37.8245 43.3506C37.5522 44.531 36.8894 45.5849 35.9434 46.3417C34.9975 47.0985 33.8238 47.5138 32.6124 47.5203L32.5811 47.5412ZM32.5811 38.8264C32.0907 38.8303 31.607 38.9405 31.1634 39.1496C30.371 39.5323 29.7626 40.2134 29.4714 41.0438C29.1803 41.8743 29.2302 42.7862 29.6101 43.5799C29.9213 44.2224 30.4321 44.7468 31.0661 45.0748C31.7002 45.4027 32.4234 45.5166 33.1275 45.3992C33.8317 45.2818 34.4789 44.9396 34.9723 44.4238C35.4657 43.9079 35.7788 43.2461 35.8648 42.5375L35.9273 42.0267L44.2042 37.1064L43.9853 36.679L34.7181 39.6082L34.3115 39.3581C33.7887 39.021 33.1821 38.8369 32.5602 38.8264H32.5811Z" fill="#FA4616"/>
</svg>
