<svg width="64" height="64" viewBox="0 0 64 64" fill="none" xmlns="http://www.w3.org/2000/svg">
<path d="M52.7808 36.4969L46.3979 40.1805L47.4504 42.0041L53.8332 38.3205L52.7808 36.4969Z" fill="#404040"/>
<path d="M55.9477 41.9757L49.5649 45.6594L50.6174 47.483L57.0002 43.7994L55.9477 41.9757Z" fill="#404040"/>
<path d="M43.1928 53.5338C42.8196 53.5315 42.4482 53.4819 42.0874 53.3865C41.5525 53.2427 41.0511 52.9948 40.6121 52.657C40.1732 52.3191 39.8051 51.898 39.5291 51.4178L37.4236 47.7751C36.867 46.8075 36.7174 45.6586 37.0076 44.5807C37.2978 43.5029 38.004 42.5843 38.9712 42.0269L41.3926 40.6267C41.6812 39.7657 42.2478 39.025 43.0033 38.5212L45.7406 36.942L53.11 49.7017L50.3728 51.2809C49.5461 51.6834 48.6087 51.7982 47.7093 51.6073L45.2879 53.0075C44.6472 53.3621 43.9251 53.5435 43.1928 53.5338ZM44.9826 39.774L44.0772 40.3004C43.6917 40.6469 43.4201 41.102 43.2981 41.6058L43.1928 42.0269L40.0345 43.8482C39.5518 44.1278 39.1998 44.5875 39.0557 45.1263C38.9116 45.6652 38.9872 46.2392 39.266 46.7223L41.3715 50.365C41.5084 50.6056 41.6913 50.8168 41.9099 50.9866C42.1285 51.1564 42.3784 51.2815 42.6454 51.3546C43.186 51.4929 43.7592 51.4175 44.2456 51.144L47.404 49.3227L47.8251 49.4385C48.3188 49.5917 48.8473 49.5917 49.3411 49.4385L50.2465 48.9121L44.9826 39.774Z" fill="#404040"/>
<path d="M30.6332 51.8915C26.4226 51.893 22.2844 50.7965 18.627 48.7103C14.9696 46.624 11.9194 43.6201 9.77751 39.9951C7.06634 35.3723 6.3019 29.8621 7.65225 24.6759C9.0026 19.4897 12.3572 15.052 16.9785 12.3384C18.9 11.2092 21.0251 10.4696 23.2325 10.1622C25.4399 9.85471 27.6863 9.98532 29.8432 10.5465C32.0001 11.1078 34.0252 12.0886 35.8028 13.433C37.5804 14.7773 39.0756 16.4588 40.203 18.3814C42.1144 21.6481 42.6525 25.5395 41.6993 29.2023C40.7461 32.8651 38.3794 36.0005 35.118 37.9211C33.4861 38.883 31.65 39.4458 29.7593 39.5634L29.633 37.4578C31.1896 37.3655 32.7018 36.9036 34.0442 36.1103C36.8264 34.4728 38.8456 31.7986 39.6587 28.6743C40.4719 25.5501 40.0126 22.2308 38.3816 19.4447C37.3919 17.7634 36.0806 16.2936 34.5227 15.1191C32.9649 13.9446 31.1909 13.0885 29.3021 12.5997C27.4133 12.1109 25.4467 11.9989 23.5147 12.2702C21.5827 12.5415 19.723 13.1907 18.0419 14.1808C13.9039 16.6152 10.9006 20.5916 9.6907 25.2376C8.48085 29.8836 9.16328 34.8198 11.5883 38.9633C14.2917 43.5218 18.5427 46.9574 23.5669 48.6444C28.591 50.3313 34.054 50.1573 38.9607 48.1541L39.7713 50.1018C36.8718 51.2907 33.767 51.8988 30.6332 51.8915V51.8915Z" fill="#404040"/>
<path d="M21.1265 41.669C20.993 41.6709 20.8605 41.6459 20.737 41.5953C20.5116 41.5067 20.3236 41.3432 20.2047 41.1323C20.0858 40.9213 20.0433 40.6759 20.0842 40.4372L21.6634 31.7307L16.968 32.4045C16.7644 32.4356 16.5561 32.4063 16.369 32.3202C16.1818 32.2341 16.0241 32.095 15.9152 31.9202C15.8042 31.7494 15.7451 31.5501 15.7451 31.3464C15.7451 31.1427 15.8042 30.9434 15.9152 30.7727L26.0009 15.6126C26.1368 15.4138 26.3367 15.2675 26.5674 15.1983C26.7981 15.1291 27.0455 15.1411 27.2684 15.2322C27.4913 15.3233 27.6762 15.4881 27.7924 15.6991C27.9085 15.9101 27.9487 16.1545 27.9064 16.3916L26.3378 25.0876L31.0332 24.4244C31.2358 24.3899 31.4441 24.4156 31.6324 24.4981C31.8206 24.5807 31.9806 24.7165 32.0926 24.8889C32.2045 25.0613 32.2635 25.2627 32.2624 25.4683C32.2612 25.6738 32.1999 25.8745 32.086 26.0457L22.0003 41.2057C21.9037 41.3486 21.7735 41.4656 21.6212 41.5463C21.4688 41.6271 21.2989 41.6692 21.1265 41.669V41.669ZM22.9583 29.4356C23.0994 29.4348 23.2392 29.4623 23.3694 29.5166C23.4996 29.5708 23.6176 29.6507 23.7163 29.7515C23.831 29.8717 23.9156 30.0174 23.9631 30.1766C24.0107 30.3358 24.0199 30.5039 23.9901 30.6674L23.0636 35.805L29.0224 26.8352L25.2113 27.3827C25.0461 27.4055 24.8779 27.3888 24.7205 27.3338C24.5631 27.2789 24.421 27.1874 24.3059 27.0669C24.1912 26.9466 24.1067 26.8009 24.0591 26.6417C24.0115 26.4826 24.0023 26.3144 24.0322 26.1509L24.9586 21.0133L18.9893 29.9831L22.8109 29.4461L22.9583 29.4356Z" fill="#FA4616"/>
</svg>
