<svg width="64" height="64" viewBox="0 0 64 64" fill="none" xmlns="http://www.w3.org/2000/svg">
<path d="M16.4883 42.2273C16.336 42.227 16.1853 42.196 16.0451 42.1363C15.8039 42.0364 15.6044 41.8565 15.4802 41.6268C15.356 41.397 15.3147 41.1316 15.3633 40.875L17.636 28.5909H12.1247C11.9117 28.5913 11.7029 28.5319 11.522 28.4194C11.3412 28.3069 11.1957 28.1458 11.1019 27.9545C11.0189 27.7719 10.9857 27.5706 11.0056 27.371C11.0256 27.1714 11.098 26.9807 11.2156 26.8182L24.8519 8.63635C25.0082 8.42505 25.233 8.27447 25.4878 8.21024C25.7427 8.14601 26.0119 8.1721 26.2497 8.28408C26.485 8.39439 26.6754 8.58201 26.7891 8.81568C26.9028 9.04934 26.933 9.31493 26.8747 9.56817L24.0224 21.8182H29.477C29.6852 21.8191 29.8891 21.8773 30.0665 21.9862C30.2439 22.0952 30.3879 22.2508 30.4829 22.4361C30.5779 22.6214 30.6202 22.8292 30.6051 23.0368C30.59 23.2445 30.5182 23.444 30.3974 23.6136L17.4315 41.7954C17.3198 41.9371 17.1761 42.0502 17.0121 42.1252C16.848 42.2003 16.6685 42.2353 16.4883 42.2273ZM14.4201 26.3182H18.9656C19.1325 26.3179 19.2975 26.3544 19.4487 26.4251C19.5999 26.4958 19.7337 26.599 19.8406 26.7273C19.9461 26.8557 20.0221 27.0057 20.0634 27.1667C20.1046 27.3277 20.11 27.4958 20.0792 27.6591L18.4883 36.25L27.1815 24.0454H22.5224C22.3484 24.0501 22.1756 24.0148 22.0175 23.9421C21.8593 23.8694 21.7199 23.7614 21.6101 23.6263C21.5003 23.4913 21.423 23.3328 21.3841 23.1631C21.3453 22.9934 21.346 22.8171 21.3861 22.6477L23.3292 14.2841L14.4201 26.3182Z" fill="#404040"/>
<path d="M39.0907 57C37.2086 56.9985 35.3733 56.4129 33.8382 55.3241C32.3031 54.2352 31.1437 52.6967 30.5202 50.9209C29.8967 49.1451 29.8397 47.2195 30.3571 45.4099C30.8745 43.6003 31.9408 41.996 33.4088 40.8182V12.6818C33.4088 11.1749 34.0075 9.72972 35.073 8.66417C36.1386 7.59862 37.5837 7 39.0907 7C40.5976 7 42.0427 7.59862 43.1083 8.66417C44.1738 9.72972 44.7725 11.1749 44.7725 12.6818V40.8182C46.2405 41.996 47.3068 43.6003 47.8242 45.4099C48.3416 47.2195 48.2846 49.1451 47.6611 50.9209C47.0376 52.6967 45.8782 54.2352 44.3431 55.3241C42.808 56.4129 40.9727 56.9985 39.0907 57ZM39.0907 9.27273C38.1865 9.27273 37.3194 9.6319 36.6801 10.2712C36.0408 10.9106 35.6816 11.7777 35.6816 12.6818V41.3864C35.6825 41.5686 35.6397 41.7483 35.5566 41.9105C35.4736 42.0727 35.3527 42.2125 35.2043 42.3182C34.0121 43.147 33.1157 44.3348 32.6455 45.7085C32.1753 47.0823 32.156 48.5702 32.5903 49.9557C33.0246 51.3412 33.8899 52.5519 35.0601 53.4115C36.2303 54.271 37.6444 54.7345 39.0963 54.7345C40.5483 54.7345 41.9624 54.271 43.1326 53.4115C44.3028 52.5519 45.1681 51.3412 45.6024 49.9557C46.0367 48.5702 46.0173 47.0823 45.5472 45.7085C45.077 44.3348 44.1805 43.147 42.9884 42.3182C42.8378 42.2138 42.7148 42.0745 42.6297 41.9122C42.5446 41.75 42.5 41.5696 42.4997 41.3864V12.6818C42.4997 11.7777 42.1406 10.9106 41.5012 10.2712C40.8619 9.6319 39.9948 9.27273 39.0907 9.27273V9.27273Z" fill="#404040"/>
<path d="M51.5907 14.9546H49.318C49.0166 14.9546 48.7276 14.8348 48.5145 14.6217C48.3014 14.4086 48.1816 14.1196 48.1816 13.8182C48.1816 13.5168 48.3014 13.2278 48.5145 13.0147C48.7276 12.8015 49.0166 12.6818 49.318 12.6818H51.5907C51.8921 12.6818 52.1811 12.8015 52.3942 13.0147C52.6074 13.2278 52.7271 13.5168 52.7271 13.8182C52.7271 14.1196 52.6074 14.4086 52.3942 14.6217C52.1811 14.8348 51.8921 14.9546 51.5907 14.9546Z" fill="#404040"/>
<path d="M51.5907 35.4091H49.318C49.0166 35.4091 48.7276 35.2894 48.5145 35.0762C48.3014 34.8631 48.1816 34.5741 48.1816 34.2727C48.1816 33.9713 48.3014 33.6823 48.5145 33.4692C48.7276 33.2561 49.0166 33.1364 49.318 33.1364H51.5907C51.8921 33.1364 52.1811 33.2561 52.3942 33.4692C52.6074 33.6823 52.7271 33.9713 52.7271 34.2727C52.7271 34.5741 52.6074 34.8631 52.3942 35.0762C52.1811 35.2894 51.8921 35.4091 51.5907 35.4091Z" fill="#404040"/>
<path d="M51.5907 28.5909H49.318C49.0166 28.5909 48.7276 28.4712 48.5145 28.2581C48.3014 28.045 48.1816 27.7559 48.1816 27.4545C48.1816 27.1532 48.3014 26.8641 48.5145 26.651C48.7276 26.4379 49.0166 26.3182 49.318 26.3182H51.5907C51.8921 26.3182 52.1811 26.4379 52.3942 26.651C52.6074 26.8641 52.7271 27.1532 52.7271 27.4545C52.7271 27.7559 52.6074 28.045 52.3942 28.2581C52.1811 28.4712 51.8921 28.5909 51.5907 28.5909Z" fill="#404040"/>
<path d="M51.5907 21.7727H49.318C49.0166 21.7727 48.7276 21.653 48.5145 21.4399C48.3014 21.2268 48.1816 20.9378 48.1816 20.6364C48.1816 20.335 48.3014 20.046 48.5145 19.8328C48.7276 19.6197 49.0166 19.5 49.318 19.5H51.5907C51.8921 19.5 52.1811 19.6197 52.3942 19.8328C52.6074 20.046 52.7271 20.335 52.7271 20.6364C52.7271 20.9378 52.6074 21.2268 52.3942 21.4399C52.1811 21.653 51.8921 21.7727 51.5907 21.7727Z" fill="#404040"/>
<path d="M39.0905 49.0454C38.7891 49.0454 38.5001 48.9257 38.287 48.7126C38.0738 48.4995 37.9541 48.2105 37.9541 47.9091V16.0909C37.9541 15.7895 38.0738 15.5005 38.287 15.2874C38.5001 15.0743 38.7891 14.9545 39.0905 14.9545C39.3918 14.9545 39.6809 15.0743 39.894 15.2874C40.1071 15.5005 40.2268 15.7895 40.2268 16.0909V47.9091C40.2268 48.2105 40.1071 48.4995 39.894 48.7126C39.6809 48.9257 39.3918 49.0454 39.0905 49.0454Z" fill="#FA4616"/>
</svg>
