<svg width="64" height="64" viewBox="0 0 64 64" fill="none" xmlns="http://www.w3.org/2000/svg">
<path d="M25.9471 55.2149C25.8204 55.2149 25.6949 55.1898 25.578 55.1411C20.8621 53.3465 16.8522 50.0764 14.1455 45.818C13.9959 45.5816 13.9463 45.2955 14.0076 45.0226C14.0689 44.7496 14.2361 44.5122 14.4725 44.3626C14.7088 44.2129 14.995 44.1633 15.2679 44.2246C15.5409 44.2859 15.7783 44.4532 15.9279 44.6895C18.3872 48.5471 22.0273 51.5066 26.3057 53.1267C26.4352 53.1759 26.5537 53.2501 26.6546 53.345C26.7554 53.44 26.8365 53.5539 26.8933 53.6803C26.9501 53.8066 26.9815 53.9429 26.9856 54.0814C26.9897 54.2198 26.9665 54.3577 26.9174 54.4872C26.8502 54.6936 26.7209 54.8743 26.5473 55.0045C26.3736 55.1347 26.164 55.2082 25.9471 55.2149V55.2149Z" fill="#404040"/>
<path d="M18.1428 32.0864H17.9846C17.8464 32.0659 17.7136 32.0181 17.594 31.9458C17.4744 31.8735 17.3704 31.7782 17.288 31.6653C17.2055 31.5525 17.1463 31.4243 17.1139 31.2884C17.0814 31.1525 17.0762 31.0115 17.0987 30.8736C17.1936 30.283 17.3202 29.6818 17.4784 29.0807C18.5305 25.2159 20.923 21.8514 24.2281 19.5888C24.4589 19.4308 24.743 19.3709 25.0179 19.4223C25.2928 19.4738 25.536 19.6323 25.6941 19.863C25.8521 20.0938 25.912 20.3779 25.8606 20.6528C25.8091 20.9277 25.6506 21.1709 25.4199 21.329C22.5247 23.3197 20.4344 26.2776 19.5244 29.6713C19.3873 30.1881 19.2713 30.7259 19.1869 31.2427C19.1379 31.4827 19.0069 31.6982 18.8164 31.8521C18.6259 32.0061 18.3877 32.0889 18.1428 32.0864Z" fill="#404040"/>
<path d="M49.6029 34.0059C49.3232 34.0059 49.0549 33.8948 48.8571 33.697C48.6593 33.4992 48.5482 33.231 48.5482 32.9512C48.4815 30.8748 47.9773 28.8358 47.0686 26.9676C46.1599 25.0994 44.8672 23.4439 43.275 22.1094C43.169 22.0201 43.0817 21.9108 43.018 21.7877C42.9543 21.6646 42.9155 21.5302 42.9037 21.3921C42.892 21.254 42.9075 21.115 42.9495 20.9829C42.9915 20.8508 43.0591 20.7283 43.1484 20.6224C43.2377 20.5164 43.3471 20.4291 43.4701 20.3654C43.5932 20.3017 43.7276 20.2629 43.8657 20.2511C44.0038 20.2394 44.1429 20.2549 44.2749 20.2969C44.407 20.3389 44.5295 20.4065 44.6355 20.4958C46.4526 22.0225 47.9273 23.9153 48.9631 26.0506C49.999 28.186 50.5728 30.5158 50.647 32.888C50.647 33.1677 50.5359 33.4359 50.3381 33.6337C50.1403 33.8315 49.872 33.9426 49.5923 33.9426L49.6029 34.0059Z" fill="#404040"/>
<path d="M53.4416 44.7106C53.2725 44.7149 53.1053 44.6749 52.9565 44.5946C52.833 44.5311 52.7233 44.4438 52.6337 44.3378C52.544 44.2318 52.4762 44.1091 52.4341 43.9769C52.3919 43.8446 52.3763 43.7053 52.3882 43.567C52.4 43.4286 52.439 43.294 52.503 43.1708C53.2048 41.8098 53.7599 40.378 54.1588 38.8995C55.3224 34.5769 55.0763 29.9959 53.4564 25.8228C51.8365 21.6498 48.9273 18.1025 45.152 15.6972C44.9174 15.5459 44.7523 15.3077 44.693 15.0349C44.6337 14.762 44.685 14.4768 44.8357 14.2417C44.987 14.0071 45.2251 13.842 45.498 13.7827C45.7708 13.7234 46.056 13.7747 46.2911 13.9253C50.4511 16.572 53.656 20.4793 55.4376 25.0767C57.2193 29.6741 57.4844 34.7208 56.1942 39.4795C55.7623 41.1069 55.1503 42.681 54.3697 44.1727C54.2773 44.3372 54.1424 44.4739 53.9791 44.5685C53.8159 44.6631 53.6303 44.7122 53.4416 44.7106V44.7106Z" fill="#404040"/>
<path d="M11.646 33.7633C11.3662 33.7633 11.098 33.6522 10.9002 33.4544C10.7024 33.2566 10.5913 32.9884 10.5913 32.7087C10.6438 30.9264 10.9057 29.1565 11.3717 27.4354C12.6834 22.6378 15.4915 18.3838 19.3875 15.2921C23.2834 12.2003 28.0641 10.4321 33.0343 10.2446C33.314 10.2446 33.5822 10.3557 33.78 10.5535C33.9778 10.7513 34.0889 11.0195 34.0889 11.2992C34.0889 11.579 33.9778 11.8472 33.78 12.045C33.5822 12.2428 33.314 12.3539 33.0343 12.3539C28.5155 12.5226 24.1686 14.1296 20.6269 16.941C17.0852 19.7524 14.5336 23.6212 13.3439 27.9838C12.9263 29.5369 12.6892 31.1329 12.6373 32.7403C12.6299 33.0039 12.524 33.2551 12.3405 33.4445C12.157 33.6338 11.9092 33.7476 11.646 33.7633Z" fill="#404040"/>
<path d="M31.684 56.5965C31.4043 56.5965 31.1361 56.4854 30.9383 56.2876C30.7405 56.0898 30.6294 55.8216 30.6294 55.5419V42.0424C30.6294 41.7626 30.7405 41.4944 30.9383 41.2966C31.1361 41.0988 31.4043 40.9877 31.684 40.9877C31.9638 40.9877 32.232 41.0988 32.4298 41.2966C32.6276 41.4944 32.7387 41.7626 32.7387 42.0424V55.5419C32.7387 55.8216 32.6276 56.0898 32.4298 56.2876C32.232 56.4854 31.9638 56.5965 31.684 56.5965Z" fill="#FA4616"/>
<path d="M36.9575 56.5965C36.6778 56.5965 36.4095 56.4854 36.2117 56.2876C36.0139 56.0898 35.9028 55.8216 35.9028 55.5419V45.6282C35.9028 45.3485 36.0139 45.0802 36.2117 44.8824C36.4095 44.6846 36.6778 44.5735 36.9575 44.5735C37.2372 44.5735 37.5054 44.6846 37.7032 44.8824C37.901 45.0802 38.0121 45.3485 38.0121 45.6282V55.5419C38.0121 55.8216 37.901 56.0898 37.7032 56.2876C37.5054 56.4854 37.2372 56.5965 36.9575 56.5965Z" fill="#FA4616"/>
<path d="M50.9954 54.0654C50.6586 54.0664 50.3249 54.0008 50.0136 53.8723C49.7022 53.7438 49.4194 53.5549 49.1814 53.3166L34.1843 38.2562C34.0115 38.0544 33.9212 37.7949 33.9315 37.5294C33.9417 37.264 34.0517 37.0122 34.2396 36.8244C34.4274 36.6366 34.6792 36.5265 34.9446 36.5163C35.21 36.506 35.4696 36.5963 35.6713 36.7691L50.7212 51.819C50.8053 51.8983 50.9166 51.9425 51.0323 51.9425C51.148 51.9425 51.2593 51.8983 51.3434 51.819C51.4213 51.7487 51.473 51.6542 51.4903 51.5508C51.5075 51.4473 51.4892 51.3411 51.4384 51.2494L44.0558 38.4249L37.5697 35.3453C37.4349 35.2924 37.3124 35.2122 37.2099 35.1099C37.1075 35.0075 37.0271 34.8851 36.974 34.7504C36.9209 34.6156 36.8962 34.4714 36.9012 34.3266C36.9063 34.1819 36.9412 34.0397 37.0036 33.909C37.0661 33.7783 37.1547 33.6619 37.2642 33.567C37.3736 33.4721 37.5014 33.4007 37.6396 33.3574C37.7778 33.314 37.9234 33.2996 38.0675 33.315C38.2115 33.3304 38.3508 33.3753 38.4767 33.447L45.2581 36.6636C45.4481 36.7557 45.6061 36.9027 45.7116 37.0855L53.168 50.2686C53.394 50.658 53.5135 51.1001 53.5144 51.5503C53.5152 52.0006 53.3975 52.4431 53.173 52.8334C52.9484 53.2236 52.625 53.5478 52.2354 53.7734C51.8457 53.9989 51.4034 54.1178 50.9532 54.1181L50.9954 54.0654Z" fill="#FA4616"/>
<path d="M36.7682 31.5169C36.6771 31.5271 36.5851 31.5271 36.494 31.5169C36.2244 31.4451 35.9942 31.2694 35.8538 31.0282C35.7135 30.7871 35.6744 30.5001 35.7452 30.2302L41.261 9.66455C41.288 9.55144 41.2716 9.43232 41.2149 9.33076C41.1583 9.22919 41.0656 9.15259 40.9552 9.11613C40.8564 9.08599 40.7503 9.09047 40.6544 9.12882C40.5585 9.16718 40.4786 9.23711 40.4279 9.32705L33.0453 22.1622L33.6148 29.3232C33.6259 29.4617 33.6096 29.6011 33.5668 29.7333C33.5241 29.8655 33.4557 29.9879 33.3656 30.0937C33.1836 30.3073 32.9242 30.4399 32.6445 30.4623C32.3648 30.4846 32.0877 30.395 31.8741 30.213C31.6605 30.0311 31.5279 29.7717 31.5055 29.492L30.9044 22.004C30.887 21.7909 30.9348 21.5776 31.0415 21.3923L38.6033 8.2724C38.9153 7.73699 39.4108 7.33279 39.9979 7.1346C40.5851 6.93641 41.2241 6.95768 41.7968 7.19447C42.3695 7.43126 42.837 7.86753 43.1127 8.4225C43.3884 8.97747 43.4537 9.61355 43.2965 10.213L37.7807 30.7681C37.7149 30.9852 37.5809 31.1753 37.3985 31.3102C37.2161 31.4451 36.9951 31.5176 36.7682 31.5169Z" fill="#FA4616"/>
<path d="M9.5367 41.8314C8.91965 41.8251 8.32559 41.5964 7.86364 41.1873C7.40169 40.7782 7.10287 40.2161 7.02207 39.6043C6.94127 38.9926 7.08392 38.3722 7.42381 37.8571C7.7637 37.3421 8.27801 36.967 8.87226 36.8007L29.438 31.2849C29.5765 31.2503 29.7204 31.2433 29.8616 31.2643C30.0028 31.2853 30.1385 31.3339 30.2609 31.4074C30.3833 31.4808 30.4901 31.5777 30.5751 31.6924C30.6601 31.8071 30.7216 31.9374 30.7563 32.0759C30.7909 32.2144 30.7979 32.3584 30.7769 32.4996C30.7559 32.6408 30.7072 32.7765 30.6338 32.8989C30.5603 33.0213 30.4635 33.1281 30.3488 33.213C30.2341 33.298 30.1038 33.3596 29.9653 33.3942L9.41013 38.91C9.30825 38.9419 9.22088 39.0087 9.1634 39.0986C9.10591 39.1886 9.082 39.2959 9.09586 39.4018C9.10972 39.5076 9.16047 39.6052 9.23918 39.6773C9.31788 39.7494 9.4195 39.7914 9.52614 39.796H24.344L30.2606 35.7145C30.3748 35.6342 30.5038 35.5774 30.6401 35.5473C30.7764 35.5173 30.9173 35.5146 31.0547 35.5394C31.192 35.5642 31.3231 35.6161 31.4403 35.6919C31.5574 35.7678 31.6584 35.8662 31.7373 35.9813C31.8161 36.0965 31.8714 36.2262 31.8997 36.3628C31.9281 36.4995 31.9291 36.6405 31.9026 36.7775C31.8761 36.9146 31.8226 37.045 31.7453 37.1612C31.668 37.2774 31.5685 37.3772 31.4523 37.4546L25.2721 41.6732C25.0975 41.7906 24.8918 41.853 24.6815 41.8525H9.52614L9.5367 41.8314Z" fill="#FA4616"/>
<path d="M33.7834 38.6675C33.3239 38.6701 32.8661 38.6098 32.4229 38.4882C31.4152 38.2188 30.5099 37.6566 29.8217 36.8727C29.1335 36.0889 28.6933 35.1185 28.5566 34.0843C28.42 33.0502 28.5932 31.9987 29.0543 31.063C29.5153 30.1273 30.2435 29.3493 31.1468 28.8276C32.0505 28.3052 33.089 28.0627 34.1306 28.131C35.1722 28.1992 36.1701 28.5751 36.998 29.2109C37.8258 29.8467 38.4463 30.714 38.7809 31.7028C39.1155 32.6915 39.149 33.7574 38.8774 34.7653V34.7653C38.5758 35.8854 37.9132 36.8749 36.9923 37.5803C36.0714 38.2858 34.9435 38.6679 33.7834 38.6675V38.6675ZM33.7834 30.2302C33.2304 30.2312 32.6877 30.3805 32.212 30.6627C31.8519 30.87 31.5362 31.1462 31.2828 31.4755C31.0295 31.8049 30.8435 32.1809 30.7355 32.5821C30.5196 33.3918 30.6338 34.2542 31.053 34.9798C31.4721 35.7054 32.1621 36.2351 32.9714 36.4527C33.4063 36.5679 33.8607 36.589 34.3044 36.5146C34.7482 36.4403 35.1709 36.2721 35.5445 36.0214C35.9181 35.7707 36.2339 35.4432 36.4709 35.0608C36.7079 34.6783 36.8606 34.2498 36.9188 33.8036C36.977 33.3575 36.9394 32.9041 36.8085 32.4737C36.6776 32.0432 36.4564 31.6457 36.1597 31.3075C35.863 30.9693 35.4975 30.6983 35.0878 30.5125C34.678 30.3268 34.2333 30.2305 33.7834 30.2302V30.2302Z" fill="#FA4616"/>
</svg>
