<svg width="64" height="64" viewBox="0 0 64 64" fill="none" xmlns="http://www.w3.org/2000/svg">
<path d="M31.8286 56.9886C31.739 57.0038 31.6474 57.0038 31.5578 56.9886C30.4539 56.697 11 46.4077 11 36.16V16.3729C11 16.0967 11.1097 15.8318 11.305 15.6365C11.5003 15.4412 11.7652 15.3314 12.0414 15.3314C16.7799 15.3314 29.3292 9.80145 30.985 7.44782C31.0807 7.30986 31.2084 7.19708 31.3571 7.11911C31.5058 7.04114 31.6711 7.00028 31.839 7C32.0069 7.00028 32.1723 7.04114 32.321 7.11911C32.4697 7.19708 32.5973 7.30986 32.693 7.44782C34.2968 9.72855 46.3045 15.3314 51.6158 15.3314C51.892 15.3314 52.1569 15.4412 52.3522 15.6365C52.5475 15.8318 52.6572 16.0967 52.6572 16.3729V37.2015C52.6572 45.637 33.0158 56.697 32.0994 56.9886C32.0098 57.0038 31.9182 57.0038 31.8286 56.9886ZM13.0829 17.3622V36.1705C13.0829 43.9812 28.7043 53.4686 31.8286 54.8225C34.5363 53.5311 50.5743 43.5959 50.5743 37.2119V17.4247C45.0131 16.8936 35.182 12.5508 31.8286 9.60358C28.4023 12.53 18.2275 16.7999 13.0829 17.3622V17.3622Z" fill="#404040"/>
<path d="M27.2673 42.1899C22.4038 40.3778 20.3001 34.4729 21.0187 31.3695C22.1434 26.6622 25.299 24.3711 28.0692 22.3507C30.071 21.1182 31.7747 19.4571 33.0576 17.4872C33.1284 17.3594 33.2252 17.248 33.3418 17.1601C33.4584 17.0721 33.5922 17.0097 33.7346 16.9769C33.8796 16.9445 34.03 16.9435 34.1755 16.974C34.321 17.0046 34.4583 17.0659 34.5781 17.1539C39.4728 20.7365 41.4203 28.141 39.2229 34.7541C37.6816 39.3676 33.4534 40.9298 31.0581 41.4609L30.6207 39.3781C32.5682 38.9511 36.0361 37.6909 37.2442 34.0564C39.025 28.693 37.7441 22.7777 34.2136 19.4763C32.8289 21.2287 31.1687 22.7447 29.2981 23.9649C26.5695 25.9436 23.9972 27.8286 23.0495 31.786C22.4871 34.1501 24.3409 38.8157 27.9754 40.1175L27.2673 42.1899Z" fill="#FA4616"/>
<path d="M27.7046 47.9699C24.8719 39.7946 28.0691 33.2024 30.6414 27.9015C31.0892 26.985 31.5266 26.0894 31.9119 25.2146L33.8178 26.0582C33.422 26.9538 32.9742 27.8702 32.516 28.8075C29.9957 34.0147 27.1214 39.93 29.6729 47.2929L27.7046 47.9699Z" fill="#FA4616"/>
</svg>
