<svg width="64" height="64" viewBox="0 0 64 64" fill="none" xmlns="http://www.w3.org/2000/svg">
<path d="M31.8325 56.9882C31.7428 57.0026 31.6514 57.0026 31.5617 56.9882C30.5201 56.6965 11 46.4053 11 36.1557V16.3648C11 16.0885 11.1097 15.8236 11.3051 15.6282C11.5004 15.4329 11.7654 15.3232 12.0416 15.3232C16.7914 15.3232 29.3326 9.79212 30.9992 7.43805C31.0955 7.3026 31.2228 7.19217 31.3705 7.11596C31.5182 7.03976 31.682 7 31.8481 7C32.0143 7 32.1781 7.03976 32.3258 7.11596C32.4735 7.19217 32.6008 7.3026 32.6971 7.43805C34.3116 9.71921 46.3111 15.3232 51.6234 15.3232C51.8997 15.3232 52.1646 15.4329 52.3599 15.6282C52.5553 15.8236 52.665 16.0885 52.665 16.3648V37.1973C52.665 45.6345 33.02 56.6965 32.1033 56.9882C32.0137 57.0039 31.9221 57.0039 31.8325 56.9882V56.9882ZM13.0833 17.3543V36.1661C13.0833 43.9783 28.7076 53.4675 31.8325 54.8216C34.5303 53.53 50.5818 43.5929 50.5818 37.2077V17.4168C45.0299 16.8856 35.197 12.542 31.8325 9.59421C28.3951 12.5212 18.2289 16.7918 13.0833 17.3543Z" fill="#404040"/>
<path d="M26.2702 46.8636L27.5514 34.0829H23.1245L27.9264 18.4585H38.5406L35.4157 26.7915H42.3217L26.2702 46.8636ZM25.9473 31.9996H29.8534L29.0409 40.0618L37.9885 28.8747H32.4054L35.5303 20.5417H29.468L25.9473 31.9996Z" fill="#FA4616"/>
</svg>
