<svg width="64" height="64" viewBox="0 0 64 64" fill="none" xmlns="http://www.w3.org/2000/svg">
<path d="M27.32 53.7724L25.8237 52.3075C25.9493 52.1819 28.9628 49.1684 30.0092 48.122L30.3963 47.7558L30.9195 47.85C32.4589 48.1074 34.038 47.9825 35.5178 47.4862C36.9976 46.9899 38.3326 46.1374 39.4055 45.0039L40.8809 46.4792C39.6439 47.777 38.1209 48.7678 36.4332 49.3727C34.7455 49.9777 32.9399 50.18 31.1602 49.9636C29.8313 51.2193 27.3409 53.7515 27.32 53.7724Z" fill="#404040"/>
<path d="M26.2635 56.9219L24.7882 55.4466L26.138 54.0863L12.9642 40.9231L8.47537 45.412L7 43.9366L12.9642 37.9619L29.0992 54.0863L26.2635 56.9219Z" fill="#404040"/>
<path d="M12.657 43.9386L11.1772 45.4184L13.2711 47.5123L14.7509 46.0325L12.657 43.9386Z" fill="#404040"/>
<path d="M28.6071 45.0143L26.6295 44.3237C27.4557 42.0255 27.7196 39.5628 27.3993 37.1417C27.0789 34.7206 26.1835 32.4113 24.7879 30.4071L24.4426 29.9676L24.6205 29.434C25.408 27.084 25.8967 24.6442 26.075 22.1722C26.1209 20.8683 25.6976 19.5912 24.8821 18.5727C24.7879 18.4677 24.6678 18.3892 24.5337 18.3451C24.3997 18.301 24.2564 18.2929 24.1182 18.3216C24.0118 18.3308 23.9096 18.3674 23.8215 18.428C23.7335 18.4885 23.6627 18.5708 23.616 18.6669C23.0091 20.5922 22.5696 22.0257 22.2348 23.1872C21.586 25.3322 21.1884 26.6297 20.4978 28.419C19.9514 30.3213 19.6663 32.289 19.6503 34.2682C19.6752 35.452 19.5091 36.6321 19.1585 37.763C19.0643 37.9514 18.9597 38.192 15.7892 41.216L14.3452 39.6988C15.5799 38.5269 16.9507 37.1771 17.296 36.7899C17.4526 35.9155 17.5436 35.0306 17.568 34.1426C17.6018 31.9307 17.9542 29.7352 18.6144 27.6238C19.2945 25.8764 19.6607 24.6835 20.299 22.5175C20.6548 21.3456 21.0838 19.9016 21.6907 17.9763C21.8507 17.5136 22.1359 17.1043 22.5146 16.794C22.8933 16.4837 23.3506 16.2844 23.8357 16.2184C24.3526 16.116 24.8879 16.1597 25.3814 16.3445C25.8748 16.5293 26.3071 16.848 26.6295 17.2648C27.7461 18.7035 28.297 20.5014 28.1781 22.3187C28.0074 24.765 27.5437 27.1819 26.7969 29.5177C28.2832 31.7819 29.2207 34.3617 29.5349 37.0519C29.8492 39.7421 29.5315 42.4685 28.6071 45.0143V45.0143Z" fill="#404040"/>
<path d="M40.7762 46.7617C38.2618 46.7716 35.7801 46.1917 33.5304 45.0686C31.2807 43.9456 29.3257 42.3107 27.8223 40.2952L29.4965 39.0396C30.8066 40.7933 32.5093 42.2159 34.468 43.1935C36.4267 44.171 38.5871 44.6764 40.7762 44.669V44.669C43.1327 44.6799 45.4544 44.1002 47.5292 42.9828C49.604 41.8654 51.3658 40.2461 52.6536 38.2726C53.9414 36.2991 54.7143 34.0343 54.9016 31.6853C55.0889 29.3362 54.6847 26.9776 53.7258 24.825C52.7669 22.6724 51.284 20.7943 49.4125 19.3623C47.541 17.9303 45.3405 16.99 43.012 16.6273C40.6836 16.2646 38.3014 16.4911 36.083 17.2861C33.8646 18.081 31.8807 19.4192 30.3126 21.1782L28.7535 19.7761C30.5544 17.765 32.8296 16.2363 35.372 15.329C37.9145 14.4217 40.6435 14.1646 43.3106 14.5812C45.9778 14.9978 48.4984 16.0748 50.6431 17.7143C52.7878 19.3537 54.4884 21.5034 55.5901 23.9679C56.6919 26.4323 57.1599 29.1331 56.9514 31.8246C56.743 34.516 55.8647 37.1126 54.3966 39.3779C52.9284 41.6433 50.9171 43.5056 48.5455 44.7952C46.174 46.0848 43.5176 46.7608 40.8181 46.7617H40.7762Z" fill="#404040"/>
<path d="M42.2622 18.51H40.1694V26.8809H42.2622V18.51Z" fill="#FA4616"/>
<path d="M44.3543 15.3709H42.2616V13.2782H40.1689V15.3709H38.0762V11.1855H44.3543V15.3709Z" fill="#404040"/>
<path d="M46.4475 13.2782H35.9839V7H46.4475V13.2782ZM38.0766 11.1854H44.3548V9.09272H38.0766V11.1854Z" fill="#404040"/>
<path d="M41.2157 34.2054C40.3879 34.2054 39.5787 33.96 38.8904 33.5001C38.2021 33.0402 37.6657 32.3865 37.3489 31.6217C37.0321 30.8569 36.9492 30.0153 37.1107 29.2034C37.2722 28.3915 37.6708 27.6458 38.2562 27.0604C38.8415 26.4751 39.5873 26.0765 40.3992 25.915C41.2111 25.7535 42.0526 25.8363 42.8174 26.1531C43.5822 26.4699 44.2359 27.0064 44.6958 27.6947C45.1557 28.383 45.4012 29.1922 45.4012 30.02C45.4012 31.13 44.9602 32.1946 44.1753 32.9795C43.3903 33.7645 42.3258 34.2054 41.2157 34.2054ZM41.2157 27.9273C40.8018 27.9273 40.3972 28.05 40.0531 28.2799C39.7089 28.5099 39.4407 28.8367 39.2823 29.2191C39.1239 29.6015 39.0825 30.0223 39.1632 30.4283C39.244 30.8342 39.4433 31.2071 39.736 31.4998C40.0286 31.7924 40.4015 31.9917 40.8075 32.0725C41.2134 32.1532 41.6342 32.1118 42.0166 31.9534C42.399 31.795 42.7258 31.5268 42.9558 31.1826C43.1857 30.8385 43.3084 30.4339 43.3084 30.02C43.3084 29.465 43.0879 28.9327 42.6955 28.5402C42.303 28.1477 41.7707 27.9273 41.2157 27.9273Z" fill="#FA4616"/>
<path d="M50.935 13.5869L47.7979 16.724L49.2776 18.2038L52.4148 15.0666L50.935 13.5869Z" fill="#404040"/>
<path d="M50.3221 11.4906L48.8423 12.9704L53.0301 17.1582L54.5098 15.6784L50.3221 11.4906Z" fill="#404040"/>
<path d="M31.4886 13.5877L30.0088 15.0675L33.1459 18.2046L34.6257 16.7249L31.4886 13.5877Z" fill="#404040"/>
<path d="M32.1077 11.4855L27.9199 15.6732L29.3997 17.153L33.5875 12.9652L32.1077 11.4855Z" fill="#404040"/>
<path d="M42.2622 33.1591H40.1694V37.3445H42.2622V33.1591Z" fill="#FA4616"/>
</svg>
