<svg width="64" height="64" viewBox="0 0 64 64" fill="none" xmlns="http://www.w3.org/2000/svg">
<path d="M49.7082 56.0305C49.457 56.0334 49.2132 55.9453 49.0217 55.7826C48.8303 55.6199 48.7042 55.3935 48.6665 55.1451L44.6457 27.9055H31.854L27.8227 55.1451C27.7827 55.4214 27.6345 55.6704 27.4109 55.8374C27.1872 56.0045 26.9063 56.0758 26.63 56.0357C26.3538 55.9957 26.1047 55.8475 25.9377 55.6238C25.7707 55.4002 25.6994 55.1193 25.7394 54.843L29.9061 26.718C29.9415 26.4677 30.0666 26.2388 30.2583 26.074C30.4499 25.9092 30.695 25.8197 30.9477 25.8222H45.5311C45.7838 25.8197 46.0289 25.9092 46.2205 26.074C46.4122 26.2388 46.5374 26.4677 46.5727 26.718L50.7394 54.843C50.7782 55.115 50.7081 55.3912 50.5442 55.6117C50.3803 55.8321 50.136 55.9789 49.8644 56.0201L49.7082 56.0305Z" fill="#404040"/>
<path d="M55.604 45.7805C55.3528 45.7834 55.109 45.6953 54.9176 45.5326C54.7262 45.3699 54.6 45.1435 54.5623 44.8951L52.979 34.1555H49.7082C49.4319 34.1555 49.1669 34.0458 48.9716 33.8504C48.7762 33.6551 48.6665 33.3901 48.6665 33.1139C48.6665 32.8376 48.7762 32.5727 48.9716 32.3773C49.1669 32.182 49.4319 32.0722 49.7082 32.0722H53.8748C54.1276 32.0697 54.3726 32.1592 54.5643 32.324C54.7559 32.4889 54.8811 32.7178 54.9165 32.968L56.6352 44.5722C56.6559 44.7084 56.6492 44.8474 56.6158 44.981C56.5823 45.1146 56.5227 45.2403 56.4404 45.3508C56.358 45.4612 56.2546 45.5542 56.1361 45.6244C56.0175 45.6946 55.8863 45.7406 55.7498 45.7597L55.604 45.7805Z" fill="#404040"/>
<path d="M55.9583 56.0305H8.04167C7.7654 56.0305 7.50043 55.9208 7.30508 55.7254C7.10973 55.5301 7 55.2651 7 54.9889C7 54.7126 7.10973 54.4476 7.30508 54.2523C7.50043 54.0569 7.7654 53.9472 8.04167 53.9472H55.9583C56.2346 53.9472 56.4995 54.0569 56.6949 54.2523C56.8902 54.4476 57 54.7126 57 54.9889C57 55.2651 56.8902 55.5301 56.6949 55.7254C56.4995 55.9208 56.2346 56.0305 55.9583 56.0305Z" fill="#404040"/>
<path d="M11.1667 56.0305C10.8904 56.0305 10.6254 55.9208 10.4301 55.7254C10.2347 55.5301 10.125 55.2651 10.125 54.9889V44.5722C10.125 44.2959 10.2347 44.031 10.4301 43.8356C10.6254 43.6403 10.8904 43.5305 11.1667 43.5305H24.1666C24.4429 43.5305 24.7079 43.6403 24.9032 43.8356C25.0986 44.031 25.2083 44.2959 25.2083 44.5722C25.2083 44.8485 25.0986 45.1134 24.9032 45.3088C24.7079 45.5041 24.4429 45.6139 24.1666 45.6139H12.2083V54.9889C12.2083 55.2651 12.0986 55.5301 11.9032 55.7254C11.7079 55.9208 11.4429 56.0305 11.1667 56.0305Z" fill="#404040"/>
<path d="M15.3337 45.6139C15.0574 45.6139 14.7924 45.5041 14.5971 45.3088C14.4017 45.1134 14.292 44.8485 14.292 44.5722V39.3639C14.292 39.0876 14.4017 38.8227 14.5971 38.6273C14.7924 38.432 15.0574 38.3222 15.3337 38.3222H25.7503C26.0266 38.3222 26.2915 38.432 26.4869 38.6273C26.6822 38.8227 26.792 39.0876 26.792 39.3639C26.792 39.6401 26.6822 39.9051 26.4869 40.1004C26.2915 40.2958 26.0266 40.4055 25.7503 40.4055H16.3753V44.5722C16.3753 44.8485 16.2656 45.1134 16.0702 45.3088C15.8749 45.5041 15.6099 45.6139 15.3337 45.6139Z" fill="#404040"/>
<path d="M38.2493 47.6972C38.1174 47.6975 37.9865 47.6728 37.8638 47.6243C37.7365 47.5738 37.6205 47.4987 37.5222 47.4032C37.424 47.3078 37.3456 47.194 37.2914 47.0682C37.2372 46.9424 37.2083 46.8072 37.2065 46.6702C37.2046 46.5333 37.2298 46.3973 37.2805 46.2701L38.7909 42.4889H36.1659C35.9953 42.4891 35.8272 42.4475 35.6765 42.3675C35.5257 42.2876 35.3969 42.1719 35.3013 42.0305C35.2063 41.8898 35.1472 41.7279 35.129 41.5591C35.1109 41.3902 35.1343 41.2195 35.1972 41.0618L37.2805 35.8535C37.3311 35.7262 37.4063 35.6102 37.5018 35.5121C37.5972 35.4139 37.711 35.3355 37.8368 35.2813C37.9625 35.2272 38.0977 35.1983 38.2346 35.1964C38.3715 35.1945 38.5075 35.2195 38.6347 35.2701C38.7619 35.3207 38.8779 35.3959 38.9761 35.4913C39.0742 35.5868 39.1526 35.7006 39.2068 35.8264C39.261 35.9521 39.2899 36.0873 39.2918 36.2242C39.2937 36.3611 39.2686 36.4971 39.218 36.6243L37.7076 40.4055H40.3326C40.5028 40.4054 40.6704 40.4469 40.8208 40.5265C40.9713 40.6061 41.0999 40.7214 41.1955 40.8622C41.2911 41.003 41.3507 41.165 41.3691 41.3342C41.3876 41.5034 41.3643 41.6745 41.3014 41.8326L39.218 47.0409C39.1408 47.2348 39.0072 47.401 38.8345 47.518C38.6618 47.635 38.4579 47.6974 38.2493 47.6972Z" fill="#FA4616"/>
<path d="M16.3747 50.8222C16.0984 50.8222 15.8334 50.7125 15.6381 50.5171C15.4427 50.3218 15.333 50.0568 15.333 49.7805V48.7389C15.333 48.4626 15.4427 48.1977 15.6381 48.0023C15.8334 47.807 16.0984 47.6972 16.3747 47.6972C16.6509 47.6972 16.9159 47.807 17.1112 48.0023C17.3066 48.1977 17.4163 48.4626 17.4163 48.7389V49.7805C17.4163 50.0568 17.3066 50.3218 17.1112 50.5171C16.9159 50.7125 16.6509 50.8222 16.3747 50.8222Z" fill="#FA4616"/>
<path d="M21.5832 50.8222C21.3069 50.8222 21.0419 50.7125 20.8466 50.5171C20.6512 50.3218 20.5415 50.0568 20.5415 49.7805V48.7389C20.5415 48.4626 20.6512 48.1977 20.8466 48.0023C21.0419 47.807 21.3069 47.6972 21.5832 47.6972C21.8594 47.6972 22.1244 47.807 22.3197 48.0023C22.5151 48.1977 22.6248 48.4626 22.6248 48.7389V49.7805C22.6248 50.0568 22.5151 50.3218 22.3197 50.5171C22.1244 50.7125 21.8594 50.8222 21.5832 50.8222Z" fill="#FA4616"/>
<path d="M27.3125 22.6972C25.7703 22.6964 24.2627 22.2398 22.9792 21.3847C21.8219 22.2414 20.419 22.7017 18.9792 22.6972C18.7029 22.6972 18.4379 22.5875 18.2426 22.3921C18.0472 22.1968 17.9375 21.9318 17.9375 21.6555C17.9375 21.3793 18.0472 21.1143 18.2426 20.919C18.4379 20.7236 18.7029 20.6139 18.9792 20.6139C20.1925 20.6186 21.3594 20.1474 22.2292 19.3014C22.4199 19.1315 22.6664 19.0377 22.9218 19.0377C23.1773 19.0377 23.4238 19.1315 23.6146 19.3014C24.6498 20.1732 25.9591 20.6526 27.3125 20.6555C28.7941 20.6592 30.2183 20.0835 31.2812 19.0514C31.4802 18.8594 31.7472 18.7542 32.0236 18.7591C32.3 18.764 32.5632 18.8785 32.7552 19.0774C32.9472 19.2763 33.0523 19.5434 33.0475 19.8198C33.0426 20.0962 32.9281 20.3594 32.7291 20.5514C31.2714 21.9439 29.3284 22.7137 27.3125 22.6972V22.6972Z" fill="#404040"/>
<path d="M33.5624 13.3222C33.3579 13.322 33.158 13.2617 32.9875 13.1487C32.8171 13.0357 32.6838 12.875 32.604 12.6868C32.4565 12.3214 32.2715 11.9723 32.0519 11.6451C31.9753 11.5315 31.9218 11.404 31.8945 11.2698C31.8672 11.1356 31.8665 10.9973 31.8927 10.8629C31.9188 10.7284 31.9711 10.6004 32.0467 10.4862C32.1223 10.372 32.2196 10.2738 32.3332 10.1972C32.4467 10.1206 32.5742 10.0671 32.7084 10.0397C32.8426 10.0124 32.9809 10.0118 33.1154 10.0379C33.2498 10.064 33.3778 10.1164 33.492 10.192C33.6063 10.2675 33.7045 10.3649 33.7811 10.4784C34.0755 10.9148 34.3267 11.3788 34.5311 11.8638C34.584 11.9903 34.6115 12.126 34.6118 12.2632C34.6122 12.4003 34.5855 12.5362 34.5332 12.6629C34.481 12.7897 34.4042 12.9049 34.3073 13.002C34.2104 13.099 34.0953 13.176 33.9686 13.2284C33.8403 13.2849 33.7025 13.3167 33.5624 13.3222V13.3222Z" fill="#404040"/>
<path d="M31.7812 24.7805C31.6116 24.7819 31.4441 24.7419 31.2934 24.6638C31.1427 24.5857 31.0134 24.4721 30.9167 24.3326C30.13 23.1799 29.7894 21.7804 29.9583 20.3951C29.9929 20.1188 30.1357 19.8676 30.3555 19.6967C30.4643 19.612 30.5888 19.5497 30.7217 19.5131C30.8546 19.4766 30.9934 19.4665 31.1302 19.4836C31.267 19.5007 31.3991 19.5446 31.5189 19.6128C31.6388 19.6809 31.744 19.772 31.8286 19.8808C31.9133 19.9896 31.9756 20.1141 32.0122 20.247C32.0487 20.3799 32.0588 20.5187 32.0417 20.6555C31.9307 21.5347 32.1457 22.4241 32.6458 23.1555C32.8019 23.3835 32.8611 23.664 32.8103 23.9356C32.7595 24.2071 32.6029 24.4473 32.375 24.6034C32.1996 24.7213 31.9925 24.7831 31.7812 24.7805V24.7805Z" fill="#404040"/>
<path d="M52.2809 31.0305C52.0904 31.0323 51.9031 30.9819 51.7393 30.8847C51.622 30.8132 51.5199 30.7192 51.4391 30.6081C51.3583 30.497 51.3002 30.371 51.2683 30.2374C51.2363 30.1038 51.2311 29.9652 51.253 29.8296C51.2748 29.694 51.3233 29.564 51.3955 29.4472C51.757 28.8423 51.9174 28.1385 51.8539 27.4367C51.7976 26.8582 51.6179 26.2984 51.3268 25.7952C51.0357 25.292 50.6399 24.8572 50.1663 24.5201C49.9592 24.3675 49.8159 24.1437 49.764 23.8917C49.7121 23.6398 49.7552 23.3775 49.8851 23.1555C50.2284 22.5669 50.3813 21.8865 50.3226 21.2076C50.2148 20.2066 49.7482 19.2784 49.009 18.5948C48.2699 17.9111 47.3082 17.5183 46.3018 17.4888C45.5689 17.4866 44.8555 17.7244 44.2705 18.1659C44.0501 18.3188 43.7791 18.3807 43.5141 18.3388C43.2491 18.2968 43.0104 18.1543 42.848 17.9408C42.6855 17.7273 42.6117 17.4593 42.6419 17.1927C42.6721 16.9261 42.804 16.6814 43.0101 16.5097C43.9557 15.789 45.1129 15.4009 46.3018 15.4055C47.8311 15.4364 49.2961 16.027 50.4192 17.0656C51.5422 18.1042 52.2454 19.5186 52.3955 21.0409C52.457 21.8431 52.3469 22.6492 52.0726 23.4055C53.1406 24.4249 53.7999 25.7991 53.9268 27.2701C54.0276 28.4102 53.7611 29.5526 53.1663 30.5305C53.0738 30.6826 52.9438 30.8083 52.7888 30.8959C52.6338 30.9834 52.4589 31.0298 52.2809 31.0305V31.0305Z" fill="#404040"/>
<path d="M40.5517 24.7805C40.3429 24.7779 40.1397 24.7126 39.9684 24.593C39.7405 24.4369 39.5839 24.1967 39.5331 23.9252C39.4824 23.6536 39.5415 23.373 39.6976 23.1451C40.1179 22.5322 40.3398 21.8049 40.333 21.0618C40.333 20.509 40.2051 19.9637 39.9593 19.4686C39.7136 18.9734 39.3566 18.5418 38.9163 18.2076C38.7094 18.0465 38.571 17.8133 38.5285 17.5545C38.486 17.2958 38.5427 17.0306 38.6871 16.8118C39.0816 16.2194 39.2918 15.5235 39.2913 14.8118C39.2913 13.8448 38.9072 12.9175 38.2235 12.2338C37.5397 11.55 36.6124 11.1659 35.6455 11.1659C34.8947 11.1726 34.1654 11.4169 33.5622 11.8639C33.4488 11.9448 33.3202 12.0022 33.1842 12.0326C33.0483 12.063 32.9076 12.0659 32.7705 12.0409C32.6324 12.018 32.5003 11.9674 32.3822 11.8922C32.2641 11.817 32.1623 11.7188 32.083 11.6034C31.6178 10.9132 31.0072 10.333 30.2942 9.90358C29.5811 9.47416 28.7827 9.20588 27.955 9.11755C27.1273 9.02922 26.2904 9.12298 25.5027 9.39226C24.7151 9.66153 23.9959 10.0998 23.3955 10.6764C23.2328 10.8353 23.0225 10.9366 22.7968 10.9648C22.5711 10.9931 22.3423 10.9466 22.1455 10.8326C21.3543 10.3639 20.4505 10.119 19.5309 10.1243C18.3515 10.1255 17.2073 10.527 16.2858 11.2631C15.3642 11.9992 14.7198 13.0263 14.458 14.1764C14.4273 14.3098 14.3706 14.4358 14.2911 14.5473C14.2117 14.6588 14.111 14.7535 13.9949 14.8261C13.8788 14.8986 13.7496 14.9476 13.6145 14.9702C13.4795 14.9928 13.3414 14.9885 13.208 14.9576C13.0746 14.9269 12.9485 14.8702 12.837 14.7908C12.7255 14.7113 12.6308 14.6106 12.5582 14.4946C12.4857 14.3785 12.4367 14.2492 12.4141 14.1142C12.3916 13.9791 12.3959 13.841 12.4267 13.7076C12.7946 12.0984 13.6976 10.6616 14.9881 9.63225C16.2786 8.60289 17.8802 8.04186 19.5309 8.04093C20.5609 8.04166 21.5793 8.25811 22.5205 8.67635C24.088 7.43874 26.0708 6.8503 28.0597 7.03252C30.0485 7.21473 31.8915 8.15369 33.208 9.65552C33.9765 9.27889 34.8209 9.08292 35.6767 9.0826C36.6336 9.08237 37.5751 9.32224 38.4152 9.78019C39.2553 10.2382 39.9671 10.8996 40.4853 11.7039C41.0036 12.5082 41.3117 13.4297 41.3816 14.3839C41.4514 15.3382 41.2807 16.2947 40.8851 17.1659C41.7786 18.1132 42.3207 19.3379 42.4211 20.6362C42.5216 21.9344 42.1743 23.2279 41.4372 24.3013C41.3421 24.4495 41.211 24.5712 41.0562 24.655C40.9013 24.7388 40.7278 24.782 40.5517 24.7805Z" fill="#404040"/>
</svg>
