<svg width="64" height="64" viewBox="0 0 64 64" fill="none" xmlns="http://www.w3.org/2000/svg">
<path d="M32 57C27.0555 57 22.222 55.5338 18.1108 52.7867C13.9995 50.0397 10.7952 46.1352 8.90302 41.5671C7.01083 36.9989 6.51575 31.9723 7.48038 27.1227C8.44501 22.2732 10.826 17.8186 14.3223 14.3223C17.8187 10.826 22.2732 8.44501 27.1227 7.48038C31.9723 6.51575 36.9989 7.01083 41.5671 8.90302C46.1353 10.7952 50.0397 13.9995 52.7867 18.1107C55.5338 22.222 57 27.0555 57 32C57 38.6304 54.3661 44.9893 49.6777 49.6777C44.9893 54.3661 38.6304 57 32 57ZM32 9.38095C27.5264 9.38095 23.1532 10.7075 19.4335 13.193C15.7139 15.6784 12.8147 19.211 11.1027 23.3441C9.39075 27.4772 8.94282 32.0251 9.81558 36.4128C10.6883 40.8004 12.8426 44.8308 16.0059 47.9941C19.1693 51.1574 23.1996 53.3117 27.5873 54.1844C31.9749 55.0572 36.5229 54.6093 40.6559 52.8973C44.789 51.1853 48.3216 48.2861 50.8071 44.5665C53.2925 40.8468 54.619 36.4736 54.619 32C54.619 29.0296 54.034 26.0883 52.8973 23.3441C51.7606 20.5998 50.0945 18.1063 47.9941 16.0059C45.8937 13.9055 43.4002 12.2394 40.6559 11.1027C37.9117 9.96601 34.9704 9.38095 32 9.38095V9.38095Z" fill="#404040"/>
<path d="M32.0002 37.9524C30.823 37.9524 29.6721 37.6033 28.6933 36.9492C27.7144 36.2951 26.9515 35.3655 26.501 34.2779C26.0504 33.1902 25.9326 31.9934 26.1622 30.8387C26.3919 29.6841 26.9588 28.6235 27.7913 27.791C28.6237 26.9586 29.6843 26.3917 30.839 26.162C31.9936 25.9323 33.1904 26.0502 34.2781 26.5007C35.3658 26.9512 36.2954 27.7142 36.9494 28.693C37.6035 29.6719 37.9526 30.8227 37.9526 32C37.9526 33.5787 37.3255 35.0927 36.2092 36.209C35.0929 37.3252 33.5789 37.9524 32.0002 37.9524V37.9524ZM32.0002 28.4286C31.2939 28.4286 30.6034 28.638 30.0161 29.0305C29.4287 29.4229 28.971 29.9807 28.7007 30.6333C28.4303 31.2859 28.3596 32.004 28.4974 32.6967C28.6352 33.3895 28.9754 34.0259 29.4749 34.5254C29.9743 35.0248 30.6107 35.365 31.3035 35.5028C31.9963 35.6406 32.7144 35.5699 33.367 35.2995C34.0195 35.0292 34.5773 34.5715 34.9698 33.9842C35.3622 33.3969 35.5717 32.7063 35.5717 32C35.5717 31.0528 35.1954 30.1444 34.5256 29.4746C33.8558 28.8048 32.9474 28.4286 32.0002 28.4286V28.4286Z" fill="#FA4616"/>
<path d="M22.476 49.6905C22.2679 49.6888 22.0634 49.6356 21.8808 49.5357C18.8101 47.7504 16.2604 45.1923 14.4851 42.1159C12.7099 39.0395 11.7709 35.5519 11.7617 32C11.7617 31.6843 11.8871 31.3814 12.1104 31.1582C12.3337 30.9349 12.6365 30.8095 12.9522 30.8095H23.6665C23.9822 30.8095 24.285 30.9349 24.5083 31.1582C24.7315 31.3814 24.8569 31.6843 24.8569 32C24.8569 32.3157 24.7315 32.6185 24.5083 32.8418C24.285 33.065 23.9822 33.1905 23.6665 33.1905H14.1427C14.3307 35.9145 15.1384 38.5596 16.5042 40.924C17.87 43.2884 19.7578 45.3096 22.0236 46.8333L26.7855 38.619C26.9434 38.3443 27.2039 38.1436 27.5098 38.061C27.8156 37.9784 28.1418 38.0207 28.4165 38.1786C28.6912 38.3364 28.8919 38.5969 28.9745 38.9028C29.0571 39.2087 29.0148 39.5348 28.8569 39.8095L23.4998 49.0833C23.3964 49.2672 23.2461 49.4203 23.0641 49.527C22.8821 49.6337 22.675 49.6901 22.4641 49.6905H22.476Z" fill="#FA4616"/>
<path d="M41.5237 49.6905C41.3907 49.6882 41.2586 49.6681 41.1308 49.631C40.8537 49.527 40.6219 49.329 40.4761 49.0715L35.1308 39.7619C34.9756 39.4886 34.9348 39.1649 35.0173 38.8616C35.0999 38.5583 35.299 38.2999 35.5713 38.1429C35.7065 38.0637 35.8559 38.0119 36.0111 37.9906C36.1663 37.9693 36.3242 37.9788 36.4757 38.0186C36.6273 38.0584 36.7694 38.1278 36.8941 38.2226C37.0188 38.3175 37.1235 38.436 37.2023 38.5715L41.9642 46.7857C44.2287 45.2607 46.1156 43.2392 47.4812 40.8751C48.8469 38.5109 49.6554 35.8665 49.8451 33.1429H40.3213C40.0056 33.1429 39.7028 33.0175 39.4795 32.7942C39.2562 32.5709 39.1308 32.2681 39.1308 31.9524C39.1308 31.6367 39.2562 31.3339 39.4795 31.1106C39.7028 30.8874 40.0056 30.7619 40.3213 30.7619H51.0356C51.3513 30.7619 51.6541 30.8874 51.8774 31.1106C52.1006 31.3339 52.2261 31.6367 52.2261 31.9524C52.2168 35.5043 51.2779 38.9919 49.5027 42.0683C47.7274 45.1448 45.1776 47.7028 42.107 49.4881C41.9337 49.6057 41.7325 49.6755 41.5237 49.6905Z" fill="#FA4616"/>
<path d="M36.1665 25.9762C35.9571 25.977 35.7512 25.9227 35.5696 25.8185C35.3879 25.7144 35.237 25.5641 35.1319 25.383C35.0269 25.2019 34.9715 24.9963 34.9713 24.7869C34.971 24.5775 35.0261 24.3718 35.1307 24.1905L39.8926 15.9762C37.435 14.7891 34.741 14.1725 32.0117 14.1725C29.2824 14.1725 26.5883 14.7891 24.1307 15.9762L28.8926 24.1905C29.0505 24.4652 29.0928 24.7913 29.0102 25.0972C28.9276 25.4031 28.7269 25.6636 28.4522 25.8214C28.1775 25.9793 27.8513 26.0216 27.5455 25.939C27.2396 25.8564 26.9791 25.6557 26.8212 25.381L21.4641 16.1072C21.3854 15.9713 21.3343 15.8212 21.3139 15.6655C21.2934 15.5098 21.3039 15.3516 21.3449 15.2C21.3858 15.0484 21.4564 14.9064 21.5524 14.7822C21.6485 14.658 21.7681 14.554 21.9046 14.4762C24.9919 12.732 28.4776 11.8154 32.0236 11.8154C35.5696 11.8154 39.0553 12.732 42.1427 14.4762C42.4035 14.6287 42.5966 14.8747 42.6828 15.1643C42.769 15.4539 42.7419 15.7654 42.6069 16.0357L37.226 25.381C37.1191 25.5662 36.9643 25.7192 36.7779 25.824C36.5915 25.9287 36.3802 25.9813 36.1665 25.9762Z" fill="#FA4616"/>
</svg>
