<svg width="64" height="64" viewBox="0 0 64 64" fill="none" xmlns="http://www.w3.org/2000/svg">
<path d="M32.4507 37.439C31.376 37.439 30.3255 37.1204 29.4319 36.5233C28.5384 35.9263 27.842 35.0776 27.4307 34.0848C27.0194 33.0919 26.9118 31.9994 27.1215 30.9454C27.3312 29.8914 27.8487 28.9232 28.6086 28.1633C29.3685 27.4034 30.3366 26.8859 31.3907 26.6762C32.4447 26.4666 33.5372 26.5742 34.53 26.9854C35.5229 27.3967 36.3715 28.0931 36.9686 28.9867C37.5656 29.8802 37.8843 30.9308 37.8843 32.0054C37.8843 33.4465 37.3118 34.8286 36.2928 35.8476C35.2738 36.8666 33.8918 37.439 32.4507 37.439V37.439ZM32.4507 28.7453C31.8059 28.7453 31.1756 28.9365 30.6394 29.2947C30.1033 29.653 29.6855 30.1621 29.4387 30.7578C29.1919 31.3536 29.1274 32.0091 29.2532 32.6415C29.379 33.2739 29.6895 33.8548 30.1454 34.3107C30.6014 34.7667 31.1823 35.0772 31.8147 35.203C32.4471 35.3288 33.1026 35.2642 33.6983 35.0174C34.294 34.7707 34.8032 34.3528 35.1614 33.8167C35.5196 33.2806 35.7109 32.6502 35.7109 32.0054C35.7109 31.1408 35.3674 30.3115 34.756 29.7001C34.1446 29.0888 33.3153 28.7453 32.4507 28.7453V28.7453Z" fill="#FA4616"/>
<path d="M32.4506 57C29.3643 57 26.5497 54.2723 24.5284 49.306C24.4643 49.1722 24.4284 49.0268 24.4227 48.8786C24.417 48.7303 24.4417 48.5826 24.4953 48.4443C24.5488 48.306 24.6302 48.1801 24.7342 48.0744C24.8383 47.9687 24.9629 47.8854 25.1003 47.8297C25.2378 47.774 25.3852 47.747 25.5334 47.7504C25.6817 47.7538 25.8277 47.7875 25.9625 47.8494C26.0972 47.9114 26.2179 48.0002 26.317 48.1106C26.4161 48.2209 26.4916 48.3504 26.5388 48.491C28.1798 52.5118 30.3423 54.8265 32.4506 54.8265C34.5588 54.8265 36.7322 52.5118 38.3841 48.4584C38.4936 48.1918 38.7045 47.9796 38.9705 47.8685C39.2364 47.7575 39.5356 47.7566 39.8022 47.8661C40.0688 47.9756 40.281 48.1866 40.3921 48.4525C40.5031 48.7185 40.504 49.0177 40.3945 49.2843C38.3515 54.3049 35.5369 57 32.4506 57Z" fill="#404040"/>
<path d="M39.3842 16.2697C39.1697 16.2686 38.9602 16.2041 38.7823 16.0842C38.6044 15.9643 38.466 15.7944 38.3844 15.596C36.7326 11.5316 34.57 9.19517 32.4401 9.19517C30.3101 9.19517 28.1584 11.5207 26.5175 15.5742C26.4632 15.7069 26.3834 15.8277 26.2825 15.9295C26.1816 16.0314 26.0616 16.1124 25.9294 16.1679C25.7972 16.2234 25.6554 16.2523 25.512 16.253C25.3687 16.2537 25.2266 16.2261 25.0938 16.1719C24.9611 16.1177 24.8404 16.0378 24.7385 15.9369C24.6367 15.8361 24.5557 15.7161 24.5002 15.5839C24.4447 15.4517 24.4157 15.3099 24.4151 15.1665C24.4144 15.0231 24.4419 14.881 24.4962 14.7483C26.5283 9.77113 29.3429 7.02173 32.4401 7.02173C35.5372 7.02173 38.3736 9.782 40.3949 14.7809C40.5024 15.0476 40.4999 15.3459 40.3878 15.6107C40.2758 15.8755 40.0634 16.0851 39.7972 16.1936C39.6658 16.2456 39.5255 16.2714 39.3842 16.2697Z" fill="#404040"/>
<path d="M18.3235 47.7846C14.6177 47.7846 11.977 46.6979 10.7164 44.5245C8.48863 40.6666 11.5423 34.494 18.6821 28.3975C18.9011 28.2102 19.1856 28.1175 19.473 28.14C19.7603 28.1624 20.027 28.298 20.2143 28.5171C20.4017 28.7361 20.4943 29.0206 20.4719 29.308C20.4495 29.5953 20.3139 29.862 20.0948 30.0493C13.9983 35.2547 10.9881 40.634 12.6073 43.4377C13.694 45.2852 16.7803 45.9915 21.1272 45.383C21.4125 45.3427 21.7022 45.4173 21.9325 45.5906C22.1627 45.7638 22.3148 46.0214 22.3552 46.3067C22.3955 46.592 22.3208 46.8817 22.1476 47.1119C21.9744 47.3422 21.7168 47.4943 21.4315 47.5347C20.4021 47.6868 19.3639 47.7703 18.3235 47.7846Z" fill="#404040"/>
<path d="M27.4845 46.0459C27.1962 46.0905 26.9021 46.0189 26.6667 45.8467C26.4313 45.6745 26.274 45.4158 26.2293 45.1276C26.1846 44.8394 26.2563 44.5452 26.4285 44.3098C26.6007 44.0744 26.8594 43.9171 27.1476 43.8724C30.4996 42.7537 33.7292 41.2973 36.7868 39.5255C41.714 36.8078 46.0891 33.192 49.6861 28.8648C52.3377 25.4308 53.2615 22.4097 52.2073 20.584C50.5881 17.7911 44.4047 17.7151 36.7976 20.3993C36.6612 20.4581 36.5141 20.4883 36.3654 20.488C36.2168 20.4878 36.0698 20.457 35.9336 20.3977C35.7973 20.3383 35.6747 20.2517 35.5732 20.143C35.4718 20.0344 35.3937 19.9061 35.3438 19.7661C35.2939 19.6261 35.2733 19.4774 35.2831 19.3291C35.293 19.1808 35.3332 19.0361 35.4012 18.904C35.4692 18.7718 35.5637 18.655 35.6786 18.5608C35.7936 18.4666 35.9266 18.397 36.0695 18.3562C44.9263 15.2047 51.8161 15.6503 54.0439 19.5082C55.587 22.1815 54.6307 26.0285 51.3597 30.2124C47.6059 34.7546 43.0355 38.5547 37.8844 41.4164C34.7009 43.2777 31.3365 44.8106 27.8431 45.9915C27.7267 46.0264 27.6059 46.0447 27.4845 46.0459Z" fill="#404040"/>
<path d="M46.1547 30.9296C45.8853 30.9289 45.6259 30.8282 45.4266 30.647C42.7636 28.3067 39.873 26.2389 36.798 24.4745C31.9832 21.571 26.6687 19.5919 21.1275 18.6388C16.7806 18.0628 13.7487 18.7692 12.6946 20.5949C11.6404 22.4205 12.5424 25.409 15.1723 28.8213C15.27 28.9329 15.3439 29.0634 15.3893 29.2046C15.4347 29.3458 15.4507 29.4949 15.4363 29.6425C15.4219 29.7902 15.3775 29.9333 15.3057 30.0632C15.2339 30.193 15.1363 30.3067 15.0189 30.3974C14.9014 30.4881 14.7667 30.5537 14.6229 30.5904C14.4792 30.627 14.3294 30.6338 14.183 30.6103C14.0365 30.5869 13.8963 30.5337 13.7712 30.454C13.646 30.3744 13.5385 30.2699 13.4553 30.1471C10.1951 25.9415 9.27139 22.1706 10.8037 19.5081C12.3359 16.8457 16.1177 15.7698 21.4209 16.4871C27.2425 17.4752 32.8271 19.5469 37.8847 22.5944C41.0964 24.4252 44.1116 26.581 46.8828 29.0278C47.0482 29.1737 47.1654 29.3665 47.2186 29.5806C47.2718 29.7947 47.2586 30.0199 47.1808 30.2263C47.1029 30.4327 46.9641 30.6106 46.7828 30.7362C46.6014 30.8618 46.3861 30.9293 46.1655 30.9296H46.1547Z" fill="#404040"/>
<path d="M46.4912 47.7846C42.8914 47.6536 39.3391 46.9189 35.9827 45.6112C35.7103 45.5132 35.488 45.311 35.3647 45.0491C35.2414 44.7872 35.2272 44.4871 35.3252 44.2147C35.4232 43.9424 35.6254 43.7201 35.8872 43.5968C36.1491 43.4735 36.4493 43.4593 36.7216 43.5573C44.3287 46.2958 50.5773 46.2306 52.2074 43.4051C53.2941 41.5577 52.3269 38.504 49.5993 35.0156C49.5101 34.9036 49.4438 34.7751 49.4043 34.6375C49.3647 34.4999 49.3527 34.3558 49.3689 34.2135C49.385 34.0712 49.429 33.9335 49.4984 33.8082C49.5677 33.6829 49.6611 33.5726 49.7731 33.4834C49.8852 33.3942 50.0137 33.3279 50.1513 33.2884C50.2889 33.2489 50.433 33.2368 50.5753 33.253C50.7176 33.2691 50.8553 33.3131 50.9806 33.3825C51.1058 33.4518 51.2162 33.5452 51.3054 33.6572C54.6634 37.9389 55.6523 41.775 54.0874 44.4701C52.8486 46.6979 50.1644 47.7846 46.4912 47.7846Z" fill="#404040"/>
<path d="M39.3842 16.2697C39.1697 16.2687 38.9603 16.2041 38.7823 16.0842C38.6044 15.9643 38.466 15.7944 38.3844 15.596C36.7326 11.5316 34.5701 9.19518 32.4401 9.19518C30.3101 9.19518 28.2127 11.4664 26.5718 15.4329C26.5171 15.5651 26.4368 15.6852 26.3356 15.7863C26.2343 15.8874 26.1141 15.9675 25.9819 16.022C25.8496 16.0765 25.7079 16.1044 25.5648 16.104C25.4217 16.1036 25.2802 16.075 25.1482 16.0198C24.8839 15.9092 24.674 15.6987 24.5641 15.4342C24.4542 15.1696 24.4532 14.8723 24.5614 14.607C26.5827 9.7168 29.3864 7 32.4401 7C35.4938 7 38.3736 9.76027 40.3949 14.7592C40.5024 15.0258 40.4999 15.3242 40.3878 15.589C40.2758 15.8538 40.0634 16.0634 39.7972 16.1719C39.6673 16.2313 39.527 16.2646 39.3842 16.2697V16.2697Z" fill="#404040"/>
<path d="M32.4507 57C26.3542 57 21.5835 46.0241 21.5835 32.0054C21.5682 28.3156 21.9323 24.634 22.6702 21.0187C22.7278 20.7305 22.8976 20.477 23.1422 20.3139C23.3867 20.1509 23.686 20.0917 23.9743 20.1493C24.2625 20.207 24.516 20.3768 24.679 20.6213C24.8421 20.8659 24.9013 21.1652 24.8436 21.4534C24.1406 24.9263 23.7947 28.4621 23.8112 32.0054C23.8112 45.6546 28.3103 54.8266 32.505 54.8266C34.6241 54.8266 36.7867 52.5119 38.4385 48.4584C38.4927 48.3264 38.5724 48.2063 38.6731 48.1051C38.7737 48.0039 38.8932 47.9235 39.0249 47.8685C39.1566 47.8136 39.2978 47.785 39.4406 47.7846C39.5833 47.7842 39.7247 47.8119 39.8567 47.8661C39.9887 47.9204 40.1087 48.0001 40.2099 48.1007C40.3111 48.2013 40.3915 48.3209 40.4465 48.4526C40.5015 48.5842 40.53 48.7255 40.5304 48.8682C40.5309 49.0109 40.5032 49.1523 40.4489 49.2843C38.3516 54.305 35.537 57 32.4507 57Z" fill="#404040"/>
</svg>
