<svg width="64" height="64" viewBox="0 0 64 64" fill="none" xmlns="http://www.w3.org/2000/svg">
<path d="M54.9167 40.2083C54.6404 40.2083 54.3755 40.0986 54.1801 39.9032C53.9848 39.7079 53.875 39.4429 53.875 39.1667V37.3646L42.5312 17.8333C42.4438 17.6736 42.3973 17.4946 42.3958 17.3125V12.1042H14.2917C14.0154 12.1042 13.7505 11.9944 13.5551 11.7991C13.3598 11.6037 13.25 11.3388 13.25 11.0625C13.25 10.7862 13.3598 10.5213 13.5551 10.3259C13.7505 10.1306 14.0154 10.0208 14.2917 10.0208H43.4583C43.7346 10.0208 43.9995 10.1306 44.1949 10.3259C44.3902 10.5213 44.5 10.7862 44.5 11.0625V17.0313L55.7917 36.5833C55.8853 36.7411 55.9356 36.9208 55.9375 37.1042V39.1875C55.9322 39.4566 55.8229 39.7131 55.6326 39.9034C55.4423 40.0937 55.1857 40.203 54.9167 40.2083Z" fill="#404040"/>
<path d="M27.7396 37.1563C27.2083 26.7396 24.0833 21.4583 18.4375 21.4583V19.375C27.1146 19.375 29.4166 28.9896 29.8125 37.0833L27.7396 37.1563Z" fill="#FA4616"/>
<path d="M36.0731 37.25C35.5418 26.7708 32.4168 21.4583 26.771 21.4583V19.375C31.5522 19.375 37.4168 22.5 38.146 37.1458L36.0731 37.25Z" fill="#FA4616"/>
<path d="M43.4585 38.1667C43.021 27.0834 39.8647 21.5001 34.0835 21.5001H18.4585V19.4167H34.0835C38.9689 19.4167 44.9272 22.6667 45.5418 38.1667H43.4585Z" fill="#FA4616"/>
<path d="M24.6878 15.2083H22.6045V18.3333H24.6878V15.2083Z" fill="#FA4616"/>
<path d="M33.0208 15.2083H30.9375V18.3333H33.0208V15.2083Z" fill="#FA4616"/>
<path d="M40.3332 19.375H38.2498V16.25H17.4165V14.1667H39.2915C39.5678 14.1667 39.8327 14.2764 40.0281 14.4718C40.2234 14.6671 40.3332 14.9321 40.3332 15.2083V19.375Z" fill="#FA4616"/>
<path d="M23.6667 41.25C23.3904 41.25 23.1255 41.1403 22.9301 40.9449C22.7348 40.7496 22.625 40.4846 22.625 40.2083V37.3229L13.3542 17.7396C13.2832 17.6011 13.2474 17.4473 13.25 17.2917V12.0833H9.08333V29.7917C9.08333 30.0679 8.97357 30.3329 8.77822 30.5282C8.58287 30.7236 8.31793 30.8333 8.04167 30.8333C7.7654 30.8333 7.50046 30.7236 7.30511 30.5282C7.10976 30.3329 7 30.0679 7 29.7917V11.0417C7 10.7654 7.10976 10.5004 7.30511 10.3051C7.50046 10.1097 7.7654 10 8.04167 10H14.2917C14.5679 10 14.8329 10.1097 15.0282 10.3051C15.2236 10.5004 15.3333 10.7654 15.3333 11.0417V17.0625L24.6042 36.6354C24.6739 36.7743 24.7097 36.9279 24.7083 37.0833V40.2083C24.7083 40.4846 24.5986 40.7496 24.4032 40.9449C24.2079 41.1403 23.9429 41.25 23.6667 41.25V41.25Z" fill="#404040"/>
<path d="M32.9169 41.8438C32.6732 41.8487 32.4355 41.768 32.2452 41.6157C32.0548 41.4635 31.9239 41.2493 31.8752 41.0104C31.6994 40.1954 31.2503 39.4648 30.6024 38.94C29.9544 38.4152 29.1465 38.1277 28.3127 38.125C27.882 38.1225 27.4546 38.2002 27.0523 38.3542C26.7926 38.4495 26.5057 38.4377 26.2547 38.3215C26.0037 38.2053 25.8091 37.9941 25.7138 37.7344C25.6185 37.4747 25.6302 37.1878 25.7464 36.9368C25.8627 36.6857 26.0739 36.4912 26.3336 36.3959C26.9678 36.1641 27.6375 36.0443 28.3127 36.0417C29.6243 36.0476 30.8947 36.5009 31.9137 37.3267C32.9327 38.1526 33.6394 39.3014 33.9169 40.5834C33.9459 40.7174 33.9482 40.8559 33.9236 40.9909C33.899 41.1259 33.8479 41.2546 33.7734 41.3698C33.6989 41.485 33.6023 41.5843 33.4893 41.6621C33.3763 41.7398 33.249 41.7945 33.1148 41.8229L32.9169 41.8438Z" fill="#404040"/>
<path d="M18.4583 53.75H14.2917C14.0154 53.75 13.7505 53.6402 13.5551 53.4449C13.3598 53.2495 13.25 52.9846 13.25 52.7083C13.25 52.4321 13.3598 52.1671 13.5551 51.9718C13.7505 51.7764 14.0154 51.6667 14.2917 51.6667H18.4583C18.7346 51.6667 18.9995 51.7764 19.1949 51.9718C19.3902 52.1671 19.5 52.4321 19.5 52.7083C19.5 52.9846 19.3902 53.2495 19.1949 53.4449C18.9995 53.6402 18.7346 53.75 18.4583 53.75Z" fill="#404040"/>
<path d="M34.083 53.75H22.6247C22.3484 53.75 22.0835 53.6402 21.8881 53.4449C21.6928 53.2495 21.583 52.9846 21.583 52.7083C21.583 52.4321 21.6928 52.1671 21.8881 51.9718C22.0835 51.7764 22.3484 51.6667 22.6247 51.6667H34.083C34.3593 51.6667 34.6242 51.7764 34.8196 51.9718C35.0149 52.1671 35.1247 52.4321 35.1247 52.7083C35.1247 52.9846 35.0149 53.2495 34.8196 53.4449C34.6242 53.6402 34.3593 53.75 34.083 53.75Z" fill="#404040"/>
<path d="M40.208 41.3959C39.9862 41.3936 39.7709 41.3206 39.5934 41.1875C39.3812 41.0314 39.236 40.8006 39.1872 40.5417C39.0405 39.9128 38.7027 39.3447 38.22 38.9156C37.7374 38.4866 37.1337 38.2176 36.4919 38.1456C35.8501 38.0737 35.2018 38.2023 34.6362 38.5139C34.0705 38.8254 33.6152 39.3046 33.333 39.8854L31.458 38.9792C31.8846 38.0987 32.5505 37.3562 33.3795 36.8367C34.2086 36.3171 35.1671 36.0416 36.1455 36.0417C37.0261 36.0423 37.8922 36.2663 38.6628 36.6926C39.4333 37.1188 40.0832 37.7335 40.5517 38.4792C41.6625 37.5783 43.0487 37.0856 44.4788 37.0834V39.1667C43.8196 39.1674 43.1699 39.3245 42.5832 39.6251C41.9965 39.9257 41.4895 40.3612 41.1038 40.8959C41.0183 41.0265 40.9087 41.1396 40.7809 41.2292C40.608 41.3344 40.4103 41.3919 40.208 41.3959V41.3959Z" fill="#404040"/>
<path d="M55.958 43.3333H48.6663C48.3901 43.3333 48.1251 43.2236 47.9298 43.0282C47.7344 42.8329 47.6247 42.5679 47.6247 42.2916C47.6247 41.4628 47.2954 40.668 46.7094 40.0819C46.1233 39.4959 45.3285 39.1666 44.4997 39.1666C44.2234 39.1666 43.9585 39.0569 43.7631 38.8616C43.5678 38.6662 43.458 38.4012 43.458 38.125C43.458 37.8487 43.5678 37.5838 43.7631 37.3884C43.9585 37.1931 44.2234 37.0833 44.4997 37.0833C45.7004 37.0831 46.8642 37.4977 47.7944 38.257C48.7245 39.0162 49.3637 40.0736 49.6038 41.25H55.958C56.2343 41.25 56.4992 41.3597 56.6946 41.5551C56.8899 41.7504 56.9997 42.0154 56.9997 42.2916C56.9997 42.5679 56.8899 42.8329 56.6946 43.0282C56.4992 43.2236 56.2343 43.3333 55.958 43.3333Z" fill="#404040"/>
<path d="M51.7917 49.5834H43.4583C43.1821 49.5834 42.9171 49.4736 42.7218 49.2783C42.5264 49.0829 42.4167 48.818 42.4167 48.5417C42.4167 47.9892 42.1972 47.4593 41.8065 47.0686C41.4158 46.6778 40.8859 46.4584 40.3333 46.4584C39.7808 46.4584 39.2509 46.6778 38.8602 47.0686C38.4695 47.4593 38.25 47.9892 38.25 48.5417C38.25 48.818 38.1402 49.0829 37.9449 49.2783C37.7495 49.4736 37.4846 49.5834 37.2083 49.5834H33.0417C32.7654 49.5834 32.5005 49.4736 32.3051 49.2783C32.1098 49.0829 32 48.818 32 48.5417C32 48.2654 32.1098 48.0005 32.3051 47.8051C32.5005 47.6098 32.7654 47.5 33.0417 47.5H36.3021C36.5351 46.6084 37.0572 45.8191 37.7867 45.2558C38.5161 44.6925 39.4117 44.387 40.3333 44.387C41.2549 44.387 42.1506 44.6925 42.88 45.2558C43.6094 45.8191 44.1315 46.6084 44.3646 47.5H51.7917C52.0679 47.5 52.3329 47.6098 52.5282 47.8051C52.7236 48.0005 52.8333 48.2654 52.8333 48.5417C52.8333 48.818 52.7236 49.0829 52.5282 49.2783C52.3329 49.4736 52.0679 49.5834 51.7917 49.5834Z" fill="#404040"/>
<path d="M28.8748 47.5H25.7498C25.4736 47.5 25.2086 47.3903 25.0133 47.1949C24.8179 46.9996 24.7082 46.7346 24.7082 46.4583C24.7082 45.9058 24.4887 45.3759 24.098 44.9852C23.7073 44.5945 23.1774 44.375 22.6248 44.375C22.0723 44.375 21.5424 44.5945 21.1517 44.9852C20.761 45.3759 20.5415 45.9058 20.5415 46.4583C20.5415 46.7346 20.4317 46.9996 20.2364 47.1949C20.041 47.3903 19.7761 47.5 19.4998 47.5H9.08317C8.8069 47.5 8.54197 47.3903 8.34662 47.1949C8.15127 46.9996 8.0415 46.7346 8.0415 46.4583C8.0415 46.1821 8.15127 45.9171 8.34662 45.7218C8.54197 45.5264 8.8069 45.4167 9.08317 45.4167H18.5936C18.8266 44.525 19.3487 43.7358 20.0782 43.1725C20.8076 42.6092 21.7032 42.3036 22.6248 42.3036C23.5465 42.3036 24.4421 42.6092 25.1715 43.1725C25.9009 43.7358 26.423 44.525 26.6561 45.4167H28.8748C29.1511 45.4167 29.416 45.5264 29.6114 45.7218C29.8067 45.9171 29.9165 46.1821 29.9165 46.4583C29.9165 46.7346 29.8067 46.9996 29.6114 47.1949C29.416 47.3903 29.1511 47.5 28.8748 47.5Z" fill="#404040"/>
</svg>
