<svg width="64" height="64" viewBox="0 0 64 64" fill="none" xmlns="http://www.w3.org/2000/svg">
<path d="M25.434 56.998C25.291 56.9992 25.1493 56.9708 25.0177 56.9147C24.7946 56.8229 24.6104 56.6564 24.4965 56.4438C24.3826 56.2312 24.3461 55.9856 24.3932 55.749L28.2546 37.441L16.2124 39.2937C16.01 39.3234 15.8034 39.2929 15.6183 39.2059C15.4332 39.1189 15.2778 38.9793 15.1716 38.8045C15.0596 38.6346 15 38.4355 15 38.2321C15 38.0286 15.0596 37.8296 15.1716 37.6596L37.0287 7.47589C37.166 7.26354 37.3758 7.10841 37.619 7.03945C37.8623 6.9705 38.1223 6.99245 38.3506 7.1012C38.578 7.19578 38.7645 7.36796 38.877 7.58712C38.9894 7.80629 39.0205 8.05823 38.9647 8.29814L35.0824 26.5957L47.1247 24.7951C47.3299 24.7551 47.5424 24.7778 47.7346 24.8602C47.9267 24.9427 48.0895 25.0811 48.2019 25.2575C48.3142 25.4339 48.3708 25.64 48.3643 25.849C48.3578 26.0579 48.2885 26.2601 48.1655 26.4292L26.3083 56.6129C26.2039 56.7422 26.0701 56.8447 25.918 56.9117C25.7659 56.9787 25.5999 57.0083 25.434 56.998ZM29.5973 35.1408C29.7545 35.1373 29.9104 35.1695 30.0534 35.2348C30.1964 35.3002 30.3227 35.3971 30.4229 35.5183C30.523 35.6395 30.5944 35.7818 30.6317 35.9346C30.669 36.0873 30.6712 36.2465 30.6381 36.4002L27.5157 51.388L44.9806 27.189L33.9063 28.8855C33.7414 28.9098 33.5731 28.8941 33.4155 28.8397C33.2579 28.7854 33.1157 28.694 33.0008 28.5733C32.8842 28.4522 32.7987 28.3047 32.7516 28.1434C32.7045 27.982 32.6971 27.8117 32.7302 27.6469L35.9047 12.6592L18.3669 36.8582L29.4308 35.2033L29.5973 35.1408Z" fill="#404040"/>
</svg>
