<svg width="64" height="64" viewBox="0 0 64 64" fill="none" xmlns="http://www.w3.org/2000/svg">
<path d="M32.8334 10H12.8608V12.1024H32.8334V10Z" fill="#FA4616"/>
<path d="M26.4109 53.8554L25.7697 51.8582L39.4351 47.4642C39.6378 47.3855 39.8203 47.2626 39.9694 47.1044C40.1186 46.9462 40.2305 46.7567 40.2971 46.5497C40.3653 46.3397 40.3846 46.1169 40.3536 45.8983C40.3226 45.6797 40.2422 45.4711 40.1184 45.2883L34.3474 36.7632L40.0868 30.9606L40.8016 32.0118C41.7489 33.4884 42.8029 34.8937 43.9552 36.2166H50.1362C50.8358 36.1796 51.5187 35.989 52.1364 35.6583C52.7541 35.3277 53.2914 34.8651 53.7102 34.3034L45.4479 33.063L40.3496 22.0045C38.1947 19.734 35.2934 17.3583 34.2948 17.3583H22.0906C22.9243 18.3191 24.0939 18.9246 25.3597 19.0507L32.5288 19.8706L36.229 24.7902L29.3437 31.9277C26.926 34.9656 28.1454 37.4149 31.2254 40.8733L35.5352 45.3303L25.2441 51.3641L24.1929 49.5456L32.245 44.8678L29.7747 42.3029C27.6724 39.9483 23.804 35.6174 27.788 30.6137L28.1244 30.2038L33.5064 24.6535L31.404 21.8994L25.0969 21.1741C22.0695 20.7116 20.0723 19.0717 19.4521 16.6014L19.1157 15.298H34.2738C36.6915 15.298 40.7806 19.5027 41.979 20.7326L42.0946 20.8587L46.867 31.2024L57.0004 32.8212L56.3802 34.0932C56.2961 34.2614 54.2778 38.424 50.0731 38.424H43.1143L42.8199 38.1718C41.6786 37.0051 40.6573 35.7268 39.7715 34.356L37.0699 37.068L41.8633 44.153C42.1703 44.5992 42.3699 45.1103 42.4465 45.6465C42.5231 46.1826 42.4746 46.7292 42.3049 47.2435C42.1373 47.7593 41.8541 48.2301 41.477 48.6199C41.1 49.0098 40.6389 49.3084 40.1289 49.493L26.4109 53.8554Z" fill="#404040"/>
<path d="M25.4754 25.7678H17.0659V27.8702H25.4754V25.7678Z" fill="#FA4616"/>
<path d="M14.9632 25.7678H12.8608V27.8702H14.9632V25.7678Z" fill="#FA4616"/>
<path d="M10.7586 25.7678H8.65625V27.8702H10.7586V25.7678Z" fill="#FA4616"/>
<path d="M25.6338 42.0624L7.83447 50.6248L8.74585 52.5194L26.5452 43.957L25.6338 42.0624Z" fill="#404040"/>
<path d="M23.8142 36.1786L7 48.0309L8.21127 49.7492L25.0255 37.8969L23.8142 36.1786Z" fill="#404040"/>
<path d="M50.178 25.7678C49.0345 25.7678 47.9167 25.4287 46.966 24.7934C46.0152 24.1581 45.2742 23.2552 44.8366 22.1988C44.399 21.1423 44.2845 19.9798 44.5076 18.8583C44.7307 17.7368 45.2813 16.7067 46.0898 15.8981C46.8984 15.0896 47.9286 14.5389 49.0501 14.3158C50.1716 14.0928 51.3341 14.2072 52.3905 14.6448C53.4469 15.0824 54.3499 15.8235 54.9852 16.7742C55.6204 17.725 55.9595 18.8428 55.9595 19.9863C55.9595 21.5196 55.3504 22.9902 54.2662 24.0744C53.1819 25.1587 51.7114 25.7678 50.178 25.7678ZM50.178 16.3071C49.4503 16.3071 48.739 16.5229 48.134 16.9272C47.529 17.3314 47.0574 17.906 46.7789 18.5783C46.5004 19.2506 46.4276 19.9903 46.5696 20.704C46.7115 21.4177 47.0619 22.0733 47.5764 22.5878C48.091 23.1024 48.7465 23.4528 49.4602 23.5947C50.1739 23.7367 50.9137 23.6638 51.5859 23.3854C52.2582 23.1069 52.8328 22.6353 53.2371 22.0303C53.6414 21.4253 53.8571 20.7139 53.8571 19.9863C53.8571 19.0105 53.4695 18.0747 52.7796 17.3847C52.0896 16.6947 51.1538 16.3071 50.178 16.3071Z" fill="#404040"/>
</svg>
