<svg width="64" height="64" viewBox="0 0 64 64" fill="none" xmlns="http://www.w3.org/2000/svg">
<path d="M25.7501 50.625H23.6667V48.0208L24.0834 47.7188C24.0834 47.7188 26.7917 45.6354 26.7917 43.3333V40.2083H28.8751V43.3333C28.8751 46.0208 26.698 48.2188 25.7501 49.0417V50.625Z" fill="#404040"/>
<path d="M8.04175 50.625V35C8.04175 32.4687 8.95842 31.4479 10.4688 30.0729L15.7293 25.8542L17.0313 27.4896L11.823 31.6562C10.4793 32.8854 10.1251 33.3854 10.1251 35V50.625H8.04175Z" fill="#404040"/>
<path d="M27.8333 54.7916H25.75V51.6666H9.08333V54.7916H7V49.5833H27.8333V54.7916Z" fill="#404040"/>
<path d="M17.4166 46.4583V44.375C17.8395 44.4273 18.2688 44.3825 18.6717 44.244C19.0747 44.1054 19.4408 43.8768 19.7421 43.5755C20.0434 43.2742 20.272 42.9081 20.4106 42.5052C20.5491 42.1022 20.5939 41.6729 20.5416 41.25V37.6979L23.4166 34.8229C23.837 34.1872 24.0261 33.4262 23.9521 32.6676C23.8782 31.909 23.5457 31.1988 23.0103 30.6563C22.5937 30.2813 22.4478 30.4375 22.3228 30.5521L13.9895 38.8854L12.4895 37.3958L20.8228 29.0625C21.0506 28.8217 21.3252 28.6298 21.6297 28.4987C21.9341 28.3676 22.2622 28.3 22.5937 28.3C22.9252 28.3 23.2532 28.3676 23.5577 28.4987C23.8622 28.6298 24.1367 28.8217 24.3645 29.0625C25.3139 29.9647 25.9006 31.183 26.0138 32.4877C26.127 33.7925 25.759 35.0937 24.9791 36.1459L24.9062 36.2292L22.5937 38.5417V41.2292C22.6441 41.9243 22.5451 42.6223 22.3035 43.276C22.0619 43.9298 21.6832 44.5243 21.1928 45.0196C20.7024 45.5149 20.1117 45.8996 19.4604 46.1477C18.8091 46.3959 18.1122 46.5018 17.4166 46.4583V46.4583Z" fill="#404040"/>
<path d="M53.8749 41.25H21.5833V39.1667H53.8749C54.1512 39.1667 54.4161 39.0569 54.6115 38.8616C54.8068 38.6662 54.9166 38.4013 54.9166 38.125V13.125C54.9166 12.8487 54.8068 12.5838 54.6115 12.3884C54.4161 12.1931 54.1512 12.0833 53.8749 12.0833H18.4583C18.182 12.0833 17.917 12.1931 17.7217 12.3884C17.5263 12.5838 17.4166 12.8487 17.4166 13.125V35H15.3333V13.125C15.3333 12.2962 15.6625 11.5013 16.2485 10.9153C16.8346 10.3292 17.6295 10 18.4583 10H53.8749C54.7037 10 55.4986 10.3292 56.0846 10.9153C56.6707 11.5013 56.9999 12.2962 56.9999 13.125V38.125C56.9999 38.9538 56.6707 39.7487 56.0846 40.3347C55.4986 40.9208 54.7037 41.25 53.8749 41.25V41.25Z" fill="#404040"/>
<path d="M31.8334 33.0833C31.6545 33.0828 31.4787 33.0361 31.323 32.9479C31.1621 32.8574 31.0281 32.7259 30.9348 32.5666C30.8414 32.4074 30.7921 32.2262 30.7918 32.0416V19.0521C30.7914 18.8659 30.8409 18.6831 30.9351 18.5226C31.0293 18.3621 31.1648 18.2298 31.3275 18.1394C31.4902 18.049 31.6742 18.0039 31.8602 18.0086C32.0463 18.0134 32.2277 18.068 32.3855 18.1666L42.8022 24.6771C42.9529 24.7705 43.0773 24.9008 43.1636 25.0558C43.2498 25.2107 43.2951 25.3851 43.2951 25.5625C43.2951 25.7398 43.2498 25.9142 43.1636 26.0692C43.0773 26.2241 42.9529 26.3545 42.8022 26.4479L32.3855 32.9583C32.2165 33.0501 32.0255 33.0934 31.8334 33.0833ZM32.8751 20.9062V30.1666L40.2813 25.5312L32.8751 20.9062Z" fill="#FA4616"/>
</svg>
