<svg width="64" height="64" viewBox="0 0 64 64" fill="none" xmlns="http://www.w3.org/2000/svg">
<path d="M55.3785 48.286C55.1532 48.2866 54.9358 48.2035 54.7682 48.0529L54.5574 47.8643C53.2221 46.5539 52.4589 44.7688 52.434 42.8981C52.409 41.0275 53.1244 39.2227 54.4242 37.8771C54.5861 37.7049 54.8097 37.6041 55.0459 37.5969C55.2821 37.5896 55.5115 37.6764 55.6837 37.8383C55.8559 38.0002 55.9567 38.2238 55.964 38.46C55.9712 38.6962 55.8844 38.9256 55.7225 39.0977C54.7571 40.1051 54.2265 41.4517 54.2452 42.8468C54.2639 44.2419 54.8304 45.5738 55.8224 46.5549L55.9778 46.6992C56.065 46.777 56.1358 46.8716 56.186 46.9773C56.2361 47.0829 56.2646 47.1976 56.2698 47.3144C56.275 47.4313 56.2567 47.548 56.2161 47.6577C56.1754 47.7674 56.1133 47.8678 56.0332 47.9531C55.9552 48.0532 55.8561 48.1349 55.7429 48.1925C55.6298 48.25 55.5054 48.2819 55.3785 48.286Z" fill="#404040"/>
<path d="M36.1367 55.2992C36.0187 55.2998 35.9019 55.2772 35.7927 55.2327C35.629 55.1665 35.4888 55.0529 35.39 54.9067C35.2912 54.7604 35.2382 54.588 35.2378 54.4115V49.3735C35.2378 49.138 35.1443 48.9122 34.9778 48.7457C34.8113 48.5793 34.5855 48.4857 34.3501 48.4857C34.1282 48.4841 33.9148 48.4004 33.7509 48.2508C33.587 48.1013 33.4842 47.8965 33.4623 47.6757C33.4423 47.4537 33.5065 47.2323 33.6422 47.0555C33.7779 46.8787 33.9751 46.7594 34.1947 46.7213L39.5434 45.7337H39.6988C40.4072 45.7366 41.0857 46.0193 41.5866 46.5202C42.0875 47.0211 42.3702 47.6997 42.3731 48.408V53.5348C42.3749 53.697 42.3321 53.8565 42.2496 53.9962C42.167 54.1358 42.0478 54.2501 41.9048 54.3268C41.7619 54.4034 41.6006 54.4394 41.4386 54.4309C41.2767 54.4223 41.1201 54.3696 40.986 54.2783L38.922 52.9023L36.7692 55.1216C36.5873 55.2566 36.3622 55.3198 36.1367 55.2992V55.2992ZM36.6804 48.0751C36.9079 48.4699 37.0267 48.9179 37.0244 49.3735V52.2587L38.1341 51.149C38.2785 51.0065 38.4674 50.9177 38.6694 50.8975C38.8713 50.8773 39.074 50.9269 39.2438 51.038L40.5421 51.8925V48.4303C40.54 48.2049 40.4532 47.9886 40.2991 47.8241C40.1449 47.6597 39.9346 47.5592 39.7099 47.5425L36.6804 48.0751Z" fill="#404040"/>
<path d="M41.7739 50.7939C41.5479 50.8015 41.3275 50.7225 41.1577 50.5731C40.988 50.4237 40.8816 50.2152 40.8604 49.99C40.8391 49.7649 40.9046 49.5401 41.0434 49.3616C41.1823 49.1831 41.384 49.0643 41.6074 49.0295L53.814 46.8101C53.6211 46.6737 53.4896 46.4668 53.4481 46.2342C53.4065 46.0016 53.4583 45.762 53.592 45.5673C53.6586 45.4705 53.7438 45.388 53.8425 45.3244C53.9412 45.2609 54.0516 45.2175 54.1671 45.1968C54.2827 45.1762 54.4013 45.1787 54.5159 45.2042C54.6305 45.2296 54.739 45.2776 54.8349 45.3453L56.6104 46.5882C56.7567 46.6873 56.87 46.8279 56.9359 46.9919C57.0018 47.1559 57.0173 47.3357 56.9804 47.5085C56.9434 47.6813 56.8557 47.8392 56.7285 47.9619C56.6013 48.0846 56.4404 48.1665 56.2664 48.1972L41.9958 50.8272L41.7739 50.7939Z" fill="#404040"/>
<path d="M26.6044 53.5127C25.5077 53.5187 24.4366 53.181 23.5417 52.5472C22.9615 52.1477 22.4665 51.6369 22.0855 51.0444C21.7045 50.452 21.4451 49.7897 21.3223 49.0961C21.077 47.6983 21.396 46.2604 22.2094 45.0975C23.0227 43.9347 24.2641 43.1419 25.6612 42.8929L55.8558 37.4776C56.0883 37.435 56.3282 37.4864 56.5228 37.6206C56.7174 37.7549 56.8507 37.9608 56.8934 38.1933C56.936 38.4259 56.8846 38.6658 56.7504 38.8604C56.6161 39.055 56.4101 39.1882 56.1776 39.2309L25.9719 44.6573C25.5107 44.7382 25.0699 44.9091 24.6747 45.1603C24.2795 45.4116 23.9377 45.7382 23.6688 46.1215C23.3998 46.5048 23.209 46.9373 23.1073 47.3944C23.0055 47.8515 22.9947 48.3242 23.0756 48.7854C23.1565 49.2466 23.3274 49.6874 23.5786 50.0825C23.8299 50.4777 24.1564 50.8195 24.5398 51.0885C24.9231 51.3574 25.3556 51.5482 25.8127 51.6499C26.2698 51.7517 26.7424 51.7625 27.2036 51.6816L35.5929 50.0837C35.8254 50.041 36.0653 50.0924 36.2599 50.2267C36.4545 50.3609 36.5878 50.567 36.6304 50.7995C36.6731 51.032 36.6217 51.2719 36.4874 51.4665C36.3532 51.661 36.1472 51.7943 35.9147 51.837L27.5254 53.435C27.2211 53.4864 26.913 53.5124 26.6044 53.5127V53.5127Z" fill="#404040"/>
<path d="M23.7083 52.5804C23.4919 52.5797 23.2831 52.5008 23.1201 52.3585L8.87172 39.8412C7.94421 39.0482 7.32061 37.9578 7.10732 36.7563C6.86202 35.3585 7.18103 33.9206 7.9944 32.7578C8.80778 31.5949 10.0491 30.8021 11.4462 30.5531L17.9157 29.1327C18.1376 29.1103 18.3599 29.1711 18.5394 29.3034C18.719 29.4357 18.8429 29.63 18.8872 29.8486C18.9315 30.0671 18.8929 30.2944 18.779 30.4861C18.665 30.6778 18.4839 30.8204 18.2708 30.886L11.7791 32.3064C11.1112 32.4138 10.4881 32.7103 9.98341 33.1608C9.47877 33.6113 9.11378 34.1969 8.93164 34.8484C8.7495 35.4999 8.75785 36.1899 8.9557 36.8368C9.15354 37.4837 9.5326 38.0603 10.048 38.4985L24.2964 50.9936C24.3839 51.0708 24.4553 51.1644 24.5066 51.2693C24.5579 51.3741 24.588 51.488 24.5952 51.6045C24.6024 51.7209 24.5866 51.8376 24.5486 51.948C24.5107 52.0583 24.4514 52.1601 24.3741 52.2475C24.2948 52.3491 24.194 52.4316 24.0788 52.4892C23.9636 52.5468 23.837 52.578 23.7083 52.5804V52.5804Z" fill="#404040"/>
<path d="M56.0333 39.2642C55.85 39.2635 55.6714 39.2052 55.5229 39.0977L44.8255 31.6073C44.73 31.5403 44.6487 31.4551 44.5862 31.3567C44.5237 31.2582 44.4811 31.1484 44.461 31.0335C44.4409 30.9186 44.4437 30.8009 44.4691 30.6871C44.4945 30.5732 44.5421 30.4655 44.6091 30.37C44.6761 30.2746 44.7613 30.1933 44.8598 30.1307C44.9582 30.0682 45.068 30.0257 45.1829 30.0056C45.2978 29.9855 45.4155 29.9882 45.5294 30.0136C45.6432 30.039 45.7509 30.0866 45.8464 30.1536L56.5438 37.644C56.7008 37.7516 56.8191 37.9068 56.8813 38.0867C56.9434 38.2666 56.9461 38.4617 56.8889 38.6433C56.8317 38.8248 56.7176 38.9831 56.5636 39.095C56.4096 39.2068 56.2237 39.2661 56.0333 39.2642V39.2642Z" fill="#404040"/>
<path d="M31.9642 28.5446C31.8579 28.5489 31.7518 28.5299 31.6535 28.4891L7.57328 19.6116C7.40442 19.546 7.25934 19.4309 7.15704 19.2814C7.05474 19.1319 7 18.9549 7 18.7738C7 18.5926 7.05474 18.4157 7.15704 18.2662C7.25934 18.1167 7.40442 18.0016 7.57328 17.936L31.6535 9.0585C31.8533 8.9805 32.0751 8.9805 32.2749 9.0585L56.3441 17.936C56.5178 17.9968 56.6682 18.1101 56.7747 18.2602C56.8811 18.4103 56.9383 18.5897 56.9383 18.7738C56.9383 18.9578 56.8811 19.1373 56.7747 19.2874C56.6682 19.4374 56.5178 19.5507 56.3441 19.6116L32.2749 28.4891C32.1764 28.529 32.0705 28.5479 31.9642 28.5446ZM10.4474 18.7461L31.9642 26.7025L53.47 18.7461L31.9642 10.7785L10.4474 18.7461Z" fill="#FA4616"/>
<path d="M31.6756 37.4443C26.7974 37.526 21.9945 36.2339 17.8156 33.7158C17.6896 33.6343 17.5861 33.5226 17.5144 33.3908C17.4426 33.259 17.4051 33.1113 17.405 32.9612V22.6633C17.4043 22.5186 17.4394 22.3761 17.5072 22.2483C17.575 22.1205 17.6733 22.0115 17.7934 21.9309C17.9114 21.8479 18.0475 21.7944 18.1905 21.7751C18.3334 21.7558 18.4789 21.7712 18.6146 21.82L31.6756 26.6582L44.7367 21.82C44.8724 21.7712 45.0179 21.7558 45.1608 21.7751C45.3037 21.7944 45.4399 21.8479 45.5578 21.9309C45.678 22.0115 45.7763 22.1205 45.8441 22.2483C45.9119 22.3761 45.9469 22.5186 45.9462 22.6633V32.9612C45.9462 33.1113 45.9086 33.259 45.8369 33.3908C45.7652 33.5226 45.6616 33.6343 45.5356 33.7158C41.3572 36.235 36.554 37.5272 31.6756 37.4443ZM19.1916 32.5173C26.1938 36.7452 37.1575 36.7452 44.1596 32.5173V23.9838L31.9531 28.4891C31.7533 28.5671 31.5314 28.5671 31.3316 28.4891L19.1251 23.9838L19.1916 32.5173Z" fill="#FA4616"/>
<path d="M54.2578 32.1733C53.7802 32.1684 53.3098 32.0562 52.8815 31.8449C52.4531 31.6336 52.0778 31.3287 51.7832 30.9527C51.6513 30.7939 51.5804 30.5931 51.5835 30.3867C51.5835 27.2796 52.4046 24.1503 54.2578 24.1503C56.111 24.1503 56.9322 27.2796 56.9322 30.3867C56.9321 30.5945 56.8573 30.7954 56.7213 30.9527C56.4235 31.3182 56.0478 31.6126 55.6215 31.8142C55.1953 32.0158 54.7293 32.1195 54.2578 32.1178V32.1733ZM53.3701 30.0316C53.6107 30.2571 53.9281 30.3825 54.2578 30.3825C54.5876 30.3825 54.905 30.2571 55.1456 30.0316C55.2069 28.6379 54.9008 27.2526 54.2578 26.0145C53.6159 27.233 53.3096 28.6002 53.3701 29.9761V30.0316Z" fill="#FA4616"/>
<path d="M53.9693 25.4708C53.7339 25.4708 53.508 25.3773 53.3416 25.2108C53.1751 25.0443 53.0815 24.8185 53.0815 24.5831V18.3355C53.0815 18.1001 53.1751 17.8743 53.3416 17.7078C53.508 17.5413 53.7339 17.4478 53.9693 17.4478C54.2047 17.4478 54.4305 17.5413 54.597 17.7078C54.7635 17.8743 54.8571 18.1001 54.8571 18.3355V24.5831C54.8571 24.8185 54.7635 25.0443 54.597 25.2108C54.4305 25.3773 54.2047 25.4708 53.9693 25.4708V25.4708Z" fill="#FA4616"/>
</svg>
