<svg width="64" height="64" viewBox="0 0 64 64" fill="none" xmlns="http://www.w3.org/2000/svg">
<path d="M50.2135 23.3173C49.966 23.3163 49.7196 23.2846 49.4799 23.223C48.7252 23.0037 48.0442 22.5835 47.5097 22.0073L47.3315 21.8187C46.7846 21.2578 46.4006 20.5586 46.2207 19.7961C46.1195 19.4098 46.1205 19.0039 46.2234 18.6181C46.3262 18.2324 46.5275 17.8799 46.8075 17.5953L49.3122 15.2268C49.9722 14.6234 50.8441 14.3057 51.7375 14.343C52.6309 14.3803 53.4733 14.7696 54.0806 15.4259L54.2588 15.6145C54.8842 16.2559 55.2298 17.1191 55.22 18.0148C55.2102 18.9106 54.8457 19.7659 54.2064 20.3934L51.7017 22.7619C51.2977 23.1351 50.7632 23.3346 50.2135 23.3173V23.3173ZM51.5655 16.432C51.266 16.429 50.977 16.5416 50.7585 16.7464L48.2433 19.1149C48.2765 19.5967 48.4942 20.0471 48.8511 20.3725L49.0293 20.5611C49.1774 20.7562 49.3671 20.9157 49.5846 21.0281C49.8022 21.1405 50.0421 21.203 50.2869 21.2109L52.7706 18.8633C53.0087 18.6238 53.1423 18.2998 53.1423 17.9621C53.1423 17.6243 53.0087 17.3003 52.7706 17.0608L52.5925 16.8721C52.4633 16.7317 52.3061 16.6199 52.131 16.5441C51.9558 16.4683 51.7667 16.4301 51.5759 16.432H51.5655Z" fill="#404040"/>
<path d="M28.0482 56.9791L26.5391 55.5223C26.6229 55.4385 28.6351 53.4263 29.6831 52.3783L30.0184 52.0639H30.4795C32.6746 52.3049 34.8934 51.9296 36.8871 50.9799C38.8807 50.0303 40.5704 48.544 41.7665 46.6877C41.9342 46.4467 42.0704 46.258 42.1752 46.1323L43.7682 47.5052C43.6948 47.589 43.59 47.7357 43.4642 47.9139C42.1054 49.9971 40.2139 51.6788 37.986 52.7845C35.758 53.8902 33.2748 54.3796 30.7939 54.2019C29.725 55.2708 28.0691 56.9791 28.0482 56.9791Z" fill="#404040"/>
<path d="M50.622 42.6634C50.4789 42.6738 50.3353 42.6738 50.1923 42.6634C49.4653 42.5333 48.7877 42.2072 48.2325 41.7202L48.0648 41.5735C46.692 40.3893 46.3147 38.66 47.2055 37.633L49.3015 35.2121C49.5754 34.8994 49.9097 34.6454 50.2843 34.4653C50.6589 34.2852 51.0661 34.1828 51.4813 34.1641C51.9003 34.1338 52.3211 34.1877 52.7189 34.3227C53.1167 34.4577 53.4834 34.671 53.7974 34.9501L53.9756 35.0969C54.6188 35.6499 55.021 36.4318 55.0969 37.2767C55.133 37.6928 55.0857 38.1119 54.958 38.5096C54.8302 38.9073 54.6245 39.2755 54.3528 39.5928L52.2568 42.0136C52.0477 42.234 51.7932 42.4062 51.5109 42.5184C51.2286 42.6306 50.9253 42.68 50.622 42.6634ZM51.67 36.1973H51.5756C51.4376 36.206 51.3026 36.2419 51.1785 36.3031C51.0543 36.3643 50.9436 36.4494 50.8525 36.5536L48.7565 38.9745C48.8551 39.3615 49.0801 39.7045 49.3958 39.9491L49.574 40.1063C49.7178 40.2543 49.8908 40.3708 50.082 40.4484C50.2733 40.526 50.4785 40.563 50.6848 40.5569L52.7808 38.1675C52.8724 38.064 52.9412 37.9424 52.9828 37.8106C53.0243 37.6788 53.0376 37.5398 53.0219 37.4025C53.0104 37.2547 52.9693 37.1108 52.9008 36.9793C52.8324 36.8478 52.7381 36.7315 52.6236 36.6374L52.456 36.4802C52.2416 36.2998 51.9711 36.1998 51.6909 36.1973H51.67Z" fill="#404040"/>
<path d="M29.3373 49.2762L27.3565 48.5741C28.184 46.2722 28.4484 43.8057 28.1275 41.3808C27.8066 38.9559 26.9098 36.6431 25.5121 34.6357L25.1662 34.1955L25.3444 33.6611C26.1332 31.3074 26.6226 28.8638 26.8011 26.3879C26.8664 25.0732 26.449 23.7799 25.6274 22.7514C25.5358 22.6452 25.4178 22.565 25.2853 22.519C25.1528 22.473 25.0105 22.4628 24.8728 22.4894C24.7652 22.4998 24.6619 22.5368 24.5722 22.5972C24.4825 22.6576 24.4093 22.7394 24.3593 22.8352C23.7619 24.7635 23.3113 26.1888 22.9864 27.3626C22.3366 29.4586 21.9384 30.8105 21.2467 32.6026C20.714 34.3756 20.4699 36.2226 20.5236 38.0731C20.5871 39.1746 20.4522 40.2786 20.1254 41.3324C20.031 41.542 19.2136 42.8625 17.7045 45.2624L15.9438 44.1725C16.9918 42.5481 18.1237 40.6931 18.2494 40.4521C18.3977 39.6611 18.4609 38.8566 18.4381 38.0522C18.3803 35.9612 18.6707 33.8752 19.2974 31.8795C19.9786 30.1293 20.3454 28.9346 20.9847 26.7548C21.341 25.581 21.7707 24.1452 22.3786 22.2169C22.5363 21.7433 22.8246 21.3238 23.2103 21.0068C23.5959 20.6898 24.0632 20.488 24.5584 20.4248C25.0745 20.3231 25.6088 20.3673 26.1013 20.5524C26.5937 20.7375 27.0248 21.0563 27.3461 21.4728C28.4644 22.9138 29.0162 24.7145 28.8971 26.5347C28.721 28.9841 28.2566 31.4042 27.5137 33.7449C29.0042 36.0138 29.945 38.5989 30.2616 41.295C30.5781 43.9911 30.2616 46.7238 29.3373 49.2762V49.2762Z" fill="#404040"/>
<path d="M50.664 36.082C49.7704 36.0529 48.9162 35.7075 48.2536 35.1073L48.0754 34.9501C47.5008 34.4699 47.0723 33.8382 46.8388 33.1266C46.7113 32.7653 46.6781 32.3774 46.7423 31.9996C46.8065 31.6219 46.9659 31.2667 47.2056 30.9677L49.3016 28.5049C49.8684 27.8634 50.6661 27.4724 51.5204 27.4174C52.3747 27.3624 53.216 27.6479 53.8604 28.2115L54.0385 28.3687C54.6916 28.9219 55.0982 29.7118 55.1689 30.5647C55.2396 31.4177 54.9688 32.2638 54.4158 32.917L52.3198 35.3798C52.1132 35.6124 51.8574 35.7961 51.571 35.9175C51.2846 36.039 50.9748 36.0951 50.664 36.082ZM49.616 33.5144C49.7612 33.67 49.9387 33.792 50.136 33.8716C50.3334 33.9513 50.5458 33.9867 50.7583 33.9755L52.8543 31.5441C53.0408 31.3097 53.1278 31.0113 53.0964 30.7133C53.0651 30.4154 52.9179 30.1417 52.6866 29.9512L52.5085 29.8045C52.2852 29.6034 51.9918 29.4983 51.6917 29.5121C51.3916 29.5258 51.1089 29.6572 50.905 29.8778L48.809 32.3406C48.8922 32.7595 49.1273 33.1328 49.4693 33.3886L49.616 33.5144Z" fill="#404040"/>
<path d="M50.6639 29.6682C50.5209 29.6786 50.3773 29.6786 50.2343 29.6682C49.4988 29.5387 48.8134 29.2087 48.2535 28.7145V28.7145L48.0754 28.5573C47.5007 28.0771 47.0723 27.4454 46.8387 26.7338C46.7082 26.3729 46.6734 25.9844 46.7377 25.6061C46.802 25.2277 46.9632 24.8725 47.2055 24.5749L49.3015 22.1121C49.8698 21.473 50.6672 21.0838 51.5207 21.0289C52.3741 20.9739 53.2148 21.2577 53.8603 21.8187L54.0385 21.9759C54.6834 22.5377 55.0885 23.3253 55.1703 24.1767C55.2107 24.6004 55.1646 25.0278 55.0349 25.4331C54.9052 25.8384 54.6946 26.2132 54.4158 26.5347L52.3198 28.9975C52.1072 29.2205 51.8496 29.3956 51.5641 29.5112C51.2786 29.6269 50.9717 29.6804 50.6639 29.6682V29.6682ZM49.6159 27.0901C49.7627 27.2444 49.9402 27.3661 50.137 27.4473C50.3338 27.5286 50.5454 27.5675 50.7583 27.5617L52.8543 25.1304C52.9467 25.0211 53.0158 24.8941 53.0572 24.7571C53.0987 24.6201 53.1116 24.4761 53.0953 24.3339C53.0855 24.1802 53.0442 24.0301 52.9739 23.8931C52.9035 23.7561 52.8057 23.635 52.6866 23.5374L52.5084 23.3802C52.2852 23.1791 51.9917 23.0741 51.6916 23.0878C51.3915 23.1016 51.1089 23.233 50.905 23.4536L48.809 25.9164C48.8885 26.3341 49.12 26.7074 49.4587 26.9644L49.6159 27.0901Z" fill="#404040"/>
<path d="M38.8215 42.6319H35.6775V44.7279H38.8215V42.6319Z" fill="#404040"/>
<path d="M26.2457 21.672H24.1497V11.192C24.1497 10.0802 24.5913 9.01395 25.3775 8.2278C26.1636 7.44165 27.2299 7 28.3417 7H46.1576C47.2694 7 48.3357 7.44165 49.1218 8.2278C49.908 9.01395 50.3496 10.0802 50.3496 11.192V16.432H48.2536V11.192C48.2536 10.6361 48.0328 10.103 47.6397 9.7099C47.2466 9.31682 46.7135 9.096 46.1576 9.096H28.3417C27.7858 9.096 27.2526 9.31682 26.8596 9.7099C26.4665 10.103 26.2457 10.6361 26.2457 11.192V21.672Z" fill="#404040"/>
<path d="M46.1575 47.8719H28.3416V45.7759H46.1575C46.7134 45.7759 47.2465 45.5551 47.6396 45.162C48.0327 44.7689 48.2535 44.2358 48.2535 43.6799V41.5839H50.3495V43.6799C50.3495 44.7917 49.9079 45.858 49.1217 46.6441C48.3356 47.4303 47.2693 47.8719 46.1575 47.8719Z" fill="#404040"/>
<path d="M27.6081 57L14.7177 44.1201L10.9658 47.8719L18.6057 55.5223L17.1281 57L8 47.8719L14.7177 41.1543L29.0857 55.5223L27.6081 57Z" fill="#404040"/>
<path d="M15.4569 47.1395L13.9749 48.6216L15.0197 49.6665L16.5018 48.1844L15.4569 47.1395Z" fill="#404040"/>
<path d="M48.2536 39.4879H29.3896V41.5839H48.2536V39.4879Z" fill="#404040"/>
<path d="M32.8795 31.2716C32.704 31.2725 32.531 31.2293 32.3765 31.1459C32.2111 31.0554 32.0732 30.9219 31.9773 30.7596C31.8814 30.5973 31.831 30.4122 31.8315 30.2236V17.1551C31.8312 16.9678 31.881 16.7839 31.9758 16.6224C32.0706 16.4609 32.2069 16.3278 32.3706 16.2369C32.5343 16.1459 32.7193 16.1005 32.9065 16.1053C33.0937 16.1101 33.2762 16.165 33.435 16.2643L43.915 22.8143C44.066 22.9087 44.1905 23.04 44.2767 23.1959C44.3628 23.3517 44.4079 23.527 44.4075 23.7051C44.4079 23.8832 44.3628 24.0584 44.2767 24.2143C44.1905 24.3702 44.066 24.5015 43.915 24.5959L33.435 31.1459C33.265 31.2383 33.0728 31.2818 32.8795 31.2716ZM33.9275 19.0205V28.3372L41.3893 23.6736L33.9275 19.0205Z" fill="#FA4616"/>
</svg>
