<svg width="64" height="64" viewBox="0 0 64 64" fill="none" xmlns="http://www.w3.org/2000/svg">
<path d="M26.7917 34.5937C26.6127 34.5932 26.4369 34.5466 26.2813 34.4583C26.1204 34.3679 25.9864 34.2363 25.893 34.0771C25.7997 33.9178 25.7503 33.7367 25.75 33.5521V21.0521C25.7489 20.8667 25.7974 20.6843 25.8903 20.5239C25.9832 20.3634 26.1173 20.2307 26.2787 20.1394C26.4401 20.0481 26.6229 20.0015 26.8083 20.0045C26.9937 20.0074 27.175 20.0598 27.3334 20.1563L37.75 26.4063C37.9055 26.4985 38.0342 26.6296 38.1237 26.7866C38.2131 26.9437 38.2601 27.1213 38.2601 27.3021C38.2601 27.4828 38.2131 27.6604 38.1237 27.8175C38.0342 27.9746 37.9055 28.1057 37.75 28.1979L27.3334 34.4479C27.1682 34.5419 26.9817 34.5921 26.7917 34.5937V34.5937ZM27.8334 22.8958V31.7083L35.1875 27.3021L27.8334 22.8958Z" fill="#FA4616"/>
<path d="M54.9167 46.4167H9.08333C8.5308 46.4167 8.00089 46.1972 7.61019 45.8065C7.21949 45.4158 7 44.8859 7 44.3333V13.0833C7 12.5308 7.21949 12.0009 7.61019 11.6102C8.00089 11.2195 8.5308 11 9.08333 11H54.9167C55.4692 11 55.9991 11.2195 56.3898 11.6102C56.7805 12.0009 57 12.5308 57 13.0833V44.3333C57 44.8859 56.7805 45.4158 56.3898 45.8065C55.9991 46.1972 55.4692 46.4167 54.9167 46.4167ZM9.08333 13.0833V44.3333H54.9167V13.0833H9.08333Z" fill="#404040"/>
<path d="M26.7917 47.4583H24.7084V51.625H26.7917V47.4583Z" fill="#404040"/>
<path d="M39.2917 47.4583H37.2084V51.625H39.2917V47.4583Z" fill="#404040"/>
<path d="M43.4583 50.5833H20.5416V52.6667H43.4583V50.5833Z" fill="#404040"/>
<path d="M16.375 40.1667H12.2084V42.25H16.375V40.1667Z" fill="#FA4616"/>
<path d="M51.7916 40.1667H20.5416V42.25H51.7916V40.1667Z" fill="#FA4616"/>
<path d="M19.5 39.125H17.4166V43.2917H19.5V39.125Z" fill="#FA4616"/>
</svg>
