<svg width="64" height="64" viewBox="0 0 64 64" fill="none" xmlns="http://www.w3.org/2000/svg">
<path d="M54.6823 56.9955C54.5253 56.9955 54.3702 56.9615 54.2276 56.8958C54.085 56.8302 53.9584 56.7344 53.8563 56.6151C48.422 50.0939 42.8899 50.996 37.0643 51.9633C34.9885 52.36 32.884 52.589 30.7714 52.648C25.414 52.6357 20.2317 50.7391 16.1318 47.2904C12.032 43.8417 9.27594 39.0607 8.3463 33.7846C7.41665 28.5084 8.37264 23.0734 11.0469 18.4311C13.7211 13.7888 17.9432 10.2353 22.9737 8.39255C28.0043 6.54986 33.5228 6.5355 38.5629 8.352C43.6029 10.1685 47.8434 13.7001 50.5418 18.3284C53.2401 22.9566 54.2244 28.3866 53.3222 33.6676C52.42 38.9485 49.6889 43.7438 45.6071 47.2137C45.4986 47.3065 45.3729 47.377 45.2372 47.4212C45.1015 47.4654 44.9584 47.4825 44.8161 47.4714C44.6738 47.4603 44.535 47.4212 44.4078 47.3565C44.2806 47.2918 44.1674 47.2027 44.0746 47.0942C43.9818 46.9857 43.9113 46.86 43.8671 46.7243C43.8229 46.5886 43.8059 46.4455 43.817 46.3032C43.8281 46.1609 43.8671 46.0222 43.9318 45.8949C43.9965 45.7677 44.0857 45.6545 44.1941 45.5617C47.8775 42.4118 50.3357 38.0667 51.1382 33.287C51.9408 28.5074 51.0367 23.5977 48.5841 19.4175C46.1315 15.2373 42.2867 12.0529 37.7229 10.4218C33.159 8.79064 28.1668 8.81673 23.6203 10.4955C19.0737 12.1742 15.2624 15.3986 12.8537 19.6042C10.4449 23.8098 9.59214 28.7287 10.4446 33.4997C11.2971 38.2707 13.8005 42.5899 17.5167 45.7012C21.2328 48.8124 25.9248 50.5174 30.7714 50.5178C32.7644 50.4612 34.7493 50.2395 36.7057 49.8548C42.5965 48.8766 49.2698 47.7789 55.5192 55.2891C55.6107 55.3989 55.6797 55.5257 55.7221 55.6623C55.7646 55.7988 55.7796 55.9423 55.7665 56.0847C55.7534 56.227 55.7123 56.3654 55.6456 56.4918C55.579 56.6183 55.488 56.7304 55.3779 56.8216C55.1724 56.9566 54.9272 57.0179 54.6823 56.9955V56.9955Z" fill="#FA4616"/>
<path d="M30.7714 25.4766C29.4816 25.4766 28.2208 25.0941 27.1484 24.3775C26.076 23.661 25.2402 22.6425 24.7466 21.4509C24.2531 20.2593 24.1239 18.9482 24.3756 17.6832C24.6272 16.4182 25.2483 15.2562 26.1603 14.3442C27.0723 13.4322 28.2342 12.8112 29.4992 12.5595C30.7642 12.3079 32.0754 12.4371 33.2669 12.9306C34.4585 13.4242 35.477 14.26 36.1935 15.3324C36.9101 16.4048 37.2926 17.6656 37.2926 18.9554C37.2926 20.6849 36.6055 22.3436 35.3826 23.5666C34.1596 24.7895 32.5009 25.4766 30.7714 25.4766ZM30.7714 14.608C29.9116 14.608 29.071 14.8629 28.3561 15.3406C27.6412 15.8183 27.0839 16.4973 26.7549 17.2917C26.4258 18.0861 26.3397 18.9602 26.5075 19.8035C26.6752 20.6469 27.0893 21.4215 27.6973 22.0295C28.3053 22.6375 29.0799 23.0516 29.9233 23.2193C30.7666 23.387 31.6407 23.301 32.4351 22.9719C33.2295 22.6429 33.9085 22.0856 34.3862 21.3707C34.8639 20.6558 35.1188 19.8152 35.1188 18.9554C35.1188 17.8024 34.6608 16.6966 33.8455 15.8813C33.0302 15.066 31.9244 14.608 30.7714 14.608Z" fill="#404040"/>
<path d="M30.7714 47.2137C29.4816 47.2137 28.2208 46.8313 27.1484 46.1147C26.076 45.3982 25.2402 44.3797 24.7466 43.1881C24.2531 41.9965 24.1239 40.6853 24.3756 39.4204C24.6272 38.1554 25.2483 36.9934 26.1603 36.0814C27.0723 35.1694 28.2342 34.5483 29.4992 34.2967C30.7642 34.0451 32.0754 34.1742 33.2669 34.6678C34.4585 35.1614 35.477 35.9972 36.1935 37.0696C36.9101 38.142 37.2926 39.4028 37.2926 40.6926C37.2926 42.4221 36.6055 44.0808 35.3826 45.3037C34.1596 46.5267 32.5009 47.2137 30.7714 47.2137ZM30.7714 36.3451C29.9116 36.3451 29.071 36.6001 28.3561 37.0778C27.6412 37.5555 27.0839 38.2345 26.7549 39.0289C26.4258 39.8233 26.3397 40.6974 26.5075 41.5407C26.6752 42.384 27.0893 43.1587 27.6973 43.7667C28.3053 44.3747 29.0799 44.7887 29.9233 44.9565C30.7666 45.1242 31.6407 45.0381 32.4351 44.7091C33.2295 44.38 33.9085 43.8228 34.3862 43.1079C34.8639 42.393 35.1188 41.5524 35.1188 40.6926C35.1188 39.5396 34.6608 38.4338 33.8455 37.6185C33.0302 36.8032 31.9244 36.3451 30.7714 36.3451Z" fill="#404040"/>
<path d="M19.903 36.3451C18.6132 36.3451 17.3524 35.9627 16.28 35.2461C15.2076 34.5296 14.3718 33.5111 13.8782 32.3195C13.3847 31.1279 13.2555 29.8168 13.5071 28.5518C13.7588 27.2868 14.3798 26.1248 15.2918 25.2128C16.2038 24.3008 17.3658 23.6798 18.6308 23.4281C19.8958 23.1765 21.207 23.3057 22.3985 23.7992C23.5901 24.2928 24.6086 25.1286 25.3251 26.201C26.0417 27.2734 26.4241 28.5342 26.4241 29.824C26.4241 31.5535 25.7371 33.2122 24.5142 34.4351C23.2912 35.6581 21.6325 36.3451 19.903 36.3451V36.3451ZM19.903 25.4765C19.0431 25.4765 18.2026 25.7315 17.4877 26.2092C16.7728 26.6869 16.2155 27.3659 15.8865 28.1603C15.5574 28.9547 15.4713 29.8288 15.6391 30.6721C15.8068 31.5155 16.2209 32.2901 16.8289 32.8981C17.4369 33.5061 18.2115 33.9201 19.0549 34.0879C19.8982 34.2556 20.7723 34.1695 21.5667 33.8405C22.3611 33.5115 23.0401 32.9542 23.5178 32.2393C23.9955 31.5244 24.2504 30.6838 24.2504 29.824C24.2504 28.671 23.7924 27.5652 22.9771 26.7499C22.1618 25.9346 21.056 25.4765 19.903 25.4765Z" fill="#404040"/>
<path d="M41.6401 36.3451C40.3503 36.3451 39.0895 35.9627 38.0171 35.2461C36.9447 34.5296 36.1089 33.5111 35.6153 32.3195C35.1217 31.1279 34.9926 29.8168 35.2442 28.5518C35.4958 27.2868 36.1169 26.1248 37.0289 25.2128C37.9409 24.3008 39.1029 23.6798 40.3678 23.4281C41.6328 23.1765 42.944 23.3057 44.1356 23.7992C45.3272 24.2928 46.3456 25.1286 47.0622 26.201C47.7787 27.2734 48.1612 28.5342 48.1612 29.824C48.1612 31.5535 47.4742 33.2122 46.2512 34.4351C45.0283 35.6581 43.3696 36.3451 41.6401 36.3451V36.3451ZM41.6401 25.4765C40.7802 25.4765 39.9397 25.7315 39.2248 26.2092C38.5098 26.6869 37.9526 27.3659 37.6235 28.1603C37.2945 28.9547 37.2084 29.8288 37.3761 30.6721C37.5439 31.5155 37.9579 32.2901 38.5659 32.8981C39.1739 33.5061 39.9486 33.9201 40.7919 34.0879C41.6352 34.2556 42.5094 34.1695 43.3037 33.8405C44.0981 33.5115 44.7771 32.9542 45.2548 32.2393C45.7325 31.5244 45.9875 30.6838 45.9875 29.824C45.9875 28.671 45.5295 27.5652 44.7142 26.7499C43.8989 25.9346 42.7931 25.4765 41.6401 25.4765Z" fill="#404040"/>
<path d="M31.8583 28.7372H29.6846V30.9109H31.8583V28.7372Z" fill="#404040"/>
</svg>
