<svg width="64" height="64" viewBox="0 0 64 64" fill="none" xmlns="http://www.w3.org/2000/svg">
<path d="M55.9583 43.3333H8.04167C7.7654 43.3333 7.50045 43.2236 7.3051 43.0282C7.10975 42.8329 7 42.5679 7 42.2917V11.0417C7 10.7654 7.10975 10.5004 7.3051 10.3051C7.50045 10.1097 7.7654 10 8.04167 10H55.9583C56.2346 10 56.4996 10.1097 56.6949 10.3051C56.8903 10.5004 57 10.7654 57 11.0417V42.2917C57 42.5679 56.8903 42.8329 56.6949 43.0282C56.4996 43.2236 56.2346 43.3333 55.9583 43.3333ZM9.08333 41.25H54.9167V12.0833H9.08333V41.25Z" fill="#404040"/>
<path d="M14.2917 48.5417H7V50.625H14.2917V48.5417Z" fill="#404040"/>
<path d="M57.0001 48.5417H26.7917V50.625H57.0001V48.5417Z" fill="#404040"/>
<path d="M20.5416 54.7917C19.5115 54.7917 18.5045 54.4862 17.648 53.9139C16.7915 53.3416 16.1239 52.5282 15.7297 51.5765C15.3355 50.6248 15.2324 49.5776 15.4333 48.5672C15.6343 47.5569 16.1303 46.6289 16.8587 45.9005C17.5871 45.1721 18.5152 44.676 19.5255 44.4751C20.5358 44.2741 21.583 44.3772 22.5347 44.7715C23.4864 45.1657 24.2999 45.8332 24.8722 46.6897C25.4445 47.5462 25.7499 48.5532 25.7499 49.5833C25.7499 50.9647 25.2012 52.2894 24.2244 53.2662C23.2477 54.2429 21.9229 54.7917 20.5416 54.7917V54.7917ZM20.5416 46.4583C19.9239 46.4589 19.3203 46.6424 18.8069 46.9859C18.2935 47.3293 17.8933 47.8171 17.657 48.3878C17.4208 48.9585 17.3589 49.5864 17.4792 50.1922C17.5996 50.7981 17.8968 51.3546 18.3333 51.7917C18.9187 52.3779 19.7131 52.7076 20.5416 52.7083V52.7083C21.3704 52.7083 22.1652 52.3791 22.7513 51.793C23.3373 51.207 23.6666 50.4121 23.6666 49.5833C23.6666 48.7545 23.3373 47.9597 22.7513 47.3736C22.1652 46.7876 21.3704 46.4583 20.5416 46.4583V46.4583Z" fill="#404040"/>
<path d="M16.896 30.8333C16.2732 30.8434 15.6549 30.7273 15.0782 30.492C14.5015 30.2567 13.9784 29.9071 13.5404 29.4643C13.1024 29.0214 12.7586 28.4945 12.5297 27.9152C12.3008 27.3359 12.1915 26.7163 12.2085 26.0937V25.1667C12.2085 23.9235 12.7024 22.7311 13.5814 21.8521C14.4605 20.973 15.6528 20.4792 16.896 20.4792C18.1392 20.4792 19.3315 20.973 20.2106 21.8521C21.0896 22.7311 21.5835 23.9235 21.5835 25.1667V26.0937C21.6019 26.7167 21.4937 27.337 21.2653 27.9169C21.0369 28.4969 20.6932 29.0244 20.2549 29.4675C19.8166 29.9107 19.2929 30.2602 18.7156 30.495C18.1382 30.7298 17.5192 30.8449 16.896 30.8333V30.8333ZM16.896 22.5C16.5466 22.4925 16.1995 22.5568 15.876 22.689C15.5525 22.8212 15.2596 23.0184 15.0154 23.2684C14.7713 23.5184 14.5811 23.8159 14.4566 24.1424C14.3322 24.4689 14.2761 24.8176 14.2918 25.1667V26.0937C14.2918 26.7844 14.5662 27.4468 15.0546 27.9351C15.543 28.4235 16.2053 28.6979 16.896 28.6979C17.5867 28.6979 18.2491 28.4235 18.7374 27.9351C19.2258 27.4468 19.5002 26.7844 19.5002 26.0937V25.1667C19.5159 24.8176 19.4598 24.4689 19.3354 24.1424C19.2109 23.8159 19.0207 23.5184 18.7765 23.2684C18.5324 23.0184 18.2395 22.8212 17.916 22.689C17.5925 22.5568 17.2454 22.4925 16.896 22.5V22.5Z" fill="#404040"/>
<path d="M22.6248 42.2917H20.5415V37.0833C20.543 36.8859 20.6006 36.6929 20.7075 36.5269C20.8145 36.3609 20.9665 36.2287 21.1457 36.1458C21.1457 36.1458 25.6769 34 27.3123 33.0208C27.7523 32.6968 28.115 32.2794 28.3744 31.7985C28.6337 31.3176 28.7833 30.7852 28.8123 30.2396C27.0727 30.8854 24.1769 31.9896 22.3019 32.8021C20.5791 33.5483 18.721 33.9312 16.8436 33.9271H15.3332C13.7879 33.8176 12.2414 34.1233 10.854 34.8125L9.76025 33.0417C11.4715 32.1351 13.4005 31.7204 15.3332 31.8437H16.8436C18.4381 31.8459 20.016 31.5197 21.479 30.8854C24.3332 29.6562 29.354 27.8229 29.5623 27.7604C29.7196 27.7036 29.8882 27.6854 30.054 27.7075C30.2198 27.7296 30.3778 27.7912 30.5147 27.8873C30.6516 27.9833 30.7634 28.1109 30.8406 28.2592C30.9178 28.4076 30.9581 28.5723 30.9582 28.7396V28.8438C30.9582 30.2188 30.9582 33.0729 28.4269 34.8125C27.0103 35.625 23.9373 37.1146 22.6248 37.7292V42.2917Z" fill="#404040"/>
<path d="M33.5835 30.2708L32.5419 28.4792L37.3023 25.625L29.9481 21.2188V25.625H27.8648V19.375C27.8637 19.1896 27.9121 19.0072 28.005 18.8468C28.098 18.6863 28.2321 18.5536 28.3935 18.4623C28.5548 18.371 28.7377 18.3244 28.9231 18.3274C29.1085 18.3303 29.2897 18.3827 29.4481 18.4792L39.8648 24.7292C40.0202 24.8214 40.149 24.9525 40.2384 25.1096C40.3279 25.2666 40.3749 25.4443 40.3749 25.625C40.3749 25.8058 40.3279 25.9834 40.2384 26.1404C40.149 26.2975 40.0202 26.4286 39.8648 26.5208L33.5835 30.2708Z" fill="#FA4616"/>
</svg>
