<svg width="64" height="64" viewBox="0 0 64 64" fill="none" xmlns="http://www.w3.org/2000/svg">
<path d="M52.5532 57H11.0638C10.7817 57 10.5111 56.8879 10.3116 56.6884C10.1121 56.4889 10 56.2183 10 55.9362V8.06383C10 7.78168 10.1121 7.51109 10.3116 7.31159C10.5111 7.11208 10.7817 7 11.0638 7H52.5532C52.8353 7 53.1059 7.11208 53.3054 7.31159C53.5049 7.51109 53.617 7.78168 53.617 8.06383V55.9362C53.617 56.2183 53.5049 56.4889 53.3054 56.6884C53.1059 56.8879 52.8353 57 52.5532 57ZM12.1277 54.8723H51.4894V9.12766H12.1277V54.8723Z" fill="#404040"/>
<path d="M52.5531 13.383H11.0637V15.5106H52.5531V13.383Z" fill="#404040"/>
<path d="M16.383 10.1915H14.2554V12.3192H16.383V10.1915Z" fill="#404040"/>
<path d="M20.6384 10.1915H18.5107V12.3192H20.6384V10.1915Z" fill="#404040"/>
<path d="M24.8935 10.1915H22.7659V12.3192H24.8935V10.1915Z" fill="#404040"/>
<path d="M52.5531 36.7872H11.0637V38.9149H52.5531V36.7872Z" fill="#404040"/>
<path d="M23.8297 51.6809H16.3829C16.1008 51.6809 15.8302 51.5688 15.6307 51.3693C15.4312 51.1698 15.3191 50.8992 15.3191 50.617V43.1702C15.3191 42.8881 15.4312 42.6175 15.6307 42.418C15.8302 42.2185 16.1008 42.1064 16.3829 42.1064H23.8297C24.1119 42.1064 24.3825 42.2185 24.582 42.418C24.7815 42.6175 24.8936 42.8881 24.8936 43.1702V50.617C24.8936 50.8992 24.7815 51.1698 24.582 51.3693C24.3825 51.5688 24.1119 51.6809 23.8297 51.6809ZM17.4468 49.5532H22.7659V44.234H17.4468V49.5532Z" fill="#404040"/>
<path d="M48.298 43.1702H28.0852V45.2979H48.298V43.1702Z" fill="#404040"/>
<path d="M38.7235 47.4255H28.0852V49.5532H38.7235V47.4255Z" fill="#404040"/>
<path d="M27.0213 33.5958C26.8386 33.5952 26.6591 33.5476 26.5001 33.4575C26.3358 33.3651 26.1989 33.2307 26.1036 33.0681C26.0083 32.9055 25.9578 32.7204 25.9575 32.5319V19.766C25.9583 19.5775 26.0091 19.3926 26.1048 19.2303C26.2005 19.0679 26.3376 18.9339 26.5021 18.8419C26.6666 18.7499 26.8526 18.7033 27.041 18.7068C27.2294 18.7102 27.4136 18.7637 27.5745 18.8617L38.2128 25.2447C38.3681 25.3392 38.4966 25.472 38.586 25.6303C38.6754 25.7886 38.7227 25.9672 38.7235 26.149C38.7245 26.3326 38.6781 26.5133 38.5886 26.6736C38.4991 26.8339 38.3697 26.9684 38.2128 27.0638L27.5745 33.4468C27.4072 33.5461 27.2159 33.5976 27.0213 33.5958V33.5958ZM28.0852 21.649V30.6596L35.5958 26.149L28.0852 21.649Z" fill="#FA4616"/>
</svg>
