<svg width="64" height="64" viewBox="0 0 64 64" fill="none" xmlns="http://www.w3.org/2000/svg">
<path d="M27.4674 39.9674C27.0856 39.9667 26.7107 39.8655 26.3804 39.6739C26.0503 39.4833 25.776 39.2092 25.5853 38.8792C25.3945 38.5491 25.2938 38.1747 25.2935 37.7935V26.2065C25.2938 25.8251 25.3946 25.4505 25.5855 25.1204C25.7765 24.7902 26.051 24.5161 26.3814 24.3255C26.7118 24.135 27.0865 24.0348 27.4679 24.0349C27.8493 24.0349 28.224 24.1354 28.5543 24.3261L38.5652 30.1196C38.8946 30.3107 39.1681 30.585 39.3582 30.915C39.5483 31.245 39.6483 31.6192 39.6483 32C39.6483 32.3809 39.5483 32.755 39.3582 33.085C39.1681 33.4151 38.8946 33.6893 38.5652 33.8804L28.5543 39.6957C28.222 39.8797 27.8472 39.9734 27.4674 39.9674ZM27.4674 26.2065V37.7935L37.4782 32L27.4674 26.2065Z" fill="#FA4616"/>
<path d="M49.8696 57H15.087C14.7987 57 14.5222 56.8855 14.3184 56.6816C14.1145 56.4778 14 56.2013 14 55.913V8.08696C14 7.79868 14.1145 7.52221 14.3184 7.31836C14.5222 7.11452 14.7987 7 15.087 7H49.8696C50.1578 7 50.4343 7.11452 50.6382 7.31836C50.842 7.52221 50.9565 7.79868 50.9565 8.08696V55.913C50.9565 56.2013 50.842 56.4778 50.6382 56.6816C50.4343 56.8855 50.1578 57 49.8696 57ZM16.1739 54.8261H48.7826V9.17391H16.1739V54.8261Z" fill="#404040"/>
</svg>
