<svg width="64" height="64" viewBox="0 0 64 64" fill="none" xmlns="http://www.w3.org/2000/svg">
<path d="M55.442 24.9258L41.7354 38.6324L43.2268 40.1239L56.9335 26.4172L55.442 24.9258Z" fill="#404040"/>
<path d="M26.9833 33.7981L22.7647 29.5796C21.5624 28.4507 20.8538 26.8932 20.7926 25.2451C20.7875 24.3936 20.9603 23.5504 21.2999 22.7695C21.6395 21.9886 22.1385 21.2872 22.7647 20.7102L36.4749 7L37.962 8.48703L24.2518 22.1972C23.8295 22.574 23.4911 23.0354 23.2586 23.5513C23.026 24.0673 22.9045 24.6264 22.9018 25.1924C22.9533 26.2779 23.4218 27.3017 24.2096 28.0504L28.4281 32.2689L26.9833 33.7981Z" fill="#404040"/>
<path d="M9.48703 55.9454L8 54.4583L30.1472 32.3111C30.5555 31.7644 30.7761 31.1004 30.7761 30.4181C30.7761 29.7357 30.5555 29.0717 30.1472 28.525C29.7513 28.1881 29.2449 28.0094 28.7252 28.023C28.2055 28.0366 27.7091 28.2417 27.3314 28.5988L26.0131 26.9641C26.7953 26.2834 27.8009 25.9147 28.8378 25.9283C29.8746 25.9419 30.8702 26.3369 31.6343 27.038C32.4462 27.9769 32.893 29.1768 32.893 30.4181C32.893 31.6594 32.4462 32.8592 31.6343 33.7981L9.48703 55.9454Z" fill="#404040"/>
<path d="M43.2352 57L41.7481 55.513L48.0759 49.1852C48.2634 49.0084 48.4139 48.7962 48.5189 48.5609C48.6239 48.3256 48.6812 48.0718 48.6876 47.8142C48.681 47.5582 48.6235 47.306 48.5185 47.0725C48.4135 46.8389 48.263 46.6285 48.0759 46.4537L30.1472 28.525L31.6342 27.038L49.563 44.9667C49.9528 45.3326 50.2635 45.7745 50.4758 46.2652C50.6882 46.7558 50.7978 47.2848 50.7978 47.8194C50.7978 48.3541 50.6882 48.8831 50.4758 49.3737C50.2635 49.8644 49.9528 50.3063 49.563 50.6722L43.2352 57Z" fill="#404040"/>
<path d="M37.5264 11.2098L35.416 13.3202L36.9075 14.8117L39.0179 12.7012L37.5264 11.2098Z" fill="#FA4616"/>
<path d="M33.3079 15.425L31.1975 17.5354L32.689 19.0269L34.7994 16.9164L33.3079 15.425Z" fill="#FA4616"/>
<path d="M29.0894 19.6507L26.979 21.7611L28.4705 23.2526L30.5809 21.1422L29.0894 19.6507Z" fill="#FA4616"/>
<path d="M52.2886 22.8093L50.1782 24.9197L51.6697 26.4112L53.7801 24.3008L52.2886 22.8093Z" fill="#FA4616"/>
<path d="M48.0701 27.035L45.9597 29.1454L47.4512 30.6369L49.5616 28.5265L48.0701 27.035Z" fill="#FA4616"/>
<path d="M43.8516 31.2502L41.7412 33.3607L43.2327 34.8521L45.3431 32.7417L43.8516 31.2502Z" fill="#FA4616"/>
<path d="M44.9102 47.0692L42.7998 49.1796L44.2913 50.6711L46.4017 48.5606L44.9102 47.0692Z" fill="#FA4616"/>
<path d="M40.6915 51.2844L38.5811 53.3948L40.0725 54.8862L42.1829 52.7758L40.6915 51.2844Z" fill="#FA4616"/>
<path d="M32.251 35.4652L30.1406 37.5756L31.6321 39.0671L33.7425 36.9567L32.251 35.4652Z" fill="#FA4616"/>
<path d="M28.0325 39.6909L25.9221 41.8014L27.4136 43.2928L29.524 41.1824L28.0325 39.6909Z" fill="#FA4616"/>
<path d="M23.814 43.9061L21.7036 46.0165L23.1951 47.508L25.3055 45.3976L23.814 43.9061Z" fill="#FA4616"/>
<path d="M19.5953 48.1213L17.4849 50.2318L18.9763 51.7232L21.0868 49.6128L19.5953 48.1213Z" fill="#FA4616"/>
<path d="M15.3768 52.3365L13.2664 54.447L14.7578 55.9384L16.8683 53.828L15.3768 52.3365Z" fill="#FA4616"/>
</svg>
