<svg width="64" height="64" viewBox="0 0 64 64" fill="none" xmlns="http://www.w3.org/2000/svg">
<path d="M52.3912 51.5652H19.7825C19.4942 51.5652 19.2178 51.4507 19.0139 51.2469C18.8101 51.043 18.6956 50.7665 18.6956 50.4783V12.4348C18.6956 12.1465 18.8101 11.87 19.0139 11.6662C19.2178 11.4624 19.4942 11.3478 19.7825 11.3478H52.3912C52.6795 11.3478 52.956 11.4624 53.1598 11.6662C53.3636 11.87 53.4782 12.1465 53.4782 12.4348V50.4783C53.4782 50.7665 53.3636 51.043 53.1598 51.2469C52.956 51.4507 52.6795 51.5652 52.3912 51.5652ZM20.8695 49.3913H51.3042V13.5218H20.8695V49.3913Z" fill="#404040"/>
<path d="M12.1739 51.5652H10V12.4348C10 10.9934 10.5726 9.61103 11.5918 8.59181C12.611 7.5726 13.9934 7 15.4348 7C16.8762 7 18.2585 7.5726 19.2778 8.59181C20.297 9.61103 20.8696 10.9934 20.8696 12.4348H18.6957C18.6957 11.5699 18.3521 10.7405 17.7406 10.129C17.129 9.51747 16.2996 9.17391 15.4348 9.17391C14.5699 9.17391 13.7405 9.51747 13.129 10.129C12.5175 10.7405 12.1739 11.5699 12.1739 12.4348V51.5652Z" fill="#404040"/>
<path d="M45.8696 57H15.4348C13.9934 57 12.611 56.4274 11.5918 55.4082C10.5726 54.389 10 53.0066 10 51.5652C10 50.1238 10.5726 48.7415 11.5918 47.7223C12.611 46.703 13.9934 46.1304 15.4348 46.1304C16.6835 46.0766 17.9115 46.4627 18.9047 47.2215C19.8979 47.9803 20.5933 49.0637 20.8696 50.2826L18.6957 50.6739C18.5397 50.0765 18.22 49.5345 17.7726 49.109C17.3252 48.6835 16.7679 48.3914 16.1634 48.2656C15.559 48.1398 14.9314 48.1853 14.3514 48.397C13.7714 48.6087 13.262 48.9781 12.8806 49.4637C12.4993 49.9493 12.2611 50.5317 12.193 51.1453C12.1248 51.759 12.2294 52.3795 12.4949 52.9369C12.7604 53.4943 13.1763 53.9665 13.6957 54.3003C14.2151 54.6341 14.8174 54.8162 15.4348 54.8261H44.7826V52.6522H46.9565V55.9131C46.9565 56.2013 46.842 56.4778 46.6382 56.6816C46.4343 56.8855 46.1578 57 45.8696 57Z" fill="#404040"/>
<path d="M36.0869 16.7826H23.0435V18.9565H36.0869V16.7826Z" fill="#404040"/>
<path d="M48.0435 40.6956H24.1304C23.8421 40.6956 23.5657 40.5811 23.3618 40.3773C23.158 40.1734 23.0435 39.897 23.0435 39.6087V22.2174C23.0435 21.9291 23.158 21.6526 23.3618 21.4488C23.5657 21.2449 23.8421 21.1304 24.1304 21.1304H48.0435C48.3317 21.1304 48.6082 21.2449 48.812 21.4488C49.0159 21.6526 49.1304 21.9291 49.1304 22.2174V39.6087C49.1304 39.897 49.0159 40.1734 48.812 40.3773C48.6082 40.5811 48.3317 40.6956 48.0435 40.6956ZM25.2174 38.5217H46.9565V23.3043H25.2174V38.5217Z" fill="#404040"/>
<path d="M32.826 36.3478C32.5377 36.3478 32.2612 36.2333 32.0574 36.0295C31.8535 35.8256 31.739 35.5491 31.739 35.2609V26.5652C31.7393 26.3756 31.7892 26.1894 31.8838 26.0251C31.9783 25.8608 32.1142 25.724 32.2779 25.6284C32.4416 25.5328 32.6275 25.4817 32.817 25.4802C33.0066 25.4786 33.1933 25.5267 33.3586 25.6196L40.9673 29.9674C41.1345 30.0622 41.2737 30.1997 41.3705 30.3658C41.4673 30.5319 41.5183 30.7208 41.5183 30.913C41.5183 31.1053 41.4673 31.2942 41.3705 31.4603C41.2737 31.6264 41.1345 31.7639 40.9673 31.8587L33.3586 36.2065C33.1961 36.2986 33.0127 36.3473 32.826 36.3478ZM33.9129 28.4457V33.3913L38.2608 30.913L33.9129 28.4457Z" fill="#FA4616"/>
</svg>
