<svg width="64" height="64" viewBox="0 0 64 64" fill="none" xmlns="http://www.w3.org/2000/svg">
<path d="M28.4556 53.8954C24.7337 53.8967 21.0756 52.9296 17.8407 51.0889C14.6059 49.2483 11.9057 46.5975 10.0056 43.3972C8.10548 40.1969 7.07089 36.5572 7.00352 32.836C6.93614 29.1147 7.83829 25.44 9.62128 22.173C11.4043 18.906 14.0067 16.1592 17.1728 14.2027C20.3389 12.2461 23.9597 11.1471 27.6792 11.0138C31.3986 10.8804 35.0888 11.7172 38.3869 13.442C41.685 15.1668 44.4775 17.7201 46.4899 20.851L44.9889 21.8183C42.5552 18.0314 38.8955 15.1945 34.6214 13.7817C30.3473 12.3689 25.7178 12.4657 21.5066 14.0562C17.2954 15.6466 13.7576 18.6342 11.4845 22.5196C9.21141 26.4051 8.34072 30.953 9.01794 35.4033C9.69516 39.8536 11.8793 43.9366 15.2052 46.97C18.5312 50.0035 22.7976 51.8035 27.2912 52.0693C31.7849 52.335 36.2337 51.0505 39.894 48.4302C43.5544 45.81 46.2045 42.0128 47.4016 37.6734L49.125 38.1515C47.8735 42.6738 45.175 46.6618 41.4422 49.505C37.7094 52.3483 33.1479 53.8904 28.4556 53.8954V53.8954Z" fill="#404040"/>
<path d="M14.7575 34.0154L13.0007 33.6596L13.8902 29.2122C13.9334 29.0111 14.0441 28.8308 14.2039 28.7014C14.3637 28.5719 14.5629 28.5011 14.7686 28.5006H19.216C19.4527 28.4992 19.6803 28.5912 19.8498 28.7564L20.1055 29.0232V26.6549C20.1052 26.5404 20.1279 26.427 20.1722 26.3214L21.9623 21.874C22.0387 21.6829 22.1806 21.5253 22.3625 21.4292L25.6981 19.6613L23.1186 16.9373C22.9758 16.7926 22.8869 16.6033 22.8666 16.401C22.8464 16.1987 22.8961 15.9956 23.0074 15.8255L24.0526 14.2133L22.7739 12.5899L24.1749 11.4781L25.8538 13.6018C25.9625 13.7543 26.0209 13.937 26.0209 14.1243C26.0209 14.3116 25.9625 14.4943 25.8538 14.6469L24.8531 16.2035L27.755 19.2722C27.8503 19.3713 27.9212 19.4911 27.9624 19.6222C28.0035 19.7534 28.0137 19.8923 27.9922 20.028C27.9706 20.1637 27.9179 20.2926 27.8382 20.4045C27.7585 20.5165 27.6539 20.6084 27.5327 20.6731L23.5078 22.8301L21.9178 26.8106V31.1579C21.9197 31.3353 21.8686 31.5091 21.771 31.6572C21.6734 31.8052 21.5338 31.9207 21.3701 31.9888C21.2063 32.057 21.026 32.0746 20.8522 32.0395C20.6783 32.0043 20.519 31.9181 20.3946 31.7917L18.8713 30.2685H15.5358L14.7575 34.0154Z" fill="#404040"/>
<path d="M16.2141 37.5511L13.5346 34.8716C13.4461 34.7923 13.3775 34.6932 13.3344 34.5825L8.98706 24.1533L10.6437 23.4639L14.9244 33.7374L17.4705 36.2947L16.2141 37.5511Z" fill="#404040"/>
<path d="M27.933 52.6056L26.1429 52.5277L26.2207 50.8711C26.2333 50.7084 26.2868 50.5517 26.3763 50.4153L29.9565 45.1784V39.7525L25.2867 37.4065H17.4704V41.6538L23.0297 47.6468C23.1716 47.7936 23.2547 47.9875 23.2632 48.1916L23.4855 51.7606L21.6954 51.8718L21.5064 48.6252L15.9472 42.61C15.7951 42.4473 15.7115 42.2323 15.7137 42.0096V36.5171C15.7137 36.4003 15.7367 36.2846 15.7814 36.1767C15.8261 36.0688 15.8916 35.9707 15.9742 35.8881C16.0568 35.8055 16.1548 35.74 16.2628 35.6953C16.3707 35.6506 16.4863 35.6276 16.6032 35.6276H25.498C25.6326 35.6292 25.7652 35.6595 25.8871 35.7165L31.2574 38.3961C31.4038 38.4727 31.5267 38.5876 31.6129 38.7286C31.699 38.8696 31.7453 39.0314 31.7466 39.1966V45.4564C31.7461 45.635 31.6919 45.8093 31.5909 45.9567L27.9997 51.1713L27.933 52.6056Z" fill="#404040"/>
<path d="M42.7539 33.3816C42.6229 33.3798 42.4939 33.3495 42.3759 33.2927L28.978 27.0441C28.8215 26.9739 28.6885 26.8599 28.5953 26.7159C28.502 26.5719 28.4524 26.404 28.4524 26.2324C28.4524 26.0609 28.502 25.8929 28.5953 25.7489C28.6885 25.6049 28.8215 25.491 28.978 25.4208L42.3759 19.1721C42.4943 19.1173 42.6233 19.089 42.7539 19.089C42.8844 19.089 43.0134 19.1173 43.1319 19.1721L56.4742 25.4208C56.6307 25.491 56.7637 25.6049 56.8569 25.7489C56.9502 25.8929 56.9998 26.0609 56.9998 26.2324C56.9998 26.404 56.9502 26.5719 56.8569 26.7159C56.7637 26.8599 56.6307 26.9739 56.4742 27.0441L43.1319 33.2927C43.0139 33.3495 42.8849 33.3798 42.7539 33.3816V33.3816ZM31.4686 26.2324L42.7539 31.5026L54.0392 26.2324L42.7539 20.9622L31.4686 26.2324Z" fill="#FA4616"/>
<path d="M29.3564 35.1384C29.0019 35.1406 28.6547 35.0375 28.3588 34.8421C28.063 34.6468 27.8318 34.368 27.6947 34.0411C27.5575 33.7142 27.5204 33.3539 27.5882 33.006C27.656 32.658 27.8256 32.338 28.0755 32.0865C28.3254 31.835 28.6444 31.6634 28.9919 31.5935C29.3395 31.5235 29.7 31.5583 30.0277 31.6934C30.3554 31.8286 30.6357 32.058 30.8329 32.3526C31.0301 32.6473 31.1353 32.9937 31.1353 33.3483C31.1353 33.8211 30.9483 34.2748 30.615 34.6102C30.2817 34.9455 29.8292 35.1355 29.3564 35.1384V35.1384Z" fill="#FA4616"/>
<path d="M42.4651 40.4975C37.7175 40.4975 33.9594 36.8173 33.7926 36.6616C33.6274 36.4922 33.5355 36.2645 33.5369 36.0279V28.4784H35.3159V35.6054C36.1942 36.3614 39.1073 38.6741 42.4651 38.6741C45.8229 38.6741 48.7471 36.3614 49.6143 35.6054V28.445H51.4044V35.9945C51.4016 36.2325 51.3058 36.4599 51.1375 36.6282C50.9819 36.8173 47.2238 40.4975 42.4651 40.4975Z" fill="#FA4616"/>
<path d="M29.9678 25.7988H28.1777V32.0585H29.9678V25.7988Z" fill="#FA4616"/>
</svg>
