<svg width="64" height="64" viewBox="0 0 64 64" fill="none" xmlns="http://www.w3.org/2000/svg">
<path d="M15.3301 9H13.2476V48.568H15.3301V9Z" fill="#404040"/>
<path d="M38.2378 9H36.1553V23.5777H38.2378V9Z" fill="#404040"/>
<path d="M9.08253 9H7V48.568H9.08253V9Z" fill="#404040"/>
<path d="M44.4854 9H42.4028V23.5777H44.4854V9Z" fill="#404040"/>
<path d="M14.2888 12.1238H8.04126V14.2063H14.2888V12.1238Z" fill="#404040"/>
<path d="M14.2888 18.3714H8.04126V20.4539H14.2888V18.3714Z" fill="#404040"/>
<path d="M14.2888 24.6189H8.04126V26.7015H14.2888V24.6189Z" fill="#404040"/>
<path d="M14.2888 30.8665H8.04126V32.949H14.2888V30.8665Z" fill="#404040"/>
<path d="M14.2888 37.1141H8.04126V39.1966H14.2888V37.1141Z" fill="#404040"/>
<path d="M14.2888 43.3617H8.04126V45.4442H14.2888V43.3617Z" fill="#404040"/>
<path d="M43.4444 12.1238H37.1968V14.2063H43.4444V12.1238Z" fill="#404040"/>
<path d="M43.4444 18.3714H37.1968V20.4539H43.4444V18.3714Z" fill="#404040"/>
<path d="M37.1966 15.2476H14.2888V17.3301H37.1966V15.2476Z" fill="#404040"/>
<path d="M25.7427 40.2379H14.2888V42.3204H25.7427V40.2379Z" fill="#404040"/>
<path d="M45.0788 54.8156C44.8848 54.8169 44.6942 54.764 44.5286 54.6628C44.363 54.5616 44.229 54.4162 44.1417 54.2429L43.1837 52.3374C42.3151 52.4311 41.4388 52.4311 40.5701 52.3374L39.6122 54.2429C39.495 54.4798 39.292 54.6633 39.0445 54.7561C38.797 54.8489 38.5235 54.8441 38.2794 54.7427L33.8019 52.8788C33.5579 52.7788 33.3609 52.5899 33.2507 52.3502C33.1405 52.1106 33.1254 51.838 33.2084 51.5877L33.9061 49.5676C33.2224 49.0194 32.6009 48.3978 32.0526 47.7142L30.0222 48.391C29.7678 48.4832 29.4876 48.4729 29.2407 48.3621C28.9939 48.2513 28.7999 48.0488 28.6998 47.7975L26.8463 43.32C26.7449 43.0759 26.7401 42.8024 26.8329 42.5549C26.9257 42.3074 27.1092 42.1044 27.3461 41.9872L29.2516 41.0293C29.1579 40.1606 29.1579 39.2844 29.2516 38.4157L27.3565 37.489C27.1196 37.3717 26.9361 37.1688 26.8433 36.9213C26.7505 36.6738 26.7553 36.4002 26.8567 36.1561L28.7102 31.6787C28.8102 31.4346 28.9991 31.2376 29.2388 31.1275C29.4784 31.0173 29.751 31.0022 30.0013 31.0852L32.0318 31.762C32.5848 31.0663 33.2134 30.4342 33.9061 29.8773L33.2293 27.8469C33.1463 27.5965 33.1614 27.324 33.2715 27.0843C33.3817 26.8446 33.5787 26.6557 33.8228 26.5557L38.3002 24.7023C38.5443 24.6008 38.8179 24.596 39.0654 24.6888C39.3129 24.7817 39.5158 24.9651 39.633 25.2021L40.5701 27.0763C41.4388 26.9826 42.3151 26.9826 43.1837 27.0763L44.1417 25.1708C44.2589 24.9339 44.4618 24.7504 44.7094 24.6576C44.9569 24.5648 45.2304 24.5696 45.4745 24.671L49.9519 26.5245C50.196 26.6245 50.393 26.8134 50.5032 27.0531C50.6134 27.2927 50.6285 27.5653 50.5455 27.8156L49.8686 29.8461C50.5523 30.3943 51.1738 31.0159 51.7221 31.6995L53.7525 31.0227C54.0029 30.9397 54.2755 30.9548 54.5151 31.065C54.7548 31.1752 54.9437 31.3722 55.0437 31.6162L56.8972 36.0937C56.9569 36.2179 56.9913 36.3528 56.9985 36.4905C57.0056 36.6282 56.9854 36.766 56.9389 36.8958C56.8924 37.0256 56.8206 37.1449 56.7276 37.2467C56.6347 37.3485 56.5224 37.4309 56.3974 37.489L54.4918 38.4365C54.5856 39.3087 54.5856 40.1883 54.4918 41.0605L56.3974 42.0185C56.6343 42.1357 56.8178 42.3386 56.9106 42.5861C57.0034 42.8336 56.9986 43.1072 56.8972 43.3513L55.0437 47.8287C54.9437 48.0728 54.7548 48.2698 54.5151 48.38C54.2755 48.4901 54.0029 48.5052 53.7525 48.4222L51.7221 47.7454C51.1738 48.4291 50.5523 49.0506 49.8686 49.5988L50.5455 51.6189C50.6285 51.8693 50.6134 52.1418 50.5032 52.3815C50.393 52.6211 50.196 52.81 49.9519 52.9101L45.4745 54.7739C45.3462 54.8117 45.2121 54.8258 45.0788 54.8156V54.8156ZM43.7877 50.1715C43.98 50.1721 44.1683 50.2259 44.3319 50.327C44.4955 50.4281 44.6279 50.5725 44.7144 50.7442L45.5682 52.4415L48.2651 51.3273L47.6612 49.526C47.591 49.3144 47.5906 49.086 47.6599 48.8742C47.7293 48.6624 47.8647 48.4784 48.0464 48.3493C48.993 47.6684 49.8229 46.8385 50.5038 45.892C50.6329 45.7103 50.8168 45.5748 51.0286 45.5054C51.2404 45.4361 51.4689 45.4365 51.6804 45.5067L53.4818 46.1106L54.596 43.4137L52.8987 42.5599C52.6992 42.4604 52.5368 42.2994 52.4356 42.1007C52.3344 41.9021 52.2996 41.6761 52.3364 41.4562C52.5238 40.3045 52.5238 39.1301 52.3364 37.9784C52.3134 37.7682 52.3548 37.5561 52.4553 37.3701C52.5557 37.1841 52.7104 37.0331 52.8987 36.9371L54.596 36.0833L53.4818 33.3239L51.6804 33.9278C51.4689 33.998 51.2404 33.9984 51.0286 33.9291C50.8168 33.8597 50.6329 33.7243 50.5038 33.5426C49.8229 32.596 48.993 31.7661 48.0464 31.0852C47.8647 30.9561 47.7293 30.7722 47.6599 30.5604C47.5906 30.3486 47.591 30.1201 47.6612 29.9086L48.2651 28.1072L45.5682 26.9826L44.7144 28.6903C44.6149 28.8898 44.4539 29.0522 44.2552 29.1534C44.0565 29.2546 43.8306 29.2894 43.6107 29.2526C42.4625 29.0651 41.2914 29.0651 40.1432 29.2526C39.9233 29.2894 39.6974 29.2546 39.4987 29.1534C39.3 29.0522 39.139 28.8898 39.0395 28.6903L38.1857 26.9826L35.4888 28.1176L36.0927 29.919C36.1629 30.1305 36.1633 30.359 36.094 30.5708C36.0246 30.7826 35.8891 30.9665 35.7075 31.0956C34.7609 31.7765 33.931 32.6064 33.2501 33.553C33.1216 33.7325 32.9394 33.8666 32.7298 33.9359C32.5202 34.0051 32.294 34.006 32.0839 33.9383L30.2721 33.3239L29.1579 36.0208L30.8552 36.8746C31.0547 36.9741 31.2171 37.1351 31.3183 37.3338C31.4195 37.5325 31.4543 37.7584 31.4175 37.9784C31.2299 39.1266 31.2299 40.2976 31.4175 41.4458C31.4543 41.6657 31.4195 41.8916 31.3183 42.0903C31.2171 42.289 31.0547 42.45 30.8552 42.5495L29.1579 43.4033L30.2721 46.1002L32.0735 45.4963C32.285 45.4261 32.5134 45.4257 32.7252 45.495C32.937 45.5644 33.121 45.6999 33.2501 45.8815C33.9284 46.8273 34.7588 47.6542 35.7075 48.3285C35.8891 48.4576 36.0246 48.6415 36.094 48.8533C36.1633 49.0651 36.1629 49.2936 36.0927 49.5051L35.4888 51.3169L38.1857 52.4311L39.0395 50.7338C39.139 50.5343 39.3 50.3719 39.4987 50.2707C39.6974 50.1695 39.9233 50.1347 40.1432 50.1715C41.2914 50.3591 42.4625 50.3591 43.6107 50.1715H43.7877Z" fill="#FA4616"/>
<path d="M41.8822 45.4442C40.7495 45.4442 39.6423 45.1083 38.7005 44.4791C37.7587 43.8498 37.0247 42.9553 36.5912 41.9089C36.1577 40.8624 36.0443 39.7109 36.2653 38.6C36.4863 37.4891 37.0317 36.4686 37.8327 35.6677C38.6336 34.8668 39.654 34.3213 40.765 34.1004C41.8759 33.8794 43.0274 33.9928 44.0738 34.4263C45.1203 34.8597 46.0147 35.5938 46.644 36.5356C47.2733 37.4773 47.6092 38.5846 47.6092 39.7173C47.6092 41.2362 47.0058 42.6928 45.9318 43.7668C44.8578 44.8408 43.4011 45.4442 41.8822 45.4442V45.4442ZM41.8822 36.0729C41.1614 36.0729 40.4568 36.2866 39.8575 36.687C39.2582 37.0875 38.7911 37.6567 38.5152 38.3226C38.2394 38.9885 38.1672 39.7213 38.3078 40.4283C38.4484 41.1352 38.7955 41.7846 39.3052 42.2943C39.8149 42.804 40.4643 43.1511 41.1712 43.2917C41.8782 43.4323 42.6109 43.3601 43.2769 43.0843C43.9428 42.8084 44.512 42.3413 44.9124 41.742C45.3129 41.1427 45.5266 40.4381 45.5266 39.7173C45.5266 38.7507 45.1427 37.8237 44.4592 37.1403C43.7758 36.4568 42.8488 36.0729 41.8822 36.0729V36.0729Z" fill="#FA4616"/>
</svg>
