<svg width="64" height="64" viewBox="0 0 64 64" fill="none" xmlns="http://www.w3.org/2000/svg">
<path d="M44.0833 57H20.125C19.2962 57 18.5013 56.6708 17.9153 56.0847C17.3292 55.4987 17 54.7038 17 53.875V10.125C17 9.2962 17.3292 8.50134 17.9153 7.91529C18.5013 7.32924 19.2962 7 20.125 7H44.0833C44.9121 7 45.707 7.32924 46.293 7.91529C46.8791 8.50134 47.2083 9.2962 47.2083 10.125V53.875C47.2083 54.7038 46.8791 55.4987 46.293 56.0847C45.707 56.6708 44.9121 57 44.0833 57ZM20.125 9.08333C19.8487 9.08333 19.5838 9.19308 19.3884 9.38843C19.1931 9.58378 19.0833 9.84873 19.0833 10.125V53.875C19.0833 54.1513 19.1931 54.4162 19.3884 54.6116C19.5838 54.8069 19.8487 54.9167 20.125 54.9167H44.0833C44.3596 54.9167 44.6246 54.8069 44.8199 54.6116C45.0153 54.4162 45.125 54.1513 45.125 53.875V10.125C45.125 9.84873 45.0153 9.58378 44.8199 9.38843C44.6246 9.19308 44.3596 9.08333 44.0833 9.08333H20.125Z" fill="#404040"/>
<path d="M46.1666 48.6667H18.0416V50.75H46.1666V48.6667Z" fill="#404040"/>
<path d="M33.6666 51.7917H30.5416V53.875H33.6666V51.7917Z" fill="#404040"/>
<path d="M27.4166 36.1666C27.2356 36.1663 27.0572 36.1235 26.8958 36.0416C26.7353 35.949 26.6024 35.8152 26.5109 35.6541C26.4193 35.4929 26.3724 35.3103 26.375 35.125V22.625C26.3768 22.442 26.4269 22.2627 26.52 22.1053C26.6132 21.9478 26.7462 21.8176 26.9056 21.7278C27.0651 21.638 27.2454 21.5919 27.4283 21.5939C27.6113 21.596 27.7905 21.6462 27.9479 21.7396L38.3646 27.9896C38.5176 28.0824 38.6442 28.2131 38.732 28.3691C38.8199 28.5251 38.866 28.7012 38.866 28.8802C38.866 29.0592 38.8199 29.2352 38.732 29.3912C38.6442 29.5472 38.5176 29.678 38.3646 29.7708L27.9479 36.0208C27.7871 36.1162 27.6036 36.1666 27.4166 36.1666ZM28.4583 24.4687V33.2916L35.75 28.875L28.4583 24.4687Z" fill="#FA4616"/>
<path d="M43.0417 42.4167H28.4584V44.5H43.0417V42.4167Z" fill="#404040"/>
<path d="M27.4167 40.3333H25.3334V46.5833H27.4167V40.3333Z" fill="#404040"/>
<path d="M26.375 42.4167H21.1666V44.5H26.375V42.4167Z" fill="#404040"/>
</svg>
