<svg width="64" height="64" viewBox="0 0 64 64" fill="none" xmlns="http://www.w3.org/2000/svg">
<path d="M53.8742 45.3403H51.7905V21.3769C51.7905 21.1006 51.6807 20.8356 51.4853 20.6402C51.2899 20.4448 51.0249 20.3351 50.7486 20.3351H29.9109V18.2513H50.7486C51.5775 18.2513 52.3726 18.5806 52.9588 19.1668C53.5449 19.753 53.8742 20.548 53.8742 21.3769V45.3403Z" fill="#404040"/>
<path d="M51.7907 51.5916H37.2043V49.5078H51.7907C52.6197 49.5078 53.4147 49.1785 54.0009 48.5923C54.5871 48.0062 54.9164 47.2111 54.9164 46.3822H37.2043V44.2984H57.0001V46.3822C57.0001 47.7638 56.4513 49.0888 55.4744 50.0658C54.4974 51.0427 53.1723 51.5916 51.7907 51.5916Z" fill="#404040"/>
<path d="M47.6231 42.2146H45.5393V39.089C45.5393 38.5264 43.4555 37.0052 41.3718 37.0052C40.0939 37.0608 38.8657 37.5164 37.8606 38.3076L36.5479 36.6822C37.9215 35.5934 39.6094 34.976 41.3614 34.9214C44.1015 34.9214 47.6127 36.9427 47.6127 39.089L47.6231 42.2146Z" fill="#FA4616"/>
<path d="M41.3719 33.8796C40.3377 33.9262 39.3257 33.5702 38.5485 32.8863C37.7714 32.2024 37.2896 31.2439 37.2043 30.2121V28.1284C37.2043 27.0231 37.6434 25.9631 38.425 25.1815C39.2066 24.3999 40.2666 23.9608 41.3719 23.9608C42.4772 23.9608 43.5372 24.3999 44.3188 25.1815C45.1003 25.9631 45.5394 27.0231 45.5394 28.1284V30.2121C45.4567 31.2449 44.9757 32.2049 44.1979 32.8893C43.4202 33.5737 42.4067 33.9289 41.3719 33.8796V33.8796ZM41.3719 26.5864C40.33 26.5864 39.2881 27.3574 39.2881 28.17V30.2538C39.2881 31.0665 40.33 31.8375 41.3719 31.8375C42.4138 31.8375 43.4556 31.0665 43.4556 30.2538V28.17C43.4556 27.3782 42.445 26.5864 41.3719 26.5864Z" fill="#FA4616"/>
<path d="M21.5864 30.7539C20.6168 30.7984 19.6486 30.6402 18.7436 30.2894C17.8387 29.9386 17.0168 29.403 16.3305 28.7167C15.6442 28.0303 15.1085 27.2085 14.7577 26.3035C14.4069 25.3985 14.2487 24.4303 14.2932 23.4607V19.2932C14.2932 17.3589 15.0616 15.5039 16.4294 14.1361C17.7971 12.7684 19.6521 12 21.5864 12C23.5207 12 25.3757 12.7684 26.7435 14.1361C28.1112 15.5039 28.8796 17.3589 28.8796 19.2932V23.4607C28.9257 24.4307 28.7686 25.3996 28.4184 26.3053C28.0682 27.2111 27.5326 28.0336 26.8459 28.7203C26.1593 29.4069 25.3367 29.9425 24.431 30.2927C23.5253 30.6429 22.5564 30.8 21.5864 30.7539V30.7539ZM21.5864 14.0838C20.8896 14.0342 20.1902 14.135 19.5357 14.3793C18.8812 14.6236 18.2869 15.0057 17.7929 15.4997C17.2989 15.9937 16.9168 16.588 16.6725 17.2425C16.4283 17.897 16.3275 18.5963 16.377 19.2932V23.4607C16.377 24.8423 16.9259 26.1674 17.9028 27.1443C18.8798 28.1213 20.2048 28.6701 21.5864 28.6701C22.968 28.6701 24.2931 28.1213 25.27 27.1443C26.247 26.1674 26.7958 24.8423 26.7958 23.4607V19.2932C26.8455 18.5954 26.7445 17.8951 26.4996 17.2398C26.2547 16.5845 25.8717 15.9896 25.3766 15.4955C24.8814 15.0013 24.2857 14.6195 23.63 14.3759C22.9742 14.1323 22.2737 14.0327 21.576 14.0838H21.5864Z" fill="#404040"/>
<path d="M7 51.5916V40.7143C7 37.9533 8.94833 35.5778 12.6366 33.8275C15.4413 32.5253 18.4845 31.8159 21.5759 31.7437C26.7854 31.7437 36.1623 34.7547 36.1623 40.7456V51.5916H34.0786V40.7143C34.0786 36.4218 25.9831 33.7962 21.5759 33.7962C18.794 33.8854 16.0586 34.5339 13.5326 35.7029C11.4488 36.6718 9.08377 38.318 9.08377 40.7143V51.5916H7Z" fill="#404040"/>
</svg>
