<svg width="64" height="64" viewBox="0 0 64 64" fill="none" xmlns="http://www.w3.org/2000/svg">
<path d="M26.1431 57C21.0032 57 15.5015 55.0739 15.5015 52.2113V45.1026H17.6298V52.2113C17.6298 52.8498 20.7372 54.8717 26.1431 54.8717C31.5491 54.8717 34.6564 52.8498 34.6564 52.2113V45.1026H36.7848V52.2113C36.7848 55.0739 31.283 57 26.1431 57Z" fill="#FA4616"/>
<path d="M41.0412 52.7433C40.759 52.7433 40.4883 52.6313 40.2888 52.4317C40.0892 52.2321 39.9771 51.9614 39.9771 51.6792V43.1659C39.9771 42.8836 40.0892 42.613 40.2888 42.4134C40.4883 42.2138 40.759 42.1017 41.0412 42.1017C41.3234 42.1017 41.5941 42.2138 41.7937 42.4134C41.9933 42.613 42.1054 42.8836 42.1054 43.1659V51.6792C42.1054 51.9614 41.9933 52.2321 41.7937 52.4317C41.5941 52.6313 41.3234 52.7433 41.0412 52.7433Z" fill="#FA4616"/>
<path d="M41.0414 36.7809H38.9131V28.2675C38.9131 27.9853 39.0252 27.7147 39.2248 27.5151C39.4244 27.3155 39.695 27.2034 39.9772 27.2034H42.2972L36.7848 18.5411L31.2724 27.2034H33.5923C33.8745 27.2034 34.1452 27.3155 34.3448 27.5151C34.5443 27.7147 34.6564 27.9853 34.6564 28.2675V32.5242H32.5281V29.3317H29.3356C29.1442 29.3322 28.9561 29.2811 28.7913 29.1838C28.6265 29.0864 28.491 28.9463 28.3992 28.7784C28.3058 28.6166 28.2566 28.4331 28.2566 28.2463C28.2566 28.0595 28.3058 27.876 28.3992 27.7142L35.8483 16.0084C35.9443 15.8567 36.077 15.7318 36.2343 15.6453C36.3915 15.5587 36.5681 15.5133 36.7475 15.5133C36.927 15.5133 37.1036 15.5587 37.2608 15.6453C37.418 15.7318 37.5508 15.8567 37.6468 16.0084L45.0959 27.7142C45.199 27.8749 45.2569 28.0603 45.2637 28.251C45.2705 28.4418 45.2259 28.6309 45.1345 28.7985C45.0431 28.966 44.9083 29.1059 44.7442 29.2035C44.5801 29.3011 44.3929 29.3527 44.202 29.353H41.0095L41.0414 36.7809Z" fill="#404040"/>
<path d="M20.8222 34.6525H18.6939V20.8184H15.5014C15.3099 20.8189 15.1219 20.7678 14.9571 20.6704C14.7923 20.573 14.6568 20.433 14.5649 20.265C14.4715 20.1033 14.4224 19.9198 14.4224 19.733C14.4224 19.5462 14.4715 19.3626 14.5649 19.2009L22.0141 7.49506C22.1101 7.34341 22.2428 7.21851 22.4 7.13195C22.5572 7.04539 22.7338 7 22.9133 7C23.0928 7 23.2693 7.04539 23.4266 7.13195C23.5838 7.21851 23.7166 7.34341 23.8125 7.49506L31.2617 19.2009C31.3648 19.3615 31.4227 19.547 31.4295 19.7377C31.4363 19.9285 31.3916 20.1175 31.3002 20.2851C31.2088 20.4527 31.074 20.5926 30.91 20.6901C30.7459 20.7877 30.5586 20.8394 30.3678 20.8397H27.1753V24.0322H25.0469V19.7755C25.0469 19.4933 25.1591 19.2226 25.3586 19.0231C25.5582 18.8235 25.8289 18.7114 26.1111 18.7114H28.431L22.9186 10.049L17.4062 18.7114H19.7261C20.0083 18.7114 20.279 18.8235 20.4786 19.0231C20.6782 19.2226 20.7903 19.4933 20.7903 19.7755L20.8222 34.6525Z" fill="#404040"/>
<path d="M52.7475 50.615H50.6191V43.1658C50.6191 42.8836 50.7313 42.6129 50.9308 42.4134C51.1304 42.2138 51.4011 42.1017 51.6833 42.1017H53.95L47.565 32.5242L44.7875 37.9089L42.8933 36.9405L46.5008 29.9383C46.5855 29.7741 46.7115 29.6347 46.8663 29.534C47.0212 29.4332 47.1996 29.3745 47.3841 29.3637C47.5691 29.3525 47.7537 29.3898 47.9198 29.4719C48.086 29.5541 48.2277 29.6781 48.3312 29.8319L56.8445 42.6019C56.9379 42.7636 56.9871 42.9472 56.9871 43.134C56.9871 43.3208 56.9379 43.5043 56.8445 43.666C56.754 43.836 56.6191 43.9781 56.4542 44.0774C56.2893 44.1768 56.1005 44.2295 55.908 44.23H52.7155L52.7475 50.615Z" fill="#404040"/>
<path d="M26.143 49.5509C26.0231 49.5513 25.904 49.5296 25.7919 49.487L7.70109 43.102C7.49565 43.0275 7.31815 42.8915 7.19271 42.7125C7.06727 42.5335 7 42.3203 7 42.1017C7 41.8832 7.06727 41.6699 7.19271 41.491C7.31815 41.312 7.49565 41.176 7.70109 41.1014L25.7919 34.7164C26.0183 34.6315 26.2678 34.6315 26.4942 34.7164L44.585 41.1014C44.7905 41.176 44.968 41.312 45.0934 41.491C45.2189 41.6699 45.2861 41.8832 45.2861 42.1017C45.2861 42.3203 45.2189 42.5335 45.0934 42.7125C44.968 42.8915 44.7905 43.0275 44.585 43.102L26.4942 49.487C26.3816 49.5279 26.2629 49.5495 26.143 49.5509ZM11.2447 42.1017L26.143 47.3587L41.0414 42.1017L26.143 36.8447L11.2447 42.1017Z" fill="#FA4616"/>
</svg>
