<svg width="64" height="64" viewBox="0 0 64 64" fill="none" xmlns="http://www.w3.org/2000/svg">
<path d="M35.5537 45.3891H26.3553L24.2823 43.3056H7V15.179H10.1252V17.2624H9.08345V41.2222H25.1469L27.2199 43.3056H34.6891L36.7726 41.2222H39.2935V43.3056H37.6372L35.5537 45.3891Z" fill="#404040"/>
<path d="M54.9194 36.0135H52.8359V16.2207H51.7942V14.1373H54.9194V36.0135Z" fill="#404040"/>
<path d="M33.6785 41.2222H29.9178V18.3042C29.8602 17.3315 30.0093 16.3577 30.3554 15.4468C30.7015 14.536 31.2366 13.7088 31.9256 13.0199C32.6146 12.3309 33.4417 11.7957 34.3526 11.4496C35.2634 11.1036 36.2373 10.9544 37.2099 11.0121H50.7524V33.9301H48.6689V13.0955H37.2099C33.366 13.0955 32.0013 15.7832 32.0013 18.3042V39.1387H32.4492C33.0013 38.4166 33.7277 37.8465 34.5605 37.4821C35.3932 37.1177 36.3049 36.9708 37.2099 37.0553H39.2934V39.1387H37.2099C35.0431 39.1387 34.366 39.8679 33.9701 40.6492L33.6785 41.2222Z" fill="#404040"/>
<path d="M32.0013 41.2222H28.2406L27.949 40.6492C27.5427 39.8679 26.9072 39.1387 24.7092 39.1387H11.1667V11.0121H24.7092C25.6815 10.9561 26.6545 11.1064 27.5646 11.4531C28.4747 11.7997 29.3012 12.335 29.9898 13.0236C30.6784 13.7122 31.2136 14.5387 31.5603 15.4487C31.907 16.3588 32.0572 17.3319 32.0013 18.3042V41.2222ZM29.4595 39.1387H29.9178V18.3042C29.9178 15.7832 28.5428 13.0955 24.7092 13.0955H13.2502V37.0553H24.7092C25.6127 36.9716 26.5225 37.1189 27.3534 37.4834C28.1844 37.8478 28.9091 38.4174 29.4595 39.1387Z" fill="#404040"/>
<path d="M51.0964 53.7125C50.9213 53.7163 50.7464 53.6988 50.5756 53.6604C50.3082 53.5992 50.0555 53.4858 49.832 53.3267C49.6086 53.1676 49.4187 52.9659 49.2734 52.7332L46.0337 47.035L42.9814 49.9831C42.7627 50.2166 42.4796 50.3798 42.1681 50.4521C41.8565 50.5244 41.5304 50.5026 41.2313 50.3894C40.9528 50.2642 40.7185 50.0582 40.5587 49.7981C40.3989 49.538 40.3211 49.2359 40.3354 48.9309V31.2216C40.3363 31.0307 40.3896 30.8438 40.4895 30.6811C40.5894 30.5185 40.732 30.3865 40.9019 30.2994C41.0717 30.2123 41.2622 30.1736 41.4526 30.1874C41.6429 30.2012 41.8258 30.2671 41.9813 30.3778L56.3259 40.7951C56.6283 41.0378 56.8444 41.3717 56.942 41.747C57.0396 42.1224 57.0135 42.5192 56.8676 42.8785C56.7836 43.2713 56.5749 43.6265 56.2727 43.8912C55.9705 44.1558 55.5909 44.3158 55.1904 44.3474H52.0652L54.8987 49.2539C55.1735 49.7797 55.2337 50.3915 55.0666 50.9608C54.8995 51.53 54.5182 52.0122 54.0029 52.3061L52.3882 53.3479C51.9993 53.5858 51.5523 53.712 51.0964 53.7125V53.7125ZM46.2837 44.3369H46.4295C46.5877 44.3596 46.7386 44.4184 46.8705 44.5087C47.0023 44.599 47.1117 44.7184 47.19 44.8578L51.0652 51.6915C51.0652 51.6915 51.1798 51.6915 51.3152 51.5874L52.9403 50.5456C52.9896 50.5172 53.032 50.4781 53.0645 50.4313C53.0969 50.3844 53.1185 50.331 53.1278 50.2748L49.4088 43.8161C49.3174 43.6577 49.2693 43.4781 49.2693 43.2952C49.2693 43.1123 49.3174 42.9327 49.4088 42.7743C49.501 42.6188 49.6321 42.49 49.7892 42.4005C49.9463 42.311 50.1239 42.2639 50.3047 42.2639H54.7842L42.4189 33.2738V47.6392L45.544 44.5974C45.7423 44.4062 46.0082 44.3013 46.2837 44.3057V44.3369Z" fill="#FA4616"/>
</svg>
