<svg width="64" height="64" viewBox="0 0 64 64" fill="none" xmlns="http://www.w3.org/2000/svg">
<path d="M12.2083 43.0625H10.125V26.3959C10.125 25.5671 10.4542 24.7722 11.0403 24.1861C11.6263 23.6001 12.4212 23.2709 13.25 23.2709H37.2083V25.3542H13.25C12.9737 25.3542 12.7088 25.4639 12.5134 25.6593C12.3181 25.8546 12.2083 26.1196 12.2083 26.3959V43.0625Z" fill="#404040"/>
<path d="M32 50.3542H10.125C9.2962 50.3542 8.50132 50.0249 7.91527 49.4389C7.32922 48.8528 7 48.058 7 47.2292V44.1042H32V46.1875H9.08333V47.2292C9.08333 47.5055 9.19306 47.7704 9.38841 47.9657C9.58376 48.1611 9.84873 48.2709 10.125 48.2709H32V50.3542Z" fill="#404040"/>
<path d="M20.6147 41.0417C20.3384 41.0417 20.0735 40.9319 19.8781 40.7366C19.6828 40.5412 19.573 40.2763 19.573 40V29.4583C19.5723 29.2748 19.6201 29.0943 19.7115 28.9352C19.803 28.776 19.9349 28.6439 20.0938 28.5521C20.2522 28.4607 20.4318 28.4125 20.6147 28.4125C20.7975 28.4125 20.9772 28.4607 21.1355 28.5521L30.3647 33.8229C30.525 33.9138 30.6583 34.0455 30.7511 34.2047C30.8439 34.3639 30.8928 34.5449 30.8928 34.7292C30.8928 34.9134 30.8439 35.0944 30.7511 35.2536C30.6583 35.4128 30.525 35.5446 30.3647 35.6354L21.1355 40.9063C20.9768 40.9962 20.7971 41.0429 20.6147 41.0417ZM21.6563 31.25V38.2083L27.7501 34.7292L21.6563 31.25Z" fill="#FA4616"/>
<path d="M45.5419 28.3854C43.8704 28.3662 42.2745 27.6858 41.1033 26.4931C39.932 25.3004 39.2808 23.6924 39.2919 22.0208V20.25C39.2919 18.5924 39.9504 17.0027 41.1225 15.8306C42.2946 14.6585 43.8843 14 45.5419 14C47.1995 14 48.7892 14.6585 49.9613 15.8306C51.1334 17.0027 51.7919 18.5924 51.7919 20.25V22.0208C51.8058 23.6933 51.1554 25.3028 49.9836 26.4961C48.8117 27.6894 47.2143 28.3689 45.5419 28.3854V28.3854ZM45.5419 15.9792C44.9858 15.979 44.4354 16.0901 43.9229 16.306C43.4105 16.5219 42.9465 16.8382 42.5582 17.2362C42.1699 17.6342 41.8651 18.1059 41.662 18.6235C41.4588 19.1411 41.3613 19.6941 41.3752 20.25V22.0208C41.3752 23.1259 41.8142 24.1857 42.5956 24.9671C43.377 25.7485 44.4368 26.1875 45.5419 26.1875C46.647 26.1875 47.7068 25.7485 48.4882 24.9671C49.2696 24.1857 49.7086 23.1259 49.7086 22.0208V20.25C49.7225 19.6941 49.6249 19.1411 49.4218 18.6235C49.2186 18.1059 48.9139 17.6342 48.5256 17.2362C48.1373 16.8382 47.6732 16.5219 47.1608 16.306C46.6484 16.0901 46.0979 15.979 45.5419 15.9792Z" fill="#404040"/>
<path d="M56.9999 50.3542H54.9166V35.6875C54.9166 32.3958 48.7916 31.5208 45.5416 31.5208C42.2916 31.5208 36.1666 32.3958 36.1666 35.6875V50.3542H34.0833V35.6875C34.0833 31.0729 40.2603 29.4375 45.5416 29.4375C50.8228 29.4375 56.9999 31.0729 56.9999 35.6875V50.3542Z" fill="#404040"/>
<path d="M41.3751 38.8959H39.2917V50.3542H41.3751V38.8959Z" fill="#404040"/>
<path d="M51.7916 38.8959H49.7083V50.3542H51.7916V38.8959Z" fill="#404040"/>
</svg>
