<svg width="64" height="64" viewBox="0 0 64 64" fill="none" xmlns="http://www.w3.org/2000/svg">
<path d="M16.3024 10H13.9768V54.186H16.3024V10Z" fill="#404040"/>
<path d="M50.0232 10H47.6976V54.186H50.0232V10Z" fill="#404040"/>
<path d="M9.32558 10H7V54.186H9.32558V10Z" fill="#404040"/>
<path d="M57 10H54.6744V54.186H57V10Z" fill="#404040"/>
<path d="M15.1396 13.4884H8.16284V15.814H15.1396V13.4884Z" fill="#404040"/>
<path d="M15.1396 20.4651H8.16284V22.7907H15.1396V20.4651Z" fill="#404040"/>
<path d="M15.1396 27.4419H8.16284V29.7674H15.1396V27.4419Z" fill="#404040"/>
<path d="M15.1396 34.4186H8.16284V36.7442H15.1396V34.4186Z" fill="#404040"/>
<path d="M15.1396 41.3953H8.16284V43.7209H15.1396V41.3953Z" fill="#404040"/>
<path d="M15.1396 48.3721H8.16284V50.6977H15.1396V48.3721Z" fill="#404040"/>
<path d="M55.8372 13.4884H48.8605V15.814H55.8372V13.4884Z" fill="#404040"/>
<path d="M55.8372 20.4651H48.8605V22.7907H55.8372V20.4651Z" fill="#404040"/>
<path d="M55.8372 27.4419H48.8605V29.7674H55.8372V27.4419Z" fill="#404040"/>
<path d="M55.8372 34.4186H48.8605V36.7442H55.8372V34.4186Z" fill="#404040"/>
<path d="M55.8372 41.3953H48.8605V43.7209H55.8372V41.3953Z" fill="#404040"/>
<path d="M55.8372 48.3721H48.8605V50.6977H55.8372V48.3721Z" fill="#404040"/>
<path d="M45.372 54.1861H43.0464V48.3721C43.0464 48.0637 42.9239 47.7679 42.7058 47.5499C42.4878 47.3318 42.192 47.2093 41.8836 47.2093H22.1162C21.8078 47.2093 21.512 47.3318 21.294 47.5499C21.0759 47.7679 20.9534 48.0637 20.9534 48.3721V54.1861H18.6278V48.3721C18.6278 47.4469 18.9953 46.5596 19.6495 45.9055C20.3037 45.2513 21.191 44.8837 22.1162 44.8837H41.8836C42.8088 44.8837 43.6961 45.2513 44.3503 45.9055C45.0045 46.5596 45.372 47.4469 45.372 48.3721V54.1861Z" fill="#FA4616"/>
<path d="M41.8836 19.3023H22.1162C21.191 19.3023 20.3037 18.9348 19.6495 18.2806C18.9953 17.6264 18.6278 16.7391 18.6278 15.814V10H20.9534V15.814C20.9534 16.1223 21.0759 16.4181 21.294 16.6362C21.512 16.8542 21.8078 16.9767 22.1162 16.9767H41.8836C42.192 16.9767 42.4878 16.8542 42.7058 16.6362C42.9239 16.4181 43.0464 16.1223 43.0464 15.814V10H45.372V15.814C45.372 16.7391 45.0045 17.6264 44.3503 18.2806C43.6961 18.9348 42.8088 19.3023 41.8836 19.3023Z" fill="#FA4616"/>
<path d="M41.8836 42.5581H22.1162C21.191 42.5581 20.3037 42.1906 19.6495 41.5364C18.9953 40.8822 18.6278 39.9949 18.6278 39.0698V25.1163C18.6278 24.1911 18.9953 23.3038 19.6495 22.6496C20.3037 21.9954 21.191 21.6279 22.1162 21.6279H41.8836C42.8088 21.6279 43.6961 21.9954 44.3503 22.6496C45.0045 23.3038 45.372 24.1911 45.372 25.1163V39.0698C45.372 39.9949 45.0045 40.8822 44.3503 41.5364C43.6961 42.1906 42.8088 42.5581 41.8836 42.5581V42.5581ZM22.1162 23.9535C21.8078 23.9535 21.512 24.076 21.294 24.2941C21.0759 24.5121 20.9534 24.8079 20.9534 25.1163V39.0698C20.9534 39.3782 21.0759 39.6739 21.294 39.892C21.512 40.11 21.8078 40.2325 22.1162 40.2325H41.8836C42.192 40.2325 42.4878 40.11 42.7058 39.892C42.9239 39.6739 43.0464 39.3782 43.0464 39.0698V25.1163C43.0464 24.8079 42.9239 24.5121 42.7058 24.2941C42.4878 24.076 42.192 23.9535 41.8836 23.9535H22.1162Z" fill="#FA4616"/>
</svg>
