<svg width="64" height="64" viewBox="0 0 64 64" fill="none" xmlns="http://www.w3.org/2000/svg">
<path d="M52.8332 40H50.7498V18.125C50.7498 17.8487 50.6401 17.5838 50.4448 17.3884C50.2494 17.1931 49.9844 17.0833 49.7082 17.0833H14.2915C14.0152 17.0833 13.7503 17.1931 13.5549 17.3884C13.3596 17.5838 13.2498 17.8487 13.2498 18.125V40H11.1665V18.125C11.1665 17.2962 11.4958 16.5013 12.0818 15.9153C12.6679 15.3292 13.4627 15 14.2915 15H49.7082C50.537 15 51.3318 15.3292 51.9179 15.9153C52.504 16.5013 52.8332 17.2962 52.8332 18.125V40Z" fill="#404040"/>
<path d="M50.75 49.375H13.25C11.5924 49.375 10.0027 48.7165 8.83058 47.5444C7.65848 46.3723 7 44.7826 7 43.125V41.0417H57V43.125C57 44.7826 56.3415 46.3723 55.1694 47.5444C53.9973 48.7165 52.4076 49.375 50.75 49.375ZM9.08333 43.125C9.08333 44.2301 9.52232 45.2899 10.3037 46.0713C11.0851 46.8527 12.1449 47.2917 13.25 47.2917H50.75C51.8551 47.2917 52.9149 46.8527 53.6963 46.0713C54.4777 45.2899 54.9167 44.2301 54.9167 43.125H9.08333Z" fill="#404040"/>
<path d="M35.125 44.1667H28.875V46.25H35.125V44.1667Z" fill="#404040"/>
<path d="M27.3542 36.3021C27.1788 36.2998 27.0068 36.2532 26.8542 36.1667C26.6913 36.0776 26.5552 35.9466 26.46 35.7873C26.3648 35.6279 26.3139 35.446 26.3125 35.2604V22.2396C26.312 22.0522 26.362 21.8681 26.4574 21.7068C26.5527 21.5455 26.6898 21.4129 26.8542 21.3229C27.0125 21.2315 27.1921 21.1834 27.375 21.1834C27.5578 21.1834 27.7375 21.2315 27.8958 21.3229L38.3125 27.8334C38.4609 27.9273 38.5832 28.0573 38.668 28.2111C38.7527 28.365 38.7971 28.5379 38.7971 28.7136C38.7971 28.8892 38.7527 29.0621 38.668 29.216C38.5832 29.3699 38.4609 29.4998 38.3125 29.5938L27.8958 36.1042C27.7375 36.2198 27.5498 36.2884 27.3542 36.3021ZM28.3958 24.1146V33.375L35.8125 28.75L28.3958 24.1146Z" fill="#FA4616"/>
</svg>
