<svg width="64" height="64" viewBox="0 0 64 64" fill="none" xmlns="http://www.w3.org/2000/svg">
<path d="M33.0417 52.7917H17.4167V50.1667C15.824 48.6996 14.5907 46.8853 13.8126 44.8646C13.6563 44.5104 13.5105 44.1875 13.3646 43.8854L11.1667 39.5V39.25C11.2174 38.7433 11.4149 38.2624 11.7351 37.8664C12.0552 37.4704 12.484 37.1765 12.9688 37.0208C13.4842 36.769 14.0631 36.6771 14.6311 36.7569C15.1992 36.8367 15.7303 37.0846 16.1563 37.4687C16.6251 37.9271 17.0626 38.375 17.4167 38.75V27.7917C17.4167 26.9629 17.746 26.168 18.332 25.5819C18.9181 24.9959 19.7129 24.6667 20.5417 24.6667C21.3705 24.6667 22.1654 24.9959 22.7514 25.5819C23.3375 26.168 23.6667 26.9629 23.6667 27.7917V35.2812L30.0834 36.6146C31.2066 36.7876 32.2296 37.3602 32.9645 38.2271C33.6994 39.094 34.0967 40.1969 34.0834 41.3333V46.5417C34.0414 47.2784 33.8196 47.9937 33.4376 48.625C33.2326 48.9399 33.0976 49.2951 33.0417 49.6667V52.7917ZM19.5001 50.7083H30.9584V49.6667C30.9991 48.9653 31.2139 48.2851 31.5834 47.6875C31.8089 47.3429 31.9515 46.9507 32.0001 46.5417V41.3333C31.9992 40.6797 31.7628 40.0483 31.3343 39.5547C30.9058 39.0611 30.3138 38.7385 29.6667 38.6458L21.5834 36.9792V27.7917C21.5834 27.5154 21.4737 27.2504 21.2783 27.0551C21.083 26.8597 20.818 26.75 20.5417 26.75C20.2696 26.7627 20.0119 26.8765 19.8192 27.0692C19.6266 27.2618 19.5128 27.5195 19.5001 27.7917V41.3333H17.0105L16.7084 41.0104C16.7084 41.0104 15.7501 39.9687 14.698 38.9271C14.6099 38.8606 14.5076 38.8157 14.3991 38.7958C14.2906 38.7759 14.1789 38.7816 14.073 38.8125C13.8071 38.8674 13.5597 38.9893 13.3542 39.1667L15.2292 42.9271C15.3855 43.25 15.5417 43.6042 15.7188 43.9687C16.4125 45.8473 17.5784 47.5155 19.1042 48.8125L19.5001 49.125V50.7083Z" fill="#404040"/>
<path d="M34.0833 55.9167H32V52.7917H18.4583V55.9167H16.375V50.7083H34.0833V55.9167Z" fill="#404040"/>
<path d="M55.9583 41.3333H35.125V39.25H54.9167V10.0833H9.08333V39.25H10.125V41.3333H8.04167C7.7654 41.3333 7.50043 41.2236 7.30508 41.0282C7.10973 40.8329 7 40.5679 7 40.2917V9.04167C7 8.7654 7.10973 8.50045 7.30508 8.3051C7.50043 8.10975 7.7654 8 8.04167 8H55.9583C56.2346 8 56.4995 8.10975 56.6949 8.3051C56.8902 8.50045 57 8.7654 57 9.04167V40.2917C57 40.5679 56.8902 40.8329 56.6949 41.0282C56.4995 41.2236 56.2346 41.3333 55.9583 41.3333Z" fill="#404040"/>
<path d="M27.8332 31.9583C27.6552 31.9609 27.4794 31.9179 27.3228 31.8333C27.1603 31.742 27.0254 31.6088 26.9319 31.4476C26.8385 31.2863 26.79 31.103 26.7915 30.9166V18.4166C26.7923 18.2321 26.8421 18.0511 26.9358 17.8921C27.0295 17.7331 27.1637 17.6019 27.3248 17.5118C27.4858 17.4217 27.6679 17.3761 27.8524 17.3795C28.0369 17.3829 28.2172 17.4353 28.3749 17.5312L38.7915 23.7812C38.9446 23.8741 39.0711 24.0048 39.159 24.1608C39.2468 24.3168 39.293 24.4928 39.293 24.6718C39.293 24.8509 39.2468 25.0269 39.159 25.1829C39.0711 25.3389 38.9446 25.4696 38.7915 25.5625L28.3749 31.8125C28.211 31.9097 28.0237 31.9601 27.8332 31.9583ZM28.8749 20.2604V29.0833L36.229 24.6666L28.8749 20.2604Z" fill="#FA4616"/>
</svg>
