<svg width="64" height="64" viewBox="0 0 64 64" fill="none" xmlns="http://www.w3.org/2000/svg">
<path d="M18.4868 47.3724C18.3403 47.3702 18.1958 47.3377 18.0624 47.2769C17.8052 47.1645 17.603 46.9546 17.5001 46.6934L7.08178 20.2338C7.0278 20.1044 7 19.9655 7 19.8253C7 19.6851 7.0278 19.5463 7.08178 19.4169C7.1988 19.1628 7.40709 18.9621 7.66528 18.8546L35.0479 8.0755C35.1775 8.02382 35.316 7.9982 35.4554 8.0001C35.5949 8.00199 35.7326 8.03138 35.8607 8.08656C35.9888 8.14174 36.1048 8.22164 36.202 8.32169C36.2992 8.42174 36.3757 8.53997 36.4271 8.66962L46.8455 35.1399C46.8972 35.2694 46.9228 35.4079 46.9209 35.5474C46.919 35.6868 46.8896 35.8246 46.8344 35.9527C46.7792 36.0808 46.6993 36.1967 46.5993 36.2939C46.4992 36.3911 46.381 36.4676 46.2514 36.5191L18.8687 47.2981C18.7461 47.343 18.6172 47.368 18.4868 47.3724ZM9.44767 20.4354L19.0915 44.9322L44.4902 34.9277L34.8464 10.4308L9.44767 20.4354Z" fill="#404040"/>
<path d="M47.4398 48.2424C47.3055 48.2427 47.1723 48.2175 47.0473 48.1681L35.812 43.744L36.5865 41.7707L46.8457 45.8023L54.5587 26.2387L43.0794 21.7191L43.8645 19.7352L56.3304 24.6473C56.4601 24.6987 56.5783 24.7752 56.6784 24.8724C56.7784 24.9696 56.8583 25.0856 56.9135 25.2137C56.9687 25.3418 56.9981 25.4795 57 25.619C57.0019 25.7585 56.9762 25.8969 56.9246 26.0265L48.4371 47.574C48.3343 47.8352 48.1321 48.0451 47.8748 48.1575C47.7366 48.2133 47.5889 48.2421 47.4398 48.2424V48.2424Z" fill="#404040"/>
<path d="M36.2257 56.9208C36.1376 56.9319 36.0485 56.9319 35.9604 56.9208L8.47172 49.9186C8.33645 49.884 8.20935 49.823 8.0977 49.7392C7.98605 49.6554 7.89204 49.5503 7.82107 49.43C7.75011 49.3098 7.70358 49.1767 7.68415 49.0385C7.66472 48.9002 7.67277 48.7594 7.70785 48.6243L10.7527 36.6146L12.8109 37.1344L9.99947 48.1044L35.4618 54.5761L37.3503 47.1496L39.4085 47.6695L37.2866 56.1569C37.2529 56.2934 37.1924 56.4219 37.1086 56.5348C37.0249 56.6477 36.9195 56.7429 36.7986 56.8147C36.6203 56.8998 36.4227 56.9364 36.2257 56.9208V56.9208Z" fill="#404040"/>
<path d="M24.3112 31.1932H24.1309C23.9513 31.1621 23.7828 31.0852 23.6416 30.97C23.5003 30.8548 23.3912 30.7051 23.3246 30.5354L19.4416 20.6582C19.3685 20.485 19.3428 20.2955 19.367 20.109C19.3912 19.9226 19.4646 19.746 19.5795 19.5972C19.6875 19.4517 19.8311 19.3364 19.9964 19.2621C20.1616 19.1878 20.3432 19.1571 20.5237 19.1729L32.3425 20.2338C32.5384 20.2516 32.7255 20.3236 32.8829 20.4416C33.0402 20.5596 33.1617 20.7191 33.2337 20.9022C33.2981 21.0809 33.3134 21.2736 33.278 21.4602C33.2425 21.6468 33.1576 21.8205 33.0321 21.9631L25.1069 30.7794C25.0126 30.9023 24.8924 31.0031 24.755 31.0745C24.6175 31.146 24.466 31.1865 24.3112 31.1932V31.1932ZM22.0409 21.4751L24.672 28.1483L30.0403 22.1859L22.0409 21.4751Z" fill="#FA4616"/>
<path d="M23.5043 33.8841L21.5298 34.6611L23.8607 40.5846L25.8352 39.8076L23.5043 33.8841Z" fill="#FA4616"/>
<path d="M40.0812 29.6328L25.5391 35.3552L26.316 37.3297L40.8582 31.6073L40.0812 29.6328Z" fill="#FA4616"/>
<path d="M23.302 36.2344L19.353 37.7884L20.13 39.7629L24.079 38.2089L23.302 36.2344Z" fill="#FA4616"/>
</svg>
