<svg width="64" height="64" viewBox="0 0 64 64" fill="none" xmlns="http://www.w3.org/2000/svg">
<path d="M47.8585 44.4597L47.3169 42.4495L51.0769 41.408C50.4833 40.2727 50.3583 39.7832 50.4937 39.3249C50.6707 38.6895 51.1915 38.4291 51.7435 38.1479C52.0143 38.0125 52.3581 37.8354 52.7851 37.5646C52.9309 37.4813 53.1809 37.3043 53.2225 37.1168C53.2419 36.8986 53.1745 36.6816 53.0351 36.5127C52.9413 36.3564 52.733 36.0752 52.4622 35.6899C50.2854 32.6589 49.0042 30.6904 48.9313 29.5551C48.9324 29.0981 48.992 28.643 49.1084 28.2011C49.5037 26.5861 49.5357 24.9034 49.2022 23.2745C48.5622 20.4081 47.1761 17.7618 45.1843 15.6035C43.1924 13.4452 40.6656 11.8516 37.8596 10.9842L38.4637 8.99484C41.6409 9.97052 44.5016 11.7733 46.7527 14.2184C49.0039 16.6635 50.5645 19.6632 51.2748 22.91C51.6658 24.8206 51.6338 26.7936 51.1811 28.6906C51.1147 28.9504 51.0694 29.2151 51.0457 29.4822C51.1082 30.0238 52.1602 31.7319 54.1704 34.5441C54.4724 34.9607 54.7016 35.2732 54.8057 35.4399C55.0318 35.7578 55.1901 36.1187 55.2708 36.5004C55.3514 36.8821 55.3526 37.2762 55.2744 37.6583C55.1758 38.0336 54.9998 38.3841 54.7576 38.6872C54.5154 38.9904 54.2125 39.2395 53.8683 39.4186C53.3684 39.7206 52.983 39.9185 52.6809 40.0643C52.7643 40.2414 52.8893 40.481 53.0559 40.8039C53.198 41.0705 53.2719 41.368 53.2712 41.6701C53.2705 41.9722 53.1951 42.2694 53.0519 42.5353C52.9086 42.8012 52.7019 43.0277 52.45 43.1944C52.1981 43.3611 51.9089 43.4631 51.6081 43.4911L47.8585 44.4597Z" fill="#404040"/>
<path d="M38.1824 56.4167L36.1514 55.9377C36.7346 53.5108 38.047 50.4174 39.8072 49.6883L40.5988 51.6152C40.0155 51.8652 38.849 53.667 38.1824 56.4167Z" fill="#404040"/>
<path d="M46.0879 52.4484C43.15 52.2713 40.2405 51.7719 37.4117 50.959C36.0994 50.5424 35.4536 48.6884 34.4642 45.8762L34.0996 44.8347L36.0681 44.1368L36.4327 45.1784C36.9535 46.6574 37.6617 48.6884 38.0992 48.9905C40.0885 49.6154 45.89 50.782 47.4211 50.1987C48.4626 49.8133 48.4626 49.1571 48.4626 48.251C48.4626 48.0948 48.4626 47.9593 48.4626 47.8552C48.5227 47.133 48.815 46.4497 49.2959 45.9075C49.4923 45.6965 49.6383 45.4436 49.7229 45.168L51.7435 45.6679C51.5956 46.2209 51.3251 46.7336 50.9519 47.1677C50.7337 47.3843 50.5912 47.6656 50.5457 47.9697C50.5413 48.0391 50.5413 48.1087 50.5457 48.1781C50.6593 49.0122 50.4849 49.8602 50.0512 50.5818C49.6175 51.3033 48.9505 51.8553 48.1606 52.1464C47.4932 52.3698 46.7913 52.472 46.0879 52.4484V52.4484Z" fill="#404040"/>
<path d="M28.8398 34.0858H26.7567V20.5457H23.632C23.4443 20.5472 23.2597 20.498 23.0976 20.4033C22.9356 20.3086 22.8021 20.1718 22.7114 20.0074C22.6207 19.8431 22.5762 19.6573 22.5824 19.4697C22.5886 19.2821 22.6454 19.0996 22.7467 18.9417L30.0376 7.48457C30.1315 7.33614 30.2615 7.21387 30.4154 7.12915C30.5692 7.04442 30.742 7 30.9177 7C31.0934 7 31.2662 7.04442 31.4201 7.12915C31.5739 7.21387 31.7039 7.33614 31.7978 7.48457L39.0887 18.9417C39.1896 19.0989 39.2463 19.2804 39.2529 19.4671C39.2596 19.6538 39.2159 19.8388 39.1264 20.0029C39.037 20.1669 38.905 20.3038 38.7445 20.3993C38.5839 20.4948 38.4006 20.5454 38.2138 20.5457H35.0891V27.8365H33.006V19.5041C33.006 19.2279 33.1157 18.9629 33.3111 18.7676C33.5064 18.5723 33.7713 18.4626 34.0476 18.4626H36.3077L30.9229 9.98429L25.5277 18.4626H27.7983C28.0745 18.4626 28.3394 18.5723 28.5347 18.7676C28.7301 18.9629 28.8398 19.2279 28.8398 19.5041V34.0858Z" fill="#FA4616"/>
<path d="M14.258 40.3351H12.1749V29.9196H9.05026C8.86256 29.9212 8.6779 29.872 8.51585 29.7773C8.3538 29.6825 8.22036 29.5458 8.12965 29.3814C8.03894 29.2171 7.99436 29.0313 8.00057 28.8437C8.00678 28.6561 8.06356 28.4736 8.16493 28.3156L15.4558 16.8586C15.5497 16.7101 15.6797 16.5878 15.8336 16.5031C15.9875 16.4184 16.1603 16.374 16.3359 16.374C16.5116 16.374 16.6844 16.4184 16.8383 16.5031C16.9921 16.5878 17.1221 16.7101 17.216 16.8586L24.5069 28.3156C24.6078 28.4729 24.6645 28.6544 24.6711 28.8411C24.6778 29.0278 24.6341 29.2128 24.5446 29.3768C24.4552 29.5408 24.3232 29.6778 24.1627 29.7733C24.0021 29.8688 23.8188 29.9193 23.632 29.9196H20.5073V34.0858H18.4242V28.8781C18.4242 28.6018 18.534 28.3369 18.7293 28.1416C18.9246 27.9463 19.1896 27.8365 19.4658 27.8365H21.7259L16.3411 19.3583L10.9459 27.8365H13.2165C13.4927 27.8365 13.7576 27.9463 13.9529 28.1416C14.1483 28.3369 14.258 28.6018 14.258 28.8781V40.3351Z" fill="#FA4616"/>
<path d="M27.7981 57H25.715V46.5845C25.715 46.3082 25.8247 46.0433 26.0201 45.848C26.2154 45.6527 26.4803 45.5429 26.7566 45.5429H29.0167L23.6319 37.0647L18.2366 45.5429H20.5072C20.7835 45.5429 21.0484 45.6527 21.2437 45.848C21.439 46.0433 21.5488 46.3082 21.5488 46.5845V50.7507H19.4657V47.626H16.341C16.1533 47.6276 15.9687 47.5784 15.8066 47.4837C15.6446 47.3889 15.5111 47.2522 15.4204 47.0878C15.3297 46.9235 15.2851 46.7377 15.2913 46.5501C15.2975 46.3625 15.3543 46.18 15.4557 46.022L22.7466 34.565C22.8405 34.4165 22.9705 34.2943 23.1244 34.2095C23.2782 34.1248 23.451 34.0804 23.6267 34.0804C23.8024 34.0804 23.9752 34.1248 24.129 34.2095C24.2829 34.2943 24.4129 34.4165 24.5068 34.565L31.7977 46.022C31.8986 46.1793 31.9553 46.3608 31.9619 46.5475C31.9686 46.7342 31.9249 46.9192 31.8354 47.0832C31.746 47.2473 31.614 47.3842 31.4534 47.4797C31.2929 47.5752 31.1096 47.6257 30.9228 47.626H27.7981V57Z" fill="#FA4616"/>
</svg>
