<svg width="64" height="64" viewBox="0 0 64 64" fill="none" xmlns="http://www.w3.org/2000/svg">
<path d="M44.831 49.0043H9.10173C8.54432 49.0043 8.00973 48.7829 7.61558 48.3887C7.22143 47.9946 7 47.46 7 46.9026V22.7328C7 22.1754 7.22143 21.6408 7.61558 21.2466C8.00973 20.8525 8.54432 20.6311 9.10173 20.6311H30.119V22.7328H9.10173V46.9026H44.831V26.9362H46.9327V46.9026C46.9327 47.46 46.7113 47.9946 46.3171 48.3887C45.923 48.7829 45.3884 49.0043 44.831 49.0043Z" fill="#404040"/>
<path d="M23.8139 50.0551H21.7122V54.2586H23.8139V50.0551Z" fill="#404040"/>
<path d="M32.2209 50.0551H30.1191V54.2586H32.2209V50.0551Z" fill="#404040"/>
<path d="M36.424 53.2077H17.5085V55.3094H36.424V53.2077Z" fill="#404040"/>
<path d="M40.5537 21.6819C39.8276 21.6939 39.1155 21.481 38.5151 21.0724L26.3776 12.1296C25.9879 11.8477 25.6979 11.4492 25.5493 10.9918C25.4007 10.5343 25.4012 10.0414 25.5509 9.58432C25.7005 9.1272 25.9915 8.72944 26.3819 8.44841C26.7722 8.16738 27.2417 8.01763 27.7227 8.02073H42.8236C43.5304 7.93624 44.2439 8.1118 44.8308 8.51464L55.9489 16.9215C56.4438 17.2988 56.7914 17.8371 56.9314 18.4435C57.0715 19.0499 56.9953 19.6861 56.716 20.2422L55.9909 21.6924H53.2377V19.5907H54.6878L54.8455 19.2965C54.9011 19.1791 54.9147 19.0462 54.8841 18.92C54.8535 18.7937 54.7805 18.6818 54.6773 18.6029L43.5487 10.196C43.3372 10.1181 43.1091 10.0963 42.8867 10.1329H27.7227C27.6908 10.1349 27.6598 10.1446 27.6324 10.161C27.605 10.1775 27.5819 10.2003 27.5651 10.2275C27.5488 10.265 27.5451 10.3068 27.5546 10.3466C27.5641 10.3864 27.5862 10.4221 27.6176 10.4482L39.7866 19.4015C40.0361 19.5419 40.3206 19.6076 40.6063 19.5907H51.1149V21.6924H40.5537V21.6819Z" fill="#FA4616"/>
<path d="M52.1869 31.1396H50.0852V22.7328C50.1211 21.9262 49.9123 21.1276 49.4862 20.4419L41.6047 14.7147L42.8447 13.0123L50.6947 18.729C51.7455 19.4226 52.1764 21.2931 52.1764 22.7328L52.1869 31.1396Z" fill="#FA4616"/>
<path d="M43.013 28.6176C40.9602 28.5612 38.9288 28.1854 36.9916 27.5037C35.028 26.8876 33.1708 25.9732 31.4851 24.7925C29.3308 23.1741 29.1942 21.8605 29.4674 21.0409L31.3905 15.2611L33.3872 15.9232L31.4641 21.7134C31.4641 22.1863 33.3241 24.0779 37.6537 25.5176C41.9832 26.9572 44.5999 26.5684 44.9046 26.1375L46.8172 20.3788L48.8138 21.0409L46.8592 26.8311C46.586 27.6403 45.7033 28.6176 43.0025 28.6176H43.013Z" fill="#FA4616"/>
</svg>
