<svg width="64" height="64" viewBox="0 0 64 64" fill="none" xmlns="http://www.w3.org/2000/svg">
<path d="M53.574 31.587H22.8667V33.7048H53.574V31.587Z" fill="#404040"/>
<path d="M19.69 48.529H17.5723V53.8234H19.69V48.529Z" fill="#404040"/>
<path d="M32.5341 56.4388L26.4773 45.3524H19.6476C17.6818 45.3524 15.7965 44.5715 14.4064 43.1814C13.0164 41.7914 12.2355 39.9061 12.2355 37.9403V26.2927C12.2355 24.8885 12.7933 23.5419 13.7862 22.549C14.779 21.5561 16.1257 20.9983 17.5298 20.9983H21.7653C21.9201 20.9967 22.0732 21.0291 22.2141 21.0931C22.355 21.1572 22.4801 21.2513 22.5807 21.3689L27.5574 27.3515H34.4718C34.7272 27.3486 34.975 27.4382 35.1696 27.6036C35.3641 27.7689 35.4924 27.9991 35.5307 28.2516C35.6176 28.9271 35.5688 29.6133 35.3869 30.2697C35.2051 30.9261 34.894 31.5396 34.4718 32.0741C33.9309 32.6429 33.2702 33.0843 32.5377 33.3663C31.8051 33.6483 31.019 33.7639 30.2363 33.7048H23.8831C23.6038 33.7008 23.3374 33.5866 23.1419 33.3871L18.9064 29.1516L20.3994 27.6586L24.3278 31.587H30.2363C30.7071 31.6311 31.1818 31.5746 31.6291 31.4213C32.0763 31.2679 32.4859 31.0212 32.8306 30.6976C33.1236 30.3454 33.3174 29.9214 33.3918 29.4693H27.0385C26.8847 29.468 26.7331 29.4332 26.5941 29.3674C26.4552 29.3016 26.3322 29.2062 26.2338 29.0881L21.2571 23.116H17.5298C16.6873 23.116 15.8794 23.4507 15.2836 24.0464C14.6879 24.6422 14.3532 25.4502 14.3532 26.2927V37.9403C14.3532 39.3444 14.911 40.6911 15.9039 41.6839C16.8968 42.6768 18.2434 43.2346 19.6476 43.2346H27.0597C27.2502 43.2341 27.4373 43.285 27.6013 43.3819C27.7653 43.4788 27.9001 43.6181 27.9915 43.7852L34.3448 55.4328L32.5341 56.4388Z" fill="#404040"/>
<path d="M37.2674 56.2694L32.1531 40.7569C31.86 39.9326 31.3189 39.2194 30.6041 38.715C29.8893 38.2107 29.0359 37.94 28.1611 37.9403H22.8667C22.5859 37.9403 22.3166 37.8287 22.118 37.6301C21.9194 37.4316 21.8079 37.1622 21.8079 36.8814V30.5282H23.9256V35.8225H28.1611C29.4773 35.8197 30.7619 36.2256 31.8374 36.9844C32.9129 37.7431 33.7262 38.8171 34.1649 40.058L39.2793 55.5917L37.2674 56.2694Z" fill="#404040"/>
<path d="M24.942 49.5879H17.5299C15.0024 49.5879 12.5784 48.5838 10.7912 46.7966C9.00404 45.0095 8 42.5855 8 40.058V24.1749H10.1177V40.058C10.1177 42.0238 10.8987 43.9091 12.2887 45.2992C13.6787 46.6892 15.564 47.4701 17.5299 47.4701H24.942V49.5879Z" fill="#404040"/>
<path d="M24.942 57H20.7065C20.4272 56.996 20.1608 56.8819 19.9653 56.6824L18.5887 55.3164L17.2228 56.6824C17.1247 56.7824 17.0078 56.862 16.8787 56.9165C16.7497 56.971 16.6111 56.9994 16.471 57H12.2355V54.8823H16.0368L17.8475 53.0716C18.0459 52.8744 18.3143 52.7637 18.594 52.7637C18.8738 52.7637 19.1421 52.8744 19.3405 53.0716L21.1512 54.8823H24.942V57Z" fill="#404040"/>
<path d="M19.1605 19.9394C17.6465 19.965 16.184 19.3901 15.0927 18.3405C14.0014 17.2908 13.37 15.8518 13.3367 14.338V12.8238C13.3367 11.2792 13.9502 9.79791 15.0424 8.70574C16.1346 7.61357 17.6159 7 19.1605 7C20.705 7 22.1864 7.61357 23.2785 8.70574C24.3707 9.79791 24.9843 11.2792 24.9843 12.8238V14.338C24.9537 15.8527 24.3232 17.2934 23.2313 18.3436C22.1393 19.3938 20.6752 19.9678 19.1605 19.9394V19.9394ZM19.1605 9.3507C18.2091 9.32213 17.2851 9.67147 16.5906 10.3223C15.8961 10.9732 15.4876 11.8726 15.4544 12.8238V14.338C15.4876 15.2901 15.8957 16.1906 16.5899 16.8431C17.2841 17.4957 18.2081 17.8474 19.1605 17.8217C19.6338 17.8415 20.1064 17.7666 20.5504 17.6013C20.9945 17.4361 21.401 17.1838 21.7462 16.8593C22.0914 16.5348 22.3683 16.1446 22.5607 15.7117C22.7531 15.2787 22.8571 14.8117 22.8665 14.338V12.8238C22.8334 11.8726 22.4249 10.9732 21.7304 10.3223C21.0358 9.67147 20.1118 9.32213 19.1605 9.3507Z" fill="#404040"/>
<path d="M49.5505 30.5282H37.6487V28.4104H48.7987L53.0342 17.8217H36.2934L33.1697 25.6256L31.2002 24.8314L34.5886 16.3605C34.6687 16.1654 34.8052 15.9987 34.9807 15.8818C35.1561 15.7648 35.3625 15.7029 35.5733 15.704H54.6331C54.806 15.7038 54.9764 15.746 55.1293 15.8269C55.2823 15.9078 55.413 16.025 55.5102 16.1681C55.6073 16.3112 55.6679 16.476 55.6867 16.648C55.7055 16.82 55.6818 16.9939 55.6178 17.1546L50.5352 29.8611C50.4568 30.0581 50.3209 30.227 50.1454 30.346C49.9698 30.4649 49.7625 30.5284 49.5505 30.5282Z" fill="#FA4616"/>
</svg>
