<svg width="64" height="64" viewBox="0 0 64 64" fill="none" xmlns="http://www.w3.org/2000/svg">
<path d="M37.2083 50.6667H12.2083C10.827 50.6667 9.50223 50.1179 8.52548 49.1412C7.54873 48.1644 7 46.8397 7 45.4583V14.2083C7 12.827 7.54873 11.5022 8.52548 10.5255C9.50223 9.54875 10.827 9 12.2083 9H51.7917C53.173 9 54.4978 9.54875 55.4745 10.5255C56.4513 11.5022 57 12.827 57 14.2083V31.9167H54.9167V14.2083C54.9167 13.3795 54.5874 12.5847 54.0014 11.9986C53.4153 11.4126 52.6205 11.0833 51.7917 11.0833H12.2083C11.3795 11.0833 10.5847 11.4126 9.99862 11.9986C9.41257 12.5847 9.08333 13.3795 9.08333 14.2083V45.4583C9.08333 46.2871 9.41257 47.082 9.99862 47.668C10.5847 48.2541 11.3795 48.5833 12.2083 48.5833H37.2083V50.6667Z" fill="#404040"/>
<path d="M36.1667 46.5H13.25V13.1667H19.0729L20.1146 12.125H25.1458L26.1771 13.1667H51.7917V30.875H49.7083V15.25H25.3229L24.2812 14.2083H20.9688L19.9375 15.25H15.3333V44.4167H36.1667V46.5Z" fill="#404040"/>
<path d="M26.7916 27.6042L22.6249 24.8333L18.4583 27.6042V14.2083H20.5416V23.7188L22.6249 22.3229L24.7083 23.7188V14.2083H26.7916V27.6042Z" fill="#404040"/>
<path d="M12.2083 27.75H10.125V31.9167H12.2083V27.75Z" fill="#404040"/>
<path d="M55.9583 50.6667H40.3333V46.9896C38.7366 45.5218 37.5028 43.7032 36.7291 41.6771C36.5728 41.3333 36.427 41.0104 36.2812 40.7083L34.0833 36.3229V36.0833C34.1257 35.5649 34.3218 35.0709 34.6466 34.6645C34.9713 34.2581 35.4099 33.9579 35.9062 33.8021C36.4215 33.5502 37.0004 33.4583 37.5685 33.5381C38.1365 33.618 38.6677 33.8659 39.0937 34.25C39.552 34.7083 39.9999 35.1563 40.3541 35.5313V24.625C40.3541 23.7962 40.6833 23.0013 41.2694 22.4153C41.8554 21.8292 42.6503 21.5 43.4791 21.5V21.5C44.2988 21.5137 45.0804 21.8489 45.6552 22.4335C46.23 23.0181 46.5521 23.8051 46.552 24.625V32.1042L52.9687 33.4375C54.0927 33.6128 55.1159 34.1875 55.8506 35.0561C56.5853 35.9247 56.9823 37.0291 56.9687 38.1667V43.375C56.9235 44.1126 56.6982 44.828 56.3124 45.4583C56.1093 45.7732 55.9778 46.1288 55.927 46.5L55.9583 50.6667ZM42.4166 48.5833H53.8749V46.5C53.9143 45.7951 54.1292 45.1112 54.4999 44.5104C54.7236 44.1687 54.8661 43.7803 54.9166 43.375V38.1667C54.9156 37.5103 54.6782 36.8762 54.2477 36.3807C53.8173 35.8852 53.2226 35.5614 52.5728 35.4688L44.4895 33.8021V24.625C44.4895 24.3487 44.3798 24.0838 44.1844 23.8884C43.9891 23.6931 43.7241 23.5833 43.4478 23.5833C43.1716 23.5833 42.9066 23.6931 42.7113 23.8884C42.5159 24.0838 42.4062 24.3487 42.4062 24.625V38.1667H39.9166L39.6145 37.8333C39.6145 37.8333 38.6562 36.7917 37.5937 35.75C37.508 35.6829 37.4074 35.6375 37.3004 35.6175C37.1934 35.5976 37.0832 35.6037 36.9791 35.6354C36.711 35.6929 36.4608 35.8144 36.2499 35.9896L38.1353 39.75C38.2916 40.0625 38.4478 40.4167 38.6145 40.7917C39.3124 42.6707 40.4818 44.3387 42.0103 45.6354L42.4062 45.9479L42.4166 48.5833Z" fill="#FA4616"/>
<path d="M57 55.875H38.25V48.5833H57V55.875ZM40.3333 53.7917H54.9167V50.6667H40.3333V53.7917Z" fill="#FA4616"/>
</svg>
