<svg width="64" height="64" viewBox="0 0 64 64" fill="none" xmlns="http://www.w3.org/2000/svg">
<path d="M31.2613 29.7655C30.7934 29.7635 30.3291 29.6826 29.8881 29.5262L14.3554 23.9603L15.0628 21.994L30.5851 27.5703C31.0234 27.7209 31.4993 27.7209 31.9376 27.5703L54.8256 20.1421V18.5296L32.3121 11.247C31.7561 11.0544 31.1515 11.0544 30.5955 11.247L9.04952 18.5296V20.1317L11.7545 20.9224L11.1615 22.9199L7 21.6819V17.0418L29.9505 9.2703C30.9596 8.9099 32.0624 8.9099 33.0716 9.2703L57 17.021V21.6506L32.7179 29.5471C32.2492 29.7059 31.756 29.7798 31.2613 29.7655V29.7655Z" fill="#404040"/>
<path d="M14.2305 38.567H12.1498V26.0826C12.1498 23.18 13.5751 22.1604 14.7611 21.8275L30.5643 16.7817L31.1573 18.7584L15.3229 23.8146C14.938 23.9291 14.1889 24.1371 14.1889 26.0826L14.2305 38.567Z" fill="#404040"/>
<path d="M31.9167 39.6074C25.196 39.6074 18.392 37.8283 18.392 34.4055V25.0422H20.4727V34.4055C20.4727 35.4459 24.5197 37.5266 31.9167 37.5266C33.2691 37.5308 34.6205 37.4544 35.9638 37.2977L36.203 39.3785C34.7797 39.5351 33.3487 39.6115 31.9167 39.6074Z" fill="#404040"/>
<path d="M45.4415 25.0422H43.3607V31.2844H45.4415V25.0422Z" fill="#404040"/>
<path d="M48.906 54.1725C48.7348 54.1706 48.5642 54.1532 48.3962 54.1205C48.1273 54.0606 47.8729 53.9479 47.6479 53.789C47.4229 53.63 47.2317 53.428 47.0853 53.1946L43.8602 47.5038L40.8119 50.448C40.5936 50.6811 40.3108 50.8442 39.9997 50.9164C39.6885 50.9886 39.3629 50.9668 39.0641 50.8537C38.785 50.7292 38.5495 50.5239 38.3882 50.2643C38.2269 50.0047 38.147 49.7026 38.159 49.3972V31.711C38.1596 31.5188 38.2134 31.3307 38.3144 31.1672C38.4154 31.0038 38.5596 30.8715 38.7312 30.7851C38.8966 30.7061 39.0799 30.6722 39.2626 30.6868C39.4453 30.7014 39.6209 30.764 39.7716 30.8683L54.0974 41.2719C54.3955 41.5174 54.6083 41.8508 54.7054 42.2245C54.8026 42.5983 54.7791 42.9931 54.6384 43.3527C54.552 43.7447 54.3412 44.0983 54.0375 44.3607C53.7338 44.6232 53.3534 44.7805 52.953 44.8092H49.8839L52.7033 49.7197C52.9786 50.2436 53.0402 50.8537 52.8754 51.422C52.7105 51.9904 52.3319 52.4728 51.819 52.768L50.196 53.8084C49.8064 54.0432 49.3609 54.1689 48.906 54.1725V54.1725ZM44.0995 44.8092H44.2555C44.4117 44.8333 44.5603 44.8927 44.6901 44.9829C44.8199 45.073 44.9275 45.1915 45.0046 45.3294L48.8436 52.1542C48.8436 52.1542 48.9476 52.1542 49.0933 52.0502L50.7058 51.0098C50.7584 50.9857 50.8036 50.9478 50.8365 50.9002C50.8695 50.8526 50.889 50.7971 50.8931 50.7393L47.179 44.289C47.0877 44.1309 47.0396 43.9515 47.0396 43.7688C47.0396 43.5862 47.0877 43.4068 47.179 43.2487C47.2706 43.0899 47.4026 42.9582 47.5616 42.8668C47.7205 42.7755 47.9008 42.7277 48.0841 42.7285H52.5577L40.1981 33.7501V48.0967L43.3192 45.0693C43.4222 44.9696 43.5447 44.8923 43.6789 44.8422C43.8132 44.792 43.9564 44.7702 44.0995 44.778V44.8092Z" fill="#FA4616"/>
</svg>
