<svg width="64" height="64" viewBox="0 0 64 64" fill="none" xmlns="http://www.w3.org/2000/svg">
<path d="M12.2061 46.4431H10.1237V19.3711C10.1237 18.5426 10.4528 17.7481 11.0386 17.1623C11.6244 16.5765 12.4189 16.2474 13.2474 16.2474H27.8246V18.3299H13.2474C12.9712 18.3299 12.7064 18.4396 12.5111 18.6348C12.3158 18.8301 12.2061 19.0949 12.2061 19.3711V46.4431Z" fill="#404040"/>
<path d="M53.8554 30.8246H51.7729V46.4431H53.8554V30.8246Z" fill="#404040"/>
<path d="M51.773 53.7318H12.2062C10.8254 53.7318 9.50119 53.1833 8.52485 52.2069C7.5485 51.2306 7 49.9064 7 48.5256V45.4019H28.2516L30.334 47.4844H34.676L36.7584 45.4019H56.9792V48.5256C56.9792 49.9064 56.4307 51.2306 55.4543 52.2069C54.478 53.1833 53.1538 53.7318 51.773 53.7318V53.7318ZM9.08246 47.4844V48.5256C9.08246 49.3541 9.41157 50.1486 9.99737 50.7344C10.5832 51.3202 11.3777 51.6493 12.2062 51.6493H51.773C52.6015 51.6493 53.396 51.3202 53.9818 50.7344C54.5676 50.1486 54.8967 49.3541 54.8967 48.5256V47.4844H37.6227L35.5402 49.5668H29.4698L27.3873 47.4844H9.08246Z" fill="#404040"/>
<path d="M31.823 33.9483C31.5532 33.95 31.2864 33.892 31.0416 33.7786C30.7969 33.6652 30.5801 33.4992 30.4069 33.2924C30.1831 33.0371 30.036 32.7237 29.9826 32.3884C29.9292 32.0531 29.9716 31.7096 30.105 31.3973C30.6608 29.9951 31.0589 28.5353 31.292 27.045C29.7659 25.3728 28.9095 23.1968 28.8867 20.9329C28.8867 14.9042 35.1862 10 42.9434 10C50.7005 10 57 14.9042 57 20.9329C57 26.9617 50.6901 31.8659 42.9434 31.8659C41.497 31.8664 40.0561 31.688 38.6535 31.3349C36.677 32.533 34.5172 33.3983 32.2603 33.8963C32.1168 33.9291 31.9702 33.9465 31.823 33.9483V33.9483ZM42.9434 12.0825C36.3315 12.0825 30.9692 16.0496 30.9692 20.9329C31.0047 22.8395 31.786 24.6562 33.1454 25.9933L33.489 26.3474L33.4161 26.8472C33.1987 28.5299 32.79 30.1822 32.1978 31.7722C34.2209 31.2945 36.1472 30.4739 37.8934 29.3461L38.2891 29.0754L38.7472 29.2108C40.1041 29.5848 41.5046 29.7774 42.9121 29.7834C49.5135 29.7834 54.8863 25.8163 54.8863 20.9329C54.8863 16.0496 49.524 12.0825 42.9225 12.0825H42.9434Z" fill="#FA4616"/>
<path d="M29.9071 44.3607H27.8247V41.237C27.8247 40.6747 25.7422 39.1545 23.6597 39.1545C21.5773 39.1545 19.4948 40.6747 19.4948 41.237V44.3607H17.4124V41.237C17.4124 39.092 20.9213 37.072 23.6597 37.072C26.3982 37.072 29.9071 39.092 29.9071 41.237V44.3607Z" fill="#404040"/>
<path d="M23.6596 36.0308C22.6254 36.0801 21.6126 35.7252 20.8353 35.0412C20.058 34.3572 19.5773 33.3977 19.4946 32.3657V30.2832C19.4946 29.1786 19.9334 28.1192 20.7145 27.3382C21.4956 26.5571 22.555 26.1183 23.6596 26.1183C24.7642 26.1183 25.8235 26.5571 26.6046 27.3382C27.3857 28.1192 27.8245 29.1786 27.8245 30.2832V32.3657C27.7393 33.3968 27.2578 34.3547 26.4811 35.0382C25.7045 35.7216 24.6931 36.0774 23.6596 36.0308ZM23.6596 28.7422C22.6183 28.7422 21.5771 29.5127 21.5771 30.3249V32.4073C21.5771 33.2195 22.6183 33.99 23.6596 33.99C24.7008 33.99 25.742 33.2195 25.742 32.4073V30.3249C25.742 29.5127 24.7216 28.7422 23.6596 28.7422Z" fill="#404040"/>
</svg>
