<svg width="64" height="64" viewBox="0 0 64 64" fill="none" xmlns="http://www.w3.org/2000/svg">
<path d="M47.5001 29.9167H45.4167V9.08333H16.2501V24.7083H14.1667V8.04167C14.1667 7.7654 14.2765 7.50045 14.4719 7.3051C14.6672 7.10975 14.9321 7 15.2084 7H46.4584C46.7347 7 46.9996 7.10975 47.195 7.3051C47.3903 7.50045 47.5001 7.7654 47.5001 8.04167V29.9167Z" fill="#404040"/>
<path d="M27.7084 23.6667C27.5339 23.6676 27.362 23.6246 27.2084 23.5417C27.044 23.4517 26.9069 23.3191 26.8116 23.1578C26.7163 22.9965 26.6662 22.8124 26.6668 22.625V13.25C26.6671 13.0632 26.7176 12.8799 26.8131 12.7193C26.9087 12.5587 27.0456 12.4267 27.2096 12.3373C27.3736 12.2478 27.5587 12.2041 27.7454 12.2107C27.9321 12.2174 28.1137 12.2741 28.2709 12.375L35.5626 17.0625C35.7088 17.157 35.829 17.2865 35.9122 17.4394C35.9954 17.5922 36.039 17.7635 36.039 17.9375C36.039 18.1116 35.9954 18.2828 35.9122 18.4357C35.829 18.5885 35.7088 18.7181 35.5626 18.8125L28.2709 23.5C28.1033 23.6083 27.908 23.6662 27.7084 23.6667ZM28.7501 15.1563V20.7188L33.0834 17.9375L28.7501 15.1563Z" fill="#FA4616"/>
<path d="M48.5417 57H12.0833C11.5308 57 11.0009 56.7805 10.6102 56.3898C10.2195 55.9991 10 55.4692 10 54.9167V27.8333C10 27.2808 10.2195 26.7509 10.6102 26.3602C11.0009 25.9695 11.5308 25.75 12.0833 25.75H28.3229C28.8746 25.7523 29.4028 25.9734 29.7917 26.3646L34.3958 30.9583H48.5417C49.0942 30.9583 49.6241 31.1778 50.0148 31.5685C50.4055 31.9592 50.625 32.4891 50.625 33.0417V54.9167C50.625 55.4692 50.4055 55.9991 50.0148 56.3898C49.6241 56.7805 49.0942 57 48.5417 57ZM12.0833 27.8333V54.9167H48.5417V33.0417H34.3542C34.08 33.0433 33.8082 32.9907 33.5544 32.887C33.3005 32.7834 33.0697 32.6306 32.875 32.4375L28.2812 27.8333H12.0833Z" fill="#404040"/>
<path d="M54.7916 52.8333H52.7083V28.875H49.5833V26.7917H52.7083C53.2608 26.7917 53.7907 27.0111 54.1814 27.4018C54.5721 27.7925 54.7916 28.3225 54.7916 28.875V52.8333Z" fill="#404040"/>
</svg>
