<svg width="64" height="64" viewBox="0 0 64 64" fill="none" xmlns="http://www.w3.org/2000/svg">
<path d="M20.5417 42.2917C19.8325 42.2928 19.1305 42.149 18.4788 41.8692C17.8271 41.5895 17.2394 41.1795 16.7518 40.6645C16.2641 40.1496 15.8868 39.5404 15.6429 38.8745C15.399 38.2085 15.2937 37.4998 15.3334 36.7917V35.3021C15.3334 33.9207 15.8821 32.596 16.8589 31.6192C17.8356 30.6425 19.1604 30.0938 20.5417 30.0938C21.923 30.0938 23.2478 30.6425 24.2245 31.6192C25.2013 32.596 25.75 33.9207 25.75 35.3021V36.7917C25.7898 37.4998 25.6844 38.2085 25.4405 38.8745C25.1966 39.5404 24.8193 40.1496 24.3316 40.6645C23.844 41.1795 23.2563 41.5895 22.6046 41.8692C21.9529 42.149 21.2509 42.2928 20.5417 42.2917V42.2917ZM20.5417 31.875C20.107 31.8808 19.6781 31.9757 19.2815 32.1539C18.885 32.3321 18.5292 32.5898 18.2363 32.9111C17.9434 33.2323 17.7195 33.6103 17.5785 34.0216C17.4375 34.4329 17.3825 34.8687 17.4167 35.3021V36.7917C17.4167 37.6205 17.746 38.4153 18.332 39.0014C18.9181 39.5874 19.7129 39.9167 20.5417 39.9167C21.3705 39.9167 22.1654 39.5874 22.7514 39.0014C23.3375 38.4153 23.6667 37.6205 23.6667 36.7917V35.3021C23.709 34.867 23.6595 34.428 23.5215 34.0132C23.3835 33.5985 23.16 33.2173 22.8655 32.8944C22.571 32.5714 22.212 32.3138 21.8117 32.1382C21.4114 31.9626 20.9788 31.8729 20.5417 31.875V31.875Z" fill="#404040"/>
<path d="M11.177 54.7917C11.0163 54.7964 10.8568 54.7639 10.7108 54.6967C10.5649 54.6295 10.4364 54.5294 10.3356 54.4044C10.2347 54.2793 10.1641 54.1326 10.1294 53.9757C10.0946 53.8188 10.0967 53.656 10.1353 53.5L12.2186 45.1667C13.0207 41.875 14.7603 40.2083 17.427 40.2083H18.5728C19.0167 40.2048 19.4562 40.2959 19.8621 40.4755C20.268 40.6551 20.631 40.9191 20.9269 41.25L27.2603 48.5417H33.9686L34.0728 49.4688C34.2391 50.9208 33.8358 52.3808 32.9478 53.5417C32.5642 53.9584 32.0941 54.2861 31.5705 54.5021C31.0469 54.718 30.4824 54.8168 29.9165 54.7917H23.2499L17.7394 49.2812C17.6418 49.1844 17.5643 49.0692 17.5115 48.9423C17.4586 48.8153 17.4313 48.6792 17.4313 48.5417C17.4313 48.4042 17.4586 48.268 17.5115 48.1411C17.5643 48.0141 17.6418 47.8989 17.7394 47.8021C17.9346 47.6081 18.1986 47.4992 18.4738 47.4992C18.749 47.4992 19.013 47.6081 19.2082 47.8021L24.0936 52.7083H29.8957C30.1651 52.7292 30.4358 52.6916 30.6893 52.5981C30.9428 52.5046 31.1731 52.3575 31.3645 52.1667C31.7106 51.7229 31.9172 51.1863 31.9582 50.625H26.2915L19.3332 42.6458C19.2356 42.5347 19.1154 42.4457 18.9807 42.3846C18.846 42.3235 18.6998 42.2919 18.5519 42.2917H17.4061C16.3644 42.2917 14.979 42.6771 14.2811 45.6667L12.1978 54C12.1415 54.2276 12.0102 54.4295 11.8249 54.5732C11.6397 54.7168 11.4114 54.7938 11.177 54.7917V54.7917Z" fill="#404040"/>
<path d="M44.5002 51.6667H35.1252V49.5833H43.8856L49.0002 40.2083H32.6044L28.7398 46.9792L26.9377 45.9375L31.1044 38.6458C31.1953 38.4884 31.3258 38.3575 31.483 38.2661C31.6401 38.1747 31.8184 38.1261 32.0002 38.125H50.7502C50.9313 38.1245 51.1094 38.1712 51.2669 38.2605C51.4244 38.3498 51.5559 38.4787 51.6484 38.6343C51.741 38.7899 51.7913 38.967 51.7946 39.148C51.7978 39.3291 51.7538 39.5078 51.6669 39.6667L45.4169 51.125C45.327 51.2894 45.1943 51.4265 45.033 51.5218C44.8717 51.6171 44.6876 51.6672 44.5002 51.6667Z" fill="#404040"/>
<path d="M50.7499 54.7917H19.4999C19.2237 54.7917 18.9587 54.6819 18.7634 54.4866C18.568 54.2912 18.4583 54.0263 18.4583 53.75C18.4583 53.4737 18.568 53.2088 18.7634 53.0134C18.9587 52.8181 19.2237 52.7083 19.4999 52.7083H50.7499C51.0262 52.7083 51.2912 52.8181 51.4865 53.0134C51.6819 53.2088 51.7916 53.4737 51.7916 53.75C51.7916 54.0263 51.6819 54.2912 51.4865 54.4866C51.2912 54.6819 51.0262 54.7917 50.7499 54.7917Z" fill="#404040"/>
<path d="M55.9583 46.4583H51.6042C51.3279 46.4583 51.0629 46.3486 50.8676 46.1532C50.6722 45.9579 50.5625 45.6929 50.5625 45.4167C50.5625 45.1404 50.6722 44.8755 50.8676 44.6801C51.0629 44.4848 51.3279 44.375 51.6042 44.375H54.9167V12.0833H9.08333V44.375H10C10.2763 44.375 10.5412 44.4848 10.7366 44.6801C10.9319 44.8755 11.0417 45.1404 11.0417 45.4167C11.0417 45.6929 10.9319 45.9579 10.7366 46.1532C10.5412 46.3486 10.2763 46.4583 10 46.4583H8.04167C7.7654 46.4583 7.50046 46.3486 7.30511 46.1532C7.10976 45.9579 7 45.6929 7 45.4167V11.0417C7 10.7654 7.10976 10.5005 7.30511 10.3051C7.50046 10.1098 7.7654 10 8.04167 10H55.9583C56.2346 10 56.4996 10.1098 56.6949 10.3051C56.8903 10.5005 57 10.7654 57 11.0417V45.4167C57 45.6929 56.8903 45.9579 56.6949 46.1532C56.4996 46.3486 56.2346 46.4583 55.9583 46.4583Z" fill="#404040"/>
<path d="M29.3959 32.5833C29.2201 32.5839 29.0474 32.5371 28.8959 32.4479C28.7331 32.3588 28.597 32.2278 28.5018 32.0685C28.4065 31.9092 28.3556 31.7273 28.3543 31.5417V18.4479C28.3537 18.2605 28.4038 18.0765 28.4991 17.9151C28.5944 17.7538 28.7315 17.6212 28.8959 17.5313C29.0543 17.4398 29.2339 17.3917 29.4167 17.3917C29.5996 17.3917 29.7792 17.4398 29.9376 17.5313L40.3542 24.0833C40.5027 24.1773 40.625 24.3072 40.7097 24.4611C40.7944 24.615 40.8389 24.7879 40.8389 24.9635C40.8389 25.1392 40.7944 25.312 40.7097 25.4659C40.625 25.6198 40.5027 25.7498 40.3542 25.8437L29.9376 32.3854C29.7792 32.501 29.5915 32.5696 29.3959 32.5833V32.5833ZM30.4376 20.3333V29.6562L37.8542 24.9896L30.4376 20.3333Z" fill="#FA4616"/>
</svg>
