<svg width="64" height="64" viewBox="0 0 64 64" fill="none" xmlns="http://www.w3.org/2000/svg">
<path d="M51.625 52.8333H21.4166V54.9167H51.625V52.8333Z" fill="#404040"/>
<path d="M13.0833 57H11V47.625C11 46.2437 11.5487 44.9189 12.5255 43.9422C13.5022 42.9654 14.827 42.4167 16.2083 42.4167H20.375C20.5255 42.4167 20.6741 42.4492 20.8108 42.5122C20.9475 42.5751 21.0689 42.6669 21.1667 42.7813L26.0625 48.6667H32.875C33.1262 48.6638 33.37 48.7519 33.5614 48.9146C33.7528 49.0773 33.879 49.3037 33.9167 49.5521C34.08 50.894 33.7055 52.2459 32.875 53.3125C32.3428 53.872 31.6929 54.3063 30.9723 54.5837C30.2516 54.8612 29.4783 54.9749 28.7083 54.9167H22.4583C22.3205 54.9161 22.1842 54.8882 22.0572 54.8345C21.9303 54.7809 21.8152 54.7026 21.7188 54.6042L17.5521 50.4375L19.0208 48.9688L22.8854 52.8333H28.7083C29.1698 52.8765 29.6353 52.8209 30.0735 52.67C30.5118 52.5191 30.9129 52.2765 31.25 51.9583C31.5424 51.6144 31.7335 51.1961 31.8021 50.75H25.5521C25.3991 50.7502 25.2478 50.7168 25.1092 50.652C24.9706 50.5871 24.8479 50.4926 24.75 50.375L19.8542 44.5H16.2083C15.3795 44.5 14.5847 44.8292 13.9986 45.4153C13.4126 46.0013 13.0833 46.7962 13.0833 47.625V57Z" fill="#404040"/>
<path d="M22.4583 51.7917H20.375V57H22.4583V51.7917Z" fill="#404040"/>
<path d="M17.7708 41.375C16.2806 41.4029 14.8403 40.8383 13.7662 39.8051C12.692 38.7719 12.0717 37.3547 12.0416 35.8646V34.375C12.0416 32.8555 12.6452 31.3983 13.7197 30.3239C14.7941 29.2494 16.2513 28.6458 17.7708 28.6458C19.2903 28.6458 20.7475 29.2494 21.8219 30.3239C22.8964 31.3983 23.5 32.8555 23.5 34.375V35.8646C23.4671 37.3538 22.846 38.7694 21.7725 39.802C20.6989 40.8346 19.2601 41.4001 17.7708 41.375V41.375ZM17.7708 30.9583C16.8349 30.9302 15.9259 31.2739 15.2427 31.9142C14.5595 32.5544 14.1576 33.4392 14.125 34.375V35.8646C14.1343 36.3306 14.2365 36.79 14.4258 37.2159C14.6151 37.6419 14.8875 38.0257 15.2271 38.3449C15.5667 38.6641 15.9666 38.9123 16.4034 39.0749C16.8402 39.2375 17.3051 39.3112 17.7708 39.2917C18.7077 39.317 19.6166 38.971 20.2996 38.329C20.9825 37.6871 21.384 36.8013 21.4166 35.8646V34.375C21.384 33.4392 20.9821 32.5544 20.2989 31.9142C19.6157 31.2739 18.7067 30.9302 17.7708 30.9583V30.9583Z" fill="#404040"/>
<path d="M47.4584 51.7917H34.9584V49.7083H46.7605L51.1042 39.2917H34.6146L31.5417 46.9688L29.6146 46.1875L32.948 37.8542C33.0268 37.6623 33.1611 37.4983 33.3337 37.3833C33.5063 37.2682 33.7093 37.2073 33.9167 37.2083H52.6667C52.8373 37.2081 53.0054 37.2497 53.1562 37.3297C53.3069 37.4096 53.4357 37.5253 53.5313 37.6667C53.6264 37.8095 53.6847 37.9737 53.701 38.1445C53.7174 38.3153 53.6913 38.4875 53.625 38.6459L48.4167 51.1459C48.3386 51.3361 48.2059 51.4989 48.0353 51.6139C47.8648 51.7288 47.664 51.7907 47.4584 51.7917V51.7917Z" fill="#404040"/>
<path d="M43.2812 34.625C43.0031 34.6239 42.728 34.5671 42.4722 34.4579C42.2163 34.3488 41.9849 34.1896 41.7916 33.9896L34.8229 26.7917H18.2916C17.4628 26.7917 16.668 26.4624 16.0819 25.8764C15.4959 25.2903 15.1666 24.4955 15.1666 23.6667V10.125C15.1666 9.2962 15.4959 8.50132 16.0819 7.91527C16.668 7.32922 17.4628 7 18.2916 7H47.4583C48.2871 7 49.082 7.32922 49.668 7.91527C50.2541 8.50132 50.5833 9.2962 50.5833 10.125V23.6667C50.5833 24.4955 50.2541 25.2903 49.668 25.8764C49.082 26.4624 48.2871 26.7917 47.4583 26.7917H45.375V32.5417C45.3762 32.9577 45.2528 33.3646 45.0208 33.7099C44.7887 34.0552 44.4586 34.3232 44.0729 34.4792C43.8193 34.5727 43.5515 34.622 43.2812 34.625ZM18.2812 9.08333C18.0049 9.08333 17.74 9.19306 17.5446 9.38841C17.3493 9.58376 17.2395 9.84873 17.2395 10.125V23.6667C17.2395 23.9429 17.3493 24.2079 17.5446 24.4032C17.74 24.5986 18.0049 24.7083 18.2812 24.7083H35.2604C35.4 24.7075 35.5383 24.7348 35.6671 24.7884C35.7959 24.8421 35.9127 24.9211 36.0104 25.0208L43.302 32.5417V25.75C43.302 25.4737 43.4118 25.2088 43.6071 25.0134C43.8025 24.8181 44.0674 24.7083 44.3437 24.7083H47.4687C47.745 24.7083 48.0099 24.5986 48.2053 24.4032C48.4006 24.2079 48.5104 23.9429 48.5104 23.6667V10.125C48.5104 9.84873 48.4006 9.58376 48.2053 9.38841C48.0099 9.19306 47.745 9.08333 47.4687 9.08333H18.2812Z" fill="#FA4616"/>
<path d="M34.9584 17.4167H22.4584V19.5H34.9584V17.4167Z" fill="#FA4616"/>
<path d="M43.2917 13.25H22.4584V15.3333H43.2917V13.25Z" fill="#FA4616"/>
</svg>
