<svg width="64" height="64" viewBox="0 0 64 64" fill="none" xmlns="http://www.w3.org/2000/svg">
<path d="M15.6956 11H13.5217V52.3043H15.6956V11Z" fill="#404040"/>
<path d="M50.4784 11H48.3044V52.3043H50.4784V11Z" fill="#404040"/>
<path d="M9.17391 11H7V52.3043H9.17391V11Z" fill="#404040"/>
<path d="M57.0001 11H54.8262V52.3043H57.0001V11Z" fill="#404040"/>
<path d="M14.6087 14.2609H8.08691V16.4348H14.6087V14.2609Z" fill="#404040"/>
<path d="M14.6087 20.7826H8.08691V22.9565H14.6087V20.7826Z" fill="#404040"/>
<path d="M14.6087 27.3044H8.08691V29.4783H14.6087V27.3044Z" fill="#404040"/>
<path d="M14.6087 33.8261H8.08691V36H14.6087V33.8261Z" fill="#404040"/>
<path d="M14.6087 40.3478H8.08691V42.5217H14.6087V40.3478Z" fill="#404040"/>
<path d="M14.6087 46.8696H8.08691V49.0435H14.6087V46.8696Z" fill="#404040"/>
<path d="M55.9129 14.2609H49.3911V16.4348H55.9129V14.2609Z" fill="#404040"/>
<path d="M55.9129 20.7826H49.3911V22.9565H55.9129V20.7826Z" fill="#404040"/>
<path d="M55.9129 27.3044H49.3911V29.4783H55.9129V27.3044Z" fill="#404040"/>
<path d="M55.9129 33.8261H49.3911V36H55.9129V33.8261Z" fill="#404040"/>
<path d="M55.9129 40.3478H49.3911V42.5217H55.9129V40.3478Z" fill="#404040"/>
<path d="M55.9129 46.8696H49.3911V49.0435H55.9129V46.8696Z" fill="#404040"/>
<path d="M49.3913 17.5218H14.6086V19.6957H49.3913V17.5218Z" fill="#404040"/>
<path d="M49.3913 43.6087H14.6086V45.7826H49.3913V43.6087Z" fill="#404040"/>
<path d="M27.6522 39.2608C27.4757 39.2515 27.3041 39.1993 27.1523 39.1087C26.9844 39.0143 26.8445 38.877 26.7471 38.7108C26.6497 38.5447 26.5982 38.3556 26.5979 38.163V25.1195C26.5987 24.927 26.6507 24.7381 26.7484 24.5722C26.8462 24.4063 26.9863 24.2694 27.1543 24.1754C27.3224 24.0814 27.5124 24.0337 27.705 24.0373C27.8975 24.0409 28.0856 24.0955 28.2501 24.1956L39.1197 30.7174C39.2813 30.8146 39.4149 30.9521 39.5072 31.1166C39.5996 31.281 39.6476 31.4666 39.6465 31.6552C39.6454 31.8439 39.5953 32.0289 39.501 32.1923C39.4067 32.3556 39.2715 32.4916 39.1088 32.5869L28.2392 39.1087C28.062 39.214 27.8584 39.2668 27.6522 39.2608ZM28.7392 27.0543V36.2608L36.4131 31.6522L28.7392 27.0543Z" fill="#FA4616"/>
</svg>
