<svg width="64" height="64" viewBox="0 0 64 64" fill="none" xmlns="http://www.w3.org/2000/svg">
<path d="M45.4547 36.1012H18.3135V38.189H45.4547V36.1012Z" fill="#404040"/>
<path d="M32.9279 30.8818H30.8401V55.9352H32.9279V30.8818Z" fill="#404040"/>
<path d="M45.4547 44.4524H18.3135V46.5402H45.4547V44.4524Z" fill="#404040"/>
<path d="M31.8944 56.9791C27.2282 56.9791 23.5433 50.0998 23.5433 41.3207C23.4516 37.4118 24.3113 33.5391 26.0486 30.0362L27.8859 31.0801C26.3213 34.2774 25.548 37.8039 25.631 41.3625C25.631 49.4735 28.8567 54.9331 31.8944 54.9331C34.9321 54.9331 38.1578 49.4735 38.1578 41.3625C38.2425 37.8016 37.4729 34.2721 35.9134 31.0697L37.7402 30.078C39.4819 33.5793 40.3419 37.4531 40.2456 41.3625C40.2456 50.0999 36.5606 56.9791 31.8944 56.9791Z" fill="#404040"/>
<path d="M31.8946 56.9791C28.5973 56.9764 25.385 55.9329 22.7156 53.9973C20.0462 52.0618 18.056 49.3329 17.0286 46.1997C16.0012 43.0666 15.989 39.6891 16.9939 36.5487C17.9988 33.4083 19.9694 30.6652 22.6248 28.7105L23.867 30.3912C21.5658 32.0848 19.8579 34.4616 18.9866 37.1828C18.1154 39.9041 18.1253 42.8309 19.015 45.5462C19.9046 48.2614 21.6286 50.6266 23.9413 52.3046C26.254 53.9826 29.0373 54.8878 31.8946 54.8913C33.6838 54.8961 35.456 54.5451 37.1084 53.8587C38.7607 53.1723 40.26 52.1643 41.5193 50.8932C42.7782 49.6429 43.7756 48.1543 44.453 46.5144C45.1305 44.8744 45.4746 43.1159 45.4652 41.3416C45.4518 39.2118 44.9442 37.1142 43.9823 35.214C43.0204 33.3138 41.6306 31.6629 39.9221 30.3912L41.1643 28.7209C43.137 30.1832 44.7415 32.0853 45.8505 34.2761C46.9595 36.4669 47.5424 38.8861 47.553 41.3416C47.553 43.3979 47.1479 45.434 46.361 47.3338C45.5741 49.2336 44.4207 50.9598 42.9667 52.4138C41.5127 53.8678 39.7865 55.0212 37.8868 55.8081C35.987 56.595 33.9508 57 31.8946 57V56.9791Z" fill="#404040"/>
<path d="M31.4559 24.347C31.0372 24.35 30.6208 24.2829 30.2241 24.1487L17.4364 19.5973L18.1359 17.6243L30.9236 22.1757C31.2621 22.2902 31.6289 22.2902 31.9675 22.1757L50.1834 16.2986C50.3248 16.2527 50.4483 16.1635 50.5363 16.0436C50.6244 15.9237 50.6725 15.7792 50.674 15.6305C50.6741 15.4814 50.6266 15.3361 50.5383 15.2159C50.4501 15.0957 50.3257 15.0069 50.1834 14.9624L32.2075 9.2001C31.7214 9.04907 31.2009 9.04907 30.7148 9.2001L13.5636 14.9624C13.4269 15.0066 13.3077 15.0931 13.2232 15.2094C13.1388 15.3257 13.0935 15.4659 13.0939 15.6096C13.095 15.7587 13.1444 15.9034 13.2348 16.0219C13.3251 16.1405 13.4515 16.2266 13.5949 16.2673L15.286 16.737L14.7223 18.7517L13.0312 18.2715C12.4591 18.1138 11.9529 17.7764 11.5873 17.3089C11.2217 16.8415 11.0161 16.2688 11.0009 15.6756C10.9857 15.0824 11.1617 14.4999 11.5028 14.0144C11.844 13.5288 12.3322 13.1658 12.8955 12.979L30.0258 7.22716C30.9516 6.92428 31.9498 6.92428 32.8756 7.22716L50.8202 12.9581C51.3829 13.1401 51.8736 13.4958 52.2216 13.974C52.5696 14.4523 52.757 15.0286 52.757 15.62C52.757 16.2115 52.5696 16.7878 52.2216 17.2661C51.8736 17.7443 51.3829 18.1 50.8202 18.282L32.6251 24.1487C32.2487 24.2776 31.8538 24.3446 31.4559 24.347V24.347Z" fill="#FA4616"/>
<path d="M17.2799 30.8818H15.1922V20.4429C15.1667 19.7355 15.3882 19.0413 15.8186 18.4794C16.2491 17.9175 16.8617 17.5229 17.5514 17.3634L30.5374 13.1252L31.195 15.1086L18.1673 19.3677C17.3843 19.5869 17.2799 20.0149 17.2799 20.4116V30.8818Z" fill="#FA4616"/>
<path d="M31.8944 31.9257C26.6019 31.9257 20.4116 30.8818 20.4116 27.7501V20.4429H22.4994V27.7501C22.4994 28.3764 25.6937 29.8379 31.8944 29.8379C38.0952 29.8379 41.2895 28.3764 41.2895 27.7501V20.4429H43.3773V27.7501C43.3773 30.8296 37.1765 31.9257 31.8944 31.9257Z" fill="#FA4616"/>
</svg>
