<svg width="64" height="64" viewBox="0 0 64 64" fill="none" xmlns="http://www.w3.org/2000/svg">
<path d="M55.9583 43.3333H8.04167C7.7654 43.3333 7.50045 43.2236 7.3051 43.0282C7.10975 42.8329 7 42.5679 7 42.2917V11.0417C7 10.7654 7.10975 10.5004 7.3051 10.3051C7.50045 10.1097 7.7654 10 8.04167 10H55.9583C56.2346 10 56.4996 10.1097 56.6949 10.3051C56.8903 10.5004 57 10.7654 57 11.0417V42.2917C57 42.5679 56.8903 42.8329 56.6949 43.0282C56.4996 43.2236 56.2346 43.3333 55.9583 43.3333ZM9.08333 41.25H54.9167V12.0833H9.08333V41.25Z" fill="#404040"/>
<path d="M26.7917 33.9583C26.5154 33.9583 26.2504 33.8486 26.0551 33.6532C25.8597 33.4579 25.75 33.1929 25.75 32.9167V20.4167C25.75 20.2328 25.7987 20.0522 25.8911 19.8933C25.9835 19.7343 26.1164 19.6027 26.2761 19.5117C26.4359 19.4207 26.6169 19.3736 26.8008 19.3752C26.9846 19.3768 27.1648 19.4271 27.3229 19.5208L37.7396 25.7708C37.895 25.8631 38.0238 25.9941 38.1132 26.1512C38.2027 26.3083 38.2497 26.4859 38.2497 26.6667C38.2497 26.8474 38.2027 27.025 38.1132 27.1821C38.0238 27.3392 37.895 27.4703 37.7396 27.5625L27.3229 33.8125C27.161 33.9052 26.9782 33.9554 26.7917 33.9583V33.9583ZM27.8333 22.2604V31.0729L35.1771 26.6667L27.8333 22.2604Z" fill="#FA4616"/>
<path d="M15.3333 48.5417H7V50.625H15.3333V48.5417Z" fill="#404040"/>
<path d="M57.0002 48.5417H27.8335V50.625H57.0002V48.5417Z" fill="#404040"/>
<path d="M21.5833 54.7917C20.5532 54.7917 19.5463 54.4862 18.6897 53.9139C17.8332 53.3416 17.1657 52.5282 16.7715 51.5765C16.3773 50.6248 16.2741 49.5776 16.4751 48.5672C16.676 47.5569 17.1721 46.6289 17.9005 45.9005C18.6289 45.1721 19.5569 44.676 20.5672 44.4751C21.5776 44.2741 22.6248 44.3772 23.5765 44.7715C24.5282 45.1657 25.3416 45.8332 25.9139 46.6897C26.4862 47.5462 26.7917 48.5532 26.7917 49.5833C26.7917 50.9647 26.2429 52.2894 25.2662 53.2662C24.2894 54.2429 22.9647 54.7917 21.5833 54.7917V54.7917ZM21.5833 46.4583C20.9653 46.4583 20.3611 46.6416 19.8472 46.985C19.3333 47.3284 18.9327 47.8164 18.6962 48.3874C18.4597 48.9585 18.3978 49.5868 18.5184 50.193C18.639 50.7992 18.9366 51.356 19.3736 51.793C19.8107 52.2301 20.3675 52.5277 20.9737 52.6483C21.5799 52.7689 22.2082 52.707 22.7792 52.4705C23.3502 52.2339 23.8383 51.8334 24.1817 51.3195C24.5251 50.8056 24.7083 50.2014 24.7083 49.5833C24.7083 48.7545 24.3791 47.9597 23.7931 47.3736C23.207 46.7876 22.4121 46.4583 21.5833 46.4583V46.4583Z" fill="#404040"/>
</svg>
