<svg width="64" height="64" viewBox="0 0 64 64" fill="none" xmlns="http://www.w3.org/2000/svg">
<path d="M53.9142 43.2335H51.8291V16.1276C51.8291 15.8511 51.7193 15.586 51.5237 15.3904C51.3282 15.1949 51.0631 15.0851 50.7866 15.0851H13.2553C12.9788 15.0851 12.7136 15.1949 12.5181 15.3904C12.3226 15.586 12.2128 15.8511 12.2128 16.1276V43.2335H10.1277V16.1276C10.1277 15.2981 10.4572 14.5026 11.0437 13.9161C11.6303 13.3295 12.4258 13 13.2553 13H50.7866C51.6161 13 52.4116 13.3295 52.9981 13.9161C53.5847 14.5026 53.9142 15.2981 53.9142 16.1276V43.2335Z" fill="#404040"/>
<path d="M51.829 50.5313H12.2127C10.8302 50.5313 9.50434 49.9821 8.52677 49.0045C7.5492 48.027 7 46.7011 7 45.3186V42.191H27.0897L30.2173 44.2761H34.6793L36.7644 42.191H57V45.3186C57 46.6939 56.4566 48.0135 55.488 48.9899C54.5194 49.9662 53.2043 50.5203 51.829 50.5313V50.5313ZM9.08507 44.2761V45.3186C9.08507 46.1481 9.41458 46.9436 10.0011 47.5302C10.5877 48.1167 11.3832 48.4462 12.2127 48.4462H51.829C52.6585 48.4462 53.454 48.1167 54.0406 47.5302C54.6271 46.9436 54.9566 46.1481 54.9566 45.3186V44.2761H37.6714L35.5863 46.3611H29.623L26.4954 44.2761H9.08507Z" fill="#404040"/>
<path d="M47.6589 39.0634H29.9358C29.6593 39.0634 29.3942 38.9536 29.1987 38.758C29.0031 38.5625 28.8933 38.2973 28.8933 38.0208V35.9358H30.9784V36.9783H46.6164V21.3403H30.9784V27.5955H28.8933V20.2977C28.8933 20.0212 29.0031 19.7561 29.1987 19.5606C29.3942 19.3651 29.6593 19.2552 29.9358 19.2552H47.6589C47.9354 19.2552 48.2006 19.3651 48.3961 19.5606C48.5916 19.7561 48.7015 20.0212 48.7015 20.2977V38.0208C48.7015 38.2973 48.5916 38.5625 48.3961 38.758C48.2006 38.9536 47.9354 39.0634 47.6589 39.0634Z" fill="#FA4616"/>
<path d="M20.5529 27.5955C19.974 27.5716 19.4057 27.4325 18.8811 27.1864C18.3566 26.9402 17.8865 26.5919 17.4982 26.1619C17.1099 25.7318 16.8112 25.2287 16.6197 24.6818C16.4282 24.135 16.3476 23.5554 16.3828 22.9771V21.8407C16.3828 20.7347 16.8221 19.674 17.6042 18.892C18.3862 18.1099 19.4469 17.6706 20.5529 17.6706C21.6589 17.6706 22.7196 18.1099 23.5017 18.892C24.2837 19.674 24.7231 20.7347 24.7231 21.8407V23.0292C24.7511 23.6033 24.6652 24.1773 24.4705 24.7181C24.2757 25.2589 23.9759 25.7558 23.5883 26.1802C23.2007 26.6046 22.7329 26.9482 22.212 27.1911C21.6911 27.434 21.1272 27.5714 20.5529 27.5955ZM20.5529 19.2552C20.2494 19.2839 19.9545 19.3724 19.6853 19.5154C19.416 19.6584 19.1777 19.8532 18.9839 20.0886C18.7902 20.324 18.6448 20.5954 18.5563 20.8871C18.4677 21.1788 18.4377 21.4852 18.4679 21.7886V22.9771C18.4679 23.5301 18.6875 24.0604 19.0786 24.4514C19.4696 24.8425 19.9999 25.0621 20.5529 25.0621C21.1059 25.0621 21.6363 24.8425 22.0273 24.4514C22.4183 24.0604 22.638 23.5301 22.638 22.9771V21.8407C22.6756 21.5333 22.6511 21.2214 22.5659 20.9236C22.4808 20.6258 22.3367 20.3481 22.1422 20.107C21.9478 19.8659 21.7069 19.6663 21.4339 19.52C21.1609 19.3737 20.8614 19.2836 20.5529 19.2552V19.2552Z" fill="#404040"/>
<path d="M26.808 40.1059H24.723V32.8082H32.0207C33.8034 32.8082 34.773 32.1618 35.0545 30.7231H19.5103C18.6808 30.7231 17.8853 31.0526 17.2987 31.6392C16.7122 32.2257 16.3827 33.0212 16.3827 33.8507V40.1059H14.2976V33.8507C14.2976 32.4682 14.8468 31.1424 15.8244 30.1648C16.8019 29.1872 18.1278 28.638 19.5103 28.638H37.2334V29.6806C37.2334 32.9958 35.336 34.8932 32.0207 34.8932H26.808V40.1059Z" fill="#404040"/>
</svg>
