<svg width="64" height="64" viewBox="0 0 64 64" fill="none" xmlns="http://www.w3.org/2000/svg">
<path d="M17.4167 22.4583C16.7284 22.474 16.0441 22.35 15.4052 22.0938C14.7662 21.8376 14.1858 21.4545 13.699 20.9677C13.2122 20.4809 12.8291 19.9005 12.5729 19.2615C12.3167 18.6225 12.1927 17.9383 12.2084 17.25V16.2083C12.2084 14.827 12.7571 13.5022 13.7338 12.5255C14.7106 11.5487 16.0353 11 17.4167 11C18.798 11 20.1228 11.5487 21.0996 12.5255C22.0763 13.5022 22.625 14.827 22.625 16.2083V17.25C22.6407 17.9383 22.5167 18.6225 22.2605 19.2615C22.0043 19.9005 21.6212 20.4809 21.1344 20.9677C20.6476 21.4545 20.0672 21.8376 19.4282 22.0938C18.7892 22.35 18.1049 22.474 17.4167 22.4583V22.4583ZM17.4167 13.0833C17.0028 13.0703 16.5906 13.1423 16.2056 13.2947C15.8206 13.4471 15.4708 13.6769 15.178 13.9697C14.8852 14.2625 14.6555 14.6122 14.503 14.9972C14.3506 15.3823 14.2787 15.7944 14.2917 16.2083V17.25C14.2917 18.0788 14.6209 18.8737 15.207 19.4597C15.793 20.0458 16.5879 20.375 17.4167 20.375C18.2455 20.375 19.0404 20.0458 19.6264 19.4597C20.2125 18.8737 20.5417 18.0788 20.5417 17.25V16.2083C20.5577 15.7932 20.4879 15.3792 20.3367 14.9922C20.1854 14.6052 19.956 14.2536 19.6627 13.9594C19.3694 13.6651 19.0186 13.4345 18.6321 13.282C18.2457 13.1295 17.8319 13.0583 17.4167 13.0729V13.0833Z" fill="#404040"/>
<path d="M23.6667 52.6563H21.5833V28.6979C21.5833 28.4217 21.6931 28.1567 21.8884 27.9613C22.0838 27.766 22.3487 27.6563 22.625 27.6563H28.875C29.7604 27.6563 30.4375 26.5417 30.7604 25.5729H15.3333C10.7188 25.5729 9.08333 26.9271 9.08333 30.7813V37.0313C9.10693 37.8526 9.44375 38.6338 10.0248 39.2148C10.6058 39.7958 11.387 40.1327 12.2083 40.1563V42.2396C10.8329 42.2207 9.51904 41.6659 8.54635 40.6932C7.57366 39.7205 7.01886 38.4067 7 37.0313V30.7813C7 24.3125 11.4583 23.4896 15.3333 23.4896H32C32.2763 23.4896 32.5412 23.5993 32.7366 23.7947C32.9319 23.99 33.0417 24.255 33.0417 24.5313C33.0417 26.3438 31.6146 29.7396 28.875 29.7396H23.6667V52.6563Z" fill="#404040"/>
<path d="M18.4583 38.0729H16.375V52.6563H18.4583V38.0729Z" fill="#404040"/>
<path d="M13.2501 30.7917H11.1667V52.6667H13.2501V30.7917Z" fill="#404040"/>
<path d="M55.9583 42.25H26.7917C26.5154 42.25 26.2505 42.1403 26.0551 41.9449C25.8598 41.7496 25.75 41.4846 25.75 41.2083V31.8333H27.8333V40.1667H54.9167V17.25H27.8333V21.4167H25.75V16.2083C25.75 15.9321 25.8598 15.6671 26.0551 15.4718C26.2505 15.2764 26.5154 15.1667 26.7917 15.1667H55.9583C56.2346 15.1667 56.4996 15.2764 56.6949 15.4718C56.8903 15.6671 57 15.9321 57 16.2083V41.2083C57 41.4846 56.8903 41.7496 56.6949 41.9449C56.4996 42.1403 56.2346 42.25 55.9583 42.25Z" fill="#404040"/>
<path d="M37.2085 34.9479C37.0339 34.9488 36.862 34.9058 36.7085 34.8229C36.5441 34.733 36.407 34.6004 36.3116 34.439C36.2163 34.2777 36.1663 34.0937 36.1668 33.9063V23.4896C36.1574 23.2984 36.2009 23.1082 36.2925 22.9401C36.3841 22.772 36.5202 22.6323 36.686 22.5365C36.8518 22.4407 37.0407 22.3925 37.2321 22.3971C37.4235 22.4017 37.61 22.4589 37.771 22.5625L46.1043 27.7709C46.2544 27.8647 46.3781 27.9952 46.4638 28.1501C46.5495 28.305 46.5942 28.4792 46.5939 28.6563C46.5942 28.8333 46.5495 29.0075 46.4638 29.1624C46.3781 29.3173 46.2544 29.4479 46.1043 29.5417L37.771 34.75C37.6068 34.8694 37.4112 34.9382 37.2085 34.9479ZM38.2501 25.375V32.0313L43.5834 28.6979L38.2501 25.375Z" fill="#FA4616"/>
</svg>
