<svg width="64" height="64" viewBox="0 0 64 64" fill="none" xmlns="http://www.w3.org/2000/svg">
<path d="M55.9583 50.5H16.3749C16.0987 50.5 15.8337 50.3903 15.6383 50.1949C15.443 49.9995 15.3333 49.7346 15.3333 49.4583V22.375C15.3333 22.0987 15.443 21.8338 15.6383 21.6384C15.8337 21.4431 16.0987 21.3333 16.3749 21.3333H55.9583C56.2345 21.3333 56.4995 21.4431 56.6948 21.6384C56.8902 21.8338 56.9999 22.0987 56.9999 22.375V49.4583C56.9999 49.7346 56.8902 49.9995 56.6948 50.1949C56.4995 50.3903 56.2345 50.5 55.9583 50.5ZM17.4166 48.4167H54.9166V23.4167H17.4166V48.4167Z" fill="#404040"/>
<path d="M14.2916 46.3333H12.2083C11.932 46.3333 11.6671 46.2236 11.4717 46.0282C11.2764 45.8329 11.1666 45.5679 11.1666 45.2917V18.2083C11.1666 17.9321 11.2764 17.6671 11.4717 17.4718C11.6671 17.2764 11.932 17.1667 12.2083 17.1667H51.7916C52.0679 17.1667 52.3328 17.2764 52.5282 17.4718C52.7235 17.6671 52.8333 17.9321 52.8333 18.2083V20.2917H50.75V19.25H13.25V44.25H14.2916V46.3333Z" fill="#404040"/>
<path d="M10.125 42.1667H8.04167C7.7654 42.1667 7.50045 42.0569 7.3051 41.8616C7.10975 41.6662 7 41.4013 7 41.125V14.0417C7 13.7654 7.10975 13.5004 7.3051 13.3051C7.50045 13.1097 7.7654 13 8.04167 13H47.625C47.9013 13 48.1662 13.1097 48.3616 13.3051C48.5569 13.5004 48.6667 13.7654 48.6667 14.0417V16.125H46.5833V15.0833H9.08333V40.0833H10.125V42.1667Z" fill="#404040"/>
<path d="M32 43.2083C31.7238 43.2083 31.4588 43.0986 31.2635 42.9032C31.0681 42.7079 30.9584 42.4429 30.9584 42.1667V29.6667C30.9584 29.4828 31.0071 29.3022 31.0995 29.1433C31.1919 28.9843 31.3248 28.8527 31.4845 28.7617C31.6443 28.6707 31.8253 28.6236 32.0091 28.6252C32.193 28.6268 32.3731 28.6771 32.5313 28.7708L42.948 35.0208C43.1034 35.1131 43.2322 35.2441 43.3216 35.4012C43.411 35.5583 43.4581 35.7359 43.4581 35.9167C43.4581 36.0974 43.411 36.275 43.3216 36.4321C43.2322 36.5892 43.1034 36.7203 42.948 36.8125L32.5313 43.0625C32.3694 43.1552 32.1866 43.2054 32 43.2083V43.2083ZM33.0417 31.5104V40.3229L40.3334 35.9167L33.0417 31.5104Z" fill="#FA4616"/>
</svg>
