<svg width="64" height="64" viewBox="0 0 64 64" fill="none" xmlns="http://www.w3.org/2000/svg">
<path d="M44.5852 56.9893C44.4064 56.9928 44.2278 56.9749 44.0533 56.9362C43.7802 56.8737 43.5222 56.7579 43.294 56.5954C43.0658 56.4329 42.8719 56.2269 42.7235 55.9893L39.4256 50.1702L36.2979 53.1808C36.0722 53.419 35.7812 53.5853 35.4615 53.6591C35.1418 53.7329 34.8074 53.7108 34.5001 53.5957C34.2157 53.468 33.9764 53.2576 33.8132 52.992C33.6501 52.7263 33.5706 52.4178 33.5852 52.1064V34.0213C33.5847 33.8246 33.6387 33.6316 33.7413 33.4638C33.8438 33.296 33.9909 33.1599 34.1661 33.0706C34.3413 32.9813 34.5379 32.9424 34.734 32.9581C34.93 32.9738 35.1179 33.0435 35.2767 33.1596L49.9256 43.7979C50.2313 44.0482 50.4488 44.3897 50.5464 44.7726C50.644 45.1554 50.6166 45.5594 50.4682 45.9255C50.3823 46.3267 50.1693 46.6894 49.8606 46.9597C49.552 47.23 49.1644 47.3933 48.7554 47.4255H45.5639L48.4469 52.4362C48.7302 52.9726 48.7931 53.5983 48.6223 54.1804C48.4514 54.7625 48.0603 55.255 47.532 55.5532L45.8831 56.617C45.4921 56.8563 45.0435 56.985 44.5852 56.9893V56.9893ZM39.6703 47.4149H39.8192C39.9808 47.438 40.1349 47.498 40.2696 47.5903C40.4042 47.6825 40.5159 47.8045 40.5958 47.9468L44.5533 54.9255C44.5533 54.9255 44.6703 54.9255 44.8086 54.8192L46.4682 53.7553C46.5201 53.7282 46.5647 53.6888 46.598 53.6406C46.6314 53.5924 46.6525 53.5369 46.6596 53.4787L42.8618 46.883C42.7684 46.7212 42.7192 46.5378 42.7192 46.351C42.7192 46.1643 42.7684 45.9809 42.8618 45.8191C42.9569 45.6588 43.0924 45.5262 43.2548 45.4347C43.4173 45.3432 43.6009 45.296 43.7873 45.2979H48.3618L35.7235 36.117V50.7872L38.915 47.6808C39.1175 47.4856 39.3891 47.3785 39.6703 47.383V47.4149Z" fill="#FA4616"/>
<path d="M26.7981 38.9149C25.6264 38.8197 24.5122 38.3666 23.6066 37.617C23.0448 37.1386 22.3653 36.819 21.6385 36.6915C20.6732 36.8856 19.7341 37.1926 18.8406 37.6064C16.3938 38.5957 14.0747 39.5319 12.8938 38.1808C11.713 36.8298 12.6066 34.9362 13.5108 32.9574C13.9003 32.2226 14.1901 31.4391 14.3726 30.6276C14.2566 30.0234 13.9684 29.4656 13.5427 29.0213C13.1439 28.6555 12.8254 28.2108 12.6075 27.7155C12.3896 27.2201 12.2771 26.6848 12.2771 26.1436C12.2771 25.6024 12.3896 25.0671 12.6075 24.5718C12.8254 24.0764 13.1439 23.6317 13.5427 23.266C13.9684 22.8217 14.2566 22.2638 14.3726 21.6596C14.1901 20.8481 13.9003 20.0647 13.5108 19.3298C12.6066 17.3511 11.6704 15.2979 12.947 14.0106C14.2236 12.7234 16.3938 13.6489 18.8406 14.6383C19.7341 15.052 20.6732 15.3591 21.6385 15.5532V15.5532C22.3653 15.4257 23.0448 15.1061 23.6066 14.6276C24.5128 13.8807 25.6272 13.4313 26.7981 13.3404C27.9011 13.4188 28.9461 13.8645 29.7661 14.6064C29.9645 14.8686 30.221 15.0813 30.5154 15.2277C30.8098 15.3742 31.1341 15.4504 31.4629 15.4504C31.7918 15.4504 32.1161 15.3742 32.4105 15.2277C32.7049 15.0813 32.9614 14.8686 33.1598 14.6064C33.984 13.8644 35.0323 13.4189 36.1385 13.3404C37.3094 13.4313 38.4238 13.8807 39.33 14.6276C39.8879 15.1057 40.5639 15.4254 41.2874 15.5532V15.5532C42.2536 15.3623 43.193 15.055 44.0853 14.6383C46.5428 13.6489 48.8619 12.7127 50.0428 14.0638C51.2236 15.4149 50.33 17.3085 49.4257 19.2872C49.0291 20.02 48.7356 20.804 48.5534 21.617C48.6723 22.2225 48.9643 22.7804 49.3938 23.2234C49.7927 23.5892 50.1112 24.0338 50.3291 24.5292C50.547 25.0246 50.6594 25.5599 50.6594 26.101C50.6594 26.6422 50.547 27.1775 50.3291 27.6729C50.1112 28.1683 49.7927 28.613 49.3938 28.9787C48.9643 29.4217 48.6723 29.9796 48.5534 30.5851C48.7356 31.3981 49.0291 32.1821 49.4257 32.9149C50.33 34.8936 51.2555 36.9468 49.9896 38.234C48.7236 39.5213 46.5427 38.5957 44.0959 37.6064L42.8513 37.117L43.5959 35.1277C44.0002 35.2766 44.4364 35.4574 44.8832 35.6383C46.0148 36.1695 47.2197 36.5281 48.4576 36.7021C48.3134 35.6901 47.9853 34.7131 47.4895 33.8191C46.9317 32.8342 46.5704 31.7503 46.4257 30.6276C46.5138 29.5522 46.9595 28.5373 47.6917 27.7447C47.9485 27.5652 48.1582 27.3265 48.3029 27.0487C48.4477 26.7708 48.5233 26.4622 48.5233 26.1489C48.5233 25.8357 48.4477 25.527 48.3029 25.2492C48.1582 24.9714 47.9485 24.7326 47.6917 24.5532C46.9595 23.7606 46.5138 22.7456 46.4257 21.6702C46.5704 20.5476 46.9317 19.4637 47.4895 18.4787C47.9795 17.5804 48.3141 16.6056 48.4789 15.5957C47.2322 15.7604 46.0189 16.1194 44.8832 16.6596C43.7533 17.2148 42.5375 17.5745 41.2874 17.7234C40.1166 17.6325 39.0022 17.1831 38.0959 16.4362C37.538 15.9581 36.862 15.6385 36.1385 15.5106C35.4978 15.6146 34.904 15.9115 34.4364 16.3617C34.0546 16.7654 33.5944 17.087 33.0841 17.3068C32.5737 17.5266 32.0239 17.6399 31.4683 17.6399C30.9126 17.6399 30.3628 17.5266 29.8525 17.3068C29.3421 17.087 28.882 16.7654 28.5002 16.3617C28.0326 15.9115 27.4388 15.6146 26.7981 15.5106C26.0745 15.6385 25.3986 15.9581 24.8406 16.4362C23.933 17.1807 22.8194 17.6298 21.6491 17.7234V17.7234C20.4025 17.5742 19.1903 17.2144 18.064 16.6596C17.0002 16.2447 15.1066 15.4574 14.4896 15.5957C14.6338 16.6077 14.9619 17.5848 15.4576 18.4787C16.0118 19.4653 16.3729 20.5485 16.5215 21.6702C16.4371 22.7445 15.9952 23.7596 15.2662 24.5532C15.0094 24.7326 14.7997 24.9714 14.6549 25.2492C14.5101 25.527 14.4345 25.8357 14.4345 26.1489C14.4345 26.4622 14.5101 26.7708 14.6549 27.0487C14.7997 27.3265 15.0094 27.5652 15.2662 27.7447C15.9952 28.5383 16.4371 29.5533 16.5215 30.6276C16.3729 31.7494 16.0118 32.8326 15.4576 33.8191C14.9677 34.7175 14.6332 35.6922 14.4683 36.7021C15.7147 36.5359 16.9278 36.177 18.064 35.6383C19.1903 35.0834 20.4025 34.7237 21.6491 34.5744C22.8194 34.668 23.933 35.1172 24.8406 35.8617C25.3982 36.3423 26.0739 36.6655 26.7981 36.7979C27.44 36.6909 28.034 36.3902 28.5002 35.9362C29.3203 35.1943 30.3652 34.7486 31.4683 34.6702V36.7979C30.8276 36.9019 30.2338 37.1988 29.7661 37.6489C28.9456 38.3901 27.9009 38.8357 26.7981 38.9149V38.9149Z" fill="#404040"/>
<path d="M56.9998 12.3191H54.8722V9.12766H51.6807V7H56.9998V12.3191Z" fill="#404040"/>
<path d="M9.12766 12.3191H7V7H12.3191V9.12766H9.12766V12.3191Z" fill="#404040"/>
<path d="M49.5532 7H14.4468V9.12766H49.5532V7Z" fill="#404040"/>
<path d="M56.9998 45.2979H51.6807V43.1702H54.8722V39.9787H56.9998V45.2979Z" fill="#404040"/>
<path d="M12.3191 45.2979H7V39.9787H9.12766V43.1702H12.3191V45.2979Z" fill="#404040"/>
<path d="M31.4681 43.1702H14.4468V45.2979H31.4681V43.1702Z" fill="#404040"/>
<path d="M38.9149 22.9574H24.0212V25.0851H38.9149V22.9574Z" fill="#404040"/>
<path d="M35.7233 27.2128H27.2126V29.3404H35.7233V27.2128Z" fill="#404040"/>
<path d="M9.12766 14.4468H7V37.8511H9.12766V14.4468Z" fill="#404040"/>
<path d="M57 14.4468H54.8723V37.8511H57V14.4468Z" fill="#404040"/>
</svg>
