<svg width="64" height="64" viewBox="0 0 64 64" fill="none" xmlns="http://www.w3.org/2000/svg">
<path d="M30.919 53.419C30.6837 53.419 30.4547 53.3427 30.2664 53.2015C15.181 41.8793 8.43777 36.0279 7.187 27.5771C6.87159 25.4671 6.28427 18.2343 11.9291 13.7533C13.4702 12.6062 15.2322 11.7907 17.1041 11.3583C18.976 10.9259 20.9172 10.8859 22.8053 11.2409C26.0212 11.8062 28.9085 13.5564 30.8972 16.1461C32.8886 13.5541 35.7802 11.8036 39.0001 11.2409C40.8881 10.8846 42.8296 10.9239 44.7017 11.3564C46.5738 11.7888 48.3358 12.605 49.8763 13.7533C55.5211 18.2343 54.9338 25.4671 54.6184 27.5771C54.5422 28.0991 54.4444 28.6103 54.3247 29.1215C54.2576 29.4008 54.0826 29.6422 53.8381 29.793C53.5936 29.9438 53.2993 29.9917 53.0196 29.9263C52.8803 29.8942 52.7486 29.8351 52.6322 29.7521C52.5158 29.6692 52.4169 29.564 52.3412 29.4428C52.2654 29.3216 52.2143 29.1866 52.1907 29.0457C52.1671 28.9047 52.1716 28.7604 52.2038 28.6212C52.3126 28.1752 52.3996 27.7184 52.4758 27.2508C52.7368 25.4344 53.248 19.2132 48.5277 15.45C47.2275 14.494 45.7443 13.8161 44.1705 13.4587C42.5968 13.1013 40.9663 13.072 39.3807 13.3726C37.8123 13.6435 36.3225 14.2554 35.0164 15.165C33.7103 16.0745 32.6198 17.2597 31.8217 18.6368C31.7254 18.7991 31.5886 18.9335 31.4246 19.0269C31.2606 19.1203 31.0751 19.1694 30.8864 19.1694C30.6977 19.1694 30.5122 19.1203 30.3482 19.0269C30.1842 18.9335 30.0473 18.7991 29.951 18.6368C29.1541 17.261 28.0652 16.0766 26.7611 15.1671C25.457 14.2576 23.9693 13.645 22.4029 13.3726C20.8173 13.072 19.1868 13.1013 17.6131 13.4587C16.0393 13.8161 14.5561 14.494 13.256 15.45C8.52479 19.2132 9.03596 25.4344 9.30787 27.2508C10.3955 34.3856 15.6487 39.4974 30.8864 50.9719C39.2502 44.6854 44.7754 40.2044 48.1687 36.1584C48.3544 35.9408 48.6183 35.8051 48.9033 35.7807C49.1883 35.7562 49.4714 35.8451 49.6914 36.0279C49.8015 36.1192 49.8926 36.2313 49.9593 36.3579C50.026 36.4844 50.0672 36.6229 50.0803 36.7654C50.0934 36.9078 50.0783 37.0514 50.0359 37.188C49.9934 37.3247 49.9244 37.4516 49.8328 37.5615C46.2219 41.912 40.3922 46.5561 31.539 53.2015C31.3619 53.3403 31.144 53.4167 30.919 53.419V53.419Z" fill="#404040"/>
<path d="M30.9189 43.6304H30.821C30.5889 43.6098 30.3696 43.5151 30.1953 43.3605C30.021 43.2058 29.901 42.9992 29.853 42.7712L26.2421 25.6193L23.2294 33.1674C23.1471 33.3678 23.0068 33.539 22.8266 33.6591C22.6464 33.7793 22.4345 33.8429 22.2179 33.8418H14.6045V31.6665H21.4892L25.5569 21.4755C25.6412 21.2471 25.7997 21.0537 26.007 20.9261C26.2143 20.7985 26.4584 20.7442 26.7003 20.7717C26.9421 20.7993 27.1678 20.9072 27.341 21.0782C27.5143 21.2491 27.6252 21.4733 27.656 21.7147L31.2887 38.9536L35.3782 29.165C35.4617 28.9688 35.6011 28.8015 35.779 28.6839C35.9569 28.5663 36.1655 28.5036 36.3788 28.5036C36.592 28.5036 36.8006 28.5663 36.9785 28.6839C37.1564 28.8015 37.2958 28.9688 37.3794 29.165L39.7178 34.6031L40.8054 32.3517C40.8943 32.1703 41.0319 32.0173 41.2029 31.9097C41.3738 31.8021 41.5714 31.7443 41.7734 31.7427H57.0001V33.9179H42.4695L40.5987 37.6702C40.5051 37.8563 40.3601 38.0116 40.1807 38.1177C40.0014 38.2237 39.7954 38.276 39.5873 38.2684C39.3806 38.2629 39.1797 38.1986 39.0083 38.083C38.8369 37.9674 38.7019 37.8054 38.6193 37.6158L36.357 32.2865L31.9195 42.967C31.8362 43.1636 31.697 43.3313 31.519 43.4492C31.3411 43.5672 31.1324 43.6302 30.9189 43.6304V43.6304Z" fill="#FA4616"/>
</svg>
