<svg width="64" height="64" viewBox="0 0 64 64" fill="none" xmlns="http://www.w3.org/2000/svg">
<path d="M37.9608 57H25.7386C25.4439 57 25.1613 56.8829 24.9529 56.6745C24.7445 56.4662 24.6275 56.1836 24.6275 55.8889V44.5111L14.783 50.2C14.6565 50.2731 14.5168 50.3206 14.3719 50.3397C14.227 50.3587 14.0797 50.349 13.9386 50.3111C13.7967 50.2732 13.6638 50.2075 13.5474 50.1178C13.4311 50.0282 13.3336 49.9164 13.2608 49.7889L7.14968 39.2111C7.07622 39.0843 7.02856 38.9442 7.00947 38.7989C6.99038 38.6536 7.00022 38.5059 7.03843 38.3644C7.07664 38.223 7.1425 38.0904 7.23215 37.9745C7.3218 37.8585 7.43347 37.7615 7.56079 37.6889L17.4052 32L7.56079 26.3111C7.43347 26.2385 7.3218 26.1415 7.23215 26.0255C7.1425 25.9096 7.07664 25.7771 7.03843 25.6356C7.00022 25.4941 6.99038 25.3464 7.00947 25.2011C7.02856 25.0558 7.07622 24.9157 7.14968 24.7889L13.2608 14.2111C13.3336 14.0836 13.4311 13.9718 13.5474 13.8821C13.6638 13.7925 13.7967 13.7268 13.9386 13.6889C14.0797 13.651 14.227 13.6413 14.3719 13.6603C14.5168 13.6794 14.6565 13.7268 14.783 13.8L24.6275 19.4889V8.11111C24.6275 7.81643 24.7445 7.53381 24.9529 7.32544C25.1613 7.11706 25.4439 7 25.7386 7H37.9608C38.2555 7 38.5381 7.11706 38.7465 7.32544C38.9548 7.53381 39.0719 7.81643 39.0719 8.11111V19.4889L48.9274 13.8C49.0543 13.7265 49.1944 13.6789 49.3397 13.6598C49.485 13.6407 49.6326 13.6505 49.7741 13.6888C49.9156 13.727 50.0481 13.7928 50.1641 13.8824C50.28 13.9721 50.3771 14.0838 50.4497 14.2111L56.5608 24.7889C56.6339 24.9154 56.6814 25.0551 56.7005 25.2C56.7195 25.345 56.7098 25.4922 56.6719 25.6333C56.634 25.7752 56.5683 25.9082 56.4786 26.0245C56.389 26.1408 56.2772 26.2382 56.1497 26.3111L46.2941 32L56.1497 37.6889C56.2772 37.7617 56.389 37.8591 56.4786 37.9755C56.5683 38.0918 56.634 38.2248 56.6719 38.3666C56.7098 38.5078 56.7195 38.655 56.7005 38.7999C56.6814 38.9448 56.6339 39.0846 56.5608 39.2111L50.4497 49.7889C50.3768 49.9164 50.2794 50.0282 50.1631 50.1178C50.0467 50.2075 49.9138 50.2732 49.7719 50.3111C49.6308 50.349 49.4835 50.3587 49.3386 50.3397C49.1937 50.3206 49.054 50.2731 48.9274 50.2L39.0719 44.5111V55.8889C39.0719 56.1836 38.9548 56.4662 38.7465 56.6745C38.5381 56.8829 38.2555 57 37.9608 57V57ZM26.8497 54.7778H36.8497V42.5556C36.8489 42.3598 36.8999 42.1672 36.9974 41.9975C37.095 41.8277 37.2357 41.6868 37.4052 41.5889C37.5741 41.4913 37.7658 41.44 37.9608 41.44C38.1558 41.44 38.3474 41.4913 38.5163 41.5889L49.083 47.6889L54.083 39.0222L43.5163 32.9333C43.3453 32.8364 43.2031 32.6959 43.1042 32.5261C43.0052 32.3562 42.9531 32.1632 42.9531 31.9667C42.9531 31.7701 43.0052 31.5771 43.1042 31.4073C43.2031 31.2374 43.3453 31.0969 43.5163 31L54.083 24.9111L49.083 16.2444L38.5163 22.3445C38.3474 22.442 38.1558 22.4933 37.9608 22.4933C37.7658 22.4933 37.5741 22.442 37.4052 22.3445C37.2357 22.2466 37.095 22.1056 36.9974 21.9358C36.8999 21.7661 36.8489 21.5735 36.8497 21.3778V9.15556H26.8497V21.3778C26.8505 21.5735 26.7995 21.7661 26.7019 21.9358C26.6044 22.1056 26.4637 22.2466 26.2941 22.3445C26.1252 22.442 25.9336 22.4933 25.7386 22.4933C25.5435 22.4933 25.3519 22.442 25.183 22.3445L14.6275 16.2444L9.62747 24.9111L20.183 31C20.354 31.0969 20.4963 31.2374 20.5952 31.4073C20.6942 31.5771 20.7463 31.7701 20.7463 31.9667C20.7463 32.1632 20.6942 32.3562 20.5952 32.5261C20.4963 32.6959 20.354 32.8364 20.183 32.9333L9.62747 39.0222L14.6275 47.6889L25.183 41.5889C25.3519 41.4913 25.5435 41.44 25.7386 41.44C25.9336 41.44 26.1252 41.4913 26.2941 41.5889C26.4637 41.6868 26.6044 41.8277 26.7019 41.9975C26.7995 42.1672 26.8505 42.3598 26.8497 42.5556V54.7778Z" fill="#404040"/>
</svg>
