<svg width="64" height="64" viewBox="0 0 64 64" fill="none" xmlns="http://www.w3.org/2000/svg">
<path d="M25.9574 56.7872C25.6753 56.7872 25.4047 56.6751 25.2052 56.4756C25.0057 56.2761 24.8936 56.0055 24.8936 55.7234V29.1276C24.8953 28.9064 24.9658 28.6912 25.0955 28.512C25.2251 28.3328 25.4074 28.1984 25.617 28.1276C25.8298 28.0532 30.9362 26.3298 32 26C32.5472 25.8956 33.0546 25.6414 33.4659 25.2658C33.8772 24.8902 34.1763 24.4078 34.3298 23.8723H18.5106C14.3936 23.8723 12.1277 25.7659 12.1277 29.1915V37.7021C12.0742 38.134 12.12 38.5724 12.2615 38.9839C12.403 39.3955 12.6364 39.7694 12.9442 40.0771C13.2519 40.3848 13.6258 40.6183 14.0373 40.7598C14.4489 40.9013 14.8873 40.947 15.3192 40.8936C15.6013 40.8936 15.8719 41.0057 16.0714 41.2052C16.2709 41.4047 16.383 41.6753 16.383 41.9574C16.383 42.2396 16.2709 42.5102 16.0714 42.7097C15.8719 42.9092 15.6013 43.0212 15.3192 43.0212C11.3936 43.0212 10 40.2766 10 37.7021V29.1915C10 24.5319 13.1915 21.7447 18.5106 21.7447H35.5319C35.8141 21.7447 36.0846 21.8567 36.2842 22.0562C36.4837 22.2558 36.5957 22.5263 36.5957 22.8085C36.665 24.0154 36.3092 25.2085 35.5901 26.1802C34.8709 27.152 33.834 27.8411 32.6596 28.1276C31.8191 28.383 28.5106 29.5 27.0213 30V55.8298C26.9948 56.0931 26.8712 56.3371 26.6744 56.5141C26.4777 56.6912 26.2221 56.7885 25.9574 56.7872V56.7872Z" fill="#404040"/>
<path d="M21.7018 20.617C20.9965 20.6423 20.2935 20.522 19.6367 20.2637C18.98 20.0053 18.3834 19.6144 17.8844 19.1153C17.3853 18.6163 16.9944 18.0197 16.736 17.363C16.4777 16.7062 16.3574 16.0032 16.3827 15.2979V13.1702C16.3827 11.7595 16.9431 10.4065 17.9406 9.40899C18.9382 8.41146 20.2911 7.85104 21.7018 7.85104C23.1126 7.85104 24.4655 8.41146 25.4631 9.40899C26.4606 10.4065 27.021 11.7595 27.021 13.1702V15.2979C27.0463 16.0032 26.926 16.7062 26.6676 17.363C26.4093 18.0197 26.0184 18.6163 25.5193 19.1153C25.0203 19.6144 24.4237 20.0053 23.7669 20.2637C23.1101 20.522 22.4072 20.6423 21.7018 20.617V20.617ZM21.7018 9.9787C21.2763 9.95397 20.8503 10.0196 20.4518 10.1712C20.0534 10.3229 19.6916 10.5571 19.3902 10.8585C19.0887 11.16 18.8545 11.5218 18.7029 11.9202C18.5512 12.3186 18.4856 12.7446 18.5104 13.1702V15.2979C18.5104 16.1443 18.8466 16.9561 19.4451 17.5546C20.0436 18.1531 20.8554 18.4893 21.7018 18.4893C22.5483 18.4893 23.36 18.1531 23.9586 17.5546C24.5571 16.9561 24.8933 16.1443 24.8933 15.2979V13.1702C24.9181 12.7446 24.8525 12.3186 24.7008 11.9202C24.5492 11.5218 24.3149 11.16 24.0135 10.8585C23.7121 10.5571 23.3503 10.3229 22.9518 10.1712C22.5534 10.0196 22.1274 9.95397 21.7018 9.9787V9.9787Z" fill="#404040"/>
<path d="M15.3192 56.7872C15.0371 56.7872 14.7665 56.6751 14.567 56.4756C14.3675 56.2761 14.2554 56.0055 14.2554 55.7234V30.1915C14.2554 29.9093 14.3675 29.6387 14.567 29.4392C14.7665 29.2397 15.0371 29.1277 15.3192 29.1277C15.6013 29.1277 15.8719 29.2397 16.0714 29.4392C16.2709 29.6387 16.383 29.9093 16.383 30.1915V55.7234C16.383 56.0055 16.2709 56.2761 16.0714 56.4756C15.8719 56.6751 15.6013 56.7872 15.3192 56.7872Z" fill="#404040"/>
<path d="M20.638 56.7872C20.3559 56.7872 20.0853 56.6751 19.8858 56.4756C19.6863 56.2761 19.5742 56.0055 19.5742 55.7234V40.8298C19.5742 40.5476 19.6863 40.277 19.8858 40.0775C20.0853 39.878 20.3559 39.7659 20.638 39.7659C20.9202 39.7659 21.1908 39.878 21.3903 40.0775C21.5898 40.277 21.7019 40.5476 21.7019 40.8298V55.7234C21.7019 56.0055 21.5898 56.2761 21.3903 56.4756C21.1908 56.6751 20.9202 56.7872 20.638 56.7872Z" fill="#404040"/>
<path d="M54.6805 45.0851C54.3984 45.0851 54.1278 44.973 53.9283 44.7735C53.7288 44.574 53.6167 44.3034 53.6167 44.0213V25.9361C53.6167 25.654 53.7288 25.3834 53.9283 25.1839C54.1278 24.9844 54.3984 24.8723 54.6805 24.8723C54.9627 24.8723 55.2333 24.9844 55.4328 25.1839C55.6323 25.3834 55.7444 25.654 55.7444 25.9361V44.0213C55.7444 44.3034 55.6323 44.574 55.4328 44.7735C55.2333 44.973 54.9627 45.0851 54.6805 45.0851Z" fill="#404040"/>
<path d="M50.4247 17.4255C49.8475 17.4262 49.2762 17.3096 48.7456 17.0825C48.2149 16.8555 47.736 16.5229 47.3379 16.1049C46.9399 15.687 46.631 15.1924 46.4301 14.6513C46.2292 14.1102 46.1405 13.5339 46.1694 12.9574V11.2553C46.1694 10.1267 46.6177 9.04438 47.4157 8.24635C48.2138 7.44832 49.2961 7 50.4247 7C51.5533 7 52.6356 7.44832 53.4337 8.24635C54.2317 9.04438 54.68 10.1267 54.68 11.2553V12.9574C54.7089 13.5339 54.6202 14.1102 54.4193 14.6513C54.2184 15.1924 53.9095 15.687 53.5115 16.1049C53.1134 16.5229 52.6345 16.8555 52.1038 17.0825C51.5732 17.3096 51.0019 17.4262 50.4247 17.4255ZM50.4247 8.91489C50.1265 8.91339 49.8312 8.97462 49.5582 9.09459C49.2851 9.21457 49.0403 9.39062 48.8397 9.61131C48.6391 9.832 48.4871 10.0924 48.3936 10.3756C48.3001 10.6588 48.2672 10.9586 48.297 11.2553V12.9574C48.297 13.5217 48.5212 14.0629 48.9202 14.4619C49.3192 14.8609 49.8604 15.0851 50.4247 15.0851C50.989 15.0851 51.5302 14.8609 51.9292 14.4619C52.3282 14.0629 52.5524 13.5217 52.5524 12.9574V11.2553C52.5822 10.9586 52.5493 10.6588 52.4558 10.3756C52.3623 10.0924 52.2103 9.832 52.0097 9.61131C51.8091 9.39062 51.5643 9.21457 51.2912 9.09459C51.0182 8.97462 50.723 8.91339 50.4247 8.91489Z" fill="#404040"/>
<path d="M46.1918 45.0851C45.9096 45.0851 45.639 44.973 45.4395 44.7735C45.24 44.574 45.1279 44.3034 45.1279 44.0213V25.9361C45.1279 25.654 45.24 25.3834 45.4395 25.1839C45.639 24.9844 45.9096 24.8723 46.1918 24.8723C46.4739 24.8723 46.7445 24.9844 46.944 25.1839C47.1435 25.3834 47.2556 25.654 47.2556 25.9361V44.0213C47.2556 44.3034 47.1435 44.574 46.944 44.7735C46.7445 44.973 46.4739 45.0851 46.1918 45.0851Z" fill="#404040"/>
<path d="M50.4252 45.0851C50.143 45.0851 49.8724 44.973 49.6729 44.7735C49.4734 44.574 49.3613 44.3034 49.3613 44.0212V33.383C49.3613 33.1008 49.4734 32.8302 49.6729 32.6307C49.8724 32.4312 50.143 32.3191 50.4252 32.3191C50.7073 32.3191 50.9779 32.4312 51.1774 32.6307C51.3769 32.8302 51.489 33.1008 51.489 33.383V44.0212C51.489 44.3034 51.3769 44.574 51.1774 44.7735C50.9779 44.973 50.7073 45.0851 50.4252 45.0851Z" fill="#404040"/>
<path d="M54.6809 34.4468C54.3987 34.4468 54.1281 34.3347 53.9286 34.1352C53.7291 33.9357 53.617 33.6651 53.617 33.383C53.617 33.1008 53.7291 32.8303 53.9286 32.6307C54.1281 32.4312 54.3987 32.3192 54.6809 32.3192C55.7447 32.3192 57.8724 31.883 57.8724 30.1915V23.8085C57.8724 20.9362 54.1489 20.617 52.5532 20.617H48.2979C45.1064 20.617 42.9787 22.0851 42.9787 24.2553V30.1915C42.9787 31.883 45.1064 32.3192 46.1702 32.3192C46.4524 32.3192 46.723 32.4312 46.9225 32.6307C47.122 32.8303 47.2341 33.1008 47.2341 33.383C47.2341 33.6651 47.122 33.9357 46.9225 34.1352C46.723 34.3347 46.4524 34.4468 46.1702 34.4468C43.5319 34.4468 40.8511 32.9894 40.8511 30.1915V24.2766C40.8511 21.5 43.1809 18.5107 48.2979 18.5107H52.5532C58.0426 18.5107 60 21.266 60 23.8298V30.2128C60 32.9894 57.3724 34.4468 54.6809 34.4468Z" fill="#404040"/>
<path d="M32.3404 56.7872H30.2128C29.9306 56.7872 29.66 56.6752 29.4605 56.4756C29.261 56.2761 29.1489 56.0056 29.1489 55.7234C29.1489 55.4413 29.261 55.1707 29.4605 54.9712C29.66 54.7717 29.9306 54.6596 30.2128 54.6596H32.3404C32.6226 54.6596 32.8931 54.7717 33.0927 54.9712C33.2922 55.1707 33.4042 55.4413 33.4042 55.7234C33.4042 56.0056 33.2922 56.2761 33.0927 56.4756C32.8931 56.6752 32.6226 56.7872 32.3404 56.7872Z" fill="#FA4616"/>
<path d="M37.6598 52.5319H35.5321C35.2499 52.5319 34.9794 52.4198 34.7798 52.2203C34.5803 52.0208 34.4683 51.7502 34.4683 51.4681C34.4683 51.1859 34.5803 50.9153 34.7798 50.7158C34.9794 50.5163 35.2499 50.4042 35.5321 50.4042H37.6598C37.9419 50.4042 38.2125 50.5163 38.412 50.7158C38.6115 50.9153 38.7236 51.1859 38.7236 51.4681C38.7236 51.7502 38.6115 52.0208 38.412 52.2203C38.2125 52.4198 37.9419 52.5319 37.6598 52.5319Z" fill="#FA4616"/>
<path d="M42.9786 48.2766H40.8509C40.5688 48.2766 40.2982 48.1645 40.0987 47.965C39.8992 47.7655 39.7871 47.4949 39.7871 47.2128C39.7871 46.9306 39.8992 46.66 40.0987 46.4605C40.2982 46.261 40.5688 46.1489 40.8509 46.1489H42.9786C43.2607 46.1489 43.5313 46.261 43.7308 46.4605C43.9303 46.66 44.0424 46.9306 44.0424 47.2128C44.0424 47.4949 43.9303 47.7655 43.7308 47.965C43.5313 48.1645 43.2607 48.2766 42.9786 48.2766Z" fill="#FA4616"/>
</svg>
