<svg width="64" height="64" viewBox="0 0 64 64" fill="none" xmlns="http://www.w3.org/2000/svg">
<path d="M25.4964 55.2712C25.3766 55.2699 25.2575 55.2524 25.1423 55.2191C25.0129 55.1736 24.8937 55.1029 24.7916 55.0112C24.6896 54.9195 24.6066 54.8085 24.5476 54.6846C24.4885 54.5607 24.4546 54.4264 24.4476 54.2894C24.4407 54.1523 24.4609 54.0153 24.5071 53.886L25.8922 49.9598C26.3048 49.0877 26.9407 48.3403 27.7355 47.7935C28.5333 47.2501 29.1786 46.5116 29.6102 45.6482C29.6553 45.5189 29.7254 45.3998 29.8166 45.2977C29.9078 45.1956 30.0181 45.1124 30.1414 45.0529C30.2647 44.9934 30.3985 44.9588 30.5352 44.9511C30.6719 44.9433 30.8088 44.9626 30.938 45.0077C31.0672 45.0528 31.1863 45.123 31.2885 45.2141C31.3906 45.3053 31.4738 45.4156 31.5333 45.5389C31.5927 45.6622 31.6273 45.7961 31.6351 45.9327C31.6429 46.0694 31.6236 46.2063 31.5785 46.3355C31.0337 47.561 30.1707 48.6183 29.079 49.3974C28.5965 49.7354 28.18 50.159 27.8501 50.6471L26.4754 54.5734C26.4044 54.7766 26.2721 54.9528 26.0968 55.0778C25.9214 55.2028 25.7117 55.2703 25.4964 55.2712Z" fill="#404040"/>
<path d="M11.7389 51.4803C11.6594 51.4904 11.5789 51.4904 11.4994 51.4803C11.366 51.4496 11.2399 51.3929 11.1285 51.3135C11.017 51.234 10.9223 51.1334 10.8498 51.0174C10.7772 50.9013 10.7283 50.772 10.7057 50.637C10.6831 50.502 10.6874 50.3639 10.7183 50.2306L11.4265 47.2312C11.5919 46.4907 11.4885 45.7155 11.1349 45.0441C10.1735 43.0018 9.47371 40.8464 9.05196 38.6288C9.04193 38.5458 9.04193 38.4619 9.05196 38.3789C9.05196 38.3164 9.37481 31.8073 9.1561 29.9015C9.13307 29.7176 9.15954 29.5308 9.23277 29.3606C9.306 29.1903 9.42334 29.0427 9.57268 28.9329C9.98006 28.6031 10.4569 28.3698 10.9674 28.2508C11.4779 28.1317 12.0087 28.13 12.52 28.2456C13.0559 28.3973 13.5532 28.6615 13.9788 29.0207C14.4045 29.3799 14.7486 29.8257 14.9882 30.3285C15.5812 31.9935 16.0238 33.7084 16.3109 35.4524C17.5947 36.109 18.6861 37.0876 19.4783 38.2924C20.2706 39.4972 20.7366 40.8871 20.8308 42.326C20.8378 42.4628 20.8177 42.5996 20.7718 42.7287C20.7258 42.8577 20.6549 42.9764 20.5629 43.078C20.471 43.1796 20.36 43.262 20.2362 43.3206C20.1124 43.3792 19.9782 43.4128 19.8414 43.4195C19.5668 43.4337 19.2977 43.3388 19.0929 43.1554C18.888 42.972 18.764 42.715 18.7479 42.4405C18.6501 41.2969 18.2493 40.1999 17.5866 39.2627C16.924 38.3254 16.0234 37.5818 14.9778 37.1083C14.8165 37.041 14.6747 36.9342 14.5655 36.7977C14.4563 36.6612 14.3832 36.4994 14.3529 36.3272C14.0792 34.5977 13.6612 32.8942 13.1032 31.2345C13.0094 30.9993 12.8687 30.7856 12.6897 30.6066C12.5106 30.4275 12.297 30.2868 12.0617 30.1931C11.8137 30.1405 11.5554 30.166 11.3223 30.266C11.4473 32.6405 11.2182 37.4207 11.1765 38.2851C11.5571 40.26 12.1797 42.1803 13.0303 44.0027C13.6253 45.1161 13.7955 46.4078 13.5094 47.6374L12.8012 50.6367C12.7541 50.8811 12.6211 51.1004 12.4262 51.2552C12.2314 51.4099 11.9875 51.4898 11.7389 51.4803Z" fill="#404040"/>
<path d="M16.5192 37.8686C16.4051 37.8836 16.2896 37.8836 16.1755 37.8686C16.0461 37.8231 15.9269 37.7524 15.8248 37.6607C15.7228 37.569 15.6398 37.458 15.5808 37.3341C15.5218 37.2103 15.4878 37.0759 15.4808 36.9389C15.4739 36.8018 15.4941 36.6647 15.5403 36.5355L17.1233 32.0052C17.1688 31.8758 17.2394 31.7566 17.3311 31.6545C17.4229 31.5524 17.5339 31.4695 17.6577 31.4105C17.7816 31.3514 17.9159 31.3175 18.053 31.3105C18.19 31.3036 18.3271 31.3238 18.4563 31.3699C18.5858 31.4155 18.705 31.4861 18.807 31.5778C18.9091 31.6695 18.992 31.7805 19.0511 31.9044C19.1101 32.0283 19.1441 32.1626 19.151 32.2997C19.158 32.4367 19.1378 32.5738 19.0916 32.703L17.4982 37.2229C17.4187 37.4164 17.2828 37.5815 17.1082 37.6966C16.9336 37.8118 16.7284 37.8717 16.5192 37.8686V37.8686Z" fill="#404040"/>
<path d="M46.0024 28.4227C45.8003 28.4243 45.6021 28.367 45.4319 28.2579C45.2618 28.1488 45.1271 27.9926 45.0443 27.8082L40.8785 18.2789C40.7469 18.0264 40.5228 17.8345 40.253 17.7432C39.9833 17.652 39.6887 17.6686 39.4308 17.7894L37.5979 18.5914C37.4728 18.6468 37.3379 18.6771 37.2011 18.6804C37.0643 18.6838 36.9281 18.6601 36.8004 18.6108C36.6728 18.5614 36.5561 18.4874 36.457 18.393C36.358 18.2985 36.2785 18.1854 36.2232 18.0602C36.1677 17.9351 36.1374 17.8003 36.1341 17.6634C36.1308 17.5266 36.1545 17.3905 36.2038 17.2628C36.2531 17.1351 36.3271 17.0184 36.4216 16.9193C36.5161 16.8203 36.6291 16.7408 36.7543 16.6855L38.5873 15.8836C39.3476 15.554 40.206 15.5316 40.9826 15.8208C41.7591 16.1101 42.3936 16.6887 42.7531 17.4354L46.9709 26.9646C47.0264 27.0897 47.0567 27.2246 47.06 27.3614C47.0633 27.4983 47.0397 27.6344 46.9903 27.7621C46.941 27.8898 46.867 28.0065 46.7725 28.1055C46.6781 28.2046 46.565 28.284 46.4398 28.3393C46.3006 28.3944 46.1522 28.4227 46.0024 28.4227V28.4227Z" fill="#404040"/>
<path d="M37.9626 30.8284C37.7593 30.8291 37.5603 30.7703 37.39 30.6593C37.2198 30.5482 37.0857 30.3898 37.0044 30.2035L31.943 18.7475C31.6064 18.0009 31.5765 17.152 31.8597 16.3835C32.0013 15.9986 32.2191 15.6462 32.5001 15.3473C32.781 15.0485 33.1193 14.8094 33.4947 14.6442C34.253 14.3081 35.1127 14.282 35.8901 14.5713C36.2814 14.7111 36.6402 14.9291 36.9445 15.212C37.2489 15.4949 37.4925 15.8368 37.6605 16.2168L42.722 27.6728C42.7774 27.7979 42.8076 27.9327 42.8109 28.0696C42.8141 28.2064 42.7904 28.3425 42.7411 28.4701C42.6918 28.5978 42.6178 28.7145 42.5234 28.8136C42.429 28.9126 42.316 28.9921 42.1908 29.0475C42.0657 29.1029 41.9309 29.1331 41.7941 29.1364C41.6573 29.1397 41.5211 29.116 41.3935 29.0666C41.2658 29.0173 41.1491 28.9433 41.0501 28.8489C40.951 28.7545 40.8715 28.6415 40.8161 28.5164L35.7547 17.0604C35.6396 16.8098 35.4299 16.615 35.1715 16.5188C34.9036 16.4143 34.6062 16.4143 34.3383 16.5188C34.2188 16.5711 34.1111 16.6469 34.0216 16.7417C33.9322 16.8366 33.8627 16.9485 33.8176 17.0708C33.7646 17.1978 33.7373 17.3341 33.7373 17.4718C33.7373 17.6094 33.7646 17.7457 33.8176 17.8727L38.879 29.3287C38.9345 29.4538 38.9648 29.5887 38.9681 29.7255C38.9714 29.8623 38.9478 29.9985 38.8984 30.1261C38.8491 30.2538 38.7751 30.3705 38.6806 30.4696C38.5862 30.5686 38.4731 30.6481 38.3479 30.7034C38.2289 30.7699 38.0979 30.8123 37.9626 30.8284V30.8284Z" fill="#404040"/>
<path d="M55.9066 45.669C55.7045 45.6706 55.5063 45.6134 55.3361 45.5043C55.166 45.3952 55.0313 45.2389 54.9484 45.0546L53.2717 41.2429C52.9818 40.3225 52.9387 39.342 53.1467 38.3997C53.3478 37.4574 53.3084 36.4796 53.0322 35.5566L46.3252 20.4139C46.2034 20.1691 45.9902 19.9821 45.7316 19.8932C45.4539 19.7835 45.1449 19.7835 44.8672 19.8932L43.0447 20.7055C42.9195 20.761 42.7847 20.7912 42.6479 20.7946C42.511 20.7979 42.3749 20.7742 42.2472 20.7249C42.1195 20.6756 42.0028 20.6015 41.9038 20.5071C41.8047 20.4126 41.7253 20.2995 41.6699 20.1744C41.6145 20.0492 41.5842 19.9144 41.5809 19.7775C41.5775 19.6407 41.6012 19.5046 41.6505 19.3769C41.6999 19.2492 41.7739 19.1325 41.8684 19.0335C41.9628 18.9344 42.0759 18.855 42.2011 18.7996L44.0236 17.9977C44.7829 17.6553 45.6457 17.6217 46.4294 17.904C46.8264 18.0401 47.1913 18.2564 47.5012 18.5395C47.8112 18.8226 48.0596 19.1663 48.2311 19.5495L54.938 34.7026C55.3796 35.9668 55.4732 37.3265 55.2088 38.6393C55.0999 39.2174 55.0999 39.8107 55.2088 40.3889L56.8959 44.2006C56.9514 44.3257 56.9817 44.4606 56.985 44.5974C56.9883 44.7342 56.9647 44.8704 56.9153 44.998C56.866 45.1257 56.792 45.2424 56.6975 45.3415C56.6031 45.4405 56.49 45.52 56.3648 45.5753C56.2211 45.6409 56.0644 45.6729 55.9066 45.669Z" fill="#404040"/>
<path d="M35.1714 45.2941C34.9849 45.2912 34.8022 45.241 34.6403 45.1483C33.4218 44.4089 32.5574 43.7736 32.5574 43.7423C32.4877 43.6954 32.4246 43.6394 32.3699 43.5757C32.3699 43.5757 28.1104 38.5663 26.6419 37.327C26.4916 37.2038 26.3788 37.0409 26.3162 36.8568C26.2536 36.6728 26.2438 36.4749 26.2878 36.2856C26.3549 35.7649 26.541 35.2666 26.8318 34.8295C27.1226 34.3924 27.5102 34.0283 27.9646 33.7653C28.4647 33.5106 29.0138 33.3666 29.5745 33.3433C30.1352 33.3199 30.6944 33.4177 31.2139 33.6299C32.4843 34.2523 33.6941 34.9914 34.8277 35.8377L34.8902 35.5878L29.4122 23.2154C29.2492 22.851 29.1598 22.4581 29.1491 22.0591C29.1384 21.6601 29.2066 21.2629 29.3498 20.8903C29.493 20.5178 29.7084 20.1772 29.9836 19.8881C30.2588 19.599 30.5885 19.3671 30.9535 19.2058L32.9427 18.3206C33.1954 18.2087 33.4823 18.2018 33.7401 18.3014C33.9979 18.401 34.2056 18.599 34.3174 18.8517C34.4293 19.1044 34.4362 19.3912 34.3366 19.6491C34.237 19.9069 34.039 20.1146 33.7863 20.2264L31.7971 21.1116C31.5655 21.2143 31.384 21.4045 31.2922 21.6407C31.2005 21.8768 31.206 22.1397 31.3076 22.3718L36.9315 35.0671C37.0228 35.2732 37.0447 35.5035 36.9939 35.7232L36.5045 37.8061C36.4649 37.974 36.3843 38.1295 36.2697 38.2586C36.1552 38.3877 36.0104 38.4863 35.8484 38.5455C35.6859 38.6043 35.5113 38.6218 35.3404 38.5963C35.1695 38.5709 35.0077 38.5033 34.8694 38.3997C33.481 37.3303 32.0077 36.3759 30.4641 35.5461C30.2302 35.44 29.9763 35.3851 29.7194 35.3851C29.4626 35.3851 29.2087 35.44 28.9748 35.5461C28.7563 35.6743 28.5875 35.8725 28.4957 36.1085C30.2037 37.7436 33.3176 41.3782 33.88 42.0344C34.13 42.2218 34.8486 42.7113 35.7546 43.2633C35.8728 43.3339 35.9757 43.4272 36.0576 43.5379C36.1394 43.6486 36.1985 43.7744 36.2314 43.908C36.2644 44.0417 36.2705 44.1805 36.2494 44.3165C36.2283 44.4526 36.1805 44.5831 36.1087 44.7005C36.0243 44.8777 35.8915 45.0275 35.7257 45.1325C35.5599 45.2375 35.3677 45.2935 35.1714 45.2941V45.2941Z" fill="#404040"/>
<path d="M12.1658 15.3316C11.3419 15.3316 10.5365 15.0873 9.85141 14.6295C9.16634 14.1718 8.6324 13.5212 8.3171 12.76C8.0018 11.9988 7.91931 11.1612 8.08005 10.3531C8.24078 9.54502 8.63754 8.80274 9.22013 8.22015C9.80273 7.63755 10.545 7.24078 11.3531 7.08004C12.1612 6.91931 12.9988 7.00181 13.76 7.31711C14.5212 7.63241 15.1718 8.16635 15.6295 8.85141C16.0873 9.53647 16.3316 10.3419 16.3316 11.1658C16.3316 12.2706 15.8927 13.3302 15.1115 14.1115C14.3302 14.8927 13.2706 15.3316 12.1658 15.3316ZM12.1658 9.0829C11.7538 9.0829 11.3511 9.20507 11.0086 9.43394C10.6661 9.66281 10.3991 9.98811 10.2415 10.3687C10.0838 10.7493 10.0426 11.1681 10.1229 11.5722C10.2033 11.9762 10.4017 12.3473 10.693 12.6386C10.9843 12.9299 11.3554 13.1283 11.7594 13.2087C12.1635 13.2891 12.5823 13.2478 12.9629 13.0902C13.3435 12.9325 13.6688 12.6655 13.8977 12.323C14.1265 11.9805 14.2487 11.5778 14.2487 11.1658C14.2487 10.6134 14.0293 10.0836 13.6386 9.69297C13.248 9.30235 12.7182 9.0829 12.1658 9.0829Z" fill="#FA4616"/>
<path d="M52.2617 18.4559C51.3348 18.4559 50.4287 18.1811 49.658 17.6661C48.8873 17.1512 48.2866 16.4192 47.9319 15.5629C47.5772 14.7065 47.4844 13.7642 47.6652 12.8551C47.8461 11.946 48.2924 11.111 48.9478 10.4555C49.6033 9.80012 50.4383 9.35377 51.3474 9.17294C52.2565 8.99211 53.1988 9.08491 54.0552 9.43963C54.9115 9.79434 55.6435 10.395 56.1584 11.1657C56.6734 11.9364 56.9482 12.8425 56.9482 13.7694C56.9455 15.0115 56.4508 16.2019 55.5726 17.0802C54.6943 17.9585 53.5038 18.4532 52.2617 18.4559V18.4559ZM52.2617 11.1658C51.7468 11.1658 51.2434 11.3185 50.8152 11.6046C50.3871 11.8907 50.0534 12.2973 49.8563 12.773C49.6592 13.2488 49.6077 13.7723 49.7081 14.2774C49.8086 14.7824 50.0566 15.2463 50.4207 15.6105C50.7848 15.9746 51.2487 16.2225 51.7538 16.323C52.2588 16.4235 52.7823 16.3719 53.2581 16.1749C53.7338 15.9778 54.1405 15.6441 54.4266 15.2159C54.7126 14.7877 54.8653 14.2844 54.8653 13.7694C54.8653 13.0789 54.591 12.4166 54.1028 11.9284C53.6145 11.4401 52.9522 11.1658 52.2617 11.1658Z" fill="#FA4616"/>
<path d="M23.8301 17.6853C23.6105 17.6851 23.3965 17.6155 23.2188 17.4865C23.0411 17.3574 22.9088 17.1755 22.8407 16.9667C22.4539 15.7989 22.4931 14.5318 22.9513 13.3901C23.4095 12.2484 24.2571 11.3058 25.3439 10.7293C26.4307 10.1529 27.6864 9.9798 28.8886 10.2408C30.0908 10.5018 31.1618 11.18 31.9118 12.1552C32.0605 12.3746 32.12 12.6425 32.0781 12.9042C32.0362 13.166 31.8961 13.4019 31.6863 13.564C31.4764 13.726 31.2127 13.8019 30.9489 13.7762C30.685 13.7505 30.4409 13.6252 30.2663 13.4257C29.8173 12.8381 29.1745 12.4287 28.4521 12.2704C27.7297 12.1121 26.9746 12.2152 26.3211 12.5613C25.6676 12.9075 25.158 13.4742 24.8831 14.1607C24.6081 14.8472 24.5856 15.609 24.8195 16.3106C24.8634 16.4411 24.8809 16.5791 24.8711 16.7165C24.8613 16.8539 24.8243 16.988 24.7623 17.111C24.7003 17.234 24.6146 17.3435 24.51 17.4332C24.4054 17.5228 24.284 17.5908 24.1529 17.6332C24.0483 17.6656 23.9396 17.6832 23.8301 17.6853Z" fill="#FA4616"/>
<path d="M23.6216 31.9948C22.6437 31.9942 21.6856 31.7182 20.8572 31.1984C20.0288 30.6787 19.3635 29.9362 18.9375 29.0559C18.5115 28.1756 18.342 27.1931 18.4484 26.221C18.5548 25.2489 18.9328 24.3263 19.5391 23.559C19.619 23.4389 19.7229 23.3367 19.8442 23.2589C19.9656 23.181 20.1019 23.1292 20.2444 23.1068C20.3868 23.0843 20.5324 23.0917 20.6718 23.1285C20.8113 23.1652 20.9416 23.2305 21.0545 23.3203C21.1674 23.41 21.2604 23.5222 21.3277 23.6498C21.3949 23.7773 21.435 23.9175 21.4452 24.0613C21.4555 24.2052 21.4358 24.3496 21.3874 24.4854C21.3389 24.6213 21.2628 24.7455 21.1638 24.8504C20.7302 25.4029 20.4954 26.0853 20.4973 26.7875C20.4973 27.6161 20.8264 28.4108 21.4124 28.9968C21.9983 29.5827 22.793 29.9119 23.6216 29.9119C24.0559 29.9102 24.4851 29.818 24.8818 29.6411C25.4354 29.397 25.9063 28.9975 26.2373 28.4909C26.5682 27.9843 26.7449 27.3926 26.746 26.7875C26.746 26.5113 26.8557 26.2464 27.051 26.0511C27.2463 25.8558 27.5112 25.7461 27.7874 25.7461C28.0636 25.7461 28.3285 25.8558 28.5238 26.0511C28.7191 26.2464 28.8288 26.5113 28.8288 26.7875C28.8288 28.1686 28.2802 29.493 27.3037 30.4696C26.3271 31.4461 25.0026 31.9948 23.6216 31.9948V31.9948Z" fill="#FA4616"/>
<path d="M22.5802 25.7461C20.923 25.7461 19.3336 25.0877 18.1617 23.9159C16.9899 22.744 16.3315 21.1546 16.3315 19.4974C16.3315 17.8401 16.9899 16.2508 18.1617 15.0789C19.3336 13.907 20.923 13.2487 22.5802 13.2487C23.0321 13.2567 23.4821 13.309 23.9237 13.4049C24.0605 13.4323 24.1905 13.4863 24.3064 13.5639C24.4223 13.6415 24.5217 13.7412 24.5991 13.8572C24.6765 13.9733 24.7302 14.1034 24.7573 14.2403C24.7844 14.3771 24.7842 14.5179 24.7569 14.6547C24.7295 14.7914 24.6755 14.9215 24.5979 15.0373C24.5203 15.1532 24.4206 15.2527 24.3046 15.3301C24.1885 15.4074 24.0583 15.4612 23.9215 15.4882C23.7847 15.5153 23.6439 15.5152 23.5071 15.4878C23.2024 15.4211 22.8921 15.3827 22.5802 15.3733C21.4754 15.4202 20.4345 15.9041 19.6864 16.7186C18.9384 17.533 18.5445 18.6113 18.5915 19.7161C18.6384 20.8209 19.1224 21.8619 19.9368 22.6099C20.7513 23.3579 21.8295 23.7518 22.9343 23.7049C23.0712 23.6935 23.2089 23.7092 23.3397 23.7513C23.4704 23.7934 23.5915 23.8609 23.696 23.9499C23.8006 24.039 23.8865 24.1478 23.9488 24.2702C24.0111 24.3926 24.0486 24.5261 24.0591 24.663C24.0705 24.7998 24.0547 24.9376 24.0126 25.0683C23.9706 25.199 23.9031 25.3202 23.814 25.4247C23.725 25.5292 23.6161 25.6151 23.4938 25.6774C23.3714 25.7397 23.2379 25.7772 23.101 25.7878L22.5802 25.7461Z" fill="#FA4616"/>
<path d="M40.2848 14.1652C40.0289 14.167 39.7813 14.0746 39.5892 13.9056C39.3972 13.7365 39.274 13.5027 39.2433 13.2487C39.1133 12.2329 38.6549 11.2874 37.9379 10.5562C37.2208 9.82502 36.2844 9.34824 35.2713 9.19846C34.2583 9.04868 33.224 9.23411 32.326 9.72651C31.4281 10.2189 30.7157 10.9913 30.2973 11.9261C30.1854 12.1788 29.9777 12.3767 29.7199 12.4763C29.4621 12.5759 29.1753 12.5691 28.9226 12.4572C28.6698 12.3453 28.4719 12.1376 28.3723 11.8798C28.2727 11.622 28.2796 11.3352 28.3914 11.0825C28.9898 9.72561 30.0172 8.6028 31.3157 7.88656C32.6142 7.17031 34.112 6.90028 35.5789 7.11794C37.0457 7.33561 38.4006 8.02894 39.4352 9.09138C40.4697 10.1538 41.1268 11.5266 41.3054 12.9987C41.3378 13.2721 41.2606 13.5471 41.0909 13.7637C40.9211 13.9803 40.6725 14.1209 40.3993 14.1548L40.2848 14.1652Z" fill="#FA4616"/>
<path d="M54.865 56.9896H47.5749V54.9067H54.865C54.865 54.9067 54.865 54.7817 54.865 54.688L44.4505 38.2435L34.036 54.688C34.0136 54.722 34.0017 54.7618 34.0017 54.8025C34.0017 54.8433 34.0136 54.8831 34.036 54.9171H41.3262V57H34.036C33.6659 56.9993 33.3031 56.8969 32.9873 56.7041C32.6714 56.5112 32.4145 56.2353 32.2447 55.9065C32.0466 55.5487 31.9487 55.144 31.9616 54.7352C31.9744 54.3264 32.0974 53.9287 32.3176 53.584L42.7321 37.1395C42.9127 36.8444 43.1659 36.6005 43.4677 36.4313C43.7695 36.2621 44.1098 36.1733 44.4557 36.1733C44.8017 36.1733 45.1419 36.2621 45.4437 36.4313C45.7455 36.6005 45.9988 36.8444 46.1793 37.1395L56.5938 53.584C56.8119 53.9295 56.9337 54.327 56.9465 54.7353C56.9593 55.1437 56.8627 55.548 56.6667 55.9065C56.4894 56.2306 56.2292 56.5017 55.9125 56.692C55.5959 56.8823 55.2344 56.985 54.865 56.9896Z" fill="#404040"/>
<path d="M45.4921 44.4922H43.4092V52.8238H45.4921V44.4922Z" fill="#FA4616"/>
<path d="M45.4921 54.9067H43.4092V56.9896H45.4921V54.9067Z" fill="#FA4616"/>
</svg>
