<svg width="64" height="64" viewBox="0 0 64 64" fill="none" xmlns="http://www.w3.org/2000/svg">
<path d="M19.2483 56.9882C18.9721 57.0297 18.6908 56.9597 18.4662 56.7937C18.2416 56.6277 18.0921 56.3792 18.0507 56.103C18.0093 55.8268 18.0793 55.5455 18.2453 55.3209C18.4113 55.0963 18.6597 54.9468 18.9359 54.9054L22.6954 53.7078C23.1729 53.6172 23.6061 53.3688 23.9253 53.0023C24.2445 52.6359 24.4312 52.1728 24.4555 51.6874V47.0739C24.4555 46.7977 24.5652 46.5328 24.7605 46.3375C24.9558 46.1422 25.2207 46.0325 25.4969 46.0325C25.7731 46.0325 26.038 46.1422 26.2333 46.3375C26.4286 46.5328 26.5383 46.7977 26.5383 47.0739V51.729C26.5274 52.6699 26.1982 53.5794 25.6044 54.3093C25.0106 55.0393 24.1872 55.5467 23.2682 55.7489L19.5712 56.9362C19.4665 56.9686 19.3579 56.9861 19.2483 56.9882V56.9882Z" fill="#404040"/>
<path d="M44.2426 56.9882C44.139 57.0039 44.0337 57.0039 43.9302 56.9882L40.1602 55.7906C39.2545 55.5766 38.4466 55.0655 37.8652 54.3388C37.2839 53.6121 36.9626 52.7117 36.9526 51.7811V47.0739C36.9526 46.7977 37.0624 46.5328 37.2577 46.3375C37.453 46.1422 37.7179 46.0325 37.9941 46.0325C38.2703 46.0325 38.5352 46.1422 38.7305 46.3375C38.9258 46.5328 39.0355 46.7977 39.0355 47.0739V51.729C39.0464 52.2064 39.2209 52.6656 39.53 53.0296C39.839 53.3936 40.2637 53.6404 40.733 53.7286L44.5654 54.947C44.6962 54.9885 44.8176 55.0553 44.9225 55.1437C45.0273 55.2322 45.1137 55.3405 45.1766 55.4624C45.2395 55.5844 45.2777 55.7175 45.289 55.8543C45.3003 55.991 45.2844 56.1286 45.2424 56.2592C45.1756 56.4717 45.0424 56.6571 44.8625 56.7883C44.6825 56.9195 44.4653 56.9896 44.2426 56.9882Z" fill="#404040"/>
<path d="M13.0833 56.9882L13 23.6627C13 14.467 21.4147 7 31.7456 7C42.0765 7 50.4912 14.467 50.4912 23.6627V56.9882H48.4083V23.6627C48.4083 15.623 40.9309 9.08284 31.7456 9.08284C22.5602 9.08284 15.0828 15.623 15.0828 23.6627L15.1662 56.9882H13.0833Z" fill="#404040"/>
<path d="M44.2427 30.9527C43.9665 30.9527 43.7016 30.843 43.5063 30.6476C43.311 30.4523 43.2012 30.1875 43.2012 29.9113V27.2452C40.7074 25.0236 37.5699 23.6555 34.245 23.3399C28.1215 23.0066 24.1641 19.9136 24.1641 15.4772C24.1641 15.2009 24.2738 14.9361 24.4691 14.7408C24.6644 14.5455 24.9293 14.4357 25.2055 14.4357C25.4817 14.4357 25.7466 14.5455 25.9419 14.7408C26.1372 14.9361 26.2469 15.2009 26.2469 15.4772C26.2469 18.768 29.3712 20.9863 34.3596 21.257C38.3356 21.6246 42.0746 23.3108 44.9821 26.0476L45.2841 26.3496V29.9113C45.2841 30.1875 45.1744 30.4523 44.9791 30.6476C44.7838 30.843 44.5189 30.9527 44.2427 30.9527Z" fill="#404040"/>
<path d="M20.29 30.9527C20.0138 30.9527 19.7489 30.843 19.5536 30.6477C19.3583 30.4524 19.2485 30.1875 19.2485 29.9113V26.787C19.2485 23.2358 22.3728 20.7468 24.4556 19.0909C24.9035 18.7368 25.3096 18.4244 25.622 18.1328C25.7232 18.0384 25.842 17.9649 25.9716 17.9165C26.1013 17.868 26.2391 17.8456 26.3774 17.8504C26.5157 17.8552 26.6517 17.8873 26.7776 17.9447C26.9035 18.002 27.0169 18.0837 27.1113 18.1849C27.2056 18.2861 27.2791 18.4049 27.3276 18.5345C27.376 18.6641 27.3985 18.802 27.3937 18.9403C27.3888 19.0786 27.3568 19.2145 27.2994 19.3405C27.242 19.4664 27.1604 19.5797 27.0592 19.6741C26.7155 19.9865 26.2781 20.3406 25.7783 20.7155C23.9349 22.1631 21.3314 24.2459 21.3314 26.787V29.9113C21.3314 30.1875 21.2217 30.4524 21.0264 30.6477C20.831 30.843 20.5662 30.9527 20.29 30.9527Z" fill="#404040"/>
<path d="M33.6411 49.6983H29.8503C27.7674 49.6983 22.3937 46.3866 20.7795 45.366C20.6309 45.2731 20.5082 45.1443 20.4226 44.9913C20.337 44.8384 20.2914 44.6664 20.29 44.4912V34.077C20.29 33.8008 20.3998 33.5359 20.5951 33.3406C20.7904 33.1453 21.0553 33.0355 21.3315 33.0355C22.9618 32.8966 24.57 32.5645 26.122 32.0462C27.9437 31.4489 29.8329 31.0816 31.7457 30.9527C33.6586 31.0805 35.5479 31.4478 37.3693 32.0462C38.9216 32.5636 40.5296 32.8956 42.1599 33.0355C42.4361 33.0355 42.701 33.1453 42.8963 33.3406C43.0916 33.5359 43.2013 33.8008 43.2013 34.077V44.4912C43.1999 44.6664 43.1543 44.8384 43.0688 44.9913C42.9832 45.1443 42.8604 45.2731 42.7118 45.366C41.0976 46.3866 35.6823 49.6983 33.6411 49.6983ZM22.3729 43.908C25.3513 45.7409 28.9234 47.6154 29.8503 47.6154H33.6411C34.5784 47.6154 38.14 45.7409 41.1185 43.908V35.0455C39.6596 34.8189 38.2187 34.4883 36.807 34.0561C35.1667 33.511 33.4679 33.1615 31.7457 33.0147C30.0235 33.1615 28.3246 33.511 26.6844 34.0561C25.2732 34.4905 23.8322 34.8211 22.3729 35.0455V43.908Z" fill="#FA4616"/>
<path d="M21.3315 35.1184C21.1795 35.1189 21.0296 35.0832 20.8941 35.0142L16.4264 32.9314C16.1817 32.8108 15.994 32.599 15.9038 32.3416C15.8136 32.0841 15.828 31.8015 15.944 31.5545C16.06 31.3076 16.2682 31.116 16.524 31.021C16.7797 30.926 17.0625 30.9351 17.3116 31.0464L21.7793 33.1293C21.997 33.2284 22.174 33.3995 22.2805 33.6138C22.3869 33.828 22.4163 34.0724 22.3638 34.3058C22.3112 34.5392 22.1799 34.7474 21.9919 34.8954C21.8039 35.0434 21.5707 35.1221 21.3315 35.1184V35.1184Z" fill="#FA4616"/>
<path d="M21.3312 45.5326C21.0866 45.5301 20.8506 45.4417 20.6647 45.2826L16.499 41.7626C16.3943 41.6745 16.3081 41.5665 16.2451 41.445C16.1822 41.3235 16.1438 41.1907 16.1322 41.0543C16.1206 40.918 16.136 40.7806 16.1775 40.6502C16.219 40.5198 16.2858 40.3988 16.3741 40.2942C16.4622 40.1895 16.5702 40.1033 16.6917 40.0403C16.8132 39.9774 16.946 39.939 17.0824 39.9274C17.2187 39.9158 17.3561 39.9312 17.4865 39.9727C17.6169 40.0142 17.7379 40.081 17.8425 40.1693L22.0082 43.6893C22.1129 43.7774 22.1992 43.8854 22.2621 44.0069C22.3251 44.1284 22.3634 44.2612 22.375 44.3976C22.3866 44.5339 22.3712 44.6713 22.3297 44.8017C22.2882 44.9321 22.2214 45.0531 22.1331 45.1577C22.0352 45.2752 21.9126 45.3698 21.774 45.4346C21.6354 45.4994 21.4842 45.5328 21.3312 45.5326Z" fill="#FA4616"/>
<path d="M42.16 35.1184C41.9626 35.1169 41.7696 35.0593 41.6037 34.9524C41.4378 34.8454 41.3056 34.6935 41.2227 34.5143C41.1054 34.2644 41.0921 33.978 41.1859 33.7183C41.2796 33.4585 41.4727 33.2467 41.7226 33.1292L46.1903 31.0464C46.3154 30.9777 46.4532 30.9355 46.5953 30.9223C46.7374 30.9091 46.8807 30.9252 47.0163 30.9697C47.1518 31.0142 47.2768 31.0861 47.3835 31.1809C47.4901 31.2757 47.5762 31.3914 47.6362 31.5208C47.6963 31.6503 47.7291 31.7907 47.7327 31.9333C47.7362 32.076 47.7104 32.2178 47.6569 32.3501C47.6033 32.4824 47.5232 32.6022 47.4213 32.7022C47.3195 32.8022 47.1983 32.8802 47.0651 32.9314L42.6078 35.0142C42.4681 35.0819 42.3152 35.1174 42.16 35.1184Z" fill="#FA4616"/>
<path d="M42.1597 45.5326C41.9452 45.533 41.7359 45.4672 41.5602 45.3442C41.3846 45.2212 41.2512 45.047 41.1783 44.8453C41.1053 44.6436 41.0965 44.4244 41.1528 44.2175C41.2092 44.0106 41.328 43.8261 41.4932 43.6893L45.6588 40.1693C45.8701 39.9911 46.1436 39.9042 46.4189 39.9276C46.6943 39.9511 46.9491 40.083 47.1273 40.2942C47.3054 40.5055 47.3923 40.779 47.3689 41.0543C47.3454 41.3297 47.2136 41.5845 47.0023 41.7627L42.8366 45.2827C42.6479 45.444 42.4079 45.5326 42.1597 45.5326Z" fill="#FA4616"/>
</svg>
