<svg width="64" height="64" viewBox="0 0 64 64" fill="none" xmlns="http://www.w3.org/2000/svg">
<path d="M47.3644 56.9259C47.261 56.9416 47.1558 56.9416 47.0523 56.9259L43.2871 55.7298C42.3739 55.514 41.5605 54.9958 40.9789 54.2594C40.3974 53.523 40.0818 52.6117 40.0835 51.6733V48.0641C40.0835 47.7882 40.1931 47.5237 40.3881 47.3286C40.5832 47.1335 40.8478 47.024 41.1236 47.024C41.3995 47.024 41.664 47.1335 41.8591 47.3286C42.0542 47.5237 42.1638 47.7882 42.1638 48.0641V51.6733C42.1746 52.1501 42.349 52.6087 42.6576 52.9722C42.9663 53.3358 43.3905 53.5822 43.8592 53.6704L47.6452 54.9081C47.7818 54.9286 47.913 54.9758 48.0314 55.047C48.1497 55.1182 48.2529 55.212 48.335 55.3231C48.4171 55.4341 48.4765 55.5603 48.5098 55.6943C48.5432 55.8284 48.5498 55.9677 48.5293 56.1042C48.5088 56.2408 48.4616 56.3721 48.3904 56.4904C48.3192 56.6088 48.2254 56.7119 48.1143 56.794C48.0033 56.8761 47.8771 56.9355 47.7431 56.9689C47.6091 57.0022 47.4698 57.0088 47.3332 56.9884L47.3644 56.9259Z" fill="#404040"/>
<path d="M19.3745 47.0136L14.7668 38.339L13.5186 37.6213C13.0532 37.3429 12.6684 36.9481 12.4021 36.4757C12.1358 36.0033 11.9973 35.4696 12 34.9274V30.9229C12 30.3712 12.2192 29.842 12.6093 29.4519C12.9995 29.0618 13.5286 28.8426 14.0803 28.8426H16.6598L21.1323 34.4281L19.5097 35.7282L15.6613 30.9229H14.0803V34.9274C14.0814 35.1089 14.13 35.2869 14.2212 35.4439C14.3124 35.6008 14.4432 35.7311 14.6004 35.8219L16.3582 36.862L21.2363 46.0567L19.3745 47.0136Z" fill="#FA4616"/>
<path d="M18.2411 27.8025H18.1371C17.8647 27.7761 17.6136 27.6433 17.4383 27.4331C17.2631 27.2228 17.1778 26.9519 17.201 26.6791C17.201 26.4503 17.6691 20.9064 20.883 18.6286C23.6186 16.7043 26.4997 17.5884 29.2872 18.4621C29.9009 18.6598 30.5354 18.8574 31.1803 19.0238C32.3766 19.2611 33.611 19.2264 34.7921 18.9221C35.9732 18.6178 37.0707 18.0518 38.0035 17.266C38.1291 17.1469 38.2825 17.061 38.4498 17.0162C38.617 16.9713 38.7928 16.9689 38.9612 17.0092C39.1295 17.0495 39.2852 17.1312 39.414 17.2469C39.5429 17.3626 39.6408 17.5086 39.6989 17.6717C40.3397 18.8455 41.2572 19.8452 42.372 20.584C44.2442 22.1338 46.3245 23.8604 46.3245 26.7623C46.3245 27.0382 46.2149 27.3028 46.0198 27.4978C45.8248 27.6929 45.5602 27.8025 45.2844 27.8025C45.0085 27.8025 44.7439 27.6929 44.5489 27.4978C44.3538 27.3028 44.2442 27.0382 44.2442 26.7623C44.2442 24.8381 42.7049 23.5588 41.1239 22.2066C40.0967 21.4529 39.1825 20.5563 38.4091 19.5439C37.279 20.306 36.0043 20.8275 34.6641 21.0763C33.3239 21.325 31.9469 21.2955 30.6186 20.9896C29.9425 20.8128 29.2872 20.6152 28.632 20.4072C26.0109 19.5959 23.941 18.951 22.0584 20.2824C20.1758 21.6137 19.3437 25.483 19.25 26.7935C19.2422 27.0586 19.1334 27.3107 18.9459 27.4983C18.7583 27.6858 18.5062 27.7946 18.2411 27.8025V27.8025Z" fill="#404040"/>
<path d="M48.4042 30.9229C48.1283 30.9229 47.8638 30.8133 47.6687 30.6182C47.4736 30.4232 47.3641 30.1586 47.3641 29.8827V21.5617C47.3641 18.6806 45.9599 13.2407 40.6345 13.2407C40.4694 13.24 40.307 13.2 40.1605 13.124C40.014 13.048 39.8877 12.9383 39.792 12.8039C37.8989 10.1828 35.5066 9.08025 31.7622 9.08025C23.4412 9.08025 16.1603 14.9049 16.1603 21.5617V29.8827C16.1603 30.1586 16.0507 30.4232 15.8557 30.6182C15.6606 30.8133 15.3961 30.9229 15.1202 30.9229C14.8443 30.9229 14.5798 30.8133 14.3847 30.6182C14.1897 30.4232 14.0801 30.1586 14.0801 29.8827V21.5617C14.0801 13.8024 22.4011 7 31.7622 7C36.0267 7 38.9495 8.28975 41.1233 11.1605C46.5528 11.4725 49.4443 16.5379 49.4443 21.5617V29.8827C49.4443 30.1586 49.3347 30.4232 49.1397 30.6182C48.9446 30.8133 48.68 30.9229 48.4042 30.9229Z" fill="#404040"/>
<path d="M16.1604 56.9259C15.8846 56.9673 15.6036 56.8974 15.3792 56.7316C15.1549 56.5658 15.0057 56.3177 14.9643 56.0418C14.9229 55.766 14.9928 55.485 15.1586 55.2607C15.3244 55.0363 15.5725 54.8871 15.8484 54.8457L19.6032 53.6496C20.0736 53.561 20.5012 53.3189 20.8193 52.9613C21.1374 52.6037 21.3279 52.1508 21.361 51.6733V48.0641C21.361 47.7882 21.4706 47.5237 21.6657 47.3286C21.8607 47.1335 22.1253 47.024 22.4012 47.024C22.677 47.024 22.9416 47.1335 23.1366 47.3286C23.3317 47.5237 23.4413 47.7882 23.4413 48.0641V51.6733C23.4304 52.613 23.1016 53.5214 22.5086 54.2504C21.9155 54.9794 21.0931 55.4862 20.1753 55.6882L16.4725 56.8739C16.3717 56.9071 16.2665 56.9246 16.1604 56.9259Z" fill="#404040"/>
<path d="M44.0875 47.0136L42.2568 46.0359L47.135 36.8412L48.8928 35.8011C49.05 35.7103 49.1808 35.58 49.272 35.4231C49.3632 35.2661 49.4118 35.0881 49.4129 34.9065V30.9229H47.8319L43.9834 35.7282L42.3609 34.4281L46.8334 28.8426H49.4441C49.9958 28.8426 50.5249 29.0618 50.9151 29.4519C51.3052 29.842 51.5243 30.3712 51.5243 30.9229V34.9274C51.5239 35.4727 51.3806 36.0083 51.1087 36.481C50.8368 36.9537 50.4458 37.3468 49.9746 37.6213L48.7264 38.339L44.0875 47.0136Z" fill="#FA4616"/>
<path d="M33.8425 51.7254H29.682C27.4353 51.7254 21.0594 48.1369 19.8008 47.4192C19.6436 47.3285 19.5129 47.1982 19.4217 47.0412C19.3304 46.8843 19.2819 46.7062 19.2808 46.5247V35.0834C19.2808 34.8075 19.3903 34.5429 19.5854 34.3479C19.7805 34.1528 20.045 34.0432 20.3209 34.0432C22.1116 33.9036 23.8826 33.5759 25.6047 33.0655C27.6081 32.4629 29.6742 32.0929 31.7623 31.963C33.8293 32.0977 35.8742 32.4676 37.8574 33.0655C39.5897 33.5798 41.3711 33.911 43.1724 34.0536C43.4483 34.0536 43.7128 34.1632 43.9079 34.3583C44.103 34.5533 44.2125 34.8179 44.2125 35.0938V46.5351C44.2114 46.7166 44.1629 46.8947 44.0716 47.0516C43.9804 47.2086 43.8497 47.3389 43.6925 47.4296C42.4339 48.1369 36.058 51.7254 33.8425 51.7254ZM21.361 45.9111C24.2942 47.5544 28.5171 49.6451 29.682 49.6451H33.8425C35.0178 49.6451 39.2303 47.5649 42.1635 45.9111V36.0611C40.5469 35.8232 38.9484 35.4757 37.3789 35.021C35.5506 34.469 33.667 34.1202 31.7623 33.9808C29.8575 34.1202 27.9739 34.469 26.1456 35.021C24.5764 35.4767 22.9778 35.8242 21.361 36.0611V45.9111Z" fill="#FA4616"/>
</svg>
