<svg width="64" height="64" viewBox="0 0 64 64" fill="none" xmlns="http://www.w3.org/2000/svg">
<path d="M36.1663 27.6979H28.8747V23.5312H24.708V16.2396H28.8747V12.0729H36.1663V16.2396H40.333V23.5312H36.1663V27.6979ZM30.958 25.6145H34.083V21.4479H38.2496V18.3229H34.083V14.1562H30.958V18.3229H26.7913V21.4479H30.958V25.6145Z" fill="#FA4616"/>
<path d="M29.8856 32.9062H27.8022V45.4062H29.8856V32.9062Z" fill="#404040"/>
<path d="M15.8232 22.4896C15.2088 22.5079 14.5971 22.4016 14.0249 22.1771C13.4527 21.9527 12.9319 21.6147 12.4939 21.1834C12.0558 20.7522 11.7097 20.2368 11.4763 19.6682C11.2428 19.0996 11.127 18.4896 11.1357 17.875V16.6875C11.1357 15.4443 11.6296 14.252 12.5086 13.3729C13.3877 12.4938 14.58 12 15.8232 12C17.0664 12 18.2587 12.4938 19.1377 13.3729C20.0168 14.252 20.5107 15.4443 20.5107 16.6875V17.875C20.5209 18.49 20.406 19.1006 20.1731 19.6699C19.9402 20.2392 19.5941 20.7552 19.1558 21.1867C18.7175 21.6183 18.1961 21.9562 17.6232 22.1802C17.0504 22.4041 16.438 22.5094 15.8232 22.4896ZM15.8232 14.1562C15.4821 14.1358 15.1404 14.1867 14.8201 14.3057C14.4998 14.4247 14.2078 14.6092 13.9627 14.8474C13.7177 15.0855 13.525 15.3722 13.3969 15.689C13.2689 16.0059 13.2083 16.3459 13.219 16.6875V17.875C13.219 18.5656 13.4934 19.228 13.9818 19.7164C14.4702 20.2048 15.1325 20.4791 15.8232 20.4791C16.5139 20.4791 17.1762 20.2048 17.6646 19.7164C18.153 19.228 18.4274 18.5656 18.4274 17.875V16.6875C18.4381 16.3459 18.3775 16.0059 18.2495 15.689C18.1214 15.3722 17.9287 15.0855 17.6837 14.8474C17.4386 14.6092 17.1466 14.4247 16.8263 14.3057C16.506 14.1867 16.1643 14.1358 15.8232 14.1562V14.1562Z" fill="#404040"/>
<path d="M8.04166 51.6561C7.7654 51.6561 7.50046 51.5464 7.30511 51.351C7.10976 51.1557 7 50.8908 7 50.6145V24.5729C7 24.2966 7.10976 24.0317 7.30511 23.8363C7.50046 23.641 7.7654 23.5312 8.04166 23.5312C8.31793 23.5312 8.58287 23.641 8.77822 23.8363C8.97357 24.0317 9.08333 24.2966 9.08333 24.5729V50.6145C9.08333 50.8908 8.97357 51.1557 8.77822 51.351C8.58287 51.5464 8.31793 51.6561 8.04166 51.6561Z" fill="#404040"/>
<path d="M55.9582 46.4478H8.04166C7.7654 46.4478 7.50046 46.3381 7.30511 46.1427C7.10976 45.9474 7 45.6824 7 45.4062C7 45.1299 7.10976 44.8649 7.30511 44.6696C7.50046 44.4742 7.7654 44.3645 8.04166 44.3645H55.9582C56.2345 44.3645 56.4994 44.4742 56.6947 44.6696C56.8901 44.8649 56.9998 45.1299 56.9998 45.4062C56.9998 45.6824 56.8901 45.9474 56.6947 46.1427C56.4994 46.3381 56.2345 46.4478 55.9582 46.4478Z" fill="#404040"/>
<path d="M28.8749 40.1978H8.04166C7.7654 40.1978 7.50046 40.0881 7.30511 39.8927C7.10976 39.6974 7 39.4324 7 39.1562C7 38.8799 7.10976 38.6149 7.30511 38.4196C7.50046 38.2242 7.7654 38.1145 8.04166 38.1145H28.8749C29.1512 38.1145 29.4161 38.2242 29.6115 38.4196C29.8068 38.6149 29.9166 38.8799 29.9166 39.1562C29.9166 39.4324 29.8068 39.6974 29.6115 39.8927C29.4161 40.0881 29.1512 40.1978 28.8749 40.1978Z" fill="#404040"/>
<path d="M55.9582 51.6561C55.6819 51.6561 55.417 51.5464 55.2216 51.351C55.0263 51.1557 54.9165 50.8908 54.9165 50.6145V37.0729C54.9165 36.2441 54.5873 35.4492 54.0012 34.8631C53.4152 34.2771 52.6203 33.9479 51.7915 33.9479H23.6666C23.5136 33.9481 23.3624 33.9146 23.2238 33.8498C23.0851 33.785 22.9625 33.6904 22.8645 33.5729L17.6562 27.3229C17.2408 26.9623 16.7321 26.7262 16.1887 26.6414C15.6452 26.5567 15.0888 26.6268 14.5833 26.8437C14.19 26.9795 13.8495 27.2357 13.6101 27.576C13.3708 27.9164 13.2447 28.3235 13.25 28.7395V30.8229C13.25 31.0991 13.1402 31.3641 12.9449 31.5594C12.7495 31.7548 12.4846 31.8645 12.2083 31.8645C11.932 31.8645 11.6671 31.7548 11.4718 31.5594C11.2764 31.3641 11.1666 31.0991 11.1666 30.8229V28.7395C11.1596 27.9115 11.4065 27.1012 11.8739 26.4177C12.3414 25.7342 13.007 25.2104 13.7812 24.9166C14.687 24.5412 15.683 24.4398 16.6458 24.625C17.6086 24.8102 18.496 25.2737 19.1979 25.9583L24.1562 31.9062H51.7915C53.1729 31.9062 54.4976 32.4549 55.4744 33.4317C56.4511 34.4084 56.9998 35.7332 56.9998 37.1145V50.6561C56.9891 50.9251 56.8746 51.1795 56.6804 51.3659C56.4862 51.5523 56.2274 51.6564 55.9582 51.6561V51.6561Z" fill="#404040"/>
</svg>
