<svg width="64" height="64" viewBox="0 0 64 64" fill="none" xmlns="http://www.w3.org/2000/svg">
<path d="M53.7391 53.4783H10.2609C9.39603 53.4783 8.56663 53.1347 7.9551 52.5232C7.34357 51.9117 7 51.0822 7 50.2174V19.7826C7 18.9178 7.34357 18.0884 7.9551 17.4768C8.56663 16.8653 9.39603 16.5217 10.2609 16.5217H53.7391C54.604 16.5217 55.4334 16.8653 56.0449 17.4768C56.6564 18.0884 57 18.9178 57 19.7826V50.2174C57 51.0822 56.6564 51.9117 56.0449 52.5232C55.4334 53.1347 54.604 53.4783 53.7391 53.4783ZM10.2609 18.6957C9.97259 18.6957 9.69613 18.8102 9.49229 19.014C9.28845 19.2179 9.17391 19.4943 9.17391 19.7826V50.2174C9.17391 50.5057 9.28845 50.7822 9.49229 50.986C9.69613 51.1899 9.97259 51.3044 10.2609 51.3044H53.7391C54.0274 51.3044 54.3039 51.1899 54.5077 50.986C54.7116 50.7822 54.8261 50.5057 54.8261 50.2174V19.7826C54.8261 19.4943 54.7116 19.2179 54.5077 19.014C54.3039 18.8102 54.0274 18.6957 53.7391 18.6957H10.2609Z" fill="#404040"/>
<path d="M38.5215 18.6957C38.2333 18.6957 37.9568 18.5812 37.753 18.3773C37.5491 18.1735 37.4346 17.897 37.4346 17.6087V12.1739H26.565V17.6087C26.565 17.897 26.4505 18.1735 26.2466 18.3773C26.0428 18.5812 25.7663 18.6957 25.4781 18.6957C25.1898 18.6957 24.9133 18.5812 24.7095 18.3773C24.5056 18.1735 24.3911 17.897 24.3911 17.6087V12.1739C24.3911 11.5974 24.6201 11.0444 25.0278 10.6367C25.4355 10.229 25.9885 10 26.565 10H37.4346C38.0111 10 38.5641 10.229 38.9718 10.6367C39.3795 11.0444 39.6085 11.5974 39.6085 12.1739V17.6087C39.6085 17.897 39.494 18.1735 39.2901 18.3773C39.0863 18.5812 38.8098 18.6957 38.5215 18.6957Z" fill="#404040"/>
<path d="M34.1737 42.6087H29.8259C29.5376 42.6087 29.2612 42.4942 29.0573 42.2903C28.8535 42.0865 28.7389 41.81 28.7389 41.5217V38.2609H25.4781C25.1898 38.2609 24.9133 38.1464 24.7095 37.9425C24.5056 37.7387 24.3911 37.4622 24.3911 37.1739V32.8261C24.3911 32.5378 24.5056 32.2613 24.7095 32.0575C24.9133 31.8537 25.1898 31.7391 25.4781 31.7391H28.7389V28.4783C28.7389 28.19 28.8535 27.9135 29.0573 27.7097C29.2612 27.5058 29.5376 27.3913 29.8259 27.3913H34.1737C34.462 27.3913 34.7385 27.5058 34.9423 27.7097C35.1461 27.9135 35.2607 28.19 35.2607 28.4783V31.7391H38.5215C38.8098 31.7391 39.0863 31.8537 39.2901 32.0575C39.494 32.2613 39.6085 32.5378 39.6085 32.8261V37.1739C39.6085 37.4622 39.494 37.7387 39.2901 37.9425C39.0863 38.1464 38.8098 38.2609 38.5215 38.2609H35.2607V41.5217C35.2607 41.81 35.1461 42.0865 34.9423 42.2903C34.7385 42.4942 34.462 42.6087 34.1737 42.6087ZM30.9129 40.4348H33.0868V37.1739C33.0868 36.8856 33.2013 36.6092 33.4051 36.4053C33.609 36.2015 33.8854 36.0869 34.1737 36.0869H37.4346V33.913H34.1737C33.8854 33.913 33.609 33.7985 33.4051 33.5947C33.2013 33.3908 33.0868 33.1144 33.0868 32.8261V29.5652H30.9129V32.8261C30.9129 33.1144 30.7983 33.3908 30.5945 33.5947C30.3906 33.7985 30.1142 33.913 29.8259 33.913H26.565V36.0869H29.8259C30.1142 36.0869 30.3906 36.2015 30.5945 36.4053C30.7983 36.6092 30.9129 36.8856 30.9129 37.1739V40.4348Z" fill="#FA4616"/>
<path d="M32 48.0435C29.4203 48.0435 26.8984 47.2785 24.7534 45.8452C22.6085 44.412 20.9366 42.3749 19.9494 39.9915C18.9622 37.6081 18.7039 34.9856 19.2072 32.4554C19.7105 29.9252 20.9527 27.601 22.7769 25.7769C24.601 23.9527 26.9252 22.7104 29.4553 22.2072C31.9855 21.7039 34.6081 21.9622 36.9915 22.9494C39.3749 23.9366 41.412 25.6084 42.8453 27.7534C44.2785 29.8984 45.0435 32.4202 45.0435 35C45.0435 38.4593 43.6693 41.777 41.2232 44.2231C38.777 46.6693 35.4594 48.0435 32 48.0435V48.0435ZM32 24.1304C29.8502 24.1304 27.7487 24.7679 25.9612 25.9623C24.1737 27.1566 22.7805 28.8542 21.9578 30.8404C21.1351 32.8265 20.9199 35.012 21.3393 37.1205C21.7587 39.229 22.7939 41.1658 24.3141 42.6859C25.8342 44.2061 27.771 45.2413 29.8795 45.6607C31.988 46.0801 34.1735 45.8649 36.1596 45.0422C38.1458 44.2195 39.8434 42.8263 41.0377 41.0388C42.2321 39.2513 42.8696 37.1498 42.8696 35C42.8696 32.1172 41.7244 29.3525 39.686 27.314C37.6475 25.2756 34.8828 24.1304 32 24.1304V24.1304Z" fill="#404040"/>
</svg>
