<svg width="64" height="64" viewBox="0 0 64 64" fill="none" xmlns="http://www.w3.org/2000/svg">
<path d="M44.1965 56.988C43.144 56.9931 42.101 56.7883 41.1286 56.3856C40.1561 55.9828 39.2737 55.3903 38.533 54.6425L9.34605 25.5242C8.60226 24.7805 8.01225 23.8975 7.60971 22.9258C7.20717 21.954 7 20.9125 7 19.8607C7 18.8088 7.20717 17.7673 7.60971 16.7956C8.01225 15.8239 8.60226 14.9409 9.34605 14.1972L14.1972 9.34603C14.9409 8.60224 15.8239 8.01225 16.7956 7.60971C17.7673 7.20717 18.8089 7 19.8607 7C20.9125 7 21.954 7.20717 22.9258 7.60971C23.8975 8.01225 24.7805 8.60224 25.5242 9.34603L54.6539 38.4644C55.3977 39.2081 55.9877 40.091 56.3903 41.0628C56.7928 42.0345 57 43.076 57 44.1279C57 45.1797 56.7928 46.2212 56.3903 47.1929C55.9877 48.1647 55.3977 49.0476 54.6539 49.7913L49.7913 54.6425C49.0595 55.3831 48.1884 55.9716 47.2282 56.3741C46.268 56.7766 45.2377 56.9853 44.1965 56.988V56.988ZM40.0891 52.9835C41.1618 54.056 42.6167 54.6584 44.1336 54.6584C45.6505 54.6584 47.1053 54.056 48.1781 52.9835L53.0293 48.1324C54.1017 47.0596 54.7042 45.6047 54.7042 44.0878C54.7042 42.5709 54.1017 41.1161 53.0293 40.0433L23.9109 10.9135C22.8382 9.84106 21.3833 9.23859 19.8664 9.23859C18.3495 9.23859 16.8947 9.84106 15.8219 10.9135L11.0165 15.8104C9.94403 16.8832 9.34156 18.338 9.34156 19.855C9.34156 21.3719 9.94403 22.8267 11.0165 23.8995L40.0891 52.9835Z" fill="#404040"/>
<path d="M19.8607 56.988C18.8082 56.9931 17.7652 56.7883 16.7927 56.3856C15.8203 55.9828 14.9379 55.3903 14.1972 54.6425L9.34605 49.7913C8.60226 49.0476 8.01225 48.1647 7.60971 47.1929C7.20717 46.2212 7 45.1797 7 44.1279C7 43.0761 7.20717 42.0345 7.60971 41.0628C8.01225 40.091 8.60226 39.2081 9.34605 38.4644L14.1972 33.6132C14.3036 33.506 14.4301 33.4209 14.5695 33.3628C14.709 33.3047 14.8585 33.2748 15.0095 33.2748C15.1606 33.2748 15.3101 33.3047 15.4495 33.3628C15.589 33.4209 15.7155 33.506 15.8219 33.6132C16.035 33.8276 16.1546 34.1176 16.1546 34.4198C16.1546 34.7221 16.035 35.0121 15.8219 35.2265L11.0165 40.0891C9.94403 41.1619 9.34156 42.6167 9.34156 44.1336C9.34156 45.6505 9.94403 47.1053 11.0165 48.1781L15.8219 52.9835C16.8947 54.056 18.3495 54.6584 19.8664 54.6584C21.3833 54.6584 22.8382 54.056 23.9109 52.9835L28.7621 48.1324C28.981 47.9449 29.2625 47.847 29.5505 47.8581C29.8384 47.8692 30.1116 47.9886 30.3153 48.1923C30.5191 48.3961 30.6385 48.6693 30.6496 48.9572C30.6607 49.2452 30.5628 49.5267 30.3753 49.7456L25.5242 54.5967C24.7873 55.3528 23.9066 55.9538 22.934 56.3645C21.9614 56.7751 20.9164 56.9871 19.8607 56.988V56.988Z" fill="#404040"/>
<path d="M48.9902 30.7071C48.8396 30.708 48.6903 30.6791 48.5509 30.6222C48.4116 30.5653 48.2848 30.4813 48.1779 30.3753C47.9648 30.1609 47.8452 29.871 47.8452 29.5687C47.8452 29.2664 47.9648 28.9764 48.1779 28.7621L53.029 23.8995C54.1015 22.8267 54.7039 21.3719 54.7039 19.855C54.7039 18.3381 54.1015 16.8832 53.029 15.8104L48.1779 10.9593C47.1051 9.8868 45.6503 9.28433 44.1333 9.28433C42.6164 9.28433 41.1616 9.8868 40.0888 10.9593L35.2376 15.8104C35.1313 15.9177 35.0047 16.0028 34.8653 16.0609C34.7259 16.1189 34.5764 16.1488 34.4253 16.1488C34.2743 16.1488 34.1247 16.1189 33.9853 16.0609C33.8459 16.0028 33.7193 15.9177 33.613 15.8104C33.3999 15.5961 33.2803 15.3061 33.2803 15.0038C33.2803 14.7015 33.3999 14.4116 33.613 14.1972L38.4756 9.34603C39.9771 7.84738 42.0119 7.00569 44.1333 7.00569C46.2548 7.00569 48.2896 7.84738 49.7911 9.34603L54.6537 14.1972C55.3975 14.9409 55.9875 15.8239 56.39 16.7956C56.7926 17.7674 56.9997 18.8088 56.9997 19.8607C56.9997 20.9125 56.7926 21.954 56.39 22.9258C55.9875 23.8975 55.3975 24.7805 54.6537 25.5242L49.7911 30.3753C49.578 30.5867 49.2904 30.7058 48.9902 30.7071Z" fill="#404040"/>
<path d="M19.8611 30.7071C19.6362 30.7062 19.4165 30.639 19.2296 30.5139C19.0427 30.3889 18.8967 30.2115 18.8101 30.0039C18.7234 29.7964 18.6998 29.5679 18.7422 29.347C18.7847 29.1261 18.8913 28.9227 19.0488 28.7621L28.7625 19.0483C28.9768 18.8352 29.2668 18.7156 29.5691 18.7156C29.8714 18.7156 30.1614 18.8352 30.3757 19.0483C30.483 19.1547 30.5681 19.2813 30.6262 19.4207C30.6842 19.5601 30.7142 19.7096 30.7142 19.8607C30.7142 20.0117 30.6842 20.1613 30.6262 20.3007C30.5681 20.4401 30.483 20.5667 30.3757 20.673L20.6734 30.3753C20.5665 30.4813 20.4397 30.5653 20.3003 30.6222C20.1609 30.6791 20.0117 30.708 19.8611 30.7071Z" fill="#404040"/>
<path d="M34.4257 45.272C34.2751 45.2729 34.1258 45.244 33.9864 45.1871C33.847 45.1301 33.7202 45.0463 33.6133 44.9402C33.5061 44.8338 33.421 44.7073 33.3629 44.5679C33.3048 44.4284 33.2749 44.2789 33.2749 44.1279C33.2749 43.9768 33.3048 43.8273 33.3629 43.6879C33.421 43.5484 33.5061 43.4219 33.6133 43.3155L43.3271 33.6132C43.4296 33.4935 43.5558 33.3962 43.6978 33.3275C43.8397 33.2589 43.9944 33.2202 44.1519 33.2142C44.3095 33.2081 44.4666 33.2346 44.6134 33.2922C44.7603 33.3497 44.8936 33.4369 45.0051 33.5484C45.1166 33.6599 45.2039 33.7933 45.2614 33.9401C45.3189 34.0869 45.3455 34.2441 45.3394 34.4016C45.3333 34.5592 45.2947 34.7138 45.226 34.8557C45.1573 34.9977 45.0601 35.1239 44.9403 35.2265L35.238 44.9745C35.0166 45.1762 34.725 45.283 34.4257 45.272Z" fill="#404040"/>
<path d="M27.1492 29.9069C26.9978 29.9063 26.848 29.8757 26.7085 29.8167C26.5691 29.7578 26.4427 29.6718 26.3367 29.5636C26.1235 29.3492 26.0039 29.0592 26.0039 28.7568C26.0039 28.4545 26.1235 28.1644 26.3367 27.95L27.1492 27.1375C27.3636 26.9243 27.6537 26.8047 27.956 26.8047C28.2584 26.8047 28.5484 26.9243 28.7628 27.1375C28.8701 27.2439 28.9552 27.3704 29.0133 27.5099C29.0714 27.6493 29.1014 27.7989 29.1014 27.95C29.1014 28.1011 29.0714 28.2507 29.0133 28.3901C28.9552 28.5296 28.8701 28.6561 28.7628 28.7625L27.9503 29.5636C27.739 29.7793 27.4511 29.9026 27.1492 29.9069V29.9069Z" fill="#FA4616"/>
<path d="M31.1882 33.9458C31.0375 33.9466 30.8882 33.9178 30.7488 33.8608C30.6094 33.8039 30.4826 33.72 30.3756 33.6139C30.2684 33.5075 30.1832 33.3809 30.1251 33.2415C30.067 33.102 30.0371 32.9524 30.0371 32.8013C30.0371 32.6503 30.067 32.5007 30.1251 32.3613C30.1832 32.2218 30.2684 32.0952 30.3756 31.9888L31.1882 31.1878C31.2945 31.0805 31.4211 30.9953 31.5606 30.9372C31.7 30.8791 31.8496 30.8492 32.0007 30.8492C32.1518 30.8492 32.3013 30.8791 32.4408 30.9372C32.5803 30.9953 32.7068 31.0805 32.8132 31.1878C33.0264 31.4022 33.146 31.6922 33.146 31.9945C33.146 32.2969 33.0264 32.5869 32.8132 32.8013L32.0007 33.6139C31.8937 33.72 31.7669 33.8039 31.6275 33.8608C31.4881 33.9178 31.3388 33.9466 31.1882 33.9458Z" fill="#FA4616"/>
<path d="M32.0002 28.2823C31.8496 28.2831 31.7003 28.2543 31.5608 28.1973C31.4214 28.1404 31.2946 28.0565 31.1876 27.9504C31.0804 27.844 30.9952 27.7174 30.9371 27.578C30.879 27.4385 30.8491 27.2889 30.8491 27.1379C30.8491 26.9868 30.879 26.8372 30.9371 26.6977C30.9952 26.5583 31.0804 26.4317 31.1876 26.3253L32.0002 25.5242C32.2191 25.3368 32.5007 25.2388 32.7887 25.2499C33.0768 25.261 33.35 25.3804 33.5538 25.5842C33.7576 25.7881 33.877 26.0613 33.8881 26.3493C33.8993 26.6373 33.8013 26.9189 33.6138 27.1379L32.8127 27.9504C32.7058 28.0565 32.579 28.1404 32.4395 28.1973C32.3001 28.2543 32.1508 28.2831 32.0002 28.2823V28.2823Z" fill="#FA4616"/>
<path d="M36.8516 33.1334C36.6266 33.1325 36.4069 33.0653 36.2199 32.9402C36.033 32.8151 35.887 32.6377 35.8003 32.4301C35.7136 32.2225 35.69 31.9939 35.7325 31.773C35.7749 31.5521 35.8816 31.3486 36.0391 31.1879L36.8516 30.3754C36.958 30.2681 37.0846 30.183 37.224 30.1249C37.3635 30.0668 37.513 30.0369 37.6641 30.0369C37.8152 30.0369 37.9648 30.0668 38.1042 30.1249C38.2437 30.183 38.3703 30.2681 38.4767 30.3754C38.6898 30.5898 38.8094 30.8799 38.8094 31.1822C38.8094 31.4846 38.6898 31.7746 38.4767 31.989L37.6641 32.8015C37.5572 32.9076 37.4304 32.9915 37.2909 33.0485C37.1515 33.1054 37.0022 33.1343 36.8516 33.1334Z" fill="#FA4616"/>
<path d="M25.5251 34.7581C25.3745 34.759 25.2252 34.7301 25.0857 34.6731C24.9463 34.6162 24.8195 34.5323 24.7125 34.4262C24.6053 34.3198 24.5202 34.1933 24.4621 34.0538C24.404 33.9144 24.374 33.7648 24.374 33.6137C24.374 33.4626 24.404 33.313 24.4621 33.1736C24.5202 33.0341 24.6053 32.9075 24.7125 32.8011L25.5251 31.9886C25.7406 31.7731 26.0329 31.652 26.3376 31.652C26.6424 31.652 26.9347 31.7731 27.1502 31.9886C27.3656 32.2041 27.4867 32.4964 27.4867 32.8011C27.4867 33.1059 27.3656 33.3982 27.1502 33.6137L26.3376 34.4262C26.2307 34.5323 26.1039 34.6162 25.9644 34.6731C25.825 34.7301 25.6757 34.759 25.5251 34.7581V34.7581Z" fill="#FA4616"/>
<path d="M30.3759 39.6092C30.1496 39.6083 29.9286 39.5403 29.741 39.4137C29.5533 39.2872 29.4074 39.1078 29.3216 38.8984C29.2359 38.6889 29.2142 38.4587 29.2593 38.2369C29.3043 38.0151 29.4141 37.8117 29.5748 37.6523L30.3759 36.8512C30.4823 36.7439 30.6089 36.6588 30.7484 36.6007C30.8878 36.5426 31.0374 36.5127 31.1885 36.5127C31.3395 36.5127 31.4891 36.5426 31.6286 36.6007C31.768 36.6588 31.8946 36.7439 32.001 36.8512C32.2141 37.0656 32.3338 37.3557 32.3338 37.658C32.3338 37.9604 32.2141 38.2504 32.001 38.4648L31.1885 39.2774C31.0815 39.3834 30.9547 39.4674 30.8153 39.5243C30.6759 39.5813 30.5265 39.6101 30.3759 39.6092Z" fill="#FA4616"/>
<path d="M35.2385 37.996C35.0112 37.9973 34.7886 37.9309 34.5992 37.8053C34.4098 37.6796 34.2621 37.5004 34.1749 37.2905C34.0877 37.0805 34.065 36.8494 34.1098 36.6265C34.1545 36.4036 34.2646 36.1991 34.4259 36.0391L35.2385 35.2266C35.4529 35.0134 35.7429 34.8938 36.0453 34.8938C36.3476 34.8938 36.6377 35.0134 36.8521 35.2266C36.9594 35.3329 37.0445 35.4595 37.1026 35.599C37.1607 35.7384 37.1906 35.888 37.1906 36.0391C37.1906 36.1901 37.1607 36.3397 37.1026 36.4792C37.0445 36.6187 36.9594 36.7452 36.8521 36.8516L36.0396 37.6527C35.8283 37.8683 35.5403 37.9917 35.2385 37.996Z" fill="#FA4616"/>
</svg>
