<svg width="64" height="64" viewBox="0 0 64 64" fill="none" xmlns="http://www.w3.org/2000/svg">
<path d="M43.6314 32.3343C43.4581 32.3335 43.2877 32.29 43.1353 32.2077C43.0121 32.1423 42.9032 32.0532 42.8147 31.9454C42.7262 31.8377 42.6599 31.7135 42.6197 31.5801C42.5794 31.4466 42.566 31.3065 42.5802 31.1678C42.5945 31.0291 42.636 30.8946 42.7025 30.7721C43.6314 29.0514 46.9249 26.9191 50.8412 27.7953C50.9179 27.8102 50.9925 27.8351 51.0629 27.8691C52.0657 28.3336 52.6251 28.3231 52.8152 28.1647C53.0052 28.0064 53.2691 26.6552 52.8152 25.2196C52.3612 23.784 51.6223 22.8339 51.1684 22.7706C50.9362 22.7706 50.4506 23.045 49.87 23.9845C49.8266 24.0489 49.7771 24.109 49.7222 24.164C46.8826 27.0774 43.0086 27.0669 41.2774 26.138C41.1554 26.0686 41.0483 25.976 40.9621 25.8653C40.8759 25.7545 40.8124 25.6279 40.7751 25.4927C40.7379 25.3574 40.7277 25.2161 40.745 25.0769C40.7624 24.9377 40.807 24.8032 40.8763 24.6812C40.9456 24.5592 41.0382 24.4521 41.149 24.3659C41.2597 24.2797 41.3863 24.2162 41.5216 24.179C41.6569 24.1417 41.7981 24.1315 41.9373 24.1488C42.0766 24.1662 42.211 24.2108 42.333 24.2801C43.3503 24.6118 44.4412 24.6459 45.4772 24.3785C46.5133 24.111 47.4514 23.5532 48.181 22.7706C49.1628 21.2188 50.2923 20.5222 51.4957 20.6594C53.1846 20.8811 54.3563 22.8445 54.8736 24.5968C55.3908 26.3491 55.4964 28.6186 54.198 29.7376C53.2796 30.5398 51.9601 30.5609 50.2923 29.8115C49.2526 29.5576 48.1621 29.6054 47.1487 29.9495C46.1353 30.2935 45.2411 30.9194 44.5709 31.7538C44.4832 31.9278 44.349 32.0742 44.1831 32.1767C44.0173 32.2792 43.8263 32.3338 43.6314 32.3343Z" fill="#404040"/>
<path d="M44.4129 23.2667C44.2464 23.2671 44.0821 23.2281 43.9335 23.1529C43.7849 23.0777 43.6561 22.9684 43.5579 22.8339C42.6308 21.5832 41.5164 20.483 40.2538 19.5721C40.0742 19.4446 39.9389 19.2641 39.867 19.0559C39.795 18.8477 39.7901 18.6221 39.8527 18.4109C40.048 17.4942 40.4619 16.6382 41.0592 15.9159C41.6566 15.1936 42.4196 14.6263 43.2834 14.2624C44.339 13.8824 44.7085 13.4813 44.7296 13.2068C44.7296 12.7529 43.9907 11.824 42.6184 11.0956C41.2461 10.3672 40.0955 10.2511 39.726 10.5256C39.5255 10.6839 39.4094 11.2223 39.6627 12.299C39.8344 13.2225 39.779 14.174 39.5014 15.0713C39.2237 15.9687 38.732 16.7852 38.0688 17.4503C37.927 17.6198 37.7356 17.7404 37.5216 17.7954C37.3076 17.8503 37.0818 17.8367 36.8759 17.7565C35.3813 17.1741 33.8019 16.839 32.1996 16.7642C32.061 16.758 31.9249 16.7245 31.7993 16.6657C31.6736 16.6069 31.5607 16.5239 31.4671 16.4214C31.3735 16.319 31.301 16.1991 31.2537 16.0687C31.2064 15.9382 31.1853 15.7997 31.1915 15.6611C31.1977 15.5225 31.2312 15.3864 31.29 15.2607C31.3489 15.1351 31.4318 15.0222 31.5343 14.9286C31.6367 14.835 31.7566 14.7625 31.887 14.7152C32.0175 14.6679 32.156 14.6468 32.2946 14.653C33.8607 14.7181 35.4099 15.0023 36.897 15.4975C37.2019 15.12 37.4227 14.6818 37.5447 14.2121C37.6667 13.7424 37.687 13.2522 37.6043 12.774C37.1715 10.9267 37.4565 9.60721 38.4488 8.83662C39.7999 7.78102 42.0061 8.3616 43.6212 9.22719C45.2363 10.0928 46.9041 11.634 46.788 13.344C46.693 14.5897 45.7324 15.5503 43.9484 16.2047C43.5017 16.4023 43.1021 16.6928 42.7763 17.0568C42.4505 17.4209 42.206 17.8501 42.0589 18.3159C43.2552 19.2532 44.3203 20.3467 45.2257 21.5672C45.3404 21.724 45.4095 21.9095 45.4255 22.1031C45.4415 22.2967 45.4037 22.4909 45.3164 22.6645C45.2291 22.838 45.0956 22.9841 44.9306 23.0866C44.7656 23.1891 44.5755 23.2442 44.3812 23.2456L44.4129 23.2667Z" fill="#404040"/>
<path d="M21.8969 55.1037C20.7321 55.0556 19.5956 54.7299 18.5822 54.1536C16.9672 53.2881 15.2888 51.7469 15.4154 50.0368C15.5104 48.7912 16.471 47.8306 18.255 47.1761C18.7021 46.9808 19.1016 46.6909 19.4259 46.3265C19.7503 45.962 19.9918 45.5316 20.134 45.0649C18.9323 44.1337 17.8664 43.0394 16.9672 41.8137C16.8749 41.7029 16.8063 41.5744 16.7655 41.4362C16.7248 41.2979 16.7128 41.1527 16.7303 41.0096C16.7478 40.8665 16.7945 40.7285 16.8673 40.6042C16.9402 40.4798 17.0378 40.3717 17.1541 40.2864C17.2704 40.2012 17.4028 40.1407 17.5434 40.1087C17.6839 40.0766 17.8296 40.0737 17.9713 40.1001C18.113 40.1265 18.2478 40.1816 18.3674 40.2621C18.487 40.3426 18.5889 40.4467 18.6667 40.568C19.5909 41.8212 20.7058 42.9218 21.9708 43.8299C22.1504 43.9573 22.2857 44.1378 22.3576 44.3461C22.4296 44.5543 22.4345 44.7798 22.3719 44.991C22.1766 45.9078 21.7627 46.7637 21.1654 47.4861C20.568 48.2084 19.8049 48.7756 18.9411 49.1395C17.8855 49.5195 17.5055 49.9207 17.495 50.1951C17.495 50.649 18.2339 51.5885 19.6062 52.3063C20.9785 53.0241 22.1291 53.1614 22.488 52.8764C22.8469 52.5914 22.8152 52.1797 22.5619 51.103C22.3911 50.181 22.4469 49.2314 22.7246 48.3359C23.0022 47.4403 23.4934 46.6257 24.1558 45.9622C24.2969 45.7949 24.4864 45.6756 24.6982 45.6208C24.91 45.5659 25.1336 45.5783 25.3381 45.656C26.8341 46.2323 28.4131 46.5638 30.0144 46.6378C30.2944 46.6378 30.5629 46.749 30.7608 46.9469C30.9588 47.1449 31.07 47.4134 31.07 47.6934C31.0702 47.8365 31.0412 47.9783 30.9849 48.1099C30.9286 48.2415 30.8461 48.3603 30.7424 48.4591C30.6387 48.5578 30.5161 48.6344 30.3818 48.6843C30.2476 48.7341 30.1046 48.7561 29.9616 48.749C28.399 48.676 26.8539 48.3883 25.3698 47.8939C25.066 48.2722 24.8451 48.7102 24.7214 49.1794C24.5978 49.6485 24.5741 50.1385 24.652 50.6174C25.0953 52.4647 24.8103 53.7842 23.8181 54.5548C23.26 54.9536 22.5814 55.1475 21.8969 55.1037V55.1037Z" fill="#404040"/>
<path d="M11.0769 42.7637C10.9645 42.7742 10.8514 42.7742 10.7391 42.7637C9.03953 42.542 7.87839 40.5892 7.36115 38.8263C6.8439 37.0635 6.73831 34.8045 8.02615 33.6855C8.95508 32.8833 10.2746 32.8622 11.9425 33.6116C12.982 33.8695 14.0737 33.8235 15.0879 33.4792C16.1021 33.1349 16.9961 32.5068 17.6638 31.6693C17.8038 31.423 18.0359 31.2423 18.3091 31.1671C18.5823 31.0918 18.8742 31.1282 19.1205 31.2682C19.3669 31.4082 19.5476 31.6403 19.6228 31.9135C19.698 32.1867 19.6617 32.4786 19.5217 32.7249C18.5927 34.4456 15.2993 36.5884 11.383 35.7017C11.305 35.6916 11.2298 35.6665 11.1613 35.6278C10.1585 35.1634 9.59899 35.1739 9.40898 35.3323C9.21898 35.4906 8.95508 36.8418 9.40898 38.2774C9.86289 39.713 10.5913 40.6631 11.0452 40.7264C11.3196 40.7264 11.7735 40.4519 12.3541 39.5125C12.3939 39.4483 12.4398 39.3882 12.4914 39.333C15.3415 36.4195 19.2155 36.4406 20.9362 37.3696C21.1825 37.5096 21.3632 37.7417 21.4384 38.0149C21.5137 38.2881 21.4773 38.5799 21.3373 38.8263C21.1973 39.0727 20.9652 39.2533 20.692 39.3286C20.4188 39.4038 20.1269 39.3674 19.8806 39.2274C18.8773 38.8903 17.7988 38.8453 16.7709 39.0976C15.743 39.3499 14.808 39.8892 14.0748 40.6525C13.1564 42.0565 12.1536 42.7637 11.0769 42.7637Z" fill="#404040"/>
<path d="M23.8603 22.2639C23.6802 22.2635 23.5029 22.2201 23.3431 22.1372C23.2212 22.0692 23.1141 21.9776 23.0279 21.8679C22.9416 21.7581 22.878 21.6323 22.8407 21.4979C22.8034 21.3634 22.7931 21.2228 22.8105 21.0843C22.8279 20.9458 22.8726 20.8122 22.9419 20.6911C23.4697 19.7516 23.7758 16.1836 21.4218 14.5791C19.469 13.418 19.1734 12.1407 19.3106 11.2751C19.5429 9.38556 21.9391 8.02383 23.9131 7.4327C25.8871 6.84156 28.6316 6.67266 29.8667 8.12939C30.4156 8.78387 30.8695 9.98726 29.8667 12.0457C29.549 13.1356 29.5819 14.2979 29.9607 15.3681C30.3396 16.4384 31.0452 17.3625 31.9779 18.0098C32.1012 18.0736 32.2109 18.161 32.3004 18.2672C32.39 18.3733 32.4578 18.496 32.5 18.6284C32.5421 18.7607 32.5578 18.9 32.5461 19.0384C32.5344 19.1768 32.4956 19.3115 32.4318 19.4349C32.368 19.5583 32.2806 19.6679 32.1744 19.7575C32.0683 19.847 31.9456 19.9148 31.8133 19.957C31.6809 19.9991 31.5416 20.0148 31.4032 20.0031C31.2648 19.9914 31.1301 19.9526 31.0067 19.8888C29.6245 18.9978 28.5731 17.6774 28.0143 16.1307C27.4555 14.584 27.4202 12.8966 27.9138 11.3279C27.9249 11.2799 27.9427 11.2337 27.9666 11.1906C28.3572 10.3884 28.4733 9.73391 28.2622 9.49112C27.8927 9.04777 26.2987 8.93165 24.5253 9.49112C22.7519 10.0506 21.4852 10.9901 21.4218 11.6023C21.4218 11.919 21.8336 12.4046 22.5936 12.8585C26.0137 15.1808 25.8448 19.9733 24.8209 21.7994C24.7165 21.9552 24.5724 22.0803 24.4036 22.162C24.2348 22.2436 24.0472 22.2788 23.8603 22.2639Z" fill="#404040"/>
<path d="M14.8137 32.0916H14.7504C14.4816 32.0754 14.2291 31.9571 14.0446 31.7609C13.8601 31.5646 13.7577 31.3053 13.7581 31.036C13.8442 29.5241 14.1281 28.03 14.6026 26.5919C14.2243 26.2881 13.7863 26.0672 13.3172 25.9435C12.848 25.8199 12.3581 25.7962 11.8792 25.8741C10.0213 26.3174 8.71235 26.0324 7.94176 25.0401C6.88616 23.6784 7.45618 21.4722 8.33233 19.8677C9.20848 18.2632 10.7285 16.5848 12.4492 16.7009C13.6948 16.7959 14.6554 17.7565 15.2993 19.5405C15.497 19.986 15.7876 20.3842 16.1517 20.7082C16.5159 21.0323 16.945 21.2748 17.4105 21.4194C18.3804 20.1942 19.5134 19.1074 20.7779 18.1893C20.8907 18.1078 21.0185 18.0493 21.154 18.0174C21.2895 17.9855 21.43 17.9807 21.5673 18.0032C21.7047 18.0258 21.8362 18.0753 21.9544 18.1489C22.0725 18.2225 22.1749 18.3187 22.2557 18.4321C22.4171 18.6592 22.4821 18.9409 22.4366 19.2157C22.3911 19.4906 22.2388 19.7363 22.0129 19.8994C20.7176 20.8428 19.5809 21.9867 18.6456 23.2878C18.5181 23.4675 18.3376 23.6028 18.1293 23.6747C17.9211 23.7467 17.6956 23.7516 17.4844 23.689C16.5677 23.4937 15.7117 23.0798 14.9893 22.4825C14.267 21.8851 13.6998 21.1221 13.3359 20.2583C12.9559 19.2027 12.5547 18.8226 12.2803 18.8121C12.0058 18.8015 10.8869 19.551 10.1691 20.8705C9.45126 22.19 9.31405 23.3934 9.59907 23.7523C9.74685 23.9529 10.2958 24.0795 11.3725 23.8262C12.2944 23.6545 13.2442 23.7099 14.1399 23.9876C15.0356 24.2653 15.8502 24.757 16.5132 25.4202C16.6805 25.5612 16.7998 25.7507 16.8547 25.9625C16.9095 26.1743 16.8972 26.3979 16.8194 26.6024C16.2619 28.0595 15.9342 29.5944 15.8482 31.1521C15.8199 31.4079 15.6992 31.6445 15.5087 31.8175C15.3182 31.9905 15.0711 32.088 14.8137 32.0916Z" fill="#404040"/>
<path d="M37.2983 39.1852C37.1934 39.2011 37.0866 39.2011 36.9817 39.1852C36.3461 38.9863 35.7665 38.6399 35.2903 38.1743C34.8141 37.7086 34.4549 37.137 34.2418 36.5059C34.0288 35.8749 33.9681 35.2025 34.0646 34.5435C34.1611 33.8845 34.4121 33.2577 34.7972 32.7143C35.1822 32.1709 35.6903 31.7262 36.28 31.4167C36.8697 31.1072 37.5243 30.9415 38.1903 30.9333C38.8562 30.9251 39.5146 31.0745 40.1118 31.3693C40.709 31.6642 41.228 32.0961 41.6263 32.6299C41.7219 32.7396 41.7938 32.8678 41.8375 33.0066C41.8811 33.1454 41.8956 33.2917 41.8801 33.4364C41.8645 33.5811 41.8192 33.721 41.747 33.8473C41.6748 33.9736 41.5772 34.0836 41.4605 34.1705C41.3437 34.2573 41.2103 34.3191 41.0686 34.3519C40.9268 34.3847 40.7798 34.3878 40.6368 34.3611C40.4937 34.3344 40.3578 34.2784 40.2374 34.1967C40.1171 34.1149 40.0149 34.0092 39.9373 33.8861C39.7374 33.6205 39.4776 33.4059 39.1791 33.2597C38.8806 33.1135 38.5518 33.0398 38.2194 33.0447C37.887 33.0497 37.5605 33.133 37.2664 33.2879C36.9723 33.4429 36.719 33.6651 36.527 33.9365C36.3351 34.2078 36.2099 34.5207 36.1617 34.8496C36.1135 35.1785 36.1436 35.5141 36.2497 35.8292C36.3557 36.1442 36.5346 36.4298 36.7719 36.6626C37.0091 36.8954 37.298 37.0689 37.615 37.169C37.8525 37.247 38.0546 37.4067 38.1853 37.6198C38.3161 37.8328 38.367 38.0853 38.329 38.3324C38.291 38.5794 38.1665 38.805 37.9778 38.9689C37.789 39.1328 37.5483 39.2244 37.2983 39.2274V39.1852Z" fill="#FA4616"/>
<path d="M34.4687 30.5293C33.4568 30.5258 32.4797 30.159 31.7154 29.4957C30.9512 28.8324 30.4506 27.9166 30.3048 26.9152C30.159 25.9138 30.3777 24.8933 30.9211 24.0396C31.4645 23.1859 32.2964 22.5558 33.2653 22.2639C33.7983 22.1016 34.3581 22.0465 34.9125 22.1016C35.4669 22.1567 36.0049 22.3209 36.4955 22.5849C36.9861 22.8488 37.4197 23.2072 37.7711 23.6395C38.1226 24.0718 38.385 24.5693 38.5434 25.1035V25.1035C38.7058 25.6357 38.7614 26.1949 38.707 26.7487C38.6526 27.3026 38.4893 27.8402 38.2264 28.3307C37.9635 28.8212 37.6062 29.2549 37.1751 29.6069C36.744 29.9588 36.2475 30.2221 35.7143 30.3815C35.3094 30.4954 34.8891 30.5453 34.4687 30.5293V30.5293ZM34.4687 24.1956C34.2654 24.1978 34.0631 24.2262 33.867 24.2801C33.6009 24.3591 33.3529 24.4898 33.1372 24.6646C32.9216 24.8395 32.7425 25.0551 32.6101 25.2992C32.3429 25.7921 32.2824 26.371 32.442 26.9085C32.6016 27.4461 32.9681 27.8982 33.4611 28.1654C33.954 28.4327 34.5329 28.4932 35.0704 28.3336C35.5965 28.1743 36.0398 27.8161 36.3059 27.3351C36.572 26.8541 36.64 26.2883 36.4955 25.7579V25.7579C36.4123 25.4887 36.276 25.2388 36.0947 25.0231C35.9134 24.8074 35.6908 24.6301 35.4399 24.5018C35.146 24.322 34.8126 24.2169 34.4687 24.1956V24.1956Z" fill="#FA4616"/>
<path d="M23.7546 31.5321C23.112 31.5321 22.4779 31.3854 21.9006 31.1033C21.3233 30.8211 20.818 30.411 20.4232 29.904C20.0284 29.397 19.7546 28.8067 19.6224 28.1778C19.4903 27.549 19.5035 26.8983 19.6609 26.2754C19.8183 25.6524 20.1158 25.0736 20.5307 24.5829C20.9457 24.0923 21.4671 23.7029 22.0553 23.4443C22.6436 23.1857 23.283 23.0648 23.9251 23.0907C24.5671 23.1167 25.1947 23.2888 25.7602 23.594C26.7437 24.1253 27.4763 25.025 27.7975 26.0957V26.0957C27.9597 26.6287 28.0149 27.1885 27.9598 27.7429C27.9047 28.2973 27.7405 28.8353 27.4765 29.3259C27.2126 29.8165 26.8541 30.2501 26.4219 30.6015C25.9896 30.953 25.4921 31.2155 24.9579 31.3738C24.5662 31.4829 24.1611 31.5362 23.7546 31.5321ZM23.7546 25.1985C23.5502 25.1983 23.3472 25.2304 23.1529 25.2935C22.7517 25.4117 22.3948 25.6464 22.1272 25.9678C21.8597 26.2891 21.6936 26.6827 21.65 27.0986C21.6064 27.5145 21.6874 27.934 21.8825 28.3038C22.0777 28.6736 22.3782 28.9772 22.7461 29.176C23.114 29.3747 23.5327 29.4598 23.949 29.4203C24.3653 29.3809 24.7605 29.2187 25.0845 28.9543C25.4085 28.6899 25.6466 28.3353 25.7688 27.9354C25.891 27.5355 25.8917 27.1083 25.7707 26.708C25.6863 26.4407 25.5495 26.1929 25.3682 25.979C25.187 25.7652 24.965 25.5895 24.7151 25.4624C24.4215 25.2954 24.0921 25.2012 23.7546 25.1879V25.1985Z" fill="#FA4616"/>
<path d="M27.7977 41.3386C26.89 41.3384 26.0065 41.0456 25.2782 40.5037C24.55 39.9618 24.0158 39.1996 23.7548 38.3302C23.5926 37.7972 23.5374 37.2374 23.5925 36.683C23.6476 36.1286 23.8118 35.5906 24.0757 35.1C24.3397 34.6094 24.6981 34.1758 25.1304 33.8244C25.5626 33.4729 26.0602 33.2105 26.5943 33.0522C27.1273 32.8899 27.6871 32.8347 28.2415 32.8898C28.7959 32.9449 29.3339 33.1092 29.8245 33.3731C30.3151 33.6371 30.7487 33.9955 31.1001 34.4278C31.4516 34.86 31.714 35.3576 31.8723 35.8917V35.8917C32.0346 36.4247 32.0898 36.9845 32.0347 37.5389C31.9796 38.0933 31.8153 38.6313 31.5514 39.1219C31.2874 39.6125 30.929 40.0461 30.4968 40.3975C30.0645 40.749 29.567 41.0114 29.0328 41.1697C28.6324 41.2897 28.2157 41.3467 27.7977 41.3386V41.3386ZM27.7977 35.005C27.5909 35.0072 27.3852 35.0356 27.1855 35.0895C26.6495 35.2506 26.1993 35.618 25.9341 36.1109C25.6688 36.6037 25.6101 37.1818 25.771 37.7179C25.8542 37.9872 25.9905 38.237 26.1717 38.4527C26.353 38.6685 26.5757 38.8458 26.8266 38.9741C27.318 39.2406 27.895 39.3013 28.4311 39.143C28.7003 39.0598 28.9502 38.9235 29.1659 38.7422C29.3817 38.5609 29.5589 38.3383 29.6873 38.0874C29.9502 37.5946 30.0072 37.0176 29.8456 36.4829V36.4829C29.7091 36.0487 29.4361 35.6703 29.067 35.404C28.698 35.1377 28.2528 34.9977 27.7977 35.005Z" fill="#FA4616"/>
<path d="M54.8845 55.9904H47.4952V53.8792H54.8845C54.8845 53.8792 54.8845 53.7631 54.8845 53.6575L44.3284 37.0001L33.8358 53.6575C33.8092 53.6924 33.7948 53.735 33.7948 53.7789C33.7948 53.8227 33.8092 53.8654 33.8358 53.9003H41.1722V56.0115H33.783C33.4146 56.0093 33.0531 55.9107 32.7346 55.7255C32.416 55.5403 32.1516 55.275 31.9673 54.9559C31.764 54.5926 31.6625 54.1811 31.6737 53.7649C31.6848 53.3487 31.8082 52.9432 32.0307 52.5913L42.5867 35.9234C42.7697 35.6242 43.0264 35.377 43.3323 35.2055C43.6382 35.0341 43.983 34.944 44.3337 34.944C44.6844 34.944 45.0292 35.0341 45.3351 35.2055C45.641 35.377 45.8978 35.6242 46.0807 35.9234L56.6368 52.5913C56.8609 52.9423 56.9861 53.3472 56.9991 53.7634C57.0121 54.1796 56.9124 54.5916 56.7107 54.9559C56.5229 55.2726 56.2555 55.5347 55.9352 55.7161C55.6149 55.8976 55.2526 55.9921 54.8845 55.9904Z" fill="#404040"/>
<path d="M45.3734 43.3232H43.2622V51.768H45.3734V43.3232Z" fill="#FA4616"/>
<path d="M45.3734 53.8792H43.2622V55.9904H45.3734V53.8792Z" fill="#FA4616"/>
</svg>
