<svg width="64" height="64" viewBox="0 0 64 64" fill="none" xmlns="http://www.w3.org/2000/svg">
<path d="M39.0417 16.375H16.125V10.125C16.125 9.2962 16.4543 8.50136 17.0403 7.9153C17.6264 7.32925 18.4212 7 19.25 7H35.9167C36.7455 7 37.5403 7.32925 38.1264 7.9153C38.7124 8.50136 39.0417 9.2962 39.0417 10.125V16.375ZM18.2083 14.2917H36.9583V10.125C36.9583 9.84873 36.8486 9.5838 36.6533 9.38845C36.4579 9.1931 36.1929 9.08333 35.9167 9.08333H19.25C18.9737 9.08333 18.7088 9.1931 18.5134 9.38845C18.3181 9.5838 18.2083 9.84873 18.2083 10.125V14.2917Z" fill="#404040"/>
<path d="M36.9583 57H18.2083C16.827 57 15.5022 56.4513 14.5255 55.4745C13.5487 54.4978 13 53.173 13 51.7917V26.7917C13 23.1875 14.8542 21.6354 16.5 20.2709C18.1458 18.9063 19.25 17.9792 19.25 15.3333C19.25 15.0571 19.3598 14.7921 19.5551 14.5968C19.7505 14.4014 20.0154 14.2917 20.2917 14.2917C20.5679 14.2917 20.8329 14.4014 21.0283 14.5968C21.2236 14.7921 21.3333 15.0571 21.3333 15.3333C21.3333 18.9479 19.4688 20.5417 17.8333 21.8646C16.1979 23.1875 15.0833 24.1563 15.0833 26.7917V51.7917C15.0833 52.6205 15.4126 53.4153 15.9986 54.0014C16.5847 54.5874 17.3795 54.9167 18.2083 54.9167H36.9583C37.7871 54.9167 38.582 54.5874 39.1681 54.0014C39.7541 53.4153 40.0833 52.6205 40.0833 51.7917V49.7813C40.0833 49.505 40.1931 49.24 40.3884 49.0447C40.5838 48.8493 40.8487 48.7396 41.125 48.7396C41.4013 48.7396 41.6662 48.8493 41.8616 49.0447C42.0569 49.24 42.1667 49.505 42.1667 49.7813V51.7917C42.1667 53.173 41.618 54.4978 40.6412 55.4745C39.6644 56.4513 38.3397 57 36.9583 57V57Z" fill="#404040"/>
<path d="M41.1252 27.8333C40.8489 27.8333 40.584 27.7236 40.3886 27.5283C40.1933 27.3329 40.0835 27.0679 40.0835 26.7917C40.0835 24.1563 38.8648 23.1459 37.3335 21.8646C35.8023 20.5834 33.8335 18.9479 33.8335 15.3333C33.8335 15.0571 33.9433 14.7921 34.1386 14.5968C34.334 14.4014 34.5989 14.2917 34.8752 14.2917C35.1514 14.2917 35.4164 14.4014 35.6117 14.5968C35.8071 14.7921 35.9168 15.0571 35.9168 15.3333C35.9168 17.9792 37.1252 18.9896 38.6668 20.2709C40.2085 21.5521 42.1668 23.1875 42.1668 26.7917C42.1668 27.0679 42.0571 27.3329 41.8617 27.5283C41.6664 27.7236 41.4014 27.8333 41.1252 27.8333Z" fill="#404040"/>
<path d="M34.6668 50.3958C33.8491 50.4077 33.0373 50.2563 32.2789 49.9504C31.5205 49.6445 30.8308 49.1904 30.2501 48.6146C29.6227 47.9782 29.139 47.2147 28.8318 46.3755C28.5245 45.5364 28.4007 44.6411 28.4689 43.75C28.605 41.8798 29.42 40.1238 30.7606 38.8125L39.5939 29.9792C42.4376 27.1354 46.8855 26.9063 49.396 29.4583C51.9585 32.0208 51.7293 36.4167 48.8855 39.2604L40.0418 48.0938C38.7317 49.4359 36.975 50.2512 35.1043 50.3854L34.6668 50.3958ZM44.9689 29.7604C43.4985 29.7869 42.0981 30.3934 41.0731 31.4479L32.2293 40.2813C31.2518 41.2396 30.6558 42.5204 30.5522 43.8854C30.4959 44.4795 30.5714 45.0786 30.7734 45.6401C30.9755 46.2015 31.299 46.7115 31.7209 47.1334C32.1429 47.5553 32.6528 47.8789 33.2142 48.0809C33.7757 48.2829 34.3748 48.3584 34.9689 48.3021C36.3343 48.2004 37.6158 47.6041 38.5731 46.625L47.4064 37.7917C49.4897 35.7604 49.6668 32.6771 47.9272 30.9375C47.1358 30.169 46.0719 29.7457 44.9689 29.7604Z" fill="#FA4616"/>
<path d="M36.6543 34.3877L35.1812 35.8609L42.9961 43.6758L44.4693 42.2027L36.6543 34.3877Z" fill="#FA4616"/>
<path d="M25.4998 45.5417H14.0415V43.4583H23.4165V32H14.0415V29.9167H25.4998V45.5417Z" fill="#404040"/>
</svg>
