<svg width="64" height="64" viewBox="0 0 64 64" fill="none" xmlns="http://www.w3.org/2000/svg">
<path d="M19.21 45.8037C18.9836 45.805 18.7619 45.7389 18.5733 45.6137C18.3846 45.4886 18.2374 45.31 18.1506 45.1009C18.0638 44.8918 18.0412 44.6616 18.0857 44.4396C18.1303 44.2176 18.2399 44.0139 18.4007 43.8544L45.6225 16.6325C45.8361 16.4202 46.125 16.3011 46.4262 16.3011C46.7274 16.3011 47.0163 16.4202 47.2299 16.6325C47.3367 16.7385 47.4215 16.8646 47.4794 17.0035C47.5373 17.1424 47.5671 17.2914 47.5671 17.4419C47.5671 17.5924 47.5373 17.7414 47.4794 17.8803C47.4215 18.0192 47.3367 18.1453 47.2299 18.2513L20.008 45.4617C19.7975 45.6765 19.5107 45.7994 19.21 45.8037Z" fill="#FA4616"/>
<path d="M10.7634 56.9068H10.4556C9.9046 56.8612 9.37016 56.6957 8.88972 56.422C8.40927 56.1483 7.99442 55.773 7.67418 55.3222C7.15964 54.5651 6.92791 53.6511 7.01962 52.7403C7.11132 51.8295 7.52061 50.98 8.17576 50.3407L12.7355 45.7809C13.233 45.3142 13.6239 44.7458 13.8816 44.1143C14.1393 43.4828 14.2577 42.8031 14.2289 42.1217C14.2048 41.067 14.3943 40.0183 14.7861 39.0388C15.1779 38.0592 15.7639 37.1691 16.5087 36.422L43.514 9.4281C44.8814 8.01628 46.7217 7.15878 48.6823 7.01995C50.6428 6.88111 52.5856 7.4707 54.1383 8.67573V8.67573C54.9803 9.36325 55.6691 10.2195 56.1602 11.1893C56.6513 12.1592 56.9339 13.2211 56.9897 14.3067C57.0456 15.3924 56.8734 16.4777 56.4844 17.4928C56.0954 18.5079 55.4981 19.4303 54.7311 20.2006L27.5092 47.4224C26.7632 48.1689 25.8733 48.7559 24.8935 49.1478C23.9137 49.5398 22.8644 49.7284 21.8095 49.7023C21.1285 49.6772 20.4499 49.7973 19.819 50.0548C19.1881 50.3123 18.6192 50.7012 18.1503 51.1956L13.4537 55.8922C12.7253 56.5711 11.7587 56.9357 10.7634 56.9068V56.9068ZM49.3619 9.20011C47.7757 9.204 46.2554 9.83506 45.1327 10.9556L18.1389 37.9609C17.6086 38.4893 17.1932 39.1214 16.9186 39.8177C16.644 40.5141 16.5161 41.2596 16.5429 42.0077C16.5809 42.9997 16.4074 43.9884 16.034 44.9082C15.6606 45.828 15.0958 46.6578 14.3771 47.3426L9.81728 51.9024C9.5401 52.1567 9.36091 52.5002 9.31092 52.8731C9.26093 53.246 9.34329 53.6245 9.54369 53.9429C9.67191 54.1173 9.83572 54.2624 10.0243 54.3687C10.2128 54.475 10.4218 54.54 10.6374 54.5594C10.8529 54.5788 11.0702 54.5521 11.2747 54.4812C11.4792 54.4103 11.6663 54.2968 11.8236 54.1481L16.5087 49.4515C17.1996 48.7377 18.0322 48.1763 18.9529 47.8033C19.8736 47.4303 20.8622 47.254 21.8551 47.2856C22.6027 47.3175 23.3488 47.193 24.0456 46.9201C24.7424 46.6473 25.3746 46.2321 25.9019 45.7011L53.1123 18.4793C53.6551 17.9339 54.0775 17.2809 54.3524 16.5623C54.6273 15.8436 54.7485 15.0754 54.7083 14.3071C54.6752 13.5395 54.4792 12.7879 54.1333 12.1019C53.7874 11.416 53.2995 10.8115 52.702 10.3287V10.3287C51.7527 9.57743 50.5723 9.17859 49.3619 9.20011Z" fill="#404040"/>
<path d="M16.3949 52.3698C16.2449 52.3707 16.0962 52.3419 15.9573 52.2852C15.8184 52.2285 15.6921 52.1449 15.5856 52.0392L11.8351 48.2774C11.6484 48.0593 11.5508 47.7788 11.5619 47.4919C11.573 47.205 11.6919 46.9329 11.8949 46.7298C12.0979 46.5268 12.3701 46.4079 12.657 46.3968C12.9439 46.3857 13.2244 46.4833 13.4425 46.6701L17.1929 50.4205C17.2997 50.5265 17.3845 50.6525 17.4424 50.7915C17.5003 50.9304 17.5301 51.0794 17.5301 51.2299C17.5301 51.3803 17.5003 51.5293 17.4424 51.6683C17.3845 51.8072 17.2997 51.9332 17.1929 52.0392C16.9806 52.2498 16.694 52.3685 16.3949 52.3698V52.3698Z" fill="#404040"/>
<path d="M48.3017 26.0941C48.1509 26.0935 48.0017 26.0629 47.8627 26.0042C47.7238 25.9455 47.5979 25.8598 47.4923 25.7521L45.6228 23.8826C45.516 23.7766 45.4312 23.6505 45.3733 23.5116C45.3154 23.3727 45.2856 23.2237 45.2856 23.0733C45.2856 22.9228 45.3154 22.7738 45.3733 22.6348C45.4312 22.4959 45.516 22.3698 45.6228 22.2639C45.8364 22.0516 46.1253 21.9324 46.4265 21.9324C46.7276 21.9324 47.0166 22.0516 47.2302 22.2639L49.1111 24.1448C49.2718 24.3042 49.3815 24.5079 49.426 24.7299C49.4705 24.9519 49.448 25.1822 49.3611 25.3913C49.2743 25.6004 49.1272 25.7789 48.9385 25.9041C48.7498 26.0292 48.5281 26.0954 48.3017 26.0941V26.0941Z" fill="#404040"/>
<path d="M42.6704 31.7254C42.5195 31.7248 42.3703 31.6942 42.2314 31.6355C42.0925 31.5768 41.9666 31.4911 41.861 31.3834L39.9915 29.5139C39.8847 29.4079 39.7998 29.2818 39.742 29.1429C39.6841 29.004 39.6543 28.855 39.6543 28.7045C39.6543 28.554 39.6841 28.4051 39.742 28.2662C39.7998 28.1273 39.8847 28.0012 39.9915 27.8952C40.2051 27.6829 40.494 27.5637 40.7951 27.5637C41.0963 27.5637 41.3852 27.6829 41.5988 27.8952L43.4797 29.7761C43.6405 29.9355 43.7501 30.1393 43.7947 30.3613C43.8392 30.5833 43.8166 30.8135 43.7298 31.0226C43.643 31.2317 43.4958 31.4102 43.3071 31.5354C43.1185 31.6606 42.8968 31.7267 42.6704 31.7254Z" fill="#404040"/>
<path d="M37.039 37.3567C36.8882 37.3561 36.739 37.3256 36.6001 37.2669C36.4611 37.2082 36.3352 37.1225 36.2297 37.0147L34.3602 35.1453C34.2533 35.0393 34.1685 34.9132 34.1106 34.7743C34.0527 34.6354 34.0229 34.4864 34.0229 34.3359C34.0229 34.1854 34.0527 34.0364 34.1106 33.8975C34.1685 33.7586 34.2533 33.6325 34.3602 33.5265C34.5737 33.3142 34.8627 33.195 35.1638 33.195C35.465 33.195 35.7539 33.3142 35.9675 33.5265L37.8484 35.4074C38.0091 35.5669 38.1188 35.7706 38.1633 35.9926C38.2079 36.2146 38.1853 36.4448 38.0985 36.654C38.0116 36.8631 37.8645 37.0416 37.6758 37.1667C37.4871 37.2919 37.2654 37.3581 37.039 37.3567V37.3567Z" fill="#404040"/>
<path d="M31.4082 42.9881C31.2573 42.9874 31.1081 42.9569 30.9692 42.8982C30.8303 42.8395 30.7044 42.7538 30.5988 42.6461L28.7293 40.7766C28.6224 40.6706 28.5376 40.5445 28.4798 40.4056C28.4219 40.2667 28.3921 40.1177 28.3921 39.9672C28.3921 39.8167 28.4219 39.6677 28.4798 39.5288C28.5376 39.3899 28.6224 39.2638 28.7293 39.1578C28.9429 38.9455 29.2318 38.8263 29.533 38.8263C29.8341 38.8263 30.123 38.9455 30.3366 39.1578L32.2175 41.0387C32.3783 41.1982 32.4879 41.4019 32.5325 41.6239C32.577 41.8459 32.5544 42.0761 32.4676 42.2852C32.3808 42.4944 32.2336 42.6729 32.045 42.7981C31.8563 42.9232 31.6346 42.9894 31.4082 42.9881Z" fill="#404040"/>
</svg>
