<svg width="64" height="64" viewBox="0 0 64 64" fill="none" xmlns="http://www.w3.org/2000/svg">
<path d="M29.64 56.8609C29.5357 56.8767 29.4296 56.8767 29.3253 56.8609C20.5153 54.092 7.77208 48.7116 7.64623 48.6591C7.45829 48.5796 7.29765 48.4469 7.18401 48.2773C7.07036 48.1078 7.00864 47.9088 7.00643 47.7047C7.00391 47.5023 7.06003 47.3035 7.16797 47.1323C7.27591 46.9611 7.43107 46.8248 7.61476 46.7398L13.2574 44.1282C13.508 44.0133 13.7938 44.0018 14.0529 44.096C14.312 44.1902 14.5236 44.3826 14.6419 44.6317C14.76 44.8834 14.7734 45.1718 14.679 45.4334C14.5846 45.695 14.3901 45.9083 14.1384 46.0266L10.6668 47.6418C14.6314 49.2675 23.2002 52.7181 29.7029 54.7842C33.7514 54.0081 36.7615 53.0537 38.2508 50.998C38.534 50.6099 38.8486 50.075 39.1842 49.5087C40.8624 46.6559 43.6627 41.8838 49.599 43.6667C50.0035 43.8131 50.4347 43.871 50.8635 43.8366C51.2923 43.8023 51.7087 43.6764 52.0847 43.4675C53.186 42.8382 54.0775 41.3698 54.6963 39.2722C53.894 39.0493 53.0776 38.8811 52.2525 38.7688C52.1148 38.7509 51.9819 38.706 51.8615 38.6367C51.7411 38.5675 51.6356 38.4752 51.5508 38.3652C51.3797 38.1429 51.3039 37.8618 51.3401 37.5836C51.3762 37.3054 51.5214 37.053 51.7437 36.8819C51.9659 36.7108 52.2471 36.635 52.5252 36.6711C53.8442 36.8398 55.1393 37.1601 56.3849 37.6256C56.6061 37.726 56.7856 37.9001 56.8927 38.1182C56.9999 38.3362 57.028 38.5847 56.9722 38.8212C56.2171 42.0621 54.927 44.2331 53.144 45.261C52.5131 45.6216 51.8121 45.8428 51.0885 45.9098C50.3648 45.9767 49.6352 45.8878 48.9488 45.649C44.9318 44.4429 42.939 47.1593 40.9463 50.547C40.5792 51.1658 40.2331 51.7427 39.8974 52.2146C37.9676 54.8682 34.454 55.9904 29.7868 56.8714L29.64 56.8609Z" fill="#FA4616"/>
<path d="M27.7205 49.6241C27.3861 49.6254 27.0524 49.5937 26.7242 49.5296C24.2984 49.0924 22.0856 47.8643 20.4313 46.0371C19.939 45.5305 19.398 45.0738 18.8161 44.6736C18.1861 44.2875 17.5348 43.9374 16.8653 43.6248C14.9564 42.7228 12.7854 41.7055 11.8519 39.6393C11.0758 37.9297 8.55862 36.5977 7.65664 36.2306C7.52813 36.1788 7.41116 36.102 7.31249 36.0048C7.21382 35.9075 7.13542 35.7916 7.08178 35.6639C7.02815 35.5361 7.00035 35.399 7 35.2605C6.99966 35.1219 7.02676 34.9847 7.07977 34.8567C7.13258 34.7291 7.21005 34.6132 7.30775 34.5156C7.40546 34.4181 7.52149 34.3408 7.64915 34.2882C7.7768 34.2355 7.91357 34.2086 8.05164 34.209C8.18971 34.2094 8.32635 34.237 8.45372 34.2903C8.61104 34.3532 12.4812 35.9474 13.7607 38.7792C14.3795 40.1427 16.0996 40.9503 17.7567 41.7264C18.5062 42.0594 19.2348 42.4377 19.9383 42.8592C20.6386 43.3338 21.2887 43.8785 21.8786 44.4848C23.249 46.0247 25.0949 47.062 27.1227 47.432C27.627 47.5955 28.1745 47.5621 28.6552 47.3383C29.1358 47.1145 29.5139 46.7171 29.7133 46.2259C29.7133 46.2259 29.8497 45.7644 28.203 44.6002C27.9513 44.4219 27.6681 44.2751 27.3744 44.1073C26.1392 43.5132 25.0613 42.6364 24.228 41.5481C23.9783 41.2267 23.802 40.8545 23.7114 40.4577C23.6208 40.061 23.6181 39.6492 23.7036 39.2512C23.7601 39.0005 23.8712 38.7652 24.0289 38.5622C24.1866 38.3592 24.3871 38.1934 24.616 38.0765C25.4956 37.2862 26.3324 36.4494 27.1227 35.5699C27.3052 35.3719 27.5568 35.2518 27.8254 35.2342L38.2612 34.563C38.4736 34.5555 38.6839 34.6063 38.8695 34.7098C40.566 35.7301 42.4305 36.4404 44.3758 36.8075C45.5327 36.9186 46.6972 36.6966 47.732 36.1677L39.7505 31.5214L32.4088 29.6965L16.4457 27.8086C16.2623 27.7916 16.0877 27.7224 15.9423 27.6093L8.39079 21.9562C8.16826 21.7893 8.02114 21.5408 7.9818 21.2654C7.94246 20.9901 8.01415 20.7104 8.18105 20.4878C8.34794 20.2653 8.5964 20.1182 8.87177 20.0788C9.14714 20.0395 9.42686 20.1112 9.64939 20.2781L16.9911 25.7634L32.7234 27.6198H32.8493L40.3903 29.5077C40.485 29.5317 40.5766 29.5669 40.663 29.6126L49.9031 34.993C50.0602 35.0784 50.1908 35.2054 50.2807 35.3601C50.4036 35.5813 50.461 35.8329 50.4462 36.0855C50.4313 36.3381 50.3448 36.5813 50.1968 36.7865C49.4836 37.8353 46.83 39.2093 44.1136 38.8841C41.9822 38.507 39.9338 37.7579 38.0619 36.6711L28.3708 37.2899C27.5611 38.2071 26.677 39.0561 25.7278 39.8281C25.7323 39.9878 25.7874 40.1421 25.8851 40.2686C26.5534 41.1154 27.4075 41.7972 28.3813 42.2613C28.7453 42.4422 29.0958 42.649 29.4301 42.8801C30.2377 43.4465 32.3878 44.9778 31.7166 46.9076C31.4445 47.7384 30.9048 48.4557 30.1817 48.9472C29.4587 49.4387 28.5932 49.6767 27.7205 49.6241V49.6241Z" fill="#404040"/>
<path d="M47.2391 45.3554H46.9664L34.884 41.9991C34.6156 41.924 34.388 41.7454 34.2513 41.5025C34.1146 41.2595 34.08 40.9723 34.1551 40.7038C34.2302 40.4354 34.4089 40.2078 34.6518 40.0711C34.8947 39.9344 35.182 39.8998 35.4504 39.9749L47.5223 43.3311C47.6553 43.3676 47.7797 43.4298 47.8886 43.5144C47.9975 43.5989 48.0886 43.7041 48.1568 43.8239C48.225 43.9438 48.2689 44.0758 48.286 44.2126C48.3031 44.3494 48.2931 44.4883 48.2565 44.6212C48.1887 44.8369 48.053 45.0249 47.8697 45.1572C47.6863 45.2895 47.4652 45.359 47.2391 45.3554V45.3554Z" fill="#FA4616"/>
<path d="M53.1228 35.4755C52.9823 35.4763 52.843 35.4489 52.7133 35.3948C52.5836 35.3408 52.466 35.2612 52.3676 35.1608C52.2693 35.0633 52.1913 34.9473 52.1381 34.8195C52.0848 34.6917 52.0574 34.5546 52.0574 34.4162C52.0574 34.2777 52.0848 34.1406 52.1381 34.0128C52.1913 33.885 52.2693 33.769 52.3676 33.6715C52.5671 33.476 52.7255 33.2426 52.8336 32.9851C52.9416 32.7275 52.9972 32.451 52.9969 32.1717V16.4394C52.9969 15.8831 52.7759 15.3495 52.3826 14.9561C51.9892 14.5627 51.4556 14.3418 50.8993 14.3418H40.4111C39.8548 14.3418 39.3212 14.5627 38.9278 14.9561C38.5345 15.3495 38.3135 15.8831 38.3135 16.4394V25.8788C38.3135 26.1569 38.203 26.4237 38.0063 26.6204C37.8096 26.8171 37.5428 26.9276 37.2646 26.9276C36.9865 26.9276 36.7197 26.8171 36.523 26.6204C36.3263 26.4237 36.2158 26.1569 36.2158 25.8788V16.4394C36.2158 15.3267 36.6578 14.2596 37.4446 13.4729C38.2314 12.6861 39.2984 12.2441 40.4111 12.2441H50.8993C52.012 12.2441 53.079 12.6861 53.8658 13.4729C54.6526 14.2596 55.0946 15.3267 55.0946 16.4394V32.1717C55.0985 32.7318 54.988 33.2867 54.7698 33.8025C54.5515 34.3183 54.2302 34.7841 53.8255 35.1713C53.638 35.3576 53.387 35.4663 53.1228 35.4755V35.4755Z" fill="#404040"/>
<path d="M49.8715 14.3417C49.5933 14.3417 49.3266 14.2312 49.1299 14.0345C48.9332 13.8379 48.8227 13.5711 48.8227 13.2929V10.1465C48.8227 9.8683 48.7122 9.60152 48.5155 9.40483C48.3188 9.20814 48.052 9.09764 47.7739 9.09764H43.5786C43.3004 9.09764 43.0336 9.20814 42.8369 9.40483C42.6403 9.60152 42.5298 9.8683 42.5298 10.1465V13.2929C42.5298 13.5711 42.4193 13.8379 42.2226 14.0345C42.0259 14.2312 41.7591 14.3417 41.4809 14.3417C41.2028 14.3417 40.936 14.2312 40.7393 14.0345C40.5426 13.8379 40.4321 13.5711 40.4321 13.2929V10.1465C40.4321 9.31197 40.7636 8.51165 41.3537 7.92157C41.9438 7.3315 42.7441 7 43.5786 7H47.7739C48.6084 7 49.4087 7.3315 49.9987 7.92157C50.5888 8.51165 50.9203 9.31197 50.9203 10.1465V13.2929C50.9203 13.5711 50.8098 13.8379 50.6131 14.0345C50.4164 14.2312 50.1497 14.3417 49.8715 14.3417Z" fill="#404040"/>
<path d="M45.6763 27.9764C45.3981 27.9764 45.1313 27.8659 44.9346 27.6692C44.7379 27.4725 44.6274 27.2058 44.6274 26.9276V20.6347C44.6274 20.3565 44.7379 20.0897 44.9346 19.893C45.1313 19.6963 45.3981 19.5858 45.6763 19.5858C45.9544 19.5858 46.2212 19.6963 46.4179 19.893C46.6146 20.0897 46.7251 20.3565 46.7251 20.6347V26.9276C46.7251 27.2058 46.6146 27.4725 46.4179 27.6692C46.2212 27.8659 45.9544 27.9764 45.6763 27.9764Z" fill="#FA4616"/>
<path d="M48.8227 24.8299H42.5298C42.2516 24.8299 41.9848 24.7194 41.7881 24.5227C41.5914 24.3261 41.481 24.0593 41.481 23.7811C41.481 23.503 41.5914 23.2362 41.7881 23.0395C41.9848 22.8428 42.2516 22.7323 42.5298 22.7323H48.8227C49.1009 22.7323 49.3676 22.8428 49.5643 23.0395C49.761 23.2362 49.8715 23.503 49.8715 23.7811C49.8715 24.0593 49.761 24.3261 49.5643 24.5227C49.3676 24.7194 49.1009 24.8299 48.8227 24.8299Z" fill="#FA4616"/>
</svg>
