<svg width="64" height="64" viewBox="0 0 64 64" fill="none" xmlns="http://www.w3.org/2000/svg">
<path d="M35.8543 28.0625C35.6824 28.0624 35.5132 28.0197 35.3618 27.9382C35.2103 27.8568 35.0814 27.7391 34.9865 27.5958C34.8916 27.4524 34.8337 27.2878 34.8179 27.1166C34.8021 26.9454 34.8289 26.7729 34.896 26.6146C36.1943 23.3482 36.9338 19.8867 37.0835 16.375C37.0835 14.0521 35.9897 10.125 31.8752 10.125C31.5989 10.125 31.3339 10.0153 31.1386 9.81991C30.9432 9.62456 30.8335 9.35961 30.8335 9.08334C30.8335 8.80707 30.9432 8.54212 31.1386 8.34677C31.3339 8.15142 31.5989 8.04167 31.8752 8.04167C36.8856 8.04167 39.1668 12.3646 39.1668 16.375C39.0306 20.1645 38.2339 23.9011 36.8127 27.4167C36.7345 27.6069 36.6018 27.7697 36.4313 27.8847C36.2607 27.9996 36.06 28.0615 35.8543 28.0625V28.0625Z" fill="#404040"/>
<path d="M31.8752 11.1667C31.5989 11.1667 31.3339 11.0569 31.1386 10.8616C30.9432 10.6662 30.8335 10.4013 30.8335 10.125V8.04167C30.8335 7.7654 30.9432 7.50045 31.1386 7.3051C31.3339 7.10975 31.5989 7 31.8752 7C32.1514 7 32.4164 7.10975 32.6117 7.3051C32.8071 7.50045 32.9168 7.7654 32.9168 8.04167V10.125C32.9168 10.4013 32.8071 10.6662 32.6117 10.8616C32.4164 11.0569 32.1514 11.1667 31.8752 11.1667Z" fill="#404040"/>
<path d="M13.3021 28.0729C13.0964 28.0719 12.8957 28.01 12.7251 27.8951C12.5546 27.7802 12.4219 27.6173 12.3437 27.4271C10.9342 23.9048 10.1414 20.1662 10 16.375C10 12.3646 12.2812 8.04167 17.2917 8.04167C17.5679 8.04167 17.8329 8.15142 18.0282 8.34677C18.2236 8.54212 18.3333 8.80707 18.3333 9.08334C18.3333 9.35961 18.2236 9.62456 18.0282 9.81991C17.8329 10.0153 17.5679 10.125 17.2917 10.125C13.1875 10.125 12.0833 14.0521 12.0833 16.375C12.2336 19.89 12.9731 23.3549 14.2708 26.625C14.3238 26.7515 14.3512 26.8872 14.3516 27.0243C14.3519 27.1615 14.3252 27.2973 14.273 27.4241C14.2207 27.5509 14.1439 27.6661 14.047 27.7632C13.9501 27.8602 13.835 27.9371 13.7083 27.9896C13.5792 28.0421 13.4415 28.0703 13.3021 28.0729V28.0729Z" fill="#404040"/>
<path d="M17.2917 11.1667C17.0154 11.1667 16.7504 11.0569 16.5551 10.8616C16.3597 10.6662 16.25 10.4013 16.25 10.125V8.04167C16.25 7.7654 16.3597 7.50045 16.5551 7.3051C16.7504 7.10975 17.0154 7 17.2917 7C17.5679 7 17.8329 7.10975 18.0282 7.3051C18.2236 7.50045 18.3333 7.7654 18.3333 8.04167V10.125C18.3333 10.4013 18.2236 10.6662 18.0282 10.8616C17.8329 11.0569 17.5679 11.1667 17.2917 11.1667Z" fill="#404040"/>
<path d="M38.1248 57H33.9582C31.1955 57 28.546 55.9025 26.5925 53.949C24.639 51.9955 23.5415 49.346 23.5415 46.5833V43.4583C23.5415 43.1821 23.6512 42.9171 23.8466 42.7217C24.042 42.5264 24.3069 42.4167 24.5832 42.4167C24.8594 42.4167 25.1244 42.5264 25.3197 42.7217C25.5151 42.9171 25.6248 43.1821 25.6248 43.4583V46.5833C25.6248 48.7935 26.5028 50.9131 28.0656 52.4759C29.6284 54.0387 31.748 54.9167 33.9582 54.9167H38.1248C40.335 54.9167 42.4546 54.0387 44.0174 52.4759C45.5802 50.9131 46.4582 48.7935 46.4582 46.5833V33.0417C46.4582 32.7654 46.5679 32.5004 46.7633 32.3051C46.9586 32.1097 47.2236 32 47.4998 32C47.7761 32 48.0411 32.1097 48.2364 32.3051C48.4318 32.5004 48.5415 32.7654 48.5415 33.0417V46.5833C48.5415 49.346 47.444 51.9955 45.4905 53.949C43.537 55.9025 40.8875 57 38.1248 57V57Z" fill="#404040"/>
<path d="M47.5002 34.0834C46.058 34.0834 44.6482 33.6557 43.4491 32.8545C42.25 32.0533 41.3154 30.9145 40.7635 29.5821C40.2116 28.2497 40.0673 26.7836 40.3486 25.3692C40.63 23.9547 41.3244 22.6554 42.3442 21.6357C43.3639 20.6159 44.6632 19.9215 46.0776 19.6401C47.4921 19.3588 48.9582 19.5032 50.2906 20.0551C51.6229 20.607 52.7617 21.5415 53.563 22.7406C54.3642 23.9398 54.7918 25.3495 54.7918 26.7917C54.7918 28.7256 54.0236 30.5802 52.6562 31.9477C51.2887 33.3151 49.434 34.0834 47.5002 34.0834ZM47.5002 21.5834C46.4701 21.5834 45.4631 21.8888 44.6066 22.4611C43.7501 23.0334 43.0825 23.8468 42.6883 24.7985C42.2941 25.7502 42.1909 26.7975 42.3919 27.8078C42.5929 28.8181 43.0889 29.7461 43.8173 30.4745C44.5457 31.2029 45.4738 31.699 46.4841 31.8999C47.4944 32.1009 48.5416 31.9978 49.4933 31.6036C50.445 31.2093 51.2584 30.5418 51.8307 29.6853C52.403 28.8288 52.7085 27.8218 52.7085 26.7917C52.7085 25.4104 52.1598 24.0856 51.183 23.1088C50.2063 22.1321 48.8815 21.5834 47.5002 21.5834Z" fill="#404040"/>
<path d="M44.3752 27.8333C44.0989 27.8333 43.8339 27.7236 43.6386 27.5282C43.4432 27.3329 43.3335 27.0679 43.3335 26.7917C43.3335 25.6866 43.7725 24.6268 44.5539 23.8454C45.3353 23.064 46.3951 22.625 47.5002 22.625C47.7764 22.625 48.0414 22.7347 48.2367 22.9301C48.4321 23.1254 48.5418 23.3904 48.5418 23.6667C48.5418 23.9429 48.4321 24.2079 48.2367 24.4032C48.0414 24.5986 47.7764 24.7083 47.5002 24.7083C46.9476 24.7083 46.4177 24.9278 46.027 25.3185C45.6363 25.7092 45.4168 26.2391 45.4168 26.7917C45.4168 27.0679 45.3071 27.3329 45.1117 27.5282C44.9164 27.7236 44.6514 27.8333 44.3752 27.8333Z" fill="#404040"/>
<path d="M25.6248 44.5H23.5415C22.989 44.5 22.4591 44.2805 22.0684 43.8898C21.6777 43.4991 21.4582 42.9692 21.4582 42.4167V41.1771C21.4587 41.0215 21.4244 40.8677 21.3577 40.7271C21.291 40.5865 21.1936 40.4626 21.0728 40.3646C18.9894 38.7292 14.0103 34.4479 11.8228 29.9479C11.6387 29.563 11.5354 29.1444 11.5193 28.718C11.5032 28.2917 11.5746 27.8665 11.729 27.4688C11.8839 27.078 12.12 26.7245 12.4217 26.4318C12.7233 26.1391 13.0837 25.9138 13.479 25.7708C14.1583 25.5348 14.8989 25.5453 15.5712 25.8005C16.2435 26.0557 16.8046 26.5393 17.1561 27.1667C19.7707 31.5729 23.5623 34.6875 24.5832 35.1146C25.6248 34.6875 29.4373 31.5417 32.0623 27.0937C32.2754 26.7231 32.5651 26.4022 32.9123 26.1527C33.2594 25.9031 33.6558 25.7307 34.075 25.6469C34.4943 25.563 34.9265 25.5697 35.3429 25.6666C35.7593 25.7634 36.1502 25.9481 36.4894 26.2083C37.0473 26.6619 37.4317 27.294 37.5778 27.998C37.7239 28.702 37.6228 29.4348 37.2915 30.0729C35.0623 34.5521 30.1144 38.7812 28.0936 40.3854C27.9727 40.4835 27.8754 40.6073 27.8087 40.7479C27.742 40.8885 27.7076 41.0423 27.7082 41.1979V42.4375C27.7027 42.9864 27.4808 43.511 27.0907 43.8972C26.7006 44.2834 26.1738 44.5 25.6248 44.5ZM14.479 27.6562C14.3894 27.6411 14.2978 27.6411 14.2082 27.6562C14.0843 27.7015 13.9711 27.7721 13.8761 27.8636C13.781 27.9551 13.7061 28.0654 13.6561 28.1875C13.5519 28.4411 13.5519 28.7255 13.6561 28.9792C15.6561 33.1458 20.3853 37.1458 22.3228 38.6979C22.6891 38.99 22.9852 39.3607 23.1889 39.7826C23.3927 40.2045 23.4989 40.6669 23.4999 41.1354V42.375H25.5832V41.1354C25.5841 40.6669 25.6904 40.2045 25.8941 39.7826C26.0979 39.3607 26.3939 38.99 26.7603 38.6979C28.6769 37.1771 33.3436 33.1875 35.3853 29.0833C35.5007 28.8777 35.5429 28.639 35.5051 28.4063C35.4672 28.1735 35.3515 27.9606 35.1769 27.8021C35.0742 27.724 34.9561 27.6687 34.8303 27.64C34.7046 27.6113 34.5742 27.6097 34.4478 27.6354C34.3167 27.6622 34.1925 27.7158 34.0832 27.7928C33.9738 27.8699 33.8816 27.9688 33.8123 28.0833C31.0623 32.7604 26.2603 37.1667 24.5415 37.1667C22.8228 37.1667 18.0728 32.8021 15.3228 28.1667C15.2352 28.0185 15.1123 27.8943 14.9651 27.8053C14.8179 27.7162 14.6509 27.665 14.479 27.6562V27.6562Z" fill="#FA4616"/>
<path d="M24.583 32C22.2044 31.8796 19.8428 31.5308 17.531 30.9583C17.2631 30.8919 17.0326 30.7218 16.89 30.4855C16.7474 30.2491 16.7045 29.9659 16.7705 29.6979C16.8023 29.5643 16.8602 29.4384 16.9409 29.3272C17.0215 29.2161 17.1233 29.122 17.2404 29.0504C17.3576 28.9787 17.4877 28.931 17.6234 28.9098C17.7591 28.8887 17.8976 28.8945 18.031 28.9271C20.1796 29.4575 22.3732 29.7853 24.583 29.9063C26.8057 29.7696 29.0101 29.4208 31.1664 28.8646C31.4344 28.7969 31.7182 28.8384 31.9556 28.9801C32.1929 29.1217 32.3643 29.3518 32.432 29.6198C32.4997 29.8878 32.4581 30.1716 32.3165 30.409C32.1749 30.6464 31.9448 30.8177 31.6768 30.8854C29.3545 31.4886 26.9784 31.8619 24.583 32V32Z" fill="#FA4616"/>
</svg>
