<svg width="64" height="64" viewBox="0 0 64 64" fill="none" xmlns="http://www.w3.org/2000/svg">
<path d="M30.7082 21.5833H28.6248V20.5417C28.6248 16.8542 30.7082 14.2917 33.8332 14.2917V11.1667H21.3332C17.729 11.1667 16.1248 12.7708 16.1248 16.375H18.2082C20.9373 16.375 22.3748 17.8125 22.3748 20.5417V21.5833H20.2915V20.5417C20.2915 18.9375 19.8019 18.4583 18.2082 18.4583H14.0415V16.375C14.0415 11.6042 16.5623 9.08334 21.3332 9.08334H35.9165V16.375H33.8332C31.5207 16.375 30.7082 18.6146 30.7082 20.5417V21.5833Z" fill="#404040"/>
<path d="M38.2398 16.375H36.9585V14.2917H37.7502L39.0418 13.6458V11.8125L37.7502 11.1667H36.9585V9.08334H38.2398L41.1252 10.5208V14.9375L38.2398 16.375Z" fill="#404040"/>
<path d="M40.0832 28.875C39.8743 28.8724 39.6711 28.8071 39.4998 28.6875C36.2882 26.5715 33.8956 23.4219 32.7186 19.7604C32.6495 19.4924 32.6897 19.208 32.8304 18.9697C32.971 18.7313 33.2006 18.5586 33.4686 18.4896C33.7365 18.4205 34.021 18.4607 34.2593 18.6014C34.4977 18.742 34.6703 18.9716 34.7394 19.2396V19.2396C35.8067 22.4001 37.891 25.1181 40.6665 26.9687C40.7802 27.0452 40.8776 27.1434 40.9533 27.2576C41.029 27.3718 41.0814 27.4998 41.1075 27.6343C41.1337 27.7688 41.133 27.9072 41.1056 28.0414C41.0781 28.1757 41.0245 28.3032 40.9477 28.4166C40.8522 28.558 40.7234 28.6737 40.5726 28.7537C40.4219 28.8336 40.2538 28.8752 40.0832 28.875Z" fill="#404040"/>
<path d="M30.7082 25.75H28.6248V22.625H22.3748V25.75H20.2915V20.5417H30.7082V25.75Z" fill="#404040"/>
<path d="M33.8333 57H17.1667C16.0616 57 15.0018 56.561 14.2204 55.7796C13.439 54.9982 13 53.9384 13 52.8333C13.0729 41.8542 14.0417 30.8854 20.625 25.0104L20.9271 24.75H29.6562C30.7458 24.7984 31.7777 25.2529 32.5489 26.0241C33.32 26.7952 33.7745 27.8272 33.8229 28.9167V34.125C33.8229 34.4479 34.1979 34.9167 34.6771 35.5208C35.9896 37.1667 37.9896 39.6875 37.9896 45.5833V52.875C37.9786 53.971 37.5362 55.0186 36.7583 55.7907C35.9803 56.5628 34.9294 56.9973 33.8333 57V57ZM21.7396 26.7917C16.0312 32.1979 15.1667 42.4792 15.0938 52.8333C15.0894 53.111 15.1406 53.3868 15.2443 53.6443C15.3481 53.9019 15.5023 54.1362 15.6979 54.3333C15.8917 54.5283 16.1222 54.683 16.3761 54.7885C16.6299 54.8939 16.9022 54.9481 17.1771 54.9479H33.8438C34.3963 54.9479 34.9262 54.7284 35.3169 54.3377C35.7076 53.947 35.9271 53.4171 35.9271 52.8646V45.5729C35.9271 40.3646 34.2708 38.2813 33.0625 36.8125C32.3282 36.0918 31.8678 35.1379 31.7604 34.1146V28.9062C31.7115 28.3702 31.4763 27.8683 31.0957 27.4876C30.7151 27.107 30.2131 26.8718 29.6771 26.8229L21.7396 26.7917Z" fill="#404040"/>
<path d="M46.3333 9.08334H44.25V11.1667H46.3333V9.08334Z" fill="#404040"/>
<path d="M46.3333 13.25H44.25V15.3333H46.3333V13.25Z" fill="#404040"/>
<path d="M50.4998 7H48.4165V9.08333H50.4998V7Z" fill="#404040"/>
<path d="M50.4998 11.1667H48.4165V13.25H50.4998V11.1667Z" fill="#404040"/>
<path d="M50.4998 15.3333H48.4165V17.4167H50.4998V15.3333Z" fill="#404040"/>
<path d="M28.6252 51.7917H22.3752V47.625H18.2085V41.375H22.3752V37.2083H28.6252V41.375H32.7918V47.625H28.6252V51.7917ZM24.4585 49.7083H26.5418V45.5417H30.7085V43.4583H26.5418V39.2917H24.4585V43.4583H20.2918V45.5417H24.4585V49.7083Z" fill="#FA4616"/>
</svg>
