<svg width="64" height="64" viewBox="0 0 64 64" fill="none" xmlns="http://www.w3.org/2000/svg">
<path d="M28.4367 40.3302C28.2907 40.3412 28.144 40.3233 28.0049 40.2775C27.8658 40.2318 27.7371 40.159 27.6261 40.0635C27.402 39.8707 27.2636 39.5966 27.2415 39.3018C27.2194 39.0069 27.3153 38.7153 27.5082 38.4911C27.7011 38.267 27.9751 38.1287 28.27 38.1065C29.1817 37.962 30.2824 37.7507 30.7271 37.6396C30.2268 36.65 30.1267 36.1942 30.2491 35.7383C30.3557 35.4615 30.5228 35.212 30.7383 35.0081C30.9537 34.8041 31.212 34.651 31.4943 34.5597C31.7389 34.4374 32.0614 34.2707 32.4727 34.0261C32.6205 33.9602 32.7418 33.8466 32.8174 33.7036C32.8127 33.5429 32.7583 33.3875 32.6617 33.2589C32.5728 33.1143 32.3727 32.8475 32.1281 32.5028C30.0934 29.6787 28.9037 27.8219 28.7925 26.7435C28.7674 26.403 28.7674 26.0611 28.7925 25.7206C28.9523 24.1264 28.8622 22.5171 28.5257 20.9507C28.0397 19.0823 27.2225 17.3161 26.113 15.7362C26.0261 15.6186 25.9632 15.4851 25.928 15.3433C25.8927 15.2015 25.8856 15.0541 25.9073 14.9095C25.929 14.765 25.979 14.6261 26.0543 14.5009C26.1297 14.3756 26.2289 14.2665 26.3465 14.1796C26.464 14.0927 26.5975 14.0298 26.7393 13.9946C26.8812 13.9593 27.0286 13.9523 27.1731 13.974C27.3177 13.9956 27.4565 14.0456 27.5817 14.1209C27.707 14.1963 27.8162 14.2955 27.903 14.4131C30.3514 17.708 31.4635 21.8068 31.0162 25.8873C30.9976 26.1242 30.9976 26.3621 31.0162 26.5989C31.7767 28.2494 32.7444 29.7962 33.8959 31.202C34.1739 31.5911 34.3962 31.8913 34.4963 32.047C34.7208 32.3665 34.8771 32.7289 34.9555 33.1114C35.0339 33.494 35.0328 33.8886 34.9522 34.2707C34.851 34.6363 34.6766 34.9776 34.4397 35.2738C34.2027 35.57 33.908 35.8151 33.5735 35.994C33.1732 36.2275 32.8619 36.3943 32.595 36.5277L32.8841 37.0725C33 37.2851 33.0698 37.5198 33.089 37.7611C33.1082 38.0025 33.0762 38.2452 32.9953 38.4734C32.8736 38.7604 32.6929 39.0186 32.4649 39.2312C32.237 39.4438 31.9669 39.6061 31.6722 39.7076C30.6582 39.9946 29.6254 40.21 28.5813 40.3525L28.4367 40.3302Z" fill="#404040"/>
<path d="M27.1913 48.0576C24.1671 47.92 21.1664 47.4578 18.2409 46.6789C16.8734 46.2453 15.1723 42.9653 14.494 41.5644C14.4185 41.4317 14.3712 41.2848 14.3549 41.133C14.3387 40.9812 14.3539 40.8276 14.3996 40.6819C14.4453 40.5362 14.5205 40.4015 14.6206 40.2861C14.7206 40.1708 14.8434 40.0773 14.9811 40.0115C15.1189 39.9456 15.2688 39.9089 15.4214 39.9035C15.574 39.8982 15.7261 39.9243 15.8682 39.9803C16.0102 40.0363 16.1392 40.1209 16.2471 40.2289C16.355 40.337 16.4396 40.4661 16.4954 40.6082C17.1229 42.054 17.9664 43.3961 18.997 44.5886C20.6982 45.1001 27.069 46.2453 28.47 45.7005C29.4817 45.3225 29.4818 45.1334 29.4595 44.344V44.0327C29.4508 43.8907 29.4169 43.7515 29.3594 43.6213C29.2053 43.221 29.1357 42.793 29.1548 42.3645C29.174 41.9359 29.2815 41.5159 29.4706 41.1308C29.5841 40.858 29.8014 40.6415 30.0745 40.5289C30.3477 40.4163 30.6544 40.4169 30.9271 40.5304C31.1999 40.6439 31.4164 40.8612 31.529 41.1343C31.6416 41.4075 31.6411 41.7142 31.5275 41.9869C31.4392 42.1204 31.3867 42.2744 31.375 42.434C31.3633 42.5937 31.3929 42.7537 31.4608 42.8986C31.6007 43.253 31.6761 43.6296 31.6832 44.0105V44.2773C31.8062 45.0705 31.6214 45.8806 31.1667 46.542C30.712 47.2034 30.0217 47.666 29.2371 47.8352C28.5723 48.0223 27.8809 48.0975 27.1913 48.0576V48.0576Z" fill="#404040"/>
<path d="M20.3975 55.6737C20.2943 55.6899 20.1893 55.6899 20.0862 55.6737C19.8031 55.5911 19.5644 55.3995 19.4226 55.1409C19.2808 54.8824 19.2476 54.5781 19.3301 54.295L20.6866 49.7142L25.2007 46.0785C25.4307 45.8927 25.7251 45.8059 26.0191 45.8372C26.3131 45.8684 26.5826 46.0152 26.7684 46.2452C26.9542 46.4753 27.0409 46.7696 27.0097 47.0636C26.9784 47.3576 26.8316 47.6272 26.6016 47.8129L22.6212 51.004L21.5093 54.9288C21.43 55.1568 21.2787 55.3529 21.0781 55.4873C20.8775 55.6217 20.6386 55.6871 20.3975 55.6737Z" fill="#404040"/>
<path d="M18.6415 22.3406C17.9947 22.3509 17.3521 22.2336 16.7506 21.9956C16.149 21.7575 15.6003 21.4033 15.1357 20.9531C14.6711 20.503 14.2997 19.9657 14.0427 19.372C13.7858 18.7783 13.6483 18.1398 13.6382 17.4929C13.6382 14.1574 17.3851 9.85453 17.8076 9.37644C17.9119 9.25813 18.0403 9.16338 18.184 9.09848C18.3278 9.03357 18.4838 9 18.6415 9C18.7992 9 18.9552 9.03357 19.099 9.09848C19.2427 9.16338 19.371 9.25813 19.4754 9.37644C19.8979 9.85453 23.6448 14.1796 23.6448 17.4929C23.6347 18.1398 23.4972 18.7783 23.2402 19.372C22.9833 19.9657 22.6119 20.503 22.1473 20.9531C21.6827 21.4033 21.1339 21.7575 20.5324 21.9956C19.9309 22.2336 19.2883 22.3509 18.6415 22.3406V22.3406ZM18.6415 11.867C17.4629 13.4013 15.8619 15.8474 15.8619 17.4929C15.8619 18.2301 16.1547 18.9371 16.676 19.4584C17.1973 19.9797 17.9043 20.2725 18.6415 20.2725C19.3787 20.2725 20.0857 19.9797 20.607 19.4584C21.1283 18.9371 21.4211 18.2301 21.4211 17.4929C21.4545 15.8474 19.8201 13.368 18.6415 11.867V11.867Z" fill="#FA4616"/>
<path d="M11.4474 34.5708C10.2679 34.5708 9.13665 34.1023 8.30261 33.2682C7.46856 32.4342 7 31.303 7 30.1235C7 27.1104 10.2355 23.1966 10.6024 22.763C10.7067 22.6391 10.837 22.5394 10.9839 22.471C11.1308 22.4027 11.2909 22.3672 11.453 22.3672C11.615 22.3672 11.7751 22.4027 11.922 22.471C12.0689 22.5394 12.1991 22.6391 12.3035 22.763C12.6704 23.1966 15.8948 27.1104 15.8948 30.1235C15.8948 31.303 15.4262 32.4342 14.5922 33.2682C13.7581 34.1023 12.6269 34.5708 11.4474 34.5708ZM11.4474 25.2758C10.469 26.6545 9.22369 28.7003 9.22369 30.1012C9.22369 30.691 9.45797 31.2566 9.875 31.6736C10.292 32.0906 10.8576 32.3249 11.4474 32.3249C12.0371 32.3249 12.6028 32.0906 13.0198 31.6736C13.4368 31.2566 13.6711 30.691 13.6711 30.1012C13.6711 28.7003 12.4036 26.7101 11.4474 25.2758Z" fill="#FA4616"/>
<path d="M57.0002 20.1169H51.4409V22.3406H57.0002V20.1169Z" fill="#FA4616"/>
<path d="M57.0002 25.6761H51.4409V27.8998H57.0002V25.6761Z" fill="#FA4616"/>
<path d="M57.0002 31.2354H51.4409V33.459H57.0002V31.2354Z" fill="#FA4616"/>
<path d="M57.0002 36.7946H51.4409V39.0183H57.0002V36.7946Z" fill="#FA4616"/>
<path d="M43.6911 53.4723C41.9218 53.4723 40.225 52.7694 38.9739 51.5184C37.7229 50.2673 37.02 48.5705 37.02 46.8012C37.0193 45.8661 37.2171 44.9415 37.6004 44.0885C37.9838 43.2356 38.5439 42.4738 39.2437 41.8535V17.8932C39.2437 16.7137 39.7123 15.5825 40.5463 14.7484C41.3804 13.9144 42.5116 13.4458 43.6911 13.4458C44.8706 13.4458 46.0018 13.9144 46.8359 14.7484C47.6699 15.5825 48.1385 16.7137 48.1385 17.8932V41.8535C48.8383 42.4738 49.3984 43.2356 49.7818 44.0885C50.1651 44.9415 50.3629 45.8661 50.3622 46.8012C50.3622 48.5705 49.6593 50.2673 48.4083 51.5184C47.1572 52.7694 45.4604 53.4723 43.6911 53.4723ZM43.6911 15.6695C43.1013 15.6695 42.5357 15.9038 42.1187 16.3208C41.7017 16.7378 41.4674 17.3034 41.4674 17.8932V42.3538C41.4657 42.5246 41.4247 42.6926 41.3476 42.8449C41.2704 42.9972 41.1593 43.1298 41.0227 43.2322C40.2759 43.7922 39.7243 44.5731 39.446 45.464C39.1677 46.355 39.1768 47.3109 39.4719 48.1965C39.7671 49.082 40.3334 49.8522 41.0907 50.398C41.8479 50.9438 42.7577 51.2375 43.6911 51.2375C44.6245 51.2375 45.5343 50.9438 46.2915 50.398C47.0488 49.8522 47.6151 49.082 47.9103 48.1965C48.2054 47.3109 48.2145 46.355 47.9362 45.464C47.6579 44.5731 47.1063 43.7922 46.3595 43.2322C46.2229 43.1298 46.1118 42.9972 46.0346 42.8449C45.9575 42.6926 45.9165 42.5246 45.9148 42.3538V17.8932C45.9148 17.3034 45.6805 16.7378 45.2635 16.3208C44.8465 15.9038 44.2809 15.6695 43.6911 15.6695Z" fill="#404040"/>
</svg>
