<svg width="64" height="64" viewBox="0 0 64 64" fill="none" xmlns="http://www.w3.org/2000/svg">
<path d="M29.9363 39.9255C29.7392 39.9279 29.5452 39.8754 29.3762 39.774C29.2071 39.6725 29.0696 39.5261 28.9789 39.351C28.9147 39.2261 28.876 39.0897 28.8648 38.9497C28.8536 38.8098 28.8703 38.6689 28.9138 38.5354C28.9573 38.4019 29.0268 38.2784 29.1183 38.1718C29.2098 38.0653 29.3215 37.978 29.447 37.9149L32.0959 36.5638C31.7872 36.038 31.6777 35.4188 31.7874 34.8191C31.9789 34.1702 32.4789 33.6808 33.6916 32.9574C33.8344 32.8873 33.9529 32.7762 34.0321 32.6383C34.026 32.4797 33.9702 32.3271 33.8725 32.2021L33.3725 31.4893C31.4151 28.7659 30.2661 26.9893 30.181 25.9468C30.1789 25.5267 30.2325 25.1081 30.3406 24.7021C30.6852 23.2824 30.7143 21.8044 30.4257 20.3723C29.9433 18.3236 29.0493 16.3945 27.798 14.7021C27.6321 14.4771 27.5614 14.1958 27.6012 13.9191C27.641 13.6424 27.7881 13.3925 28.0108 13.2234C28.2365 13.0541 28.5202 12.9814 28.7995 13.0213C29.0789 13.0612 29.3309 13.2104 29.5002 13.4362C30.9433 15.3694 31.9652 17.5837 32.5002 19.9362C32.8625 21.6546 32.8334 23.4326 32.4151 25.1383C32.3634 25.3593 32.3243 25.583 32.298 25.8085C33.0316 27.399 33.9646 28.8897 35.0746 30.2447L35.6385 31.0425C35.8562 31.3468 36.0075 31.6935 36.0826 32.06C36.1578 32.4265 36.155 32.8048 36.0746 33.1702C35.9827 33.5235 35.8178 33.8537 35.5906 34.1395C35.3634 34.4253 35.0789 34.6604 34.7555 34.8297C34.4493 35.0008 34.1576 35.1965 33.8831 35.4148C33.9365 35.5731 34.0041 35.7263 34.0852 35.8723C34.2071 36.0912 34.2797 36.3341 34.2981 36.584C34.3165 36.8338 34.2801 37.0847 34.1916 37.3191C34.0779 37.6014 33.9066 37.857 33.6886 38.0694C33.4707 38.2819 33.2108 38.4466 32.9257 38.5531L30.3725 39.8617C30.2338 39.9155 30.0847 39.9373 29.9363 39.9255V39.9255Z" fill="#404040"/>
<path d="M17.5746 56.9999C17.2924 56.9999 17.0218 56.8879 16.8223 56.6883C16.6228 56.4888 16.5107 56.2183 16.5107 55.9361C16.5106 53.7309 16.9331 51.5461 17.7554 49.4999C18.5001 47.7553 21.7554 46.5319 22.7341 46.2021C22.8687 46.1461 23.0134 46.1184 23.1591 46.1206C23.3049 46.1229 23.4486 46.155 23.5814 46.2151C23.7142 46.2753 23.8332 46.362 23.9311 46.47C24.029 46.5781 24.1036 46.705 24.1504 46.8431C24.1971 46.9812 24.215 47.1274 24.2029 47.2726C24.1908 47.4179 24.149 47.5591 24.08 47.6876C24.011 47.816 23.9164 47.9289 23.802 48.0192C23.6876 48.1095 23.5559 48.1754 23.415 48.2127C21.8724 48.7446 19.9682 49.7446 19.7129 50.3404C19.0107 52.1262 18.6499 54.0279 18.649 55.9468C18.6477 56.0865 18.6187 56.2245 18.564 56.3531C18.5092 56.4816 18.4297 56.5981 18.3299 56.6959C18.2302 56.7937 18.1121 56.8709 17.9825 56.923C17.8529 56.9752 17.7143 57.0013 17.5746 56.9999V56.9999Z" fill="#404040"/>
<path d="M27.2872 50.1595H27.117C24.5213 50.0638 16.4042 43.9574 15.9042 43.5319C14.9255 42.6914 14.3617 39.9255 14.3617 37.5319C12.4894 36.8617 9.04256 35.5106 9.04256 32.5319V28.2766C9.06666 27.4378 9.41062 26.6399 10.004 26.0465C10.5974 25.4532 11.3952 25.1092 12.234 25.0851C14.883 25.0851 15.8936 25.8191 16.2659 26.4468L16.4894 26.5638V24.0213C16.4901 23.8615 16.5268 23.7039 16.5968 23.5602C16.6668 23.4166 16.7682 23.2905 16.8936 23.1915C16.8936 23.1915 20.2659 20.4468 20.2659 17.2872C20.2649 17.1036 20.3113 16.9229 20.4008 16.7626C20.4903 16.6022 20.6198 16.4678 20.7766 16.3723C22.1228 15.6212 23.2868 14.5826 24.186 13.3304C25.0851 12.0783 25.6972 10.6433 25.9787 9.12766H9.06383C8.78168 9.12766 8.51108 9.01558 8.31157 8.81607C8.11206 8.61656 8 8.34597 8 8.06383C8 7.78168 8.11206 7.51109 8.31157 7.31159C8.51108 7.11208 8.78168 7 9.06383 7H27.1489C27.4311 7 27.7016 7.11208 27.9011 7.31159C28.1006 7.51109 28.2127 7.78168 28.2127 8.06383C28.134 10.0576 27.5598 12.0004 26.5419 13.7166C25.5241 15.4328 24.0947 16.8683 22.3829 17.8936C22.0957 21.0851 19.6276 23.6064 18.6383 24.5106V28.2766C18.6386 28.4574 18.5929 28.6353 18.5054 28.7935C18.418 28.9517 18.2916 29.085 18.1383 29.1808C17.9766 29.2742 17.7931 29.3234 17.6064 29.3234C17.4196 29.3234 17.2362 29.2742 17.0745 29.1808L14.9468 28.117C14.8219 28.0541 14.7107 27.9673 14.6194 27.8614C14.5282 27.7555 14.4587 27.6327 14.4149 27.5C13.7223 27.2122 12.9706 27.0954 12.2234 27.1596C11.95 27.1855 11.6943 27.306 11.5001 27.5001C11.306 27.6943 11.1856 27.95 11.1596 28.2234V32.4787C11.1596 34.0957 13.9681 35.0851 15.3085 35.5638L15.7978 35.7446C16.0101 35.826 16.1907 35.9731 16.3132 36.1646C16.4358 36.356 16.4938 36.5817 16.4787 36.8085C16.3188 38.5479 16.5968 40.2997 17.2872 41.9042C18.7021 43.117 25.7979 47.9361 27.1596 47.9893C28.0638 47.9893 28.2872 47.5638 28.5638 46.851C28.617 46.7127 28.6595 46.5957 28.7021 46.5106C29.0097 45.9098 29.5071 45.4274 30.117 45.1383L30.4893 44.9148L29.1808 44.0106C29.0637 43.9325 28.9632 43.8319 28.8853 43.7146C28.8073 43.5974 28.7534 43.4658 28.7267 43.3276C28.6999 43.1893 28.7009 43.0472 28.7295 42.9093C28.7582 42.7714 28.8139 42.6406 28.8934 42.5245C28.973 42.4083 29.0748 42.3091 29.193 42.2326C29.3112 42.156 29.4434 42.1038 29.5819 42.0787C29.7205 42.0537 29.8627 42.0564 30.0002 42.0867C30.1377 42.117 30.2678 42.1743 30.383 42.2553L32.5106 43.7234C32.6938 43.8525 32.8315 44.0362 32.9041 44.2483C32.9767 44.4603 32.9804 44.6899 32.9148 44.9042C32.7963 45.3644 32.5789 45.7933 32.2775 46.1607C31.9762 46.5282 31.5983 46.8255 31.1702 47.0319C30.8191 47.2234 30.7021 47.3085 30.6064 47.4893L30.5532 47.6382C30.3567 48.3563 29.9316 48.9908 29.3423 49.4457C28.7531 49.9007 28.0316 50.1512 27.2872 50.1595Z" fill="#404040"/>
<path d="M43.1169 40.5106C43.0392 40.5211 42.9605 40.5211 42.8828 40.5106L36.4999 39.1276C36.357 39.1044 36.2204 39.0523 36.0983 38.9745C35.9763 38.8967 35.8714 38.7948 35.7901 38.6751C35.7088 38.5553 35.6528 38.4203 35.6255 38.2781C35.5982 38.136 35.6002 37.9898 35.6314 37.8484C35.6626 37.7071 35.7222 37.5736 35.8068 37.4561C35.8913 37.3387 35.9989 37.2397 36.1231 37.1652C36.2472 37.0908 36.3852 37.0424 36.5286 37.0232C36.6721 37.0039 36.8179 37.0141 36.9573 37.0532L43.3403 38.4361C43.6224 38.4658 43.8812 38.6063 44.0598 38.8267C44.2384 39.0472 44.322 39.3295 44.2924 39.6117C44.2628 39.8938 44.1223 40.1526 43.9018 40.3312C43.6814 40.5097 43.399 40.5934 43.1169 40.5638V40.5106Z" fill="#FA4616"/>
<path d="M43.1168 45.2978C43.0357 45.3088 42.9533 45.3088 42.8722 45.2978L33.8296 43.1702C33.6922 43.1389 33.5624 43.0807 33.4478 42.9988C33.3331 42.917 33.2358 42.8131 33.1616 42.6934C33.0873 42.5736 33.0376 42.4403 33.0153 42.3012C32.9931 42.1621 32.9986 42.0199 33.0317 41.883C33.0974 41.6097 33.2685 41.3736 33.5077 41.2261C33.7469 41.0786 34.0347 41.0317 34.3083 41.0957L43.3509 43.2234C43.633 43.2544 43.8913 43.3963 44.0688 43.6177C44.2464 43.8392 44.3287 44.1221 44.2977 44.4042C44.2666 44.6864 44.1248 44.9446 43.9034 45.1222C43.6819 45.2998 43.399 45.3821 43.1168 45.351V45.2978Z" fill="#FA4616"/>
<path d="M49.9149 39.1383C49.7497 39.1383 49.5868 39.0998 49.4391 39.026C49.2914 38.9521 49.1629 38.8449 49.0638 38.7127C48.8945 38.487 48.8218 38.2033 48.8617 37.924C48.9016 37.6447 49.0509 37.3927 49.2766 37.2234C49.6604 36.9368 49.9749 36.5675 50.1966 36.1429C50.4183 35.7183 50.5416 35.2492 50.5573 34.7704C50.573 34.2916 50.4807 33.8155 50.2873 33.3772C50.0938 32.939 49.8043 32.5499 49.44 32.2388C49.0757 31.9278 48.6461 31.7027 48.1829 31.5803C47.7198 31.4579 47.2351 31.4413 46.7647 31.5318C46.2943 31.6223 45.8503 31.8175 45.4656 32.103C45.0809 32.3884 44.7654 32.7568 44.5426 33.1808C44.4076 33.4237 44.183 33.6041 43.9168 33.6835C43.6505 33.7629 43.3638 33.735 43.1178 33.6058C42.8719 33.4766 42.6863 33.2563 42.6006 32.992C42.515 32.7277 42.5361 32.4404 42.6596 32.1915C43.2141 31.1428 44.1033 30.3096 45.1858 29.8243C46.2683 29.339 47.4819 29.2295 48.6337 29.5132C49.7856 29.7969 50.8096 30.4575 51.5429 31.39C52.2762 32.3224 52.6767 33.4733 52.6808 34.6595C52.6867 35.4863 52.497 36.3028 52.1273 37.0423C51.7575 37.7819 51.2181 38.4235 50.5532 38.9149C50.3704 39.0568 50.1463 39.1352 49.9149 39.1383Z" fill="#FA4616"/>
<path d="M43.1063 54.8723C42.2561 54.8723 41.4183 54.6684 40.6631 54.2779C39.9079 53.8873 39.2573 53.3214 38.7659 52.6276C38.6842 52.5133 38.6261 52.3839 38.5947 52.2469C38.5634 52.11 38.5594 51.9682 38.5832 51.8297C38.6069 51.6912 38.6578 51.5588 38.733 51.4402C38.8082 51.3215 38.9062 51.2189 39.0212 51.1383C39.2514 50.9767 39.5362 50.9129 39.8132 50.9608C40.0903 51.0086 40.3372 51.1642 40.4999 51.3936C40.9354 52.0131 41.577 52.4577 42.31 52.6477C43.0431 52.8378 43.8199 52.7609 44.5015 52.431C45.1831 52.101 45.7252 51.5395 46.0309 50.8466C46.3366 50.1538 46.3859 49.3748 46.1701 48.6489C46.0897 48.378 46.1202 48.0863 46.2549 47.8379C46.3895 47.5896 46.6174 47.4048 46.8882 47.3244C47.1591 47.244 47.4508 47.2745 47.6992 47.4092C47.9476 47.5438 48.1323 47.7717 48.2127 48.0425C48.3578 48.5328 48.4295 49.0419 48.4255 49.5531C48.4255 50.2517 48.2879 50.9433 48.0205 51.5887C47.7532 52.234 47.3614 52.8204 46.8675 53.3143C46.3736 53.8083 45.7872 54.2001 45.1419 54.4674C44.4965 54.7347 43.8048 54.8723 43.1063 54.8723V54.8723Z" fill="#FA4616"/>
<path d="M48.4255 49.5532C47.3294 49.5569 46.2513 49.2746 45.2978 48.734C45.0523 48.5929 44.8729 48.3601 44.7991 48.0868C44.7253 47.8135 44.7631 47.522 44.9042 47.2766C45.0453 47.0311 45.2781 46.8517 45.5514 46.7779C45.8247 46.7041 46.1162 46.7419 46.3616 46.883C46.9183 47.1949 47.5379 47.3776 48.1747 47.4177C48.8115 47.4578 49.4492 47.3541 50.0405 47.1144C50.6319 46.8747 51.1617 46.5051 51.5909 46.0329C52.0201 45.5607 52.3376 44.998 52.5199 44.3865C52.7022 43.7751 52.7446 43.1304 52.6441 42.5003C52.5435 41.8702 52.3026 41.2708 51.939 40.7464C51.5755 40.222 51.0987 39.7861 50.5439 39.4709C49.9891 39.1557 49.3705 38.9693 48.734 38.9255C48.5943 38.9157 48.4578 38.8785 48.3325 38.816C48.2072 38.7535 48.0954 38.667 48.0035 38.5613C47.9117 38.4556 47.8415 38.3328 47.7971 38.2C47.7527 38.0672 47.7348 37.9269 47.7446 37.7872C47.7544 37.6475 47.7916 37.5111 47.8541 37.3858C47.9166 37.2605 48.0032 37.1487 48.1089 37.0568C48.2146 36.9649 48.3373 36.8948 48.4701 36.8503C48.6029 36.8059 48.7432 36.7881 48.8829 36.7979C50.5758 36.8557 52.1763 37.5837 53.3325 38.8216C54.4886 40.0595 55.1056 41.706 55.0478 43.3989C54.99 45.0918 54.262 46.6923 53.0241 47.8485C51.7861 49.0046 50.1396 49.6216 48.4467 49.5638L48.4255 49.5532Z" fill="#FA4616"/>
</svg>
