<svg width="64" height="64" viewBox="0 0 64 64" fill="none" xmlns="http://www.w3.org/2000/svg">
<path d="M51.4906 47.221H51.3091C50.0488 47.1248 49.0769 46.153 48.4148 44.3481C48.216 43.8953 47.9226 43.4904 47.5541 43.1607C47.1857 42.8309 46.7508 42.5839 46.2788 42.4364C45.3006 43.6819 44.154 44.7854 42.872 45.7151C42.6411 45.8808 42.3539 45.948 42.0735 45.902C41.7931 45.8559 41.5425 45.7003 41.3768 45.4695C41.2111 45.2386 41.1439 44.9514 41.19 44.671C41.236 44.3906 41.3916 44.14 41.6225 43.9743C42.9356 43.0271 44.0862 41.8729 45.0293 40.5568C45.1583 40.375 45.3409 40.2381 45.5516 40.1653C45.7622 40.0926 45.9904 40.0875 46.2041 40.1509C47.1323 40.3468 47.9991 40.7649 48.7302 41.3695C49.4612 41.974 50.0346 42.7469 50.4013 43.6219C50.7857 44.6898 51.1916 45.0636 51.4692 45.085C51.9605 45.085 52.879 44.3267 53.6052 42.949C54.3314 41.5713 54.4702 40.3966 54.1819 40.0228C54.0324 39.8305 53.477 39.7024 52.3877 39.9587C51.455 40.1324 50.494 40.0764 49.5878 39.7954C48.6816 39.5144 47.8574 39.017 47.1866 38.346C47.0174 38.2033 46.8967 38.0116 46.8412 37.7973C46.7858 37.583 46.7982 37.3568 46.8769 37.1499C47.441 35.6758 47.7725 34.1229 47.8595 32.5469C47.875 32.2637 48.0025 31.9982 48.2138 31.8089C48.4251 31.6197 48.7029 31.5221 48.9862 31.5377C49.2694 31.5532 49.5349 31.6807 49.7242 31.892C49.9134 32.1033 50.011 32.3811 49.9954 32.6644C49.9084 34.194 49.6211 35.7056 49.141 37.1606C49.5229 37.469 49.9663 37.6924 50.4415 37.8158C50.9167 37.9392 51.4127 37.9598 51.8964 37.8761C53.7654 37.4383 55.1004 37.7266 55.88 38.7305C56.948 40.0975 56.3606 42.3296 55.4848 43.9636C54.6091 45.5976 53.146 47.221 51.4906 47.221Z" fill="#404040"/>
<path d="M45.0932 32.611C44.9091 32.6105 44.7282 32.5624 44.5681 32.4714C44.4081 32.3804 44.2743 32.2495 44.1797 32.0915C44.0851 31.9336 44.033 31.7538 44.0284 31.5698C44.0237 31.3857 44.0668 31.2036 44.1534 31.041C45.0932 29.3002 48.3612 27.1429 52.3875 28.0186L52.6117 28.0934C53.6263 28.574 54.1924 28.5633 54.3846 28.3924C54.737 28.0934 54.8438 26.8652 54.3846 25.4235C53.9254 23.9817 53.1885 23.0098 52.7185 22.9457C52.4836 22.9457 51.9923 23.2127 51.405 24.1739C51.3643 24.2415 51.3139 24.3026 51.2554 24.3555C48.3826 27.3031 44.4631 27.2817 42.7116 26.3419C42.5882 26.2753 42.4791 26.185 42.3905 26.0762C42.302 25.9675 42.2358 25.8423 42.1956 25.7079C42.1554 25.5736 42.1421 25.4326 42.1565 25.2931C42.1708 25.1536 42.2124 25.0182 42.279 24.8948C42.3457 24.7714 42.4359 24.6623 42.5447 24.5738C42.6535 24.4852 42.7786 24.419 42.913 24.3788C43.0474 24.3387 43.1884 24.3254 43.3279 24.3397C43.4674 24.354 43.6027 24.3956 43.7262 24.4623C44.7551 24.8005 45.8595 24.8363 46.9082 24.5656C47.957 24.2949 48.906 23.729 49.6428 22.9351C50.636 21.3758 51.7787 20.6603 52.9962 20.7991C54.705 21.0234 55.8905 22.9991 56.4138 24.772C56.9371 26.5448 57.0439 28.8517 55.741 29.9837C54.8011 30.7847 53.4661 30.8168 51.7787 30.0478C50.7292 29.8031 49.6317 29.8619 48.6143 30.2174C47.597 30.573 46.7017 31.2105 46.033 32.0556C45.9408 32.2242 45.8048 32.3647 45.6394 32.4624C45.474 32.5602 45.2853 32.6115 45.0932 32.611Z" fill="#404040"/>
<path d="M45.8517 23.4477C45.6832 23.4481 45.5169 23.4087 45.3666 23.3326C45.2162 23.2565 45.086 23.1459 44.9866 23.0098C44.0545 21.7393 42.9262 20.6254 41.6438 19.7097C41.462 19.5808 41.3252 19.3981 41.2524 19.1875C41.1796 18.9768 41.1746 18.7486 41.238 18.535C41.4348 17.6059 41.8532 16.7381 42.4575 16.0055C43.0618 15.2728 43.8342 14.697 44.7089 14.3271C45.7769 13.9533 46.1507 13.5368 46.172 13.2591C46.172 12.7999 45.4245 11.8494 44.0895 11.1232C42.7545 10.3969 41.537 10.2581 41.1632 10.5465C40.971 10.696 40.8428 11.2513 41.0991 12.3407C41.272 13.2734 41.2155 14.2341 40.9345 15.1402C40.6536 16.0462 40.1567 16.8704 39.4865 17.5417C39.3438 17.711 39.152 17.8316 38.9378 17.8871C38.7235 17.9426 38.4973 17.9301 38.2904 17.8515C36.7769 17.2685 35.1793 16.9331 33.5592 16.8582C33.2759 16.8582 33.0043 16.7457 32.804 16.5454C32.6037 16.3451 32.4912 16.0735 32.4912 15.7902C32.491 15.6454 32.5203 15.502 32.5773 15.3688C32.6343 15.2356 32.7178 15.1154 32.8227 15.0155C32.9276 14.9156 33.0517 14.8381 33.1875 14.7877C33.3233 14.7373 33.4679 14.715 33.6126 14.7223C35.1935 14.7961 36.7568 15.0872 38.2583 15.5873C38.5668 15.2054 38.7902 14.7621 38.9136 14.2869C39.037 13.8117 39.0575 13.3157 38.9739 12.8319C38.536 10.9523 38.8244 9.62799 39.8283 8.84837C41.206 7.78039 43.4274 8.3571 45.0614 9.24352C46.6954 10.1299 48.3935 11.6785 48.2653 13.398C48.1692 14.6689 47.1973 15.6407 45.3924 16.2922C44.9412 16.4933 44.5376 16.7876 44.2081 17.1557C43.8786 17.5238 43.6308 17.9575 43.4807 18.4282C44.6935 19.3736 45.7715 20.4803 46.6847 21.7175C46.8502 21.9447 46.9194 22.228 46.8774 22.5058C46.8354 22.7837 46.6856 23.0339 46.4604 23.202C46.2883 23.3458 46.0753 23.4317 45.8517 23.4477Z" fill="#404040"/>
<path d="M36.8911 56.9823C36.3069 57.0371 35.7178 56.9643 35.1646 56.7688C34.6113 56.5733 34.1072 56.2599 33.6872 55.8503C33.1318 55.1881 32.6832 53.9813 33.6872 51.9308C33.9833 50.8256 33.9433 49.6572 33.5723 48.5749C33.2014 47.4925 32.5163 46.5452 31.6046 45.854C31.4798 45.7894 31.3689 45.701 31.2782 45.5936C31.1876 45.4862 31.119 45.3621 31.0764 45.2282C31.0337 45.0943 31.0178 44.9533 31.0297 44.8133C31.0415 44.6733 31.0808 44.537 31.1454 44.4122C31.2099 44.2874 31.2983 44.1765 31.4057 44.0858C31.5131 43.9952 31.6372 43.9266 31.7711 43.884C31.905 43.8413 32.046 43.8255 32.186 43.8373C32.326 43.8491 32.4623 43.8884 32.5871 43.9529C34.4454 44.9141 36.7415 48.3103 35.791 52.4968C35.7673 52.5733 35.7387 52.6482 35.7056 52.7211C35.3105 53.5327 35.193 54.1842 35.4066 54.4405C35.7804 54.8891 37.393 55.0066 39.1872 54.4405C40.9815 53.8745 42.263 52.924 42.3271 52.3046C42.3271 51.9842 41.9106 51.4929 41.1309 51.0337C41.066 50.9935 41.0052 50.947 40.9494 50.8948C37.7989 47.9045 37.8523 43.8141 38.8882 41.9879C38.9583 41.8658 39.0518 41.7588 39.1633 41.6729C39.2748 41.5871 39.4021 41.524 39.5379 41.4873C39.6738 41.4506 39.8156 41.441 39.9551 41.4591C40.0947 41.4772 40.2293 41.5226 40.3513 41.5927C40.4734 41.6628 40.5804 41.7563 40.6662 41.8678C40.7521 41.9793 40.8152 42.1066 40.8519 42.2424C40.8886 42.3783 40.8982 42.5201 40.8801 42.6596C40.862 42.7992 40.8166 42.9338 40.7465 43.0558C40.3655 44.1346 40.3133 45.3022 40.5966 46.4107C40.8799 47.5191 41.4859 48.5185 42.3378 49.2822C44.2708 50.4676 44.5592 51.7279 44.4737 52.5822C44.2388 54.5046 41.8145 55.8716 39.8174 56.4697C38.8731 56.786 37.8867 56.9588 36.8911 56.9823V56.9823Z" fill="#404040"/>
<path d="M23.1248 55.658C21.9472 55.6041 20.7986 55.2749 19.7713 54.6968C18.1373 53.8104 16.4392 52.2511 16.5674 50.5317C16.6635 49.2714 17.6354 48.2996 19.4402 47.6374C19.8918 47.4386 20.2953 47.145 20.6233 46.7764C20.9513 46.4079 21.1962 45.973 21.3413 45.5015C20.133 44.5509 19.0557 43.4449 18.1373 42.2121C18.0539 42.0992 17.9935 41.971 17.9596 41.8347C17.9257 41.6985 17.919 41.5569 17.9398 41.4181C17.9606 41.2792 18.0086 41.1458 18.081 41.0255C18.1533 40.9052 18.2487 40.8004 18.3616 40.7169C18.4745 40.6335 18.6027 40.5731 18.739 40.5392C18.8752 40.5053 19.0168 40.4986 19.1556 40.5194C19.2945 40.5402 19.4279 40.5882 19.5482 40.6606C19.6685 40.7329 19.7733 40.8283 19.8568 40.9412C20.7893 42.2143 21.9176 43.3317 23.1996 44.2519C23.3813 44.3809 23.5182 44.5635 23.591 44.7742C23.6637 44.9849 23.6688 45.213 23.6054 45.4267C23.4079 46.3542 22.9891 47.2202 22.3847 47.951C21.7804 48.6818 21.0084 49.2557 20.1345 49.6239C19.0665 50.0084 18.682 50.4142 18.6713 50.6919C18.6713 51.1511 19.4189 52.0909 20.7539 52.8278C22.0889 53.5647 23.3063 53.6822 23.6801 53.4045C23.8724 53.2443 24.0005 52.689 23.7442 51.5997C23.5714 50.6669 23.6279 49.7062 23.9088 48.8001C24.1897 47.8941 24.6867 47.0699 25.3569 46.3986C25.4996 46.2294 25.6913 46.1087 25.9056 46.0532C26.1199 45.9977 26.3461 46.0102 26.553 46.0889C28.065 46.677 29.6634 47.0125 31.2842 47.0821C31.5674 47.0948 31.834 47.2196 32.0253 47.4289C32.2165 47.6382 32.3168 47.9149 32.3041 48.1981C32.2914 48.4814 32.1666 48.748 31.9573 48.9392C31.748 49.1305 31.4713 49.2308 31.188 49.2181C29.6067 49.1475 28.0431 48.8563 26.5423 48.353C26.2345 48.7352 26.0115 49.1786 25.8881 49.6537C25.7647 50.1287 25.7438 50.6246 25.8268 51.1084C26.2647 52.988 25.9763 54.3123 24.9724 55.1026C24.4317 55.4804 23.7842 55.675 23.1248 55.658V55.658Z" fill="#404040"/>
<path d="M12.1247 43.1733H11.7829C10.0742 42.9384 8.88868 40.9626 8.36537 39.1897C7.84206 37.4169 7.73526 35.1101 9.0382 33.9887C9.97802 33.177 11.313 33.1556 13.0004 33.9139C14.0522 34.1708 15.1555 34.1224 16.1808 33.7743C17.2061 33.4262 18.1108 32.793 18.7889 31.9488C18.8555 31.8254 18.9458 31.7163 19.0545 31.6278C19.1633 31.5393 19.2885 31.473 19.4229 31.4329C19.5572 31.3927 19.6982 31.3794 19.8377 31.3937C19.9772 31.408 20.1126 31.4497 20.236 31.5163C20.3594 31.5829 20.4685 31.6732 20.557 31.782C20.6456 31.8907 20.7118 32.0159 20.752 32.1503C20.7921 32.2846 20.8054 32.4256 20.7911 32.5651C20.7768 32.7047 20.7352 32.84 20.6685 32.9634C19.7287 34.7042 16.45 36.8615 12.4344 35.9751L12.2101 35.9004C11.1955 35.4304 10.6295 35.4304 10.4373 35.6013C10.245 35.7722 9.97802 37.1285 10.4373 38.581C10.8965 40.0334 11.6334 40.9946 12.0926 41.048C12.3703 41.048 12.8295 40.781 13.4169 39.8305C13.4571 39.7656 13.5037 39.7048 13.5558 39.649C16.4393 36.6907 20.3588 36.712 22.0996 37.6518C22.3489 37.7864 22.5345 38.0144 22.6156 38.2858C22.6967 38.5572 22.6667 38.8497 22.5322 39.099C22.3976 39.3482 22.1696 39.5338 21.8982 39.6149C21.6268 39.696 21.3343 39.666 21.085 39.5315C20.0561 39.1933 18.9517 39.1574 17.9029 39.4281C16.8542 39.6988 15.9051 40.2647 15.1684 41.0587C14.2286 42.4578 13.2247 43.1733 12.1247 43.1733Z" fill="#404040"/>
<path d="M25.058 22.4438C24.8746 22.4432 24.6943 22.3954 24.5347 22.3049C24.2886 22.1658 24.1077 21.9348 24.0316 21.6626C23.9556 21.3903 23.9905 21.099 24.1289 20.8525C24.6629 19.902 24.9726 16.2815 22.591 14.6582C20.6152 13.4834 20.3162 12.1912 20.455 11.3261C20.69 9.41441 23.1143 8.03671 25.1114 7.43864C27.1085 6.84057 29.8853 6.66969 31.1348 8.13283C31.6902 8.79498 32.1494 10.0232 31.1348 12.1057C30.815 13.2085 30.8491 14.3839 31.2323 15.4663C31.6155 16.5487 32.3284 17.4838 33.2708 18.1398C33.4055 18.1979 33.5268 18.2832 33.6271 18.3903C33.7274 18.4974 33.8046 18.624 33.8538 18.7622C33.903 18.9004 33.9232 19.0473 33.9132 19.1937C33.9031 19.34 33.863 19.4828 33.7953 19.613C33.7276 19.7431 33.6339 19.858 33.5199 19.9503C33.4059 20.0427 33.274 20.1105 33.1326 20.1497C32.9912 20.1888 32.8433 20.1984 32.698 20.1778C32.5527 20.1573 32.4132 20.107 32.2882 20.0301C30.8884 19.1299 29.8237 17.7942 29.2582 16.2289C28.6927 14.6637 28.6578 12.9558 29.1591 11.3688C29.1723 11.3243 29.1902 11.2813 29.2125 11.2407C29.6076 10.429 29.7251 9.76684 29.5115 9.5212C29.1377 9.07265 27.5251 8.95517 25.7309 9.5212C23.9366 10.0872 22.6551 11.0377 22.591 11.6572C22.591 11.9882 23.0075 12.4688 23.7764 12.9387C27.2367 15.2883 27.0658 20.1369 26.0299 21.9739C25.9242 22.1315 25.7785 22.2581 25.6077 22.3407C25.4369 22.4232 25.2472 22.4588 25.058 22.4438V22.4438Z" fill="#404040"/>
<path d="M15.9054 32.3867H15.8413C15.701 32.3785 15.5637 32.3428 15.4372 32.2814C15.3107 32.22 15.1976 32.1343 15.1043 32.0291C15.011 31.924 14.9395 31.8014 14.8937 31.6685C14.8479 31.5356 14.8287 31.395 14.8374 31.2547C14.9244 29.7285 15.2117 28.2204 15.6918 26.7691C15.3104 26.4594 14.8674 26.2344 14.3923 26.1092C13.9172 25.984 13.4209 25.9614 12.9364 26.0429C11.0568 26.4808 9.73249 26.2031 8.95286 25.1992C7.88488 23.8215 8.46158 21.5894 9.34801 19.9554C10.2344 18.3214 11.7937 16.634 13.5131 16.7515C14.7733 16.8369 15.7452 17.8194 16.4073 19.6137C16.6061 20.0664 16.8996 20.4713 17.2681 20.8011C17.6365 21.1308 18.0714 21.3778 18.5433 21.5253C19.5189 20.2806 20.6659 19.1803 21.9502 18.2573C22.0633 18.1683 22.1933 18.1032 22.3322 18.0657C22.4712 18.0282 22.6163 18.0192 22.7588 18.0392C22.9014 18.0592 23.0384 18.1078 23.1617 18.1821C23.2849 18.2564 23.3919 18.3548 23.4762 18.4715C23.5604 18.5882 23.6203 18.7207 23.652 18.8611C23.6838 19.0014 23.6869 19.1468 23.661 19.2884C23.6352 19.43 23.581 19.5649 23.5018 19.685C23.4225 19.8052 23.3198 19.908 23.1997 19.9875C21.8868 20.9392 20.7364 22.0968 19.7929 23.4157C19.6625 23.5955 19.4792 23.7303 19.2687 23.8011C19.0581 23.8719 18.8307 23.8753 18.6181 23.8108C17.692 23.6135 16.8271 23.196 16.0966 22.5937C15.366 21.9914 14.7912 21.222 14.4209 20.3506C14.0364 19.2826 13.6306 18.8981 13.3529 18.8767C12.9257 18.8767 11.9432 19.635 11.217 20.9593C10.4907 22.2836 10.3519 23.5118 10.6403 23.8856C10.7898 24.0885 11.3451 24.206 12.4345 23.9497C13.3672 23.7814 14.3267 23.8401 15.2319 24.1208C16.1372 24.4015 16.9616 24.8959 17.6355 25.5623C17.8069 25.7058 17.9291 25.8994 17.9846 26.1159C18.0402 26.3324 18.0264 26.5609 17.9452 26.7691C17.3813 28.2396 17.0498 29.7889 16.9627 31.3614C16.9518 31.6354 16.8359 31.8946 16.639 32.0855C16.4422 32.2763 16.1795 32.3842 15.9054 32.3867V32.3867Z" fill="#404040"/>
<path d="M39.5612 39.7023C38.8519 39.6991 38.1545 39.5192 37.532 39.179C36.7895 38.7769 36.1827 38.1637 35.7885 37.4169C35.3943 36.6701 35.2302 35.8232 35.3171 34.9832C35.4039 34.1432 35.7378 33.3478 36.2765 32.6975C36.8152 32.0471 37.5346 31.5711 38.3437 31.3294C38.8829 31.1652 39.4493 31.1094 40.0102 31.1651C40.5711 31.2209 41.1154 31.387 41.6118 31.6541C42.1081 31.9211 42.5468 32.2838 42.9023 32.7211C43.2579 33.1584 43.5234 33.6618 43.6836 34.2022V34.2022C43.8478 34.7414 43.9036 35.3078 43.8478 35.8687C43.7921 36.4296 43.6259 36.9739 43.3589 37.4703C43.0918 37.9667 42.7292 38.4053 42.2919 38.7609C41.8545 39.1164 41.3512 39.382 40.8107 39.5421C40.4039 39.6546 39.9832 39.7086 39.5612 39.7023V39.7023ZM39.5612 33.2944C39.1759 33.2944 38.7977 33.3987 38.4668 33.5961C38.1359 33.7935 37.8646 34.0767 37.6816 34.4158C37.5466 34.6634 37.462 34.9353 37.4327 35.2157C37.4034 35.4962 37.4299 35.7797 37.5107 36.0498C37.5922 36.3222 37.7273 36.5756 37.908 36.7951C38.0887 37.0146 38.3114 37.1958 38.5631 37.3281C38.8147 37.4604 39.0903 37.5411 39.3735 37.5655C39.6568 37.5899 39.9421 37.5575 40.2127 37.4703C40.755 37.3073 41.2104 36.9356 41.4787 36.4369C41.7471 35.9382 41.8065 35.3534 41.6438 34.811V34.811C41.513 34.371 41.2439 33.9849 40.8765 33.7099C40.5091 33.4348 40.0629 33.2854 39.6039 33.2838L39.5612 33.2944Z" fill="#FA4616"/>
<path d="M35.7913 30.7954C35.1413 30.7954 34.4998 30.647 33.9157 30.3616C33.3316 30.0761 32.8204 29.6611 32.421 29.1482C32.0216 28.6353 31.7445 28.038 31.6108 27.4018C31.4771 26.7656 31.4904 26.1073 31.6497 25.477C31.8089 24.8467 32.1099 24.2611 32.5297 23.7648C32.9496 23.2684 33.4771 22.8744 34.0722 22.6128C34.6673 22.3512 35.3143 22.2288 35.9639 22.255C36.6134 22.2813 37.2485 22.4554 37.8205 22.7642C38.3157 23.027 38.7533 23.3864 39.1073 23.8212C39.4613 24.2559 39.7246 24.7571 39.8817 25.2953V25.2953C40.1936 26.3656 40.0748 27.5154 39.5507 28.4992C39.2887 29.0029 38.929 29.4494 38.4926 29.8124C38.0562 30.1755 37.5518 30.448 37.0089 30.6139C36.6134 30.7306 36.2036 30.7917 35.7913 30.7954V30.7954ZM35.7913 24.3875C35.5817 24.3837 35.3727 24.4125 35.1719 24.473C34.6522 24.6531 34.222 25.0269 33.9709 25.5163C33.7199 26.0058 33.6674 26.5732 33.8243 27.1005C33.9812 27.6277 34.3355 28.074 34.8134 28.3465C35.2912 28.6191 35.8558 28.6967 36.3894 28.5633C36.6635 28.4825 36.9178 28.346 37.1365 28.1622C37.3552 27.9784 37.5335 27.7514 37.6603 27.4953C37.9299 26.9982 37.9914 26.4144 37.8312 25.872V25.872C37.6985 25.4341 37.4287 25.0503 37.0614 24.7773C36.6942 24.5043 36.2489 24.3564 35.7913 24.3555V24.3875Z" fill="#FA4616"/>
<path d="M24.951 31.7993C23.9263 31.7983 22.936 31.4291 22.1609 30.7588C21.3857 30.0886 20.8774 29.162 20.7285 28.1481C20.5796 27.1343 20.8 26.1007 21.3497 25.2358C21.8994 24.371 22.7417 23.7326 23.7229 23.437C24.2621 23.2729 24.8285 23.217 25.3893 23.2728C25.9502 23.3285 26.4945 23.4947 26.9909 23.7617C27.4873 24.0288 27.9259 24.3914 28.2815 24.8287C28.6371 25.2661 28.9026 25.7695 29.0628 26.3099V26.3099C29.2269 26.8491 29.2827 27.4155 29.227 27.9763C29.1713 28.5372 29.0051 29.0815 28.7381 29.5779C28.471 30.0743 28.1084 30.5129 27.671 30.8685C27.2337 31.2241 26.7303 31.4896 26.1899 31.6498C25.7873 31.764 25.3693 31.8145 24.951 31.7993V31.7993ZM24.951 25.3914C24.7453 25.3936 24.5407 25.4223 24.3423 25.4768C24.073 25.5568 23.8221 25.689 23.6039 25.8659C23.3858 26.0428 23.2045 26.2609 23.0707 26.5079C22.8003 27.0066 22.7391 27.5923 22.9005 28.1361C23.062 28.6799 23.4328 29.1374 23.9316 29.4078C24.4303 29.6781 25.016 29.7393 25.5598 29.5779C25.8322 29.4937 26.085 29.3558 26.3033 29.1724C26.5215 28.989 26.7009 28.7637 26.8307 28.5099C27.0968 28.0113 27.1543 27.4276 26.9909 26.8866V26.8866C26.9067 26.6142 26.7688 26.3614 26.5854 26.1431C26.402 25.9249 26.1767 25.7455 25.9229 25.6157C25.6212 25.4653 25.2882 25.3884 24.951 25.3914V25.3914Z" fill="#FA4616"/>
<path d="M29.0205 41.7315C28.3156 41.7298 27.6222 41.5537 27.002 41.2189C26.3838 40.8855 25.8573 40.4048 25.4691 39.8193C25.081 39.2339 24.8433 38.5618 24.7769 37.8625C24.7106 37.1632 24.8176 36.4584 25.0887 35.8104C25.3598 35.1624 25.7864 34.5912 26.3309 34.1475C26.8754 33.7037 27.5209 33.4011 28.2102 33.2663C28.8996 33.1316 29.6116 33.1689 30.283 33.375C30.9545 33.581 31.5649 33.9495 32.06 34.4478C32.5551 34.946 32.9197 35.5586 33.1215 36.2314C33.2857 36.7706 33.3415 37.337 33.2857 37.8979C33.23 38.4588 33.0638 39.0031 32.7968 39.4995C32.5297 39.9959 32.1671 40.4345 31.7298 40.7901C31.2925 41.1456 30.7891 41.4112 30.2487 41.5713C29.8489 41.6825 29.4354 41.7365 29.0205 41.7315V41.7315ZM29.0205 35.3236C28.8143 35.3198 28.6089 35.3487 28.4117 35.4091C28.0057 35.529 27.6444 35.7669 27.3738 36.0926C27.1032 36.4183 26.9355 36.817 26.892 37.2382C26.8485 37.6594 26.9312 38.084 27.1295 38.4581C27.3279 38.8322 27.6329 39.1389 28.0059 39.3393C28.5045 39.6053 29.0882 39.6629 29.6292 39.4995C30.1715 39.3365 30.627 38.9648 30.8953 38.4661C31.1637 37.9674 31.223 37.3826 31.0603 36.8402C30.9749 36.5697 30.8364 36.319 30.6531 36.1026C30.4697 35.8863 30.2451 35.7086 29.9923 35.58C29.6966 35.4201 29.3673 35.3322 29.0311 35.3236H29.0205Z" fill="#FA4616"/>
</svg>
