<svg width="64" height="64" viewBox="0 0 64 64" fill="none" xmlns="http://www.w3.org/2000/svg">
<path d="M14.4289 38.0021C14.2378 38.0025 14.0503 37.9503 13.8869 37.8511C13.7236 37.752 13.5906 37.6098 13.5027 37.4401C13.305 37.0759 12.9408 36.3995 12.4621 35.6502C9.7043 30.8631 7.00899 26.0032 7.00899 23.6618V19.2702C6.97615 18.847 7.03353 18.4217 7.17737 18.0224C7.32122 17.6231 7.54824 17.2589 7.84338 16.954C8.13853 16.649 8.49508 16.4102 8.88944 16.2533C9.28381 16.0965 9.70699 16.0251 10.131 16.0441C12.1082 16.0441 13.7837 19.0724 14.4185 20.3837C14.5296 20.6308 14.5399 20.9116 14.4472 21.1662C14.3545 21.4209 14.1662 21.6293 13.9222 21.7472C13.6782 21.8652 13.3978 21.8833 13.1407 21.7977C12.8836 21.7121 12.67 21.5296 12.5453 21.289C11.7856 19.7176 10.6097 18.1671 10.1206 18.1671C9.4025 18.1671 9.0799 18.5105 9.0799 19.3118V23.6826C9.0799 25.6598 12.7014 31.9454 14.2832 34.6303C14.7619 35.4629 15.147 36.1185 15.3239 36.5035C15.4521 36.7478 15.4782 37.033 15.3962 37.2965C15.3142 37.5599 15.131 37.78 14.8868 37.9084C14.7421 37.9705 14.5863 38.0024 14.4289 38.0021V38.0021Z" fill="#404040"/>
<path d="M32.0057 47.3056C26.7399 47.3056 21.547 44.8913 16.1252 39.9377C15.942 39.7705 15.8246 39.5434 15.794 39.2973C15.7635 39.0511 15.8219 38.8022 15.9587 38.5953C18.2273 35.1403 16.1356 29.0212 14.0438 24.026C13.9765 23.867 13.9498 23.6938 13.9661 23.5219C13.9824 23.35 14.0411 23.1849 14.1372 23.0414C14.2332 22.8979 14.3634 22.7806 14.516 22.6999C14.6687 22.6193 14.839 22.5779 15.0117 22.5795C16.2709 22.5795 18.5083 21.6741 20.8706 20.7063C24.3984 19.2806 28.3946 17.6675 32.0057 17.6675C35.6168 17.6675 39.6129 19.2806 43.1304 20.7167C45.5031 21.6741 47.7405 22.5795 48.9997 22.5795C49.1715 22.5796 49.3406 22.6223 49.4918 22.7036C49.6431 22.785 49.7719 22.9025 49.8667 23.0458C49.9615 23.189 50.0194 23.3535 50.0351 23.5245C50.0509 23.6955 50.0241 23.8678 49.9571 24.026C47.8758 28.9691 45.7945 35.0882 48.0527 38.5953C48.1895 38.8022 48.2479 39.0511 48.2174 39.2973C48.1868 39.5434 48.0694 39.7705 47.8862 39.9377C42.454 44.8913 37.261 47.3056 32.0057 47.3056ZM18.1441 38.9803C22.9415 43.143 27.51 45.2243 32.0057 45.2243C36.5014 45.2243 41.0699 43.143 45.8673 38.9803C43.9317 35.0674 45.4823 29.6144 47.522 24.5463C45.7451 24.0638 44.006 23.4517 42.3187 22.7148C38.9781 21.3619 35.1797 19.8217 31.9745 19.8217C28.7692 19.8217 24.9708 21.3619 21.5678 22.7148C19.88 23.4503 18.141 24.0624 16.3645 24.5463C18.5291 29.5935 20.0797 35.0466 18.1232 38.9595L18.1441 38.9803Z" fill="#404040"/>
<path d="M43.6086 29.0004C43.5361 29.0106 43.4626 29.0106 43.3901 29.0004C39.649 28.1361 35.8396 27.5998 32.0052 27.3978C28.1709 27.5998 24.3615 28.1361 20.6204 29.0004C20.3912 29.052 20.1512 29.0246 19.9396 28.9226C19.728 28.8205 19.5571 28.6499 19.4548 28.4384L18.7992 27.0543C18.7285 26.9301 18.6842 26.7927 18.669 26.6505C18.6538 26.5084 18.668 26.3647 18.7108 26.2283C18.7536 26.092 18.824 25.9659 18.9176 25.8579C19.0113 25.7499 19.1262 25.6624 19.2551 25.6008C19.3841 25.5392 19.5243 25.5048 19.6672 25.4998C19.81 25.4948 19.9524 25.5192 20.0853 25.5716C20.2183 25.624 20.3391 25.7033 20.4401 25.8044C20.5411 25.9055 20.6201 26.0263 20.6724 26.1594L20.9742 26.7942C24.601 25.9803 28.2921 25.4858 32.0052 25.3164C35.7149 25.4857 39.4026 25.9802 43.0258 26.7942L43.338 26.1594C43.3903 26.0263 43.4694 25.9055 43.5704 25.8044C43.6714 25.7033 43.7921 25.624 43.9251 25.5716C44.0581 25.5192 44.2004 25.4948 44.3432 25.4998C44.4861 25.5048 44.6263 25.5392 44.7553 25.6008C44.8843 25.6624 44.9992 25.7499 45.0928 25.8579C45.1865 25.9659 45.2569 26.092 45.2996 26.2283C45.3424 26.3647 45.3566 26.5084 45.3414 26.6505C45.3262 26.7927 45.2819 26.9301 45.2112 27.0543L44.5452 28.4384C44.4565 28.6097 44.3219 28.7529 44.1566 28.8522C43.9912 28.9514 43.8015 29.0027 43.6086 29.0004V29.0004Z" fill="#FA4616"/>
<path d="M32.0055 35.1403C28.5571 35.1071 25.119 34.7587 21.7341 34.0996C21.5502 34.0661 21.3788 33.9836 21.2378 33.8609C21.0968 33.7383 20.9914 33.5799 20.9328 33.4024L20.5061 32.112C20.4638 31.9815 20.4475 31.8439 20.4583 31.7071C20.4691 31.5703 20.5068 31.437 20.5691 31.3147C20.6314 31.1925 20.7172 31.0837 20.8216 30.9946C20.926 30.9055 21.0468 30.8379 21.1774 30.7955C21.3079 30.7532 21.4455 30.7369 21.5822 30.7477C21.719 30.7585 21.8523 30.7962 21.9746 30.8585C22.2215 30.9844 22.4082 31.2032 22.4938 31.4668L22.7123 32.164C25.7768 32.7482 28.8862 33.065 32.0055 33.111C35.1213 33.065 38.2272 32.7482 41.2882 32.164L41.5171 31.4668C41.6028 31.2047 41.7891 30.9873 42.0349 30.8624C42.2808 30.7376 42.5662 30.7154 42.8284 30.8007C43.0904 30.8865 43.3078 31.0727 43.4327 31.3185C43.5575 31.5644 43.5797 31.8498 43.4944 32.112L43.0781 33.4024C43.0195 33.5799 42.9141 33.7383 42.7731 33.8609C42.6321 33.9836 42.4607 34.0661 42.2768 34.0996C38.8918 34.7582 35.4538 35.1066 32.0055 35.1403V35.1403Z" fill="#FA4616"/>
<path d="M32.0058 41.582C28.2074 41.582 24.6587 40.2187 22.0674 39.2301L21.4534 39.0428C21.3034 38.9824 21.1686 38.8895 21.0588 38.7707C20.9491 38.6519 20.867 38.5103 20.8186 38.3559L20.496 37.2424C20.4585 37.1105 20.4472 36.9725 20.463 36.8363C20.4787 36.7001 20.5211 36.5683 20.5878 36.4485C20.6545 36.3287 20.7441 36.2231 20.8516 36.138C20.959 36.0528 21.0822 35.9896 21.2141 35.952C21.346 35.9144 21.484 35.9032 21.6202 35.9189C21.7564 35.9347 21.8882 35.9771 22.008 36.0438C22.1279 36.1104 22.2334 36.2001 22.3186 36.3075C22.4038 36.415 22.4669 36.5382 22.5045 36.6701L22.6814 37.2736L22.8063 37.3257C25.2519 38.2623 28.5924 39.5423 32.0058 39.5423C35.1777 39.3654 38.2911 38.6144 41.1948 37.3257L41.3301 37.2736L41.507 36.6596C41.5453 36.5285 41.609 36.4061 41.6946 36.2995C41.7801 36.1929 41.8859 36.1043 42.0057 36.0386C42.1255 35.9729 42.2571 35.9314 42.393 35.9165C42.5288 35.9017 42.6663 35.9137 42.7975 35.952C43.0624 36.0293 43.2858 36.2086 43.4185 36.4506C43.5512 36.6926 43.5824 36.9775 43.5051 37.2424L43.1825 38.3559C43.1387 38.5109 43.0595 38.6536 42.9511 38.7728C42.8428 38.892 42.7082 38.9844 42.5581 39.0428L41.9441 39.2717C39.3529 40.2187 35.8146 41.582 32.0058 41.582Z" fill="#FA4616"/>
<path d="M49.5824 38.0021C49.4165 37.9988 49.2532 37.9598 49.1037 37.8877C48.8595 37.7593 48.6763 37.5391 48.5943 37.2757C48.5124 37.0122 48.5384 36.727 48.6667 36.4828C48.8644 36.0977 49.239 35.4421 49.7073 34.6096C51.2579 31.9247 54.9106 25.639 54.9106 23.6618V19.2702C54.9106 18.4689 54.5984 18.1255 53.87 18.1255C53.3913 18.1775 52.2153 19.7177 51.4556 21.2474C51.331 21.488 51.1174 21.6705 50.8602 21.7561C50.6031 21.8417 50.3227 21.8236 50.0788 21.7056C49.8348 21.5877 49.6464 21.3793 49.5538 21.1246C49.4611 20.87 49.4713 20.5892 49.5824 20.3421C50.2172 19.0308 51.8927 16.0025 53.87 16.0025C54.2935 15.9852 54.716 16.0577 55.1095 16.2151C55.5031 16.3725 55.859 16.6114 56.1538 16.916C56.4486 17.2206 56.6756 17.5841 56.8201 17.9827C56.9645 18.3812 57.0231 18.8058 56.992 19.2286V23.5993C56.992 25.9408 54.2966 30.8007 51.5389 35.5878C51.0706 36.3787 50.7064 37.0135 50.4982 37.3777C50.4199 37.5575 50.2924 37.7115 50.1304 37.822C49.9684 37.9325 49.7784 37.9949 49.5824 38.0021V38.0021Z" fill="#404040"/>
</svg>
