<svg width="64" height="64" viewBox="0 0 64 64" fill="none" xmlns="http://www.w3.org/2000/svg">
<path d="M15.3019 56.9934C15.107 56.9941 14.9157 56.9399 14.75 56.8372C14.6345 56.7641 14.5344 56.6689 14.4557 56.5571C14.3769 56.4453 14.3209 56.319 14.2909 56.1856C14.261 56.0521 14.2576 55.9141 14.281 55.7794C14.3043 55.6446 14.354 55.5158 14.4272 55.4002L19.5817 47.1739C19.7277 46.9416 19.9594 46.7763 20.2265 46.7139C20.4936 46.6516 20.7746 46.6971 21.0083 46.8406L31.8484 53.5363C31.9662 53.609 32.0683 53.7045 32.1487 53.8171C32.2292 53.9297 32.2864 54.0573 32.317 54.1923C32.3464 54.3273 32.3486 54.4668 32.3236 54.6026C32.2986 54.7385 32.2468 54.8681 32.1712 54.9837L31.1299 56.5248C30.9793 56.7568 30.7429 56.9195 30.4724 56.9771C30.2019 57.0347 29.9196 56.9825 29.6876 56.832C29.4557 56.6815 29.293 56.445 29.2354 56.1745C29.1778 55.9041 29.23 55.6218 29.3805 55.3898L29.797 54.7546L20.7376 49.1523L16.135 56.504C16.046 56.6468 15.9237 56.766 15.7786 56.8512C15.6336 56.9364 15.47 56.9852 15.3019 56.9934V56.9934Z" fill="#404040"/>
<path d="M35.1704 31.3355C35.0106 31.3299 34.8541 31.2875 34.7133 31.2116C34.5724 31.1358 34.4509 31.0285 34.3582 30.8981L33.7751 30.1067C31.6092 27.1702 30.5783 25.6187 30.5054 24.6815C30.4883 24.3589 30.4883 24.0356 30.5054 23.7131C30.6494 22.2234 30.5651 20.7205 30.2554 19.2562C29.8034 17.502 29.0379 15.8439 27.9958 14.3621C27.8528 14.139 27.8002 13.8699 27.8486 13.6094C27.8971 13.3489 28.0431 13.1167 28.2568 12.9601C28.4705 12.8035 28.7359 12.7342 28.9989 12.7664C29.2619 12.7986 29.5027 12.9298 29.6723 13.1333C30.8789 14.8543 31.7611 16.781 32.2756 18.8189C32.628 20.4815 32.7228 22.1883 32.5568 23.8797C32.5436 24.1016 32.5436 24.3242 32.5568 24.5461C33.3849 26.0665 34.343 27.5123 35.4204 28.8676L36.0139 29.6902C36.1731 29.9142 36.2372 30.1921 36.1923 30.4632C36.1475 30.7344 35.9972 30.9768 35.7744 31.1376C35.5986 31.2649 35.3875 31.3341 35.1704 31.3355V31.3355Z" fill="#404040"/>
<path d="M19.6336 43.9666C19.4213 43.9661 19.2142 43.9007 19.0401 43.7792C17.8842 42.9669 16.9575 42.2901 16.6347 41.9777C15.7495 41.2071 14.8853 38.0519 14.8228 35.6257C13.0421 34.928 10.0015 33.5431 10.0015 30.9606V27.8367C9.98849 27.4229 10.0604 27.0109 10.2128 26.626C10.3652 26.2411 10.5948 25.8915 10.8875 25.5988C11.1802 25.306 11.5298 25.0764 11.9147 24.924C12.2996 24.7716 12.7117 24.6997 13.1254 24.7127C13.6911 24.6371 14.2665 24.6916 14.8079 24.872C15.3492 25.0525 15.8423 25.3541 16.2494 25.754V25.223C16.1801 23.883 16.5784 22.5606 17.3761 21.4818C18.1738 20.403 19.3215 19.6347 20.6229 19.3083C21.3062 18.9043 21.8142 18.2597 22.0472 17.5009C22.2803 16.742 22.2217 15.9235 21.8829 15.2055C21.8255 15.0742 21.7959 14.9324 21.7959 14.789C21.7959 14.6457 21.8255 14.5039 21.8829 14.3725C21.9434 14.2424 22.0301 14.1263 22.1376 14.0313C22.2451 13.9363 22.3711 13.8646 22.5077 13.8206C24.4712 12.7741 26.0342 11.1086 26.9541 9.08263H12.0633C11.7871 9.08263 11.5223 8.97292 11.327 8.77763C11.1317 8.58235 11.022 8.31749 11.022 8.04131C11.022 7.76514 11.1317 7.50028 11.327 7.30499C11.5223 7.10971 11.7871 7 12.0633 7H28.2036C28.4798 7 28.7447 7.10971 28.94 7.30499C29.1352 7.50028 29.245 7.76514 29.245 8.04131C29.245 10.8945 26.2251 14.1122 24.0384 15.3305C24.3305 16.464 24.2264 17.6633 23.7435 18.7296C23.2605 19.7958 22.4277 20.665 21.383 21.1931H21.2685C18.6027 22.047 18.2591 23.7547 18.2591 25.1397V27.7742C18.2588 27.961 18.2083 28.1442 18.1128 28.3048C18.0173 28.4653 17.8804 28.5972 17.7164 28.6866C17.5525 28.7761 17.3674 28.8197 17.1808 28.8131C16.9941 28.8065 16.8127 28.7497 16.6555 28.6489L15.0935 27.6076C14.966 27.5219 14.8564 27.4122 14.7707 27.2848C14.4583 26.7849 14.1459 26.7225 13.0525 26.7225C12.9122 26.7077 12.7703 26.7245 12.6373 26.7717C12.5042 26.8188 12.3834 26.895 12.2836 26.9948C12.1838 27.0946 12.1076 27.2155 12.0604 27.3485C12.0133 27.4815 11.9965 27.6234 12.0112 27.7638V30.8877C12.0112 31.8353 13.3649 32.8141 16.0203 33.8034H16.1661C16.3758 33.8812 16.5548 34.0245 16.6767 34.2121C16.7986 34.3996 16.8569 34.6215 16.8429 34.8447C16.7876 36.7286 17.1689 38.5997 17.9571 40.3116C18.1862 40.499 18.9984 41.1238 20.1647 41.9465C20.3892 42.1057 20.5415 42.3474 20.5883 42.6186C20.6352 42.8898 20.5727 43.1686 20.4146 43.3939C20.3406 43.5455 20.2308 43.6768 20.0948 43.7766C19.9587 43.8763 19.8005 43.9415 19.6336 43.9666Z" fill="#404040"/>
<path d="M25.6217 28.878C25.4847 28.8788 25.3488 28.8525 25.222 28.8007C25.0951 28.7489 24.9797 28.6725 24.8824 28.576C24.6884 28.3809 24.5796 28.117 24.5796 27.8419C24.5796 27.5668 24.6884 27.3029 24.8824 27.1078L26.2361 25.7541L24.8824 24.4108C24.6884 24.2157 24.5796 23.9517 24.5796 23.6766C24.5796 23.4015 24.6884 23.1376 24.8824 22.9425C24.9792 22.8449 25.0944 22.7674 25.2213 22.7146C25.3482 22.6617 25.4843 22.6345 25.6217 22.6345C25.7592 22.6345 25.8953 22.6617 26.0222 22.7146C26.1491 22.7674 26.2643 22.8449 26.3611 22.9425L28.4437 25.0251C28.6376 25.2202 28.7465 25.4842 28.7465 25.7593C28.7465 26.0344 28.6376 26.2983 28.4437 26.4934L26.3611 28.576C26.2638 28.6725 26.1484 28.7489 26.0215 28.8007C25.8946 28.8525 25.7588 28.8788 25.6217 28.878V28.878Z" fill="#404040"/>
<path d="M44.3651 19.5062H39.1585C38.8823 19.5062 38.6175 19.3965 38.4222 19.2012C38.2269 19.0059 38.1172 18.741 38.1172 18.4649C38.1172 18.1887 38.2269 17.9238 38.4222 17.7285C38.6175 17.5333 38.8823 17.4236 39.1585 17.4236H44.3651C44.6412 17.4236 44.9061 17.5333 45.1014 17.7285C45.2967 17.9238 45.4064 18.1887 45.4064 18.4649C45.4064 18.741 45.2967 19.0059 45.1014 19.2012C44.9061 19.3965 44.6412 19.5062 44.3651 19.5062Z" fill="#FA4616"/>
<path d="M38.1168 15.3409C37.8919 15.3372 37.6742 15.2607 37.4963 15.1229C37.3184 14.9851 37.19 14.7934 37.1302 14.5765C37.0704 14.3596 37.0825 14.1291 37.1646 13.9197C37.2467 13.7102 37.3945 13.533 37.5858 13.4145L42.7923 10.2905C42.9093 10.1984 43.0446 10.1324 43.1892 10.097C43.3338 10.0616 43.4843 10.0576 43.6305 10.0853C43.7768 10.113 43.9154 10.1718 44.0371 10.2576C44.1587 10.3434 44.2606 10.4543 44.3357 10.5828C44.4109 10.7113 44.4576 10.8544 44.4727 11.0025C44.4879 11.1506 44.4711 11.3002 44.4235 11.4413C44.3759 11.5823 44.2986 11.7116 44.1969 11.8202C44.0951 11.9289 43.9713 12.0145 43.8337 12.0712L38.6271 15.1951C38.4737 15.2898 38.2971 15.3402 38.1168 15.3409V15.3409Z" fill="#FA4616"/>
<path d="M43.3235 26.7954C43.1362 26.7986 42.9519 26.748 42.7925 26.6496L37.5859 23.5257C37.4483 23.4689 37.3244 23.3833 37.2226 23.2747C37.1209 23.166 37.0436 23.0368 36.996 22.8957C36.9484 22.7547 36.9317 22.6051 36.9468 22.457C36.962 22.3089 37.0087 22.1658 37.0838 22.0372C37.159 21.9087 37.2608 21.7979 37.3824 21.712C37.5041 21.6262 37.6427 21.5675 37.789 21.5398C37.9353 21.5121 38.0858 21.5161 38.2304 21.5515C38.3749 21.5869 38.5103 21.6529 38.6272 21.745L43.8338 24.8689C44.025 24.9874 44.1728 25.1647 44.2549 25.3741C44.337 25.5836 44.3491 25.814 44.2893 26.0309C44.2295 26.2478 44.1011 26.4396 43.9232 26.5774C43.7454 26.7152 43.5277 26.7916 43.3027 26.7954H43.3235Z" fill="#FA4616"/>
<path d="M45.5314 52.8803H45.344C45.1895 52.8509 45.0436 52.7869 44.9174 52.6931C44.7911 52.5994 44.6878 52.4782 44.6151 52.3388L42.5324 48.3089C42.4695 48.1872 42.4312 48.0543 42.4197 47.9178C42.4081 47.7813 42.4236 47.6438 42.4652 47.5133C42.5067 47.3827 42.5736 47.2617 42.662 47.157C42.7504 47.0523 42.8585 46.966 42.9802 46.9031C43.1019 46.8402 43.2348 46.8019 43.3713 46.7904C43.5078 46.7788 43.6453 46.7943 43.7758 46.8359C43.9063 46.8774 44.0274 46.9443 44.1321 47.0327C44.2368 47.1211 44.3231 47.2292 44.386 47.3509L45.8334 50.152C47.2704 48.7254 49.8945 45.8826 50.9254 43.2481L49.7695 42.2068C45.2423 38.448 40.9379 34.4287 36.8781 30.1692C36.2981 30.504 35.8357 31.0099 35.5542 31.6175C35.2728 32.2252 35.186 32.905 35.3057 33.5639C35.3171 33.7007 35.3013 33.8385 35.2593 33.9692C35.2172 34.0999 35.1497 34.221 35.0607 34.3255C34.9716 34.4301 34.8628 34.5159 34.7404 34.5782C34.6181 34.6405 34.4846 34.678 34.3477 34.6885C34.073 34.7116 33.8003 34.6248 33.5895 34.4472C33.3787 34.2696 33.2469 34.0156 33.2231 33.7409C33.0561 32.5321 33.3 31.3023 33.9156 30.2486C34.5312 29.195 35.4828 28.3786 36.6178 27.9304C36.821 27.8279 37.0522 27.7949 37.2759 27.8362C37.4997 27.8776 37.7038 27.9911 37.8569 28.1595C42.0093 32.6021 46.4404 36.7758 51.1233 40.6553L52.8206 42.1235C52.9654 42.2503 53.0722 42.4147 53.1292 42.5985C53.1862 42.7824 53.1911 42.9784 53.1434 43.1648C51.8418 47.58 46.4686 52.3908 46.2395 52.5991C46.0475 52.7789 45.7945 52.8794 45.5314 52.8803Z" fill="#FA4616"/>
<path d="M40.1995 51.7869C39.9855 51.7868 39.7767 51.7208 39.6016 51.5978C39.4264 51.4748 39.2934 51.3009 39.2206 51.0996L37.9294 47.5592C37.8445 47.3018 37.8632 47.0214 37.9818 46.7776C38.1003 46.5338 38.3092 46.3458 38.5641 46.2536C38.819 46.1614 39.0998 46.1722 39.3469 46.2838C39.5939 46.3954 39.7877 46.5989 39.8871 46.8511L40.6472 48.9337L44.2606 45.664L41.1367 42.2901C41.0338 42.1917 40.9522 42.0732 40.8969 41.9419C40.8417 41.8107 40.8139 41.6695 40.8154 41.5271C40.8169 41.3847 40.8475 41.2442 40.9055 41.1141C40.9634 40.984 41.0474 40.8672 41.1523 40.7709C41.2572 40.6746 41.3807 40.6008 41.5152 40.5541C41.6498 40.5074 41.7924 40.4888 41.9344 40.4994C42.0764 40.5101 42.2147 40.5497 42.3408 40.6159C42.4669 40.6821 42.578 40.7735 42.6674 40.8844L46.4682 45.0496C46.6528 45.2542 46.7487 45.5236 46.7351 45.7988C46.7214 46.074 46.5992 46.3326 46.3953 46.5179L40.8659 51.5266C40.6815 51.6893 40.4454 51.7816 40.1995 51.7869Z" fill="#FA4616"/>
<path d="M29.5992 54.411C29.3916 54.4115 29.1885 54.3498 29.0161 54.234C28.9025 54.1575 28.805 54.0594 28.7294 53.9452C28.6537 53.831 28.6014 53.703 28.5752 53.5686C28.5491 53.4341 28.5498 53.2959 28.5772 53.1617C28.6046 53.0275 28.6582 52.9 28.735 52.7866C29.2936 52.0338 29.9562 51.3641 30.7031 50.7976C31.1692 50.4463 31.5952 50.0447 31.9735 49.6001C34.5247 46.1638 37.4195 41.4258 37.7319 40.8739C37.8532 40.4468 37.8749 39.9976 37.7955 39.5607C37.7161 39.1239 37.5376 38.7111 37.2737 38.354C36.378 36.711 35.0443 35.3485 33.4209 34.4178C32.4316 35.8548 29.8908 40.1554 28.5996 42.363C28.5396 42.4958 28.4524 42.6145 28.3436 42.7114C28.2349 42.8084 28.107 42.8815 27.9682 42.9259C27.8294 42.9703 27.6829 42.9851 27.538 42.9694C27.3932 42.9536 27.2533 42.9076 27.1273 42.8344C27.0013 42.7612 26.8921 42.6623 26.8068 42.5442C26.7214 42.4261 26.6618 42.2915 26.6318 42.1489C26.6017 42.0063 26.6019 41.859 26.6324 41.7165C26.6628 41.5741 26.7228 41.4395 26.8085 41.3217C26.9647 41.0301 30.8801 34.3241 31.9422 32.8975C32.2442 32.5018 33.1501 31.7104 35.0661 32.9808C37.4716 34.5428 41.1162 38.9787 39.4917 41.884C39.1585 42.4776 36.2428 47.2676 33.5979 50.8393C33.1231 51.4216 32.5814 51.9458 31.9839 52.4013C31.3924 52.8455 30.8636 53.3674 30.4115 53.9528C30.321 54.0871 30.2005 54.1984 30.0595 54.2779C29.9185 54.3574 29.7609 54.403 29.5992 54.411Z" fill="#404040"/>
<path d="M22.0806 49.7667C21.8841 49.7679 21.6918 49.7098 21.5287 49.6001C21.2965 49.4542 21.1312 49.2225 21.0688 48.9553C21.0064 48.6882 21.0519 48.4073 21.1955 48.1735C21.4737 47.214 21.5621 46.2095 21.4558 45.2162C21.3684 44.1677 21.4563 43.1119 21.7161 42.0923C22.4749 40.1353 23.5056 38.2949 24.7776 36.6254C24.8734 36.4908 24.9999 36.3809 25.1466 36.3049C25.2932 36.2288 25.4559 36.1888 25.6211 36.188C26.6392 36.3118 27.5878 36.7692 28.3187 37.4888C29.0496 38.2084 29.5217 39.1497 29.6614 40.1658C29.6945 40.442 29.6166 40.72 29.4447 40.9388C29.2729 41.1575 29.0212 41.299 28.745 41.3321C28.4688 41.3652 28.1908 41.2873 27.9721 41.1155C27.7534 40.9436 27.6119 40.6919 27.5787 40.4157C27.5046 39.9757 27.3297 39.5588 27.0678 39.1975C26.8059 38.8362 26.464 38.5404 26.0688 38.3331C25.0785 39.6903 24.2698 41.1711 23.6634 42.7379C23.5161 43.5307 23.4706 44.339 23.528 45.1433C23.528 46.6636 23.5905 48.2672 22.9553 49.2461C22.8663 49.4005 22.7391 49.5294 22.5859 49.6206C22.4328 49.7117 22.2588 49.7621 22.0806 49.7667V49.7667Z" fill="#404040"/>
</svg>
