<svg width="64" height="64" viewBox="0 0 64 64" fill="none" xmlns="http://www.w3.org/2000/svg">
<path d="M32.0415 15.3251C31.2182 15.3251 30.4134 15.081 29.7289 14.6236C29.0443 14.1662 28.5108 13.5161 28.1958 12.7555C27.8807 11.9949 27.7983 11.1579 27.9589 10.3505C28.1195 9.54302 28.5159 8.80132 29.0981 8.21918C29.6802 7.63704 30.4219 7.2406 31.2294 7.07998C32.0368 6.91937 32.8738 7.00181 33.6344 7.31686C34.395 7.63192 35.0451 8.16544 35.5025 8.84997C35.9599 9.5345 36.204 10.3393 36.204 11.1626C36.204 12.2665 35.7655 13.3253 34.9848 14.1059C34.2042 14.8866 33.1454 15.3251 32.0415 15.3251ZM32.0415 9.08128C31.6298 9.08128 31.2274 9.20335 30.8852 9.43204C30.5429 9.66074 30.2761 9.98578 30.1186 10.3661C29.9611 10.7464 29.9199 11.1649 30.0002 11.5686C30.0805 11.9723 30.2787 12.3432 30.5698 12.6342C30.8608 12.9253 31.2317 13.1235 31.6354 13.2038C32.0392 13.2842 32.4576 13.2429 32.8379 13.0854C33.2182 12.9279 33.5433 12.6611 33.772 12.3189C34.0007 11.9766 34.1227 11.5742 34.1227 11.1626C34.1227 10.6106 33.9035 10.0812 33.5132 9.69087C33.1228 9.30055 32.5935 9.08128 32.0415 9.08128Z" fill="#FA4616"/>
<path d="M32.0411 29.8941C31.7651 29.8941 31.5004 29.7844 31.3053 29.5893C31.1101 29.3941 31.0005 29.1294 31.0005 28.8534V14.2845C31.0005 14.0085 31.1101 13.7438 31.3053 13.5486C31.5004 13.3535 31.7651 13.2438 32.0411 13.2438C32.3171 13.2438 32.5818 13.3535 32.777 13.5486C32.9721 13.7438 33.0818 14.0085 33.0818 14.2845V28.8534C33.0818 29.1294 32.9721 29.3941 32.777 29.5893C32.5818 29.7844 32.3171 29.8941 32.0411 29.8941Z" fill="#FA4616"/>
<path d="M45.4756 24.6909H45.1218C44.4185 24.6773 43.7283 24.4988 43.1065 24.1698C42.4848 23.8409 41.9489 23.3706 41.542 22.7969C41.3933 22.565 41.3427 22.2835 41.4012 22.0143C41.4598 21.7451 41.6226 21.5101 41.8542 21.3608C41.9696 21.2877 42.0984 21.238 42.233 21.2147C42.3677 21.1913 42.5057 21.1947 42.639 21.2246C42.7724 21.2546 42.8985 21.3105 43.0103 21.3892C43.122 21.468 43.2171 21.5679 43.2902 21.6834C43.5284 21.9719 43.8272 22.2044 44.1653 22.3644C44.5034 22.5245 44.8726 22.6082 45.2466 22.6096C45.7331 22.6525 46.2228 22.5807 46.6764 22.4C47.1301 22.2192 47.535 21.9346 47.8586 21.569C47.9818 21.4187 48.1445 21.306 48.3284 21.2434C48.5124 21.1809 48.7101 21.1711 48.8993 21.2151C52.0212 21.9644 53.2075 20.6532 54.2065 18.3326C50.5227 18.8945 47.3071 16.8132 44.8408 15.2106C43.5088 14.3469 42.2392 13.5248 41.4899 13.5248C40.4493 13.5248 39.7833 14.2741 38.8259 15.4916C38.0298 16.7966 36.7756 17.7576 35.3085 18.1869C35.0458 18.2305 34.7764 18.1717 34.5557 18.0226C34.335 17.8736 34.1799 17.6456 34.1222 17.3856C34.095 17.2509 34.0947 17.1122 34.1213 16.9775C34.148 16.8427 34.201 16.7145 34.2775 16.6003C34.3539 16.4862 34.4522 16.3883 34.5666 16.3123C34.6811 16.2363 34.8094 16.1838 34.9443 16.1576C35.8393 15.9911 36.4845 15.169 37.2233 14.2324C38.1911 12.9941 39.3878 11.4644 41.5212 11.4644C42.8844 11.4644 44.3309 12.4009 46.0063 13.4832C48.8056 15.2939 51.99 17.344 55.5386 15.7934C55.7261 15.7111 55.9338 15.6859 56.1355 15.7211C56.3373 15.7563 56.5242 15.8502 56.6729 15.9911C56.8222 16.1319 56.9266 16.3137 56.9729 16.5137C57.0192 16.7137 57.0053 16.9229 56.933 17.115L56.7145 17.6978C55.7883 20.1953 54.269 24.3162 49.0242 23.3692C48.0466 24.2354 46.7816 24.7066 45.4756 24.6909V24.6909Z" fill="#404040"/>
<path d="M18.5131 24.6909C17.2098 24.7091 15.9472 24.2374 14.9749 23.3692C9.70931 24.3162 8.20038 20.2474 7.28462 17.6978L7.06608 17.115C6.99461 16.9242 6.98076 16.7165 7.02625 16.5178C7.07174 16.3192 7.17457 16.1382 7.32197 15.9975C7.46937 15.8567 7.65486 15.7623 7.85542 15.7261C8.05597 15.6898 8.26277 15.7132 8.45014 15.7934C11.9987 17.3544 15.1831 15.2939 17.9928 13.4832C19.6578 12.4425 21.1147 11.4644 22.4779 11.4644C24.5592 11.4644 25.7976 12.9941 26.7654 14.2324C27.5146 15.169 28.1494 15.9911 29.0444 16.1576C29.3204 16.2101 29.5642 16.37 29.7223 16.6022C29.8804 16.8345 29.9397 17.12 29.8873 17.396C29.8349 17.672 29.6749 17.9158 29.4427 18.0739C29.2104 18.232 28.9249 18.2913 28.6489 18.2389C27.1818 17.8097 25.9276 16.8486 25.1316 15.5437C24.1742 14.3261 23.529 13.5769 22.4779 13.5769C21.7183 13.5769 20.4591 14.399 19.1167 15.2627C16.6608 16.8445 13.4556 18.9257 9.75093 18.3846C10.7916 20.7052 11.9571 22.0164 15.0686 21.2672C15.2578 21.2231 15.4555 21.2329 15.6394 21.2955C15.8234 21.358 15.9861 21.4708 16.1092 21.621C16.4329 21.9866 16.8378 22.2713 17.2915 22.452C17.7451 22.6327 18.2348 22.7045 18.7212 22.6616C19.0953 22.6602 19.4645 22.5765 19.8026 22.4165C20.1407 22.2564 20.4395 22.0239 20.6776 21.7354C20.744 21.607 20.8363 21.4937 20.9489 21.4029C21.0614 21.3121 21.1916 21.2458 21.3312 21.2081C21.4708 21.1705 21.6167 21.1623 21.7597 21.1842C21.9026 21.206 22.0394 21.2574 22.1614 21.3351C22.2833 21.4128 22.3877 21.515 22.468 21.6353C22.5482 21.7556 22.6025 21.8912 22.6274 22.0337C22.6523 22.1761 22.6472 22.3222 22.6126 22.4625C22.5779 22.6029 22.5143 22.7345 22.4259 22.8489C22.0202 23.4239 21.4845 23.895 20.8625 24.2241C20.2405 24.5532 19.5497 24.7309 18.8461 24.7429L18.5131 24.6909Z" fill="#404040"/>
<path d="M33.748 45.462C33.5346 45.4603 33.3269 45.393 33.153 45.2693C32.9792 45.1456 32.8475 44.9714 32.776 44.7704C32.7044 44.5693 32.6964 44.3511 32.753 44.1454C32.8096 43.9396 32.9281 43.7562 33.0924 43.6201C33.9567 42.9833 34.6801 42.175 35.2173 41.2456C35.7545 40.3162 36.0939 39.2859 36.2143 38.2192C36.2143 35.0973 33.7688 33.6404 31.7188 32.9639L30.5533 32.5893C27.4313 31.6215 22.686 30.1646 22.686 25.7315C22.686 24.6275 23.1246 23.5688 23.9052 22.7881C24.6859 22.0075 25.7446 21.569 26.8486 21.569C27.6788 21.5671 28.4906 21.8135 29.1796 22.2766C29.4087 22.4311 29.567 22.6704 29.6197 22.9416C29.6724 23.2129 29.6152 23.494 29.4606 23.7231C29.306 23.9521 29.0668 24.1104 28.7955 24.1631C28.5243 24.2158 28.2432 24.1586 28.0141 24.0041C27.7008 23.7895 27.3347 23.6647 26.9555 23.6433C26.5763 23.6219 26.1985 23.7046 25.863 23.8826C25.5275 24.0605 25.2471 24.3269 25.0521 24.6528C24.8571 24.9787 24.755 25.3517 24.7569 25.7315C24.7569 28.4164 27.525 29.4882 31.1568 30.6017L32.3744 30.9867C36.2039 32.2563 38.2852 34.8267 38.2852 38.2192C38.1753 39.5939 37.7754 40.9298 37.1117 42.1388C36.448 43.3477 35.5357 44.4023 34.4348 45.2331C34.2407 45.3891 33.997 45.4704 33.748 45.462V45.462Z" fill="#404040"/>
<path d="M33.5714 56.9507C33.4587 56.9478 33.3467 56.9303 33.2384 56.8986C33.1084 56.8552 32.9883 56.7865 32.8849 56.6965C32.7815 56.6064 32.6969 56.4969 32.636 56.3741C32.5751 56.2513 32.539 56.1176 32.5299 55.9809C32.5208 55.8441 32.5388 55.7068 32.5828 55.577C33.0368 54.3817 33.3544 53.1389 33.5298 51.8724C33.5298 49.3228 31.7607 47.5225 29.8876 45.6285C27.8063 43.5472 25.725 41.466 25.725 38.24C25.7148 37.3128 25.8941 36.3933 26.252 35.5379C26.6099 34.6826 27.1388 33.9093 27.8063 33.2657C28.0066 33.0966 28.2633 33.0092 28.5252 33.0211C28.7871 33.0331 29.0348 33.1434 29.2189 33.3301C29.4029 33.5168 29.5097 33.766 29.518 34.0281C29.5262 34.2901 29.4352 34.5456 29.2632 34.7434C28.81 35.1995 28.4537 35.7425 28.2159 36.3398C27.978 36.9371 27.8635 37.5764 27.8791 38.2192C27.8791 40.571 29.5858 42.3089 31.3965 44.1508C33.3841 46.1696 35.6423 48.4695 35.6423 51.8724C35.4898 53.3688 35.1399 54.8384 34.6017 56.243C34.5297 56.4566 34.3904 56.6411 34.2046 56.7687C34.0188 56.8963 33.7966 56.9602 33.5714 56.9507Z" fill="#404040"/>
<path d="M30.4495 56.9507C30.2132 56.9581 29.9814 56.8849 29.7922 56.743C29.6031 56.6012 29.4679 56.3992 29.4089 56.1702C29.3189 55.8181 29.2113 55.4708 29.0863 55.1296C28.597 54.0299 28.3652 52.833 28.4084 51.6301C28.4517 50.4273 28.769 49.2502 29.336 48.1885C29.3977 48.0642 29.4835 47.9535 29.5885 47.8629C29.6935 47.7723 29.8156 47.7035 29.9476 47.6608C30.0795 47.618 30.2187 47.6021 30.3569 47.6139C30.4951 47.6257 30.6296 47.665 30.7524 47.7295C30.8752 47.7941 30.9838 47.8825 31.072 47.9896C31.1601 48.0967 31.2259 48.2204 31.2656 48.3533C31.3052 48.4862 31.3179 48.6257 31.3028 48.7636C31.2878 48.9015 31.2453 49.035 31.178 49.1563C30.0124 51.3728 30.5224 52.8714 31.0531 54.4635C31.1988 54.8728 31.3237 55.2683 31.4277 55.6499C31.4621 55.7824 31.47 55.9205 31.451 56.0561C31.4319 56.1917 31.3863 56.3222 31.3167 56.4402C31.247 56.5581 31.1548 56.6612 31.0453 56.7434C30.9358 56.8257 30.8111 56.8855 30.6785 56.9195C30.6034 56.9378 30.5267 56.9482 30.4495 56.9507V56.9507Z" fill="#404040"/>
<path d="M35.8711 31.736C35.6627 31.7362 35.459 31.6738 35.2865 31.5569C35.1139 31.44 34.9805 31.274 34.9034 31.0804C34.8527 30.9533 34.8275 30.8175 34.8294 30.6807C34.8312 30.5439 34.8601 30.4088 34.9142 30.2831C34.9683 30.1575 35.0467 30.0437 35.1448 29.9484C35.243 29.853 35.3589 29.778 35.4861 29.7276C38.1189 28.6869 39.2948 27.459 39.2948 25.7315C39.2954 25.3534 39.193 24.9823 38.9985 24.658C38.8041 24.3337 38.525 24.0686 38.1912 23.891C37.8574 23.7134 37.4815 23.6301 37.1039 23.65C36.7263 23.6699 36.3613 23.7923 36.0481 24.004C35.9347 24.0807 35.8073 24.1343 35.6732 24.1617C35.5391 24.1891 35.4009 24.1898 35.2665 24.1637C35.1322 24.1376 35.0043 24.0852 34.8901 24.0096C34.776 23.934 34.678 23.8366 34.6016 23.7231C34.5249 23.6097 34.4713 23.4823 34.4439 23.3482C34.4165 23.2141 34.4158 23.0759 34.4419 22.9415C34.468 22.8072 34.5204 22.6793 34.596 22.5652C34.6716 22.4511 34.769 22.353 34.8825 22.2766C35.5735 21.8175 36.384 21.5715 37.2136 21.569C38.3175 21.569 39.3763 22.0075 40.1569 22.7881C40.9376 23.5688 41.3761 24.6275 41.3761 25.7315C41.3761 29.6443 37.5154 31.1636 36.2562 31.6631C36.1336 31.7116 36.0029 31.7363 35.8711 31.736V31.736Z" fill="#404040"/>
<path d="M32.0411 42.3817C31.7651 42.3817 31.5004 42.2721 31.3053 42.0769C31.1101 41.8818 31.0005 41.6171 31.0005 41.3411V35.0973C31.0005 34.8213 31.1101 34.5566 31.3053 34.3614C31.5004 34.1662 31.7651 34.0566 32.0411 34.0566C32.3171 34.0566 32.5818 34.1662 32.777 34.3614C32.9721 34.5566 33.0818 34.8213 33.0818 35.0973V41.3411C33.0818 41.6171 32.9721 41.8818 32.777 42.0769C32.5818 42.2721 32.3171 42.3817 32.0411 42.3817Z" fill="#FA4616"/>
</svg>
