<svg width="64" height="64" viewBox="0 0 64 64" fill="none" xmlns="http://www.w3.org/2000/svg">
<path d="M27.792 54.6042L26.3232 53.1354L26.4483 53C26.7721 52.6042 27.1834 52.2891 27.6497 52.0794C28.1161 51.8697 28.6248 51.7712 29.1357 51.7917H43.417C44.3962 51.5208 50.0524 46.9271 50.9691 45.8854C51.8162 44.7714 52.5987 43.6098 53.3128 42.4062L54.1357 41.0937C52.8024 40.5208 50.6982 40.2917 48.8232 42.9479C48.7365 43.0829 48.6139 43.1911 48.4691 43.2604L45.5003 44.8958L44.4587 43.0625L47.2503 41.5521C47.7087 40.8353 48.3085 40.2197 49.0131 39.7429C49.7177 39.2662 50.5122 38.9383 51.348 38.7793C52.1837 38.6203 53.0432 38.6337 53.8736 38.8185C54.704 39.0033 55.488 39.3557 56.1774 39.8542C56.4058 40.0069 56.5645 40.2436 56.6191 40.5129C56.6738 40.7821 56.6198 41.062 56.4691 41.2917C56.0003 42.0104 55.5212 42.7812 55.0524 43.5208C54.2826 44.8215 53.4337 46.0739 52.5107 47.2708C52.042 47.7917 45.2191 53.875 43.3962 53.875H29.1045C28.881 53.8541 28.656 53.8934 28.4527 53.9886C28.2494 54.0838 28.0753 54.2316 27.9482 54.4167L27.792 54.6042Z" fill="#404040"/>
<path d="M41.8342 47.625H33.0008C32.7246 47.625 32.4596 47.5153 32.2643 47.3199C32.0689 47.1246 31.9592 46.8596 31.9592 46.5833C31.9592 46.3071 32.0689 46.0421 32.2643 45.8468C32.4596 45.6514 32.7246 45.5417 33.0008 45.5417H41.855C43.2925 45.5417 43.9383 44.75 43.9383 43.9792C43.9383 43.2083 43.2925 42.4167 41.855 42.4167H36.1258C35.318 42.3065 34.5663 41.9416 33.98 41.375C33.4882 40.9036 32.8975 40.5477 32.2508 40.3333H27.0425C25.733 40.5588 24.5272 41.189 23.5946 42.1354C22.0633 43.6667 19.4279 46.1979 19.355 46.2188C19.1598 46.4128 18.8958 46.5217 18.6206 46.5217C18.3454 46.5217 18.0814 46.4128 17.8863 46.2188C17.7886 46.1219 17.7111 46.0067 17.6582 45.8798C17.6053 45.7528 17.5781 45.6167 17.5781 45.4792C17.5781 45.3417 17.6053 45.2055 17.6582 45.0786C17.7111 44.9516 17.7886 44.8364 17.8863 44.7396C17.8863 44.7396 20.5737 42.1979 22.105 40.6667C23.4208 39.3416 25.1464 38.5009 27.0008 38.2812H32.2092C33.3381 38.424 34.3906 38.9283 35.2092 39.7188C35.5085 39.9704 35.8332 40.1903 36.1779 40.375H41.8133C44.5529 40.375 45.98 42.2083 45.98 44.0208C45.98 45.8333 44.5737 47.625 41.8342 47.625Z" fill="#404040"/>
<path d="M26.7505 57C26.5436 57.0012 26.341 56.9408 26.1686 56.8264C25.9962 56.712 25.8617 56.5489 25.7824 56.3578C25.7031 56.1667 25.6824 55.9563 25.7231 55.7535C25.7638 55.5506 25.864 55.3644 26.0109 55.2187L26.3338 54.9062L16.5942 44.8958L12.1672 49.3958C11.972 49.5898 11.708 49.6987 11.4328 49.6987C11.1576 49.6987 10.8936 49.5898 10.6984 49.3958C10.5044 49.2007 10.3955 48.9366 10.3955 48.6615C10.3955 48.3863 10.5044 48.1222 10.6984 47.9271L15.9067 42.7187C16.1008 42.5263 16.3626 42.4178 16.6359 42.4167V42.4167C16.7737 42.4172 16.9101 42.4452 17.037 42.4988C17.164 42.5524 17.279 42.6307 17.3755 42.7292L28.5422 54.1875C28.733 54.3822 28.8399 54.644 28.8399 54.9167C28.8399 55.1893 28.733 55.4511 28.5422 55.6458L27.5005 56.6875C27.4028 56.7872 27.2861 56.8662 27.1572 56.9199C27.0284 56.9736 26.8901 57.0008 26.7505 57V57Z" fill="#404040"/>
<path d="M16.2935 47.9294L14.8203 49.4026L16.9048 51.4871L18.3779 50.0139L16.2935 47.9294Z" fill="#404040"/>
<path d="M12.1352 23.9659L10.6621 25.439L12.7466 27.5235L14.2197 26.0504L12.1352 23.9659Z" fill="#404040"/>
<path d="M24.4068 25.6354C23.7863 25.6374 23.1688 25.5497 22.5734 25.375C22.3101 25.2954 22.089 25.115 21.9582 24.873C21.8275 24.631 21.7977 24.3471 21.8755 24.0833C21.9529 23.8181 22.1324 23.5945 22.3746 23.4616C22.6169 23.3288 22.902 23.2976 23.1672 23.375C23.938 23.6041 26.6567 24.1042 29.0213 20.9583L29.3338 20.5416H33.0005C33.4336 20.5192 33.8534 20.3845 34.2186 20.1507C34.5839 19.9169 34.882 19.5922 35.0838 19.2083C35.2564 18.9672 35.3722 18.6902 35.4228 18.3979C35.4733 18.1057 35.4571 17.8059 35.3755 17.5208C35.3755 17.5208 35.3026 17.4062 35.063 17.4166C31.938 17.4166 24.7088 17.4166 24.6463 17.4166C24.3701 17.4166 24.1051 17.3069 23.9098 17.1116C23.7144 16.9162 23.6047 16.6513 23.6047 16.375C23.6047 16.0987 23.7144 15.8338 23.9098 15.6384C24.1051 15.4431 24.3701 15.3333 24.6463 15.3333C24.7192 15.3333 31.938 15.3333 35.063 15.3333C35.4801 15.319 35.8933 15.4168 36.2598 15.6165C36.6262 15.8162 36.9323 16.1105 37.1463 16.4687C37.4279 17.0679 37.5509 17.7293 37.5035 18.3895C37.4561 19.0498 37.2398 19.6869 36.8755 20.2396C36.4921 20.9504 35.9262 21.5462 35.2359 21.9655C34.5456 22.3848 33.756 22.6125 32.9484 22.625H30.3338C29.6336 23.5378 28.7377 24.282 27.712 24.803C26.6863 25.3239 25.5569 25.6084 24.4068 25.6354V25.6354Z" fill="#404040"/>
<path d="M13.2087 21.5833C13.004 21.5825 12.804 21.5213 12.6338 21.4074C12.4636 21.2936 12.3308 21.1321 12.2518 20.9431C12.1729 20.7542 12.1515 20.5461 12.1901 20.3451C12.2288 20.144 12.3258 19.9587 12.4692 19.8125L21.0733 11.1771C21.8209 10.4516 22.7126 9.89127 23.6906 9.53238C24.6686 9.17349 25.711 9.02406 26.7504 9.09375H30.9171C31.1933 9.09375 31.4583 9.2035 31.6536 9.39885C31.849 9.5942 31.9587 9.85915 31.9587 10.1354C31.9587 10.4117 31.849 10.6766 31.6536 10.872C31.4583 11.0673 31.1933 11.1771 30.9171 11.1771H26.7504C25.9899 11.1148 25.2249 11.2154 24.5063 11.4723C23.7878 11.7291 23.1324 12.1363 22.5837 12.6667L13.99 21.2917C13.8869 21.3915 13.7643 21.4689 13.6298 21.5191C13.4954 21.5693 13.352 21.5911 13.2087 21.5833Z" fill="#404040"/>
<path d="M40.2922 38.25C39.2335 38.2924 38.2011 37.9142 37.4204 37.1979C36.6397 36.4816 36.1742 35.4855 36.1255 34.4271C36.1255 31.8437 39.188 28.5313 39.5317 28.1771C39.6292 28.073 39.7469 27.99 39.8777 27.9333C40.0085 27.8766 40.1496 27.8474 40.2922 27.8474C40.4347 27.8474 40.5758 27.8766 40.7066 27.9333C40.8374 27.99 40.9551 28.073 41.0526 28.1771C41.3963 28.5521 44.4588 31.8646 44.4588 34.4271C44.4101 35.4855 43.9446 36.4816 43.1639 37.1979C42.3832 37.9142 41.3508 38.2924 40.2922 38.25V38.25ZM40.2922 30.4583C39.2505 31.6979 38.2088 33.3854 38.2088 34.4271C38.2088 34.9796 38.4283 35.5095 38.819 35.9002C39.2097 36.2909 39.7396 36.5104 40.2922 36.5104C40.8447 36.5104 41.3746 36.2909 41.7653 35.9002C42.156 35.5095 42.3755 34.9796 42.3755 34.4271C42.3755 33.4375 41.2713 31.6979 40.2922 30.4583V30.4583Z" fill="#FA4616"/>
<path d="M21.5422 38.25C21.3353 38.2512 21.1328 38.1908 20.9604 38.0764C20.7879 37.962 20.6535 37.7989 20.5742 37.6078C20.4948 37.4167 20.4742 37.2063 20.5149 37.0035C20.5556 36.8006 20.6557 36.6145 20.8027 36.4688L24.2402 33.0417L12.1672 20.9375L9.78183 23.3229C9.58707 23.5191 9.32235 23.6298 9.04593 23.6308C8.76951 23.6318 8.50402 23.5229 8.30787 23.3281C8.11172 23.1334 8.00098 22.8687 8.00001 22.5922C7.99903 22.3158 8.10789 22.0503 8.30265 21.8542L11.4277 18.7292C11.5245 18.6315 11.6397 18.554 11.7666 18.5012C11.8936 18.4483 12.0297 18.4211 12.1672 18.4211C12.3048 18.4211 12.4409 18.4483 12.5679 18.5012C12.6948 18.554 12.81 18.6315 12.9068 18.7292L26.4485 32.2708C26.6425 32.466 26.7514 32.73 26.7514 33.0052C26.7514 33.2804 26.6425 33.5444 26.4485 33.7396L22.2818 37.9062C22.188 38.0103 22.0742 38.0945 21.9471 38.1535C21.82 38.2126 21.6823 38.2454 21.5422 38.25V38.25Z" fill="#404040"/>
<path d="M24.1151 32.5313C23.978 32.5321 23.8421 32.5058 23.7152 32.4539C23.5883 32.4021 23.4728 32.3257 23.3755 32.2292C23.2779 32.1323 23.2004 32.0171 23.1475 31.8902C23.0946 31.7633 23.0674 31.6271 23.0674 31.4896C23.0674 31.3521 23.0946 31.2159 23.1475 31.089C23.2004 30.9621 23.2779 30.8468 23.3755 30.75L25.2818 28.8438H25.7505C25.7505 28.8438 29.2713 29.0208 30.9588 27.3542L32.5943 25.6979C32.7959 25.5297 33.0536 25.4438 33.3159 25.4575C33.5781 25.4712 33.8255 25.5834 34.0085 25.7717C34.1915 25.96 34.2967 26.2105 34.303 26.473C34.3092 26.7355 34.216 26.9907 34.0422 27.1875L32.3963 28.8438C30.5005 30.7396 27.313 30.9271 26.1463 30.9271L24.8859 32.1875C24.7885 32.2954 24.6696 32.3818 24.5369 32.441C24.4041 32.5002 24.2604 32.5309 24.1151 32.5313Z" fill="#404040"/>
<path d="M41.3128 11.1667H39.2295V17.4167H41.3128V11.1667Z" fill="#FA4616"/>
<path d="M43.3965 13.25H37.1465V15.3333H43.3965V13.25Z" fill="#FA4616"/>
<path d="M42.3755 26.7917H38.2088C38.0084 26.7912 37.8124 26.733 37.6443 26.624C37.4762 26.515 37.3431 26.3598 37.2609 26.1771L36.4901 24.4583H36.1255C35.8492 24.4583 35.5843 24.3486 35.3889 24.1532C35.1936 23.9579 35.0838 23.6929 35.0838 23.4167C35.0838 23.1404 35.1936 22.8755 35.3889 22.6801C35.5843 22.4848 35.8492 22.375 36.1255 22.375H37.1672C37.3675 22.3754 37.5635 22.4336 37.7317 22.5426C37.8998 22.6516 38.0329 22.8068 38.1151 22.9896L38.8859 24.7083H41.6984L42.4692 22.9896C42.5514 22.8068 42.6845 22.6516 42.8526 22.5426C43.0208 22.4336 43.2168 22.3754 43.4172 22.375H44.4588C44.7351 22.375 45 22.2653 45.1954 22.0699C45.3907 21.8746 45.5005 21.6096 45.5005 21.3333V10.125C45.5005 9.84873 45.3907 9.58378 45.1954 9.38843C45 9.19308 44.7351 9.08333 44.4588 9.08333H36.1255C35.8492 9.08333 35.5843 9.19308 35.3889 9.38843C35.1936 9.58378 35.0838 9.84873 35.0838 10.125V13.5729C35.0838 13.8492 34.9741 14.1141 34.7787 14.3095C34.5834 14.5048 34.3184 14.6146 34.0422 14.6146C33.7659 14.6146 33.5009 14.5048 33.3056 14.3095C33.1102 14.1141 33.0005 13.8492 33.0005 13.5729V10.125C33.0005 9.2962 33.3297 8.50134 33.9158 7.91529C34.5018 7.32924 35.2967 7 36.1255 7H44.4588C45.2876 7 46.0825 7.32924 46.6685 7.91529C47.2546 8.50134 47.5838 9.2962 47.5838 10.125V21.3333C47.5838 22.1621 47.2546 22.957 46.6685 23.5431C46.0825 24.1291 45.2876 24.4583 44.4588 24.4583H44.0942L43.3234 26.1771C43.2413 26.3598 43.1081 26.515 42.94 26.624C42.7719 26.733 42.5759 26.7912 42.3755 26.7917V26.7917Z" fill="#404040"/>
</svg>
