<svg width="64" height="64" viewBox="0 0 64 64" fill="none" xmlns="http://www.w3.org/2000/svg">
<path d="M29.1959 49.8261C29.0247 49.8325 28.8545 49.7983 28.699 49.7264C28.5436 49.6545 28.4073 49.5469 28.3013 49.4123C28.1954 49.2778 28.1227 49.12 28.0893 48.9521C28.0558 48.7841 28.0626 48.6106 28.1089 48.4457L29.7611 42.4674C29.8093 42.2849 29.9072 42.1194 30.0437 41.9891L48.4133 23.5109C48.9053 23.1042 49.5384 22.909 50.174 22.9681C50.8097 23.0271 51.396 23.3357 51.8046 23.8261L53.9785 26C54.223 26.1998 54.4256 26.446 54.5744 26.7244C54.7233 27.0029 54.8155 27.308 54.8459 27.6223C54.8762 27.9366 54.844 28.2537 54.7511 28.5555C54.6582 28.8573 54.5064 29.1376 54.3046 29.3804L35.9242 47.8587C35.7919 47.9927 35.6271 48.0901 35.4459 48.1413L29.4568 49.7718C29.3729 49.8025 29.285 49.8208 29.1959 49.8261V49.8261ZM31.8263 43.3044L30.7394 47.1631L34.5872 46.0761L52.6742 27.9674C52.6304 27.8181 52.5479 27.6831 52.435 27.5761L50.2611 25.4022C50.1559 25.2924 50.0252 25.2102 49.8807 25.163L31.8263 43.3044Z" fill="#404040"/>
<path d="M46.6407 26.8954L45.1035 28.4326L49.4538 32.7828L50.991 31.2456L46.6407 26.8954Z" fill="#404040"/>
<path d="M43.6956 57H12.1739C11.5974 57 11.0444 56.771 10.6367 56.3633C10.229 55.9556 10 55.4026 10 54.8261V9.17391C10 8.59736 10.229 8.04441 10.6367 7.63672C11.0444 7.22903 11.5974 7 12.1739 7H43.6956C44.2722 7 44.8251 7.22903 45.2328 7.63672C45.6405 8.04441 45.8696 8.59736 45.8696 9.17391V23.3043C45.8696 23.5926 45.755 23.8691 45.5512 24.073C45.3474 24.2768 45.0709 24.3913 44.7826 24.3913C44.4943 24.3913 44.2179 24.2768 44.014 24.073C43.8102 23.8691 43.6956 23.5926 43.6956 23.3043V9.17391H12.1739V54.8261H43.6956V42.8696C43.6956 42.5813 43.8102 42.3048 44.014 42.101C44.2179 41.8971 44.4943 41.7826 44.7826 41.7826C45.0709 41.7826 45.3474 41.8971 45.5512 42.101C45.755 42.3048 45.8696 42.5813 45.8696 42.8696V54.8261C45.8696 55.4026 45.6405 55.9556 45.2328 56.3633C44.8251 56.771 44.2722 57 43.6956 57Z" fill="#404040"/>
<path d="M30.8043 34.1739C30.6613 34.1747 30.5195 34.1473 30.387 34.0932C30.2546 34.0391 30.1341 33.9594 30.0326 33.8587L18.163 21.9782C17.9569 21.775 17.84 21.4982 17.8379 21.2088C17.8359 20.9193 17.9489 20.6409 18.1521 20.4348C18.3554 20.2287 18.6322 20.1117 18.9216 20.1097C19.2111 20.1076 19.4895 20.2207 19.6956 20.4239L31.5761 32.3804C31.7785 32.5841 31.8921 32.8596 31.8921 33.1467C31.8921 33.4339 31.7785 33.7094 31.5761 33.913C31.3624 34.0968 31.0857 34.1903 30.8043 34.1739V34.1739Z" fill="#FA4616"/>
<path d="M21.5869 34.1739C21.3732 34.173 21.1645 34.1092 20.9869 33.9904C20.8093 33.8716 20.6707 33.703 20.5884 33.5059C20.506 33.3087 20.4836 33.0916 20.5239 32.8818C20.5643 32.672 20.6655 32.4787 20.8151 32.3261L30.0542 23.087C30.1553 22.9851 30.2755 22.9042 30.408 22.849C30.5404 22.7939 30.6825 22.7654 30.826 22.7654C30.9695 22.7654 31.1115 22.7939 31.244 22.849C31.3765 22.9042 31.4967 22.9851 31.5977 23.087C31.8002 23.2906 31.9138 23.5661 31.9138 23.8533C31.9138 24.1404 31.8002 24.4159 31.5977 24.6196L22.3586 33.8587C22.257 33.9594 22.1366 34.0391 22.0041 34.0932C21.8717 34.1473 21.7299 34.1747 21.5869 34.1739Z" fill="#FA4616"/>
<path d="M17.6089 27.5761C17.3207 27.5761 17.0442 27.4616 16.8403 27.2577C16.6365 27.0539 16.522 26.7774 16.522 26.4891V14.6087C16.522 14.3204 16.6365 14.044 16.8403 13.8401C17.0442 13.6363 17.3207 13.5217 17.6089 13.5217C17.8972 13.5217 18.1737 13.6363 18.3775 13.8401C18.5814 14.044 18.6959 14.3204 18.6959 14.6087V26.4891C18.6959 26.7774 18.5814 27.0539 18.3775 27.2577C18.1737 27.4616 17.8972 27.5761 17.6089 27.5761Z" fill="#FA4616"/>
<path d="M21.5872 22.3044H17.6089C17.3207 22.3044 17.0442 22.1898 16.8403 21.986C16.6365 21.7821 16.522 21.5057 16.522 21.2174C16.522 20.9291 16.6365 20.6526 16.8403 20.4488C17.0442 20.245 17.3207 20.1305 17.6089 20.1305H21.5872C22.435 20.1305 23.1415 19.1087 23.1415 17.9565C23.1415 16.8044 22.435 15.7826 21.5872 15.7826H17.6089C17.3207 15.7826 17.0442 15.6681 16.8403 15.4643C16.6365 15.2604 16.522 14.984 16.522 14.6957C16.522 14.4074 16.6365 14.1309 16.8403 13.9271C17.0442 13.7232 17.3207 13.6087 17.6089 13.6087H21.5872C23.6415 13.6087 25.3155 15.587 25.3155 17.9565C25.3155 20.3261 23.6198 22.3044 21.5872 22.3044Z" fill="#FA4616"/>
</svg>
