<svg width="64" height="64" viewBox="0 0 64 64" fill="none" xmlns="http://www.w3.org/2000/svg">
<path d="M38.2498 33.5521C37.6718 33.5268 37.1046 33.3869 36.5812 33.1405C36.0578 32.8941 35.5885 32.5461 35.2008 32.1167C34.8131 31.6873 34.5146 31.1851 34.3227 30.6393C34.1309 30.0935 34.0494 29.5151 34.0831 28.9375V27.75C34.0831 26.6449 34.5221 25.5851 35.3035 24.8037C36.0849 24.0223 37.1447 23.5833 38.2498 23.5833C39.3548 23.5833 40.4146 24.0223 41.196 24.8037C41.9774 25.5851 42.4164 26.6449 42.4164 27.75V28.9375C42.4501 29.5151 42.3687 30.0935 42.1768 30.6393C41.9849 31.1851 41.6864 31.6873 41.2987 32.1167C40.911 32.5461 40.4418 32.8941 39.9183 33.1405C39.3949 33.3869 38.8277 33.5268 38.2498 33.5521V33.5521ZM38.2498 25.2188C37.9465 25.2475 37.6519 25.3358 37.3828 25.4787C37.1138 25.6216 36.8756 25.8162 36.682 26.0514C36.4885 26.2866 36.3433 26.5578 36.2548 26.8493C36.1663 27.1408 36.1363 27.4469 36.1664 27.75V28.9375C36.1664 29.49 36.3859 30.0199 36.7766 30.4107C37.1673 30.8014 37.6972 31.0208 38.2498 31.0208C38.8023 31.0208 39.3322 30.8014 39.7229 30.4107C40.1136 30.0199 40.3331 29.49 40.3331 28.9375V27.75C40.3633 27.4469 40.3332 27.1408 40.2447 26.8493C40.1563 26.5578 40.0111 26.2866 39.8175 26.0514C39.6239 25.8162 39.3857 25.6216 39.1167 25.4787C38.8477 25.3358 38.553 25.2475 38.2498 25.2188Z" fill="#404040"/>
<path d="M43.4583 37.7187C43.1821 37.7187 42.9171 37.609 42.7218 37.4137C42.5264 37.2183 42.4167 36.9534 42.4167 36.6771V35.6354C42.4167 34.5104 39.8646 33.5521 38.25 33.5521C36.6354 33.5521 34.0833 34.5104 34.0833 35.6354V36.6771C34.0833 36.9534 33.9736 37.2183 33.7782 37.4137C33.5829 37.609 33.3179 37.7187 33.0417 37.7187C32.7654 37.7187 32.5004 37.609 32.3051 37.4137C32.1097 37.2183 32 36.9534 32 36.6771V35.6354C32 32.7292 36.1667 31.4688 38.25 31.4688C40.3333 31.4688 44.5 32.7292 44.5 35.6354V36.6771C44.5 36.9534 44.3903 37.2183 44.1949 37.4137C43.9996 37.609 43.7346 37.7187 43.4583 37.7187Z" fill="#404040"/>
<path d="M55.9583 32.5104C55.6821 32.5104 55.4171 32.4007 55.2218 32.2053C55.0264 32.01 54.9167 31.745 54.9167 31.4688V30.4271C54.9167 29.3021 52.3646 28.3438 50.75 28.3438C49.1354 28.3438 46.5833 29.3021 46.5833 30.4271V31.4688C46.5833 31.745 46.4736 32.01 46.2782 32.2053C46.0829 32.4007 45.8179 32.5104 45.5417 32.5104C45.2654 32.5104 45.0004 32.4007 44.8051 32.2053C44.6097 32.01 44.5 31.745 44.5 31.4688V30.4271C44.5 27.5209 48.6667 26.2604 50.75 26.2604C52.8333 26.2604 57 27.5209 57 30.4271V31.4688C57 31.745 56.8903 32.01 56.6949 32.2053C56.4996 32.4007 56.2346 32.5104 55.9583 32.5104Z" fill="#404040"/>
<path d="M35.1247 23.1354C34.8484 23.1354 34.5835 23.0257 34.3881 22.8303C34.1928 22.635 34.083 22.37 34.083 22.0937V21.0521C34.083 18.1458 38.2497 16.8854 40.333 16.8854C42.1827 16.9007 43.9747 17.5311 45.4268 18.6771C45.6162 18.8649 45.7264 19.1183 45.7345 19.385C45.7426 19.6517 45.6481 19.9114 45.4704 20.1104C45.2927 20.3095 45.0455 20.4327 44.7796 20.4548C44.5137 20.4769 44.2494 20.3961 44.0413 20.2292C42.9678 19.4309 41.6706 18.99 40.333 18.9687C38.7288 18.9687 36.1663 19.9271 36.1663 21.0521V22.0937C36.1663 22.37 36.0566 22.635 35.8612 22.8303C35.6659 23.0257 35.4009 23.1354 35.1247 23.1354Z" fill="#404040"/>
<path d="M50.7498 28.3438C50.1718 28.3185 49.6046 28.1786 49.0812 27.9322C48.5578 27.6857 48.0885 27.3377 47.7008 26.9083C47.3131 26.4789 47.0146 25.9768 46.8227 25.431C46.6309 24.8852 46.5494 24.3067 46.5831 23.7292V22.5417C46.5831 21.4366 47.0221 20.3768 47.8035 19.5954C48.5849 18.814 49.6447 18.375 50.7498 18.375C51.8548 18.375 52.9146 18.814 53.696 19.5954C54.4774 20.3768 54.9164 21.4366 54.9164 22.5417V23.7292C54.9515 24.307 54.8711 24.8861 54.6797 25.4325C54.4884 25.9789 54.19 26.4816 53.802 26.9113C53.414 27.341 52.9442 27.689 52.4201 27.935C51.8961 28.1809 51.3282 28.3199 50.7498 28.3438ZM50.7498 20.0104C50.4465 20.0391 50.1519 20.1274 49.8828 20.2703C49.6138 20.4132 49.3756 20.6079 49.182 20.8431C48.9885 21.0783 48.8433 21.3494 48.7548 21.6409C48.6663 21.9324 48.6363 22.2385 48.6664 22.5417V23.7292C48.6664 24.2817 48.8859 24.8116 49.2766 25.2023C49.6673 25.593 50.1972 25.8125 50.7498 25.8125C51.3023 25.8125 51.8322 25.593 52.2229 25.2023C52.6136 24.8116 52.8331 24.2817 52.8331 23.7292V22.5417C52.8633 22.2385 52.8332 21.9324 52.7447 21.6409C52.6563 21.3494 52.5111 21.0783 52.3175 20.8431C52.1239 20.6079 51.8857 20.4132 51.6167 20.2703C51.3477 20.1274 51.053 20.0391 50.7498 20.0104V20.0104Z" fill="#404040"/>
<path d="M40.3332 18.9688C39.7557 18.9448 39.1888 18.8062 38.6654 18.5609C38.142 18.3156 37.6728 17.9685 37.2849 17.54C36.8971 17.1114 36.5985 16.6099 36.4064 16.0647C36.2144 15.5196 36.1329 14.9416 36.1666 14.3646V13.1667C36.1666 12.0616 36.6056 11.0018 37.387 10.2204C38.1684 9.43899 39.2282 9 40.3332 9C41.4383 9 42.4981 9.43899 43.2795 10.2204C44.0609 11.0018 44.4999 12.0616 44.4999 13.1667V14.3646C44.5336 14.9416 44.4521 15.5196 44.26 16.0647C44.068 16.6099 43.7694 17.1114 43.3816 17.54C42.9937 17.9685 42.5244 18.3156 42.0011 18.5609C41.4777 18.8062 40.9108 18.9448 40.3332 18.9688V18.9688ZM40.3332 10.6354C40.03 10.6641 39.7353 10.7524 39.4663 10.8953C39.1973 11.0382 38.9591 11.2329 38.7655 11.4681C38.5719 11.7033 38.4267 11.9744 38.3383 12.2659C38.2498 12.5574 38.2197 12.8635 38.2499 13.1667V14.3646C38.2499 14.9171 38.4694 15.447 38.8601 15.8377C39.2508 16.2284 39.7807 16.4479 40.3332 16.4479C40.8858 16.4479 41.4157 16.2284 41.8064 15.8377C42.1971 15.447 42.4166 14.9171 42.4166 14.3646V13.1667C42.4467 12.8635 42.4167 12.5574 42.3282 12.2659C42.2398 11.9744 42.0945 11.7033 41.901 11.4681C41.7074 11.2329 41.4692 11.0382 41.2002 10.8953C40.9311 10.7524 40.6365 10.6641 40.3332 10.6354V10.6354Z" fill="#404040"/>
<path d="M29.917 54.3854H27.8337C27.5574 54.3854 27.2924 54.2757 27.0971 54.0803C26.9017 53.885 26.792 53.62 26.792 53.3438C26.792 53.0675 26.9017 52.8025 27.0971 52.6072C27.2924 52.4118 27.5574 52.3021 27.8337 52.3021H29.917C30.1933 52.3021 30.4582 52.4118 30.6536 52.6072C30.8489 52.8025 30.9587 53.0675 30.9587 53.3438C30.9587 53.62 30.8489 53.885 30.6536 54.0803C30.4582 54.2757 30.1933 54.3854 29.917 54.3854Z" fill="#FA4616"/>
<path d="M36.1665 49.1771H34.0832C33.8069 49.1771 33.542 49.0673 33.3466 48.872C33.1512 48.6766 33.0415 48.4117 33.0415 48.1354C33.0415 47.8591 33.1512 47.5942 33.3466 47.3988C33.542 47.2035 33.8069 47.0938 34.0832 47.0938H36.1665C36.4428 47.0938 36.7077 47.2035 36.9031 47.3988C37.0984 47.5942 37.2082 47.8591 37.2082 48.1354C37.2082 48.4117 37.0984 48.6766 36.9031 48.872C36.7077 49.0673 36.4428 49.1771 36.1665 49.1771Z" fill="#FA4616"/>
<path d="M42.4165 43.9688H40.3332C40.0569 43.9688 39.792 43.859 39.5966 43.6637C39.4012 43.4683 39.2915 43.2034 39.2915 42.9271C39.2915 42.6508 39.4012 42.3859 39.5966 42.1905C39.792 41.9952 40.0569 41.8854 40.3332 41.8854H42.4165C42.6928 41.8854 42.9577 41.9952 43.1531 42.1905C43.3484 42.3859 43.4582 42.6508 43.4582 42.9271C43.4582 43.2034 43.3484 43.4683 43.1531 43.6637C42.9577 43.859 42.6928 43.9688 42.4165 43.9688Z" fill="#FA4616"/>
<path d="M22.625 40.8438C22.3487 40.8438 22.0838 40.734 21.8884 40.5387C21.6931 40.3433 21.5833 40.0784 21.5833 39.8021C21.5833 39.5258 21.6931 39.2609 21.8884 39.0655C22.0838 38.8702 22.3487 38.7604 22.625 38.7604C23.4369 38.7089 24.2021 38.3631 24.7774 37.7878C25.3526 37.2126 25.6984 36.4473 25.75 35.6354V28.3438C25.75 25.8438 20.7396 24.1771 17.4167 24.1771C17.1404 24.1771 16.8754 24.0674 16.6801 23.872C16.4847 23.6767 16.375 23.4117 16.375 23.1354C16.375 22.8592 16.4847 22.5942 16.6801 22.3989C16.8754 22.2035 17.1404 22.0938 17.4167 22.0938C21.7812 22.0938 27.8333 24.2709 27.8333 28.3438V35.6354C27.7842 37.0011 27.2197 38.2975 26.2534 39.2638C25.2871 40.2301 23.9907 40.7946 22.625 40.8438Z" fill="#404040"/>
<path d="M12.2083 40.8438C10.8435 40.7922 9.54845 40.2269 8.58265 39.2611C7.61685 38.2953 7.05156 37.0003 7 35.6354V28.3438C7 24.2709 13.0521 22.0938 17.4167 22.0938C17.6929 22.0938 17.9579 22.2035 18.1532 22.3989C18.3486 22.5942 18.4583 22.8592 18.4583 23.1354C18.4583 23.4117 18.3486 23.6767 18.1532 23.872C17.9579 24.0674 17.6929 24.1771 17.4167 24.1771C14.1042 24.1771 9.08333 25.8438 9.08333 28.3438V35.6354C9.13492 36.4473 9.48072 37.2126 10.056 37.7878C10.6312 38.3631 11.3964 38.7089 12.2083 38.7604C12.4846 38.7604 12.7496 38.8702 12.9449 39.0655C13.1403 39.2609 13.25 39.5258 13.25 39.8021C13.25 40.0784 13.1403 40.3433 12.9449 40.5387C12.7496 40.734 12.4846 40.8438 12.2083 40.8438Z" fill="#404040"/>
<path d="M22.6247 54.3854C22.3484 54.3854 22.0835 54.2757 21.8881 54.0803C21.6928 53.885 21.583 53.62 21.583 53.3438V29.3854C21.583 29.1091 21.6928 28.8442 21.8881 28.6488C22.0835 28.4535 22.3484 28.3438 22.6247 28.3438C22.9009 28.3438 23.1659 28.4535 23.3612 28.6488C23.5566 28.8442 23.6663 29.1091 23.6663 29.3854V53.3438C23.6663 53.62 23.5566 53.885 23.3612 54.0803C23.1659 54.2757 22.9009 54.3854 22.6247 54.3854Z" fill="#404040"/>
<path d="M12.2082 54.3854C11.9319 54.3854 11.667 54.2757 11.4716 54.0803C11.2762 53.885 11.1665 53.62 11.1665 53.3438V29.3854C11.1665 29.1091 11.2762 28.8442 11.4716 28.6488C11.667 28.4535 11.9319 28.3438 12.2082 28.3438C12.4844 28.3438 12.7494 28.4535 12.9447 28.6488C13.1401 28.8442 13.2498 29.1091 13.2498 29.3854V53.3438C13.2498 53.62 13.1401 53.885 12.9447 54.0803C12.7494 54.2757 12.4844 54.3854 12.2082 54.3854Z" fill="#404040"/>
<path d="M17.4167 54.3854C17.1404 54.3854 16.8754 54.2757 16.6801 54.0803C16.4847 53.885 16.375 53.62 16.375 53.3437V38.7604C16.375 38.4841 16.4847 38.2192 16.6801 38.0238C16.8754 37.8285 17.1404 37.7188 17.4167 37.7188C17.6929 37.7188 17.9579 37.8285 18.1532 38.0238C18.3486 38.2192 18.4583 38.4841 18.4583 38.7604V53.3437C18.4583 53.62 18.3486 53.885 18.1532 54.0803C17.9579 54.2757 17.6929 54.3854 17.4167 54.3854Z" fill="#404040"/>
<path d="M17.4166 24.1771C16.726 24.2019 16.0377 24.0841 15.3946 23.8311C14.7515 23.5781 14.1674 23.1954 13.6787 22.7067C13.19 22.218 12.8073 21.6339 12.5543 20.9908C12.3013 20.3477 12.1835 19.6594 12.2083 18.9688V16.8854C12.2083 15.5041 12.757 14.1793 13.7338 13.2026C14.7105 12.2258 16.0353 11.6771 17.4166 11.6771C18.798 11.6771 20.1227 12.2258 21.0995 13.2026C22.0762 14.1793 22.625 15.5041 22.625 16.8854V18.9688C22.6497 19.6594 22.532 20.3477 22.279 20.9908C22.026 21.6339 21.6433 22.218 21.1546 22.7067C20.6659 23.1954 20.0818 23.5781 19.4387 23.8311C18.7956 24.0841 18.1073 24.2019 17.4166 24.1771V24.1771ZM17.4166 13.7604C16.9999 13.7362 16.5828 13.8004 16.1927 13.9489C15.8026 14.0974 15.4483 14.3268 15.1531 14.6219C14.858 14.9171 14.6286 15.2714 14.4801 15.6615C14.3317 16.0516 14.2674 16.4687 14.2916 16.8854V18.9688C14.2916 19.7976 14.6209 20.5924 15.2069 21.1785C15.793 21.7645 16.5878 22.0938 17.4166 22.0938C18.2454 22.0938 19.0403 21.7645 19.6264 21.1785C20.2124 20.5924 20.5416 19.7976 20.5416 18.9688V16.8854C20.5659 16.4687 20.5016 16.0516 20.3531 15.6615C20.2047 15.2714 19.9753 14.9171 19.6802 14.6219C19.385 14.3268 19.0307 14.0974 18.6406 13.9489C18.2505 13.8004 17.8334 13.7362 17.4166 13.7604V13.7604Z" fill="#404040"/>
<path d="M50.7498 28.3438C50.1718 28.3185 49.6046 28.1786 49.0812 27.9322C48.5578 27.6857 48.0885 27.3377 47.7008 26.9083C47.3131 26.4789 47.0146 25.9768 46.8227 25.431C46.6309 24.8852 46.5494 24.3067 46.5831 23.7292V22.5417C46.5831 21.4366 47.0221 20.3768 47.8035 19.5954C48.5849 18.814 49.6447 18.375 50.7498 18.375C51.8548 18.375 52.9146 18.814 53.696 19.5954C54.4774 20.3768 54.9164 21.4366 54.9164 22.5417V23.7292C54.9501 24.3067 54.8687 24.8852 54.6768 25.431C54.4849 25.9768 54.1864 26.4789 53.7987 26.9083C53.411 27.3377 52.9418 27.6857 52.4183 27.9322C51.8949 28.1786 51.3277 28.3185 50.7498 28.3438V28.3438ZM50.7498 20.0104C50.4465 20.0391 50.1519 20.1274 49.8828 20.2703C49.6138 20.4132 49.3756 20.6079 49.182 20.8431C48.9885 21.0783 48.8433 21.3494 48.7548 21.6409C48.6663 21.9324 48.6363 22.2385 48.6664 22.5417V23.7292C48.6664 24.2817 48.8859 24.8116 49.2766 25.2023C49.6673 25.593 50.1972 25.8125 50.7498 25.8125C51.3023 25.8125 51.8322 25.593 52.2229 25.2023C52.6136 24.8116 52.8331 24.2817 52.8331 23.7292V22.5417C52.8633 22.2385 52.8332 21.9324 52.7447 21.6409C52.6563 21.3494 52.5111 21.0783 52.3175 20.8431C52.1239 20.6079 51.8857 20.4132 51.6167 20.2703C51.3477 20.1274 51.053 20.0391 50.7498 20.0104V20.0104Z" fill="#404040"/>
</svg>
