<svg width="64" height="64" viewBox="0 0 64 64" fill="none" xmlns="http://www.w3.org/2000/svg">
<path d="M47.7456 43.5833C47.5315 43.5832 47.3227 43.5172 47.1475 43.3942C46.9723 43.2712 46.8392 43.0971 46.7664 42.8958C46.5169 42.2181 46.0992 41.615 45.5526 41.1431C45.0059 40.6711 44.3483 40.3459 43.6414 40.1979C43.3652 40.1358 43.1249 39.9664 42.9735 39.7271C42.8221 39.4878 42.772 39.1981 42.8342 38.9219C42.8963 38.6456 43.0657 38.4053 43.305 38.2539C43.5443 38.1025 43.8339 38.0524 44.1102 38.1146C45.1649 38.3417 46.1438 38.8353 46.9535 39.5483C47.7632 40.2613 48.3766 41.1699 48.7352 42.1875C48.829 42.4472 48.8159 42.7335 48.6987 42.9835C48.5815 43.2335 48.3698 43.4268 48.1102 43.5208C47.9934 43.5632 47.8699 43.5844 47.7456 43.5833Z" fill="#FA4616"/>
<path d="M43.3081 50.6875C43.0318 50.7027 42.7608 50.6075 42.5547 50.4229C42.3486 50.2383 42.2243 49.9794 42.2091 49.7031C42.1939 49.4269 42.2891 49.1559 42.4737 48.9498C42.6583 48.7437 42.9172 48.6194 43.1935 48.6042C43.5489 48.5713 43.8988 48.4943 44.2351 48.375C44.9797 48.0914 45.632 47.6086 46.1206 46.9792C46.2976 46.7849 46.5416 46.6648 46.8035 46.6429C47.0654 46.6209 47.3259 46.6988 47.5328 46.8609C47.7397 47.023 47.8777 47.2573 47.9191 47.5169C47.9605 47.7764 47.9022 48.042 47.756 48.2604C47.0235 49.2092 46.0377 49.9314 44.9122 50.3437C44.4286 50.5206 43.9246 50.6361 43.4122 50.6875H43.3081Z" fill="#FA4616"/>
<path d="M45.7773 41.0417C45.6838 41.0517 45.5895 41.0517 45.496 41.0417C45.3566 41.0052 45.2263 40.9402 45.1133 40.8508C45.0003 40.7614 44.9071 40.6495 44.8395 40.5223C44.772 40.395 44.7316 40.2551 44.7209 40.1114C44.7102 39.9677 44.7293 39.8234 44.7773 39.6875C44.983 38.9992 44.935 38.26 44.6419 37.6042C43.7877 35.5937 41.1002 34.5729 38.6627 35.3229C38.1216 35.4906 37.614 35.7514 37.1627 36.0937C36.9814 36.2315 36.7601 36.306 36.5325 36.306C36.3049 36.306 36.0835 36.2315 35.9023 36.0937C35.336 35.686 34.6822 35.4162 33.9932 35.3059C33.3041 35.1956 32.5988 35.2478 31.9335 35.4583C31.6725 35.5302 31.3938 35.4977 31.1564 35.3676C30.919 35.2375 30.7415 35.0201 30.6616 34.7615C30.5817 34.5028 30.6057 34.2233 30.7284 33.9819C30.8511 33.7406 31.0629 33.5566 31.3189 33.4687C32.1788 33.2034 33.0834 33.1146 33.9784 33.2077C34.8734 33.3008 35.7404 33.5738 36.5273 34.0104C37.0105 33.725 37.5241 33.4944 38.0585 33.3229C41.4856 32.2812 45.3502 33.8125 46.5689 36.7708C47.0455 37.8622 47.123 39.0864 46.7877 40.2292C46.7359 40.4589 46.6078 40.6642 46.4243 40.8118C46.2408 40.9593 46.0127 41.0404 45.7773 41.0417V41.0417Z" fill="#FA4616"/>
<path d="M41.2454 56.9584C39.9346 56.954 38.6654 56.4978 37.6517 55.6667C37.5464 55.5791 37.4593 55.4717 37.3955 55.3505C37.3317 55.2293 37.2924 55.0967 37.2798 54.9604C37.2672 54.824 37.2816 54.6864 37.3222 54.5556C37.3628 54.4248 37.4287 54.3033 37.5163 54.1979C37.6038 54.0926 37.7113 54.0055 37.8325 53.9417C37.9536 53.8779 38.0862 53.8386 38.2226 53.826C38.359 53.8135 38.4965 53.8279 38.6273 53.8684C38.7581 53.909 38.8797 53.975 38.985 54.0625C39.3927 54.4099 39.8758 54.6573 40.396 54.7849C40.9162 54.9124 41.459 54.9167 41.9811 54.7973C42.5032 54.6779 42.9902 54.4382 43.4032 54.0972C43.8163 53.7562 44.1439 53.3234 44.36 52.8333C44.7467 51.952 44.7765 50.955 44.4434 50.0521C44.3891 49.8895 44.3193 49.7326 44.235 49.5834C44.1593 49.4623 44.1092 49.327 44.088 49.1857C44.0667 49.0445 44.0748 48.9004 44.1115 48.7624C44.1483 48.6244 44.2131 48.4955 44.3018 48.3836C44.3906 48.2717 44.5013 48.1792 44.6273 48.1119C44.7533 48.0447 44.8917 48.004 45.0341 47.9925C45.1764 47.981 45.3196 47.9989 45.4548 48.045C45.5899 48.0912 45.7141 48.1647 45.8197 48.2608C45.9252 48.357 46.0099 48.4739 46.0684 48.6042C46.1982 48.8419 46.3096 49.0891 46.4017 49.3438C46.9232 50.755 46.8709 52.3144 46.2559 53.6875C45.831 54.6622 45.1302 55.4912 44.2399 56.0724C43.3496 56.6536 42.3087 56.9616 41.2454 56.9584V56.9584Z" fill="#FA4616"/>
<path d="M49.6311 54.9688C49.1683 54.9689 48.707 54.9165 48.2561 54.8125C48.1193 54.7831 47.9896 54.727 47.8745 54.6475C47.7594 54.568 47.661 54.4666 47.5851 54.349C47.5092 54.2315 47.4571 54.1002 47.4319 53.9626C47.4068 53.8249 47.4089 53.6837 47.4384 53.5469C47.4678 53.4101 47.5238 53.2804 47.6034 53.1653C47.6829 53.0502 47.7843 52.9518 47.9018 52.8759C48.0193 52.8 48.1507 52.7479 48.2883 52.7228C48.4259 52.6976 48.5672 52.6998 48.704 52.7292C49.0458 52.8054 49.3955 52.8403 49.7457 52.8333C50.8813 52.8068 51.9601 52.3311 52.7456 51.5104C53.1337 51.1165 53.4395 50.6493 53.6451 50.1361C53.8508 49.6228 53.9522 49.0737 53.9436 48.5208C53.924 47.8025 53.7227 47.1009 53.3584 46.4815C52.994 45.8621 52.4786 45.3452 51.8602 44.9792C51.7188 44.9251 51.5909 44.8409 51.4853 44.7323C51.3798 44.6237 51.2992 44.4935 51.2491 44.3506C51.199 44.2077 51.1807 44.0556 51.1954 43.9049C51.2102 43.7542 51.2576 43.6085 51.3343 43.478C51.4111 43.3475 51.5154 43.2353 51.6399 43.1492C51.7645 43.0632 51.9063 43.0053 52.0556 42.9796C52.2048 42.9539 52.3578 42.9611 52.504 43.0006C52.6501 43.0401 52.7859 43.111 52.9019 43.2083C54.0714 43.9201 54.9793 44.9912 55.4899 46.2615C56.0005 47.5319 56.0864 48.9333 55.7348 50.2565C55.3832 51.5797 54.613 52.7536 53.5391 53.603C52.4653 54.4523 51.1455 54.9314 49.7769 54.9688H49.6311Z" fill="#FA4616"/>
<path d="M53.9435 46.4896C53.7322 46.4922 53.5251 46.4304 53.3498 46.3125C53.2363 46.2344 53.1395 46.1345 53.0648 46.0187C52.9902 45.9028 52.9393 45.7733 52.9151 45.6377C52.8909 45.5021 52.8938 45.363 52.9237 45.2285C52.9536 45.094 53.0099 44.9668 53.0894 44.8542C53.4921 44.2685 53.6832 43.563 53.631 42.8542C53.4539 40.6771 51.2456 38.8542 48.6935 38.7917C48.4173 38.7917 48.1523 38.6819 47.957 38.4866C47.7616 38.2912 47.6519 38.0263 47.6519 37.75C47.6519 37.4737 47.7616 37.2088 47.957 37.0134C48.1523 36.8181 48.4173 36.7083 48.6935 36.7083C52.2769 36.8021 55.4019 39.4896 55.6519 42.6979C55.7495 43.8874 55.429 45.0737 54.7456 46.0521C54.6539 46.1812 54.5341 46.2877 54.3951 46.3635C54.2561 46.4393 54.1017 46.4824 53.9435 46.4896V46.4896Z" fill="#FA4616"/>
<path d="M41.4437 22.625H39.3604V25.75H41.4437V22.625Z" fill="#FA4616"/>
<path d="M37.2772 22.625H35.1938V25.75H37.2772V22.625Z" fill="#FA4616"/>
<path d="M39.3602 27.8333H37.2769V30.9583H39.3602V27.8333Z" fill="#FA4616"/>
<path d="M35.1937 27.8333H33.1104V30.9583H35.1937V27.8333Z" fill="#FA4616"/>
<path d="M43.5272 27.8333H41.4438V30.9583H43.5272V27.8333Z" fill="#FA4616"/>
<path d="M35.1937 52.8333H24.777C24.5008 52.8333 24.2358 52.7236 24.0404 52.5282C23.8451 52.3329 23.7354 52.0679 23.7354 51.7917C23.7354 51.5154 23.8451 51.2505 24.0404 51.0551C24.2358 50.8598 24.5008 50.75 24.777 50.75H35.1937C35.4774 50.7289 35.7426 50.6012 35.9358 50.3924C36.1291 50.1837 36.2361 49.9095 36.2354 49.625V47.625C36.2354 47.3487 36.3451 47.0838 36.5404 46.8884C36.7358 46.6931 37.0008 46.5833 37.277 46.5833C37.5533 46.5833 37.8182 46.6931 38.0136 46.8884C38.2089 47.0838 38.3187 47.3487 38.3187 47.625V49.625C38.319 50.4617 37.9924 51.2653 37.4086 51.8647C36.8249 52.464 36.0301 52.8116 35.1937 52.8333V52.8333Z" fill="#404040"/>
<path d="M38.3185 48.6667H25.8185C25.5423 48.6667 25.2773 48.5569 25.082 48.3616C24.8866 48.1662 24.7769 47.9013 24.7769 47.625C24.7769 47.3487 24.8866 47.0838 25.082 46.8884C25.2773 46.6931 25.5423 46.5833 25.8185 46.5833H38.3185C38.5948 46.5833 38.8597 46.4736 39.0551 46.2782C39.2504 46.0829 39.3602 45.8179 39.3602 45.5417C39.3602 45.2654 39.2504 45.0004 39.0551 44.8051C38.8597 44.6097 38.5948 44.5 38.3185 44.5H25.8185C25.5423 44.5 25.2773 44.3902 25.082 44.1949C24.8866 43.9995 24.7769 43.7346 24.7769 43.4583C24.7769 43.1821 24.8866 42.9171 25.082 42.7218C25.2773 42.5264 25.5423 42.4167 25.8185 42.4167H38.3185C39.1473 42.4167 39.9422 42.7459 40.5282 43.3319C41.1143 43.918 41.4435 44.7129 41.4435 45.5417C41.4435 46.3705 41.1143 47.1653 40.5282 47.7514C39.9422 48.3374 39.1473 48.6667 38.3185 48.6667Z" fill="#404040"/>
<path d="M31.0272 57H14.4543C13.12 56.893 11.8391 56.4288 10.7459 55.6563C10.2672 55.3095 9.72607 55.0584 9.15218 54.9167H8.11051C7.83425 54.9167 7.56929 54.8069 7.37394 54.6116C7.17859 54.4162 7.06885 54.1513 7.06885 53.875C7.06885 53.5987 7.17859 53.3338 7.37394 53.1384C7.56929 52.9431 7.83425 52.8333 8.11051 52.8333H9.15218C10.1142 52.9394 11.0308 53.2989 11.8084 53.875C12.5897 54.4375 13.4992 54.7956 14.4543 54.9167H31.0272C31.3109 54.8956 31.5761 54.7678 31.7693 54.5591C31.9626 54.3504 32.0696 54.0761 32.0688 53.7917V51.7917C32.0688 51.5154 32.1786 51.2504 32.3739 51.0551C32.5693 50.8597 32.8342 50.75 33.1105 50.75C33.3868 50.75 33.6517 50.8597 33.8471 51.0551C34.0424 51.2504 34.1522 51.5154 34.1522 51.7917V53.7917C34.1525 54.6283 33.8259 55.432 33.2421 56.0313C32.6584 56.6307 31.8636 56.9783 31.0272 57V57Z" fill="#404040"/>
<path d="M37.2771 44.5C37.0009 44.5 36.7359 44.3903 36.5405 44.1949C36.3452 43.9996 36.2355 43.7346 36.2355 43.4583V41.2917C36.2355 41.0375 36.1345 40.7938 35.9548 40.614C35.775 40.4343 35.5313 40.3333 35.2771 40.3333H21.3917C21.1663 40.3333 20.947 40.2602 20.7667 40.125L19.0271 38.8229C18.8893 38.7176 18.78 38.5796 18.709 38.4213C18.6381 38.2631 18.6078 38.0896 18.6209 37.9167C18.6324 37.7457 18.686 37.5801 18.7768 37.4347C18.8677 37.2894 18.993 37.1687 19.1417 37.0834C20.6826 36.246 22.1528 35.2845 23.5375 34.2084C23.729 34.0372 23.8813 33.8266 23.9837 33.591C24.0862 33.3555 24.1366 33.1006 24.1313 32.8438C24.104 32.5951 23.9982 32.3616 23.8292 32.1771C21.2833 33.1926 18.6777 34.0519 16.0271 34.75C14.9855 35 13.3917 36.2083 11.4334 38.3333C10.5799 39.2636 9.41751 39.8522 8.16254 39.9896C8.02574 40.0046 7.88732 39.9926 7.75519 39.9542C7.62305 39.9157 7.49977 39.8516 7.39241 39.7655C7.17557 39.5917 7.03668 39.3388 7.00629 39.0625C6.9759 38.7862 7.0565 38.5092 7.23036 38.2924C7.40422 38.0755 7.6571 37.9366 7.93337 37.9063C8.69529 37.8126 9.39609 37.4418 9.90212 36.8646C12.2146 34.3542 14.0063 33.0208 15.5584 32.6979C18.2775 31.9848 20.9436 31.0833 23.5375 30C23.7022 29.9194 23.8853 29.8837 24.0682 29.8965C24.2511 29.9093 24.4274 29.9702 24.5792 30.0729C25.0262 30.348 25.4053 30.7203 25.6885 31.1621C25.9716 31.604 26.1515 32.104 26.2146 32.625C26.245 33.1867 26.1537 33.7484 25.9469 34.2716C25.7402 34.7947 25.4229 35.2671 25.0167 35.6563C23.9357 36.5697 22.7708 37.3788 21.5375 38.0729L21.7355 38.2292H35.2771C35.6783 38.2292 36.0756 38.3085 36.4459 38.4627C36.8163 38.6169 37.1526 38.8428 37.4353 39.1274C37.718 39.4121 37.9416 39.7499 38.0933 40.1213C38.2449 40.4927 38.3215 40.8905 38.3188 41.2917V43.4583C38.3188 43.7346 38.209 43.9996 38.0137 44.1949C37.8183 44.3903 37.5534 44.5 37.2771 44.5Z" fill="#404040"/>
<path d="M29.746 29.6563C29.6397 29.6549 29.5344 29.6374 29.4335 29.6042L20.423 26.7188C20.209 26.6509 20.0227 26.5157 19.8918 26.3333L18.6418 24.5625C18.5411 24.4215 18.4772 24.2576 18.4559 24.0857C18.4345 23.9138 18.4564 23.7393 18.5195 23.5779C18.5825 23.4166 18.6849 23.2735 18.8172 23.1617C18.9495 23.0499 19.1076 22.9728 19.2772 22.9375C21.0016 22.6183 22.6954 22.1513 24.3397 21.5417C24.5727 21.436 24.7805 21.282 24.9493 21.0898C25.1181 20.8977 25.2441 20.6717 25.3189 20.4271C25.3709 20.1691 25.3342 19.9011 25.2147 19.6667C23.2876 19.7604 19.7355 19.7709 17.1105 19.7709C15.4126 19.7709 13.8501 20.4792 11.548 21.7813C10.4506 22.4093 9.16212 22.6166 7.92303 22.3646C7.64677 22.308 7.40431 22.1439 7.24901 21.9085C7.09371 21.6731 7.03827 21.3856 7.09491 21.1094C7.15154 20.8331 7.31561 20.5907 7.551 20.4354C7.7864 20.2801 8.07385 20.2246 8.35012 20.2813C9.09474 20.4317 9.86868 20.3058 10.5272 19.9271C13.1314 18.4479 14.9439 17.6458 17.1105 17.6458C18.7876 17.6458 23.8918 17.6459 25.6834 17.5104C25.8555 17.4962 26.0284 17.5249 26.1865 17.5939C26.3447 17.663 26.4833 17.7704 26.5897 17.9063C26.9304 18.3046 27.1766 18.7747 27.3101 19.2816C27.4436 19.7884 27.4608 20.3189 27.3605 20.8333C27.2161 21.3791 26.955 21.8871 26.5954 22.3223C26.2357 22.7575 25.786 23.1095 25.2772 23.3542C23.967 23.8896 22.6107 24.3045 21.2251 24.5938L21.371 24.8021L30.048 27.5729C30.3104 27.6587 30.5279 27.8452 30.6529 28.0912C30.7779 28.3373 30.8001 28.623 30.7147 28.8854C30.6569 29.1006 30.5316 29.2916 30.3573 29.4304C30.1829 29.5691 29.9686 29.6483 29.746 29.6563V29.6563Z" fill="#404040"/>
<path d="M39.3604 16.375H29.9854V11.1667C29.9854 10.0616 30.4243 9.0018 31.2057 8.2204C31.9871 7.439 33.0469 7 34.152 7H39.3604C47.5895 7 51.6729 7.82292 55.5479 10.2708L54.4333 12.0313C50.9437 9.82292 47.1416 9.08333 39.3604 9.08333H34.152C33.5995 9.08333 33.0696 9.30283 32.6789 9.69353C32.2882 10.0842 32.0687 10.6141 32.0687 11.1667V14.2917H39.3604V16.375Z" fill="#404040"/>
<path d="M55.4645 21.4167L49.4749 17.5625C48.3264 16.8061 46.9854 16.3941 45.6104 16.375H42.4854V14.2917H45.6104C47.355 14.2993 49.0624 14.7974 50.5374 15.7292L56.5895 19.625L55.4645 21.4167Z" fill="#404040"/>
<path d="M45.6102 20.5417H31.0269V15.3333H33.1102V18.4583H43.5269V15.3333H45.6102V20.5417Z" fill="#404040"/>
</svg>
