<svg width="64" height="64" viewBox="0 0 64 64" fill="none" xmlns="http://www.w3.org/2000/svg">
<path d="M24.1282 45.0374H11.0868C10.7986 45.0374 10.5221 44.9229 10.3183 44.7191C10.1145 44.5153 10 44.2389 10 43.9507V34.1696C10 33.8814 10.1145 33.6049 10.3183 33.4011C10.5221 33.1973 10.7986 33.0828 11.0868 33.0828H24.1282C24.4164 33.0828 24.6928 33.1973 24.8967 33.4011C25.1005 33.6049 25.215 33.8814 25.215 34.1696V43.9507C25.215 44.2389 25.1005 44.5153 24.8967 44.7191C24.6928 44.9229 24.4164 45.0374 24.1282 45.0374ZM12.1736 42.8639H23.0414V35.2564H12.1736V42.8639Z" fill="#404040"/>
<path d="M14.4232 55.9052C14.3078 55.9047 14.1936 55.8826 14.0863 55.84C13.8146 55.7483 13.5902 55.5529 13.4619 55.2964C13.3337 55.0399 13.312 54.7431 13.4017 54.4707L17.0641 43.6029C17.1559 43.3311 17.3513 43.1067 17.6078 42.9785C17.8643 42.8502 18.1611 42.8286 18.4335 42.9182C18.5693 42.9636 18.6947 43.0353 18.8027 43.1293C18.9107 43.2233 18.999 43.3377 19.0626 43.466C19.1263 43.5942 19.1639 43.7338 19.1734 43.8767C19.183 44.0195 19.1642 44.1628 19.1181 44.2984L15.4557 55.1662C15.3828 55.3821 15.2439 55.5696 15.0586 55.7022C14.8733 55.8348 14.6511 55.9058 14.4232 55.9052Z" fill="#404040"/>
<path d="M26.3778 17.8678C25.3031 17.8678 24.2525 17.5491 23.3589 16.9521C22.4653 16.355 21.7688 15.5063 21.3575 14.5134C20.9463 13.5205 20.8387 12.4279 21.0483 11.3738C21.258 10.3197 21.7755 9.35151 22.5355 8.59156C23.2954 7.83161 24.2636 7.31408 25.3177 7.10441C26.3718 6.89474 27.4644 7.00236 28.4573 7.41364C29.4502 7.82492 30.2989 8.52139 30.896 9.415C31.493 10.3086 31.8117 11.3592 31.8117 12.4339C31.8117 13.8751 31.2392 15.2572 30.2202 16.2763C29.2011 17.2953 27.819 17.8678 26.3778 17.8678V17.8678ZM26.3778 9.17356C25.733 9.17356 25.1026 9.36478 24.5665 9.72303C24.0303 10.0813 23.6124 10.5905 23.3657 11.1862C23.1189 11.782 23.0543 12.4375 23.1801 13.07C23.3059 13.7024 23.6164 14.2834 24.0724 14.7393C24.5284 15.1953 25.1093 15.5058 25.7418 15.6316C26.3742 15.7574 27.0298 15.6929 27.6255 15.4461C28.2213 15.1993 28.7305 14.7814 29.0887 14.2453C29.447 13.7091 29.6382 13.0787 29.6382 12.4339C29.6382 11.5692 29.2947 10.7399 28.6832 10.1285C28.0718 9.51707 27.2425 9.17356 26.3778 9.17356V9.17356Z" fill="#404040"/>
<path d="M33.8984 32.3329C33.7167 32.3308 33.538 32.2861 33.3767 32.2025L26.943 28.6487C26.818 28.5796 26.708 28.4864 26.619 28.3747C26.5301 28.263 26.4641 28.1348 26.4247 27.9975C26.3854 27.8603 26.3734 27.7166 26.3896 27.5747C26.4058 27.4329 26.4498 27.2956 26.5191 27.1707C26.5883 27.0458 26.6814 26.9357 26.7931 26.8468C26.9049 26.7579 27.033 26.6918 27.1703 26.6525C27.3075 26.6131 27.4512 26.6012 27.5931 26.6174C27.735 26.6336 27.8723 26.6776 27.9971 26.7469L34.4309 30.2898C34.6451 30.4053 34.8143 30.5894 34.9114 30.8125C35.0085 31.0356 35.0279 31.2849 34.9666 31.5204C34.9052 31.7558 34.7666 31.9639 34.5729 32.1112C34.3792 32.2586 34.1417 32.3366 33.8984 32.3329V32.3329Z" fill="#404040"/>
<path d="M18.7703 55.9053C18.6361 55.9064 18.5031 55.8805 18.3791 55.8292C18.1115 55.7248 17.8962 55.5187 17.7801 55.256C17.6641 54.9933 17.6567 54.6953 17.7596 54.4272L21.9763 43.5594C22.0801 43.2899 22.2867 43.0727 22.5506 42.9555C22.8145 42.8383 23.1142 42.8307 23.3837 42.9345C23.6532 43.0383 23.8705 43.2448 23.9876 43.5088C24.1048 43.7727 24.1124 44.0724 24.0086 44.3419L19.7919 55.2097C19.7124 55.4157 19.5721 55.5926 19.3896 55.7168C19.2071 55.8411 18.9911 55.9068 18.7703 55.9053Z" fill="#404040"/>
<path d="M31.6705 49.3845C31.4067 49.3871 31.1511 49.2937 30.9511 49.1218C30.7512 48.9498 30.6206 48.711 30.5837 48.4499L29.6164 42.0162L23.8022 39.7448C23.6591 39.7013 23.5266 39.6288 23.4128 39.5317C23.2991 39.4347 23.2066 39.3152 23.1411 39.1808C23.0757 39.0464 23.0387 38.8999 23.0324 38.7505C23.0261 38.6011 23.0508 38.4521 23.1047 38.3126C23.1587 38.1732 23.2409 38.0464 23.3461 37.9402C23.4513 37.834 23.5773 37.7506 23.7162 37.6953C23.8551 37.64 24.0039 37.6139 24.1533 37.6188C24.3028 37.6236 24.4496 37.6592 24.5846 37.7234L31.1053 40.2121C31.2854 40.2815 31.4438 40.3976 31.5641 40.5485C31.6844 40.6994 31.7624 40.8796 31.79 41.0706L32.8768 48.1347C32.8983 48.2768 32.8914 48.4218 32.8565 48.5613C32.8216 48.7007 32.7594 48.8318 32.6735 48.947C32.5876 49.0622 32.4797 49.1593 32.356 49.2325C32.2323 49.3058 32.0954 49.3537 31.953 49.3737L31.6705 49.3845ZM36.0719 49.3845C35.8033 49.3862 35.5435 49.2882 35.3428 49.1096C35.1421 48.931 35.0147 48.6844 34.9851 48.4173L33.8984 39.1797L26.8125 35.1042C26.6483 35.0094 26.5117 34.8732 26.4164 34.7093C26.3211 34.5453 26.2703 34.3592 26.2691 34.1696V23.3018C26.2691 22.3019 25.9214 22.1063 24.4868 21.4216L23.6391 21.0086C22.9824 20.615 22.2312 20.4071 21.4656 20.4071C20.6999 20.4071 19.9487 20.615 19.292 21.0086C18.2052 21.5955 17.2162 22.3236 17.2054 22.3236C16.9874 22.4923 16.8127 22.7103 16.6955 22.9597C16.5784 23.2091 16.5222 23.4828 16.5316 23.7582V34.1913C16.5316 34.4795 16.4171 34.756 16.2133 34.9598C16.0094 35.1636 15.733 35.2781 15.4448 35.2781C15.1566 35.2781 14.8801 35.1636 14.6763 34.9598C14.4725 34.756 14.358 34.4795 14.358 34.1913V23.7582C14.3521 23.1512 14.4862 22.5511 14.7501 22.0044C15.014 21.4578 15.4005 20.9794 15.8795 20.6065C16.6347 20.0597 17.4223 19.5588 18.2378 19.1068C19.2155 18.541 20.3251 18.2431 21.4547 18.2431C22.5843 18.2431 23.6939 18.541 24.6716 19.1068L25.4649 19.4871C26.943 20.1935 28.4862 20.9217 28.4862 23.3344V33.5719L35.4959 37.6038C35.644 37.6877 35.7703 37.8051 35.8647 37.9467C35.9591 38.0882 36.0189 38.25 36.0393 38.4189L37.1261 48.1999C37.1428 48.342 37.1312 48.4859 37.0921 48.6235C37.053 48.7611 36.9872 48.8896 36.8983 49.0016C36.8095 49.1137 36.6994 49.2071 36.5744 49.2766C36.4493 49.346 36.3118 49.3901 36.1697 49.4063L36.0719 49.3845ZM19.7702 35.2564C19.4964 35.2572 19.2324 35.1548 19.0309 34.9694C18.8294 34.784 18.7053 34.5294 18.6834 34.2565C18.6834 34.0066 18.6834 33.7457 18.6834 33.4958V24.9863C18.6834 24.698 18.7979 24.4216 19.0017 24.2178C19.2055 24.014 19.482 23.8995 19.7702 23.8995C20.0584 23.8995 20.3348 24.014 20.5387 24.2178C20.7425 24.4216 20.857 24.698 20.857 24.9863V33.4958C20.8461 33.6912 20.8461 33.8872 20.857 34.0826C20.8779 34.3693 20.7845 34.6526 20.5971 34.8705C20.4098 35.0884 20.1437 35.2233 19.8571 35.2455L19.7702 35.2564Z" fill="#404040"/>
<path d="M42.6035 52.6449H28.4753C28.1871 52.6449 27.9106 52.5304 27.7068 52.3266C27.503 52.1228 27.3885 51.8464 27.3885 51.5581C27.3885 51.2699 27.503 50.9935 27.7068 50.7897C27.9106 50.5858 28.1871 50.4713 28.4753 50.4713H42.6035C42.8917 50.4713 43.1681 50.5858 43.372 50.7897C43.5758 50.9935 43.6903 51.2699 43.6903 51.5581C43.6903 51.8464 43.5758 52.1228 43.372 52.3266C43.1681 52.5304 42.8917 52.6449 42.6035 52.6449Z" fill="#FA4616"/>
<path d="M44.7771 43.9615H39.3431C39.0549 43.9615 38.7785 43.847 38.5747 43.6432C38.3709 43.4394 38.2564 43.1629 38.2564 42.8747C38.2564 42.5865 38.3709 42.3101 38.5747 42.1062C38.7785 41.9024 39.0549 41.7879 39.3431 41.7879H44.7771C45.0653 41.7879 45.3417 41.9024 45.5455 42.1062C45.7493 42.3101 45.8638 42.5865 45.8638 42.8747C45.8638 43.1629 45.7493 43.4394 45.5455 43.6432C45.3417 43.847 45.0653 43.9615 44.7771 43.9615Z" fill="#FA4616"/>
<path d="M46.9398 35.2781H37.1587C36.8705 35.2781 36.5941 35.1636 36.3903 34.9598C36.1864 34.756 36.0719 34.4795 36.0719 34.1913C36.0719 33.9031 36.1864 33.6266 36.3903 33.4228C36.5941 33.219 36.8705 33.1045 37.1587 33.1045H46.9398C47.228 33.1045 47.5044 33.219 47.7082 33.4228C47.9121 33.6266 48.0266 33.9031 48.0266 34.1913C48.0266 34.4795 47.9121 34.756 47.7082 34.9598C47.5044 35.1636 47.228 35.2781 46.9398 35.2781Z" fill="#FA4616"/>
<path d="M49.1133 26.5838H34.9852C34.6969 26.5838 34.4205 26.4693 34.2167 26.2655C34.0129 26.0617 33.8984 25.7853 33.8984 25.497C33.8984 25.2088 34.0129 24.9324 34.2167 24.7286C34.4205 24.5247 34.6969 24.4102 34.9852 24.4102H49.1133C49.4016 24.4102 49.678 24.5247 49.8818 24.7286C50.0856 24.9324 50.2001 25.2088 50.2001 25.497C50.2001 25.7853 50.0856 26.0617 49.8818 26.2655C49.678 26.4693 49.4016 26.5838 49.1133 26.5838Z" fill="#FA4616"/>
<path d="M51.2869 17.9004H37.1587C36.8705 17.9004 36.5941 17.7859 36.3903 17.5821C36.1864 17.3783 36.0719 17.1019 36.0719 16.8137C36.0719 16.5254 36.1864 16.249 36.3903 16.0452C36.5941 15.8414 36.8705 15.7269 37.1587 15.7269H51.2869C51.5751 15.7269 51.8516 15.8414 52.0554 16.0452C52.2592 16.249 52.3737 16.5254 52.3737 16.8137C52.3737 17.1019 52.2592 17.3783 52.0554 17.5821C51.8516 17.7859 51.5751 17.9004 51.2869 17.9004Z" fill="#FA4616"/>
<path d="M41.5167 56.992C41.4265 57.0027 41.3353 57.0027 41.245 56.992C41.1065 56.9566 40.9762 56.8941 40.8619 56.8082C40.7475 56.7223 40.6512 56.6147 40.5785 56.4916C40.5058 56.3684 40.4581 56.232 40.4382 56.0904C40.4183 55.9488 40.4266 55.8046 40.4625 55.6662L52.1346 8.9345C52.1642 8.79127 52.2224 8.65548 52.3057 8.53528C52.3891 8.41507 52.4958 8.31293 52.6195 8.23497C52.7433 8.157 52.8815 8.10482 53.0259 8.08154C53.1703 8.05826 53.3179 8.06437 53.4599 8.0995C53.6019 8.13463 53.7353 8.19805 53.8522 8.28598C53.9691 8.3739 54.067 8.48452 54.1401 8.61119C54.2132 8.73787 54.26 8.878 54.2777 9.02319C54.2954 9.16838 54.2835 9.31564 54.2429 9.45615L42.5709 56.1878C42.5085 56.4194 42.3713 56.6239 42.1807 56.7693C41.99 56.9148 41.7565 56.9931 41.5167 56.992Z" fill="#FA4616"/>
<path d="M27.3885 56.992C27.2983 57.0026 27.2071 57.0026 27.1168 56.992C26.9783 56.9566 26.8481 56.8941 26.7337 56.8082C26.6193 56.7223 26.523 56.6147 26.4503 56.4915C26.3776 56.3683 26.33 56.232 26.3101 56.0904C26.2902 55.9487 26.2984 55.8046 26.3343 55.6661L28.0732 48.6781C28.1087 48.5396 28.1711 48.4094 28.257 48.295C28.3429 48.1806 28.4505 48.0843 28.5737 48.0116C28.6969 47.9389 28.8332 47.8913 28.9748 47.8714C29.1164 47.8515 29.2606 47.8597 29.3991 47.8956C29.6765 47.9674 29.9144 48.1458 30.061 48.3921C30.2075 48.6384 30.2509 48.9326 30.1815 49.2106L28.4427 56.1987C28.3783 56.4282 28.2403 56.6302 28.0498 56.7736C27.8593 56.917 27.6269 56.9937 27.3885 56.992Z" fill="#FA4616"/>
<path d="M34.4418 28.7791C34.3551 28.7896 34.2676 28.7896 34.1809 28.7791C33.9015 28.7098 33.6609 28.5323 33.5122 28.2858C33.3634 28.0392 33.3186 27.7437 33.3876 27.4641L38.0064 8.98882C38.036 8.84559 38.0942 8.70981 38.1775 8.58961C38.2609 8.4694 38.3676 8.36726 38.4914 8.2893C38.6151 8.21133 38.7533 8.15914 38.8977 8.13586C39.0421 8.11258 39.1897 8.11869 39.3317 8.15382C39.4737 8.18895 39.6071 8.25238 39.724 8.34031C39.8409 8.42823 39.9388 8.53885 40.0119 8.66552C40.0851 8.7922 40.1318 8.93233 40.1495 9.07752C40.1672 9.22271 40.1554 9.36997 40.1148 9.51048L35.4959 27.9858C35.4316 28.2154 35.2935 28.4174 35.103 28.5607C34.9125 28.7041 34.6802 28.7808 34.4418 28.7791Z" fill="#FA4616"/>
</svg>
