<svg width="64" height="64" viewBox="0 0 64 64" fill="none" xmlns="http://www.w3.org/2000/svg">
<path fill-rule="evenodd" clip-rule="evenodd" d="M41.637 28.1087C35.7709 28.1087 31.1089 32.6133 31.1089 38.0578C31.1089 43.5022 35.7709 48.0068 41.637 48.0068C47.503 48.0068 52.165 43.5022 52.165 38.0578C52.165 32.6133 47.503 28.1087 41.637 28.1087ZM29.0033 38.0578C29.0033 31.3499 34.7111 26.0031 41.637 26.0031C48.5628 26.0031 54.2706 31.3499 54.2706 38.0578C54.2706 44.7656 48.5628 50.1124 41.637 50.1124C34.7111 50.1124 29.0033 44.7656 29.0033 38.0578Z" fill="#404040"/>
<path fill-rule="evenodd" clip-rule="evenodd" d="M33.401 45.6981L26.4536 52.6454C26.4535 52.6456 26.4538 52.6453 26.4536 52.6454C26.3316 52.7679 26.2345 52.9137 26.1686 53.0736C26.1025 53.2336 26.0687 53.4051 26.069 53.5782C26.0693 53.7513 26.1036 53.9227 26.1701 54.0825C26.2366 54.2424 26.334 54.3875 26.4566 54.5097C26.5792 54.632 26.7247 54.7288 26.8847 54.7948C27.0447 54.8608 27.2162 54.8947 27.3893 54.8944C27.5624 54.8941 27.7338 54.8597 27.8936 54.7932C28.0535 54.7267 28.1986 54.6294 28.3209 54.5068L28.3237 54.504L35.588 47.2713L37.0737 48.7634L29.8121 55.9934C29.8116 55.9939 29.8111 55.9944 29.8105 55.9949C29.4934 56.3126 29.1169 56.5649 28.7025 56.7373C28.2874 56.91 27.8423 56.9993 27.3926 57C26.943 57.0007 26.4977 56.9129 26.082 56.7414C25.6663 56.57 25.2884 56.3184 24.97 56.001C24.6516 55.6835 24.3988 55.3065 24.2261 54.8913C24.0534 54.4762 23.9641 54.0312 23.9634 53.5815C23.9627 53.1319 24.0506 52.6865 24.222 52.2708C24.3934 51.8552 24.645 51.4773 24.9624 51.1589L31.9121 44.2092L33.401 45.6981Z" fill="#404040"/>
<path fill-rule="evenodd" clip-rule="evenodd" d="M13.2112 31.2145C13.2112 30.6331 13.6826 30.1617 14.264 30.1617H22.6865C23.2679 30.1617 23.7393 30.6331 23.7393 31.2145C23.7393 31.796 23.2679 32.2673 22.6865 32.2673H15.3168V42.7954C15.3168 43.3768 14.8455 43.8482 14.264 43.8482C13.6826 43.8482 13.2112 43.3768 13.2112 42.7954V31.2145Z" fill="#404040"/>
<path fill-rule="evenodd" clip-rule="evenodd" d="M21.6337 21.7393C21.6337 21.1578 22.105 20.6865 22.6865 20.6865H31.1089C31.6904 20.6865 32.1617 21.1578 32.1617 21.7393C32.1617 22.3207 31.6904 22.7921 31.1089 22.7921H23.7393V42.7954C23.7393 43.3768 23.2679 43.8482 22.6865 43.8482C22.105 43.8482 21.6337 43.3768 21.6337 42.7954V21.7393Z" fill="#404040"/>
<path fill-rule="evenodd" clip-rule="evenodd" d="M30.0561 15.4224C30.0561 14.841 30.5275 14.3696 31.1089 14.3696H39.5314C40.1128 14.3696 40.5842 14.841 40.5842 15.4224C40.5842 16.0039 40.1128 16.4753 39.5314 16.4753H32.1617V27.0033C32.1617 27.5848 31.6904 28.0561 31.1089 28.0561C30.5275 28.0561 30.0561 27.5848 30.0561 27.0033V15.4224Z" fill="#404040"/>
<path fill-rule="evenodd" clip-rule="evenodd" d="M38.4786 8.05281C38.4786 7.47136 38.9499 7 39.5314 7H47.9538C48.5353 7 49.0066 7.47136 49.0066 8.05281V24.8977C49.0066 25.4791 48.5353 25.9505 47.9538 25.9505C47.3724 25.9505 46.901 25.4791 46.901 24.8977V9.10561H40.5842V23.8449C40.5842 24.4263 40.1128 24.8977 39.5314 24.8977C38.9499 24.8977 38.4786 24.4263 38.4786 23.8449V8.05281Z" fill="#404040"/>
<path fill-rule="evenodd" clip-rule="evenodd" d="M9 42.7954C9 42.2139 9.47136 41.7426 10.0528 41.7426H26.8977C27.4791 41.7426 27.9505 42.2139 27.9505 42.7954C27.9505 43.3768 27.4791 43.8482 26.8977 43.8482H10.0528C9.47136 43.8482 9 43.3768 9 42.7954Z" fill="#404040"/>
<path fill-rule="evenodd" clip-rule="evenodd" d="M38.6592 32.9006C39.449 32.1109 40.5201 31.6672 41.637 31.6672C42.7538 31.6672 43.825 32.1109 44.6148 32.9006C45.4045 33.6904 45.8482 34.7616 45.8482 35.8785V37.0409C45.8866 37.6117 45.8135 38.1847 45.633 38.7279C45.4479 39.2848 45.1536 39.7991 44.7673 40.2408C44.381 40.6825 43.9104 41.0427 43.3831 41.3003C42.8558 41.5579 42.2824 41.7077 41.6966 41.7409L41.637 40.6897L41.574 41.7407C40.9893 41.7057 40.4172 41.5548 39.8912 41.2968C39.3652 41.0388 38.8957 40.6789 38.51 40.2379C38.1244 39.7969 37.8301 39.2837 37.6445 38.728C37.4632 38.1855 37.389 37.613 37.4257 37.0424V35.8785C37.4257 34.7616 37.8694 33.6904 38.6592 32.9006ZM41.6386 39.6343C41.9236 39.6106 42.2017 39.534 42.4589 39.4084C42.7344 39.2738 42.9804 39.0855 43.1824 38.8546C43.3843 38.6237 43.5381 38.3549 43.6348 38.0639C43.7316 37.7728 43.7693 37.4653 43.7457 37.1595L43.7426 37.1191V35.8785C43.7426 35.32 43.5207 34.7844 43.1259 34.3895C42.731 33.9947 42.1954 33.7728 41.637 33.7728C41.0785 33.7728 40.5429 33.9947 40.1481 34.3895C39.7532 34.7844 39.5314 35.32 39.5314 35.8785V37.1175L39.5285 37.1562C39.5059 37.4622 39.5443 37.7697 39.6416 38.0608C39.7388 38.3518 39.8929 38.6206 40.095 38.8517C40.297 39.0826 40.5429 39.2712 40.8184 39.4063C41.0755 39.5324 41.3536 39.6097 41.6386 39.6343Z" fill="#FA4616"/>
<path fill-rule="evenodd" clip-rule="evenodd" d="M37.329 40.714C38.4652 40.0234 39.9795 39.637 41.637 39.637C43.2945 39.637 44.8088 40.0234 45.945 40.714C47.0698 41.3977 47.9538 42.4775 47.9538 43.8482C47.9538 44.4296 47.4824 44.901 46.901 44.901C46.3195 44.901 45.8482 44.4296 45.8482 43.8482C45.8482 43.4712 45.6056 42.9718 44.8513 42.5133C44.1082 42.0616 42.9905 41.7426 41.637 41.7426C40.2834 41.7426 39.1657 42.0616 38.4227 42.5133C37.6683 42.9718 37.4257 43.4712 37.4257 43.8482C37.4257 44.4296 36.9544 44.901 36.3729 44.901C35.7915 44.901 35.3201 44.4296 35.3201 43.8482C35.3201 42.4775 36.2041 41.3977 37.329 40.714Z" fill="#FA4616"/>
</svg>
