<svg width="64" height="64" viewBox="0 0 64 64" fill="none" xmlns="http://www.w3.org/2000/svg">
<path d="M14.25 43.4583H12.1667V33.0417C12.1667 28.9583 16.7396 25.75 22.5833 25.75V27.8333C18.0729 27.8333 14.25 30.2187 14.25 33.0417V43.4583Z" fill="#404040"/>
<path d="M22.5833 27.8333C21.8927 27.8581 21.2043 27.7403 20.5612 27.4873C19.9181 27.2344 19.334 26.8516 18.8454 26.3629C18.3567 25.8743 17.9739 25.2902 17.721 24.6471C17.468 24.004 17.3502 23.3156 17.375 22.625V20.5417C17.375 19.1603 17.9237 17.8356 18.9005 16.8588C19.8772 15.8821 21.202 15.3333 22.5833 15.3333C23.9646 15.3333 25.2894 15.8821 26.2661 16.8588C27.2429 17.8356 27.7916 19.1603 27.7916 20.5417V22.625C27.8164 23.3156 27.6986 24.004 27.4457 24.6471C27.1927 25.2902 26.8099 25.8743 26.3213 26.3629C25.8326 26.8516 25.2485 27.2344 24.6054 27.4873C23.9623 27.7403 23.2739 27.8581 22.5833 27.8333V27.8333ZM22.5833 17.4167C22.1666 17.3925 21.7495 17.4567 21.3594 17.6052C20.9692 17.7536 20.615 17.983 20.3198 18.2782C20.0246 18.5733 19.7953 18.9276 19.6468 19.3177C19.4983 19.7078 19.4341 20.125 19.4583 20.5417V22.625C19.4583 23.4538 19.7876 24.2487 20.3736 24.8347C20.9597 25.4208 21.7545 25.75 22.5833 25.75C23.4121 25.75 24.207 25.4208 24.793 24.8347C25.3791 24.2487 25.7083 23.4538 25.7083 22.625V20.5417C25.7325 20.125 25.6683 19.7078 25.5198 19.3177C25.3713 18.9276 25.142 18.5733 24.8468 18.2782C24.5517 17.983 24.1974 17.7536 23.8073 17.6052C23.4171 17.4567 23 17.3925 22.5833 17.4167V17.4167Z" fill="#404040"/>
<path d="M18.4167 34.0833H16.3333V43.4583H18.4167V34.0833Z" fill="#404040"/>
<path d="M28.8333 34.0833H26.75V57H28.8333V34.0833Z" fill="#404040"/>
<path d="M27.7917 44.5V42.4167C28.6205 42.4167 29.4153 42.0874 30.0014 41.5014C30.5874 40.9153 30.9167 40.1205 30.9167 39.2917V33.0417C30.9167 30.2187 27.1042 27.8333 22.5833 27.8333V25.75C28.4271 25.75 33 28.9583 33 33.0417V39.2917C33 40.673 32.4512 41.9978 31.4745 42.9745C30.4977 43.9513 29.173 44.5 27.7917 44.5V44.5Z" fill="#404040"/>
<path d="M18.4167 51.7917H16.3333V57H18.4167V51.7917Z" fill="#404040"/>
<path d="M24.6667 43.4583H22.5833V57H24.6667V43.4583Z" fill="#404040"/>
<path d="M19.4583 52.8333H9.04167C8.7654 52.8333 8.50045 52.7236 8.3051 52.5282C8.10975 52.3329 8 52.0679 8 51.7917V43.4583C8 43.1821 8.10975 42.9171 8.3051 42.7218C8.50045 42.5264 8.7654 42.4167 9.04167 42.4167H19.4583C19.7346 42.4167 19.9995 42.5264 20.1949 42.7218C20.3902 42.9171 20.5 43.1821 20.5 43.4583V51.7917C20.5 52.0679 20.3902 52.3329 20.1949 52.5282C19.9995 52.7236 19.7346 52.8333 19.4583 52.8333ZM10.0833 50.75H18.4167V44.5H10.0833V50.75Z" fill="#404040"/>
<path d="M38.2396 41.2604C38.0132 41.2621 37.788 41.2269 37.5729 41.1562C37.1516 41.0213 36.7841 40.7557 36.5238 40.398C36.2635 40.0403 36.1238 39.609 36.125 39.1666V34.0833H34.0417V32H37.1667C37.4429 32 37.7079 32.1097 37.9032 32.3051C38.0986 32.5004 38.2083 32.7654 38.2083 33.0417V39.1666L43.6458 32.3958C43.7428 32.273 43.8662 32.1737 44.0069 32.1052C44.1476 32.0367 44.3019 32.0007 44.4583 32H52.7916C53.0679 32 53.3328 31.8902 53.5282 31.6949C53.7235 31.4995 53.8333 31.2346 53.8333 30.9583V10.125C53.8333 9.84873 53.7235 9.58378 53.5282 9.38843C53.3328 9.19308 53.0679 9.08333 52.7916 9.08333H24.6667C24.3904 9.08333 24.1254 9.19308 23.9301 9.38843C23.7347 9.58378 23.625 9.84873 23.625 10.125V14.2917H21.5417V10.125C21.5417 9.2962 21.8709 8.50134 22.4569 7.91529C23.043 7.32924 23.8379 7 24.6667 7H52.7916C53.6204 7 54.4153 7.32924 55.0013 7.91529C55.5874 8.50134 55.9166 9.2962 55.9166 10.125V30.9583C55.9166 31.7871 55.5874 32.582 55.0013 33.168C54.4153 33.7541 53.6204 34.0833 52.7916 34.0833H44.9583L39.8646 40.4271C39.6805 40.6863 39.4368 40.8973 39.1539 41.0424C38.8711 41.1874 38.5574 41.2622 38.2396 41.2604Z" fill="#FA4616"/>
</svg>
