<svg width="64" height="64" viewBox="0 0 64 64" fill="none" xmlns="http://www.w3.org/2000/svg">
<path d="M17.4167 22.1979C16.7114 22.1859 16.0155 22.0333 15.3699 21.749C14.7243 21.4647 14.1419 21.0545 13.6569 20.5423C13.1718 20.0301 12.7939 19.4262 12.5451 18.7661C12.2964 18.106 12.1819 17.4029 12.2083 16.6979V15.2083C12.2083 13.827 12.7571 12.5022 13.7338 11.5255C14.7106 10.5487 16.0353 10 17.4167 10C18.798 10 20.1228 10.5487 21.0995 11.5255C22.0763 12.5022 22.625 13.827 22.625 15.2083V16.6979C22.6514 17.4029 22.5369 18.106 22.2882 18.7661C22.0395 19.4262 21.6615 20.0301 21.1765 20.5423C20.6914 21.0545 20.1091 21.4647 19.4635 21.749C18.8179 22.0333 18.122 22.1859 17.4167 22.1979ZM17.4167 11.7813C16.9856 11.7986 16.5623 11.9013 16.1713 12.0834C15.7802 12.2655 15.4292 12.5234 15.1385 12.8422C14.8478 13.161 14.6233 13.5342 14.4779 13.9404C14.3326 14.3466 14.2693 14.7775 14.2917 15.2083V16.6979C14.2917 17.5267 14.6209 18.3216 15.207 18.9076C15.793 19.4937 16.5879 19.8229 17.4167 19.8229C18.2455 19.8229 19.0403 19.4937 19.6264 18.9076C20.2124 18.3216 20.5417 17.5267 20.5417 16.6979V15.2083C20.5641 14.7775 20.5008 14.3466 20.3554 13.9404C20.21 13.5342 19.9855 13.161 19.6948 12.8422C19.4042 12.5234 19.0532 12.2655 18.6621 12.0834C18.271 11.9013 17.8477 11.7986 17.4167 11.7813V11.7813Z" fill="#404040"/>
<path d="M23.6667 54.4896H21.5833V29.8438L22.2188 29.5729C22.3958 29.5 26.3854 27.8125 27.5208 27.4896C28.0575 27.3896 28.5556 27.1416 28.9587 26.7734C29.3618 26.4053 29.6539 25.9317 29.8021 25.4063H14.2917C10.6458 25.4063 9.08333 26.9688 9.08333 30.6146V37.9063C9.08333 39.0729 9.35417 41.0313 11.1667 41.0313H12.2083V43.1146H11.1667C8.60417 43.1146 7 41.125 7 37.9063V30.6146C7 25.8438 9.52083 23.3229 14.2917 23.3229H32V24.3646C32.0699 25.5468 31.7223 26.716 31.0178 27.668C30.3133 28.6199 29.2968 29.2942 28.1458 29.5729C27.4271 29.7917 25.0208 30.7708 23.6667 31.3542V54.4896Z" fill="#404040"/>
<path d="M18.4583 38.8646H16.375V54.4896H18.4583V38.8646Z" fill="#404040"/>
<path d="M13.25 30.5312H11.1667V54.4896H13.25V30.5312Z" fill="#404040"/>
<path d="M42.4167 43.0312H28.875V30.5312H30.9583V40.9479H42.4167V43.0312Z" fill="#FA4616"/>
<path d="M57 43.0312H46.5833V40.9479H54.9167V18.0312H30.9583V21.1562H28.875V15.9479H57V43.0312Z" fill="#FA4616"/>
<path d="M51.7917 37.8229H49.7083V23.2396H36.1667V28.4479H34.0833V21.1562H51.7917V37.8229Z" fill="#FA4616"/>
<path d="M46.5833 37.8229H34.0833V32.6146H36.1667V35.7396H44.5V28.4479H41.375V32.6146H39.2917V26.3646H46.5833V37.8229Z" fill="#FA4616"/>
<path d="M39.2917 36.7812H37.2083V41.9896H39.2917V36.7812Z" fill="#FA4616"/>
<path d="M44.5 16.9896H42.4167V22.1979H44.5V16.9896Z" fill="#FA4616"/>
</svg>
