<svg width="64" height="64" viewBox="0 0 64 64" fill="none" xmlns="http://www.w3.org/2000/svg">
<path d="M27.9053 39.2199C26.4318 39.2199 25.0186 38.6345 23.9766 37.5926C22.9347 36.5506 22.3494 35.1375 22.3494 33.664C22.3494 32.1905 22.9347 30.7772 23.9766 29.7353C25.0186 28.6934 26.4318 28.1081 27.9053 28.1081C28.2448 28.1077 28.5836 28.1412 28.9165 28.208L28.5164 30.4304C28.3146 30.3949 28.1102 30.3763 27.9053 30.3749C27.246 30.3749 26.6014 30.5704 26.0532 30.9367C25.5051 31.303 25.0778 31.8236 24.8255 32.4327C24.5732 33.0418 24.5072 33.7121 24.6358 34.3587C24.7644 35.0054 25.0819 35.5994 25.5481 36.0656C26.0143 36.5318 26.6083 36.8493 27.2549 36.9779C27.9016 37.1065 28.5718 37.0405 29.181 36.7882C29.7901 36.5358 30.3107 36.1086 30.677 35.5604C31.0433 35.0122 31.2388 34.3677 31.2388 33.7084C31.2374 33.5072 31.2188 33.3065 31.1832 33.1084L33.4056 32.7083C33.4628 33.0386 33.4925 33.3732 33.4945 33.7084C33.4828 35.18 32.8877 36.5868 31.8398 37.6201C30.7919 38.6534 29.3769 39.2288 27.9053 39.2199V39.2199Z" fill="#404040"/>
<path d="M27.9053 45.887C24.6635 45.887 21.5546 44.5992 19.2623 42.3069C16.9701 40.0146 15.6823 36.9057 15.6823 33.664C15.6823 30.4222 16.9701 27.3132 19.2623 25.021C21.5546 22.7287 24.6635 21.441 27.9053 21.441C30.0522 21.4378 32.1614 22.0053 34.0168 23.0855L32.9056 25.0078C30.8042 23.7959 28.3339 23.3891 25.9548 23.8632C23.5758 24.3373 21.4502 25.6599 19.9739 27.5848C18.4976 29.5097 17.7712 31.9056 17.9302 34.3262C18.0891 36.7469 19.1225 39.0272 20.8378 40.7425C22.5531 42.4579 24.8335 43.4912 27.2541 43.6502C29.6747 43.8091 32.0706 43.0827 33.9955 41.6064C35.9204 40.1301 37.243 38.0045 37.7171 35.6255C38.1912 33.2464 37.7844 30.7761 36.5725 28.6747L38.4948 27.5635C39.5678 29.422 40.1326 31.5302 40.1324 33.6761C40.1322 35.822 39.5671 37.9301 38.4938 39.7884C37.4205 41.6466 35.8769 43.1895 34.0182 44.262C32.1595 45.3345 30.0512 45.8988 27.9053 45.898V45.887Z" fill="#404040"/>
<path d="M27.9053 52.5541C24.9286 52.5547 21.9939 51.8519 19.3404 50.503C16.6869 49.154 14.3898 47.197 12.6363 44.7916C10.8828 42.3862 9.72263 39.6004 9.25028 36.6615C8.77793 33.7225 9.00679 30.7136 9.91825 27.8798C10.8297 25.0461 12.3979 22.4679 14.4951 20.3554C16.5922 18.2429 19.159 16.6559 21.9859 15.7239C24.8129 14.7918 27.8202 14.5409 30.7625 14.9919C33.7048 15.4428 36.499 16.5827 38.9171 18.3186L37.6281 20.1631C34.2307 17.7185 30.038 16.6416 25.883 17.1463C21.7281 17.6511 17.9151 19.7005 15.2019 22.8875C12.4886 26.0744 11.0737 30.1655 11.2382 34.3477C11.4028 38.53 13.1348 42.4972 16.0901 45.4611C19.0454 48.425 23.0076 50.1686 27.1894 50.3453C31.3711 50.522 35.4663 49.1189 38.6611 46.4149C41.8559 43.7109 43.9164 39.904 44.4333 35.7505C44.9501 31.597 43.8853 27.4011 41.4506 23.9967L43.2507 22.6966C45.2758 25.5192 46.4833 28.8455 46.7405 32.3099C46.9976 35.7743 46.2945 39.2425 44.7084 42.3332C43.1223 45.4239 40.7146 48.0174 37.7502 49.8284C34.7857 51.6395 31.3792 52.5979 27.9053 52.5985V52.5541Z" fill="#404040"/>
<path d="M45.6841 56.9988H41.2394C41.0932 56.9996 40.9482 56.9716 40.8128 56.9163C40.6774 56.861 40.5543 56.7795 40.4504 56.6765L37.1169 53.343L38.6948 51.7762L41.7061 54.7764H43.9951L41.3283 48.5538L43.3728 47.676L46.7064 55.4542C46.7908 55.6309 46.827 55.8266 46.8114 56.0218C46.7958 56.2169 46.7289 56.4044 46.6175 56.5654C46.5084 56.7076 46.3665 56.8212 46.204 56.8967C46.0415 56.9721 45.8631 57.0072 45.6841 56.9988Z" fill="#404040"/>
<path d="M14.5711 56.9988H10.1263C9.94432 56.9991 9.76503 56.9546 9.60422 56.8693C9.4434 56.7841 9.30597 56.6607 9.20404 56.5099C9.09088 56.3499 9.02204 56.1629 9.00447 55.9677C8.98691 55.7726 9.02126 55.5763 9.10404 55.3987L12.4376 47.6204L14.4822 48.4982L11.8153 54.7208H14.1155L17.1156 51.7207L18.6935 53.2874L15.36 56.621C15.2609 56.734 15.1399 56.8258 15.0043 56.8908C14.8687 56.9557 14.7213 56.9925 14.5711 56.9988V56.9988Z" fill="#404040"/>
<path d="M27.9053 34.7751C27.6868 34.7742 27.4735 34.709 27.2919 34.5875C27.1104 34.466 26.9687 34.2938 26.8845 34.0922C26.8003 33.8906 26.7774 33.6687 26.8186 33.4542C26.8599 33.2397 26.9634 33.0421 27.1163 32.8861L41.5617 18.4408C41.665 18.3366 41.7879 18.2539 41.9233 18.1975C42.0587 18.1411 42.2039 18.112 42.3506 18.112C42.4973 18.112 42.6426 18.1411 42.778 18.1975C42.9134 18.2539 43.0362 18.3366 43.1395 18.4408C43.3465 18.649 43.4627 18.9306 43.4627 19.2242C43.4627 19.5177 43.3465 19.7993 43.1395 20.0075L28.6942 34.4529C28.5904 34.5558 28.4672 34.6373 28.3318 34.6926C28.1965 34.7479 28.0515 34.776 27.9053 34.7751V34.7751Z" fill="#FA4616"/>
<path d="M47.9066 20.3298H42.3507C42.0559 20.3298 41.7733 20.2127 41.5649 20.0043C41.3565 19.7959 41.2395 19.5133 41.2395 19.2186V13.6627C41.2407 13.3712 41.3564 13.0918 41.5617 12.8849L47.1176 7.32896C47.2562 7.1891 47.4296 7.0886 47.6198 7.03773C47.81 6.98687 48.0103 6.98743 48.2003 7.03943C48.3902 7.09143 48.5629 7.19303 48.7006 7.3337C48.8384 7.47438 48.9364 7.64909 48.9844 7.84006L49.94 11.6403L53.7291 12.5848C53.921 12.6314 54.097 12.7283 54.239 12.8655C54.381 13.0026 54.4838 13.1751 54.537 13.3652C54.5902 13.5554 54.5918 13.7563 54.5416 13.9472C54.4914 14.1382 54.3912 14.3122 54.2514 14.4516L48.6955 20.0075C48.5917 20.1105 48.4685 20.192 48.3332 20.2473C48.1978 20.3026 48.0528 20.3306 47.9066 20.3298V20.3298ZM43.4618 18.1074H47.451L51.2957 14.2738L48.751 13.6293C48.5562 13.5816 48.3779 13.482 48.2351 13.3412C48.0923 13.2003 47.9903 13.0235 47.9399 12.8293L47.3065 10.2847L43.4618 14.1294V18.1074Z" fill="#FA4616"/>
<path d="M49.0177 13.6627C48.7993 13.6618 48.586 13.5965 48.4044 13.475C48.2229 13.3536 48.0811 13.1813 47.9969 12.9797C47.9128 12.7782 47.8898 12.5562 47.9311 12.3417C47.9723 12.1272 48.0758 11.9297 48.2287 11.7737L51.5623 8.44012C51.6656 8.33597 51.7885 8.25326 51.9239 8.19684C52.0593 8.14043 52.2046 8.11139 52.3513 8.11139C52.4979 8.11139 52.6432 8.14043 52.7786 8.19684C52.914 8.25326 53.0369 8.33597 53.1402 8.44012C53.3471 8.64831 53.4633 8.92996 53.4633 9.22352C53.4633 9.51708 53.3471 9.79866 53.1402 10.0069L49.8066 13.3404C49.7028 13.4434 49.5797 13.5249 49.4443 13.5801C49.3089 13.6354 49.1639 13.6635 49.0177 13.6627V13.6627Z" fill="#FA4616"/>
</svg>
