<svg width="64" height="64" viewBox="0 0 64 64" fill="none" xmlns="http://www.w3.org/2000/svg">
<path d="M8.041 56.7664C7.88276 56.7671 7.72647 56.7316 7.58406 56.6626C7.46115 56.6028 7.35124 56.5193 7.26067 56.4169C7.17009 56.3145 7.10063 56.1953 7.05625 56.066C7.01187 55.9367 6.99346 55.7999 7.00206 55.6635C7.01065 55.5271 7.04607 55.3937 7.10632 55.271L11.2084 46.963C12.2469 44.9691 14.0435 44.0448 16.6813 44.211L22.7046 44.7095L29.7872 40.9709C29.9239 40.8984 30.0751 40.8575 30.2297 40.851C30.3843 40.8445 30.5385 40.8726 30.6808 40.9333C30.8232 40.994 30.9501 41.0858 31.0524 41.2019C31.1548 41.318 31.2299 41.4555 31.2722 41.6044C31.2722 41.7913 32.5807 46.3088 29.1952 48.2092L23.8158 51.3766C23.6714 51.4634 23.5065 51.51 23.3381 51.5116L16.2243 51.8543C15.9489 51.8543 15.6848 51.7449 15.49 51.5502C15.2953 51.3554 15.1858 51.0913 15.1858 50.8158C15.1855 50.5492 15.2878 50.2926 15.4715 50.0993C15.6551 49.9059 15.9061 49.7907 16.1724 49.7773L23.0265 49.445L28.219 46.3918C28.6892 46.0799 29.0615 45.6414 29.2931 45.1269C29.5246 44.6123 29.6059 44.0428 29.5275 43.484L23.4731 46.6826C23.2975 46.7744 23.0993 46.814 22.9019 46.7969L16.6086 46.2672C14.7912 46.153 13.7631 46.6307 13.1504 47.8769L9.04834 56.1849C8.95765 56.3713 8.81323 56.5263 8.63371 56.6299C8.45419 56.7336 8.24777 56.7811 8.041 56.7664V56.7664Z" fill="#404040"/>
<path d="M18.4363 56.9534C18.2662 56.9525 18.0989 56.9099 17.9492 56.8293C17.7994 56.7486 17.6717 56.6324 17.5774 56.4909C17.483 56.3494 17.4249 56.1869 17.408 56.0176C17.3912 55.8483 17.4162 55.6776 17.4809 55.5202L19.6409 50.2135C19.6928 50.0873 19.7689 49.9726 19.8651 49.8759C19.9613 49.7792 20.0755 49.7024 20.2014 49.6498C20.3272 49.5973 20.4621 49.57 20.5985 49.5696C20.7349 49.5692 20.87 49.5957 20.9962 49.6475C21.1223 49.6993 21.237 49.7755 21.3338 49.8717C21.4305 49.9678 21.5073 50.0821 21.5599 50.2079C21.6124 50.3338 21.6397 50.4687 21.6401 50.6051C21.6405 50.7415 21.614 50.8766 21.5622 51.0027L19.4021 56.2991C19.3251 56.4923 19.1919 56.658 19.0197 56.7746C18.8475 56.8913 18.6443 56.9536 18.4363 56.9534V56.9534Z" fill="#404040"/>
<path d="M25.4461 41.0955C25.2035 41.096 24.9684 41.0115 24.7815 40.8566C24.5707 40.6823 24.4371 40.4318 24.4099 40.1596C24.3826 39.8873 24.464 39.6154 24.6361 39.4027L26.7131 36.8584L28.9459 33.5664L29.0082 33.4729C29.4028 32.9952 29.0705 32.0813 28.6239 31.3128L25.1969 35.2072C25.015 35.4135 24.7586 35.5393 24.4841 35.5568C24.2096 35.5743 23.9393 35.4822 23.7326 35.3007C23.5263 35.1187 23.4006 34.8624 23.383 34.5879C23.3655 34.3133 23.4576 34.0431 23.6392 33.8364L27.9074 28.9658C28.0047 28.8551 28.1245 28.7663 28.2588 28.7054C28.3931 28.6445 28.5388 28.6129 28.6863 28.6127C28.8337 28.6129 28.9794 28.6445 29.1137 28.7054C29.248 28.7663 29.3678 28.8551 29.4651 28.9658C30.5971 30.264 32.1029 32.9329 30.6179 34.7814L28.354 38.1046L26.2354 40.7216C26.1389 40.8375 26.0183 40.931 25.882 40.9956C25.7457 41.0601 25.597 41.0942 25.4461 41.0955Z" fill="#404040"/>
<path d="M55.8223 56.9534H55.6354C36.7763 53.4952 31.9992 31.1986 30.8153 21.7794C30.7858 21.5425 30.8389 21.3026 30.9657 21.1002C31.0924 20.8978 31.285 20.7452 31.5111 20.6682L35.7274 19.2455L22.3411 9.89902L17.9275 26.2138L21.1572 25.0507C21.2854 24.9964 21.4231 24.9685 21.5623 24.9685C21.7014 24.9685 21.8392 24.9964 21.9673 25.0507C22.0942 25.1145 22.2067 25.2036 22.2977 25.3126C22.3888 25.4215 22.4566 25.548 22.4969 25.6842C22.4969 25.6842 23.1615 27.865 24.4181 30.8767C24.5215 31.1302 24.5206 31.4143 24.4155 31.6671C24.3105 31.9199 24.1099 32.1211 23.8573 32.2267C23.7312 32.2795 23.5959 32.3069 23.4592 32.3072C23.3225 32.3076 23.1871 32.281 23.0607 32.2289C22.9343 32.1768 22.8194 32.1002 22.7226 32.0036C22.6259 31.907 22.5492 31.7923 22.4969 31.6659C21.718 29.7655 21.1676 28.2181 20.8457 27.2731L16.754 28.7478C16.5748 28.8119 16.3814 28.8254 16.1949 28.787C16.0085 28.7487 15.8362 28.6598 15.6968 28.5301C15.5575 28.4004 15.4565 28.2349 15.4048 28.0517C15.3532 27.8684 15.3529 27.6745 15.404 27.4912L20.773 7.75972C20.8174 7.60096 20.8989 7.45505 21.0109 7.33406C21.1229 7.21307 21.262 7.12047 21.4169 7.06392C21.5743 7.00596 21.7435 6.98702 21.9099 7.00872C22.0763 7.03043 22.235 7.09212 22.3723 7.18854L38.6456 18.612C38.8086 18.7261 38.9353 18.8847 39.0108 19.0688C39.0863 19.2529 39.1073 19.4548 39.0713 19.6505C39.0431 19.8396 38.9632 20.0173 38.8404 20.1639C38.7176 20.3105 38.5568 20.4203 38.3756 20.4813L33.0273 22.2779C34.3254 31.6244 39.0713 51.709 56.0508 54.8245C56.3262 54.8492 56.5805 54.9824 56.7577 55.1947C56.935 55.407 57.0206 55.681 56.9958 55.9564C56.971 56.2318 56.8378 56.4862 56.6256 56.6634C56.4133 56.8406 56.1393 56.9262 55.8639 56.9015L55.8223 56.9534Z" fill="#FA4616"/>
<path d="M43.3603 56.9533C38.5832 56.9533 34.4084 54.1909 30.9606 48.7492C30.8132 48.5151 30.7649 48.232 30.8263 47.9623C30.8876 47.6925 31.0536 47.4582 31.2877 47.3109C31.5218 47.1635 31.8049 47.1152 32.0746 47.1765C32.3444 47.2379 32.5787 47.4039 32.726 47.638C35.8415 52.5086 39.279 54.9075 43.3603 54.9075C43.6357 54.9075 43.8998 55.0169 44.0946 55.2117C44.2894 55.4064 44.3988 55.6706 44.3988 55.946C44.3988 56.2214 44.2894 56.4856 44.0946 56.6803C43.8998 56.8751 43.6357 56.9845 43.3603 56.9845V56.9533Z" fill="#FA4616"/>
<path d="M17.9275 43.4529C17.2878 43.4329 16.6584 43.286 16.076 43.0206C15.4936 42.7552 14.9697 42.3767 14.5349 41.9071C14.1 41.4375 13.7629 40.8861 13.5431 40.285C13.3232 39.6839 13.225 39.0451 13.2543 38.4058V37.0661C13.2116 36.4262 13.3008 35.7844 13.5163 35.1804C13.7318 34.5763 14.0691 34.023 14.5072 33.5547C14.9454 33.0864 15.475 32.713 16.0633 32.4577C16.6517 32.2025 17.2862 32.0708 17.9275 32.0708C18.5688 32.0708 19.2033 32.2025 19.7916 32.4577C20.38 32.713 20.9096 33.0864 21.3477 33.5547C21.7859 34.023 22.1232 34.5763 22.3387 35.1804C22.5542 35.7844 22.6434 36.4262 22.6007 37.0661V38.4058C22.6314 39.0455 22.5342 39.6849 22.3148 40.2865C22.0955 40.8882 21.7584 41.4402 21.3233 41.9101C20.8882 42.38 20.3638 42.7585 19.7807 43.0234C19.1977 43.2883 18.5676 43.4343 17.9275 43.4529ZM17.9275 34.1064C17.5617 34.1275 17.2037 34.2211 16.8745 34.3818C16.5452 34.5425 16.2512 34.7672 16.0096 35.0426C15.768 35.318 15.5836 35.6388 15.4671 35.9862C15.3507 36.3336 15.3045 36.7007 15.3312 37.0661V38.4058C15.2845 38.7743 15.3168 39.1485 15.4259 39.5036C15.5351 39.8587 15.7185 40.1864 15.9641 40.4651C16.2097 40.7438 16.5118 40.967 16.8503 41.1199C17.1888 41.2728 17.556 41.3519 17.9275 41.3519C18.2989 41.3519 18.6662 41.2728 19.0047 41.1199C19.3432 40.967 19.6453 40.7438 19.8909 40.4651C20.1365 40.1864 20.3199 39.8587 20.429 39.5036C20.5382 39.1485 20.5704 38.7743 20.5237 38.4058V37.0661C20.5505 36.7007 20.5043 36.3336 20.3879 35.9862C20.2714 35.6388 20.087 35.318 19.8454 35.0426C19.6038 34.7672 19.3098 34.5425 18.9805 34.3818C18.6512 34.2211 18.2933 34.1275 17.9275 34.1064Z" fill="#404040"/>
</svg>
