<svg width="64" height="64" viewBox="0 0 64 64" fill="none" xmlns="http://www.w3.org/2000/svg">
<path d="M39.3736 31.2138C39.1049 31.2157 38.8452 31.1165 38.6463 30.9357L33.994 26.6042H31.3737C30.0185 27.5478 28.562 28.337 27.0315 28.9571C25.7962 29.4096 24.4543 29.4844 23.1764 29.1721C21.8985 28.8597 20.7423 28.1743 19.855 27.2031C19.6591 27.0032 19.5493 26.7344 19.5493 26.4545C19.5493 26.1745 19.6591 25.9057 19.855 25.7058C21.8336 23.5668 23.8122 21.6203 23.8122 21.6203L27.6197 17.7701C28.5475 16.9439 29.7463 16.4872 30.9886 16.4866H37.0956C38.1651 16.4866 40.6463 16.4866 41.6624 15.4171L41.7693 15.3101L47.2238 11.214C47.4507 11.0438 47.736 10.9706 48.0168 11.0107C48.2976 11.0509 48.5509 11.2009 48.7211 11.4278C48.8913 11.6547 48.9644 11.94 48.9243 12.2208C48.8842 12.5016 48.7342 12.755 48.5072 12.9251L43.1597 16.9786C41.5019 18.5721 38.5608 18.5722 37.1383 18.5722H31.0314C30.3292 18.5696 29.6495 18.8202 29.117 19.278L25.3737 23.0748C25.3737 23.0748 23.8978 24.5614 22.2293 26.2833C22.8222 26.7183 23.515 26.9972 24.2438 27.0944C24.9727 27.1916 25.7143 27.104 26.4004 26.8395C27.8426 26.2454 29.2102 25.4845 30.4753 24.5721C30.6571 24.4452 30.8739 24.3779 31.0956 24.3796H34.4753C34.744 24.3777 35.0036 24.4769 35.2025 24.6577L40.165 29.2779C40.3214 29.4244 40.4302 29.6144 40.4774 29.8233C40.5245 30.0323 40.5079 30.2506 40.4295 30.4499C40.3511 30.6493 40.2147 30.8206 40.0379 30.9415C39.8611 31.0624 39.652 31.1275 39.4378 31.1282L39.3736 31.2138Z" fill="#404040"/>
<path d="M48.2719 40.1977C48.1235 40.1987 47.9765 40.1688 47.8402 40.1099C47.7039 40.051 47.5814 39.9643 47.4805 39.8554C47.3843 39.7518 47.3097 39.6302 47.2608 39.4976C47.2119 39.365 47.1898 39.2239 47.1958 39.0827C47.2018 38.9415 47.2357 38.8029 47.2956 38.6748C47.3554 38.5468 47.4401 38.4319 47.5447 38.3368C51.0099 35.1282 51.427 33.556 51.8227 32.1442C52.0709 30.8675 52.7013 29.6964 53.6302 28.786L55.1703 27.2459C55.2697 27.1457 55.388 27.0661 55.5183 27.0118C55.6486 26.9575 55.7884 26.9295 55.9296 26.9295C56.0708 26.9295 56.2106 26.9575 56.3409 27.0118C56.4713 27.0661 56.5895 27.1457 56.689 27.2459C56.8882 27.4463 57 27.7173 57 27.9999C57 28.2824 56.8882 28.5535 56.689 28.7539L55.074 30.2726C54.4139 30.9186 53.9757 31.7575 53.8227 32.6684C53.4056 34.2833 52.8708 36.294 48.9457 39.8982C48.7637 40.0747 48.5249 40.1809 48.2719 40.1977Z" fill="#404040"/>
<path d="M46.2078 44.6897C45.2689 44.6703 44.3657 44.3264 43.6517 43.7164C41.6945 42.0479 35.7587 36.3582 35.502 36.1229C35.2963 35.9271 35.1769 35.6577 35.1699 35.3739C35.1628 35.0901 35.2688 34.8152 35.4645 34.6095C35.6603 34.4039 35.9297 34.2844 36.2135 34.2773C36.4973 34.2703 36.7723 34.3763 36.9779 34.5721C37.0421 34.6362 43.1383 40.4651 44.9992 42.0586C45.1557 42.2258 45.3471 42.3565 45.5597 42.4415C45.7723 42.5265 46.0011 42.5636 46.2297 42.5504C46.4583 42.5371 46.6812 42.4737 46.8825 42.3647C47.0839 42.2557 47.2589 42.1037 47.395 41.9196C47.8976 41.31 48.0901 40.3474 47.5661 39.9089C45.5554 38.1763 38.8817 31.1711 38.6036 30.8716C38.4953 30.7723 38.4086 30.6518 38.3489 30.5175C38.2892 30.3833 38.2579 30.2382 38.2568 30.0913C38.2557 29.9444 38.2848 29.7988 38.3425 29.6636C38.4001 29.5285 38.485 29.4067 38.5917 29.3058C38.6985 29.2049 38.825 29.1271 38.9632 29.0772C39.1014 29.0273 39.2483 29.0064 39.395 29.0159C39.5416 29.0253 39.6847 29.0648 39.8153 29.132C39.946 29.1992 40.0614 29.2926 40.1544 29.4063C40.2185 29.4705 47.0313 36.6256 48.9671 38.2833C49.6248 38.9436 50.0003 39.8335 50.0143 40.7654C50.0282 41.6973 49.6796 42.5982 49.042 43.2779C48.7035 43.7082 48.2736 44.0581 47.7835 44.3022C47.2934 44.5464 46.7552 44.6787 46.2078 44.6897Z" fill="#404040"/>
<path d="M41.3522 47.6843C40.3496 47.6646 39.3823 47.3108 38.6036 46.6789C36.6464 45.0105 32.7854 41.3314 32.625 41.203C32.4258 41.0027 32.314 40.7316 32.314 40.449C32.314 40.1665 32.4258 39.8954 32.625 39.6951C32.7244 39.5948 32.8427 39.5152 32.973 39.4609C33.1034 39.4066 33.2432 39.3787 33.3844 39.3787C33.5255 39.3787 33.6653 39.4066 33.7957 39.4609C33.926 39.5152 34.0443 39.5948 34.1437 39.6951C34.1437 39.6951 38.1223 43.4597 39.9939 45.0426C40.246 45.2606 40.5456 45.4166 40.8687 45.4983C41.1918 45.58 41.5295 45.5851 41.8549 45.5131C42.9558 45.0493 43.8285 44.1689 44.2827 43.064C44.3337 42.9294 44.4113 42.8065 44.511 42.7026C44.6106 42.5987 44.7302 42.516 44.8625 42.4594C44.9949 42.4029 45.1373 42.3737 45.2813 42.3735C45.4252 42.3733 45.5677 42.4021 45.7002 42.4583C45.8327 42.5144 45.9525 42.5968 46.0525 42.7004C46.1524 42.804 46.2304 42.9267 46.2818 43.0611C46.3332 43.1956 46.3569 43.339 46.3516 43.4829C46.3462 43.6267 46.3118 43.768 46.2506 43.8982C45.9031 44.7474 45.3806 45.5139 44.7172 46.1478C44.0539 46.7817 43.2644 47.2688 42.4003 47.5774C42.0583 47.6656 41.705 47.7016 41.3522 47.6843V47.6843Z" fill="#404040"/>
<path d="M36.5929 50.4971C35.5637 50.473 34.5742 50.0954 33.7907 49.4276C32.4124 48.2742 31.0951 47.0498 29.8442 45.7592C29.7339 45.6617 29.6448 45.5424 29.5827 45.4088C29.5206 45.2753 29.4867 45.1303 29.4832 44.9831C29.4797 44.8359 29.5067 44.6895 29.5624 44.5532C29.6181 44.4168 29.7013 44.2935 29.807 44.1908C29.9126 44.0882 30.0383 44.0084 30.1761 43.9566C30.314 43.9048 30.4611 43.882 30.6081 43.8896C30.7552 43.8973 30.8991 43.9353 31.0309 44.0012C31.1626 44.0671 31.2793 44.1595 31.3736 44.2726C31.3736 44.2726 33.6624 46.6041 35.1062 47.7485C35.3616 47.9807 35.6677 48.1499 36.0001 48.2427C36.3325 48.3356 36.682 48.3495 37.0207 48.2832C37.5674 48.0911 38.0664 47.7834 38.4835 47.3811C38.9006 46.9787 39.2261 46.4912 39.4378 45.9517C39.4994 45.8251 39.5853 45.7119 39.6908 45.6186C39.7962 45.5254 39.919 45.4538 40.0522 45.4081C40.1853 45.3624 40.3262 45.3435 40.4667 45.3523C40.6072 45.3612 40.7445 45.3976 40.8709 45.4597C41.1247 45.586 41.3179 45.808 41.4082 46.0767C41.4984 46.3454 41.4783 46.639 41.3522 46.8929C41.0116 47.7254 40.4875 48.4703 39.819 49.0721C39.1505 49.6739 38.3548 50.1172 37.4912 50.3688C37.1982 50.4485 36.8965 50.4916 36.5929 50.4971V50.4971Z" fill="#404040"/>
<path d="M31.6197 52.7645C30.863 52.7699 30.1207 52.5584 29.4806 52.1548C28.3577 51.4489 26.5395 50.1549 26.4646 50.1014C26.2334 49.9369 26.0771 49.6872 26.0299 49.4074C25.9828 49.1276 26.0488 48.8406 26.2133 48.6094C26.3778 48.3782 26.6274 48.2218 26.9072 48.1747C27.187 48.1276 27.4741 48.1936 27.7052 48.3581C27.7052 48.3581 29.5448 49.6735 30.6036 50.3366C30.8464 50.4899 31.1208 50.5858 31.4062 50.6173C31.6915 50.6488 31.9803 50.6151 32.2507 50.5185C32.6807 50.3613 33.0721 50.1139 33.3987 49.7929C33.7252 49.472 33.9792 49.0848 34.1437 48.6575C34.1965 48.5265 34.2748 48.4072 34.374 48.3066C34.4732 48.206 34.5913 48.126 34.7216 48.0713C34.8519 48.0166 34.9917 47.9883 35.133 47.9879C35.2743 47.9876 35.4142 48.0152 35.5448 48.0693C35.8068 48.1761 36.0158 48.3824 36.1261 48.643C36.2363 48.9036 36.2388 49.1972 36.133 49.4596C35.8518 50.1752 35.4196 50.8218 34.8659 51.3552C34.3122 51.8886 33.65 52.2963 32.9245 52.5505C32.503 52.688 32.063 52.7602 31.6197 52.7645V52.7645Z" fill="#404040"/>
<path d="M27.1063 20.861C26.9648 20.8604 26.8248 20.8317 26.6945 20.7766C26.5641 20.7215 26.446 20.6412 26.3469 20.5401C25.5544 19.7092 24.5756 19.0787 23.4914 18.7006C22.0552 18.1758 20.7596 17.3267 19.7053 16.2193L17.1919 13.9947C17.0859 13.9011 16.9995 13.7873 16.9377 13.66C16.8759 13.5328 16.84 13.3945 16.8321 13.2532C16.8241 13.112 16.8443 12.9706 16.8913 12.8371C16.9384 12.7037 17.0115 12.581 17.1064 12.476C17.2952 12.2651 17.56 12.1375 17.8427 12.1215C18.1254 12.1055 18.4029 12.2022 18.6144 12.3904L21.1705 14.6685C22.0356 15.589 23.1055 16.2926 24.2935 16.722C25.6465 17.2062 26.869 17.9969 27.8656 19.0321C28.0648 19.2325 28.1767 19.5035 28.1767 19.7861C28.1767 20.0686 28.0648 20.3397 27.8656 20.5401C27.7666 20.6412 27.6485 20.7215 27.5181 20.7766C27.3878 20.8317 27.2478 20.8604 27.1063 20.861Z" fill="#404040"/>
<path d="M12.0583 38.294C11.9168 38.2934 11.7768 38.2648 11.6465 38.2097C11.5161 38.1546 11.398 38.0742 11.2989 37.9731C10.6134 37.3365 10.0753 36.5577 9.72244 35.6912C9.36957 34.8247 9.21044 33.8916 9.25618 32.9571C9.29693 32.128 9.14865 31.3005 8.82255 30.5371C8.49645 29.7738 8.00105 29.0945 7.37383 28.5507C7.26187 28.4548 7.17094 28.3369 7.10674 28.2042C7.04255 28.0715 7.00649 27.927 7.0008 27.7797C6.99511 27.6324 7.01993 27.4855 7.0737 27.3482C7.12747 27.211 7.20902 27.0864 7.31325 26.9822C7.41748 26.8779 7.54213 26.7964 7.67938 26.7426C7.81662 26.6888 7.96349 26.664 8.11078 26.6697C8.25807 26.6754 8.40261 26.7114 8.5353 26.7756C8.66799 26.8398 8.78596 26.9308 8.88184 27.0427C9.69819 27.7741 10.3458 28.6742 10.7798 29.6806C11.2138 30.6871 11.4237 31.7759 11.3952 32.8716C11.3412 33.5395 11.4414 34.2109 11.688 34.834C11.9346 35.457 12.3211 36.0151 12.8176 36.4651C13.0168 36.6655 13.1286 36.9366 13.1286 37.2192C13.1286 37.5017 13.0168 37.7727 12.8176 37.9731C12.7186 38.0742 12.6005 38.1546 12.4701 38.2097C12.3398 38.2648 12.1998 38.2934 12.0583 38.294Z" fill="#404040"/>
<path d="M11.6412 44.2405H11.577C10.8875 44.23 10.2165 44.0152 9.64894 43.6234C9.08141 43.2316 8.64283 42.6803 8.38868 42.0392C8.13452 41.3981 8.07621 40.696 8.22111 40.0217C8.36601 39.3474 8.70761 38.7313 9.20272 38.2512L10.5717 36.9464C11.2348 36.3079 12.1217 35.9546 13.0423 35.9624C13.4994 35.9699 13.9504 36.0684 14.369 36.252C14.7877 36.4356 15.1656 36.7007 15.4807 37.0319L14.7214 37.7806L15.4915 37.0426C16.1321 37.7059 16.4839 38.5959 16.4699 39.518C16.4558 40.44 16.0771 41.319 15.4166 41.9624L14.0583 43.2565C13.4116 43.8869 12.5443 44.24 11.6412 44.2405V44.2405ZM12.9781 38.1014C12.6322 38.1061 12.3004 38.2396 12.0476 38.4758L10.6893 39.7913C10.4405 40.0435 10.301 40.3835 10.301 40.7378C10.301 41.0921 10.4405 41.4321 10.6893 41.6843C10.9408 41.9412 11.2819 42.0907 11.6412 42.1015V42.1015C11.9966 42.1026 12.3384 41.9643 12.5931 41.7164L13.9406 40.4223C14.1895 40.1701 14.329 39.8301 14.329 39.4758C14.329 39.1215 14.1895 38.7814 13.9406 38.5293V38.5293C13.8182 38.4029 13.6721 38.302 13.5106 38.2322C13.3491 38.1625 13.1754 38.1253 12.9995 38.1228L12.9781 38.1014Z" fill="#404040"/>
<path d="M14.7 48.0051H14.6358C13.9472 47.9926 13.2776 47.7764 12.7117 47.3838C12.1458 46.9912 11.7088 46.4397 11.456 45.799C11.2032 45.1583 11.1457 44.4571 11.291 43.7838C11.4363 43.1105 11.7777 42.4953 12.2722 42.0159L16.2187 38.155C16.5464 37.8358 16.9341 37.5848 17.3594 37.4162C17.7846 37.2477 18.239 37.165 18.6964 37.1729C19.1538 37.1809 19.605 37.2793 20.0242 37.4626C20.4433 37.6458 20.822 37.9101 21.1385 38.2405V38.2405C21.4563 38.5689 21.7062 38.9568 21.874 39.382C22.0417 39.8071 22.1239 40.2611 22.116 40.7181C22.108 41.1751 22.0101 41.626 21.8276 42.0451C21.6452 42.4641 21.3819 42.8431 21.0529 43.1603L17.1171 46.9998C16.4745 47.639 15.6064 48.0001 14.7 48.0051V48.0051ZM18.6358 39.31C18.2875 39.3133 17.9541 39.4513 17.7053 39.6951L13.7588 43.5453C13.5067 43.7979 13.3651 44.1402 13.3651 44.4971C13.3651 44.854 13.5067 45.1963 13.7588 45.449C14.0089 45.7077 14.3509 45.8576 14.7107 45.8661V45.8661C15.0624 45.8645 15.3998 45.7264 15.6519 45.4811L19.5877 41.6415C19.8372 41.3875 19.977 41.0457 19.977 40.6897C19.977 40.3336 19.8372 39.9918 19.5877 39.7378V39.7378C19.465 39.6073 19.3178 39.5023 19.1544 39.4289C18.9911 39.3554 18.8148 39.315 18.6358 39.31V39.31Z" fill="#404040"/>
<path d="M18.7106 50.8928H18.6251C17.937 50.8733 17.27 50.6513 16.7076 50.2544C16.1452 49.8575 15.7124 49.3034 15.4634 48.6617C15.2145 48.0199 15.1605 47.319 15.3081 46.6466C15.4558 45.9743 15.7986 45.3605 16.2936 44.8822L19.9085 41.3421C20.2399 41.026 20.6304 40.7783 21.0575 40.6131C21.4847 40.448 21.9402 40.3685 22.3981 40.3794C22.856 40.3904 23.3072 40.4914 23.726 40.6768C24.1448 40.8621 24.523 41.1282 24.8389 41.4597L24.0796 42.2084L24.8496 41.4704C25.4848 42.1393 25.829 43.0325 25.8069 43.9546C25.7849 44.8767 25.3984 45.7524 24.732 46.3902L21.1384 49.8233C20.8242 50.1528 20.4479 50.4169 20.0313 50.6004C19.6146 50.784 19.1658 50.8833 18.7106 50.8928V50.8928ZM22.3149 42.5185C21.9733 42.5188 21.6445 42.6488 21.3951 42.8822L17.7802 46.4223C17.6517 46.5445 17.5485 46.6908 17.4765 46.8528C17.4045 47.0149 17.3652 47.1896 17.3607 47.3668C17.3562 47.5441 17.3867 47.7205 17.4505 47.886C17.5142 48.0515 17.6099 48.2028 17.7321 48.3313C17.8542 48.4598 18.0005 48.563 18.1626 48.635C18.3247 48.707 18.4993 48.7463 18.6766 48.7508C18.8539 48.7553 19.0303 48.7247 19.1958 48.661C19.3613 48.5973 19.5126 48.5017 19.6411 48.3795L23.2454 44.8608C23.5062 44.6167 23.6594 44.2792 23.6714 43.9222C23.6835 43.5652 23.5533 43.2181 23.3095 42.9571V42.9571C23.1878 42.8218 23.0395 42.7131 22.8739 42.6377C22.7083 42.5622 22.5289 42.5217 22.347 42.5185H22.3149Z" fill="#404040"/>
<path d="M23.7908 52.6362C23.1008 52.6298 22.4281 52.4189 21.858 52.03C21.2879 51.6411 20.8461 51.0918 20.5884 50.4516C20.3307 49.8114 20.2688 49.1092 20.4105 48.4338C20.5523 47.7584 20.8912 47.1402 21.3844 46.6576L22.3256 45.7592C22.9713 45.1193 23.8444 44.7616 24.7534 44.7646V44.7646C25.2105 44.7721 25.6615 44.8705 26.0802 45.0541C26.4989 45.2377 26.8768 45.5029 27.1919 45.8341L26.4432 46.5934L27.2133 45.8554C27.8553 46.5173 28.209 47.4066 28.197 48.3286C28.185 49.2506 27.8082 50.1303 27.1491 50.7752L26.2293 51.6629C25.5763 52.2956 24.7001 52.6453 23.7908 52.6362V52.6362ZM24.7106 46.9036C24.3589 46.9052 24.0215 47.0432 23.7694 47.2886L22.839 48.1977C22.5901 48.4498 22.4506 48.7899 22.4506 49.1442C22.4506 49.4985 22.5901 49.8385 22.839 50.0907C22.9646 50.2186 23.1144 50.3205 23.2796 50.3902C23.4448 50.46 23.6222 50.4963 23.8015 50.4971V50.4971C24.1565 50.496 24.4975 50.3582 24.7534 50.1121L25.6732 49.2244C25.922 48.9722 26.0615 48.6322 26.0615 48.2779C26.0615 47.9236 25.922 47.5835 25.6732 47.3314V47.3314C25.55 47.2023 25.4025 47.099 25.2391 47.0274C25.0757 46.9558 24.8997 46.9174 24.7213 46.9143L24.7106 46.9036Z" fill="#404040"/>
<path d="M43.0741 32.7111C41.6948 32.7036 40.3565 32.2412 39.2667 31.3957L38.8068 31.1069C38.5885 30.9472 38.4388 30.7108 38.3878 30.4451C38.3369 30.1795 38.3884 29.9044 38.5321 29.6753C38.6758 29.4462 38.901 29.28 39.1623 29.2103C39.4236 29.1405 39.7017 29.1724 39.9405 29.2994L40.4217 29.5989C41.7372 30.4438 42.4003 30.8716 44.8281 30.3689C45.1118 30.3122 45.4063 30.3705 45.647 30.5309C45.8877 30.6914 46.0548 30.9408 46.1115 31.2245C46.1683 31.5081 46.11 31.8027 45.9495 32.0434C45.7891 32.2841 45.5396 32.4512 45.2559 32.5079C44.5372 32.6478 43.8063 32.7159 43.0741 32.7111Z" fill="#404040"/>
</svg>
