<svg width="64" height="64" viewBox="0 0 64 64" fill="none" xmlns="http://www.w3.org/2000/svg">
<path d="M35.0213 19.766C34.316 19.7913 33.613 19.671 32.9562 19.4127C32.2994 19.1543 31.7029 18.7634 31.2038 18.2643C30.7048 17.7652 30.3139 17.1687 30.0555 16.5119C29.7971 15.8551 29.6769 15.1521 29.7022 14.4468V12.3191C29.7022 10.9084 30.2626 9.55549 31.2601 8.55795C32.2576 7.56042 33.6106 7 35.0213 7C36.432 7 37.785 7.56042 38.7825 8.55795C39.78 9.55549 40.3405 10.9084 40.3405 12.3191V14.4468C40.3657 15.1521 40.2455 15.8551 39.9871 16.5119C39.7287 17.1687 39.3378 17.7652 38.8388 18.2643C38.3397 18.7634 37.7432 19.1543 37.0864 19.4127C36.4296 19.671 35.7266 19.7913 35.0213 19.766V19.766ZM35.0213 9.12766C34.5957 9.10292 34.1697 9.16854 33.7713 9.32018C33.3729 9.47182 33.0111 9.7061 32.7096 10.0075C32.4082 10.309 32.174 10.6707 32.0223 11.0692C31.8707 11.4676 31.8051 11.8936 31.8298 12.3191V14.4468C31.8298 15.2932 32.1661 16.105 32.7646 16.7036C33.3631 17.3021 34.1749 17.6383 35.0213 17.6383C35.8677 17.6383 36.6795 17.3021 37.278 16.7036C37.8765 16.105 38.2128 15.2932 38.2128 14.4468V12.3191C38.2375 11.8936 38.1719 11.4676 38.0203 11.0692C37.8687 10.6707 37.6344 10.309 37.333 10.0075C37.0315 9.7061 36.6697 9.47182 36.2713 9.32018C35.8729 9.16854 35.4469 9.10292 35.0213 9.12766Z" fill="#404040"/>
<path d="M29.7021 29.3404H27.5745V39.9787H29.7021V29.3404Z" fill="#404040"/>
<path d="M41.4043 29.3404H39.2766V57H41.4043V29.3404Z" fill="#404040"/>
<path d="M29.7021 49.5532H27.5745V57H29.7021V49.5532Z" fill="#404040"/>
<path d="M36.0851 39.9787H33.9574V57H36.0851V39.9787Z" fill="#404040"/>
<path d="M41.4043 43.1702H40.3404V41.0426H41.4043C43.2553 41.0426 43.5319 39.0426 43.5319 37.8511V28.2766C43.5319 24.5532 41.9362 22.9574 38.2128 22.9574H31.8298C27.7128 22.9574 25.4468 24.8511 25.4468 28.2766V39.9787H23.3192V28.2766C23.3192 23.617 26.5106 20.8298 31.8298 20.8298H38.2128C43.0851 20.8298 45.6596 23.4043 45.6596 28.2766V37.8511C45.6596 41.1277 44.0319 43.1702 41.4043 43.1702Z" fill="#404040"/>
<path d="M30.766 50.617H19.0638C18.7817 50.617 18.5111 50.505 18.3116 50.3055C18.1121 50.106 18 49.8353 18 49.5532V39.9787C18 39.6966 18.1121 39.426 18.3116 39.2265C18.5111 39.027 18.7817 38.9149 19.0638 38.9149H30.766C31.0481 38.9149 31.3187 39.027 31.5182 39.2265C31.7177 39.426 31.8298 39.6966 31.8298 39.9787V49.5532C31.8298 49.8353 31.7177 50.106 31.5182 50.3055C31.3187 50.505 31.0481 50.617 30.766 50.617ZM20.1277 48.4894H29.7021V41.0426H20.1277V48.4894Z" fill="#FA4616"/>
</svg>
