<svg width="64" height="64" viewBox="0 0 64 64" fill="none" xmlns="http://www.w3.org/2000/svg">
<path d="M24.6246 22.6255C23.9344 22.6487 23.2468 22.5299 22.6044 22.2764C21.962 22.0228 21.3786 21.64 20.8902 21.1517C20.4019 20.6634 20.0191 20.0799 19.7656 19.4375C19.5121 18.7951 19.3932 18.1075 19.4164 17.4173V15.334C19.4164 13.9527 19.9652 12.6279 20.9419 11.6512C21.9186 10.6745 23.2433 10.1258 24.6246 10.1258C26.0059 10.1258 27.3307 10.6745 28.3074 11.6512C29.2841 12.6279 29.8328 13.9527 29.8328 15.334V17.4173C29.8576 18.1079 29.7399 18.7962 29.4869 19.4393C29.2339 20.0824 28.8512 20.6665 28.3625 21.1551C27.8739 21.6438 27.2898 22.0266 26.6467 22.2795C26.0036 22.5325 25.3153 22.6502 24.6246 22.6255V22.6255ZM24.6246 12.209C24.2079 12.1848 23.7908 12.2491 23.4007 12.3975C23.0106 12.546 22.6564 12.7754 22.3612 13.0706C22.0661 13.3657 21.8367 13.7199 21.6882 14.11C21.5397 14.5002 21.4755 14.9173 21.4997 15.334V17.4173C21.4997 18.246 21.829 19.0409 22.415 19.6269C23.001 20.213 23.7959 20.5422 24.6246 20.5422C25.4534 20.5422 26.2483 20.213 26.8343 19.6269C27.4203 19.0409 27.7496 18.246 27.7496 17.4173V15.334C27.7738 14.9173 27.7096 14.5002 27.5611 14.11C27.4126 13.7199 27.1832 13.3657 26.8881 13.0706C26.5929 12.7754 26.2387 12.546 25.8486 12.3975C25.4585 12.2491 25.0413 12.1848 24.6246 12.209V12.209Z" fill="#404040"/>
<path d="M19.4164 43.4583C19.1402 43.4583 18.8752 43.3486 18.6799 43.1533C18.4845 42.9579 18.3748 42.6929 18.3748 42.4167V32.0002C18.3748 31.724 18.4845 31.4591 18.6799 31.2637C18.8752 31.0684 19.1402 30.9586 19.4164 30.9586C19.6927 30.9586 19.9577 31.0684 20.153 31.2637C20.3483 31.4591 20.4581 31.724 20.4581 32.0002V42.4167C20.4581 42.6929 20.3483 42.9579 20.153 43.1533C19.9577 43.3486 19.6927 43.4583 19.4164 43.4583Z" fill="#404040"/>
<path d="M19.4164 56.9997C19.1402 56.9997 18.8752 56.89 18.6799 56.6946C18.4845 56.4993 18.3748 56.2343 18.3748 55.958V51.7914C18.3748 51.5152 18.4845 51.2503 18.6799 51.0549C18.8752 50.8596 19.1402 50.7498 19.4164 50.7498C19.6927 50.7498 19.9577 50.8596 20.153 51.0549C20.3483 51.2503 20.4581 51.5152 20.4581 51.7914V55.958C20.4581 56.2343 20.3483 56.4993 20.153 56.6946C19.9577 56.89 19.6927 56.9997 19.4164 56.9997Z" fill="#404040"/>
<path d="M25.6663 56.9997C25.39 56.9997 25.1251 56.89 24.9297 56.6946C24.7344 56.4993 24.6246 56.2343 24.6246 55.958V42.4167C24.6246 42.1404 24.7344 41.8755 24.9297 41.6801C25.1251 41.4848 25.39 41.375 25.6663 41.375C25.9425 41.375 26.2075 41.4848 26.4028 41.6801C26.5982 41.8755 26.7079 42.1404 26.7079 42.4167V55.958C26.7079 56.2343 26.5982 56.4993 26.4028 56.6946C26.2075 56.89 25.9425 56.9997 25.6663 56.9997Z" fill="#404040"/>
<path d="M21.4997 52.8331H10.0416C9.76538 52.8331 9.50045 52.7234 9.30511 52.528C9.10976 52.3327 9 52.0677 9 51.7914V42.4167C9 42.1404 9.10976 41.8755 9.30511 41.6801C9.50045 41.4848 9.76538 41.375 10.0416 41.375H21.4997C21.776 41.375 22.0409 41.4848 22.2363 41.6801C22.4316 41.8755 22.5414 42.1404 22.5414 42.4167V51.7914C22.5414 52.0677 22.4316 52.3327 22.2363 52.528C22.0409 52.7234 21.776 52.8331 21.4997 52.8331ZM11.0833 50.7498H20.4581V43.4583H11.0833V50.7498Z" fill="#404040"/>
<path d="M48.5824 52.8331H42.3325C42.1185 52.833 41.9096 52.767 41.7344 52.6439C41.5592 52.5209 41.4262 52.347 41.3534 52.1456C41.1868 51.6769 37.1243 40.4167 37.1243 32.0002C37.1243 15.0944 44.4158 7.61544 44.7283 7.30294C44.9235 7.10894 45.1875 7 45.4627 7C45.7379 7 46.0019 7.10894 46.1971 7.30294C46.5095 7.61544 53.7906 15.0944 53.7906 32.0002C53.7906 40.4167 49.7386 51.6769 49.5615 52.1456C49.4888 52.347 49.3557 52.5209 49.1805 52.6439C49.0053 52.767 48.7965 52.833 48.5824 52.8331ZM43.0721 50.7498H47.8428C48.7178 48.1769 51.7073 38.9063 51.7073 32.0002C51.7073 19.188 47.2595 12.032 45.4575 9.66743C43.6658 12.032 39.2076 19.188 39.2076 32.0002C39.2076 38.9063 42.1971 48.1769 43.0721 50.7498Z" fill="#FA4616"/>
<path d="M38.166 56.9996H37.9993C37.8372 56.9725 37.6838 56.9075 37.5516 56.8097C37.4194 56.712 37.3123 56.5843 37.2389 56.4372L35.1556 52.2706C35.0857 52.1279 35.0494 51.9712 35.0494 51.8123C35.0494 51.6534 35.0857 51.4966 35.1556 51.354L38.9993 43.3437C39.1181 43.0937 39.3313 42.9011 39.5921 42.8083C39.8529 42.7156 40.1399 42.7302 40.3899 42.849C40.6399 42.9678 40.8325 43.181 40.9253 43.4418C41.0181 43.7025 41.0035 43.9895 40.8847 44.2395L37.2702 51.7811L38.4785 54.1976L41.6034 51.0727C41.7986 50.8787 42.0626 50.7698 42.3378 50.7698C42.6129 50.7698 42.877 50.8787 43.0721 51.0727C43.1698 51.1695 43.2472 51.2848 43.3001 51.4117C43.353 51.5386 43.3802 51.6748 43.3802 51.8123C43.3802 51.9498 43.353 52.0859 43.3001 52.2129C43.2472 52.3398 43.1698 52.455 43.0721 52.5519L38.9056 56.7184C38.7056 56.9058 38.4399 57.0068 38.166 56.9996Z" fill="#FA4616"/>
<path d="M52.749 56.9997C52.4757 56.9985 52.2139 56.8901 52.0199 56.6976L47.8533 52.5311C47.6571 52.3363 47.5464 52.0716 47.5454 51.7951C47.5444 51.5187 47.6533 51.2533 47.8481 51.0571C48.0428 50.861 48.3075 50.7502 48.5839 50.7492C48.8604 50.7483 49.1259 50.8572 49.322 51.0519L52.4469 54.1769L53.6552 51.7602L50.0303 44.2083C49.934 43.9632 49.9342 43.6906 50.0308 43.4456C50.1273 43.2006 50.3132 43.0012 50.5508 42.8877C50.7885 42.7741 51.0603 42.7549 51.3116 42.8337C51.5629 42.9125 51.775 43.0836 51.9053 43.3125L55.7489 51.3228C55.8188 51.4654 55.8552 51.6222 55.8552 51.7811C55.8552 51.94 55.8188 52.0968 55.7489 52.2394L53.6656 56.406C53.5913 56.5544 53.4825 56.6828 53.3485 56.7807C53.2144 56.8785 53.0588 56.9429 52.8948 56.9685L52.749 56.9997Z" fill="#FA4616"/>
<path d="M45.4575 56.9997C45.1812 56.9997 44.9163 56.89 44.7209 56.6946C44.5256 56.4993 44.4158 56.2343 44.4158 55.958V45.5416C44.4158 45.2653 44.5256 45.0004 44.7209 44.8051C44.9163 44.6097 45.1812 44.5 45.4575 44.5C45.7337 44.5 45.9987 44.6097 46.194 44.8051C46.3894 45.0004 46.4991 45.2653 46.4991 45.5416V55.958C46.4991 56.2343 46.3894 56.4993 46.194 56.6946C45.9987 56.89 45.7337 56.9997 45.4575 56.9997Z" fill="#FA4616"/>
<path d="M45.4575 35.1252C44.6334 35.1252 43.8279 34.8809 43.1427 34.4231C42.4575 33.9652 41.9235 33.3145 41.6081 32.5531C41.2927 31.7918 41.2102 30.954 41.371 30.1458C41.5318 29.3376 41.9286 28.5951 42.5113 28.0124C43.094 27.4297 43.8364 27.0329 44.6446 26.8722C45.4529 26.7114 46.2906 26.7939 47.052 27.1092C47.8133 27.4246 48.464 27.9587 48.9219 28.6439C49.3797 29.3291 49.624 30.1346 49.624 30.9586C49.624 32.0637 49.1851 33.1235 48.4037 33.9048C47.6223 34.6862 46.5625 35.1252 45.4575 35.1252ZM45.4575 28.8753C45.0454 28.8753 44.6427 28.9976 44.3001 29.2265C43.9575 29.4554 43.6905 29.7808 43.5328 30.1614C43.3751 30.5421 43.3339 30.961 43.4142 31.3651C43.4946 31.7692 43.6931 32.1404 43.9844 32.4318C44.2758 32.7231 44.6469 32.9215 45.0511 33.0019C45.4552 33.0823 45.8741 33.041 46.2547 32.8834C46.6354 32.7257 46.9608 32.4586 47.1897 32.116C47.4186 31.7735 47.5408 31.3707 47.5408 30.9586C47.5408 30.4061 47.3213 29.8762 46.9306 29.4856C46.5399 29.0949 46.01 28.8753 45.4575 28.8753Z" fill="#FA4616"/>
<path d="M15.2499 43.4583C14.9736 43.4583 14.7087 43.3486 14.5133 43.1533C14.318 42.9579 14.2082 42.6929 14.2082 42.4167V30.9586C14.2082 26.3962 17.3331 23.6671 22.5414 23.6671H38.666C38.9423 23.6671 39.2072 23.7769 39.4026 23.9722C39.5979 24.1675 39.7076 24.4325 39.7076 24.7087C39.7076 24.985 39.5979 25.25 39.4026 25.4453C39.2072 25.6407 38.9423 25.7504 38.666 25.7504H22.5414C18.5102 25.7504 16.2915 27.6045 16.2915 30.9586V42.4167C16.2915 42.6929 16.1818 42.9579 15.9864 43.1533C15.7911 43.3486 15.5261 43.4583 15.2499 43.4583Z" fill="#404040"/>
<path d="M30.8745 56.9997C30.5982 56.9997 30.3333 56.89 30.138 56.6946C29.9426 56.4993 29.8329 56.2343 29.8329 55.958V30.9586C29.8242 30.7248 29.8946 30.495 30.0325 30.306C30.1704 30.117 30.368 29.98 30.5933 29.917L34.9369 28.6878C35.0706 28.6418 35.2123 28.6234 35.3533 28.6339C35.4944 28.6444 35.6318 28.6835 35.7572 28.7488C35.8826 28.8141 35.9934 28.9043 36.0829 29.0138C36.1723 29.1233 36.2385 29.2499 36.2775 29.3858C36.3164 29.5218 36.3273 29.6643 36.3094 29.8046C36.2915 29.9448 36.2452 30.08 36.1734 30.2018C36.1016 30.3236 36.0057 30.4295 35.8916 30.5131C35.7776 30.5966 35.6476 30.6561 35.5098 30.6878L31.9161 31.7295V55.9372C31.9189 56.0758 31.894 56.2134 31.8429 56.3422C31.7918 56.471 31.7155 56.5883 31.6185 56.6872C31.5215 56.7862 31.4058 56.8648 31.278 56.9185C31.1502 56.9721 31.0131 56.9997 30.8745 56.9997Z" fill="#404040"/>
</svg>
