<svg width="64" height="64" viewBox="0 0 64 64" fill="none" xmlns="http://www.w3.org/2000/svg">
<path d="M10.2231 57H8V50.3306C8 48.1074 11.8794 45.8843 14.6694 45.8843C17.4595 45.8843 21.3389 48.1074 21.3389 50.3306V52.5537H19.1157V50.3306C18.9712 49.7637 16.6703 48.1074 14.6694 48.1074C12.6686 48.1074 10.3788 49.7525 10.2231 50.3306V57Z" fill="#404040"/>
<path d="M14.6694 48.063C14.0512 48.0465 13.4427 47.905 12.8807 47.647C12.3186 47.389 11.8147 47.0198 11.3992 46.5617C10.9837 46.1036 10.6653 45.5662 10.4632 44.9817C10.261 44.3972 10.1794 43.7778 10.2231 43.161V41.8938C10.2231 40.7145 10.6916 39.5836 11.5254 38.7498C12.3593 37.9159 13.4902 37.4475 14.6694 37.4475C15.8487 37.4475 16.9796 37.9159 17.8134 38.7498C18.6473 39.5836 19.1157 40.7145 19.1157 41.8938V43.161C19.1595 43.7778 19.0778 44.3972 18.8757 44.9817C18.6736 45.5662 18.3552 46.1036 17.9397 46.5617C17.5242 47.0198 17.0202 47.389 16.4582 47.647C15.8961 47.905 15.2876 48.0465 14.6694 48.063V48.063ZM14.6694 39.1704C14.3445 39.1923 14.0275 39.28 13.7375 39.4282C13.4476 39.5764 13.1908 39.7821 12.9829 40.0327C12.7749 40.2833 12.6201 40.5735 12.5279 40.8858C12.4356 41.1981 12.4079 41.5259 12.4463 41.8493V43.1165C12.4463 43.7061 12.6805 44.2716 13.0974 44.6885C13.5143 45.1054 14.0798 45.3396 14.6694 45.3396C15.259 45.3396 15.8245 45.1054 16.2414 44.6885C16.6583 44.2716 16.8926 43.7061 16.8926 43.1165V41.8938C16.9326 41.5701 16.906 41.2417 16.8144 40.9287C16.7228 40.6158 16.5681 40.3249 16.3599 40.0739C16.1516 39.823 15.8942 39.6173 15.6035 39.4696C15.3128 39.3218 14.9949 39.2352 14.6694 39.2149V39.1704Z" fill="#404040"/>
<path d="M23.562 45.8843H21.3388V41.438C21.3388 39.2149 25.2182 36.9917 28.0083 36.9917C30.7983 36.9917 34.6777 39.2149 34.6777 41.438V43.6612H32.4545V41.438C32.31 40.8711 30.0091 39.2149 28.0083 39.2149C26.0074 39.2149 23.7176 40.86 23.562 41.438V45.8843Z" fill="#404040"/>
<path d="M28.0083 39.1704C27.3901 39.1539 26.7816 39.0124 26.2195 38.7544C25.6575 38.4964 25.1535 38.1272 24.7381 37.6691C24.3226 37.2111 24.0042 36.6736 23.802 36.0891C23.5999 35.5046 23.5183 34.8853 23.562 34.2684V33.0012C23.562 31.822 24.0305 30.691 24.8643 29.8572C25.6981 29.0233 26.8291 28.5549 28.0083 28.5549C29.1875 28.5549 30.3185 29.0233 31.1523 29.8572C31.9861 30.691 32.4546 31.822 32.4546 33.0012V34.2684C32.4983 34.8853 32.4167 35.5046 32.2146 36.0891C32.0124 36.6736 31.694 37.2111 31.2785 37.6691C30.863 38.1272 30.3591 38.4964 29.797 38.7544C29.235 39.0124 28.6265 39.1539 28.0083 39.1704V39.1704ZM28.0083 30.2778C27.6834 30.2997 27.3663 30.3874 27.0764 30.5356C26.7865 30.6839 26.5297 30.8895 26.3217 31.1401C26.1138 31.3907 25.959 31.681 25.8667 31.9933C25.7745 32.3056 25.7467 32.6334 25.7852 32.9567V34.2239C25.7852 34.8135 26.0194 35.379 26.4363 35.7959C26.8532 36.2128 27.4187 36.4471 28.0083 36.4471C28.5979 36.4471 29.1634 36.2128 29.5803 35.7959C29.9972 35.379 30.2314 34.8135 30.2314 34.2239V33.0012C30.2715 32.6776 30.2449 32.3491 30.1533 32.0362C30.0617 31.7232 29.907 31.4323 29.6987 31.1813C29.4905 30.9304 29.2331 30.7247 28.9424 30.577C28.6516 30.4293 28.3338 30.3426 28.0083 30.3223V30.2778Z" fill="#404040"/>
<path d="M41.3471 28.0991H39.124V24.7644C38.9795 24.1975 36.6785 22.5413 34.6777 22.5413C32.6769 22.5413 30.387 24.1864 30.2314 24.7644V25.876H28.0083V24.7644C28.0083 22.5413 31.8877 20.3181 34.6777 20.3181C37.4677 20.3181 41.3471 22.5413 41.3471 24.7644V28.0991Z" fill="#404040"/>
<path d="M34.6777 22.4969C34.0595 22.4804 33.451 22.3389 32.889 22.0809C32.3269 21.8229 31.8229 21.4537 31.4075 20.9956C30.992 20.5375 30.6736 20 30.4714 19.4156C30.2693 18.8311 30.1877 18.2117 30.2314 17.5948V16.3276C30.2314 15.1484 30.6999 14.0175 31.5337 13.1836C32.3675 12.3498 33.4985 11.8813 34.6777 11.8813C35.8569 11.8813 36.9879 12.3498 37.8217 13.1836C38.6555 14.0175 39.124 15.1484 39.124 16.3276V17.5948C39.1677 18.2117 39.0861 18.8311 38.884 19.4156C38.6818 20 38.3634 20.5375 37.9479 20.9956C37.5325 21.4537 37.0285 21.8229 36.4664 22.0809C35.9044 22.3389 35.2959 22.4804 34.6777 22.4969ZM34.6777 13.6043C34.3528 13.6261 34.0357 13.7138 33.7458 13.8621C33.4559 14.0103 33.1991 14.216 32.9911 14.4666C32.7832 14.7172 32.6284 15.0074 32.5361 15.3197C32.4439 15.632 32.4161 15.9598 32.4546 16.2832V17.5504C32.4546 18.14 32.6888 18.7054 33.1057 19.1224C33.5226 19.5393 34.0881 19.7735 34.6777 19.7735C35.2673 19.7735 35.8328 19.5393 36.2497 19.1224C36.6666 18.7054 36.9008 18.14 36.9008 17.5504V16.3276C36.9409 16.004 36.9143 15.6756 36.8227 15.3626C36.7311 15.0497 36.5764 14.7587 36.3681 14.5078C36.1599 14.2568 35.9025 14.0512 35.6118 13.9034C35.3211 13.7557 35.0032 13.669 34.6777 13.6487V13.6043Z" fill="#404040"/>
<path d="M26.8967 57H16.8926V54.7768H26.8967C36.1894 54.7768 45.7934 48.1074 45.7934 36.9917V19.2066H43.5703C43.3744 19.2073 43.1818 19.1564 43.012 19.0588C42.8422 18.9612 42.7012 18.8204 42.6032 18.6508C42.5057 18.4818 42.4543 18.2901 42.4543 18.095C42.4543 17.8999 42.5057 17.7082 42.6032 17.5392L48.5835 7.53508C48.6825 7.37173 48.8221 7.23669 48.9885 7.14296C49.155 7.04924 49.3428 7 49.5338 7C49.7249 7 49.9127 7.04924 50.0792 7.14296C50.2457 7.23669 50.3852 7.37173 50.4843 7.53508L56.7313 17.5392C56.8288 17.7082 56.8802 17.8999 56.8802 18.095C56.8802 18.2901 56.8288 18.4818 56.7313 18.6508C56.6338 18.8241 56.4917 18.9682 56.3196 19.0679C56.1476 19.1676 55.9519 19.2193 55.7531 19.2177H53.5299V37.0028C53.5299 42.4051 52.1516 46.6846 49.3282 50.0971L47.6164 48.6743C50.1397 45.6397 51.3068 41.9271 51.3068 37.0028V18.1061C51.3068 17.8113 51.4239 17.5286 51.6324 17.3201C51.8408 17.1117 52.1236 16.9945 52.4184 16.9945H53.7523L49.5728 10.2028L45.5266 16.9834H46.905C47.1998 16.9834 47.4825 17.1005 47.691 17.309C47.8995 17.5175 48.0166 17.8002 48.0166 18.095V36.9917C48.0166 49.5191 37.2788 57 26.8967 57Z" fill="#FA4616"/>
<path d="M33.077 50.086C32.8687 50.0864 32.6645 50.0283 32.4876 49.9182C32.3107 49.8082 32.1683 49.6506 32.0766 49.4635C32.0121 49.3322 31.9742 49.1895 31.965 49.0434C31.9558 48.8974 31.9755 48.751 32.023 48.6126C32.0705 48.4742 32.1449 48.3466 32.2418 48.237C32.3388 48.1274 32.4564 48.0381 32.588 47.974C37.8346 45.3952 38.2681 40.193 38.4348 38.27L38.6238 36.0469C38.6362 35.9009 38.6772 35.7588 38.7446 35.6287C38.8119 35.4986 38.9042 35.383 39.0162 35.2886C39.1282 35.1941 39.2577 35.1227 39.3973 35.0783C39.5369 35.0339 39.6839 35.0174 39.8298 35.0298C39.9758 35.0422 40.1179 35.0832 40.248 35.1506C40.3781 35.2179 40.4937 35.3102 40.5882 35.4222C40.6826 35.5342 40.7541 35.6637 40.7985 35.8033C40.8429 35.9429 40.8593 36.0899 40.8469 36.2358L40.658 38.459C40.4912 40.5376 39.9577 46.8402 33.5772 49.9749C33.4214 50.0504 33.2502 50.0884 33.077 50.086V50.086Z" fill="#404040"/>
</svg>
