<svg width="64" height="64" viewBox="0 0 64 64" fill="none" xmlns="http://www.w3.org/2000/svg">
<path d="M44.3207 21.6054C44.1293 21.6041 43.942 21.5501 43.7794 21.4493C43.0507 21.0017 40.3232 20.5332 37.0336 20.5332C33.744 20.5332 31.0269 21.0017 30.2982 21.4493C30.1405 21.5479 29.9592 21.6024 29.7733 21.6072C29.5873 21.612 29.4035 21.5668 29.2409 21.4765C29.0783 21.3862 28.9429 21.254 28.8487 21.0936C28.7546 20.9332 28.7051 20.7504 28.7054 20.5644V10.1542C28.7062 9.97635 28.7525 9.80161 28.84 9.6467C28.9275 9.49179 29.0532 9.36191 29.2051 9.26941C30.5793 8.42618 34.1291 8.04102 37.0336 8.04102C39.938 8.04102 43.4879 8.42618 44.8724 9.26941C45.0225 9.36317 45.1461 9.49359 45.2317 9.64842C45.3173 9.80324 45.3621 9.97733 45.3617 10.1542V20.5644C45.3614 20.7489 45.3121 20.93 45.2188 21.0891C45.1255 21.2483 44.9916 21.3797 44.8308 21.4701C44.6752 21.5583 44.4995 21.6049 44.3207 21.6054ZM30.7875 10.8309V19.0758C34.9099 18.243 39.1573 18.243 43.2797 19.0758V10.8309C39.1691 9.88706 34.8981 9.88706 30.7875 10.8309Z" fill="#FA4616"/>
<path d="M30.7875 7H28.7054V37.1895H30.7875V7Z" fill="#FA4616"/>
<path d="M29.7465 56.9688C24.7921 56.9606 20.0212 55.0933 16.3775 51.7364C12.7338 48.3795 10.4825 43.7774 10.069 38.8403C9.65555 33.9032 11.1099 28.9908 14.1445 25.0745C17.1791 21.1583 21.5729 18.5234 26.4569 17.6912L26.8004 19.7732C23.0845 20.4013 19.666 22.1992 17.0429 24.9051C14.4198 27.611 12.729 31.0837 12.2167 34.8174C11.7044 38.5511 12.3974 42.3508 14.1948 45.6632C15.9921 48.9757 18.8 51.6279 22.2094 53.2336C25.6189 54.8393 29.4519 55.3147 33.1504 54.5905C36.8488 53.8664 40.2195 51.9804 42.7715 49.2074C45.3236 46.4344 46.9239 42.9191 47.3392 39.1734C47.7545 35.4277 46.9633 31.6472 45.0807 28.3825L46.8816 27.3414C48.6153 30.3484 49.5271 33.7587 49.5255 37.2296C49.524 40.7006 48.609 44.11 46.8727 47.1154C45.1363 50.1208 42.6396 52.6164 39.6334 54.3514C36.6273 56.0865 33.2174 56.9999 29.7465 57V56.9688Z" fill="#404040"/>
<path d="M29.7465 44.4766C28.0276 44.476 26.3643 43.8678 25.0504 42.7595C23.7365 41.6512 22.8567 40.1142 22.5665 38.42C22.2762 36.7258 22.5942 34.9835 23.4642 33.5011C24.3342 32.0186 25.7003 30.8915 27.3209 30.3187L28.0184 32.2863C26.8605 32.6952 25.8844 33.5004 25.2628 34.5594C24.6411 35.6185 24.414 36.8632 24.6214 38.0736C24.8289 39.2839 25.4575 40.382 26.3964 41.1736C27.3352 41.9652 28.5237 42.3994 29.7517 42.3994C30.9797 42.3994 32.1682 41.9652 33.107 41.1736C34.0458 40.382 34.6745 39.2839 34.882 38.0736C35.0894 36.8632 34.8622 35.6185 34.2406 34.5594C33.619 33.5004 32.6429 32.6952 31.485 32.2863L32.172 30.3187C33.7927 30.8915 35.1587 32.0186 36.0287 33.5011C36.8987 34.9835 37.2167 36.7258 36.9265 38.42C36.6362 40.1142 35.7564 41.6512 34.4425 42.7595C33.1287 43.8678 31.4654 44.476 29.7465 44.4766V44.4766Z" fill="#404040"/>
<path d="M29.7465 50.7227C26.3518 50.7238 23.0807 49.449 20.5818 47.1512C18.083 44.8535 16.539 41.7005 16.256 38.3177C15.973 34.9348 16.9717 31.5691 19.054 28.8881C21.1363 26.2071 24.1502 24.4066 27.4979 23.8436L27.8414 25.9257C25.0105 26.4046 22.4628 27.9295 20.7032 30.1982C18.9435 32.4669 18.1003 35.3138 18.3407 38.1749C18.581 41.0359 19.8873 43.7023 22.0007 45.6456C24.1142 47.589 26.8805 48.6675 29.7517 48.6675C32.6228 48.6675 35.3891 47.589 37.5026 45.6456C39.616 43.7023 40.9223 41.0359 41.1627 38.1749C41.403 35.3138 40.5598 32.4669 38.8001 30.1982C37.0405 27.9295 34.4928 26.4046 31.6619 25.9257L32.0055 23.8436C35.354 24.4067 38.3686 26.208 40.4509 28.8901C42.5333 31.5722 43.5313 34.9391 43.2469 38.3228C42.9625 41.7065 41.4166 44.8596 38.9158 47.1565C36.415 49.4535 33.142 50.7264 29.7465 50.7227V50.7227Z" fill="#404040"/>
<path d="M48.4848 25.7695C45.5803 25.7695 42.0409 25.3947 40.6563 24.5515C40.5029 24.4581 40.3762 24.3265 40.2886 24.1696C40.2011 24.0128 40.1556 23.8359 40.1566 23.6562V21.5742H42.2387V22.9796C44.2789 23.4981 46.3802 23.7363 48.4848 23.6874C49.8773 23.6926 51.2686 23.6022 52.6488 23.4168V15.0886C51.267 15.2547 49.8765 15.3381 48.4848 15.3385H46.4027L46.4652 13.2564H48.5472C50.2284 13.2679 51.9074 13.1321 53.5649 12.8505C53.7146 12.8223 53.8685 12.8272 54.016 12.865C54.1635 12.9027 54.3009 12.9724 54.4186 13.0691C54.5361 13.1669 54.6306 13.2895 54.6953 13.4281C54.7601 13.5666 54.7936 13.7177 54.7933 13.8707V24.2808C54.7978 24.5258 54.7157 24.7646 54.5614 24.955C54.4072 25.1454 54.1907 25.2753 53.9501 25.3218C52.145 25.6316 50.3162 25.7814 48.4848 25.7695V25.7695Z" fill="#FA4616"/>
</svg>
