<svg width="64" height="64" viewBox="0 0 64 64" fill="none" xmlns="http://www.w3.org/2000/svg">
<path d="M33.4771 37.7058C32.5182 37.7522 31.5589 37.6217 30.6473 37.3208C30.5189 37.2737 30.401 37.2017 30.3004 37.109C30.1998 37.0163 30.1184 36.9047 30.0609 36.7806C30.0034 36.6565 29.971 36.5222 29.9654 36.3855C29.9598 36.2488 29.9811 36.1124 30.0283 35.984C30.0754 35.8555 30.1474 35.7377 30.2401 35.6371C30.3328 35.5365 30.4444 35.4551 30.5685 35.3976C30.6927 35.3401 30.8269 35.3076 30.9636 35.302C31.1003 35.2964 31.2367 35.3178 31.3651 35.365C32.0376 35.5755 32.7423 35.6636 33.4459 35.6251C35.302 35.5922 37.0693 34.8247 38.3604 33.4907C39.6515 32.1567 40.3609 30.3652 40.333 28.509C40.333 28.2331 40.4426 27.9685 40.6377 27.7734C40.8329 27.5783 41.0975 27.4686 41.3734 27.4686C41.6493 27.4686 41.9139 27.5783 42.109 27.7734C42.3041 27.9685 42.4137 28.2331 42.4137 28.509C42.4416 30.9117 41.5173 33.2278 39.8427 34.951C38.1682 36.6743 35.8796 37.6647 33.4771 37.7058V37.7058Z" fill="#404040"/>
<path d="M26.6211 33.3571C26.425 33.3566 26.2331 33.3006 26.0674 33.1956C25.9018 33.0907 25.7691 32.9411 25.6848 32.7641C24.9962 31.4784 24.5951 30.0586 24.5092 28.6027C24.4933 26.4789 25.2163 24.4157 26.5544 22.7664C27.8924 21.1171 29.7623 19.9842 31.8437 19.562C32.1141 19.51 32.394 19.5673 32.6221 19.7214C32.8503 19.8755 33.0081 20.1137 33.0609 20.3838C33.1129 20.6542 33.0555 20.9341 32.9015 21.1622C32.7474 21.3904 32.5092 21.5482 32.239 21.6011C30.6314 21.9317 29.1888 22.8109 28.1582 24.0882C27.1276 25.3656 26.5732 26.9615 26.5899 28.6027C26.6798 29.7652 27.013 30.8959 27.5679 31.9214C27.6275 32.0456 27.6619 32.1804 27.6691 32.318C27.6762 32.4555 27.656 32.5931 27.6095 32.7228C27.5631 32.8525 27.4914 32.9717 27.3985 33.0734C27.3056 33.1751 27.1934 33.2575 27.0685 33.3155C26.9237 33.3597 26.7715 33.3738 26.6211 33.3571Z" fill="#404040"/>
<path d="M20.3894 51.6258H16.9666C16.2005 51.5741 15.4746 51.264 14.9077 50.7462C14.3407 50.2284 13.9663 49.5335 13.8455 48.7752L13.7831 48.7024C11.7544 46.4136 7 41.0454 7 36.1349V25.388C7.0149 24.5742 7.27929 23.7846 7.75747 23.126C8.23565 22.4673 8.90453 21.9713 9.6737 21.7051L16.1447 19.4787C16.8915 19.242 17.69 19.2209 18.4483 19.4178C19.2065 19.6148 19.8938 20.0217 20.431 20.5919C21.0438 21.0795 21.5329 21.7048 21.8583 22.4171C22.1837 23.1294 22.3363 23.9085 22.3037 24.6909V25.4712C22.3037 25.981 22.3036 27.3022 16.2071 29.3101V30.4233C16.9183 31.5415 17.8449 32.507 18.9329 33.2635C19.1321 33.4379 19.2573 33.6818 19.283 33.9454C19.3086 34.209 19.2328 34.4724 19.071 34.682C18.9091 34.8916 18.6734 35.0316 18.4119 35.0735C18.1504 35.1153 17.8829 35.0559 17.6637 34.9073C16.3424 33.8669 14.1264 31.9526 14.1264 30.4233V27.76L14.8651 27.5415C16.772 27.0175 18.5989 26.2371 20.2958 25.2215V24.6598C20.3302 24.1769 20.2425 23.6931 20.0407 23.2531C19.8388 22.8131 19.5294 22.4309 19.141 22.142C18.1006 21.2369 17.5284 21.1954 16.8938 21.4138L10.4228 23.6402C10.0623 23.7642 9.74799 23.9947 9.52136 24.3012C9.29473 24.6077 9.16647 24.9758 9.15352 25.3568V36.1037C9.15352 40.2651 13.5438 45.1756 15.3957 47.2875L15.9471 47.9117V48.3071C15.9471 48.7856 16.4984 49.5139 16.9874 49.5139H20.379C27.0685 49.5139 33.061 43.7399 34.0181 36.3741C34.0359 36.2375 34.0803 36.1058 34.149 35.9863C34.2177 35.8669 34.3093 35.7622 34.4184 35.6781C34.5276 35.5941 34.6522 35.5323 34.7853 35.4965C34.9183 35.4606 35.0571 35.4513 35.1937 35.469C35.3303 35.4868 35.4621 35.5313 35.5815 35.6C35.7009 35.6687 35.8057 35.7602 35.8897 35.8694C35.9738 35.9785 36.0355 36.1032 36.0713 36.2362C36.1072 36.3692 36.1166 36.508 36.0988 36.6446C34.9856 45.1964 28.2337 51.6258 20.3894 51.6258Z" fill="#404040"/>
<path d="M15.2396 29.591H13.6583C13.3824 29.591 13.1178 29.4814 12.9226 29.2863C12.7275 29.0912 12.618 28.8266 12.618 28.5507C12.618 28.2748 12.7275 28.0101 12.9226 27.815C13.1178 27.6199 13.3824 27.5103 13.6583 27.5103H15.2396C15.5156 27.5103 15.7802 27.6199 15.9753 27.815C16.1704 28.0101 16.28 28.2748 16.28 28.5507C16.28 28.8266 16.1704 29.0912 15.9753 29.2863C15.7802 29.4814 15.5156 29.591 15.2396 29.591Z" fill="#404040"/>
<path d="M17.674 38.6005C17.3981 38.6005 17.1335 38.4909 16.9384 38.2958C16.7433 38.1007 16.6337 37.8361 16.6337 37.5601C16.5763 35.1219 17.4727 32.7574 19.1319 30.9699C20.7912 29.1824 23.0825 28.1128 25.5183 27.9888C25.7942 27.9888 26.0589 28.0985 26.254 28.2936C26.4491 28.4887 26.5587 28.7533 26.5587 29.0292C26.5587 29.3051 26.4491 29.5698 26.254 29.7649C26.0589 29.96 25.7942 30.0695 25.5183 30.0695C23.6234 30.1771 21.8453 31.0203 20.5628 32.4194C19.2803 33.8185 18.5947 35.663 18.652 37.5601C18.6524 37.8256 18.5514 38.0811 18.3696 38.2746C18.1878 38.468 17.939 38.5846 17.674 38.6005Z" fill="#404040"/>
<path d="M44.5257 25.6168H42.445V20.415H40.3643C40.1761 20.4145 39.9915 20.363 39.8303 20.2659C39.6691 20.1688 39.5372 20.0297 39.4488 19.8636C39.3652 19.7009 39.3261 19.5191 39.3352 19.3365C39.3443 19.1538 39.4015 18.9768 39.5008 18.8233L45.7429 9.46005C45.8381 9.31843 45.9667 9.2024 46.1172 9.12217C46.2678 9.04194 46.4358 9 46.6064 9C46.777 9 46.9451 9.04194 47.0956 9.12217C47.2462 9.2024 47.3748 9.31843 47.4699 9.46005L53.7121 18.8233C53.8114 18.9768 53.8685 19.1538 53.8777 19.3365C53.8868 19.5191 53.8476 19.7009 53.7641 19.8636C53.6756 20.0297 53.5438 20.1688 53.3826 20.2659C53.2213 20.363 53.0368 20.4145 52.8486 20.415H50.7679V22.4958H48.6871V19.3747C48.6871 19.0988 48.7968 18.8342 48.9919 18.6391C49.187 18.444 49.4516 18.3343 49.7275 18.3343H50.9031L46.6064 11.8841L42.3097 18.3343H43.4854C43.7613 18.3343 44.0259 18.444 44.221 18.6391C44.4161 18.8342 44.5257 19.0988 44.5257 19.3747V25.6168Z" fill="#FA4616"/>
<path d="M53.8889 46.424H51.8082V34.9801C51.8082 34.7041 51.9178 34.4395 52.1129 34.2444C52.308 34.0493 52.5726 33.9397 52.8486 33.9397H54.0242L49.7275 27.4895L45.4308 33.9397H46.6064C46.8823 33.9397 47.147 34.0493 47.3421 34.2444C47.5372 34.4395 47.6468 34.7041 47.6468 34.9801V39.1415H45.5661V36.0204H43.4853C43.2971 36.0199 43.1126 35.9684 42.9514 35.8713C42.7902 35.7742 42.6583 35.6351 42.5698 35.469C42.4863 35.3063 42.4471 35.1245 42.4563 34.9418C42.4654 34.7592 42.5225 34.5822 42.6219 34.4286L48.864 25.0654C48.9592 24.9238 49.0877 24.8078 49.2383 24.7275C49.3889 24.6473 49.5569 24.6054 49.7275 24.6054C49.8981 24.6054 50.0661 24.6473 50.2167 24.7275C50.3673 24.8078 50.4958 24.9238 50.591 25.0654L56.8332 34.4286C56.9325 34.5822 56.9896 34.7592 56.9987 34.9418C57.0079 35.1245 56.9687 35.3063 56.8852 35.469C56.7967 35.6351 56.6648 35.7742 56.5036 35.8713C56.3424 35.9684 56.1578 36.0199 55.9696 36.0204H53.8889V46.424Z" fill="#FA4616"/>
<path d="M39.324 55.7872H37.2432V49.545H35.1625C34.9743 49.5445 34.7898 49.493 34.6286 49.3959C34.4673 49.2988 34.3355 49.1598 34.247 48.9936C34.1635 48.8309 34.1243 48.6491 34.1334 48.4665C34.1426 48.2838 34.1997 48.1068 34.299 47.9533L40.5412 38.5901C40.6364 38.4484 40.7649 38.3324 40.9155 38.2522C41.0661 38.1719 41.2341 38.13 41.4047 38.13C41.5753 38.13 41.7433 38.1719 41.8939 38.2522C42.0445 38.3324 42.173 38.4484 42.2682 38.5901L48.5103 47.9533C48.6097 48.1068 48.6668 48.2838 48.6759 48.4665C48.685 48.6491 48.6459 48.8309 48.5623 48.9936C48.4739 49.1598 48.342 49.2988 48.1808 49.3959C48.0196 49.493 47.835 49.5445 47.6468 49.545H45.5661V52.6661H43.4854V48.5047C43.4854 48.2288 43.595 47.9642 43.7901 47.7691C43.9852 47.574 44.2498 47.4643 44.5257 47.4643H45.7014L41.4047 41.0141L37.108 47.4643H38.2836C38.5595 47.4643 38.8242 47.574 39.0193 47.7691C39.2144 47.9642 39.324 48.2288 39.324 48.5047V55.7872Z" fill="#FA4616"/>
</svg>
