<svg width="64" height="64" viewBox="0 0 64 64" fill="none" xmlns="http://www.w3.org/2000/svg">
<path d="M37.174 41.2705C36.8979 41.2705 36.6332 41.1608 36.438 40.9656C36.2427 40.7704 36.133 40.5056 36.133 40.2295C36.133 39.9534 36.2427 39.6886 36.438 39.4934C36.6332 39.2982 36.8979 39.1885 37.174 39.1885C37.9854 39.137 38.7501 38.7914 39.325 38.2165C39.8999 37.6417 40.2454 36.8769 40.297 36.0656V28.7787C40.297 26.2803 35.2898 24.6147 31.9691 24.6147C28.6484 24.6147 23.6412 26.2387 23.6412 28.7787V40.2295C23.6412 40.5056 23.5316 40.7704 23.3364 40.9656C23.1411 41.1608 22.8763 41.2705 22.6002 41.2705C22.3242 41.2705 22.0594 41.1608 21.8642 40.9656C21.669 40.7704 21.5593 40.5056 21.5593 40.2295V28.7787C21.5593 24.7084 27.6074 22.5328 31.9691 22.5328C36.3308 22.5328 42.3789 24.7084 42.3789 28.7787V36.0656C42.3298 37.4304 41.7657 38.7259 40.8 39.6916C39.8344 40.6572 38.5388 41.2214 37.174 41.2705V41.2705Z" fill="#FA4616"/>
<path d="M37.174 54.8033C36.8979 54.8033 36.6332 54.6936 36.4379 54.4984C36.2427 54.3032 36.133 54.0384 36.133 53.7623V29.8197C36.133 29.5436 36.2427 29.2788 36.4379 29.0836C36.6332 28.8884 36.8979 28.7787 37.174 28.7787C37.4501 28.7787 37.7149 28.8884 37.9101 29.0836C38.1053 29.2788 38.215 29.5436 38.215 29.8197V53.7623C38.215 54.0384 38.1053 54.3032 37.9101 54.4984C37.7149 54.6936 37.4501 54.8033 37.174 54.8033Z" fill="#FA4616"/>
<path d="M26.7642 41.2705C26.4881 41.2705 26.2233 41.1608 26.0281 40.9656C25.8329 40.7704 25.7232 40.5056 25.7232 40.2295V29.8197C25.7232 29.5436 25.8329 29.2788 26.0281 29.0836C26.2233 28.8884 26.4881 28.7787 26.7642 28.7787C27.0403 28.7787 27.3051 28.8884 27.5003 29.0836C27.6955 29.2788 27.8052 29.5436 27.8052 29.8197V40.2295C27.8052 40.5056 27.6955 40.7704 27.5003 40.9656C27.3051 41.1608 27.0403 41.2705 26.7642 41.2705Z" fill="#FA4616"/>
<path d="M31.9691 54.8033C31.693 54.8033 31.4282 54.6936 31.233 54.4984C31.0378 54.3032 30.9281 54.0384 30.9281 53.7623V39.1885C30.9281 38.9125 31.0378 38.6477 31.233 38.4524C31.4282 38.2572 31.693 38.1476 31.9691 38.1476C32.2452 38.1476 32.51 38.2572 32.7052 38.4524C32.9004 38.6477 33.0101 38.9125 33.0101 39.1885V53.7623C33.0101 54.0384 32.9004 54.3032 32.7052 54.4984C32.51 54.6936 32.2452 54.8033 31.9691 54.8033Z" fill="#FA4616"/>
<path d="M26.7642 54.8033C26.4881 54.8033 26.2233 54.6936 26.0281 54.4984C25.8329 54.3032 25.7232 54.0384 25.7232 53.7623V48.5574C25.7232 48.2813 25.8329 48.0165 26.0281 47.8213C26.2233 47.6261 26.4881 47.5164 26.7642 47.5164C27.0403 47.5164 27.3051 47.6261 27.5003 47.8213C27.6955 48.0165 27.8052 48.2813 27.8052 48.5574V53.7623C27.8052 54.0384 27.6955 54.3032 27.5003 54.4984C27.3051 54.6936 27.0403 54.8033 26.7642 54.8033Z" fill="#FA4616"/>
<path d="M27.8052 49.5984H18.4363C18.1602 49.5984 17.8955 49.4887 17.7002 49.2935C17.505 49.0983 17.3953 48.8335 17.3953 48.5574V40.2295C17.3953 39.9534 17.505 39.6887 17.7002 39.4934C17.8955 39.2982 18.1602 39.1885 18.4363 39.1885H27.8052C28.0813 39.1885 28.346 39.2982 28.5413 39.4934C28.7365 39.6887 28.8461 39.9534 28.8461 40.2295V48.5574C28.8461 48.8335 28.7365 49.0983 28.5413 49.2935C28.346 49.4887 28.0813 49.5984 27.8052 49.5984ZM19.4773 47.5164H26.7642V41.2705H19.4773V47.5164Z" fill="#FA4616"/>
<path d="M31.9691 21.4918C31.2793 21.515 30.5921 21.3963 29.9502 21.1429C29.3082 20.8895 28.7251 20.507 28.237 20.019C27.749 19.5309 27.3665 18.9478 27.1131 18.3058C26.8598 17.6639 26.741 16.9767 26.7642 16.2869V14.2049C26.7642 12.8245 27.3126 11.5006 28.2887 10.5245C29.2648 9.54837 30.5887 9 31.9691 9C33.3495 9 34.6734 9.54837 35.6495 10.5245C36.6257 11.5006 37.174 12.8245 37.174 14.2049V16.2869C37.1988 16.9771 37.0811 17.665 36.8283 18.3076C36.5755 18.9503 36.1929 19.534 35.7046 20.0224C35.2163 20.5107 34.6325 20.8932 33.9898 21.146C33.3472 21.3989 32.6593 21.5166 31.9691 21.4918V21.4918ZM31.9691 11.082C31.5527 11.0578 31.1358 11.122 30.7459 11.2703C30.3561 11.4187 30.0021 11.6479 29.7071 11.9429C29.4121 12.2379 29.1829 12.5919 29.0345 12.9818C28.8861 13.3716 28.8219 13.7885 28.8461 14.2049V16.2869C28.8461 17.1151 29.1752 17.9095 29.7608 18.4952C30.3465 19.0808 31.1408 19.4098 31.9691 19.4098C32.7973 19.4098 33.5917 19.0808 34.1774 18.4952C34.763 17.9095 35.092 17.1151 35.092 16.2869V14.2049C35.1162 13.7885 35.0521 13.3716 34.9037 12.9818C34.7553 12.5919 34.5261 12.2379 34.2311 11.9429C33.9362 11.6479 33.5821 11.4187 33.1923 11.2703C32.8024 11.122 32.3855 11.0578 31.9691 11.082V11.082Z" fill="#FA4616"/>
<path d="M21.5593 55.8443H20.5183C18.0335 55.8443 15.6505 54.8572 13.8935 53.1002C12.1365 51.3432 11.1494 48.9602 11.1494 46.4755V23.5738H8.02646C7.83814 23.5733 7.6535 23.5217 7.49218 23.4246C7.33086 23.3274 7.19893 23.1883 7.11042 23.0221C7.02836 22.8584 6.9909 22.676 7.00187 22.4932C7.01283 22.3104 7.07184 22.1338 7.17288 21.9811L14.4598 11.5713C14.5594 11.4274 14.6936 11.311 14.85 11.2328C15.0065 11.1546 15.1802 11.117 15.355 11.1236C15.5285 11.1307 15.6976 11.1811 15.8466 11.2702C15.9957 11.3593 16.1202 11.4842 16.2086 11.6337L22.4545 22.0436C22.5482 22.2016 22.5984 22.3816 22.6 22.5654C22.6017 22.7491 22.5546 22.93 22.4637 23.0897C22.3727 23.2493 22.2412 23.3821 22.0823 23.4744C21.9235 23.5668 21.743 23.6154 21.5593 23.6154H18.4363V32.9843H16.3543V22.5745C16.3543 22.2984 16.464 22.0336 16.6592 21.8384C16.8545 21.6432 17.1192 21.5335 17.3953 21.5335H19.7271L15.2509 14.08L10.046 21.5335H12.2112C12.4873 21.5335 12.7521 21.6432 12.9473 21.8384C13.1425 22.0336 13.2522 22.2984 13.2522 22.5745V46.5171C13.2522 48.4497 14.02 50.3032 15.3865 51.6697C16.7531 53.0363 18.6065 53.804 20.5391 53.804H21.5801L21.5593 55.8443Z" fill="#404040"/>
<path d="M48.6248 53.7623C48.4523 53.7564 48.2839 53.7076 48.1349 53.6203C47.9859 53.5331 47.8609 53.4102 47.7713 53.2627L41.5254 42.8528C41.434 42.6946 41.3859 42.5151 41.3859 42.3323C41.3859 42.1496 41.434 41.9701 41.5254 41.8118C41.6157 41.651 41.7472 41.5171 41.9064 41.4238C42.0655 41.3306 42.2466 41.2812 42.431 41.2809H45.554V32.953H47.6359V42.3219C47.6359 42.598 47.5262 42.8628 47.331 43.058C47.1358 43.2532 46.871 43.3629 46.5949 43.3629H44.2735L48.7498 50.8267L53.9547 43.3629H51.7894C51.5134 43.3629 51.2486 43.2532 51.0534 43.058C50.8582 42.8628 50.7485 42.598 50.7485 42.3219V26.7071C50.7485 24.7745 49.9808 22.9211 48.6142 21.5545C47.2476 20.188 45.3942 19.4203 43.4616 19.4203H42.4206V17.3383H43.4616C45.9463 17.3383 48.3293 18.3254 50.0863 20.0824C51.8433 21.8394 52.8304 24.2224 52.8304 26.7071V41.2809H55.9534C56.145 41.2799 56.3332 41.3318 56.4972 41.4308C56.6612 41.5299 56.7947 41.6723 56.883 41.8424C56.9712 42.0124 57.0109 42.2036 56.9974 42.3947C56.984 42.5859 56.9181 42.7696 56.807 42.9257L49.5201 53.3355C49.4182 53.4755 49.2829 53.5879 49.1266 53.6624C48.9703 53.7369 48.7978 53.7713 48.6248 53.7623V53.7623Z" fill="#404040"/>
</svg>
