<svg width="64" height="64" viewBox="0 0 64 64" fill="none" xmlns="http://www.w3.org/2000/svg">
<path d="M20.549 44.5823H8.04223C7.76581 44.5823 7.50073 44.4725 7.30528 44.2771C7.10982 44.0816 7 43.8165 7 43.5401V34.16C7 33.8836 7.10982 33.6185 7.30528 33.4231C7.50073 33.2276 7.76581 33.1178 8.04223 33.1178H20.549C20.8254 33.1178 21.0905 33.2276 21.286 33.4231C21.4814 33.6185 21.5912 33.8836 21.5912 34.16V43.5401C21.5912 43.8165 21.4814 44.0816 21.286 44.2771C21.0905 44.4725 20.8254 44.5823 20.549 44.5823ZM9.08446 42.4979H19.5068V35.2023H9.08446V42.4979Z" fill="#404040"/>
<path d="M11.2523 55.015C11.1385 55.0125 11.0258 54.9914 10.9188 54.9525C10.6582 54.8645 10.443 54.6771 10.32 54.4311C10.197 54.1851 10.1762 53.9005 10.2622 53.6393L13.7745 43.217C13.8616 42.9544 14.0494 42.7371 14.2967 42.613C14.5439 42.4889 14.8303 42.4681 15.0929 42.5551C15.3555 42.6422 15.5728 42.83 15.6969 43.0773C15.821 43.3245 15.8418 43.611 15.7548 43.8736L12.2424 54.2959C12.1743 54.5048 12.0418 54.6869 11.864 54.8161C11.6862 54.9452 11.4721 55.0149 11.2523 55.015Z" fill="#404040"/>
<path d="M29.9291 32.409C29.7532 32.4096 29.5804 32.3628 29.4288 32.2735L23.3005 28.8655C23.0613 28.7315 22.8846 28.5087 22.8085 28.2454C22.7324 27.982 22.7631 27.6993 22.894 27.4584C22.9595 27.3378 23.0481 27.2312 23.1549 27.1449C23.2616 27.0586 23.3844 26.9942 23.5161 26.9554C23.6478 26.9167 23.7859 26.9044 23.9224 26.9191C24.0589 26.9339 24.1911 26.9755 24.3115 27.0415L30.4398 30.408C30.6452 30.5187 30.8074 30.6953 30.9006 30.9093C30.9937 31.1232 31.0124 31.3623 30.9535 31.5881C30.8947 31.8139 30.7617 32.0135 30.5759 32.1548C30.3902 32.296 30.1624 32.3709 29.9291 32.3673V32.409Z" fill="#404040"/>
<path d="M15.4212 55.0151C15.293 55.011 15.1664 54.9863 15.046 54.9421C14.9177 54.8926 14.8005 54.8182 14.7011 54.7231C14.6017 54.6281 14.5221 54.5143 14.4669 54.3883C14.4117 54.2624 14.3819 54.1268 14.3793 53.9893C14.3768 53.8518 14.4015 53.7151 14.4519 53.5872L18.4958 43.1649C18.5458 43.0369 18.6204 42.92 18.7156 42.8209C18.8107 42.7218 18.9244 42.6424 19.0502 42.5873C19.176 42.5321 19.3115 42.5022 19.4488 42.4994C19.5862 42.4966 19.7227 42.5209 19.8507 42.5708C19.9787 42.6208 20.0955 42.6955 20.1946 42.7906C20.2938 42.8857 20.3732 42.9994 20.4283 43.1252C20.4835 43.2511 20.5134 43.3865 20.5162 43.5238C20.519 43.6612 20.4947 43.7978 20.4448 43.9257L16.3905 54.348C16.3149 54.5439 16.1819 54.7124 16.009 54.8314C15.836 54.9504 15.6312 55.0144 15.4212 55.0151V55.0151Z" fill="#404040"/>
<path d="M27.7925 48.7512C27.5412 48.7541 27.2973 48.666 27.1058 48.5032C26.9142 48.3404 26.788 48.1139 26.7503 47.8654L25.8331 41.6953L20.1738 39.5171C19.9154 39.419 19.7065 39.2222 19.5931 38.97C19.4798 38.7179 19.4712 38.431 19.5693 38.1726C19.6675 37.9141 19.8642 37.7053 20.1164 37.5919C20.3685 37.4785 20.6553 37.47 20.9138 37.5681L27.1672 39.9652C27.3399 40.0318 27.4917 40.1432 27.6071 40.2879C27.7225 40.4326 27.7973 40.6054 27.8238 40.7886L28.866 47.5631C28.9049 47.8352 28.8347 48.1116 28.6707 48.3322C28.5067 48.5527 28.2623 48.6996 27.9905 48.7408L27.7925 48.7512ZM32.0135 48.7512C31.7575 48.7531 31.5097 48.6606 31.3175 48.4915C31.1253 48.3223 31.002 48.0883 30.9713 47.8341L29.9291 38.9751L23.1233 35.0668C22.9643 34.9749 22.8323 34.8427 22.7408 34.6835C22.6493 34.5242 22.6015 34.3437 22.6022 34.16V23.7377C22.6022 22.7893 22.2791 22.6017 20.9034 21.9451L20.0904 21.5386C19.4531 21.1554 18.7235 20.953 17.9799 20.953C17.2363 20.953 16.5067 21.1554 15.8694 21.5386C15.1961 21.9175 14.5454 22.3351 13.9204 22.7893C13.7101 22.9505 13.541 23.1592 13.4269 23.3983C13.3128 23.6374 13.2569 23.9001 13.2638 24.165V34.16C13.2638 34.4364 13.154 34.7015 12.9586 34.897C12.7631 35.0924 12.498 35.2022 12.2216 35.2022C11.9452 35.2022 11.6801 35.0924 11.4846 34.897C11.2892 34.7015 11.1794 34.4364 11.1794 34.16V24.1546C11.1736 23.5725 11.3024 22.9969 11.5554 22.4727C11.8085 21.9485 12.1791 21.4897 12.6385 21.1321C13.3671 20.6088 14.1258 20.1285 14.9106 19.6938C15.8482 19.1513 16.9123 18.8656 17.9956 18.8656C19.0788 18.8656 20.1429 19.1513 21.0805 19.6938C21.3411 19.8293 21.6017 19.944 21.8414 20.0586C23.2588 20.7361 24.7284 21.4344 24.7284 23.7377V33.5347L31.4612 37.4014C31.6032 37.4818 31.7243 37.5944 31.8148 37.7301C31.9053 37.8659 31.9627 38.021 31.9823 38.183L33.0245 47.5631C33.0405 47.6993 33.0294 47.8374 32.9919 47.9693C32.9545 48.1012 32.8913 48.2245 32.8061 48.3319C32.7209 48.4394 32.6153 48.529 32.4954 48.5956C32.3755 48.6622 32.2436 48.7045 32.1074 48.72L32.0135 48.7512ZM16.3801 35.2022C16.1175 35.2031 15.8643 35.1048 15.6711 34.927C15.4779 34.7493 15.3588 34.5051 15.3378 34.2434C15.3378 34.0072 15.3378 33.7674 15.3378 33.5243V25.374C15.3378 25.0976 15.4477 24.8325 15.6431 24.637C15.8386 24.4416 16.1037 24.3318 16.3801 24.3318C16.6565 24.3318 16.9216 24.4416 17.1171 24.637C17.3125 24.8325 17.4223 25.0976 17.4223 25.374V33.5347C17.4223 33.7223 17.4223 33.9099 17.4223 34.0871C17.4454 34.362 17.3586 34.6349 17.1808 34.8459C17.003 35.0569 16.7488 35.1888 16.4739 35.2127L16.3801 35.2022Z" fill="#404040"/>
<path d="M36.7245 47.5631L35.6822 45.7809C40.3827 42.9564 40.3827 38.0788 40.3827 36.2445V34.16C40.3827 33.8836 40.4925 33.6185 40.688 33.423C40.8834 33.2276 41.1485 33.1178 41.4249 33.1178H41.477L38.8194 29.4387L36.1617 33.1178H36.2138C36.4902 33.1178 36.7553 33.2276 36.9507 33.423C37.1462 33.6185 37.256 33.8836 37.256 34.16V37.2867C37.2877 38.1482 37.1285 39.0062 36.7897 39.799C36.451 40.5918 35.9411 41.2999 35.2966 41.8725L33.9417 40.2987C34.3518 39.9144 34.672 39.4441 34.8792 38.9216C35.0864 38.3991 35.1755 37.8372 35.1403 37.2763V35.1918H34.098C33.9066 35.1922 33.7189 35.1399 33.5552 35.0406C33.3916 34.9413 33.2585 34.7989 33.1705 34.629C33.0913 34.4633 33.0573 34.2797 33.072 34.0967C33.0866 33.9137 33.1494 33.7378 33.2538 33.5868L37.9439 27.0728C38.0405 26.9394 38.1674 26.8307 38.3142 26.7558C38.4609 26.6809 38.6233 26.6418 38.7881 26.6418C38.9528 26.6418 39.1153 26.6809 39.262 26.7558C39.4088 26.8307 39.5357 26.9394 39.6323 27.0728L44.3223 33.5868C44.4268 33.7378 44.4895 33.9137 44.5042 34.0967C44.5188 34.2797 44.4848 34.4633 44.4057 34.629C44.3177 34.7989 44.1845 34.9413 44.0209 35.0406C43.8573 35.1399 43.6695 35.1922 43.4781 35.1918H42.4359V36.234C42.4359 38.2038 42.4359 44.1341 36.7245 47.5631Z" fill="#FA4616"/>
<path d="M28.6263 54.5564H24.7179V52.472H28.6263C37.2768 52.472 46.6048 45.8642 46.6048 35.2022V25.8221H44.5203C44.3367 25.8229 44.1561 25.775 43.9969 25.6835C43.8377 25.592 43.7054 25.4601 43.6136 25.301C43.5221 25.1426 43.474 24.9628 43.474 24.7799C43.474 24.5969 43.5221 24.4172 43.6136 24.2588L49.2208 14.8787C49.3121 14.7246 49.4416 14.5967 49.5968 14.5072C49.752 14.4178 49.9276 14.3698 50.1067 14.368C50.2856 14.3718 50.4609 14.4193 50.6172 14.5065C50.7734 14.5938 50.9059 14.718 51.003 14.8683L56.8604 24.2484C56.9518 24.4068 57 24.5865 57 24.7695C57 24.9524 56.9518 25.1322 56.8604 25.2906C56.769 25.4531 56.6357 25.5882 56.4744 25.6817C56.3131 25.7752 56.1296 25.8237 55.9432 25.8221H53.8587V35.2022C53.8587 40.2675 52.5664 44.28 49.9191 47.4797L48.3141 46.1456C50.6799 43.3003 51.7743 39.8193 51.7743 35.2022V24.7799C51.7743 24.5035 51.8841 24.2384 52.0795 24.0429C52.275 23.8475 52.5401 23.7377 52.8165 23.7377H54.0672L50.1067 17.4009L46.313 23.7377H47.6053C47.8818 23.7377 48.1468 23.8475 48.3423 24.0429C48.5378 24.2384 48.6476 24.5035 48.6476 24.7799V35.2022C48.6893 47.1566 38.2774 54.5564 28.6263 54.5564Z" fill="#404040"/>
<path d="M22.1124 18.5265C21.5 18.539 20.8914 18.429 20.3222 18.203C19.753 17.977 19.2347 17.6395 18.7978 17.2103C18.3609 16.7811 18.0141 16.269 17.7779 15.7039C17.5417 15.1389 17.4208 14.5323 17.4223 13.9199V12.69C17.4223 11.4462 17.9164 10.2532 18.796 9.37368C19.6756 8.49413 20.8685 8 22.1124 8C23.3562 8 24.5492 8.49413 25.4287 9.37368C26.3083 10.2532 26.8024 11.4462 26.8024 12.69V13.8886C26.8081 14.5037 26.6903 15.1136 26.456 15.6823C26.2217 16.251 25.8755 16.7669 25.4382 17.1994C25.0008 17.6319 24.4811 17.9722 23.9098 18.2002C23.3385 18.4281 22.7273 18.5391 22.1124 18.5265V18.5265ZM22.1124 10.1887C21.7733 10.1775 21.4355 10.2348 21.1191 10.3571C20.8027 10.4795 20.5142 10.6645 20.271 10.9009C20.0277 11.1373 19.8347 11.4204 19.7034 11.7332C19.5721 12.046 19.5052 12.3821 19.5068 12.7213V13.9199C19.5068 14.6109 19.7813 15.2737 20.2699 15.7623C20.7586 16.2509 21.4213 16.5255 22.1124 16.5255C22.8034 16.5255 23.4662 16.2509 23.9548 15.7623C24.4434 15.2737 24.7179 14.6109 24.7179 13.9199V12.69C24.7168 12.353 24.6478 12.0197 24.5151 11.7099C24.3825 11.4001 24.1888 11.1201 23.9457 10.8867C23.7026 10.6534 23.4149 10.4713 23.1 10.3513C22.785 10.2314 22.4491 10.1761 22.1124 10.1887V10.1887Z" fill="#404040"/>
</svg>
