<svg width="64" height="64" viewBox="0 0 64 64" fill="none" xmlns="http://www.w3.org/2000/svg">
<path d="M44.1411 26.7957H42.0581V17.4222C42.0581 17.146 42.1678 16.8811 42.3631 16.6858C42.5584 16.4905 42.8234 16.3807 43.0996 16.3807H45.1826L39.9751 9.74634L34.8196 16.3807H36.8506C37.1268 16.3807 37.3917 16.4905 37.587 16.6858C37.7823 16.8811 37.8921 17.146 37.8921 17.4222V19.5052H35.8091V18.4637H32.6846C32.4911 18.4622 32.302 18.4068 32.1382 18.3038C31.9745 18.2008 31.8427 18.0542 31.7576 17.8805C31.6692 17.7053 31.6321 17.5088 31.6506 17.3135C31.669 17.1182 31.7422 16.932 31.8618 16.7765L39.1523 7.40296C39.2496 7.27752 39.3744 7.176 39.517 7.10616C39.6596 7.03632 39.8163 7 39.9751 7C40.1339 7 40.2905 7.03632 40.4331 7.10616C40.5758 7.176 40.7005 7.27752 40.7979 7.40296L48.0884 16.7765C48.21 16.9304 48.2857 17.1155 48.3067 17.3105C48.3278 17.5055 48.2933 17.7025 48.2074 17.8788C48.1214 18.055 47.9874 18.2035 47.8208 18.307C47.6542 18.4104 47.4617 18.4648 47.2656 18.4637H44.1411V26.7957Z" fill="#FA4616"/>
<path d="M38.9336 54.9163H36.8506V40.3353H33.7261C33.5326 40.3337 33.3435 40.2783 33.1797 40.1753C33.016 40.0723 32.8842 39.9257 32.7991 39.752C32.7107 39.5769 32.6736 39.3804 32.6921 39.1851C32.7105 38.9897 32.7837 38.8036 32.9033 38.648L40.1938 29.2745C40.2912 29.1491 40.4159 29.0475 40.5585 28.9777C40.7011 28.9079 40.8578 28.8716 41.0166 28.8716C41.1754 28.8716 41.332 28.9079 41.4747 28.9777C41.6173 29.0475 41.742 29.1491 41.8394 29.2745L49.1299 38.648C49.2515 38.8019 49.3272 38.987 49.3482 39.182C49.3693 39.377 49.3348 39.574 49.2489 39.7503C49.1629 39.9266 49.0289 40.075 48.8623 40.1785C48.6957 40.282 48.5032 40.3363 48.3071 40.3353H45.1826V46.5843H43.0996V39.2938C43.0996 39.0175 43.2093 38.7526 43.4046 38.5573C43.6 38.362 43.8649 38.2523 44.1411 38.2523H46.2241L41.0166 31.6179L35.8611 38.2523H37.8921C38.1683 38.2523 38.4332 38.362 38.6285 38.5573C38.8238 38.7526 38.9336 39.0175 38.9336 39.2938V54.9163Z" fill="#FA4616"/>
<path d="M27.8936 44.845L25.9252 44.1576C28.3102 37.315 24.8837 28.358 23.5402 26.5771L25.1961 25.3064C26.5293 27.077 30.7265 36.7213 27.8936 44.845Z" fill="#404040"/>
<path d="M31.5806 31.0867C30.2851 31.0726 29.0047 30.8073 27.8103 30.3056L27.2375 30.0349V29.4204C27.2375 29.2225 26.9979 24.7024 30.362 22.4006C33.726 20.0989 37.8504 21.9632 38.0275 22.0361L38.6003 22.2965V22.9214C38.6003 23.1193 38.8398 27.6394 35.4758 29.9411C34.3234 30.7089 32.9651 31.1084 31.5806 31.0867V31.0867ZM29.2997 28.6288C30.0965 29.0018 30.9768 29.1607 31.8538 29.0897C32.7308 29.0188 33.5741 28.7205 34.3006 28.2242C35.0271 27.7279 35.6118 27.0509 35.9968 26.2598C36.3819 25.4687 36.5541 24.5909 36.4964 23.7129C35.6996 23.3399 34.8193 23.1811 33.9423 23.252C33.0653 23.323 32.222 23.6213 31.4955 24.1176C30.769 24.6138 30.1843 25.2908 29.7993 26.0819C29.4142 26.873 29.242 27.7509 29.2997 28.6288V28.6288Z" fill="#404040"/>
<path d="M24.0818 26.9936C22.8528 26.9936 18.7076 26.7333 16.4684 23.4526C13.8542 19.6407 15.9684 14.9434 16.0622 14.7456L16.3226 14.1727H16.9475C17.1662 14.1727 22.3112 13.8915 24.915 17.7034C27.5187 21.5153 25.4045 26.2125 25.3211 26.4104L25.0608 26.9728H24.4359L24.0818 26.9936ZM17.7182 16.2245C17.3328 17.4223 16.6767 20.1302 18.1869 22.2757C19.697 24.4212 22.3529 24.8274 23.6547 24.8898C24.0401 23.6921 24.6962 20.9946 23.1965 18.8491C21.6967 16.7036 18.9784 16.2974 17.7182 16.2245V16.2245Z" fill="#404040"/>
<path d="M27.6541 31.3679L25.5711 30.993C25.9078 29.9069 26.6552 28.9951 27.6541 28.4518L28.6956 30.264L28.1852 29.3579L28.6956 30.264C28.279 30.5347 27.7374 31.0555 27.6541 31.3679Z" fill="#404040"/>
<path d="M21.0718 41.1789C20.1389 41.1919 19.2145 40.9999 18.3639 40.6165C14.6561 38.9397 14.0937 34.4508 14.0729 34.2529L14 33.6384L14.5103 33.2843C14.6666 33.1698 18.416 30.6181 22.1237 32.2428C25.8315 33.8676 26.3939 38.4189 26.4147 38.6064L26.4876 39.2313L25.9773 39.5854C24.519 40.5559 22.8221 41.1071 21.0718 41.1789V41.1789ZM16.2809 34.6487C16.3758 35.5244 16.6975 36.3601 17.2143 37.0733C17.7312 37.7866 18.4251 38.3527 19.2277 38.7155C20.0303 39.0784 20.9136 39.2256 21.7905 39.1425C22.6674 39.0595 23.5074 38.749 24.2276 38.2418C24.1269 37.3692 23.8017 36.5375 23.2838 35.828C22.7659 35.1184 22.073 34.5552 21.2725 34.1932C20.4721 33.8313 19.5915 33.683 18.7167 33.7628C17.8418 33.8426 17.0026 34.1479 16.2809 34.6487V34.6487Z" fill="#404040"/>
<path d="M26.8626 41.2622C26.3332 40.6159 25.6776 40.0843 24.9358 39.7L25.8731 37.8357C26.9229 38.3794 27.843 39.1431 28.5706 40.0749L26.8626 41.2622Z" fill="#404040"/>
<path d="M32.6846 49.7088H29.56C29.2838 49.7088 29.0189 49.5991 28.8236 49.4038C28.6283 49.2085 28.5185 48.9435 28.5185 48.6673C28.5185 48.3911 28.6283 48.1262 28.8236 47.9309C29.0189 47.7355 29.2838 47.6258 29.56 47.6258H31.643V45.5428H20.1865V47.6258H25.394C25.6703 47.6258 25.9352 47.7355 26.1305 47.9309C26.3258 48.1262 26.4355 48.3911 26.4355 48.6673C26.4355 48.9435 26.3258 49.2085 26.1305 49.4038C25.9352 49.5991 25.6703 49.7088 25.394 49.7088H19.145C18.8688 49.7088 18.6039 49.5991 18.4086 49.4038C18.2132 49.2085 18.1035 48.9435 18.1035 48.6673V44.5013C18.1035 44.2251 18.2132 43.9602 18.4086 43.7648C18.6039 43.5695 18.8688 43.4598 19.145 43.4598H32.6846C32.9608 43.4598 33.2257 43.5695 33.421 43.7648C33.6163 43.9602 33.7261 44.2251 33.7261 44.5013V48.6673C33.7261 48.9435 33.6163 49.2085 33.421 49.4038C33.2257 49.5991 32.9608 49.7088 32.6846 49.7088Z" fill="#404040"/>
<path d="M29.5601 56.9993H22.2695C22.0358 57.0079 21.8059 56.9377 21.617 56.7997C21.428 56.6618 21.291 56.4643 21.228 56.239L19.145 48.9485C19.1074 48.8165 19.0962 48.6784 19.1119 48.5421C19.1277 48.4058 19.1701 48.2739 19.2369 48.1539C19.3036 48.034 19.3933 47.9284 19.5009 47.8432C19.6084 47.7579 19.7317 47.6946 19.8637 47.657C19.9957 47.6194 20.1337 47.6082 20.2701 47.6239C20.4064 47.6397 20.5383 47.6822 20.6582 47.7489C20.7781 47.8156 20.8838 47.9053 20.969 48.0128C21.0543 48.1204 21.1175 48.2437 21.1551 48.3757L23.0194 54.9163H28.7789L30.6432 48.3757C30.7192 48.1091 30.8979 47.8837 31.1401 47.7489C31.3823 47.6141 31.6681 47.5811 31.9347 47.657C32.2012 47.733 32.4267 47.9117 32.5615 48.1539C32.6962 48.3961 32.7293 48.6819 32.6533 48.9485L30.5703 56.239C30.5086 56.459 30.3763 56.6526 30.1937 56.79C30.0112 56.9274 29.7885 57.0009 29.5601 56.9993Z" fill="#404040"/>
</svg>
