<svg width="64" height="64" viewBox="0 0 64 64" fill="none" xmlns="http://www.w3.org/2000/svg">
<path d="M38.0851 56.9683C37.8404 56.9733 37.6017 56.8922 37.4105 56.7394C37.2194 56.5865 37.088 56.3714 37.0391 56.1316L35.1667 46.7804C35.1113 46.503 35.1682 46.2149 35.3252 45.9795C35.4821 45.7441 35.7261 45.5807 36.0035 45.5252C36.2809 45.4698 36.569 45.5267 36.8044 45.6837C37.0398 45.8406 37.2032 46.0846 37.2587 46.362L39.1311 55.7759C39.1833 56.0477 39.1256 56.3291 38.9707 56.5585C38.8158 56.7879 38.5763 56.9466 38.3047 56.9997C38.2302 57.002 38.1559 56.9913 38.0851 56.9683V56.9683Z" fill="#404040"/>
<path d="M16.7573 56.9683C16.6213 56.97 16.4863 56.9451 16.3598 56.8951C16.2317 56.8435 16.115 56.7669 16.0166 56.6699C15.9182 56.5729 15.84 56.4573 15.7865 56.3299C15.7331 56.2025 15.7053 56.0658 15.705 55.9276C15.7046 55.7894 15.7317 55.6526 15.7846 55.5249L18.6192 48.6214C18.6714 48.4943 18.7481 48.3788 18.8449 48.2814C18.9418 48.1839 19.0569 48.1066 19.1836 48.0536C19.3104 48.0007 19.4463 47.9732 19.5837 47.9728C19.721 47.9724 19.8571 47.9991 19.9842 48.0513C20.1113 48.1035 20.2268 48.1802 20.3242 48.2771C20.4216 48.3739 20.499 48.489 20.5519 48.6157C20.6049 48.7425 20.6323 48.8784 20.6327 49.0158C20.6331 49.1532 20.6065 49.2893 20.5543 49.4163L17.7197 56.3198C17.6412 56.5108 17.5079 56.6744 17.3367 56.7898C17.1654 56.9052 16.9638 56.9673 16.7573 56.9683Z" fill="#404040"/>
<path d="M26.5163 45.4625C26.3759 45.465 26.2366 45.4364 26.1084 45.3788C25.8533 45.2704 25.6517 45.0653 25.5478 44.8084C25.4438 44.5514 25.4461 44.2638 25.5541 44.0085L27.3636 39.7095C27.472 39.4545 27.6771 39.2528 27.934 39.1489C28.191 39.0449 28.4786 39.0472 28.7339 39.1552C28.9889 39.2635 29.1906 39.4687 29.2945 39.7256C29.3985 39.9825 29.3962 40.2702 29.2882 40.5254L27.4787 44.8244C27.3986 45.0135 27.2647 45.1748 27.0935 45.2882C26.9224 45.4017 26.7217 45.4623 26.5163 45.4625Z" fill="#FA4616"/>
<path d="M21.5166 56.9683C21.3686 56.9676 21.2224 56.9355 21.0878 56.8742C20.8357 56.76 20.6391 56.5506 20.541 56.2918C20.443 56.0331 20.4516 55.746 20.5648 55.4935L24.1629 47.4603C24.2192 47.3346 24.2998 47.2212 24.3999 47.1267C24.5 47.0321 24.6178 46.9582 24.7465 46.9091C24.8752 46.8601 25.0123 46.8369 25.15 46.8408C25.2876 46.8447 25.4232 46.8757 25.5489 46.9321C25.6746 46.9884 25.7879 47.0689 25.8825 47.169C25.9771 47.2692 26.051 47.3869 26.1 47.5156C26.1491 47.6443 26.1723 47.7814 26.1684 47.9191C26.1644 48.0568 26.1334 48.1923 26.0771 48.318L22.4684 56.3512C22.3859 56.5347 22.2523 56.6905 22.0834 56.8C21.9146 56.9094 21.7178 56.9679 21.5166 56.9683Z" fill="#FA4616"/>
<path d="M23.9956 35.2536C23.8516 35.2574 23.7086 35.2288 23.5772 35.1699C23.324 35.0596 23.1247 34.8536 23.0228 34.5969C22.9209 34.3402 22.9247 34.0536 23.0333 33.7997L27.8448 22.5867L23.9956 20.934C23.8224 20.8593 23.6727 20.7392 23.5622 20.5864C23.4517 20.4336 23.3846 20.2537 23.368 20.0659C23.3524 19.8779 23.3879 19.6893 23.4708 19.5199C23.5536 19.3505 23.6808 19.2066 23.8387 19.1036L36.4847 10.8716C36.6292 10.7774 36.7949 10.7205 36.9668 10.7058C37.1387 10.6911 37.3116 10.7192 37.47 10.7875C37.6285 10.8559 37.7675 10.9624 37.8748 11.0975C37.9821 11.2326 38.0544 11.3922 38.0851 11.562L40.8151 26.4045C40.8496 26.591 40.8328 26.7833 40.7664 26.9609C40.7001 27.1385 40.5868 27.2947 40.4385 27.4129C40.2903 27.5311 40.1127 27.6067 39.9248 27.6318C39.7368 27.6568 39.5456 27.6303 39.3716 27.5551L35.5224 25.892L31.9765 33.9566C31.9209 34.0823 31.8411 34.1959 31.7416 34.2908C31.6421 34.3856 31.5249 34.46 31.3967 34.5095C31.2685 34.5591 31.1317 34.5828 30.9943 34.5795C30.8568 34.5762 30.7214 34.5458 30.5958 34.49C30.47 34.4345 30.3565 34.3547 30.2616 34.2552C30.1667 34.1557 30.0924 34.0385 30.0428 33.9103C29.9933 33.782 29.9695 33.6453 29.9728 33.5079C29.9762 33.3704 30.0066 33.235 30.0623 33.1093L34.0266 24.1348C34.1369 23.8816 34.3429 23.6823 34.5996 23.5804C34.8563 23.4785 35.1429 23.4822 35.3969 23.5908L38.3988 24.8879L36.3069 13.518L26.621 19.7939L29.623 21.0909C29.7506 21.1445 29.8663 21.2229 29.9633 21.3216C30.0604 21.4202 30.1369 21.5371 30.1885 21.6655C30.2401 21.7939 30.2656 21.9313 30.2637 22.0697C30.2618 22.2081 30.2324 22.3447 30.1774 22.4716L24.9474 34.6365C24.8649 34.82 24.7312 34.9758 24.5624 35.0853C24.3936 35.1947 24.1968 35.2532 23.9956 35.2536V35.2536Z" fill="#FA4616"/>
<path d="M47.3944 30.0551C47.2531 30.054 47.1138 30.0219 46.9864 29.9609C46.7332 29.8506 46.5339 29.6446 46.432 29.3879C46.3301 29.1312 46.3339 28.8446 46.4425 28.5907L50.3859 19.4174C50.4396 19.2898 50.5182 19.1742 50.6169 19.0773C50.7157 18.9803 50.8327 18.9039 50.9612 18.8525C51.2158 18.7479 51.5015 18.7479 51.7561 18.8525L54.4129 20.0031L52.5406 9.77335L43.8171 15.4426L46.4634 16.5827C46.7166 16.6931 46.9159 16.899 47.0178 17.1557C47.1197 17.4124 47.116 17.699 47.0074 17.953L45.3547 21.7917C45.2444 22.0449 45.0384 22.2442 44.7817 22.3461C44.525 22.448 44.2384 22.4443 43.9844 22.3357C43.7294 22.2273 43.5277 22.0221 43.4238 21.7652C43.3198 21.5083 43.3221 21.2207 43.4301 20.9654L44.6748 18.089L41.2021 16.5932C41.029 16.5185 40.8792 16.3984 40.7687 16.2455C40.6583 16.0927 40.5911 15.9129 40.5745 15.725C40.557 15.5354 40.5916 15.3446 40.6745 15.1731C40.7575 15.0017 40.8856 14.8562 41.0452 14.7523L52.708 7.16884C52.8523 7.07506 53.0176 7.01836 53.1891 7.00377C53.3606 6.98917 53.5331 7.01713 53.6912 7.08516C53.85 7.15319 53.9895 7.25948 54.0971 7.39455C54.2048 7.52961 54.2774 7.68925 54.3083 7.85919L56.8292 21.5512C56.8711 21.7433 56.858 21.9433 56.7914 22.1283C56.7248 22.3133 56.6074 22.4758 56.4526 22.5972C56.306 22.7105 56.1318 22.7828 55.948 22.8066C55.7642 22.8305 55.5774 22.8052 55.4066 22.7331L51.934 21.2478L48.3985 29.4588C48.3094 29.6468 48.1663 29.8039 47.9874 29.9101C47.8085 30.0163 47.6021 30.0668 47.3944 30.0551Z" fill="#FA4616"/>
<path d="M16.9351 42.3245C16.2904 42.3058 15.6558 42.1587 15.0685 41.8919C14.4812 41.6251 13.953 41.2439 13.5148 40.7706C13.0765 40.2973 12.737 39.7414 12.5161 39.1353C12.2952 38.5293 12.1973 37.8853 12.2282 37.241V35.8812C12.1852 35.2367 12.275 34.5902 12.4921 33.9819C12.7092 33.3735 13.0489 32.8162 13.4902 32.3445C13.9315 31.8728 14.465 31.4967 15.0576 31.2396C15.6501 30.9825 16.2892 30.8499 16.9351 30.8499C17.5811 30.8499 18.2201 30.9825 18.8127 31.2396C19.4053 31.4967 19.9388 31.8728 20.3801 32.3445C20.8214 32.8162 21.1611 33.3735 21.3781 33.9819C21.5952 34.5902 21.6851 35.2367 21.6421 35.8812V37.2201C21.6758 37.8661 21.5801 38.5123 21.3605 39.1208C21.1408 39.7293 20.8018 40.2877 20.3633 40.7633C19.9247 41.2388 19.3956 41.6219 18.8068 41.89C18.2181 42.1582 17.5818 42.3059 16.9351 42.3245V42.3245ZM16.9351 32.9106C16.5663 32.9332 16.2055 33.0287 15.8738 33.1917C15.5421 33.3547 15.246 33.5819 15.0028 33.8602C14.7596 34.1384 14.574 34.4622 14.4568 34.8127C14.3396 35.1633 14.2932 35.5335 14.3202 35.9021V37.241C14.2731 37.6122 14.3056 37.9891 14.4155 38.3467C14.5254 38.7044 14.7102 39.0345 14.9576 39.3152C15.2049 39.5959 15.5092 39.8207 15.8502 39.9747C16.1912 40.1287 16.561 40.2083 16.9351 40.2083C17.3093 40.2083 17.6791 40.1287 18.0201 39.9747C18.3611 39.8207 18.6653 39.5959 18.9127 39.3152C19.16 39.0345 19.3448 38.7044 19.4547 38.3467C19.5646 37.9891 19.5972 37.6122 19.5501 37.241V35.8812C19.5742 35.5143 19.5256 35.1462 19.4071 34.7982C19.2887 34.4501 19.1026 34.1288 18.8596 33.8528C18.6166 33.5768 18.3216 33.3515 17.9913 33.1898C17.6611 33.0281 17.3022 32.9332 16.9351 32.9106V32.9106Z" fill="#404040"/>
<path d="M40.9929 40.2325C40.3481 40.2138 39.7135 40.0667 39.1262 39.7999C38.5389 39.5331 38.0107 39.1519 37.5725 38.6786C37.1342 38.2053 36.7948 37.6494 36.5738 37.0434C36.3529 36.4373 36.2551 35.7933 36.2859 35.149V33.7892C36.2429 33.1447 36.3327 32.4983 36.5498 31.8899C36.7669 31.2815 37.1066 30.7242 37.5479 30.2525C37.9892 29.7808 38.5227 29.4047 39.1153 29.1476C39.7078 28.8905 40.3469 28.7579 40.9929 28.7579C41.6388 28.7579 42.2778 28.8905 42.8704 29.1476C43.463 29.4047 43.9965 29.7808 44.4378 30.2525C44.8791 30.7242 45.2188 31.2815 45.4358 31.8899C45.6529 32.4983 45.7428 33.1447 45.6998 33.7892V35.1281C45.7335 35.7741 45.6378 36.4204 45.4182 37.0288C45.1986 37.6373 44.8595 38.1957 44.421 38.6713C43.9825 39.1469 43.4533 39.53 42.8645 39.7981C42.2758 40.0662 41.6395 40.2139 40.9929 40.2325ZM40.9929 30.8186C40.624 30.8412 40.2632 30.9367 39.9315 31.0997C39.5998 31.2627 39.3038 31.4899 39.0605 31.7682C38.8173 32.0465 38.6317 32.3702 38.5145 32.7208C38.3973 33.0713 38.3509 33.4416 38.3779 33.8102V35.149C38.3308 35.5202 38.3633 35.8971 38.4732 36.2548C38.5831 36.6124 38.7679 36.9425 39.0153 37.2232C39.2626 37.5039 39.5669 37.7287 39.9079 37.8827C40.2489 38.0367 40.6187 38.1164 40.9929 38.1164C41.367 38.1164 41.7368 38.0367 42.0778 37.8827C42.4188 37.7287 42.723 37.5039 42.9704 37.2232C43.2178 36.9425 43.4025 36.6124 43.5124 36.2548C43.6223 35.8971 43.6549 35.5202 43.6078 35.149V33.7892C43.6319 33.4223 43.5833 33.0543 43.4649 32.7062C43.3464 32.3581 43.1603 32.0368 42.9173 31.7608C42.6744 31.4848 42.3793 31.2595 42.049 31.0978C41.7188 30.9361 41.3599 30.8413 40.9929 30.8186V30.8186Z" fill="#404040"/>
<path d="M47.4779 56.9683C47.2347 56.9737 46.9972 56.8942 46.8063 56.7434C46.6153 56.5925 46.483 56.3799 46.432 56.142L44.2145 45.7867C43.9216 44.4165 43.022 43.6947 41.2125 43.3496L34.9366 42.3036C34.7409 42.2679 34.5595 42.1772 34.4136 42.0421L29.3091 37.4084C29.0988 37.9302 29.0382 38.5004 29.1343 39.0548C29.2304 39.6091 29.4793 40.1257 29.853 40.5463L34.173 44.8244L40.815 46.8641C41.0644 46.9571 41.2689 47.1417 41.3869 47.3802C41.5049 47.6188 41.5276 47.8933 41.4502 48.148C41.3729 48.4027 41.2014 48.6183 40.9706 48.7509C40.7399 48.8835 40.4673 48.9232 40.2083 48.8619L33.3466 46.7699C33.1846 46.7189 33.0374 46.6291 32.9178 46.5084L28.4305 42.063C25.5854 39.3853 27.9389 35.285 28.0435 35.1176C28.1212 34.9822 28.2282 34.8659 28.3567 34.7772C28.4852 34.6885 28.6319 34.6297 28.7861 34.6051C28.9396 34.5824 29.0961 34.5941 29.2444 34.6393C29.3928 34.6845 29.5292 34.7622 29.6439 34.8666L35.5851 40.2325L41.5576 41.2785C44.204 41.7701 45.7416 43.1299 46.2437 45.3265L48.4612 55.6817C48.4903 55.8164 48.4926 55.9555 48.4679 56.091C48.4432 56.2265 48.3919 56.3558 48.3171 56.4715C48.2422 56.5871 48.1453 56.6868 48.0318 56.7649C47.9183 56.843 47.7905 56.8979 47.6558 56.9265L47.4779 56.9683Z" fill="#404040"/>
<path d="M8.04427 56.9683C7.92971 56.9834 7.81364 56.9834 7.69907 56.9683C7.56905 56.9226 7.44934 56.8516 7.34683 56.7595C7.24431 56.6674 7.16103 56.5559 7.10174 56.4315C7.04244 56.3071 7.00833 56.1722 7.00134 56.0345C6.99436 55.8969 7.01465 55.7592 7.06104 55.6294L9.88518 47.4812C10.586 45.5147 11.6634 43.4228 15.7636 43.4228H27.2695C27.4129 43.4232 27.5547 43.4532 27.6861 43.5108C27.8175 43.5683 27.9356 43.6523 28.0331 43.7575C28.1328 43.8631 28.2094 43.9883 28.258 44.1252C28.3066 44.2621 28.3262 44.4076 28.3155 44.5524C28.1718 45.8523 27.5903 47.0646 26.6665 47.9903C25.7427 48.916 24.5316 49.5 23.232 49.6464L15.9101 50.5146C15.6327 50.5478 15.3534 50.4696 15.1337 50.2969C14.914 50.1243 14.7719 49.8715 14.7386 49.5941C14.7053 49.3167 14.7836 49.0374 14.9562 48.8177C15.1288 48.598 15.3816 48.4559 15.6591 48.4226L22.9182 47.5544C23.5501 47.495 24.1553 47.2704 24.673 46.9032C25.1908 46.5361 25.6028 46.0392 25.8679 45.4624H15.7218C12.9709 45.4624 12.3851 46.5084 11.8203 48.1192L8.99609 56.2675C8.9266 56.4667 8.79852 56.6402 8.62865 56.7652C8.45878 56.8903 8.25509 56.9611 8.04427 56.9683Z" fill="#404040"/>
</svg>
