<svg width="64" height="64" viewBox="0 0 64 64" fill="none" xmlns="http://www.w3.org/2000/svg">
<path d="M30.9078 19.7683C30.1663 19.7557 29.4348 19.5953 28.7561 19.2964C28.0774 18.9975 27.4652 18.5662 26.9553 18.0278C26.4454 17.4893 26.0481 16.8545 25.7866 16.1606C25.5251 15.4666 25.4047 14.7275 25.4325 13.9864V12.4753C25.4325 11.0231 26.0094 9.63049 27.0362 8.60368C28.063 7.57687 29.4556 7 30.9078 7C32.3599 7 33.7526 7.57687 34.7794 8.60368C35.8062 9.63049 36.383 11.0231 36.383 12.4753V14.0412C36.4034 14.7777 36.2775 15.511 36.0127 16.1986C35.7479 16.8862 35.3494 17.5144 34.8402 18.047C34.3311 18.5796 33.7213 19.006 33.0463 19.3014C32.3714 19.5969 31.6445 19.7555 30.9078 19.7683ZM30.9078 8.81776C30.4542 8.83452 30.0085 8.94153 29.5967 9.13249C29.1849 9.32345 28.8153 9.59457 28.5094 9.92998C28.2036 10.2654 27.9676 10.6584 27.8154 11.086C27.6631 11.5136 27.5976 11.9673 27.6226 12.4205V13.9864C27.6226 14.8577 27.9687 15.6933 28.5848 16.3094C29.2009 16.9255 30.0365 17.2716 30.9078 17.2716C31.7791 17.2716 32.6146 16.9255 33.2307 16.3094C33.8468 15.6933 34.1929 14.8577 34.1929 13.9864V12.4753C34.2256 12.0176 34.1657 11.558 34.0169 11.124C33.8681 10.69 33.6334 10.2904 33.3268 9.9491C33.0202 9.60776 32.648 9.33167 32.2324 9.1373C31.8168 8.94293 31.3663 8.83424 30.9078 8.81776Z" fill="#404040"/>
<path d="M21.0523 39.4792H18.8622V28.5287C18.8622 23.5133 21.5122 20.8633 26.5276 20.8633H32.3533C33.0329 20.8592 33.7029 20.7021 34.3134 20.4034L36.383 19.1441V17.5782H38.5731V19.1441C38.5708 19.5263 38.4685 19.9013 38.2764 20.2317C38.0843 20.5621 37.8091 20.8365 37.4781 21.0276L35.288 22.3198C34.3557 22.7974 33.3241 23.0488 32.2766 23.0534H26.4509C22.6073 23.0534 20.9757 24.696 20.9757 28.5287L21.0523 39.4792Z" fill="#404040"/>
<path d="M37.4781 57H35.288V30.445C35.2807 29.6404 35.5691 28.8611 36.0983 28.2549L41.6393 20.7648C41.7814 20.5752 41.8583 20.3447 41.8583 20.1077V17.9176C41.8542 17.6277 41.7408 17.35 41.5407 17.1402L37.719 13.2965L39.274 11.7525L43.1395 15.618C43.7558 16.2335 44.1024 17.0686 44.1031 17.9395V20.1296C44.1039 20.8355 43.8774 21.5228 43.4571 22.0898L37.8614 29.6456C37.6592 29.8595 37.5424 30.14 37.5328 30.4341L37.4781 57Z" fill="#404040"/>
<path d="M32.0028 39.4792H29.8127V57H32.0028V39.4792Z" fill="#404040"/>
<path d="M25.4325 28.5287H23.2424V39.4792H25.4325V28.5287Z" fill="#404040"/>
<path d="M25.4325 49.3346H23.2424V57H25.4325V49.3346Z" fill="#404040"/>
<path d="M51.7137 21.9584H49.5236V24.1485H51.7137V21.9584Z" fill="#FA4616"/>
<path d="M51.7137 19.7683H49.5236V18.6732C49.449 17.8111 49.6007 16.9445 49.9637 16.159C50.3267 15.3735 50.8884 14.6964 51.5933 14.1945C52.2718 13.6536 52.7088 12.8663 52.8088 12.0044C52.8357 11.7101 52.7976 11.4134 52.697 11.1355C52.5965 10.8575 52.436 10.605 52.227 10.396C52.018 10.187 51.7656 10.0266 51.4877 9.92605C51.2097 9.82551 50.913 9.78737 50.6187 9.8143C50.3226 9.77908 50.0224 9.81146 49.7406 9.90907C49.4589 10.0067 49.203 10.167 48.9921 10.3778C48.7813 10.5886 48.621 10.8446 48.5234 11.1263C48.4258 11.408 48.3934 11.7083 48.4286 12.0044H46.2385C46.2051 11.4204 46.2956 10.8361 46.5039 10.2895C46.7122 9.74296 47.0337 9.24659 47.4473 8.833C47.8609 8.41941 48.3572 8.09793 48.9038 7.8896C49.4503 7.68128 50.0347 7.59083 50.6187 7.6242C51.2009 7.59772 51.7823 7.69288 52.3258 7.90364C52.8692 8.1144 53.3627 8.4361 53.7748 8.84824C54.187 9.26038 54.5087 9.75391 54.7194 10.2973C54.9302 10.8407 55.0254 11.4221 54.9989 12.0044C54.9492 12.7524 54.7421 13.4814 54.3911 14.1438C54.0401 14.8061 53.5532 15.387 52.9621 15.848C52.5097 16.141 52.1514 16.5581 51.93 17.0494C51.7086 17.5408 51.6335 18.0856 51.7137 18.6185V19.7683Z" fill="#FA4616"/>
<path d="M14.482 27.4336H12.2919V29.6237H14.482V27.4336Z" fill="#FA4616"/>
<path d="M14.482 25.2435H12.2919V24.1485C12.2173 23.2864 12.369 22.4198 12.7319 21.6343C13.0949 20.8488 13.6566 20.1716 14.3616 19.6698C15.0401 19.1289 15.477 18.3416 15.5771 17.4797C15.604 17.1853 15.5658 16.8887 15.4653 16.6107C15.3648 16.3328 15.2043 16.0803 14.9953 15.8713C14.7863 15.6623 14.5339 15.5018 14.2559 15.4013C13.978 15.3008 13.6813 15.2626 13.387 15.2895C13.0909 15.2543 12.7907 15.2867 12.5089 15.3843C12.2272 15.4819 11.9712 15.6422 11.7604 15.853C11.5495 16.0639 11.3893 16.3198 11.2917 16.6016C11.1941 16.8833 11.1616 17.1836 11.1969 17.4797H9.00676C8.9734 16.8957 9.06384 16.3113 9.27216 15.7648C9.48049 15.2182 9.80199 14.7218 10.2156 14.3083C10.6292 13.8947 11.1255 13.5732 11.6721 13.3649C12.2186 13.1565 12.803 13.0661 13.387 13.0994C13.9692 13.073 14.5506 13.1681 15.094 13.3789C15.6374 13.5896 16.1309 13.9114 16.5431 14.3235C16.9552 14.7356 17.2769 15.2292 17.4877 15.7726C17.6985 16.316 17.7936 16.8974 17.7672 17.4797C17.7175 18.2276 17.5104 18.9566 17.1594 19.619C16.8084 20.2814 16.3214 20.8622 15.7304 21.3233C15.278 21.6162 14.9196 22.0333 14.6982 22.5247C14.4768 23.016 14.4018 23.5608 14.482 24.0937V25.2435Z" fill="#FA4616"/>
<path d="M26.5276 50.4297H14.482C14.1916 50.4297 13.913 50.3144 13.7077 50.109C13.5023 49.9036 13.3869 49.6251 13.3869 49.3346V39.4792C13.3869 39.1888 13.5023 38.9102 13.7077 38.7049C13.913 38.4995 14.1916 38.3841 14.482 38.3841H26.5276C26.818 38.3841 27.0965 38.4995 27.3019 38.7049C27.5072 38.9102 27.6226 39.1888 27.6226 39.4792V49.3346C27.6226 49.6251 27.5072 49.9036 27.3019 50.109C27.0965 50.3144 26.818 50.4297 26.5276 50.4297ZM15.577 48.2396H25.4325V40.5742H15.577V48.2396Z" fill="#404040"/>
</svg>
