<svg width="64" height="64" viewBox="0 0 64 64" fill="none" xmlns="http://www.w3.org/2000/svg">
<path d="M42.4612 56.7026H9.34087C8.75527 56.7026 8.19365 56.4699 7.77956 56.0558C7.36548 55.6417 7.13285 55.0802 7.13285 54.4946V14.7502L7.00036 8.12613C6.9966 7.97976 7.022 7.83411 7.07507 7.69764C7.12814 7.56117 7.20782 7.43658 7.30949 7.33121C7.41303 7.22556 7.53676 7.14182 7.67331 7.08492C7.80986 7.02803 7.95645 6.99915 8.10437 7.00002H42.4612C43.0468 7.00002 43.6084 7.23268 44.0225 7.64677C44.4366 8.06085 44.6692 8.62244 44.6692 9.20804V23.5602C44.6692 23.853 44.5529 24.1338 44.3458 24.3408C44.1388 24.5479 43.858 24.6642 43.5652 24.6642C43.2724 24.6642 42.9916 24.5479 42.7845 24.3408C42.5775 24.1338 42.4612 23.853 42.4612 23.5602V9.20804H9.23046L9.34087 14.7281V54.4725H42.4612V43.4324C42.4612 43.1396 42.5775 42.8588 42.7845 42.6517C42.9916 42.4447 43.2724 42.3283 43.5652 42.3283C43.858 42.3283 44.1388 42.4447 44.3458 42.6517C44.5529 42.8588 44.6692 43.1396 44.6692 43.4324V54.4725C44.6721 54.7643 44.6171 55.0537 44.5075 55.3242C44.3978 55.5946 44.2357 55.8407 44.0303 56.0481C43.825 56.2555 43.5806 56.42 43.3113 56.5324C43.0419 56.6447 42.753 56.7026 42.4612 56.7026V56.7026Z" fill="#404040"/>
<path d="M26.0225 51.9884C25.7313 51.9843 25.4535 51.8652 25.2497 51.6572C25.1171 51.5253 25.0202 51.3619 24.968 51.1823C24.9159 51.0027 24.9102 50.8129 24.9516 50.6305C25.9125 46.4899 28.0118 42.7003 31.0126 39.6897L49.7035 21.0099C50.4142 20.331 51.3592 19.9521 52.3421 19.9521C53.3249 19.9521 54.27 20.331 54.9807 21.0099L55.908 21.9373C56.2542 22.2829 56.5288 22.6933 56.7162 23.1451C56.9036 23.5969 57 24.0812 57 24.5703C57 25.0594 56.9036 25.5438 56.7162 25.9956C56.5288 26.4474 56.2542 26.8578 55.908 27.2034L37.2171 45.8943C34.2112 48.9012 30.4198 51.0016 26.2764 51.9553C26.1935 51.9771 26.1082 51.9883 26.0225 51.9884V51.9884ZM52.3421 22.125C52.1378 22.1208 51.9349 22.1577 51.7452 22.2336C51.5555 22.3094 51.3831 22.4227 51.2381 22.5665L32.5582 41.2575C30.2949 43.5079 28.5962 46.262 27.6012 49.2946C30.6252 48.2879 33.3732 46.5908 35.6274 44.3376L54.3182 25.6467C54.4708 25.5061 54.5926 25.3354 54.6758 25.1454C54.7591 24.9554 54.8021 24.7502 54.8021 24.5427C54.8021 24.3353 54.7591 24.1301 54.6758 23.9401C54.5926 23.75 54.4708 23.5793 54.3182 23.4387L53.3909 22.5113C53.1075 22.2443 52.7314 22.0979 52.3421 22.1029V22.125Z" fill="#404040"/>
<path d="M47.7052 40.4957C47.4859 40.497 47.2712 40.4329 47.0885 40.3117C46.9058 40.1905 46.7633 40.0176 46.6792 39.8151C46.5951 39.6125 46.5732 39.3895 46.6164 39.1745C46.6595 38.9595 46.7657 38.7622 46.9214 38.6078L52.4414 33.0878C52.5897 32.9447 52.7076 32.7732 52.7881 32.5835C52.8686 32.3938 52.9101 32.1898 52.9101 31.9838C52.9101 31.7777 52.8686 31.5737 52.7881 31.3841C52.7076 31.1944 52.5897 31.0229 52.4414 30.8798L46.9214 25.3597C46.8058 25.2607 46.7119 25.1389 46.6457 25.002C46.5794 24.865 46.5422 24.7158 46.5363 24.5638C46.5304 24.4117 46.556 24.2601 46.6115 24.1184C46.667 23.9768 46.7512 23.8481 46.8588 23.7405C46.9664 23.6329 47.0951 23.5488 47.2368 23.4933C47.3784 23.4377 47.53 23.4121 47.6821 23.418C47.8341 23.4239 47.9833 23.4611 48.1203 23.5273C48.2573 23.5936 48.3791 23.6874 48.478 23.803L54.0533 29.3231C54.747 30.0238 55.1362 30.9701 55.1362 31.9561C55.1362 32.9422 54.747 33.8885 54.0533 34.5892L48.478 40.1093C48.3818 40.2223 48.2638 40.3148 48.131 40.3812C47.9982 40.4476 47.8534 40.4866 47.7052 40.4957V40.4957Z" fill="#404040"/>
<path d="M43.1457 39.48C43.0004 39.4808 42.8563 39.453 42.7218 39.398C42.5873 39.3431 42.465 39.2621 42.3618 39.1598L37.725 34.523C37.5193 34.3161 37.4039 34.0363 37.4039 33.7446C37.4039 33.453 37.5193 33.1732 37.725 32.9663C37.9318 32.7607 38.2116 32.6453 38.5033 32.6453C38.795 32.6453 39.0748 32.7607 39.2816 32.9663L43.9295 37.6031C44.0814 37.7581 44.1843 37.9545 44.2253 38.1676C44.2662 38.3807 44.2435 38.6012 44.1598 38.8015C44.0762 39.0017 43.9354 39.1729 43.755 39.2936C43.5746 39.4143 43.3627 39.4791 43.1457 39.48V39.48Z" fill="#404040"/>
<path d="M28.1201 33.5183H13.6244V35.7264H28.1201V33.5183Z" fill="#FA4616"/>
<path d="M24.4879 37.9344H13.6244V40.1424H24.4879V37.9344Z" fill="#FA4616"/>
<path d="M20.8667 42.3504H13.6244V44.5584H20.8667V42.3504Z" fill="#FA4616"/>
<path d="M20.381 25.7903C19.7684 25.7635 19.1673 25.6152 18.6125 25.354C18.0578 25.0929 17.5605 24.724 17.1496 24.2689C16.7386 23.8138 16.4223 23.2816 16.2189 22.7032C16.0156 22.1247 15.9292 21.5116 15.9649 20.8995V19.6409C15.9649 18.4697 16.4302 17.3465 17.2584 16.5183C18.0865 15.6901 19.2098 15.2249 20.381 15.2249C21.5522 15.2249 22.6754 15.6901 23.5036 16.5183C24.3318 17.3465 24.797 18.4697 24.797 19.6409V20.8995C24.8342 21.512 24.7489 22.1256 24.5461 22.7047C24.3433 23.2838 24.0271 23.8167 23.6159 24.2721C23.2047 24.7275 22.7068 25.0963 22.1513 25.357C21.5959 25.6177 20.994 25.765 20.381 25.7903V25.7903ZM20.381 16.9582C20.0595 16.9886 19.7473 17.0822 19.4621 17.2337C19.177 17.3851 18.9246 17.5914 18.7194 17.8406C18.5143 18.0899 18.3603 18.3773 18.2666 18.6862C18.1728 18.9952 18.141 19.3197 18.1729 19.6409V20.8995C18.1729 21.4851 18.4056 22.0467 18.8197 22.4608C19.2337 22.8749 19.7954 23.1075 20.381 23.1075C20.9666 23.1075 21.5282 22.8749 21.9423 22.4608C22.3564 22.0467 22.589 21.4851 22.589 20.8995V19.6409C22.621 19.3197 22.5891 18.9952 22.4954 18.6862C22.4016 18.3773 22.2477 18.0899 22.0425 17.8406C21.8373 17.5914 21.5849 17.3851 21.2998 17.2337C21.0147 17.0822 20.7024 16.9886 20.381 16.9582V16.9582Z" fill="#FA4616"/>
<path d="M25.901 29.1023C25.6082 29.1023 25.3274 28.986 25.1204 28.7789C24.9133 28.5719 24.797 28.2911 24.797 27.9983C24.797 26.8943 23.0306 25.7903 20.381 25.7903C17.7313 25.7903 15.9649 26.8943 15.9649 27.9983C15.9649 28.2911 15.8486 28.5719 15.6416 28.7789C15.4345 28.986 15.1537 29.1023 14.8609 29.1023C14.5681 29.1023 14.2873 28.986 14.0803 28.7789C13.8732 28.5719 13.7569 28.2911 13.7569 27.9983C13.7569 25.4812 16.6053 23.5823 20.381 23.5823C24.1567 23.5823 27.005 25.4812 27.005 27.9983C27.005 28.2911 26.8887 28.5719 26.6817 28.7789C26.4746 28.986 26.1938 29.1023 25.901 29.1023Z" fill="#FA4616"/>
</svg>
