<svg width="64" height="64" viewBox="0 0 64 64" fill="none" xmlns="http://www.w3.org/2000/svg">
<path d="M41.3478 22.2174H39.1739C39.1739 21.4674 38.5217 20.8152 37.3587 19.7282C36.9205 19.3697 36.5646 18.9211 36.3151 18.4129C36.0657 17.9046 35.9286 17.3486 35.913 16.7826V14.6087H38.087V16.7826C38.1038 17.0489 38.1799 17.3081 38.3097 17.5412C38.4394 17.7744 38.6196 17.9757 38.837 18.1304C40.1304 19.337 41.3478 20.4891 41.3478 22.2174Z" fill="#404040"/>
<path d="M34.8261 27.6522H28.3043C27.4395 27.6522 26.6101 27.3086 25.9986 26.697C25.387 26.0855 25.0435 25.2561 25.0435 24.3913V21.1304C25.1593 19.796 25.7223 18.5397 26.6413 17.5652C26.866 17.2999 27.0627 17.0122 27.2283 16.7065V14.6087H29.4022V16.7826C29.287 17.5877 28.9041 18.3305 28.3152 18.8913C27.7359 19.5113 27.3571 20.2917 27.2283 21.1304V24.3913C27.2283 24.6796 27.3428 24.956 27.5466 25.1599C27.7505 25.3637 28.0269 25.4783 28.3152 25.4783H34.837C35.1252 25.4783 35.4017 25.3637 35.6055 25.1599C35.8094 24.956 35.9239 24.6796 35.9239 24.3913V22.2174H38.0978V24.3913C38.0978 24.8205 38.0131 25.2453 37.8486 25.6417C37.684 26.038 37.4429 26.398 37.1389 26.7009C36.8349 27.0038 36.4742 27.2438 36.0773 27.407C35.6804 27.5703 35.2552 27.6536 34.8261 27.6522Z" fill="#404040"/>
<path d="M23.9565 29.8261H21.7826V26.5652C21.7826 25.7004 22.1262 24.871 22.7377 24.2594C23.3492 23.6479 24.1786 23.3044 25.0435 23.3044H26.1304V25.4783H25.0435C24.7552 25.4783 24.4787 25.5927 24.2749 25.7966C24.071 26.0004 23.9565 26.2769 23.9565 26.5652V29.8261Z" fill="#404040"/>
<path d="M42.4348 29.8261H40.2609V26.5652C40.2609 26.2769 40.1464 26.0004 39.9425 25.7966C39.7387 25.5927 39.4622 25.4783 39.1739 25.4783H37V23.3044H39.1739C40.0387 23.3044 40.8682 23.6479 41.4797 24.2594C42.0912 24.871 42.4348 25.7004 42.4348 26.5652V29.8261Z" fill="#404040"/>
<path d="M40.2609 15.6957H25.0435V7H40.2609V15.6957ZM27.2174 13.5217H38.087V9.17391H27.2174V13.5217Z" fill="#404040"/>
<path d="M38.087 41.7826H26.1304V43.9565H38.087V41.7826Z" fill="#404040"/>
<path d="M47.8696 57H16.3478C15.483 57 14.6536 56.6564 14.042 56.0448C13.4305 55.4333 13.087 54.604 13.087 53.7391V42.8695C13.087 42.5813 13.2015 42.3047 13.4053 42.1009C13.6092 41.8971 13.8856 41.7826 14.1739 41.7826C14.4622 41.7826 14.7387 41.8971 14.9425 42.1009C15.1464 42.3047 15.2609 42.5813 15.2609 42.8695V53.7391C15.2609 54.0274 15.3754 54.3038 15.5792 54.5077C15.7831 54.7115 16.0596 54.8261 16.3478 54.8261H47.8696C48.1579 54.8261 48.4343 54.7115 48.6382 54.5077C48.842 54.3038 48.9565 54.0274 48.9565 53.7391V42.8695C48.9565 42.5813 49.071 42.3047 49.2749 42.1009C49.4787 41.8971 49.7552 41.7826 50.0435 41.7826C50.3318 41.7826 50.6082 41.8971 50.8121 42.1009C51.0159 42.3047 51.1304 42.5813 51.1304 42.8695V53.7391C51.1304 54.604 50.7869 55.4333 50.1754 56.0448C49.5638 56.6564 48.7344 57 47.8696 57V57Z" fill="#404040"/>
<path d="M50.0435 43.9565H42.4348V41.7826H49.5979L50.0435 41.3369V32C50.0435 31.7117 49.929 31.4352 49.7251 31.2314C49.5213 31.0275 49.2448 30.913 48.9565 30.913H15.2609C14.9726 30.913 14.6961 31.0275 14.4923 31.2314C14.2885 31.4352 14.1739 31.7117 14.1739 32V41.3369L14.6196 41.7826H21.7826V43.9565H14.1739C14.0309 43.9574 13.8891 43.9299 13.7566 43.8758C13.6242 43.8217 13.5038 43.742 13.4022 43.6413L12.3152 42.5543C12.2145 42.4527 12.1348 42.3323 12.0807 42.1999C12.0266 42.0675 11.9992 41.9257 12 41.7826V32C12 31.1352 12.3436 30.3057 12.9551 29.6942C13.5666 29.0827 14.3961 28.7391 15.2609 28.7391H48.9565C49.8214 28.7391 50.6508 29.0827 51.2623 29.6942C51.8739 30.3057 52.2174 31.1352 52.2174 32V41.7826C52.2182 41.9257 52.1908 42.0675 52.1367 42.1999C52.0826 42.3323 52.0029 42.4527 51.9022 42.5543L50.8152 43.6413C50.7137 43.742 50.5932 43.8217 50.4608 43.8758C50.3284 43.9299 50.1865 43.9574 50.0435 43.9565V43.9565Z" fill="#404040"/>
<path d="M26.1304 47.2174H21.7826C21.4943 47.2174 21.2179 47.1029 21.014 46.899C20.8102 46.6952 20.6956 46.4187 20.6956 46.1304V40.6957C20.6956 40.4074 20.8102 40.1309 21.014 39.927C21.2179 39.7232 21.4943 39.6087 21.7826 39.6087H26.1304C26.4187 39.6087 26.6952 39.7232 26.899 39.927C27.1029 40.1309 27.2174 40.4074 27.2174 40.6957V46.1304C27.2174 46.4187 27.1029 46.6952 26.899 46.899C26.6952 47.1029 26.4187 47.2174 26.1304 47.2174ZM22.8696 45.0435H25.0435V41.7826H22.8696V45.0435Z" fill="#FA4616"/>
<path d="M42.4348 47.2174H38.087C37.7987 47.2174 37.5222 47.1029 37.3184 46.899C37.1145 46.6952 37 46.4187 37 46.1304V40.6957C37 40.4074 37.1145 40.1309 37.3184 39.927C37.5222 39.7232 37.7987 39.6087 38.087 39.6087H42.4348C42.7231 39.6087 42.9995 39.7232 43.2034 39.927C43.4072 40.1309 43.5217 40.4074 43.5217 40.6957V46.1304C43.5217 46.4187 43.4072 46.6952 43.2034 46.899C42.9995 47.1029 42.7231 47.2174 42.4348 47.2174ZM39.1739 45.0435H41.3478V41.7826H39.1739V45.0435Z" fill="#FA4616"/>
</svg>
