<svg width="64" height="64" viewBox="0 0 64 64" fill="none" xmlns="http://www.w3.org/2000/svg">
<path d="M29.0674 55.2364H24.864C24.7257 55.2372 24.5887 55.2107 24.4606 55.1584C24.3326 55.1061 24.2161 55.0291 24.1179 54.9317L23.3824 54.1856H22.7624V52.0839H23.8132C24.0914 52.0878 24.3579 52.1966 24.5593 52.3886L25.2949 53.1348H28.6365L29.3721 52.3886C29.4703 52.2913 29.5867 52.2142 29.7148 52.1619C29.8428 52.1096 29.9799 52.0831 30.1182 52.0839H31.169V54.1856H30.549L29.8134 54.9317C29.6121 55.1237 29.3456 55.2325 29.0674 55.2364V55.2364Z" fill="#404040"/>
<path d="M33.2707 45.779H20.6607V47.8806H33.2707V45.779Z" fill="#404040"/>
<path d="M32.2198 48.9314H21.7116V51.0331H32.2198V48.9314Z" fill="#404040"/>
<path d="M22.7624 44.7281H20.6608V42.6265C20.6797 41.0579 20.075 39.5459 18.9794 38.4232C17.8504 37.3333 16.9522 36.0273 16.3384 34.5831C15.7246 33.1388 15.4077 31.5858 15.4066 30.0165C15.4051 27.4832 16.2358 25.0195 17.7711 23.0043C19.3064 20.9892 21.4611 19.5342 23.904 18.8632C26.3469 18.1922 28.9426 18.3423 31.2918 19.2904C33.6411 20.2385 35.6138 21.9322 36.9065 24.1109C37.2139 24.6416 37.4842 25.1928 37.7157 25.7607L35.7611 26.5278C35.5723 26.0644 35.3511 25.615 35.0991 25.1828C34.0413 23.4001 32.4271 22.0142 30.5048 21.2385C28.5825 20.4628 26.4586 20.3402 24.4598 20.8894C22.461 21.4387 20.6979 22.6294 19.442 24.2785C18.186 25.9276 17.5066 27.9436 17.5083 30.0165C17.5183 31.3044 17.7866 32.5772 18.2975 33.7595C18.8083 34.9418 19.5511 36.0095 20.4821 36.8995C21.2222 37.6557 21.8048 38.5513 22.1963 39.5344C22.5877 40.5175 22.7801 41.5685 22.7624 42.6265V44.7281Z" fill="#404040"/>
<path d="M33.2707 44.7281H31.169V42.6265C31.1513 41.5685 31.3437 40.5175 31.7352 39.5344C32.1266 38.5513 32.7092 37.6557 33.4493 36.8994L34.952 38.3706C33.8565 39.4934 33.2517 41.0053 33.2707 42.5739V44.7281Z" fill="#404040"/>
<path d="M35.0781 36.6052L36.5072 29.5016L50.7039 15.305C51.0977 14.9135 51.6303 14.6938 52.1856 14.6938C52.7408 14.6938 53.2735 14.9135 53.6672 15.305L56.3889 18.0266C56.7803 18.4204 57 18.953 57 19.5083C57 20.0635 56.7803 20.5961 56.3889 20.9899L42.1922 35.1866L35.0781 36.6052ZM38.4407 30.5314L37.7577 33.9361L41.1624 33.2531L54.9072 19.5083L52.1856 16.7866L38.4407 30.5314Z" fill="#FA4616"/>
<path d="M49.7756 17.7177L48.2895 19.2038L52.4952 23.4095L53.9813 21.9234L49.7756 17.7177Z" fill="#FA4616"/>
<path d="M13.305 28.9657H7V31.0674H13.305V28.9657Z" fill="#404040"/>
<path d="M15.7167 39.783L11.5111 43.9886L12.9972 45.4747L17.2028 41.2691L15.7167 39.783Z" fill="#404040"/>
<path d="M38.2176 39.7824L36.7315 41.2685L40.9372 45.4741L42.4233 43.9881L38.2176 39.7824Z" fill="#404040"/>
<path d="M40.9366 14.562L36.7309 18.7676L38.217 20.2537L42.4227 16.0481L40.9366 14.562Z" fill="#404040"/>
<path d="M28.0165 9H25.9149V16.3558H28.0165V9Z" fill="#404040"/>
<path d="M12.9966 14.5626L11.5105 16.0486L15.7162 20.2543L17.2023 18.7682L12.9966 14.5626Z" fill="#404040"/>
</svg>
