<svg width="64" height="64" viewBox="0 0 64 64" fill="none" xmlns="http://www.w3.org/2000/svg">
<path d="M30.5355 49.3704H30.44C26.3322 49.0242 22.4142 47.489 19.1645 44.9526C15.9149 42.4161 13.4743 38.9881 12.1409 35.0874C10.8075 31.1867 10.639 26.982 11.656 22.9871C12.6729 18.9921 14.8314 15.3799 17.8676 12.5915C20.9039 9.80314 24.6865 7.95939 28.7534 7.2855C32.8203 6.61161 36.9954 7.13675 40.7688 8.79676C44.5421 10.4568 47.7503 13.1798 50.0015 16.6332C52.2527 20.0866 53.4494 24.1209 53.4454 28.2433C53.4481 31.1275 52.8556 33.9813 51.7052 36.6262C51.6583 36.7652 51.5831 36.893 51.4843 37.0014C51.3856 37.1099 51.2654 37.1967 51.1314 37.2564C50.9974 37.3161 50.8524 37.3474 50.7057 37.3482C50.559 37.349 50.4138 37.3195 50.2791 37.2614C50.1444 37.2032 50.0232 37.1177 49.9232 37.0104C49.8233 36.903 49.7466 36.7762 49.6981 36.6377C49.6496 36.4993 49.6304 36.3522 49.6416 36.206C49.6528 36.0597 49.6943 35.9174 49.7633 35.7879C51.3646 32.0758 51.7468 27.9513 50.8548 24.0082C49.9629 20.065 47.8428 16.5066 44.7997 13.8451C41.7566 11.1835 37.9475 9.55618 33.9207 9.19728C29.8939 8.83838 25.8571 9.76645 22.3913 11.8479C18.9255 13.9293 16.2095 17.0567 14.6342 20.7799C13.059 24.5032 12.7057 28.6302 13.6253 32.567C14.5449 36.5038 16.6899 40.0473 19.7516 42.6874C22.8132 45.3276 26.6336 46.9281 30.6628 47.2588C30.8022 47.2644 30.9391 47.2973 31.0657 47.3558C31.1923 47.4143 31.3061 47.4971 31.4007 47.5996C31.4953 47.7021 31.5688 47.8221 31.617 47.953C31.6652 48.0839 31.6871 48.223 31.6815 48.3623C31.676 48.5017 31.643 48.6386 31.5845 48.7652C31.526 48.8918 31.4432 49.0056 31.3407 49.1002C31.2382 49.1948 31.1181 49.2683 30.9873 49.3165C30.8564 49.3647 30.7173 49.3866 30.5779 49.3811L30.5355 49.3704Z" fill="#404040"/>
<path d="M30.5355 43.0036H30.3975C27.3538 42.6393 24.4963 41.3457 22.2143 39.2989C19.9322 37.252 18.3366 34.5515 17.6448 31.5651C16.9529 28.5787 17.1984 25.4517 18.3479 22.6099C19.4974 19.7681 21.4949 17.3496 24.0684 15.684C26.6419 14.0184 29.6662 13.1866 32.7296 13.3018C35.7929 13.4171 38.7462 14.4738 41.1873 16.3281C43.6284 18.1823 45.4385 20.744 46.3712 23.6642C47.3039 26.5843 47.3138 29.7209 46.3995 32.6469C46.3594 32.7809 46.2932 32.9057 46.2048 33.014C46.1163 33.1223 46.0074 33.2121 45.8841 33.2782C45.7608 33.3443 45.6257 33.3854 45.4865 33.399C45.3473 33.4127 45.2068 33.3987 45.073 33.3578C44.9388 33.3167 44.8141 33.2494 44.706 33.1598C44.598 33.0701 44.5088 32.9599 44.4437 32.8356C44.3786 32.7112 44.3387 32.5752 44.3265 32.4353C44.3144 32.2955 44.33 32.1546 44.3727 32.0209C45.1489 29.5229 45.1369 26.8465 44.3385 24.3556C43.5401 21.8647 41.9939 19.68 39.9102 18.0988C37.8265 16.5175 35.3064 15.6163 32.6925 15.5178C30.0786 15.4192 27.4977 16.128 25.3009 17.5478C23.104 18.9676 21.3976 21.0296 20.4138 23.4533C19.4301 25.877 19.2166 28.5449 19.8024 31.0942C20.3882 33.6435 21.7449 35.9506 23.6881 37.7017C25.6312 39.4528 28.0665 40.563 30.6628 40.8813C30.9442 40.8982 31.2074 41.0262 31.3945 41.2372C31.5816 41.4481 31.6772 41.7247 31.6603 42.0061C31.6434 42.2876 31.5154 42.5507 31.3045 42.7378C31.0935 42.9249 30.8169 43.0205 30.5355 43.0036V43.0036Z" fill="#404040"/>
<path d="M30.5355 36.5626C30.4545 36.5729 30.3725 36.5729 30.2915 36.5626C28.742 36.2024 27.3249 35.4142 26.2017 34.2878C25.0785 33.1613 24.2945 31.7418 23.9389 30.1913C23.5833 28.6408 23.6706 27.0216 24.1907 25.5182C24.7108 24.0149 25.6429 22.688 26.8806 21.6887C28.1183 20.6894 29.6119 20.058 31.1911 19.8665C32.7703 19.675 34.3716 19.9311 35.8123 20.6055C37.253 21.2799 38.4752 22.3456 39.3396 23.681C40.204 25.0164 40.6758 26.5678 40.7012 28.1584C40.7012 28.4398 40.5894 28.7097 40.3904 28.9087C40.1914 29.1077 39.9215 29.2195 39.6401 29.2195C39.3587 29.2195 39.0887 29.1077 38.8897 28.9087C38.6907 28.7097 38.5789 28.4398 38.5789 28.1584C38.5635 26.4698 37.8778 24.8565 36.6729 23.6734C35.4679 22.4904 33.8423 21.8344 32.1538 21.8499C30.4652 21.8654 28.8519 22.551 27.6688 23.756C26.4858 24.9609 25.8298 26.5865 25.8453 28.2751C25.8481 29.7088 26.3347 31.0997 27.2263 32.2225C28.118 33.3452 29.3625 34.1342 30.7584 34.4615C31.0398 34.4925 31.2974 34.634 31.4745 34.8548C31.6516 35.0757 31.7337 35.3579 31.7028 35.6394C31.6718 35.9208 31.5303 36.1784 31.3094 36.3555C31.0886 36.5326 30.8063 36.6148 30.5249 36.5838L30.5355 36.5626Z" fill="#404040"/>
<path d="M46.4419 57C46.2491 56.9998 46.057 56.9785 45.8689 56.9363C45.5801 56.8734 45.3071 56.7525 45.0663 56.5811C44.8256 56.4096 44.6221 56.1912 44.4682 55.9389L40.7012 49.2961L37.1145 52.7767C36.8904 53.0227 36.5982 53.1964 36.2751 53.2757C35.9519 53.3551 35.6125 53.3365 35.3 53.2224C35.0051 53.0909 34.7564 52.874 34.5861 52.5997C34.4159 52.3254 34.3319 52.0063 34.345 51.6837V31.4585C34.3426 31.2618 34.3949 31.0683 34.4961 30.8997C34.5973 30.7311 34.7433 30.5939 34.918 30.5034C35.0876 30.4244 35.275 30.3916 35.4614 30.4083C35.6477 30.4251 35.8263 30.4909 35.9791 30.5989L52.31 42.5049C52.6822 42.7484 52.9686 43.1028 53.1285 43.5179C53.2885 43.933 53.314 44.3878 53.2013 44.8182C53.0671 45.2713 52.7854 45.6666 52.4009 45.9415C52.0165 46.2164 51.5513 46.3551 51.0791 46.3356H47.3333L50.6652 52.1082C50.9604 52.6778 51.0235 53.3396 50.8416 53.9548C50.6596 54.57 50.2465 55.0909 49.689 55.4083L47.8426 56.5755C47.4227 56.841 46.9386 56.9877 46.4419 57ZM40.9558 46.516H41.1044C41.2643 46.5427 41.4165 46.6041 41.5503 46.6957C41.6841 46.7873 41.7963 46.9071 41.879 47.0465L46.2933 54.8459C46.372 54.8667 46.4542 54.871 46.5347 54.8582C46.6151 54.8454 46.6919 54.8159 46.7602 54.7716L48.6066 53.6043C48.6891 53.5635 48.758 53.4997 48.8051 53.4207C48.8521 53.3416 48.8753 53.2506 48.8719 53.1587L44.6274 45.7944C44.5345 45.6336 44.4855 45.4512 44.4852 45.2655C44.4849 45.0797 44.5334 44.8971 44.6258 44.736C44.7181 44.5749 44.8512 44.4409 45.0116 44.3473C45.172 44.2537 45.3542 44.2038 45.5399 44.2027H51.0578L36.4354 33.5277V50.4316L40.1812 46.7919C40.2855 46.6967 40.4077 46.6232 40.5407 46.5758C40.6737 46.5284 40.8148 46.5081 40.9558 46.516V46.516Z" fill="#FA4616"/>
</svg>
