<svg width="64" height="64" viewBox="0 0 64 64" fill="none" xmlns="http://www.w3.org/2000/svg">
<path d="M57 57H24.0454V54.7273H54.7273V9.27273H33.1363V7H57V57Z" fill="#404040"/>
<path d="M18.3636 57H7V7H27.4545V9.27273H9.27273V54.7273H18.3636V57Z" fill="#404040"/>
<path d="M50.1818 20.6364H47.9091V16.0909H16.0909V20.6364H13.8182V13.8182H50.1818V20.6364Z" fill="#404040"/>
<path d="M32 50.1818H13.8182V26.3182H16.0909V47.9091H32V50.1818Z" fill="#404040"/>
<path d="M50.1818 50.1818H37.6818V47.9091H47.9091V26.3182H50.1818V50.1818Z" fill="#404040"/>
<path d="M43.3636 43.3636H41.0909V22.9091H22.9091V29.7273H20.6364V20.6364H43.3636V43.3636Z" fill="#404040"/>
<path d="M36.5454 43.3637H20.6364V35.4091H22.9091V41.0909H34.2727V29.7273H29.7273V35.4091H27.4545V27.4546H36.5454V43.3637Z" fill="#404040"/>
<path d="M27.4546 42.2386H25.1818V49.0568H27.4546V42.2386Z" fill="#404040"/>
<path d="M29.7273 14.9659H27.4546V21.7841H29.7273V14.9659Z" fill="#404040"/>
<path d="M42.2273 8.14774H39.9545V14.9659H42.2273V8.14774Z" fill="#404040"/>
<path d="M44.5 49.0568H42.2273V55.875H44.5V49.0568Z" fill="#404040"/>
<path d="M14.9545 35.4205H8.13635V37.6932H14.9545V35.4205Z" fill="#404040"/>
</svg>
