<svg width="64" height="64" viewBox="0 0 64 64" fill="none" xmlns="http://www.w3.org/2000/svg">
<path d="M37.375 31.4896L36.3333 29.6875C38.1206 28.6556 39.5174 27.0628 40.3072 25.1562C41.0969 23.2495 41.2355 21.1355 40.7014 19.1421C40.1672 17.1486 38.9902 15.3872 37.353 14.1308C35.7157 12.8745 33.7096 12.1935 31.6458 12.1935C29.5821 12.1935 27.576 12.8745 25.9387 14.1308C24.3014 15.3872 23.1244 17.1486 22.5903 19.1421C22.0561 21.1355 22.1947 23.2495 22.9845 25.1562C23.7742 27.0628 25.1711 28.6556 26.9583 29.6875L25.9167 31.4896C23.7389 30.2231 22.0392 28.2741 21.0806 25.9443C20.1221 23.6146 19.958 21.0338 20.6139 18.6014C21.2697 16.169 22.709 14.0206 24.7089 12.4885C26.7087 10.9564 29.1578 10.1262 31.6771 10.1262C34.1963 10.1262 36.6454 10.9564 38.6453 12.4885C40.6452 14.0206 42.0844 16.169 42.7403 18.6014C43.3961 21.0338 43.2321 23.6146 42.2735 25.9443C41.3149 28.2741 39.6153 30.2231 37.4375 31.4896H37.375Z" fill="#FA4616"/>
<path d="M46.1666 20.5417H36.7917V22.625H46.1666V20.5417Z" fill="#FA4616"/>
<path d="M26.375 20.5417H17V22.625H26.375V20.5417Z" fill="#FA4616"/>
<path d="M32.625 7H30.5417V16.375H32.625V7Z" fill="#FA4616"/>
<path d="M32.625 20.5417H30.5417V22.625H32.625V20.5417Z" fill="#FA4616"/>
<path d="M44.0833 56.9999C43.807 56.9999 43.5421 56.8902 43.3467 56.6949C43.1514 56.4995 43.0416 56.2345 43.0416 55.9583C43.1259 55.0382 43.4893 54.1659 44.0833 53.4583C44.6565 52.8229 45.0202 52.0264 45.125 51.177V40.3333C45.0976 40.0664 44.9791 39.817 44.7893 39.6273C44.5996 39.4375 44.3502 39.319 44.0833 39.2916H42C41.7237 39.2916 41.4587 39.1819 41.2634 38.9866C41.068 38.7912 40.9583 38.5262 40.9583 38.25C40.9309 37.983 40.8124 37.7337 40.6227 37.5439C40.4329 37.3542 40.1836 37.2357 39.9166 37.2083H37.8333C37.659 37.208 37.4876 37.164 37.3347 37.0803C37.1818 36.9966 37.0524 36.8758 36.9583 36.7291C36.6404 36.3967 36.2091 36.1959 35.75 36.1666H33.6666C33.3904 36.1666 33.1254 36.0569 32.9301 35.8616C32.7347 35.6662 32.625 35.4012 32.625 35.125C32.625 34.8487 32.7347 34.5838 32.9301 34.3884C33.1254 34.1931 33.3904 34.0833 33.6666 34.0833H35.75C36.6999 34.1192 37.6069 34.4879 38.3125 35.125H39.9166C40.5568 35.1453 41.1767 35.3538 41.6991 35.7243C42.2215 36.0948 42.6232 36.6109 42.8541 37.2083H44.0833C44.9054 37.2294 45.6881 37.5654 46.2696 38.147C46.8512 38.7285 47.1872 39.5111 47.2083 40.3333V51.177C47.1266 52.4542 46.6415 53.6725 45.8229 54.6562C45.4961 55.0328 45.2576 55.4776 45.125 55.9583C45.125 56.2345 45.0152 56.4995 44.8199 56.6949C44.6245 56.8902 44.3596 56.9999 44.0833 56.9999Z" fill="#404040"/>
<path d="M29.5 57C29.2237 57 28.9588 56.8902 28.7634 56.6949C28.5681 56.4995 28.4583 56.2346 28.4583 55.9583V55.4375C27.5692 53.9771 26.5735 52.5844 25.4792 51.2708C24.75 50.3333 24.1667 49.6041 23.9063 49.1875C23.4375 48.4583 20.9583 42.6875 20.2083 40.9375C20.1536 40.809 20.1253 40.6709 20.125 40.5312C20.1794 40.0195 20.3925 39.5376 20.7342 39.1528C21.076 38.7681 21.5295 38.4998 22.0312 38.3854C22.7978 38.1535 23.6191 38.1775 24.3708 38.4538C25.1225 38.7301 25.7639 39.2436 26.1979 39.9166L27.9062 42.5625C27.9481 42.6322 28.0058 42.691 28.0745 42.7345C28.1432 42.7779 28.2212 42.8046 28.3021 42.8125H28.4271V28.875C28.4271 28.0462 28.7563 27.2513 29.3424 26.6653C29.9284 26.0792 30.7233 25.75 31.5521 25.75C32.3809 25.75 33.1757 26.0792 33.7618 26.6653C34.3478 27.2513 34.6771 28.0462 34.6771 28.875V39.2916C34.6771 39.5679 34.5673 39.8329 34.372 40.0282C34.1766 40.2236 33.9117 40.3333 33.6354 40.3333C33.3591 40.3333 33.0942 40.2236 32.8988 40.0282C32.7035 39.8329 32.5937 39.5679 32.5937 39.2916V28.875C32.5937 28.5987 32.484 28.3338 32.2886 28.1384C32.0933 27.9431 31.8283 27.8333 31.5521 27.8333C31.2758 27.8333 31.0109 27.9431 30.8155 28.1384C30.6202 28.3338 30.5104 28.5987 30.5104 28.875V43.4583C30.5099 43.5986 30.481 43.7374 30.4255 43.8663C30.37 43.9952 30.2891 44.1115 30.1875 44.2083C29.9135 44.4725 29.5851 44.6738 29.2253 44.7979C28.8654 44.9221 28.4828 44.9661 28.1042 44.9271C27.719 44.8804 27.3487 44.7499 27.0194 44.5447C26.69 44.3395 26.4096 44.0647 26.1979 43.7396L24.5208 41.1354C24.3615 40.8882 24.1425 40.6851 23.884 40.5449C23.6254 40.4047 23.3358 40.3319 23.0417 40.3333C22.7833 40.3474 22.5342 40.434 22.3229 40.5833C23.6042 43.5729 25.3854 47.6458 25.6667 48.1042C25.9479 48.5625 26.4896 49.2083 27.125 50.0208C29.7396 53.3437 30.5521 54.5104 30.5521 55.3437V55.9583C30.5521 56.096 30.5248 56.2323 30.4718 56.3593C30.4188 56.4864 30.3411 56.6017 30.2433 56.6986C30.1455 56.7955 30.0294 56.872 29.9018 56.9237C29.7742 56.9754 29.6377 57.0013 29.5 57V57Z" fill="#404040"/>
<path d="M37.8333 41.375C37.5571 41.375 37.2921 41.2652 37.0968 41.0699C36.9014 40.8745 36.7917 40.6096 36.7917 40.3333V36.1666C36.7917 35.8904 36.9014 35.6254 37.0968 35.4301C37.2921 35.2347 37.5571 35.125 37.8333 35.125C38.1096 35.125 38.3745 35.2347 38.5699 35.4301C38.7652 35.6254 38.875 35.8904 38.875 36.1666V40.3333C38.875 40.6096 38.7652 40.8745 38.5699 41.0699C38.3745 41.2652 38.1096 41.375 37.8333 41.375Z" fill="#404040"/>
<path d="M42 42.4166C41.7237 42.4166 41.4588 42.3069 41.2634 42.1115C41.0681 41.9162 40.9583 41.6512 40.9583 41.375V38.25C40.9583 37.9737 41.0681 37.7088 41.2634 37.5134C41.4588 37.3181 41.7237 37.2083 42 37.2083C42.2762 37.2083 42.5412 37.3181 42.7365 37.5134C42.9319 37.7088 43.0416 37.9737 43.0416 38.25V41.375C43.0416 41.6512 42.9319 41.9162 42.7365 42.1115C42.5412 42.3069 42.2762 42.4166 42 42.4166Z" fill="#404040"/>
</svg>
