<svg width="64" height="64" viewBox="0 0 64 64" fill="none" xmlns="http://www.w3.org/2000/svg">
<path d="M37.6818 42.2273C37.3804 42.2273 37.0914 42.1076 36.8783 41.8945C36.6652 41.6813 36.5454 41.3923 36.5454 41.0909C36.5454 40.7895 36.6652 40.5005 36.8783 40.2874C37.0914 40.0743 37.3804 39.9545 37.6818 39.9545C38.5675 39.8983 39.4023 39.521 40.0298 38.8935C40.6574 38.266 41.0346 37.4311 41.0909 36.5454V28.5909C41.0909 25.8636 35.625 24.0454 32 24.0454C28.375 24.0454 22.9091 25.8636 22.9091 28.5909V41.0909C22.9091 41.3923 22.7894 41.6813 22.5762 41.8945C22.3631 42.1076 22.0741 42.2273 21.7727 42.2273C21.4713 42.2273 21.1823 42.1076 20.9692 41.8945C20.7561 41.6813 20.6364 41.3923 20.6364 41.0909V28.5909C20.6364 24.1477 27.2386 21.7727 32 21.7727C36.7614 21.7727 43.3636 24.1477 43.3636 28.5909V36.5454C43.31 38.0353 42.6942 39.4495 41.64 40.5037C40.5859 41.5578 39.1716 42.1737 37.6818 42.2273Z" fill="#404040"/>
<path d="M37.6818 57C37.3804 57 37.0914 56.8803 36.8783 56.6672C36.6652 56.4541 36.5454 56.165 36.5454 55.8636V29.7273C36.5454 29.4259 36.6652 29.1369 36.8783 28.9238C37.0914 28.7107 37.3804 28.5909 37.6818 28.5909C37.9832 28.5909 38.2722 28.7107 38.4853 28.9238C38.6984 29.1369 38.8182 29.4259 38.8182 29.7273V55.8636C38.8182 56.165 38.6984 56.4541 38.4853 56.6672C38.2722 56.8803 37.9832 57 37.6818 57Z" fill="#404040"/>
<path d="M26.3182 42.2273C26.0168 42.2273 25.7278 42.1076 25.5147 41.8945C25.3015 41.6814 25.1818 41.3923 25.1818 41.0909V29.7273C25.1818 29.4259 25.3015 29.1369 25.5147 28.9238C25.7278 28.7107 26.0168 28.5909 26.3182 28.5909C26.6196 28.5909 26.9086 28.7107 27.1217 28.9238C27.3348 29.1369 27.4546 29.4259 27.4546 29.7273V41.0909C27.4546 41.3923 27.3348 41.6814 27.1217 41.8945C26.9086 42.1076 26.6196 42.2273 26.3182 42.2273Z" fill="#404040"/>
<path d="M32 57C31.6986 57 31.4096 56.8803 31.1965 56.6672C30.9834 56.4541 30.8636 56.165 30.8636 55.8636V39.9545C30.8636 39.6532 30.9834 39.3641 31.1965 39.151C31.4096 38.9379 31.6986 38.8182 32 38.8182C32.3014 38.8182 32.5904 38.9379 32.8035 39.151C33.0167 39.3641 33.1364 39.6532 33.1364 39.9545V55.8636C33.1364 56.165 33.0167 56.4541 32.8035 56.6672C32.5904 56.8803 32.3014 57 32 57Z" fill="#404040"/>
<path d="M26.3182 57C26.0168 57 25.7278 56.8803 25.5147 56.6672C25.3015 56.4541 25.1818 56.165 25.1818 55.8636V50.1818C25.1818 49.8804 25.3015 49.5914 25.5147 49.3783C25.7278 49.1652 26.0168 49.0455 26.3182 49.0455C26.6196 49.0455 26.9086 49.1652 27.1217 49.3783C27.3348 49.5914 27.4546 49.8804 27.4546 50.1818V55.8636C27.4546 56.165 27.3348 56.4541 27.1217 56.6672C26.9086 56.8803 26.6196 57 26.3182 57Z" fill="#404040"/>
<path d="M27.4545 51.3182H17.2273C16.9259 51.3182 16.6369 51.1985 16.4237 50.9854C16.2106 50.7723 16.0909 50.4832 16.0909 50.1818V41.0909C16.0909 40.7895 16.2106 40.5005 16.4237 40.2874C16.6369 40.0743 16.9259 39.9545 17.2273 39.9545H27.4545C27.7559 39.9545 28.045 40.0743 28.2581 40.2874C28.4712 40.5005 28.5909 40.7895 28.5909 41.0909V50.1818C28.5909 50.4832 28.4712 50.7723 28.2581 50.9854C28.045 51.1985 27.7559 51.3182 27.4545 51.3182ZM18.3636 49.0455H26.3182V42.2273H18.3636V49.0455Z" fill="#404040"/>
<path d="M32 20.6364C31.247 20.6617 30.4968 20.5321 29.796 20.2555C29.0952 19.9789 28.4587 19.5613 27.926 19.0286C27.3932 18.4958 26.9756 17.8593 26.6991 17.1585C26.4225 16.4577 26.2928 15.7075 26.3182 14.9545V12.6818C26.3182 11.1749 26.9168 9.72973 27.9823 8.66418C29.0479 7.59863 30.4931 7 32 7C33.5069 7 34.9521 7.59863 36.0176 8.66418C37.0832 9.72973 37.6818 11.1749 37.6818 12.6818V14.9545C37.7088 15.708 37.5803 16.4589 37.3044 17.1604C37.0284 17.862 36.6108 18.4992 36.0777 19.0323C35.5447 19.5654 34.9075 19.9829 34.2059 20.2589C33.5043 20.5349 32.7534 20.6634 32 20.6364ZM32 9.27273C31.5454 9.24631 31.0903 9.3164 30.6648 9.47837C30.2392 9.64035 29.8527 9.89054 29.5307 10.2125C29.2087 10.5345 28.9585 10.921 28.7965 11.3466C28.6346 11.7722 28.5645 12.2272 28.5909 12.6818V14.9545C28.5909 15.8587 28.9501 16.7258 29.5894 17.3652C30.2287 18.0045 31.0958 18.3636 32 18.3636C32.9041 18.3636 33.7713 18.0045 34.4106 17.3652C35.0499 16.7258 35.4091 15.8587 35.4091 14.9545V12.6818C35.4355 12.2272 35.3654 11.7722 35.2034 11.3466C35.0415 10.921 34.7913 10.5345 34.4693 10.2125C34.1473 9.89054 33.7608 9.64035 33.3352 9.47837C32.9096 9.3164 32.4546 9.24631 32 9.27273V9.27273Z" fill="#404040"/>
<path d="M45.1364 53.8068L43.8863 51.9091C50.7045 47.3637 54.7045 40.4091 54.7045 33.1364C54.6919 28.8395 53.4674 24.6335 51.1719 21.0012C48.8764 17.3689 45.6028 14.4578 41.7273 12.6023L42.7045 10.5455C46.9669 12.5882 50.5669 15.7913 53.0915 19.7872C55.6161 23.7831 56.9628 28.4098 56.9773 33.1364C57 41.1705 52.5795 48.8977 45.1364 53.8068Z" fill="#FA4616"/>
<path d="M10.7045 46.25C8.27941 42.3144 6.99676 37.7819 7.00001 33.1591C7.00001 24.3864 11.7614 16.7841 20.0455 12.3068L21.1818 14.3069C13.6477 18.375 9.32956 25.25 9.32956 33.1591C9.3434 37.364 10.5235 41.4827 12.7386 45.0568L10.7045 46.25Z" fill="#FA4616"/>
<path d="M20.6705 18.2955L18.4546 17.8182L19.2386 14.1364L15.6818 13.2841L16.2159 11.0795L20.8523 12.2159C21.1417 12.2862 21.3919 12.4672 21.5492 12.7201C21.7065 12.973 21.7582 13.2776 21.6932 13.5682L20.6705 18.2955Z" fill="#FA4616"/>
<path d="M49.25 54.7273H49.0795L44.3636 53.9886C44.0718 53.9436 43.809 53.7867 43.6309 53.5513C43.4527 53.3159 43.3732 53.0203 43.4091 52.7273L44.0454 47.8977C44.0846 47.5964 44.2419 47.3229 44.4828 47.1375C44.7236 46.9521 45.0282 46.8699 45.3295 46.9091C45.6309 46.9483 45.9044 47.1056 46.0898 47.3464C46.2752 47.5872 46.3574 47.8918 46.3182 48.1932L45.8295 51.9204L49.4432 52.4773C49.5924 52.4885 49.738 52.5289 49.8716 52.5964C50.0052 52.6638 50.1241 52.7569 50.2218 52.8704C50.3194 52.9838 50.3937 53.1153 50.4404 53.2575C50.4872 53.3996 50.5055 53.5496 50.4943 53.6989C50.4831 53.8481 50.4427 53.9937 50.3752 54.1272C50.3078 54.2608 50.2147 54.3798 50.1012 54.4774C49.9878 54.575 49.8562 54.6493 49.7141 54.6961C49.5719 54.7429 49.422 54.7612 49.2727 54.75L49.25 54.7273Z" fill="#FA4616"/>
</svg>
