<svg width="64" height="64" viewBox="0 0 64 64" fill="none" xmlns="http://www.w3.org/2000/svg">
<path d="M55.959 50.5996H52.8359V48.5176H54.918V21.4512C54.918 21.1751 54.8083 20.9103 54.6131 20.715C54.4179 20.5198 54.153 20.4102 53.877 20.4102H16.4004C16.1243 20.4102 15.8595 20.5198 15.6643 20.715C15.4691 20.9103 15.3594 21.1751 15.3594 21.4512V46.2586C15.3836 47.3472 14.9889 48.4037 14.2566 49.2096C13.5242 50.0155 12.5103 50.5094 11.4243 50.5892C10.8537 50.6246 10.282 50.5421 9.74471 50.3469C9.20741 50.1517 8.71606 49.8479 8.30127 49.4545C7.89085 49.0659 7.56384 48.5979 7.34012 48.0789C7.11641 47.5599 7.00067 47.0008 7 46.4356V13.1231C7 12.2948 7.32905 11.5004 7.91473 10.9147C8.50042 10.329 9.29476 10 10.123 10H23.6563C23.7933 9.99923 23.9291 10.0255 24.0559 10.0773C24.1828 10.1291 24.2981 10.2054 24.3954 10.3019L27.2165 13.1231H50.7227C50.9988 13.1231 51.2636 13.2327 51.4588 13.4279C51.654 13.6232 51.7637 13.888 51.7637 14.1641V17.2871H49.6817V15.2051H26.7793C26.5062 15.2039 26.2445 15.0955 26.0506 14.9032L23.3127 12.082H10.1543C9.87818 12.082 9.61341 12.1917 9.41818 12.3869C9.22295 12.5821 9.11326 12.847 9.11326 13.1231V46.4356C9.11283 46.7189 9.17024 46.9993 9.28196 47.2597C9.39368 47.52 9.55738 47.7549 9.76301 47.9498C9.96864 48.1447 10.2119 48.2956 10.4778 48.3932C10.7438 48.4908 11.0269 48.5332 11.3098 48.5176C11.8609 48.4553 12.3685 48.1888 12.7327 47.7706C13.097 47.3524 13.2913 46.8129 13.2773 46.2586V21.4512C13.2773 20.6229 13.6064 19.8285 14.1921 19.2428C14.7777 18.6572 15.5721 18.3281 16.4004 18.3281H53.877C54.7052 18.3281 55.4996 18.6572 56.0853 19.2428C56.671 19.8285 57 20.6229 57 21.4512V49.5586C57 49.8347 56.8903 50.0995 56.6951 50.2947C56.4999 50.4899 56.2351 50.5996 55.959 50.5996Z" fill="#404040"/>
<path d="M28.8926 48.5176H11.1953V50.5996H28.8926V48.5176Z" fill="#404040"/>
<path d="M50.7539 53.7227H30.9746V49.6211C30.9746 45.8838 35.3989 42.844 40.8434 42.844C46.2879 42.844 50.7123 45.8838 50.7123 49.6211L50.7539 53.7227ZM33.0566 51.6406H48.6719V49.6211C48.6719 47.1226 45.0387 44.9261 40.8851 44.9261C36.7314 44.9261 33.0983 47.1226 33.0983 49.6211L33.0566 51.6406Z" fill="#FA4616"/>
<path d="M40.8642 41.2305C37.3872 41.2305 35.1386 39.1484 35.1386 36.0254V32.9024C35.1386 29.7793 37.3872 27.6973 40.8642 27.6973C44.3412 27.6973 46.5898 29.7793 46.5898 32.9024V36.0254C46.5898 39.1901 44.3412 41.2305 40.8642 41.2305ZM40.8642 29.7793C39.7712 29.7793 37.2207 30.0812 37.2207 32.9024V36.0254C37.2207 38.8466 39.7712 39.1484 40.8642 39.1484C41.9573 39.1484 44.5078 38.8466 44.5078 36.0254V32.9024C44.5078 30.0812 41.9573 29.7793 40.8642 29.7793Z" fill="#FA4616"/>
</svg>
