<svg width="64" height="64" viewBox="0 0 64 64" fill="none" xmlns="http://www.w3.org/2000/svg">
<path d="M8.03921 55.1104C7.87997 55.111 7.72268 55.0753 7.57937 55.0058C7.33139 54.8824 7.14256 54.6656 7.05437 54.403C6.96619 54.1404 6.98586 53.8535 7.10907 53.6054L11.2268 45.2446C12.2718 43.2381 14.0799 42.3184 16.7449 42.4751L22.796 42.9872L29.9235 39.2144C30.0639 39.1476 30.2174 39.1129 30.3729 39.1129C30.5284 39.1129 30.6819 39.1476 30.8223 39.2144C30.965 39.2748 31.0924 39.3661 31.1954 39.4818C31.2985 39.5975 31.3745 39.7346 31.418 39.8833C31.4703 40.0714 32.7453 44.6176 29.3278 46.5301L23.9038 49.6654C23.7578 49.7526 23.5928 49.8028 23.423 49.8117L16.2641 50.1566C15.9869 50.1566 15.7211 50.0465 15.5251 49.8505C15.3291 49.6545 15.219 49.3887 15.219 49.1115C15.219 48.8343 15.3291 48.5685 15.5251 48.3725C15.7211 48.1765 15.9869 48.0664 16.2641 48.0664L23.1618 47.732L28.3872 44.6699C28.8351 44.3398 29.1846 43.894 29.3982 43.3803C29.6118 42.8665 29.6814 42.3043 29.5996 41.754L23.4962 44.9729C23.3195 45.0653 23.12 45.1052 22.9214 45.0879L16.5881 44.5653C14.7801 44.4504 13.7245 44.9311 13.1079 46.1748L8.92754 54.5356C8.84401 54.7018 8.71765 54.8426 8.56149 54.9437C8.40533 55.0447 8.22503 55.1023 8.03921 55.1104Z" fill="#FA4616"/>
<path d="M18.5006 55.3403C18.3682 55.3406 18.237 55.3158 18.1139 55.2671C17.9859 55.2155 17.8693 55.139 17.771 55.0421C17.6727 54.9451 17.5945 54.8297 17.5411 54.7024C17.4876 54.5751 17.46 54.4385 17.4596 54.3004C17.4593 54.1623 17.4863 54.0256 17.5391 53.898L19.7129 48.5576C19.8182 48.3012 20.0211 48.0972 20.2769 47.9903C20.5326 47.8835 20.8204 47.8827 21.0768 47.988C21.3331 48.0933 21.5372 48.2962 21.644 48.552C21.7508 48.8078 21.7517 49.0955 21.6463 49.3519L19.4725 54.6923C19.3935 54.8848 19.2587 55.0493 19.0855 55.1648C18.9124 55.2802 18.7087 55.3413 18.5006 55.3403Z" fill="#FA4616"/>
<path d="M25.555 38.3052C25.3572 38.3059 25.1633 38.2504 24.9958 38.1453C24.8283 38.0401 24.6941 37.8896 24.6087 37.7112C24.5233 37.5328 24.4903 37.3339 24.5136 37.1375C24.5368 36.9411 24.6152 36.7553 24.7398 36.6017L26.83 34.0412L29.077 30.7283L29.1397 30.6446C29.5473 30.1639 29.2024 29.2338 28.753 28.4604L25.346 32.3482C25.2576 32.4566 25.1483 32.5463 25.0246 32.6117C24.9008 32.6772 24.7652 32.7171 24.6258 32.7292C24.4864 32.7412 24.3459 32.7251 24.2128 32.6819C24.0797 32.6386 23.9567 32.5691 23.851 32.4774C23.7452 32.3856 23.659 32.2737 23.5974 32.148C23.5358 32.0223 23.5001 31.8855 23.4923 31.7458C23.4846 31.6061 23.505 31.4662 23.5523 31.3345C23.5996 31.2028 23.673 31.0819 23.7679 30.9791L28.0632 26.0671C28.1612 25.9556 28.2817 25.8663 28.4169 25.805C28.552 25.7438 28.6987 25.712 28.8471 25.7118C28.9972 25.7105 29.1459 25.7416 29.2829 25.8029C29.42 25.8642 29.5422 25.9543 29.6413 26.0671C30.7805 27.3735 32.2854 30.0594 30.7909 31.9197L28.5126 35.2744L26.3597 37.9081C26.2635 38.0299 26.1414 38.1287 26.0022 38.1974C25.863 38.2661 25.7102 38.3029 25.555 38.3052Z" fill="#FA4616"/>
<path d="M25.7745 26.527C25.5078 26.5274 25.2511 26.426 25.0568 26.2434C24.8625 26.0607 24.7454 25.8107 24.7294 25.5446C24.5636 22.3672 25.3621 19.214 27.0201 16.4985C28.6781 13.783 31.1182 11.6321 34.0203 10.328C34.1458 10.2723 34.2811 10.2419 34.4185 10.2386C34.5558 10.2353 34.6924 10.259 34.8205 10.3085C34.9486 10.358 35.0657 10.4323 35.1651 10.5271C35.2645 10.6219 35.3443 10.7353 35.3998 10.861C35.4555 10.9865 35.4858 11.1218 35.4892 11.2592C35.4925 11.3965 35.4688 11.5331 35.4193 11.6612C35.3698 11.7893 35.2955 11.9064 35.2007 12.0058C35.1059 12.1052 34.9924 12.185 34.8668 12.2405C32.3526 13.369 30.2385 15.2316 28.8023 17.5836C27.3661 19.9356 26.6749 22.6671 26.8196 25.4192C26.828 25.5573 26.809 25.6957 26.7635 25.8264C26.718 25.9571 26.647 26.0775 26.5547 26.1806C26.4623 26.2836 26.3504 26.3673 26.2254 26.4268C26.1005 26.4863 25.9649 26.5203 25.8267 26.527H25.7745Z" fill="#404040"/>
<path d="M50.7732 54.2952C50.529 54.2957 50.2923 54.2106 50.1043 54.0548L48.7352 52.9261C48.0373 53.0661 47.3124 52.9644 46.6799 52.6377C46.0474 52.311 45.5449 51.7788 45.2551 51.1285L43.1649 46.3524C41.7226 43.0813 39.0576 41.754 35.9851 40.2073C34.017 39.314 32.1613 38.1915 30.4565 36.863C30.2443 36.6875 30.1099 36.4354 30.0825 36.1615C30.0551 35.8875 30.1369 35.6138 30.3102 35.3998C30.3972 35.2933 30.5044 35.2049 30.6256 35.1398C30.7468 35.0747 30.8797 35.0343 31.0166 35.0207C31.1535 35.0071 31.2918 35.0206 31.4234 35.0606C31.5551 35.1006 31.6775 35.1661 31.7838 35.2535C33.3746 36.4739 35.0998 37.5083 36.9257 38.3366C40.0609 39.9147 43.3216 41.5554 45.0774 45.4955L47.1676 50.2716C47.2231 50.3972 47.3028 50.5107 47.4022 50.6055C47.5016 50.7002 47.6188 50.7745 47.7469 50.824C47.875 50.8735 48.0116 50.8973 48.1489 50.8939C48.2863 50.8906 48.4216 50.8602 48.5471 50.8046C48.7195 50.7355 48.9073 50.7136 49.091 50.7411C49.2746 50.7687 49.4477 50.8447 49.5922 50.9613L50.8986 52.0064L53.5427 50.8359L53.6158 49.1533C53.6241 48.9594 53.6861 48.7717 53.795 48.6111C53.9039 48.4505 54.0554 48.3234 54.2325 48.2441C54.3589 48.188 54.473 48.1074 54.5681 48.007C54.6632 47.9065 54.7374 47.7882 54.7864 47.6588C54.8909 47.4044 54.8909 47.119 54.7864 46.8646L52.6962 42.0885C50.9404 38.138 51.9123 34.6265 52.8529 31.2404C53.898 27.6139 54.9431 23.862 52.8529 19.1695C52.1293 17.5381 51.0913 16.0652 49.7983 14.835C48.5053 13.6049 46.9826 12.6415 45.3172 12C43.6518 11.3585 41.8763 11.0514 40.0921 11.0962C38.308 11.1411 36.5502 11.537 34.9191 12.2614C34.6655 12.3737 34.3776 12.3806 34.1189 12.2806C33.8602 12.1806 33.6518 11.982 33.5395 11.7284C33.4273 11.4748 33.4204 11.1869 33.5203 10.9282C33.6203 10.6695 33.8189 10.4611 34.0725 10.3489C35.9548 9.51315 37.9832 9.05644 40.042 9.00491C42.1007 8.95338 44.1495 9.30802 46.0711 10.0485C47.9928 10.7891 49.7497 11.901 51.2416 13.3207C52.7334 14.7405 53.9308 16.4403 54.7655 18.3229C57.1587 23.7052 55.9673 28.0006 54.9118 31.7943C53.9921 35.1072 53.1978 37.9708 54.6505 41.2001L56.7407 45.9762C57.0257 46.6329 57.0775 47.3673 56.8874 48.0574C56.6973 48.7476 56.2767 49.3519 55.6956 49.7699L55.6224 51.5361C55.6133 51.7311 55.5497 51.9196 55.4388 52.0803C55.328 52.241 55.1744 52.3675 54.9954 52.4454L51.1808 54.1384C51.0575 54.2188 50.9186 54.2722 50.7732 54.2952V54.2952Z" fill="#404040"/>
<path d="M44.095 46.9795C43.8568 46.9784 43.626 46.8959 43.4411 46.7458C43.2561 46.5956 43.128 46.3867 43.078 46.1538C43.028 45.9208 43.0591 45.6778 43.1661 45.4649C43.2732 45.2521 43.4497 45.0822 43.6665 44.9834L53.2396 40.7089C53.3652 40.6534 53.5005 40.6231 53.6378 40.6198C53.7751 40.6165 53.9117 40.6402 54.0398 40.6897C54.1679 40.7392 54.285 40.8135 54.3844 40.9082C54.4838 41.003 54.5636 41.1164 54.6191 41.2419C54.6747 41.3675 54.705 41.5028 54.7083 41.6401C54.7116 41.7774 54.6879 41.914 54.6384 42.0421C54.5889 42.1702 54.5146 42.2873 54.4199 42.3867C54.3251 42.4861 54.2117 42.5659 54.0861 42.6215L44.534 46.8541C44.3987 46.9277 44.2488 46.9706 44.095 46.9795Z" fill="#404040"/>
<path d="M48.8711 44.8057C48.6683 44.8073 48.4694 44.7499 48.2987 44.6404C48.128 44.5309 47.9928 44.3741 47.9096 44.1891L41.9735 30.8119C41.8612 30.5582 41.8543 30.2704 41.9543 30.0117C42.0542 29.753 42.2529 29.5446 42.5065 29.4323C42.7601 29.3201 43.0479 29.3132 43.3066 29.4131C43.5653 29.5131 43.7738 29.7117 43.886 29.9653L49.8222 43.3425C49.8778 43.4681 49.9082 43.6034 49.9115 43.7407C49.9149 43.8781 49.8911 44.0147 49.8416 44.1428C49.7921 44.2709 49.7178 44.388 49.6231 44.4874C49.5283 44.5868 49.4148 44.6666 49.2892 44.7221C49.156 44.7749 49.0144 44.8032 48.8711 44.8057Z" fill="#404040"/>
<path d="M42.9245 31.4389C42.7994 31.4348 42.6758 31.4101 42.5587 31.3658L38.3783 29.7668C38.25 29.7181 38.1325 29.6446 38.0326 29.5504C37.9327 29.4563 37.8523 29.3435 37.796 29.2183C37.7397 29.0931 37.7086 28.958 37.7045 28.8208C37.7004 28.6836 37.7234 28.5469 37.7722 28.4186C37.8726 28.1613 38.0707 27.9542 38.3234 27.8426C38.576 27.731 38.8625 27.7239 39.1203 27.8229L43.3007 29.4114C43.5335 29.4958 43.7288 29.66 43.8517 29.8749C43.9747 30.0897 44.0174 30.3413 43.9723 30.5847C43.9271 30.8281 43.797 31.0476 43.6051 31.204C43.4132 31.3605 43.172 31.4437 42.9245 31.4389V31.4389Z" fill="#404040"/>
<path d="M42.9245 31.4389C42.7994 31.4348 42.6758 31.4101 42.5587 31.3658C42.4304 31.317 42.3129 31.2435 42.213 31.1494C42.1131 31.0553 42.0327 30.9424 41.9764 30.8172C41.9201 30.692 41.889 30.557 41.8849 30.4198C41.8809 30.2826 41.9038 30.1459 41.9526 30.0176L43.5516 25.8372C43.5934 25.6996 43.6631 25.5722 43.7565 25.4628C43.8498 25.3534 43.9647 25.2645 44.0939 25.2015C44.2232 25.1386 44.364 25.103 44.5077 25.097C44.6513 25.0909 44.7947 25.1146 44.9288 25.1665C45.0628 25.2184 45.1848 25.2974 45.2869 25.3986C45.3891 25.4998 45.4693 25.6209 45.5224 25.7545C45.5756 25.8881 45.6007 26.0312 45.596 26.1749C45.5914 26.3186 45.5571 26.4598 45.4954 26.5897L43.9069 30.77C43.8305 30.9681 43.6955 31.1382 43.52 31.2577C43.3445 31.3772 43.1368 31.4404 42.9245 31.4389Z" fill="#404040"/>
<path d="M19.0336 41.754C18.389 41.7367 17.7543 41.5907 17.1668 41.3246C16.5794 41.0585 16.0511 40.6777 15.6129 40.2045C15.1748 39.7313 14.8356 39.1753 14.6154 38.5691C14.3952 37.963 14.2984 37.319 14.3307 36.6749V35.3371C14.2877 34.6931 14.3775 34.0472 14.5944 33.4394C14.8113 32.8315 15.1507 32.2747 15.5916 31.8034C16.0325 31.3321 16.5656 30.9563 17.1576 30.6995C17.7497 30.4426 18.3882 30.31 19.0336 30.31C19.679 30.31 20.3175 30.4426 20.9096 30.6995C21.5017 30.9563 22.0347 31.3321 22.4756 31.8034C22.9165 32.2747 23.256 32.8315 23.4729 33.4394C23.6898 34.0472 23.7795 34.6931 23.7366 35.3371V36.6749C23.7688 37.319 23.672 37.963 23.4518 38.5691C23.2316 39.1753 22.8925 39.7313 22.4543 40.2045C22.0162 40.6777 21.4879 41.0585 20.9004 41.3246C20.313 41.5907 19.6783 41.7367 19.0336 41.754V41.754ZM19.0336 32.3482C18.6646 32.3693 18.3034 32.4638 17.9713 32.6262C17.6392 32.7886 17.3429 33.0157 17.0996 33.294C16.8563 33.5723 16.671 33.8964 16.5544 34.2472C16.4379 34.598 16.3925 34.9685 16.4209 35.3371V36.6749C16.3739 37.0457 16.4064 37.4223 16.5162 37.7796C16.626 38.137 16.8106 38.4668 17.0577 38.7473C17.3049 39.0277 17.6089 39.2523 17.9496 39.4062C18.2903 39.5601 18.6598 39.6397 19.0336 39.6397C19.4074 39.6397 19.777 39.5601 20.1176 39.4062C20.4583 39.2523 20.7624 39.0277 21.0095 38.7473C21.2567 38.4668 21.4413 38.137 21.5511 37.7796C21.6609 37.4223 21.6934 37.0457 21.6464 36.6749V35.3371C21.6748 34.9685 21.6294 34.598 21.5128 34.2472C21.3963 33.8964 21.211 33.5723 20.9677 33.294C20.7244 33.0157 20.428 32.7886 20.0959 32.6262C19.7638 32.4638 19.4027 32.3693 19.0336 32.3482V32.3482Z" fill="#FA4616"/>
</svg>
