<svg width="64" height="64" viewBox="0 0 64 64" fill="none" xmlns="http://www.w3.org/2000/svg">
<path d="M35.5319 7H33.4042V16.5745H35.5319V7Z" fill="#404040"/>
<path d="M18.1992 13.6931L16.6948 15.1976L23.1866 21.6894L24.6911 20.185L18.1992 13.6931Z" fill="#404040"/>
<path d="M19.5745 30.4043H10V32.5319H19.5745V30.4043Z" fill="#404040"/>
<path d="M23.1984 41.24L16.7066 47.7318L18.2111 49.2363L24.7029 42.7444L23.1984 41.24Z" fill="#404040"/>
<path d="M35.5319 57H32.3404C32.0598 56.996 31.7922 56.8812 31.5958 56.6808L30.8404 55.9362H30.2128V53.8085H31.2766C31.4166 53.8077 31.5554 53.8345 31.685 53.8875C31.8146 53.9404 31.9325 54.0184 32.0319 54.117L32.7872 54.8723H35.5319V57Z" fill="#404040"/>
<path d="M35.5319 47.4255H28.0851V49.5532H35.5319V47.4255Z" fill="#404040"/>
<path d="M35.5319 50.617H28.0851V52.7447H35.5319V50.617Z" fill="#404040"/>
<path d="M30.2128 46.3617H28.0851V44.234C28.101 43.4383 27.9598 42.6471 27.6695 41.906C27.3793 41.1649 26.9457 40.4882 26.3936 39.9148C24.7094 38.3 23.5463 36.2185 23.0539 33.9377C22.5615 31.6569 22.7621 29.281 23.6301 27.115C24.498 24.9491 25.9937 23.0922 27.9249 21.7827C29.8561 20.4731 32.1347 19.7708 34.4681 19.766H35.5319V21.8936H34.4681C31.9288 21.8936 29.4935 22.9023 27.6979 24.6979C25.9024 26.4934 24.8936 28.9288 24.8936 31.4681C24.906 32.771 25.1797 34.0581 25.6987 35.2532C26.2177 36.4483 26.9713 37.527 27.9149 38.4255C28.6606 39.1953 29.2474 40.1045 29.6417 41.1012C30.036 42.0978 30.23 43.1624 30.2128 44.234V46.3617Z" fill="#404040"/>
<path d="M28.107 13.3724L26.1413 14.1866L27.7698 18.118L29.7355 17.3038L28.107 13.3724Z" fill="#404040"/>
<path d="M17.1752 23.224L16.361 25.1897L20.2924 26.8181L21.1066 24.8524L17.1752 23.224Z" fill="#404040"/>
<path d="M20.3255 36.1678L16.3944 37.7969L17.209 39.7625L21.1401 38.1333L20.3255 36.1678Z" fill="#404040"/>
<path d="M40.851 33.5957H38.7234V57H40.851V33.5957Z" fill="#FA4616"/>
<path d="M45.1064 43.1702H42.9787V57H45.1064V43.1702Z" fill="#FA4616"/>
<path d="M39.7872 45.2979H38.7234C37.5948 45.2979 36.5125 44.8495 35.7144 44.0514C34.9164 43.2534 34.4681 42.1711 34.4681 41.0425V33.5957C34.4681 29.5319 36.4042 27.2128 39.7872 27.2128H44.0425C44.3247 27.2128 44.5953 27.3248 44.7948 27.5243C44.9943 27.7238 45.1064 27.9944 45.1064 28.2766C45.1064 28.5587 44.9943 28.8293 44.7948 29.0288C44.5953 29.2283 44.3247 29.3404 44.0425 29.3404H39.7872C39 29.3404 36.5957 29.3404 36.5957 33.5957V41.0425C36.5957 41.6068 36.8199 42.148 37.2189 42.547C37.6179 42.946 38.1591 43.1702 38.7234 43.1702H39.7872C40.0694 43.1702 40.34 43.2822 40.5395 43.4817C40.739 43.6812 40.8511 43.9519 40.8511 44.234C40.8511 44.5162 40.739 44.7867 40.5395 44.9862C40.34 45.1858 40.0694 45.2979 39.7872 45.2979Z" fill="#FA4616"/>
<path d="M49.3617 33.5957H47.234V57H49.3617V33.5957Z" fill="#FA4616"/>
<path d="M49.3617 45.2979H48.2978C48.0157 45.2979 47.7451 45.1858 47.5456 44.9862C47.3461 44.7867 47.234 44.5162 47.234 44.234C47.234 43.9519 47.3461 43.6812 47.5456 43.4817C47.7451 43.2822 48.0157 43.1702 48.2978 43.1702H49.3617C49.926 43.1702 50.4671 42.946 50.8662 42.547C51.2652 42.148 51.4893 41.6068 51.4893 41.0425V33.5957C51.4893 29.3404 49.0851 29.3404 48.2978 29.3404H44.0425C43.7604 29.3404 43.4898 29.2283 43.2903 29.0288C43.0908 28.8293 42.9787 28.5587 42.9787 28.2766C42.9787 27.9944 43.0908 27.7238 43.2903 27.5243C43.4898 27.3248 43.7604 27.2128 44.0425 27.2128H48.2978C51.6808 27.2128 53.617 29.5319 53.617 33.5957V41.0425C53.617 42.1711 53.1687 43.2534 52.3706 44.0514C51.5726 44.8495 50.4903 45.2979 49.3617 45.2979Z" fill="#FA4616"/>
<path d="M44.0425 26.1383C42.6318 26.1383 41.2789 25.5779 40.2813 24.5804C39.2838 23.5828 38.7234 22.2299 38.7234 20.8192C38.7361 19.4084 39.3087 18.0605 40.3152 17.0719C41.3217 16.0834 42.6797 15.5352 44.0904 15.5479C45.5011 15.5606 46.849 16.1331 47.8376 17.1397C48.8261 18.1462 49.3744 19.5041 49.3617 20.9149V20.9149C49.3477 22.3164 48.7811 23.6557 47.7851 24.6418C46.789 25.6278 45.4441 26.1809 44.0425 26.1808V26.1383ZM44.0425 17.6277C43.4121 17.6261 42.7953 17.8113 42.27 18.1598C41.7447 18.5084 41.3344 19.0048 41.0909 19.5863C40.8473 20.1678 40.7815 20.8084 40.9016 21.4273C41.0218 22.0462 41.3225 22.6157 41.7659 23.0638C42.0577 23.3638 42.4067 23.6021 42.7923 23.7648C43.1779 23.9274 43.5922 24.011 44.0106 24.0107C44.43 24.0219 44.8472 23.9475 45.2368 23.792C45.6264 23.6366 45.9802 23.4032 46.2766 23.1064C46.7302 22.665 47.0423 22.0987 47.1733 21.4794C47.3043 20.8602 47.2481 20.216 47.0121 19.6288C46.7761 19.0415 46.3707 18.5377 45.8476 18.1814C45.3246 17.8251 44.7074 17.6323 44.0744 17.6277H44.0425Z" fill="#FA4616"/>
</svg>
