<svg width="64" height="64" viewBox="0 0 64 64" fill="none" xmlns="http://www.w3.org/2000/svg">
<path d="M20.5371 45.4461H8.04132C7.76514 45.4461 7.50028 45.3364 7.305 45.1411C7.10971 44.9458 7 44.6809 7 44.4047V35.0329C7 34.7567 7.10971 34.4919 7.305 34.2966C7.50028 34.1013 7.76514 33.9916 8.04132 33.9916H20.5371C20.8133 33.9916 21.0782 34.1013 21.2734 34.2966C21.4687 34.4919 21.5784 34.7567 21.5784 35.0329V44.4047C21.5784 44.6809 21.4687 44.9458 21.2734 45.1411C21.0782 45.3364 20.8133 45.4461 20.5371 45.4461ZM9.08263 43.3634H19.4958V36.0742H9.08263V43.3634Z" fill="#404040"/>
<path d="M11.2486 55.8696C11.1347 55.869 11.0218 55.8479 10.9154 55.8072C10.655 55.7193 10.44 55.532 10.3171 55.2863C10.1942 55.0405 10.1735 54.7561 10.2593 54.4951L13.7686 44.0819C13.8556 43.8196 14.0432 43.6025 14.2903 43.4785C14.5373 43.3545 14.8235 43.3337 15.0859 43.4207C15.3482 43.5077 15.5653 43.6954 15.6893 43.9424C15.8133 44.1894 15.8341 44.4756 15.7471 44.738L12.2378 55.1511C12.1698 55.3599 12.0374 55.5418 11.8598 55.6709C11.6821 55.7999 11.4682 55.8695 11.2486 55.8696V55.8696Z" fill="#404040"/>
<path d="M22.7031 19.4132C21.6733 19.4132 20.6667 19.1078 19.8105 18.5357C18.9542 17.9636 18.2869 17.1504 17.8928 16.1991C17.4987 15.2477 17.3956 14.2008 17.5965 13.1908C17.7974 12.1809 18.2933 11.2531 19.0215 10.525C19.7496 9.79682 20.6773 9.30094 21.6873 9.10005C22.6973 8.89915 23.7442 9.00225 24.6956 9.39633C25.6469 9.7904 26.4601 10.4577 27.0322 11.314C27.6043 12.1702 27.9097 13.1768 27.9097 14.2066C27.9097 15.5875 27.3611 16.9118 26.3847 17.8882C25.4083 18.8646 24.0839 19.4132 22.7031 19.4132V19.4132ZM22.7031 11.0826C22.0852 11.0826 21.4812 11.2659 20.9675 11.6091C20.4538 11.9524 20.0534 12.4403 19.8169 13.0111C19.5805 13.5819 19.5186 14.2101 19.6392 14.816C19.7597 15.422 20.0572 15.9787 20.4941 16.4156C20.931 16.8524 21.4876 17.15 22.0936 17.2705C22.6996 17.391 23.3277 17.3292 23.8986 17.0927C24.4694 16.8563 24.9573 16.4559 25.3005 15.9422C25.6438 15.4284 25.827 14.8244 25.827 14.2066C25.827 13.3781 25.4979 12.5835 24.912 11.9976C24.3262 11.4118 23.5316 11.0826 22.7031 11.0826V11.0826Z" fill="#404040"/>
<path d="M29.909 33.2835C29.7332 33.284 29.5606 33.2373 29.4091 33.1481L23.2445 29.743C23.0038 29.6109 22.8249 29.3891 22.7469 29.1258C22.6689 28.8625 22.6981 28.5791 22.828 28.3372C22.8934 28.2166 22.982 28.1102 23.0886 28.0239C23.1953 27.9377 23.318 27.8733 23.4496 27.8346C23.5811 27.7959 23.7191 27.7836 23.8555 27.7984C23.9918 27.8131 24.1239 27.8547 24.2442 27.9207L30.4088 31.2841C30.5294 31.3495 30.6358 31.4381 30.7221 31.5448C30.8083 31.6514 30.8727 31.7741 30.9114 31.9057C30.9501 32.0373 30.9624 32.1752 30.9476 32.3116C30.9329 32.4479 30.8913 32.5801 30.8253 32.7003C30.741 32.8724 30.6109 33.0179 30.4492 33.1208C30.2875 33.2237 30.1006 33.28 29.909 33.2835Z" fill="#404040"/>
<path d="M15.4139 55.8697C15.2858 55.8656 15.1592 55.841 15.039 55.7968C14.9108 55.7473 14.7937 55.6729 14.6944 55.578C14.5951 55.483 14.5155 55.3693 14.4604 55.2435C14.4052 55.1177 14.3755 54.9822 14.3729 54.8448C14.3703 54.7074 14.395 54.5709 14.4454 54.4431L18.4857 44.0299C18.5314 43.897 18.6034 43.7747 18.6976 43.6703C18.7918 43.566 18.9061 43.4818 19.0337 43.4228C19.1612 43.3638 19.2994 43.3313 19.4399 43.3271C19.5804 43.323 19.7202 43.3473 19.8511 43.3987C19.9819 43.45 20.101 43.5273 20.2011 43.6259C20.3013 43.7245 20.3805 43.8424 20.4339 43.9724C20.4873 44.1024 20.5138 44.2418 20.5119 44.3824C20.5099 44.5229 20.4796 44.6616 20.4226 44.7901L16.3823 55.2345C16.3019 55.4243 16.1669 55.586 15.9945 55.6991C15.8221 55.8122 15.62 55.8716 15.4139 55.8697Z" fill="#404040"/>
<path d="M27.7743 49.6113C27.5232 49.6142 27.2795 49.5262 27.0881 49.3635C26.8968 49.2009 26.7706 48.9745 26.733 48.7262L25.8166 42.5616L20.1623 40.3853C19.9253 40.275 19.7385 40.0796 19.639 39.8379C19.5394 39.5963 19.5344 39.326 19.6249 39.0808C19.7153 38.8356 19.8947 38.6334 20.1274 38.5143C20.36 38.3952 20.629 38.368 20.8808 38.438L27.1287 40.833C27.3012 40.8996 27.4529 41.0108 27.5682 41.1554C27.6835 41.3 27.7583 41.4727 27.7847 41.6557L28.826 48.4242C28.8648 48.6961 28.7947 48.9722 28.6309 49.1926C28.467 49.413 28.2228 49.5597 27.9513 49.6009L27.7743 49.6113ZM31.9916 49.6113C31.7358 49.6132 31.4882 49.5208 31.2962 49.3518C31.1041 49.1828 30.981 48.949 30.9503 48.695L29.909 39.8438L23.1196 35.9389C22.9607 35.8471 22.8289 35.715 22.7374 35.5559C22.646 35.3968 22.5982 35.2164 22.5989 35.0329V24.6197C22.5989 23.6721 22.2761 23.4847 20.8912 22.8287L20.079 22.4226C19.449 22.0476 18.7295 21.8496 17.9963 21.8496C17.2632 21.8496 16.5437 22.0476 15.9137 22.4226C15.2257 22.8073 14.5583 23.2279 13.9144 23.6826C13.7046 23.8399 13.5349 24.0444 13.4191 24.2797C13.3033 24.5149 13.2447 24.7741 13.2479 25.0363V35.0329C13.2479 35.3091 13.1382 35.5739 12.9429 35.7692C12.7476 35.9645 12.4828 36.0742 12.2066 36.0742C11.9304 36.0742 11.6656 35.9645 11.4703 35.7692C11.275 35.5739 11.1653 35.3091 11.1653 35.0329V25.0363C11.1596 24.4547 11.2882 23.8796 11.541 23.3559C11.7939 22.8321 12.1642 22.3737 12.6231 22.0165C13.3511 21.4935 14.1091 21.0137 14.8932 20.5794C15.83 20.0374 16.8932 19.7519 17.9755 19.7519C19.0578 19.7519 20.121 20.0374 21.0578 20.5794L21.8075 20.9439C23.2342 21.6208 24.7024 22.3184 24.7024 24.6197V34.4081L31.4293 38.2714C31.5692 38.3529 31.6882 38.466 31.7768 38.6016C31.8654 38.7371 31.9211 38.8915 31.9396 39.0524L32.9809 48.4242C32.9968 48.5603 32.9858 48.6983 32.9483 48.8301C32.9109 48.9619 32.8478 49.085 32.7626 49.1924C32.6775 49.2998 32.572 49.3893 32.4522 49.4558C32.3324 49.5224 32.2007 49.5646 32.0645 49.5801L31.9916 49.6113ZM16.3719 36.0742C16.1095 36.0751 15.8566 35.9769 15.6635 35.7993C15.4704 35.6216 15.3515 35.3777 15.3306 35.1162C15.3306 34.8802 15.3306 34.6407 15.3306 34.3977V26.2546C15.3306 25.9784 15.4403 25.7136 15.6356 25.5183C15.8308 25.323 16.0957 25.2133 16.3719 25.2133C16.648 25.2133 16.9129 25.323 17.1082 25.5183C17.3035 25.7136 17.4132 25.9784 17.4132 26.2546V34.4081C17.4132 34.5956 17.4132 34.783 17.4132 34.96C17.4246 35.0969 17.4088 35.2346 17.3667 35.3653C17.3247 35.496 17.2572 35.6171 17.1682 35.7216C17.0791 35.8262 16.9703 35.912 16.8479 35.9743C16.7256 36.0366 16.5921 36.0741 16.4552 36.0846L16.3719 36.0742Z" fill="#404040"/>
<path d="M19.5167 55.8592L19.3917 53.7766C19.5895 53.7766 38.6352 52.527 44.2687 40.8851L46.1431 41.791C39.9785 54.5576 20.3497 55.8176 19.5167 55.8592Z" fill="#FA4616"/>
<path d="M39.9889 55.828L39.4787 53.8183C45.1538 52.3812 49.267 45.2066 49.3087 45.1337C49.3817 45.0067 49.4806 44.8966 49.599 44.8105C49.7174 44.7243 49.8527 44.6642 49.996 44.6338C50.1387 44.6015 50.2867 44.5996 50.4303 44.6283C50.5738 44.657 50.7097 44.7157 50.829 44.8005L53.4115 46.6748L54.7235 34.5539L43.7897 38.8233L45.8724 40.5519L44.5291 42.1451L41.1448 39.2815C41.0068 39.1647 40.9015 39.014 40.8395 38.8442C40.7774 38.6744 40.7606 38.4913 40.7907 38.3131C40.8213 38.1368 40.8968 37.9714 41.0098 37.8328C41.1229 37.6941 41.2698 37.587 41.4363 37.5216L55.5566 31.9818C55.7275 31.9116 55.914 31.888 56.097 31.9137C56.28 31.9393 56.4529 32.0131 56.5979 32.1276C56.7385 32.237 56.8487 32.3805 56.918 32.5446C56.9873 32.7087 57.0133 32.8878 56.9936 33.0648L55.2442 48.6846C55.2241 48.8656 55.1569 49.0381 55.0494 49.185C54.9418 49.3319 54.7975 49.4481 54.631 49.5218C54.4645 49.5956 54.2816 49.6244 54.1005 49.6054C53.9194 49.5864 53.7465 49.5202 53.5989 49.4135L50.475 47.1434C49.0692 49.351 45.2059 54.5159 39.9889 55.828Z" fill="#FA4616"/>
</svg>
