<svg width="64" height="64" viewBox="0 0 64 64" fill="none" xmlns="http://www.w3.org/2000/svg">
<path d="M41.3341 27.8333H35.0841V29.9167H41.3341V27.8333Z" fill="#FA4616"/>
<path d="M39.2508 35.125H37.1675C37.0052 35.1272 36.8447 35.0915 36.6987 35.0208L34.6154 33.9791C34.442 33.8918 34.2965 33.7577 34.1953 33.592C34.0941 33.4264 34.0411 33.2358 34.0425 33.0417V28.0417C34.0517 27.6291 33.9792 27.2187 33.829 26.8343C33.6788 26.4499 33.454 26.0991 33.1675 25.8021C32.1158 24.7955 31.3894 23.4972 31.082 22.0742C30.7745 20.6513 30.9 19.1689 31.4423 17.8179C31.9847 16.4669 32.919 15.3091 34.1249 14.4937C35.3309 13.6783 36.7534 13.2426 38.2091 13.2426C39.6649 13.2426 41.0874 13.6783 42.2934 14.4937C43.4994 15.3091 44.4336 16.4669 44.976 17.8179C45.5183 19.1689 45.6438 20.6513 45.3363 22.0742C45.0289 23.4972 44.3025 24.7955 43.2508 25.8021C42.9643 26.0991 42.7395 26.4499 42.5893 26.8343C42.4391 27.2187 42.3665 27.6291 42.3758 28.0417V33.0417C42.3762 33.2369 42.3217 33.4283 42.2186 33.594C42.1154 33.7598 41.9678 33.8932 41.7925 33.9791L39.7091 35.0208C39.5663 35.09 39.4095 35.1256 39.2508 35.125V35.125ZM37.4071 33.0417H39.0008L40.2925 32.3958V28.0417C40.2734 26.6632 40.8015 25.3334 41.7612 24.3437C42.5259 23.6306 43.0583 22.7038 43.289 21.684C43.5198 20.6642 43.4383 19.5986 43.0551 18.6257C42.6719 17.6529 42.0047 16.8179 41.1404 16.2295C40.2761 15.641 39.2547 15.3263 38.2091 15.3263C37.1635 15.3263 36.1421 15.641 35.2779 16.2295C34.4136 16.8179 33.7464 17.6529 33.3632 18.6257C32.98 19.5986 32.8985 20.6642 33.1292 21.684C33.36 22.7038 33.8924 23.6306 34.6571 24.3437C35.6167 25.3334 36.1449 26.6632 36.1258 28.0417V32.3958L37.4071 33.0417Z" fill="#FA4616"/>
<path d="M25.3966 50.4478L23.9279 48.9791L24.0633 48.8333C24.3877 48.4381 24.799 48.1234 25.2653 47.9138C25.7315 47.7042 26.24 47.6053 26.7508 47.625H41.23C42.4175 47.1354 47.6987 42.0208 48.8862 40.6874C50.6353 38.3449 52.2091 35.8764 53.5946 33.3021C52.7745 32.8826 51.828 32.7823 50.9383 33.0208C49.5945 33.3333 48.6779 34.2812 47.4696 36.6458C47.3649 36.8339 47.2097 36.989 47.0216 37.0937L42.2404 39.5728L41.2821 37.7291L45.7716 35.3958C47.0008 33.0521 48.2508 31.4999 50.4696 30.9895C51.3852 30.7178 52.3588 30.7085 53.2795 30.9626C54.2003 31.2168 55.0312 31.7241 55.6779 32.427C55.789 32.5741 55.8591 32.748 55.8811 32.931C55.903 33.114 55.8761 33.2995 55.8029 33.4687C54.2696 36.5014 52.4636 39.3884 50.4071 42.0937C50.3446 42.1666 43.2508 49.7291 41.3029 49.7291H26.7195C26.4937 49.7107 26.2671 49.7521 26.0623 49.849C25.8575 49.9459 25.6819 50.095 25.5529 50.2812L25.3966 50.4478Z" fill="#404040"/>
<path d="M39.2508 43.4583H30.9175V41.375H39.2508C40.6883 41.375 41.3342 40.5937 41.3342 39.8125C41.3342 39.0312 40.6883 38.25 39.2508 38.25H33.7404C32.9367 38.1363 32.1893 37.7718 31.605 37.2083C31.1121 36.7383 30.5217 36.3826 29.8758 36.1667H24.6675C23.3543 36.39 22.1446 37.0204 21.2092 37.9687L17.0425 42.1354L15.5738 40.6667L19.7404 36.5C21.055 35.1656 22.786 34.3203 24.6467 34.1041H29.855C30.9803 34.249 32.0287 34.7532 32.8446 35.5416C33.1439 35.7933 33.4686 36.0132 33.8133 36.1979H39.23C41.9592 36.1979 43.3967 38.0312 43.3967 39.8437C43.3967 41.6562 41.98 43.4583 39.2508 43.4583Z" fill="#404040"/>
<path d="M20.5008 57C20.3637 57.0008 20.2278 56.9745 20.1009 56.9227C19.974 56.8708 19.8586 56.7944 19.7612 56.6979L8.30292 45.2395C8.10891 45.0444 8 44.7804 8 44.5052C8 44.23 8.10891 43.966 8.30292 43.7708L13.5113 38.5625C13.7064 38.3685 13.9704 38.2596 14.2456 38.2596C14.5208 38.2596 14.7848 38.3685 14.98 38.5625L26.4383 50.0208C26.6323 50.216 26.7413 50.48 26.7413 50.7552C26.7413 51.0304 26.6323 51.2944 26.4383 51.4895L21.23 56.6979C21.036 56.8903 20.7741 56.9988 20.5008 57ZM10.5112 44.5L20.5008 54.4895L24.23 50.75L14.2508 40.7708L10.5112 44.5Z" fill="#404040"/>
<path d="M14.9892 43.7669L13.5161 45.24L15.6006 47.3245L17.0737 45.8514L14.9892 43.7669Z" fill="#404040"/>
<path d="M39.2508 7H37.1675V11.1667H39.2508V7Z" fill="#FA4616"/>
<path d="M29.3687 10.231L27.8953 11.7038L30.8411 14.6506L32.3145 13.1778L29.3687 10.231Z" fill="#FA4616"/>
<path d="M28.8341 19.5H24.6675V21.5833H28.8341V19.5Z" fill="#FA4616"/>
<path d="M30.8358 26.432L27.8896 29.3783L29.3627 30.8514L32.309 27.9051L30.8358 26.432Z" fill="#FA4616"/>
<path d="M45.5529 26.5022L44.0798 27.9754L47.0261 30.9216L48.4992 29.4485L45.5529 26.5022Z" fill="#FA4616"/>
<path d="M51.7508 19.5H47.5841V21.5833H51.7508V19.5Z" fill="#FA4616"/>
<path d="M47.0442 10.2287L44.0979 13.175L45.571 14.6481L48.5173 11.7018L47.0442 10.2287Z" fill="#FA4616"/>
</svg>
