<svg width="64" height="64" viewBox="0 0 64 64" fill="none" xmlns="http://www.w3.org/2000/svg">
<path d="M31.7495 33.0424H29.6663V47.6253H31.7495V33.0424Z" fill="#404040"/>
<path d="M35.9161 29.9175H33.8328V42.4171H35.9161V29.9175Z" fill="#404040"/>
<path d="M24.4685 36.1673C24.1923 36.1673 23.9273 36.0576 23.732 35.8622C23.5367 35.6669 23.4269 35.4019 23.4269 35.1257V29.9175C23.4261 29.7804 23.4524 29.6445 23.5042 29.5176C23.556 29.3907 23.6324 29.2753 23.729 29.178L27.5934 25.3239V15.3347C27.755 13.7258 28.2508 12.1684 29.0489 10.7621C29.8471 9.35588 30.9302 8.13183 32.2287 7.16829C32.3977 7.05845 32.5949 7 32.7964 7C32.9979 7 33.1951 7.05845 33.3641 7.16829C34.6655 8.12991 35.7511 9.3533 36.5513 10.7598C37.3514 12.1662 37.8482 13.7246 38.0098 15.3347V25.3239L41.8638 29.178C41.9622 29.2745 42.0405 29.3895 42.0941 29.5164C42.1478 29.6434 42.1757 29.7797 42.1763 29.9175V35.1257C42.1759 35.2848 42.1391 35.4417 42.0687 35.5843C41.9983 35.727 41.8961 35.8516 41.77 35.9486C41.6461 36.0444 41.5021 36.1111 41.3488 36.1435C41.1955 36.176 41.0369 36.1735 40.8847 36.1361L37.6764 35.334C37.4105 35.2653 37.1825 35.0943 37.042 34.8582C36.9016 34.6222 36.86 34.3401 36.9265 34.0736C36.9929 33.8058 37.163 33.5753 37.3993 33.4327C37.6356 33.2901 37.9189 33.2472 38.1868 33.3132L40.093 33.7924V30.3238L36.2286 26.4697C36.132 26.3724 36.0556 26.2569 36.0038 26.13C35.952 26.0031 35.9257 25.8673 35.9265 25.7302V15.3139C35.6343 13.0051 34.5259 10.8769 32.8016 9.31405C31.0773 10.8769 29.9689 13.0051 29.6767 15.3139V25.7302C29.6761 25.868 29.6482 26.0043 29.5946 26.1312C29.5409 26.2582 29.4626 26.3732 29.3642 26.4697L25.5102 30.3238V33.7716L27.3851 33.3028C27.5178 33.2693 27.6558 33.2623 27.7912 33.2821C27.9266 33.3019 28.0568 33.3482 28.1743 33.4183C28.2918 33.4885 28.3944 33.581 28.4761 33.6908C28.5579 33.8005 28.6172 33.9254 28.6507 34.058C28.6842 34.1907 28.6912 34.3287 28.6714 34.4641C28.6516 34.5995 28.6053 34.7297 28.5352 34.8472C28.4651 34.9647 28.3725 35.0673 28.2627 35.149C28.153 35.2307 28.0282 35.2901 27.8955 35.3236L24.7706 36.1152L24.4685 36.1673Z" fill="#FA4616"/>
<path d="M33.8328 15.3347H31.7495V17.4179H33.8328V15.3347Z" fill="#FA4616"/>
<path d="M13.3439 56.25C13.114 55.4794 12.9982 54.6792 13.0001 53.875C12.9918 52.3487 13.4028 50.8494 14.1883 49.5407C14.9738 48.232 16.1037 47.1643 17.4546 46.4539C18.8056 45.7435 20.3257 45.4178 21.8491 45.5123C23.3725 45.6068 24.8407 46.1179 26.0935 46.9899L24.8956 48.6982C23.9581 48.0478 22.8604 47.6665 21.7215 47.5956C20.5827 47.5247 19.4462 47.7669 18.4352 48.296C17.4243 48.8251 16.5774 49.6208 15.9866 50.5969C15.3957 51.5731 15.0834 52.6924 15.0834 53.8334C15.08 54.4369 15.1678 55.0374 15.3438 55.6146L13.3439 56.25Z" fill="#404040"/>
<path d="M19.3645 46.8336C19.2846 46.4078 19.2462 45.9752 19.2499 45.542C19.2499 43.6082 20.0181 41.7536 21.3855 40.3862C22.7529 39.0188 24.6075 38.2506 26.5413 38.2506V40.3338C25.16 40.3338 23.8353 40.8826 22.8586 41.8593C21.8819 42.836 21.3332 44.1607 21.3332 45.542C21.3294 45.8531 21.3574 46.1637 21.4165 46.4691L19.3645 46.8336Z" fill="#404040"/>
<path d="M40.0826 38.2506H37.9993V45.7608H40.0826V38.2506Z" fill="#404040"/>
<path d="M51.551 57H49.4677C49.4669 56.1872 49.2283 55.3924 48.7815 54.7135C48.3346 54.0346 47.6989 53.5013 46.9527 53.1791C46.2065 52.857 45.3824 52.7601 44.5818 52.9004C43.7813 53.0407 43.0392 53.4121 42.4471 53.9689L41.0201 52.4481C41.9086 51.6127 43.0221 51.0554 44.2235 50.8451C45.4248 50.6348 46.6614 50.7806 47.7809 51.2645C48.9004 51.7484 49.8538 52.5493 50.5237 53.5684C51.1936 54.5876 51.5507 55.7804 51.551 57V57Z" fill="#404040"/>
<path d="M47.3844 52.0001L45.3011 51.7814C45.3118 51.6114 45.3118 51.4409 45.3011 51.271C45.2914 50.2217 44.93 49.2061 44.2746 48.3867C43.6192 47.5673 42.7078 46.9914 41.6864 46.7513C40.6649 46.5113 39.5925 46.6209 38.6407 47.0626C37.6889 47.5043 36.9129 48.2526 36.4368 49.1877L34.5827 48.2398C35.2756 46.8817 36.4065 45.7971 37.7925 45.1617C39.1785 44.5264 40.7384 44.3774 42.2195 44.739C43.7007 45.1005 45.0165 45.9514 45.9539 47.1539C46.8912 48.3564 47.3953 49.8401 47.3844 51.3647C47.3844 51.521 47.3844 51.7605 47.3844 52.0001Z" fill="#404040"/>
</svg>
