<svg width="64" height="64" viewBox="0 0 64 64" fill="none" xmlns="http://www.w3.org/2000/svg">
<path d="M17.4135 31.8683C16.7075 31.8564 16.011 31.7035 15.3649 31.4187C14.7188 31.1338 14.1361 30.7227 13.651 30.2095C13.166 29.6964 12.7884 29.0915 12.5403 28.4303C12.2923 27.7692 12.1789 27.0652 12.2068 26.3596V24.8705C12.2068 23.4895 12.7553 22.1652 13.7318 21.1887C14.7083 20.2123 16.0326 19.6637 17.4135 19.6637C18.7944 19.6637 20.1188 20.2123 21.0953 21.1887C22.0717 22.1652 22.6203 23.4895 22.6203 24.8705V26.3596C22.6467 27.0648 22.5323 27.7682 22.2838 28.4287C22.0352 29.0893 21.6575 29.6936 21.1728 30.2065C20.688 30.7194 20.1059 31.1305 19.4604 31.4158C18.815 31.7012 18.1191 31.855 17.4135 31.8683V31.8683ZM17.4135 21.4548C16.9831 21.4708 16.5601 21.5722 16.1693 21.7531C15.7784 21.9341 15.4273 22.191 15.1366 22.5088C14.8459 22.8266 14.6213 23.1991 14.4759 23.6046C14.3304 24.01 14.2671 24.4403 14.2895 24.8705V26.3596C14.2895 26.7698 14.3703 27.1761 14.5273 27.5551C14.6843 27.9342 14.9144 28.2785 15.2045 28.5686C15.4946 28.8587 15.839 29.0889 16.218 29.2459C16.597 29.4029 17.0033 29.4836 17.4135 29.4836C17.8238 29.4836 18.23 29.4029 18.6091 29.2459C18.9881 29.0889 19.3325 28.8587 19.6226 28.5686C19.9127 28.2785 20.1428 27.9342 20.2998 27.5551C20.4568 27.1761 20.5376 26.7698 20.5376 26.3596V24.8705C20.56 24.4403 20.4966 24.01 20.3511 23.6046C20.2057 23.1991 19.9811 22.8266 19.6904 22.5088C19.3997 22.191 19.0487 21.9341 18.6578 21.7531C18.2669 21.5722 17.844 21.4708 17.4135 21.4548V21.4548Z" fill="#404040"/>
<path d="M18.4549 50.6126H14.2895C9.71793 50.6126 7 48.2696 7 44.3645V40.1991C7 35.4297 9.52007 32.9097 14.2895 32.9097H19.4962C21.2393 33.0564 22.9147 33.652 24.3593 34.6383C24.6509 34.8049 24.9216 34.9716 25.1924 35.107L24.1927 36.9501L23.2867 36.4398C22.145 35.6403 20.8195 35.1424 19.4337 34.9924H14.227C10.5718 34.9924 9.02022 36.544 9.02022 40.1991V44.3645C9.02022 47.801 11.8527 48.5299 14.227 48.5299H18.3924L18.4549 50.6126Z" fill="#404040"/>
<path d="M20.5376 45.4059H14.2895C13.7371 45.4059 13.2073 45.1865 12.8168 44.7959C12.4262 44.4053 12.2068 43.8755 12.2068 43.3232V39.1578H14.2895V43.3232H20.5376V45.4059Z" fill="#404040"/>
<path d="M13.2481 49.5713H11.1654V54.778H13.2481V49.5713Z" fill="#404040"/>
<path d="M24.703 51.654H22.6203V54.778H24.703V51.654Z" fill="#404040"/>
<path d="M17.9966 38.1165L16.3721 39.4077L20.5042 44.6061L22.1287 43.3149L17.9966 38.1165Z" fill="#FA4616"/>
<path d="M27.827 52.6953H17.4135C17.2351 52.6966 17.0594 52.652 16.9032 52.5658C16.747 52.4796 16.6155 52.3548 16.5215 52.2032C16.4274 52.0516 16.3738 51.8784 16.3659 51.7002C16.358 51.522 16.396 51.3448 16.4763 51.1854L22.7244 38.6892C22.8117 38.5159 22.9457 38.3704 23.1113 38.2692C23.2769 38.168 23.4675 38.1151 23.6616 38.1164H34.0751C34.2521 38.1161 34.4262 38.1608 34.5811 38.2465C34.736 38.3321 34.8665 38.4558 34.9603 38.6059C35.0517 38.7642 35.0998 38.9438 35.0998 39.1266C35.0998 39.3094 35.0517 39.4889 34.9603 39.6473L32.8776 43.8127L31.0135 42.8858L32.3465 40.2304H24.2656L19.0589 50.6439H27.1397L28.9308 47.0512L30.7949 47.9781L28.7122 52.1435C28.6262 52.3052 28.4991 52.4413 28.3437 52.5382C28.1883 52.6351 28.0101 52.6893 27.827 52.6953Z" fill="#FA4616"/>
<path d="M38.2405 17.2894C37.9644 17.2894 37.6995 17.1797 37.5042 16.9844C37.3089 16.7891 37.1992 16.5242 37.1992 16.248V14.1653C37.1992 13.8892 37.3089 13.6243 37.5042 13.429C37.6995 13.2337 37.9644 13.124 38.2405 13.124C38.5167 13.124 38.7816 13.2337 38.9769 13.429C39.1722 13.6243 39.2819 13.8892 39.2819 14.1653V16.248C39.2819 16.5242 39.1722 16.7891 38.9769 16.9844C38.7816 17.1797 38.5167 17.2894 38.2405 17.2894Z" fill="#404040"/>
<path d="M52.8195 29.7856H50.7368C50.4606 29.7856 50.1957 29.6759 50.0004 29.4806C49.8051 29.2854 49.6954 29.0204 49.6954 28.7443C49.6954 28.4681 49.8051 28.2032 50.0004 28.0079C50.1957 27.8126 50.4606 27.7029 50.7368 27.7029H52.8195C53.0956 27.7029 53.3605 27.8126 53.5558 28.0079C53.7511 28.2032 53.8608 28.4681 53.8608 28.7443C53.8608 29.0204 53.7511 29.2854 53.5558 29.4806C53.3605 29.6759 53.0956 29.7856 52.8195 29.7856Z" fill="#404040"/>
<path d="M38.2405 44.3645C37.9644 44.3645 37.6995 44.2549 37.5042 44.0596C37.3089 43.8643 37.1992 43.5993 37.1992 43.3232V41.2405C37.1992 40.9643 37.3089 40.6994 37.5042 40.5041C37.6995 40.3088 37.9644 40.1991 38.2405 40.1991C38.5167 40.1991 38.7816 40.3088 38.9769 40.5041C39.1722 40.6994 39.2819 40.9643 39.2819 41.2405V43.3232C39.2819 43.5993 39.1722 43.8643 38.9769 44.0596C38.7816 44.2549 38.5167 44.3645 38.2405 44.3645Z" fill="#404040"/>
<path d="M38.2405 30.827C38.1028 30.8264 37.9665 30.7985 37.8395 30.7449C37.7126 30.6913 37.5976 30.613 37.5012 30.5146L32.2944 25.3078C32.1854 25.2145 32.0969 25.0996 32.0344 24.9704C31.9719 24.8412 31.9368 24.7005 31.9312 24.557C31.9257 24.4136 31.9498 24.2706 32.0022 24.137C32.0545 24.0034 32.134 23.882 32.2355 23.7805C32.3369 23.6791 32.4583 23.5996 32.5919 23.5473C32.7256 23.4949 32.8686 23.4708 33.012 23.4763C33.1554 23.4818 33.2961 23.5169 33.4253 23.5794C33.5545 23.642 33.6694 23.7305 33.7627 23.8395L38.2405 28.3069L45.832 20.7155C46.0271 20.5215 46.291 20.4126 46.5661 20.4126C46.8412 20.4126 47.1052 20.5215 47.3003 20.7155C47.4943 20.9106 47.6031 21.1745 47.6031 21.4496C47.6031 21.7248 47.4943 21.9886 47.3003 22.1838L38.9695 30.5146C38.7772 30.7108 38.5152 30.823 38.2405 30.827Z" fill="#404040"/>
<path d="M38.2405 47.4886C37.824 47.4886 37.4074 47.4886 37.0013 47.4886C36.7251 47.4706 36.4674 47.3438 36.2848 47.1358C36.1022 46.9278 36.0097 46.6558 36.0276 46.3796C36.0456 46.1034 36.1725 45.8456 36.3805 45.6631C36.5885 45.4805 36.8605 45.3879 37.1367 45.4059C37.5011 45.4059 37.8656 45.4059 38.2405 45.4059C41.0961 45.4068 43.9041 44.6739 46.3949 43.2772C48.8857 41.8806 50.9757 39.8672 52.4644 37.4303C53.9531 34.9934 54.7905 32.2149 54.8962 29.3612C55.0019 26.5075 54.3724 23.6746 53.0682 21.1342C51.7639 18.5939 49.8286 16.4313 47.4479 14.8542C45.0673 13.2771 42.3213 12.3383 39.4735 12.128C36.6256 11.9176 33.7714 12.4427 31.1849 13.6529C28.5984 14.8631 26.3663 16.7178 24.7029 19.0389C24.5335 19.2369 24.2959 19.364 24.0373 19.3954C23.7786 19.4267 23.5176 19.36 23.3057 19.2083C23.0938 19.0566 22.9466 18.831 22.8929 18.576C22.8393 18.321 22.8832 18.0551 23.016 17.8309C24.8863 15.2192 27.3964 13.132 30.3055 11.7695C33.2146 10.407 36.425 9.81505 39.6287 10.0504C42.8324 10.2857 45.922 11.3404 48.6008 13.1133C51.2796 14.8862 53.4577 17.3178 54.9264 20.1748C56.395 23.0318 57.1047 26.2183 56.9875 29.4285C56.8702 32.6387 55.9299 35.7649 54.2568 38.5071C52.5837 41.2494 50.2339 43.5156 47.4329 45.0884C44.6319 46.6611 41.4737 47.4876 38.2614 47.4886H38.2405Z" fill="#404040"/>
<path d="M30.7012 48.5299H26.7857C26.6073 48.5312 26.4316 48.4866 26.2754 48.4004C26.1192 48.3142 25.9877 48.1894 25.8936 48.0378C25.7996 47.8862 25.746 47.713 25.7381 47.5348C25.7302 47.3566 25.7682 47.1793 25.8485 47.02L27.9312 42.8546C28.0185 42.6813 28.1525 42.5358 28.3181 42.4346C28.4837 42.3334 28.6743 42.2805 28.8684 42.2818H32.3882C32.7426 42.282 33.0912 42.3727 33.4009 42.5453C33.7105 42.7178 33.971 42.9665 34.1577 43.2679C34.3443 43.5693 34.451 43.9133 34.4675 44.2674C34.484 44.6215 34.4099 44.9739 34.2522 45.2914L33.492 46.8013C33.233 47.3201 32.8348 47.7565 32.342 48.0618C31.8491 48.3671 31.281 48.5292 30.7012 48.5299V48.5299ZM28.4727 46.4472H30.7012C30.8964 46.4476 31.0877 46.3932 31.2534 46.2901C31.4191 46.187 31.5525 46.0394 31.6384 45.8641L32.3882 44.3645H29.514L28.4727 46.4472Z" fill="#404040"/>
</svg>
