<svg width="64" height="64" viewBox="0 0 64 64" fill="none" xmlns="http://www.w3.org/2000/svg">
<path d="M22.6937 40.1651C22.0557 40.1802 21.4214 40.064 20.8302 39.8235C20.239 39.5831 19.7037 39.2236 19.2574 38.7674C18.8111 38.3112 18.4635 37.768 18.2361 37.1717C18.0087 36.5754 17.9064 35.9387 17.9356 35.3012V33.3979C17.9356 32.136 18.4369 30.9258 19.3292 30.0334C20.2215 29.1411 21.4318 28.6398 22.6937 28.6398C23.9556 28.6398 25.1659 29.1411 26.0582 30.0334C26.9505 30.9258 27.4518 32.136 27.4518 33.3979V35.3012C27.481 35.9387 27.3787 36.5754 27.1513 37.1717C26.9239 37.768 26.5763 38.3112 26.13 38.7674C25.6837 39.2236 25.1483 39.5831 24.5572 39.8235C23.966 40.064 23.3317 40.1802 22.6937 40.1651V40.1651ZM22.6937 30.6488C22.3335 30.6342 21.9744 30.6962 21.6399 30.8306C21.3055 30.965 21.0034 31.1689 20.7536 31.4288C20.5037 31.6886 20.3119 31.9984 20.1907 32.3379C20.0694 32.6773 20.0216 33.0386 20.0503 33.3979V35.3012C20.0503 36.0023 20.3288 36.6746 20.8245 37.1704C21.3203 37.6661 21.9926 37.9446 22.6937 37.9446C23.3948 37.9446 24.0671 37.6661 24.5629 37.1704C25.0586 36.6746 25.3371 36.0023 25.3371 35.3012V33.3979C25.3641 33.039 25.3151 32.6784 25.1932 32.3397C25.0714 32.0011 24.8795 31.6919 24.63 31.4324C24.3805 31.173 24.0791 30.9691 23.7454 30.8341C23.4118 30.699 23.0534 30.6359 22.6937 30.6488V30.6488Z" fill="#404040"/>
<path d="M43.2911 42.2904C43.024 42.2895 42.7671 42.1874 42.5721 42.0049L40.3199 39.8901C40.2208 39.7918 40.1422 39.6749 40.0885 39.5461C40.0348 39.4172 40.0072 39.279 40.0072 39.1394C40.0072 38.9998 40.0348 38.8616 40.0885 38.7328C40.1422 38.6039 40.2208 38.487 40.3199 38.3887C40.518 38.1918 40.786 38.0812 41.0654 38.0812C41.3447 38.0812 41.6127 38.1918 41.8108 38.3887L43.2488 39.7421L54.4991 26.2713L48.948 21.4497C48.8309 22.3852 48.4658 23.2723 47.8906 24.0192C47.0664 24.9628 45.9025 25.5424 44.6527 25.6316C43.4029 25.7207 42.1685 25.3121 41.2187 24.4949C40.7462 24.0914 40.3595 23.597 40.0816 23.0413C39.8037 22.4855 39.6403 21.8796 39.6009 21.2594C39.5543 20.6395 39.6312 20.0166 39.8272 19.4267C40.0233 18.8368 40.3345 18.2917 40.7429 17.823C41.3988 17.1505 42.2245 16.6682 43.1325 16.4273L37.5919 11.6163L34.2612 15.4545C34.0427 15.7592 33.7448 15.9982 33.3999 16.1455C33.055 16.2928 32.6764 16.3427 32.3051 16.2898C31.9853 16.221 31.6892 16.0696 31.4461 15.8507C31.2031 15.6318 31.0217 15.353 30.92 15.0421L30.7931 14.6509C30.6556 14.0931 30.3833 13.5775 30.0001 13.1495C29.6079 12.8127 29.125 12.5993 28.612 12.5362C28.099 12.473 27.5787 12.5629 27.1166 12.7945C26.6545 13.0262 26.2712 13.3892 26.0148 13.838C25.7584 14.2868 25.6403 14.8013 25.6754 15.317C25.7244 16.0065 26.0436 16.6487 26.5636 17.104C27.0443 17.4235 27.5963 17.6197 28.1708 17.675L28.5726 17.7595C28.8945 17.8118 29.1966 17.9491 29.4476 18.1574C29.6985 18.3656 29.8893 18.6371 30.0001 18.9438C30.0994 19.3054 30.1009 19.6869 30.0043 20.0492C29.9077 20.4115 29.7164 20.7416 29.4502 21.0057L26.1301 24.8333L33.299 31.0506C33.5009 31.237 33.6224 31.4947 33.6376 31.769C33.6528 32.0434 33.5606 32.3129 33.3805 32.5205C33.2005 32.728 32.9467 32.8573 32.6729 32.881C32.3991 32.9046 32.1269 32.8208 31.9139 32.6472L23.9096 25.6898C23.8045 25.5979 23.7186 25.4861 23.6569 25.3609C23.5952 25.2357 23.5589 25.0995 23.5501 24.9602C23.5314 24.6829 23.6226 24.4094 23.8039 24.1989L27.7056 19.6945C26.7725 19.5807 25.888 19.2152 25.1468 18.6371C24.6778 18.2298 24.2937 17.7341 24.0165 17.1782C23.7393 16.6223 23.5744 16.0173 23.5312 15.3976C23.488 14.778 23.5673 14.1559 23.7647 13.5669C23.9621 12.978 24.2736 12.4337 24.6815 11.9652C25.0874 11.4947 25.582 11.1089 26.1371 10.8298C26.6923 10.5507 27.2969 10.3838 27.9166 10.3386C28.5363 10.2934 29.1589 10.3709 29.7486 10.5665C30.3383 10.7622 30.8837 11.0722 31.3535 11.4788C32.021 12.1344 32.5027 12.9553 32.7492 13.8579L36.6509 9.36409C36.8346 9.15248 37.0949 9.02248 37.3744 9.00265C37.654 8.98282 37.93 9.07479 38.1417 9.25834L44.6128 14.8624C44.9161 15.0853 45.1543 15.3851 45.303 15.7308C45.4517 16.0765 45.5055 16.4556 45.4587 16.8291C45.3893 17.149 45.2363 17.4448 45.0152 17.6863C44.7942 17.9278 44.513 18.1063 44.2004 18.2037L43.8198 18.3411C43.2579 18.4761 42.7383 18.7486 42.3077 19.1341C41.8554 19.6611 41.6277 20.3444 41.6734 21.0374C41.6978 21.3798 41.7898 21.714 41.9441 22.0207C42.0983 22.3274 42.3118 22.6005 42.5721 22.8243C43.0972 23.2771 43.7802 23.5034 44.4717 23.4538C45.1633 23.4043 45.8071 23.0829 46.2623 22.56C46.5777 22.0773 46.7734 21.5263 46.8333 20.9528L46.9073 20.551C46.9649 20.2284 47.1053 19.9262 47.3147 19.6741C47.5242 19.4221 47.7955 19.2287 48.1021 19.113C48.4646 19.0149 48.8466 19.0151 49.209 19.1136C49.5714 19.2121 49.901 19.4053 50.164 19.6734L56.635 25.2774C56.845 25.4593 56.975 25.7167 56.9967 25.9937C57.0185 26.2707 56.9303 26.5452 56.7513 26.7577L44.063 41.8886C43.9706 42 43.8563 42.0913 43.7271 42.1568C43.598 42.2223 43.4568 42.2605 43.3123 42.2692L43.2911 42.2904Z" fill="#FA4616"/>
<path d="M29.5666 54.9681H27.4518V49.6073C27.4516 49.1465 27.5517 48.6912 27.7453 48.2731C27.9388 47.8549 28.2212 47.4839 28.5726 47.1859L33.9758 42.6076C34.3571 42.2853 34.6792 41.8989 34.9274 41.4656L37.3699 37.1622C37.5572 36.5171 37.5917 35.8372 37.4705 35.1765C37.3494 34.5158 37.076 33.8923 36.672 33.3557L33.5 38.5262C33.3099 38.8377 33.0666 39.1132 32.781 39.3403L28.985 42.3961C28.2338 43.0037 27.2972 43.3358 26.331 43.3372H17.9779C17.8833 43.3526 17.7869 43.3526 17.6924 43.3372L13.3149 42.1529C12.9647 42.0587 12.6445 41.8759 12.3853 41.6222C12.126 41.3685 11.9364 41.0525 11.8346 40.7043L10.6186 35.7136C10.0467 36.277 9.61417 36.966 9.35535 37.726C9.09653 38.4859 9.01861 39.2957 9.12776 40.091C9.25465 40.5034 9.38152 41.2542 9.51898 42.0472C9.65644 42.8402 9.76215 43.39 9.85731 43.7495C9.94003 44.0614 10.0952 44.3494 10.3102 44.5901C10.5251 44.8308 10.7938 45.0174 11.0944 45.1347L17.3117 47.6829C17.5085 47.7613 17.6772 47.8969 17.7959 48.0722C17.9147 48.2475 17.9781 48.4545 17.9779 48.6663V55.0105H15.8632V49.3747L10.3014 47.0591C9.70188 46.8128 9.16697 46.4321 8.73796 45.9462C8.30896 45.4604 7.99734 44.8825 7.82719 44.2571C7.70031 43.813 7.58398 43.1151 7.44653 42.3644C7.30907 41.6136 7.19277 40.9369 7.09761 40.5774C6.85322 39.0799 7.0703 37.5435 7.72 36.1724C8.3697 34.8012 9.42125 33.6602 10.7349 32.901C10.877 32.82 11.036 32.7731 11.1992 32.7639C11.3625 32.7547 11.5257 32.7835 11.676 32.8481C11.827 32.9122 11.961 33.0105 12.0674 33.1353C12.1739 33.2601 12.2498 33.4079 12.2893 33.5671L13.8859 40.1122L18.1153 41.2224H26.3416C26.8252 41.2203 27.2941 41.0565 27.6739 40.7572L31.4698 37.6908C31.5616 37.6164 31.6402 37.527 31.7024 37.4265L35.5512 31.1564C35.6247 31.0367 35.7212 30.9328 35.8352 30.8509C35.9492 30.769 36.0784 30.7105 36.2152 30.679C36.352 30.6475 36.4937 30.6436 36.632 30.6675C36.7704 30.6913 36.9026 30.7425 37.021 30.818C38.1405 31.6294 38.9644 32.7843 39.3671 34.107C39.7698 35.4298 39.7294 36.8479 39.252 38.1455L36.7355 42.5124C36.3654 43.1607 35.886 43.7402 35.3186 44.2253L29.9049 48.7932C29.7875 48.8936 29.6935 49.0185 29.6296 49.1592C29.5656 49.2998 29.5333 49.4528 29.5348 49.6073L29.5666 54.9681Z" fill="#404040"/>
</svg>
