<svg width="64" height="64" viewBox="0 0 64 64" fill="none" xmlns="http://www.w3.org/2000/svg">
<path d="M16.7349 57L14.8232 56.0761C17.3508 50.8297 16.3632 46.3056 15.2268 42.9496C14.882 42.0234 14.4592 41.1281 13.963 40.2733C12.0675 37.2737 11.0417 33.8067 11 30.2586C11.0355 27.6359 11.7686 25.07 13.124 22.8245L14.9507 23.8865C13.7904 25.7862 13.1529 27.9588 13.1028 30.1842C13.1442 33.3739 14.0827 36.4876 15.8109 39.1689C16.3709 40.1463 16.847 41.1695 17.234 42.2275C18.5084 46.0082 19.6023 51.0634 16.7349 57Z" fill="#404040"/>
<path d="M48.7757 45.5728H44.4109V43.4488H48.2022C47.973 42.9926 47.9056 42.4721 48.0111 41.9726C48.2022 41.3141 48.7014 40.8256 49.9121 40.1034C50.1351 39.976 50.2307 39.8592 50.2519 39.7849C50.2459 39.6266 50.1901 39.4742 50.0926 39.3494L49.5935 38.6379C47.6394 35.9191 46.4924 34.1455 46.4075 33.1048C46.4054 32.6889 46.4589 32.2746 46.5667 31.8729C46.9105 30.4556 46.9395 28.9802 46.6517 27.5505C46.1652 25.3975 45.2031 23.3806 43.8359 21.6477C42.4687 19.9148 40.7311 18.5098 38.7504 17.5357L39.6637 15.6135C41.9343 16.733 43.9261 18.3458 45.4934 20.3339C47.0607 22.322 48.164 24.6352 48.7226 27.1044C49.0844 28.82 49.0553 30.5949 48.6377 32.2977C48.585 32.5217 48.546 32.7486 48.5209 32.9773C49.2572 34.5597 50.1884 36.0439 51.2927 37.3953C51.5582 37.767 51.76 38.0538 51.8556 38.2025C52.0764 38.4943 52.23 38.8312 52.3054 39.1893C52.3809 39.5473 52.3764 39.9176 52.2922 40.2737C52.208 40.6298 52.0462 40.9629 51.8183 41.2493C51.5905 41.5356 51.3022 41.7681 50.9741 41.9301C50.6648 42.0989 50.3731 42.2982 50.1032 42.5249C50.1592 42.6801 50.2304 42.8295 50.3157 42.9709C50.4645 43.237 50.5426 43.5368 50.5426 43.8417C50.5426 44.1467 50.4645 44.4465 50.3157 44.7126C50.1571 44.9786 49.9313 45.1981 49.661 45.3491C49.3907 45.5001 49.0853 45.5773 48.7757 45.5728V45.5728Z" fill="#404040"/>
<path d="M37.1148 56.9894L35.0545 56.4903C35.6068 54.1963 36.7644 51.52 38.368 50.851L39.1858 52.8157C38.7822 52.975 37.7308 54.4087 37.1148 56.9894Z" fill="#404040"/>
<path d="M43.6993 53.4742C40.5133 53.4742 34.4704 51.605 33.0792 51.1696C31.688 50.7341 31.2632 49.0987 30.3817 46.5605L30.0525 45.6577L32.0597 44.9462L32.3783 45.8595C32.7024 47.0277 33.1848 48.1461 33.812 49.1836C37.9857 50.5005 43.2214 51.69 44.2303 51.3076C45.0587 50.9996 45.1012 50.4686 45.0693 49.7146C45.0693 49.5659 45.0693 49.4385 45.0693 49.3429C45.1177 48.6752 45.3824 48.0414 45.8233 47.5375C45.9624 47.4007 46.0683 47.2339 46.1327 47.0497C46.1972 46.8656 46.2185 46.6692 46.195 46.4755L48.3191 46.2419C48.3866 46.7075 48.3503 47.1823 48.2126 47.6321C48.0748 48.082 47.8392 48.4958 47.5225 48.8438C47.2889 49.1624 47.2039 49.2792 47.1933 49.481C47.1888 49.5376 47.1888 49.5943 47.1933 49.6509C47.2967 50.4218 47.1342 51.2049 46.7326 51.871C46.331 52.5371 45.7143 53.0464 44.9843 53.3148C44.5683 53.4414 44.1336 53.4954 43.6993 53.4742V53.4742Z" fill="#404040"/>
<path d="M25.9425 40.9743C20.7705 32.4782 25.9425 20.3182 27.4187 18.3641L29.1073 19.6491C27.5568 21.6882 23.4574 32.7649 27.7585 39.8273L25.9425 40.9743Z" fill="#FA4616"/>
<path d="M20.9192 24.2476C19.507 24.2826 18.1177 23.8862 16.9366 23.1112C13.517 20.7748 13.7506 16.1551 13.7506 15.9639V15.3267L14.3241 15.0612C14.5046 14.9762 18.7208 13.0859 22.1405 15.4223C25.5602 17.7587 25.3265 22.3891 25.3265 22.5802V23.2174L24.7424 23.4829C23.5307 23.9869 22.2315 24.2468 20.9192 24.2476V24.2476ZM15.8959 16.7392C15.9146 17.6221 16.1247 18.4905 16.5116 19.2844C16.8984 20.0783 17.4529 20.7788 18.1367 21.3377C18.9052 21.7729 19.7588 22.0362 20.6389 22.1096C21.519 22.1829 22.4045 22.0645 23.2344 21.7625C23.2207 20.8771 23.013 20.0055 22.6258 19.2091C22.2386 18.4127 21.6814 17.711 20.9935 17.1534C20.2255 16.7165 19.3712 16.4531 18.4906 16.3815C17.6099 16.3099 16.7243 16.432 15.8959 16.7392V16.7392Z" fill="#FA4616"/>
<path d="M28.555 20.074H28.2046H27.5674L27.3019 19.4899C27.2063 19.2881 25.061 14.4984 27.7161 10.6114C30.3711 6.72445 35.6174 6.99001 35.8404 7.01125H36.4776L36.7431 7.59534C36.8281 7.79712 38.984 12.5868 36.329 16.4737C34.035 19.8191 29.8082 20.074 28.555 20.074ZM35.0439 9.09274C33.7695 9.16709 30.9658 9.58129 29.4684 11.769C27.9709 13.9568 28.5975 16.718 28.9905 17.9393C30.2755 17.865 33.0792 17.4508 34.5766 15.263C36.0741 13.0753 35.4475 10.3672 35.0439 9.09274V9.09274Z" fill="#FA4616"/>
<path d="M24.923 24.545C24.8593 24.1945 24.222 23.6529 23.7972 23.4087L24.8593 21.5607C25.8778 22.1148 26.6399 23.0445 26.9833 24.152L24.923 24.545Z" fill="#FA4616"/>
<path d="M31.6243 34.5385C29.8391 34.4854 28.1037 33.9376 26.6116 32.9561L26.0806 32.595L26.1549 31.9578C26.1549 31.7667 26.7603 27.1787 30.541 25.4795C34.3218 23.7803 38.1344 26.361 38.2937 26.4778L38.8247 26.8389L38.7503 27.4761C38.7503 27.6673 38.145 32.2551 34.3749 33.965C33.5085 34.3474 32.5713 34.5429 31.6243 34.5385V34.5385ZM28.4382 31.5436C29.2011 31.9916 30.0531 32.2666 30.9339 32.3491C31.8148 32.4317 32.703 32.3199 33.5359 32.0215C34.3129 31.5989 34.9865 31.0091 35.508 30.2947C36.0296 29.5803 36.3861 28.7591 36.552 27.8903C35.7891 27.4423 34.9371 27.1674 34.0563 27.0848C33.1754 27.0022 32.2872 27.114 31.4543 27.4124C30.6703 27.8314 29.9892 28.4195 29.4603 29.1339C28.9313 29.8484 28.5677 30.6714 28.3957 31.5436H28.4382Z" fill="#FA4616"/>
<path d="M25.7301 34.6235L23.9778 33.4128C24.7161 32.4578 25.6598 31.681 26.739 31.1401L27.6948 33.0305C26.9366 33.4196 26.2675 33.9621 25.7301 34.6235V34.6235Z" fill="#FA4616"/>
</svg>
