<svg width="64" height="64" viewBox="0 0 64 64" fill="none" xmlns="http://www.w3.org/2000/svg">
<path d="M30.9384 20.5329C30.6623 20.5329 30.3975 20.4232 30.2023 20.228C30.0071 20.0328 29.8974 19.768 29.8974 19.4919V8.04099C29.8974 7.7649 30.0071 7.5002 30.2023 7.30498C30.3975 7.10975 30.6623 7 30.9384 7C31.2145 7 31.4792 7.10975 31.6745 7.30498C31.8697 7.5002 31.9794 7.7649 31.9794 8.04099V19.4919C31.9794 19.768 31.8697 20.0328 31.6745 20.228C31.4792 20.4232 31.2145 20.5329 30.9384 20.5329Z" fill="#FA4616"/>
<path d="M30.9384 16.3689C30.8017 16.3866 30.6628 16.3773 30.5297 16.3414C30.3966 16.3055 30.2719 16.2438 30.1627 16.1597C29.9421 15.9899 29.798 15.7393 29.7621 15.4632C29.7443 15.3265 29.7537 15.1876 29.7895 15.0545C29.8254 14.9214 29.8872 14.7968 29.9713 14.6876C30.1411 14.467 30.3917 14.3228 30.6678 14.2869L38.4335 12.2049L30.6678 10.1229C30.4013 10.0498 30.1749 9.87382 30.0382 9.6337C29.9016 9.39357 29.8659 9.10896 29.939 8.84254C30.0122 8.57611 30.1882 8.34967 30.4283 8.21301C30.6685 8.07636 30.9531 8.04073 31.2195 8.11389L42.6704 11.2369C42.8955 11.2998 43.0929 11.4367 43.2308 11.6256C43.3686 11.8144 43.4389 12.0442 43.4303 12.2779C43.4389 12.5115 43.3686 12.7413 43.2308 12.9301C43.0929 13.119 42.8955 13.2559 42.6704 13.3188L31.2195 16.4418L30.9384 16.3689Z" fill="#FA4616"/>
<path d="M50.7172 56.9675H50.5923C40.7966 55.7183 35.2169 53.4074 33.9989 50.1074C33.062 47.5674 35.9456 46.0372 38.2566 44.8192C38.9763 44.4668 39.6719 44.0669 40.3385 43.6221C40.8694 43.2161 41.1193 42.8414 41.0881 42.5083C40.8694 40.7282 35.3001 38.2818 32.9163 37.2304L32.6456 37.1159C32.5205 37.0606 32.4075 36.9812 32.313 36.8822C32.2186 36.7832 32.1446 36.6665 32.0953 36.5389C32.046 36.4112 32.0224 36.2752 32.0257 36.1384C32.029 36.0017 32.0593 35.8669 32.1147 35.7418C32.2265 35.4917 32.4323 35.2957 32.6875 35.1963C32.9428 35.0969 33.227 35.1022 33.4784 35.2109L33.7595 35.3254C38.5272 37.4074 42.8265 39.4893 43.1284 42.2687C43.1735 42.8672 43.0514 43.4665 42.7757 43.9996C42.4999 44.5327 42.0814 44.9786 41.5669 45.2876C40.8309 45.798 40.0585 46.2539 39.2559 46.6514C37.7361 47.453 35.6645 48.5564 35.9768 49.3892C36.3932 50.5239 38.6834 53.3449 50.8734 54.9064C51.1494 54.9243 51.4071 55.0512 51.5896 55.2591C51.7722 55.467 51.8646 55.739 51.8467 56.0151C51.8287 56.2912 51.7018 56.5487 51.4939 56.7313C51.286 56.9138 51.0141 57.0063 50.738 56.9884L50.7172 56.9675Z" fill="#404040"/>
<path d="M16.3645 56.9675C16.2614 56.9875 16.1554 56.9875 16.0522 56.9675C11.3366 55.4789 9.02556 53.6988 8.98392 51.5232C8.94228 49.3475 10.9202 47.7235 14.6885 46.3182C16.375 45.704 18.3736 45.1523 20.3099 44.6005C24.2136 43.5596 30.116 41.8524 29.9078 40.2389C29.89 40.1022 29.8994 39.9633 29.9353 39.8302C29.9712 39.6971 30.0329 39.5723 30.117 39.4631C30.2011 39.3538 30.3059 39.2623 30.4254 39.1935C30.5449 39.1248 30.6768 39.0803 30.8135 39.0625C30.9502 39.0448 31.0891 39.0541 31.2222 39.09C31.3553 39.1259 31.48 39.1876 31.5892 39.2717C31.6984 39.3558 31.79 39.4606 31.8588 39.5801C31.9275 39.6996 31.972 39.8315 31.9898 39.9682C32.4374 43.3722 26.7849 44.9441 20.8929 46.6097C18.9878 47.1406 17.0204 47.6507 15.4068 48.2753C12.2006 49.4308 11.0763 50.7008 11.0867 51.3982C11.0971 52.0957 12.5857 53.6051 16.6977 54.9064C16.9737 54.9478 17.2221 55.0973 17.388 55.3218C17.554 55.5463 17.6239 55.8274 17.5825 56.1035C17.5411 56.3796 17.3917 56.628 17.1672 56.7939C16.9427 56.9599 16.6615 57.0298 16.3854 56.9883L16.3645 56.9675Z" fill="#404040"/>
<path d="M8.03661 41.3527C7.76352 41.3515 7.50182 41.2432 7.30792 41.0509C7.21035 40.9541 7.13291 40.8389 7.08006 40.7121C7.02721 40.5852 7 40.4491 7 40.3117C7 40.1743 7.02721 40.0383 7.08006 39.9114C7.13291 39.7845 7.21035 39.6694 7.30792 39.5726L10.4309 36.4497C10.5451 36.3361 10.684 36.2506 10.8369 36.1998L13.7204 35.2421L16.6768 32.2857C16.8707 32.0934 17.1324 31.9849 17.4055 31.9838H20.5285C20.6713 31.9853 20.8125 32.0136 20.9449 32.0671L28.2318 35.1901C28.4858 35.2991 28.6861 35.5046 28.7886 35.7613C28.8911 36.018 28.8874 36.3049 28.7783 36.5589C28.6693 36.8129 28.4638 37.0133 28.2071 37.1158C27.9504 37.2183 27.6634 37.2145 27.4094 37.1055L20.3203 34.0657H17.8115L14.9904 36.8869C14.8762 37.0005 14.7373 37.086 14.5844 37.1367L11.6905 38.1048L8.74449 41.0509C8.55575 41.2382 8.30247 41.3462 8.03661 41.3527V41.3527Z" fill="#404040"/>
<path d="M55.6619 39.0625C55.4392 39.0666 55.222 38.9931 55.0477 38.8543L47.0633 32.9206C46.9323 32.8252 46.8253 32.7004 46.751 32.5563L44.7835 28.6839L42.0666 27.7782C41.9543 27.7395 41.8489 27.6833 41.7543 27.6116L37.4237 24.218L33.6449 22.542L33.4888 22.4483L31.0216 20.8139L25.7438 25.363L21.4549 33.5245C21.3933 33.6488 21.3074 33.7595 21.2024 33.8502C21.0973 33.9408 20.9752 34.0095 20.8432 34.0522C20.7112 34.095 20.572 34.1111 20.4337 34.0992C20.2955 34.0874 20.161 34.048 20.0381 33.9835C19.9153 33.9189 19.8066 33.8305 19.7184 33.7234C19.6303 33.6162 19.5644 33.4925 19.5248 33.3595C19.4851 33.2266 19.4724 33.087 19.4875 32.9491C19.5025 32.8112 19.545 32.6776 19.6124 32.5563L23.995 24.2284C24.0497 24.1073 24.1316 24.0003 24.2344 23.916L30.2617 18.7111C30.4348 18.5627 30.6517 18.4753 30.8792 18.4622C31.1068 18.449 31.3323 18.5109 31.5213 18.6383L34.5714 20.7203L38.3919 22.4171L38.6105 22.5524L42.8889 25.9148L45.8453 26.8934C46.1038 26.9823 46.3169 27.1692 46.4387 27.4139L48.5207 31.4425L56.3073 37.2408C56.4166 37.3228 56.5088 37.4256 56.5784 37.5432C56.6481 37.6608 56.6939 37.791 56.7132 37.9263C56.7326 38.0617 56.725 38.1995 56.6911 38.3319C56.6572 38.4644 56.5975 38.5888 56.5155 38.6982C56.4111 38.8208 56.2796 38.9174 56.1315 38.9807C55.9834 39.0439 55.8226 39.0719 55.6619 39.0625V39.0625Z" fill="#404040"/>
<path d="M38.8811 34.1491C38.6739 34.1502 38.471 34.0893 38.2985 33.9743C38.126 33.8593 37.9918 33.6955 37.913 33.5037L36.466 29.9643L34.5402 28.5799C34.3197 28.4207 34.1703 28.1816 34.1238 27.9136L33.0828 21.7613C33.0345 21.4853 33.0979 21.2012 33.2589 20.9718C33.42 20.7424 33.6656 20.5864 33.9416 20.5381C34.2177 20.4898 34.5017 20.5532 34.7311 20.7143C34.9605 20.8753 35.1165 21.1209 35.1648 21.397L36.2058 27.1329L38.0275 28.455C38.1849 28.5683 38.3075 28.7233 38.3815 28.9025L39.9429 32.723C40.0465 32.9771 40.0456 33.2619 39.9403 33.5153C39.8351 33.7687 39.634 33.9703 39.3808 34.0762C39.2221 34.1388 39.0511 34.1638 38.8811 34.1491V34.1491Z" fill="#404040"/>
</svg>
