<svg width="64" height="64" viewBox="0 0 64 64" fill="none" xmlns="http://www.w3.org/2000/svg">
<path d="M24.3262 50.6378C24.1174 50.6371 23.9136 50.5737 23.7413 50.4558C23.5689 50.338 23.436 50.171 23.3596 49.9767C23.2832 49.7824 23.2669 49.5696 23.3129 49.3659C23.3588 49.1622 23.4649 48.977 23.6173 48.8343L31.9573 41.099C32.0992 40.9982 32.2155 40.8655 32.297 40.7116C32.3784 40.5578 32.4227 40.387 32.4264 40.2129C32.4272 40.0707 32.3958 39.9302 32.3344 39.802C32.273 39.6738 32.1832 39.5612 32.0719 39.4727L26.0985 34.8024C25.9067 34.6522 25.7736 34.4397 25.7222 34.2017C25.6708 33.9636 25.7043 33.7151 25.817 33.4992L28.027 29.3293C28.0989 29.194 28.1997 29.0763 28.3222 28.9844C28.4447 28.8925 28.586 28.8287 28.736 28.7976C28.8859 28.7649 29.0412 28.7657 29.1907 28.8C29.3403 28.8342 29.4805 28.901 29.6012 28.9957C30.6861 29.8769 31.8208 30.6949 32.9998 31.4455C34.2195 31.0807 37.7848 29.9861 39.3485 29.3606C39.6497 29.1813 39.9065 28.9364 40.0997 28.6439C40.2929 28.3514 40.4174 28.0191 40.464 27.6717L33.8442 28.7142C33.6782 28.7416 33.5081 28.7284 33.3483 28.6757C33.1886 28.6231 33.044 28.5325 32.9268 28.4119C32.7078 28.1825 27.5684 22.8554 26.3904 21.448C25.7554 20.6349 24.8934 20.0285 23.9135 19.7056C22.9337 19.3826 21.88 19.3578 20.886 19.6341L12.0978 22.501C12.9422 23.1994 13.9743 23.8145 14.6832 23.606C16.7681 23.0014 20.5628 21.6878 20.5941 21.6774C20.7814 21.6103 20.984 21.5982 21.178 21.6425C21.3719 21.6869 21.5492 21.7858 21.6887 21.9276L23.8467 24.1377C23.9964 24.2901 24.0957 24.4848 24.1312 24.6955C24.1666 24.9062 24.1364 25.1227 24.0448 25.3157C24.0448 25.3157 21.9598 29.4857 20.9173 31.727C19.8748 33.9684 21.1779 36.1576 24.4409 37.982L27.9124 39.8272C28.0508 39.8989 28.1713 40.0008 28.2651 40.1253C28.3589 40.2498 28.4236 40.3937 28.4545 40.5465C28.4829 40.6987 28.4771 40.8553 28.4374 41.005C28.3977 41.1547 28.3252 41.2936 28.2251 41.4118L21.9181 49.0011C21.7411 49.214 21.4868 49.3479 21.2112 49.3733C20.9355 49.3987 20.661 49.3136 20.4481 49.1366C20.2352 48.9597 20.1014 48.7054 20.0759 48.4297C20.0505 48.1541 20.1357 47.8796 20.3126 47.6667L25.8066 41.0678L23.4505 39.8272C18.3006 37.002 17.8002 33.3324 19.0512 30.8409C19.8748 29.1729 21.23 26.379 21.8451 25.1176L20.6567 23.8979C19.4786 24.3045 16.9037 25.1697 15.267 25.6493C12.5669 26.4312 9.65835 23.1473 9.33518 22.772C9.22435 22.6416 9.14738 22.4858 9.11101 22.3185C9.07465 22.1513 9.08004 21.9776 9.1267 21.8129C9.17283 21.6482 9.25878 21.4974 9.37695 21.3738C9.49512 21.2502 9.64188 21.1575 9.80431 21.104L20.2292 17.6951C21.6187 17.2789 23.1011 17.29 24.4842 17.7268C25.8672 18.1637 27.0871 19.0062 27.9854 20.1449C28.934 21.2917 32.8121 25.3574 34.0422 26.6188L41.5065 25.4304C41.6538 25.4067 41.8045 25.4149 41.9484 25.4545C42.0923 25.494 42.226 25.564 42.3405 25.6597C42.4549 25.7576 42.5468 25.8791 42.6098 26.0159C42.6727 26.1526 42.7054 26.3014 42.7054 26.452C42.7054 26.6084 42.7054 30.3196 40.0991 31.3309C38.1288 32.1023 33.3855 33.5305 33.177 33.5931C32.9277 33.6665 32.66 33.6442 32.4264 33.5305C31.3309 32.9184 30.2852 32.2213 29.2989 31.4455L28.0688 33.6973L33.3542 37.8673C33.7165 38.1505 34.0091 38.5129 34.2097 38.9267C34.4103 39.3405 34.5135 39.7947 34.5113 40.2546C34.5114 40.7314 34.4025 41.2018 34.193 41.63C33.9834 42.0583 33.6786 42.4329 33.3021 42.7253L25.0664 50.3981C24.8598 50.5705 24.5946 50.6564 24.3262 50.6378Z" fill="#404040"/>
<path d="M11.8163 52.4621C11.616 52.4619 11.42 52.4039 11.2517 52.2951C11.0835 52.1864 10.9501 52.0314 10.8676 51.8489C10.7851 51.6663 10.757 51.4638 10.7866 51.2657C10.8162 51.0675 10.9022 50.8821 11.0344 50.7316L20.125 40.3067C20.2099 40.1891 20.3184 40.0906 20.4435 40.0174C20.5687 39.9442 20.7077 39.8979 20.8518 39.8814C20.9959 39.865 21.1418 39.8788 21.2802 39.9219C21.4186 39.9651 21.5465 40.0366 21.6557 40.132C21.7649 40.2274 21.8531 40.3445 21.9144 40.4758C21.9758 40.6072 22.0091 40.7499 22.0122 40.8949C22.0153 41.0399 21.9881 41.1839 21.9324 41.3177C21.8767 41.4516 21.7937 41.5724 21.6887 41.6723L12.5982 52.0972C12.5015 52.2103 12.3816 52.3014 12.2468 52.3644C12.1119 52.4273 11.9651 52.4606 11.8163 52.4621Z" fill="#404040"/>
<path d="M8.0425 51.5447C7.81694 51.5447 7.59745 51.4716 7.417 51.3362C7.30748 51.2541 7.21522 51.1512 7.14546 51.0334C7.07571 50.9156 7.02984 50.7852 7.01048 50.6497C6.99112 50.5141 6.99864 50.3761 7.03262 50.2435C7.0666 50.1109 7.12635 49.9863 7.20849 49.8767L16.9037 36.8456C16.9851 36.7354 17.0875 36.6423 17.2049 36.5716C17.3224 36.501 17.4525 36.4542 17.5881 36.4338C17.7236 36.4135 17.8618 36.4201 17.9948 36.4532C18.1278 36.4863 18.253 36.5452 18.3632 36.6267C18.4734 36.7081 18.5664 36.8105 18.6371 36.9279C18.7077 37.0453 18.7546 37.1755 18.7749 37.3111C18.7952 37.4466 18.7887 37.5848 18.7556 37.7178C18.7225 37.8508 18.6635 37.9759 18.5821 38.0862L8.87648 51.1173C8.78047 51.2487 8.65506 51.3558 8.51024 51.43C8.36542 51.5042 8.20523 51.5435 8.0425 51.5447Z" fill="#404040"/>
<path d="M28.8506 53.7861H24.6807V51.7011H28.8506C37.5659 51.7011 46.573 45.4462 46.573 35.0212V21.4688H44.488C44.3033 21.4681 44.1222 21.4183 43.9631 21.3245C43.804 21.2307 43.6726 21.0964 43.5825 20.9352C43.4923 20.774 43.4466 20.5917 43.45 20.4071C43.4535 20.2224 43.5059 20.042 43.6019 19.8843L49.2001 10.5018C49.293 10.3486 49.4238 10.222 49.58 10.1341C49.7361 10.0462 49.9122 10 50.0914 10C50.2706 10 50.4467 10.0462 50.6029 10.1341C50.759 10.222 50.8898 10.3486 50.9827 10.5018L56.8415 19.8843C56.9403 20.0422 56.9949 20.2237 56.9997 20.4099C57.0045 20.5961 56.9593 20.7802 56.8688 20.943C56.7784 21.1059 56.6459 21.2415 56.4853 21.3358C56.3247 21.4301 56.1417 21.4796 55.9554 21.4793H53.8704V35.0317C53.8704 40.0877 52.5882 44.1013 49.9298 47.3018L48.3035 45.957C50.67 43.111 51.7646 39.6291 51.7646 35.0212V20.4264C51.7646 20.1499 51.8744 19.8847 52.0699 19.6892C52.2654 19.4937 52.5306 19.3839 52.8071 19.3839H54.0581L50.0966 13.0455L46.3124 19.3839H47.5947C47.8711 19.3839 48.1363 19.4937 48.3318 19.6892C48.5273 19.8847 48.6371 20.1499 48.6371 20.4264V35.0212C48.658 46.7597 38.5875 53.7861 28.8506 53.7861Z" fill="#FA4616"/>
<path d="M36.6798 47.2497C36.4844 47.2501 36.2928 47.1955 36.1269 47.0923C35.961 46.9891 35.8275 46.8413 35.7415 46.6659C35.681 46.5427 35.6455 46.4088 35.6368 46.2719C35.6282 46.1349 35.6467 45.9976 35.6912 45.8678C35.7358 45.7381 35.8055 45.6183 35.8964 45.5156C35.9874 45.4128 36.0977 45.329 36.2211 45.2689C41.1521 42.8504 41.5586 37.9715 41.7046 36.168L41.8818 34.083C41.9057 33.808 42.0376 33.5538 42.2486 33.3759C42.4597 33.1981 42.7327 33.1112 43.0077 33.1343C43.2827 33.1582 43.5369 33.2901 43.7147 33.5012C43.8926 33.7122 43.9795 33.9852 43.9563 34.2602L43.7896 36.3452C43.6228 38.2947 43.1224 44.2056 37.1385 47.1559C36.9934 47.2175 36.8374 47.2494 36.6798 47.2497V47.2497Z" fill="#404040"/>
<path d="M34.5844 22.5114C33.9714 22.5225 33.3624 22.4111 32.793 22.1839C32.2236 21.9566 31.7053 21.618 31.2684 21.1879C30.8315 20.7579 30.4848 20.2449 30.2487 19.6791C30.0125 19.1134 29.8917 18.5062 29.8931 17.8931V16.7047C29.8931 15.4605 30.3874 14.2673 31.2672 13.3875C32.1469 12.5077 33.3402 12.0135 34.5844 12.0135C35.8285 12.0135 37.0218 12.5077 37.9015 13.3875C38.7813 14.2673 39.2756 15.4605 39.2756 16.7047V17.8931C39.2771 18.5062 39.1562 19.1134 38.92 19.6791C38.6839 20.2449 38.3373 20.7579 37.9004 21.1879C37.4635 21.618 36.9452 21.9566 36.3758 22.1839C35.8064 22.4111 35.1973 22.5225 34.5844 22.5114ZM34.5844 14.1714C34.2448 14.1587 33.9063 14.215 33.5892 14.3369C33.272 14.4587 32.9829 14.6437 32.7393 14.8805C32.4957 15.1173 32.3026 15.401 32.1718 15.7146C32.0409 16.0281 31.9751 16.3649 31.9781 16.7047V17.8931C31.9781 18.5843 32.2527 19.2472 32.7415 19.736C33.2302 20.2248 33.8931 20.4993 34.5844 20.4993C35.2756 20.4993 35.9385 20.2248 36.4272 19.736C36.916 19.2472 37.1906 18.5843 37.1906 17.8931V16.7047C37.1936 16.3649 37.1278 16.0281 36.9969 15.7146C36.8661 15.401 36.673 15.1173 36.4294 14.8805C36.1858 14.6437 35.8967 14.4587 35.5795 14.3369C35.2624 14.215 34.9239 14.1587 34.5844 14.1714V14.1714Z" fill="#404040"/>
</svg>
