<svg width="64" height="64" viewBox="0 0 64 64" fill="none" xmlns="http://www.w3.org/2000/svg">
<path d="M52.7447 29.3404C52.4625 29.3404 52.1919 29.2283 51.9924 29.0288C51.7929 28.8293 51.6808 28.5587 51.6808 28.2766V8.06383C51.6808 7.78168 51.7929 7.5111 51.9924 7.31159C52.1919 7.11208 52.4625 7 52.7447 7C53.0268 7 53.2974 7.11208 53.4969 7.31159C53.6964 7.5111 53.8085 7.78168 53.8085 8.06383V28.2766C53.8085 28.5587 53.6964 28.8293 53.4969 29.0288C53.2974 29.2283 53.0268 29.3404 52.7447 29.3404Z" fill="#FA4616"/>
<path d="M42.4574 19C41.4511 19.0005 40.4566 18.7828 39.5425 18.3617C39.3837 18.2888 39.2453 18.1778 39.1395 18.0386C39.0337 17.8995 38.9639 17.7364 38.9361 17.5638C38.9077 17.3919 38.922 17.2157 38.9776 17.0506C39.0333 16.8855 39.1286 16.7366 39.2553 16.617C40.0536 15.775 40.7467 14.8391 41.3191 13.8298C40.7577 12.794 40.064 11.8356 39.2553 10.9787C39.0772 10.8131 38.9613 10.5914 38.9268 10.3507C38.8923 10.1099 38.9413 9.86461 39.0657 9.65563C39.1901 9.44664 39.3823 9.28659 39.6104 9.20213C39.8385 9.11768 40.0886 9.11392 40.3191 9.19149C41.3332 9.51692 42.4026 9.63378 43.463 9.53506C44.5233 9.43633 45.5528 9.12405 46.4893 8.61702C48.4787 7.78723 50.7447 6.85106 53.4787 9.42553C53.6604 9.62378 53.7603 9.88349 53.7583 10.1524C53.7563 10.4213 53.6524 10.6795 53.4678 10.875C53.2831 11.0705 53.0312 11.1887 52.7628 11.206C52.4944 11.2233 52.2295 11.1383 52.0213 10.9681C50.2872 9.35106 49.234 9.78723 47.2978 10.5851C45.8115 11.3083 44.1846 11.6969 42.5319 11.7234C43.0744 12.5745 43.4468 13.2872 43.4787 13.3511C43.5588 13.5036 43.6007 13.6734 43.6007 13.8457C43.6007 14.0181 43.5588 14.1878 43.4787 14.3404C43.0017 15.2076 42.4686 16.0427 41.883 16.8404C43.3176 16.9046 44.7441 16.5929 46.0213 15.9362C48.234 15.0426 50.734 14.0319 53.4681 16.617C53.5678 16.7159 53.6469 16.8336 53.7009 16.9632C53.7549 17.0929 53.7827 17.2319 53.7827 17.3723C53.7827 17.5128 53.7549 17.6518 53.7009 17.7815C53.6469 17.9111 53.5678 18.0288 53.4681 18.1277C53.2687 18.3258 52.9991 18.437 52.7181 18.437C52.437 18.437 52.1674 18.3258 51.9681 18.1277C50.2872 16.5426 49.0213 16.9574 46.7553 17.8723C45.4084 18.5208 43.9492 18.9036 42.4574 19V19Z" fill="#FA4616"/>
<path d="M20.8298 45.2979H8.06383C7.78168 45.2979 7.51109 45.1858 7.31159 44.9863C7.11208 44.7868 7 44.5162 7 44.234V34.6596C7 34.3774 7.11208 34.1068 7.31159 33.9073C7.51109 33.7078 7.78168 33.5957 8.06383 33.5957H20.8298C21.1119 33.5957 21.3825 33.7078 21.582 33.9073C21.7815 34.1068 21.8936 34.3774 21.8936 34.6596V44.234C21.8936 44.5162 21.7815 44.7868 21.582 44.9863C21.3825 45.1858 21.1119 45.2979 20.8298 45.2979ZM9.12766 43.1702H19.766V35.7234H9.12766V43.1702Z" fill="#404040"/>
<path d="M11.3404 55.9468C11.224 55.9461 11.1087 55.9245 11 55.883C10.734 55.7932 10.5143 55.6019 10.3888 55.3508C10.2633 55.0997 10.242 54.8092 10.3298 54.5425L13.9149 43.9042C14.0038 43.6362 14.1955 43.4144 14.4479 43.2878C14.7002 43.1611 14.9926 43.1398 15.2606 43.2287C15.5287 43.3176 15.7504 43.5093 15.8771 43.7617C16.0038 44.014 16.025 44.3064 15.9362 44.5744L12.3511 55.2127C12.2815 55.426 12.1463 55.6119 11.9648 55.7437C11.7833 55.8755 11.5648 55.9466 11.3404 55.9468Z" fill="#404040"/>
<path d="M23.0426 18.7021C21.9905 18.7021 20.9621 18.3902 20.0874 17.8057C19.2127 17.2212 18.5309 16.3905 18.1283 15.4185C17.7257 14.4466 17.6204 13.3771 17.8256 12.3453C18.0309 11.3135 18.5375 10.3657 19.2814 9.62178C20.0253 8.87789 20.973 8.37129 22.0048 8.16605C23.0367 7.96081 24.1062 8.06615 25.0781 8.46874C26.0501 8.87133 26.8808 9.5531 27.4653 10.4278C28.0497 11.3026 28.3617 12.331 28.3617 13.383C28.3617 14.7937 27.8013 16.1467 26.8038 17.1442C25.8062 18.1417 24.4533 18.7021 23.0426 18.7021V18.7021ZM23.0426 10.1915C22.4113 10.1915 21.7943 10.3787 21.2695 10.7294C20.7446 11.0801 20.3356 11.5785 20.094 12.1617C19.8525 12.7448 19.7893 13.3865 19.9124 14.0056C20.0355 14.6247 20.3395 15.1934 20.7858 15.6397C21.2322 16.0861 21.8008 16.39 22.4199 16.5132C23.039 16.6363 23.6807 16.5731 24.2639 16.3315C24.8471 16.09 25.3455 15.6809 25.6962 15.1561C26.0469 14.6313 26.234 14.0142 26.234 13.383C26.234 12.5366 25.8978 11.7248 25.2993 11.1263C24.7008 10.5277 23.889 10.1915 23.0426 10.1915Z" fill="#404040"/>
<path d="M30.4043 32.8723C30.2247 32.8729 30.0483 32.8251 29.8936 32.734L23.5957 29.234C23.3516 29.0973 23.1712 28.8699 23.0935 28.6011C23.0159 28.3323 23.0472 28.0437 23.1809 27.7979C23.3158 27.5519 23.5424 27.3692 23.8113 27.2895C24.0803 27.2098 24.3699 27.2396 24.617 27.3723L30.9149 30.8511C31.0381 30.9179 31.1469 31.0084 31.235 31.1173C31.3231 31.2263 31.3888 31.3516 31.4283 31.486C31.4679 31.6205 31.4805 31.7614 31.4654 31.9007C31.4503 32.04 31.4078 32.175 31.3404 32.2979C31.2514 32.4697 31.1172 32.614 30.9522 32.7153C30.7873 32.8165 30.5978 32.8708 30.4043 32.8723V32.8723Z" fill="#404040"/>
<path d="M27.2128 57H25.0851V51.6809C25.0851 51.3987 25.1972 51.1281 25.3967 50.9286C25.5962 50.7291 25.8668 50.617 26.1489 50.617H35.7234V39.9787C35.7234 39.6966 35.8355 39.426 36.035 39.2265C36.2345 39.027 36.5051 38.9149 36.7872 38.9149H46.3617V28.2766C46.3617 27.9945 46.4738 27.7239 46.6733 27.5244C46.8728 27.3249 47.1434 27.2128 47.4255 27.2128H57V29.3404H48.4894V39.9787C48.4894 40.2609 48.3773 40.5315 48.1778 40.731C47.9783 40.9305 47.7077 41.0426 47.4255 41.0426H37.8511V51.6809C37.8511 51.963 37.739 52.2336 37.5395 52.4331C37.34 52.6326 37.0694 52.7447 36.7872 52.7447H27.2128V57Z" fill="#404040"/>
<path d="M15.5957 55.9468C15.4649 55.9426 15.3356 55.9175 15.2128 55.8724C15.0818 55.8218 14.9621 55.7458 14.8607 55.6488C14.7592 55.5518 14.678 55.4357 14.6216 55.3071C14.5653 55.1786 14.5349 55.0401 14.5323 54.8998C14.5297 54.7594 14.5548 54.6199 14.6064 54.4894L18.734 43.8511C18.7807 43.7153 18.8543 43.5903 18.9505 43.4837C19.0467 43.3771 19.1635 43.2911 19.2938 43.2309C19.4241 43.1706 19.5653 43.1374 19.7088 43.1331C19.8523 43.1289 19.9952 43.1537 20.1289 43.2062C20.2625 43.2587 20.3842 43.3376 20.4865 43.4384C20.5888 43.5391 20.6697 43.6595 20.7243 43.7923C20.7788 43.9251 20.8059 44.0676 20.804 44.2112C20.802 44.3547 20.771 44.4964 20.7128 44.6277L16.5851 55.266C16.5079 55.4659 16.3722 55.6379 16.1957 55.7594C16.0191 55.8808 15.81 55.9462 15.5957 55.9468Z" fill="#404040"/>
<path d="M28.2234 49.5532C27.9668 49.5561 27.7179 49.4662 27.5224 49.3C27.3269 49.1338 27.198 48.9026 27.1596 48.649L26.2234 42.3511L20.4468 40.1277C20.183 40.0261 19.9703 39.8239 19.8556 39.5655C19.7409 39.3072 19.7335 39.0138 19.8351 38.75C19.9366 38.4862 20.1389 38.2736 20.3972 38.1588C20.6556 38.0441 20.9489 38.0367 21.2127 38.1383L27.5957 40.5851C27.772 40.6531 27.927 40.7668 28.0448 40.9145C28.1626 41.0622 28.2389 41.2386 28.2659 41.4255L29.3298 48.3404C29.3694 48.6182 29.2978 48.9003 29.1304 49.1254C28.963 49.3506 28.7135 49.5005 28.4361 49.5426L28.2234 49.5532ZM32.4787 49.5532C32.2173 49.5551 31.9644 49.4607 31.7682 49.288C31.572 49.1154 31.4462 48.8765 31.4149 48.617L30.351 39.5745L23.4893 35.617C23.327 35.5233 23.1923 35.3883 23.0989 35.2258C23.0055 35.0633 22.9567 34.879 22.9574 34.6915V24.0532C22.9574 23.0851 22.6276 22.8936 21.2234 22.2234L20.3936 21.8085C19.7493 21.4276 19.0145 21.2266 18.2659 21.2266C17.5174 21.2266 16.7826 21.4276 16.1383 21.8085C15.4354 22.2016 14.7536 22.6313 14.0957 23.0958C13.8843 23.2625 13.7146 23.4763 13.6001 23.72C13.4856 23.9638 13.4295 24.2308 13.4361 24.5V34.6596C13.4361 34.9417 13.3241 35.2123 13.1246 35.4118C12.9251 35.6113 12.6545 35.7234 12.3723 35.7234C12.0902 35.7234 11.8196 35.6113 11.6201 35.4118C11.4206 35.2123 11.3085 34.9417 11.3085 34.6596V24.4575C11.3027 23.8633 11.434 23.2758 11.6923 22.7407C11.9507 22.2056 12.329 21.7374 12.7978 21.3724C13.5416 20.8381 14.316 20.3479 15.117 19.9043C16.074 19.3505 17.1602 19.0589 18.2659 19.0589C19.3717 19.0589 20.4578 19.3505 21.4149 19.9043C21.6808 20.0426 21.9362 20.1596 22.1915 20.2766C23.6383 20.9681 25.1383 21.6809 25.1383 24.0319V34.0638L32.0106 38.0107C32.1536 38.094 32.2751 38.2094 32.3656 38.3479C32.4561 38.4865 32.513 38.6442 32.5319 38.8085L33.5957 48.383C33.6288 48.6622 33.55 48.9431 33.3766 49.1644C33.2031 49.3856 32.9492 49.5292 32.6702 49.5638L32.4787 49.5532ZM16.5213 35.7234C16.2533 35.7243 15.9948 35.624 15.7976 35.4425C15.6003 35.261 15.4789 35.0118 15.4574 34.7447C15.4574 34.5036 15.4574 34.2589 15.4574 34.0107V25.6915C15.4574 25.4094 15.5695 25.1388 15.769 24.9393C15.9685 24.7398 16.2391 24.6277 16.5213 24.6277C16.8034 24.6277 17.074 24.7398 17.2735 24.9393C17.473 25.1388 17.5851 25.4094 17.5851 25.6915V34.0213C17.5851 34.2128 17.5851 34.4043 17.5851 34.5851C17.6087 34.8658 17.52 35.1443 17.3385 35.3597C17.1571 35.5751 16.8976 35.7097 16.617 35.7341L16.5213 35.7234Z" fill="#404040"/>
</svg>
