<svg width="64" height="64" viewBox="0 0 64 64" fill="none" xmlns="http://www.w3.org/2000/svg">
<path d="M23.4565 38.8851C22.5212 38.8851 21.6069 38.6077 20.8293 38.0881C20.0516 37.5685 19.4455 36.8299 19.0876 35.9658C18.7297 35.1018 18.636 34.1509 18.8185 33.2336C19.001 32.3163 19.4513 31.4737 20.1127 30.8124C20.774 30.151 21.6166 29.7006 22.534 29.5182C23.4513 29.3357 24.4021 29.4293 25.2662 29.7873C26.1303 30.1452 26.8688 30.7513 27.3884 31.5289C27.908 32.3066 28.1854 33.2209 28.1854 34.1562C28.1826 35.4095 27.6835 36.6107 26.7973 37.4969C25.911 38.3832 24.7098 38.8823 23.4565 38.8851V38.8851ZM23.4565 31.529C22.9369 31.529 22.429 31.6831 21.9969 31.9718C21.5649 32.2605 21.2282 32.6707 21.0293 33.1508C20.8305 33.6308 20.7785 34.1591 20.8798 34.6687C20.9812 35.1783 21.2314 35.6464 21.5988 36.0139C21.9662 36.3813 22.4344 36.6315 22.944 36.7329C23.4536 36.8342 23.9818 36.7822 24.4619 36.5833C24.9419 36.3845 25.3522 36.0478 25.6409 35.6157C25.9296 35.1837 26.0837 34.6758 26.0837 34.1562C26.0809 33.4603 25.8032 32.7936 25.3111 32.3016C24.819 31.8095 24.1524 31.5318 23.4565 31.529V31.529Z" fill="#404040"/>
<path d="M12.9479 43.0885C12.0126 43.0885 11.0983 42.8112 10.3207 42.2916C9.543 41.7719 8.93689 41.0334 8.57897 40.1693C8.22105 39.3052 8.1274 38.3544 8.30987 37.4371C8.49233 36.5197 8.94271 35.6772 9.60406 35.0158C10.2654 34.3545 11.108 33.9041 12.0253 33.7216C12.9426 33.5392 13.8935 33.6328 14.7575 33.9907C15.6216 34.3486 16.3602 34.9547 16.8798 35.7324C17.3994 36.5101 17.6768 37.4244 17.6768 38.3596C17.674 39.613 17.1749 40.8141 16.2886 41.7004C15.4024 42.5866 14.2012 43.0857 12.9479 43.0885V43.0885ZM12.9479 35.7325C12.4283 35.7325 11.9203 35.8866 11.4883 36.1752C11.0563 36.4639 10.7196 36.8742 10.5207 37.3543C10.3219 37.8343 10.2698 38.3625 10.3712 38.8721C10.4726 39.3818 10.7228 39.8499 11.0902 40.2173C11.4576 40.5847 11.9257 40.835 12.4353 40.9363C12.945 41.0377 13.4732 40.9857 13.9533 40.7868C14.4333 40.588 14.8436 40.2512 15.1323 39.8192C15.421 39.3872 15.575 38.8792 15.575 38.3596C15.5723 37.6637 15.2946 36.9971 14.8025 36.505C14.3104 36.0129 13.6438 35.7353 12.9479 35.7325V35.7325Z" fill="#404040"/>
<path d="M27.1598 44.9741L25.0558 55.4844L27.1167 55.8969L29.2207 45.3866L27.1598 44.9741Z" fill="#404040"/>
<path d="M47.1429 42.0376C46.2076 42.0376 45.2933 41.7603 44.5157 41.2407C43.738 40.7211 43.1319 39.9825 42.774 39.1184C42.416 38.2543 42.3224 37.3035 42.5049 36.3862C42.6873 35.4689 43.1377 34.6263 43.7991 33.965C44.4604 33.3036 45.303 32.8532 46.2203 32.6707C47.1376 32.4883 48.0885 32.5819 48.9525 32.9398C49.8166 33.2978 50.5552 33.9039 51.0748 34.6815C51.5944 35.4592 51.8718 36.3735 51.8718 37.3088C51.869 38.5621 51.3699 39.7633 50.4836 40.6495C49.5974 41.5357 48.3962 42.0349 47.1429 42.0376V42.0376ZM47.1429 34.6816C46.6233 34.6816 46.1153 34.8357 45.6833 35.1244C45.2513 35.413 44.9146 35.8233 44.7157 36.3034C44.5169 36.7834 44.4648 37.3117 44.5662 37.8213C44.6676 38.3309 44.9178 38.799 45.2852 39.1664C45.6526 39.5339 46.1207 39.7841 46.6303 39.8854C47.14 39.9868 47.6682 39.9348 48.1482 39.7359C48.6283 39.5371 49.0386 39.2004 49.3273 38.7683C49.616 38.3363 49.77 37.8284 49.77 37.3088C49.77 36.612 49.4932 35.9438 49.0006 35.4511C48.5079 34.9584 47.8396 34.6816 47.1429 34.6816V34.6816Z" fill="#404040"/>
<path d="M46.5603 47.9669L44.5848 48.6844L47.2573 56.043L49.2328 55.3256L46.5603 47.9669Z" fill="#404040"/>
<path d="M9.10172 55.9195L7 55.4781L8.55528 48.2167C9.02817 46.0204 10.657 44.6437 13.2421 44.1498L18.4964 43.099L18.9063 45.2007L13.652 46.2516C11.8235 46.5878 10.9197 47.3024 10.6255 48.6896L9.10172 55.9195Z" fill="#404040"/>
<path d="M12.5065 29.8686L13.2841 22.7123L7.55695 18.2776L23.7297 11.3525L24.5494 13.286L11.6658 18.8031L15.5015 21.7665L14.9865 26.5269L27.8596 21.0204L28.6898 22.9435L12.5065 29.8686Z" fill="#FA4616"/>
<path d="M23.4129 8.00001L21.4814 8.82864L33.1278 35.9756L35.0593 35.147L23.4129 8.00001Z" fill="#FA4616"/>
<path d="M36.6885 39.0803L34.7459 39.8826L36.6633 44.5253L38.6059 43.7231L36.6885 39.0803Z" fill="#FA4616"/>
<path d="M40.3616 47.9441L38.419 48.7464L41.4556 56.099L43.3982 55.2968L40.3616 47.9441Z" fill="#FA4616"/>
<path d="M17.6662 55.9195L15.5645 55.4571L18.013 43.9922C18.4859 41.7959 20.1147 40.4193 22.6999 39.9254L28.7213 38.9271L35.699 32.6219L36.3506 33.7358C36.4556 33.9144 38.8201 38.0338 35.9512 40.7451L31.3274 45.3899L24.1816 47.5757L23.5721 45.558L30.2135 43.5298L34.5431 39.2528C34.9181 38.8301 35.1687 38.3118 35.2671 37.7553C35.3654 37.1988 35.3076 36.6259 35.1 36.1002L29.7301 40.9552L23.1202 42.0061C21.3232 42.3424 20.4195 43.0569 20.1253 44.4441L17.6662 55.9195Z" fill="#404040"/>
<path d="M54.9824 55.9826L52.6284 47.7963C52.3237 46.4092 51.6616 45.1902 48.7192 45.1902H37.5381C37.7345 45.7795 38.1046 46.2956 38.5997 46.6707C39.0949 47.0458 39.6919 47.2624 40.3123 47.2919H48.7192V49.3937H40.3123C36.834 49.3937 35.3628 46.0624 35.058 44.3075L34.8478 43.0885H48.7192C52.0715 43.0885 54.0681 44.4967 54.6671 47.2919L57 55.4571L54.9824 55.9826Z" fill="#404040"/>
</svg>
