<svg width="64" height="64" viewBox="0 0 64 64" fill="none" xmlns="http://www.w3.org/2000/svg">
<path d="M18.2917 42.4167H16.2083V30.9583C16.2083 26.875 20.7917 23.6667 26.625 23.6667V25.75C22.1146 25.75 18.2917 28.1354 18.2917 30.9583V42.4167Z" fill="#404040"/>
<path d="M26.625 22.625C25.9348 22.6482 25.2471 22.5294 24.6047 22.2759C23.9623 22.0224 23.3788 21.6395 22.8905 21.1512C22.4021 20.6628 22.0193 20.0794 21.7658 19.437C21.5123 18.7946 21.3934 18.1069 21.4167 17.4167V15.3333C21.4167 13.952 21.9654 12.6272 22.9422 11.6505C23.9189 10.6737 25.2437 10.125 26.625 10.125C28.0063 10.125 29.3311 10.6737 30.3079 11.6505C31.2846 12.6272 31.8333 13.952 31.8333 15.3333V17.4167C31.8581 18.1073 31.7403 18.7957 31.4873 19.4388C31.2344 20.0819 30.8516 20.666 30.3629 21.1546C29.8743 21.6433 29.2902 22.0261 28.6471 22.2791C28.004 22.532 27.3156 22.6498 26.625 22.625V22.625ZM26.625 12.2083C26.2083 12.1841 25.7912 12.2484 25.401 12.3968C25.0109 12.5453 24.6566 12.7747 24.3615 13.0699C24.0663 13.365 23.837 13.7193 23.6885 14.1094C23.54 14.4995 23.4758 14.9166 23.5 15.3333V17.4167C23.5 18.2455 23.8292 19.0403 24.4153 19.6264C25.0013 20.2124 25.7962 20.5417 26.625 20.5417C27.4538 20.5417 28.2487 20.2124 28.8347 19.6264C29.4208 19.0403 29.75 18.2455 29.75 17.4167V15.3333C29.7742 14.9166 29.71 14.4995 29.5615 14.1094C29.413 13.7193 29.1837 13.365 28.8885 13.0699C28.5933 12.7747 28.2391 12.5453 27.8489 12.3968C27.4588 12.2484 27.0417 12.1841 26.625 12.2083V12.2083Z" fill="#404040"/>
<path d="M22.4583 32H20.375V42.4167H22.4583V32Z" fill="#404040"/>
<path d="M31.8333 44.5V42.4167C34.5833 42.4167 34.9583 40.9167 34.9583 39.2917V30.9583C34.9583 28.1354 31.1458 25.75 26.625 25.75V23.6667C32.4688 23.6667 37.0417 26.875 37.0417 30.9583V39.2917C37.0417 43.5937 34.2083 44.5 31.8333 44.5Z" fill="#404040"/>
<path d="M32.875 32H30.7917V57H32.875V32Z" fill="#404040"/>
<path d="M22.4583 51.7917H20.375V57H22.4583V51.7917Z" fill="#404040"/>
<path d="M28.7083 42.4167H26.625V57H28.7083V42.4167Z" fill="#404040"/>
<path d="M24.5417 52.8333H11V41.375H24.5417V52.8333ZM13.0833 50.75H22.4583V43.4583H13.0833V50.75Z" fill="#404040"/>
<path d="M52.6667 57H50.5833V47.5313L48.5 45.448V30.8646L46.4167 28.7813V22.1459L43.5833 20.25L42.2604 18.2708L40.9688 20.25L38.0833 22.1459V24.7083H36V21.0209L39.4583 18.75L42.2396 14.4792L45.0833 18.75L48.5 21.0313V27.9271L50.5833 30.0104V44.5938L52.6667 46.6771V57Z" fill="#FA4616"/>
<path d="M43.2917 7H41.2083V16.375H43.2917V7Z" fill="#FA4616"/>
<path d="M41.2083 30.9583H39.125V35.125H41.2083V30.9583Z" fill="#FA4616"/>
<path d="M45.375 30.9583H43.2917V35.125H45.375V30.9583Z" fill="#FA4616"/>
<path d="M41.2083 37.2083H39.125V41.375H41.2083V37.2083Z" fill="#FA4616"/>
<path d="M45.375 37.2083H43.2917V41.375H45.375V37.2083Z" fill="#FA4616"/>
<path d="M41.2083 43.4583H39.125V47.625H41.2083V43.4583Z" fill="#FA4616"/>
<path d="M45.375 43.4583H43.2917V47.625H45.375V43.4583Z" fill="#FA4616"/>
<path d="M41.2083 49.7083H39.125V53.875H41.2083V49.7083Z" fill="#FA4616"/>
<path d="M45.375 49.7083H43.2917V53.875H45.375V49.7083Z" fill="#FA4616"/>
</svg>
