<svg width="64" height="64" viewBox="0 0 64 64" fill="none" xmlns="http://www.w3.org/2000/svg">
<path d="M38.1111 44.7778H35.8889V21.4444C35.8889 21.1498 36.0059 20.8672 36.2143 20.6588C36.4227 20.4504 36.7053 20.3333 37 20.3333H45.8889C46.1836 20.3333 46.4662 20.4504 46.6745 20.6588C46.8829 20.8672 47 21.1498 47 21.4444V31.4444H44.7778V22.5556H38.1111V44.7778Z" fill="#404040"/>
<path d="M33.6667 53.6667H31.4444V9.22222H24.7778V53.6667H22.5556V8.11111C22.5556 7.81643 22.6726 7.53383 22.881 7.32545C23.0894 7.11708 23.372 7 23.6667 7H32.5556C32.8502 7 33.1328 7.11708 33.3412 7.32545C33.5496 7.53383 33.6667 7.81643 33.6667 8.11111V53.6667Z" fill="#404040"/>
<path d="M20.3333 53.6667H18.1111V31.4444H11.4445V53.6667H9.22223V30.3333C9.22223 30.0386 9.33929 29.756 9.54767 29.5477C9.75604 29.3393 10.0387 29.2222 10.3333 29.2222H19.2222C19.5169 29.2222 19.7995 29.3393 20.0079 29.5477C20.2163 29.756 20.3333 30.0386 20.3333 30.3333V53.6667Z" fill="#404040"/>
<path d="M57 54.7778H7V57H57V54.7778Z" fill="#404040"/>
<path d="M45.8889 47C45.136 46.9858 44.3935 46.8216 43.7048 46.5172C43.0161 46.2127 42.395 45.7741 41.8778 45.2268C41.3606 44.6796 40.9576 44.0347 40.6924 43.33C40.4272 42.6252 40.3051 41.8747 40.3333 41.1222V39.5334C40.3333 38.0599 40.9186 36.6468 41.9605 35.605C43.0024 34.5631 44.4155 33.9778 45.8889 33.9778C47.3623 33.9778 48.7754 34.5631 49.8172 35.605C50.8591 36.6468 51.4444 38.0599 51.4444 39.5334V41.1222C51.4742 41.8751 51.3531 42.6263 51.0885 43.3317C50.8239 44.0371 50.421 44.6826 49.9034 45.2301C49.3859 45.7777 48.7642 46.2163 48.0748 46.5202C47.3854 46.8242 46.6422 46.9873 45.8889 47V47ZM45.8889 35.8889C45.4296 35.9059 44.9783 36.0142 44.5612 36.2072C44.1442 36.4003 43.7696 36.6744 43.4595 37.0135C43.1493 37.3526 42.9096 37.7501 42.7545 38.1827C42.5993 38.6153 42.5317 39.0744 42.5556 39.5334V41.1222C42.5556 42.0063 42.9067 42.8541 43.5319 43.4793C44.157 44.1044 45.0048 44.4556 45.8889 44.4556C46.7729 44.4556 47.6208 44.1044 48.2459 43.4793C48.871 42.8541 49.2222 42.0063 49.2222 41.1222V39.5334C49.2461 39.0744 49.1785 38.6153 49.0233 38.1827C48.8681 37.7501 48.6285 37.3526 48.3183 37.0135C48.0081 36.6744 47.6336 36.4003 47.2165 36.2072C46.7995 36.0142 46.3482 35.9059 45.8889 35.8889V35.8889Z" fill="#FA4616"/>
<path d="M55.8889 53.6667H53.6667V50.3333C53.6667 48.4222 48.9444 47 45.8889 47C42.8333 47 38.1111 48.4222 38.1111 50.3333V53.6667H35.8889V50.3333C35.8889 46.4 42.4 44.7778 45.8889 44.7778C49.3778 44.7778 55.8889 46.4 55.8889 50.3333V53.6667Z" fill="#FA4616"/>
</svg>
