<svg width="64" height="64" viewBox="0 0 64 64" fill="none" xmlns="http://www.w3.org/2000/svg">
<path d="M25.4161 18.4919C24.8148 18.5318 24.2116 18.4481 23.6439 18.2459C23.0762 18.0436 22.556 17.7271 22.1154 17.3159C21.6749 16.9047 21.3233 16.4075 21.0824 15.8551C20.8415 15.3027 20.7164 14.7067 20.7149 14.1041V12.4639C20.7944 11.2712 21.3243 10.1533 22.1972 9.33672C23.0701 8.52011 24.2208 8.0658 25.4161 8.0658C26.6114 8.0658 27.7621 8.52011 28.635 9.33672C29.5079 10.1533 30.0378 11.2712 30.1173 12.4639V14.1354C30.1115 14.7354 29.9833 15.3279 29.7405 15.8767C29.4978 16.4254 29.1455 16.9188 28.7054 17.3266C28.2653 17.7345 27.7465 18.0482 27.1809 18.2485C26.6154 18.4489 26.0148 18.5317 25.4161 18.4919V18.4919ZM25.4161 10.1341C25.09 10.0944 24.7591 10.124 24.4452 10.2212C24.1313 10.3183 23.8416 10.4807 23.5949 10.6978C23.3483 10.9148 23.1503 11.1816 23.0141 11.4806C22.8778 11.7796 22.8063 12.104 22.8043 12.4325V14.1041C22.8849 14.7399 23.1946 15.3244 23.6755 15.7482C24.1563 16.1719 24.7752 16.4057 25.4161 16.4057C26.057 16.4057 26.6759 16.1719 27.1567 15.7482C27.6375 15.3244 27.9473 14.7399 28.0279 14.1041V12.4639C28.0286 12.1332 27.9593 11.8061 27.8244 11.5041C27.6896 11.2022 27.4923 10.9323 27.2455 10.7121C26.9987 10.492 26.7081 10.3267 26.3927 10.2271C26.0774 10.1274 25.7446 10.0958 25.4161 10.1341V10.1341Z" fill="#404040"/>
<path d="M25.9385 51.4734L23.849 51.3272L24.8937 36.7012C24.9053 36.5296 24.9591 36.3636 25.0502 36.2178C25.1413 36.072 25.267 35.951 25.4161 35.8654C25.5686 35.7831 25.7391 35.74 25.9123 35.74C26.0856 35.74 26.2561 35.7831 26.4086 35.8654L31.6321 38.4772C31.806 38.5648 31.9519 38.6993 32.0535 38.8654C32.155 39.0315 32.2081 39.2227 32.2067 39.4174V46.2081H30.1173V40.0651L26.8682 38.4354L25.9385 51.4734Z" fill="#404040"/>
<path d="M13.9347 57L12.8587 55.2031L18.333 51.9227H22.8252L24.6117 50.878H27.3175L29.4069 45.6544H34.6096L37.7437 47.7438H42.0375L44.1269 49.8333H48.3789L52.8712 55.4434L51.2414 56.7493L47.376 51.9227H43.2598L41.1704 49.8333H37.1064L33.9723 47.7438H30.8277L28.7383 52.9674H25.1758L23.3894 54.0121H18.918L13.9347 57Z" fill="#404040"/>
<path d="M40.5644 20.5813H38.475V48.2662H40.5644V20.5813Z" fill="#FA4616"/>
<path d="M40.5644 7H38.475V20.5813H40.5644V7Z" fill="#FA4616"/>
<path d="M39.5615 18.8471C39.3509 18.8465 39.1453 18.7823 38.9718 18.6629C38.7983 18.5434 38.665 18.3743 38.5893 18.1778C38.5136 17.9812 38.4991 17.7663 38.5477 17.5614C38.5963 17.3564 38.7057 17.1709 38.8616 17.0293C41.7032 14.4279 44.3463 15.0757 46.6865 15.6503C48.2062 16.1598 49.8285 16.2854 51.4086 16.0159C50.8062 15.3595 50.2511 14.6613 49.7475 13.9265C49.6558 13.7677 49.6075 13.5875 49.6075 13.4041C49.6075 13.2207 49.6558 13.0406 49.7475 12.8818C49.7475 12.8295 50.1131 12.2445 50.625 11.4818C48.9444 11.6237 47.2523 11.4393 45.6417 10.9386C43.5523 10.3953 42.2464 10.0715 40.2615 11.8893C40.162 11.9846 40.0447 12.0595 39.9164 12.1095C39.788 12.1595 39.651 12.1838 39.5132 12.1809C39.3755 12.1779 39.2397 12.1479 39.1135 12.0925C38.9873 12.0371 38.8733 11.9574 38.778 11.8579C38.6826 11.7585 38.6078 11.6412 38.5578 11.5128C38.5077 11.3844 38.4835 11.2475 38.4864 11.1097C38.4893 10.972 38.5193 10.8361 38.5747 10.71C38.6301 10.5838 38.7099 10.4698 38.8093 10.3745C41.6301 7.79401 43.9075 8.36861 46.1223 8.93275C48.3556 9.70149 50.7902 9.64591 52.9861 8.77605C53.2104 8.70476 53.4522 8.71129 53.6723 8.79458C53.8924 8.87788 54.0779 9.03305 54.1988 9.23496C54.3197 9.43688 54.3689 9.6737 54.3384 9.90706C54.3079 10.1404 54.1995 10.3567 54.0308 10.5207C53.1891 11.3773 52.4526 12.3312 51.8369 13.3623C52.4427 14.2041 53.1636 14.9566 53.9785 15.598C54.1278 15.7026 54.2471 15.8444 54.3246 16.0094C54.4022 16.1743 54.4351 16.3567 54.4204 16.5384C54.4056 16.72 54.3435 16.8947 54.2404 17.0449C54.1372 17.1952 53.9965 17.3159 53.8323 17.3949C50.7817 18.8784 48.3267 18.2725 46.1537 17.7397C43.9807 17.2069 42.2569 16.7785 40.2406 18.6172C40.0484 18.7715 39.8079 18.853 39.5615 18.8471V18.8471Z" fill="#FA4616"/>
<path d="M20.7149 53.4897C20.4378 53.4897 20.1721 53.3797 19.9762 53.1838C19.7802 52.9878 19.6702 52.7221 19.6702 52.445V26.9227C17.9464 25.878 12.4512 22.5976 10.7274 21.1663C8.1261 19.0038 9.22304 15.3682 9.26483 15.2219C9.30759 15.0801 9.37999 14.9491 9.47725 14.8374C9.57451 14.7257 9.69441 14.636 9.82898 14.5742C9.96366 14.5136 10.1096 14.4823 10.2573 14.4823C10.405 14.4823 10.551 14.5136 10.6856 14.5742C10.6856 14.5742 16.3375 17.0397 19.9418 18.8157C21.5276 19.385 23.2115 19.6301 24.8937 19.5366H39.5197C39.7846 19.5359 40.0398 19.6359 40.2338 19.8163C40.4277 19.9966 40.5459 20.2439 40.5644 20.5081C40.6674 21.7191 40.3157 22.925 39.5779 23.8907C38.8401 24.8564 37.7691 25.5128 36.5736 25.7317C35.0588 26.0138 31.6739 26.7764 30.1173 27.1316V31.0702L36.0931 36.4923C36.2 36.5887 36.2858 36.7063 36.3452 36.8375C36.4045 36.9688 36.436 37.1109 36.4378 37.2549V46.6573C36.4378 46.9344 36.3278 47.2001 36.1318 47.396C35.9359 47.592 35.6702 47.702 35.3931 47.702C35.116 47.702 34.8503 47.592 34.6544 47.396C34.4585 47.2001 34.3484 46.9344 34.3484 46.6573V37.7459L28.3622 32.3134C28.2572 32.216 28.1733 32.098 28.1158 31.9668C28.0582 31.8356 28.0283 31.694 28.0279 31.5508V26.3272C28.0215 26.0871 28.098 25.8522 28.2445 25.6619C28.391 25.4716 28.5986 25.3376 28.8323 25.2825C29.0517 25.2825 34.1499 24.0602 36.1453 23.6736C36.6828 23.5966 37.183 23.354 37.5762 22.9795C37.9694 22.6051 38.2361 22.1173 38.3392 21.5842H24.8937C22.8884 21.6957 20.8826 21.375 19.012 20.644C16.4838 19.4008 12.9422 17.8128 11.0931 16.9979C11.0573 17.4634 11.1259 17.9311 11.294 18.3667C11.4621 18.8023 11.7254 19.1949 12.0647 19.5157C13.9556 21.0827 21.1746 25.3347 21.2477 25.387C21.4036 25.4794 21.5328 25.6109 21.6226 25.7684C21.7124 25.9259 21.7596 26.1041 21.7596 26.2854V52.4032C21.7652 52.5439 21.7424 52.6843 21.6924 52.8159C21.6424 52.9475 21.5664 53.0676 21.4688 53.1691C21.3712 53.2706 21.2541 53.3513 21.1246 53.4064C20.995 53.4615 20.8557 53.4899 20.7149 53.4897Z" fill="#404040"/>
</svg>
