<svg width="64" height="64" viewBox="0 0 64 64" fill="none" xmlns="http://www.w3.org/2000/svg">
<path d="M23.6667 21.5C22.9761 21.5248 22.2877 21.407 21.6446 21.154C21.0015 20.901 20.4174 20.5183 19.9287 20.0296C19.4401 19.5409 19.0573 18.9568 18.8043 18.3137C18.5514 17.6706 18.4336 16.9823 18.4584 16.2917V14.2083C18.4584 12.827 19.0071 11.5022 19.9838 10.5255C20.9606 9.54873 22.2854 9 23.6667 9C25.048 9 26.3728 9.54873 27.3495 10.5255C28.3263 11.5022 28.875 12.827 28.875 14.2083V16.2917C28.8998 16.9823 28.782 17.6706 28.529 18.3137C28.2761 18.9568 27.8933 19.5409 27.4046 20.0296C26.916 20.5183 26.3319 20.901 25.6888 21.154C25.0457 21.407 24.3573 21.5248 23.6667 21.5V21.5ZM23.6667 11.0833C23.25 11.0591 22.8329 11.1233 22.4427 11.2718C22.0526 11.4203 21.6983 11.6497 21.4032 11.9448C21.108 12.24 20.8787 12.5943 20.7302 12.9844C20.5817 13.3745 20.5175 13.7916 20.5417 14.2083V16.2917C20.5417 17.1205 20.8709 17.9153 21.457 18.5014C22.043 19.0874 22.8379 19.4167 23.6667 19.4167C24.4955 19.4167 25.2903 19.0874 25.8764 18.5014C26.4624 17.9153 26.7917 17.1205 26.7917 16.2917V14.2083C26.8159 13.7916 26.7517 13.3745 26.6032 12.9844C26.4547 12.5943 26.2254 12.24 25.9302 11.9448C25.635 11.6497 25.2808 11.4203 24.8906 11.2718C24.5005 11.1233 24.0834 11.0591 23.6667 11.0833V11.0833Z" fill="#404040"/>
<path d="M18.4583 30.875H16.375V41.2916H18.4583V30.875Z" fill="#404040"/>
<path d="M18.4583 50.6667H16.375V54.8333H18.4583V50.6667Z" fill="#404040"/>
<path d="M24.7083 41.2917H22.625V54.8333H24.7083V41.2917Z" fill="#404040"/>
<path d="M20.5417 51.7083H7V40.25H20.5417V51.7083ZM9.08333 49.625H18.4583V42.3333H9.08333V49.625Z" fill="#404040"/>
<path d="M14.2917 41.2917H12.2083V29.8333C12.2083 25.2708 15.3333 22.5417 20.5417 22.5417H27.8333C29.5804 22.6949 31.2589 23.2939 32.7083 24.2812V24.2812L35.6458 19.8854L37.375 21.0417L33.3854 27.0312L32.5521 26.5937L31.6146 26.1354C30.4671 25.3366 29.1391 24.8355 27.75 24.6771H20.5417C16.5104 24.6771 14.2917 26.5312 14.2917 29.8854V41.2917Z" fill="#404040"/>
<path d="M29.9167 54.8333H27.8333V29.8333C27.8336 29.6465 27.8842 29.4632 27.9797 29.3026C28.0752 29.142 28.2122 29.0101 28.3762 28.9206C28.5402 28.8311 28.7253 28.7874 28.912 28.794C29.0987 28.8007 29.2802 28.8574 29.4375 28.9583L33.2083 31.3437C33.3793 31.414 33.5659 31.4376 33.7489 31.412C33.932 31.3863 34.1049 31.3125 34.25 31.1979L41.5417 19.875L43.2917 20.9896L36 32.4479C35.9572 32.5115 35.9083 32.5708 35.8542 32.625C35.3904 33.0878 34.7929 33.3931 34.1461 33.4978C33.4994 33.6024 32.8361 33.5012 32.25 33.2083L32.1562 33.1562L29.9271 31.7292L29.9167 54.8333Z" fill="#404040"/>
<path d="M50.75 18.375H35.125C34.8487 18.375 34.5838 18.2653 34.3884 18.0699C34.1931 17.8746 34.0833 17.6096 34.0833 17.3333V13.1667C34.0833 12.8904 34.1931 12.6254 34.3884 12.4301C34.5838 12.2347 34.8487 12.125 35.125 12.125H50.75C51.0263 12.125 51.2912 12.2347 51.4866 12.4301C51.6819 12.6254 51.7917 12.8904 51.7917 13.1667V17.3333C51.7917 17.6096 51.6819 17.8746 51.4866 18.0699C51.2912 18.2653 51.0263 18.375 50.75 18.375ZM36.1667 16.2917H49.7083V14.2083H36.1667V16.2917Z" fill="#FA4616"/>
<path d="M55.9583 20.4583H50.75C50.4737 20.4583 50.2088 20.3486 50.0134 20.1532C49.8181 19.9579 49.7083 19.6929 49.7083 19.4167V11.0833C49.7083 10.8071 49.8181 10.5421 50.0134 10.3468C50.2088 10.1514 50.4737 10.0417 50.75 10.0417H55.9583C56.2346 10.0417 56.4996 10.1514 56.6949 10.3468C56.8903 10.5421 57 10.8071 57 11.0833V19.4167C57 19.6929 56.8903 19.9579 56.6949 20.1532C56.4996 20.3486 56.2346 20.4583 55.9583 20.4583ZM51.7917 18.375H54.9167V12.125H51.7917V18.375Z" fill="#FA4616"/>
<path d="M35.125 16.2917H30.9583C30.6821 16.2917 30.4171 16.1819 30.2218 15.9866C30.0264 15.7912 29.9167 15.5263 29.9167 15.25C29.9167 14.9737 30.0264 14.7088 30.2218 14.5134C30.4171 14.3181 30.6821 14.2083 30.9583 14.2083H35.125C35.4013 14.2083 35.6662 14.3181 35.8616 14.5134C36.0569 14.7088 36.1667 14.9737 36.1667 15.25C36.1667 15.5263 36.0569 15.7912 35.8616 15.9866C35.6662 16.1819 35.4013 16.2917 35.125 16.2917Z" fill="#FA4616"/>
<path d="M30.9583 17.3333C30.6821 17.3333 30.4171 17.2236 30.2218 17.0282C30.0264 16.8329 29.9167 16.5679 29.9167 16.2917V14.2083C29.9167 13.9321 30.0264 13.6671 30.2218 13.4718C30.4171 13.2764 30.6821 13.1667 30.9583 13.1667C31.2346 13.1667 31.4995 13.2764 31.6949 13.4718C31.8902 13.6671 32 13.9321 32 14.2083V16.2917C32 16.5679 31.8902 16.8329 31.6949 17.0282C31.4995 17.2236 31.2346 17.3333 30.9583 17.3333Z" fill="#FA4616"/>
</svg>
