<svg width="64" height="64" viewBox="0 0 64 64" fill="none" xmlns="http://www.w3.org/2000/svg">
<path d="M27.8432 43.6836H18.4103C18.1323 43.6836 17.8657 43.5732 17.6691 43.3766C17.4726 43.1801 17.3622 42.9135 17.3622 42.6355V8.0481C17.3622 7.77013 17.4726 7.50355 17.6691 7.307C17.8657 7.11044 18.1323 7 18.4103 7H45.1369C45.4148 7 45.6814 7.11044 45.878 7.307C46.0746 7.50355 46.185 7.77013 46.185 8.0481V27.962C46.185 28.24 46.0746 28.5066 45.878 28.7032C45.6814 28.8997 45.4148 29.0102 45.1369 29.0102C44.8589 29.0102 44.5923 28.8997 44.3958 28.7032C44.1992 28.5066 44.0888 28.24 44.0888 27.962V9.0962H19.4584V41.5874H27.8432C28.1211 41.5874 28.3878 41.6978 28.5843 41.8944C28.7809 42.0909 28.8913 42.3575 28.8913 42.6355C28.8913 42.9135 28.7809 43.1801 28.5843 43.3766C28.3878 43.5732 28.1211 43.6836 27.8432 43.6836Z" fill="#404040"/>
<path d="M14.375 51.45C14.1191 51.4522 13.8713 51.3607 13.6782 51.1927C13.4852 51.0247 13.3602 50.7919 13.3269 50.5382L9.00876 17.2819C8.99097 17.1452 9.00033 17.0063 9.0363 16.8732C9.07227 16.7401 9.13416 16.6154 9.21839 16.5063C9.3033 16.3968 9.40908 16.3052 9.52961 16.2368C9.65015 16.1685 9.78304 16.1247 9.9206 16.108L14.9305 15.4477C15.2085 15.4116 15.4895 15.4873 15.7116 15.6584C15.9337 15.8294 16.0788 16.0816 16.1149 16.3596C16.151 16.6375 16.0753 16.9185 15.9043 17.1406C15.7333 17.3627 15.481 17.5078 15.203 17.5439L11.2307 18.0575L15.2659 49.1966L28.7026 46.8489C28.9806 46.8016 29.2659 46.8667 29.4959 47.0298C29.7259 47.193 29.8817 47.4408 29.9289 47.7188C29.9762 47.9968 29.911 48.2821 29.7479 48.5121C29.5848 48.7421 29.3369 48.8978 29.059 48.9451L14.5532 51.4396L14.375 51.45Z" fill="#404040"/>
<path d="M52.2849 33.2026H52.1906C51.9161 33.176 51.6631 33.0423 51.4865 32.8304C51.3099 32.6185 51.224 32.3455 51.2473 32.0706L52.4631 18.6759L48.91 18.309C48.6354 18.2799 48.3834 18.1436 48.2087 17.9297C48.034 17.7157 47.9508 17.4415 47.9772 17.1666C47.9903 17.0287 48.0306 16.8948 48.0958 16.7726C48.161 16.6503 48.2497 16.5422 48.3569 16.4545C48.4642 16.3668 48.5877 16.3012 48.7204 16.2615C48.8531 16.2218 48.9924 16.2089 49.1301 16.2233L53.7103 16.695C53.9869 16.7215 54.2416 16.8567 54.4184 17.071C54.5953 17.2852 54.6799 17.5609 54.6537 17.8374L53.333 32.3012C53.2974 32.5531 53.1715 32.7833 52.9787 32.9492C52.7858 33.115 52.5393 33.2051 52.2849 33.2026Z" fill="#404040"/>
<path d="M42.5166 54.1646C40.2364 54.1646 38.0073 53.4884 36.1114 52.2216C34.2154 50.9548 32.7377 49.1542 31.8651 47.0475C30.9925 44.9408 30.7642 42.6227 31.209 40.3863C31.6539 38.1499 32.7519 36.0955 34.3643 34.4832C35.9767 32.8708 38.031 31.7727 40.2674 31.3279C42.5038 30.883 44.822 31.1114 46.9286 31.984C49.0353 32.8566 50.8359 34.3343 52.1027 36.2302C53.3696 38.1262 54.0457 40.3552 54.0457 42.6355C54.0457 45.6932 52.8311 48.6257 50.6689 50.7878C48.5068 52.95 45.5743 54.1646 42.5166 54.1646ZM42.5166 33.2026C40.651 33.2026 38.8272 33.7558 37.276 34.7923C35.7247 35.8288 34.5157 37.302 33.8017 39.0257C33.0878 40.7493 32.901 42.646 33.265 44.4758C33.6289 46.3056 34.5273 47.9864 35.8465 49.3056C37.1658 50.6248 38.8465 51.5232 40.6764 51.8872C42.5062 52.2511 44.4028 52.0643 46.1264 51.3504C47.8501 50.6364 49.3233 49.4274 50.3598 47.8761C51.3963 46.3249 51.9495 44.5011 51.9495 42.6355C51.9495 40.1337 50.9557 37.7344 49.1867 35.9654C47.4177 34.1964 45.0184 33.2026 42.5166 33.2026V33.2026Z" fill="#404040"/>
<path d="M33.8513 48.7587L27.0923 55.5178L28.5745 57L35.3335 50.241L33.8513 48.7587Z" fill="#404040"/>
<path d="M42.5166 45.7798C41.9346 45.7558 41.3632 45.616 40.8359 45.3685C40.3086 45.121 39.8359 44.7709 39.4455 44.3385C39.0552 43.9062 38.7549 43.4003 38.5624 42.8506C38.3699 42.3008 38.2889 41.7181 38.3242 41.1367V39.9419C38.3242 38.83 38.7659 37.7636 39.5521 36.9774C40.3384 36.1912 41.4047 35.7495 42.5166 35.7495C43.6285 35.7495 44.6949 36.1912 45.4811 36.9774C46.2673 37.7636 46.709 38.83 46.709 39.9419V41.1367C46.7429 41.7178 46.661 42.2999 46.4679 42.849C46.2748 43.3982 45.9745 43.9035 45.5844 44.3355C45.1943 44.7676 44.7222 45.1177 44.1955 45.3657C43.6688 45.6136 43.0982 45.7544 42.5166 45.7798V45.7798ZM42.5166 37.395C42.2115 37.4238 41.915 37.5127 41.6443 37.6565C41.3736 37.8003 41.134 37.9961 40.9392 38.2328C40.7444 38.4695 40.5983 38.7423 40.5093 39.0356C40.4203 39.3289 40.39 39.6369 40.4204 39.9419V41.1367C40.4204 41.6927 40.6413 42.2258 41.0344 42.6189C41.4275 43.0121 41.9607 43.2329 42.5166 43.2329C43.0726 43.2329 43.6057 43.0121 43.9988 42.6189C44.392 42.2258 44.6128 41.6927 44.6128 41.1367V39.9419C44.6432 39.6369 44.613 39.3289 44.5239 39.0356C44.4349 38.7423 44.2888 38.4695 44.094 38.2328C43.8992 37.9961 43.6596 37.8003 43.3889 37.6565C43.1182 37.5127 42.8218 37.4238 42.5166 37.395Z" fill="#FA4616"/>
<path d="M47.7571 48.9241C47.4792 48.9241 47.2126 48.8137 47.016 48.6171C46.8195 48.4206 46.709 48.154 46.709 47.876C46.709 46.8279 45.0216 45.7798 42.5166 45.7798C40.0116 45.7798 38.3242 46.8279 38.3242 47.876C38.3242 48.154 38.2138 48.4206 38.0172 48.6171C37.8207 48.8137 37.5541 48.9241 37.2761 48.9241C36.9981 48.9241 36.7316 48.8137 36.535 48.6171C36.3384 48.4206 36.228 48.154 36.228 47.876C36.228 45.4863 38.9321 43.6836 42.5166 43.6836C46.1011 43.6836 48.8052 45.4863 48.8052 47.876C48.8052 48.154 48.6948 48.4206 48.4983 48.6171C48.3017 48.8137 48.0351 48.9241 47.7571 48.9241Z" fill="#FA4616"/>
</svg>
