<svg width="64" height="64" viewBox="0 0 64 64" fill="none" xmlns="http://www.w3.org/2000/svg">
<path d="M28.873 55.8708C28.5968 55.8708 28.3319 55.7611 28.1366 55.5657C27.9412 55.3704 27.8315 55.1055 27.8315 54.8292V28.7899C27.8315 28.5136 27.9412 28.2487 28.1366 28.0534C28.3319 27.858 28.5968 27.7483 28.873 27.7483H34.0809C36.9869 27.7483 38.6014 26.1547 39.1117 24.6236H20.5404C16.5096 24.6236 14.291 26.4776 14.291 29.8315V41.2888C14.291 41.565 14.1813 41.8299 13.9859 42.0253C13.7906 42.2206 13.5257 42.3303 13.2494 42.3303C12.9732 42.3303 12.7083 42.2206 12.5129 42.0253C12.3176 41.8299 12.2079 41.565 12.2079 41.2888V29.8315C12.2079 25.2694 15.3326 22.5404 20.5404 22.5404H40.3304C40.6066 22.5404 40.8715 22.6502 41.0669 22.8455C41.2622 23.0408 41.3719 23.3058 41.3719 23.582C41.3719 26.6547 38.643 29.8315 34.0809 29.8315H29.9146V54.8292C29.9146 55.1055 29.8049 55.3704 29.6096 55.5657C29.4142 55.7611 29.1493 55.8708 28.873 55.8708Z" fill="#404040"/>
<path d="M23.6652 21.4989C22.9746 21.5237 22.2863 21.4059 21.6433 21.1529C21.0002 20.9 20.4162 20.5172 19.9276 20.0286C19.439 19.54 19.0562 18.956 18.8033 18.3129C18.5503 17.6699 18.4325 16.9816 18.4573 16.291V14.2079C18.4573 12.8267 19.006 11.502 19.9827 10.5253C20.9593 9.54868 22.284 9 23.6652 9C25.0464 9 26.371 9.54868 27.3477 10.5253C28.3244 11.502 28.873 12.8267 28.873 14.2079V16.291C28.8963 16.9812 28.7774 17.6688 28.5239 18.3111C28.2704 18.9535 27.8877 19.5369 27.3994 20.0252C26.9111 20.5135 26.3276 20.8963 25.6853 21.1498C25.0429 21.4033 24.3553 21.5221 23.6652 21.4989V21.4989ZM23.6652 11.0831C23.2485 11.0589 22.8314 11.1232 22.4413 11.2716C22.0513 11.4201 21.697 11.6494 21.4019 11.9446C21.1068 12.2397 20.8774 12.5939 20.7289 12.984C20.5805 13.3741 20.5162 13.7912 20.5405 14.2079V16.291C20.5405 17.1197 20.8697 17.9145 21.4557 18.5005C22.0417 19.0865 22.8364 19.4157 23.6652 19.4157C24.4939 19.4157 25.2887 19.0865 25.8747 18.5005C26.4607 17.9145 26.7899 17.1197 26.7899 16.291V14.2079C26.8141 13.7912 26.7499 13.3741 26.6014 12.984C26.453 12.5939 26.2236 12.2397 25.9285 11.9446C25.6334 11.6494 25.2791 11.4201 24.889 11.2716C24.499 11.1232 24.0818 11.0589 23.6652 11.0831V11.0831Z" fill="#404040"/>
<path d="M17.4157 42.3304C17.1395 42.3304 16.8746 42.2206 16.6793 42.0253C16.4839 41.83 16.3742 41.565 16.3742 41.2888V30.8731C16.3742 30.5968 16.4839 30.3319 16.6793 30.1366C16.8746 29.9412 17.1395 29.8315 17.4157 29.8315C17.692 29.8315 17.9569 29.9412 18.1523 30.1366C18.3476 30.3319 18.4573 30.5968 18.4573 30.8731V41.2888C18.4573 41.565 18.3476 41.83 18.1523 42.0253C17.9569 42.2206 17.692 42.3304 17.4157 42.3304Z" fill="#404040"/>
<path d="M17.4157 55.8708C17.1395 55.8708 16.8746 55.7611 16.6793 55.5657C16.4839 55.3704 16.3742 55.1055 16.3742 54.8292V50.6629C16.3742 50.3867 16.4839 50.1218 16.6793 49.9264C16.8746 49.7311 17.1395 49.6214 17.4157 49.6214C17.692 49.6214 17.9569 49.7311 18.1523 49.9264C18.3476 50.1218 18.4573 50.3867 18.4573 50.6629V54.8292C18.4573 55.1055 18.3476 55.3704 18.1523 55.5657C17.9569 55.7611 17.692 55.8708 17.4157 55.8708Z" fill="#404040"/>
<path d="M23.6652 55.8708C23.389 55.8708 23.124 55.7611 22.9287 55.5658C22.7334 55.3704 22.6236 55.1055 22.6236 54.8293V41.2888C22.6236 41.0126 22.7334 40.7476 22.9287 40.5523C23.124 40.357 23.389 40.2472 23.6652 40.2472C23.9414 40.2472 24.2064 40.357 24.4017 40.5523C24.5971 40.7476 24.7068 41.0126 24.7068 41.2888V54.8293C24.7068 55.1055 24.5971 55.3704 24.4017 55.5658C24.2064 55.7611 23.9414 55.8708 23.6652 55.8708Z" fill="#404040"/>
<path d="M19.4989 51.7045H8.04157C7.76533 51.7045 7.50042 51.5948 7.30509 51.3995C7.10975 51.2041 7 50.9392 7 50.663V41.2888C7 41.0126 7.10975 40.7476 7.30509 40.5523C7.50042 40.357 7.76533 40.2472 8.04157 40.2472H19.4989C19.7751 40.2472 20.0401 40.357 20.2354 40.5523C20.4307 40.7476 20.5405 41.0126 20.5405 41.2888V50.663C20.5405 50.9392 20.4307 51.2041 20.2354 51.3995C20.0401 51.5948 19.7751 51.7045 19.4989 51.7045ZM9.08315 49.6214H18.4573V42.3304H9.08315V49.6214Z" fill="#404040"/>
<path d="M42.4135 45.4551C42.2628 45.454 42.114 45.4221 41.9761 45.3614C41.7953 45.2777 41.6423 45.1439 41.5352 44.9759C41.4281 44.8079 41.3714 44.6128 41.3719 44.4135V41.2888H36.1641V39.2057H42.4135C42.6897 39.2057 42.9547 39.3154 43.15 39.5107C43.3454 39.7061 43.4551 39.971 43.4551 40.2472V42.1221L49.1629 37.1225L43.4551 32.1334V33.9978C43.4551 34.274 43.3454 34.539 43.15 34.7343C42.9547 34.9296 42.6897 35.0394 42.4135 35.0394H33.0393V32.9562H41.3719V29.8315C41.3722 29.6313 41.4301 29.4355 41.5388 29.2674C41.6474 29.0993 41.8023 28.966 41.9847 28.8836C42.1671 28.8012 42.3694 28.7731 42.5673 28.8027C42.7653 28.8322 42.9506 28.9182 43.1009 29.0503L51.4335 36.3413C51.5461 36.4391 51.6364 36.5599 51.6983 36.6956C51.7601 36.8312 51.7921 36.9786 51.7921 37.1277C51.7921 37.2768 51.7601 37.4242 51.6983 37.5599C51.6364 37.6955 51.5461 37.8163 51.4335 37.9141L43.1009 45.2051C42.9096 45.3688 42.6653 45.4576 42.4135 45.4551V45.4551Z" fill="#FA4616"/>
<path d="M47.6214 29.8315C47.4707 29.8304 47.3218 29.7985 47.184 29.7378C47.0032 29.6541 46.8502 29.5203 46.7431 29.3523C46.636 29.1843 46.5793 28.9892 46.5798 28.7899V25.6652H44.4967V23.5821H47.6214C47.8976 23.5821 48.1626 23.6918 48.3579 23.8871C48.5533 24.0825 48.663 24.3474 48.663 24.6236V26.4985L54.3708 21.4989L48.663 16.5098V18.3742C48.663 18.6504 48.5533 18.9154 48.3579 19.1107C48.1626 19.306 47.8976 19.4158 47.6214 19.4158H37.2057V17.3326H46.5798V14.2079C46.5801 14.0077 46.638 13.8119 46.7467 13.6438C46.8553 13.4757 47.0102 13.3424 47.1926 13.26C47.375 13.1776 47.5773 13.1495 47.7752 13.1791C47.9732 13.2086 48.1585 13.2946 48.3088 13.4267L56.6414 20.7177C56.754 20.8155 56.8443 20.9363 56.9061 21.072C56.968 21.2076 57 21.355 57 21.5041C57 21.6532 56.968 21.8006 56.9061 21.9363C56.8443 22.0719 56.754 22.1927 56.6414 22.2905L48.3088 29.5815C48.1175 29.7452 47.8732 29.834 47.6214 29.8315V29.8315Z" fill="#FA4616"/>
</svg>
