<svg width="64" height="64" viewBox="0 0 64 64" fill="none" xmlns="http://www.w3.org/2000/svg">
<path d="M53.7391 53.3913H10.2609C9.39603 53.3913 8.56662 53.0477 7.95508 52.4362C7.34355 51.8246 7 50.9953 7 50.1304V19.6957C7 18.8308 7.34355 18.0014 7.95508 17.3899C8.56662 16.7783 9.39603 16.4348 10.2609 16.4348H53.7391C54.604 16.4348 55.4334 16.7783 56.0449 17.3899C56.6564 18.0014 57 18.8308 57 19.6957V50.1304C57 50.9953 56.6564 51.8246 56.0449 52.4362C55.4334 53.0477 54.604 53.3913 53.7391 53.3913V53.3913ZM10.2609 18.6087C9.97259 18.6087 9.69612 18.7232 9.49227 18.927C9.28843 19.1309 9.17391 19.4074 9.17391 19.6957V50.1304C9.17391 50.4187 9.28843 50.6952 9.49227 50.899C9.69612 51.1029 9.97259 51.2174 10.2609 51.2174H53.7391C54.0274 51.2174 54.3039 51.1029 54.5077 50.899C54.7116 50.6952 54.8261 50.4187 54.8261 50.1304V19.6957C54.8261 19.4074 54.7116 19.1309 54.5077 18.927C54.3039 18.7232 54.0274 18.6087 53.7391 18.6087H10.2609Z" fill="#404040"/>
<path d="M39.6087 17.5217H37.4348V13.1739H26.5652V17.5217H24.3913V13.1739C24.3913 12.5974 24.6203 12.0444 25.028 11.6367C25.4357 11.229 25.9887 11 26.5652 11H37.4348C38.0113 11 38.5643 11.229 38.9719 11.6367C39.3796 12.0444 39.6087 12.5974 39.6087 13.1739V17.5217Z" fill="#404040"/>
<path d="M28.7391 39.2609H13.5217C11.7921 39.2609 10.1332 38.5737 8.91018 37.3507C7.68711 36.1276 7 34.4688 7 32.7391H9.17391C9.17391 33.8923 9.63199 34.9981 10.4474 35.8135C11.2627 36.6289 12.3686 37.087 13.5217 37.087H28.7391V39.2609Z" fill="#404040"/>
<path d="M50.4783 39.2609H35.2609V37.087H50.4783C51.6314 37.087 52.7372 36.6289 53.5526 35.8135C54.368 34.9981 54.8261 33.8923 54.8261 32.7391H57C57 34.4688 56.3129 36.1276 55.0898 37.3507C53.8667 38.5737 52.2079 39.2609 50.4783 39.2609V39.2609Z" fill="#404040"/>
<path d="M34.1739 42.5217H29.8261C29.2495 42.5217 28.6966 42.2927 28.2889 41.885C27.8812 41.4773 27.6522 40.9244 27.6522 40.3478V32.7391H36.3478V40.3478C36.3478 40.9244 36.1188 41.4773 35.7111 41.885C35.3034 42.2927 34.7505 42.5217 34.1739 42.5217ZM29.8261 34.913V40.3478H34.1739V34.913H29.8261Z" fill="#FA4616"/>
</svg>
