<svg width="64" height="64" viewBox="0 0 64 64" fill="none" xmlns="http://www.w3.org/2000/svg">
<path d="M32.4043 44.234C29.8794 44.234 27.4112 43.4854 25.3119 42.0826C23.2125 40.6799 21.5763 38.6861 20.6101 36.3534C19.6438 34.0208 19.391 31.4539 19.8836 28.9776C20.3762 26.5012 21.592 24.2266 23.3774 22.4412C25.1627 20.6559 27.4374 19.44 29.9138 18.9474C32.3901 18.4549 34.9569 18.7077 37.2896 19.6739C39.6223 20.6401 41.616 22.2764 43.0188 24.3757C44.4215 26.4751 45.1702 28.9432 45.1702 31.4681C45.1702 34.8538 43.8253 38.1009 41.4312 40.495C39.0371 42.8891 35.79 44.234 32.4043 44.234V44.234ZM32.4043 20.8298C30.3002 20.8298 28.2434 21.4537 26.4939 22.6227C24.7445 23.7916 23.381 25.4531 22.5758 27.397C21.7706 29.3409 21.5599 31.4799 21.9704 33.5435C22.3809 35.6072 23.3941 37.5027 24.8819 38.9905C26.3696 40.4783 28.2652 41.4915 30.3288 41.902C32.3925 42.3125 34.5315 42.1018 36.4754 41.2966C38.4193 40.4914 40.0807 39.1279 41.2497 37.3784C42.4186 35.629 43.0426 33.5721 43.0426 31.4681C43.0426 28.6466 41.9218 25.9408 39.9267 23.9457C37.9316 21.9506 35.2257 20.8298 32.4043 20.8298V20.8298Z" fill="#404040"/>
<path d="M32.4043 15.5106C31.5626 15.5106 30.7399 15.2611 30.0401 14.7935C29.3403 14.3259 28.7949 13.6613 28.4729 12.8838C28.1508 12.1062 28.0665 11.2506 28.2307 10.4252C28.3949 9.59971 28.8002 8.84149 29.3953 8.24637C29.9904 7.65125 30.7486 7.24596 31.5741 7.08176C32.3995 6.91757 33.2551 7.00185 34.0327 7.32392C34.8103 7.646 35.4749 8.19141 35.9424 8.8912C36.41 9.59098 36.6596 10.4137 36.6596 11.2553C36.6596 12.3839 36.2113 13.4662 35.4132 14.2643C34.6152 15.0623 33.5328 15.5106 32.4043 15.5106ZM32.4043 9.12764C31.9834 9.12764 31.5721 9.25244 31.2222 9.48623C30.8723 9.72002 30.5996 10.0523 30.4386 10.4411C30.2775 10.8299 30.2354 11.2577 30.3175 11.6704C30.3996 12.0831 30.6022 12.4622 30.8998 12.7598C31.1973 13.0573 31.5765 13.26 31.9892 13.3421C32.4019 13.4242 32.8297 13.3821 33.2185 13.221C33.6073 13.06 33.9396 12.7873 34.1733 12.4374C34.4071 12.0875 34.5319 11.6761 34.5319 11.2553C34.5319 10.691 34.3078 10.1499 33.9087 9.75085C33.5097 9.35184 32.9686 9.12764 32.4043 9.12764Z" fill="#404040"/>
<path d="M32.4043 57C31.5626 57 30.7399 56.7505 30.0401 56.2829C29.3403 55.8153 28.7949 55.1507 28.4729 54.3732C28.1508 53.5956 28.0665 52.74 28.2307 51.9145C28.3949 51.0891 28.8002 50.3309 29.3953 49.7357C29.9904 49.1406 30.7486 48.7353 31.5741 48.5711C32.3995 48.4069 33.2551 48.4912 34.0327 48.8133C34.8103 49.1354 35.4749 49.6808 35.9424 50.3806C36.41 51.0804 36.6596 51.9031 36.6596 52.7447C36.6596 53.8733 36.2113 54.9556 35.4132 55.7536C34.6152 56.5517 33.5328 57 32.4043 57ZM32.4043 50.617C31.9834 50.617 31.5721 50.7418 31.2222 50.9756C30.8723 51.2094 30.5996 51.5417 30.4386 51.9305C30.2775 52.3193 30.2354 52.7471 30.3175 53.1598C30.3996 53.5725 30.6022 53.9516 30.8998 54.2492C31.1973 54.5467 31.5765 54.7494 31.9892 54.8315C32.4019 54.9136 32.8297 54.8714 33.2185 54.7104C33.6073 54.5494 33.9396 54.2766 34.1733 53.9267C34.4071 53.5769 34.5319 53.1655 34.5319 52.7447C34.5319 52.1804 34.3078 51.6392 33.9087 51.2402C33.5097 50.8412 32.9686 50.617 32.4043 50.617Z" fill="#404040"/>
<path d="M48.3617 20.8298C47.5201 20.8298 46.6974 20.5802 45.9976 20.1126C45.2978 19.6451 44.7524 18.9805 44.4303 18.2029C44.1082 17.4254 44.024 16.5698 44.1882 15.7443C44.3524 14.9189 44.7576 14.1606 45.3528 13.5655C45.9479 12.9704 46.7061 12.5651 47.5316 12.4009C48.357 12.2367 49.2126 12.321 49.9902 12.6431C50.7677 12.9652 51.4323 13.5106 51.8999 14.2104C52.3675 14.9101 52.617 15.7328 52.617 16.5745C52.617 17.703 52.1687 18.7854 51.3707 19.5834C50.5727 20.3815 49.4903 20.8298 48.3617 20.8298ZM48.3617 14.4468C47.9409 14.4468 47.5296 14.5716 47.1797 14.8054C46.8298 15.0392 46.5571 15.3715 46.396 15.7603C46.235 16.149 46.1928 16.5768 46.2749 16.9896C46.357 17.4023 46.5597 17.7814 46.8572 18.0789C47.1548 18.3765 47.5339 18.5791 47.9466 18.6612C48.3594 18.7433 48.7872 18.7012 49.1759 18.5402C49.5647 18.3791 49.897 18.1064 50.1308 17.7565C50.3646 17.4066 50.4894 16.9953 50.4894 16.5745C50.4894 16.0102 50.2652 15.469 49.8662 15.07C49.4672 14.671 48.926 14.4468 48.3617 14.4468Z" fill="#404040"/>
<path d="M51.5532 35.7234C50.7116 35.7234 49.8889 35.4738 49.1891 35.0063C48.4893 34.5387 47.9439 33.8741 47.6218 33.0965C47.2997 32.319 47.2155 31.4634 47.3797 30.6379C47.5439 29.8125 47.9491 29.0543 48.5443 28.4591C49.1394 27.864 49.8976 27.4587 50.7231 27.2945C51.5485 27.1303 52.4041 27.2146 53.1817 27.5367C53.9592 27.8588 54.6238 28.4042 55.0914 29.104C55.559 29.8038 55.8085 30.6265 55.8085 31.4681C55.8085 32.5967 55.3602 33.679 54.5622 34.477C53.7642 35.2751 52.6818 35.7234 51.5532 35.7234ZM51.5532 29.3404C51.1324 29.3404 50.7211 29.4652 50.3712 29.699C50.0213 29.9328 49.7486 30.2651 49.5875 30.6539C49.4265 31.0427 49.3843 31.4705 49.4664 31.8832C49.5485 32.2959 49.7512 32.675 50.0487 32.9726C50.3463 33.2701 50.7254 33.4728 51.1381 33.5549C51.5509 33.637 51.9787 33.5948 52.3674 33.4338C52.7562 33.2728 53.0885 33 53.3223 32.6501C53.5561 32.3003 53.6809 31.8889 53.6809 31.4681C53.6809 30.9038 53.4567 30.3626 53.0577 29.9636C52.6587 29.5646 52.1175 29.3404 51.5532 29.3404Z" fill="#404040"/>
<path d="M48.3617 50.617C47.5201 50.617 46.6974 50.3675 45.9976 49.8999C45.2978 49.4323 44.7524 48.7677 44.4303 47.9902C44.1082 47.2126 44.024 46.357 44.1882 45.5316C44.3524 44.7061 44.7576 43.9479 45.3528 43.3528C45.9479 42.7576 46.7061 42.3524 47.5316 42.1882C48.357 42.024 49.2126 42.1082 49.9902 42.4303C50.7677 42.7524 51.4323 43.2978 51.8999 43.9976C52.3675 44.6974 52.617 45.5201 52.617 46.3617C52.617 47.4903 52.1687 48.5726 51.3707 49.3707C50.5727 50.1687 49.4903 50.617 48.3617 50.617ZM48.3617 44.234C47.9409 44.234 47.5296 44.3588 47.1797 44.5926C46.8298 44.8264 46.5571 45.1587 46.396 45.5475C46.235 45.9363 46.1928 46.3641 46.2749 46.7768C46.357 47.1895 46.5597 47.5686 46.8572 47.8662C47.1548 48.1637 47.5339 48.3664 47.9466 48.4485C48.3594 48.5306 48.7872 48.4885 49.1759 48.3274C49.5647 48.1664 49.897 47.8937 50.1308 47.5438C50.3646 47.1939 50.4894 46.7825 50.4894 46.3617C50.4894 45.7974 50.2652 45.2563 49.8662 44.8572C49.4672 44.4582 48.926 44.234 48.3617 44.234Z" fill="#404040"/>
<path d="M33.4681 14.4468H31.3404V19.766H33.4681V14.4468Z" fill="#404040"/>
<path d="M33.4681 43.1702H31.3404V49.5532H33.4681V43.1702Z" fill="#404040"/>
<path d="M45.4807 17.9486L40.1623 23.2669L41.6668 24.7714L46.9852 19.4531L45.4807 17.9486Z" fill="#404040"/>
<path d="M41.6615 38.1592L40.1571 39.6637L45.4754 44.982L46.9799 43.4775L41.6615 38.1592Z" fill="#404040"/>
<path d="M48.3617 30.4043H44.1064V32.5319H48.3617V30.4043Z" fill="#404040"/>
<path d="M16.4468 20.8298C15.6052 20.8298 14.7825 20.5802 14.0827 20.1126C13.3829 19.6451 12.8375 18.9805 12.5154 18.2029C12.1933 17.4254 12.1091 16.5698 12.2733 15.7443C12.4374 14.9189 12.8427 14.1606 13.4378 13.5655C14.033 12.9704 14.7912 12.5651 15.6166 12.4009C16.4421 12.2367 17.2977 12.321 18.0753 12.6431C18.8528 12.9652 19.5174 13.5106 19.985 14.2104C20.4526 14.9101 20.7021 15.7328 20.7021 16.5745C20.7021 17.703 20.2538 18.7854 19.4558 19.5834C18.6578 20.3815 17.5754 20.8298 16.4468 20.8298ZM16.4468 14.4468C16.026 14.4468 15.6146 14.5716 15.2647 14.8054C14.9149 15.0392 14.6421 15.3715 14.4811 15.7603C14.3201 16.149 14.2779 16.5768 14.36 16.9896C14.4421 17.4023 14.6448 17.7814 14.9423 18.0789C15.2399 18.3765 15.619 18.5791 16.0317 18.6612C16.4445 18.7433 16.8723 18.7012 17.261 18.5402C17.6498 18.3791 17.9821 18.1064 18.2159 17.7565C18.4497 17.4066 18.5745 16.9953 18.5745 16.5745C18.5745 16.0102 18.3503 15.469 17.9513 15.07C17.5523 14.671 17.0111 14.4468 16.4468 14.4468Z" fill="#404040"/>
<path d="M13.2553 35.7234C12.4137 35.7234 11.591 35.4738 10.8912 35.0063C10.1914 34.5387 9.64599 33.8741 9.32392 33.0965C9.00184 32.319 8.91757 31.4634 9.08177 30.6379C9.24596 29.8125 9.65124 29.0543 10.2464 28.4591C10.8415 27.864 11.5997 27.4587 12.4251 27.2945C13.2506 27.1303 14.1062 27.2146 14.8838 27.5367C15.6613 27.8588 16.3259 28.4042 16.7935 29.104C17.2611 29.8038 17.5106 30.6265 17.5106 31.4681C17.5106 32.5967 17.0623 33.679 16.2643 34.477C15.4663 35.2751 14.3839 35.7234 13.2553 35.7234ZM13.2553 29.3404C12.8345 29.3404 12.4231 29.4652 12.0733 29.699C11.7234 29.9328 11.4507 30.2651 11.2896 30.6539C11.1286 31.0427 11.0864 31.4705 11.1685 31.8832C11.2506 32.2959 11.4533 32.675 11.7508 32.9726C12.0484 33.2701 12.4275 33.4728 12.8402 33.5549C13.253 33.637 13.6808 33.5948 14.0695 33.4338C14.4583 33.2728 14.7906 33 15.0244 32.6501C15.2582 32.3003 15.383 31.8889 15.383 31.4681C15.383 30.9038 15.1588 30.3626 14.7598 29.9636C14.3608 29.5646 13.8196 29.3404 13.2553 29.3404Z" fill="#404040"/>
<path d="M16.4468 50.617C15.6052 50.617 14.7825 50.3675 14.0827 49.8999C13.3829 49.4323 12.8375 48.7677 12.5154 47.9902C12.1933 47.2126 12.1091 46.357 12.2733 45.5316C12.4374 44.7061 12.8427 43.9479 13.4378 43.3528C14.033 42.7576 14.7912 42.3524 15.6166 42.1882C16.4421 42.024 17.2977 42.1082 18.0753 42.4303C18.8528 42.7524 19.5174 43.2978 19.985 43.9976C20.4526 44.6974 20.7021 45.5201 20.7021 46.3617C20.7021 47.4903 20.2538 48.5726 19.4558 49.3707C18.6578 50.1687 17.5754 50.617 16.4468 50.617ZM16.4468 44.234C16.026 44.234 15.6146 44.3588 15.2647 44.5926C14.9149 44.8264 14.6421 45.1587 14.4811 45.5475C14.3201 45.9363 14.2779 46.3641 14.36 46.7768C14.4421 47.1895 14.6448 47.5686 14.9423 47.8662C15.2399 48.1637 15.619 48.3664 16.0317 48.4485C16.4445 48.5306 16.8723 48.4885 17.261 48.3274C17.6498 48.1664 17.9821 47.8937 18.2159 47.5438C18.4497 47.1939 18.5745 46.7825 18.5745 46.3617C18.5745 45.7974 18.3503 45.2563 17.9513 44.8572C17.5523 44.4582 17.0111 44.234 16.4468 44.234Z" fill="#404040"/>
<path d="M19.3272 17.9402L17.8227 19.4447L23.141 24.7631L24.6455 23.2586L19.3272 17.9402Z" fill="#404040"/>
<path d="M23.1358 38.1659L17.8174 43.4842L19.3219 44.9887L24.6402 39.6704L23.1358 38.1659Z" fill="#404040"/>
<path d="M20.7021 30.4043H16.4468V32.5319H20.7021V30.4043Z" fill="#404040"/>
<path d="M38.7872 37.8511H36.6596V35.7766C36.5638 35.1915 34.4043 33.5958 32.4043 33.5958C30.4043 33.5958 28.2447 35.1915 28.1489 35.7873V37.8511H26.0213V35.7766C26.0213 33.5958 29.6809 31.4681 32.4043 31.4681C35.1277 31.4681 38.7872 33.5958 38.7872 35.7766V37.8511Z" fill="#FA4616"/>
<path d="M32.4043 33.5958C31.3116 33.5971 30.2603 33.1781 29.4681 32.4256C28.6759 31.673 28.2036 30.6445 28.1489 29.5532V28.0639C28.1489 26.9353 28.5973 25.8529 29.3953 25.0549C30.1933 24.2569 31.2757 23.8085 32.4043 23.8085C33.5328 23.8085 34.6152 24.2569 35.4132 25.0549C36.2113 25.8529 36.6596 26.9353 36.6596 28.0639V29.5532C36.6049 30.6445 36.1326 31.673 35.3404 32.4256C34.5483 33.1781 33.4969 33.5971 32.4043 33.5958ZM32.4043 26.1489C31.875 26.1463 31.3637 26.341 30.9703 26.6951C30.5768 27.0492 30.3295 27.5372 30.2766 28.0639V29.5532C30.2766 30.1175 30.5008 30.6587 30.8998 31.0577C31.2988 31.4567 31.84 31.6809 32.4043 31.6809C32.9686 31.6809 33.5097 31.4567 33.9087 31.0577C34.3078 30.6587 34.5319 30.1175 34.5319 29.5532V28.0639C34.479 27.5372 34.2317 27.0492 33.8383 26.6951C33.4448 26.341 32.9336 26.1463 32.4043 26.1489V26.1489Z" fill="#FA4616"/>
</svg>
