<svg width="64" height="64" viewBox="0 0 64 64" fill="none" xmlns="http://www.w3.org/2000/svg">
<path d="M17.06 34.3591C16.8267 34.3609 16.599 34.288 16.4102 34.1511C16.2214 34.0142 16.0813 33.8205 16.0105 33.5982C15.9396 33.376 15.9418 33.1369 16.0166 32.916C16.0914 32.695 16.2349 32.5039 16.4262 32.3704C19.3328 30.327 30.3473 24.2734 36.1605 24.8307L30.697 9.83876C23.7067 10.0742 16.9257 12.2828 11.1375 16.2092C10.8998 16.3773 10.6052 16.4441 10.3183 16.3949C10.0314 16.3457 9.77578 16.1846 9.60769 15.947C9.43961 15.7093 9.37281 15.4146 9.42199 15.1277C9.47117 14.8408 9.63231 14.5852 9.86994 14.4171C16.2452 10.0948 23.7491 7.73915 31.4509 7.6424C31.6742 7.64168 31.8923 7.70936 32.076 7.83635C32.2596 7.96333 32.3999 8.14354 32.4781 8.35269L39.0343 26.3058C39.1209 26.5399 39.1248 26.7966 39.0453 27.0332C38.9658 27.2697 38.8077 27.472 38.5973 27.6062C38.3865 27.7409 38.1358 27.7992 37.8872 27.7713C37.6387 27.7435 37.4071 27.6312 37.2314 27.4532C35.7125 25.9234 25.4738 28.6552 17.6937 34.1515C17.5093 34.2851 17.2877 34.3576 17.06 34.3591Z" fill="#404040"/>
<path d="M35.8546 34.0422C35.2937 34.0552 34.734 33.9853 34.1937 33.8346C33.8208 33.7391 33.476 33.5565 33.1873 33.302C32.8986 33.0475 32.6743 32.7283 32.5327 32.3704C32.4437 32.1036 32.461 31.8125 32.5811 31.5581C32.7012 31.3037 32.9148 31.1054 33.1774 31.0046C33.3109 30.9513 33.4535 30.9248 33.5971 30.9268C33.7408 30.9287 33.8826 30.9591 34.0146 31.0159C34.1465 31.0727 34.266 31.1551 34.3661 31.2581C34.4662 31.3612 34.545 31.4829 34.598 31.6164C35.6907 33.0588 46.7817 29.5621 52.6932 26.1529L44.1045 21.6181C43.8812 21.4998 43.7058 21.3078 43.6082 21.0747C43.5105 20.8416 43.4967 20.5818 43.5691 20.3397L46.3992 10.5927C43.4508 12.2453 40.309 13.5262 37.0456 14.4062C36.7697 14.4705 36.4796 14.4252 36.2365 14.2797C35.9934 14.1341 35.8163 13.8999 35.7426 13.6263C35.6689 13.3528 35.7043 13.0613 35.8414 12.8133C35.9785 12.5654 36.2065 12.3804 36.4774 12.2974C40.4469 11.2274 44.2101 9.50271 47.6121 7.19439C47.7976 7.06592 48.0183 6.99806 48.2439 7.00004C48.4695 7.00202 48.689 7.07375 48.8722 7.20546C49.0554 7.33716 49.1933 7.52231 49.267 7.73554C49.3408 7.94877 49.3467 8.17961 49.284 8.39634L45.9075 20.0665L55.3594 25.0711C55.5245 25.1585 55.6644 25.2868 55.7658 25.4436C55.8672 25.6005 55.9267 25.7808 55.9386 25.9672C55.9505 26.1533 55.9146 26.3393 55.8342 26.5077C55.7539 26.676 55.6318 26.821 55.4796 26.9288C51.6879 29.595 41.0887 34.0422 35.8546 34.0422Z" fill="#404040"/>
<path d="M37.745 30.5565C37.5716 30.5557 37.4009 30.5137 37.247 30.4339C37.0931 30.3541 36.9604 30.2387 36.8599 30.0975C36.6929 29.8624 36.6255 29.5709 36.6726 29.2864C36.7197 29.0019 36.8773 28.7474 37.1112 28.5786C37.439 28.3382 37.6575 28.1853 37.1112 27.2565C36.9576 27.0102 36.9081 26.713 36.9737 26.4302C37.0393 26.1474 37.2145 25.9022 37.4608 25.7486C37.7072 25.595 38.0044 25.5456 38.2872 25.6112C38.57 25.6767 38.8152 25.852 38.9688 26.0983C40.4221 28.4258 39.242 29.7588 38.4115 30.3598C38.2166 30.4961 37.9826 30.5652 37.745 30.5565V30.5565Z" fill="#404040"/>
<path d="M25.4083 57C25.185 57.0007 24.9669 56.9331 24.7832 56.8061C24.5996 56.6791 24.4593 56.499 24.3811 56.2899L8.067 12.0133C7.96701 11.7409 7.97934 11.4399 8.10127 11.1765C8.2232 10.9132 8.44474 10.7091 8.71716 10.6091C8.98957 10.5091 9.29055 10.5215 9.55388 10.6434C9.8172 10.7653 10.0213 10.9868 10.1213 11.2592L26.4354 55.5358C26.5338 55.8082 26.5201 56.1086 26.3971 56.3708C26.2742 56.6331 26.0521 56.8359 25.7798 56.9345C25.6607 56.9777 25.535 56.9999 25.4083 57V57Z" fill="#404040"/>
</svg>
