<svg width="64" height="64" viewBox="0 0 64 64" fill="none" xmlns="http://www.w3.org/2000/svg">
<path d="M18.9698 57H18.7477C18.4743 56.9392 18.2362 56.7727 18.0855 56.5367C17.9348 56.3007 17.8838 56.0146 17.9437 55.7411L19.996 46.4951C19.4988 44.8766 17.8802 39.5871 17.8802 38.032C17.8802 34.3611 20.398 32.2348 22.5984 30.7961C24.7988 29.3573 29.7814 26.3106 33.2407 24.4487C34.0448 23.9845 34.957 23.74 35.8855 23.74C36.814 23.74 37.7261 23.9845 38.5302 24.4487C39.2683 24.8594 39.8921 25.4481 40.3447 26.1613C40.7974 26.8744 41.0646 27.6894 41.122 28.5322V44.4005C41.122 44.6811 41.0106 44.9502 40.8122 45.1485C40.6138 45.3469 40.3447 45.4584 40.0641 45.4584C38.8326 45.534 37.6158 45.1577 36.642 44.4001C35.6682 43.6424 35.0042 42.5555 34.7747 41.3432C34.5525 39.4919 33.7168 31.8222 33.7168 31.8222L35.8326 31.6C35.8326 31.6 36.6683 39.2591 36.8905 41.121C36.995 41.6431 37.2516 42.1227 37.6281 42.4992C38.0046 42.8757 38.4842 43.1323 39.0063 43.2368V28.4369C38.944 27.9637 38.7707 27.5118 38.5004 27.1184C38.2301 26.7249 37.8706 26.4009 37.4512 26.173C36.9648 25.8779 36.4068 25.722 35.8379 25.722C35.269 25.722 34.711 25.8779 34.2246 26.173C30.8605 28.0243 25.7615 31.1451 23.7197 32.5204C21.8684 33.7369 19.9642 35.345 19.9642 37.9897C20.4671 40.7535 21.1743 43.4763 22.08 46.1355C22.1266 46.3123 22.1266 46.4981 22.08 46.6749L19.9642 56.196C19.9089 56.4201 19.7818 56.6201 19.6023 56.7653C19.4227 56.9104 19.2006 56.9928 18.9698 57Z" fill="#404040"/>
<path d="M24.2593 57C24.1324 56.9977 24.007 56.9726 23.889 56.9259C23.7591 56.8766 23.6402 56.8022 23.539 56.707C23.4379 56.6117 23.3565 56.4974 23.2995 56.3707C23.2425 56.244 23.2111 56.1073 23.207 55.9684C23.2028 55.8295 23.2261 55.6912 23.2754 55.5613L26.7982 46.3365L25.3383 39.2274C25.2934 39.0131 25.3161 38.7902 25.4032 38.5894C25.4904 38.3885 25.6377 38.2196 25.8249 38.1061L34.5208 32.8166C34.6396 32.723 34.777 32.656 34.9239 32.62C35.0708 32.584 35.2237 32.58 35.3723 32.6081C35.5209 32.6363 35.6618 32.6959 35.7853 32.7831C35.9089 32.8703 36.0124 32.983 36.0887 33.1135C36.1651 33.2441 36.2125 33.3895 36.2279 33.5399C36.2433 33.6904 36.2263 33.8424 36.1779 33.9857C36.1296 34.129 36.0511 34.2603 35.9477 34.3707C35.8443 34.481 35.7185 34.568 35.5787 34.6256L27.5175 39.5237L28.8928 46.2095C28.9459 46.4034 28.9459 46.608 28.8928 46.8019L25.2537 56.3229C25.1763 56.5234 25.0397 56.6957 24.8621 56.8166C24.6844 56.9376 24.4742 57.0015 24.2593 57V57Z" fill="#404040"/>
<path d="M32.7224 57H32.6695C32.5305 56.9932 32.3942 56.9591 32.2684 56.8996C32.1427 56.84 32.0299 56.7563 31.9365 56.6531C31.8432 56.5499 31.7711 56.4293 31.7244 56.2982C31.6777 56.1672 31.6574 56.0282 31.6645 55.8892L32.1828 46.7384L28.6812 41.7452C28.5217 41.515 28.4599 41.2309 28.5095 40.9553C28.5591 40.6796 28.7159 40.4349 28.9457 40.2747C29.1746 40.1141 29.4578 40.0507 29.7333 40.0983C30.0089 40.1458 30.2544 40.3005 30.4162 40.5286L34.1188 45.8181C34.2553 46.0125 34.3224 46.2473 34.3092 46.4845L33.7803 56.0055C33.7641 56.275 33.6455 56.528 33.4488 56.7129C33.2522 56.8978 32.9923 57.0005 32.7224 57Z" fill="#404040"/>
<path d="M47.5329 35.8422C46.4867 35.8422 45.464 35.532 44.5942 34.9507C43.7244 34.3695 43.0464 33.5435 42.646 32.577C42.2457 31.6104 42.141 30.5468 42.345 29.5208C42.5491 28.4947 43.0529 27.5523 43.7926 26.8125C44.5324 26.0728 45.4749 25.569 46.5009 25.3649C47.527 25.1608 48.5905 25.2656 49.5571 25.6659C50.5236 26.0663 51.3497 26.7442 51.9309 27.6141C52.5121 28.4839 52.8223 29.5066 52.8223 30.5527C52.8223 31.9556 52.265 33.301 51.2731 34.2929C50.2811 35.2849 48.9357 35.8422 47.5329 35.8422ZM47.5329 27.3791C46.9052 27.3791 46.2916 27.5652 45.7697 27.9139C45.2478 28.2627 44.841 28.7583 44.6008 29.3383C44.3606 29.9182 44.2977 30.5562 44.4202 31.1719C44.5426 31.7875 44.8449 32.353 45.2887 32.7969C45.7326 33.2407 46.2981 33.543 46.9137 33.6654C47.5294 33.7879 48.1675 33.7251 48.7474 33.4848C49.3273 33.2446 49.823 32.8379 50.1717 32.316C50.5204 31.7941 50.7065 31.1804 50.7065 30.5527C50.7065 29.711 50.3722 28.9038 49.777 28.3087C49.1818 27.7135 48.3746 27.3791 47.5329 27.3791V27.3791Z" fill="#404040"/>
<path d="M24.693 27.8551C24.5115 27.8573 24.3324 27.8126 24.173 27.7256C24.0137 27.6385 23.8794 27.5119 23.7832 27.3579L21.5088 23.687C21.2429 23.9194 20.96 24.1316 20.6625 24.3217C19.2315 25.2082 17.507 25.49 15.8684 25.1052C14.2297 24.7203 12.811 23.7003 11.9243 22.2695C11.0573 20.8335 10.7866 19.1152 11.1701 17.4822C11.5537 15.8492 12.561 14.4311 13.9766 13.5313C14.8727 12.9751 15.8932 12.6509 16.946 12.5881C17.9988 12.5253 19.0507 12.7258 20.0065 13.1716C20.0205 12.1242 20.2983 11.0973 20.8142 10.1857C21.33 9.27414 22.0674 8.50735 22.9581 7.95617C24.3696 7.07901 26.0688 6.79044 27.6908 7.15242C29.3128 7.5144 30.7281 8.49806 31.6328 9.89213C32.5192 11.3056 32.8238 13.0074 32.4826 14.6405C32.1413 16.2736 31.1808 17.7112 29.8026 18.6514C29.471 18.8785 29.1164 19.07 28.7447 19.2227L31.0298 22.8936C31.1785 23.1335 31.2258 23.4226 31.1613 23.6974C31.0969 23.9722 30.9258 24.2101 30.686 24.3588C30.4461 24.5075 30.1569 24.5548 29.8822 24.4903C29.6074 24.4258 29.3695 24.2548 29.2208 24.0149L26.2058 19.1381C26.1124 18.9885 26.0579 18.8179 26.0472 18.6419C26.0365 18.4658 26.07 18.2899 26.1447 18.1301C26.2193 17.9703 26.3327 17.8317 26.4746 17.7269C26.6164 17.6221 26.7822 17.5544 26.9569 17.5301C27.5727 17.4465 28.1619 17.226 28.6813 16.8848C29.5988 16.2568 30.2378 15.2982 30.4646 14.2098C30.6913 13.1213 30.4883 11.9873 29.8978 11.0452C29.4095 10.2937 28.6952 9.7167 27.8578 9.39727C27.0205 9.07785 26.1034 9.0325 25.2386 9.26781C24.3738 9.50312 23.6061 10.0069 23.0461 10.7066C22.486 11.4063 22.1626 12.2657 22.1223 13.161C22.1078 13.5233 22.0035 13.8763 21.8189 14.1883C21.6342 14.5004 21.375 14.7617 21.0644 14.9488C20.7781 15.1264 20.4517 15.2292 20.1153 15.2477C19.7788 15.2662 19.4432 15.1998 19.1391 15.0546C18.5016 14.758 17.8002 14.6249 17.0983 14.6674C16.3964 14.7098 15.7162 14.9266 15.1191 15.2979C14.1807 15.9007 13.5136 16.845 13.2589 17.9308C13.0042 19.0167 13.1819 20.1591 13.7544 21.1163C14.1243 21.7135 14.637 22.2092 15.2463 22.5588C15.8556 22.9083 16.5423 23.1007 17.2445 23.1185C17.9467 23.1364 18.6423 22.9792 19.2686 22.661C19.8948 22.3428 20.432 21.8738 20.8317 21.2961C20.9298 21.1511 21.0622 21.0327 21.2173 20.9514C21.3724 20.8702 21.5453 20.8287 21.7204 20.8307C21.8975 20.835 22.0708 20.8837 22.2242 20.9725C22.3776 21.0612 22.5063 21.1871 22.5984 21.3385L25.6134 26.2154C25.7104 26.3747 25.7635 26.5568 25.7675 26.7433C25.7714 26.9298 25.7259 27.114 25.6357 27.2773C25.5455 27.4405 25.4137 27.577 25.2537 27.6729C25.0938 27.7688 24.9113 27.8207 24.7248 27.8234L24.693 27.8551Z" fill="#FA4616"/>
<path d="M17.622 17.5153L15.8239 18.6302L16.9388 20.4284L18.737 19.3135L17.622 17.5153Z" fill="#FA4616"/>
<path d="M26.6793 11.8554L24.8817 12.9713L25.9975 14.7689L27.7951 13.653L26.6793 11.8554Z" fill="#FA4616"/>
</svg>
