<svg width="64" height="64" viewBox="0 0 64 64" fill="none" xmlns="http://www.w3.org/2000/svg">
<path d="M32.433 37.8536C32.2642 37.8528 32.098 37.8119 31.9482 37.7342C31.7984 37.6566 31.6692 37.5443 31.5714 37.4069L20.9345 22.5152C20.8214 22.3565 20.7542 22.1697 20.7401 21.9753C20.7259 21.7809 20.7655 21.5864 20.8544 21.413C20.9433 21.2396 21.0782 21.0939 21.2442 20.9919C21.4103 20.8899 21.6012 20.8355 21.7961 20.8346H26.0508C26.0434 19.0254 25.6124 17.2432 24.7923 15.6307C23.9721 14.0181 22.7857 12.6201 21.328 11.5486C20.6427 11.0481 19.8455 10.7226 19.0058 10.6003C18.1661 10.4779 17.3092 10.5625 16.5095 10.8465C14.6203 11.7508 13.0215 13.1653 11.8938 14.9302C10.766 16.6952 10.1542 18.7402 10.1274 20.8346H8C8 12.9526 14.8608 7.0066 23.9554 7.0066C27.912 6.89092 31.7619 8.29989 34.7093 10.9423C36.0421 12.2276 37.0948 13.7745 37.8013 15.486C38.5079 17.1975 38.853 19.0366 38.8151 20.8878H43.0699C43.2652 20.8874 43.4568 20.9407 43.6238 21.0421C43.7908 21.1434 43.9267 21.2887 44.0165 21.4622C44.0988 21.6303 44.1353 21.8172 44.1222 22.004C44.1091 22.1908 44.047 22.3708 43.9421 22.5259L33.3052 37.4175C33.2051 37.5545 33.0737 37.6655 32.922 37.7414C32.7703 37.8173 32.6026 37.8557 32.433 37.8536ZM23.8596 22.9619L32.433 34.9604L41.0063 22.9619H37.7514C37.4693 22.9619 37.1987 22.8499 36.9993 22.6504C36.7998 22.4509 36.6877 22.1804 36.6877 21.8983V20.8346C36.7344 19.2731 36.4527 17.7192 35.8609 16.2735C35.2691 14.8278 34.3802 13.5225 33.252 12.4421C30.6818 10.1838 27.3421 8.99948 23.9234 9.13398C23.1625 9.13037 22.4021 9.17657 21.6471 9.27226C21.9343 9.42118 22.2109 9.59137 22.4981 9.7722C24.2541 11.0337 25.6849 12.6948 26.6725 14.6182C27.6602 16.5417 28.1762 18.6724 28.1782 20.8346V21.8983C28.1782 22.1804 28.0661 22.4509 27.8666 22.6504C27.6672 22.8499 27.3966 22.9619 27.1145 22.9619H23.8596Z" fill="#FA4616"/>
<path d="M32.433 57C32.1508 57 31.8803 56.888 31.6808 56.6885C31.4813 56.489 31.3693 56.2184 31.3693 55.9363V47.4268C31.3693 47.1447 31.4813 46.8741 31.6808 46.6747C31.8803 46.4752 32.1508 46.3631 32.433 46.3631C32.7151 46.3631 32.9856 46.4752 33.1851 46.6747C33.3846 46.8741 33.4966 47.1447 33.4966 47.4268V55.9363C33.4966 56.2184 33.3846 56.489 33.1851 56.6885C32.9856 56.888 32.7151 57 32.433 57Z" fill="#404040"/>
<path d="M32.4329 44.2357C27.1145 44.2357 22.8597 40.8957 22.8597 36.7899C22.88 35.3217 23.406 33.9054 24.3489 32.7798C24.4376 32.6715 24.5468 32.5818 24.6701 32.5157C24.7935 32.4497 24.9287 32.4085 25.068 32.3947C25.2072 32.3809 25.3479 32.3946 25.4818 32.4351C25.6158 32.4757 25.7404 32.5422 25.8487 32.6309C25.957 32.7196 26.0467 32.8287 26.1128 32.9521C26.1788 33.0755 26.2199 33.2107 26.2338 33.3499C26.2476 33.4892 26.2339 33.6298 26.1933 33.7638C26.1528 33.8977 26.0863 34.0224 25.9976 34.1307C25.3464 34.8675 24.9705 35.8072 24.9339 36.7899C24.9339 39.7257 28.2739 42.1083 32.3798 42.1083C36.4856 42.1083 39.8256 39.7257 39.8256 36.7899C39.8123 35.8357 39.4704 34.9154 38.8576 34.1839C38.7699 34.0744 38.7046 33.9486 38.6656 33.8139C38.6267 33.6791 38.6148 33.5379 38.6306 33.3985C38.6464 33.2591 38.6897 33.1242 38.7578 33.0016C38.826 32.879 38.9178 32.7711 39.0278 32.6841C39.2482 32.5101 39.5285 32.4304 39.8075 32.4623C40.0864 32.4942 40.3415 32.6351 40.517 32.8542C41.4338 33.962 41.941 35.3519 41.953 36.7899C42.0062 40.8957 37.7088 44.2357 32.4329 44.2357Z" fill="#404040"/>
<path d="M19.6687 37.8536H10.0955C9.81337 37.8536 9.54281 37.7415 9.34333 37.5421C9.14385 37.3426 9.03178 37.072 9.03178 36.7899C9.03178 36.5078 9.14385 36.2373 9.34333 36.0378C9.54281 35.8383 9.81337 35.7262 10.0955 35.7262H19.6687C19.9508 35.7262 20.2213 35.8383 20.4208 36.0378C20.6203 36.2373 20.7324 36.5078 20.7324 36.7899C20.7324 37.072 20.6203 37.3426 20.4208 37.5421C20.2213 37.7415 19.9508 37.8536 19.6687 37.8536Z" fill="#404040"/>
<path d="M54.7704 37.8536H45.1972C44.9151 37.8536 44.6446 37.7415 44.4451 37.5421C44.2456 37.3426 44.1335 37.072 44.1335 36.7899C44.1335 36.5078 44.2456 36.2373 44.4451 36.0378C44.6446 35.8383 44.9151 35.7262 45.1972 35.7262H54.7704C55.0525 35.7262 55.3231 35.8383 55.5226 36.0378C55.722 36.2373 55.8341 36.5078 55.8341 36.7899C55.8341 37.072 55.722 37.3426 55.5226 37.5421C55.3231 37.7415 55.0525 37.8536 54.7704 37.8536Z" fill="#404040"/>
<path d="M32.433 51.6816C22.4662 51.6816 14.3502 45.0016 14.3502 36.7899C14.4084 34.6303 14.9717 32.5144 15.995 30.6118C17.0184 28.7092 18.4733 27.0728 20.2431 25.8339C20.3548 25.7501 20.482 25.6891 20.6173 25.6545C20.7526 25.6198 20.8934 25.6121 21.0317 25.6319C21.17 25.6516 21.303 25.6984 21.4232 25.7696C21.5434 25.8407 21.6484 25.9349 21.7322 26.0467C21.816 26.1584 21.877 26.2856 21.9117 26.4209C21.9464 26.5562 21.954 26.697 21.9343 26.8353C21.9145 26.9736 21.8677 27.1066 21.7966 27.2268C21.7254 27.347 21.6312 27.452 21.5195 27.5358C20.0027 28.5752 18.7546 29.9601 17.878 31.5764C17.0014 33.1927 16.5214 34.9942 16.4776 36.8325C16.4776 43.8741 23.6363 49.5967 32.433 49.5967C41.2297 49.5967 48.3883 43.8741 48.3883 36.8325C48.3444 35.0228 47.8782 33.2484 47.0268 31.6509C46.1754 30.0534 44.9625 28.677 43.4847 27.6316C43.281 27.4532 43.153 27.2038 43.1268 26.9343C43.1005 26.6649 43.178 26.3955 43.3435 26.1812C43.509 25.9669 43.75 25.8238 44.0173 25.781C44.2847 25.7382 44.5583 25.799 44.7824 25.9509C46.5128 27.1994 47.9308 28.8314 48.9255 30.7192C49.9201 32.6069 50.4644 34.6993 50.5157 36.8325C50.5157 44.9803 42.4104 51.6816 32.433 51.6816Z" fill="#404040"/>
</svg>
