<svg width="64" height="64" viewBox="0 0 64 64" fill="none" xmlns="http://www.w3.org/2000/svg">
<path d="M19.986 44.6977H16.2552C16.0048 44.7013 15.7614 44.6155 15.5687 44.4555C15.376 44.2956 15.2468 44.0721 15.2042 43.8254L14.8469 41.7235C13.9161 41.3633 13.0473 40.8598 12.2721 40.2312L10.3069 40.9564C10.0744 41.0414 9.81936 41.0416 9.58672 40.957C9.35409 40.8724 9.15878 40.7084 9.03523 40.4939L7.14354 37.3411C7.01849 37.1271 6.97312 36.8758 7.01542 36.6316C7.05773 36.3873 7.185 36.1659 7.37475 36.0064L8.99319 34.6613C8.82496 33.6805 8.82496 32.6783 8.99319 31.6976L7.37475 30.3524C7.185 30.1929 7.05773 29.9715 7.01542 29.7273C6.97312 29.4831 7.01849 29.2317 7.14354 29.0177L9.04574 25.7808C9.1693 25.5663 9.3646 25.4024 9.59724 25.3178C9.82987 25.2332 10.0849 25.2334 10.3174 25.3184L12.2826 26.0436C13.0579 25.4149 13.9266 24.9114 14.8574 24.5512L15.2147 22.4494C15.2573 22.2026 15.3865 21.9791 15.5792 21.8192C15.7719 21.6593 16.0153 21.5734 16.2657 21.5771H19.9965C20.2469 21.5734 20.4903 21.6593 20.683 21.8192C20.8756 21.9791 21.0049 22.2026 21.0474 22.4494L21.4048 24.5512C22.3297 24.9103 23.1917 25.414 23.9585 26.0436L25.9343 25.3184C26.1668 25.2334 26.4218 25.2332 26.6544 25.3178C26.8871 25.4024 27.0824 25.5663 27.2059 25.7808L29.0766 29.0177C29.2004 29.2329 29.2441 29.485 29.1999 29.7293C29.1556 29.9736 29.0263 30.1943 28.8349 30.3524L27.2269 31.6976C27.3952 32.6783 27.3952 33.6805 27.2269 34.6613L28.8349 36.0064C29.0263 36.1645 29.1556 36.3853 29.1999 36.6296C29.2441 36.8739 29.2004 37.126 29.0766 37.3411L27.2059 40.578C27.0824 40.7925 26.8871 40.9565 26.6544 41.0411C26.4218 41.1257 26.1668 41.1255 25.9343 41.0404L23.9585 40.3153C23.1885 40.9459 22.3229 41.4496 21.3942 41.8076L21.0369 43.9095C20.9774 44.1407 20.8408 44.3447 20.6498 44.488C20.4588 44.6313 20.2246 44.7052 19.986 44.6977V44.6977ZM17.1379 42.5958H19.1032L19.4185 40.7882C19.4515 40.595 19.5379 40.4148 19.6678 40.2681C19.7978 40.1214 19.9663 40.014 20.1541 39.958C21.2112 39.6617 22.1857 39.1258 23.0022 38.3921C23.1413 38.2642 23.3124 38.1762 23.4973 38.1373C23.6823 38.0985 23.8743 38.1102 24.0531 38.1713L25.7766 38.8019L26.7645 37.0994L25.3458 35.9224C25.1959 35.7968 25.0841 35.6319 25.0228 35.4462C24.9616 35.2606 24.9533 35.0615 24.999 34.8715C25.2653 33.7876 25.2653 32.6554 24.999 31.5715C24.9533 31.3814 24.9616 31.1824 25.0228 30.9967C25.0841 30.811 25.1959 30.6461 25.3458 30.5206L26.7645 29.3435L25.7766 27.641L24.0531 28.2715C23.8743 28.3326 23.6823 28.3444 23.4973 28.3055C23.3124 28.2667 23.1413 28.1787 23.0022 28.0508C22.197 27.2829 21.2208 26.7174 20.1541 26.4009C19.9663 26.3449 19.7978 26.2374 19.6678 26.0907C19.5379 25.944 19.4515 25.7638 19.4185 25.5706L19.1032 23.763H17.1379L16.8227 25.5706C16.7897 25.7638 16.7033 25.944 16.5733 26.0907C16.4433 26.2374 16.2749 26.3449 16.087 26.4009C15.0172 26.7174 14.0376 27.2828 13.2285 28.0508C13.0893 28.1787 12.9183 28.2667 12.7333 28.3055C12.5484 28.3444 12.3564 28.3326 12.1775 28.2715L10.454 27.641L9.46611 29.3435L10.8849 30.5206C11.0347 30.6461 11.1466 30.811 11.2078 30.9967C11.2691 31.1824 11.2773 31.3814 11.2317 31.5715C10.9654 32.6554 10.9654 33.7876 11.2317 34.8715C11.2773 35.0615 11.2691 35.2606 11.2078 35.4462C11.1466 35.6319 11.0347 35.7968 10.8849 35.9224L9.46611 37.0994L10.454 38.8019L12.1775 38.1713C12.3564 38.1102 12.5484 38.0985 12.7333 38.1373C12.9183 38.1762 13.0893 38.2642 13.2285 38.3921C14.0404 39.1563 15.0191 39.7212 16.087 40.042C16.2749 40.0981 16.4433 40.2055 16.5733 40.3522C16.7033 40.4989 16.7897 40.679 16.8227 40.8723L17.1379 42.5958Z" fill="#404040"/>
<path d="M18.1153 37.3412C17.2839 37.3412 16.4712 37.0946 15.7799 36.6327C15.0886 36.1708 14.5498 35.5143 14.2316 34.7462C13.9134 33.978 13.8302 33.1328 13.9924 32.3174C14.1546 31.5019 14.5549 30.7528 15.1429 30.1649C15.7308 29.577 16.4798 29.1767 17.2952 29.0145C18.1107 28.8522 18.9559 28.9355 19.7241 29.2537C20.4922 29.5719 21.1487 30.1107 21.6106 30.802C22.0725 31.4933 22.3191 32.306 22.3191 33.1374C22.3191 34.2523 21.8762 35.3216 21.0878 36.1099C20.2995 36.8983 19.2303 37.3412 18.1153 37.3412ZM18.1153 31.0356C17.6996 31.0356 17.2933 31.1588 16.9476 31.3898C16.602 31.6207 16.3326 31.949 16.1735 32.3331C16.0144 32.7171 15.9728 33.1398 16.0539 33.5475C16.135 33.9552 16.3351 34.3297 16.6291 34.6237C16.9231 34.9176 17.2976 35.1178 17.7053 35.1989C18.113 35.28 18.5356 35.2384 18.9197 35.0793C19.3038 34.9203 19.632 34.6508 19.863 34.3052C20.094 33.9595 20.2172 33.5532 20.2172 33.1374C20.2172 32.58 19.9958 32.0454 19.6016 31.6512C19.2074 31.257 18.6728 31.0356 18.1153 31.0356Z" fill="#404040"/>
<path d="M45.4397 45.7486H43.3379C43.0621 45.7475 42.7979 45.6381 42.6022 45.4439L41.5513 44.393C41.4528 44.2953 41.3746 44.179 41.3212 44.0509C41.2679 43.9229 41.2404 43.7855 41.2404 43.6468C41.2404 43.508 41.2679 43.3707 41.3212 43.2426C41.3746 43.1145 41.4528 42.9983 41.5513 42.9006C41.7482 42.7048 42.0145 42.595 42.2922 42.595C42.5698 42.595 42.8362 42.7048 43.0331 42.9006L43.7792 43.6468H44.9773L45.7235 42.9006C45.9204 42.7048 46.1867 42.595 46.4644 42.595C46.742 42.595 47.0084 42.7048 47.2053 42.9006C47.3038 42.9983 47.382 43.1145 47.4353 43.2426C47.4887 43.3707 47.5162 43.508 47.5162 43.6468C47.5162 43.7855 47.4887 43.9229 47.4353 44.0509C47.382 44.179 47.3038 44.2953 47.2053 44.393L46.1544 45.4439C45.9638 45.633 45.7081 45.7421 45.4397 45.7486Z" fill="#404040"/>
<path d="M47.5416 41.5449H41.236C40.9572 41.5449 40.6899 41.4342 40.4928 41.2371C40.2957 41.04 40.185 40.7727 40.185 40.494V39.443C40.1993 39.0496 40.1277 38.6578 39.9753 38.2948C39.8228 37.9318 39.5931 37.6064 39.3022 37.3412C38.2411 36.3256 37.5083 35.0158 37.1981 33.5801C36.8879 32.1445 37.0146 30.649 37.5617 29.286C38.1089 27.9229 39.0515 26.7549 40.2682 25.9322C41.4849 25.1095 42.92 24.6699 44.3888 24.6699C45.8575 24.6699 47.2926 25.1095 48.5093 25.9322C49.726 26.7549 50.6686 27.9229 51.2158 29.286C51.7629 30.649 51.8896 32.1445 51.5794 33.5801C51.2692 35.0158 50.5364 36.3256 49.4753 37.3412C49.1855 37.6073 48.9566 37.9329 48.8042 38.2956C48.6519 38.6584 48.5796 39.0498 48.5925 39.443V40.494C48.5925 40.7727 48.4818 41.04 48.2847 41.2371C48.0876 41.4342 47.8203 41.5449 47.5416 41.5449ZM42.2869 39.443H46.4906C46.4822 38.7843 46.6095 38.1309 46.8644 37.5234C47.1193 36.9159 47.4965 36.3674 47.9725 35.9119C48.744 35.1925 49.2811 34.2575 49.5139 33.2286C49.7467 32.1997 49.6644 31.1246 49.2778 30.1431C48.8912 29.1615 48.2181 28.3191 47.3461 27.7254C46.4741 27.1317 45.4437 26.8142 44.3888 26.8142C43.3339 26.8142 42.3034 27.1317 41.4314 27.7254C40.5594 28.3191 39.8863 29.1615 39.4997 30.1431C39.1131 31.1246 39.0308 32.1997 39.2636 33.2286C39.4965 34.2575 40.0336 35.1925 40.8051 35.9119C41.28 36.3682 41.6565 36.9168 41.9114 37.5241C42.1662 38.1314 42.294 38.7845 42.2869 39.443V39.443Z" fill="#404040"/>
<path d="M34.9303 33.1374H32.8284C32.5497 33.1374 32.2824 33.0267 32.0853 32.8296C31.8882 32.6325 31.7775 32.3652 31.7775 32.0865C31.7775 31.8078 31.8882 31.5405 32.0853 31.3434C32.2824 31.1463 32.5497 31.0356 32.8284 31.0356H34.9303C35.2091 31.0356 35.4764 31.1463 35.6735 31.3434C35.8705 31.5405 35.9813 31.8078 35.9813 32.0865C35.9813 32.3652 35.8705 32.6325 35.6735 32.8296C35.4764 33.0267 35.2091 33.1374 34.9303 33.1374Z" fill="#404040"/>
<path d="M36.202 28.4502C36.0179 28.4515 35.8367 28.4044 35.6765 28.3136L33.8584 27.2627C33.6159 27.1233 33.4387 26.8933 33.3658 26.6233C33.2928 26.3533 33.3302 26.0654 33.4695 25.8229C33.6089 25.5804 33.8389 25.4032 34.1089 25.3303C34.3789 25.2574 34.6668 25.2947 34.9093 25.434L36.7274 26.485C36.9299 26.5997 37.0885 26.7784 37.1785 26.993C37.2685 27.2076 37.2847 27.446 37.2246 27.6708C37.1645 27.8956 37.0315 28.0941 36.8464 28.2351C36.6613 28.3762 36.4347 28.4518 36.202 28.4502Z" fill="#404040"/>
<path d="M39.7226 24.9926C39.5374 24.9934 39.3553 24.9452 39.1948 24.8529C39.0342 24.7606 38.9009 24.6276 38.8083 24.4672L37.7573 22.6386C37.6194 22.3985 37.5818 22.1137 37.6527 21.8461C37.7235 21.5785 37.8971 21.3497 38.1357 21.2093C38.255 21.1394 38.3869 21.0937 38.524 21.0749C38.661 21.056 38.8004 21.0644 38.9341 21.0995C39.0679 21.1347 39.1934 21.1959 39.3034 21.2797C39.4135 21.3634 39.5059 21.4681 39.5755 21.5876L40.6264 23.4162C40.7184 23.5755 40.7669 23.7562 40.7672 23.9401C40.7675 24.124 40.7195 24.3048 40.628 24.4644C40.5365 24.624 40.4047 24.7568 40.2458 24.8495C40.087 24.9422 39.9065 24.9915 39.7226 24.9926V24.9926Z" fill="#404040"/>
<path d="M44.3888 23.679C44.11 23.679 43.8427 23.5683 43.6456 23.3712C43.4486 23.1741 43.3378 22.9068 43.3378 22.6281V20.5262C43.3378 20.2475 43.4486 19.9802 43.6456 19.7831C43.8427 19.586 44.11 19.4753 44.3888 19.4753C44.6675 19.4753 44.9348 19.586 45.1319 19.7831C45.329 19.9802 45.4397 20.2475 45.4397 20.5262V22.6281C45.4397 22.9068 45.329 23.1741 45.1319 23.3712C44.9348 23.5683 44.6675 23.679 44.3888 23.679Z" fill="#404040"/>
<path d="M49.118 24.9927C48.9329 24.9908 48.7517 24.94 48.5925 24.8455C48.3539 24.7052 48.1803 24.4763 48.1095 24.2087C48.0387 23.9411 48.0763 23.6563 48.2142 23.4163L49.2651 21.5877C49.4105 21.3589 49.6387 21.1952 49.902 21.1307C50.1653 21.0662 50.4433 21.106 50.6779 21.2416C50.9126 21.3773 51.0858 21.5983 51.1613 21.8587C51.2368 22.119 51.2089 22.3984 51.0832 22.6386L50.0323 24.4672C49.9397 24.6276 49.8064 24.7606 49.6458 24.8529C49.4852 24.9452 49.3032 24.9934 49.118 24.9927V24.9927Z" fill="#404040"/>
<path d="M52.5861 28.4502C52.3534 28.4518 52.1267 28.3762 51.9416 28.2351C51.7566 28.0941 51.6235 27.8956 51.5634 27.6708C51.5033 27.446 51.5195 27.2076 51.6095 26.993C51.6995 26.7784 51.8581 26.5997 52.0606 26.485L53.8787 25.434C54.1212 25.2947 54.4091 25.2574 54.6791 25.3303C54.9491 25.4032 55.1791 25.5804 55.3185 25.8229C55.4578 26.0654 55.4952 26.3533 55.4223 26.6233C55.3493 26.8933 55.1721 27.1233 54.9296 27.2627L53.1115 28.3136C52.9514 28.4044 52.7702 28.4515 52.5861 28.4502V28.4502Z" fill="#404040"/>
<path d="M34.3838 38.9596C34.1511 38.9612 33.9245 38.8856 33.7394 38.7445C33.5544 38.6035 33.4213 38.405 33.3612 38.1802C33.3011 37.9554 33.3173 37.717 33.4073 37.5024C33.4973 37.2878 33.6559 37.1091 33.8584 36.9944L35.6765 35.9434C35.7966 35.8744 35.9291 35.8297 36.0664 35.8119C36.2037 35.7941 36.3432 35.8036 36.4769 35.8397C36.6106 35.8758 36.7359 35.9379 36.8456 36.0224C36.9553 36.1069 37.0473 36.2122 37.1163 36.3323C37.1853 36.4523 37.23 36.5849 37.2478 36.7222C37.2656 36.8595 37.2562 36.999 37.22 37.1327C37.1839 37.2664 37.1219 37.3917 37.0373 37.5014C36.9528 37.6111 36.8475 37.703 36.7274 37.772L34.9093 38.823C34.7491 38.9138 34.5679 38.9609 34.3838 38.9596V38.9596Z" fill="#404040"/>
<path d="M54.4357 38.9596C54.2516 38.9609 54.0704 38.9137 53.9103 38.823L52.0921 37.772C51.8496 37.6327 51.6724 37.4027 51.5995 37.1327C51.5266 36.8627 51.5639 36.5747 51.7033 36.3322C51.8427 36.0898 52.0726 35.9126 52.3427 35.8397C52.6127 35.7668 52.9006 35.804 53.1431 35.9434L54.9612 36.9943C55.1637 37.1091 55.3223 37.2878 55.4123 37.5024C55.5023 37.717 55.5185 37.9554 55.4583 38.1802C55.3982 38.405 55.2652 38.6034 55.0802 38.7445C54.8951 38.8856 54.6684 38.9612 54.4357 38.9596Z" fill="#404040"/>
<path d="M55.9491 33.1374H53.8472C53.5685 33.1374 53.3011 33.0267 53.1041 32.8296C52.907 32.6325 52.7962 32.3652 52.7962 32.0865C52.7962 31.8078 52.907 31.5405 53.1041 31.3434C53.3011 31.1463 53.5685 31.0356 53.8472 31.0356H55.9491C56.2278 31.0356 56.4951 31.1463 56.6922 31.3434C56.8893 31.5405 57 31.8078 57 32.0865C57 32.3652 56.8893 32.6325 56.6922 32.8296C56.4951 33.0267 56.2278 33.1374 55.9491 33.1374Z" fill="#404040"/>
<path d="M25.8292 54.1561C24.203 54.1575 22.5959 53.8058 21.119 53.1254C19.642 52.445 18.3303 51.452 17.2746 50.2151C17.1704 50.1134 17.0884 49.991 17.034 49.8559C16.9795 49.7208 16.9538 49.5759 16.9583 49.4303C16.9629 49.2847 16.9977 49.1416 17.0605 49.0102C17.1233 48.8787 17.2127 48.7617 17.3231 48.6667C17.4335 48.5717 17.5624 48.5007 17.7017 48.4581C17.8411 48.4155 17.9877 48.4024 18.1324 48.4195C18.277 48.4367 18.4165 48.4837 18.5421 48.5576C18.6676 48.6315 18.7764 48.7307 18.8615 48.8489C19.9571 50.1265 21.3822 51.079 22.9818 51.6025C24.5813 52.126 26.2938 52.2005 27.9328 51.8178C29.5717 51.4352 31.0742 50.6101 32.2766 49.4324C33.479 48.2548 34.3351 46.7697 34.7517 45.1391C34.7742 44.9945 34.8268 44.8563 34.9058 44.7332C34.9849 44.6102 35.0888 44.5049 35.2109 44.4243C35.333 44.3437 35.4706 44.2895 35.6148 44.2651C35.7591 44.2407 35.9068 44.2467 36.0486 44.2827C36.1904 44.3187 36.3232 44.3839 36.4383 44.4742C36.5534 44.5644 36.6485 44.6777 36.7173 44.8068C36.7862 44.9358 36.8273 45.0779 36.8381 45.2238C36.8489 45.3697 36.8291 45.5162 36.78 45.654C36.2683 47.6627 35.2129 49.4915 33.7297 50.9395C32.2465 52.3875 30.3929 53.3986 28.3725 53.8619C27.5384 54.055 26.6853 54.1538 25.8292 54.1561V54.1561Z" fill="#FA4616"/>
<path d="M37.4 50.5934C37.1895 50.5936 36.9838 50.5307 36.8096 50.4126C36.6353 50.2946 36.5005 50.1269 36.4226 49.9313L35.1825 46.7785L32.0297 48.0082C31.786 48.053 31.5343 48.0102 31.319 47.8874C31.1038 47.7646 30.9388 47.5697 30.8533 47.3371C30.7678 47.1045 30.7673 46.8492 30.8518 46.6162C30.9363 46.3832 31.1004 46.1876 31.3151 46.0639L35.4347 44.456C35.6927 44.3559 35.9797 44.3615 36.2335 44.4717C36.4873 44.5818 36.6875 44.7877 36.7905 45.0445L38.4194 49.1537C38.4703 49.2827 38.4952 49.4205 38.4926 49.5591C38.49 49.6978 38.46 49.8345 38.4043 49.9615C38.3487 50.0885 38.2684 50.2032 38.1682 50.2991C38.0679 50.3949 37.9497 50.4699 37.8204 50.5199C37.6875 50.5754 37.5439 50.6005 37.4 50.5934Z" fill="#FA4616"/>
<path d="M25.8713 20.7784H25.7031C25.5663 20.7567 25.4352 20.7082 25.3172 20.6356C25.1992 20.563 25.0967 20.4678 25.0157 20.3555C24.9346 20.2432 24.8765 20.1159 24.8448 19.9811C24.8131 19.8463 24.8084 19.7065 24.8308 19.5699C25.1474 17.5242 26.0199 15.6047 27.3532 14.0212C28.6864 12.4377 30.4291 11.2509 32.391 10.5905C34.3528 9.93 36.4584 9.82125 38.4779 10.2761C40.4973 10.7309 42.353 11.7319 43.8423 13.1696C44.043 13.3633 44.1585 13.6289 44.1634 13.9077C44.1683 14.1866 44.0623 14.456 43.8686 14.6567C43.6748 14.8574 43.4093 14.9729 43.1305 14.9779C42.8516 14.9828 42.5822 14.8767 42.3815 14.683C41.1725 13.5107 39.6646 12.6934 38.0225 12.3204C36.3803 11.9473 34.6673 12.0328 33.0705 12.5676C31.4737 13.1024 30.0547 14.0659 28.9685 15.3527C27.8823 16.6395 27.1708 18.2002 26.9117 19.8641C26.8786 20.1167 26.7548 20.3487 26.5634 20.5169C26.372 20.6851 26.1261 20.778 25.8713 20.7784V20.7784Z" fill="#FA4616"/>
<path d="M25.8712 20.7784C25.6772 20.7778 25.487 20.7236 25.322 20.6215C25.1569 20.5195 25.0232 20.3737 24.9359 20.2004L22.9076 16.2594C22.8056 16.0145 22.8 15.7399 22.892 15.491C22.984 15.2421 23.1668 15.0373 23.4036 14.9175C23.6404 14.7978 23.9137 14.7721 24.1687 14.8456C24.4237 14.919 24.6415 15.0862 24.7783 15.3135L26.3126 18.3193L29.3288 16.7954C29.5783 16.6715 29.8668 16.6517 30.1308 16.7404C30.3949 16.829 30.6129 17.019 30.7371 17.2683C30.8617 17.5165 30.8831 17.804 30.7964 18.0678C30.7098 18.3317 30.5222 18.5506 30.2747 18.6766L26.3231 20.6628C26.184 20.7373 26.029 20.7769 25.8712 20.7784V20.7784Z" fill="#FA4616"/>
</svg>
