<svg width="64" height="64" viewBox="0 0 64 64" fill="none" xmlns="http://www.w3.org/2000/svg">
<path d="M49.7034 52.6203H9.0831C8.53062 52.6203 8.00078 52.4009 7.61012 52.0102C7.21947 51.6195 7 51.0897 7 50.5373V21.3739C7 20.8215 7.21947 20.2916 7.61012 19.9009C8.00078 19.5103 8.53062 19.2908 9.0831 19.2908H21.1234C21.675 19.2932 22.2031 19.5141 22.592 19.9053L26.1541 23.457H48.6307C49.1831 23.457 49.713 23.6765 50.1036 24.0671C50.4943 24.4578 50.7138 24.9876 50.7138 25.5401V51.5788C50.7139 51.8497 50.6084 52.11 50.4198 52.3045C50.2312 52.4989 49.9742 52.6122 49.7034 52.6203ZM21.1546 21.3739H9.0831V50.5373H48.6619V25.5401H26.1853C25.9104 25.5403 25.6382 25.4861 25.3844 25.3807C25.1306 25.2752 24.9001 25.1205 24.7063 24.9256L21.1546 21.3739Z" fill="#404040"/>
<path d="M24.4459 43.2464H22.8836C22.8836 42.3487 22.527 41.4877 21.8921 40.8528C21.2573 40.218 20.3963 39.8614 19.4986 39.8614C18.6008 39.8614 17.7398 40.218 17.105 40.8528C16.4702 41.4877 16.1135 42.3487 16.1135 43.2464H14.5512C14.5512 41.9343 15.0724 40.6759 16.0002 39.7481C16.9281 38.8203 18.1864 38.2991 19.4986 38.2991C20.8107 38.2991 22.069 38.8203 22.9969 39.7481C23.9247 40.6759 24.4459 41.9343 24.4459 43.2464V43.2464Z" fill="#FA4616"/>
<path d="M19.4986 39.8405C18.7261 39.8405 17.9709 39.6114 17.3286 39.1822C16.6863 38.7531 16.1857 38.1431 15.8901 37.4294C15.5944 36.7157 15.5171 35.9304 15.6678 35.1728C15.8185 34.4151 16.1905 33.7191 16.7367 33.1729C17.283 32.6266 17.9789 32.2547 18.7366 32.104C19.4942 31.9533 20.2795 32.0306 20.9932 32.3262C21.7069 32.6219 22.3169 33.1225 22.7461 33.7648C23.1753 34.4071 23.4044 35.1622 23.4044 35.9347C23.4044 36.9706 22.9928 37.9641 22.2604 38.6966C21.5279 39.429 20.5344 39.8405 19.4986 39.8405ZM19.4986 33.5912C19.0351 33.5912 18.582 33.7287 18.1966 33.9862C17.8112 34.2437 17.5108 34.6097 17.3335 35.0379C17.1561 35.4661 17.1097 35.9373 17.2001 36.3919C17.2905 36.8465 17.5137 37.2641 17.8415 37.5918C18.1692 37.9196 18.5868 38.1428 19.0414 38.2332C19.496 38.3236 19.9671 38.2772 20.3954 38.0998C20.8236 37.9225 21.1896 37.6221 21.4471 37.2367C21.7046 36.8513 21.842 36.3982 21.842 35.9347C21.842 35.3132 21.5951 34.7171 21.1556 34.2776C20.7162 33.8381 20.1201 33.5912 19.4986 33.5912V33.5912Z" fill="#FA4616"/>
<path d="M42.4126 32.8309H28.8725V34.914H42.4126V32.8309Z" fill="#FA4616"/>
<path d="M42.4126 36.9971H28.8725V39.0802H42.4126V36.9971Z" fill="#FA4616"/>
<path d="M38.2464 41.1633H28.8725V43.2464H38.2464V41.1633Z" fill="#FA4616"/>
<path d="M46.5788 21.3739H44.4957V14.0831H13.2493V17.2077H11.1662V13.0415C11.1662 12.7653 11.2759 12.5003 11.4713 12.305C11.6666 12.1097 11.9315 12 12.2077 12H45.5373C45.8135 12 46.0784 12.1097 46.2737 12.305C46.4691 12.5003 46.5788 12.7653 46.5788 13.0415V21.3739Z" fill="#404040"/>
<path d="M51.7866 52.6204H49.7035V50.5373H50.9221L54.7029 29.7063H51.7866V27.6232H55.9527C56.1058 27.623 56.257 27.6564 56.3956 27.7212C56.5342 27.786 56.6568 27.8806 56.7547 27.9982C56.8533 28.115 56.9248 28.2521 56.9644 28.3997C57.004 28.5473 57.0107 28.7018 56.9839 28.8522L52.8177 51.7663C52.7736 52.0071 52.6461 52.2248 52.4575 52.3809C52.269 52.5371 52.0314 52.6219 51.7866 52.6204V52.6204Z" fill="#404040"/>
</svg>
