<svg width="64" height="64" viewBox="0 0 64 64" fill="none" xmlns="http://www.w3.org/2000/svg">
<path d="M33.6571 40.5952H26.2298V38.4731H32.596V34.2289H9.2531V38.4731H19.6831V40.5952H8.19205C7.91065 40.5952 7.64077 40.4834 7.44178 40.2845C7.2428 40.0855 7.13101 39.8155 7.13101 39.5341V33.1679C7.13101 32.8865 7.2428 32.6166 7.44178 32.4176C7.64077 32.2186 7.91065 32.1068 8.19205 32.1068H33.6571C33.9385 32.1068 34.2084 32.2186 34.4073 32.4176C34.6063 32.6166 34.7181 32.8865 34.7181 33.1679V39.5341C34.7181 39.8155 34.6063 40.0855 34.4073 40.2845C34.2084 40.4834 33.9385 40.5952 33.6571 40.5952Z" fill="#404040"/>
<path d="M29.4129 55.4498H12.4362C12.1787 55.4523 11.9291 55.3612 11.7339 55.1933C11.5387 55.0254 11.4112 54.7922 11.3752 54.5373L9.25308 39.6827L11.3752 39.375L13.3593 53.3277H28.5004L30.4739 39.375L32.596 39.6827L30.4739 54.5373C30.4379 54.7922 30.3104 55.0254 30.1152 55.1933C29.92 55.3612 29.6704 55.4523 29.4129 55.4498Z" fill="#404040"/>
<path d="M22.3145 33.3907L20.1924 32.9345C21.4763 27.173 18.5054 20.9447 17.0093 19.5441L18.4205 17.9738C20.5426 19.8836 23.7575 26.8653 22.3145 33.3907Z" fill="#404040"/>
<path d="M23.6196 22.8121C22.9058 22.8127 22.1941 22.7345 21.4975 22.5787L20.8821 22.4195L20.7229 21.8042C20.7229 21.6132 19.5982 17.1249 22.5267 14.1965C25.4552 11.268 29.954 12.3397 30.1344 12.3927L30.7498 12.5519L30.909 13.1673C30.909 13.3583 32.0337 17.8465 29.1052 20.7749C28.3726 21.4627 27.51 21.9972 26.568 22.3471C25.6259 22.6969 24.6235 22.855 23.6196 22.8121ZM22.6222 20.6264C23.4904 20.8472 24.4011 20.8385 25.2649 20.6011C26.1288 20.3637 26.916 19.9058 27.5495 19.2724C28.183 18.6389 28.6409 17.8516 28.8783 16.9878C29.1156 16.124 29.1244 15.2132 28.9036 14.345C28.0354 14.1242 27.1247 14.133 26.2608 14.3704C25.397 14.6077 24.6097 15.0657 23.9763 15.6991C23.3428 16.3326 22.8849 17.1199 22.6476 17.9837C22.4102 18.8475 22.4014 19.7582 22.6222 20.6264V20.6264Z" fill="#404040"/>
<path d="M15.4814 20.0534C14.3527 20.0957 13.2268 19.914 12.1687 19.5189C11.1107 19.1237 10.1413 18.5228 9.31674 17.7509C5.99567 14.4299 7.19465 9.32624 7.27954 9.10342L7.42808 8.488L8.04349 8.3395C8.26631 8.27584 13.3487 7.04501 16.691 10.3767C20.0333 13.7084 18.8131 18.8014 18.7282 19.0136L18.5796 19.6396L17.9642 19.7881C17.149 19.968 16.3163 20.057 15.4814 20.0534V20.0534ZM9.22125 10.2812C9.06209 11.5544 8.94537 14.3768 10.8234 16.2443C12.7015 18.1117 15.5132 18.0056 16.7865 17.8464C16.9563 16.5731 17.0624 13.7508 15.1949 11.8727C13.3275 9.99468 10.4945 10.1114 9.25308 10.2812H9.22125Z" fill="#404040"/>
<path d="M21.4975 23.5231H19.3754C19.4443 22.9583 19.6311 22.4143 19.9235 21.9263C20.2159 21.4383 20.6076 21.0171 21.0731 20.69L22.3251 22.3984C21.9856 22.653 21.4975 23.1941 21.4975 23.5231Z" fill="#404040"/>
<path d="M41.0843 20.4354C40.365 20.4232 39.6553 20.2674 38.9969 19.9772C38.3386 19.687 37.7449 19.2681 37.2507 18.7453C36.7565 18.2224 36.3717 17.606 36.119 16.9324C35.8663 16.2588 35.7508 15.5414 35.7791 14.8225V13.3052C35.7791 11.8982 36.3381 10.5488 37.333 9.55387C38.3279 8.55895 39.6773 8 41.0843 8C42.4914 8 43.8408 8.55895 44.8357 9.55387C45.8306 10.5488 46.3896 11.8982 46.3896 13.3052V14.8225C46.4165 15.5411 46.2999 16.2578 46.0467 16.9308C45.7935 17.6038 45.4086 18.2196 44.9147 18.7422C44.4208 19.2647 43.8276 19.6836 43.17 19.9744C42.5123 20.2651 41.8033 20.4218 41.0843 20.4354V20.4354ZM41.0843 9.82496C40.6453 9.83983 40.2137 9.94222 39.8147 10.1261C39.4158 10.31 39.0575 10.5717 38.7611 10.8958C38.4646 11.22 38.2358 11.6001 38.0882 12.0138C37.9405 12.4275 37.877 12.8666 37.9012 13.3052V14.8225C37.9012 15.6667 38.2366 16.4764 38.8335 17.0733C39.4305 17.6703 40.2401 18.0056 41.0843 18.0056C41.9286 18.0056 42.7382 17.6703 43.3352 17.0733C43.9321 16.4764 44.2675 15.6667 44.2675 14.8225V13.3052C44.2903 12.8669 44.2257 12.4285 44.0775 12.0154C43.9293 11.6023 43.7005 11.2227 43.4043 10.8989C43.1081 10.575 42.7504 10.3133 42.3522 10.1289C41.9539 9.94458 41.5229 9.84125 41.0843 9.82496V9.82496Z" fill="#FA4616"/>
<path d="M51.6948 55.4498C51.4133 55.4498 51.1435 55.3381 50.9445 55.1391C50.7455 54.9401 50.6337 54.6702 50.6337 54.3888V50.654L43.0685 44.606C42.8567 44.4282 42.7171 44.1791 42.6759 43.9057L42.1454 39.6615C42.128 39.5222 42.1382 39.3808 42.1754 39.2454C42.2126 39.11 42.2761 38.9832 42.3624 38.8724C42.4486 38.7616 42.5558 38.6688 42.6778 38.5994C42.7999 38.53 42.9344 38.4853 43.0738 38.4678C43.2131 38.4504 43.3545 38.4607 43.4899 38.4979C43.6253 38.5351 43.7521 38.5986 43.8629 38.6849C43.9737 38.7711 44.0665 38.8782 44.1359 39.0003C44.2053 39.1224 44.25 39.2569 44.2675 39.3963L44.7449 43.216L52.3632 49.317C52.4883 49.4159 52.5894 49.5415 52.6592 49.6848C52.729 49.8281 52.7657 49.9852 52.7664 50.1446V54.3888C52.7664 54.529 52.7386 54.6679 52.6846 54.7973C52.6307 54.9267 52.5515 55.0442 52.4519 55.1429C52.3522 55.2415 52.234 55.3195 52.1041 55.3722C51.9741 55.4249 51.835 55.4512 51.6948 55.4498Z" fill="#FA4616"/>
<path d="M48.5117 55.4498C48.2303 55.4498 47.9604 55.338 47.7614 55.1391C47.5624 54.9401 47.4506 54.6701 47.4506 54.3887V53.9219L38.4105 48.3939C38.2758 48.3117 38.1612 48.2004 38.0749 48.0682C37.9886 47.936 37.9329 47.7863 37.9118 47.6299L36.8508 39.6721C36.846 39.6262 36.846 39.58 36.8508 39.5341V33.1679C36.8508 32.8865 36.9626 32.6166 37.1616 32.4176C37.3605 32.2186 37.6304 32.1068 37.9118 32.1068C38.1932 32.1068 38.4631 32.2186 38.6621 32.4176C38.8611 32.6166 38.9729 32.8865 38.9729 33.1679V39.4599L39.9597 46.8872L49.074 52.4576C49.2304 52.5529 49.3595 52.6869 49.4488 52.8468C49.538 53.0067 49.5844 53.1871 49.5833 53.3702V54.4312C49.5723 54.7071 49.4542 54.9677 49.2541 55.1579C49.054 55.3481 48.7877 55.4528 48.5117 55.4498Z" fill="#FA4616"/>
<path d="M48.5117 48.0225C48.2303 48.0225 47.9604 47.9107 47.7614 47.7117C47.5624 47.5128 47.4507 47.2428 47.4507 46.9614V28.9237C47.4515 28.7151 47.5138 28.5114 47.6298 28.3381C47.7458 28.1647 47.9103 28.0294 48.1028 27.9491C48.2952 27.8687 48.5071 27.8468 48.712 27.8862C48.9168 27.9255 49.1055 28.0244 49.2544 28.1704L51.3765 30.2925C51.5503 30.4955 51.6412 30.7565 51.6309 31.0236C51.6205 31.2906 51.5098 31.5439 51.3209 31.7329C51.1319 31.9219 50.8786 32.0326 50.6116 32.0429C50.3445 32.0532 50.0834 31.9624 49.8804 31.7885L49.5727 31.4809V46.9614C49.5727 47.2428 49.461 47.5128 49.262 47.7117C49.063 47.9107 48.7931 48.0225 48.5117 48.0225Z" fill="#FA4616"/>
<path d="M50.6338 37.4121H48.5117V35.29H50.6338C52.1404 35.29 54.7294 31.8841 54.8779 30.9928C54.2516 29.58 53.3785 28.2901 52.2996 27.1837L51.907 26.7274C51.2884 25.8197 50.4687 25.0671 49.5118 24.5279C48.5548 23.9887 47.4864 23.6775 46.3896 23.6185H40.0233C36.6598 23.6185 34.2406 24.5204 33.3388 25.4223C32.319 26.7424 31.6936 28.3242 31.535 29.9848C31.5922 30.7283 31.8055 31.4514 32.161 32.1069H39.8854C39.6791 31.4671 39.2682 30.9129 38.7161 30.5295C38.164 30.146 37.5011 29.9546 36.8296 29.9848H35.7686V27.8627H36.8296C37.5335 27.8359 38.2353 27.9548 38.8911 28.2119C39.5469 28.469 40.1425 28.8588 40.6406 29.3569C41.1387 29.855 41.5285 30.4506 41.7856 31.1064C42.0427 31.7622 42.1616 32.464 42.1348 33.1679V34.2289H30.9514L30.6331 33.7303C29.9242 32.6013 29.5051 31.3147 29.4129 29.9848C29.5661 27.7601 30.4162 25.6403 31.8427 23.9263C33.0204 22.7485 35.7898 21.4964 40.0233 21.4964H46.3896C47.7966 21.5414 49.1737 21.9139 50.4114 22.5843C51.6492 23.2548 52.7135 24.2047 53.5198 25.3586L53.8699 25.7512C54.1883 26.112 57 29.2527 57 31.0564C57 32.5949 53.6153 37.4121 50.6338 37.4121Z" fill="#FA4616"/>
<path d="M43.2065 55.4498C42.9251 55.4498 42.6552 55.338 42.4562 55.1391C42.2572 54.9401 42.1454 54.6701 42.1454 54.3887V50.1446C42.1454 49.8632 42.2572 49.5933 42.4562 49.3943C42.6552 49.1953 42.9251 49.0835 43.2065 49.0835C43.4879 49.0835 43.7578 49.1953 43.9568 49.3943C44.1557 49.5933 44.2675 49.8632 44.2675 50.1446V54.3887C44.2675 54.6701 44.1557 54.9401 43.9568 55.1391C43.7578 55.338 43.4879 55.4498 43.2065 55.4498Z" fill="#FA4616"/>
</svg>
