<svg width="64" height="64" viewBox="0 0 64 64" fill="none" xmlns="http://www.w3.org/2000/svg">
<path d="M12.7396 32.8291C11.9155 32.8291 11.1099 32.5847 10.4247 32.1269C9.73951 31.6691 9.20545 31.0183 8.89009 30.257C8.57472 29.4956 8.49223 28.6578 8.65301 27.8496C8.81378 27.0413 9.2106 26.2989 9.79331 25.7162C10.376 25.1334 11.1185 24.7366 11.9267 24.5759C12.735 24.4151 13.5727 24.4976 14.3341 24.8129C15.0955 25.1283 15.7462 25.6624 16.204 26.3476C16.6619 27.0328 16.9063 27.8384 16.9063 28.6624C16.9063 29.7675 16.4673 30.8273 15.6859 31.6087C14.9045 32.3901 13.8447 32.8291 12.7396 32.8291ZM12.7396 26.5791C12.3276 26.5791 11.9248 26.7013 11.5822 26.9302C11.2396 27.1591 10.9725 27.4845 10.8149 27.8652C10.6572 28.2459 10.6159 28.6647 10.6963 29.0689C10.7767 29.473 10.9751 29.8442 11.2665 30.1356C11.5578 30.4269 11.929 30.6254 12.3332 30.7058C12.7373 30.7861 13.1562 30.7449 13.5369 30.5872C13.9175 30.4295 14.2429 30.1625 14.4718 29.8199C14.7007 29.4773 14.8229 29.0745 14.8229 28.6624C14.8229 28.1099 14.6034 27.58 14.2127 27.1893C13.822 26.7986 13.2921 26.5791 12.7396 26.5791Z" fill="#404040"/>
<path d="M18.4583 36.9958H16.375V34.9125C16.375 33.8708 14.875 32.8291 12.7292 32.8291C10.5833 32.8291 9.08333 33.8708 9.08333 34.9125V36.9958H7V34.9125C7 32.5687 9.51042 30.7458 12.7292 30.7458C15.9479 30.7458 18.4583 32.5687 18.4583 34.9125V36.9958Z" fill="#404040"/>
<path d="M51.2813 32.8291C50.4572 32.8291 49.6516 32.5847 48.9664 32.1269C48.2812 31.6691 47.7471 31.0183 47.4317 30.257C47.1164 29.4956 47.0339 28.6578 47.1947 27.8496C47.3554 27.0413 47.7523 26.2989 48.335 25.7162C48.9177 25.1334 49.6601 24.7366 50.4684 24.5759C51.2766 24.4151 52.1144 24.4976 52.8758 24.8129C53.6371 25.1283 54.2879 25.6624 54.7457 26.3476C55.2035 27.0328 55.4479 27.8384 55.4479 28.6624C55.4479 29.7675 55.0089 30.8273 54.2275 31.6087C53.4461 32.3901 52.3863 32.8291 51.2813 32.8291ZM51.2813 26.5791C50.8692 26.5791 50.4664 26.7013 50.1238 26.9302C49.7812 27.1591 49.5142 27.4845 49.3565 27.8652C49.1988 28.2459 49.1576 28.6647 49.2379 29.0689C49.3183 29.473 49.5168 29.8442 49.8081 30.1356C50.0995 30.4269 50.4707 30.6254 50.8748 30.7058C51.279 30.7861 51.6978 30.7449 52.0785 30.5872C52.4592 30.4295 52.7846 30.1625 53.0135 29.8199C53.2424 29.4773 53.3646 29.0745 53.3646 28.6624C53.3646 28.1099 53.1451 27.58 52.7544 27.1893C52.3637 26.7986 51.8338 26.5791 51.2813 26.5791Z" fill="#404040"/>
<path d="M57 36.9958H54.9167V34.9125C54.9167 33.8708 53.4167 32.8291 51.2708 32.8291C49.125 32.8291 47.625 33.8708 47.625 34.9125V36.9958H45.5417V34.9125C45.5417 32.5687 48.0521 30.7458 51.2708 30.7458C54.4896 30.7458 57 32.5687 57 34.9125V36.9958Z" fill="#404040"/>
<path d="M48.6667 22.4125H43.4584C43.1821 22.4125 42.9171 22.3027 42.7218 22.1074C42.5264 21.912 42.4167 21.6471 42.4167 21.3708C42.4167 21.0945 42.5264 20.8296 42.7218 20.6342C42.9171 20.4389 43.1821 20.3291 43.4584 20.3291H47.625V16.1625C47.625 15.8862 47.7348 15.6213 47.9301 15.4259C48.1255 15.2306 48.3904 15.1208 48.6667 15.1208C48.943 15.1208 49.2079 15.2306 49.4033 15.4259C49.5986 15.6213 49.7084 15.8862 49.7084 16.1625V21.3708C49.7084 21.6471 49.5986 21.912 49.4033 22.1074C49.2079 22.3027 48.943 22.4125 48.6667 22.4125Z" fill="#FA4616"/>
<path d="M16.2188 21.9541L14.4479 20.8604C16.2821 17.8493 18.86 15.3607 21.9339 13.6339C25.0078 11.907 28.4743 11 32 11C35.5257 11 38.9922 11.907 42.0661 13.6339C45.1399 15.3607 47.7179 17.8493 49.5521 20.8604L47.7813 21.9541C46.134 19.2445 43.8167 17.0047 41.0527 15.4503C38.2887 13.896 35.1711 13.0795 32 13.0795C28.8289 13.0795 25.7113 13.896 22.9473 15.4503C20.1833 17.0047 17.8661 19.2445 16.2188 21.9541V21.9541Z" fill="#FA4616"/>
<path d="M15.3333 48.4541C15.0571 48.4541 14.7921 48.3444 14.5968 48.149C14.4014 47.9537 14.2917 47.6887 14.2917 47.4125V42.2041C14.2917 41.9279 14.4014 41.6629 14.5968 41.4676C14.7921 41.2722 15.0571 41.1625 15.3333 41.1625H20.5417C20.8179 41.1625 21.0829 41.2722 21.2782 41.4676C21.4736 41.6629 21.5833 41.9279 21.5833 42.2041C21.5833 42.4804 21.4736 42.7453 21.2782 42.9407C21.0829 43.136 20.8179 43.2458 20.5417 43.2458H16.375V47.4125C16.375 47.6887 16.2653 47.9537 16.0699 48.149C15.8746 48.3444 15.6096 48.4541 15.3333 48.4541Z" fill="#FA4616"/>
<path d="M32 52.6208C28.4735 52.6163 25.0072 51.7057 21.9337 49.9766C18.8602 48.2474 16.2826 45.7575 14.4479 42.7458L16.2188 41.6521C17.8641 44.3642 20.1807 46.6065 22.9449 48.1627C25.7092 49.7188 28.8278 50.5364 32 50.5364C35.1722 50.5364 38.2909 49.7188 41.0551 48.1627C43.8194 46.6065 46.1359 44.3642 47.7813 41.6521L49.5521 42.7458C47.7167 45.7568 45.1388 48.2462 42.0655 49.9752C38.9922 51.7043 35.5263 52.6153 32 52.6208Z" fill="#FA4616"/>
<path d="M34.5 43.2458H29.5C29.2592 43.2517 29.0238 43.1739 28.8339 43.0258C28.644 42.8776 28.5113 42.6683 28.4583 42.4333L27.9583 40.2458C27.5053 40.0303 27.0699 39.7795 26.6562 39.4958L24.5104 40.152C24.2845 40.221 24.0419 40.2111 23.8223 40.1241C23.6028 40.037 23.4194 39.8779 23.3021 39.6729L20.8021 35.35C20.6842 35.1466 20.6385 34.9093 20.6726 34.6766C20.7066 34.444 20.8184 34.2298 20.9896 34.0687L22.6354 32.527C22.6354 32.2666 22.6354 32.027 22.6354 31.7875C22.6354 31.5479 22.6354 31.2979 22.6354 31.0375L20.9896 29.4958C20.8184 29.3347 20.7066 29.1205 20.6726 28.8878C20.6385 28.6552 20.6842 28.4179 20.8021 28.2145L23.3021 23.8916C23.4194 23.6866 23.6028 23.5275 23.8223 23.4404C24.0419 23.3534 24.2845 23.3435 24.5104 23.4124L26.6562 24.0687C27.0699 23.785 27.5053 23.5342 27.9583 23.3187L28.4583 21.1312C28.5133 20.8981 28.6469 20.6912 28.8367 20.5451C29.0264 20.399 29.2606 20.3227 29.5 20.3291H34.5C34.7394 20.3227 34.9736 20.399 35.1634 20.5451C35.3531 20.6912 35.4867 20.8981 35.5417 21.1312L36.0521 23.3187C36.503 23.532 36.935 23.7829 37.3438 24.0687L39.5 23.4124C39.7245 23.3461 39.9647 23.3573 40.1821 23.4443C40.3994 23.5312 40.5811 23.6888 40.6979 23.8916L43.1979 28.2145C43.3158 28.4179 43.3615 28.6552 43.3275 28.8878C43.2934 29.1205 43.1817 29.3347 43.0104 29.4958L41.3646 31.0375C41.4202 31.5324 41.4202 32.0321 41.3646 32.527L43.0104 34.0687C43.1817 34.2298 43.2934 34.444 43.3275 34.6766C43.3615 34.9093 43.3158 35.1466 43.1979 35.35L40.6979 39.6729C40.5811 39.8757 40.3994 40.0333 40.1821 40.1202C39.9647 40.2072 39.7245 40.2184 39.5 40.152L37.3438 39.4958C36.9336 39.7794 36.5017 40.0302 36.0521 40.2458L35.5417 42.4333C35.4888 42.6683 35.356 42.8776 35.1661 43.0258C34.9762 43.1739 34.7408 43.2517 34.5 43.2458ZM30.3334 41.1625H33.6771L34.1146 39.2666C34.1526 39.1038 34.2293 38.9526 34.3381 38.8257C34.4468 38.6988 34.5845 38.5999 34.7396 38.5375C35.3684 38.2731 35.9574 37.9225 36.4896 37.4958C36.6216 37.3921 36.7768 37.3218 36.9418 37.291C37.1069 37.2601 37.2769 37.2696 37.4375 37.3187L39.2917 37.8916L40.9583 34.9958L39.5417 33.6624C39.419 33.5485 39.3255 33.4066 39.2693 33.2488C39.2131 33.0911 39.1958 32.9221 39.2188 32.7562C39.3299 32.0907 39.3299 31.4113 39.2188 30.7458C39.1958 30.5799 39.2131 30.4109 39.2693 30.2532C39.3255 30.0954 39.419 29.9535 39.5417 29.8395L40.9583 28.5166L39.2917 25.6208L37.4375 26.1833C37.2769 26.2324 37.1069 26.2419 36.9418 26.211C36.7768 26.1802 36.6216 26.1099 36.4896 26.0062C35.9574 25.5795 35.3684 25.2289 34.7396 24.9646C34.5845 24.9021 34.4468 24.8032 34.3381 24.6763C34.2293 24.5494 34.1526 24.3981 34.1146 24.2354L33.6771 22.35H30.3334L29.8958 24.2354C29.8578 24.3981 29.7812 24.5494 29.6724 24.6763C29.5636 24.8032 29.4259 24.9021 29.2708 24.9646C28.6453 25.2291 28.0598 25.5797 27.5313 26.0062C27.3992 26.1099 27.2441 26.1802 27.079 26.211C26.914 26.2419 26.7439 26.2324 26.5834 26.1833L24.7292 25.6208L23.0521 28.5166L24.4792 29.8395C24.6 29.9545 24.6915 30.0969 24.7459 30.2546C24.8003 30.4123 24.816 30.5807 24.7917 30.7458C24.6945 31.4124 24.6945 32.0896 24.7917 32.7562C24.816 32.9212 24.8003 33.0897 24.7459 33.2474C24.6915 33.4051 24.6 33.5474 24.4792 33.6624L23.0521 34.9958L24.7292 37.8916L26.5834 37.3187C26.7439 37.2696 26.914 37.2601 27.079 37.291C27.2441 37.3218 27.3992 37.3921 27.5313 37.4958C28.0598 37.9223 28.6453 38.273 29.2708 38.5375C29.4259 38.5999 29.5636 38.6988 29.6724 38.8257C29.7812 38.9526 29.8578 39.1038 29.8958 39.2666L30.3334 41.1625Z" fill="#404040"/>
<path d="M32 35.9541C31.1759 35.9541 30.3703 35.7097 29.6851 35.2519C28.9999 34.7941 28.4659 34.1433 28.1505 33.382C27.8352 32.6206 27.7526 31.7828 27.9134 30.9746C28.0742 30.1663 28.471 29.4239 29.0537 28.8412C29.6364 28.2584 30.3789 27.8616 31.1871 27.7009C31.9954 27.5401 32.8331 27.6226 33.5945 27.9379C34.3559 28.2533 35.0066 28.7874 35.4645 29.4726C35.9223 30.1578 36.1667 30.9634 36.1667 31.7874C36.1667 32.8925 35.7277 33.9523 34.9463 34.7337C34.1649 35.5151 33.1051 35.9541 32 35.9541ZM32 29.7041C31.588 29.7041 31.1852 29.8263 30.8426 30.0552C30.4999 30.2841 30.2329 30.6095 30.0753 30.9902C29.9176 31.3709 29.8763 31.7897 29.9567 32.1939C30.0371 32.598 30.2355 32.9692 30.5269 33.2606C30.8182 33.5519 31.1894 33.7504 31.5936 33.8308C31.9977 33.9111 32.4166 33.8699 32.7973 33.7122C33.1779 33.5545 33.5033 33.2875 33.7322 32.9449C33.9612 32.6023 34.0833 32.1995 34.0833 31.7874C34.0833 31.2349 33.8638 30.705 33.4731 30.3143C33.0824 29.9236 32.5525 29.7041 32 29.7041Z" fill="#404040"/>
</svg>
