<svg width="64" height="64" viewBox="0 0 64 64" fill="none" xmlns="http://www.w3.org/2000/svg">
<path d="M28.4086 43.3947H10.2113C9.64351 43.3947 9.099 43.1691 8.69751 42.7676C8.29602 42.3661 8.07043 41.8216 8.07043 41.2538V26.7066C8.07043 26.4228 8.18323 26.1505 8.38397 25.9498C8.58472 25.749 8.85697 25.6362 9.14087 25.6362C9.42476 25.6362 9.69705 25.749 9.89779 25.9498C10.0985 26.1505 10.2113 26.4228 10.2113 26.7066V41.2538H28.4086C28.6925 41.2538 28.9648 41.3666 29.1656 41.5673C29.3663 41.7681 29.4791 42.0403 29.4791 42.3242C29.4791 42.6081 29.3663 42.8804 29.1656 43.0812C28.9648 43.2819 28.6925 43.3947 28.4086 43.3947V43.3947Z" fill="#404040"/>
<path d="M45.5355 43.3947H35.9016C35.6177 43.3947 35.3455 43.2819 35.1447 43.0812C34.944 42.8804 34.8312 42.6081 34.8312 42.3242C34.8312 42.0403 34.944 41.7681 35.1447 41.5673C35.3455 41.3666 35.6177 41.2538 35.9016 41.2538H45.5355V31.6199C45.5355 31.336 45.6483 31.0638 45.8491 30.863C46.0498 30.6623 46.3221 30.5495 46.606 30.5495C46.8898 30.5495 47.1621 30.6623 47.3629 30.863C47.5636 31.0638 47.6764 31.336 47.6764 31.6199V41.2538C47.6764 41.8216 47.4508 42.3661 47.0493 42.7676C46.6479 43.1691 46.1033 43.3947 45.5355 43.3947Z" fill="#404040"/>
<path d="M28.4086 33.7608H26.2678C25.7 33.7608 25.1555 33.5352 24.754 33.1337C24.3525 32.7323 24.1269 32.1877 24.1269 31.6199V28.4086C24.1269 28.1247 24.2397 27.8525 24.4404 27.6517C24.6412 27.451 24.9134 27.3382 25.1973 27.3382C25.4812 27.3382 25.7535 27.451 25.9542 27.6517C26.155 27.8525 26.2678 28.1247 26.2678 28.4086V31.6199H28.4086C28.6925 31.6199 28.9648 31.7327 29.1655 31.9335C29.3663 32.1342 29.479 32.4065 29.479 32.6904C29.479 32.9742 29.3663 33.2465 29.1655 33.4473C28.9648 33.648 28.6925 33.7608 28.4086 33.7608Z" fill="#404040"/>
<path d="M33.7608 13.4226H31.6199V10.2113C31.6199 9.9274 31.5071 9.65515 31.3064 9.4544C31.1057 9.25366 30.8334 9.14086 30.5495 9.14086H25.1973C24.9134 9.14086 24.6412 9.25366 24.4404 9.4544C24.2397 9.65515 24.1269 9.9274 24.1269 10.2113V13.4226H21.986V10.2113C21.986 9.35961 22.3244 8.54281 22.9266 7.94058C23.5288 7.33835 24.3456 7 25.1973 7H30.5495C31.4012 7 32.218 7.33835 32.8202 7.94058C33.4225 8.54281 33.7608 9.35961 33.7608 10.2113V13.4226Z" fill="#404040"/>
<path d="M25.1973 29.4791H13.4226C9.34424 29.4791 7 27.1348 7 23.0565V14.493C7 13.9252 7.22559 13.3807 7.62708 12.9792C8.02856 12.5777 8.57307 12.3522 9.14086 12.3522H46.606C47.1738 12.3522 47.7183 12.5777 48.1198 12.9792C48.5213 13.3807 48.7468 13.9252 48.7468 14.493V24.1269C48.7468 24.4108 48.6341 24.6831 48.4333 24.8838C48.2326 25.0846 47.9603 25.1973 47.6764 25.1973C47.3925 25.1973 47.1202 25.0846 46.9195 24.8838C46.7188 24.6831 46.606 24.4108 46.606 24.1269V14.493H9.14086V23.0565C9.14086 25.9787 10.5003 27.3382 13.4226 27.3382H24.812L25.5613 26.5782C25.6613 26.479 25.7799 26.4005 25.9104 26.3472C26.0408 26.294 26.1804 26.267 26.3213 26.2678H32.7439C33.0278 26.2678 33.3 26.3806 33.5008 26.5813C33.7015 26.782 33.8143 27.0543 33.8143 27.3382C33.8143 27.6221 33.7015 27.8944 33.5008 28.0951C33.3 28.2959 33.0278 28.4086 32.7439 28.4086H26.7709L26.0109 29.1579C25.9055 29.2657 25.7786 29.3501 25.6384 29.4054C25.4982 29.4607 25.3479 29.4858 25.1973 29.4791Z" fill="#404040"/>
<path d="M43.3947 51.9581C40.8541 51.9581 38.3707 51.2048 36.2583 49.7933C34.1459 48.3819 32.4995 46.3757 31.5273 44.0286C30.5551 41.6814 30.3007 39.0987 30.7963 36.607C31.292 34.1153 32.5153 31.8265 34.3118 30.03C36.1082 28.2336 38.397 27.0102 40.8887 26.5146C43.3804 26.019 45.9632 26.2733 48.3103 27.2455C50.6575 28.2178 52.6636 29.8642 54.0751 31.9765C55.4865 34.0889 56.2398 36.5724 56.2398 39.1129C56.2398 42.5197 54.8865 45.7869 52.4776 48.1959C50.0687 50.6048 46.8014 51.9581 43.3947 51.9581ZM43.3947 28.4086C41.2776 28.4086 39.208 29.0364 37.4477 30.2127C35.6874 31.3889 34.3154 33.0606 33.5052 35.0166C32.695 36.9725 32.483 39.1248 32.8961 41.2013C33.3091 43.2777 34.3286 45.185 35.8256 46.682C37.3226 48.1791 39.2299 49.1985 41.3064 49.6116C43.3828 50.0246 45.5351 49.8126 47.491 49.0024C49.447 48.1922 51.1188 46.8203 52.295 45.06C53.4712 43.2996 54.099 41.23 54.099 39.1129C54.099 36.274 52.9712 33.5513 50.9638 31.5439C48.9563 29.5364 46.2336 28.4086 43.3947 28.4086V28.4086Z" fill="#FA4616"/>
<path d="M34.3182 46.6833L25.5154 55.4862L27.0292 57L35.832 48.1971L34.3182 46.6833Z" fill="#FA4616"/>
</svg>
