<svg width="64" height="64" viewBox="0 0 64 64" fill="none" xmlns="http://www.w3.org/2000/svg">
<path d="M16.375 37.2083C15.6692 37.195 14.9731 37.0411 14.3275 36.7557C13.6818 36.4703 13.0995 36.059 12.6146 35.546C12.1297 35.033 11.7519 34.4284 11.5033 33.7677C11.2547 33.107 11.1402 32.4034 11.1667 31.6979V30.2083C11.1667 28.827 11.7154 27.5022 12.6922 26.5255C13.6689 25.5487 14.9937 25 16.375 25C17.7563 25 19.0811 25.5487 20.0579 26.5255C21.0346 27.5022 21.5833 28.827 21.5833 30.2083V31.6875C21.6126 32.3942 21.5002 33.0995 21.2528 33.7621C21.0053 34.4246 20.6278 35.031 20.1425 35.5454C19.6572 36.0599 19.0738 36.472 18.4268 36.7576C17.7798 37.0432 17.0821 37.1964 16.375 37.2083ZM16.375 26.7917C15.9444 26.8077 15.5214 26.9091 15.1303 27.0901C14.7393 27.2711 14.3882 27.5281 14.0974 27.846C13.8066 28.1639 13.582 28.5365 13.4365 28.9421C13.291 29.3476 13.2276 29.7781 13.25 30.2083V31.6875C13.25 32.5163 13.5792 33.3112 14.1653 33.8972C14.7513 34.4833 15.5462 34.8125 16.375 34.8125C17.2038 34.8125 17.9987 34.4833 18.5847 33.8972C19.1708 33.3112 19.5 32.5163 19.5 31.6875V30.1979C19.521 29.7685 19.4565 29.3392 19.3104 28.9348C19.1643 28.5305 18.9394 28.1591 18.6487 27.8423C18.3581 27.5255 18.0074 27.2695 17.6172 27.0892C17.2269 26.9088 16.8046 26.8077 16.375 26.7917V26.7917Z" fill="#404040"/>
<path d="M30.9896 41.375C30.7564 41.3761 30.5245 41.341 30.3021 41.2709C29.8864 41.1329 29.5247 40.8674 29.2685 40.5121C29.0123 40.1567 28.8746 39.7297 28.875 39.2917V36.1667H27.8333C26.7283 36.1667 25.6685 35.7277 24.8871 34.9463C24.1057 34.1649 23.6667 33.1051 23.6667 32V11.1667C23.6667 10.0616 24.1057 9.00179 24.8871 8.22039C25.6685 7.43898 26.7283 7 27.8333 7H52.8333C53.9384 7 54.9982 7.43898 55.7796 8.22039C56.561 9.00179 57 10.0616 57 11.1667V30.9583C57 32.3397 56.4513 33.6644 55.4745 34.6412C54.4978 35.618 53.173 36.1667 51.7917 36.1667H36.625L32.5625 40.6146C32.3771 40.8545 32.1385 41.048 31.8656 41.1799C31.5926 41.3119 31.2928 41.3787 30.9896 41.375V41.375ZM27.8646 9.08333C27.3121 9.08333 26.7822 9.30283 26.3915 9.69353C26.0008 10.0842 25.7813 10.6141 25.7813 11.1667V32C25.7813 32.5525 26.0008 33.0824 26.3915 33.4731C26.7822 33.8638 27.3121 34.0833 27.8646 34.0833H29.9479C30.2242 34.0833 30.4891 34.1931 30.6845 34.3884C30.8798 34.5838 30.9896 34.8487 30.9896 35.125V39.2917L35.4271 34.4167C35.5254 34.3107 35.6447 34.2263 35.7774 34.1689C35.9101 34.1115 36.0534 34.0824 36.1979 34.0833H51.8229C52.6517 34.0833 53.4466 33.7541 54.0326 33.1681C54.6187 32.582 54.9479 31.7871 54.9479 30.9583V11.1667C54.9479 10.6141 54.7284 10.0842 54.3377 9.69353C53.947 9.30283 53.4171 9.08333 52.8646 9.08333H27.8646Z" fill="#404040"/>
<path d="M16.3854 54.4271C16.3129 54.4373 16.2392 54.4373 16.1667 54.4271L12.6563 53.7084C11.9757 53.637 11.3232 53.3992 10.7564 53.0159C10.1895 52.6325 9.72587 52.1155 9.40628 51.5104C9.40628 51.5104 9.35418 51.4167 9.32293 51.3646L8.43751 49.4063C8.27084 49.0313 8.10418 48.6979 7.95835 48.3646C7.36812 47.3612 7.03863 46.226 7 45.0625C7 41.6667 8.81253 38.2292 12.8542 38.2292H18.8542C20.9375 38.3125 22.4896 38.6875 23.8229 40.3125L25.8542 42.7709C25.9417 42.8762 26.0077 42.9977 26.0482 43.1286C26.0888 43.2594 26.1032 43.3969 26.0907 43.5333C26.0781 43.6696 26.0388 43.8022 25.975 43.9234C25.9112 44.0446 25.8241 44.152 25.7188 44.2396C25.6134 44.3271 25.4919 44.3931 25.3611 44.4337C25.2302 44.4742 25.0927 44.4886 24.9564 44.4761C24.82 44.4635 24.6874 44.4242 24.5662 44.3604C24.445 44.2966 24.3376 44.2095 24.25 44.1042L22.25 41.6354C21.4792 40.7083 20.6875 40.4063 18.8438 40.3333H12.875C10.0938 40.3333 9.10419 42.8958 9.10419 45.0833C9.14443 45.9298 9.40279 46.7515 9.85419 47.4688C10.0104 47.7813 10.1771 48.125 10.3542 48.5104L11.2083 50.3958C11.9375 51.4375 12.3542 51.5313 13.0313 51.625L16.6042 52.3542C16.7382 52.3815 16.8656 52.435 16.979 52.5116C17.0924 52.5881 17.1896 52.6863 17.2651 52.8004C17.3405 52.9146 17.3928 53.0425 17.4188 53.1768C17.4448 53.3112 17.4441 53.4493 17.4167 53.5833C17.3704 53.8223 17.242 54.0376 17.0536 54.1917C16.8652 54.3458 16.6288 54.4291 16.3854 54.4271V54.4271Z" fill="#404040"/>
<path d="M18.0833 50.6875C17.9627 50.6862 17.843 50.6651 17.7292 50.625L15.3125 49.7604C14.7771 49.599 14.287 49.3142 13.8817 48.9288C13.4765 48.5434 13.1673 48.0683 12.9792 47.5417L12.0417 45.1875C11.9381 44.9306 11.9408 44.643 12.0492 44.3881C12.1576 44.1332 12.3629 43.9317 12.6198 43.8281C12.8767 43.7245 13.1643 43.7273 13.4192 43.8357C13.6741 43.9441 13.8756 44.1493 13.9792 44.4063L14.9167 46.7604C14.9904 47.0171 15.1319 47.2492 15.3261 47.4325C15.5204 47.6157 15.7603 47.7434 16.0208 47.8021L18.4271 48.6667C18.6565 48.7499 18.8494 48.911 18.9721 49.1219C19.0949 49.3327 19.1397 49.58 19.0988 49.8206C19.0579 50.0611 18.9338 50.2797 18.7482 50.4381C18.5626 50.5966 18.3273 50.6848 18.0833 50.6875V50.6875Z" fill="#404040"/>
<path d="M27.3646 52.8333H23.6771C23.4147 52.8342 23.1616 52.736 22.9685 52.5583C22.7754 52.3806 22.6564 52.1366 22.6354 51.875C22.6152 50.907 22.8157 49.947 23.2218 49.0681C23.6279 48.1891 24.2289 47.4142 24.9792 46.8021C25.1638 46.6588 25.3913 46.5817 25.625 46.5833H28.9271C29.2646 46.5845 29.5964 46.6711 29.8915 46.835C30.1865 46.9989 30.4353 47.2349 30.6146 47.5208C30.8185 47.8255 30.9383 48.1785 30.9621 48.5443C30.9859 48.9101 30.9127 49.2757 30.75 49.6042L30.0417 51.1146C29.8015 51.6232 29.4231 52.0541 28.9497 52.358C28.4764 52.662 27.9271 52.8266 27.3646 52.8333V52.8333ZM24.8021 50.75H27.3646C27.537 50.7438 27.704 50.6886 27.8461 50.5908C27.9882 50.493 28.0994 50.3567 28.1667 50.1979L28.875 48.6875H26.0313C25.4471 49.2548 25.0231 49.9663 24.8021 50.75V50.75Z" fill="#404040"/>
<path d="M24.3334 55.9583H17.0417C16.7035 55.9545 16.3719 55.8651 16.0777 55.6983C15.7835 55.5315 15.5364 55.2928 15.3595 55.0046C15.1827 54.7164 15.0817 54.388 15.0662 54.0502C15.0507 53.7124 15.1211 53.3761 15.2708 53.0729L19.9688 43.5104C20.1293 43.177 20.3806 42.8956 20.6939 42.6984C21.0071 42.5013 21.3695 42.3964 21.7396 42.3958H29.0313C29.368 42.3938 29.6995 42.4791 29.9935 42.6435C30.2874 42.8078 30.5337 43.0454 30.7084 43.3333C30.8889 43.623 30.9923 43.9542 31.0087 44.2951C31.0251 44.6361 30.954 44.9756 30.8021 45.2813L29.4375 48.0833L27.5625 47.1667L28.875 44.4792H21.8021L17.1875 53.8542H24.2604L25.5105 51.3125L27.3854 52.2292L26.1042 54.8229C25.9476 55.161 25.6979 55.4475 25.3842 55.6486C25.0705 55.8497 24.706 55.9572 24.3334 55.9583V55.9583Z" fill="#404040"/>
<path d="M13.25 52.5417H11.1667V57H13.25V52.5417Z" fill="#404040"/>
<path d="M23.6667 54.9167H21.5833V57H23.6667V54.9167Z" fill="#404040"/>
<path d="M40.3333 29.9167C38.6852 29.9167 37.074 29.4279 35.7036 28.5123C34.3332 27.5966 33.2651 26.2951 32.6344 24.7724C32.0036 23.2497 31.8386 21.5741 32.1602 19.9576C32.4817 18.3411 33.2754 16.8562 34.4408 15.6908C35.6062 14.5254 37.0911 13.7317 38.7076 13.4101C40.3241 13.0886 41.9997 13.2536 43.5224 13.8844C45.0451 14.5151 46.3466 15.5832 47.2623 16.9536C48.1779 18.324 48.6667 19.9352 48.6667 21.5833C48.6667 23.7935 47.7887 25.9131 46.2259 27.4759C44.6631 29.0387 42.5435 29.9167 40.3333 29.9167ZM40.3333 15.3333C39.0972 15.3333 37.8889 15.6999 36.861 16.3867C35.8332 17.0734 35.0321 18.0495 34.5591 19.1916C34.086 20.3336 33.9623 21.5903 34.2034 22.8027C34.4446 24.0151 35.0399 25.1287 35.914 26.0028C36.788 26.8768 37.9017 27.4721 39.114 27.7133C40.3264 27.9544 41.5831 27.8307 42.7251 27.3576C43.8672 26.8846 44.8433 26.0835 45.53 25.0557C46.2168 24.0279 46.5833 22.8195 46.5833 21.5833C46.5833 19.9257 45.9249 18.336 44.7528 17.1639C43.5807 15.9918 41.9909 15.3333 40.3333 15.3333V15.3333Z" fill="#FA4616"/>
<path d="M41.375 11.1667H39.2917V17.4167H41.375V11.1667Z" fill="#FA4616"/>
<path d="M41.375 25.75H39.2917V32H41.375V25.75Z" fill="#FA4616"/>
<path d="M50.75 20.5417H44.5V22.625H50.75V20.5417Z" fill="#FA4616"/>
<path d="M36.1667 20.5417H29.9167V22.625H36.1667V20.5417Z" fill="#FA4616"/>
<path d="M41.375 20.5417H39.2917V22.625H41.375V20.5417Z" fill="#FA4616"/>
</svg>
