<svg width="64" height="64" viewBox="0 0 64 64" fill="none" xmlns="http://www.w3.org/2000/svg">
<path d="M24.634 21.5629C23.9434 21.5861 23.2553 21.4672 22.6126 21.2135C21.9698 20.9598 21.386 20.5768 20.8974 20.0882C20.4087 19.5996 20.0257 19.0158 19.772 18.373C19.5184 17.7302 19.3994 17.0421 19.4227 16.3515V14.267C19.4227 12.8848 19.9717 11.5593 20.949 10.582C21.9264 9.60468 23.2519 9.05563 24.634 9.05563C26.0162 9.05563 27.3417 9.60468 28.319 10.582C29.2963 11.5593 29.8454 12.8848 29.8454 14.267V16.3515C29.8702 17.0425 29.7523 17.7313 29.4992 18.3748C29.2461 19.0182 28.8631 19.6027 28.3741 20.0916C27.8852 20.5806 27.3008 20.9636 26.6573 21.2167C26.0138 21.4698 25.3251 21.5876 24.634 21.5629V21.5629ZM24.634 11.1402C24.2171 11.1159 23.7997 11.1802 23.4094 11.3288C23.019 11.4773 22.6645 11.7068 22.3692 12.0022C22.0739 12.2975 21.8444 12.652 21.6958 13.0423C21.5473 13.4327 21.483 13.85 21.5072 14.267V16.3515C21.5072 17.1808 21.8367 17.9761 22.423 18.5625C23.0094 19.1489 23.8048 19.4783 24.634 19.4783C25.4633 19.4783 26.2586 19.1489 26.845 18.5625C27.4314 17.9761 27.7608 17.1808 27.7608 16.3515V14.267C27.7868 13.8496 27.7236 13.4315 27.5757 13.0404C27.4277 12.6493 27.1983 12.2941 26.9026 11.9984C26.6069 11.7027 26.2517 11.4733 25.8606 11.3253C25.4695 11.1774 25.0514 11.1142 24.634 11.1402V11.1402Z" fill="#404040"/>
<path d="M20.465 30.9433H18.3804V41.366H20.465V30.9433Z" fill="#404040"/>
<path d="M20.465 50.7464H18.3804V57H20.465V50.7464Z" fill="#404040"/>
<path d="M26.7186 41.366H24.634V57H26.7186V41.366Z" fill="#404040"/>
<path d="M21.5072 51.7886H10.0423C9.76584 51.7886 9.50074 51.6788 9.30527 51.4834C9.10981 51.2879 9 51.0228 9 50.7464V41.3659C9 41.0895 9.10981 40.8244 9.30527 40.6289C9.50074 40.4335 9.76584 40.3237 10.0423 40.3237H21.5072C21.7837 40.3237 22.0488 40.4335 22.2442 40.6289C22.4397 40.8244 22.5495 41.0895 22.5495 41.3659V50.7464C22.5495 51.0228 22.4397 51.2879 22.2442 51.4834C22.0488 51.6788 21.7837 51.7886 21.5072 51.7886ZM11.0845 49.7041H20.465V42.4082H11.0845V49.7041Z" fill="#404040"/>
<path d="M30.8876 42.4082H29.8454V40.3237H30.8876C32.7012 40.3237 32.9722 38.3642 32.9722 37.1969V29.901C32.9722 26.5345 30.7522 24.6896 26.7186 24.6896H22.5495C18.5159 24.6896 16.2959 26.5345 16.2959 29.901V41.366H14.2113V29.901C14.2113 25.3358 17.3381 22.6051 22.5495 22.6051H26.7186C31.9299 22.6051 35.0567 25.3358 35.0567 29.901V37.1969C35.0567 40.4071 33.4621 42.4082 30.8876 42.4082Z" fill="#404040"/>
<path d="M30.8877 29.901H28.8031V57H30.8877V29.901Z" fill="#404040"/>
<path d="M39.2258 27.8164H37.1413V18.436H35.0568C34.8682 18.4355 34.6833 18.3839 34.5218 18.2866C34.3603 18.1893 34.2282 18.05 34.1396 17.8836C34.0559 17.7206 34.0166 17.5385 34.0258 17.3555C34.0349 17.1725 34.0921 16.9952 34.1917 16.8414L40.4453 7.46092C40.5406 7.31905 40.6694 7.2028 40.8203 7.12242C40.9711 7.04204 41.1394 7 41.3104 7C41.4813 7 41.6496 7.04204 41.8005 7.12242C41.9513 7.2028 42.0801 7.31905 42.1755 7.46092L48.4291 16.8414C48.5351 16.9982 48.5964 17.181 48.6064 17.3701C48.6164 17.5592 48.5746 17.7474 48.4857 17.9146C48.3968 18.0817 48.264 18.2215 48.1016 18.3189C47.9392 18.4163 47.7533 18.4676 47.564 18.4673H45.4795V21.5941H43.3949V17.425C43.3949 17.1486 43.5047 16.8835 43.7002 16.688C43.8956 16.4926 44.1608 16.3827 44.4372 16.3827H45.615L41.3104 9.92068L37.0058 16.3827H38.1836C38.46 16.3827 38.7251 16.4926 38.9206 16.688C39.116 16.8835 39.2258 17.1486 39.2258 17.425V27.8164Z" fill="#404040"/>
<path d="M51.7331 45.535H49.6485V34.0701C49.6485 33.7937 49.7583 33.5285 49.9538 33.3331C50.1492 33.1376 50.4144 33.0278 50.6908 33.0278H51.8686L47.564 26.5657L43.2594 33.0278H44.4372C44.7136 33.0278 44.9787 33.1376 45.1742 33.3331C45.3696 33.5285 45.4794 33.7937 45.4794 34.0701V38.2392H43.3949V35.1124H41.3104C41.1218 35.1118 40.9369 35.0602 40.7754 34.9629C40.6139 34.8657 40.4818 34.7264 40.3932 34.56C40.3095 34.397 40.2702 34.2148 40.2794 34.0318C40.2885 33.8489 40.3457 33.6715 40.4453 33.5177L46.6989 24.1373C46.7942 23.9954 46.923 23.8791 47.0739 23.7987C47.2247 23.7184 47.393 23.6763 47.564 23.6763C47.7349 23.6763 47.9032 23.7184 48.0541 23.7987C48.2049 23.8791 48.3337 23.9954 48.4291 24.1373L54.6827 33.5177C54.7887 33.6746 54.85 33.8573 54.86 34.0464C54.87 34.2355 54.8282 34.4238 54.7393 34.5909C54.6504 34.7581 54.5176 34.8979 54.3552 34.9952C54.1928 35.0926 54.0069 35.1439 53.8176 35.1436H51.7331V45.535Z" fill="#FA4616"/>
<path d="M38.1835 57H36.099V49.7041H34.0145C33.8259 49.7036 33.641 49.652 33.4795 49.5547C33.318 49.4574 33.1859 49.3181 33.0973 49.1517C33.0136 48.9887 32.9743 48.8066 32.9835 48.6236C32.9926 48.4406 33.0498 48.2633 33.1494 48.1094L39.403 38.729C39.4983 38.5871 39.6271 38.4709 39.778 38.3905C39.9288 38.3101 40.0971 38.2681 40.2681 38.2681C40.439 38.2681 40.6073 38.3101 40.7582 38.3905C40.909 38.4709 41.0378 38.5871 41.1332 38.729L47.3868 48.1094C47.4928 48.2663 47.5541 48.4491 47.5641 48.6382C47.5741 48.8273 47.5323 49.0155 47.4434 49.1827C47.3545 49.3498 47.2217 49.4896 47.0593 49.587C46.8969 49.6844 46.711 49.7357 46.5217 49.7354H44.4372V52.8622H42.3526V48.6931C42.3526 48.4167 42.4624 48.1516 42.6579 47.9561C42.8534 47.7607 43.1185 47.6508 43.3949 47.6508H44.5727L40.2681 41.1888L35.9635 47.6508H37.1413C37.4177 47.6508 37.6828 47.7607 37.8783 47.9561C38.0737 48.1516 38.1835 48.4167 38.1835 48.6931V57Z" fill="#404040"/>
</svg>
