<svg width="64" height="64" viewBox="0 0 64 64" fill="none" xmlns="http://www.w3.org/2000/svg">
<path d="M40.1836 46.6063C37.8548 46.6063 35.5783 45.9157 33.6419 44.6218C31.7055 43.328 30.1963 41.489 29.3051 39.3374C28.4139 37.1859 28.1807 34.8184 28.6351 32.5343C29.0894 30.2502 30.2108 28.1521 31.8576 26.5054C33.5043 24.8586 35.6024 23.7372 37.8865 23.2829C40.1706 22.8285 42.5381 23.0617 44.6897 23.9529C46.8412 24.8441 48.6802 26.3533 49.9741 28.2897C51.2679 30.2261 51.9585 32.5026 51.9585 34.8315C51.9585 37.9543 50.7179 40.9493 48.5097 43.1575C46.3015 45.3657 43.3065 46.6063 40.1836 46.6063ZM40.1836 25.1975C38.2782 25.1975 36.4156 25.7625 34.8313 26.8211C33.247 27.8796 32.0122 29.3843 31.283 31.1447C30.5539 32.9051 30.3631 34.8421 30.7348 36.7109C31.1065 38.5797 32.0241 40.2963 33.3714 41.6437C34.7187 42.991 36.4353 43.9085 38.3041 44.2803C40.173 44.652 42.11 44.4612 43.8704 43.732C45.6308 43.0029 47.1354 41.7681 48.194 40.1838C49.2526 38.5995 49.8176 36.7369 49.8176 34.8315C49.8176 32.2764 48.8026 29.8259 46.9959 28.0192C45.1892 26.2125 42.7387 25.1975 40.1836 25.1975Z" fill="#FA4616"/>
<path d="M49.0297 41.085L47.5159 42.5988L55.4862 50.5691L57 49.0553L49.0297 41.085Z" fill="#FA4616"/>
<path d="M41.2541 56.2402H8.07044C7.78654 56.2402 7.51427 56.1274 7.31353 55.9267C7.11278 55.726 7 55.4537 7 55.1698V8.07044C7 7.78654 7.11278 7.51422 7.31353 7.31347C7.51427 7.11273 7.78654 7 8.07044 7H41.2541C41.538 7 41.8102 7.11273 42.011 7.31347C42.2117 7.51422 42.3245 7.78654 42.3245 8.07044V19.5027C42.3245 19.7866 42.2117 20.0589 42.011 20.2596C41.8102 20.4604 41.538 20.5732 41.2541 20.5732C40.9702 20.5732 40.6979 20.4604 40.4972 20.2596C40.2964 20.0589 40.1836 19.7866 40.1836 19.5027V9.14088H9.14088V54.0994H40.1836V49.8176C40.1836 49.5337 40.2964 49.2614 40.4972 49.0606C40.6979 48.8599 40.9702 48.7472 41.2541 48.7472C41.538 48.7472 41.8102 48.8599 42.011 49.0606C42.2117 49.2614 42.3245 49.5337 42.3245 49.8176V55.1698C42.3245 55.4537 42.2117 55.726 42.011 55.9267C41.8102 56.1274 41.538 56.2402 41.2541 56.2402Z" fill="#404040"/>
<path d="M25.1975 31.6201H12.3736V33.761H25.1975V31.6201Z" fill="#404040"/>
<path d="M25.1975 35.9019H12.3736V38.0428H25.1975V35.9019Z" fill="#404040"/>
<path d="M18.7856 40.1836H12.3736V42.3245H18.7856V40.1836Z" fill="#404040"/>
<path d="M19.8453 24.127C19.2514 24.1011 18.6685 23.9573 18.1306 23.7041C17.5928 23.4508 17.1106 23.0932 16.7122 22.6519C16.3137 22.2107 16.007 21.6947 15.8098 21.1338C15.6126 20.573 15.5289 19.9785 15.5635 19.385V18.1647C15.5635 17.0291 16.0147 15.94 16.8176 15.137C17.6206 14.334 18.7097 13.8829 19.8453 13.8829C20.9809 13.8829 22.07 14.334 22.873 15.137C23.676 15.94 24.1271 17.0291 24.1271 18.1647V19.385C24.1617 19.9785 24.078 20.573 23.8808 21.1338C23.6836 21.6947 23.3769 22.2107 22.9785 22.6519C22.58 23.0932 22.0979 23.4508 21.56 23.7041C21.0221 23.9573 20.4393 24.1011 19.8453 24.127V24.127ZM19.8453 15.5635C19.5337 15.593 19.2309 15.6838 18.9544 15.8306C18.678 15.9774 18.4332 16.1774 18.2343 16.4191C18.0354 16.6608 17.8861 16.9395 17.7952 17.239C17.7043 17.5386 17.6734 17.8532 17.7044 18.1647V19.385C17.7044 19.9528 17.93 20.4973 18.3315 20.8988C18.733 21.3003 19.2775 21.5259 19.8453 21.5259C20.4131 21.5259 20.9576 21.3003 21.3591 20.8988C21.7606 20.4973 21.9862 19.9528 21.9862 19.385V18.1647C22.0172 17.8532 21.9863 17.5386 21.8954 17.239C21.8045 16.9395 21.6553 16.6608 21.4563 16.4191C21.2574 16.1774 21.0127 15.9774 20.7362 15.8306C20.4597 15.6838 20.157 15.593 19.8453 15.5635V15.5635Z" fill="#404040"/>
<path d="M25.1975 27.3384C24.9136 27.3384 24.6413 27.2256 24.4406 27.0248C24.2398 26.8241 24.127 26.5518 24.127 26.2679C24.127 25.1975 22.4036 24.127 19.8453 24.127C17.2869 24.127 15.5635 25.1975 15.5635 26.2679C15.5635 26.5518 15.4507 26.8241 15.25 27.0248C15.0493 27.2256 14.777 27.3384 14.4931 27.3384C14.2092 27.3384 13.9369 27.2256 13.7362 27.0248C13.5354 26.8241 13.4226 26.5518 13.4226 26.2679C13.4226 23.8273 16.1844 21.9862 19.8453 21.9862C23.5062 21.9862 26.2679 23.8273 26.2679 26.2679C26.2679 26.5518 26.1551 26.8241 25.9544 27.0248C25.7537 27.2256 25.4814 27.3384 25.1975 27.3384Z" fill="#404040"/>
</svg>
