<svg width="64" height="64" viewBox="0 0 64 64" fill="none" xmlns="http://www.w3.org/2000/svg">
<path d="M33.0417 21.5542C32.3511 21.579 31.6627 21.4612 31.0196 21.2083C30.3765 20.9553 29.7924 20.5725 29.3038 20.0839C28.8151 19.5952 28.4323 19.0111 28.1794 18.368C27.9264 17.7249 27.8086 17.0366 27.8334 16.3459V14.2626C27.8334 12.8813 28.3821 11.5565 29.3589 10.5798C30.3356 9.60303 31.6604 9.05429 33.0417 9.05429C34.423 9.05429 35.7478 9.60303 36.7245 10.5798C37.7013 11.5565 38.25 12.8813 38.25 14.2626V16.3459C38.2748 17.0366 38.157 17.7249 37.904 18.368C37.651 19.0111 37.2683 19.5952 36.7796 20.0839C36.291 20.5725 35.7069 20.9553 35.0638 21.2083C34.4206 21.4612 33.7323 21.579 33.0417 21.5542V21.5542ZM33.0417 11.1376C32.625 11.1134 32.2079 11.1776 31.8177 11.3261C31.4276 11.4746 31.0734 11.7039 30.7782 11.9991C30.483 12.2943 30.2537 12.6485 30.1052 13.0387C29.9567 13.4288 29.8925 13.8459 29.9167 14.2626V16.3459C29.9167 17.1747 30.2459 17.9696 30.832 18.5557C31.418 19.1417 32.2129 19.4709 33.0417 19.4709C33.8705 19.4709 34.6653 19.1417 35.2514 18.5557C35.8374 17.9696 36.1667 17.1747 36.1667 16.3459V14.2626C36.1909 13.8459 36.1267 13.4288 35.9782 13.0387C35.8297 12.6485 35.6004 12.2943 35.3052 11.9991C35.01 11.7039 34.6558 11.4746 34.2656 11.3261C33.8755 11.1776 33.4584 11.1134 33.0417 11.1376V11.1376Z" fill="#404040"/>
<path d="M27.8334 30.9292H25.75V41.3458H27.8334V30.9292Z" fill="#404040"/>
<path d="M39.2916 30.9292H37.2083V56.9708H39.2916V30.9292Z" fill="#404040"/>
<path d="M27.8334 49.6791H25.75V56.9708H27.8334V49.6791Z" fill="#404040"/>
<path d="M34.0833 40.3042H32V56.9708H34.0833V40.3042Z" fill="#404040"/>
<path d="M28.875 50.7208H18.4584C18.1821 50.7208 17.9172 50.6111 17.7218 50.4157C17.5265 50.2204 17.4167 49.9554 17.4167 49.6791V41.3458C17.4167 41.0696 17.5265 40.8046 17.7218 40.6093C17.9172 40.4139 18.1821 40.3042 18.4584 40.3042H28.875C29.1513 40.3042 29.4162 40.4139 29.6116 40.6093C29.8069 40.8046 29.9167 41.0696 29.9167 41.3458V49.6791C29.9167 49.9554 29.8069 50.2204 29.6116 50.4157C29.4162 50.6111 29.1513 50.7208 28.875 50.7208ZM19.5 48.6375H27.8333V42.3875H19.5V48.6375Z" fill="#404040"/>
<path d="M39.2916 43.4292H38.25V41.3458H39.2916C41.1041 41.3458 41.375 39.3875 41.375 38.2208V29.8875C41.375 26.2417 39.8229 24.6792 36.1666 24.6792H29.9167C25.8854 24.6792 23.6667 26.5334 23.6667 29.8875V41.3458H21.5834V29.8875C21.5834 25.3251 24.7083 22.5959 29.9167 22.5959H36.1666C40.9375 22.5959 43.4583 25.1167 43.4583 29.8875V38.2208C43.4583 41.4292 41.8645 43.4292 39.2916 43.4292Z" fill="#404040"/>
<path d="M47.625 24.6792H45.5416C45.5416 22.648 45.5416 20.7313 49.1979 16.6897C49.37 16.4986 49.6068 16.378 49.8626 16.3511C50.1184 16.3242 50.3751 16.3928 50.5833 16.5438L51.7916 17.4293V10.4501L44.8229 12.5334L46.1145 13.4085C46.2446 13.4978 46.3527 13.6156 46.4306 13.7529C46.5085 13.8901 46.5542 14.0433 46.5643 14.2008C46.5743 14.3584 46.5484 14.5161 46.4885 14.6621C46.4287 14.8082 46.3364 14.9387 46.2187 15.0438C44.0833 16.9397 42.4166 19.3251 42.4166 20.5022H40.3333C40.3333 18.6064 42.0729 16.2105 43.8646 14.4084L41.7812 13.0334C41.6167 12.9236 41.4869 12.7692 41.407 12.5883C41.327 12.4074 41.3002 12.2074 41.3297 12.0118C41.3592 11.8163 41.4438 11.6331 41.5736 11.4839C41.7033 11.3346 41.8729 11.2253 42.0625 11.1689L52.4791 8.04387C52.6359 7.99687 52.8015 7.98748 52.9626 8.01644C53.1236 8.04539 53.2756 8.11189 53.4062 8.21054C53.5355 8.30757 53.6406 8.43338 53.7129 8.57802C53.7852 8.72266 53.8228 8.88218 53.8228 9.04389V19.4605C53.8232 19.6518 53.771 19.8395 53.6717 20.003C53.5725 20.1665 53.4302 20.2996 53.2603 20.3876C53.0883 20.4768 52.8948 20.5163 52.7016 20.5015C52.5084 20.4868 52.3231 20.4185 52.1666 20.3043L50.0833 18.7834C47.6249 21.7313 47.625 23.0438 47.625 24.6792Z" fill="#FA4616"/>
<path d="M19.5 25.7209H17.4167V24.6792C17.4167 23.0751 17.4167 21.7834 14.875 18.7939L12.7917 20.3043C12.6418 20.4104 12.4664 20.4749 12.2835 20.4914C12.1006 20.5078 11.9165 20.4756 11.75 20.398C11.5783 20.3115 11.4338 20.179 11.3327 20.0154C11.2316 19.8517 11.1777 19.6633 11.1771 19.4709V9.0543C11.1771 8.89258 11.2148 8.7331 11.2871 8.58846C11.3594 8.44382 11.4644 8.31801 11.5938 8.22098C11.7244 8.12233 11.8764 8.05583 12.0374 8.02688C12.1985 7.99792 12.3641 8.00731 12.5209 8.05431L22.9375 11.1793C23.1265 11.2364 23.2954 11.346 23.4245 11.4954C23.5536 11.6448 23.6376 11.8278 23.6667 12.023C23.7006 12.2214 23.6764 12.4253 23.5969 12.6102C23.5174 12.795 23.3861 12.9529 23.2188 13.0647L21.1354 14.4397C22.9375 16.2626 24.6979 18.6689 24.6979 20.5334H22.6146C22.6146 19.3876 20.9271 16.9918 18.7709 15.0751C18.6534 14.9697 18.5614 14.839 18.5018 14.6928C18.4423 14.5466 18.4167 14.3889 18.4271 14.2314C18.4367 14.0714 18.483 13.9159 18.5625 13.7767C18.642 13.6376 18.7525 13.5187 18.8854 13.4293L20.1979 12.5647L13.2396 10.4814V17.4397L14.4063 16.5855C14.6133 16.4333 14.8692 16.3628 15.1249 16.3878C15.3807 16.4128 15.6181 16.5315 15.7917 16.721C19.2292 20.5334 19.4896 22.3563 19.4896 24.7105L19.5 25.7209Z" fill="#FA4616"/>
<path d="M48.6666 41.3459C48.5159 41.3448 48.367 41.3129 48.2291 41.2521C48.0483 41.1684 47.8953 41.0346 47.7882 40.8666C47.6811 40.6986 47.6245 40.5034 47.625 40.3042V38.2209H45.5416V36.1375H48.6666C48.9429 36.1375 49.2078 36.2473 49.4032 36.4427C49.5985 36.638 49.7083 36.9029 49.7083 37.1792V38.0438L54.3541 34.0542L49.7083 30.0647V30.9292C49.7083 31.2055 49.5985 31.4705 49.4032 31.6658C49.2078 31.8612 48.9429 31.9709 48.6666 31.9709H45.5416V29.8876H47.625V27.8042C47.6249 27.6051 47.682 27.4102 47.7894 27.2425C47.8968 27.0748 48.05 26.9414 48.2308 26.8581C48.4117 26.7748 48.6126 26.745 48.8099 26.7724C49.0071 26.7998 49.1924 26.8832 49.3437 27.0126L56.6353 33.2626C56.7497 33.3604 56.8415 33.4818 56.9044 33.6184C56.9674 33.7551 57 33.9037 57 34.0542C57 34.2047 56.9674 34.3534 56.9044 34.49C56.8415 34.6267 56.7497 34.7481 56.6353 34.8459L49.3437 41.0959C49.155 41.2572 48.9149 41.3459 48.6666 41.3459Z" fill="#FA4616"/>
<path d="M15.3334 41.3459C15.0851 41.3459 14.845 41.2572 14.6563 41.0959L7.36466 34.8459C7.25031 34.7481 7.1585 34.6267 7.09555 34.49C7.0326 34.3534 7 34.2047 7 34.0542C7 33.9037 7.0326 33.7551 7.09555 33.6184C7.1585 33.4818 7.25031 33.3604 7.36466 33.2626L14.6563 27.0126C14.8076 26.8832 14.9929 26.7998 15.1901 26.7724C15.3874 26.745 15.5883 26.7748 15.7692 26.8581C15.95 26.9414 16.1032 27.0748 16.2106 27.2425C16.318 27.4102 16.3751 27.6051 16.3751 27.8042V29.8876H18.4584V31.9709H15.3334C15.0571 31.9709 14.7922 31.8612 14.5968 31.6658C14.4015 31.4705 14.2917 31.2055 14.2917 30.9292V30.0647L9.6459 34.0542L14.2917 38.0438V37.1792C14.2917 36.9029 14.4015 36.638 14.5968 36.4427C14.7922 36.2473 15.0571 36.1375 15.3334 36.1375H18.4584V38.2209H16.3751V40.3042C16.3755 40.5034 16.3189 40.6986 16.2118 40.8666C16.1047 41.0346 15.9517 41.1684 15.7709 41.2521C15.6336 41.3147 15.4843 41.3467 15.3334 41.3459Z" fill="#FA4616"/>
</svg>
