<svg width="64" height="64" viewBox="0 0 64 64" fill="none" xmlns="http://www.w3.org/2000/svg">
<path d="M27.4583 36.4061H25.375V21.0624C25.375 20.0955 25.7591 19.1682 26.4428 18.4845C27.1265 17.8008 28.0538 17.4166 29.0208 17.4166C29.9877 17.4166 30.915 17.8008 31.5987 18.4845C32.2825 19.1682 32.6666 20.0955 32.6666 21.0624V34.8853H30.5833V21.0624C30.5833 20.648 30.4186 20.2506 30.1256 19.9576C29.8326 19.6646 29.4352 19.5 29.0208 19.5C28.6064 19.5 28.2089 19.6646 27.9159 19.9576C27.6229 20.2506 27.4583 20.648 27.4583 21.0624V36.4061Z" fill="#404040"/>
<path d="M27.7916 56.9998C27.5153 56.9998 27.2504 56.89 27.055 56.6947C26.8597 56.4993 26.7499 56.2344 26.7499 55.9581V53.656C26.7499 52.8123 26.2083 52.229 25.3229 51.354L25.1458 51.1769C23.5495 49.2117 22.2926 46.9937 21.427 44.6144C20.9583 42.729 23.6145 36.4895 25.5937 35.6145C27.2083 34.9062 35.2707 32.8436 37.052 32.4374C37.3042 32.3802 37.5687 32.419 37.794 32.546C38.0193 32.6731 38.1892 32.8795 38.2707 33.1249C39.1666 35.8228 39.677 38.3957 36.052 40.1666C35.4166 40.4791 34.6666 40.8436 33.9062 41.2082C35.3658 41.8906 36.6018 42.9733 37.4703 44.3305C38.3389 45.6877 38.8043 47.2636 38.8124 48.8748C38.8124 49.1511 38.7026 49.416 38.5073 49.6114C38.3119 49.8067 38.047 49.9165 37.7707 49.9165C37.4945 49.9165 37.2295 49.8067 37.0342 49.6114C36.8388 49.416 36.7291 49.1511 36.7291 48.8748C36.6457 43.979 32.2187 42.6248 30.8645 42.2811C30.65 42.2312 30.4568 42.1146 30.3126 41.9481C30.1685 41.7815 30.0809 41.5735 30.0624 41.354C30.0469 41.1332 30.1022 40.9132 30.2202 40.7259C30.3382 40.5385 30.5128 40.3937 30.7187 40.3123C31.9583 39.8228 33.8437 38.9478 35.1353 38.2915C36.8124 37.4686 37.1666 36.7812 36.5728 34.6978C33.7187 35.3957 27.6354 36.9894 26.4479 37.5207C25.5208 37.9894 23.2604 42.979 23.4687 44.1144C24.2293 46.1227 25.2824 48.0076 26.5937 49.7082L26.7708 49.8749C27.3682 50.3195 27.8633 50.8871 28.2227 51.5394C28.582 52.1917 28.7974 52.9135 28.8541 53.656V55.9581C28.8541 56.0967 28.8265 56.2339 28.7729 56.3617C28.7192 56.4894 28.6406 56.6052 28.5417 56.7022C28.4427 56.7992 28.3254 56.8754 28.1966 56.9265C28.0678 56.9777 27.9301 57.0026 27.7916 56.9998Z" fill="#404040"/>
<path d="M44.1249 56.9998C43.8486 56.9998 43.5837 56.89 43.3883 56.6947C43.193 56.4993 43.0832 56.2344 43.0832 55.9581V55.0519C43.2307 53.8372 43.7511 52.6981 44.5728 51.7915C45.4779 50.772 46.0487 49.4996 46.2082 48.1456V37.2082C46.2082 36.9319 46.318 36.667 46.5133 36.4716C46.7087 36.2763 46.9736 36.1665 47.2499 36.1665C47.5261 36.1665 47.7911 36.2763 47.9864 36.4716C48.1818 36.667 48.2915 36.9319 48.2915 37.2082V48.1456C48.1493 49.937 47.4417 51.6368 46.2707 52.9998C45.7438 53.5977 45.3655 54.3115 45.1665 55.0832V55.9894C45.1584 56.2602 45.0451 56.5172 44.8506 56.7058C44.6561 56.8944 44.3958 56.9999 44.1249 56.9998Z" fill="#404040"/>
<path d="M32.6666 33.0416H30.5833V29.9166C30.7155 29.0443 31.1561 28.2484 31.825 27.6733C32.4939 27.0981 33.3469 26.7819 34.2291 26.7819C35.1113 26.7819 35.9642 27.0981 36.6332 27.6733C37.3021 28.2484 37.7427 29.0443 37.8749 29.9166V30.9582H35.7916V29.9166C35.7916 29.3645 35.0624 28.8749 34.2291 28.8749C33.3958 28.8749 32.6666 29.3645 32.6666 29.9166V33.0416Z" fill="#404040"/>
<path d="M44.6457 40.3332C43.7491 40.3966 42.8637 40.1041 42.1813 39.5191C41.4988 38.9342 41.0744 38.1039 40.9999 37.2082V33.0415C41.1321 32.1693 41.5727 31.3734 42.2416 30.7983C42.9105 30.2231 43.7635 29.9068 44.6457 29.9068C45.5279 29.9068 46.3809 30.2231 47.0498 30.7983C47.7187 31.3734 48.1593 32.1693 48.2915 33.0415V37.2082C48.217 38.1039 47.7926 38.9342 47.1102 39.5191C46.4277 40.1041 45.5423 40.3966 44.6457 40.3332V40.3332ZM44.6457 31.9999C43.8124 31.9999 43.0832 32.4895 43.0832 33.0415V37.2082C43.0832 37.7707 43.8124 38.2499 44.6457 38.2499C45.479 38.2499 46.2082 37.7707 46.2082 37.2082V33.0415C46.2082 32.4895 45.479 31.9999 44.6457 31.9999Z" fill="#404040"/>
<path d="M29.5416 14.2916C29.2653 14.2916 29.0004 14.1819 28.805 13.9865C28.6097 13.7912 28.4999 13.5262 28.4999 13.25V8.04166C28.4999 7.7654 28.6097 7.50046 28.805 7.30511C29.0004 7.10976 29.2653 7 29.5416 7C29.8179 7 30.0828 7.10976 30.2782 7.30511C30.4735 7.50046 30.5833 7.7654 30.5833 8.04166V13.25C30.5833 13.5262 30.4735 13.7912 30.2782 13.9865C30.0828 14.1819 29.8179 14.2916 29.5416 14.2916Z" fill="#FA4616"/>
<path d="M24.0833 16.125C23.9462 16.1258 23.8103 16.0995 23.6834 16.0477C23.5565 15.9958 23.441 15.9195 23.3437 15.8229L19.6666 12.1354C19.496 11.9361 19.4068 11.6798 19.4169 11.4177C19.4271 11.1555 19.5357 10.9068 19.7213 10.7213C19.9068 10.5358 20.1555 10.4271 20.4176 10.4169C20.6798 10.4068 20.9361 10.496 21.1354 10.6667L24.8229 14.3437C24.9205 14.4405 24.998 14.5558 25.0509 14.6827C25.1038 14.8096 25.131 14.9458 25.131 15.0833C25.131 15.2208 25.1038 15.357 25.0509 15.4839C24.998 15.6109 24.9205 15.7261 24.8229 15.8229C24.7255 15.9195 24.6101 15.9958 24.4832 16.0477C24.3563 16.0995 24.2204 16.1258 24.0833 16.125Z" fill="#FA4616"/>
<path d="M24.0833 16.125C23.9462 16.1258 23.8103 16.0995 23.6834 16.0477C23.5565 15.9958 23.441 15.9195 23.3437 15.8229L19.6666 12.1354C19.496 11.9361 19.4068 11.6798 19.4169 11.4177C19.4271 11.1555 19.5357 10.9068 19.7213 10.7213C19.9068 10.5358 20.1555 10.4271 20.4176 10.4169C20.6798 10.4068 20.9361 10.496 21.1354 10.6667L24.8229 14.3437C24.9205 14.4405 24.998 14.5558 25.0509 14.6827C25.1038 14.8096 25.131 14.9458 25.131 15.0833C25.131 15.2208 25.1038 15.357 25.0509 15.4839C24.998 15.6109 24.9205 15.7261 24.8229 15.8229C24.7255 15.9195 24.6101 15.9958 24.4832 16.0477C24.3563 16.0995 24.2204 16.1258 24.0833 16.125Z" fill="#FA4616"/>
<path d="M22.25 20.5416H17.0417C16.7654 20.5416 16.5004 20.4318 16.3051 20.2365C16.1097 20.0411 16 19.7762 16 19.4999C16 19.2237 16.1097 18.9587 16.3051 18.7634C16.5004 18.568 16.7654 18.4583 17.0417 18.4583H22.25C22.5262 18.4583 22.7912 18.568 22.9865 18.7634C23.1819 18.9587 23.2916 19.2237 23.2916 19.4999C23.2916 19.7762 23.1819 20.0411 22.9865 20.2365C22.7912 20.4318 22.5262 20.5416 22.25 20.5416Z" fill="#FA4616"/>
<path d="M22.25 20.5416H17.0417C16.7654 20.5416 16.5004 20.4318 16.3051 20.2365C16.1097 20.0411 16 19.7762 16 19.4999C16 19.2237 16.1097 18.9587 16.3051 18.7634C16.5004 18.568 16.7654 18.4583 17.0417 18.4583H22.25C22.5262 18.4583 22.7912 18.568 22.9865 18.7634C23.1819 18.9587 23.2916 19.2237 23.2916 19.4999C23.2916 19.7762 23.1819 20.0411 22.9865 20.2365C22.7912 20.4318 22.5262 20.5416 22.25 20.5416Z" fill="#FA4616"/>
<path d="M40.9999 20.5416H35.7916C35.5153 20.5416 35.2504 20.4318 35.055 20.2365C34.8597 20.0411 34.7499 19.7762 34.7499 19.4999C34.7499 19.2237 34.8597 18.9587 35.055 18.7634C35.2504 18.568 35.5153 18.4583 35.7916 18.4583H40.9999C41.2762 18.4583 41.5411 18.568 41.7364 18.7634C41.9318 18.9587 42.0416 19.2237 42.0416 19.4999C42.0416 19.7762 41.9318 20.0411 41.7364 20.2365C41.5411 20.4318 41.2762 20.5416 40.9999 20.5416Z" fill="#FA4616"/>
<path d="M40.9999 20.5416H35.7916C35.5153 20.5416 35.2504 20.4318 35.055 20.2365C34.8597 20.0411 34.7499 19.7762 34.7499 19.4999C34.7499 19.2237 34.8597 18.9587 35.055 18.7634C35.2504 18.568 35.5153 18.4583 35.7916 18.4583H40.9999C41.2762 18.4583 41.5411 18.568 41.7364 18.7634C41.9318 18.9587 42.0416 19.2237 42.0416 19.4999C42.0416 19.7762 41.9318 20.0411 41.7364 20.2365C41.5411 20.4318 41.2762 20.5416 40.9999 20.5416Z" fill="#FA4616"/>
<path d="M33.9583 16.125C33.7522 16.1241 33.5511 16.0622 33.3803 15.947C33.2095 15.8319 33.0767 15.6686 32.9986 15.4779C32.9206 15.2873 32.9008 15.0778 32.9418 14.8759C32.9829 14.674 33.0828 14.4888 33.2291 14.3437L36.9062 10.6667C37.003 10.569 37.1182 10.4915 37.2452 10.4386C37.3721 10.3857 37.5082 10.3585 37.6458 10.3585C37.7833 10.3585 37.9194 10.3857 38.0463 10.4386C38.1733 10.4915 38.2885 10.569 38.3853 10.6667C38.5793 10.8619 38.6882 11.1258 38.6882 11.401C38.6882 11.6762 38.5793 11.9402 38.3853 12.1354L34.6978 15.8229C34.6005 15.9195 34.4851 15.9958 34.3582 16.0477C34.2313 16.0995 34.0954 16.1258 33.9583 16.125V16.125Z" fill="#FA4616"/>
<path d="M39.4374 39.2915C38.5192 39.2946 37.6257 38.9944 36.8957 38.4374L38.177 36.8019C38.5451 37.0643 38.9854 37.2063 39.4374 37.2082C40.2707 37.2082 40.9999 36.729 40.9999 36.1665V30.9582C40.9999 30.4061 40.2707 29.9166 39.4374 29.9166C38.6041 29.9166 37.8749 30.4061 37.8749 30.9582V33.5624H35.7916V30.9582C35.9238 30.086 36.3644 29.2901 37.0333 28.7149C37.7022 28.1398 38.5552 27.8235 39.4374 27.8235C40.3196 27.8235 41.1725 28.1398 41.8415 28.7149C42.5104 29.2901 42.951 30.086 43.0832 30.9582V36.1665C43.0087 37.0623 42.5843 37.8925 41.9018 38.4775C41.2194 39.0624 40.334 39.3549 39.4374 39.2915V39.2915Z" fill="#404040"/>
</svg>
