<svg width="64" height="64" viewBox="0 0 64 64" fill="none" xmlns="http://www.w3.org/2000/svg">
<path d="M25.9275 49.6238C25.7795 49.6248 25.6329 49.595 25.4971 49.5363C25.3613 49.4775 25.2391 49.3912 25.1385 49.2826C24.9655 49.0762 24.877 48.812 24.8909 48.543C24.9047 48.274 25.0199 48.0202 25.2132 47.8327L34.297 39.3672C34.469 39.2486 34.6088 39.0891 34.7038 38.9029C34.7987 38.7168 34.8458 38.5099 34.8408 38.301C34.8454 38.1328 34.8101 37.9659 34.7378 37.814C34.6655 37.662 34.5583 37.5293 34.425 37.4267L27.8893 32.3198C27.6932 32.1662 27.557 31.9489 27.5045 31.7054C27.4519 31.462 27.4862 31.2078 27.6014 30.987L30.0216 26.3918C30.0939 26.2515 30.1964 26.129 30.3218 26.0331C30.4472 25.9372 30.5923 25.8704 30.7466 25.8374C30.9007 25.8054 31.06 25.808 31.213 25.8448C31.366 25.8817 31.5089 25.952 31.6315 26.0506C32.8316 27.0268 34.0883 27.931 35.3952 28.7587C36.6852 28.3642 40.6408 27.1488 42.368 26.4664C42.7253 26.2559 43.0288 25.9653 43.2545 25.6175C43.4802 25.2696 43.622 24.874 43.6687 24.462L36.3121 25.6348C36.1415 25.6614 35.967 25.6463 35.8035 25.5905C35.6401 25.5348 35.4926 25.4403 35.3738 25.315C35.1286 25.0697 29.5099 19.2377 28.2198 17.6918C27.5182 16.7856 26.5613 16.1104 25.4724 15.7531C24.3835 15.3958 23.2126 15.373 22.1106 15.6874L12.3977 18.8859C13.3999 19.6962 14.6473 20.4425 15.4896 20.1973C17.7712 19.5362 21.7907 18.0649 21.8334 18.0649C22.0249 17.9963 22.2321 17.9839 22.4305 18.0293C22.6289 18.0746 22.8101 18.1758 22.9529 18.3208L25.3198 20.741C25.4752 20.8977 25.5782 21.0988 25.6144 21.3165C25.6507 21.5342 25.6185 21.7578 25.5224 21.9565C25.5224 21.9565 23.3047 26.5517 22.0999 28.9719C20.8951 31.3922 22.3771 33.8977 25.9915 35.8701L29.7977 37.8852C29.9373 37.9598 30.0585 38.0645 30.1525 38.1918C30.2466 38.319 30.3111 38.4656 30.3415 38.6209C30.372 38.7757 30.3677 38.9355 30.329 39.0885C30.2903 39.2415 30.2181 39.3841 30.1176 39.5058L23.1874 47.8327C23.1018 47.9515 22.9925 48.0514 22.8665 48.1261C22.7406 48.2008 22.6005 48.2488 22.4552 48.267C22.3099 48.2853 22.1623 48.2733 22.0218 48.232C21.8813 48.1907 21.7508 48.1209 21.6385 48.0269C21.5261 47.9329 21.4343 47.8167 21.3688 47.6857C21.3034 47.5547 21.2656 47.4116 21.2579 47.2653C21.2501 47.1191 21.2727 46.9728 21.324 46.8356C21.3753 46.6984 21.4543 46.5732 21.5562 46.468L27.6227 39.1646L24.9679 37.7572C19.3811 34.708 18.8267 30.7312 20.1808 28.0231C21.0977 26.1786 22.601 23.076 23.2621 21.7113L21.8974 20.3146C20.6499 20.7517 17.8778 21.7112 16.076 22.2337C13.176 23.0866 9.91347 19.5363 9.55097 19.1205C9.43464 18.9879 9.35298 18.8286 9.31332 18.6568C9.27366 18.485 9.27725 18.3061 9.32373 18.136C9.37022 17.9659 9.45817 17.81 9.5797 17.6822C9.70123 17.5544 9.85254 17.4588 10.0201 17.4039L21.4389 13.6723C22.945 13.2212 24.552 13.2343 26.0506 13.7097C27.5491 14.1851 28.8698 15.1009 29.8404 16.3377C30.9066 17.5958 35.1713 22.0738 36.5147 23.4491L44.7136 22.1377C44.8667 22.1133 45.0233 22.1227 45.1725 22.165C45.3216 22.2074 45.4597 22.2817 45.5772 22.383C45.6942 22.4831 45.7882 22.6073 45.8526 22.7472C45.917 22.8871 45.9504 23.0393 45.9504 23.1933C45.9504 23.3639 45.9504 27.362 43.1463 28.4602C41.0139 29.3131 35.7897 30.8697 35.5764 30.9337C35.3215 31.0088 35.0477 30.986 34.8088 30.8697C33.5742 30.1863 32.4006 29.398 31.301 28.5135L29.8937 31.2003L35.7257 35.7529C36.1151 36.0552 36.4293 36.4435 36.6439 36.8874C36.8584 37.3312 36.9674 37.8187 36.9624 38.3117C36.9662 38.8221 36.8517 39.3265 36.6278 39.7852C36.404 40.2439 36.077 40.6446 35.6724 40.9558L26.6525 49.368C26.4511 49.5405 26.1926 49.6317 25.9275 49.6238V49.6238Z" fill="#404040"/>
<path d="M12.2271 51.6602C12.0222 51.66 11.8217 51.6007 11.6496 51.4894C11.4775 51.3782 11.3412 51.2198 11.2568 51.033C11.1725 50.8463 11.1437 50.6393 11.174 50.4366C11.2042 50.234 11.2922 50.0443 11.4275 49.8904L21.3749 38.5036C21.5615 38.2901 21.8253 38.1595 22.1083 38.1405C22.3912 38.1215 22.6701 38.2157 22.8835 38.4023C23.097 38.5889 23.2276 38.8527 23.2466 39.1356C23.2656 39.4186 23.1715 39.6975 22.9848 39.9109L13.0267 51.2977C12.9268 51.4115 12.8038 51.5026 12.6659 51.5651C12.5281 51.6276 12.3785 51.66 12.2271 51.6602Z" fill="#404040"/>
<path d="M8.05832 50.6154C7.86211 50.6139 7.67011 50.5584 7.50346 50.4548C7.33681 50.3513 7.20195 50.2037 7.11376 50.0285C7.02557 49.8532 6.98746 49.657 7.00362 49.4614C7.01979 49.2659 7.08959 49.0786 7.20535 48.9202L17.8672 34.644C18.0368 34.4178 18.2894 34.2683 18.5693 34.2283C18.8493 34.1883 19.1336 34.2611 19.3598 34.4308C19.586 34.6005 19.7356 34.8531 19.7756 35.133C19.8156 35.4129 19.7427 35.6972 19.573 35.9234L8.96458 50.1889C8.86 50.3288 8.72265 50.4408 8.56463 50.5152C8.40661 50.5896 8.23275 50.624 8.05832 50.6154Z" fill="#404040"/>
<path d="M37.6341 19.6748C36.9769 19.6558 36.3301 19.5059 35.7314 19.2339C35.1328 18.9619 34.5944 18.5734 34.1477 18.0909C33.701 17.6085 33.355 17.0418 33.1298 16.4241C32.9046 15.8064 32.8048 15.15 32.8363 14.4932V13.1285C32.7925 12.4716 32.884 11.8126 33.1053 11.1925C33.3266 10.5723 33.6729 10.0043 34.1227 9.52346C34.5725 9.04264 35.1162 8.65934 35.7203 8.39728C36.3243 8.13522 36.9757 8 37.6341 8C38.2925 8 38.9439 8.13522 39.5479 8.39728C40.152 8.65934 40.6957 9.04264 41.1455 9.52346C41.5954 10.0043 41.9416 10.5723 42.1629 11.1925C42.3842 11.8126 42.4757 12.4716 42.4319 13.1285V14.4932C42.4634 15.15 42.3636 15.8064 42.1384 16.4241C41.9132 17.0418 41.5672 17.6085 41.1205 18.0909C40.6737 18.5734 40.1354 18.9619 39.5367 19.2339C38.9381 19.5059 38.2913 19.6558 37.6341 19.6748ZM37.6341 10.0792C37.2581 10.1022 36.8904 10.1996 36.5523 10.3657C36.2142 10.5319 35.9124 10.7635 35.6645 11.0471C35.4165 11.3307 35.2274 11.6608 35.1079 12.0181C34.9885 12.3753 34.9411 12.7528 34.9686 13.1285V14.4932C34.9207 14.8716 34.9538 15.2558 35.0659 15.6203C35.1779 15.9848 35.3662 16.3213 35.6183 16.6074C35.8705 16.8935 36.1807 17.1227 36.5282 17.2796C36.8758 17.4366 37.2527 17.5178 37.6341 17.5178C38.0154 17.5178 38.3924 17.4366 38.74 17.2796C39.0876 17.1227 39.3977 16.8935 39.6498 16.6074C39.902 16.3213 40.0903 15.9848 40.2024 15.6203C40.3144 15.2558 40.3475 14.8716 40.2995 14.4932V13.1285C40.3271 12.7528 40.2797 12.3753 40.1603 12.0181C40.0408 11.6608 39.8517 11.3307 39.6037 11.0471C39.3558 10.7635 39.0541 10.5319 38.716 10.3657C38.3779 10.1996 38.0101 10.1022 37.6341 10.0792Z" fill="#404040"/>
<path d="M11.758 56.7033L11.3741 54.5709L44.9588 48.5256C45.2354 48.48 45.5188 48.5451 45.7478 48.7069C45.8636 48.7857 45.9627 48.8864 46.0395 49.0035C46.1164 49.1206 46.1694 49.2517 46.1955 49.3892L46.7393 52.4172L54.2772 43.5999L44.1378 37.9598L44.6922 40.9984C44.7168 41.1363 44.7139 41.2778 44.6838 41.4146C44.6537 41.5514 44.5969 41.6809 44.5167 41.7958C44.4365 41.9106 44.3345 42.0086 44.2164 42.084C44.0983 42.1594 43.9666 42.2107 43.8286 42.2352L38.5724 43.1734L38.1992 41.0411L42.3999 40.2947L41.643 36.094C41.6075 35.8955 41.6291 35.691 41.7052 35.5043C41.7813 35.3175 41.9088 35.1562 42.0729 35.039C42.2369 34.9218 42.4309 34.8535 42.6322 34.8421C42.8335 34.8307 43.034 34.8766 43.2103 34.9745L56.4522 42.3418C56.591 42.4187 56.7109 42.5256 56.8031 42.6547C56.8953 42.7838 56.9576 42.9319 56.9853 43.0881C57.0113 43.2429 57.0028 43.4016 56.9604 43.5527C56.918 43.7038 56.8428 43.8437 56.7401 43.9624L46.8992 55.4878C46.7694 55.636 46.6011 55.7454 46.4129 55.8037C46.2247 55.8621 46.0239 55.8671 45.833 55.8183C45.638 55.7675 45.4613 55.6624 45.3235 55.5152C45.1858 55.368 45.0926 55.1847 45.0547 54.9867L44.3084 50.7859L11.758 56.7033Z" fill="#FA4616"/>
</svg>
