<svg width="64" height="64" viewBox="0 0 64 64" fill="none" xmlns="http://www.w3.org/2000/svg">
<path d="M46.5314 57C46.3226 57.0004 46.1144 56.9768 45.9109 56.9297C45.2677 56.7813 44.7085 56.3861 44.3538 55.8292L40.1625 48.5003L36.2054 52.3287C35.9604 52.6034 35.6387 52.7982 35.2817 52.888C34.9248 52.9777 34.5492 52.9583 34.2034 52.8321C33.8768 52.6876 33.6009 52.4487 33.4111 52.1462C33.2212 51.8438 33.1261 51.4914 33.138 51.1345V28.8082C33.1375 28.5918 33.1969 28.3795 33.3098 28.1948C33.4226 28.0101 33.5845 27.8603 33.7773 27.762C33.9702 27.6638 34.1865 27.6209 34.4023 27.6382C34.618 27.6555 34.8248 27.7322 34.9995 27.8599L53.0408 40.9958C53.4517 41.2668 53.7668 41.6603 53.9412 42.1206C54.1157 42.5809 54.1406 43.0845 54.0125 43.5598C53.8622 44.0575 53.5505 44.491 53.1266 44.792C52.7026 45.093 52.1905 45.2444 51.671 45.2222H47.5617L51.2496 51.6028C51.5722 52.2319 51.6403 52.961 51.4398 53.6389C51.2393 54.3169 50.7854 54.8916 50.1725 55.2438L48.1354 56.5551C47.6519 56.8484 47.0969 57.0023 46.5314 57V57ZM40.4786 45.4329H40.6425C40.8193 45.4571 40.9882 45.5214 41.1363 45.6208C41.2844 45.7202 41.4079 45.8522 41.4972 46.0066L46.3792 54.6233C46.4651 54.6423 46.554 54.6438 46.6405 54.6277C46.727 54.6116 46.8093 54.5783 46.8827 54.5297L48.9198 53.2535C49.2007 53.0779 49.2476 52.8204 49.2125 52.7501L44.5294 44.6251C44.4267 44.4471 44.3726 44.2452 44.3726 44.0397C44.3726 43.8342 44.4267 43.6323 44.5294 43.4544C44.6326 43.2757 44.7811 43.1275 44.96 43.0247C45.1388 42.9219 45.3417 42.8682 45.548 42.869H51.6827L35.4795 31.1146V49.7764L39.624 45.7608C39.7371 45.6515 39.8711 45.5661 40.0179 45.5098C40.1648 45.4535 40.3215 45.4274 40.4786 45.4329V45.4329Z" fill="#FA4616"/>
<path d="M29.6258 55.7355H27.2843C27.1302 55.7364 26.9774 55.7069 26.8348 55.6486C26.6922 55.5904 26.5624 55.5045 26.453 55.396L25.6335 54.5648H24.9428C24.6323 54.5648 24.3345 54.4414 24.1149 54.2219C23.8953 54.0023 23.772 53.7045 23.772 53.394C23.772 53.0835 23.8953 52.7858 24.1149 52.5662C24.3345 52.3466 24.6323 52.2233 24.9428 52.2233H26.1135C26.2676 52.2224 26.4203 52.2519 26.563 52.3102C26.7056 52.3684 26.8353 52.4543 26.9447 52.5628L27.776 53.394H29.6258C29.9363 53.394 30.2341 53.5174 30.4536 53.7369C30.6732 53.9565 30.7965 54.2543 30.7965 54.5648C30.7965 54.8753 30.6732 55.173 30.4536 55.3926C30.2341 55.6122 29.9363 55.7355 29.6258 55.7355Z" fill="#404040"/>
<path d="M23.3974 13.6704C23.1662 13.6692 22.9406 13.5997 22.7489 13.4705C22.5572 13.3413 22.4081 13.1583 22.3203 12.9445L20.529 8.61272C20.4125 8.32692 20.4136 8.00667 20.5319 7.72165C20.6503 7.43662 20.8765 7.20989 21.1612 7.09075C21.3034 7.03126 21.4559 7.00042 21.61 7C21.7642 6.99959 21.9169 7.02959 22.0594 7.08833C22.2018 7.14706 22.3313 7.23338 22.4404 7.34228C22.5495 7.45118 22.636 7.58053 22.6949 7.72294L24.4862 12.0665C24.5457 12.2086 24.5765 12.3612 24.5769 12.5153C24.5773 12.6694 24.5473 12.8221 24.4886 12.9646C24.4298 13.1071 24.3435 13.2365 24.2346 13.3456C24.1257 13.4547 23.9964 13.5412 23.8539 13.6001C23.7073 13.6511 23.5526 13.6749 23.3974 13.6704Z" fill="#404040"/>
<path d="M14.5348 22.533C14.3788 22.5343 14.2239 22.5065 14.0782 22.451L9.72296 20.6598C9.58055 20.6009 9.45119 20.5144 9.34229 20.4053C9.23339 20.2962 9.14709 20.1667 9.08835 20.0242C9.02961 19.8817 8.99959 19.7291 9 19.575C9.00042 19.4208 9.03125 19.2683 9.09075 19.1261C9.20989 18.8414 9.43663 18.6152 9.72166 18.4968C10.0067 18.3784 10.3269 18.3774 10.6127 18.4939L14.9445 20.2852C15.1917 20.3904 15.3952 20.5775 15.5208 20.815C15.6464 21.0526 15.6865 21.326 15.6343 21.5896C15.5822 21.8532 15.4409 22.0908 15.2343 22.2626C15.0277 22.4344 14.7683 22.5298 14.4996 22.533H14.5348Z" fill="#404040"/>
<path d="M10.203 36.8747C9.9343 36.8715 9.67489 36.7761 9.46828 36.6043C9.26167 36.4325 9.12043 36.1949 9.06826 35.9313C9.0161 35.6677 9.05618 35.3942 9.18178 35.1567C9.30739 34.9192 9.51087 34.7321 9.75809 34.6269L14.0899 32.8356C14.3683 32.7508 14.6683 32.7727 14.9315 32.8972C15.1946 33.0216 15.4019 33.2396 15.5131 33.5086C15.6242 33.7776 15.6311 34.0784 15.5325 34.3523C15.4339 34.6261 15.2368 34.8534 14.9796 34.9898L10.6479 36.781C10.5089 36.8465 10.3565 36.8786 10.203 36.8747V36.8747Z" fill="#404040"/>
<path d="M44.8456 22.533C44.5759 22.5325 44.3147 22.4389 44.1061 22.268C43.8974 22.0972 43.7542 21.8595 43.7005 21.5953C43.6468 21.331 43.686 21.0563 43.8114 20.8176C43.9369 20.5789 44.1409 20.3908 44.389 20.2852L48.7208 18.4939C48.863 18.4355 49.0153 18.4056 49.169 18.4061C49.3228 18.4065 49.4749 18.4373 49.6168 18.4965C49.7587 18.5558 49.8875 18.6424 49.9959 18.7514C50.1043 18.8604 50.1902 18.9897 50.2486 19.1319C50.307 19.2741 50.3369 19.4265 50.3364 19.5802C50.336 19.734 50.3052 19.8861 50.246 20.028C50.1867 20.1699 50.1001 20.2987 49.9911 20.4071C49.8821 20.5155 49.7527 20.6014 49.6105 20.6598L45.2904 22.451C45.1484 22.5054 44.9976 22.5332 44.8456 22.533V22.533Z" fill="#404040"/>
<path d="M35.9478 13.6704C35.7546 13.6702 35.5644 13.6222 35.3942 13.5307C35.224 13.4391 35.0792 13.3069 34.9725 13.1458C34.8659 12.9847 34.8007 12.7997 34.783 12.6072C34.7652 12.4148 34.7954 12.2209 34.8707 12.043L36.6503 7.72293C36.7867 7.46581 37.014 7.26875 37.2878 7.17013C37.5617 7.07152 37.8624 7.07845 38.1315 7.18957C38.4005 7.30069 38.6185 7.50804 38.7429 7.77116C38.8673 8.03428 38.8893 8.33427 38.8045 8.61271L37.0132 12.9445C36.9262 13.1565 36.7788 13.3383 36.5894 13.4673C36.4 13.5963 36.177 13.6669 35.9478 13.6704Z" fill="#404040"/>
<path d="M29.6258 47.5402H22.6013C22.2908 47.5402 21.993 47.4169 21.7734 47.1973C21.5538 46.9778 21.4305 46.68 21.4305 46.3695V41.5928C21.4884 40.7952 21.3867 39.9941 21.1314 39.2363C20.8761 38.4784 20.4723 37.7791 19.9436 37.1791C18.5947 35.9778 17.51 34.5093 16.7582 32.8668C16.0065 31.2243 15.6042 29.4436 15.5767 27.6374C15.5767 23.9114 17.0569 20.338 19.6916 17.7033C22.3263 15.0686 25.8997 13.5884 29.6258 13.5884C33.3518 13.5884 36.9252 15.0686 39.5599 17.7033C42.1946 20.338 43.6748 23.9114 43.6748 27.6374C43.6748 27.9479 43.5515 28.2457 43.3319 28.4653C43.1123 28.6848 42.8146 28.8082 42.5041 28.8082C42.1935 28.8082 41.8958 28.6848 41.6762 28.4653C41.4566 28.2457 41.3333 27.9479 41.3333 27.6374C41.3333 24.5324 40.0998 21.5546 37.9042 19.359C35.7087 17.1634 32.7308 15.9299 29.6258 15.9299C26.5207 15.9299 23.5429 17.1634 21.3473 19.359C19.1517 21.5546 17.9182 24.5324 17.9182 27.6374C17.9304 29.1301 18.2628 30.6029 18.8929 31.9561C19.5231 33.3093 20.4363 34.5115 21.571 35.4815C22.3299 36.2999 22.9159 37.2629 23.2941 38.3129C23.6723 39.363 23.8348 40.4785 23.772 41.5928V45.1987H29.6258C29.9363 45.1987 30.2341 45.3221 30.4536 45.5417C30.6732 45.7612 30.7965 46.059 30.7965 46.3695C30.7965 46.68 30.6732 46.9778 30.4536 47.1973C30.2341 47.4169 29.9363 47.5402 29.6258 47.5402V47.5402Z" fill="#404040"/>
<path d="M29.6258 51.0525H22.6012C22.2907 51.0525 21.993 50.9291 21.7734 50.7096C21.5538 50.49 21.4305 50.1923 21.4305 49.8818C21.4305 49.5712 21.5538 49.2735 21.7734 49.0539C21.993 48.8344 22.2907 48.711 22.6012 48.711H29.6258C29.9363 48.711 30.2341 48.8344 30.4536 49.0539C30.6732 49.2735 30.7965 49.5712 30.7965 49.8818C30.7965 50.1923 30.6732 50.49 30.4536 50.7096C30.2341 50.9291 29.9363 51.0525 29.6258 51.0525Z" fill="#404040"/>
</svg>
