<svg width="64" height="64" viewBox="0 0 64 64" fill="none" xmlns="http://www.w3.org/2000/svg">
<path d="M26.4545 36.5454H24.1818V20.6364C24.1818 20.335 24.0621 20.046 23.849 19.8328C23.6359 19.6197 23.3468 19.5 23.0454 19.5C22.7441 19.5 22.455 19.6197 22.2419 19.8328C22.0288 20.046 21.9091 20.335 21.9091 20.6364V35.4091H19.6364V20.6364C19.6364 19.7322 19.9955 18.8651 20.6349 18.2257C21.2742 17.5864 22.1413 17.2273 23.0454 17.2273C23.9496 17.2273 24.8167 17.5864 25.4561 18.2257C26.0954 18.8651 26.4545 19.7322 26.4545 20.6364V36.5454Z" fill="#404040"/>
<path d="M17.3636 36.5454H15.0909V24.0454C15.0909 23.1413 15.4501 22.2742 16.0894 21.6348C16.7288 20.9955 17.5959 20.6364 18.5 20.6364C19.4041 20.6364 20.2713 20.9955 20.9106 21.6348C21.5499 22.2742 21.9091 23.1413 21.9091 24.0454H19.6364C19.6364 23.7441 19.5167 23.455 19.3036 23.2419C19.0904 23.0288 18.8014 22.9091 18.5 22.9091C18.1986 22.9091 17.9096 23.0288 17.6965 23.2419C17.4834 23.455 17.3636 23.7441 17.3636 24.0454V36.5454Z" fill="#404040"/>
<path d="M15.0909 57H12.8182V53.5909C12.7282 53.1006 12.5674 52.6259 12.3409 52.1818C11.0886 49.4143 10.475 46.4005 10.5455 43.3636V28.5909C10.5455 27.6868 10.9046 26.8196 11.544 26.1803C12.1833 25.541 13.0504 25.1818 13.9546 25.1818C14.8587 25.1818 15.7258 25.541 16.3652 26.1803C17.0045 26.8196 17.3636 27.6868 17.3636 28.5909H15.0909C15.0909 28.2895 14.9712 28.0005 14.7581 27.7874C14.545 27.5743 14.2559 27.4546 13.9546 27.4546C13.6532 27.4546 13.3641 27.5743 13.151 27.7874C12.9379 28.0005 12.8182 28.2895 12.8182 28.5909V43.3636C12.7541 46.1025 13.3055 48.8208 14.4318 51.3182C14.8008 52.0243 15.0249 52.797 15.0909 53.5909V57Z" fill="#404040"/>
<path d="M31 57H28.7273V52.4545C28.7273 51.4091 29.75 50.5341 31.8636 48.8068C32.6568 48.2201 33.3913 47.5579 34.0568 46.8295C34.375 46.2841 36.2727 41.4205 38 36.8523C37.6633 36.6244 37.2699 36.4945 36.8636 36.4773C36.5421 36.509 36.2325 36.6161 35.9601 36.7899C35.6876 36.9636 35.4599 37.1991 35.2955 37.4773L31.6136 43.1591L28.75 40.4204V24.0454C28.75 23.7441 28.6303 23.455 28.4172 23.2419C28.2041 23.0288 27.915 22.9091 27.6137 22.9091C27.3123 22.9091 27.0232 23.0288 26.8101 23.2419C26.597 23.455 26.4773 23.7441 26.4773 24.0454H24.2046C24.2046 23.1413 24.5637 22.2742 25.203 21.6348C25.8424 20.9955 26.7095 20.6364 27.6137 20.6364C28.5178 20.6364 29.3849 20.9955 30.0242 21.6348C30.6636 22.2742 31.0227 23.1413 31.0227 24.0454V39.4659L31.2046 39.6363L33.4773 36.2272C33.8416 35.6441 34.3423 35.1584 34.9362 34.812C35.5302 34.4655 36.1995 34.2687 36.8864 34.2386C37.5399 34.2446 38.184 34.3943 38.7732 34.6771C39.3623 34.9599 39.8821 35.3688 40.2955 35.875L40.6932 36.3863L40.4659 36.9773C39.5568 39.3864 36.5568 47.284 36.0454 48.0909C35.267 49.0434 34.3651 49.8879 33.3636 50.6023C32.5526 51.2305 31.7926 51.9221 31.0909 52.6704L31 57Z" fill="#404040"/>
<path d="M37.2841 25.6818L26.0341 14.4318C25.9285 14.3253 25.8028 14.2408 25.6643 14.1831C25.5259 14.1254 25.3773 14.0957 25.2273 14.0957C25.0773 14.0957 24.9288 14.1254 24.7903 14.1831C24.6518 14.2408 24.5261 14.3253 24.4205 14.4318C24.3152 14.538 24.2318 14.6639 24.1753 14.8024C24.1187 14.9408 24.0901 15.0891 24.0909 15.2387H21.8182C21.8171 14.7892 21.9049 14.3439 22.0765 13.9285C22.2481 13.5131 22.5002 13.1358 22.8182 12.8182C23.4574 12.1798 24.3239 11.8212 25.2273 11.8212C26.1307 11.8212 26.9972 12.1798 27.6364 12.8182L38.8864 24.0568L37.2841 25.6818Z" fill="#404040"/>
<path d="M46.0568 50.9205C46.0568 50.9205 43.4773 47.9432 42.4319 46.9091C41.8945 46.5894 41.3001 46.3772 40.6818 46.2841C39.9298 46.1166 39.1926 45.8886 38.4773 45.6022L39.3864 43.5227C39.9814 43.754 40.593 43.9401 41.2159 44.0795C42.2517 44.2217 43.2295 44.6419 44.0455 45.2955C45.1818 46.4318 47.6705 49.3182 47.7727 49.4318L46.0568 50.9205Z" fill="#404040"/>
<path d="M44.1136 26.0341L31.6136 13.5909C31.508 13.4844 31.3823 13.3999 31.2439 13.3422C31.1054 13.2845 30.9568 13.2548 30.8068 13.2548C30.6568 13.2548 30.5083 13.2845 30.3698 13.3422C30.2313 13.3999 30.1057 13.4844 30 13.5909C29.8935 13.6965 29.809 13.8222 29.7513 13.9607C29.6936 14.0992 29.6639 14.2477 29.6639 14.3977C29.6639 14.5478 29.6936 14.6963 29.7513 14.8348C29.809 14.9732 29.8935 15.0989 30 15.2045L28.3977 16.8068C27.7593 16.1676 27.4007 15.3012 27.4007 14.3977C27.4007 13.4943 27.7593 12.6279 28.3977 11.9887C29.0481 11.3716 29.9104 11.0276 30.8068 11.0276C31.7033 11.0276 32.5656 11.3716 33.2159 11.9887L45.7159 24.4887L44.1136 26.0341Z" fill="#404040"/>
<path d="M56.2614 37.2728C55.4091 36.2387 53.0796 33.4432 52.5455 32.9091C52.0114 32.375 51.7728 30.7955 51.6932 28.3636C51.6978 27.5654 51.6446 26.7679 51.5341 25.9773C51.3637 25.3637 49.2614 20.75 47.125 16.3864C46.7065 16.6208 46.3576 16.9619 46.1137 17.375C45.9628 17.7071 45.8905 18.0695 45.9023 18.4341C45.9142 18.7987 46.0098 19.1556 46.1818 19.4773C47.2387 21.9773 47.0796 24.9091 45.8296 26.1705L45.7159 26.2614C44.6857 27.0358 43.9986 28.182 43.8012 29.4556C43.6038 30.7292 43.9116 32.0296 44.6591 33.0796L42.7614 34.3295C41.6944 32.8172 41.2536 30.951 41.531 29.1211C41.8085 27.2912 42.7827 25.6394 44.25 24.5113C44.5166 23.8457 44.6402 23.1315 44.6128 22.4149C44.5853 21.6984 44.4076 20.9956 44.0909 20.3523C43.7786 19.7237 43.6161 19.0314 43.6161 18.3295C43.6161 17.6277 43.7786 16.9354 44.0909 16.3068C44.4494 15.6745 44.9391 15.1262 45.5271 14.6989C46.1151 14.2716 46.7879 13.9752 47.5 13.8296L48.3637 13.6591L48.75 14.4546C50.1932 17.4546 53.5909 24.5455 53.7955 25.4773C53.939 26.4059 54.0074 27.3445 54 28.2841C53.9907 29.3165 54.0782 30.3476 54.2614 31.3637C55.0682 32.2046 57.7387 35.4318 58.0455 35.8068L56.2614 37.2728Z" fill="#404040"/>
<path d="M18.5 7H16.2273V13.8182H18.5V7Z" fill="#FA4616"/>
<path d="M10.2186 9.6029L8.61157 11.21L13.1596 15.758L14.7666 14.1509L10.2186 9.6029Z" fill="#FA4616"/>
<path d="M12.8182 17.2273H6V19.5H12.8182V17.2273Z" fill="#FA4616"/>
</svg>
