<svg width="64" height="64" viewBox="0 0 64 64" fill="none" xmlns="http://www.w3.org/2000/svg">
<path d="M32.75 44.5H30.6667V55.9583H32.75V44.5Z" fill="#404040"/>
<path d="M26.5 48.6667C26.3526 48.666 26.207 48.634 26.0729 48.5729L14.6146 43.3646C14.4318 43.2824 14.2766 43.1492 14.1676 42.9811C14.0586 42.813 14.0004 42.617 14 42.4167V41.375C14 41.1942 14.0471 41.0165 14.1366 40.8594C14.2261 40.7024 14.3549 40.5713 14.5104 40.4791L19.7187 37.3541C19.8681 37.2756 20.0344 37.2346 20.2031 37.2346C20.3719 37.2346 20.5381 37.2756 20.6875 37.3541L32.1458 42.5624C32.3267 42.6461 32.4797 42.7799 32.5868 42.9479C32.6938 43.1159 32.7505 43.3112 32.75 43.5104V44.5521C32.7493 44.7301 32.7029 44.9049 32.6154 45.0599C32.5278 45.2149 32.402 45.3449 32.25 45.4375L27.0417 48.5625C26.8737 48.6452 26.6866 48.6812 26.5 48.6667V48.6667ZM16.2708 41.8645L26.4167 46.4791L30.4375 44.0624L20.3021 39.4479L16.2708 41.8645Z" fill="#404040"/>
<path d="M36.9167 48.6667C36.7281 48.668 36.5433 48.6136 36.3854 48.5104L31.1771 45.3854C31.0231 45.2941 30.8952 45.1647 30.8058 45.0096C30.7164 44.8545 30.6685 44.679 30.6667 44.5V43.4583C30.6671 43.258 30.7253 43.062 30.8343 42.8938C30.9433 42.7257 31.0985 42.5925 31.2813 42.5104L42.7396 37.3021C42.889 37.2236 43.0552 37.1826 43.224 37.1826C43.3927 37.1826 43.5589 37.2236 43.7083 37.3021L48.9167 40.4271C49.0702 40.5205 49.197 40.6522 49.2846 40.8092C49.3722 40.9661 49.4177 41.1431 49.4167 41.3229V42.3645C49.4172 42.5638 49.3605 42.759 49.2534 42.927C49.1463 43.095 48.9933 43.2288 48.8125 43.3125L37.3542 48.5208C37.2202 48.5997 37.0711 48.6494 36.9167 48.6667V48.6667ZM32.9583 44.0312L36.9896 46.4479L47.125 41.8333L43.1042 39.4167L32.9583 44.0312Z" fill="#404040"/>
<path d="M20.25 39.2917C20.0614 39.293 19.8766 39.2386 19.7187 39.1354L14.5104 36.0104C14.3564 35.9191 14.2286 35.7897 14.1392 35.6346C14.0498 35.4795 14.0018 35.304 14 35.125V34.0833C14.0004 33.883 14.0586 33.687 14.1676 33.5188C14.2766 33.3507 14.4318 33.2175 14.6146 33.1354L25.0313 28.3958L25.8958 30.2917L16.2708 34.6562L20.3021 37.0729L26.0521 34.4583L26.9167 36.3542L20.6667 39.1979C20.5352 39.256 20.3937 39.2878 20.25 39.2917Z" fill="#404040"/>
<path d="M43.1667 39.2917C43.0193 39.291 42.8737 39.259 42.7396 39.1979L36.4896 36.3542L37.3542 34.4583L43.1042 37.0729L47.125 34.6562L37.5208 30.2917L38.3854 28.3958L48.8021 33.1354C48.9829 33.2191 49.1359 33.3528 49.243 33.5209C49.3501 33.6889 49.4067 33.8841 49.4062 34.0833V35.125C49.4055 35.303 49.3591 35.4779 49.2716 35.6329C49.1841 35.7879 49.0583 35.9178 48.9062 36.0104L43.6979 39.1354C43.5382 39.2345 43.3546 39.2885 43.1667 39.2917Z" fill="#404040"/>
<path d="M31.7083 57C31.5609 56.9993 31.4154 56.9673 31.2812 56.9062L19.8229 51.6979C19.6401 51.6157 19.485 51.4826 19.376 51.3144C19.2669 51.1463 19.2087 50.9504 19.2083 50.75V47.625H21.2917V50.0729L31.7083 54.8125L42.125 50.0729V47.625H44.2083V50.75C44.2088 50.9492 44.1522 51.1444 44.0451 51.3124C43.938 51.4804 43.785 51.6142 43.6042 51.6979L32.1458 56.9062C32.0079 56.967 31.859 56.9989 31.7083 57V57Z" fill="#404040"/>
<path d="M35.875 30.9583H33.7917V29.7395C33.78 29.0657 33.9061 28.3967 34.1623 27.7733C34.4184 27.15 34.7992 26.5855 35.2812 26.1146C35.7861 25.6825 36.1931 25.1477 36.4751 24.546C36.7571 23.9443 36.9076 23.2894 36.9167 22.625C36.9167 21.2437 36.3679 19.9188 35.3912 18.9421C34.4144 17.9653 33.0897 17.4167 31.7083 17.4167C30.327 17.4167 29.0022 17.9653 28.0255 18.9421C27.0487 19.9188 26.5 21.2437 26.5 22.625C26.5083 23.2906 26.6596 23.9466 26.9435 24.5487C27.2275 25.1507 27.6375 25.6848 28.1458 26.1146C28.6245 26.5875 29.0024 27.1525 29.2567 27.7755C29.5109 28.3986 29.6362 29.0667 29.625 29.7395V30.9583H27.5417V29.7395C27.5491 29.3421 27.4764 28.9473 27.3278 28.5786C27.1793 28.2099 26.958 27.8749 26.6771 27.5937C25.9776 26.9665 25.4156 26.2012 25.0266 25.346C24.6375 24.4908 24.4299 23.5644 24.4167 22.625C24.4167 20.6911 25.1849 18.8364 26.5523 17.469C27.9198 16.1015 29.7745 15.3333 31.7083 15.3333C33.6422 15.3333 35.4969 16.1015 36.8643 17.469C38.2318 18.8364 39 20.6911 39 22.625C38.9868 23.5644 38.7791 24.4908 38.3901 25.346C38.001 26.2012 37.4391 26.9665 36.7396 27.5937C36.4587 27.8749 36.2374 28.2099 36.0888 28.5786C35.9403 28.9473 35.8676 29.3421 35.875 29.7395V30.9583Z" fill="#FA4616"/>
<path d="M33.7917 36.1667H29.625C29.4872 36.1661 29.3508 36.1382 29.2239 36.0845C29.0969 36.0309 28.9819 35.9525 28.8854 35.8541L27.8437 34.8125C27.6513 34.6184 27.5428 34.3566 27.5417 34.0833V30.9583C27.5417 30.6821 27.6514 30.4171 27.8468 30.2217C28.0421 30.0264 28.3071 29.9167 28.5833 29.9167H34.8333C35.1096 29.9167 35.3745 30.0264 35.5699 30.2217C35.7652 30.4171 35.875 30.6821 35.875 30.9583V34.0833C35.8739 34.3566 35.7654 34.6184 35.5729 34.8125L34.5312 35.8541C34.4348 35.9525 34.3197 36.0309 34.1928 36.0845C34.0658 36.1382 33.9295 36.1661 33.7917 36.1667ZM30.0625 34.0833H33.3646L33.7917 33.6458V32H29.625V33.6458L30.0625 34.0833Z" fill="#FA4616"/>
<path d="M32.75 7H30.6667V13.25H32.75V7Z" fill="#FA4616"/>
<path d="M24.7986 8.55538L22.9944 9.59705L26.1194 15.0097L27.9236 13.968L24.7986 8.55538Z" fill="#FA4616"/>
<path d="M18.6966 13.9117L17.6549 15.7159L23.0676 18.8409L24.1092 17.0367L18.6966 13.9117Z" fill="#FA4616"/>
<path d="M22.3333 21.5833H16.0833V23.6667H22.3333V21.5833Z" fill="#FA4616"/>
<path d="M38.6419 8.50487L35.5178 13.9181L37.3222 14.9594L40.4463 9.54622L38.6419 8.50487Z" fill="#FA4616"/>
<path d="M44.6718 13.9572L39.2586 17.0813L40.3 18.8857L45.7132 15.7616L44.6718 13.9572Z" fill="#FA4616"/>
<path d="M47.3333 21.5833H41.0833V23.6667H47.3333V21.5833Z" fill="#FA4616"/>
</svg>
