<svg width="64" height="64" viewBox="0 0 64 64" fill="none" xmlns="http://www.w3.org/2000/svg">
<path d="M34.5319 57H12.1915C11.3451 57 10.5333 56.6638 9.93478 56.0653C9.33626 55.4667 9 54.6549 9 53.8085V10.1915C9 9.34505 9.33626 8.53327 9.93478 7.93475C10.5333 7.33623 11.3451 7 12.1915 7H34.5319C35.3784 7 36.1901 7.33623 36.7887 7.93475C37.3872 8.53327 37.7234 9.34505 37.7234 10.1915V17.6383H35.5957V10.1915C35.5957 9.90934 35.4837 9.63877 35.2842 9.43926C35.0847 9.23976 34.8141 9.12766 34.5319 9.12766H12.1915C11.9093 9.12766 11.6388 9.23976 11.4393 9.43926C11.2398 9.63877 11.1277 9.90934 11.1277 10.1915V53.8085C11.1277 54.0907 11.2398 54.3612 11.4393 54.5607C11.6388 54.7602 11.9093 54.8723 12.1915 54.8723H34.5319C34.8141 54.8723 35.0847 54.7602 35.2842 54.5607C35.4837 54.3612 35.5957 54.0907 35.5957 53.8085V46.3617H37.7234V53.8085C37.7234 54.6549 37.3872 55.4667 36.7887 56.0653C36.1901 56.6638 35.3784 57 34.5319 57Z" fill="#404040"/>
<path d="M36.6596 48.4894H10.0638V50.617H36.6596V48.4894Z" fill="#404040"/>
<path d="M24.9575 51.6808H21.766V53.8085H24.9575V51.6808Z" fill="#404040"/>
<path d="M41.9787 47.4255C41.8868 47.435 41.7941 47.435 41.7022 47.4255C41.0426 47.2447 29.2128 40.9574 29.2128 34.6596V22.9574C29.2128 22.6753 29.3249 22.4047 29.5244 22.2052C29.7239 22.0057 29.9945 21.8936 30.2766 21.8936C33.2766 21.8936 40.2872 18.1808 41.117 17.0213C41.2154 16.8829 41.3454 16.7701 41.4962 16.6923C41.6471 16.6145 41.8143 16.5739 41.9841 16.5739C42.1538 16.5739 42.321 16.6145 42.4719 16.6923C42.6227 16.7701 42.7527 16.8829 42.8511 17.0213C43.6702 18.1808 50.6915 21.8936 53.6809 21.8936C53.963 21.8936 54.2336 22.0057 54.4331 22.2052C54.6326 22.4047 54.7447 22.6753 54.7447 22.9574V34.6596C54.7447 40.9149 42.9255 47.2021 42.2553 47.4255C42.1635 47.4366 42.0706 47.4366 41.9787 47.4255V47.4255ZM31.3404 23.9255V34.6596C31.3404 38.8298 39.8511 44.1489 41.9787 45.2021C44 44.2021 52.617 38.8191 52.617 34.6596V23.9255C48.7791 23.0678 45.1583 21.4312 41.9787 19.117C38.7992 21.4312 35.1783 23.0678 31.3404 23.9255V23.9255Z" fill="#FA4616"/>
</svg>
