<svg width="64" height="64" viewBox="0 0 64 64" fill="none" xmlns="http://www.w3.org/2000/svg">
<path d="M25.3229 47.625H12.125C11.2962 47.625 10.5014 47.2958 9.9153 46.7097C9.32925 46.1237 9 45.3288 9 44.5V25.75C9 24.9212 9.32925 24.1263 9.9153 23.5403C10.5014 22.9542 11.2962 22.625 12.125 22.625H36.0833C36.9121 22.625 37.707 22.9542 38.2931 23.5403C38.8791 24.1263 39.2083 24.9212 39.2083 25.75V28.1875C39.2083 28.4638 39.0986 28.7287 38.9033 28.9241C38.7079 29.1194 38.4429 29.2292 38.1667 29.2292C37.8904 29.2292 37.6255 29.1194 37.4301 28.9241C37.2348 28.7287 37.125 28.4638 37.125 28.1875V25.75C37.125 25.4737 37.0153 25.2088 36.8199 25.0134C36.6246 24.8181 36.3596 24.7083 36.0833 24.7083H12.125C11.8487 24.7083 11.5838 24.8181 11.3884 25.0134C11.1931 25.2088 11.0833 25.4737 11.0833 25.75V44.5C11.0833 44.7763 11.1931 45.0412 11.3884 45.2366C11.5838 45.4319 11.8487 45.5417 12.125 45.5417H25.3229C25.5992 45.5417 25.8641 45.6514 26.0595 45.8468C26.2548 46.0421 26.3646 46.3071 26.3646 46.5833C26.3646 46.8596 26.2548 47.1246 26.0595 47.3199C25.8641 47.5153 25.5992 47.625 25.3229 47.625Z" fill="#404040"/>
<path d="M34 23.6667H31.9167V16.8958C31.9167 14.8238 31.0936 12.8367 29.6285 11.3716C28.1634 9.90643 26.1762 9.08333 24.1042 9.08333C22.0322 9.08333 20.0451 9.90643 18.58 11.3716C17.1148 12.8367 16.2917 14.8238 16.2917 16.8958V23.6667H14.2084V16.8958C14.2084 14.2713 15.251 11.7542 17.1068 9.89841C18.9626 8.04259 21.4797 7 24.1042 7C26.7287 7 29.2458 8.04259 31.1016 9.89841C32.9575 11.7542 34 14.2713 34 16.8958V23.6667Z" fill="#404040"/>
<path d="M47.5626 53.8958C45.7056 53.7563 43.9691 52.9234 42.698 51.5625C42.5889 51.4691 42.5004 51.3542 42.4378 51.225C42.3753 51.0957 42.3402 50.955 42.3346 50.8115C42.3291 50.6681 42.3533 50.525 42.4056 50.3913C42.458 50.2577 42.5374 50.1363 42.639 50.0347C42.7405 49.9332 42.8619 49.8538 42.9955 49.8014C43.1292 49.7491 43.2723 49.7249 43.4157 49.7304C43.5592 49.736 43.6999 49.7711 43.8292 49.8336C43.9584 49.8961 44.0733 49.9847 44.1667 50.0938C45.0552 51.0563 46.2608 51.6665 47.5626 51.8125V51.8125C47.8388 51.8125 48.1038 51.9223 48.2991 52.1176C48.4945 52.313 48.6042 52.5779 48.6042 52.8542C48.6042 53.1304 48.4945 53.3954 48.2991 53.5907C48.1038 53.7861 47.8388 53.8958 47.5626 53.8958Z" fill="#FA4616"/>
<path d="M34.9063 53.7292C34.63 53.7513 34.3563 53.6627 34.1453 53.483C33.9343 53.3033 33.8034 53.0471 33.7813 52.7708C33.7592 52.4946 33.8477 52.2208 34.0275 52.0098C34.2072 51.7989 34.4634 51.6679 34.7396 51.6458C38.3959 51.0312 40.25 48.2708 40.25 43.4479V42.4062C40.25 42.13 40.3598 41.865 40.5551 41.6697C40.7505 41.4743 41.0154 41.3646 41.2917 41.3646C41.568 41.3646 41.8329 41.4743 42.0283 41.6697C42.2236 41.865 42.3334 42.13 42.3334 42.4062V43.4479C42.3334 49.3646 39.8334 52.9062 35.0417 53.6979L34.9063 53.7292Z" fill="#FA4616"/>
<path d="M49.625 45.5417C49.3487 45.5417 49.0838 45.4319 48.8885 45.2366C48.6931 45.0412 48.5833 44.7763 48.5833 44.5V42.2708C48.5614 40.3571 47.7814 38.5303 46.4146 37.1907C45.0477 35.8512 43.2054 35.1083 41.2917 35.125C41.0833 35.125 40.875 35.125 40.6667 35.125C40.3904 35.1485 40.1161 35.0613 39.9042 34.8825C39.6922 34.7038 39.56 34.4481 39.5365 34.1719C39.513 33.8956 39.6002 33.6213 39.779 33.4094C39.9577 33.1974 40.2133 33.0652 40.4896 33.0417C40.7567 33.0261 41.0245 33.0261 41.2917 33.0417C43.7579 33.025 46.1301 33.9874 47.8877 35.7176C49.6452 37.4478 50.6447 39.8046 50.6667 42.2708V44.5C50.6667 44.7763 50.5569 45.0412 50.3616 45.2366C50.1662 45.4319 49.9013 45.5417 49.625 45.5417V45.5417Z" fill="#FA4616"/>
<path d="M32.9583 45.5417C32.682 45.5417 32.4171 45.4319 32.2217 45.2366C32.0264 45.0412 31.9166 44.7763 31.9166 44.5V42.2708C31.9245 40.6429 32.3633 39.0461 33.1885 37.6427C34.0137 36.2394 35.1958 35.0796 36.6146 34.2813C36.8526 34.1567 37.1296 34.129 37.3876 34.2038C37.6457 34.2787 37.8648 34.4504 37.9992 34.683C38.1337 34.9156 38.1731 35.1911 38.1092 35.4521C38.0452 35.713 37.883 35.9392 37.6562 36.0833C36.5572 36.702 35.6412 37.6001 35.0009 38.6866C34.3607 39.7732 34.019 41.0097 34.0104 42.2708V44.5C34.0104 44.6377 33.9831 44.774 33.9301 44.9011C33.8771 45.0281 33.7995 45.1434 33.7016 45.2403C33.6038 45.3372 33.4877 45.4137 33.3601 45.4654C33.2326 45.5171 33.096 45.5431 32.9583 45.5417Z" fill="#FA4616"/>
<path d="M49.6251 49.8125C48.9362 49.8479 48.2476 49.7391 47.6031 49.4932C46.9587 49.2473 46.3726 48.8696 45.8825 48.3843C45.3923 47.8991 45.0087 47.3168 44.7564 46.6749C44.504 46.033 44.3883 45.3454 44.4168 44.6562V42.4062C44.4168 41.5774 44.0875 40.7826 43.5015 40.1965C42.9154 39.6105 42.1206 39.2812 41.2918 39.2812C40.5531 39.2778 39.8372 39.5362 39.2709 40.0104C39.0602 40.1855 38.7891 40.2706 38.5161 40.2472C38.2432 40.2238 37.9904 40.0938 37.8126 39.8854C37.7243 39.7808 37.6575 39.6598 37.6159 39.5294C37.5744 39.3989 37.559 39.2615 37.5706 39.1251C37.5823 38.9887 37.6206 38.8559 37.6836 38.7344C37.7466 38.6128 37.8329 38.5049 37.9376 38.4167C38.8772 37.6281 40.0651 37.1965 41.2918 37.1979C42.6641 37.1978 43.981 37.7394 44.9563 38.7049C45.9316 39.6705 46.4864 40.9819 46.5001 42.3542V42.3542V44.6146C46.4697 45.0304 46.5301 45.4479 46.6772 45.838C46.8242 46.2282 47.0544 46.5817 47.3517 46.874C47.649 47.1664 48.0063 47.3905 48.3989 47.531C48.7914 47.6715 49.2098 47.7249 49.6251 47.6875C49.9014 47.6875 50.1663 47.7972 50.3617 47.9926C50.557 48.1879 50.6668 48.4529 50.6668 48.7292C50.6668 49.0054 50.557 49.2704 50.3617 49.4657C50.1663 49.6611 49.9014 49.7708 49.6251 49.7708V49.8125Z" fill="#FA4616"/>
<path d="M32.9583 49.7083C32.682 49.7083 32.4171 49.5986 32.2217 49.4032C32.0264 49.2079 31.9166 48.9429 31.9166 48.6667C31.9166 48.3904 32.0264 48.1254 32.2217 47.9301C32.4171 47.7347 32.682 47.625 32.9583 47.625C35.0416 47.625 36.0833 46.5833 36.0833 44.5V42.4167C36.0833 42.1404 36.1931 41.8754 36.3884 41.6801C36.5838 41.4847 36.8487 41.375 37.125 41.375C37.4012 41.375 37.6662 41.4847 37.8615 41.6801C38.0569 41.8754 38.1666 42.1404 38.1666 42.4167V44.5C38.1666 47.7604 36.2187 49.7083 32.9583 49.7083Z" fill="#FA4616"/>
<path d="M28.7917 37.2083C28.5154 37.2083 28.2505 37.0986 28.0551 36.9032C27.8598 36.7079 27.75 36.4429 27.75 36.1667V30.9583C27.75 30.6821 27.8598 30.4171 28.0551 30.2218C28.2505 30.0264 28.5154 29.9167 28.7917 29.9167H32.9583C33.2346 29.9167 33.4996 30.0264 33.6949 30.2218C33.8903 30.4171 34 30.6821 34 30.9583C34 31.2346 33.8903 31.4995 33.6949 31.6949C33.4996 31.8902 33.2346 32 32.9583 32H29.8333V36.1667C29.8333 36.4429 29.7236 36.7079 29.5283 36.9032C29.3329 37.0986 29.0679 37.2083 28.7917 37.2083Z" fill="#404040"/>
<path d="M53.7917 37.2083C53.5154 37.2083 53.2505 37.0986 53.0552 36.9032C52.8598 36.7079 52.75 36.4429 52.75 36.1667V32H49.625C49.3488 32 49.0838 31.8902 48.8885 31.6949C48.6931 31.4995 48.5834 31.2346 48.5834 30.9583C48.5834 30.6821 48.6931 30.4171 48.8885 30.2218C49.0838 30.0264 49.3488 29.9167 49.625 29.9167H53.7917C54.068 29.9167 54.3329 30.0264 54.5283 30.2218C54.7236 30.4171 54.8334 30.6821 54.8334 30.9583V36.1667C54.8334 36.4429 54.7236 36.7079 54.5283 36.9032C54.3329 37.0986 54.068 37.2083 53.7917 37.2083Z" fill="#404040"/>
<path d="M32.9583 57H28.7917C28.5154 57 28.2505 56.8903 28.0551 56.6949C27.8598 56.4996 27.75 56.2346 27.75 55.9583V50.75C27.75 50.4737 27.8598 50.2088 28.0551 50.0134C28.2505 49.8181 28.5154 49.7083 28.7917 49.7083C29.0679 49.7083 29.3329 49.8181 29.5283 50.0134C29.7236 50.2088 29.8333 50.4737 29.8333 50.75V54.9167H32.9583C33.2346 54.9167 33.4996 55.0264 33.6949 55.2218C33.8903 55.4171 34 55.6821 34 55.9583C34 56.2346 33.8903 56.4996 33.6949 56.6949C33.4996 56.8903 33.2346 57 32.9583 57Z" fill="#404040"/>
<path d="M53.7917 57H49.625C49.3488 57 49.0838 56.8903 48.8885 56.6949C48.6931 56.4996 48.5834 56.2346 48.5834 55.9583C48.5834 55.6821 48.6931 55.4171 48.8885 55.2218C49.0838 55.0264 49.3488 54.9167 49.625 54.9167H52.75V50.75C52.75 50.4737 52.8598 50.2088 53.0552 50.0134C53.2505 49.8181 53.5154 49.7083 53.7917 49.7083C54.068 49.7083 54.3329 49.8181 54.5283 50.0134C54.7236 50.2088 54.8334 50.4737 54.8334 50.75V55.9583C54.8334 56.2346 54.7236 56.4996 54.5283 56.6949C54.3329 56.8903 54.068 57 53.7917 57Z" fill="#404040"/>
</svg>
