<svg width="64" height="64" viewBox="0 0 64 64" fill="none" xmlns="http://www.w3.org/2000/svg">
<path d="M23.6667 30.9167C23.4716 30.9173 23.2804 30.8631 23.1146 30.7604C22.9645 30.6666 22.8407 30.5361 22.7551 30.3811C22.6694 30.2262 22.6246 30.052 22.625 29.875V24.6667H24.7083V28.1979L27.3646 26.8646L28.3021 28.7291L24.1354 30.8125C23.9894 30.8832 23.8289 30.9189 23.6667 30.9167V30.9167Z" fill="#FA4616"/>
<path d="M19.9583 26.9175L19.0265 28.7808L23.191 30.8635L24.1228 29.0002L19.9583 26.9175Z" fill="#FA4616"/>
<path d="M26.0522 33.7395L23.6668 31.3541L21.3334 33.7395L19.8542 32.2708L22.9792 29.1458C23.0761 29.0482 23.1913 28.9707 23.3182 28.9178C23.4452 28.8649 23.5813 28.8377 23.7188 28.8377C23.8563 28.8377 23.9925 28.8649 24.1194 28.9178C24.2464 28.9707 24.3616 29.0482 24.4584 29.1458L27.5834 32.2708L26.0522 33.7395Z" fill="#FA4616"/>
<path d="M35.1249 30.9167C34.9299 30.9173 34.7386 30.8631 34.5728 30.7604C34.4227 30.6666 34.299 30.5361 34.2133 30.3811C34.1277 30.2262 34.0829 30.052 34.0833 29.875V24.6667H36.1666V28.1979L38.8228 26.8646L39.7603 28.7291L35.5937 30.8125C35.4477 30.8832 35.2872 30.9189 35.1249 30.9167V30.9167Z" fill="#FA4616"/>
<path d="M31.417 26.9089L30.4851 28.7722L34.6496 30.8549L35.5814 28.9916L31.417 26.9089Z" fill="#FA4616"/>
<path d="M37.5104 33.7395L35.125 31.3541L32.7917 33.7395L31.3125 32.2708L34.4375 29.1458C34.5343 29.0482 34.6495 28.9707 34.7765 28.9178C34.9034 28.8649 35.0396 28.8377 35.1771 28.8377C35.3146 28.8377 35.4507 28.8649 35.5777 28.9178C35.7046 28.9707 35.8198 29.0482 35.9167 29.1458L39.0417 32.2708L37.5104 33.7395Z" fill="#FA4616"/>
<path d="M46.5833 30.9167C46.3883 30.9173 46.197 30.8631 46.0312 30.7604C45.8811 30.6666 45.7574 30.5361 45.6717 30.3811C45.586 30.2262 45.5413 30.052 45.5416 29.875V24.6667H47.625V28.1979L50.2812 26.8646L51.2187 28.7291L47.052 30.8125C46.906 30.8832 46.7455 30.9189 46.5833 30.9167V30.9167Z" fill="#FA4616"/>
<path d="M42.8755 26.9107L41.9436 28.774L46.1081 30.8567L47.0399 28.9934L42.8755 26.9107Z" fill="#FA4616"/>
<path d="M48.9688 33.7395L46.5834 31.3541L44.25 33.7395L42.7709 32.2708L45.8959 29.1458C45.9927 29.0482 46.1079 28.9707 46.2349 28.9178C46.3618 28.8649 46.4979 28.8377 46.6354 28.8377C46.773 28.8377 46.9091 28.8649 47.0361 28.9178C47.163 28.9707 47.2782 29.0482 47.375 29.1458L50.5 32.2708L48.9688 33.7395Z" fill="#FA4616"/>
<path d="M23.6667 45.5C23.5111 45.5005 23.3573 45.4662 23.2167 45.3995C23.0761 45.3328 22.9522 45.2354 22.8542 45.1146L19 40.2917H16.375C15.5462 40.2917 14.7513 39.9624 14.1653 39.3764C13.5792 38.7903 13.25 37.9955 13.25 37.1667V21.5417C13.25 20.7129 13.5792 19.918 14.1653 19.3319C14.7513 18.7459 15.5462 18.4167 16.375 18.4167H53.875C54.7038 18.4167 55.4986 18.7459 56.0847 19.3319C56.6707 19.918 57 20.7129 57 21.5417V37.1667C57 37.9955 56.6707 38.7903 56.0847 39.3764C55.4986 39.9624 54.7038 40.2917 53.875 40.2917H28.3333L24.4792 45.1146C24.3811 45.2354 24.2573 45.3328 24.1166 45.3995C23.976 45.4662 23.8223 45.5005 23.6667 45.5ZM16.375 20.5C16.0987 20.5 15.8338 20.6098 15.6384 20.8051C15.4431 21.0005 15.3333 21.2654 15.3333 21.5417V37.1667C15.3333 37.4429 15.4431 37.7079 15.6384 37.9032C15.8338 38.0986 16.0987 38.2083 16.375 38.2083H19.5C19.6565 38.2091 19.8108 38.245 19.9514 38.3136C20.0921 38.3821 20.2155 38.4814 20.3125 38.6042L23.6667 42.7708L27.0208 38.6042C27.1178 38.4814 27.2413 38.3821 27.3819 38.3136C27.5226 38.245 27.6769 38.2091 27.8333 38.2083H53.875C54.1513 38.2083 54.4162 38.0986 54.6116 37.9032C54.8069 37.7079 54.9167 37.4429 54.9167 37.1667V21.5417C54.9167 21.2654 54.8069 21.0005 54.6116 20.8051C54.4162 20.6098 54.1513 20.5 53.875 20.5H16.375Z" fill="#404040"/>
<path d="M32 56.9583H10.125C9.2962 56.9583 8.50135 56.6291 7.9153 56.0431C7.32925 55.457 7 54.6621 7 53.8333V11.125C7 10.2962 7.32925 9.50132 7.9153 8.91527C8.50135 8.32922 9.2962 8 10.125 8H32C32.8288 8 33.6236 8.32922 34.2097 8.91527C34.7957 9.50132 35.125 10.2962 35.125 11.125V17.375H33.0417V11.125C33.0417 10.8487 32.9319 10.5838 32.7366 10.3884C32.5412 10.1931 32.2763 10.0833 32 10.0833H10.125C9.84873 10.0833 9.58378 10.1931 9.38843 10.3884C9.19308 10.5838 9.08333 10.8487 9.08333 11.125V53.8333C9.08333 54.1096 9.19308 54.3745 9.38843 54.5699C9.58378 54.7652 9.84873 54.875 10.125 54.875H32C32.2763 54.875 32.5412 54.7652 32.7366 54.5699C32.9319 54.3745 33.0417 54.1096 33.0417 53.8333V41.3333H35.125V53.8333C35.125 54.6621 34.7957 55.457 34.2097 56.0431C33.6236 56.6291 32.8288 56.9583 32 56.9583Z" fill="#404040"/>
<path d="M34.0833 48.625H8.04163V50.7083H34.0833V48.625Z" fill="#404040"/>
<path d="M22.625 51.75H19.5V53.8333H22.625V51.75Z" fill="#404040"/>
</svg>
