<svg width="64" height="64" viewBox="0 0 64 64" fill="none" xmlns="http://www.w3.org/2000/svg">
<path d="M49.6117 55.2242H14.3772C14.0852 55.2242 13.8051 55.1082 13.5986 54.9017C13.3921 54.6952 13.2761 54.4151 13.2761 54.1231V32.1015H15.4783V53.022H48.5107V32.1015H50.7128V54.1231C50.7128 54.4151 50.5968 54.6952 50.3903 54.9017C50.1838 55.1082 49.9038 55.2242 49.6117 55.2242Z" fill="#404040"/>
<path d="M55.4475 35.0854L31.9945 11.6325L8.55253 35.0854L7 33.5439L31.2237 9.3202C31.43 9.11512 31.7091 9 32 9C32.2909 9 32.57 9.11512 32.7763 9.3202L57 33.5439L55.4475 35.0854Z" fill="#404040"/>
<path d="M17.6804 21.0907H15.4783V11.181C15.4783 10.889 15.5943 10.6089 15.8008 10.4024C16.0072 10.1959 16.2873 10.0799 16.5794 10.0799H22.0847C22.3768 10.0799 22.6568 10.1959 22.8633 10.4024C23.0698 10.6089 23.1858 10.889 23.1858 11.181V15.5853H20.9837V12.2821H17.6804V21.0907Z" fill="#404040"/>
<path d="M39.702 48.6177H24.2869C23.7028 48.6177 23.1427 48.3857 22.7297 47.9727C22.3167 47.5597 22.0847 46.9996 22.0847 46.4156V34.3037C22.0847 33.7196 22.3167 33.1595 22.7297 32.7465C23.1427 32.3335 23.7028 32.1015 24.2869 32.1015H39.702C40.286 32.1015 40.8462 32.3335 41.2591 32.7465C41.6721 33.1595 41.9041 33.7196 41.9041 34.3037V46.4156C41.9041 46.9996 41.6721 47.5597 41.2591 47.9727C40.8462 48.3857 40.286 48.6177 39.702 48.6177ZM24.2869 34.3037V46.4156H39.702V34.3037H24.2869Z" fill="#FA4616"/>
<path d="M38.6009 34.3037H25.3879V27.6972C25.3879 25.9451 26.084 24.2647 27.3229 23.0257C28.5619 21.7868 30.2423 21.0907 31.9944 21.0907C33.7466 21.0907 35.4269 21.7868 36.6659 23.0257C37.9049 24.2647 38.6009 25.9451 38.6009 27.6972V34.3037ZM27.5901 32.1015H36.3987V27.6972C36.3987 26.5291 35.9347 25.4089 35.1087 24.5829C34.2828 23.7569 33.1625 23.2929 31.9944 23.2929C30.8263 23.2929 29.7061 23.7569 28.8801 24.5829C28.0541 25.4089 27.5901 26.5291 27.5901 27.6972V32.1015Z" fill="#FA4616"/>
</svg>
