<svg width="64" height="64" viewBox="0 0 64 64" fill="none" xmlns="http://www.w3.org/2000/svg">
<path d="M45.5671 54.8476H41.4C40.2949 54.8476 39.235 54.4085 38.4535 53.6271C37.6721 52.8456 37.233 51.7857 37.233 50.6805V44.43C37.233 43.3249 37.6721 42.265 38.4535 41.4835C39.235 40.702 40.2949 40.263 41.4 40.263H45.5671C46.6722 40.263 47.7321 40.702 48.5136 41.4835C49.295 42.265 49.7341 43.3249 49.7341 44.43V50.6805C49.7341 51.7857 49.295 52.8456 48.5136 53.6271C47.7321 54.4085 46.6722 54.8476 45.5671 54.8476ZM41.4 42.3465C40.8475 42.3465 40.3175 42.566 39.9268 42.9567C39.536 43.3475 39.3165 43.8774 39.3165 44.43V50.6805C39.3165 51.2331 39.536 51.763 39.9268 52.1538C40.3175 52.5445 40.8475 52.7641 41.4 52.7641H45.5671C46.1196 52.7641 46.6496 52.5445 47.0403 52.1538C47.4311 51.763 47.6506 51.2331 47.6506 50.6805V44.43C47.6506 43.8774 47.4311 43.3475 47.0403 42.9567C46.6496 42.566 46.1196 42.3465 45.5671 42.3465H41.4Z" fill="#404040"/>
<path d="M43.4835 48.597H33.0659C31.4082 48.597 29.8184 47.9385 28.6462 46.7663C27.474 45.5941 26.8154 44.0043 26.8154 42.3465V39.2213H28.8989V42.3465C28.8989 43.4517 29.338 44.5116 30.1194 45.2931C30.9009 46.0745 31.9608 46.5135 33.0659 46.5135H43.4835V48.597Z" fill="#404040"/>
<path d="M30.6803 41.3048H25.0341C24.4427 41.3393 23.8615 41.1403 23.4154 40.7506C22.9692 40.361 22.6938 39.8119 22.6484 39.2213V35.0543H24.7319V39.2213C24.7319 39.2213 24.8361 39.2213 25.0341 39.2213H30.6803C30.7368 39.2267 30.7938 39.2202 30.8476 39.2023C30.9015 39.1843 30.951 39.1553 30.9929 39.1171V35.0543H33.0764V39.2213C33.0284 39.8128 32.7508 40.362 32.303 40.7513C31.8552 41.1407 31.2728 41.3394 30.6803 41.3048V41.3048Z" fill="#404040"/>
<path d="M41.5771 32.1165C38.2435 32.1165 35.4933 29.085 35.0349 24.8971C35.0164 24.7252 35.041 24.5514 35.1065 24.3913C35.172 24.2313 35.2763 24.0901 35.4099 23.9804C36.5295 22.9793 37.3514 21.6888 37.7851 20.2509C38.3805 18.6378 39.2279 17.1294 40.2958 15.7818C40.3811 15.6749 40.4866 15.5858 40.6064 15.5196C40.7262 15.4535 40.8578 15.4116 40.9937 15.3963C41.188 15.3857 41.3828 15.3857 41.5771 15.3963C45.2232 15.3963 48.1922 19.1467 48.1922 23.7304C48.1922 28.3141 45.2232 32.1165 41.5771 32.1165ZM37.1809 25.1888C37.6601 27.9807 39.4936 30.033 41.5771 30.033C44.0773 30.033 46.1087 27.2098 46.1087 23.7824C46.1087 20.3551 44.1086 17.5319 41.6396 17.5319C40.8451 18.6013 40.21 19.7804 39.754 21.0322C39.2286 22.5978 38.3479 24.0204 37.1809 25.1888V25.1888Z" fill="#FA4616"/>
<path d="M52.0987 24.9597H50.0152V24.7826C50.042 23.4845 49.9444 22.1867 49.7235 20.9072L51.807 20.5322C52.0504 21.9354 52.1586 23.3587 52.13 24.7826L52.0987 24.9597Z" fill="#404040"/>
<path d="M41.7645 36.096H21.5129C16.825 36.096 12.8142 32.8457 11.0953 27.762H8.04301C7.76672 27.762 7.50173 27.6522 7.30636 27.4568C7.11099 27.2615 7.00125 26.9965 7.00125 26.7202C6.94917 20.8239 8.5222 16.0944 11.5433 13.0524C14.2102 10.3647 17.9084 9 22.5338 9H44.9836C47.7563 9.0208 50.4402 9.9808 52.5971 11.7233C54.7539 13.4659 56.2565 15.8881 56.8595 18.5946C57.0443 19.4294 57.0468 20.2943 56.867 21.1303C56.6873 21.9662 56.3294 22.7536 55.8178 23.4387C54.9186 24.6637 53.6039 25.5192 52.1196 25.8451C51.8219 28.1949 50.9131 30.4256 49.4839 32.3144C48.5856 33.5078 47.4183 34.4722 46.0769 35.1293C44.7356 35.7864 43.2581 36.1176 41.7645 36.096V36.096ZM13.3351 27.762C14.8456 31.5956 17.9501 34.0125 21.5129 34.0125H41.7645C42.9408 34.0317 44.1049 33.7727 45.1621 33.2568C46.2194 32.7409 47.1397 31.9825 47.8484 31.0435C49.2053 29.228 50.0019 27.0554 50.1402 24.793C50.164 24.5489 50.2732 24.321 50.4486 24.1495C50.6239 23.978 50.8541 23.8739 51.0986 23.8554C51.7 23.8101 52.2843 23.6348 52.8113 23.3417C53.3383 23.0485 53.7954 22.6444 54.151 22.1573C54.4876 21.7185 54.7245 21.2115 54.845 20.6718C54.9656 20.132 54.9669 19.5724 54.849 19.0321C54.352 16.7848 53.108 14.7724 51.3201 13.3231C49.5322 11.8738 47.3058 11.0734 45.0044 11.0523H22.5546C18.5022 11.0523 15.2623 12.2086 13.0434 14.4901C10.5953 16.959 9.24102 20.7406 9.11601 25.6368H31.0762C32.6086 25.5135 34.0692 24.9348 35.2703 23.9751C36.4713 23.0153 37.3579 21.7184 37.8163 20.2509C38.9622 17.0527 42.15 12.292 46.2545 12.292V14.3755C43.7022 14.3755 40.9103 17.782 39.7852 20.9489C39.1848 22.808 38.0431 24.4456 36.5064 25.6519C34.9698 26.8582 33.108 27.5785 31.1595 27.7203L13.3351 27.762Z" fill="#404040"/>
</svg>
