<svg width="64" height="64" viewBox="0 0 64 64" fill="none" xmlns="http://www.w3.org/2000/svg">
<path d="M43.6042 53.7327H37.4944V47.6338L39.6726 45.9131V45.1942L37.4944 43.125V40.7508L39.6726 38.2786V37.5053L37.4944 35.7846V29.0976C34.8697 26.7234 31.9401 23.162 31.9401 19.0889C31.9401 15.8827 33.2137 12.8078 35.4808 10.5407C37.7479 8.27363 40.8228 7 44.0289 7C47.2351 7 50.3099 8.27363 52.577 10.5407C54.8441 12.8078 56.1178 15.8827 56.1178 19.0889C56.1178 24.7957 53.3079 28.8906 48.3853 30.448V48.5813L43.6042 53.7327ZM39.6726 51.5545H42.6458L46.2071 47.7209V28.7709L47.0239 28.5748C53.0357 27.0828 53.9396 22.0403 53.9396 19.0889C53.9396 16.4604 52.8954 13.9395 51.0368 12.0809C49.1782 10.2223 46.6574 9.17817 44.0289 9.17817C41.4005 9.17817 38.8796 10.2223 37.021 12.0809C35.1624 13.9395 34.1182 16.4604 34.1182 19.0889C34.1182 22.5413 36.9281 25.7214 39.2914 27.8016L39.6726 28.1174V34.739L41.8508 36.4598V39.1607L39.6726 41.6221V42.2429L41.8508 44.3121V47.0239L39.6726 48.7447V51.5545Z" fill="#404040"/>
<path d="M44.029 19.9711C43.1674 19.9711 42.3251 19.7156 41.6087 19.2369C40.8923 18.7582 40.3339 18.0778 40.0042 17.2818C39.6745 16.4858 39.5882 15.6099 39.7563 14.7648C39.9244 13.9198 40.3393 13.1436 40.9486 12.5343C41.5578 11.9251 42.334 11.5102 43.1791 11.3421C44.0241 11.174 44.9001 11.2603 45.6961 11.59C46.4921 11.9197 47.1724 12.4781 47.6511 13.1945C48.1298 13.9109 48.3853 14.7531 48.3853 15.6147C48.3853 16.7701 47.9263 17.8782 47.1093 18.6951C46.2924 19.5121 45.1843 19.9711 44.029 19.9711ZM44.029 13.4366C43.5982 13.4366 43.177 13.5643 42.8188 13.8036C42.4606 14.043 42.1814 14.3832 42.0166 14.7812C41.8517 15.1792 41.8086 15.6171 41.8926 16.0397C41.9767 16.4622 42.1841 16.8503 42.4888 17.1549C42.7934 17.4596 43.1815 17.667 43.604 17.751C44.0265 17.8351 44.4645 17.792 44.8625 17.6271C45.2605 17.4623 45.6007 17.1831 45.84 16.8249C46.0794 16.4667 46.2071 16.0455 46.2071 15.6147C46.2071 15.037 45.9776 14.483 45.5691 14.0745C45.1607 13.666 44.6067 13.4366 44.029 13.4366Z" fill="#404040"/>
<path d="M25.5145 26.5056H22.7591L18.3047 19.9711H14.6237V17.7929H19.4592L23.9136 24.3274H25.5145V26.5056Z" fill="#FA4616"/>
<path d="M20.0691 29.7728H14.6237V31.951H20.0691V29.7728Z" fill="#FA4616"/>
<path d="M11.3564 23.2383C10.4948 23.2383 9.65249 22.9828 8.9361 22.5041C8.2197 22.0255 7.66134 21.3451 7.33162 20.5491C7.00189 19.753 6.91562 18.8771 7.08371 18.0321C7.2518 17.187 7.66671 16.4108 8.27596 15.8016C8.8852 15.1923 9.66143 14.7774 10.5065 14.6093C11.3515 14.4412 12.2274 14.5275 13.0235 14.8572C13.8195 15.187 14.4998 15.7453 14.9785 16.4617C15.4572 17.1781 15.7127 18.0204 15.7127 18.882C15.7127 20.0374 15.2537 21.1454 14.4367 21.9624C13.6198 22.7794 12.5117 23.2383 11.3564 23.2383ZM11.3564 16.7038C10.9256 16.7038 10.5044 16.8316 10.1462 17.0709C9.78803 17.3102 9.50883 17.6504 9.34397 18.0484C9.17911 18.4464 9.13599 18.8844 9.22003 19.3069C9.30408 19.7295 9.51154 20.1175 9.81616 20.4222C10.1208 20.7268 10.5089 20.9342 10.9314 21.0183C11.3539 21.1023 11.7919 21.0592 12.1899 20.8944C12.5879 20.7295 12.9281 20.4503 13.1674 20.0921C13.4068 19.7339 13.5345 19.3128 13.5345 18.882C13.5345 18.3043 13.305 17.7503 12.8965 17.3418C12.488 16.9333 11.934 16.7038 11.3564 16.7038Z" fill="#FA4616"/>
<path d="M19.4701 43.931H14.6237V41.7528H18.2939L22.6066 35.2183H25.5145V37.3964H23.7828L19.4701 43.931Z" fill="#FA4616"/>
<path d="M11.3564 47.1982C10.4948 47.1982 9.65249 46.9427 8.9361 46.464C8.2197 45.9854 7.66134 45.305 7.33162 44.5089C7.00189 43.7129 6.91562 42.837 7.08371 41.992C7.2518 41.1469 7.66671 40.3707 8.27596 39.7615C8.8852 39.1522 9.66143 38.7373 10.5065 38.5692C11.3515 38.4011 12.2274 38.4874 13.0235 38.8172C13.8195 39.1469 14.4998 39.7052 14.9785 40.4216C15.4572 41.138 15.7127 41.9803 15.7127 42.8419C15.7127 43.9973 15.2537 45.1053 14.4367 45.9223C13.6198 46.7393 12.5117 47.1982 11.3564 47.1982ZM11.3564 40.6637C10.9256 40.6637 10.5044 40.7914 10.1462 41.0308C9.78803 41.2701 9.50883 41.6103 9.34397 42.0083C9.17911 42.4063 9.13599 42.8443 9.22003 43.2668C9.30408 43.6894 9.51154 44.0774 9.81616 44.382C10.1208 44.6867 10.5089 44.8941 10.9314 44.9782C11.3539 45.0622 11.7919 45.0191 12.1899 44.8543C12.5879 44.6894 12.9281 44.4102 13.1674 44.052C13.4068 43.6938 13.5345 43.2727 13.5345 42.8419C13.5345 42.2642 13.305 41.7101 12.8965 41.3016C12.488 40.8932 11.934 40.6637 11.3564 40.6637Z" fill="#FA4616"/>
<path d="M11.3564 35.2183C10.4948 35.2183 9.65249 34.9628 8.9361 34.4841C8.2197 34.0054 7.66134 33.325 7.33162 32.529C7.00189 31.733 6.91562 30.8571 7.08371 30.012C7.2518 29.167 7.66671 28.3908 8.27596 27.7815C8.8852 27.1723 9.66143 26.7574 10.5065 26.5893C11.3515 26.4212 12.2274 26.5075 13.0235 26.8372C13.8195 27.1669 14.4998 27.7253 14.9785 28.4417C15.4572 29.1581 15.7127 30.0003 15.7127 30.8619C15.7127 32.0173 15.2537 33.1254 14.4367 33.9423C13.6198 34.7593 12.5117 35.2183 11.3564 35.2183ZM11.3564 28.6838C10.9256 28.6838 10.5044 28.8115 10.1462 29.0508C9.78803 29.2902 9.50883 29.6304 9.34397 30.0284C9.17911 30.4264 9.13599 30.8644 9.22003 31.2869C9.30408 31.7094 9.51154 32.0975 9.81616 32.4021C10.1208 32.7067 10.5089 32.9142 10.9314 32.9982C11.3539 33.0823 11.7919 33.0392 12.1899 32.8743C12.5879 32.7095 12.9281 32.4303 13.1674 32.0721C13.4068 31.7139 13.5345 31.2927 13.5345 30.8619C13.5345 30.2842 13.305 29.7302 12.8965 29.3217C12.488 28.9132 11.934 28.6838 11.3564 28.6838Z" fill="#FA4616"/>
<path d="M22.0402 49.9972L20.265 48.7447L25.9391 40.6637H33.138V42.8419H27.0718L22.0402 49.9972Z" fill="#FA4616"/>
<path d="M18.98 57C18.1184 57 17.2762 56.7445 16.5598 56.2658C15.8434 55.7871 15.285 55.1067 14.9553 54.3107C14.6256 53.5147 14.5393 52.6388 14.7074 51.7937C14.8755 50.9487 15.2904 50.1725 15.8996 49.5632C16.5089 48.954 17.2851 48.5391 18.1301 48.371C18.9752 48.2029 19.8511 48.2892 20.6471 48.6189C21.4431 48.9487 22.1235 49.507 22.6022 50.2234C23.0809 50.9398 23.3364 51.782 23.3364 52.6437C23.3364 53.799 22.8774 54.9071 22.0604 55.7241C21.2434 56.541 20.1354 57 18.98 57ZM18.98 50.4655C18.5492 50.4655 18.1281 50.5932 17.7699 50.8325C17.4117 51.0719 17.1325 51.4121 16.9676 51.8101C16.8028 52.2081 16.7596 52.6461 16.8437 53.0686C16.9277 53.4911 17.1352 53.8792 17.4398 54.1838C17.7444 54.4884 18.1325 54.6959 18.5551 54.7799C18.9776 54.864 19.4155 54.8209 19.8136 54.656C20.2116 54.4912 20.5518 54.212 20.7911 53.8538C21.0304 53.4956 21.1582 53.0745 21.1582 52.6437C21.1582 52.066 20.9287 51.5119 20.5202 51.1034C20.1117 50.6949 19.5577 50.4655 18.98 50.4655Z" fill="#FA4616"/>
<path d="M28.7817 29.7728H26.6035V31.951H28.7817V29.7728Z" fill="#FA4616"/>
<path d="M24.4254 29.7728H22.2472V31.951H24.4254V29.7728Z" fill="#FA4616"/>
<path d="M29.8708 24.3274H27.6926V26.5056H29.8708V24.3274Z" fill="#FA4616"/>
<path d="M29.8708 35.2183H27.6926V37.3964H29.8708V35.2183Z" fill="#FA4616"/>
<path d="M35.3163 29.7728H30.96V31.951H35.3163V29.7728Z" fill="#FA4616"/>
<path d="M34.2271 35.2183H32.049V37.3964H34.2271V35.2183Z" fill="#FA4616"/>
</svg>
