<svg width="64" height="64" viewBox="0 0 64 64" fill="none" xmlns="http://www.w3.org/2000/svg">
<path d="M11.1667 48.4584C10.8904 48.4584 10.6254 48.3486 10.4301 48.1533C10.2347 47.9579 10.125 47.693 10.125 47.4167V22.4167C10.125 21.5879 10.4542 20.793 11.0403 20.207C11.6263 19.6209 12.4212 19.2917 13.25 19.2917H15.3333C15.6096 19.2917 15.8745 19.4014 16.0699 19.5968C16.2653 19.7921 16.375 20.0571 16.375 20.3334C16.375 20.6096 16.2653 20.8746 16.0699 21.0699C15.8745 21.2653 15.6096 21.375 15.3333 21.375H13.25C12.9737 21.375 12.7088 21.4848 12.5134 21.6801C12.3181 21.8755 12.2083 22.1404 12.2083 22.4167V47.4167C12.2083 47.693 12.0986 47.9579 11.9032 48.1533C11.7079 48.3486 11.4429 48.4584 11.1667 48.4584Z" fill="#404040"/>
<path d="M52.8333 48.4584C52.5571 48.4584 52.2921 48.3486 52.0968 48.1533C51.9014 47.9579 51.7917 47.693 51.7917 47.4167V22.4167C51.7917 22.1404 51.6819 21.8755 51.4866 21.6801C51.2912 21.4848 51.0263 21.375 50.75 21.375H48.6667C48.3904 21.375 48.1254 21.2653 47.9301 21.0699C47.7347 20.8746 47.625 20.6096 47.625 20.3334C47.625 20.0571 47.7347 19.7921 47.9301 19.5968C48.1254 19.4014 48.3904 19.2917 48.6667 19.2917H50.75C51.5788 19.2917 52.3737 19.6209 52.9597 20.207C53.5458 20.793 53.875 21.5879 53.875 22.4167V47.4167C53.875 47.693 53.7653 47.9579 53.5699 48.1533C53.3746 48.3486 53.1096 48.4584 52.8333 48.4584Z" fill="#404040"/>
<path d="M51.7917 52.625H12.2083C10.827 52.625 9.50224 52.0763 8.52549 51.0995C7.54873 50.1228 7 48.798 7 47.4167V46.375H27.25L28.2917 47.4167H35.7604L36.8021 46.375H57V47.4167C57 48.798 56.4513 50.1228 55.4745 51.0995C54.4978 52.0763 53.173 52.625 51.7917 52.625ZM9.27083 48.4583C9.48574 49.0662 9.88341 49.5927 10.4093 49.9657C10.9352 50.3387 11.5636 50.5399 12.2083 50.5417H51.7917C52.4382 50.542 53.0689 50.3418 53.5969 49.9687C54.1248 49.5956 54.5241 49.0679 54.7396 48.4583H37.6667L36.625 49.5H27.4063L26.3646 48.4583H9.27083Z" fill="#404040"/>
<path d="M38.2708 39.1042C36.4144 38.9627 34.6785 38.1301 33.4062 36.7708C33.2972 36.6775 33.2086 36.5625 33.1461 36.4333C33.0836 36.3041 33.0484 36.1633 33.0429 36.0199C33.0373 35.8764 33.0615 35.7333 33.1139 35.5997C33.1663 35.466 33.2457 35.3446 33.3472 35.2431C33.4487 35.1416 33.5701 35.0621 33.7038 35.0098C33.8375 34.9574 33.9805 34.9332 34.124 34.9388C34.2674 34.9443 34.4082 34.9794 34.5374 35.042C34.6667 35.1045 34.7816 35.1931 34.875 35.3021C35.7635 36.2646 36.969 36.8748 38.2708 37.0208C38.5471 37.0208 38.812 37.1306 39.0074 37.3259C39.2027 37.5213 39.3125 37.7862 39.3125 38.0625C39.3125 38.3388 39.2027 38.6037 39.0074 38.7991C38.812 38.9944 38.5471 39.1042 38.2708 39.1042Z" fill="#FA4616"/>
<path d="M25.6146 38.9271C25.3664 38.9307 25.1252 38.8456 24.9342 38.6871C24.7432 38.5286 24.6151 38.3071 24.5729 38.0625C24.5277 37.7905 24.5922 37.5116 24.7524 37.287C24.9125 37.0624 25.1551 36.9105 25.4271 36.8646C29.0834 36.25 30.9375 33.4896 30.9375 28.6667V25.5417C30.9375 25.2654 31.0473 25.0005 31.2426 24.8051C31.438 24.6098 31.7029 24.5 31.9792 24.5C32.2555 24.5 32.5204 24.6098 32.7158 24.8051C32.9111 25.0005 33.0209 25.2654 33.0209 25.5417V28.6667C33.0209 34.5729 30.5209 38.125 25.7292 38.9167L25.6146 38.9271Z" fill="#FA4616"/>
<path d="M40.3334 30.75C40.0571 30.75 39.7922 30.6403 39.5968 30.4449C39.4015 30.2496 39.2917 29.9846 39.2917 29.7084V25.3959C39.2697 23.4822 38.4898 21.6553 37.1229 20.3158C35.7561 18.9762 33.9138 18.2334 32 18.25H31.375C31.1002 18.2731 30.8275 18.1863 30.6166 18.0086C30.4057 17.8309 30.2739 17.5768 30.25 17.3021C30.2387 17.1652 30.2544 17.0274 30.2965 16.8967C30.3386 16.7659 30.4061 16.6448 30.4952 16.5402C30.5842 16.4357 30.6931 16.3498 30.8155 16.2874C30.9379 16.2251 31.0714 16.1876 31.2084 16.1771C31.4688 16.1771 31.7396 16.1771 32 16.1771C33.2216 16.1675 34.4331 16.3986 35.5654 16.8572C36.6977 17.3158 37.7285 17.993 38.5991 18.85C39.4696 19.707 40.1628 20.7271 40.6391 21.852C41.1154 22.977 41.3655 24.1847 41.375 25.4063V29.7188C41.3723 29.9932 41.2613 30.2555 41.0663 30.4486C40.8712 30.6417 40.6079 30.75 40.3334 30.75Z" fill="#FA4616"/>
<path d="M23.6667 30.75C23.3904 30.75 23.1254 30.6403 22.9301 30.4449C22.7347 30.2496 22.625 29.9846 22.625 29.7083V25.3958C22.6423 23.7754 23.0855 22.1881 23.9101 20.793C24.7347 19.398 25.9116 18.2444 27.3229 17.4479C27.5634 17.313 27.8475 17.2789 28.1131 17.3531C28.3786 17.4273 28.6039 17.6037 28.7396 17.8438C28.8754 18.0829 28.9111 18.3661 28.8389 18.6315C28.7667 18.8969 28.5924 19.123 28.3542 19.2604C27.2551 19.8791 26.3391 20.7771 25.6989 21.8637C25.0586 22.9503 24.7169 24.1868 24.7083 25.4479V29.7604C24.695 30.0276 24.5793 30.2793 24.3854 30.4636C24.1915 30.6478 23.9341 30.7503 23.6667 30.75Z" fill="#FA4616"/>
<path d="M40.3333 35.0208C39.6444 35.0562 38.9557 34.9475 38.3113 34.7015C37.6669 34.4556 37.0808 34.078 36.5906 33.5927C36.1005 33.1074 35.7169 32.5252 35.4645 31.8832C35.2122 31.2413 35.0965 30.5538 35.1249 29.8646V25.5208C35.1249 24.692 34.7957 23.8972 34.2096 23.3111C33.6236 22.7251 32.8287 22.3958 31.9999 22.3958C31.2649 22.3949 30.553 22.6531 29.9895 23.125C29.8843 23.2127 29.7627 23.2788 29.6319 23.3195C29.501 23.3601 29.3635 23.3746 29.227 23.362C29.0906 23.3494 28.958 23.3101 28.8368 23.2462C28.7156 23.1823 28.6082 23.0951 28.5208 22.9896C28.3456 22.7789 28.2606 22.5077 28.284 22.2348C28.3074 21.9618 28.4373 21.7091 28.6458 21.5313C29.4017 20.8948 30.3231 20.4866 31.3024 20.3542C32.2816 20.2218 33.2784 20.3707 34.1762 20.7836C35.074 21.1965 35.8358 21.8562 36.3727 22.6858C36.9096 23.5154 37.1994 24.4806 37.2083 25.4688V29.8125C37.1779 30.2283 37.2383 30.6458 37.3854 31.036C37.5324 31.4261 37.7626 31.7796 38.0598 32.0719C38.3571 32.3643 38.7144 32.5884 39.107 32.7289C39.4996 32.8694 39.918 32.9228 40.3333 32.8854C40.6095 32.8854 40.8745 32.9952 41.0698 33.1905C41.2652 33.3859 41.3749 33.6508 41.3749 33.9271C41.3749 34.2034 41.2652 34.4683 41.0698 34.6637C40.8745 34.859 40.6095 34.9688 40.3333 34.9688V35.0208Z" fill="#FA4616"/>
<path d="M23.6667 34.9167C23.3904 34.9167 23.1254 34.807 22.9301 34.6116C22.7347 34.4163 22.625 34.1513 22.625 33.875C22.625 33.5988 22.7347 33.3338 22.9301 33.1385C23.1254 32.9431 23.3904 32.8334 23.6667 32.8334C25.75 32.8334 26.7917 31.7917 26.7917 29.7084V25.5417C26.7917 25.2654 26.9014 25.0005 27.0968 24.8051C27.2921 24.6098 27.5571 24.5 27.8333 24.5C28.1096 24.5 28.3745 24.6098 28.5699 24.8051C28.7653 25.0005 28.875 25.2654 28.875 25.5417V29.7084C28.875 32.9688 26.9375 34.9167 23.6667 34.9167Z" fill="#FA4616"/>
<path d="M18.4584 22.4167C18.1821 22.4167 17.9172 22.3069 17.7218 22.1116C17.5265 21.9162 17.4167 21.6513 17.4167 21.375V13.0417C17.4167 12.7654 17.5265 12.5004 17.7218 12.3051C17.9172 12.1097 18.1821 12 18.4584 12H25.7501C26.0263 12 26.2913 12.1097 26.4866 12.3051C26.682 12.5004 26.7917 12.7654 26.7917 13.0417C26.7917 13.3179 26.682 13.5829 26.4866 13.7782C26.2913 13.9736 26.0263 14.0833 25.7501 14.0833H19.5001V21.375C19.5001 21.6513 19.3903 21.9162 19.195 22.1116C18.9996 22.3069 18.7347 22.4167 18.4584 22.4167Z" fill="#404040"/>
<path d="M45.5416 22.4167C45.2653 22.4167 45.0004 22.3069 44.805 22.1116C44.6097 21.9162 44.4999 21.6513 44.4999 21.375V14.0833H38.2499C37.9737 14.0833 37.7087 13.9736 37.5133 13.7782C37.318 13.5829 37.2083 13.3179 37.2083 13.0417C37.2083 12.7654 37.318 12.5004 37.5133 12.3051C37.7087 12.1097 37.9737 12 38.2499 12H45.5416C45.8179 12 46.0828 12.1097 46.2782 12.3051C46.4735 12.5004 46.5833 12.7654 46.5833 13.0417V21.375C46.5833 21.6513 46.4735 21.9162 46.2782 22.1116C46.0828 22.3069 45.8179 22.4167 45.5416 22.4167Z" fill="#404040"/>
<path d="M25.7501 43.25H18.4584C18.1821 43.25 17.9172 43.1403 17.7218 42.9449C17.5265 42.7496 17.4167 42.4846 17.4167 42.2084V34.9167C17.4167 34.6404 17.5265 34.3755 17.7218 34.1801C17.9172 33.9848 18.1821 33.875 18.4584 33.875C18.7347 33.875 18.9996 33.9848 19.195 34.1801C19.3903 34.3755 19.5001 34.6404 19.5001 34.9167V41.1667H25.7501C26.0263 41.1667 26.2913 41.2764 26.4866 41.4718C26.682 41.6671 26.7917 41.9321 26.7917 42.2084C26.7917 42.4846 26.682 42.7496 26.4866 42.9449C26.2913 43.1403 26.0263 43.25 25.7501 43.25Z" fill="#404040"/>
<path d="M45.5416 43.25H38.2499C37.9737 43.25 37.7087 43.1403 37.5133 42.9449C37.318 42.7496 37.2083 42.4846 37.2083 42.2084C37.2083 41.9321 37.318 41.6671 37.5133 41.4718C37.7087 41.2764 37.9737 41.1667 38.2499 41.1667H44.4999V34.9167C44.4999 34.6404 44.6097 34.3755 44.805 34.1801C45.0004 33.9848 45.2653 33.875 45.5416 33.875C45.8179 33.875 46.0828 33.9848 46.2782 34.1801C46.4735 34.3755 46.5833 34.6404 46.5833 34.9167V42.2084C46.5833 42.4846 46.4735 42.7496 46.2782 42.9449C46.0828 43.1403 45.8179 43.25 45.5416 43.25Z" fill="#404040"/>
</svg>
