<svg width="64" height="64" viewBox="0 0 64 64" fill="none" xmlns="http://www.w3.org/2000/svg">
<path d="M44.0833 57H20.125C19.2962 57 18.5013 56.6708 17.9153 56.0847C17.3292 55.4987 17 54.7038 17 53.875V10.125C17 9.2962 17.3292 8.50134 17.9153 7.91529C18.5013 7.32924 19.2962 7 20.125 7H44.0833C44.9121 7 45.707 7.32924 46.293 7.91529C46.8791 8.50134 47.2083 9.2962 47.2083 10.125V53.875C47.2083 54.7038 46.8791 55.4987 46.293 56.0847C45.707 56.6708 44.9121 57 44.0833 57ZM20.125 9.08333C19.8487 9.08333 19.5838 9.19308 19.3884 9.38843C19.1931 9.58378 19.0833 9.84873 19.0833 10.125V53.875C19.0833 54.1513 19.1931 54.4162 19.3884 54.6116C19.5838 54.8069 19.8487 54.9167 20.125 54.9167H44.0833C44.3596 54.9167 44.6246 54.8069 44.8199 54.6116C45.0153 54.4162 45.125 54.1513 45.125 53.875V10.125C45.125 9.84873 45.0153 9.58378 44.8199 9.38843C44.6246 9.19308 44.3596 9.08333 44.0833 9.08333H20.125Z" fill="#404040"/>
<path d="M33.6667 52.8333H30.5417C30.2654 52.8333 30.0004 52.7236 29.8051 52.5282C29.6097 52.3329 29.5 52.0679 29.5 51.7917C29.5 51.5154 29.6097 51.2504 29.8051 51.0551C30.0004 50.8597 30.2654 50.75 30.5417 50.75H33.6667C33.9429 50.75 34.2079 50.8597 34.4032 51.0551C34.5986 51.2504 34.7083 51.5154 34.7083 51.7917C34.7083 52.0679 34.5986 52.3329 34.4032 52.5282C34.2079 52.7236 33.9429 52.8333 33.6667 52.8333Z" fill="#404040"/>
<path d="M33.6667 12.2083H30.5417C30.2654 12.2083 30.0004 12.0986 29.8051 11.9032C29.6097 11.7079 29.5 11.4429 29.5 11.1667C29.5 10.8904 29.6097 10.6254 29.8051 10.4301C30.0004 10.2347 30.2654 10.125 30.5417 10.125H33.6667C33.9429 10.125 34.2079 10.2347 34.4032 10.4301C34.5986 10.6254 34.7083 10.8904 34.7083 11.1667C34.7083 11.4429 34.5986 11.7079 34.4032 11.9032C34.2079 12.0986 33.9429 12.2083 33.6667 12.2083Z" fill="#404040"/>
<path d="M36.7917 38.25C36.5154 38.25 36.2504 38.1402 36.0551 37.9449C35.8597 37.7495 35.75 37.4846 35.75 37.2083V36.3646C34.7019 35.5671 33.4212 35.1352 32.1042 35.1352C30.7871 35.1352 29.5064 35.5671 28.4583 36.3646V37.2083C28.4583 37.4846 28.3486 37.7495 28.1532 37.9449C27.9579 38.1402 27.6929 38.25 27.4167 38.25C27.1404 38.25 26.8754 38.1402 26.6801 37.9449C26.4847 37.7495 26.375 37.4846 26.375 37.2083V36.1667C26.375 34.3333 30.0937 33.0417 32.1042 33.0417C34.1146 33.0417 37.8333 34.3229 37.8333 36.1667V37.2083C37.8333 37.4846 37.7236 37.7495 37.5282 37.9449C37.3329 38.1402 37.0679 38.25 36.7917 38.25Z" fill="#FA4616"/>
<path d="M32.1041 35.0833C31.4907 35.1046 30.8794 35.001 30.3073 34.7788C29.7352 34.5567 29.2142 34.2206 28.7758 33.7911C28.3375 33.3615 27.991 32.8474 27.7573 32.2799C27.5237 31.7123 27.4078 31.1033 27.4166 30.4896V29.3021C27.4166 28.0589 27.9105 26.8666 28.7895 25.9875C29.6686 25.1085 30.8609 24.6146 32.1041 24.6146C33.3473 24.6146 34.5396 25.1085 35.4187 25.9875C36.2977 26.8666 36.7916 28.0589 36.7916 29.3021V30.4896C36.799 31.1029 36.682 31.7112 36.4479 32.2781C36.2137 32.8449 35.8671 33.3585 35.4291 33.7877C34.9911 34.217 34.4706 34.5531 33.8992 34.7758C33.3277 34.9985 32.7171 35.1031 32.1041 35.0833V35.0833ZM32.1041 26.75C31.7644 26.7282 31.4239 26.7774 31.1043 26.8946C30.7847 27.0117 30.4931 27.1943 30.248 27.4305C30.0029 27.6667 29.8098 27.9515 29.681 28.2666C29.5522 28.5817 29.4905 28.9202 29.4999 29.2604V30.4479C29.4999 31.1386 29.7743 31.801 30.2627 32.2893C30.751 32.7777 31.4134 33.0521 32.1041 33.0521C32.7948 33.0521 33.4571 32.7777 33.9455 32.2893C34.4339 31.801 34.7083 31.1386 34.7083 30.4479V29.2604C34.7118 28.9236 34.6458 28.5897 34.5144 28.2796C34.383 27.9695 34.1891 27.6898 33.9446 27.4581C33.7002 27.2264 33.4106 27.0476 33.0939 26.9329C32.7772 26.8182 32.4402 26.7702 32.1041 26.7917V26.75Z" fill="#FA4616"/>
<path d="M23.25 26.7917C22.9738 26.7917 22.7088 26.6819 22.5135 26.4866C22.3181 26.2912 22.2084 26.0263 22.2084 25.75V20.5417C22.2084 20.2654 22.3181 20.0004 22.5135 19.8051C22.7088 19.6097 22.9738 19.5 23.25 19.5H28.4584C28.7346 19.5 28.9996 19.6097 29.1949 19.8051C29.3903 20.0004 29.5 20.2654 29.5 20.5417C29.5 20.8179 29.3903 21.0829 29.1949 21.2782C28.9996 21.4736 28.7346 21.5833 28.4584 21.5833H24.2917V25.75C24.2917 26.0263 24.182 26.2912 23.9866 26.4866C23.7913 26.6819 23.5263 26.7917 23.25 26.7917Z" fill="#FA4616"/>
<path d="M28.4584 43.4583H23.25C22.9738 43.4583 22.7088 43.3486 22.5135 43.1532C22.3181 42.9579 22.2084 42.6929 22.2084 42.4167V37.2083C22.2084 36.9321 22.3181 36.6671 22.5135 36.4718C22.7088 36.2764 22.9738 36.1667 23.25 36.1667C23.5263 36.1667 23.7913 36.2764 23.9866 36.4718C24.182 36.6671 24.2917 36.9321 24.2917 37.2083V41.375H28.4584C28.7346 41.375 28.9996 41.4847 29.1949 41.6801C29.3903 41.8754 29.5 42.1404 29.5 42.4167C29.5 42.6929 29.3903 42.9579 29.1949 43.1532C28.9996 43.3486 28.7346 43.4583 28.4584 43.4583Z" fill="#FA4616"/>
<path d="M40.9584 26.7917C40.6821 26.7917 40.4172 26.6819 40.2218 26.4866C40.0265 26.2912 39.9167 26.0263 39.9167 25.75V21.5833H35.75C35.4738 21.5833 35.2088 21.4736 35.0135 21.2782C34.8181 21.0829 34.7084 20.8179 34.7084 20.5417C34.7084 20.2654 34.8181 20.0004 35.0135 19.8051C35.2088 19.6097 35.4738 19.5 35.75 19.5H40.9584C41.2346 19.5 41.4996 19.6097 41.6949 19.8051C41.8903 20.0004 42 20.2654 42 20.5417V25.75C42 26.0263 41.8903 26.2912 41.6949 26.4866C41.4996 26.6819 41.2346 26.7917 40.9584 26.7917Z" fill="#FA4616"/>
<path d="M40.9584 43.4583H35.75C35.4738 43.4583 35.2088 43.3486 35.0135 43.1532C34.8181 42.9579 34.7084 42.6929 34.7084 42.4167C34.7084 42.1404 34.8181 41.8754 35.0135 41.6801C35.2088 41.4847 35.4738 41.375 35.75 41.375H39.9167V37.2083C39.9167 36.9321 40.0265 36.6671 40.2218 36.4718C40.4172 36.2764 40.6821 36.1667 40.9584 36.1667C41.2346 36.1667 41.4996 36.2764 41.6949 36.4718C41.8903 36.6671 42 36.9321 42 37.2083V42.4167C42 42.6929 41.8903 42.9579 41.6949 43.1532C41.4996 43.3486 41.2346 43.4583 40.9584 43.4583Z" fill="#FA4616"/>
</svg>
