<svg width="64" height="64" viewBox="0 0 64 64" fill="none" xmlns="http://www.w3.org/2000/svg">
<path d="M46.9545 57H17.4091C16.5049 57 15.6378 56.6408 14.9985 56.0015C14.3592 55.3622 14 54.4951 14 53.5909V32C14 31.0959 14.3592 30.2287 14.9985 29.5894C15.6378 28.9501 16.5049 28.5909 17.4091 28.5909H46.9545C47.8587 28.5909 48.7258 28.9501 49.3651 29.5894C50.0045 30.2287 50.3636 31.0959 50.3636 32V53.5909C50.3636 54.4951 50.0045 55.3622 49.3651 56.0015C48.7258 56.6408 47.8587 57 46.9545 57V57ZM17.4091 30.8636C17.1077 30.8636 16.8187 30.9833 16.6056 31.1965C16.3925 31.4096 16.2727 31.6986 16.2727 32V53.5909C16.2727 53.8923 16.3925 54.1813 16.6056 54.3944C16.8187 54.6075 17.1077 54.7273 17.4091 54.7273H46.9545C47.2559 54.7273 47.545 54.6075 47.7581 54.3944C47.9712 54.1813 48.0909 53.8923 48.0909 53.5909V32C48.0909 31.6986 47.9712 31.4096 47.7581 31.1965C47.545 30.9833 47.2559 30.8636 46.9545 30.8636H17.4091Z" fill="#404040"/>
<path d="M44.6818 29.7273H42.409V19.5C42.409 16.7876 41.3315 14.1862 39.4135 12.2682C37.4956 10.3502 34.8942 9.27273 32.1818 9.27273C29.4693 9.27273 26.868 10.3502 24.95 12.2682C23.032 14.1862 21.9545 16.7876 21.9545 19.5V29.7273H19.6818V19.5C19.6818 16.1848 20.9987 13.0053 23.3429 10.6611C25.6871 8.31693 28.8666 7 32.1818 7C35.497 7 38.6764 8.31693 41.0206 10.6611C43.3648 13.0053 44.6818 16.1848 44.6818 19.5V29.7273Z" fill="#404040"/>
<path d="M32.1818 51.3182C31.2776 51.3182 30.4105 50.959 29.7712 50.3197C29.1319 49.6803 28.7727 48.8132 28.7727 47.9091V44.5C27.8768 43.8284 27.1993 42.9071 26.8253 41.8517C26.4513 40.7964 26.3974 39.654 26.6704 38.5682C26.9186 37.5664 27.4381 36.6525 28.1718 35.9268C28.9055 35.201 29.8251 34.6917 30.8295 34.4545V34.4545C31.6715 34.248 32.5496 34.2369 33.3966 34.422C34.2435 34.6072 35.0369 34.9836 35.7159 35.5227C36.3929 36.0633 36.9374 36.7515 37.3076 37.5348C37.6778 38.3181 37.864 39.1757 37.852 40.042C37.8399 40.9082 37.6299 41.7603 37.238 42.533C36.8461 43.3056 36.2827 43.9785 35.5909 44.5V47.9091C35.5909 48.8132 35.2317 49.6803 34.5924 50.3197C33.953 50.959 33.0859 51.3182 32.1818 51.3182V51.3182ZM31.3182 36.6363C30.6622 36.8032 30.0707 37.1616 29.6191 37.6658C29.1675 38.17 28.8762 38.7972 28.7823 39.4676C28.6885 40.1379 28.7963 40.821 29.0921 41.4299C29.3879 42.0387 29.8582 42.5457 30.4431 42.8863C30.6149 42.9855 30.7577 43.1278 30.8574 43.2993C30.9571 43.4707 31.0101 43.6653 31.0113 43.8636V47.9091C31.0113 48.2105 31.1311 48.4995 31.3442 48.7126C31.5573 48.9257 31.8463 49.0454 32.1477 49.0454C32.4491 49.0454 32.7381 48.9257 32.9512 48.7126C33.1643 48.4995 33.2841 48.2105 33.2841 47.9091V43.8636C33.2853 43.6653 33.3383 43.4707 33.438 43.2993C33.5377 43.1278 33.6805 42.9855 33.8522 42.8863C34.5564 42.4713 35.0879 41.817 35.35 41.0428C35.6122 40.2686 35.5874 39.4261 35.2803 38.6686C34.9732 37.9111 34.4042 37.2892 33.6769 36.9162C32.9496 36.5432 32.1125 36.4438 31.3182 36.6363Z" fill="#FA4616"/>
</svg>
