<svg width="64" height="64" viewBox="0 0 64 64" fill="none" xmlns="http://www.w3.org/2000/svg">
<path d="M27.8266 56.9919C27.7367 57.0019 27.6459 57.0019 27.5559 56.9919C26.4521 56.7003 7 46.4015 7 36.1652V16.3799C7 16.1038 7.10971 15.8389 7.305 15.6436C7.50029 15.4483 7.76515 15.3386 8.04133 15.3386C12.7898 15.3386 25.3274 9.80917 26.9831 7.44535C27.0791 7.30786 27.2069 7.19556 27.3555 7.11803C27.5042 7.0405 27.6694 7 27.837 7C28.0047 7 28.1699 7.0405 28.3186 7.11803C28.4672 7.19556 28.595 7.30786 28.6909 7.44535C30.305 9.73628 42.3011 15.3386 47.6119 15.3386C47.8881 15.3386 48.153 15.4483 48.3483 15.6436C48.5435 15.8389 48.6533 16.1038 48.6533 16.3799V26.7932H46.5706V17.4213C41.0099 16.8902 31.1797 12.5375 27.8266 9.60091C24.3902 12.5791 14.2268 16.8902 9.08266 17.4109V36.2173C9.08266 44.0169 24.7026 53.493 27.8266 54.8676C30.8735 53.1882 33.7997 51.2989 36.5842 49.2131L37.8338 50.8792C34.7925 53.2199 31.5359 55.2666 28.1078 56.9919C28.0144 57.0027 27.92 57.0027 27.8266 56.9919V56.9919Z" fill="#404040"/>
<path d="M54.9012 47.6303H45.5292V45.5476H54.9012L41.2077 24.544L27.4934 45.5476H37.1882V47.6303H27.4934C27.1229 47.6355 26.7577 47.5417 26.4355 47.3587C26.1134 47.1756 25.8459 46.9099 25.6606 46.589C25.4919 46.2642 25.4117 45.9007 25.4281 45.5351C25.4446 45.1694 25.5571 44.8146 25.7543 44.5063L39.4478 23.5027C39.6371 23.2126 39.8957 22.9743 40.2003 22.8094C40.5048 22.6444 40.8457 22.5581 41.1921 22.5581C41.5384 22.5581 41.8793 22.6444 42.1839 22.8094C42.4884 22.9743 42.7471 23.2126 42.9363 23.5027L56.6506 44.4126C56.8479 44.7209 56.9604 45.0757 56.9769 45.4414C56.9933 45.807 56.9131 46.1705 56.7444 46.4953C56.5707 46.8352 56.3069 47.1209 55.9818 47.3211C55.6568 47.5213 55.283 47.6282 54.9012 47.6303Z" fill="#FA4616"/>
<path d="M42.4053 32.0103H40.3226V42.4236H42.4053V32.0103Z" fill="#FA4616"/>
<path d="M42.4053 44.5063H40.3226V47.6303H42.4053V44.5063Z" fill="#FA4616"/>
</svg>
