<svg width="64" height="64" viewBox="0 0 64 64" fill="none" xmlns="http://www.w3.org/2000/svg">
<path d="M26.3181 28.4546C26.0167 28.4546 25.7277 28.3348 25.5146 28.1217C25.3015 27.9086 25.1818 27.6196 25.1818 27.3182V17.0909C25.2084 16.1775 25.59 15.3104 26.2457 14.6739C26.9013 14.0373 27.7793 13.6814 28.6931 13.6818H30.8636C31.165 13.6818 31.454 13.8015 31.6671 14.0147C31.8802 14.2278 31.9999 14.5168 31.9999 14.8182C31.9999 15.1196 31.8802 15.4086 31.6671 15.6217C31.454 15.8348 31.165 15.9546 30.8636 15.9546H28.6931C28.3808 15.9508 28.0789 16.0662 27.8487 16.2774C27.6186 16.4885 27.4776 16.7795 27.4545 17.0909V27.3182C27.4545 27.6196 27.3348 27.9086 27.1217 28.1217C26.9085 28.3348 26.6195 28.4546 26.3181 28.4546Z" fill="#404040"/>
<path d="M35.4091 28.4546C35.1077 28.4546 34.8187 28.3348 34.6056 28.1217C34.3925 27.9086 34.2727 27.6196 34.2727 27.3182V13.6818C34.2727 13.3804 34.153 13.0914 33.9399 12.8783C33.7268 12.6652 33.4378 12.5455 33.1364 12.5455C32.835 12.5455 32.546 12.6652 32.3329 12.8783C32.1197 13.0914 32 13.3804 32 13.6818V27.3182C32 27.6196 31.8803 27.9086 31.6672 28.1217C31.4541 28.3348 31.165 28.4546 30.8637 28.4546C30.5623 28.4546 30.2732 28.3348 30.0601 28.1217C29.847 27.9086 29.7273 27.6196 29.7273 27.3182V13.6818C29.7273 12.7777 30.0865 11.9106 30.7258 11.2712C31.3651 10.6319 32.2322 10.2727 33.1364 10.2727C34.0405 10.2727 34.9076 10.6319 35.547 11.2712C36.1863 11.9106 36.5455 12.7777 36.5455 13.6818V27.3182C36.5455 27.6196 36.4257 27.9086 36.2126 28.1217C35.9995 28.3348 35.7105 28.4546 35.4091 28.4546Z" fill="#404040"/>
<path d="M34.9091 34.7273C34.7422 34.7275 34.5772 34.691 34.426 34.6203C34.2748 34.5496 34.141 34.4464 34.0341 34.3182C33.9384 34.2033 33.8663 34.0708 33.822 33.9281C33.7776 33.7853 33.7618 33.6352 33.7756 33.4864C33.7893 33.3376 33.8322 33.1929 33.9019 33.0607C33.9717 32.9285 34.0668 32.8113 34.1818 32.7159C35.5257 31.673 37.1288 31.0168 38.8182 30.8182V17.0909C38.8308 16.9471 38.8134 16.8023 38.7672 16.6655C38.7211 16.5288 38.6471 16.4031 38.5499 16.2963C38.4528 16.1896 38.3346 16.1041 38.2028 16.0453C38.071 15.9865 37.9284 15.9556 37.7841 15.9546H35.4091C35.1077 15.9546 34.8187 15.8348 34.6056 15.6217C34.3925 15.4086 34.2728 15.1196 34.2728 14.8182C34.2728 14.5168 34.3925 14.2278 34.6056 14.0147C34.8187 13.8015 35.1077 13.6818 35.4091 13.6818H37.7841C38.2262 13.6847 38.6633 13.7756 39.0699 13.9493C39.4765 14.1229 39.8444 14.3757 40.1523 14.6931C40.4601 15.0104 40.7016 15.3859 40.8628 15.7976C41.0239 16.2093 41.1015 16.6489 41.0909 17.0909V31.8636C41.0909 32.165 40.9712 32.4541 40.7581 32.6672C40.545 32.8803 40.2559 33 39.9546 33C38.4007 33.0445 36.8962 33.5553 35.6364 34.4659C35.4319 34.6353 35.1746 34.7278 34.9091 34.7273Z" fill="#404040"/>
<path d="M36.5455 44.3636C36.2441 44.3877 35.9455 44.2911 35.7153 44.0951C35.4852 43.899 35.3423 43.6195 35.3182 43.3182C35.2941 43.0168 35.3907 42.7182 35.5868 42.488C35.7828 42.2578 36.0623 42.115 36.3637 42.0909C37.4186 41.9081 38.4409 41.5711 39.3978 41.0909C39.66 40.9402 39.9713 40.8998 40.2632 40.9787C40.5552 41.0575 40.8039 41.2491 40.9546 41.5113C41.1053 41.7735 41.1456 42.0849 41.0668 42.3768C40.9879 42.6688 40.7963 42.9175 40.5341 43.0682C39.3425 43.677 38.0673 44.1059 36.75 44.3409L36.5455 44.3636Z" fill="#404040"/>
<path d="M55.8636 19.3636C55.5622 19.3636 55.2732 19.2439 55.0601 19.0308C54.847 18.8177 54.7273 18.5287 54.7273 18.2273V10.2727H46.7727C46.4713 10.2727 46.1823 10.153 45.9692 9.9399C45.7561 9.72679 45.6364 9.43775 45.6364 9.13636C45.6364 8.83498 45.7561 8.54594 45.9692 8.33283C46.1823 8.11972 46.4713 8 46.7727 8H57V18.2273C57 18.5287 56.8803 18.8177 56.6672 19.0308C56.454 19.2439 56.165 19.3636 55.8636 19.3636Z" fill="#404040"/>
<path d="M57 55.7273H46.7727C46.4713 55.7273 46.1823 55.6076 45.9692 55.3945C45.7561 55.1813 45.6364 54.8923 45.6364 54.5909C45.6364 54.2895 45.7561 54.0005 45.9692 53.7874C46.1823 53.5743 46.4713 53.4546 46.7727 53.4546H54.7273V45.5C54.7273 45.1986 54.847 44.9096 55.0601 44.6965C55.2732 44.4834 55.5622 44.3636 55.8636 44.3636C56.165 44.3636 56.454 44.4834 56.6672 44.6965C56.8803 44.9096 57 45.1986 57 45.5V55.7273Z" fill="#404040"/>
<path d="M8.13636 19.3636C7.83498 19.3636 7.54594 19.2439 7.33283 19.0308C7.11972 18.8177 7 18.5287 7 18.2273V8H17.2273C17.5287 8 17.8177 8.11972 18.0308 8.33283C18.2439 8.54594 18.3636 8.83498 18.3636 9.13636C18.3636 9.43775 18.2439 9.72679 18.0308 9.9399C17.8177 10.153 17.5287 10.2727 17.2273 10.2727H9.27273V18.2273C9.27273 18.5287 9.153 18.8177 8.93989 19.0308C8.72678 19.2439 8.43775 19.3636 8.13636 19.3636Z" fill="#404040"/>
<path d="M17.2273 55.7273H7V45.5C7 45.1986 7.11972 44.9096 7.33283 44.6965C7.54594 44.4834 7.83498 44.3636 8.13636 44.3636C8.43775 44.3636 8.72678 44.4834 8.93989 44.6965C9.153 44.9096 9.27273 45.1986 9.27273 45.5V53.4546H17.2273C17.5287 53.4546 17.8177 53.5743 18.0308 53.7874C18.2439 54.0005 18.3636 54.2895 18.3636 54.5909C18.3636 54.8923 18.2439 55.1813 18.0308 55.3945C17.8177 55.6076 17.5287 55.7273 17.2273 55.7273Z" fill="#404040"/>
<path d="M45.7271 34.7272C45.5578 34.7262 45.3908 34.6874 45.2385 34.6136C44.9678 34.4834 44.7596 34.2514 44.6595 33.9682C44.5594 33.6849 44.5756 33.3736 44.7044 33.1023L45.1476 32.1818C46.058 30.4728 46.7709 28.6657 47.2726 26.7954C47.2726 26.6704 46.9885 26.5227 46.5112 26.5454C44.7726 26.6591 43.0339 29.3863 41.9657 31.0227C41.6237 31.6513 41.1953 32.2289 40.693 32.7386C40.5775 32.8336 40.4443 32.9049 40.3012 32.9484C40.158 32.9918 40.0077 33.0066 39.8588 32.9918C39.71 32.977 39.5655 32.933 39.4337 32.8623C39.3019 32.7915 39.1853 32.6954 39.0907 32.5795C38.9023 32.3469 38.8134 32.0493 38.8432 31.7514C38.873 31.4535 39.0191 31.1794 39.2498 30.9886C39.5346 30.6239 39.8001 30.2446 40.0453 29.8523C41.4089 27.7159 43.4544 24.5113 46.3521 24.3295C46.8436 24.2729 47.3415 24.3328 47.8055 24.5046C48.2695 24.6764 48.6865 24.9551 49.0226 25.3182C49.2566 25.6022 49.4182 25.9388 49.4934 26.299C49.5686 26.6593 49.5552 27.0324 49.4544 27.3863C48.9257 29.4148 48.163 31.3749 47.1816 33.2273L46.7498 34.125C46.6514 34.3099 46.5038 34.464 46.3233 34.5703C46.1429 34.6765 45.9365 34.7309 45.7271 34.7272Z" fill="#404040"/>
<path d="M39.9546 51.1818C39.6532 51.1818 39.3642 51.0621 39.1511 50.849C38.938 50.6359 38.8182 50.3469 38.8182 50.0455V42.0909C38.8183 41.8937 38.8696 41.6999 38.9673 41.5286C39.0649 41.3572 39.2054 41.2142 39.3751 41.1137C41.0106 40.192 42.3295 38.7977 43.1591 37.1137C43.214 36.9686 43.298 36.8362 43.406 36.7248C43.514 36.6134 43.6436 36.5253 43.7869 36.4659C43.9302 36.4065 44.0842 36.3771 44.2393 36.3795C44.3944 36.3818 44.5474 36.4159 44.6888 36.4796C44.8303 36.5434 44.9571 36.6354 45.0617 36.75C45.1662 36.8646 45.2462 36.9994 45.2966 37.1461C45.3471 37.2928 45.3669 37.4483 45.355 37.603C45.3431 37.7576 45.2996 37.9082 45.2273 38.0455C44.3184 39.9684 42.8845 41.5954 41.091 42.7387V50.0682C41.085 50.3656 40.9627 50.6489 40.7502 50.8571C40.5377 51.0653 40.2521 51.1819 39.9546 51.1818Z" fill="#404040"/>
<path d="M21.7728 34.7273C21.4715 34.7273 21.1824 34.6076 20.9693 34.3945C20.7562 34.1813 20.6365 33.8923 20.6365 33.5909V21.6364C20.6631 20.723 21.0448 19.8559 21.7004 19.2193C22.356 18.5828 23.234 18.2269 24.1478 18.2273H26.3183C26.6197 18.2273 26.9087 18.347 27.1218 18.5601C27.3349 18.7732 27.4547 19.0623 27.4547 19.3637C27.4547 19.665 27.3349 19.9541 27.1218 20.1672C26.9087 20.3803 26.6197 20.5 26.3183 20.5H24.1478C23.8355 20.4963 23.5336 20.6117 23.3034 20.8229C23.0733 21.034 22.9323 21.3249 22.9092 21.6364V33.5909C22.9092 33.8923 22.7895 34.1813 22.5764 34.3945C22.3633 34.6076 22.0742 34.7273 21.7728 34.7273Z" fill="#404040"/>
<path d="M24.0456 50.6137C23.7442 50.6137 23.4551 50.4939 23.242 50.2808C23.0289 50.0677 22.9092 49.7787 22.9092 49.4773V44.9318C22.8227 44.2525 22.5337 43.615 22.0797 43.1023C21.2034 42.0031 20.6981 40.6544 20.6365 39.25V37.5568C20.6365 37.2555 20.7562 36.9664 20.9693 36.7533C21.1824 36.5402 21.4715 36.4205 21.7728 36.4205C22.0742 36.4205 22.3633 36.5402 22.5764 36.7533C22.7895 36.9664 22.9092 37.2555 22.9092 37.5568V39.25C22.9772 40.2006 23.3475 41.1045 23.966 41.8296C24.6817 42.7134 25.1064 43.7971 25.1819 44.9318V49.4773C25.1819 49.7787 25.0622 50.0677 24.8491 50.2808C24.636 50.4939 24.3469 50.6137 24.0456 50.6137Z" fill="#404040"/>
<path d="M53.5909 38.6818H11.5454C11.244 38.6818 10.955 38.5621 10.7419 38.349C10.5288 38.1359 10.4091 37.8468 10.4091 37.5455C10.4091 37.2441 10.5288 36.955 10.7419 36.7419C10.955 36.5288 11.244 36.4091 11.5454 36.4091H53.5909C53.8923 36.4091 54.1813 36.5288 54.3944 36.7419C54.6075 36.955 54.7272 37.2441 54.7272 37.5455C54.7272 37.8468 54.6075 38.1359 54.3944 38.349C54.1813 38.5621 53.8923 38.6818 53.5909 38.6818Z" fill="#FA4616"/>
</svg>
