<svg width="64" height="64" viewBox="0 0 64 64" fill="none" xmlns="http://www.w3.org/2000/svg">
<path d="M51.3912 57H23.1304C22.2655 57 21.4361 56.6564 20.8246 56.0449C20.2131 55.4334 19.8695 54.604 19.8695 53.7391V51.5652H22.0434V53.7391C22.0434 54.0274 22.1579 54.3039 22.3618 54.5077C22.5656 54.7116 22.8421 54.8261 23.1304 54.8261H51.3912C51.6795 54.8261 51.956 54.7116 52.1598 54.5077C52.3637 54.3039 52.4782 54.0274 52.4782 53.7391V29.8261C52.4782 29.5378 52.3637 29.2613 52.1598 29.0575C51.956 28.8536 51.6795 28.7391 51.3912 28.7391H23.1304C22.8421 28.7391 22.5656 28.8536 22.3618 29.0575C22.1579 29.2613 22.0434 29.5378 22.0434 29.8261V33.087H19.8695V29.8261C19.8695 28.9612 20.2131 28.1318 20.8246 27.5203C21.4361 26.9088 22.2655 26.5652 23.1304 26.5652H51.3912C52.2561 26.5652 53.0855 26.9088 53.697 27.5203C54.3086 28.1318 54.6521 28.9612 54.6521 29.8261V53.7391C54.6521 54.604 54.3086 55.4334 53.697 56.0449C53.0855 56.6564 52.2561 57 51.3912 57V57Z" fill="#404040"/>
<path d="M49.2174 27.6522H47.0434V18.9565C47.0434 16.362 46.0128 13.8737 44.1782 12.0391C42.3436 10.2046 39.8553 9.17391 37.2608 9.17391C34.6663 9.17391 32.1781 10.2046 30.3435 12.0391C28.5089 13.8737 27.4782 16.362 27.4782 18.9565V27.6522H25.3043V18.9565C25.3043 15.7855 26.564 12.7442 28.8063 10.502C31.0486 8.25968 34.0898 7 37.2608 7C40.4319 7 43.4731 8.25968 45.7154 10.502C47.9577 12.7442 49.2174 15.7855 49.2174 18.9565V27.6522Z" fill="#404040"/>
<path d="M17.2283 50.4783C15.0488 50.4754 12.9592 49.6091 11.417 48.0689C9.87485 46.5288 9.00576 44.4404 9.00001 42.2609C8.99837 41.1865 9.21113 40.1225 9.62583 39.1314C10.0405 38.1402 10.6488 37.2418 11.4151 36.4887C12.1814 35.7356 13.0902 35.1429 14.0884 34.7454C15.0866 34.348 16.1541 34.1537 17.2283 34.1739C18.7316 34.1526 20.2115 34.5474 21.5044 35.3147C22.7973 36.082 23.8529 37.192 24.5544 38.5217H37.2609V40.6957H23.1304L22.8587 40.0109C22.3146 38.7351 21.3504 37.6839 20.1263 37.0319C18.9022 36.3799 17.4918 36.1662 16.1295 36.4265C14.7672 36.6868 13.535 37.4053 12.6375 38.4627C11.7399 39.52 11.2312 40.8526 11.1957 42.2391C11.2014 43.8421 11.8415 45.3775 12.9759 46.51C14.1104 47.6424 15.6471 48.2797 17.25 48.2826C18.2576 48.2831 19.2491 48.0293 20.1326 47.5448C21.0161 47.0603 21.7631 46.3607 22.3044 45.5109L22.6304 45.0217H25.9674L27.5 43.4783L29.0435 45.0435H31.4022L32.4891 43.9565H35.5652L36.6522 45.0435H37.2826V47.2174H35.7283L34.6413 46.1304H33.3913L32.3044 47.2174H28.1196L27.4783 46.5761L26.8478 47.2174H23.7609C22.9993 48.2301 22.0126 49.0518 20.8789 49.6177C19.7452 50.1837 18.4954 50.4783 17.2283 50.4783Z" fill="#FA4616"/>
<path d="M16.6087 40.6956H14.4348V43.9565H16.6087V40.6956Z" fill="#FA4616"/>
<path d="M38.3479 37.4348H36.174V48.3043H38.3479V37.4348Z" fill="#404040"/>
</svg>
