<svg width="64" height="64" viewBox="0 0 64 64" fill="none" xmlns="http://www.w3.org/2000/svg">
<path d="M11.1667 49.625C10.1004 49.6237 9.07515 49.2136 8.30208 48.4792C7.8914 48.0904 7.56419 47.622 7.34033 47.1027C7.11648 46.5833 7.00067 46.0239 7 45.4583V12.125C7 11.2962 7.32925 10.5013 7.9153 9.91529C8.50136 9.32924 9.2962 9.00002 10.125 9.00002H23.6667C23.8038 8.99922 23.9397 9.02549 24.0666 9.07733C24.1935 9.12917 24.3089 9.20553 24.4063 9.30208L27.2292 12.125H50.75C51.0263 12.125 51.2912 12.2347 51.4866 12.4301C51.6819 12.6254 51.7917 12.8904 51.7917 13.1667V16.2917H49.7083V14.2084H26.7917C26.5169 14.2044 26.2548 14.0921 26.0625 13.8958L23.2396 11.0834H10.125C9.84873 11.0834 9.5838 11.1931 9.38845 11.3884C9.1931 11.5838 9.08333 11.8488 9.08333 12.125V45.4583C9.08434 45.7415 9.14305 46.0215 9.25588 46.2811C9.36872 46.5408 9.5333 46.7748 9.73959 46.9687C9.94509 47.162 10.1877 47.3115 10.4527 47.4082C10.7177 47.5049 10.9996 47.5468 11.2813 47.5313C11.8337 47.4761 12.3444 47.2129 12.71 46.7951C13.0756 46.3773 13.2686 45.8361 13.25 45.2813V20.4584C13.25 19.6295 13.5793 18.8347 14.1653 18.2486C14.7514 17.6626 15.5462 17.3334 16.375 17.3334H53.875C54.7038 17.3334 55.4987 17.6626 56.0847 18.2486C56.6708 18.8347 57 19.6295 57 20.4584V48.5833C57 48.8596 56.8903 49.1246 56.6949 49.3199C56.4996 49.5153 56.2346 49.625 55.9583 49.625H53.875V47.5417H54.9167V20.4584C54.9167 20.1821 54.8069 19.9171 54.6116 19.7218C54.4162 19.5264 54.1513 19.4167 53.875 19.4167H16.375C16.0987 19.4167 15.8338 19.5264 15.6384 19.7218C15.4431 19.9171 15.3333 20.1821 15.3333 20.4584V45.2813C15.3576 46.3706 14.9626 47.4277 14.2298 48.2341C13.4971 49.0405 12.4825 49.5347 11.3958 49.6146L11.1667 49.625Z" fill="#404040"/>
<path d="M28.875 47.5417H11.1666V49.625H28.875V47.5417Z" fill="#404040"/>
<path d="M48.6667 54.8334H34.0834C33.2546 54.8334 32.4597 54.5041 31.8737 53.9181C31.2876 53.332 30.9584 52.5372 30.9584 51.7084V42.3334C30.9584 41.5046 31.2876 40.7097 31.8737 40.1236C32.4597 39.5376 33.2546 39.2084 34.0834 39.2084H48.6667C49.4955 39.2084 50.2904 39.5376 50.8764 40.1236C51.4625 40.7097 51.7917 41.5046 51.7917 42.3334V51.7084C51.7917 52.5372 51.4625 53.332 50.8764 53.9181C50.2904 54.5041 49.4955 54.8334 48.6667 54.8334V54.8334ZM34.0834 41.2917C33.8071 41.2917 33.5422 41.4014 33.3468 41.5968C33.1515 41.7921 33.0417 42.0571 33.0417 42.3334V51.7084C33.0417 51.9846 33.1515 52.2496 33.3468 52.4449C33.5422 52.6403 33.8071 52.75 34.0834 52.75H48.6667C48.943 52.75 49.2079 52.6403 49.4033 52.4449C49.5986 52.2496 49.7084 51.9846 49.7084 51.7084V42.3334C49.7084 42.0571 49.5986 41.7921 49.4033 41.5968C49.2079 41.4014 48.943 41.2917 48.6667 41.2917H34.0834Z" fill="#FA4616"/>
<path d="M47.625 38.1667H45.5417V32.9584C45.5417 32.1296 45.2124 31.3347 44.6264 30.7486C44.0403 30.1626 43.2455 29.8334 42.4167 29.8334H40.3333C39.5045 29.8334 38.7097 30.1626 38.1236 30.7486C37.5376 31.3347 37.2083 32.1296 37.2083 32.9584V38.1667H35.125V32.9584C35.125 31.577 35.6737 30.2522 36.6505 29.2755C37.6272 28.2987 38.952 27.75 40.3333 27.75H42.4167C43.798 27.75 45.1228 28.2987 46.0995 29.2755C47.0763 30.2522 47.625 31.577 47.625 32.9584V38.1667Z" fill="#FA4616"/>
</svg>
