<svg width="64" height="64" viewBox="0 0 64 64" fill="none" xmlns="http://www.w3.org/2000/svg">
<path d="M57 51.75H49.7083V49.6667H54.9167V10.0833H9.08333V49.6667H14.2917V51.75H7V8H57V51.75Z" fill="#404040"/>
<path d="M55.9583 14.25H8.04163V16.3333H55.9583V14.25Z" fill="#404040"/>
<path d="M13.2501 11.125H11.1667V13.2083H13.2501V11.125Z" fill="#404040"/>
<path d="M17.4167 11.125H15.3334V13.2083H17.4167V11.125Z" fill="#404040"/>
<path d="M21.5833 11.125H19.5V13.2083H21.5833V11.125Z" fill="#404040"/>
<path d="M32 31.9583C31.1759 31.9583 30.3704 31.714 29.6852 31.2561C29 30.7983 28.4659 30.1476 28.1506 29.3862C27.8352 28.6249 27.7527 27.7871 27.9134 26.9788C28.0742 26.1706 28.471 25.4281 29.0537 24.8454C29.6365 24.2627 30.3789 23.8658 31.1871 23.7051C31.9954 23.5443 32.8332 23.6268 33.5945 23.9422C34.3559 24.2576 35.0067 24.7916 35.4645 25.4768C35.9223 26.162 36.1667 26.9676 36.1667 27.7917C36.1667 28.8967 35.7277 29.9566 34.9463 30.738C34.1649 31.5194 33.1051 31.9583 32 31.9583ZM32 25.7083C31.588 25.7083 31.1852 25.8305 30.8426 26.0594C30.5 26.2883 30.233 26.6137 30.0753 26.9944C29.9176 27.3751 29.8764 27.794 29.9567 28.1981C30.0371 28.6023 30.2355 28.9734 30.5269 29.2648C30.8182 29.5561 31.1895 29.7546 31.5936 29.835C31.9977 29.9153 32.4166 29.8741 32.7973 29.7164C33.178 29.5588 33.5034 29.2917 33.7323 28.9491C33.9612 28.6065 34.0834 28.2037 34.0834 27.7917C34.0834 27.2391 33.8639 26.7093 33.4732 26.3186C33.0825 25.9279 32.5526 25.7083 32 25.7083Z" fill="#FA4616"/>
<path d="M31.9999 49.6667C29.1874 49.6667 25.7499 45.8125 25.7499 41.3333C25.682 38.0139 26.8857 34.7941 29.1145 32.3333L30.7187 33.6562C28.8041 35.7482 27.7705 38.4982 27.8332 41.3333C27.8332 44.9375 30.5728 47.5833 31.9999 47.5833C33.427 47.5833 36.1666 44.9375 36.1666 41.3333C36.2293 38.4982 35.1957 35.7482 33.2812 33.6562L34.8854 32.3333C37.1141 34.7941 38.3178 38.0139 38.2499 41.3333C38.2499 45.8125 34.8124 49.6667 31.9999 49.6667Z" fill="#FA4616"/>
<path d="M26.0207 32.6875L22.8957 29.5625C22.6995 29.3702 22.5872 29.1081 22.5833 28.8333V18.4167H24.6666V28.3958L27.4895 31.2187L26.0207 32.6875Z" fill="#FA4616"/>
<path d="M23.9374 36.8542L18.7291 31.6458C18.5328 31.4535 18.4205 31.1914 18.4166 30.9167V23.625H20.5V30.4792L25.4062 35.3854L23.9374 36.8542Z" fill="#FA4616"/>
<path d="M18.4583 51.75H16.375V43.4167C16.3756 43.2788 16.4035 43.1425 16.4571 43.0155C16.5108 42.8886 16.5891 42.7735 16.6875 42.6771L21.8959 37.4687L23.3646 38.9375L18.4583 43.8437V51.75Z" fill="#FA4616"/>
<path d="M22.6251 56.9583H20.5417V45.5C20.5423 45.3622 20.5702 45.2258 20.6239 45.0989C20.6775 44.9719 20.7558 44.8569 20.8543 44.7604L23.9793 41.6354L25.448 43.1042L22.6251 45.9271V56.9583Z" fill="#FA4616"/>
<path d="M37.9479 32.6875L36.4375 31.2187L39.25 28.3958V18.4167H41.3333V28.8333C41.3322 29.1066 41.2237 29.3685 41.0313 29.5625L37.9479 32.6875Z" fill="#FA4616"/>
<path d="M40.0313 36.8542L38.5209 35.3854L43.4167 30.4792V23.625H45.5001V30.9167C45.4989 31.1899 45.3904 31.4518 45.198 31.6458L40.0313 36.8542Z" fill="#FA4616"/>
<path d="M47.6251 51.75H45.5417V43.8437L40.6042 38.9375L42.073 37.4687L47.2813 42.6771C47.3779 42.7744 47.4542 42.8898 47.5061 43.0168C47.5579 43.1437 47.5842 43.2796 47.5834 43.4167L47.6251 51.75Z" fill="#FA4616"/>
<path d="M43.4584 56.9583H41.375V45.9271L38.5209 43.1042L39.9896 41.6354L43.1146 44.7604C43.2112 44.8577 43.2875 44.9732 43.3394 45.1001C43.3912 45.227 43.4175 45.3629 43.4167 45.5L43.4584 56.9583Z" fill="#FA4616"/>
</svg>
