<svg width="64" height="64" viewBox="0 0 64 64" fill="none" xmlns="http://www.w3.org/2000/svg">
<path d="M26.4894 26.1489C24.8085 26.1489 10 26.0213 10 21.8936V12.3192H12.1277V21.7872C12.7766 22.5638 17.6277 24.0213 26.4894 24.0213C35.3511 24.0213 40.2128 22.5638 40.8511 21.7872V12.3192H42.9787V21.8936C42.9787 26.0213 28.1809 26.1489 26.4894 26.1489Z" fill="#404040"/>
<path d="M26.4894 35.7234C24.8085 35.7234 10 35.5957 10 31.4681V22.9574H12.1277V31.3617C12.7766 32.1383 17.6277 33.5957 26.4894 33.5957C29.1133 33.6041 31.7352 33.4513 34.3404 33.1383L34.6064 35.2659C31.9121 35.5789 29.2017 35.7316 26.4894 35.7234Z" fill="#404040"/>
<path d="M42.9787 22.9574H40.8511V25.0851H42.9787V22.9574Z" fill="#404040"/>
<path d="M26.4894 45.2979C24.8085 45.2979 10 45.1702 10 41.0426V32.5319H12.1277V40.9362C12.7766 41.7128 17.6277 43.1702 26.4894 43.1702C27.734 43.1702 28.9681 43.1702 30.1596 43.0745L30.266 45.2021C29.0426 45.266 27.7766 45.2979 26.4894 45.2979Z" fill="#404040"/>
<path d="M26.4894 16.5745C24.8085 16.5745 10 16.4468 10 12.3191V11.2553C10 7.11702 24.8085 7 26.4894 7C28.1702 7 42.9787 7.11702 42.9787 11.2553V12.3191C42.9787 16.4468 28.1809 16.5745 26.4894 16.5745ZM12.1277 12.2128C12.7766 12.9894 17.6277 14.4468 26.4894 14.4468C35.3511 14.4468 40.2128 12.9894 40.8511 12.2128V11.3511C40.2128 10.5745 35.3617 9.12766 26.4894 9.12766C17.617 9.12766 12.7766 10.5745 12.1277 11.3511V12.2128Z" fill="#404040"/>
<path d="M16.383 18.7021H14.2554V20.8298H16.383V18.7021Z" fill="#404040"/>
<path d="M16.383 28.2766H14.2554V30.4043H16.383V28.2766Z" fill="#404040"/>
<path d="M16.383 37.8511H14.2554V39.9787H16.383V37.8511Z" fill="#404040"/>
<path d="M52.5532 57H33.4043C32.84 57 32.2988 56.7758 31.8998 56.3768C31.5008 55.9778 31.2766 55.4366 31.2766 54.8723V41.0426C31.2766 40.4783 31.5008 39.9371 31.8998 39.5381C32.2988 39.1391 32.84 38.9149 33.4043 38.9149H52.5532C53.1175 38.9149 53.6587 39.1391 54.0577 39.5381C54.4567 39.9371 54.6809 40.4783 54.6809 41.0426V54.8723C54.6809 55.4366 54.4567 55.9778 54.0577 56.3768C53.6587 56.7758 53.1175 57 52.5532 57ZM33.4043 41.0426V54.8723H52.5532V41.0426H33.4043Z" fill="#FA4616"/>
<path d="M50.4255 41.0426H35.5319V32.5319C35.5319 29.0106 38.8723 26.1489 42.9787 26.1489C47.0851 26.1489 50.4255 29.0106 50.4255 32.5319V41.0426ZM37.6595 38.9149H48.2978V32.5319C48.2978 30.1808 45.9148 28.2766 42.9787 28.2766C40.0425 28.2766 37.6595 30.1808 37.6595 32.5319V38.9149Z" fill="#FA4616"/>
</svg>
