<svg width="64" height="64" viewBox="0 0 64 64" fill="none" xmlns="http://www.w3.org/2000/svg">
<path d="M44.8789 18.3653C44.5998 18.3653 44.3322 18.2545 44.1349 18.0571C43.9375 17.8598 43.8267 17.5922 43.8267 17.3131V13.1044H40.6701C40.3911 13.1044 40.1234 12.9935 39.9261 12.7962C39.7288 12.5989 39.6179 12.3312 39.6179 12.0522C39.6179 11.7731 39.7288 11.5055 39.9261 11.3082C40.1234 11.1109 40.3911 11 40.6701 11H44.8789C45.1579 11 45.4256 11.1109 45.6229 11.3082C45.8202 11.5055 45.9311 11.7731 45.9311 12.0522V17.3131C45.9311 17.5922 45.8202 17.8598 45.6229 18.0571C45.4256 18.2545 45.1579 18.3653 44.8789 18.3653Z" fill="#404040"/>
<path d="M8.05219 18.3653C7.77313 18.3653 7.50552 18.2545 7.30819 18.0571C7.11087 17.8598 7 17.5922 7 17.3131V12.0522C7 11.7731 7.11087 11.5055 7.30819 11.3082C7.50552 11.1109 7.77313 11 8.05219 11H12.2609C12.54 11 12.8076 11.1109 13.005 11.3082C13.2023 11.5055 13.3131 11.7731 13.3131 12.0522C13.3131 12.3312 13.2023 12.5989 13.005 12.7962C12.8076 12.9935 12.54 13.1044 12.2609 13.1044H9.10438V17.3131C9.10438 17.5922 8.99354 17.8598 8.79622 18.0571C8.59889 18.2545 8.33125 18.3653 8.05219 18.3653Z" fill="#404040"/>
<path d="M12.2609 50.9831H8.05219C7.77313 50.9831 7.50552 50.8723 7.30819 50.675C7.11087 50.4776 7 50.21 7 49.931V44.67C7 44.391 7.11087 44.1233 7.30819 43.926C7.50552 43.7287 7.77313 43.6178 8.05219 43.6178C8.33125 43.6178 8.59889 43.7287 8.79622 43.926C8.99354 44.1233 9.10438 44.391 9.10438 44.67V48.8788H12.2609C12.54 48.8788 12.8076 48.9896 13.005 49.187C13.2023 49.3843 13.3131 49.6519 13.3131 49.931C13.3131 50.21 13.2023 50.4776 13.005 50.675C12.8076 50.8723 12.54 50.9831 12.2609 50.9831Z" fill="#404040"/>
<path d="M16.4697 45.7222C16.1906 45.7222 15.923 45.6114 15.7257 45.414C15.5284 45.2167 15.4175 44.9491 15.4175 44.67V38.3569C15.4175 36.0421 16.8274 33.864 19.3948 32.2121C21.6552 30.7354 24.2968 29.9489 26.9968 29.9489C29.6969 29.9489 32.3385 30.7354 34.5989 32.2121C37.1557 33.864 38.5656 36.0421 38.5656 38.3569V39.4091C38.5656 39.6881 38.4548 39.9558 38.2575 40.1531C38.0601 40.3504 37.7925 40.4613 37.5134 40.4613C37.2344 40.4613 36.9668 40.3504 36.7694 40.1531C36.5721 39.9558 36.4613 39.6881 36.4613 39.4091V38.3569C36.4613 36.2525 34.5779 34.7058 33.4625 33.9798C31.5403 32.7231 29.2934 32.0538 26.9968 32.0538C24.7002 32.0538 22.4534 32.7231 20.5311 33.9798C19.4053 34.7058 17.5219 36.2315 17.5219 38.3569V44.67C17.5219 44.9491 17.411 45.2167 17.2137 45.414C17.0164 45.6114 16.7487 45.7222 16.4697 45.7222Z" fill="#404040"/>
<path d="M26.9915 32.0438C22.7828 32.0438 19.6262 29.1503 19.6262 25.3098V21.9428C19.6262 18.1023 22.7828 15.2088 26.9915 15.2088C31.2003 15.2088 34.3569 18.1023 34.3569 21.9428V25.3098C34.3569 29.1503 31.1898 32.0438 26.9915 32.0438ZM26.9915 17.3131C23.9507 17.3131 21.7306 19.2597 21.7306 21.9428V25.3098C21.7306 27.9929 23.9507 29.9394 26.9915 29.9394C30.0324 29.9394 32.2525 27.9929 32.2525 25.3098V21.9428C32.2525 19.2597 30.0429 17.3131 26.9915 17.3131Z" fill="#404040"/>
<path d="M37.3451 52.9823C37.2067 52.9831 37.0694 52.9566 36.9412 52.9042C36.813 52.8519 36.6964 52.7747 36.5981 52.6772L28.5383 44.6069L30.0219 43.1233L37.2505 50.3413L55.3376 27.088L57.0001 28.3716L38.1764 52.572C38.0851 52.6912 37.9693 52.7896 37.8368 52.8603C37.7043 52.9311 37.5582 52.9727 37.4083 52.9823H37.3451Z" fill="#FA4616"/>
</svg>
