<svg width="64" height="64" viewBox="0 0 64 64" fill="none" xmlns="http://www.w3.org/2000/svg">
<path d="M15.0994 41.1139C14.8078 41.1139 14.5282 40.9981 14.322 40.7919C14.1158 40.5857 14 40.3061 14 40.0145V30.1201C14 25.4549 15.8532 20.9808 19.152 17.682C22.4508 14.3832 26.9249 12.5299 31.5901 12.5299C36.2553 12.5299 40.7294 14.3832 44.0282 17.682C47.327 20.9808 49.1803 25.4549 49.1803 30.1201V31.2195C49.1803 31.511 49.0644 31.7907 48.8583 31.9968C48.6521 32.203 48.3725 32.3188 48.0809 32.3188C47.7893 32.3188 47.5097 32.203 47.3035 31.9968C47.0973 31.7907 46.9815 31.511 46.9815 31.2195V30.1201C46.9815 26.038 45.3599 22.1232 42.4735 19.2367C39.587 16.3503 35.6722 14.7287 31.5901 14.7287C27.5081 14.7287 23.5932 16.3503 20.7068 19.2367C17.8203 22.1232 16.1988 26.038 16.1988 30.1201V40.0145C16.1988 40.3061 16.0829 40.5857 15.8768 40.7919C15.6706 40.9981 15.391 41.1139 15.0994 41.1139Z" fill="#404040"/>
<path d="M42.8587 53.46C42.7674 53.4707 42.6752 53.4707 42.5839 53.46C31.8979 50.6455 24.9938 41.9274 24.9938 31.2524V30.153C24.9938 28.4036 25.6887 26.7258 26.9258 25.4887C28.1628 24.2517 29.8406 23.5567 31.5901 23.5567C33.3395 23.5567 35.0173 24.2517 36.2544 25.4887C37.4914 26.7258 38.1864 28.4036 38.1864 30.153C38.1864 32.8441 39.1735 35.4417 40.9606 37.4537C42.7477 39.4657 45.2107 40.7524 47.8829 41.0699C48.1745 41.1049 48.4402 41.2543 48.6217 41.4852C48.8031 41.7161 48.8854 42.0096 48.8504 42.3012C48.8154 42.5928 48.666 42.8585 48.4351 43.04C48.2042 43.2214 47.9107 43.3037 47.6191 43.2687C44.4143 42.8867 41.4607 41.3433 39.3172 38.9304C37.1737 36.5174 35.9891 33.4025 35.9876 30.175C35.9876 29.0087 35.5243 27.8902 34.6996 27.0655C33.8749 26.2408 32.7564 25.7775 31.5901 25.7775C30.4238 25.7775 29.3052 26.2408 28.4805 27.0655C27.6558 27.8902 27.1925 29.0087 27.1925 30.175V31.2744C27.1925 40.916 33.459 48.7986 43.1446 51.3491C43.4362 51.387 43.7007 51.5392 43.8801 51.7722C44.0595 52.0052 44.139 52.2999 44.1011 52.5915C44.0632 52.883 43.911 53.1476 43.678 53.327C43.445 53.5063 43.1503 53.5858 42.8587 53.5479V53.46Z" fill="#404040"/>
<path d="M16.0119 46.303C15.8676 46.3246 15.7203 46.3176 15.5787 46.2824C15.437 46.2471 15.3037 46.1843 15.1863 46.0976C14.9492 45.9223 14.7914 45.6601 14.7477 45.3685C14.7039 45.0769 14.7778 44.7799 14.953 44.5428C15.1283 44.3057 15.3906 44.1479 15.6821 44.1042C15.8615 44.0479 16.0377 43.9819 16.2098 43.9063C17.1897 43.4787 18.0235 42.7746 18.6093 41.8803C19.1951 40.986 19.5074 39.9402 19.508 38.8711V30.0761C19.508 26.8687 20.7821 23.7928 23.05 21.5249C25.3179 19.257 28.3939 17.9828 31.6012 17.9828C34.7831 18.0636 37.8124 19.3636 40.063 21.6143C42.3137 23.8649 43.6137 26.8942 43.6944 30.0761C43.6942 31.3433 44.1317 32.5716 44.9331 33.5533C45.7344 34.535 46.8503 35.2096 48.092 35.463C48.3555 35.5426 48.5796 35.7181 48.72 35.9548C48.8604 36.1916 48.9068 36.4724 48.8502 36.7418C48.7936 37.0111 48.6379 37.2495 48.4141 37.4096C48.1902 37.5698 47.9144 37.6402 47.6412 37.6068C45.9068 37.2502 44.3485 36.3064 43.229 34.9345C42.1095 33.5627 41.4973 31.8467 41.4957 30.0761C41.4002 27.4823 40.3272 25.0207 38.4919 23.1854C36.6566 21.3501 34.1949 20.277 31.6012 20.1816C28.977 20.1816 26.4603 21.2241 24.6048 23.0796C22.7492 24.9352 21.7068 27.4519 21.7068 30.0761V38.8711C21.7065 40.3663 21.2707 41.8289 20.4527 43.0804C19.6346 44.3319 18.4697 45.318 17.1003 45.9182C16.8585 46.0281 16.6166 46.1161 16.3637 46.204C16.2517 46.2534 16.1333 46.2868 16.0119 46.303Z" fill="#404040"/>
<path d="M18.8814 51.7779C18.6362 51.774 18.3993 51.6883 18.2084 51.5343C18.0175 51.3802 17.8836 51.1668 17.8279 50.9279C17.7723 50.689 17.7982 50.4384 17.9014 50.2159C18.0047 49.9934 18.1794 49.8118 18.3977 49.7001C20.589 48.5238 22.4175 46.7714 23.6857 44.6319C23.8657 44.4527 24.1022 44.3413 24.355 44.3167C24.6079 44.2922 24.8614 44.3559 25.0725 44.4971C25.2837 44.6383 25.4394 44.8482 25.5133 45.0913C25.5872 45.3343 25.5746 45.5954 25.4777 45.8302C24.0017 48.3094 21.8666 50.3303 19.3102 51.6679C19.1762 51.7333 19.0303 51.7707 18.8814 51.7779V51.7779Z" fill="#404040"/>
<path d="M37.3179 57C37.1822 57.0012 37.0476 56.975 36.9221 56.923C34.6946 56.0217 32.601 54.8195 30.6996 53.35C30.0628 52.8563 29.2717 52.6042 28.4666 52.6384C27.6616 52.6726 26.8947 52.9909 26.3021 53.5369C25.5127 54.2349 24.6791 54.8812 23.8065 55.4718C23.6867 55.5527 23.5521 55.6091 23.4104 55.638C23.2688 55.6668 23.1229 55.6675 22.981 55.6399C22.839 55.6123 22.704 55.5571 22.5834 55.4773C22.4629 55.3976 22.3592 55.2948 22.2784 55.175C22.1975 55.0552 22.1411 54.9206 22.1122 54.779C22.0834 54.6373 22.0827 54.4914 22.1103 54.3495C22.1378 54.2076 22.1931 54.0725 22.2729 53.9519C22.3526 53.8314 22.4554 53.7277 22.5752 53.6469C23.3895 53.0998 24.168 52.5013 24.9059 51.8549C25.8754 50.9908 27.1153 50.4908 28.4131 50.4406C29.7108 50.3905 30.9856 50.7933 32.0189 51.58C33.76 52.9308 35.6756 54.0402 37.7137 54.8782C37.951 54.972 38.1483 55.1454 38.2718 55.3687C38.3953 55.592 38.4372 55.8514 38.3904 56.1022C38.3436 56.3531 38.211 56.5799 38.0153 56.7437C37.8197 56.9075 37.5731 56.9981 37.3179 57V57Z" fill="#404040"/>
<path d="M46.3659 48.6007H46.201C36.9772 47.2925 30.5348 40.1465 30.5348 31.2305C30.5348 30.9389 30.6506 30.6592 30.8568 30.4531C31.063 30.2469 31.3426 30.1311 31.6342 30.1311C31.9257 30.1311 32.2054 30.2469 32.4116 30.4531C32.6177 30.6592 32.7336 30.9389 32.7336 31.2305C32.7336 39.0251 38.4064 45.2696 46.5198 46.4239C46.6637 46.4429 46.8025 46.4901 46.928 46.5629C47.0536 46.6357 47.1635 46.7326 47.2514 46.8481C47.3392 46.9636 47.4034 47.0954 47.4401 47.2358C47.4769 47.3762 47.4854 47.5225 47.4653 47.6662C47.4255 47.9284 47.2924 48.1673 47.0904 48.3391C46.8883 48.5108 46.631 48.6037 46.3659 48.6007Z" fill="#404040"/>
<path d="M46.6958 15.2344C46.4143 15.2362 46.1427 15.13 45.9372 14.9376C42.0362 11.344 36.9485 9.31282 31.6452 9.23176C26.3506 9.20188 21.2436 11.1912 17.3642 14.7946C17.2589 14.8935 17.135 14.9707 16.9998 15.0217C16.8646 15.0728 16.7206 15.0967 16.5762 15.0921C16.4317 15.0875 16.2896 15.0545 16.1579 14.995C16.0262 14.9354 15.9075 14.8506 15.8086 14.7452C15.7097 14.6398 15.6326 14.5159 15.5815 14.3807C15.5305 14.2455 15.5066 14.1016 15.5112 13.9571C15.5158 13.8127 15.5488 13.6705 15.6083 13.5388C15.6678 13.4071 15.7527 13.2884 15.8581 13.1895C20.1274 9.20581 25.751 6.9933 31.5903 7.00002C37.4843 7.06839 43.1425 9.32537 47.4654 13.3325C47.6701 13.5384 47.7851 13.8171 47.7851 14.1075C47.7851 14.398 47.6701 14.6766 47.4654 14.8826C47.3667 14.9892 47.2479 15.0751 47.1158 15.1355C46.9837 15.1959 46.841 15.2295 46.6958 15.2344Z" fill="#404040"/>
</svg>
