<svg width="64" height="64" viewBox="0 0 64 64" fill="none" xmlns="http://www.w3.org/2000/svg">
<path d="M23.6667 46.5833H11.1667C10.0616 46.5833 9.00179 46.1443 8.22039 45.3629C7.43898 44.5815 7 43.5217 7 42.4167V11.1667C7 10.0616 7.43898 9.00179 8.22039 8.22039C9.00179 7.43898 10.0616 7 11.1667 7H23.6667C24.7717 7 25.8315 7.43898 26.6129 8.22039C27.3943 9.00179 27.8333 10.0616 27.8333 11.1667V18.4583H25.75V11.1667C25.75 10.6141 25.5305 10.0842 25.1398 9.69353C24.7491 9.30283 24.2192 9.08333 23.6667 9.08333H11.1667C10.6141 9.08333 10.0842 9.30283 9.69353 9.69353C9.30283 10.0842 9.08333 10.6141 9.08333 11.1667V42.4167C9.08333 42.9692 9.30283 43.4991 9.69353 43.8898C10.0842 44.2805 10.6141 44.5 11.1667 44.5H23.6667C24.2192 44.5 24.7491 44.2805 25.1398 43.8898C25.5305 43.4991 25.75 42.9692 25.75 42.4167V28.875H27.8333V42.4167C27.8333 43.5217 27.3943 44.5815 26.6129 45.3629C25.8315 46.1443 24.7717 46.5833 23.6667 46.5833Z" fill="#404040"/>
<path d="M40.3334 27.8333H17.5313C16.731 27.8552 15.9414 27.6461 15.2568 27.231C14.5723 26.8159 14.0218 26.2124 13.6713 25.4926C13.3207 24.7729 13.185 23.9674 13.2802 23.1725C13.3755 22.3776 13.6977 21.627 14.2084 21.0104C14.5991 20.5382 15.0893 20.1579 15.6438 19.8969C16.1984 19.6358 16.8038 19.5003 17.4167 19.5H40.3334C41.1622 19.5 41.957 19.8292 42.5431 20.4153C43.1291 21.0013 43.4584 21.7962 43.4584 22.625V24.7083C43.4584 25.5371 43.1291 26.332 42.5431 26.918C41.957 27.5041 41.1622 27.8333 40.3334 27.8333ZM17.4167 21.5833C17.1042 21.577 16.7944 21.6411 16.51 21.7707C16.2257 21.9004 15.9741 22.0924 15.7741 22.3325C15.574 22.5726 15.4305 22.8546 15.3542 23.1577C15.2779 23.4608 15.2708 23.7771 15.3334 24.0833C15.4512 24.5641 15.7286 24.9907 16.1202 25.2935C16.5119 25.5962 16.9946 25.7572 17.4896 25.75H40.3334C40.6096 25.75 40.8746 25.6403 41.0699 25.4449C41.2653 25.2496 41.375 24.9846 41.375 24.7083V22.625C41.375 22.3487 41.2653 22.0838 41.0699 21.8884C40.8746 21.6931 40.6096 21.5833 40.3334 21.5833H17.4167Z" fill="#404040"/>
<path d="M49.7291 53.8854C47.8731 53.7507 46.1361 52.9212 44.8645 51.5625C44.7669 51.4657 44.6894 51.3505 44.6365 51.2235C44.5836 51.0966 44.5564 50.9604 44.5564 50.8229C44.5564 50.6854 44.5836 50.5493 44.6365 50.4223C44.6894 50.2954 44.7669 50.1802 44.8645 50.0833C45.0597 49.8893 45.3237 49.7804 45.5989 49.7804C45.8741 49.7804 46.1381 49.8893 46.3333 50.0833C47.2189 51.0497 48.426 51.6607 49.7291 51.8021V51.8021C50.0054 51.8021 50.2703 51.9118 50.4657 52.1072C50.661 52.3025 50.7708 52.5675 50.7708 52.8438C50.7708 53.12 50.661 53.385 50.4657 53.5803C50.2703 53.7757 50.0054 53.8854 49.7291 53.8854V53.8854Z" fill="#FA4616"/>
<path d="M37.073 53.7187C36.7968 53.7408 36.523 53.6523 36.3121 53.4726C36.1011 53.2928 35.9701 53.0366 35.948 52.7604C35.9259 52.4841 36.0145 52.2104 36.1942 51.9994C36.3739 51.7884 36.6301 51.6575 36.9064 51.6354C40.5626 51.0208 42.4168 48.2604 42.4168 43.4375V41.3541C42.4168 41.0779 42.5265 40.8129 42.7219 40.6176C42.9172 40.4222 43.1822 40.3125 43.4585 40.3125C43.7347 40.3125 43.9997 40.4222 44.195 40.6176C44.3904 40.8129 44.5001 41.0779 44.5001 41.3541V43.4375C44.5001 49.3437 42.0001 52.8854 37.2085 53.6875L37.073 53.7187Z" fill="#FA4616"/>
<path d="M51.7917 45.5416C51.5154 45.5416 51.2505 45.4319 51.0551 45.2365C50.8598 45.0412 50.75 44.7762 50.75 44.5V41.2291C50.7405 40.2812 50.5443 39.3443 50.1727 38.4721C49.8011 37.6 49.2614 36.8095 48.5843 36.146C47.9072 35.4824 47.106 34.9587 46.2265 34.6048C45.347 34.2509 44.4064 34.0737 43.4584 34.0833H42.8334C42.5586 34.1064 42.2858 34.0196 42.0749 33.8419C41.864 33.6642 41.7322 33.4101 41.7084 33.1354C41.6853 32.8606 41.7721 32.5878 41.9498 32.3769C42.1275 32.1661 42.3816 32.0342 42.6563 32.0104C42.9271 32.0104 43.1875 32.0104 43.4584 32.0104C44.68 32.0008 45.8915 32.2319 47.0237 32.6905C48.156 33.1491 49.1868 33.8263 50.0574 34.6833C50.9279 35.5403 51.6212 36.5604 52.0975 37.6853C52.5738 38.8102 52.8238 40.018 52.8334 41.2396V44.5104C52.8306 44.7848 52.7197 45.0471 52.5246 45.2402C52.3296 45.4333 52.0662 45.5417 51.7917 45.5416V45.5416Z" fill="#FA4616"/>
<path d="M35.125 45.5417C34.8488 45.5417 34.5838 45.4319 34.3885 45.2366C34.1931 45.0412 34.0834 44.7763 34.0834 44.5V41.2292C34.0916 39.5999 34.5304 38.0017 35.3555 36.5968C36.1805 35.1918 37.3624 34.03 38.7813 33.2292C39.0216 33.091 39.307 33.054 39.5746 33.1263C39.8423 33.1986 40.0702 33.3742 40.2084 33.6146C40.3465 33.8549 40.3835 34.1403 40.3112 34.4079C40.2389 34.6756 40.0633 34.9035 39.823 35.0417C38.7225 35.6586 37.8053 36.5563 37.1648 37.6433C36.5244 38.7302 36.1836 39.9676 36.1771 41.2292V44.5C36.1771 44.6377 36.1498 44.774 36.0968 44.9011C36.0438 45.0281 35.9662 45.1434 35.8684 45.2403C35.7705 45.3371 35.6544 45.4136 35.5269 45.4654C35.3993 45.5171 35.2627 45.543 35.125 45.5417Z" fill="#FA4616"/>
<path d="M51.7916 49.8125C51.1028 49.8479 50.4141 49.7391 49.7696 49.4932C49.1252 49.2473 48.5392 48.8696 48.049 48.3843C47.5588 47.8991 47.1753 47.3168 46.9229 46.6749C46.6705 46.033 46.5548 45.3454 46.5833 44.6563V41.3542C46.5833 40.5254 46.254 39.7305 45.668 39.1445C45.0819 38.5584 44.2871 38.2292 43.4583 38.2292C42.7197 38.2258 42.0037 38.4841 41.4374 38.9583C41.2255 39.1322 40.9535 39.2155 40.6804 39.1902C40.4074 39.1648 40.1554 39.0329 39.9791 38.8229C39.8908 38.7183 39.824 38.5973 39.7825 38.4669C39.7409 38.3364 39.7255 38.199 39.7372 38.0626C39.7488 37.9262 39.7871 37.7934 39.8501 37.6719C39.9131 37.5503 39.9994 37.4424 40.1041 37.3542C41.0452 36.5694 42.2329 36.1415 43.4583 36.1458C44.8396 36.1458 46.1644 36.6946 47.1411 37.6713C48.1179 38.6481 48.6666 39.9728 48.6666 41.3542V44.6563C48.6362 45.0721 48.6967 45.4896 48.8437 45.8797C48.9908 46.2699 49.2209 46.6234 49.5182 46.9157C49.8155 47.208 50.1728 47.4322 50.5654 47.5727C50.9579 47.7131 51.3763 47.7665 51.7916 47.7292C52.0679 47.7292 52.3328 47.8389 52.5282 48.0343C52.7235 48.2296 52.8333 48.4946 52.8333 48.7708C52.8333 49.0471 52.7235 49.3121 52.5282 49.5074C52.3328 49.7028 52.0679 49.8125 51.7916 49.8125Z" fill="#FA4616"/>
<path d="M35.125 49.7083C34.8488 49.7083 34.5838 49.5986 34.3885 49.4032C34.1931 49.2079 34.0834 48.9429 34.0834 48.6667C34.0834 48.3904 34.1931 48.1255 34.3885 47.9301C34.5838 47.7348 34.8488 47.625 35.125 47.625C37.2084 47.625 38.25 46.5833 38.25 44.5V41.375C38.25 41.0987 38.3598 40.8338 38.5551 40.6384C38.7505 40.4431 39.0154 40.3333 39.2917 40.3333C39.568 40.3333 39.8329 40.4431 40.0283 40.6384C40.2236 40.8338 40.3334 41.0987 40.3334 41.375V44.5C40.3334 47.7604 38.3855 49.7083 35.125 49.7083Z" fill="#FA4616"/>
<path d="M30.9583 37.2083C30.682 37.2083 30.4171 37.0986 30.2217 36.9032C30.0264 36.7079 29.9166 36.4429 29.9166 36.1667V30.9583C29.9166 30.6821 30.0264 30.4171 30.2217 30.2218C30.4171 30.0264 30.682 29.9167 30.9583 29.9167H35.125C35.4012 29.9167 35.6662 30.0264 35.8615 30.2218C36.0569 30.4171 36.1666 30.6821 36.1666 30.9583C36.1666 31.2346 36.0569 31.4995 35.8615 31.6949C35.6662 31.8902 35.4012 32 35.125 32H32V36.1667C32 36.4429 31.8902 36.7079 31.6949 36.9032C31.4995 37.0986 31.2346 37.2083 30.9583 37.2083Z" fill="#404040"/>
<path d="M55.9583 37.2083C55.6821 37.2083 55.4171 37.0986 55.2218 36.9032C55.0264 36.7079 54.9167 36.4429 54.9167 36.1667V32H51.7917C51.5154 32 51.2504 31.8902 51.0551 31.6949C50.8597 31.4995 50.75 31.2346 50.75 30.9583C50.75 30.6821 50.8597 30.4171 51.0551 30.2218C51.2504 30.0264 51.5154 29.9167 51.7917 29.9167H55.9583C56.2346 29.9167 56.4995 30.0264 56.6949 30.2218C56.8902 30.4171 57 30.6821 57 30.9583V36.1667C57 36.4429 56.8902 36.7079 56.6949 36.9032C56.4995 37.0986 56.2346 37.2083 55.9583 37.2083Z" fill="#404040"/>
<path d="M35.125 57H30.9583C30.682 57 30.4171 56.8903 30.2217 56.6949C30.0264 56.4996 29.9166 56.2346 29.9166 55.9583V50.75C29.9166 50.4737 30.0264 50.2088 30.2217 50.0134C30.4171 49.8181 30.682 49.7083 30.9583 49.7083C31.2346 49.7083 31.4995 49.8181 31.6949 50.0134C31.8902 50.2088 32 50.4737 32 50.75V54.9167H35.125C35.4012 54.9167 35.6662 55.0264 35.8615 55.2218C36.0569 55.4171 36.1666 55.6821 36.1666 55.9583C36.1666 56.2346 36.0569 56.4996 35.8615 56.6949C35.6662 56.8903 35.4012 57 35.125 57Z" fill="#404040"/>
<path d="M55.9583 57H51.7917C51.5154 57 51.2504 56.8903 51.0551 56.6949C50.8597 56.4996 50.75 56.2346 50.75 55.9583C50.75 55.6821 50.8597 55.4171 51.0551 55.2218C51.2504 55.0264 51.5154 54.9167 51.7917 54.9167H54.9167V50.75C54.9167 50.4737 55.0264 50.2088 55.2218 50.0134C55.4171 49.8181 55.6821 49.7083 55.9583 49.7083C56.2346 49.7083 56.4995 49.8181 56.6949 50.0134C56.8902 50.2088 57 50.4737 57 50.75V55.9583C57 56.2346 56.8902 56.4996 56.6949 56.6949C56.4995 56.8903 56.2346 57 55.9583 57Z" fill="#404040"/>
<path d="M17.4167 39.2917C17.1404 39.2917 16.8754 39.1819 16.6801 38.9866C16.4847 38.7912 16.375 38.5263 16.375 38.25V34.0833C16.375 33.8071 16.4847 33.5421 16.6801 33.3468C16.8754 33.1514 17.1404 33.0417 17.4167 33.0417C17.6929 33.0417 17.9579 33.1514 18.1532 33.3468C18.3486 33.5421 18.4583 33.8071 18.4583 34.0833V38.25C18.4583 38.5263 18.3486 38.7912 18.1532 38.9866C17.9579 39.1819 17.6929 39.2917 17.4167 39.2917Z" fill="#404040"/>
</svg>
