<svg width="64" height="64" viewBox="0 0 64 64" fill="none" xmlns="http://www.w3.org/2000/svg">
<path d="M49.5638 50.4468C47.6679 50.3023 45.8951 49.452 44.5957 48.0639C44.3976 47.8645 44.2864 47.5949 44.2864 47.3139C44.2864 47.0328 44.3976 46.7632 44.5957 46.5639C44.6946 46.4641 44.8123 46.385 44.9419 46.331C45.0716 46.277 45.2106 46.2492 45.3511 46.2492C45.4915 46.2492 45.6305 46.277 45.7602 46.331C45.8898 46.385 46.0075 46.4641 46.1064 46.5639C47.0105 47.5454 48.2379 48.1685 49.5638 48.3192C49.846 48.3192 50.1166 48.4313 50.3161 48.6308C50.5156 48.8303 50.6277 49.1009 50.6277 49.383C50.6277 49.6652 50.5156 49.9357 50.3161 50.1352C50.1166 50.3348 49.846 50.4468 49.5638 50.4468V50.4468Z" fill="#FA4616"/>
<path d="M36.6488 50.266C36.3667 50.29 36.0866 50.2009 35.8701 50.0183C35.6536 49.8358 35.5185 49.5747 35.4946 49.2926C35.4706 49.0104 35.5597 48.7303 35.7422 48.5139C35.9248 48.2974 36.1858 48.1623 36.468 48.1383C40.2127 47.5107 42.1063 44.6915 42.1063 39.766V37.6383C42.1063 37.3562 42.2184 37.0856 42.4179 36.8861C42.6174 36.6866 42.888 36.5745 43.1701 36.5745C43.4523 36.5745 43.7228 36.6866 43.9223 36.8861C44.1219 37.0856 44.2339 37.3562 44.2339 37.6383V39.766C44.2339 45.7979 41.6701 49.4256 36.7871 50.2341L36.6488 50.266Z" fill="#FA4616"/>
<path d="M51.6809 41.9149C51.3987 41.9149 51.1282 41.8028 50.9286 41.6033C50.7291 41.4038 50.6171 41.1332 50.6171 40.8511V37.5107C50.5946 35.5563 49.7981 33.6905 48.4021 32.3225C47.0062 30.9544 45.1247 30.1958 43.1703 30.2128H42.5319C42.2513 30.2364 41.9727 30.1477 41.7574 29.9662C41.542 29.7848 41.4074 29.5253 41.383 29.2447C41.3744 29.1049 41.3934 28.9649 41.439 28.8325C41.4846 28.7001 41.556 28.578 41.6489 28.4732C41.7418 28.3685 41.8545 28.2831 41.9804 28.222C42.1064 28.1608 42.2432 28.1252 42.383 28.117C42.649 28.117 42.9256 28.117 43.2022 28.117C45.7209 28.1 48.1435 29.0829 49.9385 30.8499C51.7334 32.617 52.7542 35.0239 52.7766 37.5426V40.883C52.7725 41.0227 52.7409 41.1603 52.6836 41.2878C52.6262 41.4153 52.5444 41.5302 52.4426 41.626C52.3408 41.7219 52.2212 41.7967 52.0905 41.8463C51.9598 41.8958 51.8206 41.9192 51.6809 41.9149Z" fill="#FA4616"/>
<path d="M34.6595 41.9149C34.3774 41.9149 34.1068 41.8028 33.9073 41.6033C33.7078 41.4038 33.5957 41.1332 33.5957 40.8511V37.5107C33.6041 35.848 34.0511 34.217 34.8917 32.7824C35.7323 31.3478 36.9366 30.1605 38.3829 29.3404C38.505 29.2705 38.6397 29.2255 38.7793 29.208C38.9188 29.1905 39.0605 29.2008 39.196 29.2384C39.3315 29.276 39.4583 29.3401 39.5689 29.427C39.6795 29.5139 39.7718 29.6219 39.8404 29.7447C39.9782 29.9903 40.013 30.2804 39.9373 30.5516C39.8615 30.8228 39.6813 31.0529 39.4361 31.1915C38.3164 31.8255 37.3836 32.7435 36.7318 33.8529C36.08 34.9623 35.7321 36.2239 35.7234 37.5107V40.8511C35.7234 41.1332 35.6113 41.4038 35.4118 41.6033C35.2123 41.8028 34.9417 41.9149 34.6595 41.9149Z" fill="#FA4616"/>
<path d="M51.6808 46.2766C50.9726 46.3133 50.2646 46.2008 49.6026 45.9465C48.9407 45.6922 48.3395 45.3016 47.838 44.8002C47.3366 44.2987 46.946 43.6976 46.6917 43.0356C46.4374 42.3736 46.325 41.6656 46.3617 40.9574V37.6383C46.3617 36.7918 46.0254 35.9801 45.4269 35.3815C44.8284 34.783 44.0166 34.4468 43.1702 34.4468C42.4158 34.4433 41.6847 34.7071 41.1063 35.1915C40.9988 35.281 40.8747 35.3485 40.7411 35.3901C40.6075 35.4316 40.467 35.4464 40.3276 35.4335C40.1883 35.4207 40.0529 35.3805 39.9291 35.3152C39.8053 35.2499 39.6956 35.1609 39.6063 35.0532C39.4287 34.8367 39.3437 34.5589 39.3696 34.2801C39.3954 34.0013 39.5302 33.7439 39.7446 33.5638C40.5167 32.9138 41.4577 32.4969 42.4578 32.3617C43.4579 32.2265 44.4758 32.3786 45.3927 32.8002C46.3096 33.2219 47.0876 33.8957 47.6359 34.7429C48.1843 35.5902 48.4802 36.5759 48.4893 37.5851V40.9574C48.4501 41.3863 48.5057 41.8187 48.6522 42.2237C48.7987 42.6287 49.0325 42.9966 49.3371 43.3011C49.6417 43.6057 50.0095 43.8395 50.4145 43.986C50.8196 44.1325 51.2519 44.1882 51.6808 44.1489C51.963 44.1489 52.2335 44.261 52.4331 44.4605C52.6326 44.66 52.7446 44.9306 52.7446 45.2127C52.7446 45.4949 52.6326 45.7655 52.4331 45.965C52.2335 46.1645 51.963 46.2766 51.6808 46.2766Z" fill="#FA4616"/>
<path d="M34.6595 46.1703C34.3774 46.1703 34.1068 46.0582 33.9073 45.8587C33.7078 45.6592 33.5957 45.3886 33.5957 45.1064C33.5957 44.8243 33.7078 44.5537 33.9073 44.3542C34.1068 44.1547 34.3774 44.0426 34.6595 44.0426C36.7872 44.0426 37.851 42.9788 37.851 40.8511V37.6596C37.851 37.3775 37.9631 37.1069 38.1626 36.9074C38.3621 36.7079 38.6327 36.5958 38.9149 36.5958C39.197 36.5958 39.4676 36.7079 39.6671 36.9074C39.8666 37.1069 39.9787 37.3775 39.9787 37.6596V40.8511C39.9787 44.1809 37.9893 46.1703 34.6595 46.1703Z" fill="#FA4616"/>
<path d="M30.4043 32.3405C30.1221 32.3405 29.8515 32.2284 29.652 32.0289C29.4525 31.8294 29.3405 31.5588 29.3405 31.2766V25.9575C29.3405 25.6753 29.4525 25.4047 29.652 25.2052C29.8515 25.0057 30.1221 24.8936 30.4043 24.8936H34.6596C34.9417 24.8936 35.2123 25.0057 35.4118 25.2052C35.6114 25.4047 35.7234 25.6753 35.7234 25.9575C35.7234 26.2396 35.6114 26.5102 35.4118 26.7097C35.2123 26.9092 34.9417 27.0213 34.6596 27.0213H31.4681V31.2766C31.4681 31.5588 31.356 31.8294 31.1565 32.0289C30.957 32.2284 30.6864 32.3405 30.4043 32.3405Z" fill="#404040"/>
<path d="M55.9362 32.3405C55.6541 32.3405 55.3835 32.2284 55.184 32.0289C54.9845 31.8294 54.8724 31.5588 54.8724 31.2766V27.0213H51.6809C51.3987 27.0213 51.1282 26.9092 50.9287 26.7097C50.7291 26.5102 50.6171 26.2396 50.6171 25.9575C50.6171 25.6753 50.7291 25.4047 50.9287 25.2052C51.1282 25.0057 51.3987 24.8936 51.6809 24.8936H55.9362C56.2184 24.8936 56.4889 25.0057 56.6885 25.2052C56.888 25.4047 57 25.6753 57 25.9575V31.2766C57 31.5588 56.888 31.8294 56.6885 32.0289C56.4889 32.2284 56.2184 32.3405 55.9362 32.3405Z" fill="#404040"/>
<path d="M34.6596 53.617H30.4043C30.1221 53.617 29.8515 53.5049 29.652 53.3054C29.4525 53.1059 29.3405 52.8353 29.3405 52.5532V47.234C29.3405 46.9519 29.4525 46.6813 29.652 46.4818C29.8515 46.2823 30.1221 46.1702 30.4043 46.1702C30.6864 46.1702 30.957 46.2823 31.1565 46.4818C31.356 46.6813 31.4681 46.9519 31.4681 47.234V51.4893H34.6596C34.9417 51.4893 35.2123 51.6014 35.4118 51.8009C35.6114 52.0004 35.7234 52.271 35.7234 52.5532C35.7234 52.8353 35.6114 53.1059 35.4118 53.3054C35.2123 53.5049 34.9417 53.617 34.6596 53.617Z" fill="#404040"/>
<path d="M55.9362 53.617H51.6809C51.3987 53.617 51.1282 53.5049 50.9287 53.3054C50.7291 53.1059 50.6171 52.8353 50.6171 52.5532C50.6171 52.271 50.7291 52.0004 50.9287 51.8009C51.1282 51.6014 51.3987 51.4893 51.6809 51.4893H54.8724V47.234C54.8724 46.9519 54.9845 46.6813 55.184 46.4818C55.3835 46.2823 55.6541 46.1702 55.9362 46.1702C56.2184 46.1702 56.4889 46.2823 56.6885 46.4818C56.888 46.6813 57 46.9519 57 47.234V52.5532C57 52.8353 56.888 53.1059 56.6885 53.3054C56.4889 53.5049 56.2184 53.617 55.9362 53.617Z" fill="#404040"/>
<path d="M26.1489 50.4255H8.06383C7.78168 50.4255 7.51109 50.3134 7.31159 50.1139C7.11208 49.9144 7 49.6438 7 49.3617V11.0638C7 10.7817 7.11208 10.5111 7.31159 10.3116C7.51109 10.1121 7.78168 10 8.06383 10H53.8085C54.0907 10 54.3613 10.1121 54.5608 10.3116C54.7603 10.5111 54.8723 10.7817 54.8723 11.0638V21.7021C54.8723 21.9843 54.7603 22.2549 54.5608 22.4544C54.3613 22.6539 54.0907 22.766 53.8085 22.766C53.5264 22.766 53.2558 22.6539 53.0563 22.4544C52.8568 22.2549 52.7447 21.9843 52.7447 21.7021V12.1277H9.12766V48.2979H26.1489C26.4311 48.2979 26.7017 48.41 26.9012 48.6095C27.1007 48.809 27.2128 49.0796 27.2128 49.3617C27.2128 49.6438 27.1007 49.9144 26.9012 50.1139C26.7017 50.3134 26.4311 50.4255 26.1489 50.4255Z" fill="#404040"/>
<path d="M53.8085 18.5107H8.06383C7.78168 18.5107 7.51109 18.3986 7.31159 18.1991C7.11208 17.9996 7 17.729 7 17.4468C7 17.1647 7.11208 16.8941 7.31159 16.6946C7.51109 16.4951 7.78168 16.383 8.06383 16.383H53.8085C54.0907 16.383 54.3613 16.4951 54.5608 16.6946C54.7603 16.8941 54.8723 17.1647 54.8723 17.4468C54.8723 17.729 54.7603 17.9996 54.5608 18.1991C54.3613 18.3986 54.0907 18.5107 53.8085 18.5107Z" fill="#404040"/>
<path d="M13.383 13.1915H11.2554V15.3192H13.383V13.1915Z" fill="#404040"/>
<path d="M16.5746 13.1915H14.4469V15.3192H16.5746V13.1915Z" fill="#404040"/>
</svg>
