<svg width="64" height="64" viewBox="0 0 64 64" fill="none" xmlns="http://www.w3.org/2000/svg">
<path d="M24.3917 26.0355C22.7208 26.0355 8 25.9086 8 21.8054V12.2877H10.1151V21.6997C10.7602 22.4717 15.5825 23.9205 24.3917 23.9205C33.2009 23.9205 38.0338 22.4717 38.6684 21.6997V12.2877H40.7834V21.8054C40.7834 25.9086 26.0732 26.0355 24.3917 26.0355Z" fill="#404040"/>
<path d="M24.3917 16.5178C22.7208 16.5178 8 16.3909 8 12.2876V11.2301C8 7.11633 22.7208 7 24.3917 7C26.0626 7 40.7834 7.11633 40.7834 11.2301V12.2876C40.7834 16.3909 26.0732 16.5178 24.3917 16.5178ZM10.1151 12.1819C10.7602 12.9539 15.5825 14.4027 24.3917 14.4027C33.2009 14.4027 38.0338 12.9539 38.6684 12.1819V11.3253C38.0338 10.5533 33.2115 9.11506 24.3917 9.11506C15.5719 9.11506 10.7602 10.5533 10.1151 11.3253V12.1819Z" fill="#404040"/>
<path d="M14.3452 18.6328H12.2301V20.7479H14.3452V18.6328Z" fill="#404040"/>
<path d="M14.3452 28.1506H12.2301V30.2657H14.3452V28.1506Z" fill="#404040"/>
<path d="M14.3452 37.6684H12.2301V39.7834H14.3452V37.6684Z" fill="#404040"/>
<path d="M29.2881 57L24.9205 54.0918V48.8041L38.182 35.6062C37.803 34.573 37.6097 33.4811 37.6109 32.3807C37.6109 30.4983 38.1691 28.6581 39.2149 27.0929C40.2608 25.5277 41.7472 24.3078 43.4864 23.5874C45.2255 22.8671 47.1392 22.6785 48.9855 23.0458C50.8317 23.413 52.5277 24.3195 53.8587 25.6506C55.1898 26.9817 56.0963 28.6776 56.4635 30.5239C56.8308 32.3701 56.6423 34.2839 55.9219 36.023C55.2016 37.7621 53.9816 39.2486 52.4165 40.2944C50.8513 41.3403 49.0111 41.8985 47.1287 41.8985C46.3146 41.8978 45.504 41.7911 44.7175 41.5812L40.1701 46.1286H38.0762L37.632 46.5622V48.6772L35.9611 50.3587H33.8461L33.4019 50.7923V52.9074L29.2881 57ZM27.0356 52.9602L29.0237 54.3139L31.2657 52.0613V49.9463L32.9472 48.2754H35.0622L35.4958 47.8312V45.7161L37.1773 44.0453H39.2924L44.1359 39.2018L44.7598 39.4133C45.5219 39.6766 46.3223 39.8124 47.1287 39.8151C48.5928 39.8151 50.024 39.381 51.2414 38.5675C52.4588 37.7541 53.4076 36.598 53.9679 35.2453C54.5282 33.8926 54.6748 32.4042 54.3891 30.9682C54.1035 29.5322 53.3985 28.2132 52.3632 27.1779C51.3279 26.1426 50.0088 25.4376 48.5729 25.1519C47.1369 24.8663 45.6484 25.0129 44.2958 25.5732C42.9431 26.1335 41.787 27.0823 40.9735 28.2997C40.1601 29.5171 39.7259 30.9483 39.7259 32.4124C39.7245 33.4606 39.9519 34.4964 40.3922 35.4475L40.6883 36.1138L27.0356 49.7348V52.9602Z" fill="#FA4616"/>
<path d="M24.3917 35.5533C22.7208 35.5533 8 35.4264 8 31.3232V22.8629H10.1151V31.2174C10.7602 31.9894 15.5825 33.4382 24.3917 33.4382C28.3918 33.4972 32.385 33.0855 36.2889 32.2115L36.8283 34.2525C32.7502 35.1852 28.5745 35.622 24.3917 35.5533V35.5533Z" fill="#404040"/>
<path d="M40.7834 22.8629H38.6683V24.978H40.7834V22.8629Z" fill="#404040"/>
<path d="M24.3917 45.0711C22.7208 45.0711 8 44.9442 8 40.841V32.3807H10.1151V40.7352C10.7602 41.5072 15.5825 42.956 24.3917 42.956C25.6396 42.956 26.8663 42.956 28.0402 42.8608L28.1565 44.9759C26.9298 45.0394 25.6713 45.0711 24.3917 45.0711Z" fill="#404040"/>
<path d="M50.3012 29.2081H48.1862V31.3232H50.3012V29.2081Z" fill="#FA4616"/>
</svg>
