<svg width="64" height="64" viewBox="0 0 64 64" fill="none" xmlns="http://www.w3.org/2000/svg">
<path d="M55.913 49.0435H43.9565V46.8696H54.8261V13.1739H9.17391V46.8696H20.0435V49.0435H8.08696C7.79868 49.0435 7.52221 48.9289 7.31836 48.7251C7.11452 48.5213 7 48.2448 7 47.9565V12.087C7 11.7987 7.11452 11.5222 7.31836 11.3184C7.52221 11.1145 7.79868 11 8.08696 11H55.913C56.0558 11 56.1971 11.0281 56.329 11.0827C56.4609 11.1374 56.5807 11.2174 56.6816 11.3184C56.7826 11.4193 56.8626 11.5391 56.9172 11.671C56.9719 11.8029 57 11.9442 57 12.087V47.9565C57 48.0993 56.9719 48.2406 56.9172 48.3725C56.8626 48.5044 56.7826 48.6242 56.6816 48.7251C56.5807 48.826 56.4609 48.9061 56.329 48.9607C56.1971 49.0154 56.0558 49.0435 55.913 49.0435V49.0435Z" fill="#404040"/>
<path d="M55.913 17.5217H8.08691V19.6956H55.913V17.5217Z" fill="#404040"/>
<path d="M13.5218 14.2609H11.3479V16.4348H13.5218V14.2609Z" fill="#404040"/>
<path d="M17.8696 14.2609H15.6957V16.4348H17.8696V14.2609Z" fill="#404040"/>
<path d="M22.2174 14.2609H20.0435V16.4348H22.2174V14.2609Z" fill="#404040"/>
<path d="M39.6087 52.3043H24.3913C23.8148 52.3043 23.2618 52.0753 22.8541 51.6676C22.4464 51.2599 22.2174 50.707 22.2174 50.1304V38.1739C22.2174 37.5974 22.4464 37.0444 22.8541 36.6368C23.2618 36.2291 23.8148 36 24.3913 36H39.6087C40.1853 36 40.7382 36.2291 41.1459 36.6368C41.5536 37.0444 41.7826 37.5974 41.7826 38.1739V50.1304C41.7826 50.707 41.5536 51.2599 41.1459 51.6676C40.7382 52.0753 40.1853 52.3043 39.6087 52.3043ZM24.3913 38.1739V50.1304H39.6087V38.1739H24.3913Z" fill="#FA4616"/>
<path d="M38.5217 38.1739H25.4783V31.6522C25.4783 29.9225 26.1654 28.2637 27.3884 27.0406C28.6115 25.8176 30.2703 25.1304 32 25.1304C33.7297 25.1304 35.3885 25.8176 36.6116 27.0406C37.8346 28.2637 38.5217 29.9225 38.5217 31.6522V38.1739ZM27.6522 36H36.3478V31.6522C36.3478 30.4991 35.8897 29.3932 35.0744 28.5778C34.259 27.7624 33.1531 27.3043 32 27.3043C30.8469 27.3043 29.741 27.7624 28.9256 28.5778C28.1103 29.3932 27.6522 30.4991 27.6522 31.6522V36Z" fill="#FA4616"/>
</svg>
