<svg width="64" height="64" viewBox="0 0 64 64" fill="none" xmlns="http://www.w3.org/2000/svg">
<path d="M53.6667 56.8889H24.7778C23.8937 56.8889 23.0459 56.5377 22.4207 55.9126C21.7956 55.2874 21.4445 54.4396 21.4445 53.5556V32.4444C21.4445 31.5604 21.7956 30.7125 22.4207 30.0874C23.0459 29.4623 23.8937 29.1111 24.7778 29.1111H53.6667C54.5507 29.1111 55.3986 29.4623 56.0237 30.0874C56.6488 30.7125 57 31.5604 57 32.4444V53.5556C57 54.4396 56.6488 55.2874 56.0237 55.9126C55.3986 56.5377 54.5507 56.8889 53.6667 56.8889ZM24.7778 31.3333C24.4831 31.3333 24.2005 31.4504 23.9921 31.6588C23.7837 31.8671 23.6667 32.1498 23.6667 32.4444V53.5556C23.6667 53.8502 23.7837 54.1328 23.9921 54.3412C24.2005 54.5496 24.4831 54.6667 24.7778 54.6667H53.6667C53.9614 54.6667 54.244 54.5496 54.4523 54.3412C54.6607 54.1328 54.7778 53.8502 54.7778 53.5556V32.4444C54.7778 32.1498 54.6607 31.8671 54.4523 31.6588C54.244 31.4504 53.9614 31.3333 53.6667 31.3333H24.7778Z" fill="#404040"/>
<path d="M31.4444 30.2222H29.2222V20.2222C29.2222 17.5701 28.1686 15.0265 26.2933 13.1511C24.4179 11.2758 21.8744 10.2222 19.2222 10.2222C16.5701 10.2222 14.0265 11.2758 12.1511 13.1511C10.2758 15.0265 9.22222 17.5701 9.22222 20.2222V30.2222H7V20.2222C7 16.9807 8.28767 13.8719 10.5798 11.5798C12.8719 9.28767 15.9807 8 19.2222 8C22.4638 8 25.5725 9.28767 27.8646 11.5798C30.1567 13.8719 31.4444 16.9807 31.4444 20.2222V30.2222Z" fill="#404040"/>
<path d="M39.2221 51.3333C38.3381 51.3333 37.4902 50.9821 36.8651 50.357C36.24 49.7319 35.8888 48.884 35.8888 48V44.6667C35.0128 44.01 34.3504 43.1091 33.9847 42.0772C33.6189 41.0453 33.5663 39.9284 33.8333 38.8667C34.0759 37.8872 34.5838 36.9935 35.3012 36.284C36.0187 35.5744 36.9178 35.0763 37.8999 34.8444V34.8444C38.7232 34.6425 39.5818 34.6316 40.4099 34.8126C41.2381 34.9937 42.0138 35.3618 42.6777 35.8889C43.3397 36.4174 43.872 37.0904 44.234 37.8563C44.5961 38.6221 44.7781 39.4607 44.7663 40.3077C44.7545 41.1547 44.5492 41.9878 44.166 42.7433C43.7828 43.4988 43.2319 44.1567 42.5555 44.6667V48C42.5555 48.884 42.2043 49.7319 41.5792 50.357C40.954 50.9821 40.1062 51.3333 39.2221 51.3333V51.3333ZM38.411 36.9778C37.7696 37.1409 37.1912 37.4913 36.7497 37.9843C36.3081 38.4773 36.0233 39.0906 35.9315 39.7461C35.8398 40.4015 35.9452 41.0695 36.2344 41.6648C36.5236 42.2601 36.9835 42.7558 37.5555 43.0889C37.7234 43.1858 37.863 43.325 37.9605 43.4926C38.0579 43.6603 38.1099 43.8505 38.111 44.0444V48C38.111 48.2947 38.2281 48.5773 38.4365 48.7856C38.6448 48.994 38.9275 49.1111 39.2221 49.1111C39.5168 49.1111 39.7994 48.994 40.0078 48.7856C40.2162 48.5773 40.3333 48.2947 40.3333 48V44.0444C40.3344 43.8505 40.3863 43.6603 40.4838 43.4926C40.5812 43.325 40.7209 43.1858 40.8888 43.0889C41.5773 42.683 42.097 42.0433 42.3533 41.2863C42.6096 40.5293 42.5854 39.7055 42.2851 38.9649C41.9848 38.2242 41.4284 37.6161 40.7173 37.2514C40.0062 36.8867 39.1877 36.7895 38.411 36.9778V36.9778Z" fill="#FA4616"/>
</svg>
