<svg width="64" height="64" viewBox="0 0 64 64" fill="none" xmlns="http://www.w3.org/2000/svg">
<path d="M48.6879 42.1795H42.4382V40.0963H48.6879C50.3455 40.0963 51.9351 39.4379 53.1071 38.2658C54.2792 37.0938 54.9376 35.5041 54.9376 33.8466C54.9376 32.1891 54.2792 30.5995 53.1071 29.4274C51.9351 28.2554 50.3455 27.5969 48.6879 27.5969C48.0447 27.5945 47.405 27.6929 46.7922 27.8886L45.1152 28.4198L45.4485 26.7011C45.5269 26.3102 45.5653 25.9124 45.5631 25.5137C45.5609 24.3188 45.2162 23.1496 44.5699 22.1446C43.9236 21.1396 43.0027 20.341 41.9164 19.8433C40.8301 19.3457 39.6239 19.1699 38.4407 19.3367C37.2575 19.5036 36.147 20.0061 35.2407 20.7848L34.0741 21.8264L33.5741 20.3785C32.7837 18.0304 31.096 16.0907 28.8798 14.9832C26.6636 13.8757 24.099 13.6906 21.7467 14.4683C19.3944 15.246 17.4456 16.9232 16.3262 19.1335C15.2068 21.3437 15.0079 23.9072 15.7729 26.2637L16.1687 27.5136L14.8563 27.6177C13.1987 27.6813 11.6343 28.4007 10.5072 29.6176C9.3801 30.8346 8.7826 32.4495 8.84614 34.107C8.90968 35.7645 9.62905 37.3289 10.846 38.456C12.063 39.5832 13.6779 40.1807 15.3354 40.1171H21.5851V42.2004H15.3354C13.2865 42.201 11.3091 41.4467 9.78119 40.0816C8.25324 38.7165 7.28178 36.8364 7.0524 34.8003C6.82302 32.7643 7.35182 30.7151 8.53776 29.0443C9.72369 27.3735 11.4836 26.1981 13.4813 25.7429C13.3268 24.9889 13.25 24.221 13.2522 23.4513C13.2536 20.8645 14.1304 18.3543 15.7399 16.3291C17.3493 14.3039 19.5967 12.883 22.1164 12.2974C24.636 11.7119 27.2797 11.9962 29.6173 13.1041C31.9548 14.212 33.8487 16.0784 34.9907 18.3994C36.2547 17.6375 37.6985 17.225 39.1742 17.204C40.65 17.1831 42.1049 17.5544 43.3901 18.2802C44.6752 19.0059 45.7446 20.06 46.4888 21.3346C47.2329 22.6092 47.6252 24.0586 47.6255 25.5345V25.597C47.9711 25.5555 48.319 25.5346 48.6671 25.5345C50.8771 25.5345 52.9966 26.4124 54.5594 27.9752C56.1221 29.5379 57 31.6574 57 33.8674C57 36.0775 56.1221 38.197 54.5594 39.7597C52.9966 41.3224 50.8771 42.2004 48.6671 42.2004L48.6879 42.1795Z" fill="#404040"/>
<path d="M34.0636 22.4826C33.9932 21.7503 33.8323 21.0295 33.5845 20.3369L35.5531 19.6494C35.8576 20.4998 36.0536 21.3852 36.1364 22.2847L34.0636 22.4826Z" fill="#404040"/>
<path d="M46.4589 29.8051L44.6777 28.7635C45.0586 28.1215 45.3198 27.4156 45.4485 26.6803L47.5318 27.0761C47.3368 28.0416 46.9737 28.9654 46.4589 29.8051V29.8051Z" fill="#404040"/>
<path d="M17.1999 27.8469C16.4479 27.6195 15.6607 27.5313 14.8771 27.5865L14.7208 25.5033C15.7749 25.413 16.8364 25.5298 17.8457 25.847L17.1999 27.8469Z" fill="#404040"/>
<path d="M39.3133 51.5541H24.7307C24.1782 51.5541 23.6483 51.3346 23.2576 50.9439C22.8669 50.5532 22.6475 50.0234 22.6475 49.4708V38.0131C22.6475 37.4606 22.8669 36.9307 23.2576 36.54C23.6483 36.1493 24.1782 35.9298 24.7307 35.9298H39.3133C39.8658 35.9298 40.3957 36.1493 40.7864 36.54C41.1771 36.9307 41.3965 37.4606 41.3965 38.0131V49.4708C41.3965 50.0234 41.1771 50.5532 40.7864 50.9439C40.3957 51.3346 39.8658 51.5541 39.3133 51.5541ZM24.7307 38.0131V49.4708H39.3133V38.0131H24.7307Z" fill="#FA4616"/>
<path d="M38.2717 38.0131H25.7723V31.7634C25.7723 30.1059 26.4308 28.5162 27.6028 27.3442C28.7749 26.1721 30.3645 25.5137 32.022 25.5137C33.6796 25.5137 35.2692 26.1721 36.4412 27.3442C37.6133 28.5162 38.2717 30.1059 38.2717 31.7634V38.0131ZM27.8556 35.9298H36.1885V31.7634C36.1885 30.6584 35.7495 29.5986 34.9682 28.8173C34.1868 28.0359 33.127 27.5969 32.022 27.5969C30.917 27.5969 29.8573 28.0359 29.0759 28.8173C28.2945 29.5986 27.8556 30.6584 27.8556 31.7634V35.9298Z" fill="#FA4616"/>
</svg>
