<svg width="64" height="64" viewBox="0 0 64 64" fill="none" xmlns="http://www.w3.org/2000/svg">
<path d="M52.8333 49.4167H11.1667C10.0616 49.4167 9.00179 48.9777 8.22039 48.1963C7.43898 47.4149 7 46.3551 7 45.25V43.1667C7 42.8904 7.10975 42.6255 7.3051 42.4301C7.50045 42.2348 7.7654 42.125 8.04167 42.125H26.7917C26.9295 42.1256 27.0658 42.1535 27.1928 42.2071C27.3197 42.2608 27.4348 42.3391 27.5312 42.4375L28.2708 43.1667H35.7396L36.4792 42.4375C36.6715 42.2412 36.9336 42.1289 37.2083 42.125H55.9583C56.2346 42.125 56.4995 42.2348 56.6949 42.4301C56.8902 42.6255 57 42.8904 57 43.1667V45.25C57 45.7972 56.8922 46.339 56.6828 46.8445C56.4734 47.35 56.1665 47.8094 55.7796 48.1963C55.3927 48.5832 54.9334 48.8901 54.4278 49.0995C53.9223 49.3089 53.3805 49.4167 52.8333 49.4167ZM9.08333 44.2083V45.25C9.08333 45.8025 9.30283 46.3324 9.69353 46.7231C10.0842 47.1138 10.6141 47.3333 11.1667 47.3333H52.8333C53.3859 47.3333 53.9158 47.1138 54.3065 46.7231C54.6972 46.3324 54.9167 45.8025 54.9167 45.25V44.2083H37.625L36.8854 44.9479C36.7881 45.0444 36.6726 45.1209 36.5457 45.1727C36.4188 45.2245 36.2829 45.2508 36.1458 45.25H27.8125C27.5392 45.2488 27.2774 45.1403 27.0833 44.9479L26.3437 44.2083H9.08333Z" fill="#404040"/>
<path d="M53.875 43.1667H51.7917V17.125C51.7917 16.8487 51.6819 16.5838 51.4866 16.3884C51.2912 16.1931 51.0263 16.0833 50.75 16.0833H13.25C12.9737 16.0833 12.7088 16.1931 12.5134 16.3884C12.3181 16.5838 12.2083 16.8487 12.2083 17.125V43.1667H10.125V17.125C10.125 16.2962 10.4542 15.5013 11.0403 14.9153C11.6263 14.3292 12.4212 14 13.25 14H50.75C51.5788 14 52.3736 14.3292 52.9597 14.9153C53.5457 15.5013 53.875 16.2962 53.875 17.125V43.1667Z" fill="#404040"/>
<path d="M20.5417 30.6667C20.2654 30.6667 20.0004 30.5569 19.8051 30.3616C19.6097 30.1662 19.5 29.9013 19.5 29.625V24.4167H21.5833V27.9479L24.25 26.6146L25.1771 28.4791L21.0104 30.5625C20.8644 30.6332 20.7039 30.6689 20.5417 30.6667V30.6667Z" fill="#FA4616"/>
<path d="M16.8379 26.6745L15.906 28.5378L20.0705 30.6205L21.0023 28.7572L16.8379 26.6745Z" fill="#FA4616"/>
<path d="M22.9375 33.5208L20.5417 31.1354L18.1563 33.5208L16.6875 32.0521L19.8125 28.9271C20.0077 28.7331 20.2717 28.6241 20.5469 28.6241C20.8221 28.6241 21.0861 28.7331 21.2813 28.9271L24.4063 32.0521L22.9375 33.5208Z" fill="#FA4616"/>
<path d="M32 30.6667C31.7238 30.6667 31.4588 30.5569 31.2635 30.3616C31.0681 30.1662 30.9584 29.9013 30.9584 29.625V24.4167H33.0417V27.9479L35.7084 26.6146L36.6355 28.4791L32.4688 30.5625C32.3228 30.6332 32.1623 30.6689 32 30.6667V30.6667Z" fill="#FA4616"/>
<path d="M28.2965 26.6659L27.3646 28.5292L31.5291 30.6118L32.4609 28.7485L28.2965 26.6659Z" fill="#FA4616"/>
<path d="M34.3959 33.5208L32.0001 31.1354L29.6146 33.5208L28.1459 32.0521L31.2709 28.9271C31.466 28.7331 31.7301 28.6241 32.0053 28.6241C32.2804 28.6241 32.5445 28.7331 32.7396 28.9271L35.8646 32.0521L34.3959 33.5208Z" fill="#FA4616"/>
<path d="M43.4583 30.6667C43.182 30.6667 42.9171 30.5569 42.7217 30.3616C42.5264 30.1662 42.4166 29.9013 42.4166 29.625V24.4167H44.5V27.9479L47.1666 26.6146L48.0937 28.4791L43.927 30.5625C43.781 30.6332 43.6205 30.6689 43.4583 30.6667V30.6667Z" fill="#FA4616"/>
<path d="M39.7551 26.6677L38.8232 28.531L42.9877 30.6137L43.9196 28.7504L39.7551 26.6677Z" fill="#FA4616"/>
<path d="M45.8542 33.5208L43.4584 31.1354L41.073 33.5208L39.6042 32.0521L42.7292 28.9271C42.9244 28.7331 43.1884 28.6241 43.4636 28.6241C43.7388 28.6241 44.0028 28.7331 44.198 28.9271L47.323 32.0521L45.8542 33.5208Z" fill="#FA4616"/>
</svg>
