<svg width="64" height="64" viewBox="0 0 64 64" fill="none" xmlns="http://www.w3.org/2000/svg">
<path d="M32.5814 38.3954H31.4186C28.6431 38.3954 25.9813 37.2928 24.0187 35.3302C22.0561 33.3676 20.9535 30.7058 20.9535 27.9302V23.2791C20.9535 20.5036 22.0561 17.8417 24.0187 15.8791C25.9813 13.9165 28.6431 12.814 31.4186 12.814H32.5814C35.3569 12.814 38.0188 13.9165 39.9814 15.8791C41.944 17.8417 43.0465 20.5036 43.0465 23.2791V27.9302C43.0465 30.7058 41.944 33.3676 39.9814 35.3302C38.0188 37.2928 35.3569 38.3954 32.5814 38.3954V38.3954ZM31.4186 15.1395C29.2599 15.1395 27.1896 15.9971 25.6631 17.5236C24.1366 19.05 23.2791 21.1203 23.2791 23.2791V27.9302C23.2791 28.9991 23.4896 30.0576 23.8987 31.0451C24.3077 32.0326 24.9073 32.9299 25.6631 33.6858C26.4189 34.4416 27.3162 35.0411 28.3038 35.4502C29.2913 35.8592 30.3497 36.0698 31.4186 36.0698H32.5814C33.6503 36.0698 34.7088 35.8592 35.6963 35.4502C36.6838 35.0411 37.5811 34.4416 38.3369 33.6858C39.0928 32.9299 39.6923 32.0326 40.1014 31.0451C40.5104 30.0576 40.7209 28.9991 40.7209 27.9302V23.2791C40.7209 21.1203 39.8634 19.05 38.3369 17.5236C36.8105 15.9971 34.7401 15.1395 32.5814 15.1395H31.4186Z" fill="#404040"/>
<path d="M47.6977 48.8605C47.3893 48.8605 47.0935 48.738 46.8755 48.5199C46.6574 48.3018 46.5349 48.0061 46.5349 47.6977V45.7558C46.5349 41.7675 40.3023 38.3954 32.9302 38.3954H31.0814C23.6977 38.3954 17.4651 41.7675 17.4651 45.7558V47.6977C17.4651 48.0061 17.3426 48.3018 17.1246 48.5199C16.9065 48.738 16.6107 48.8605 16.3023 48.8605C15.9939 48.8605 15.6982 48.738 15.4801 48.5199C15.2621 48.3018 15.1395 48.0061 15.1395 47.6977V45.7558C15.1395 40.3256 22.1163 36.0698 31.0814 36.0698H32.9302C41.8605 36.0698 48.8605 40.3256 48.8605 45.7558V47.6977C48.8605 48.0061 48.738 48.3018 48.5199 48.5199C48.3018 48.738 48.0061 48.8605 47.6977 48.8605Z" fill="#404040"/>
<path d="M8.16279 18.6279C7.8544 18.6279 7.55866 18.5054 7.34059 18.2873C7.12252 18.0693 7 17.7735 7 17.4651V8.16279C7 7.8544 7.12252 7.55864 7.34059 7.34057C7.55866 7.12251 7.8544 7 8.16279 7H17.4651C17.7735 7 18.0693 7.12251 18.2874 7.34057C18.5054 7.55864 18.6279 7.8544 18.6279 8.16279C18.6279 8.47118 18.5054 8.76694 18.2874 8.98501C18.0693 9.20307 17.7735 9.32558 17.4651 9.32558H9.32558V17.4651C9.32558 17.7735 9.20309 18.0693 8.98503 18.2873C8.76696 18.5054 8.47118 18.6279 8.16279 18.6279Z" fill="#FA4616"/>
<path d="M17.4651 57H8.16279C7.8544 57 7.55866 56.8775 7.34059 56.6594C7.12252 56.4414 7 56.1456 7 55.8372V46.5349C7 46.2265 7.12252 45.9307 7.34059 45.7127C7.55866 45.4946 7.8544 45.3721 8.16279 45.3721C8.47118 45.3721 8.76696 45.4946 8.98503 45.7127C9.20309 45.9307 9.32558 46.2265 9.32558 46.5349V54.6744H17.4651C17.7735 54.6744 18.0693 54.7969 18.2874 55.015C18.5054 55.2331 18.6279 55.5288 18.6279 55.8372C18.6279 56.1456 18.5054 56.4414 18.2874 56.6594C18.0693 56.8775 17.7735 57 17.4651 57Z" fill="#FA4616"/>
<path d="M55.8372 18.6279C55.5288 18.6279 55.2331 18.5054 55.015 18.2873C54.7969 18.0693 54.6744 17.7735 54.6744 17.4651V9.32558H46.5349C46.2265 9.32558 45.9307 9.20307 45.7127 8.98501C45.4946 8.76694 45.3721 8.47118 45.3721 8.16279C45.3721 7.8544 45.4946 7.55864 45.7127 7.34057C45.9307 7.12251 46.2265 7 46.5349 7H55.8372C56.1456 7 56.4414 7.12251 56.6594 7.34057C56.8775 7.55864 57 7.8544 57 8.16279V17.4651C57 17.7735 56.8775 18.0693 56.6594 18.2873C56.4414 18.5054 56.1456 18.6279 55.8372 18.6279Z" fill="#FA4616"/>
<path d="M55.8372 57H46.5349C46.2265 57 45.9307 56.8775 45.7127 56.6594C45.4946 56.4414 45.3721 56.1456 45.3721 55.8372C45.3721 55.5288 45.4946 55.2331 45.7127 55.015C45.9307 54.7969 46.2265 54.6744 46.5349 54.6744H54.6744V46.5349C54.6744 46.2265 54.7969 45.9307 55.015 45.7127C55.2331 45.4946 55.5288 45.3721 55.8372 45.3721C56.1456 45.3721 56.4414 45.4946 56.6594 45.7127C56.8775 45.9307 57 46.2265 57 46.5349V55.8372C57 56.1456 56.8775 56.4414 56.6594 56.6594C56.4414 56.8775 56.1456 57 55.8372 57Z" fill="#FA4616"/>
</svg>
