<svg width="64" height="64" viewBox="0 0 64 64" fill="none" xmlns="http://www.w3.org/2000/svg">
<path d="M31.8485 56.9923C31.7585 57.0026 31.6675 57.0026 31.5775 56.9923C30.4725 56.7004 11 46.3908 11 36.1959V16.3898C11 16.1133 11.1098 15.8482 11.3053 15.6527C11.5008 15.4572 11.766 15.3474 12.0424 15.3474C16.7959 15.3474 29.3467 9.81206 31.0042 7.44575C31.1002 7.30812 31.2281 7.19576 31.3769 7.11815C31.5257 7.04054 31.6911 7 31.8589 7C32.0268 7 32.1921 7.04054 32.341 7.11815C32.4898 7.19576 32.6177 7.30812 32.7137 7.44575C34.3295 9.73909 46.3383 15.3474 51.6546 15.3474C51.9311 15.3474 52.1962 15.4572 52.3917 15.6527C52.5872 15.8482 52.6971 16.1133 52.6971 16.3898V37.2383C52.6971 45.682 33.0369 56.7526 32.1196 56.9923C32.0295 57.0026 31.9386 57.0026 31.8485 56.9923V56.9923ZM13.0849 17.3801V36.2063C13.0849 44.0245 28.7212 53.5106 31.8485 54.8762C34.5588 53.5731 50.6122 43.6388 50.6122 37.2488V17.3488C45.0456 16.8172 35.2051 12.4599 31.8485 9.52024C28.4189 12.4912 18.2449 16.7651 13.0849 17.3384V17.3801Z" fill="#404040"/>
<path d="M29.4301 41.3768C29.2846 41.3764 29.1408 41.3456 29.008 41.2864C28.8751 41.2271 28.7561 41.1408 28.6587 41.0328L22.894 34.6948L24.4368 33.298L29.3675 38.7186L42.5021 22.1857L44.1283 23.4783L30.264 40.9807C30.1703 41.0995 30.0518 41.1965 29.9167 41.2649C29.7817 41.3333 29.6334 41.3715 29.4822 41.3768H29.4301Z" fill="#FA4616"/>
</svg>
