<svg width="64" height="64" viewBox="0 0 64 64" fill="none" xmlns="http://www.w3.org/2000/svg">
<path d="M48.4894 23.5434H47.4256C44.4256 23.5434 39.9788 20.0541 39.5213 19.6498C39.4051 19.5646 39.3074 19.4566 39.2342 19.3324C39.1609 19.2082 39.1137 19.0705 39.0953 18.9275C39.077 18.7845 39.0879 18.6393 39.1273 18.5006C39.1668 18.362 39.2341 18.2328 39.325 18.1209C39.4159 18.0091 39.5287 17.9169 39.6563 17.8499C39.784 17.7829 39.9239 17.7426 40.0676 17.7314C40.2114 17.7202 40.3559 17.7382 40.4924 17.7846C40.6289 17.8309 40.7546 17.9045 40.8618 18.0009C42.5001 19.32 45.7341 21.4158 47.4256 21.4158H48.4894C48.7716 21.4158 49.0422 21.5279 49.2417 21.7274C49.4412 21.9269 49.5533 22.1975 49.5533 22.4796C49.5533 22.7618 49.4412 23.0323 49.2417 23.2319C49.0422 23.4314 48.7716 23.5434 48.4894 23.5434V23.5434Z" fill="#404040"/>
<path d="M20.2979 35.9583C19.4032 36.0023 18.5119 35.8196 17.7066 35.4272C16.9013 35.0348 16.2082 34.4454 15.6915 33.7136C15.5815 33.5422 15.5231 33.3428 15.5231 33.1391C15.5231 32.9355 15.5815 32.7361 15.6915 32.5647C16.7553 30.8094 20.9468 23.1072 21.0107 22.9902C21.0947 22.8392 21.2109 22.7084 21.3511 22.6072L30.9256 16.2243C31.1358 16.0949 31.3815 16.0353 31.6277 16.054L35.1809 16.4264C35.3206 16.4411 35.456 16.4831 35.5795 16.5501C35.7029 16.6171 35.812 16.7078 35.9004 16.8169C35.9888 16.9261 36.0549 17.0516 36.0948 17.1863C36.1347 17.321 36.1477 17.4622 36.133 17.6019C36.1183 17.7416 36.0763 17.8771 36.0093 18.0005C35.9423 18.124 35.8516 18.233 35.7424 18.3214C35.6333 18.4098 35.5078 18.4759 35.3731 18.5158C35.2384 18.5557 35.0972 18.5687 34.9575 18.554L31.766 18.2349L22.7341 24.2562C22.0851 25.4477 19.2022 30.7136 17.9043 32.9796C19.4681 34.437 22.1596 33.5434 22.1596 33.5328C22.4276 33.4425 22.7206 33.4624 22.9739 33.5881C23.2273 33.7137 23.4204 33.9349 23.5107 34.203C23.6009 34.471 23.5811 34.7639 23.4554 35.0173C23.3297 35.2707 23.1085 35.4638 22.8405 35.554C22.0171 35.8115 21.1606 35.9477 20.2979 35.9583Z" fill="#404040"/>
<path d="M17.8298 41.9158C17.5886 41.9168 17.3543 41.8358 17.1652 41.6861C16.9761 41.5364 16.8434 41.3269 16.789 41.092C16.7346 40.857 16.7617 40.6105 16.8657 40.393C16.9698 40.1754 17.1447 39.9996 17.3617 39.8945L22.9468 37.1817L25.1383 34.5647C25.2238 34.4462 25.3328 34.3465 25.4585 34.2719C25.5842 34.1974 25.7239 34.1495 25.8689 34.1313C26.0139 34.1131 26.1611 34.125 26.3013 34.1662C26.4416 34.2075 26.5718 34.2771 26.6839 34.3709C26.796 34.4647 26.8875 34.5806 26.9529 34.7113C27.0182 34.842 27.0559 34.9848 27.0636 35.1308C27.0713 35.2767 27.0489 35.4227 26.9977 35.5596C26.9464 35.6965 26.8676 35.8214 26.766 35.9264L24.4362 38.7137C24.3418 38.8314 24.2217 38.926 24.0851 38.9902L18.2979 41.8094C18.152 41.8801 17.9919 41.9164 17.8298 41.9158Z" fill="#404040"/>
<path d="M23.9682 31.0647C23.7626 31.0642 23.5616 31.0042 23.3895 30.8919C23.2173 30.7796 23.0813 30.6198 22.9981 30.4319C22.9148 30.2439 22.8877 30.0359 22.9202 29.8329C22.9527 29.6299 23.0432 29.4407 23.181 29.2881L41.915 8.11789C42.2056 7.79098 42.5577 7.52452 42.9513 7.3337C43.3448 7.14288 43.7721 7.03143 44.2088 7.00575C44.6454 6.98006 45.0828 7.04064 45.4961 7.184C45.9093 7.32736 46.2902 7.55071 46.6171 7.8413C46.944 8.13188 47.2105 8.48401 47.4013 8.87758C47.5921 9.27115 47.7036 9.69845 47.7293 10.1351C47.7549 10.5717 47.6944 11.0091 47.551 11.4224C47.4077 11.8356 47.1843 12.2165 46.8937 12.5434L31.2022 30.6285C31.0081 30.7998 30.7582 30.8944 30.4993 30.8946C30.2404 30.8949 29.9904 30.8007 29.796 30.6298C29.6015 30.4588 29.4761 30.2229 29.4432 29.9661C29.4103 29.7093 29.4721 29.4494 29.6171 29.2349L45.3086 11.1498C45.5188 10.9268 45.6359 10.6318 45.6359 10.3253C45.6359 10.0189 45.5188 9.72392 45.3086 9.50087C45.195 9.38276 45.0574 9.29033 44.9051 9.22978C44.7528 9.16923 44.5893 9.14196 44.4256 9.1498C44.2643 9.15319 44.1054 9.18991 43.959 9.25765C43.8125 9.32539 43.6816 9.42269 43.5746 9.54343L24.8299 30.7136C24.7222 30.8336 24.5887 30.9276 24.4395 30.9884C24.2902 31.0492 24.129 31.0753 23.9682 31.0647V31.0647Z" fill="#404040"/>
<path d="M41.0426 39.5009H37.8511C35.5213 39.5009 34.1809 38.2349 32.766 36.9051L32.1277 36.3094H25.0852C21.4362 36.3094 20.8298 33.9583 20.8298 32.5541C20.8298 30.1604 22.9575 28.8626 25.0852 28.8626H33.5958C34.144 28.8146 34.6577 28.5751 35.0469 28.186C35.436 27.7969 35.6755 27.2831 35.7235 26.7349V24.6073C35.7235 24.3251 35.8355 24.0545 36.035 23.855C36.2345 23.6555 36.5051 23.5434 36.7873 23.5434C37.0694 23.5434 37.34 23.6555 37.5395 23.855C37.739 24.0545 37.8511 24.3251 37.8511 24.6073V26.7349C37.809 27.85 37.3471 28.9081 36.5581 29.6972C35.769 30.4863 34.7109 30.9481 33.5958 30.9902H25.0852C24.2873 30.9902 22.9575 31.4158 22.9575 32.5541C22.9575 33.4158 23.1171 34.1817 25.0852 34.1817H32.532C32.7905 34.1821 33.0401 34.2766 33.2341 34.4477C33.5851 34.7562 33.9149 35.0647 34.2234 35.3519C35.5107 36.5647 36.3511 37.3732 37.8511 37.3732H41.0426C41.8997 37.2909 42.7432 37.1015 43.5532 36.8094L44.1064 36.6498C45.1925 36.3879 46.3089 36.2734 47.4256 36.3094H48.4894C48.7716 36.3094 49.0421 36.4215 49.2417 36.621C49.4412 36.8205 49.5532 37.0911 49.5532 37.3732C49.5532 37.6554 49.4412 37.9259 49.2417 38.1255C49.0421 38.325 48.7716 38.437 48.4894 38.437H47.4256C46.5064 38.4031 45.5869 38.4925 44.6915 38.703L44.1702 38.8519C43.1614 39.2072 42.1095 39.4254 41.0426 39.5009V39.5009Z" fill="#404040"/>
<path d="M55.9362 39.5009H48.4894C48.2072 39.5009 47.9366 39.3888 47.7371 39.1893C47.5376 38.9898 47.4255 38.7192 47.4255 38.4371V20.3519C47.4255 20.0698 47.5376 19.7992 47.7371 19.5997C47.9366 19.4002 48.2072 19.2881 48.4894 19.2881H55.9362C56.2183 19.2881 56.4889 19.4002 56.6884 19.5997C56.8879 19.7992 57 20.0698 57 20.3519V38.4371C57 38.7192 56.8879 38.9898 56.6884 39.1893C56.4889 39.3888 56.2183 39.5009 55.9362 39.5009ZM49.5532 37.3732H54.8723V21.4158H49.5532V37.3732Z" fill="#404040"/>
<path d="M32.5743 39.5009H32.4892C29.9254 39.5009 28.2339 38.3094 28.2339 36.5222V36.3094C28.2339 36.0272 28.346 35.7566 28.5455 35.5571C28.745 35.3576 29.0156 35.2455 29.2977 35.2455C29.5799 35.2455 29.8505 35.3576 30.05 35.5571C30.2495 35.7566 30.3615 36.0272 30.3615 36.3094V36.5222C30.3615 37.0753 31.4254 37.3626 32.4892 37.3732C33.1844 37.4337 33.8792 37.2534 34.4573 36.8626C34.659 36.658 34.9338 36.542 35.221 36.54C35.5083 36.538 35.7847 36.6502 35.9892 36.8519C36.1938 37.0537 36.3098 37.3284 36.3118 37.6157C36.3138 37.903 36.2016 38.1793 35.9998 38.3839C35.0453 39.1623 33.8365 39.5602 32.6062 39.5009H32.5743Z" fill="#404040"/>
<path d="M26.6596 39.5009H26.5745C25.9302 39.5554 25.2833 39.4326 24.7038 39.1456C24.1244 38.8587 23.6345 38.4187 23.2873 37.8732C23.1462 37.6249 23.1096 37.3308 23.1854 37.0555C23.2612 36.7801 23.4432 36.5462 23.6915 36.4051C23.9398 36.2641 24.234 36.2274 24.5093 36.3032C24.7846 36.379 25.0186 36.5611 25.1596 36.8094C25.3298 37.1179 25.8937 37.3094 26.6384 37.32C27.0532 37.32 28.2767 37.2349 28.2767 36.469V36.2562C28.2767 35.9741 28.3887 35.7035 28.5882 35.504C28.7878 35.3045 29.0583 35.1924 29.3405 35.1924C29.6226 35.1924 29.8932 35.3045 30.0927 35.504C30.2922 35.7035 30.4043 35.9741 30.4043 36.2562V36.469C30.4043 38.2456 28.9575 39.4158 26.7022 39.4477L26.6596 39.5009Z" fill="#404040"/>
<path d="M17.8299 41.9158H17.6064C17.4694 41.8867 17.3394 41.8309 17.224 41.7515C17.1086 41.672 17.01 41.5706 16.9339 41.453C16.8577 41.3354 16.8056 41.2038 16.7805 41.066C16.7553 40.9282 16.7576 40.7867 16.7873 40.6498L17.8511 35.6073C17.8873 35.4304 17.9678 35.2657 18.0852 35.1285L18.7554 34.3626C18.9417 34.1512 19.2044 34.0224 19.4856 34.0045C19.7668 33.9865 20.0437 34.0809 20.2554 34.2668C20.4668 34.4532 20.5955 34.7158 20.6135 34.997C20.6314 35.2782 20.5371 35.5551 20.3511 35.7668L19.8724 36.32L18.8618 41.0966C18.8068 41.3292 18.6751 41.5365 18.4879 41.6852C18.3007 41.8338 18.0689 41.915 17.8299 41.9158Z" fill="#404040"/>
<path d="M20.5533 51.4264C20.0003 51.4241 19.4699 51.2066 19.0745 50.82L14.4469 46.2562V48.8306C14.4469 49.1128 14.3348 49.3834 14.1353 49.5829C13.9358 49.7824 13.6652 49.8945 13.383 49.8945C13.1009 49.8945 12.8303 49.7824 12.6308 49.5829C12.4313 49.3834 12.3192 49.1128 12.3192 48.8306V46.2562C12.3189 45.837 12.4423 45.4271 12.6741 45.0778C12.9059 44.7286 13.2356 44.4556 13.622 44.2931C14.0084 44.1306 14.4341 44.0858 14.8459 44.1644C15.2576 44.243 15.6369 44.4415 15.9362 44.7349L20.5639 49.2668L20.032 45.5966C19.9801 45.2367 20.0213 44.8694 20.1518 44.53C20.2822 44.1905 20.4975 43.8901 20.777 43.6575C21.0566 43.4249 21.3911 43.2679 21.7486 43.2013C22.1061 43.1348 22.4747 43.161 22.8192 43.2774L28.6171 45.2668C28.874 45.3659 29.0825 45.5607 29.1988 45.8104C29.315 46.06 29.3299 46.345 29.2404 46.6054C29.1508 46.8658 28.9638 47.0813 28.7186 47.2067C28.4734 47.332 28.1891 47.3574 27.9256 47.2775L22.1703 45.32L22.7022 48.9902C22.7468 49.2944 22.7249 49.6045 22.6382 49.8994C22.5514 50.1943 22.4018 50.4669 22.1996 50.6984C21.9974 50.9299 21.7474 51.1149 21.4669 51.2406C21.1863 51.3662 20.8819 51.4296 20.5745 51.4264H20.5533Z" fill="#FA4616"/>
<path d="M8.06383 42.6924C7.78168 42.6924 7.51109 42.5803 7.31159 42.3808C7.11208 42.1813 7 41.9107 7 41.6285V36.3094C7 36.0272 7.11208 35.7566 7.31159 35.5571C7.51109 35.3576 7.78168 35.2455 8.06383 35.2455H13.383C13.6651 35.2455 13.9357 35.3576 14.1352 35.5571C14.3347 35.7566 14.4468 36.0272 14.4468 36.3094C14.4468 36.5915 14.3347 36.8621 14.1352 37.0616C13.9357 37.2611 13.6651 37.3732 13.383 37.3732H9.12766V41.6285C9.12766 41.9107 9.01558 42.1813 8.81607 42.3808C8.61657 42.5803 8.34597 42.6924 8.06383 42.6924Z" fill="#404040"/>
<path d="M13.383 56.5221H8.06383C7.78168 56.5221 7.51109 56.41 7.31159 56.2105C7.11208 56.011 7 55.7404 7 55.4583V50.1391C7 49.857 7.11208 49.5864 7.31159 49.3869C7.51109 49.1874 7.78168 49.0753 8.06383 49.0753C8.34597 49.0753 8.61657 49.1874 8.81607 49.3869C9.01558 49.5864 9.12766 49.857 9.12766 50.1391V54.3945H13.383C13.6651 54.3945 13.9357 54.5065 14.1352 54.7061C14.3347 54.9056 14.4468 55.1762 14.4468 55.4583C14.4468 55.7404 14.3347 56.011 14.1352 56.2105C13.9357 56.41 13.6651 56.5221 13.383 56.5221Z" fill="#404040"/>
<path d="M34.6596 56.5221H29.3404C29.0583 56.5221 28.7877 56.41 28.5882 56.2105C28.3887 56.011 28.2766 55.7404 28.2766 55.4583C28.2766 55.1762 28.3887 54.9056 28.5882 54.7061C28.7877 54.5065 29.0583 54.3945 29.3404 54.3945H33.5958V50.1391C33.5958 49.857 33.7078 49.5864 33.9073 49.3869C34.1069 49.1874 34.3774 49.0753 34.6596 49.0753C34.9417 49.0753 35.2123 49.1874 35.4118 49.3869C35.6113 49.5864 35.7234 49.857 35.7234 50.1391V55.4583C35.7234 55.7404 35.6113 56.011 35.4118 56.2105C35.2123 56.41 34.9417 56.5221 34.6596 56.5221Z" fill="#404040"/>
<path d="M29.3404 37.3732C29.0583 37.3732 28.7877 37.2611 28.5882 37.0616C28.3887 36.8621 28.2766 36.5915 28.2766 36.3094V35.2455C28.2766 34.9634 28.3887 34.6928 28.5882 34.4933C28.7877 34.2938 29.0583 34.1817 29.3404 34.1817C29.6226 34.1817 29.8932 34.2938 30.0927 34.4933C30.2922 34.6928 30.4043 34.9634 30.4043 35.2455V36.3094C30.4043 36.5915 30.2922 36.8621 30.0927 37.0616C29.8932 37.2611 29.6226 37.3732 29.3404 37.3732Z" fill="#404040"/>
</svg>
