<svg width="64" height="64" viewBox="0 0 64 64" fill="none" xmlns="http://www.w3.org/2000/svg">
<path d="M50.9062 48.609H36.2219C35.6655 48.609 35.132 48.388 34.7386 47.9946C34.3452 47.6012 34.1241 47.0676 34.1241 46.5112V34.9736C34.1241 34.4172 34.3452 33.8836 34.7386 33.4902C35.132 33.0968 35.6655 32.8758 36.2219 32.8758H50.9062C51.4626 32.8758 51.9961 33.0968 52.3895 33.4902C52.7829 33.8836 53.004 34.4172 53.004 34.9736V46.5112C53.004 47.0676 52.7829 47.6012 52.3895 47.9946C51.9961 48.388 51.4626 48.609 50.9062 48.609ZM36.2219 34.9736V46.5112H50.9062V34.9736H36.2219Z" fill="#FA4616"/>
<path d="M49.8574 34.9736H37.2709V28.6803C37.2709 27.0112 37.9339 25.4105 39.1141 24.2303C40.2943 23.0501 41.8951 22.387 43.5641 22.387C45.2332 22.387 46.8339 23.0501 48.0141 24.2303C49.1944 25.4105 49.8574 27.0112 49.8574 28.6803V34.9736ZM39.3686 32.8758H47.7597V28.6803C47.7597 27.5676 47.3176 26.5004 46.5308 25.7136C45.744 24.9268 44.6769 24.4848 43.5641 24.4848C42.4514 24.4848 41.3843 24.9268 40.5975 25.7136C39.8107 26.5004 39.3686 27.5676 39.3686 28.6803V32.8758Z" fill="#FA4616"/>
<path d="M44.613 57H11.0489C10.7707 57 10.5039 56.8895 10.3072 56.6928C10.1105 56.4961 10 56.2293 10 55.9511V8.04888C10 7.7707 10.1105 7.5039 10.3072 7.30719C10.5039 7.11049 10.7707 7 11.0489 7H43.7424C44.0206 7 44.2874 7.11049 44.4841 7.30719C44.6808 7.5039 44.7913 7.7707 44.7913 8.04888V20.6354H42.6935V9.09776H12.0978V54.9022H43.5641V50.7067H45.6619V55.9511C45.6619 56.2293 45.5514 56.4961 45.3547 56.6928C45.158 56.8895 44.8912 57 44.613 57V57Z" fill="#404040"/>
</svg>
