<svg width="64" height="64" viewBox="0 0 64 64" fill="none" xmlns="http://www.w3.org/2000/svg">
<path d="M49.7292 48.5208C47.8912 48.3667 46.1761 47.5351 44.9167 46.1875C44.7461 45.9882 44.6569 45.7319 44.667 45.4697C44.6772 45.2076 44.7858 44.9589 44.9714 44.7734C45.1569 44.5878 45.4056 44.4792 45.6677 44.469C45.9299 44.4589 46.1862 44.5481 46.3855 44.7187C47.274 45.6813 48.4796 46.2915 49.7813 46.4375C50.0576 46.4375 50.3225 46.5472 50.5179 46.7426C50.7132 46.9379 50.823 47.2029 50.823 47.4792C50.823 47.7554 50.7132 48.0204 50.5179 48.2157C50.3225 48.4111 50.0576 48.5208 49.7813 48.5208H49.7292Z" fill="#FA4616"/>
<path d="M37.073 48.3438C36.7968 48.3659 36.523 48.2773 36.3121 48.0976C36.1011 47.9179 35.9701 47.6617 35.948 47.3854C35.9259 47.1092 36.0145 46.8354 36.1942 46.6245C36.3739 46.4135 36.6301 46.2826 36.9064 46.2605C40.5626 45.6459 42.4168 42.8854 42.4168 38.0625V35.9792C42.4168 35.7029 42.5265 35.438 42.7219 35.2426C42.9172 35.0473 43.1822 34.9375 43.4585 34.9375C43.7347 34.9375 43.9997 35.0473 44.195 35.2426C44.3904 35.438 44.5001 35.7029 44.5001 35.9792V38.0625C44.5001 43.9688 42.0001 47.5209 37.2085 48.3125L37.073 48.3438Z" fill="#FA4616"/>
<path d="M51.7918 40.1667C51.5155 40.1667 51.2505 40.057 51.0552 39.8616C50.8598 39.6663 50.7501 39.4013 50.7501 39.125V35.8542C50.7281 33.9405 49.9482 32.1136 48.5813 30.7741C47.2144 29.4346 45.3722 28.6917 43.4584 28.7084H42.8334C42.5586 28.7315 42.2859 28.6446 42.075 28.467C41.8641 28.2893 41.7323 28.0352 41.7084 27.7605C41.697 27.6236 41.7128 27.4858 41.7549 27.355C41.797 27.2243 41.8645 27.1031 41.9535 26.9986C42.0426 26.894 42.1515 26.8081 42.2739 26.7458C42.3963 26.6835 42.5298 26.646 42.6668 26.6355C42.9272 26.6355 43.198 26.6355 43.4584 26.6355C44.68 26.6258 45.8915 26.8569 47.0238 27.3156C48.156 27.7742 49.1869 28.4513 50.0574 29.3083C50.928 30.1653 51.6212 31.1854 52.0975 32.3104C52.5738 33.4353 52.8239 34.643 52.8334 35.8646V39.1354C52.8307 39.4099 52.7197 39.6722 52.5247 39.8653C52.3296 40.0584 52.0662 40.1667 51.7918 40.1667Z" fill="#FA4616"/>
<path d="M35.1249 40.1667C34.8487 40.1667 34.5837 40.0569 34.3883 39.8616C34.193 39.6662 34.0833 39.4013 34.0833 39.125V35.8542C34.0914 34.2249 34.5303 32.6268 35.3553 31.2218C36.1804 29.8168 37.3623 28.655 38.7812 27.8542C39.0215 27.7161 39.3069 27.6791 39.5745 27.7513C39.8422 27.8236 40.0701 27.9992 40.2082 28.2396C40.3464 28.48 40.3834 28.7653 40.3111 29.033C40.2388 29.3006 40.0632 29.5286 39.8228 29.6667C38.7238 30.2853 37.8078 31.1834 37.1675 32.27C36.5273 33.3566 36.1856 34.593 36.177 35.8542V39.125C36.177 39.2627 36.1497 39.399 36.0967 39.5261C36.0437 39.6531 35.9661 39.7684 35.8682 39.8653C35.7704 39.9622 35.6543 40.0387 35.5267 40.0904C35.3991 40.1421 35.2626 40.1681 35.1249 40.1667Z" fill="#FA4616"/>
<path d="M51.7917 44.4375C51.0982 44.4734 50.4049 44.3633 49.7568 44.1143C49.1086 43.8653 48.5199 43.4829 48.0289 42.9919C47.5379 42.5009 47.1555 41.9122 46.9065 41.264C46.6575 40.6159 46.5474 39.9226 46.5833 39.2292V35.9792C46.5833 35.1504 46.2541 34.3555 45.668 33.7694C45.082 33.1834 44.2871 32.8542 43.4583 32.8542C42.7197 32.8507 42.0038 33.1091 41.4375 33.5833C41.2239 33.7373 40.9599 33.8047 40.6987 33.7719C40.4374 33.7392 40.1983 33.6087 40.0293 33.4068C39.8604 33.2048 39.7742 32.9464 39.7881 32.6835C39.8019 32.4205 39.9149 32.1726 40.1041 31.9896C40.8601 31.3531 41.7815 30.9449 42.7608 30.8125C43.74 30.6801 44.7367 30.8291 45.6345 31.2419C46.5323 31.6548 47.2942 32.3145 47.8311 33.1441C48.368 33.9737 48.6578 34.9389 48.6667 35.9271V39.2292C48.6282 39.6491 48.6827 40.0724 48.8261 40.469C48.9696 40.8656 49.1985 41.2258 49.4968 41.524C49.795 41.8223 50.1551 42.0512 50.5517 42.1947C50.9483 42.3381 51.3717 42.3926 51.7917 42.3542C52.0679 42.3542 52.3329 42.4639 52.5282 42.6593C52.7236 42.8546 52.8333 43.1196 52.8333 43.3958C52.8333 43.6721 52.7236 43.937 52.5282 44.1324C52.3329 44.3277 52.0679 44.4375 51.7917 44.4375Z" fill="#FA4616"/>
<path d="M35.1249 44.3334C34.8487 44.3334 34.5837 44.2236 34.3883 44.0283C34.193 43.8329 34.0833 43.568 34.0833 43.2917C34.0833 43.0154 34.193 42.7505 34.3883 42.5551C34.5837 42.3598 34.8487 42.25 35.1249 42.25C37.2083 42.25 38.2499 41.2084 38.2499 39.125V36C38.2499 35.7238 38.3597 35.4588 38.555 35.2635C38.7504 35.0681 39.0153 34.9584 39.2916 34.9584C39.5679 34.9584 39.8328 35.0681 40.0282 35.2635C40.2235 35.4588 40.3333 35.7238 40.3333 36V39.125C40.3333 42.3855 38.3853 44.3334 35.1249 44.3334Z" fill="#FA4616"/>
<path d="M30.9583 29.75C30.682 29.75 30.4171 29.6403 30.2217 29.4449C30.0264 29.2496 29.9166 28.9846 29.9166 28.7084V23.5C29.9166 23.2238 30.0264 22.9588 30.2217 22.7635C30.4171 22.5681 30.682 22.4584 30.9583 22.4584H35.125C35.4012 22.4584 35.6662 22.5681 35.8615 22.7635C36.0569 22.9588 36.1666 23.2238 36.1666 23.5C36.1666 23.7763 36.0569 24.0413 35.8615 24.2366C35.6662 24.432 35.4012 24.5417 35.125 24.5417H32V28.7084C32 28.9846 31.8902 29.2496 31.6949 29.4449C31.4995 29.6403 31.2346 29.75 30.9583 29.75Z" fill="#404040"/>
<path d="M55.9583 29.75C55.6821 29.75 55.4171 29.6403 55.2218 29.4449C55.0264 29.2496 54.9167 28.9846 54.9167 28.7084V24.5417H51.7917C51.5154 24.5417 51.2504 24.432 51.0551 24.2366C50.8597 24.0413 50.75 23.7763 50.75 23.5C50.75 23.2238 50.8597 22.9588 51.0551 22.7635C51.2504 22.5681 51.5154 22.4584 51.7917 22.4584H55.9583C56.2346 22.4584 56.4995 22.5681 56.6949 22.7635C56.8902 22.9588 57 23.2238 57 23.5V28.7084C57 28.9846 56.8902 29.2496 56.6949 29.4449C56.4995 29.6403 56.2346 29.75 55.9583 29.75Z" fill="#404040"/>
<path d="M35.125 53.7083H30.9583C30.682 53.7083 30.4171 53.5986 30.2217 53.4032C30.0264 53.2079 29.9166 52.9429 29.9166 52.6667V47.4583C29.9166 47.1821 30.0264 46.9171 30.2217 46.7218C30.4171 46.5264 30.682 46.4167 30.9583 46.4167C31.2346 46.4167 31.4995 46.5264 31.6949 46.7218C31.8902 46.9171 32 47.1821 32 47.4583V51.625H35.125C35.4012 51.625 35.6662 51.7347 35.8615 51.9301C36.0569 52.1254 36.1666 52.3904 36.1666 52.6667C36.1666 52.9429 36.0569 53.2079 35.8615 53.4032C35.6662 53.5986 35.4012 53.7083 35.125 53.7083Z" fill="#404040"/>
<path d="M55.9583 53.7083H51.7917C51.5154 53.7083 51.2504 53.5986 51.0551 53.4032C50.8597 53.2079 50.75 52.9429 50.75 52.6667C50.75 52.3904 50.8597 52.1254 51.0551 51.9301C51.2504 51.7347 51.5154 51.625 51.7917 51.625H54.9167V47.4583C54.9167 47.1821 55.0264 46.9171 55.2218 46.7218C55.4171 46.5264 55.6821 46.4167 55.9583 46.4167C56.2346 46.4167 56.4995 46.5264 56.6949 46.7218C56.8902 46.9171 57 47.1821 57 47.4583V52.6667C57 52.9429 56.8902 53.2079 56.6949 53.4032C56.4995 53.5986 56.2346 53.7083 55.9583 53.7083Z" fill="#404040"/>
<path d="M11.1667 19.3333H9.08333C8.5308 19.3333 8.00089 19.1138 7.61019 18.7231C7.21949 18.3324 7 17.8025 7 17.25V13.0833C7 12.5308 7.21949 12.0009 7.61019 11.6102C8.00089 11.2195 8.5308 11 9.08333 11H11.1667C11.7192 11 12.2491 11.2195 12.6398 11.6102C13.0305 12.0009 13.25 12.5308 13.25 13.0833V17.25C13.25 17.8025 13.0305 18.3324 12.6398 18.7231C12.2491 19.1138 11.7192 19.3333 11.1667 19.3333ZM9.08333 13.0833V17.25H11.1667V13.0833H9.08333Z" fill="#404040"/>
<path d="M18.4583 11H16.375V19.3333H18.4583V11Z" fill="#404040"/>
<path d="M33.0417 11H30.9584V19.3333H33.0417V11Z" fill="#404040"/>
<path d="M54.9167 19.3333H52.8333C52.2808 19.3333 51.7509 19.1138 51.3602 18.7231C50.9695 18.3324 50.75 17.8025 50.75 17.25V13.0833C50.75 12.5308 50.9695 12.0009 51.3602 11.6102C51.7509 11.2195 52.2808 11 52.8333 11H54.9167C55.1903 11 55.4611 11.0539 55.7139 11.1586C55.9667 11.2633 56.1964 11.4167 56.3898 11.6102C56.5833 11.8036 56.7367 12.0333 56.8414 12.2861C56.9461 12.5388 57 12.8097 57 13.0833V17.25C57 17.5236 56.9461 17.7945 56.8414 18.0473C56.7367 18.3 56.5833 18.5297 56.3898 18.7231C56.1964 18.9166 55.9667 19.0701 55.7139 19.1747C55.4611 19.2794 55.1903 19.3333 54.9167 19.3333ZM52.8333 13.0833V17.25H54.9167V13.0833H52.8333Z" fill="#404040"/>
<path d="M47.625 11H45.5416V19.3333H47.625V11Z" fill="#404040"/>
<path d="M25.7499 19.3333H23.6666C23.1141 19.3333 22.5841 19.1138 22.1934 18.7231C21.8027 18.3324 21.5833 17.8025 21.5833 17.25V13.0833C21.5833 12.5308 21.8027 12.0009 22.1934 11.6102C22.5841 11.2195 23.1141 11 23.6666 11H25.7499C26.3025 11 26.8324 11.2195 27.2231 11.6102C27.6138 12.0009 27.8333 12.5308 27.8333 13.0833V17.25C27.8333 17.8025 27.6138 18.3324 27.2231 18.7231C26.8324 19.1138 26.3025 19.3333 25.7499 19.3333ZM23.6666 13.0833V17.25H25.7499V13.0833H23.6666Z" fill="#404040"/>
<path d="M40.3333 19.3333H38.25C37.6974 19.3333 37.1675 19.1138 36.7768 18.7231C36.3861 18.3324 36.1666 17.8025 36.1666 17.25V13.0833C36.1666 12.5308 36.3861 12.0009 36.7768 11.6102C37.1675 11.2195 37.6974 11 38.25 11H40.3333C40.8858 11 41.4157 11.2195 41.8064 11.6102C42.1971 12.0009 42.4166 12.5308 42.4166 13.0833V17.25C42.4166 17.8025 42.1971 18.3324 41.8064 18.7231C41.4157 19.1138 40.8858 19.3333 40.3333 19.3333ZM38.25 13.0833V17.25H40.3333V13.0833H38.25Z" fill="#404040"/>
<path d="M24.7083 30.7917H22.625C22.0724 30.7917 21.5425 30.5722 21.1518 30.1815C20.7611 29.7908 20.5416 29.2609 20.5416 28.7084V24.5417C20.5416 23.9892 20.7611 23.4593 21.1518 23.0686C21.5425 22.6779 22.0724 22.4584 22.625 22.4584H24.7083C25.2608 22.4584 25.7907 22.6779 26.1814 23.0686C26.5721 23.4593 26.7916 23.9892 26.7916 24.5417V28.7084C26.7916 29.2609 26.5721 29.7908 26.1814 30.1815C25.7907 30.5722 25.2608 30.7917 24.7083 30.7917ZM22.625 24.5417V28.7084H24.7083V24.5417H22.625Z" fill="#404040"/>
<path d="M9.08333 22.4584H7V30.7917H9.08333V22.4584Z" fill="#404040"/>
<path d="M16.3749 30.7917H14.2916C13.7391 30.7917 13.2091 30.5722 12.8184 30.1815C12.4277 29.7908 12.2083 29.2609 12.2083 28.7084V24.5417C12.2083 23.9892 12.4277 23.4593 12.8184 23.0686C13.2091 22.6779 13.7391 22.4584 14.2916 22.4584H16.3749C16.9275 22.4584 17.4574 22.6779 17.8481 23.0686C18.2388 23.4593 18.4583 23.9892 18.4583 24.5417V28.7084C18.4583 29.2609 18.2388 29.7908 17.8481 30.1815C17.4574 30.5722 16.9275 30.7917 16.3749 30.7917ZM14.2916 24.5417V28.7084H16.3749V24.5417H14.2916Z" fill="#404040"/>
<path d="M24.7083 42.25H22.625C22.0724 42.25 21.5425 42.0306 21.1518 41.6399C20.7611 41.2492 20.5416 40.7193 20.5416 40.1667V36.0001C20.5416 35.4475 20.7611 34.9176 21.1518 34.5269C21.5425 34.1362 22.0724 33.9167 22.625 33.9167H24.7083C25.2608 33.9167 25.7907 34.1362 26.1814 34.5269C26.5721 34.9176 26.7916 35.4475 26.7916 36.0001V40.1667C26.7916 40.7193 26.5721 41.2492 26.1814 41.6399C25.7907 42.0306 25.2608 42.25 24.7083 42.25ZM22.625 36.0001V40.1667H24.7083V36.0001H22.625Z" fill="#404040"/>
<path d="M18.4583 33.9167H16.375V42.25H18.4583V33.9167Z" fill="#404040"/>
<path d="M11.1667 42.25H9.08333C8.5308 42.25 8.00089 42.0306 7.61019 41.6399C7.21949 41.2492 7 40.7193 7 40.1667V36.0001C7 35.4475 7.21949 34.9176 7.61019 34.5269C8.00089 34.1362 8.5308 33.9167 9.08333 33.9167H11.1667C11.7192 33.9167 12.2491 34.1362 12.6398 34.5269C13.0305 34.9176 13.25 35.4475 13.25 36.0001V40.1667C13.25 40.7193 13.0305 41.2492 12.6398 41.6399C12.2491 42.0306 11.7192 42.25 11.1667 42.25ZM9.08333 36.0001V40.1667H11.1667V36.0001H9.08333Z" fill="#404040"/>
</svg>
