<svg width="64" height="64" viewBox="0 0 64 64" fill="none" xmlns="http://www.w3.org/2000/svg">
<path d="M31.9948 37.9987C30.3373 37.9987 28.7476 37.3402 27.5756 36.1682C26.4036 34.9961 25.7451 33.4065 25.7451 31.749C25.7451 31.4727 25.8549 31.2078 26.0502 31.0125C26.2455 30.8171 26.5105 30.7074 26.7867 30.7074C27.063 30.7074 27.3279 30.8171 27.5233 31.0125C27.7186 31.2078 27.8283 31.4727 27.8283 31.749C27.8283 32.573 28.0727 33.3786 28.5305 34.0637C28.9883 34.7489 29.639 35.2829 30.4003 35.5983C31.1617 35.9136 31.9994 35.9962 32.8076 35.8354C33.6158 35.6746 34.3582 35.2778 34.9409 34.6951C35.5236 34.1124 35.9204 33.3701 36.0812 32.5618C36.2419 31.7536 36.1594 30.9159 35.8441 30.1546C35.5287 29.3933 34.9947 28.7425 34.3095 28.2847C33.6244 27.8269 32.8188 27.5826 31.9948 27.5826C31.0371 27.5784 30.1083 27.9101 29.3699 28.52C29.1558 28.6954 28.8808 28.7786 28.6054 28.7513C28.33 28.7239 28.0767 28.5883 27.9012 28.3742C27.7258 28.1601 27.6426 27.8851 27.67 27.6096C27.6973 27.3342 27.833 27.0809 28.0471 26.9055C28.8229 26.2729 29.7393 25.8359 30.7193 25.6313C31.6992 25.4267 32.714 25.4604 33.6781 25.7298C34.6423 25.9991 35.5276 26.4961 36.2596 27.179C36.9917 27.8618 37.5489 28.7105 37.8846 29.6537C38.2202 30.5968 38.3244 31.6067 38.1883 32.5985C38.0522 33.5903 37.6799 34.5349 37.1026 35.3527C36.5254 36.1706 35.7601 36.8379 34.8712 37.2983C33.9823 37.7588 32.9959 37.999 31.9948 37.9987V37.9987Z" fill="#404040"/>
<path d="M31.9948 44.2484C27.2406 44.2316 22.5497 43.1575 18.262 41.1037C13.9743 39.0499 10.1972 36.068 7.20444 32.374C7.07167 32.1946 7 31.9774 7 31.7542C7 31.5311 7.07167 31.3138 7.20444 31.1345C10.1855 27.4252 13.9607 24.4321 18.252 22.3755C22.5433 20.3188 27.2413 19.2512 32 19.2512C36.7587 19.2512 41.4567 20.3188 45.748 22.3755C50.0393 24.4321 53.8146 27.4252 56.7956 31.1345C56.9283 31.3138 57 31.5311 57 31.7542C57 31.9774 56.9283 32.1946 56.7956 32.374C53.8012 36.0688 50.0223 39.0511 45.7328 41.1049C41.4433 43.1587 36.7506 44.2324 31.9948 44.2484V44.2484ZM9.38141 31.749C12.1751 35.0148 15.6431 37.6367 19.5467 39.4344C23.4504 41.2321 27.6971 42.163 31.9948 42.163C36.2925 42.163 40.5392 41.2321 44.4429 39.4344C48.3465 37.6367 51.8144 35.0148 54.6082 31.749C51.8144 28.4832 48.3465 25.8613 44.4429 24.0636C40.5392 22.2659 36.2925 21.335 31.9948 21.335C27.6971 21.335 23.4504 22.2659 19.5467 24.0636C15.6431 25.8613 12.1751 28.4832 9.38141 31.749V31.749Z" fill="#404040"/>
<path d="M31.9947 44.2484C28.6797 44.2484 25.5004 42.9315 23.1563 40.5874C20.8122 38.2433 19.4954 35.0641 19.4954 31.749C19.4969 30.8414 19.5982 29.9367 19.7974 29.0513C19.8259 28.9171 19.8805 28.7898 19.9583 28.6768C20.0361 28.5637 20.1354 28.4672 20.2506 28.3927C20.3657 28.3182 20.4945 28.2671 20.6294 28.2425C20.7644 28.2179 20.9029 28.2202 21.0369 28.2492C21.1713 28.2787 21.2985 28.3346 21.4111 28.4135C21.5237 28.4925 21.6196 28.593 21.6932 28.7092C21.7668 28.8254 21.8167 28.9551 21.8399 29.0906C21.8631 29.2262 21.8593 29.3651 21.8286 29.4991C21.6615 30.2374 21.5776 30.9921 21.5786 31.749C21.5786 34.2223 22.4587 36.6149 24.0614 38.4987C25.6641 40.3825 27.8849 41.6344 30.3262 42.0306C32.7676 42.4268 35.2703 41.9413 37.3864 40.6611C39.5026 39.3808 41.0942 37.3893 41.8763 35.0429C42.6584 32.6965 42.5801 30.1484 41.6553 27.8544C40.7306 25.5605 39.0197 23.6705 36.8289 22.5226C34.6381 21.3748 32.1103 21.0439 29.6979 21.5893C27.2854 22.1347 25.1458 23.5207 23.6618 25.4994C23.5817 25.6149 23.4789 25.7131 23.3598 25.7879C23.2407 25.8627 23.1076 25.9126 22.9687 25.9346C22.8298 25.9566 22.6878 25.9502 22.5514 25.9158C22.415 25.8815 22.287 25.8198 22.1751 25.7347C22.0631 25.6495 21.9696 25.5425 21.9001 25.4202C21.8307 25.2979 21.7867 25.1628 21.7709 25.023C21.755 24.8833 21.7677 24.7417 21.808 24.607C21.8484 24.4722 21.9156 24.3471 22.0056 24.239C23.2885 22.5396 24.9843 21.1961 26.9321 20.3359C28.8798 19.4757 31.0151 19.1273 33.1352 19.3239C35.2554 19.5204 37.2902 20.2553 39.0467 21.4588C40.8032 22.6624 42.2231 24.2947 43.1718 26.2009C44.1205 28.1072 44.5664 30.2242 44.4674 32.3512C44.3684 34.4781 43.7277 36.5445 42.606 38.3544C41.4843 40.1643 39.9189 41.6576 38.0581 42.6927C36.1974 43.7279 34.1031 44.2705 31.9739 44.2692L31.9947 44.2484Z" fill="#404040"/>
<path d="M15.329 20.2913C15.0527 20.2913 14.7878 20.1815 14.5924 19.9862C14.3971 19.7909 14.2874 19.5259 14.2874 19.2497V14.0416C14.2874 13.7654 14.3971 13.5004 14.5924 13.3051C14.7878 13.1097 15.0527 13 15.329 13H20.537C20.8133 13 21.0782 13.1097 21.2736 13.3051C21.4689 13.5004 21.5786 13.7654 21.5786 14.0416C21.5786 14.3179 21.4689 14.5828 21.2736 14.7781C21.0782 14.9735 20.8133 15.0832 20.537 15.0832H16.3706V19.2497C16.3706 19.5259 16.2608 19.7909 16.0655 19.9862C15.8702 20.1815 15.6052 20.2913 15.329 20.2913Z" fill="#FA4616"/>
<path d="M20.537 51.5396H15.329C15.0527 51.5396 14.7878 51.4299 14.5924 51.2346C14.3971 51.0392 14.2874 50.7743 14.2874 50.498V45.29C14.2874 45.0137 14.3971 44.7488 14.5924 44.5534C14.7878 44.3581 15.0527 44.2484 15.329 44.2484C15.6052 44.2484 15.8702 44.3581 16.0655 44.5534C16.2608 44.7488 16.3706 45.0137 16.3706 45.29V49.4564H20.537C20.8133 49.4564 21.0782 49.5662 21.2736 49.7615C21.4689 49.9568 21.5786 50.2218 21.5786 50.498C21.5786 50.7743 21.4689 51.0392 21.2736 51.2346C21.0782 51.4299 20.8133 51.5396 20.537 51.5396Z" fill="#FA4616"/>
<path d="M48.6606 20.2913C48.3843 20.2913 48.1194 20.1815 47.924 19.9862C47.7287 19.7909 47.6189 19.5259 47.6189 19.2497V15.0832H43.4525C43.1762 15.0832 42.9113 14.9735 42.716 14.7781C42.5206 14.5828 42.4109 14.3179 42.4109 14.0416C42.4109 13.7654 42.5206 13.5004 42.716 13.3051C42.9113 13.1097 43.1762 13 43.4525 13H48.6606C48.9368 13 49.2018 13.1097 49.3971 13.3051C49.5924 13.5004 49.7022 13.7654 49.7022 14.0416V19.2497C49.7022 19.5259 49.5924 19.7909 49.3971 19.9862C49.2018 20.1815 48.9368 20.2913 48.6606 20.2913Z" fill="#FA4616"/>
<path d="M48.6606 51.5396H43.4525C43.1762 51.5396 42.9113 51.4299 42.716 51.2346C42.5206 51.0392 42.4109 50.7743 42.4109 50.498C42.4109 50.2218 42.5206 49.9568 42.716 49.7615C42.9113 49.5662 43.1762 49.4564 43.4525 49.4564H47.6189V45.29C47.6189 45.0137 47.7287 44.7488 47.924 44.5534C48.1194 44.3581 48.3843 44.2484 48.6606 44.2484C48.9368 44.2484 49.2018 44.3581 49.3971 44.5534C49.5924 44.7488 49.7022 45.0137 49.7022 45.29V50.498C49.7022 50.7743 49.5924 51.0392 49.3971 51.2346C49.2018 51.4299 48.9368 51.5396 48.6606 51.5396Z" fill="#FA4616"/>
</svg>
