<svg width="64" height="64" viewBox="0 0 64 64" fill="none" xmlns="http://www.w3.org/2000/svg">
<path d="M55.9583 50.75H42.4167V48.6667H54.9167V9.08333H9.08333V48.6667H21.5833V50.75H8.04167C7.7654 50.75 7.50045 50.6402 7.3051 50.4449C7.10975 50.2495 7 49.9846 7 49.7083V8.04167C7 7.7654 7.10975 7.50046 7.3051 7.30511C7.50045 7.10976 7.7654 7 8.04167 7H55.9583C56.2346 7 56.4995 7.10976 56.6949 7.30511C56.8902 7.50046 57 7.7654 57 8.04167V49.7083C57 49.9846 56.8902 50.2495 56.6949 50.4449C56.4995 50.6402 56.2346 50.75 55.9583 50.75Z" fill="#404040"/>
<path d="M55.9583 13.25H8.04163V15.3333H55.9583V13.25Z" fill="#404040"/>
<path d="M13.25 10.125H11.1666V12.2083H13.25V10.125Z" fill="#404040"/>
<path d="M17.4167 10.125H15.3334V12.2083H17.4167V10.125Z" fill="#404040"/>
<path d="M21.5833 10.125H19.5V12.2083H21.5833V10.125Z" fill="#404040"/>
<path d="M39.2917 57H24.7083C24.1558 57 23.6259 56.7805 23.2352 56.3898C22.8445 55.9991 22.625 55.4692 22.625 54.9167V44.5C22.625 43.9475 22.8445 43.4176 23.2352 43.0269C23.6259 42.6362 24.1558 42.4167 24.7083 42.4167H39.2917C39.8442 42.4167 40.3741 42.6362 40.7648 43.0269C41.1555 43.4176 41.375 43.9475 41.375 44.5V54.9167C41.375 55.4692 41.1555 55.9991 40.7648 56.3898C40.3741 56.7805 39.8442 57 39.2917 57ZM24.7083 44.5V54.9167H39.2917V44.5H24.7083Z" fill="#FA4616"/>
<path d="M38.25 44.5H25.75V38.25C25.75 36.5924 26.4085 35.0027 27.5806 33.8306C28.7527 32.6585 30.3424 32 32 32C33.6576 32 35.2473 32.6585 36.4194 33.8306C37.5915 35.0027 38.25 36.5924 38.25 38.25V44.5ZM27.8333 42.4167H36.1667V38.25C36.1667 37.1449 35.7277 36.0851 34.9463 35.3037C34.1649 34.5223 33.1051 34.0833 32 34.0833C30.8949 34.0833 29.8351 34.5223 29.0537 35.3037C28.2723 36.0851 27.8333 37.1449 27.8333 38.25V42.4167Z" fill="#FA4616"/>
<path d="M24.7084 30.9583H12.2084V18.4583H24.7084V30.9583ZM14.2917 28.875H22.625V20.5417H14.2917V28.875Z" fill="#404040"/>
<path d="M50.75 22.625H28.875V24.7083H50.75V22.625Z" fill="#404040"/>
<path d="M50.75 18.4583H28.875V20.5417H50.75V18.4583Z" fill="#404040"/>
<path d="M43.4583 26.7917H28.875V28.875H43.4583V26.7917Z" fill="#404040"/>
</svg>
