<svg width="64" height="64" viewBox="0 0 64 64" fill="none" xmlns="http://www.w3.org/2000/svg">
<path d="M38.1314 43.4642C36.2731 43.3226 34.5355 42.4891 33.2619 41.1285C33.1528 41.035 33.0641 40.92 33.0015 40.7907C32.9389 40.6613 32.9038 40.5204 32.8982 40.3768C32.8927 40.2332 32.9169 40.09 32.9693 39.9562C33.0217 39.8224 33.1012 39.7008 33.2029 39.5992C33.3045 39.4976 33.426 39.4181 33.5598 39.3657C33.6936 39.3133 33.8368 39.2891 33.9804 39.2946C34.124 39.3001 34.2649 39.3353 34.3943 39.3979C34.5236 39.4605 34.6387 39.5492 34.7321 39.6583C35.6215 40.6218 36.8283 41.2326 38.1314 41.3788C38.4079 41.3788 38.6731 41.4886 38.8687 41.6842C39.0642 41.8797 39.1741 42.1449 39.1741 42.4215C39.1741 42.698 39.0642 42.9632 38.8687 43.1588C38.6731 43.3543 38.4079 43.4642 38.1314 43.4642V43.4642Z" fill="#FA4616"/>
<path d="M25.4625 43.2869C25.1859 43.309 24.9119 43.2204 24.7007 43.0405C24.4895 42.8606 24.3585 42.6042 24.3363 42.3276C24.3142 42.0511 24.4029 41.7771 24.5828 41.5659C24.7627 41.3547 25.0191 41.2236 25.2957 41.2015C28.9556 40.5863 30.8116 37.8231 30.8116 32.9954V28.8245C30.8116 28.548 30.9214 28.2828 31.117 28.0872C31.3125 27.8917 31.5777 27.7818 31.8543 27.7818C32.1308 27.7818 32.3961 27.8917 32.5916 28.0872C32.7872 28.2828 32.897 28.548 32.897 28.8245V32.9954C32.897 38.9075 30.3841 42.4632 25.598 43.2556L25.4625 43.2869Z" fill="#FA4616"/>
<path d="M40.1959 35.1016C39.9194 35.1016 39.6542 34.9918 39.4586 34.7962C39.2631 34.6007 39.1532 34.3355 39.1532 34.0589V28.6994C39.1312 26.7838 38.3505 24.9551 36.9823 23.6142C35.614 22.2733 33.7699 21.5297 31.8542 21.5464C31.6457 21.5464 31.4372 21.5464 31.2286 21.5464C30.9521 21.5699 30.6775 21.4826 30.4653 21.3036C30.2532 21.1247 30.1208 20.8689 30.0973 20.5923C30.0738 20.3158 30.1611 20.0412 30.34 19.829C30.5189 19.6169 30.7748 19.4845 31.0514 19.461C31.3225 19.461 31.5831 19.461 31.8542 19.461C34.323 19.4443 36.6975 20.4076 38.4568 22.1396C40.2162 23.8715 41.2166 26.2307 41.2386 28.6994V34.0589C41.2386 34.3355 41.1288 34.6007 40.9333 34.7962C40.7377 34.9918 40.4725 35.1016 40.1959 35.1016Z" fill="#FA4616"/>
<path d="M23.5126 35.1016C23.236 35.1016 22.9708 34.9918 22.7753 34.7963C22.5797 34.6007 22.4698 34.3355 22.4698 34.0589V28.6994C22.478 27.0685 22.9174 25.4688 23.7432 24.0624C24.5691 22.656 25.7522 21.493 27.1725 20.6914C27.4131 20.5531 27.6987 20.5161 27.9666 20.5884C28.2345 20.6608 28.4627 20.8366 28.601 21.0772C28.7393 21.3178 28.7763 21.6034 28.704 21.8713C28.6316 22.1392 28.4558 22.3674 28.2152 22.5057C27.1151 23.1249 26.1981 24.0239 25.5573 25.1116C24.9164 26.1993 24.5743 27.437 24.5657 28.6994V34.0589C24.5657 34.1967 24.5384 34.3332 24.4854 34.4604C24.4323 34.5876 24.3546 34.703 24.2566 34.8C24.1587 34.8969 24.0425 34.9735 23.9148 35.0253C23.7871 35.0771 23.6504 35.103 23.5126 35.1016Z" fill="#FA4616"/>
<path d="M40.1959 39.3768C39.5063 39.4122 38.817 39.3033 38.1719 39.0571C37.5268 38.811 36.9402 38.4329 36.4495 37.9472C35.9589 37.4614 35.5749 36.8786 35.3223 36.236C35.0697 35.5934 34.9539 34.9052 34.9823 34.2154V28.835C34.9823 28.0053 34.6528 27.2097 34.0662 26.623C33.4795 26.0364 32.6838 25.7068 31.8542 25.7068C31.1149 25.7034 30.3982 25.962 29.8313 26.4367C29.6205 26.612 29.349 26.6972 29.0758 26.6737C28.8026 26.6503 28.5495 26.5202 28.3716 26.3116C28.2832 26.2069 28.2163 26.0858 28.1747 25.9552C28.1332 25.8246 28.1177 25.6871 28.1294 25.5505C28.141 25.414 28.1794 25.2811 28.2424 25.1594C28.3055 25.0377 28.3919 24.9296 28.4967 24.8414C29.44 24.0567 30.6272 23.6253 31.8542 23.6214C33.2369 23.6214 34.563 24.1707 35.5408 25.1484C36.5185 26.1261 37.0678 27.4522 37.0678 28.835V34.2154C37.0374 34.6316 37.0978 35.0495 37.245 35.44C37.3922 35.8306 37.6226 36.1844 37.9202 36.477C38.2178 36.7697 38.5755 36.9941 38.9684 37.1347C39.3614 37.2753 39.7802 37.3287 40.1959 37.2913C40.4724 37.2913 40.7377 37.4012 40.9332 37.5967C41.1288 37.7923 41.2386 38.0575 41.2386 38.334C41.2386 38.6106 41.1288 38.8758 40.9332 39.0714C40.7377 39.2669 40.4724 39.3768 40.1959 39.3768V39.3768Z" fill="#FA4616"/>
<path d="M23.5126 39.2725C23.236 39.2725 22.9708 39.1626 22.7753 38.9671C22.5797 38.7715 22.4698 38.5063 22.4698 38.2298C22.4698 37.9532 22.5797 37.688 22.7753 37.4925C22.9708 37.2969 23.236 37.187 23.5126 37.187C25.598 37.187 26.6407 36.1443 26.6407 34.0589V28.8454C26.6407 28.5688 26.7506 28.3036 26.9461 28.1081C27.1417 27.9125 27.4069 27.8026 27.6834 27.8026C27.96 27.8026 28.2252 27.9125 28.4207 28.1081C28.6163 28.3036 28.7261 28.5688 28.7261 28.8454V34.0589C28.7261 37.3226 26.7762 39.2725 23.5126 39.2725Z" fill="#FA4616"/>
<path d="M31.8542 56.9882C31.7644 57.0026 31.6729 57.0026 31.5831 56.9882C30.4883 56.6962 11 46.3942 11 36.1861V16.3745C11 16.098 11.1099 15.8328 11.3054 15.6372C11.501 15.4417 11.7662 15.3318 12.0427 15.3318C16.7975 15.3318 29.3517 9.79502 31.0201 7.43849C31.1165 7.30291 31.2439 7.19237 31.3917 7.11608C31.5396 7.0398 31.7035 7 31.8699 7C32.0362 7 32.2002 7.0398 32.348 7.11608C32.4959 7.19237 32.6233 7.30291 32.7197 7.43849C34.3359 9.72203 46.3479 15.3318 51.6657 15.3318C51.9423 15.3318 52.2075 15.4417 52.4031 15.6372C52.5986 15.8328 52.7085 16.098 52.7085 16.3745V37.2288C52.7085 45.6747 33.0429 56.7483 32.1253 56.9882C32.0357 57.0039 31.9439 57.0039 31.8542 56.9882V56.9882ZM13.0854 17.313V36.1443C13.0854 43.9647 28.7261 53.4534 31.8542 54.8193C34.5549 53.5263 50.623 43.5789 50.623 37.1871V17.3234C45.0654 16.7916 35.2222 12.4435 31.8542 9.49264C28.4237 12.4748 18.2468 16.7499 13.0854 17.313Z" fill="#404040"/>
</svg>
