<svg width="64" height="64" viewBox="0 0 64 64" fill="none" xmlns="http://www.w3.org/2000/svg">
<path d="M19.4988 40.0457C19.2226 40.0747 18.9461 39.9928 18.7302 39.818C18.5143 39.6431 18.3768 39.3897 18.3478 39.1134C18.3188 38.8371 18.4007 38.5607 18.5755 38.3448C18.7504 38.1289 19.0038 37.9913 19.2801 37.9623L24.0302 36.9206C23.4469 35.7956 23.3115 35.306 23.4469 34.8372C23.5823 34.3685 24.1552 33.9414 24.7073 33.6705C24.9677 33.5351 25.3219 33.358 25.749 33.0872C25.8949 33.0039 26.1449 32.8268 26.1865 32.6393C26.1993 32.4186 26.1328 32.2006 25.999 32.0247L25.4261 31.2121C23.2385 28.1808 21.9677 26.2016 21.8948 25.0661C21.8916 24.6128 21.9476 24.1611 22.0614 23.7223C22.4666 22.1087 22.5021 20.4244 22.1656 18.7951C21.564 16.2191 20.3889 13.812 18.728 11.7532C18.6308 11.6493 18.556 11.5266 18.508 11.3927C18.4601 11.2587 18.4401 11.1164 18.4493 10.9744C18.4585 10.8324 18.4967 10.6939 18.5615 10.5672C18.6263 10.4406 18.7163 10.3285 18.8261 10.238C18.9358 10.1475 19.063 10.0804 19.1996 10.041C19.3363 10.0015 19.4796 9.99037 19.6207 10.0084C19.7618 10.0264 19.8978 10.0731 20.0201 10.1457C20.1425 10.2182 20.2487 10.3151 20.3322 10.4302C22.2419 12.7498 23.5864 15.4815 24.2594 18.4097C24.6615 20.3195 24.6294 22.2953 24.1656 24.1911C24.1053 24.4521 24.06 24.7165 24.0302 24.9828C24.0927 25.5245 25.1553 27.2328 27.1553 30.0558C27.4574 30.4621 27.6762 30.785 27.7908 30.9517C28.0153 31.2704 28.1726 31.6315 28.2532 32.0129C28.3337 32.3944 28.3359 32.7882 28.2595 33.1705C28.1585 33.5462 27.9804 33.8968 27.7365 34.1999C27.4926 34.503 27.1882 34.752 26.8428 34.931C26.3532 35.2227 25.9574 35.4206 25.6657 35.5769C25.749 35.7435 25.8636 35.9831 26.0407 36.306C26.1968 36.5826 26.2788 36.8948 26.2788 37.2123C26.2788 37.5299 26.1968 37.8421 26.0407 38.1186C25.8899 38.3732 25.6792 38.5869 25.4268 38.7413C25.1744 38.8956 24.888 38.9858 24.5927 39.004L19.7697 39.9832C19.6839 40.0201 19.5921 40.0413 19.4988 40.0457Z" fill="#404040"/>
<path d="M8.04016 54.6295C7.9606 54.6394 7.88014 54.6394 7.80059 54.6295C7.66701 54.5977 7.54102 54.5399 7.42988 54.4592C7.31875 54.3786 7.22466 54.2767 7.15302 54.1596C7.08138 54.0425 7.03361 53.9123 7.01245 53.7766C6.99129 53.641 6.99715 53.5025 7.02971 53.3691C7.73807 50.4315 11.009 45.8897 12.5299 45.2647C12.6564 45.2127 12.792 45.1861 12.9288 45.1865C13.0656 45.1869 13.2009 45.2143 13.3272 45.267C13.4534 45.3197 13.568 45.3968 13.6645 45.4938C13.7609 45.5908 13.8373 45.7059 13.8893 45.8324C13.9413 45.9589 13.9679 46.0945 13.9675 46.2313C13.9671 46.3681 13.9397 46.5034 13.887 46.6297C13.8343 46.7559 13.7572 46.8705 13.6602 46.967C13.5632 47.0634 13.4481 47.1398 13.3216 47.1918C12.5716 47.546 9.66521 51.3586 9.05061 53.8587C8.99084 54.0807 8.85933 54.2766 8.67657 54.4161C8.4938 54.5555 8.27004 54.6305 8.04016 54.6295Z" fill="#404040"/>
<path d="M18.4988 48.3168C15.7956 48.1152 13.1323 47.5475 10.5819 46.6293L10.3632 46.5563C10.0715 46.4626 9.26937 46.2126 7.23805 43.4312C7.1576 43.3199 7.09994 43.1938 7.06842 43.0601C7.03691 42.9264 7.03217 42.7878 7.05444 42.6522C7.0767 42.5167 7.12556 42.3869 7.19819 42.2703C7.27082 42.1537 7.36581 42.0526 7.47766 41.9729C7.70178 41.8137 7.97975 41.7495 8.25098 41.7944C8.52222 41.8393 8.76471 41.9895 8.9256 42.2125C9.48495 43.1192 10.1887 43.9285 11.009 44.6084L11.1965 44.6709C16.655 46.4105 18.7384 46.4209 19.5301 46.1292C20.8322 45.6292 20.8739 45.2646 20.9051 44.8792C20.8986 44.7821 20.8986 44.6846 20.9051 44.5875C21.0554 43.8507 21.4175 43.1737 21.9468 42.6396C22.155 42.4544 22.3206 42.2262 22.4321 41.9708C22.5436 41.7155 22.5984 41.4389 22.5927 41.1604C22.5927 40.8841 22.7024 40.6191 22.8978 40.4238C23.0932 40.2284 23.3581 40.1187 23.6344 40.1187C23.9107 40.1187 24.1756 40.2284 24.371 40.4238C24.5663 40.6191 24.6761 40.8841 24.6761 41.1604C24.6847 42.2174 24.2768 43.2353 23.5406 43.9938C23.2719 44.2378 23.0831 44.5573 22.999 44.9105V45.0771C22.9052 46.1188 22.4989 47.2335 20.2801 48.0772C19.7051 48.2614 19.1021 48.3425 18.4988 48.3168Z" fill="#404040"/>
<path d="M35.1243 50.4627H29.9158C29.6396 50.4627 29.3746 50.353 29.1793 50.1576C28.9839 49.9623 28.8741 49.6973 28.8741 49.421V44.2125H30.9575V48.3793H35.1243V50.4627Z" fill="#404040"/>
<path d="M55.9582 50.4627H50.7498V48.3793H54.9165V44.2125H56.9999V49.421C56.9999 49.6973 56.8902 49.9623 56.6949 50.1576C56.4995 50.353 56.2345 50.4627 55.9582 50.4627Z" fill="#404040"/>
<path d="M56.9999 28.587H54.9165V24.4202H50.7498V22.3369H55.9582C56.2345 22.3369 56.4995 22.4466 56.6949 22.642C56.8902 22.8373 56.9999 23.1023 56.9999 23.3786V28.587Z" fill="#404040"/>
<path d="M30.9575 28.587H28.8741V23.3786C28.8741 23.1023 28.9839 22.8373 29.1793 22.642C29.3746 22.4466 29.6396 22.3369 29.9158 22.3369H35.1243V24.4202H30.9575V28.587Z" fill="#404040"/>
<path d="M11.1653 25.6078C10.9439 25.6073 10.7283 25.5362 10.55 25.4049C10.3717 25.2735 10.2399 25.0888 10.1737 24.8774C10.1075 24.6661 10.1104 24.4392 10.182 24.2296C10.2535 24.02 10.39 23.8387 10.5716 23.7119C13.3008 21.7952 18.9885 22.4098 19.6239 22.4827C19.9002 22.5145 20.1525 22.6547 20.3254 22.8725C20.4983 23.0903 20.5776 23.3679 20.5458 23.6442C20.5141 23.9205 20.3738 24.1728 20.156 24.3457C19.9382 24.5186 19.6606 24.5979 19.3843 24.5661C17.8635 24.389 13.53 24.1911 11.7695 25.4307C11.5912 25.5506 11.3802 25.6125 11.1653 25.6078V25.6078Z" fill="#404040"/>
<path d="M18.4571 28.5871H14.2904C14.0141 28.5871 13.7491 28.4773 13.5538 28.282C13.3584 28.0866 13.2487 27.8216 13.2487 27.5454C13.2487 27.2691 13.3584 27.0041 13.5538 26.8088C13.7491 26.6134 14.0141 26.5037 14.2904 26.5037H18.4571C18.7334 26.5037 18.9984 26.6134 19.1938 26.8088C19.3891 27.0041 19.4988 27.2691 19.4988 27.5454C19.4988 27.8216 19.3891 28.0866 19.1938 28.282C18.9984 28.4773 18.7334 28.5871 18.4571 28.5871Z" fill="#404040"/>
<path d="M43.4162 45.7855C42.9088 45.8087 42.4092 45.6537 42.004 45.3474C41.5988 45.0412 41.3135 44.6028 41.1974 44.1084L39.3848 35.556C39.3002 35.5282 39.2089 35.5282 39.1244 35.556C39.0618 35.556 39.0202 35.556 39.0202 35.556L37.3952 40.4208C37.2471 40.7914 37.0013 41.115 36.684 41.3571C36.3666 41.5993 35.9896 41.7509 35.593 41.7958C35.193 41.8584 34.7837 41.8154 34.4054 41.6711C34.0272 41.5267 33.6932 41.286 33.4367 40.9728L33.2909 40.7437C32.9325 39.8639 32.4857 39.0228 31.9575 38.2332C31.2805 38.0371 30.5789 37.9388 29.8741 37.9415C29.5978 37.9415 29.3328 37.8318 29.1375 37.6364C28.9421 37.441 28.8324 37.1761 28.8324 36.8998C28.8324 36.6235 28.9421 36.3586 29.1375 36.1632C29.3328 35.9679 29.5978 35.8581 29.8741 35.8581C30.8429 35.8581 32.5721 36.0144 33.3117 36.7019C34.0354 37.6151 34.6215 38.6294 35.0513 39.7124C35.0995 39.7222 35.149 39.7222 35.1972 39.7124C35.231 39.7153 35.2651 39.7112 35.2974 39.7005C35.3296 39.6897 35.3593 39.6725 35.3847 39.6499L37.0097 34.7852C37.2011 34.3274 37.5365 33.9444 37.9651 33.6944C38.3937 33.4444 38.8921 33.3409 39.3848 33.3997C39.851 33.4299 40.2951 33.6093 40.6515 33.9113C41.0079 34.2133 41.2577 34.6219 41.364 35.0768L43.1766 43.6188C43.2345 43.6489 43.2988 43.6646 43.3641 43.6646C43.4294 43.6646 43.4937 43.6489 43.5516 43.6188L45.4371 31.3163C45.5537 30.8154 45.8347 30.368 46.2352 30.0454C46.6358 29.7228 47.1328 29.5436 47.6471 29.5364C48.1613 29.5292 48.6631 29.6944 49.0726 30.0057C49.482 30.317 49.7753 30.7564 49.9059 31.2538L51.6247 40.3687C51.6821 40.3942 51.7442 40.4074 51.807 40.4074C51.8699 40.4074 51.932 40.3942 51.9893 40.3687L53.854 33.7539C53.8857 33.6161 53.9452 33.4862 54.0287 33.3721C54.1123 33.258 54.2182 33.1621 54.34 33.0903C54.4618 33.0184 54.597 32.9722 54.7373 32.9543C54.8776 32.9364 55.02 32.9472 55.156 32.9862C55.2919 33.0251 55.4186 33.0913 55.5281 33.1808C55.6376 33.2702 55.7278 33.3811 55.7931 33.5065C55.8584 33.6319 55.8975 33.7694 55.9079 33.9104C55.9184 34.0514 55.9001 34.1931 55.8541 34.3268L53.9894 40.9416C53.8378 41.4226 53.5276 41.8379 53.1095 42.1198C52.6913 42.4017 52.19 42.5336 51.6873 42.4937C51.1958 42.4831 50.7224 42.3064 50.3441 41.9924C49.9658 41.6784 49.7049 41.2456 49.6039 40.7645L47.8955 31.6497C47.8362 31.6244 47.7724 31.6114 47.708 31.6114C47.6435 31.6114 47.5798 31.6244 47.5205 31.6497L45.635 43.9521C45.5458 44.4596 45.2788 44.9188 44.8817 45.2471C44.4846 45.5755 43.9835 45.7516 43.4682 45.7438L43.4162 45.7855Z" fill="#FA4616"/>
</svg>
