<svg width="64" height="64" viewBox="0 0 64 64" fill="none" xmlns="http://www.w3.org/2000/svg">
<path d="M16.375 33.6667C16.0988 33.6667 15.8338 33.5569 15.6385 33.3616C15.4431 33.1662 15.3334 32.9013 15.3334 32.625V27.4167H17.4167V30.9375L20.0729 29.6041L21 31.4687L16.8334 33.552C16.6914 33.6248 16.5346 33.6641 16.375 33.6667V33.6667Z" fill="#FA4616"/>
<path d="M12.7101 29.6606L11.7782 31.5239L15.9427 33.6066L16.8746 31.7433L12.7101 29.6606Z" fill="#FA4616"/>
<path d="M18.7917 36.4895L16.4063 34.0937L14.0105 36.4895L12.5417 35.0104L15.6667 31.8854C15.8619 31.6914 16.1259 31.5825 16.4011 31.5825C16.6763 31.5825 16.9403 31.6914 17.1355 31.8854L20.2605 35.0104L18.7917 36.4895Z" fill="#FA4616"/>
<path d="M27.8334 33.6667C27.5571 33.6667 27.2922 33.5569 27.0969 33.3616C26.9015 33.1662 26.7917 32.9013 26.7917 32.625V27.4167H28.8751V30.9375L31.5313 29.6041L32.4584 31.4687L28.2918 33.552C28.1498 33.6248 27.993 33.6641 27.8334 33.6667V33.6667Z" fill="#FA4616"/>
<path d="M24.1687 29.6624L23.2368 31.5257L27.4013 33.6084L28.3332 31.7451L24.1687 29.6624Z" fill="#FA4616"/>
<path d="M30.2501 36.4895L27.8647 34.0937L25.4689 36.4895L24.0001 35.0104L27.1251 31.8854C27.3203 31.6914 27.5843 31.5825 27.8595 31.5825C28.1347 31.5825 28.3987 31.6914 28.5939 31.8854L31.7189 35.0104L30.2501 36.4895Z" fill="#FA4616"/>
<path d="M39.2917 33.6667C39.0154 33.6667 38.7505 33.5569 38.5551 33.3616C38.3598 33.1662 38.25 32.9013 38.25 32.625V27.4167H40.3333V30.9375L42.9896 29.6041L43.9167 31.4687L39.75 33.552C39.608 33.6248 39.4512 33.6641 39.2917 33.6667V33.6667Z" fill="#FA4616"/>
<path d="M35.627 29.6641L34.6952 31.5274L38.8597 33.6102L39.7916 31.7469L35.627 29.6641Z" fill="#FA4616"/>
<path d="M41.7084 36.4895L39.3229 34.0937L36.9271 36.4895L35.4584 35.0104L38.5834 31.8854C38.7785 31.6914 39.0425 31.5825 39.3177 31.5825C39.5929 31.5825 39.857 31.6914 40.0521 31.8854L43.1771 35.0104L41.7084 36.4895Z" fill="#FA4616"/>
<path d="M53.875 43.0417H50.75V40.9583H53.875C54.1513 40.9583 54.4162 40.8486 54.6116 40.6532C54.8069 40.4579 54.9167 40.1929 54.9167 39.9167V24.2917C54.9167 24.0154 54.8069 23.7504 54.6116 23.555C54.4162 23.3597 54.1513 23.25 53.875 23.25H50.75V21.1667H53.875C54.7038 21.1667 55.4986 21.4959 56.0847 22.0819C56.6707 22.668 57 23.4629 57 24.2917V39.9167C57 40.7455 56.6707 41.5403 56.0847 42.1263C55.4986 42.7124 54.7038 43.0417 53.875 43.0417Z" fill="#404040"/>
<path d="M46.5833 43.0417H10.125C9.2962 43.0417 8.50136 42.7124 7.9153 42.1263C7.32925 41.5403 7 40.7455 7 39.9167V24.2917C7 23.4629 7.32925 22.668 7.9153 22.0819C8.50136 21.4959 9.2962 21.1667 10.125 21.1667H46.5833V23.25H10.125C9.84873 23.25 9.5838 23.3597 9.38845 23.555C9.1931 23.7504 9.08333 24.0154 9.08333 24.2917V39.9167C9.08333 40.1929 9.1931 40.4579 9.38845 40.6532C9.5838 40.8486 9.84873 40.9583 10.125 40.9583H46.5833V43.0417Z" fill="#404040"/>
<path d="M49.7397 18.0417H47.6564V46.1667H49.7397V18.0417Z" fill="#404040"/>
<path d="M51.8229 45.125H45.5729V47.2083H51.8229V45.125Z" fill="#404040"/>
<path d="M51.8229 17H45.5729V19.0833H51.8229V17Z" fill="#404040"/>
</svg>
