<svg width="64" height="64" viewBox="0 0 64 64" fill="none" xmlns="http://www.w3.org/2000/svg">
<path d="M43 49.7083H40.9166V47.0104C41.0207 46.0575 41.3806 45.1504 41.9583 44.3854C42.5248 43.6298 42.8839 42.7393 43 41.8021V32C42.9726 31.7331 42.8541 31.4837 42.6643 31.294C42.4746 31.1042 42.2252 30.9857 41.9583 30.9583H39.875C39.5987 30.9583 39.3337 30.8486 39.1384 30.6532C38.943 30.4579 38.8333 30.1929 38.8333 29.9167C38.8059 29.6497 38.6874 29.4004 38.4976 29.2106C38.3079 29.0209 38.0586 28.9024 37.7916 28.875H35.7083C35.534 28.8747 35.3626 28.8307 35.2097 28.747C35.0568 28.6632 34.9274 28.5425 34.8333 28.3958C34.5124 28.0674 34.0828 27.8675 33.625 27.8333H31.5416V25.75H33.625C34.5749 25.7859 35.4819 26.1546 36.1875 26.7917H37.7916C38.4318 26.812 39.0517 27.0205 39.5741 27.391C40.0965 27.7615 40.4982 28.2776 40.7291 28.875H41.9583C42.7796 28.8986 43.5608 29.2354 44.1419 29.8164C44.7229 30.3974 45.0597 31.1787 45.0833 32V41.8021C44.9821 43.128 44.5171 44.4004 43.7395 45.4792C43.3984 45.9382 43.1474 46.4578 43 47.0104V49.7083Z" fill="#404040"/>
<path d="M27.375 49.7083H25.2917V45.9688C24.5849 44.7533 23.7912 43.5906 22.9167 42.4896C22.4271 41.8229 22 41.25 21.7812 40.8958C21.3021 40.1562 18.6562 33.9063 18.0833 32.6563C18.0286 32.5278 18.0003 32.3896 18 32.25C18.0554 31.7375 18.2685 31.2547 18.61 30.8685C18.9514 30.4823 19.4043 30.2115 19.9062 30.0937C20.6739 29.8629 21.496 29.8885 22.2478 30.1667C22.9997 30.4448 23.6404 30.9605 24.0729 31.6354L25.7813 34.2813C25.8249 34.3494 25.883 34.4071 25.9514 34.4503C26.0198 34.4935 26.0968 34.5211 26.1771 34.5312H26.3021V17.4167C26.3021 16.5879 26.6313 15.793 27.2174 15.2069C27.8034 14.6209 28.5983 14.2917 29.4271 14.2917C30.2559 14.2917 31.0507 14.6209 31.6368 15.2069C32.2228 15.793 32.5521 16.5879 32.5521 17.4167V30.9583H30.4688V17.4167C30.4688 17.1404 30.359 16.8754 30.1636 16.6801C29.9683 16.4847 29.7034 16.375 29.4271 16.375C29.1508 16.375 28.8859 16.4847 28.6905 16.6801C28.4952 16.8754 28.3854 17.1404 28.3854 17.4167V35.125C28.3876 35.2663 28.3611 35.4066 28.3074 35.5373C28.2536 35.6681 28.1739 35.7865 28.0729 35.8854C27.7912 36.1529 27.454 36.3551 27.0853 36.4776C26.7166 36.6001 26.3255 36.6398 25.9397 36.5941C25.5539 36.5483 25.1829 36.4182 24.853 36.2129C24.5232 36.0076 24.2426 35.7322 24.0312 35.4062L22.3542 32.8125C22.197 32.5632 21.9785 32.3585 21.7194 32.2181C21.4604 32.0776 21.1696 32.0061 20.875 32.0104C20.6167 32.0245 20.3675 32.1111 20.1562 32.2604C21.4375 35.2396 23.2187 39.3125 23.5104 39.7813C23.8021 40.25 24.1042 40.6354 24.5521 41.2396C26.6354 44.0104 27.3333 45.1458 27.3333 45.9688L27.375 49.7083Z" fill="#404040"/>
<path d="M40.9167 29.9167H38.8334V33.0417H40.9167V29.9167Z" fill="#404040"/>
<path d="M36.75 27.8333H34.6666V32H36.75V27.8333Z" fill="#404040"/>
<path d="M44.0417 57H24.25C23.9738 57 23.7088 56.8902 23.5135 56.6949C23.3181 56.4995 23.2084 56.2346 23.2084 55.9583V49.7083C23.2084 49.4321 23.3181 49.1671 23.5135 48.9718C23.7088 48.7764 23.9738 48.6667 24.25 48.6667H44.0417C44.318 48.6667 44.5829 48.7764 44.7783 48.9718C44.9736 49.1671 45.0834 49.4321 45.0834 49.7083V55.9583C45.0834 56.2346 44.9736 56.4995 44.7783 56.6949C44.5829 56.8902 44.318 57 44.0417 57ZM25.2917 54.9167H43V50.75H25.2917V54.9167Z" fill="#404040"/>
<path d="M20.0833 12.2083H18V8.04167C18 7.7654 18.1097 7.50043 18.3051 7.30508C18.5004 7.10973 18.7654 7 19.0417 7H23.2083V9.08333H20.0833V12.2083Z" fill="#FA4616"/>
<path d="M23.2083 23.6667H19.0417C18.7654 23.6667 18.5004 23.5569 18.3051 23.3615C18.1097 23.1662 18 22.9013 18 22.625V18.4583H20.0833V21.5833H23.2083V23.6667Z" fill="#FA4616"/>
<path d="M40.9167 12.2083H38.8334V9.08333H35.7084V7H39.875C40.1513 7 40.4163 7.10973 40.6116 7.30508C40.807 7.50043 40.9167 7.7654 40.9167 8.04167V12.2083Z" fill="#FA4616"/>
<path d="M39.875 23.6667H35.7084V21.5833H38.8334V18.4583H40.9167V22.625C40.9167 22.9013 40.807 23.1662 40.6116 23.3615C40.4163 23.5569 40.1513 23.6667 39.875 23.6667Z" fill="#FA4616"/>
</svg>
