<svg width="64" height="64" viewBox="0 0 64 64" fill="none" xmlns="http://www.w3.org/2000/svg">
<path d="M38.0786 38.2556C37.8024 38.2556 37.5375 38.1458 37.3422 37.9505C37.1469 37.7552 37.0371 37.4903 37.0371 37.2141C37.0371 35.9539 34.298 34.0896 31.8297 34.0896C29.3614 34.0896 26.6223 35.9435 26.6223 37.2141C26.6223 37.4903 26.5126 37.7552 26.3173 37.9505C26.1219 38.1458 25.857 38.2556 25.5808 38.2556C25.3046 38.2556 25.0397 38.1458 24.8444 37.9505C24.649 37.7552 24.5393 37.4903 24.5393 37.2141C24.5393 34.4125 28.549 32.0067 31.8297 32.0067C35.1104 32.0067 39.1201 34.4021 39.1201 37.2141C39.1201 37.4903 39.0104 37.7552 38.8151 37.9505C38.6198 38.1458 38.3548 38.2556 38.0786 38.2556Z" fill="#FA4616"/>
<path d="M31.8298 34.1C31.1515 34.1254 30.475 34.0129 29.8414 33.7694C29.2077 33.5259 28.63 33.1564 28.1433 32.6833C27.6565 32.2101 27.2707 31.6432 27.0093 31.0167C26.7479 30.3902 26.6163 29.7172 26.6224 29.0384V27.6949C26.6224 26.3138 27.171 24.9893 28.1476 24.0127C29.1242 23.0361 30.4487 22.4875 31.8298 22.4875C33.2109 22.4875 34.5355 23.0361 35.5121 24.0127C36.4886 24.9893 37.0373 26.3138 37.0373 27.6949V29.0384C37.0434 29.7172 36.9117 30.3902 36.6503 31.0167C36.3889 31.6432 36.0032 32.2101 35.5164 32.6833C35.0296 33.1564 34.452 33.5259 33.8183 33.7694C33.1847 34.0129 32.5082 34.1254 31.8298 34.1V34.1ZM31.8298 24.7266C31.4253 24.6976 31.0191 24.7532 30.6373 24.89C30.2555 25.0268 29.9065 25.2418 29.6124 25.5211C29.3184 25.8004 29.0858 26.138 28.9297 26.5123C28.7735 26.8866 28.6971 27.2894 28.7054 27.6949V29.0384C28.7054 29.8671 29.0346 30.6618 29.6205 31.2477C30.2065 31.8337 31.0012 32.1629 31.8298 32.1629C32.6585 32.1629 33.4532 31.8337 34.0392 31.2477C34.6251 30.6618 34.9543 29.8671 34.9543 29.0384V27.6949C34.9626 27.2894 34.8862 26.8866 34.73 26.5123C34.5738 26.138 34.3413 25.8004 34.0472 25.5211C33.7532 25.2418 33.4041 25.0268 33.0223 24.89C32.6405 24.7532 32.2344 24.6976 31.8298 24.7266Z" fill="#FA4616"/>
<path d="M21.4149 24.7267C21.1387 24.7267 20.8738 24.617 20.6785 24.4217C20.4832 24.2263 20.3734 23.9614 20.3734 23.6852V19.5193C20.3734 19.2431 20.4832 18.9781 20.6785 18.7828C20.8738 18.5875 21.1387 18.4778 21.4149 18.4778H25.5808C25.8571 18.4778 26.122 18.5875 26.3173 18.7828C26.5126 18.9781 26.6223 19.2431 26.6223 19.5193C26.6223 19.7955 26.5126 20.0604 26.3173 20.2557C26.122 20.451 25.8571 20.5608 25.5808 20.5608H22.4564V23.6852C22.4564 23.9614 22.3467 24.2263 22.1514 24.4217C21.956 24.617 21.6911 24.7267 21.4149 24.7267Z" fill="#FA4616"/>
<path d="M25.5808 43.4734H21.4149C21.1387 43.4734 20.8738 43.3637 20.6785 43.1684C20.4832 42.9731 20.3734 42.7082 20.3734 42.4319V38.266C20.3734 37.9898 20.4832 37.7249 20.6785 37.5296C20.8738 37.3342 21.1387 37.2245 21.4149 37.2245C21.6911 37.2245 21.956 37.3342 22.1514 37.5296C22.3467 37.7249 22.4564 37.9898 22.4564 38.266V41.3905H25.5808C25.8571 41.3905 26.122 41.5002 26.3173 41.6955C26.5126 41.8908 26.6223 42.1557 26.6223 42.4319C26.6223 42.7082 26.5126 42.9731 26.3173 43.1684C26.122 43.3637 25.8571 43.4734 25.5808 43.4734Z" fill="#FA4616"/>
<path d="M42.2445 24.7267C41.9683 24.7267 41.7034 24.617 41.5081 24.4217C41.3128 24.2263 41.2031 23.9614 41.2031 23.6852V20.5608H38.0786C37.8024 20.5608 37.5375 20.451 37.3422 20.2557C37.1469 20.0604 37.0371 19.7955 37.0371 19.5193C37.0371 19.2431 37.1469 18.9781 37.3422 18.7828C37.5375 18.5875 37.8024 18.4778 38.0786 18.4778H42.2445C42.5208 18.4778 42.7857 18.5875 42.981 18.7828C43.1763 18.9781 43.286 19.2431 43.286 19.5193V23.6852C43.286 23.9614 43.1763 24.2263 42.981 24.4217C42.7857 24.617 42.5208 24.7267 42.2445 24.7267Z" fill="#FA4616"/>
<path d="M42.2445 43.4734H38.0786C37.8024 43.4734 37.5375 43.3637 37.3422 43.1684C37.1469 42.9731 37.0371 42.7082 37.0371 42.4319C37.0371 42.1557 37.1469 41.8908 37.3422 41.6955C37.5375 41.5002 37.8024 41.3905 38.0786 41.3905H41.2031V38.266C41.2031 37.9898 41.3128 37.7249 41.5081 37.5296C41.7034 37.3342 41.9683 37.2245 42.2445 37.2245C42.5208 37.2245 42.7857 37.3342 42.981 37.5296C43.1763 37.7249 43.286 37.9898 43.286 38.266V42.4319C43.286 42.7082 43.1763 42.9731 42.981 43.1684C42.7857 43.3637 42.5208 43.4734 42.2445 43.4734Z" fill="#FA4616"/>
<path d="M31.8297 56.9919C31.7432 57.0021 31.6558 57.0021 31.5694 56.9919C30.4654 56.7003 11 46.4 11 36.1622V16.3739C11 16.0977 11.1097 15.8328 11.3051 15.6375C11.5004 15.4422 11.7653 15.3324 12.0415 15.3324C16.7907 15.3324 29.3302 9.79174 30.9966 7.43798C31.0928 7.30256 31.2201 7.19214 31.3678 7.11595C31.5154 7.03975 31.6792 7 31.8454 7C32.0115 7 32.1753 7.03975 32.3229 7.11595C32.4706 7.19214 32.5979 7.30256 32.6942 7.43798C34.3085 9.72925 46.3064 15.3324 51.618 15.3324C51.8942 15.3324 52.1591 15.4422 52.3544 15.6375C52.5497 15.8328 52.6595 16.0977 52.6595 16.3739V37.2037C52.6595 45.6293 33.017 56.6899 32.1005 56.9919C32.0106 57.0027 31.9197 57.0027 31.8297 56.9919V56.9919ZM13.083 17.3634V36.183C13.083 43.9942 28.7053 53.4717 31.8297 54.836C34.5272 53.5342 50.5765 43.5984 50.5765 37.2245V17.3738C45.0254 16.853 35.1937 12.4996 31.8297 9.56262C28.4032 12.5309 18.2383 16.801 13.083 17.3634Z" fill="#404040"/>
</svg>
