<svg width="64" height="64" viewBox="0 0 64 64" fill="none" xmlns="http://www.w3.org/2000/svg">
<path d="M43 57H40.9166V56.3854C41.0207 55.4325 41.3806 54.5254 41.9583 53.7604C42.5248 53.0048 42.8839 52.1143 43 51.1771V41.375C42.9726 41.1081 42.8541 40.8587 42.6643 40.669C42.4746 40.4792 42.2252 40.3607 41.9583 40.3333H39.875C39.5987 40.3333 39.3338 40.2236 39.1384 40.0282C38.9431 39.8329 38.8333 39.5679 38.8333 39.2917C38.8059 39.0247 38.6874 38.7754 38.4977 38.5856C38.3079 38.3959 38.0586 38.2774 37.7916 38.25H35.7083C35.534 38.2497 35.3626 38.2057 35.2097 38.122C35.0568 38.0382 34.9274 37.9175 34.8333 37.7708C34.5124 37.4424 34.0828 37.2425 33.625 37.2083H31.5416V35.125H33.625C34.5749 35.1609 35.4819 35.5296 36.1875 36.1667H37.7916C38.4318 36.187 39.0517 36.3955 39.5741 36.766C40.0965 37.1365 40.4982 37.6526 40.7291 38.25H41.9583C42.7796 38.2736 43.5609 38.6104 44.1419 39.1914C44.7229 39.7724 45.0597 40.5537 45.0833 41.375V51.1771C44.9821 52.503 44.5172 53.7754 43.7396 54.8542C43.3984 55.3132 43.1474 55.8328 43 56.3854V57Z" fill="#404040"/>
<path d="M27.375 57H25.2917V55.3438C24.5849 54.1283 23.7912 52.9656 22.9167 51.8646C22.4271 51.1979 22 50.625 21.7813 50.2708C21.3125 49.5521 18.8334 43.7813 18.0834 42.0313C18.0286 41.9028 18.0003 41.7646 18 41.625C18.0554 41.1124 18.2685 40.6297 18.61 40.2435C18.9514 39.8573 19.4044 39.5865 19.9063 39.4687C20.674 39.2379 21.496 39.2635 22.2478 39.5417C22.9997 39.8198 23.6404 40.3355 24.0729 41.0104L25.7813 43.6563C25.8249 43.7244 25.883 43.7821 25.9514 43.8253C26.0198 43.8685 26.0968 43.8961 26.1771 43.9062H26.3021V28.875C26.3021 28.0462 26.6313 27.2513 27.2174 26.6653C27.8034 26.0792 28.5983 25.75 29.4271 25.75C30.2559 25.75 31.0508 26.0792 31.6368 26.6653C32.2229 27.2513 32.5521 28.0462 32.5521 28.875V40.3333H30.4688V28.875C30.4688 28.5987 30.359 28.3338 30.1637 28.1384C29.9683 27.9431 29.7034 27.8333 29.4271 27.8333C29.1508 27.8333 28.8859 27.9431 28.6905 28.1384C28.4952 28.3338 28.3854 28.5987 28.3854 28.875V44.5C28.3876 44.6413 28.3611 44.7816 28.3074 44.9123C28.2537 45.0431 28.1739 45.1615 28.0729 45.2604C27.7912 45.5279 27.454 45.7301 27.0853 45.8526C26.7166 45.975 26.3255 46.0148 25.9397 45.9691C25.5539 45.9233 25.1829 45.7932 24.853 45.5879C24.5232 45.3826 24.2426 45.1072 24.0313 44.7812L22.3542 42.1875C22.1971 41.9382 21.9785 41.7335 21.7195 41.5931C21.4604 41.4526 21.1696 41.3811 20.875 41.3854C20.6167 41.3994 20.3676 41.4861 20.1563 41.6354C21.4375 44.6146 23.2188 48.6875 23.5104 49.1563C23.8021 49.625 24.1042 50.0104 24.5521 50.625C26.6354 53.3958 27.3334 54.5208 27.3334 55.3438L27.375 57Z" fill="#404040"/>
<path d="M36.75 37.2083H34.6666V41.375H36.75V37.2083Z" fill="#404040"/>
<path d="M40.9167 39.2917H38.8334V42.4167H40.9167V39.2917Z" fill="#404040"/>
<path d="M39.875 34.0833H34.6667V32H38.8333V20.5417H20.0833V32H24.25V34.0833H19.0417C18.7654 34.0833 18.5005 33.9736 18.3051 33.7782C18.1098 33.5829 18 33.3179 18 33.0417V19.5C18 19.2237 18.1098 18.9588 18.3051 18.7634C18.5005 18.5681 18.7654 18.4583 19.0417 18.4583H39.875C40.1513 18.4583 40.4162 18.5681 40.6116 18.7634C40.8069 18.9588 40.9167 19.2237 40.9167 19.5V33.0417C40.9167 33.3179 40.8069 33.5829 40.6116 33.7782C40.4162 33.9736 40.1513 34.0833 39.875 34.0833Z" fill="#FA4616"/>
<path d="M35.7084 19.5H33.625V13.25C33.625 12.1449 33.1861 11.0851 32.4047 10.3037C31.6233 9.52232 30.5634 9.08333 29.4584 9.08333C28.3533 9.08333 27.2935 9.52232 26.5121 10.3037C25.7307 11.0851 25.2917 12.1449 25.2917 13.25V19.5H23.2084V13.25C23.2084 11.5924 23.8668 10.0027 25.039 8.83058C26.2111 7.65848 27.8008 7 29.4584 7C31.116 7 32.7057 7.65848 33.8778 8.83058C35.0499 10.0027 35.7084 11.5924 35.7084 13.25V19.5Z" fill="#FA4616"/>
</svg>
