<svg width="64" height="64" viewBox="0 0 64 64" fill="none" xmlns="http://www.w3.org/2000/svg">
<path d="M52.8334 41.125H50.75V22.375C50.75 21.8225 50.5305 21.2926 50.1398 20.9019C49.7491 20.5112 49.2192 20.2917 48.6667 20.2917H40.3334V18.2083H48.6667C49.7718 18.2083 50.8316 18.6473 51.613 19.4287C52.3944 20.2101 52.8334 21.2699 52.8334 22.375V41.125Z" fill="#404040"/>
<path d="M13.25 41.125H11.1666V22.375C11.1666 21.2699 11.6056 20.2101 12.387 19.4287C13.1684 18.6473 14.2282 18.2083 15.3333 18.2083H23.6666V20.2917H15.3333C14.7808 20.2917 14.2509 20.5112 13.8602 20.9019C13.4695 21.2926 13.25 21.8225 13.25 22.375V41.125Z" fill="#404040"/>
<path d="M50.75 50.5H13.25C11.5924 50.5 10.0027 49.8415 8.83059 48.6694C7.65848 47.4973 7 45.9076 7 44.25V42.1667H57V44.25C57 45.9076 56.3415 47.4973 55.1694 48.6694C53.9973 49.8415 52.4076 50.5 50.75 50.5ZM9.08333 44.25C9.08333 45.3551 9.52232 46.4149 10.3037 47.1963C11.0851 47.9777 12.1449 48.4167 13.25 48.4167H50.75C51.8551 48.4167 52.9149 47.9777 53.6963 47.1963C54.4777 46.4149 54.9167 45.3551 54.9167 44.25H9.08333Z" fill="#404040"/>
<path d="M35.125 45.2917H28.875V47.375H35.125V45.2917Z" fill="#404040"/>
<path d="M39.2917 39.0417H24.7083C24.1558 39.0417 23.6259 38.8221 23.2352 38.4314C22.8445 38.0407 22.625 37.5109 22.625 36.9583V25.5C22.625 24.9475 22.8445 24.4176 23.2352 24.0269C23.6259 23.6362 24.1558 23.4167 24.7083 23.4167H39.2917C39.8442 23.4167 40.3741 23.6362 40.7648 24.0269C41.1555 24.4176 41.375 24.9475 41.375 25.5V36.9583C41.375 37.5109 41.1555 38.0407 40.7648 38.4314C40.3741 38.8221 39.8442 39.0417 39.2917 39.0417ZM24.7083 25.5V36.9583H39.2917V25.5H24.7083Z" fill="#FA4616"/>
<path d="M38.25 25.5H25.75V19.25C25.75 17.5924 26.4085 16.0027 27.5806 14.8306C28.7527 13.6585 30.3424 13 32 13C33.6576 13 35.2473 13.6585 36.4194 14.8306C37.5915 16.0027 38.25 17.5924 38.25 19.25V25.5ZM27.8333 23.4167H36.1667V19.25C36.1667 18.1449 35.7277 17.0851 34.9463 16.3037C34.1649 15.5223 33.1051 15.0833 32 15.0833C30.8949 15.0833 29.8351 15.5223 29.0537 16.3037C28.2723 17.0851 27.8333 18.1449 27.8333 19.25V23.4167Z" fill="#FA4616"/>
</svg>
