<svg width="64" height="64" viewBox="0 0 64 64" fill="none" xmlns="http://www.w3.org/2000/svg">
<path d="M19.3646 48.6667H13.1667L9 44.2396L12.625 40.3333H15.6354V37.1042L18.0208 35.125H20.8438V31.8437L25.0104 27.7604C24.4266 24.7658 25.0337 21.6616 26.7027 19.1075C28.3716 16.5535 30.9709 14.751 33.9479 14.0833L34.3958 16.1666C33.1443 16.4442 31.9611 16.9697 30.9161 17.7121C29.8711 18.4546 28.9856 19.399 28.3117 20.4894C27.6378 21.5799 27.1892 22.7944 26.9926 24.0611C26.7959 25.3278 26.8551 26.6211 27.1667 27.8646L27.3229 28.4583L22.8958 32.7604V35.7291L22.2292 37.25H18.7396L17.6979 38.125V41.1458L16.7917 42.4583H13.5104L11.8333 44.2708L14.0417 46.625H18.5104L31.2812 33.6146L31.9687 33.9896C33.3596 34.7135 34.9117 35.0719 36.4792 35.0312V37.1146C34.8417 37.1405 33.2169 36.8247 31.7083 36.1875L19.3646 48.6667Z" fill="#404040"/>
<path d="M43.6979 57H37.5105V51.1667L39.5938 49.5208V48.8333L37.5105 46.8541V44.5833L39.5938 42.2187V41.4791L37.5105 39.8333V33.4271C35.9167 31.9687 32.3021 28.1354 32.3021 23.6667C32.3021 20.6277 33.5093 17.7132 35.6582 15.5644C37.807 13.4155 40.7215 12.2083 43.7605 12.2083C46.7994 12.2083 49.7139 13.4155 51.8627 15.5644C54.0116 17.7132 55.2188 20.6277 55.2188 23.6667C55.2188 29.25 52.573 33.2396 47.9271 34.7292V52.0729L43.6979 57ZM39.5938 54.9167H42.7188L45.8438 51.2812V33.125L46.6355 32.9375C52.2917 31.5312 53.1355 26.5208 53.1355 23.6667C53.1355 21.1803 52.1477 18.7957 50.3896 17.0375C48.6314 15.2794 46.2469 14.2917 43.7605 14.2917C41.2741 14.2917 38.8895 15.2794 37.1313 17.0375C35.3732 18.7957 34.3855 21.1803 34.3855 23.6667C34.3855 27.6354 38.0938 31.1875 39.2396 32.1875L39.5938 32.4896V38.8229L41.6771 40.4687V43.0104L39.5938 45.3646V45.9583L41.6771 47.9375V50.5312L39.5938 52.1771V54.9167Z" fill="#404040"/>
<path d="M43.7604 24.7083C42.9363 24.7083 42.1307 24.4639 41.4455 24.0061C40.7603 23.5483 40.2263 22.8975 39.9109 22.1362C39.5955 21.3748 39.513 20.537 39.6738 19.7288C39.8346 18.9205 40.2314 18.1781 40.8141 17.5954C41.3969 17.0127 42.1393 16.6158 42.9475 16.455C43.7558 16.2943 44.5936 16.3768 45.3549 16.6921C46.1163 17.0075 46.767 17.5416 47.2249 18.2268C47.6827 18.912 47.9271 19.7176 47.9271 20.5417C47.9271 21.6467 47.4881 22.7065 46.7067 23.4879C45.9253 24.2693 44.8655 24.7083 43.7604 24.7083ZM43.7604 18.4583C43.3484 18.4583 42.9456 18.5805 42.603 18.8094C42.2604 19.0383 41.9934 19.3637 41.8357 19.7444C41.678 20.1251 41.6367 20.5439 41.7171 20.9481C41.7975 21.3522 41.9959 21.7234 42.2873 22.0148C42.5786 22.3062 42.9499 22.5045 43.354 22.5849C43.7581 22.6653 44.177 22.6241 44.5577 22.4664C44.9384 22.3087 45.2637 22.0417 45.4926 21.6991C45.7216 21.3565 45.8438 20.9537 45.8438 20.5417C45.8438 19.9891 45.6243 19.4592 45.2336 19.0685C44.8429 18.6778 44.313 18.4583 43.7604 18.4583Z" fill="#FA4616"/>
<path d="M44.802 20.5417H42.7187V15.3333C42.7187 13.6757 42.0602 12.086 40.8881 10.9139C39.716 9.74181 38.1263 9.08333 36.4687 9.08333C34.8111 9.08333 33.2214 9.74181 32.0493 10.9139C30.8772 12.086 30.2187 13.6757 30.2187 15.3333H28.1354C28.1354 13.1232 29.0133 11.0036 30.5761 9.44077C32.1389 7.87797 34.2586 7 36.4687 7C38.6788 7 40.7985 7.87797 42.3613 9.44077C43.9241 11.0036 44.802 13.1232 44.802 15.3333V20.5417Z" fill="#FA4616"/>
</svg>
