<svg width="64" height="64" viewBox="0 0 64 64" fill="none" xmlns="http://www.w3.org/2000/svg">
<path d="M49.7292 51.8125C47.8728 51.671 46.1369 50.8384 44.8646 49.4792C44.7556 49.3858 44.667 49.2709 44.6045 49.1416C44.5419 49.0124 44.5068 48.8717 44.5013 48.7282C44.4957 48.5847 44.5199 48.4417 44.5723 48.308C44.6246 48.1743 44.7041 48.0529 44.8056 47.9514C44.9071 47.8499 45.0285 47.7705 45.1622 47.7181C45.2958 47.6657 45.4389 47.6415 45.5824 47.6471C45.7258 47.6526 45.8666 47.6878 45.9958 47.7503C46.125 47.8128 46.24 47.9014 46.3333 48.0104C47.2189 48.9768 48.426 49.5877 49.7292 49.7292C50.0054 49.7292 50.2704 49.8389 50.4658 50.0343C50.6611 50.2296 50.7708 50.4946 50.7708 50.7708C50.7708 51.0471 50.6611 51.3121 50.4658 51.5074C50.2704 51.7028 50.0054 51.8125 49.7292 51.8125V51.8125Z" fill="#FA4616"/>
<path d="M37.073 51.6458C36.9362 51.6568 36.7986 51.6407 36.6681 51.5984C36.5375 51.5562 36.4165 51.4886 36.3121 51.3996C36.2076 51.3107 36.1217 51.202 36.0592 51.0798C35.9968 50.9576 35.959 50.8243 35.948 50.6875C35.9371 50.5507 35.9532 50.4131 35.9954 50.2825C36.0377 50.1519 36.1052 50.031 36.1942 49.9265C36.2832 49.822 36.3919 49.7361 36.5141 49.6737C36.6363 49.6112 36.7696 49.5734 36.9064 49.5625C40.5626 48.9479 42.4168 46.1979 42.4168 41.3646V39.2812C42.4168 39.005 42.5265 38.74 42.7219 38.5447C42.9172 38.3493 43.1822 38.2396 43.4584 38.2396C43.7347 38.2396 43.9997 38.3493 44.195 38.5447C44.3904 38.74 44.5001 39.005 44.5001 39.2812V41.3646C44.5001 47.2812 42.0001 50.8229 37.2084 51.6146L37.073 51.6458Z" fill="#FA4616"/>
<path d="M51.7917 43.4583C51.5155 43.4583 51.2505 43.3486 51.0552 43.1532C50.8598 42.9579 50.7501 42.6929 50.7501 42.4167V39.1458C50.7281 37.2321 49.9482 35.4052 48.5813 34.0657C47.2144 32.7262 45.3721 31.9833 43.4584 32C43.2501 32 43.0417 32 42.8334 32C42.6966 32.0109 42.559 31.9948 42.4284 31.9526C42.2979 31.9104 42.1769 31.8428 42.0724 31.7538C41.968 31.6648 41.882 31.5561 41.8196 31.4339C41.7571 31.3117 41.7193 31.1784 41.7084 31.0416C41.6975 30.9048 41.7136 30.7672 41.7558 30.6367C41.798 30.5061 41.8656 30.3851 41.9546 30.2807C42.0436 30.1762 42.1523 30.0903 42.2745 30.0278C42.3967 29.9654 42.53 29.9276 42.6667 29.9167C42.9272 29.9167 43.198 29.9167 43.4584 29.9167C45.9247 29.9 48.2968 30.8624 50.0544 32.5926C51.812 34.3228 52.8114 36.6796 52.8334 39.1458V42.4167C52.8334 42.6929 52.7237 42.9579 52.5283 43.1532C52.333 43.3486 52.068 43.4583 51.7917 43.4583Z" fill="#FA4616"/>
<path d="M35.125 43.4583C34.8488 43.4583 34.5838 43.3486 34.3885 43.1532C34.1931 42.9579 34.0834 42.6929 34.0834 42.4167V39.1458C34.0934 37.5183 34.5331 35.9223 35.3581 34.5194C36.183 33.1164 37.3639 31.9562 38.7813 31.1563C39.0205 31.0205 39.3037 30.9847 39.5691 31.0569C39.8345 31.1292 40.0605 31.3034 40.198 31.5417C40.2668 31.6606 40.3115 31.7919 40.3294 31.9281C40.3473 32.0644 40.3381 32.2028 40.3022 32.3354C40.2664 32.4681 40.2047 32.5923 40.1207 32.701C40.0366 32.8097 39.9319 32.9007 39.8125 32.9687C38.7136 33.5848 37.7974 34.4809 37.157 35.5659C36.5167 36.6509 36.175 37.886 36.1667 39.1458V42.4167C36.1667 42.6929 36.057 42.9579 35.8616 43.1532C35.6663 43.3486 35.4013 43.4583 35.125 43.4583Z" fill="#FA4616"/>
<path d="M51.7917 47.7292C51.1028 47.7645 50.4142 47.6558 49.7697 47.4098C49.1253 47.1639 48.5392 46.7863 48.049 46.301C47.5589 45.8157 47.1753 45.2335 46.9229 44.5915C46.6706 43.9496 46.5549 43.2621 46.5833 42.5729V39.2812C46.5742 38.6903 46.3977 38.1141 46.0743 37.6195C45.7509 37.1249 45.2938 36.7321 44.7562 36.4867C44.2186 36.2413 43.6224 36.1534 43.0368 36.2332C42.4512 36.313 41.9003 36.5572 41.4479 36.9375C41.2352 37.1157 40.9604 37.2021 40.684 37.1777C40.4076 37.1532 40.1521 37.02 39.974 36.8073C39.7958 36.5946 39.7094 36.3197 39.7338 36.0433C39.7582 35.7669 39.8914 35.5115 40.1042 35.3333C41.0453 34.5485 42.2329 34.1206 43.4583 34.125C44.8307 34.1249 46.1476 34.6665 47.1229 35.632C48.0982 36.5975 48.6529 37.9089 48.6667 39.2812V42.5729C48.6363 42.9887 48.6967 43.4062 48.8438 43.7963C48.9908 44.1865 49.221 44.54 49.5183 44.8323C49.8155 45.1247 50.1729 45.3488 50.5654 45.4893C50.958 45.6298 51.3764 45.6832 51.7917 45.6458C52.0679 45.6458 52.3329 45.7556 52.5282 45.9509C52.7236 46.1463 52.8333 46.4112 52.8333 46.6875C52.8333 46.9638 52.7236 47.2287 52.5282 47.4241C52.3329 47.6194 52.0679 47.7292 51.7917 47.7292V47.7292Z" fill="#FA4616"/>
<path d="M35.125 47.625C34.8488 47.625 34.5838 47.5152 34.3885 47.3199C34.1931 47.1245 34.0834 46.8596 34.0834 46.5833C34.0834 46.3071 34.1931 46.0421 34.3885 45.8467C34.5838 45.6514 34.8488 45.5417 35.125 45.5417C37.2084 45.5417 38.25 44.5 38.25 42.4167V39.2917C38.25 39.0154 38.3598 38.7504 38.5551 38.5551C38.7505 38.3597 39.0154 38.25 39.2917 38.25C39.568 38.25 39.8329 38.3597 40.0283 38.5551C40.2236 38.7504 40.3334 39.0154 40.3334 39.2917V42.4167C40.3334 45.6875 38.3959 47.625 35.125 47.625Z" fill="#FA4616"/>
<path d="M30.9583 33.0417C30.682 33.0417 30.4171 32.9319 30.2217 32.7366C30.0264 32.5412 29.9166 32.2763 29.9166 32V26.7917C29.9166 26.5154 30.0264 26.2504 30.2217 26.0551C30.4171 25.8597 30.682 25.75 30.9583 25.75H35.125C35.4012 25.75 35.6662 25.8597 35.8615 26.0551C36.0569 26.2504 36.1666 26.5154 36.1666 26.7917C36.1666 27.0679 36.0569 27.3329 35.8615 27.5282C35.6662 27.7236 35.4012 27.8333 35.125 27.8333H32V32C32 32.2763 31.8902 32.5412 31.6949 32.7366C31.4995 32.9319 31.2346 33.0417 30.9583 33.0417Z" fill="#404040"/>
<path d="M55.9583 33.0417C55.6821 33.0417 55.4171 32.9319 55.2218 32.7366C55.0264 32.5412 54.9167 32.2763 54.9167 32V27.8333H51.7917C51.5154 27.8333 51.2504 27.7236 51.0551 27.5282C50.8597 27.3329 50.75 27.0679 50.75 26.7917C50.75 26.5154 50.8597 26.2504 51.0551 26.0551C51.2504 25.8597 51.5154 25.75 51.7917 25.75H55.9583C56.2346 25.75 56.4996 25.8597 56.6949 26.0551C56.8903 26.2504 57 26.5154 57 26.7917V32C57 32.2763 56.8903 32.5412 56.6949 32.7366C56.4996 32.9319 56.2346 33.0417 55.9583 33.0417Z" fill="#404040"/>
<path d="M35.125 57H30.9583C30.682 57 30.4171 56.8902 30.2217 56.6949C30.0264 56.4995 29.9166 56.2346 29.9166 55.9583V50.75C29.9166 50.4737 30.0264 50.2088 30.2217 50.0134C30.4171 49.8181 30.682 49.7083 30.9583 49.7083C31.2346 49.7083 31.4995 49.8181 31.6949 50.0134C31.8902 50.2088 32 50.4737 32 50.75V54.9167H35.125C35.4012 54.9167 35.6662 55.0264 35.8615 55.2217C36.0569 55.4171 36.1666 55.6821 36.1666 55.9583C36.1666 56.2346 36.0569 56.4995 35.8615 56.6949C35.6662 56.8902 35.4012 57 35.125 57Z" fill="#404040"/>
<path d="M55.9583 57H51.7917C51.5154 57 51.2504 56.8902 51.0551 56.6949C50.8597 56.4995 50.75 56.2346 50.75 55.9583C50.75 55.6821 50.8597 55.4171 51.0551 55.2217C51.2504 55.0264 51.5154 54.9167 51.7917 54.9167H54.9167V50.75C54.9167 50.4737 55.0264 50.2088 55.2218 50.0134C55.4171 49.8181 55.6821 49.7083 55.9583 49.7083C56.2346 49.7083 56.4996 49.8181 56.6949 50.0134C56.8903 50.2088 57 50.4737 57 50.75V55.9583C57 56.2346 56.8903 56.4995 56.6949 56.6949C56.4996 56.8902 56.2346 57 55.9583 57Z" fill="#404040"/>
<path d="M30.9583 41.375H8.04167C7.7654 41.375 7.50045 41.2652 7.3051 41.0699C7.10975 40.8745 7 40.6096 7 40.3333V16.375C7 16.0987 7.10975 15.8338 7.3051 15.6384C7.50045 15.4431 7.7654 15.3333 8.04167 15.3333H45.5417C45.8179 15.3333 46.0829 15.4431 46.2782 15.6384C46.4736 15.8338 46.5833 16.0987 46.5833 16.375V25.75C46.5833 26.0263 46.4736 26.2912 46.2782 26.4865C46.0829 26.6819 45.8179 26.7917 45.5417 26.7917C45.2654 26.7917 45.0004 26.6819 44.8051 26.4865C44.6097 26.2912 44.5 26.0263 44.5 25.75V17.4167H9.08333V39.2917H30.9583C31.2346 39.2917 31.4995 39.4014 31.6949 39.5967C31.8902 39.7921 32 40.0571 32 40.3333C32 40.6096 31.8902 40.8745 31.6949 41.0699C31.4995 41.2652 31.2346 41.375 30.9583 41.375Z" fill="#404040"/>
<path d="M24.7083 36.1667C24.4321 36.1667 24.1671 36.0569 23.9718 35.8615C23.7764 35.6662 23.6667 35.4013 23.6667 35.125V33.0417C23.5313 32.5104 21.375 30.9583 19.5 30.9583C17.625 30.9583 15.4792 32.5 15.3333 33.0417V35.0729C15.3333 35.3492 15.2236 35.6141 15.0282 35.8095C14.8329 36.0048 14.5679 36.1146 14.2917 36.1146C14.0154 36.1146 13.7504 36.0048 13.5551 35.8095C13.3597 35.6141 13.25 35.3492 13.25 35.0729V32.9896C13.25 30.9062 16.8958 28.8229 19.5 28.8229C22.1042 28.8229 25.75 30.9062 25.75 32.9896V35.0729C25.7571 35.214 25.7353 35.3551 25.6862 35.4875C25.637 35.62 25.5614 35.7411 25.4639 35.8434C25.3665 35.9457 25.2493 36.0271 25.1194 36.0827C24.9895 36.1382 24.8496 36.1668 24.7083 36.1667V36.1667Z" fill="#404040"/>
<path d="M19.5001 30.9167C18.9207 30.9012 18.3505 30.7686 17.8238 30.5268C17.2971 30.285 16.8248 29.9391 16.4355 29.5098C16.0461 29.0805 15.7477 28.5768 15.5583 28.0291C15.3689 27.4814 15.2924 26.901 15.3334 26.3229V25.1354C15.3334 24.0303 15.7724 22.9705 16.5538 22.1891C17.3352 21.4077 18.395 20.9688 19.5001 20.9688C20.6051 20.9688 21.6649 21.4077 22.4463 22.1891C23.2277 22.9705 23.6667 24.0303 23.6667 25.1354V26.3229C23.7077 26.901 23.6312 27.4814 23.4418 28.0291C23.2524 28.5768 22.954 29.0805 22.5646 29.5098C22.1753 29.9391 21.703 30.285 21.1763 30.5268C20.6496 30.7686 20.0794 30.9012 19.5001 30.9167V30.9167ZM19.5001 22.5833C19.1956 22.6038 18.8985 22.686 18.6268 22.8249C18.355 22.9638 18.1144 23.1565 17.9196 23.3914C17.7247 23.6262 17.5796 23.8982 17.4932 24.1909C17.4067 24.4835 17.3807 24.7907 17.4167 25.0937V26.2812C17.4167 26.8338 17.6362 27.3637 18.0269 27.7544C18.4176 28.1451 18.9475 28.3646 19.5001 28.3646C20.0526 28.3646 20.5825 28.1451 20.9732 27.7544C21.3639 27.3637 21.5834 26.8338 21.5834 26.2812V25.0937C21.6149 24.7937 21.5854 24.4904 21.4968 24.202C21.4082 23.9136 21.2622 23.6461 21.0676 23.4156C20.8731 23.185 20.6339 22.9961 20.3645 22.8603C20.0952 22.7244 19.8011 22.6444 19.5001 22.625V22.5833Z" fill="#404040"/>
<path d="M40.3333 23.6667H30.9583C30.682 23.6667 30.4171 23.5569 30.2217 23.3615C30.0264 23.1662 29.9166 22.9013 29.9166 22.625C29.9166 22.3487 30.0264 22.0838 30.2217 21.8884C30.4171 21.6931 30.682 21.5833 30.9583 21.5833H40.3333C40.6096 21.5833 40.8745 21.6931 41.0699 21.8884C41.2652 22.0838 41.375 22.3487 41.375 22.625C41.375 22.9013 41.2652 23.1662 41.0699 23.3615C40.8745 23.5569 40.6096 23.6667 40.3333 23.6667Z" fill="#404040"/>
<path d="M30.9583 17.4167C30.682 17.4167 30.4171 17.3069 30.2217 17.1116C30.0264 16.9162 29.9166 16.6513 29.9166 16.375V9.08333H25.75V16.375C25.75 16.6513 25.6402 16.9162 25.4449 17.1116C25.2495 17.3069 24.9846 17.4167 24.7083 17.4167C24.432 17.4167 24.1671 17.3069 23.9717 17.1116C23.7764 16.9162 23.6666 16.6513 23.6666 16.375V9.08333C23.6666 8.5308 23.8861 8.00089 24.2768 7.61019C24.6675 7.21949 25.1974 7 25.75 7H29.9166C30.4692 7 30.9991 7.21949 31.3898 7.61019C31.7805 8.00089 32 8.5308 32 9.08333V16.375C32 16.6513 31.8902 16.9162 31.6949 17.1116C31.4995 17.3069 31.2346 17.4167 30.9583 17.4167Z" fill="#404040"/>
</svg>
