<svg width="64" height="64" viewBox="0 0 64 64" fill="none" xmlns="http://www.w3.org/2000/svg">
<path d="M31.8297 56.9919C31.7398 57.002 31.6489 57.002 31.559 56.9919C30.455 56.7003 11 46.4 11 36.1622V16.3739C11 16.0977 11.1097 15.8328 11.305 15.6375C11.5004 15.4422 11.7653 15.3324 12.0415 15.3324C16.7907 15.3324 29.3302 9.80216 30.9966 7.43798C31.0928 7.30256 31.2201 7.19214 31.3678 7.11595C31.5155 7.03975 31.6792 7 31.8454 7C32.0115 7 32.1753 7.03975 32.3229 7.11595C32.4706 7.19214 32.5979 7.30256 32.6942 7.43798C34.3085 9.72925 46.3064 15.3324 51.618 15.3324C51.8942 15.3324 52.1591 15.4422 52.3544 15.6375C52.5498 15.8328 52.6595 16.0977 52.6595 16.3739V37.2036C52.6595 45.6397 33.017 56.7003 32.1005 56.9919C32.0106 57.0027 31.9197 57.0027 31.8297 56.9919ZM13.083 17.4154V36.2246C13.083 44.0358 28.7053 53.5134 31.8297 54.8777C34.5376 53.5759 50.5765 43.6504 50.5765 37.2661V17.4779C45.015 16.9467 35.1833 12.5933 31.8297 9.65635C28.4033 12.5309 18.2383 16.8009 13.083 17.3633V17.4154Z" fill="#404040"/>
<path d="M44.3276 41.38H19.3319C19.0557 41.38 18.7908 41.2703 18.5954 41.075C18.4001 40.8797 18.2904 40.6148 18.2904 40.3385V20.5503C18.2904 20.2741 18.4001 20.0092 18.5954 19.8138C18.7908 19.6185 19.0557 19.5088 19.3319 19.5088H44.3276C44.6038 19.5088 44.8687 19.6185 45.064 19.8138C45.2593 20.0092 45.3691 20.2741 45.3691 20.5503V40.3385C45.3691 40.6148 45.2593 40.8797 45.064 41.075C44.8687 41.2703 44.6038 41.38 44.3276 41.38ZM20.3734 39.297H43.2861V21.5918H20.3734V39.297Z" fill="#FA4616"/>
<path d="M23.4979 22.6332H21.4149V24.7162H23.4979V22.6332Z" fill="#FA4616"/>
<path d="M26.6223 22.6332H24.5393V24.7162H26.6223V22.6332Z" fill="#FA4616"/>
<path d="M44.3276 25.7577H19.3319V27.8407H44.3276V25.7577Z" fill="#FA4616"/>
</svg>
