<svg width="64" height="64" viewBox="0 0 64 64" fill="none" xmlns="http://www.w3.org/2000/svg">
<path d="M22.6186 20.4948C21.9286 20.518 21.2413 20.3992 20.5991 20.1458C19.957 19.8924 19.3738 19.5097 18.8856 19.0216C18.3975 18.5334 18.0148 17.9502 17.7614 17.3081C17.508 16.6659 17.3892 15.9786 17.4124 15.2886V13.2062C17.4124 11.8254 17.9609 10.5012 18.9373 9.52484C19.9136 8.5485 21.2378 8 22.6186 8C23.9993 8 25.3235 8.5485 26.2999 9.52484C27.2762 10.5012 27.8247 11.8254 27.8247 13.2062V15.2886C27.8495 15.979 27.7317 16.667 27.4789 17.3099C27.226 17.9527 26.8434 18.5365 26.355 19.025C25.8665 19.5135 25.2826 19.8961 24.6398 20.1489C23.9969 20.4018 23.3089 20.5195 22.6186 20.4948ZM22.6186 10.0825C22.202 10.0583 21.7851 10.1225 21.3951 10.2709C21.0052 10.4193 20.6511 10.6486 20.356 10.9436C20.061 11.2386 19.8317 11.5928 19.6833 11.9827C19.5349 12.3727 19.4706 12.7896 19.4949 13.2062V15.2886C19.4949 16.1171 19.824 16.9116 20.4098 17.4974C20.9956 18.0832 21.7901 18.4123 22.6186 18.4123C23.447 18.4123 24.2416 18.0832 24.8274 17.4974C25.4132 16.9116 25.7422 16.1171 25.7422 15.2886V13.2062C25.7681 12.7892 25.7051 12.3715 25.5573 11.9808C25.4095 11.5901 25.1803 11.2352 24.8849 10.9399C24.5895 10.6445 24.2346 10.4153 23.8439 10.2674C23.4532 10.1196 23.0355 10.0566 22.6186 10.0825V10.0825Z" fill="#404040"/>
<path d="M18.4536 29.8659H16.3711V40.2782H18.4536V29.8659Z" fill="#404040"/>
<path d="M18.4536 49.6493H16.3711V56.9379H18.4536V49.6493Z" fill="#404040"/>
<path d="M24.7009 41.3194H22.6184V56.9379H24.7009V41.3194Z" fill="#404040"/>
<path d="M19.4948 50.6905H8.04123C7.76508 50.6905 7.50025 50.5808 7.30498 50.3855C7.10972 50.1902 7 49.9254 7 49.6493V40.2782C7 40.002 7.10972 39.7372 7.30498 39.5419C7.50025 39.3466 7.76508 39.2369 8.04123 39.2369H19.4948C19.7709 39.2369 20.0358 39.3466 20.2311 39.5419C20.4263 39.7372 20.536 40.002 20.536 40.2782V49.6493C20.536 49.9254 20.4263 50.1902 20.2311 50.3855C20.0358 50.5808 19.7709 50.6905 19.4948 50.6905ZM9.08246 48.608H18.4535V41.3194H9.08246V48.608Z" fill="#404040"/>
<path d="M28.8659 29.8659H26.7834V56.9379H28.8659V29.8659Z" fill="#404040"/>
<path d="M28.8658 42.3606H27.8245V40.2782H28.8658C30.6775 40.2782 30.9482 38.3207 30.9482 37.1545V28.8246C30.9482 26.0029 27.1373 23.6185 22.6184 23.6185C18.0994 23.6185 14.2885 26.0029 14.2885 28.8246V40.2782H12.2061V28.8246C12.2061 24.7326 16.7875 21.536 22.6184 21.536C28.4493 21.536 33.0307 24.7326 33.0307 28.8246V37.1545C33.0307 40.3615 31.4376 42.3606 28.8658 42.3606Z" fill="#404040"/>
<path d="M40.3195 52.7729C40.233 52.7831 40.1457 52.7831 40.0592 52.7729C36.636 51.2338 33.4096 49.2902 30.4486 46.9837L31.7189 45.3386C34.4077 47.3928 37.296 49.1718 40.3403 50.6488C42.8914 49.5555 54.9176 42.8084 54.9176 37.1857V22.6085C49.7149 21.6272 44.7596 19.6203 40.3403 16.7047C37.2438 18.7652 33.8716 20.3777 30.3237 21.4943L29.6781 19.516C34.0617 18.0895 38.4245 15.778 39.6115 14.6014C39.8065 14.4075 40.0705 14.2986 40.3455 14.2986C40.6206 14.2986 40.8845 14.4075 41.0796 14.6014C42.756 16.2882 50.9192 20.224 56.0421 20.6405C56.3036 20.6615 56.5475 20.7804 56.7251 20.9735C56.9027 21.1665 57.0009 21.4195 57 21.6818V37.2065C57 44.9949 41.6419 52.5126 40.611 52.825C40.5121 52.8198 40.4141 52.8023 40.3195 52.7729Z" fill="#FA4616"/>
<path d="M40.3194 47.5668C40.2399 47.5769 40.1595 47.5769 40.08 47.5668C37.7336 46.4683 35.5162 45.1134 33.4681 43.5268L34.7176 41.8608C36.4941 43.1986 38.3743 44.3928 40.3403 45.4323C42.4227 44.391 50.7526 39.2682 50.7526 35.9362V26.5651C47.1195 25.7818 43.6145 24.492 40.3403 22.7334C38.4502 23.7519 36.479 24.6122 34.4469 25.3052L33.7597 23.3477C35.8408 22.6563 37.8467 21.7563 39.7468 20.6613C39.9211 20.5404 40.1281 20.4756 40.3403 20.4756C40.5524 20.4756 40.7595 20.5404 40.9338 20.6613C44.3604 22.5818 48.0781 23.9288 51.9396 24.6493C52.1898 24.6846 52.4185 24.8098 52.5833 25.0013C52.748 25.1929 52.8375 25.4378 52.8351 25.6905V35.8946C52.8351 41.3194 41.1732 47.3481 40.5797 47.5251C40.4955 47.5519 40.4078 47.566 40.3194 47.5668Z" fill="#FA4616"/>
</svg>
