<svg width="64" height="64" viewBox="0 0 64 64" fill="none" xmlns="http://www.w3.org/2000/svg">
<path d="M32 55.875C29.3218 55.875 26.7036 55.0807 24.4767 53.5928C22.2498 52.1048 20.5141 49.9899 19.4892 47.5154C18.4642 45.041 18.1961 42.3183 18.7186 39.6914C19.2411 37.0646 20.5308 34.6517 22.4246 32.7579C24.3185 30.8641 26.7314 29.5743 29.3582 29.0518C31.985 28.5293 34.7078 28.7975 37.1822 29.8224C39.6566 30.8474 41.7716 32.583 43.2595 34.81C44.7475 37.0369 45.5417 39.655 45.5417 42.3333C45.5417 45.9248 44.115 49.3691 41.5755 51.9087C39.0359 54.4483 35.5915 55.875 32 55.875V55.875ZM32 30.875C29.7338 30.875 27.5185 31.547 25.6341 32.806C23.7498 34.0651 22.2812 35.8546 21.4139 37.9484C20.5467 40.0421 20.3198 42.346 20.7619 44.5687C21.204 46.7914 22.2953 48.8331 23.8978 50.4355C25.5003 52.038 27.5419 53.1293 29.7646 53.5715C31.9873 54.0136 34.2912 53.7867 36.385 52.9194C38.4787 52.0522 40.2682 50.5835 41.5273 48.6992C42.7864 46.8149 43.4584 44.5996 43.4584 42.3333C43.4584 39.2944 42.2512 36.3799 40.1023 34.231C37.9535 32.0822 35.039 30.875 32 30.875Z" fill="#FA4616"/>
<path d="M19.5 22.5417C19.2238 22.5417 18.9588 22.4319 18.7635 22.2366C18.5681 22.0412 18.4584 21.7763 18.4584 21.5V16.2917H20.5417V19.8229L23.2084 18.4896L24.1355 20.3541L19.9688 22.4375C19.8228 22.5082 19.6623 22.5439 19.5 22.5417V22.5417Z" fill="#404040"/>
<path d="M15.7898 18.541L14.8579 20.4043L19.0224 22.487L19.9542 20.6237L15.7898 18.541Z" fill="#404040"/>
<path d="M21.8959 25.3645L19.5 22.9791L17.1146 25.3645L15.6459 23.8958L18.7709 20.7708C18.966 20.5768 19.2301 20.4679 19.5052 20.4679C19.7804 20.4679 20.0445 20.5768 20.2396 20.7708L23.3646 23.8958L21.8959 25.3645Z" fill="#404040"/>
<path d="M31.9999 22.5417C31.7237 22.5417 31.4587 22.4319 31.2633 22.2366C31.068 22.0412 30.9583 21.7763 30.9583 21.5V16.2917H33.0416V19.8229L35.7082 18.4896L36.6353 20.3541L32.4687 22.4375C32.3227 22.5082 32.1621 22.5439 31.9999 22.5417V22.5417Z" fill="#404040"/>
<path d="M28.2873 18.5382L27.3555 20.4015L31.5199 22.4842L32.4518 20.6209L28.2873 18.5382Z" fill="#404040"/>
<path d="M34.3959 25.3645L32 22.9791L29.6146 25.3645L28.1459 23.8958L31.2709 20.7708C31.466 20.5768 31.7301 20.4679 32.0052 20.4679C32.2804 20.4679 32.5445 20.5768 32.7396 20.7708L35.8646 23.8958L34.3959 25.3645Z" fill="#404040"/>
<path d="M44.5 22.5417C44.2238 22.5417 43.9588 22.4319 43.7635 22.2366C43.5681 22.0412 43.4584 21.7763 43.4584 21.5V16.2917H45.5417V19.8229L48.2084 18.4896L49.1355 20.3541L44.9688 22.4375C44.8228 22.5082 44.6623 22.5439 44.5 22.5417V22.5417Z" fill="#404040"/>
<path d="M40.7846 18.5354L39.8528 20.3987L44.0173 22.4814L44.9491 20.6181L40.7846 18.5354Z" fill="#404040"/>
<path d="M46.8959 25.3645L44.5 22.9791L42.1146 25.3645L40.6459 23.8958L43.7709 20.7708C43.966 20.5768 44.2301 20.4679 44.5053 20.4679C44.7804 20.4679 45.0445 20.5768 45.2396 20.7708L48.3646 23.8958L46.8959 25.3645Z" fill="#404040"/>
<path d="M53.875 35.0417H45.5417V32.9583H53.875C54.1513 32.9583 54.4162 32.8486 54.6116 32.6532C54.8069 32.4579 54.9167 32.1929 54.9167 31.9167V12.125C54.9167 11.8487 54.8069 11.5838 54.6116 11.3884C54.4162 11.1931 54.1513 11.0833 53.875 11.0833H10.125C9.84873 11.0833 9.58378 11.1931 9.38843 11.3884C9.19308 11.5838 9.08333 11.8487 9.08333 12.125V31.9167C9.08333 32.1929 9.19308 32.4579 9.38843 32.6532C9.58378 32.8486 9.84873 32.9583 10.125 32.9583H18.4583V35.0417H10.125C9.2962 35.0417 8.50134 34.7124 7.91529 34.1264C7.32924 33.5403 7 32.7455 7 31.9167V12.125C7 11.2962 7.32924 10.5013 7.91529 9.91527C8.50134 9.32922 9.2962 9 10.125 9H53.875C54.7038 9 55.4987 9.32922 56.0847 9.91527C56.6708 10.5013 57 11.2962 57 12.125V31.9167C57 32.7455 56.6708 33.5403 56.0847 34.1264C55.4987 34.7124 54.7038 35.0417 53.875 35.0417Z" fill="#404040"/>
<path d="M29.9896 48.5833C29.7142 48.5877 29.4483 48.4828 29.25 48.2916L25.0209 44.125L26.4896 42.6354L29.8855 45.9896L37.4375 36.4792L39.073 37.7813L30.8021 48.1979C30.7109 48.3109 30.597 48.4035 30.4679 48.4699C30.3387 48.5363 30.1971 48.5749 30.0521 48.5833H29.9896Z" fill="#FA4616"/>
</svg>
