<svg width="64" height="64" viewBox="0 0 64 64" fill="none" xmlns="http://www.w3.org/2000/svg">
<path d="M39.9787 54.7447C39.6966 54.7447 39.426 54.6326 39.2265 54.4331C39.027 54.2336 38.9149 53.963 38.9149 53.6808V51.1702C38.9149 49.3298 36.149 48.3617 34.6596 48.3617C33.1702 48.3617 30.4043 49.3298 30.4043 51.1702V53.6808C30.4043 53.963 30.2922 54.2336 30.0927 54.4331C29.8932 54.6326 29.6226 54.7447 29.3404 54.7447C29.0583 54.7447 28.7877 54.6326 28.5882 54.4331C28.3887 54.2336 28.2766 53.963 28.2766 53.6808V51.1702C28.2766 47.9787 31.9787 46.234 34.6596 46.234C37.3404 46.234 41.0426 47.9574 41.0426 51.1702V53.6808C41.0426 53.963 40.9305 54.2336 40.731 54.4331C40.5315 54.6326 40.2609 54.7447 39.9787 54.7447Z" fill="#404040"/>
<path d="M34.6594 48.3617C34.1098 48.3953 33.5592 48.3154 33.0418 48.1269C32.5245 47.9385 32.0514 47.6455 31.6522 47.2662C31.253 46.887 30.9362 46.4296 30.7215 45.9226C30.5067 45.4156 30.3987 44.8697 30.4041 44.3191V42.8298C30.4041 41.7012 30.8524 40.6188 31.6505 39.8208C32.4485 39.0228 33.5309 38.5744 34.6594 38.5744C35.788 38.5744 36.8704 39.0228 37.6684 39.8208C38.4664 40.6188 38.9148 41.7012 38.9148 42.8298V44.2979C38.9231 44.8502 38.8173 45.3984 38.6038 45.908C38.3904 46.4175 38.074 46.8775 37.6745 47.259C37.275 47.6405 36.801 47.9354 36.2821 48.1252C35.7633 48.3149 35.2109 48.3955 34.6594 48.3617V48.3617ZM34.6594 40.9149C34.3904 40.8831 34.1176 40.9091 33.8594 40.9911C33.6012 41.0731 33.3634 41.2093 33.162 41.3905C32.9606 41.5718 32.8002 41.7939 32.6915 42.0421C32.5828 42.2903 32.5284 42.5588 32.5318 42.8298V44.2979C32.5318 44.8621 32.7559 45.4033 33.155 45.8023C33.554 46.2014 34.0952 46.4255 34.6594 46.4255C35.2237 46.4255 35.7649 46.2014 36.1639 45.8023C36.5629 45.4033 36.7871 44.8621 36.7871 44.2979V42.8085C36.7875 42.5394 36.7307 42.2732 36.6207 42.0276C36.5107 41.782 36.3499 41.5625 36.1488 41.3835C35.9478 41.2046 35.7111 41.0703 35.4544 40.9895C35.1976 40.9087 34.9267 40.8833 34.6594 40.9149Z" fill="#404040"/>
<path d="M25.0851 47.6808C24.743 47.6815 24.4058 47.5996 24.1021 47.4422C23.7984 47.2848 23.5371 47.0565 23.3404 46.7766L19.2127 40.9149H16.5744C15.728 40.9149 14.9162 40.5786 14.3177 39.9801C13.7192 39.3816 13.3829 38.5698 13.3829 37.7234V18.5745C13.3829 17.728 13.7192 16.9162 14.3177 16.3177C14.9162 15.7192 15.728 15.383 16.5744 15.383H48.4893C49.3358 15.383 50.1475 15.7192 50.746 16.3177C51.3446 16.9162 51.6808 17.728 51.6808 18.5745V37.7234C51.6808 38.5698 51.3446 39.3816 50.746 39.9801C50.1475 40.5786 49.3358 40.9149 48.4893 40.9149H41.0425C40.7604 40.9149 40.4898 40.8028 40.2903 40.6033C40.0908 40.4038 39.9787 40.1332 39.9787 39.8511C39.9787 39.5689 40.0908 39.2983 40.2903 39.0988C40.4898 38.8993 40.7604 38.7872 41.0425 38.7872H48.4893C48.7715 38.7872 49.0421 38.6751 49.2416 38.4756C49.4411 38.2761 49.5532 38.0056 49.5532 37.7234V18.5745C49.5532 18.2923 49.4411 18.0217 49.2416 17.8222C49.0421 17.6227 48.7715 17.5106 48.4893 17.5106H16.5744C16.2923 17.5106 16.0217 17.6227 15.8222 17.8222C15.6227 18.0217 15.5106 18.2923 15.5106 18.5745V37.7234C15.5106 38.0056 15.6227 38.2761 15.8222 38.4756C16.0217 38.6751 16.2923 38.7872 16.5744 38.7872H20.3191L25.0851 45.5426V38.7872H28.2766C28.5587 38.7872 28.8293 38.8993 29.0288 39.0988C29.2283 39.2983 29.3404 39.5689 29.3404 39.8511C29.3404 40.1332 29.2283 40.4038 29.0288 40.6033C28.8293 40.8028 28.5587 40.9149 28.2766 40.9149H27.2127V45.5426C27.2132 45.9957 27.069 46.4372 26.8011 46.8026C26.5332 47.1681 26.1556 47.4385 25.7234 47.5745C25.5169 47.6408 25.3019 47.6767 25.0851 47.6808Z" fill="#404040"/>
<path d="M33.6277 35.6064C33.1146 35.6451 32.6035 35.5097 32.1769 35.2221C31.7503 34.9345 31.4331 34.5114 31.2766 34.0213L29.2979 26.3404C29.089 26.2601 28.8578 26.2601 28.6489 26.3404L26.8617 30.7234C26.6861 31.0669 26.428 31.3614 26.1105 31.5805C25.793 31.7996 25.426 31.9365 25.0426 31.9787C24.6272 32.0498 24.2009 32.0223 23.7981 31.8985C23.3953 31.7747 23.0272 31.558 22.7234 31.266L22.617 31.1383C22.617 31.1383 21.7234 29.8617 21.234 29.117C20.8511 28.5426 19.8192 28.4894 18.7021 28.4894C18.42 28.4894 18.1494 28.3773 17.9499 28.1778C17.7504 27.9783 17.6383 27.7077 17.6383 27.4255C17.6383 27.1434 17.7504 26.8728 17.9499 26.6733C18.1494 26.4738 18.42 26.3617 18.7021 26.3617C19.9255 26.3617 21.9681 26.3617 22.9575 27.9468C23.3511 28.5532 24.0213 29.5106 24.2341 29.8192C24.3364 29.864 24.4468 29.8871 24.5585 29.8871C24.6702 29.8871 24.7807 29.864 24.883 29.8192L26.6702 25.4468C26.9151 24.9899 27.2977 24.6218 27.7636 24.3945C28.2295 24.1673 28.7552 24.0925 29.266 24.1808C29.7215 24.2012 30.1597 24.3612 30.5213 24.639C30.8829 24.9169 31.1503 25.2991 31.2873 25.734L33.266 33.4149C33.4685 33.4898 33.6911 33.4898 33.8936 33.4149L36.0213 22.3191C36.193 21.8294 36.511 21.4043 36.9323 21.1013C37.3535 20.7983 37.8578 20.6321 38.3766 20.6251C38.8955 20.6182 39.404 20.7708 39.8333 21.0624C40.2625 21.3539 40.5918 21.7704 40.7766 22.2553L42.6596 30.4468C42.7637 30.4919 42.8759 30.5152 42.9894 30.5152C43.1028 30.5152 43.2151 30.4919 43.3192 30.4468L45.3404 24.5106C45.4395 24.2537 45.6343 24.0452 45.884 23.9289C46.1336 23.8127 46.4186 23.7978 46.679 23.8874C46.9394 23.9769 47.155 24.1639 47.2803 24.4091C47.4056 24.6543 47.431 24.9386 47.3511 25.2021L45.2872 31.2128C45.0871 31.6896 44.7366 32.088 44.2891 32.3472C43.8417 32.6065 43.3217 32.7124 42.8085 32.6489C42.3133 32.6598 41.8283 32.5073 41.4283 32.2151C41.0284 31.9228 40.7358 31.507 40.5958 31.0319L38.7234 22.8298C38.519 22.7667 38.3002 22.7667 38.0958 22.8298L35.9681 33.9362C35.8428 34.4371 35.5471 34.8788 35.1317 35.1855C34.7163 35.4922 34.2071 35.6448 33.6915 35.617L33.6277 35.6064Z" fill="#FA4616"/>
<path d="M8.06383 16.4468C7.78168 16.4468 7.51109 16.3347 7.31159 16.1352C7.11208 15.9357 7 15.6651 7 15.383V10.0638C7 9.78168 7.11208 9.51108 7.31159 9.31157C7.51109 9.11206 7.78168 9 8.06383 9H12.3191C12.6013 9 12.8719 9.11206 13.0714 9.31157C13.2709 9.51108 13.383 9.78168 13.383 10.0638C13.383 10.346 13.2709 10.6165 13.0714 10.8161C12.8719 11.0156 12.6013 11.1277 12.3191 11.1277H9.12766V15.383C9.12766 15.6651 9.01558 15.9357 8.81607 16.1352C8.61657 16.3347 8.34597 16.4468 8.06383 16.4468Z" fill="#404040"/>
<path d="M12.3191 46.234H8.06383C7.78168 46.234 7.51109 46.1219 7.31159 45.9224C7.11208 45.7229 7 45.4524 7 45.1702V39.8511C7 39.5689 7.11208 39.2983 7.31159 39.0988C7.51109 38.8993 7.78168 38.7872 8.06383 38.7872C8.34597 38.7872 8.61657 38.8993 8.81607 39.0988C9.01558 39.2983 9.12766 39.5689 9.12766 39.8511V44.1064H12.3191C12.6013 44.1064 12.8719 44.2184 13.0714 44.418C13.2709 44.6175 13.383 44.8881 13.383 45.1702C13.383 45.4524 13.2709 45.7229 13.0714 45.9224C12.8719 46.1219 12.6013 46.234 12.3191 46.234Z" fill="#404040"/>
<path d="M55.9362 16.4468C55.6541 16.4468 55.3835 16.3347 55.184 16.1352C54.9845 15.9357 54.8724 15.6651 54.8724 15.383V11.1277H51.6809C51.3987 11.1277 51.1282 11.0156 50.9287 10.8161C50.7291 10.6165 50.6171 10.346 50.6171 10.0638C50.6171 9.78168 50.7291 9.51108 50.9287 9.31157C51.1282 9.11206 51.3987 9 51.6809 9H55.9362C56.2184 9 56.4889 9.11206 56.6885 9.31157C56.888 9.51108 57 9.78168 57 10.0638V15.383C57 15.6651 56.888 15.9357 56.6885 16.1352C56.4889 16.3347 56.2184 16.4468 55.9362 16.4468Z" fill="#404040"/>
<path d="M55.9362 46.234H51.6809C51.3987 46.234 51.1282 46.1219 50.9287 45.9224C50.7291 45.7229 50.6171 45.4524 50.6171 45.1702C50.6171 44.8881 50.7291 44.6175 50.9287 44.418C51.1282 44.2184 51.3987 44.1064 51.6809 44.1064H54.8724V39.8511C54.8724 39.5689 54.9845 39.2983 55.184 39.0988C55.3835 38.8993 55.6541 38.7872 55.9362 38.7872C56.2184 38.7872 56.4889 38.8993 56.6885 39.0988C56.888 39.2983 57 39.5689 57 39.8511V45.1702C57 45.4524 56.888 45.7229 56.6885 45.9224C56.4889 46.1219 56.2184 46.234 55.9362 46.234Z" fill="#404040"/>
</svg>
