<svg width="64" height="64" viewBox="0 0 64 64" fill="none" xmlns="http://www.w3.org/2000/svg">
<path d="M43.4474 35.1354C43.217 35.1338 42.9884 35.0951 42.7703 35.0208C42.3546 34.8829 41.9929 34.6173 41.7367 34.262C41.4806 33.9067 41.3429 33.4797 41.3433 33.0417V28.875H39.2599V26.7917H43.4266V33.0417L48.1141 26.7917H53.8433C54.1195 26.7917 54.3845 26.6819 54.5798 26.4866C54.7752 26.2912 54.8849 26.0263 54.8849 25.75V10.125C54.8849 9.84873 54.7752 9.58378 54.5798 9.38843C54.3845 9.19308 54.1195 9.08333 53.8433 9.08333H25.7183C25.442 9.08333 25.177 9.19308 24.9817 9.38843C24.7863 9.58378 24.6766 9.84873 24.6766 10.125V17.4167H22.5933V10.125C22.5933 9.2962 22.9225 8.50135 23.5085 7.9153C24.0946 7.32925 24.8895 7 25.7183 7H53.8433C54.6721 7 55.4669 7.32925 56.053 7.9153C56.639 8.50135 56.9683 9.2962 56.9683 10.125V25.75C56.9683 26.5788 56.639 27.3737 56.053 27.9597C55.4669 28.5458 54.6721 28.875 53.8433 28.875H49.1558L45.0933 34.2917C44.9024 34.5495 44.6546 34.7598 44.3691 34.9062C44.0836 35.0526 43.7682 35.131 43.4474 35.1354Z" fill="#FA4616"/>
<path d="M28.885 46.5833H26.8017V35.7812L33.2496 28.2708L35.0517 25.2292C35.2745 24.3679 35.1822 23.4554 34.7912 22.6562C34.6881 22.4356 34.5624 22.2261 34.4163 22.0312L31.7079 26.4896L27.5412 30.6562C26.4964 31.5384 25.1691 32.0153 23.8017 32H21.4475C20.0752 32.0149 18.7436 31.5341 17.6975 30.6458L13.385 26.2917L10.8329 22.0312C10.6867 22.2261 10.5611 22.4356 10.4579 22.6562C10.067 23.4554 9.97464 24.3679 10.1975 25.2292L12.01 28.2708L18.4475 35.7812V38.25H16.3642V36.5521L10.26 29.4062L8.29124 26.0729C7.82187 24.6604 7.92281 23.1204 8.57251 21.7812C8.77709 21.2767 9.08197 20.819 9.46874 20.4358C9.8555 20.0526 10.3161 19.752 10.8225 19.5521L11.6142 19.2917L15.1037 25.1042L19.1871 29.1771C19.8378 29.6672 20.6329 29.9273 21.4475 29.9167H23.7808C24.5887 29.9257 25.3778 29.6736 26.0308 29.1979L30.1246 25.1042L33.6141 19.2917L34.4058 19.5521C34.9122 19.752 35.3728 20.0526 35.7596 20.4358C36.1463 20.819 36.4512 21.2767 36.6558 21.7812C37.311 23.119 37.4121 24.6611 36.9371 26.0729L36.8641 26.2187L34.8642 29.5521L28.8642 36.5521L28.885 46.5833Z" fill="#404040"/>
<path d="M22.6349 28.8958C22.0847 28.9072 21.5377 28.8071 21.0271 28.6018C20.5164 28.3964 20.0526 28.0899 19.6634 27.7007C19.2742 27.3115 18.9677 26.8476 18.7623 26.337C18.5569 25.8263 18.4569 25.2794 18.4683 24.7291V23.6875C18.4683 22.5824 18.9073 21.5226 19.6887 20.7412C20.4701 19.9598 21.5299 19.5208 22.6349 19.5208C23.74 19.5208 24.7998 19.9598 25.5812 20.7412C26.3626 21.5226 26.8016 22.5824 26.8016 23.6875V24.7291C26.813 25.2794 26.7129 25.8263 26.5076 26.337C26.3022 26.8476 25.9957 27.3115 25.6065 27.7007C25.2173 28.0899 24.7534 28.3964 24.2428 28.6018C23.7321 28.8071 23.1852 28.9072 22.6349 28.8958ZM22.6349 21.6041C22.3582 21.5924 22.082 21.6382 21.8239 21.7387C21.5658 21.8392 21.3314 21.9923 21.1356 22.1881C20.9397 22.384 20.7867 22.6184 20.6861 22.8765C20.5856 23.1346 20.5398 23.4107 20.5516 23.6875V24.7291C20.5516 25.2817 20.7711 25.8116 21.1618 26.2023C21.5525 26.593 22.0824 26.8125 22.6349 26.8125C23.1875 26.8125 23.7174 26.593 24.1081 26.2023C24.4988 25.8116 24.7183 25.2817 24.7183 24.7291V23.6875C24.7331 23.409 24.6894 23.1306 24.5903 22.87C24.4911 22.6094 24.3385 22.3724 24.1423 22.1743C23.9461 21.9762 23.7107 21.8212 23.4511 21.7194C23.1915 21.6177 22.9135 21.5713 22.6349 21.5833V21.6041Z" fill="#404040"/>
<path d="M36.1766 45.5625C35.6263 45.5738 35.0794 45.4738 34.5687 45.2685C34.0581 45.0631 33.5942 44.7566 33.205 44.3674C32.8158 43.9782 32.5093 43.5143 32.3039 43.0037C32.0985 42.493 31.9986 41.9461 32.0099 41.3958V40.3542C32.0099 39.2491 32.4489 38.1893 33.2303 37.4079C34.0117 36.6265 35.0715 36.1875 36.1766 36.1875C37.2816 36.1875 38.3414 36.6265 39.1228 37.4079C39.9042 38.1893 40.3432 39.2491 40.3432 40.3542V41.3958C40.3546 41.9461 40.2546 42.493 40.0492 43.0037C39.8438 43.5143 39.5373 43.9782 39.1481 44.3674C38.7589 44.7566 38.2951 45.0631 37.7844 45.2685C37.2737 45.4738 36.7269 45.5738 36.1766 45.5625V45.5625ZM36.1766 38.2708C35.8998 38.259 35.6237 38.3049 35.3656 38.4054C35.1075 38.5059 34.8731 38.6589 34.6772 38.8548C34.4813 39.0507 34.3283 39.2851 34.2278 39.5432C34.1272 39.8013 34.0814 40.0774 34.0932 40.3542V41.3958C34.0932 41.9484 34.3127 42.4783 34.7034 42.869C35.0941 43.2597 35.624 43.4792 36.1766 43.4792C36.7291 43.4792 37.259 43.2597 37.6497 42.869C38.0404 42.4783 38.2599 41.9484 38.2599 41.3958V40.3542C38.2747 40.0757 38.2311 39.7973 38.1319 39.5367C38.0327 39.2761 37.8801 39.0391 37.6839 38.841C37.4878 38.6428 37.2523 38.4879 36.9927 38.3861C36.7331 38.2844 36.4551 38.238 36.1766 38.25V38.2708Z" fill="#404040"/>
<path d="M42.4683 57H40.385V52.3541L46.7808 46.9791L48.5829 42.9687C48.8448 41.7057 48.6837 40.3916 48.1246 39.2291C48.0905 39.1474 48.0522 39.0674 48.01 38.9896L45.3225 45.2396L40.3329 47.7083C39.4092 48.2179 38.3926 48.5367 37.3433 48.6458H36.1767C34.2496 48.6458 30.9683 49.0521 30.9683 51.7708V56.9791H28.885V51.7708C28.885 48.5104 31.5933 46.5625 36.1767 46.5625H37.3433C38.0889 46.4216 38.8088 46.1688 39.4787 45.8125L39.9267 45.6146L43.7079 43.7187L47.0516 35.8958L47.9683 36.1979C48.4429 36.3929 48.8725 36.6829 49.2308 37.0502C49.5891 37.4174 49.8684 37.8541 50.0517 38.3333C50.8639 40.0245 51.0342 41.9531 50.5308 43.7604L48.5308 48.2708L42.51 53.3229L42.4683 57Z" fill="#404040"/>
<path d="M19.5099 48.6875C18.9597 48.6988 18.4127 48.5988 17.9021 48.3935C17.3914 48.1881 16.9276 47.8816 16.5384 47.4924C16.1492 47.1032 15.8427 46.6393 15.6373 46.1287C15.4319 45.618 15.3319 45.0711 15.3433 44.5208V43.4792C15.3433 42.3741 15.7823 41.3143 16.5637 40.5329C17.3451 39.7515 18.4049 39.3125 19.5099 39.3125C20.615 39.3125 21.6748 39.7515 22.4562 40.5329C23.2376 41.3143 23.6766 42.3741 23.6766 43.4792V44.5208C23.688 45.0711 23.5879 45.618 23.3826 46.1287C23.1772 46.6393 22.8707 47.1032 22.4815 47.4924C22.0923 47.8816 21.6284 48.1881 21.1178 48.3935C20.6071 48.5988 20.0602 48.6988 19.5099 48.6875V48.6875ZM19.5099 41.3958C19.2332 41.384 18.957 41.4299 18.6989 41.5304C18.4408 41.6309 18.2064 41.7839 18.0106 41.9798C17.8147 42.1757 17.6617 42.4101 17.5611 42.6682C17.4606 42.9263 17.4148 43.2024 17.4266 43.4792V44.5208C17.4266 45.0734 17.6461 45.6033 18.0368 45.994C18.4275 46.3847 18.9574 46.6042 19.5099 46.6042C20.0625 46.6042 20.5924 46.3847 20.9831 45.994C21.3738 45.6033 21.5933 45.0734 21.5933 44.5208V43.4792C21.6081 43.2007 21.5644 42.9223 21.4653 42.6617C21.3661 42.4011 21.2135 42.1641 21.0173 41.966C20.8211 41.7678 20.5857 41.6129 20.3261 41.5111C20.0665 41.4094 19.7885 41.363 19.5099 41.375V41.3958Z" fill="#404040"/>
<path d="M26.8016 57H24.7183V54.9167C24.7183 52.0938 21.0724 51.7917 19.5099 51.7917C17.9474 51.7917 14.3016 52.0938 14.3016 54.9167V57H12.2183V54.9167C12.2183 51.6563 14.9474 49.7083 19.5099 49.7083C24.0724 49.7083 26.8016 51.6563 26.8016 54.9167V57Z" fill="#404040"/>
</svg>
