<svg width="64" height="64" viewBox="0 0 64 64" fill="none" xmlns="http://www.w3.org/2000/svg">
<path d="M16.5574 35.6713C15.8363 35.6577 15.1251 35.5004 14.4654 35.2088C13.8057 34.9172 13.2108 34.497 12.7153 33.9728C12.2199 33.4487 11.8339 32.831 11.5799 32.156C11.3259 31.4809 11.209 30.762 11.236 30.0413V28.5193C11.236 27.108 11.7966 25.7545 12.7946 24.7565C13.7925 23.7586 15.1461 23.1979 16.5574 23.1979C17.9687 23.1979 19.3222 23.7586 20.3202 24.7565C21.3181 25.7545 21.8788 27.108 21.8788 28.5193V30.0413C21.9072 30.7624 21.7913 31.4819 21.5379 32.1576C21.2844 32.8333 20.8985 33.4515 20.4027 33.976C19.907 34.5005 19.3115 34.9206 18.6511 35.2117C17.9908 35.5028 17.279 35.6591 16.5574 35.6713ZM16.5574 25.0285C16.1175 25.0448 15.6852 25.1485 15.2857 25.3334C14.8862 25.5183 14.5275 25.7809 14.2303 26.1057C13.9332 26.4305 13.7037 26.8112 13.5551 27.2256C13.4064 27.6399 13.3417 28.0797 13.3645 28.5193V30.0413C13.3645 30.8881 13.7009 31.7002 14.2997 32.2989C14.8985 32.8977 15.7106 33.2341 16.5574 33.2341C17.4042 33.2341 18.2163 32.8977 18.8151 32.2989C19.4138 31.7002 19.7502 30.8881 19.7502 30.0413V28.5193C19.7746 28.0794 19.7108 27.639 19.5627 27.224C19.4146 26.809 19.1851 26.4278 18.8877 26.1026C18.5904 25.7775 18.231 25.515 17.8309 25.3306C17.4307 25.1461 16.9978 25.0434 16.5574 25.0285V25.0285Z" fill="#404040"/>
<path d="M31.4786 39.9284C31.2429 39.9302 31.0087 39.8906 30.7868 39.8113C30.3637 39.6709 29.9954 39.4013 29.7338 39.0404C29.4722 38.6795 29.3306 38.2456 29.3287 37.7998V33.5427H28.2644C27.1354 33.5427 26.0526 33.0942 25.2542 32.2958C24.4558 31.4975 24.0073 30.4147 24.0073 29.2856V12.2571C24.0073 11.1281 24.4558 10.0452 25.2542 9.24688C26.0526 8.44851 27.1354 8 28.2644 8H52.7429C53.872 8 54.9547 8.44851 55.7531 9.24688C56.5515 10.0452 57 11.1281 57 12.2571V28.2213C57 29.6326 56.4394 30.9862 55.4414 31.9841C54.4434 32.9821 53.0899 33.5427 51.6786 33.5427H37.3108L33.1601 39.077C32.964 39.3385 32.7103 39.5513 32.4187 39.699C32.1271 39.8466 31.8054 39.9251 31.4786 39.9284ZM28.2857 10.1286C27.7212 10.1286 27.1798 10.3528 26.7806 10.752C26.3814 11.1512 26.1572 11.6926 26.1572 12.2571V29.2856C26.1572 29.8501 26.3814 30.3915 26.7806 30.7907C27.1798 31.1899 27.7212 31.4142 28.2857 31.4142H30.4143C30.6965 31.4142 30.9672 31.5263 31.1668 31.7259C31.3664 31.9255 31.4786 32.1962 31.4786 32.4784V37.7998L35.9592 31.8399C36.0572 31.7091 36.1841 31.6027 36.3299 31.5289C36.4757 31.4551 36.6365 31.4158 36.8 31.4142H51.6999C52.5467 31.4142 53.3588 31.0778 53.9576 30.479C54.5563 29.8802 54.8927 29.0681 54.8927 28.2213V12.2571C54.8927 11.6926 54.6685 11.1512 54.2693 10.752C53.8701 10.3528 53.3287 10.1286 52.7642 10.1286H28.2857Z" fill="#404040"/>
<path d="M44.782 28.0298C44.6281 28.0287 44.4759 27.9961 44.335 27.934L40.5037 26.1673L36.6829 27.934C36.51 28.0087 36.3204 28.0363 36.1335 28.0139C35.9465 27.9914 35.7688 27.9198 35.6186 27.8063C35.4573 27.6854 35.3337 27.5212 35.2621 27.3327C35.1905 27.1443 35.1739 26.9395 35.2142 26.742L35.8953 22.7722L32.8515 19.5794C32.722 19.4385 32.6329 19.2652 32.5935 19.0779C32.5542 18.8906 32.5661 18.6962 32.628 18.5151C32.6962 18.329 32.815 18.1656 32.9711 18.0433C33.1271 17.9211 33.3143 17.8449 33.5113 17.8233L37.6727 17.387L39.5777 13.4172C39.6637 13.2343 39.7999 13.0797 39.9704 12.9715C40.141 12.8632 40.3388 12.8057 40.5409 12.8057C40.7429 12.8057 40.9408 12.8632 41.1113 12.9715C41.2819 13.0797 41.4181 13.2343 41.504 13.4172L43.4091 17.387L47.5705 17.8233C47.7673 17.8446 47.9544 17.9205 48.1105 18.0423C48.2666 18.1642 48.3857 18.3271 48.4542 18.5129C48.5228 18.6987 48.5381 18.8999 48.4986 19.094C48.459 19.288 48.3661 19.4672 48.2303 19.6113L45.1865 22.8041L45.8676 26.7739C45.8942 26.928 45.8865 27.0861 45.8451 27.2369C45.8037 27.3877 45.7295 27.5275 45.6279 27.6464C45.5263 27.7653 45.3997 27.8603 45.2572 27.9248C45.1147 27.9892 44.9597 28.0214 44.8033 28.0191L44.782 28.0298ZM40.5249 23.9323C40.6791 23.9315 40.8316 23.9641 40.9719 24.0281L43.4198 25.1562L42.9834 22.6445C42.9549 22.4809 42.9651 22.313 43.0132 22.154C43.0612 21.9951 43.1458 21.8496 43.2601 21.7292L45.1865 19.7071L42.579 19.4304C42.3987 19.4093 42.2269 19.3425 42.0797 19.2364C41.9326 19.1302 41.815 18.9881 41.7382 18.8237L40.5249 16.3227L39.2584 18.8237C39.1816 18.9881 39.0641 19.1302 38.9169 19.2364C38.7698 19.3425 38.5979 19.4093 38.4176 19.4304L35.7995 19.7071L37.7365 21.7292C37.8508 21.8496 37.9354 21.9951 37.9835 22.154C38.0315 22.313 38.0417 22.4809 38.0132 22.6445L37.5769 25.1562L40.0247 24.0281C40.1774 23.9703 40.3412 23.9485 40.5037 23.9642L40.5249 23.9323Z" fill="#404040"/>
<path d="M16.5679 53.2532H16.355L12.7578 52.5189C12.0641 52.4405 11.4004 52.1927 10.825 51.7974C10.2497 51.4021 9.78041 50.8713 9.45849 50.2519C9.42942 50.2045 9.40449 50.1547 9.38398 50.1029L8.46871 48.0915C8.29843 47.7083 8.12812 47.3784 7.97912 47.0272C7.37483 46.0064 7.03806 44.8496 7 43.664C7 40.1839 8.85184 36.6824 12.9813 36.6824H19.1221C21.2507 36.7675 22.8258 37.1507 24.1881 38.8109L26.2635 41.3333C26.3628 41.4394 26.4392 41.5648 26.4882 41.7017C26.5372 41.8385 26.5576 41.9839 26.5482 42.129C26.5388 42.274 26.4998 42.4156 26.4336 42.545C26.3674 42.6744 26.2754 42.7888 26.1633 42.8813C26.0511 42.9738 25.9212 43.0423 25.7816 43.0827C25.642 43.123 25.4956 43.1343 25.3514 43.1159C25.2072 43.0975 25.0683 43.0498 24.9433 42.9757C24.8183 42.9015 24.7098 42.8026 24.6245 42.6849L22.4959 40.1732C21.7084 39.226 20.8995 38.9174 19.0264 38.8429H12.928C10.0864 38.8429 9.07536 41.461 9.07536 43.696C9.11686 44.5574 9.38083 45.3935 9.84161 46.1226C10.0013 46.4525 10.1715 46.8037 10.3525 47.1868L11.2252 49.1132C11.9808 50.1775 12.3959 50.2732 13.0877 50.369L16.7488 51.114C16.8858 51.1419 17.0159 51.1966 17.1318 51.2748C17.2476 51.353 17.347 51.4533 17.4241 51.57C17.5011 51.6866 17.5545 51.8173 17.5811 51.9545C17.6076 52.0918 17.6069 52.2329 17.5789 52.3699C17.5375 52.6108 17.4144 52.8302 17.2303 52.9911C17.0462 53.152 16.8122 53.2445 16.5679 53.2532Z" fill="#404040"/>
<path d="M18.2707 49.4324C18.1509 49.4311 18.0322 49.4095 17.9195 49.3686L15.4398 48.4852C14.8927 48.3193 14.3927 48.0266 13.9802 47.6308C13.5678 47.235 13.2547 46.7474 13.0664 46.2077L12.0979 43.8024C11.9935 43.5399 11.9976 43.2467 12.1094 42.9872C12.2211 42.7277 12.4314 42.5233 12.6939 42.4188C12.9564 42.3144 13.2497 42.3185 13.5091 42.4303C13.7686 42.5421 13.973 42.7523 14.0775 43.0148L15.0353 45.4201C15.1107 45.6824 15.2552 45.9195 15.4537 46.1067C15.6521 46.294 15.8973 46.4244 16.1635 46.4844L18.6326 47.3571C18.9149 47.4051 19.1665 47.5632 19.3322 47.7968C19.4978 48.0303 19.5639 48.32 19.516 48.6023C19.468 48.8846 19.3098 49.1362 19.0763 49.3019C18.8428 49.4675 18.553 49.5336 18.2707 49.4857V49.4324Z" fill="#404040"/>
<path d="M24.6352 54.8284H17.1852C16.8416 54.8284 16.5036 54.7403 16.2037 54.5726C15.9037 54.405 15.6517 54.1632 15.4717 53.8705C15.2855 53.5754 15.178 53.2376 15.1594 52.8893C15.1408 52.5409 15.2116 52.1935 15.3653 51.8803L20.1652 42.0995C20.3315 41.7592 20.5906 41.4728 20.9126 41.2732C21.2345 41.0736 21.6063 40.969 21.9851 40.9714H29.4351C29.7779 40.9693 30.1155 41.0553 30.4156 41.2211C30.7156 41.387 30.968 41.6272 31.1486 41.9186C31.3347 42.2157 31.4421 42.5552 31.4608 42.9053C31.4794 43.2553 31.4086 43.6044 31.255 43.9195L29.8501 46.7824L27.9344 45.8458L29.2861 43.1H22.0489L17.3342 52.6785H24.5713L25.8378 50.0817L27.7535 51.0182L26.487 53.6789C26.3203 54.0274 26.0574 54.3208 25.7292 54.5245C25.401 54.7282 25.0214 54.8336 24.6352 54.8284Z" fill="#FA4616"/>
<path d="M13.3645 51.3269H11.236V56.9463H13.3645V51.3269Z" fill="#404040"/>
<path d="M24.0073 53.7534H21.8788V56.9463H24.0073V53.7534Z" fill="#404040"/>
<path d="M27.7854 51.6355H24.0285C23.7603 51.6363 23.5018 51.536 23.3045 51.3544C23.1071 51.1729 22.9856 50.9236 22.9642 50.6563C22.9463 49.6598 23.1589 48.6725 23.5853 47.7716C24.0118 46.8707 24.6405 46.0805 25.4227 45.4627C25.6084 45.3185 25.8367 45.2399 26.0719 45.2392H29.4563C29.8014 45.2394 30.1407 45.3274 30.4423 45.495C30.7439 45.6625 30.998 45.9041 31.1804 46.197C31.3811 46.5116 31.4981 46.8722 31.5205 47.2447C31.5428 47.6172 31.4697 47.9892 31.3081 48.3256L30.5844 49.8688C30.3359 50.4003 29.94 50.8493 29.4439 51.1624C28.9477 51.4756 28.3721 51.6398 27.7854 51.6355V51.6355ZM25.1672 49.5069H27.7854C27.9612 49.4994 28.1313 49.4425 28.2762 49.3427C28.4211 49.2429 28.535 49.1044 28.6049 48.9429L29.3286 47.3997L26.4869 47.3784C25.8581 47.9517 25.4012 48.6887 25.1672 49.5069V49.5069Z" fill="#404040"/>
</svg>
