<svg width="64" height="64" viewBox="0 0 64 64" fill="none" xmlns="http://www.w3.org/2000/svg">
<path d="M30.2343 55.9883H13.1949C12.3476 55.9883 11.5349 55.6516 10.9358 55.0525C10.3366 54.4533 10 53.6407 10 52.7934V10.1949C10 9.34755 10.3366 8.5349 10.9358 7.93574C11.5349 7.33658 12.3476 7 13.1949 7H34.4941C35.3415 7 36.1541 7.33658 36.7533 7.93574C37.3524 8.5349 37.689 9.34755 37.689 10.1949V30.4292H35.5591V10.1949C35.5591 9.91244 35.4469 9.64155 35.2472 9.44183C35.0475 9.24211 34.7766 9.12992 34.4941 9.12992H13.1949C12.9124 9.12992 12.6416 9.24211 12.4418 9.44183C12.2421 9.64155 12.1299 9.91244 12.1299 10.1949V52.7934C12.1299 53.0758 12.2421 53.3467 12.4418 53.5464C12.6416 53.7461 12.9124 53.8583 13.1949 53.8583H30.2343V55.9883Z" fill="#404040"/>
<path d="M22.7795 47.4686H11.0649V49.5985H22.7795V47.4686Z" fill="#404040"/>
<path d="M25.9744 50.6635H21.7146V52.7934H25.9744V50.6635Z" fill="#404040"/>
<path d="M23.2481 35.5729C18.1362 32.1438 15.8572 30.3653 15.3993 27.607C15.2136 26.7178 15.2899 25.7937 15.6188 24.9469C15.9477 24.1001 16.5151 23.3668 17.2523 22.836C18.4804 22.0206 19.9803 21.7222 21.427 22.0053C22.3008 22.1482 23.1227 22.5151 23.8125 23.0703C24.4675 22.4589 25.2845 22.0486 26.1661 21.8882C26.9014 21.7528 27.6563 21.7639 28.3874 21.9211C29.1184 22.0783 29.8112 22.3783 30.4259 22.8041C31.1591 23.3385 31.7234 24.0722 32.0519 24.9179C32.3804 25.7636 32.4592 26.6859 32.2789 27.5751C32.2164 27.9625 32.1092 28.3413 31.9594 28.704L29.9786 27.9159C30.0747 27.6952 30.1392 27.4622 30.1703 27.2236C30.275 26.7294 30.2387 26.2158 30.0654 25.7412C29.8922 25.2667 29.589 24.8505 29.1905 24.5399C28.4201 24.0179 27.4769 23.8155 26.5601 23.9755C26.1819 24.0471 25.8231 24.198 25.5073 24.4183C25.1916 24.6386 24.9261 24.9232 24.7284 25.2535L23.8551 26.6273L22.9499 25.2748C22.7295 24.9515 22.4444 24.6777 22.1126 24.4705C21.7807 24.2633 21.4094 24.1274 21.0223 24.0714C20.1418 23.8942 19.2268 24.0619 18.4664 24.5399C18.0698 24.8521 17.7681 25.2685 17.5951 25.7425C17.422 26.2166 17.3844 26.7295 17.4866 27.2236C17.7848 29.0341 19.6165 30.5144 24.4195 33.7732L23.2481 35.5729Z" fill="#FA4616"/>
<path d="M52.5558 50.9297C52.5558 50.9297 51.7996 49.8647 51.0648 48.5868C50.6665 47.6917 50.5227 46.7041 50.6495 45.7327C50.7622 44.7737 50.6265 43.8019 50.2555 42.9105L44.9306 33.688C44.854 33.5683 44.7543 33.4653 44.6372 33.3848C44.5202 33.3043 44.3882 33.2481 44.2491 33.2194C43.989 33.1546 43.7146 33.1809 43.4717 33.2939L40.7027 34.8914L40.1703 33.9649C40.0159 33.7296 39.7747 33.5649 39.4993 33.5069C39.2401 33.4324 38.9623 33.459 38.7219 33.5814L36.3684 34.934L35.8465 34.6677C35.3966 34.5395 34.9152 34.5812 34.494 34.7849L32.6516 35.8498L31.5867 34.0074L33.4291 32.9425C34.2883 32.4885 35.2803 32.3527 36.2299 32.5591L37.657 31.7391C38.3638 31.346 39.1935 31.2356 39.9786 31.4302C40.4697 31.5413 40.9287 31.7635 41.3204 32.0798L42.3854 31.4515C43.0966 31.0593 43.9306 30.9526 44.7177 31.1533C45.1404 31.2429 45.5398 31.42 45.8901 31.6731C46.2404 31.9262 46.5339 32.2497 46.7517 32.623L52.0765 41.8456C52.6642 43.0706 52.9001 44.4347 52.7581 45.7859C52.6842 46.3679 52.7314 46.9589 52.8966 47.5218C53.5781 48.7039 54.2704 49.7156 54.281 49.7263L52.5558 50.9297Z" fill="#404040"/>
<path d="M37.2636 33.1969L35.4191 34.2618L38.0815 38.8733L39.926 37.8083L37.2636 33.1969Z" fill="#404040"/>
<path d="M42.029 32.8952L40.1844 33.9602L42.3144 37.6493L44.1589 36.5844L42.029 32.8952Z" fill="#404040"/>
<path d="M38.7113 57L38.1575 56.0415C37.9339 55.6475 37.8487 55.4984 36.8157 55.2215C34.7543 54.6378 32.8038 53.7166 31.0436 52.4952C29.5482 51.4928 27.9396 50.6706 26.2513 50.0458C25.7771 49.8929 25.3453 49.6313 24.9902 49.2818C24.6352 48.9323 24.3668 48.5047 24.2065 48.033C24.0539 47.586 24.0082 47.1094 24.0729 46.6415C24.1376 46.1737 24.3111 45.7275 24.5793 45.3386C24.963 44.7877 25.4819 44.3446 26.0861 44.0519C26.6903 43.7591 27.3596 43.6264 28.0298 43.6666C29.1952 43.8094 30.3437 44.0662 31.4589 44.4334L24.313 32.0266C24.003 31.4777 23.8623 30.8494 23.9087 30.2207C23.955 29.592 24.1862 28.9912 24.5733 28.4936C24.9604 27.9961 25.486 27.6242 26.084 27.4247C26.682 27.2253 27.3256 27.2072 27.9339 27.3727C28.3414 27.4798 28.7231 27.6679 29.0561 27.9259C29.3892 28.1839 29.6667 28.5065 29.8721 28.8743L36.2619 39.9286L34.4089 40.9936L28.0191 29.9286C27.9535 29.8083 27.8638 29.7028 27.7558 29.6185C27.6477 29.5342 27.5235 29.4731 27.3908 29.4388C27.2523 29.3995 27.1073 29.3886 26.9645 29.4069C26.8218 29.4252 26.6842 29.4723 26.5601 29.5452C26.3222 29.6856 26.1481 29.9129 26.0746 30.1791C26.001 30.4454 26.0339 30.7298 26.1661 30.9723L34.2917 45.0511C34.436 45.2929 34.5013 45.5737 34.4784 45.8543C34.4555 46.1349 34.3455 46.4014 34.1639 46.6166C33.9879 46.8368 33.748 46.997 33.4772 47.0752C33.2064 47.1534 32.918 47.1457 32.6517 47.0532C31.1007 46.4828 29.4999 46.0586 27.87 45.7859C27.5736 45.7748 27.2792 45.8393 27.0146 45.9735C26.75 46.1077 26.524 46.307 26.3578 46.5527C26.2772 46.6675 26.2254 46.8 26.2069 46.939C26.1883 47.0781 26.2036 47.2195 26.2513 47.3514C26.3047 47.5086 26.3942 47.6512 26.5125 47.7677C26.6308 47.8842 26.7748 47.9714 26.9328 48.0223C28.7836 48.6955 30.5464 49.5894 32.1831 50.6847C33.7575 51.7862 35.5026 52.6209 37.3482 53.1555C39.148 53.6347 39.5739 54.2204 39.9893 54.902L40.575 55.967L38.7113 57Z" fill="#404040"/>
</svg>
