<svg width="64" height="64" viewBox="0 0 64 64" fill="none" xmlns="http://www.w3.org/2000/svg">
<path d="M47.1101 53.6831C45.154 53.6831 43.2419 53.103 41.6155 52.0163C39.9891 50.9296 38.7215 49.385 37.9729 47.5778C37.2244 45.7707 37.0285 43.7821 37.4101 41.8637C37.7917 39.9452 38.7337 38.183 40.1168 36.7998C41.4999 35.4167 43.2622 34.4748 45.1806 34.0931C47.0991 33.7115 49.0876 33.9074 50.8948 34.6559C52.702 35.4045 54.2466 36.6721 55.3333 38.2985C56.42 39.9249 57 41.837 57 43.7931C56.9973 46.4152 55.9544 48.9292 54.1003 50.7833C52.2462 52.6374 49.7322 53.6803 47.1101 53.6831V53.6831ZM47.1101 35.9852C45.5658 35.9852 44.0562 36.4431 42.7722 37.3011C41.4883 38.159 40.4875 39.3784 39.8965 40.8051C39.3056 42.2318 39.151 43.8017 39.4522 45.3163C39.7535 46.8309 40.4971 48.2221 41.5891 49.3141C42.681 50.406 44.0722 51.1497 45.5868 51.4509C47.1014 51.7522 48.6713 51.5976 50.098 51.0066C51.5247 50.4157 52.7441 49.4149 53.6021 48.1309C54.46 46.8469 54.9179 45.3373 54.9179 43.7931C54.9152 41.7232 54.0917 39.7388 52.628 38.2751C51.1644 36.8115 49.18 35.988 47.1101 35.9852V35.9852Z" fill="#404040"/>
<path d="M50.7537 39.1083H48.6716V43.2725H50.7537V39.1083Z" fill="#404040"/>
<path d="M45.5484 39.1083H43.4663V43.2725H45.5484V39.1083Z" fill="#404040"/>
<path d="M47.1101 49.5188C45.9037 49.5193 44.7241 49.1627 43.7199 48.4939C42.7158 47.8251 41.9321 46.8741 41.4677 45.7606L43.3832 44.9486C43.6883 45.6845 44.2046 46.3135 44.8671 46.756C45.5295 47.1985 46.3083 47.4347 47.1049 47.4347C47.9016 47.4347 48.6803 47.1985 49.3428 46.756C50.0052 46.3135 50.5216 45.6845 50.8267 44.9486L52.7526 45.7502C52.2897 46.8656 51.5067 47.8189 50.5025 48.4896C49.4982 49.1603 48.3178 49.5185 47.1101 49.5188V49.5188Z" fill="#404040"/>
<path d="M31.4944 53.683C29.8985 53.686 28.3255 53.3027 26.9099 52.5658C25.4942 51.8289 24.2779 50.7604 23.3648 49.4515C22.4517 48.1425 21.8689 46.6321 21.6663 45.049C21.4636 43.466 21.647 41.8574 22.2009 40.3607C22.7548 38.8639 23.6627 37.5234 24.847 36.4537C26.0314 35.384 27.4571 34.6167 29.0023 34.2175C30.5475 33.8183 32.1664 33.799 33.7207 34.1612C35.275 34.5234 36.7186 35.2563 37.9281 36.2975L36.5643 37.8695C35.4384 36.8994 34.0589 36.2708 32.588 36.0577C31.1171 35.8445 29.6159 36.0556 28.2609 36.6661C26.9058 37.2766 25.7531 38.2611 24.9383 39.5041C24.1234 40.7471 23.6803 42.1968 23.6609 43.6829C23.6415 45.169 24.0466 46.6298 24.8288 47.8936C25.6109 49.1574 26.7375 50.1717 28.0761 50.8174C29.4148 51.4631 30.91 51.7133 32.3859 51.5385C33.8618 51.3638 35.2573 50.7715 36.4082 49.8311L37.7199 51.4448C35.9632 52.8834 33.765 53.6737 31.4944 53.683Z" fill="#404040"/>
<path d="M35.1379 39.1083H33.0558V43.2725H35.1379V39.1083Z" fill="#404040"/>
<path d="M29.9327 39.1083H27.8506V43.2725H29.9327V39.1083Z" fill="#404040"/>
<path d="M13.859 48.2904L12.6617 46.5831C13.9259 45.7562 15.4093 45.3282 16.9196 45.3546C17.9456 45.3512 18.9629 45.5419 19.9179 45.9168L19.1475 47.8531C18.2888 47.529 17.3687 47.4 16.4539 47.4756C15.5392 47.5513 14.6528 47.8296 13.859 48.2904V48.2904Z" fill="#404040"/>
<path d="M16.9196 53.683C15.3871 53.6876 13.8745 53.336 12.5011 52.6559C11.1278 51.9758 9.93123 50.9859 9.00596 49.7642C8.08069 48.5425 7.452 47.1225 7.16949 45.6162C6.88698 44.11 6.95839 42.5587 7.37808 41.0847C7.79777 39.6108 8.55425 38.2545 9.58784 37.123C10.6214 35.9915 11.9038 35.1156 13.3339 34.5646C14.7639 34.0135 16.3024 33.8024 17.8281 33.9477C19.3537 34.0931 20.8246 34.591 22.1249 35.4022L21.0214 37.172C19.7748 36.3875 18.33 35.9757 16.8572 35.9852C14.7864 35.9852 12.8004 36.8078 11.3362 38.2721C9.87191 39.7363 9.0493 41.7223 9.0493 43.7931C9.0493 45.8638 9.87191 47.8498 11.3362 49.3141C12.8004 50.7783 14.7864 51.6009 16.8572 51.6009C18.33 51.6104 19.7748 51.1986 21.0214 50.4141L22.1249 52.1839C20.5633 53.1588 18.7605 53.678 16.9196 53.683Z" fill="#404040"/>
<path d="M20.5633 39.1083H18.4812V43.2725H20.5633V39.1083Z" fill="#404040"/>
<path d="M15.358 39.1083H13.2759V43.2725H15.358V39.1083Z" fill="#404040"/>
<path d="M35.1379 46.3957H27.8506V48.4778H35.1379V46.3957Z" fill="#404040"/>
<path d="M24.7275 31.821H22.6454V28.6979H17.4401V31.821H15.358V27.6568C15.358 27.3807 15.4677 27.1159 15.663 26.9207C15.8582 26.7254 16.123 26.6158 16.3991 26.6158H23.6864C23.9625 26.6158 24.2273 26.7254 24.4226 26.9207C24.6178 27.1159 24.7275 27.3807 24.7275 27.6568V31.821Z" fill="#404040"/>
<path d="M37.22 31.821H35.1379V24.5336H29.9327V31.821H27.8506V23.4926C27.8506 23.2165 27.9603 22.9517 28.1555 22.7565C28.3507 22.5612 28.6155 22.4515 28.8916 22.4515H36.179C36.4551 22.4515 36.7199 22.5612 36.9151 22.7565C37.1104 22.9517 37.22 23.2165 37.22 23.4926V31.821Z" fill="#404040"/>
<path d="M49.7126 31.821H47.6305V13.0821H42.4252V31.821H40.3431V12.041C40.3431 11.7649 40.4528 11.5002 40.6481 11.3049C40.8433 11.1097 41.1081 11 41.3842 11H48.6715C48.9476 11 49.2124 11.1097 49.4077 11.3049C49.6029 11.5002 49.7126 11.7649 49.7126 12.041V31.821Z" fill="#404040"/>
</svg>
