<svg width="64" height="64" viewBox="0 0 64 64" fill="none" xmlns="http://www.w3.org/2000/svg">
<g clip-path="url(#clip0)">
<path fill-rule="evenodd" clip-rule="evenodd" d="M30.9584 13.0833C30.6821 13.0833 30.4172 13.1931 30.2218 13.3884C30.0265 13.5838 29.9167 13.8487 29.9167 14.125V16.2083H27.8334V14.125C27.8334 13.2962 28.1626 12.5014 28.7487 11.9153C29.3347 11.3293 30.1296 11 30.9584 11H53.875C54.7038 11 55.4987 11.3293 56.0848 11.9153C56.6708 12.5014 57 13.2962 57 14.125V33.9167C57 34.7455 56.6708 35.5403 56.0848 36.1264C55.4987 36.7124 54.7038 37.0417 53.875 37.0417H52.8334V42.2513C52.8329 42.6517 52.717 43.0435 52.4997 43.3797C52.2823 43.7159 51.9727 43.9824 51.6078 44.1472C51.243 44.3121 50.8383 44.3683 50.4424 44.3092C50.0464 44.25 49.6758 44.0781 49.375 43.8138L49.3375 43.7808L43.0077 37.0417H39.2917V34.9583H43.9091L50.75 42.2417V34.9583H53.875C54.1513 34.9583 54.4163 34.8486 54.6116 34.6533C54.807 34.4579 54.9167 34.193 54.9167 33.9167V14.125C54.9167 13.8487 54.807 13.5838 54.6116 13.3884C54.4163 13.1931 54.1513 13.0833 53.875 13.0833H30.9584Z" fill="#404040"/>
<path fill-rule="evenodd" clip-rule="evenodd" d="M22.6251 27.7917C22.0725 27.7917 21.5426 28.0112 21.1519 28.4019C20.7612 28.7925 20.5417 29.3225 20.5417 29.875V29.885H20.5417C20.5371 30.363 20.6884 30.8295 20.9728 31.2137L19.2982 32.453C18.7453 31.7059 18.4506 30.7993 18.4584 29.87C18.4597 28.7667 18.8986 27.7089 19.6788 26.9287C20.4602 26.1473 21.52 25.7083 22.6251 25.7083C23.7301 25.7083 24.7899 26.1473 25.5713 26.9287C26.3528 27.7101 26.7917 28.7699 26.7917 29.875C26.7917 31.6722 25.692 32.7761 24.8949 33.5134C24.7967 33.6042 24.7052 33.6877 24.6196 33.7657C24.3227 34.0365 24.0973 34.2421 23.9146 34.462C23.7016 34.7185 23.6667 34.8604 23.6667 34.9583V37.0417H21.5834V34.9583C21.5834 34.1813 21.9392 33.5797 22.3121 33.1308C22.5969 32.7879 22.9638 32.4545 23.2751 32.1715C23.347 32.1062 23.4159 32.0435 23.4802 31.984C24.2456 31.276 24.7084 30.7132 24.7084 29.875C24.7084 29.3225 24.4889 28.7925 24.0982 28.4019C23.7075 28.0112 23.1776 27.7917 22.6251 27.7917Z" fill="#FA4616"/>
<path fill-rule="evenodd" clip-rule="evenodd" d="M21.5834 40.1667V38.0833H23.6667V40.1667H21.5834Z" fill="#FA4616"/>
<path fill-rule="evenodd" clip-rule="evenodd" d="M41.375 26.625V17.25H43.4583V26.625H41.375Z" fill="#FA4616"/>
<path fill-rule="evenodd" clip-rule="evenodd" d="M41.375 30.7917V28.7083H43.4583V30.7917H41.375Z" fill="#FA4616"/>
<path fill-rule="evenodd" clip-rule="evenodd" d="M22.5745 17.2403C24.6068 17.1621 26.634 17.4948 28.5347 18.2186C30.4354 18.9424 32.1705 20.0423 33.636 21.4525C35.1015 22.8627 36.2674 24.5541 37.0637 26.4256C37.8601 28.297 38.2705 30.3099 38.2705 32.3437C38.2705 34.3776 37.8601 36.3905 37.0637 38.2619C36.2674 40.1333 35.1015 41.8248 33.636 43.235C32.1705 44.6452 30.4354 45.7451 28.5347 46.4689C26.6397 47.1905 24.6189 47.5234 22.5926 47.4478C21.8 47.444 21.009 47.383 20.2256 47.2652L14.7132 52.1521C14.4141 52.4111 14.0493 52.5822 13.6591 52.6469C13.2688 52.7115 12.8683 52.667 12.5017 52.5183C12.1351 52.3696 11.8168 52.1224 11.5819 51.8041C11.3469 51.4858 11.2046 51.1088 11.1705 50.7147L11.1667 50.6699V42.6391C9.89682 41.328 8.87967 39.7923 8.16784 38.1088C7.39796 36.288 7.00086 34.3315 7 32.3546L7 32.3446L7.00019 32.3346C7.07655 28.2607 8.76699 24.3836 11.7001 21.5551C14.0546 19.2848 17.0551 17.8392 20.2545 17.3943L20.1923 17.3321L21.1804 17.294C21.5787 17.2631 21.9793 17.2475 22.3815 17.2478L22.5745 17.2403ZM24.3029 19.3631L22.6067 19.3332C19.0846 19.2711 15.682 20.6097 13.1463 23.0548C10.613 25.4977 9.15193 28.8454 9.08335 32.3637C9.08541 34.0587 9.42654 35.7362 10.0867 37.2974C10.7481 38.8617 11.7164 40.2776 12.9343 41.4613L13.25 41.7681V50.5522C13.252 50.5574 13.2547 50.5624 13.2581 50.567C13.2649 50.5763 13.2742 50.5835 13.2849 50.5878C13.2956 50.5921 13.3072 50.5934 13.3186 50.5916C13.3293 50.5898 13.3392 50.5853 13.3475 50.5786L19.5945 45.0405L20.0932 45.1315C20.9264 45.2835 21.7714 45.3615 22.6184 45.3646L22.6365 45.3646L22.6546 45.3653C24.4068 45.4328 26.1546 45.1459 27.7933 44.5219C29.432 43.8979 30.9279 42.9496 32.1915 41.7338C33.455 40.518 34.4601 39.0596 35.1467 37.4462C35.8333 35.8327 36.1872 34.0972 36.1872 32.3437C36.1872 30.5903 35.8333 28.8548 35.1467 27.2413C34.4601 25.6278 33.455 24.1695 32.1915 22.9537C30.9279 21.7379 29.432 20.7895 27.7933 20.1655C26.6699 19.7377 25.4952 19.4684 24.3029 19.3631Z" fill="#404040"/>
</g>
<defs>
<clipPath id="clip0">
<rect width="50" height="41.6667" fill="white" transform="translate(7 11)"/>
</clipPath>
</defs>
</svg>
