<svg width="64" height="64" viewBox="0 0 64 64" fill="none" xmlns="http://www.w3.org/2000/svg">
<path d="M29.1112 53.1111C28.8287 53.1105 28.5493 53.0539 28.2889 52.9445C27.8755 52.7798 27.5209 52.4948 27.2713 52.1263C27.0217 51.7578 26.8885 51.3228 26.8889 50.8778V48.1111H24.6667C23.7827 48.1111 22.9348 47.7599 22.3097 47.1348C21.6846 46.5097 21.3334 45.6618 21.3334 44.7778V22.5556C21.3334 21.6715 21.6846 20.8237 22.3097 20.1986C22.9348 19.5735 23.7827 19.2222 24.6667 19.2222H53.5556C54.4397 19.2222 55.2875 19.5735 55.9126 20.1986C56.5377 20.8237 56.8889 21.6715 56.8889 22.5556V44.7778C56.8889 45.6618 56.5377 46.5097 55.9126 47.1348C55.2875 47.7599 54.4397 48.1111 53.5556 48.1111H34.8001L30.7223 52.4111C30.5154 52.6312 30.2658 52.8067 29.9888 52.9271C29.7118 53.0474 29.4132 53.11 29.1112 53.1111V53.1111ZM24.6667 21.4445C24.372 21.4445 24.0894 21.5615 23.881 21.7699C23.6727 21.9783 23.5556 22.2609 23.5556 22.5556V44.7778C23.5556 45.0725 23.6727 45.3551 23.881 45.5635C24.0894 45.7719 24.372 45.8889 24.6667 45.8889H28C28.2947 45.8889 28.5773 46.006 28.7857 46.2143C28.9941 46.4227 29.1112 46.7053 29.1112 47V50.8778L33.5556 46.2333C33.6589 46.125 33.783 46.0387 33.9204 45.9795C34.0579 45.9203 34.2059 45.8895 34.3556 45.8889H53.5889C53.8836 45.8889 54.1662 45.7719 54.3746 45.5635C54.583 45.3551 54.7 45.0725 54.7 44.7778V22.5556C54.7 22.2609 54.583 21.9783 54.3746 21.7699C54.1662 21.5615 53.8836 21.4445 53.5889 21.4445H24.6667Z" fill="#404040"/>
<path d="M45.7778 43.6666H36.8889C36.2413 43.665 35.6016 43.5243 35.0131 43.254C34.4246 42.9837 33.901 42.5902 33.4778 42.1C32.9778 41.6111 32.7667 41.4444 32.4444 41.4444H28V30.3333H33.4778C34.2332 29.8993 34.9344 29.3772 35.5667 28.7778C36.8 27.7667 37.9556 26.7 37.9556 25.1222V24.3666C37.9531 24.0481 38.039 23.7351 38.2038 23.4624C38.3685 23.1898 38.6057 22.9681 38.8889 22.8222C39.4545 22.6028 40.066 22.5286 40.6677 22.6063C41.2693 22.6839 41.842 22.9109 42.3333 23.2667C43.6333 24.1333 44.1667 25.3 44.1667 27.3111C44.1661 28.2841 43.9852 29.2485 43.6333 30.1556C43.5982 30.2501 43.5685 30.3465 43.5444 30.4445V32.5555C43.5444 35.2889 41.0667 37.3667 39.6 38.3667L38.3556 36.5222C39.2445 35.9222 41.3222 34.3 41.3222 32.5555V30.3333C41.3406 30.0199 41.412 29.7118 41.5333 29.4222C41.795 28.749 41.9306 28.0334 41.9333 27.3111C41.9333 25.7889 41.5667 25.4333 41.0889 25.0889C40.8125 24.9058 40.4963 24.7915 40.1667 24.7556V25.1C40.1667 27.8778 38.1111 29.5444 37 30.4333C35.5 31.8111 34.3222 32.5333 33.5445 32.5333H30.2111V39.2H32.4333C32.9283 39.2216 33.4133 39.3465 33.8572 39.5665C34.3012 39.7865 34.6942 40.0969 35.0111 40.4778C35.2302 40.7665 35.5122 41.0016 35.8356 41.1652C36.159 41.3288 36.5154 41.4167 36.8778 41.4222H45.7667C45.9629 41.3782 46.1475 41.293 46.3084 41.1723C46.4693 41.0517 46.6028 40.8983 46.7 40.7222V40.5444L47.9444 34.1222C47.9967 33.9078 48.0049 33.685 47.9686 33.4673C47.9323 33.2495 47.8523 33.0415 47.7333 32.8555C47.6192 32.7413 47.4816 32.6532 47.33 32.5976C47.1784 32.5419 47.0165 32.52 46.8556 32.5333H44.6333V30.3111H46.8556C47.3402 30.2977 47.8219 30.3902 48.2671 30.5821C48.7123 30.774 49.1103 31.0607 49.4333 31.4222C49.7723 31.8549 50.0109 32.3574 50.132 32.8935C50.253 33.4296 50.2535 33.9859 50.1333 34.5222L48.9 40.8889C48.7649 41.6342 48.384 42.3128 47.818 42.8163C47.2521 43.3198 46.5338 43.6192 45.7778 43.6666V43.6666Z" fill="#FA4616"/>
<path d="M48 57H9.11111C8.81643 57 8.53381 56.883 8.32544 56.6746C8.11706 56.4662 8 56.1836 8 55.8889V8.11111C8 7.81643 8.11706 7.53383 8.32544 7.32545C8.53381 7.11708 8.81643 7 9.11111 7H48C48.2947 7 48.5773 7.11708 48.7857 7.32545C48.994 7.53383 49.1111 7.81643 49.1111 8.11111V18.1111H46.8889V9.22222H10.2222V54.7778H46.8889V49.2222H49.1111V55.8889C49.1111 56.1836 48.994 56.4662 48.7857 56.6746C48.5773 56.883 48.2947 57 48 57Z" fill="#404040"/>
<path d="M45.7778 13.6667H11.3334V15.8889H45.7778V13.6667Z" fill="#404040"/>
<path d="M14.6667 10.3333H12.4445V12.5556H14.6667V10.3333Z" fill="#404040"/>
<path d="M18.0001 10.3333H15.7778V12.5556H18.0001V10.3333Z" fill="#404040"/>
<path d="M21.3333 10.3333H19.1111V12.5556H21.3333V10.3333Z" fill="#404040"/>
</svg>
