<svg width="64" height="64" viewBox="0 0 64 64" fill="none" xmlns="http://www.w3.org/2000/svg">
<path d="M12.2083 49.625H10.125V24.625C10.125 23.7962 10.4542 23.0013 11.0403 22.4153C11.6263 21.8292 12.4212 21.5 13.25 21.5H22.625V23.5833H13.25C12.9737 23.5833 12.7088 23.6931 12.5134 23.8884C12.3181 24.0838 12.2083 24.3487 12.2083 24.625V49.625Z" fill="#404040"/>
<path d="M53.875 35.0417H51.7916V49.625H53.875V35.0417Z" fill="#404040"/>
<path d="M36.1668 41.9062C35.892 41.9058 35.6197 41.8527 35.3647 41.75C34.9846 41.5914 34.66 41.3237 34.432 40.9807C34.2039 40.6377 34.0826 40.2348 34.0835 39.8229V34H30.9585V31.9167H36.1668V39.8229L44.0418 31.9167H52.8127C53.3652 31.9167 53.8951 31.6972 54.2858 31.3065C54.6765 30.9158 54.896 30.3859 54.896 29.8333V13.1667C54.896 12.6141 54.6765 12.0842 54.2858 11.6935C53.8951 11.3028 53.3652 11.0833 52.8127 11.0833H27.8127C27.2601 11.0833 26.7302 11.3028 26.3395 11.6935C25.9488 12.0842 25.7293 12.6141 25.7293 13.1667V26.7083H23.646V13.1667C23.646 12.0616 24.085 11.0018 24.8664 10.2204C25.6478 9.43898 26.7076 9 27.8127 9H52.8127C53.9177 9 54.9775 9.43898 55.7589 10.2204C56.5403 11.0018 56.9793 12.0616 56.9793 13.1667V29.8333C56.9793 30.9384 56.5403 31.9982 55.7589 32.7796C54.9775 33.561 53.9177 34 52.8127 34H44.9272L37.6356 41.2917C37.2467 41.6829 36.7185 41.9039 36.1668 41.9062V41.9062Z" fill="#404040"/>
<path d="M34.0834 47.5417H32V45.8646C32 44.0104 27.0417 42.3333 24.7084 42.3333C22.375 42.3333 17.4167 44.0104 17.4167 45.8646V47.5417H15.3334V45.8646C15.3334 41.9375 22.448 40.25 24.7084 40.25C26.9688 40.25 34.0834 41.9375 34.0834 45.8646V47.5417Z" fill="#404040"/>
<path d="M24.7083 39.2188C23.327 39.2188 22.0022 38.67 21.0255 37.6933C20.0487 36.7165 19.5 35.3918 19.5 34.0104V32.9167C19.5 31.5353 20.0487 30.2106 21.0255 29.2338C22.0022 28.2571 23.327 27.7083 24.7083 27.7083C26.0897 27.7083 27.4144 28.2571 28.3912 29.2338C29.3679 30.2106 29.9167 31.5353 29.9167 32.9167V34.0104C29.9167 35.3918 29.3679 36.7165 28.3912 37.6933C27.4144 38.67 26.0897 39.2188 24.7083 39.2188V39.2188ZM24.7083 29.8438C23.8795 29.8438 23.0847 30.173 22.4986 30.759C21.9126 31.3451 21.5833 32.14 21.5833 32.9688V34.0625C21.5833 34.8913 21.9126 35.6861 22.4986 36.2722C23.0847 36.8582 23.8795 37.1875 24.7083 37.1875C25.5371 37.1875 26.332 36.8582 26.918 36.2722C27.5041 35.6861 27.8333 34.8913 27.8333 34.0625V32.9688C27.8347 32.5575 27.7549 32.15 27.5985 31.7697C27.442 31.3893 27.2121 31.0436 26.9217 30.7523C26.6314 30.461 26.2865 30.2299 25.9066 30.0722C25.5268 29.9145 25.1196 29.8333 24.7083 29.8333V29.8438Z" fill="#404040"/>
<path d="M38.25 15.25H36.1666V20.4583H38.25V15.25Z" fill="#FA4616"/>
<path d="M43.4583 15.25H41.375V20.4583H43.4583V15.25Z" fill="#FA4616"/>
<path d="M39.8125 27.75C38.271 27.7579 36.7617 27.309 35.4751 26.4599C34.1885 25.6108 33.1823 24.3996 32.5834 22.9792L34.5 22.1667C34.9409 23.2025 35.6766 24.0859 36.6156 24.7068C37.5546 25.3277 38.6555 25.6588 39.7813 25.6588C40.907 25.6588 42.0079 25.3277 42.947 24.7068C43.886 24.0859 44.6217 23.2025 45.0625 22.1667L46.9792 22.9792C46.3833 24.389 45.3864 25.5927 44.1123 26.4409C42.8383 27.289 41.3431 27.7442 39.8125 27.75Z" fill="#FA4616"/>
<path d="M51.7917 55.875H12.2083C10.827 55.875 9.50224 55.3262 8.52549 54.3495C7.54873 53.3727 7 52.048 7 50.6667V48.5833H28.2604L30.3437 50.6667H34.6667L36.75 48.5833H57V50.6667C57 52.048 56.4513 53.3727 55.4745 54.3495C54.4978 55.3262 53.173 55.875 51.7917 55.875ZM9.08333 50.6667C9.08333 51.4955 9.41257 52.2903 9.99862 52.8764C10.5847 53.4624 11.3795 53.7917 12.2083 53.7917H51.7917C52.6205 53.7917 53.4153 53.4624 54.0014 52.8764C54.5874 52.2903 54.9167 51.4955 54.9167 50.6667H37.6354L35.5521 52.75H29.4583L27.375 50.6667H9.08333Z" fill="#404040"/>
</svg>
