<svg width="64" height="64" viewBox="0 0 64 64" fill="none" xmlns="http://www.w3.org/2000/svg">
<path d="M44.5617 35.9762H34.9029C33.4949 35.9817 32.1329 35.4743 31.0717 34.5488C30.6626 34.1332 30.1181 33.8781 29.537 33.8298V31.6834C30.5899 31.7173 31.5955 32.1287 32.3702 32.8425C33.0587 33.4808 33.9641 33.8337 34.9029 33.8298H44.5617C44.7656 33.8298 45.2485 33.8298 45.6349 32.4454C45.7851 31.9517 46.2788 28.3351 46.7081 25.1155C46.7583 24.9006 46.7573 24.6769 46.7051 24.4625C46.6529 24.2481 46.551 24.049 46.4076 23.8813C46.1744 23.6256 45.8888 23.4232 45.5702 23.2879C45.2516 23.1527 44.9076 23.0879 44.5617 23.0979H42.4153V20.9515H44.5617C45.2237 20.9424 45.8798 21.0779 46.484 21.3485C47.0883 21.6192 47.6262 22.0184 48.0603 22.5184C48.4018 22.9168 48.6487 23.3873 48.7825 23.8947C48.9164 24.4021 48.9336 24.9332 48.833 25.4482C48.7042 26.5214 48.0173 32.1556 47.7598 33.0786C46.9978 35.4718 45.6027 35.9762 44.5617 35.9762Z" fill="#FA4616"/>
<path d="M34.1625 29.4834L33.4971 27.4443C37.5967 26.1028 38.1226 24.493 38.1226 23.2374C38.1202 23.0783 38.1531 22.9207 38.2191 22.7759C38.5518 22.0783 39.1206 20.8334 39.2923 20.4685C39.5628 19.59 39.6825 18.6719 39.6465 17.7534C39.7154 17.2236 39.6601 16.685 39.485 16.1803C39.3099 15.6755 39.0198 15.2184 38.6377 14.845C38.5822 14.7715 38.511 14.7112 38.4293 14.6685C38.3477 14.6258 38.2576 14.6018 38.1655 14.5982V15.5855C38.1655 17.7319 36.8991 18.8051 35.6757 19.8783C35.2893 20.2002 34.8708 20.5437 34.4737 20.9515C33.4864 21.81 31.7585 23.1515 30.6531 23.1515H29.58V21.0051H30.6531C31.5149 20.5785 32.3102 20.029 33.0142 19.3739C33.4327 18.9661 33.8942 18.5797 34.3127 18.2363C35.4932 17.249 36.0191 16.766 36.0191 15.6392V14.566C36.0187 14.1482 36.1474 13.7404 36.3875 13.3985C36.6276 13.0566 36.9675 12.7972 37.3606 12.6557C37.8688 12.4838 38.4172 12.4708 38.933 12.6185C39.4487 12.7661 39.9072 13.0673 40.2475 13.4821C40.7969 14.0456 41.2192 14.7203 41.4858 15.4608C41.7524 16.2013 41.8571 16.9904 41.7929 17.7748C41.838 18.9016 41.6854 20.0276 41.3421 21.1017C41.1597 21.6705 40.5694 22.9584 40.2689 23.5057C40.0865 27.5409 35.6435 29.0004 34.1625 29.4834Z" fill="#FA4616"/>
<path d="M29.5371 35.9762H24.1711C23.8865 35.9762 23.6135 35.8631 23.4122 35.6619C23.211 35.4606 23.0979 35.1876 23.0979 34.903V19.8783C23.0979 19.5937 23.211 19.3207 23.4122 19.1194C23.6135 18.9182 23.8865 18.8051 24.1711 18.8051H29.5371C29.8217 18.8051 30.0947 18.9182 30.2959 19.1194C30.4972 19.3207 30.6102 19.5937 30.6102 19.8783V34.903C30.6102 35.1876 30.4972 35.4606 30.2959 35.6619C30.0947 35.8631 29.8217 35.9762 29.5371 35.9762ZM25.2443 33.8298H28.4639V20.9515H25.2443V33.8298Z" fill="#FA4616"/>
<path d="M47.7813 50.5608C47.4981 50.5611 47.2176 50.5052 46.9561 50.3966C46.6945 50.2879 46.4571 50.1285 46.2574 49.9277L39.8182 42.4153H19.8783C18.7398 42.4153 17.6479 41.9631 16.8429 41.158C16.0378 40.353 15.5856 39.2611 15.5856 38.1226V11.2928C15.5856 10.1543 16.0378 9.06237 16.8429 8.25732C17.6479 7.45227 18.7398 7 19.8783 7H52.0741C53.2126 7 54.3045 7.45227 55.1095 8.25732C55.9146 9.06237 56.3669 10.1543 56.3669 11.2928V38.1226C56.3669 39.2611 55.9146 40.353 55.1095 41.158C54.3045 41.9631 53.2126 42.4153 52.0741 42.4153H49.9277V48.4145C49.9277 48.84 49.8012 49.256 49.5643 49.6095C49.3273 49.9631 48.9906 50.2382 48.5969 50.3999C48.3377 50.5046 48.0609 50.5593 47.7813 50.5608V50.5608ZM19.8783 9.14638C19.3091 9.14638 18.7631 9.37252 18.3606 9.77504C17.9581 10.1776 17.732 10.7235 17.732 11.2928V38.1226C17.732 38.6918 17.9581 39.2378 18.3606 39.6403C18.7631 40.0428 19.3091 40.2689 19.8783 40.2689H40.7627L47.835 48.4681V40.2689H52.1277C52.697 40.2689 53.2429 40.0428 53.6455 39.6403C54.048 39.2378 54.2741 38.6918 54.2741 38.1226V11.2928C54.2741 10.7235 54.048 10.1776 53.6455 9.77504C53.2429 9.37252 52.697 9.14638 52.1277 9.14638H19.8783Z" fill="#404040"/>
<path d="M14.5016 57C14.2218 57 13.9448 56.9453 13.686 56.839C13.2943 56.6756 12.9599 56.3998 12.725 56.0464C12.49 55.6931 12.3651 55.278 12.366 54.8536V48.8545H11.2928C10.1543 48.8545 9.06237 48.4022 8.25732 47.5972C7.45227 46.7921 7 45.7002 7 44.5617V20.9515C7 19.813 7.45227 18.7211 8.25732 17.916C9.06237 17.111 10.1543 16.6587 11.2928 16.6587H14.5123V18.8051H11.2928C10.7235 18.8051 10.1776 19.0312 9.77505 19.4338C9.37252 19.8363 9.14638 20.3822 9.14638 20.9515V44.5617C9.14638 45.131 9.37252 45.6769 9.77505 46.0794C10.1776 46.482 10.7235 46.7081 11.2928 46.7081H14.5123V54.8536L21.5525 46.7081H32.7566C33.3259 46.7081 33.8718 46.482 34.2743 46.0794C34.6768 45.6769 34.903 45.131 34.903 44.5617V43.4885H37.0494V44.5617C37.0494 45.7002 36.5971 46.7921 35.792 47.5972C34.987 48.4022 33.8951 48.8545 32.7566 48.8545H22.5184L16.0792 56.3132C15.8744 56.5258 15.6296 56.696 15.3589 56.8139C15.0882 56.9317 14.7968 56.995 14.5016 57V57Z" fill="#404040"/>
</svg>
