<svg width="64" height="64" viewBox="0 0 64 64" fill="none" xmlns="http://www.w3.org/2000/svg">
<path d="M43.4352 15.8865H25.6622V18.1081H43.4352V15.8865Z" fill="#FA4616"/>
<path d="M35.6595 20.3297H25.6622V22.5514H35.6595V20.3297Z" fill="#FA4616"/>
<path d="M37.2701 56.9865H24.5513C23.8653 57.0436 23.1764 56.9186 22.5542 56.6241C21.932 56.3295 21.3985 55.876 21.0078 55.3092C20.6524 54.876 20.5746 54.7649 20.1081 54.7649H16.7756V52.5433H20.1081C20.6302 52.5323 21.1466 52.6539 21.6089 52.8967C22.0713 53.1396 22.4645 53.4957 22.7518 53.9318C22.935 54.2337 23.204 54.4743 23.5246 54.6226C23.8451 54.771 24.2025 54.8206 24.5513 54.7649H37.2701C37.5562 54.7322 37.8259 54.614 38.0438 54.4257C38.2618 54.2375 38.418 53.9879 38.492 53.7096V53.5208L40.0471 44.2011C40.1008 43.857 40.08 43.5054 39.9861 43.17C39.8922 42.8346 39.7274 42.5233 39.5028 42.2572C39.2907 42.0029 39.0259 41.7978 38.7267 41.6558C38.4275 41.5139 38.1011 41.4386 37.77 41.4352H34.5486V39.2135H37.7922C38.4469 39.2167 39.0931 39.3625 39.6859 39.6406C40.2786 39.9188 40.8037 40.3227 41.2246 40.8242C41.6581 41.3358 41.9751 41.9357 42.1535 42.5821C42.3318 43.2286 42.3674 43.9061 42.2577 44.5677L40.7136 53.8096C40.6134 54.663 40.2112 55.4524 39.5796 56.0351C38.948 56.6178 38.1288 56.9553 37.2701 56.9865V56.9865Z" fill="#404040"/>
<path d="M28.3614 49.0998L27.395 47.1003C30.172 45.7562 31.2162 44.4121 31.2162 42.1128V40.3243C31.2577 39.7268 31.4122 39.1425 31.6716 38.6026C32.0803 37.752 32.3037 36.8244 32.327 35.8811C32.3235 34.3809 31.7474 32.9386 30.7163 31.8489C30.4674 31.6086 30.1399 31.4666 29.7944 31.449C29.5245 31.4171 29.2509 31.4474 28.9946 31.5378V32.5487C28.9946 37.1363 22.9517 41.4352 21.2189 41.4352H16.7756V39.2135H21.2189C22.052 39.058 26.7729 35.7811 26.7729 32.5487V31.3601C26.7863 30.9096 26.9465 30.4758 27.2293 30.1249C27.512 29.7739 27.9018 29.525 28.3392 29.4162C29.0611 29.1769 29.8374 29.1545 30.5718 29.352C31.3063 29.5494 31.9668 29.958 32.4714 30.527C33.8096 32.0021 34.5502 33.9228 34.5486 35.9144C34.525 37.1471 34.245 38.3615 33.7266 39.4801C33.5959 39.7602 33.499 40.0547 33.4378 40.3577V42.1461C33.4378 46.1117 30.8829 47.889 28.3614 49.0998Z" fill="#404040"/>
<path d="M17.8865 56.9865H9V36.9919H17.8865V56.9865ZM11.2216 54.7649H15.6649V39.2135H11.2216V54.7649Z" fill="#404040"/>
<path d="M46.7454 39.2135C46.4145 39.2117 46.0882 39.1359 45.7903 38.9918C45.4924 38.8476 45.2305 38.6388 45.0236 38.3804L39.614 32.5487H35.6595V30.327H40.5804L46.7676 36.9919V30.327H51.2109C51.5055 30.327 51.788 30.21 51.9963 30.0017C52.2046 29.7934 52.3217 29.5108 52.3217 29.2162V10.3324C52.3217 10.0378 52.2046 9.75529 51.9963 9.54697C51.788 9.33865 51.5055 9.22162 51.2109 9.22162H17.8865C17.5919 9.22162 17.3094 9.33865 17.101 9.54697C16.8927 9.75529 16.7757 10.0378 16.7757 10.3324V29.2162C16.7757 29.5108 16.8927 29.7934 17.101 30.0017C17.3094 30.21 17.5919 30.327 17.8865 30.327H24.5514V32.5487H17.8865C17.0027 32.5487 16.1551 32.1976 15.5301 31.5726C14.9052 30.9477 14.5541 30.1001 14.5541 29.2162V10.3324C14.5541 9.44862 14.9052 8.60101 15.5301 7.97605C16.1551 7.3511 17.0027 7 17.8865 7H51.2109C52.0947 7 52.9423 7.3511 53.5673 7.97605C54.1922 8.60101 54.5433 9.44862 54.5433 10.3324V29.2162C54.5433 30.1001 54.1922 30.9477 53.5673 31.5726C52.9423 32.1976 52.0947 32.5487 51.2109 32.5487H48.9892V36.9919C48.9897 37.459 48.8428 37.9144 48.5696 38.2933C48.2964 38.6722 47.9108 38.9553 47.4674 39.1025C47.2339 39.1765 46.9904 39.2139 46.7454 39.2135Z" fill="#404040"/>
</svg>
