<svg width="64" height="64" viewBox="0 0 64 64" fill="none" xmlns="http://www.w3.org/2000/svg">
<path d="M39.2917 57H22.625C21.7962 57 21.0013 56.6707 20.4153 56.0847C19.8292 55.4986 19.5 54.7038 19.5 53.875V26.7917C19.5 25.9629 19.8292 25.168 20.4153 24.5819C21.0013 23.9959 21.7962 23.6667 22.625 23.6667H25.75V25.75H22.625C22.3487 25.75 22.0838 25.8597 21.8884 26.0551C21.6931 26.2504 21.5833 26.5154 21.5833 26.7917V53.875C21.5833 54.1513 21.6931 54.4162 21.8884 54.6116C22.0838 54.8069 22.3487 54.9167 22.625 54.9167H39.2917C39.5679 54.9167 39.8329 54.8069 40.0282 54.6116C40.2236 54.4162 40.3333 54.1513 40.3333 53.875V38.25H42.4167V53.875C42.4167 54.7038 42.0874 55.4986 41.5014 56.0847C40.9153 56.6707 40.1205 57 39.2917 57V57Z" fill="#FA4616"/>
<path d="M41.375 48.6667H20.5416V50.75H41.375V48.6667Z" fill="#FA4616"/>
<path d="M32 51.7917H28.875V53.875H32V51.7917Z" fill="#FA4616"/>
<path d="M28.8854 27.1042C28.6326 27.1057 28.3817 27.0597 28.1458 26.9687C27.7487 26.8204 27.4063 26.5544 27.1644 26.2064C26.9224 25.8583 26.7924 25.4447 26.7916 25.0208V21.5833C25.9628 21.5833 25.168 21.2541 24.5819 20.668C23.9959 20.082 23.6666 19.2871 23.6666 18.4583V10.125C23.6666 9.2962 23.9959 8.50132 24.5819 7.91527C25.168 7.32922 25.9628 7 26.7916 7H43.4583C44.2871 7 45.082 7.32922 45.668 7.91527C46.2541 8.50132 46.5833 9.2962 46.5833 10.125V16.375H44.5V10.125C44.5 9.84873 44.3902 9.58376 44.1949 9.38841C43.9995 9.19306 43.7346 9.08333 43.4583 9.08333H26.7916C26.5154 9.08333 26.2504 9.19306 26.0551 9.38841C25.8597 9.58376 25.75 9.84873 25.75 10.125V18.4583C25.75 18.7346 25.8597 18.9995 26.0551 19.1949C26.2504 19.3902 26.5154 19.5 26.7916 19.5H28.875V25.0208L33.6041 19.5H36.1666V21.5833H34.5625L30.4895 26.375C30.2917 26.6063 30.0455 26.7915 29.7683 26.9175C29.4912 27.0435 29.1898 27.1072 28.8854 27.1042V27.1042Z" fill="#404040"/>
<path d="M39.3021 37.4583C39.0571 37.4593 38.8137 37.4169 38.5834 37.3333C38.1807 37.1878 37.8327 36.9217 37.5867 36.5712C37.3407 36.2208 37.2086 35.8031 37.2084 35.375V20.5417C37.2084 19.7129 37.5376 18.918 38.1237 18.3319C38.7097 17.7459 39.5046 17.4167 40.3334 17.4167H53.875C54.7038 17.4167 55.4987 17.7459 56.0848 18.3319C56.6708 18.918 57 19.7129 57 20.5417V29.9167C57 30.7455 56.6708 31.5403 56.0848 32.1264C55.4987 32.7124 54.7038 33.0417 53.875 33.0417H43.948L40.9063 36.7083C40.7104 36.9435 40.4651 37.1326 40.1879 37.2622C39.9106 37.3919 39.6082 37.4588 39.3021 37.4583ZM40.3438 19.5C40.0675 19.5 39.8026 19.6097 39.6072 19.8051C39.4119 20.0004 39.3021 20.2654 39.3021 20.5417V35.375L42.9896 30.9583H53.8959C54.1721 30.9583 54.4371 30.8486 54.6324 30.6532C54.8278 30.4579 54.9375 30.1929 54.9375 29.9167V20.5417C54.9375 20.2654 54.8278 20.0004 54.6324 19.8051C54.4371 19.6097 54.1721 19.5 53.8959 19.5H40.3438Z" fill="#404040"/>
<path d="M15.3125 41.2604C14.9828 41.256 14.6589 41.1735 14.3674 41.0196C14.0758 40.8657 13.825 40.6447 13.6354 40.375L10.625 36.2083H10.125C9.2962 36.2083 8.50134 35.8791 7.91529 35.293C7.32924 34.707 7 33.9121 7 33.0833V20.5833C7 19.7545 7.32924 18.9597 7.91529 18.3736C8.50134 17.7876 9.2962 17.4583 10.125 17.4583H22.625V19.5416H10.125C9.84873 19.5416 9.58378 19.6514 9.38843 19.8468C9.19308 20.0421 9.08333 20.307 9.08333 20.5833V33.0833C9.08333 33.3596 9.19308 33.6245 9.38843 33.8199C9.58378 34.0152 9.84873 34.125 10.125 34.125H11.7396L15.375 39.2083V34.0833H18.5V36.1667H17.4583V39.1666C17.4595 39.609 17.3198 40.0404 17.0595 40.3981C16.7992 40.7558 16.4317 41.0213 16.0104 41.1562C15.7842 41.2252 15.549 41.2603 15.3125 41.2604V41.2604Z" fill="#404040"/>
</svg>
