<svg width="64" height="64" viewBox="0 0 64 64" fill="none" xmlns="http://www.w3.org/2000/svg">
<path d="M51.8906 30.3152C51.6427 30.3188 51.4017 30.2338 51.211 30.0755C51.0203 29.9172 50.8923 29.696 50.8502 29.4517C50.1532 25.5192 41.487 25.5191 37.4608 26.133L37.1487 24.0522C37.2736 24.0522 47.4795 22.5437 51.4432 26.341C51.9842 24.0523 52.6604 21.6282 53.2742 19.4226C53.888 17.2171 54.5123 14.9595 54.8244 13.4302C45.3779 11.7968 39.7184 14.7931 38.1787 17.3003L36.3997 16.208C38.0226 13.5551 44.2439 9.16475 56.1664 11.568C56.4281 11.621 56.6594 11.7727 56.8124 11.9915C56.9653 12.2103 57.0283 12.4796 56.9883 12.7436C56.5207 15.1838 55.9234 17.5974 55.1989 19.9741C54.3458 23.0951 53.3887 26.5283 52.8269 29.4309C52.7928 29.662 52.6819 29.8749 52.512 30.0353C52.3422 30.1957 52.1233 30.2944 51.8906 30.3152V30.3152Z" fill="#404040"/>
<path d="M46.6888 32.3959C44.7917 32.3053 42.9189 31.93 41.1333 31.2827L41.8511 29.3268C43.4048 29.9062 45.0344 30.2566 46.6888 30.3672C48.9256 30.3672 50.7254 29.8158 50.8502 29.0979L52.8789 29.5453C52.3379 32.1046 48.3742 32.3959 46.6888 32.3959Z" fill="#404040"/>
<path d="M12.3466 30.4608H12.1801C11.932 30.4232 11.7059 30.2972 11.5434 30.1061C11.3809 29.9149 11.293 29.6714 11.2958 29.4205C11.2334 22.6373 9.02785 17.5917 7.08238 13.1493C7.02802 13.021 7 12.883 7 12.7436C7 12.6042 7.02802 12.4662 7.08238 12.3378C7.1347 12.2091 7.21229 12.0921 7.31057 11.9938C7.40884 11.8955 7.52582 11.818 7.65458 11.7657C16.4144 8.28046 24.165 10.4548 27.6606 13.9608L26.1937 15.4277C23.1975 12.4419 16.5808 10.8502 9.43359 13.347C11.3716 17.4551 12.6462 21.8444 13.2101 26.3515C15.024 24.8716 17.2985 24.0729 19.6395 24.0939C22.1779 24.1961 24.7005 24.5446 27.1717 25.1342L26.6827 27.1629C24.3731 26.5946 22.0148 26.2462 19.6395 26.1226C17.0906 26.1226 14.1048 27.3502 13.3349 29.7118C13.2724 29.9262 13.1425 30.1148 12.9646 30.2497C12.7866 30.3846 12.5699 30.4586 12.3466 30.4608Z" fill="#404040"/>
<path d="M15.8526 32.6248C13.3453 32.6248 11.6912 31.2827 11.327 29.6702L13.3557 29.1708C13.6366 30.3464 15.3012 30.8458 17.3195 30.3568C19.6603 29.7846 21.4809 29.3789 21.4809 29.3789L21.9283 31.4596C21.9283 31.4596 20.118 31.8653 17.7668 32.4271C17.1383 32.5655 16.4961 32.6318 15.8526 32.6248V32.6248Z" fill="#404040"/>
<path d="M29.6061 49.4265C26.4444 49.4902 23.2972 48.9827 20.3157 47.9284C20.1772 47.8751 20.0517 47.7927 19.9476 47.6868C19.8435 47.5809 19.7633 47.454 19.7123 47.3146C19.6617 47.1761 19.6411 47.0284 19.6518 46.8813C19.6626 46.7343 19.7045 46.5911 19.7748 46.4615C22.126 42.1336 25.3199 35.7562 25.8921 30.2007L27.9728 30.4192C27.411 35.8811 24.55 41.9464 22.1884 46.3679C26.1121 47.3674 30.1907 47.6076 34.2045 47.0753C33.901 41.8839 33.2054 36.7229 32.1238 31.6364L34.1317 31.0642C35.3003 36.6413 35.9963 42.3071 36.2124 48.0013C36.2149 48.2537 36.1255 48.4984 35.9609 48.6898C35.7963 48.8812 35.5677 49.0063 35.3177 49.0416C33.4238 49.2896 31.5162 49.4181 29.6061 49.4265V49.4265Z" fill="#404040"/>
<path d="M32.363 54.2954C32.1787 54.2951 31.9977 54.2458 31.8387 54.1525C31.6797 54.0593 31.5482 53.9255 31.4579 53.7648C30.5132 52.0829 29.9286 50.2229 29.7413 48.3029L31.822 48.0741C31.9571 49.4784 32.3374 50.8481 32.9456 52.121C36.8705 51.3001 40.6321 49.8341 44.0774 47.7828C40.4362 43.5069 36.2123 34.1749 36.2852 30.2424L38.3659 30.2944C38.2931 33.9668 43.0059 43.9335 46.3766 47.2106C46.4827 47.3142 46.5655 47.4392 46.6193 47.5773C46.6731 47.7155 46.6968 47.8636 46.6887 48.0116C46.682 48.1608 46.6431 48.3068 46.5749 48.4397C46.5067 48.5725 46.4107 48.6891 46.2934 48.7815C42.8186 51.4656 35.6297 53.9105 32.4671 54.2434L32.363 54.2954Z" fill="#404040"/>
<path d="M37.9394 22.8142L36.7222 21.1184C38.7483 19.7398 41.1192 18.9543 43.5677 18.8504V20.9312C41.5547 21.0322 39.6079 21.6835 37.9394 22.8142V22.8142Z" fill="#404040"/>
<path d="M27.3485 22.8142C25.6881 21.6687 23.736 21.0192 21.7202 20.9416V18.8609C24.184 18.9334 26.572 19.7294 28.5866 21.1497L27.3485 22.8142Z" fill="#404040"/>
<path d="M32.4461 29.3477C30.3966 29.3551 28.3674 28.9408 26.4849 28.1304C26.236 28.015 26.0428 27.8059 25.9474 27.5487C25.8519 27.2915 25.8619 27.007 25.9751 26.7571C27.286 23.8753 27.5669 17.4667 26.0479 15.1155C25.9566 14.9574 25.9086 14.778 25.9086 14.5954C25.9086 14.4127 25.9566 14.2333 26.0479 14.0752C27.286 11.724 31.1145 10.8709 33.9547 11.4327C36.5451 11.9425 38.2097 13.5134 38.4074 15.6565C38.605 17.7997 39.1356 25.2694 37.1485 27.8391C36.2746 28.9107 34.4436 29.3477 32.4461 29.3477ZM28.2847 26.6011C31.1145 27.5686 34.8598 27.3606 35.484 26.6011C36.4515 25.3631 36.7948 20.9519 36.3163 15.8958C36.1602 14.2728 34.506 13.7111 33.5385 13.5134C31.4578 13.1181 29.1482 13.659 28.1703 14.6682C29.6476 17.7372 29.3043 23.3656 28.2639 26.6011H28.2847Z" fill="#FA4616"/>
</svg>
