<svg width="64" height="64" viewBox="0 0 64 64" fill="none" xmlns="http://www.w3.org/2000/svg">
<path d="M45.1667 57H19.125C18.2962 57 17.5013 56.6708 16.9153 56.0847C16.3292 55.4987 16 54.7038 16 53.875V18.4583C16 17.6295 16.3292 16.8347 16.9153 16.2487C17.5013 15.6626 18.2962 15.3333 19.125 15.3333H26.4167V17.4167H19.125C18.8487 17.4167 18.5838 17.5264 18.3884 17.7218C18.1931 17.9171 18.0833 18.1821 18.0833 18.4583V53.875C18.0833 54.1513 18.1931 54.4163 18.3884 54.6116C18.5838 54.807 18.8487 54.9167 19.125 54.9167H45.1667C45.4429 54.9167 45.7079 54.807 45.9032 54.6116C46.0986 54.4163 46.2083 54.1513 46.2083 53.875V18.4583C46.2083 18.1821 46.0986 17.9171 45.9032 17.7218C45.7079 17.5264 45.4429 17.4167 45.1667 17.4167H37.875V15.3333H45.1667C45.9955 15.3333 46.7903 15.6626 47.3764 16.2487C47.9624 16.8347 48.2917 17.6295 48.2917 18.4583V53.875C48.2917 54.7038 47.9624 55.4987 47.3764 56.0847C46.7903 56.6708 45.9955 57 45.1667 57Z" fill="#404040"/>
<path d="M26.2084 44.5H23.5L21.2396 34.3125L23.2709 33.8542L24.8542 41L26.448 33.8542L28.4792 34.3125L26.2084 44.5Z" fill="#FA4616"/>
<path d="M33.7083 34.0833H31.625V43.4583H33.7083V34.0833Z" fill="#FA4616"/>
<path d="M34.75 42.4167H30.5834V44.5H34.75V42.4167Z" fill="#FA4616"/>
<path d="M34.75 33.0417H30.5834V35.125H34.75V33.0417Z" fill="#FA4616"/>
<path d="M37.875 33.0417H35.7916V35.125H37.875V33.0417Z" fill="#FA4616"/>
<path d="M41 40.3333H36.8334V33.0417H41C41.8723 33.1739 42.6682 33.6145 43.2433 34.2834C43.8185 34.9524 44.1348 35.8053 44.1348 36.6875C44.1348 37.5697 43.8185 38.4227 43.2433 39.0916C42.6682 39.7605 41.8723 40.2011 41 40.3333V40.3333ZM38.9167 38.25H41C41.5521 38.25 42.0417 37.5208 42.0417 36.6875C42.0417 35.8542 41.5521 35.125 41 35.125H38.9167V38.25Z" fill="#FA4616"/>
<path d="M38.9167 39.2917H36.8334V43.4583H38.9167V39.2917Z" fill="#FA4616"/>
<path d="M24.3333 33.0417H20.1666V35.125H24.3333V33.0417Z" fill="#FA4616"/>
<path d="M29.5417 33.0417H25.375V35.125H29.5417V33.0417Z" fill="#FA4616"/>
<path d="M39.9583 42.4167H35.7916V44.5H39.9583V42.4167Z" fill="#FA4616"/>
<path d="M36.8334 22.625H34.75V9.08333H29.5417V22.625H27.4584V7H36.8334V22.625Z" fill="#404040"/>
<path d="M39.9584 23.6667H24.3334V20.5417H26.4167V21.5833H37.875V20.5417H39.9584V23.6667Z" fill="#404040"/>
</svg>
