<svg width="64" height="64" viewBox="0 0 64 64" fill="none" xmlns="http://www.w3.org/2000/svg">
<path d="M40.3189 36.5579C40.0462 36.5599 39.7828 36.4591 39.5809 36.2757L35.8366 32.7919H33.9048C32.8001 33.5582 31.6134 34.1988 30.3667 34.702C29.3215 35.087 28.1855 35.1522 27.1031 34.8893C26.0208 34.6265 25.0412 34.0475 24.289 33.226C24.0901 33.0231 23.9788 32.7504 23.9788 32.4663C23.9788 32.1822 24.0901 31.9095 24.289 31.7066C25.9061 30.0026 27.5449 28.3638 27.5449 28.3638L30.6489 25.2273C31.4513 24.5263 32.4811 24.1406 33.5467 24.142H41.7732C43.0586 24.1391 44.3161 24.5168 45.3873 25.2273L45.9083 25.5746C46.622 26.0495 47.4603 26.3026 48.3176 26.3017H55.9148C56.2026 26.3017 56.4787 26.4161 56.6822 26.6196C56.8857 26.8231 57.0001 27.0992 57.0001 27.387C57.0001 27.6749 56.8857 27.9509 56.6822 28.1545C56.4787 28.358 56.2026 28.4724 55.9148 28.4724H48.3176C47.0322 28.4752 45.7748 28.0976 44.7036 27.387L44.1826 27.0397C43.4689 26.5648 42.6306 26.3118 41.7732 26.3126H33.5467C33.0279 26.3156 32.5274 26.5042 32.1357 26.8444L28.9884 29.8615C28.9884 29.8615 27.903 30.9468 26.6007 32.3252C27.0439 32.6057 27.5469 32.7784 28.069 32.8293C28.5911 32.8802 29.1179 32.8079 29.607 32.6182C30.7569 32.1338 31.849 31.5222 32.8629 30.7949C33.0461 30.6622 33.2662 30.5902 33.4924 30.5887H36.2491C36.527 30.5869 36.795 30.6918 36.9979 30.8817L41.0461 34.6477C41.2556 34.8438 41.3789 35.1149 41.3891 35.4017C41.3993 35.6884 41.2955 35.9676 41.1004 36.178C41.0033 36.2918 40.8838 36.3842 40.7493 36.4496C40.6148 36.5149 40.4683 36.5518 40.3189 36.5579Z" fill="#404040"/>
<path d="M47.5688 43.8728C47.3541 43.8719 47.1446 43.8074 46.9666 43.6874C46.7886 43.5674 46.6502 43.3973 46.5689 43.1987C46.4876 43 46.467 42.7817 46.5098 42.5714C46.5525 42.361 46.6567 42.1681 46.8091 42.0169C47.4315 41.4432 48.1646 41.0029 48.9634 40.7229C49.7622 40.443 50.6098 40.3293 51.4542 40.389C51.742 40.389 52.0181 40.5033 52.2216 40.7069C52.4251 40.9104 52.5395 41.1865 52.5395 41.4743C52.5395 41.7621 52.4251 42.0382 52.2216 42.2417C52.0181 42.4452 51.742 42.5596 51.4542 42.5596C50.894 42.4975 50.3269 42.5543 49.7902 42.7263C49.2534 42.8984 48.759 43.1818 48.3393 43.5581C48.2379 43.6587 48.1177 43.7383 47.9854 43.7923C47.8532 43.8463 47.7116 43.8736 47.5688 43.8728Z" fill="#404040"/>
<path d="M45.8431 47.5629C45.0455 47.5305 44.2815 47.2325 43.6725 46.7163C42.0663 45.3488 37.215 40.7037 37.0088 40.5084C36.907 40.4075 36.8263 40.2875 36.7712 40.1552C36.7161 40.023 36.6877 39.8811 36.6877 39.7378C36.6877 39.5945 36.7161 39.4527 36.7712 39.3204C36.8263 39.1882 36.907 39.0682 37.0088 38.9673C37.2121 38.7651 37.4872 38.6517 37.7739 38.6517C38.0606 38.6517 38.3357 38.7651 38.539 38.9673C38.5933 38.9673 43.5531 43.7752 45.0509 45.0667C45.1581 45.1794 45.2883 45.2678 45.4327 45.3258C45.5771 45.3838 45.7322 45.4101 45.8876 45.4029C46.0431 45.3957 46.1951 45.3552 46.3335 45.284C46.4719 45.2129 46.5934 45.1129 46.6897 44.9907C47.037 44.5783 47.1889 43.9054 46.8633 43.6449C45.2137 42.2232 39.7654 36.5036 39.5267 36.254C39.3281 36.0453 39.2205 35.7663 39.2276 35.4783C39.2347 35.1903 39.356 34.9169 39.5647 34.7183C39.7733 34.5197 40.0524 34.4121 40.3404 34.4192C40.6284 34.4263 40.9018 34.5476 41.1004 34.7563C41.1546 34.8214 46.7114 40.6495 48.2851 41.9952C48.8543 42.5692 49.1808 43.3403 49.197 44.1485C49.2131 44.9567 48.9177 45.7401 48.3719 46.3365C48.0687 46.7168 47.6843 47.0243 47.2467 47.2365C46.8091 47.4488 46.3295 47.5603 45.8431 47.5629V47.5629Z" fill="#404040"/>
<path d="M41.9251 49.9722C41.0636 49.9544 40.232 49.653 39.5591 49.1148C37.942 47.7365 34.7946 44.7736 34.6644 44.6217C34.5489 44.5273 34.4542 44.4102 34.386 44.2776C34.3178 44.145 34.2777 43.9998 34.2681 43.8511C34.2585 43.7023 34.2797 43.5531 34.3303 43.4129C34.381 43.2726 34.4599 43.1443 34.5623 43.036C34.6647 42.9276 34.7883 42.8415 34.9254 42.783C35.0626 42.7245 35.2103 42.6949 35.3594 42.6961C35.5085 42.6972 35.6557 42.729 35.7919 42.7896C35.9282 42.8501 36.0505 42.9381 36.1512 43.048C36.1512 43.048 39.4071 46.1194 40.9157 47.3892C41.0915 47.5502 41.3044 47.6653 41.5354 47.724C41.7665 47.7827 42.0085 47.7832 42.2398 47.7256C42.6558 47.5496 43.033 47.2931 43.3496 46.9709C43.6662 46.6487 43.9161 46.2671 44.0848 45.8481C44.1971 45.5818 44.4105 45.3711 44.6781 45.2622C44.9458 45.1533 45.2457 45.1552 45.512 45.2674C45.7782 45.3797 45.989 45.5931 46.0979 45.8608C46.2067 46.1284 46.2049 46.4284 46.0926 46.6946C45.7982 47.414 45.3563 48.0638 44.7956 48.6022C44.2348 49.1405 43.5675 49.5555 42.8367 49.8203C42.5408 49.9108 42.2343 49.9619 41.9251 49.9722V49.9722Z" fill="#404040"/>
<path d="M38.0398 52.2948C37.1542 52.2784 36.3005 51.9606 35.6196 51.394C34.3389 50.3846 32.4614 48.4637 32.3637 48.3877C32.2639 48.2858 32.1852 48.1652 32.132 48.0329C32.0789 47.9006 32.0523 47.7591 32.0538 47.6165C32.0553 47.4739 32.0849 47.3329 32.1408 47.2018C32.1968 47.0706 32.2781 46.9517 32.38 46.852C32.4819 46.7522 32.6024 46.6735 32.7348 46.6203C32.8671 46.5671 33.0086 46.5405 33.1512 46.5421C33.2938 46.5436 33.4347 46.5732 33.5659 46.6291C33.697 46.6851 33.8159 46.7664 33.9157 46.8683C34.8757 47.8604 35.8864 48.8023 36.9437 49.69C37.1274 49.8579 37.3472 49.9814 37.5862 50.051C37.8251 50.1206 38.0769 50.1345 38.322 50.0916C38.738 49.9385 39.1167 49.6987 39.4329 49.3881C39.7491 49.0775 39.9957 48.7032 40.1562 48.29C40.2169 48.1579 40.3034 48.0394 40.4108 47.9414C40.5181 47.8434 40.644 47.768 40.7811 47.7196C40.9181 47.6712 41.0635 47.6509 41.2086 47.6597C41.3536 47.6686 41.4955 47.7065 41.6256 47.7712C41.7557 47.8359 41.8716 47.9261 41.9662 48.0364C42.0608 48.1467 42.1323 48.2749 42.1765 48.4134C42.2206 48.5519 42.2365 48.6978 42.2232 48.8425C42.2098 48.9873 42.1676 49.1278 42.0989 49.2559C41.8072 49.9575 41.3641 50.5859 40.8013 51.0963C40.2384 51.6066 39.5697 51.9862 38.843 52.2079C38.5791 52.2651 38.3099 52.2942 38.0398 52.2948V52.2948Z" fill="#404040"/>
<path d="M33.9806 54.1398C33.3309 54.1416 32.6944 53.957 32.1464 53.608C31.2131 53.0328 29.6177 51.8715 29.5525 51.8173C29.4377 51.7326 29.3407 51.626 29.267 51.5038C29.1934 51.3815 29.1446 51.2459 29.1235 51.1048C29.1023 50.9637 29.1091 50.8198 29.1437 50.6813C29.1782 50.5428 29.2397 50.4125 29.3246 50.2978C29.4955 50.069 29.7497 49.9167 30.0321 49.8741C30.3145 49.8314 30.6024 49.9018 30.8332 50.0699C30.8332 50.0699 32.4286 51.2312 33.286 51.7739C33.4576 51.8812 33.6514 51.9477 33.8528 51.9684C34.0541 51.9891 34.2575 51.9634 34.4473 51.8932C34.7691 51.7755 35.0623 51.5908 35.3074 51.3513C35.5525 51.1118 35.7439 50.823 35.869 50.504C35.9225 50.3715 36.0015 50.2508 36.1016 50.1488C36.2017 50.0468 36.3209 49.9655 36.4525 49.9095C36.584 49.8536 36.7252 49.8241 36.8681 49.8228C37.011 49.8214 37.1528 49.8483 37.2853 49.9017C37.4179 49.9551 37.5386 50.0342 37.6406 50.1343C37.7426 50.2344 37.8239 50.3536 37.8799 50.4851C37.9358 50.6166 37.9653 50.7579 37.9666 50.9008C37.9679 51.0437 37.9412 51.1855 37.8877 51.318C37.6436 51.931 37.2699 52.4841 36.7923 52.9392C36.3146 53.3944 35.7442 53.741 35.1202 53.9553C34.7532 54.0798 34.3681 54.1421 33.9806 54.1398V54.1398Z" fill="#404040"/>
<path d="M16.5398 28.4506H8.0853C7.79746 28.4506 7.52143 28.3363 7.31789 28.1328C7.11436 27.9292 7 27.6532 7 27.3653C7 27.0775 7.11436 26.8014 7.31789 26.5979C7.52143 26.3944 7.79746 26.28 8.0853 26.28H16.5398C17.1844 26.2825 17.8152 26.0937 18.3523 25.7374L19.4376 25.0211C20.331 24.4254 21.381 24.1081 22.4548 24.1094H28.7821C29.5052 24.1093 30.2078 24.3498 30.779 24.7931L31.6581 25.3792C31.7764 25.4597 31.8777 25.5628 31.9562 25.6824C32.0347 25.8021 32.0888 25.9361 32.1155 26.0766C32.1422 26.2172 32.1409 26.3617 32.1118 26.5018C32.0827 26.6419 32.0263 26.7749 31.9457 26.8932C31.8652 27.0115 31.7622 27.1128 31.6425 27.1913C31.5229 27.2697 31.3889 27.3239 31.2483 27.3506C31.1077 27.3773 30.9633 27.3761 30.8231 27.3469C30.683 27.3178 30.55 27.2613 30.4317 27.1808L29.4984 26.5405C29.2937 26.3791 29.0426 26.2878 28.7821 26.28H22.4548C21.8091 26.2807 21.1782 26.4734 20.6423 26.8335L19.557 27.539C18.6636 28.1347 17.6136 28.452 16.5398 28.4506V28.4506Z" fill="#404040"/>
<path d="M17.6794 47.2264H17.6252C17.0208 47.2162 16.433 47.0274 15.9359 46.6836C15.4388 46.3399 15.0545 45.8566 14.8317 45.2948C14.6088 44.733 14.5572 44.1178 14.6835 43.5267C14.8098 42.9356 15.1083 42.3952 15.5414 41.9735L16.6267 40.8882C16.9108 40.6048 17.25 40.3825 17.6233 40.235C17.9966 40.0876 18.3961 40.0181 18.7973 40.0308C19.2034 40.0317 19.6051 40.1149 19.9781 40.2753C20.3512 40.4357 20.6879 40.6701 20.9679 40.9642C21.2578 41.2243 21.4913 41.5411 21.6542 41.8949C21.8171 42.2487 21.9058 42.632 21.915 43.0214C21.9241 43.4108 21.8535 43.7979 21.7074 44.159C21.5613 44.5201 21.3429 44.8474 21.0656 45.1209C20.8966 45.0917 20.7231 45.1029 20.5593 45.1536C20.3955 45.2044 20.246 45.2932 20.1232 45.4129C20.0004 45.5326 19.9076 45.6796 19.8526 45.842C19.7976 46.0045 19.7818 46.1776 19.8066 46.3473C19.2403 46.9079 18.4763 47.2236 17.6794 47.2264ZM18.7647 42.2231C18.652 42.2228 18.5403 42.2446 18.436 42.2874C18.3317 42.3302 18.2369 42.3932 18.157 42.4727L17.0716 43.5581C16.9893 43.6398 16.9239 43.737 16.8793 43.8441C16.8347 43.9512 16.8118 44.0661 16.8118 44.1821C16.8118 44.2981 16.8347 44.413 16.8793 44.5201C16.9239 44.6272 16.9893 44.7244 17.0716 44.8061C17.1502 44.8919 17.2458 44.9604 17.3523 45.0071C17.4589 45.0538 17.574 45.0778 17.6903 45.0775C17.9267 45.0736 18.1539 44.9851 18.3306 44.8279C18.4988 44.8552 18.671 44.8425 18.8334 44.7909C18.9957 44.7393 19.1437 44.6501 19.2652 44.5307C19.3867 44.4113 19.4784 44.265 19.5329 44.1035C19.5874 43.9421 19.6031 43.7701 19.5787 43.6015C20.0128 43.1782 19.5787 42.6681 19.4485 42.5162C19.3692 42.4276 19.2723 42.3567 19.1638 42.308C19.0553 42.2594 18.9379 42.2342 18.819 42.234L18.7647 42.2231Z" fill="#404040"/>
<path d="M20.1756 50.2544H20.1213C19.5179 50.2422 18.9316 50.0518 18.4361 49.7072C17.9406 49.3627 17.558 48.8793 17.3365 48.3179C17.1149 47.7565 17.0643 47.1422 17.191 46.5521C17.3177 45.962 17.616 45.4225 18.0484 45.0015L21.3043 41.8541C21.5885 41.5707 21.9276 41.3484 22.3009 41.2009C22.6742 41.0535 23.0738 40.984 23.4749 40.9968C23.881 40.9977 24.2827 41.0808 24.6558 41.2413C25.0288 41.4017 25.3655 41.636 25.6456 41.9301C25.9275 42.2188 26.1495 42.5604 26.2989 42.9353C26.4483 43.3101 26.5221 43.7108 26.516 44.1143C26.51 44.5177 26.4242 44.916 26.2636 45.2862C26.1031 45.6564 25.8709 45.9912 25.5804 46.2713L22.3245 49.397C21.7499 49.956 20.9772 50.2643 20.1756 50.2544V50.2544ZM23.4315 43.1674C23.3188 43.167 23.2071 43.1888 23.1028 43.2317C22.9985 43.2745 22.9037 43.3374 22.8238 43.417L19.5678 46.5644C19.4041 46.7308 19.3124 46.9549 19.3124 47.1884C19.3124 47.4219 19.4041 47.646 19.5678 47.8125C19.6485 47.8986 19.746 47.9671 19.8543 48.0138C19.9626 48.0605 20.0794 48.0843 20.1973 48.0838C20.4304 48.0793 20.654 47.9906 20.8268 47.8342L24.0827 44.6976C24.2439 44.5299 24.3339 44.3062 24.3339 44.0736C24.3339 43.8409 24.2439 43.6173 24.0827 43.4495V43.4495C24.0018 43.363 23.9045 43.2934 23.7964 43.245C23.6883 43.1965 23.5716 43.1701 23.4532 43.1674H23.4315Z" fill="#404040"/>
<path d="M23.4642 52.5661H23.3773C22.7744 52.5498 22.1898 52.3557 21.6968 52.0081C21.2038 51.6606 20.8245 51.1752 20.6065 50.6128C20.3886 50.0505 20.3416 49.4362 20.4715 48.8473C20.6015 48.2583 20.9026 47.7208 21.337 47.3024C21.4379 47.2007 21.5579 47.1199 21.6902 47.0648C21.8224 47.0097 21.9643 46.9814 22.1076 46.9814C22.2508 46.9814 22.3927 47.0097 22.5249 47.0648C22.6572 47.1199 22.7772 47.2007 22.8781 47.3024C23.0802 47.5057 23.1937 47.7808 23.1937 48.0675C23.1937 48.3542 23.0802 48.6293 22.8781 48.8327C22.7954 48.9153 22.7298 49.0135 22.685 49.1215C22.6403 49.2295 22.6172 49.3452 22.6172 49.4621C22.6172 49.5791 22.6403 49.6948 22.685 49.8028C22.7298 49.9108 22.7954 50.009 22.8781 50.0916C22.9567 50.1774 23.0523 50.2459 23.1588 50.2926C23.2653 50.3393 23.3804 50.3633 23.4967 50.363C23.7333 50.3706 23.9633 50.2848 24.1371 50.1242L27.0782 47.2481C27.1609 47.1655 27.2265 47.0673 27.2713 46.9593C27.3161 46.8513 27.3391 46.7356 27.3391 46.6187C27.3391 46.5017 27.3161 46.386 27.2713 46.278C27.2265 46.17 27.1609 46.0718 27.0782 45.9892C27.0011 45.9009 26.906 45.83 26.7994 45.7814C26.6927 45.7327 26.5769 45.7074 26.4596 45.707C26.3441 45.7029 26.2289 45.7219 26.1208 45.7629C26.0127 45.8039 25.9139 45.8661 25.8301 45.9458C25.6268 46.1479 25.3517 46.2613 25.065 46.2613C24.7783 46.2613 24.5032 46.1479 24.2999 45.9458C24.1981 45.8449 24.1174 45.7248 24.0623 45.5926C24.0072 45.4603 23.9788 45.3185 23.9788 45.1752C23.9788 45.0319 24.0072 44.8901 24.0623 44.7578C24.1174 44.6256 24.1981 44.5055 24.2999 44.4046C24.5913 44.1274 24.9345 43.9103 25.3099 43.7658C25.6852 43.6212 26.0854 43.552 26.4875 43.5621C26.8896 43.5721 27.2858 43.6613 27.6535 43.8245C28.0211 43.9877 28.353 44.2217 28.6302 44.5132C28.9075 44.8046 29.1245 45.1478 29.2691 45.5232C29.4137 45.8985 29.4829 46.2987 29.4728 46.7008C29.4627 47.1029 29.3735 47.4991 29.2104 47.8668C29.0472 48.2344 28.8132 48.5663 28.5217 48.8435L25.5805 51.7087C25.014 52.2598 24.2545 52.5675 23.4642 52.5661V52.5661Z" fill="#404040"/>
<path d="M27.5991 54.0421C26.9897 54.0469 26.3926 53.8696 25.8846 53.533C25.3765 53.1964 24.9805 52.7157 24.7474 52.1526C24.5142 51.5894 24.4545 50.9695 24.5758 50.3723C24.6972 49.775 24.9941 49.2276 25.4285 48.8001C25.5618 48.6702 25.7262 48.5768 25.906 48.5288C25.9613 48.3529 26.0581 48.1928 26.1882 48.0621C26.7722 47.5028 27.5502 47.1916 28.3588 47.1939C28.9627 47.2019 29.5508 47.3885 30.0489 47.7301C30.547 48.0717 30.9328 48.553 31.1579 49.1134C31.3831 49.6739 31.4373 50.2884 31.3139 50.8796C31.1905 51.4708 30.8948 52.0123 30.4643 52.4359L29.7155 53.1739C29.1475 53.7241 28.3898 54.0349 27.5991 54.0421V54.0421ZM27.2518 49.8854C27.199 50.0625 27.1019 50.2231 26.9696 50.3521C26.8059 50.5186 26.7142 50.7427 26.7142 50.9761C26.7142 51.2096 26.8059 51.4337 26.9696 51.6002C27.0515 51.6842 27.1494 51.751 27.2575 51.7966C27.3656 51.8422 27.4818 51.8656 27.5991 51.8656C27.7164 51.8656 27.8326 51.8422 27.9407 51.7966C28.0488 51.751 28.1467 51.6842 28.2286 51.6002L28.9883 50.873C29.147 50.704 29.2354 50.4809 29.2354 50.249C29.2354 50.0171 29.147 49.794 28.9883 49.6249C28.8211 49.457 28.5957 49.3598 28.3588 49.3536C28.2423 49.349 28.1261 49.3688 28.0177 49.4118C27.9092 49.4548 27.811 49.52 27.7293 49.6032C27.5996 49.74 27.4342 49.8378 27.2518 49.8854V49.8854Z" fill="#404040"/>
<path d="M43.3253 37.7409C42.149 37.7538 41.0025 37.3717 40.0693 36.6555L39.7003 36.4168C39.5688 36.3468 39.453 36.2504 39.3603 36.1337C39.2676 36.017 39.1999 35.8825 39.1615 35.7385C39.123 35.5945 39.1147 35.4441 39.1369 35.2968C39.1591 35.1494 39.2114 35.0082 39.2906 34.8819C39.3698 34.7557 39.4742 34.6471 39.5972 34.5629C39.7202 34.4787 39.8592 34.4208 40.0056 34.3927C40.1519 34.3646 40.3025 34.367 40.4479 34.3997C40.5934 34.4323 40.7305 34.4946 40.8508 34.5826L41.2415 34.8322C41.7142 35.217 42.2778 35.474 42.8783 35.5785C43.4788 35.683 44.0961 35.6316 44.6711 35.4291C44.9516 35.3712 45.2436 35.4266 45.4835 35.5831C45.7234 35.7397 45.8917 35.9847 45.9517 36.2648C45.982 36.4045 45.9843 36.5488 45.9587 36.6894C45.933 36.83 45.8799 36.9642 45.8022 37.0842C45.7246 37.2042 45.624 37.3077 45.5062 37.3887C45.3884 37.4697 45.2558 37.5267 45.116 37.5563C44.5262 37.6736 43.9266 37.7354 43.3253 37.7409V37.7409Z" fill="#404040"/>
<path d="M16.2143 43.8837C15.9348 43.8826 15.6666 43.7737 15.4654 43.5798C14.5868 42.8982 13.494 42.5518 12.3832 42.603C12.0953 42.603 11.8192 42.4887 11.6157 42.2851C11.4122 42.0816 11.2979 41.8055 11.2979 41.5177C11.2979 41.2298 11.4122 40.9538 11.6157 40.7503C11.8192 40.5467 12.0953 40.4324 12.3832 40.4324C14.0535 40.3744 15.6858 40.9392 16.9631 42.0169C17.1653 42.2203 17.2787 42.4953 17.2787 42.7821C17.2787 43.0688 17.1653 43.3438 16.9631 43.5472C16.7672 43.7531 16.4983 43.8739 16.2143 43.8837Z" fill="#404040"/>
<path d="M31.9187 17.5976H28.6628C28.375 17.5976 28.0989 17.4832 27.8954 17.2797C27.6918 17.0762 27.5775 16.8001 27.5775 16.5123V11.0858C27.5775 10.7979 27.6918 10.5219 27.8954 10.3183C28.0989 10.1148 28.375 10.0005 28.6628 10.0005H31.9187C32.7823 10.0005 33.6104 10.3435 34.221 10.9541C34.8316 11.5647 35.1746 12.3929 35.1746 13.2564V14.3417C35.1746 15.2052 34.8316 16.0333 34.221 16.6439C33.6104 17.2545 32.7823 17.5976 31.9187 17.5976V17.5976ZM29.7481 15.427H31.9187C32.2066 15.427 32.4826 15.3126 32.6861 15.1091C32.8897 14.9056 33.004 14.6295 33.004 14.3417V13.2564C33.004 12.9685 32.8897 12.6925 32.6861 12.4889C32.4826 12.2854 32.2066 12.1711 31.9187 12.1711H29.7481V15.427Z" fill="#404040"/>
<path d="M35.1746 21.9388H33.004V19.7682C33.004 19.1925 32.7754 18.6404 32.3683 18.2334C31.9612 17.8263 31.4091 17.5976 30.8334 17.5976H29.7481V21.9388H27.5775V16.5123C27.5775 16.2245 27.6918 15.9484 27.8954 15.7448C28.0989 15.5413 28.375 15.427 28.6628 15.427H30.8334C31.9848 15.427 33.089 15.8844 33.9031 16.6985C34.7172 17.5126 35.1746 18.6168 35.1746 19.7682V21.9388Z" fill="#404040"/>
<path d="M22.1509 21.9388H21.0656C20.2021 21.9388 19.3739 21.5958 18.7633 20.9852C18.1527 20.3746 17.8097 19.5464 17.8097 18.6829V13.2564C17.8097 12.3928 18.1527 11.5647 18.7633 10.9541C19.3739 10.3435 20.2021 10.0005 21.0656 10.0005H22.1509C23.0144 10.0005 23.8426 10.3435 24.4532 10.9541C25.0638 11.5647 25.4068 12.3928 25.4068 13.2564V14.3417H23.2362V13.2564C23.2362 12.9685 23.1219 12.6925 22.9183 12.4889C22.7148 12.2854 22.4388 12.1711 22.1509 12.1711H21.0656C20.7778 12.1711 20.5017 12.2854 20.2982 12.4889C20.0946 12.6925 19.9803 12.9685 19.9803 13.2564V18.6829C19.9803 18.9707 20.0946 19.2468 20.2982 19.4503C20.5017 19.6538 20.7778 19.7682 21.0656 19.7682H22.1509C22.4388 19.7682 22.7148 19.6538 22.9183 19.4503C23.1219 19.2468 23.2362 18.9707 23.2362 18.6829V17.5976H25.4068V18.6829C25.4068 19.5464 25.0638 20.3746 24.4532 20.9852C23.8426 21.5958 23.0144 21.9388 22.1509 21.9388V21.9388Z" fill="#404040"/>
<path d="M46.0276 21.9388H43.857V15.5572L42.7717 20.0287C42.717 20.2684 42.5825 20.4825 42.3903 20.6359C42.1981 20.7893 41.9594 20.8728 41.7135 20.8728C41.4676 20.8728 41.2289 20.7893 41.0367 20.6359C40.8444 20.4825 40.71 20.2684 40.6553 20.0287L39.57 15.5572V21.9388H37.3994V11.0858C37.3994 10.7979 37.5137 10.5219 37.7173 10.3183C37.9208 10.1148 38.1969 10.0005 38.4847 10.0005H39.57C39.8179 9.99324 40.0609 10.0711 40.2583 10.2212C40.4558 10.3713 40.5959 10.5845 40.6553 10.8253L41.7406 15.2967L42.8259 10.8253C42.8854 10.5845 43.0255 10.3713 43.2229 10.2212C43.4204 10.0711 43.6633 9.99324 43.9112 10.0005H44.9965C45.2844 10.0005 45.5604 10.1148 45.764 10.3183C45.9675 10.5219 46.0819 10.7979 46.0819 11.0858L46.0276 21.9388Z" fill="#404040"/>
</svg>
