<svg width="64" height="64" viewBox="0 0 64 64" fill="none" xmlns="http://www.w3.org/2000/svg">
<path d="M32.2212 43.4422C31.3317 43.445 30.4505 43.2716 29.6284 42.932C28.8063 42.5924 28.0595 42.0934 27.4312 41.4638C26.9976 41.0271 26.4816 40.6808 25.9132 40.4449C25.3448 40.209 24.7353 40.0881 24.1199 40.0892C22.3248 40.0892 20.6032 39.3761 19.3339 38.1068C18.0645 36.8375 17.3514 35.1159 17.3514 33.3208C17.3526 32.7054 17.2317 32.0958 16.9958 31.5275C16.7598 30.9591 16.4135 30.4431 15.9769 30.0094C14.7109 28.7388 14 27.0183 14 25.2246C14 23.431 14.7109 21.7104 15.9769 20.4398C16.4135 20.0062 16.7598 19.4902 16.9958 18.9218C17.2317 18.3534 17.3526 17.7439 17.3514 17.1285C17.3514 15.3334 18.0645 13.6118 19.3339 12.3425C20.6032 11.0731 22.3248 10.36 24.1199 10.36C24.7353 10.3612 25.3448 10.2403 25.9132 10.0044C26.4816 9.76846 26.9976 9.42215 27.4312 8.98551C28.059 8.35613 28.8048 7.85678 29.6258 7.51608C30.4469 7.17537 31.3271 7 32.216 7C33.105 7 33.9852 7.17537 34.8062 7.51608C35.6273 7.85678 36.373 8.35613 37.0008 8.98551V8.98551C37.4345 9.42215 37.9505 9.76846 38.5188 10.0044C39.0872 10.2403 39.6968 10.3612 40.3122 10.36C42.1073 10.36 43.8289 11.0731 45.0982 12.3425C46.3675 13.6118 47.0806 15.3334 47.0806 17.1285C47.0795 17.7439 47.2004 18.3534 47.4363 18.9218C47.6722 19.4902 48.0185 20.0062 48.4552 20.4398C49.0845 21.0676 49.5839 21.8134 49.9246 22.6344C50.2653 23.4555 50.4407 24.3357 50.4407 25.2246C50.4407 26.1136 50.2653 26.9938 49.9246 27.8148C49.5839 28.6359 49.0845 29.3817 48.4552 30.0094C48.0185 30.4431 47.6722 30.9591 47.4363 31.5275C47.2004 32.0958 47.0795 32.7054 47.0806 33.3208C47.0806 35.1159 46.3675 36.8375 45.0982 38.1068C43.8289 39.3761 42.1073 40.0892 40.3122 40.0892C39.6968 40.0881 39.0872 40.209 38.5188 40.4449C37.9505 40.6808 37.4345 41.0271 37.0008 41.4638C36.3738 42.0922 35.6287 42.5905 34.8085 42.93C33.9882 43.2695 33.109 43.4436 32.2212 43.4422V43.4422ZM32.2212 9.07922C30.9772 9.07707 29.7829 9.56751 28.8995 10.4433C28.2743 11.075 27.5299 11.5762 26.7093 11.9176C25.8888 12.259 25.0086 12.434 24.1199 12.4322C22.878 12.435 21.6877 12.9295 20.8095 13.8077C19.9314 14.6859 19.4368 15.8762 19.434 17.1181C19.4358 18.0068 19.2608 18.887 18.9194 19.7075C18.5779 20.5281 18.0768 21.2725 17.4451 21.8977C16.5695 22.7794 16.0781 23.9716 16.0781 25.2142C16.0781 26.4569 16.5695 27.6491 17.4451 28.5308C18.0768 29.1559 18.5779 29.9004 18.9194 30.7209C19.2608 31.5414 19.4358 32.4216 19.434 33.3104C19.4368 34.5523 19.9314 35.7426 20.8095 36.6207C21.6877 37.4989 22.878 37.9935 24.1199 37.9962C25.0086 37.9945 25.8888 38.1694 26.7093 38.5109C27.5299 38.8523 28.2743 39.3534 28.8995 39.9851C29.7812 40.8607 30.9734 41.3521 32.216 41.3521C33.4587 41.3521 34.6509 40.8607 35.5326 39.9851C36.1581 39.3539 36.9026 38.8531 37.7231 38.5117C38.5435 38.1703 39.4235 37.9951 40.3122 37.9962C41.5549 37.9962 42.7468 37.5025 43.6256 36.6238C44.5043 35.745 44.998 34.5531 44.998 33.3104C44.9963 32.4216 45.1712 31.5414 45.5127 30.7209C45.8541 29.9004 46.3552 29.1559 46.9869 28.5308C47.8625 27.6491 48.3539 26.4569 48.3539 25.2142C48.3539 23.9716 47.8625 22.7794 46.9869 21.8977C46.3552 21.2725 45.8541 20.5281 45.5127 19.7075C45.1712 18.887 44.9963 18.0068 44.998 17.1181C44.998 15.8753 44.5043 14.6835 43.6256 13.8047C42.7468 12.9259 41.5549 12.4322 40.3122 12.4322C39.4278 12.432 38.5521 12.2571 37.7355 11.9176C36.9188 11.5781 36.1773 11.0806 35.5534 10.4538V10.4538C35.115 10.0184 34.595 9.67374 34.0232 9.43967C33.4514 9.20559 32.8391 9.08665 32.2212 9.08965V9.07922Z" fill="#404040"/>
<path d="M39.0105 56.9896C38.8221 56.9891 38.6374 56.9375 38.476 56.8403C38.3147 56.7431 38.1827 56.604 38.0942 56.4377L32.4295 45.9518C32.3639 45.8309 32.3229 45.6982 32.3089 45.5614C32.2949 45.4246 32.3081 45.2864 32.3478 45.1547C32.3875 45.0231 32.4529 44.9005 32.5402 44.7943C32.6275 44.688 32.7349 44.6001 32.8564 44.5356C33.0996 44.4065 33.384 44.3789 33.6474 44.4589C33.9108 44.5389 34.1319 44.72 34.2621 44.9625L38.7814 53.345L39.8227 50.2211C39.9086 49.9729 40.085 49.7664 40.3168 49.6428C40.5485 49.5192 40.8183 49.4877 41.0723 49.5547L44.2691 50.3877L38.469 39.6311C38.4041 39.5107 38.3634 39.3788 38.3495 39.2427C38.3355 39.1067 38.3485 38.9693 38.3877 38.8382C38.4268 38.7072 38.4914 38.5852 38.5777 38.4791C38.664 38.3731 38.7704 38.285 38.8907 38.2201C39.0111 38.1551 39.143 38.1145 39.2791 38.1006C39.4151 38.0866 39.5526 38.0996 39.6836 38.1387C39.8146 38.1779 39.9366 38.2425 40.0427 38.3288C40.1487 38.4151 40.2368 38.5215 40.3017 38.6418L47.2368 51.5123C47.332 51.6905 47.3733 51.8926 47.3557 52.0939C47.3381 52.2951 47.2623 52.4869 47.1376 52.6459C47.0128 52.8048 46.8445 52.9241 46.6532 52.989C46.4619 53.054 46.2558 53.0619 46.0601 53.0118L41.4888 51.8143L39.9789 56.2919C39.9141 56.4859 39.7936 56.6564 39.6325 56.7823C39.4714 56.9083 39.2768 56.984 39.073 57L39.0105 56.9896Z" fill="#404040"/>
<path d="M26.9835 56.9896H26.9001C26.6963 56.9736 26.5017 56.8979 26.3406 56.772C26.1795 56.646 26.059 56.4755 25.9942 56.2815L24.4843 51.8039L19.9338 53.0014C19.7381 53.0515 19.532 53.0436 19.3407 52.9786C19.1494 52.9137 18.9811 52.7944 18.8564 52.6355C18.7317 52.4765 18.6559 52.2847 18.6382 52.0835C18.6206 51.8822 18.6619 51.6802 18.7571 51.502L25.484 39.0063C25.6221 38.7633 25.851 38.5851 26.1205 38.5108C26.39 38.4366 26.6779 38.4725 26.921 38.6106C27.164 38.7487 27.3422 38.9777 27.4164 39.2472C27.4906 39.5166 27.4547 39.8046 27.3167 40.0476L21.7249 50.4606L24.9217 49.6276C25.1756 49.5606 25.4455 49.5921 25.6772 49.7157C25.9089 49.8393 26.0854 50.0459 26.1712 50.294L27.2125 53.4179L29.847 48.5342C29.9782 48.2912 30.2006 48.1102 30.4652 48.0312C30.7298 47.9521 31.015 47.9813 31.258 48.1125C31.501 48.2437 31.682 48.466 31.7611 48.7307C31.8402 48.9953 31.8109 49.2805 31.6797 49.5235L27.8998 56.4794C27.8059 56.6379 27.6715 56.7686 27.5106 56.8583C27.3496 56.9479 27.1677 56.9933 26.9835 56.9896V56.9896Z" fill="#404040"/>
<path d="M32.2213 36.1531C30.0579 36.1531 27.9432 35.5113 26.1447 34.309C24.3462 33.1067 22.9448 31.3978 22.1179 29.3987C21.291 27.3997 21.0756 25.2002 21.4992 23.0787C21.9228 20.9572 22.9662 19.0091 24.4974 17.4808C26.0286 15.9525 27.9787 14.9128 30.101 14.4933C32.2233 14.0738 34.4224 14.2933 36.4199 15.124C38.4174 15.9547 40.1235 17.3594 41.3224 19.1602C42.5213 20.9609 43.1591 23.0769 43.155 25.2403C43.1467 28.1356 41.9914 30.9097 39.9422 32.955C37.8929 35.0004 35.1166 36.1504 32.2213 36.1531V36.1531ZM32.2213 16.3683C30.4707 16.3683 28.7594 16.8875 27.3039 17.86C25.8483 18.8326 24.7139 20.2149 24.0439 21.8323C23.374 23.4496 23.1987 25.2293 23.5403 26.9462C23.8818 28.6631 24.7248 30.2402 25.9626 31.4781C27.2005 32.7159 28.7776 33.5589 30.4945 33.9004C32.2115 34.242 33.9911 34.0667 35.6084 33.3968C37.2258 32.7268 38.6081 31.5924 39.5807 30.1368C40.5532 28.6813 41.0724 26.97 41.0724 25.2194C41.0696 22.8728 40.1362 20.6231 38.4769 18.9638C36.8176 17.3045 34.5679 16.3711 32.2213 16.3683V16.3683Z" fill="#FA4616"/>
<path d="M35.8658 20.5336H33.7832V24.6988H35.8658V20.5336Z" fill="#FA4616"/>
<path d="M30.6594 20.5336H28.5768V24.6988H30.6594V20.5336Z" fill="#FA4616"/>
<path d="M32.2212 30.9466C31.0127 30.9492 29.8305 30.5934 28.8241 29.9243C27.8177 29.2553 27.0322 28.3028 26.5669 27.1875L28.4933 26.3857C28.8021 27.1179 29.32 27.7427 29.9822 28.1821C30.6443 28.6214 31.4213 28.8557 32.216 28.8557C33.0106 28.8557 33.7876 28.6214 34.4498 28.1821C35.1119 27.7427 35.6298 27.1179 35.9386 26.3857L37.865 27.1979C37.3977 28.3089 36.6129 29.2572 35.6089 29.924C34.6049 30.5909 33.4264 30.9466 32.2212 30.9466Z" fill="#FA4616"/>
</svg>
