<svg width="64" height="64" viewBox="0 0 64 64" fill="none" xmlns="http://www.w3.org/2000/svg">
<path d="M50.75 54.8333H7V9H50.75V19.4167H48.6667V11.0833H9.08333V52.75H48.6667V45.4583H50.75V54.8333Z" fill="#404040"/>
<path d="M49.7083 15.25H8.04163V17.3333H49.7083V15.25Z" fill="#404040"/>
<path d="M13.25 12.125H11.1666V14.2083H13.25V12.125Z" fill="#404040"/>
<path d="M17.4166 12.125H15.3333V14.2083H17.4166V12.125Z" fill="#404040"/>
<path d="M21.5833 12.125H19.5V14.2083H21.5833V12.125Z" fill="#404040"/>
<path d="M29.9167 50.2396C29.6406 50.2406 29.3674 50.1838 29.1146 50.0729C28.7344 49.9143 28.4098 49.6467 28.1818 49.3037C27.9537 48.9607 27.8325 48.5577 27.8333 48.1458V44.4167C26.452 44.4167 25.1272 43.868 24.1505 42.8912C23.1737 41.9145 22.625 40.5897 22.625 39.2083V25.6667C22.625 24.2853 23.1737 22.9606 24.1505 21.9838C25.1272 21.0071 26.452 20.4583 27.8333 20.4583H51.7917C53.173 20.4583 54.4978 21.0071 55.4745 21.9838C56.4513 22.9606 57 24.2853 57 25.6667V39.2083C57 40.5897 56.4513 41.9145 55.4745 42.8912C54.4978 43.868 53.173 44.4167 51.7917 44.4167H36.5937L31.3854 49.625C30.9965 50.0162 30.4683 50.2373 29.9167 50.2396V50.2396ZM27.8333 22.5417C27.0045 22.5417 26.2097 22.8709 25.6236 23.457C25.0376 24.043 24.7083 24.8379 24.7083 25.6667V39.2083C24.7083 40.0371 25.0376 40.832 25.6236 41.4181C26.2097 42.0041 27.0045 42.3333 27.8333 42.3333H28.875C29.1513 42.3333 29.4162 42.4431 29.6116 42.6384C29.8069 42.8338 29.9167 43.0987 29.9167 43.375V48.1458L35.4271 42.6146C35.5244 42.5181 35.6399 42.4417 35.7668 42.3898C35.8937 42.338 36.0296 42.3117 36.1667 42.3125H51.7917C52.6205 42.3125 53.4153 41.9832 54.0014 41.3972C54.5874 40.8111 54.9167 40.0163 54.9167 39.1875V25.6459C54.9167 24.8171 54.5874 24.0222 54.0014 23.4361C53.4153 22.8501 52.6205 22.5209 51.7917 22.5209L27.8333 22.5417Z" fill="#404040"/>
<path d="M35.8646 40.3229C35.7095 40.3258 35.5556 40.2939 35.4144 40.2296C35.2731 40.1654 35.148 40.0704 35.0481 39.9516C34.9483 39.8328 34.8763 39.6932 34.8373 39.5429C34.7983 39.3927 34.7934 39.2357 34.823 39.0833L35.6875 34.6458L32.3646 31.1563C32.2361 31.0194 32.1469 30.8503 32.1066 30.667C32.0663 30.4836 32.0762 30.2928 32.1355 30.1146C32.203 29.931 32.3209 29.77 32.4756 29.6503C32.6304 29.5305 32.8157 29.4568 33.0105 29.4375L37.4688 29.0209L39.3855 24.8021C39.4676 24.6194 39.6007 24.4642 39.7689 24.3552C39.937 24.2462 40.133 24.1879 40.3334 24.1875C40.5337 24.1879 40.7297 24.2462 40.8979 24.3552C41.066 24.4642 41.1991 24.6194 41.2813 24.8021L43.1875 29.0729L47.6459 29.4896C47.8415 29.5073 48.0281 29.5799 48.1843 29.6991C48.3404 29.8182 48.4596 29.9791 48.5282 30.1632C48.5969 30.3472 48.612 30.547 48.572 30.7393C48.532 30.9316 48.4384 31.1086 48.3021 31.25L44.948 34.7083L45.8125 39.0625C45.8496 39.2527 45.8329 39.4493 45.7643 39.6305C45.6957 39.8116 45.578 39.9701 45.4244 40.0881C45.2707 40.206 45.0872 40.2787 44.8945 40.2981C44.7018 40.3175 44.5075 40.2829 44.3334 40.1979L40.3334 38.2396L36.3438 40.2604C36.1906 40.316 36.027 40.3374 35.8646 40.3229V40.3229ZM35.375 31.3125L37.5834 33.5834C37.7018 33.7036 37.7893 33.8507 37.8383 34.0122C37.8873 34.1737 37.8963 34.3446 37.8646 34.5104L37.3021 37.4063L39.875 36.0938C40.0191 36.0222 40.1777 35.985 40.3386 35.985C40.4994 35.985 40.6581 36.0222 40.8021 36.0938L43.3646 37.4063L42.8021 34.573C42.7691 34.408 42.7764 34.2375 42.8236 34.0761C42.8708 33.9147 42.9563 33.767 43.073 33.6459L45.2917 31.3646L42.3959 31.0938C42.2118 31.0764 42.0356 31.0103 41.8855 30.9023C41.7354 30.7943 41.6167 30.6482 41.5417 30.4792L40.3334 27.8125L39.125 30.4792C39.05 30.6482 38.9314 30.7943 38.7813 30.9023C38.6311 31.0103 38.455 31.0764 38.2709 31.0938L35.375 31.3125Z" fill="#FA4616"/>
</svg>
