<svg width="64" height="64" viewBox="0 0 64 64" fill="none" xmlns="http://www.w3.org/2000/svg">
<path d="M35.3689 34.0773H27.4852C26.9 34.0704 26.3238 33.932 25.7992 33.6724C25.2746 33.4128 24.8151 33.0387 24.4546 32.5776C24.0277 32.1194 23.8819 31.9944 23.6736 31.9944H21.5907V29.9115H23.6736C24.1239 29.9396 24.5629 30.065 24.9602 30.2789C25.3575 30.4928 25.7037 30.7903 25.9751 31.1508C26.4958 31.7132 26.7979 31.9944 27.4852 31.9944H35.3689C35.6292 31.9944 35.8271 31.5049 35.9521 31.0988C36.077 30.6926 36.4207 27.0788 36.7019 23.892C36.8269 23.2047 36.754 22.8506 36.7019 22.7465C36.5581 22.6494 36.3851 22.6053 36.2124 22.6215H34.1295V20.5386H36.2124C36.6033 20.5163 36.9941 20.5835 37.355 20.7351C37.716 20.8867 38.0376 21.1187 38.2953 21.4134C38.5839 21.8047 38.7799 22.2564 38.8683 22.7346C38.9567 23.2127 38.9353 23.7046 38.8056 24.1732C38.639 26.1311 38.1911 30.9946 37.9933 31.6924C37.3163 33.6607 36.1708 34.0773 35.3689 34.0773Z" fill="#404040"/>
<path d="M26.6416 27.2871V25.2043C27.2942 25.2253 27.9339 25.0186 28.4508 24.6196C28.9677 24.2205 29.3295 23.654 29.4743 23.0172C29.6225 22.3175 29.8569 21.6389 30.172 20.9969C30.3069 20.7712 30.4219 20.5343 30.5157 20.2887C30.5157 20.2158 30.5782 20.1325 30.6199 20.0283C30.842 19.5056 30.9452 18.94 30.9219 18.3725C30.9219 17.1123 30.7969 16.8207 30.3074 16.4041C30.2333 16.3421 30.143 16.3023 30.0471 16.2896V16.7478C30.0251 17.4164 29.8388 18.0692 29.5046 18.6486C29.1703 19.2281 28.6986 19.7162 28.1308 20.07C27.8294 20.3115 27.5409 20.5688 27.2665 20.8407C26.3146 21.8613 25.0132 22.486 23.6214 22.5903H21.5386V20.5074H23.6214C24.4446 20.3974 25.2035 20.0033 25.7668 19.3931C26.0967 19.0652 26.4443 18.7558 26.8082 18.4662C27.6726 17.7476 27.9642 17.4247 27.9642 16.7478V15.9667C27.9635 15.6299 28.0619 15.3002 28.247 15.0187C28.4322 14.7373 28.696 14.5165 29.0056 14.3838C29.4391 14.1996 29.9154 14.14 30.3809 14.2118C30.8464 14.2835 31.2826 14.4837 31.6405 14.7899C32.1389 15.2259 32.5223 15.7781 32.7566 16.3975C32.9909 17.0169 33.069 17.6845 32.9839 18.3412C33.0037 19.1834 32.8476 20.0205 32.5257 20.799V20.9031C32.3976 21.2639 32.2372 21.6125 32.0466 21.9446C31.8179 22.4262 31.6467 22.933 31.5363 23.4546C31.2888 24.5606 30.6659 25.5466 29.7736 26.2453C28.8813 26.944 27.7746 27.3121 26.6416 27.2871V27.2871Z" fill="#404040"/>
<path d="M21.5386 34.0773H16.3315C16.0553 34.0773 15.7904 33.9676 15.5951 33.7723C15.3998 33.577 15.29 33.3121 15.29 33.0359V19.4972C15.29 19.221 15.3998 18.9561 15.5951 18.7608C15.7904 18.5655 16.0553 18.4558 16.3315 18.4558H21.5386C21.8148 18.4558 22.0797 18.5655 22.275 18.7608C22.4704 18.9561 22.5801 19.221 22.5801 19.4972V33.0359C22.5801 33.3121 22.4704 33.577 22.275 33.7723C22.0797 33.9676 21.8148 34.0773 21.5386 34.0773ZM17.3729 31.9944H20.4972V20.5387H17.3729V31.9944Z" fill="#404040"/>
<path d="M26.7458 44.4916C23.0382 44.4916 19.4139 43.3922 16.3312 41.3324C13.2485 39.2726 10.8458 36.3449 9.42694 32.9195C8.00811 29.4942 7.6369 25.725 8.36021 22.0887C9.08352 18.4524 10.8689 15.1122 13.4905 12.4905C16.1122 9.86888 19.4523 8.08351 23.0887 7.3602C26.725 6.63689 30.4942 7.00812 33.9195 8.42695C37.3449 9.84577 40.2725 12.2485 42.3324 15.3312C44.3922 18.4139 45.4916 22.0382 45.4916 25.7458C45.4765 27.8094 45.1248 29.8567 44.4502 31.8069L42.4714 31.13C43.7426 27.4309 43.6719 23.4026 42.2718 19.7504C40.8717 16.0982 38.2314 13.0549 34.8133 11.1535C31.3952 9.25203 27.4172 8.61361 23.5758 9.35002C19.7343 10.0864 16.2744 12.1507 13.8018 15.1814C11.3292 18.2121 10.0016 22.016 10.0514 25.9271C10.1012 29.8381 11.5252 33.607 14.0742 36.5738C16.6231 39.5406 20.1345 41.5161 23.9934 42.1545C27.8523 42.7928 31.8128 42.0534 35.1814 40.0655L36.2229 41.8464C33.3557 43.5562 30.084 44.4694 26.7458 44.4916Z" fill="#404040"/>
<path d="M49.095 56.9992C48.9196 56.999 48.7448 56.978 48.5743 56.9367C48.3051 56.8768 48.0505 56.764 47.8252 56.6049C47.6 56.4458 47.4086 56.2435 47.2621 56.0099L43.9608 50.1778L40.8365 53.198C40.624 53.4338 40.3452 53.5998 40.0366 53.6741C39.728 53.7485 39.4042 53.7277 39.1077 53.6146C38.8299 53.4877 38.5959 53.2816 38.4347 53.0223C38.2735 52.7629 38.1924 52.4618 38.2016 52.1566V34.0773C38.2011 33.8847 38.254 33.6958 38.3544 33.5315C38.4548 33.3673 38.5988 33.234 38.7703 33.1466C38.9419 33.0592 39.1343 33.0211 39.3262 33.0365C39.5182 33.0518 39.7021 33.1201 39.8575 33.2337L54.4376 43.8772C54.7858 44.1077 55.0527 44.4419 55.2004 44.8326C55.3481 45.2233 55.369 45.6505 55.2603 46.0538C55.1287 46.4745 54.8631 46.8407 54.5039 47.0964C54.1448 47.3522 53.7119 47.4834 53.2712 47.4701H50.0844L52.99 52.4898C53.2782 53.0255 53.3448 53.6529 53.1753 54.2371C53.0059 54.8213 52.614 55.3158 52.0839 55.6141L50.4385 56.6556C50.031 56.8919 49.566 57.0109 49.095 56.9992V56.9992ZM44.2003 47.4493H44.3461C44.5033 47.4708 44.6535 47.528 44.7853 47.6164C44.9171 47.7048 45.0269 47.8222 45.1063 47.9596L49.0534 54.9372C49.0534 54.9372 49.1783 54.9372 49.3346 54.833L50.9904 53.7916C51.0435 53.7639 51.0891 53.724 51.1235 53.675C51.1579 53.6261 51.1801 53.5697 51.1883 53.5104L47.3871 46.9494C47.2957 46.7911 47.2475 46.6115 47.2475 46.4287C47.2475 46.2459 47.2957 46.0663 47.3871 45.908C47.4788 45.749 47.6109 45.6172 47.7701 45.5257C47.9292 45.4343 48.1096 45.3865 48.2931 45.3872H52.9796L40.2845 36.1289V50.8339L43.4713 47.7096C43.6718 47.5324 43.9329 47.4392 44.2003 47.4493V47.4493Z" fill="#FA4616"/>
</svg>
