<svg width="64" height="64" viewBox="0 0 64 64" fill="none" xmlns="http://www.w3.org/2000/svg">
<path d="M17.432 44.2983C17.1588 44.2983 16.8882 44.2449 16.6355 44.1411C16.2511 43.9831 15.9223 43.7145 15.6909 43.3693C15.4595 43.0241 15.336 42.6178 15.336 42.2023V36.3439H12.192C11.0802 36.3439 10.014 35.9023 9.2278 35.1161C8.44165 34.33 8 33.2637 8 32.152V11.192C8 10.0802 8.44165 9.01395 9.2278 8.2278C10.014 7.44165 11.0802 7 12.192 7H50.9679C52.0797 7 53.146 7.44165 53.9321 8.2278C54.7183 9.01395 55.1599 10.0802 55.1599 11.192V32.152C55.1599 33.2637 54.7183 34.33 53.9321 35.1161C53.146 35.9023 52.0797 36.3439 50.9679 36.3439H49.8151C49.5372 36.3439 49.2706 36.2335 49.0741 36.037C48.8776 35.8405 48.7671 35.5739 48.7671 35.296C48.7671 35.018 48.8776 34.7514 49.0741 34.5549C49.2706 34.3584 49.5372 34.248 49.8151 34.248H50.926C51.4819 34.248 52.015 34.0271 52.4081 33.6341C52.8012 33.241 53.022 32.7078 53.022 32.152V11.192C53.022 10.6361 52.8012 10.103 52.4081 9.7099C52.015 9.31682 51.4819 9.096 50.926 9.096H12.1501C11.5942 9.096 11.061 9.31682 10.668 9.7099C10.2749 10.103 10.0541 10.6361 10.0541 11.192V32.152C10.0541 32.7078 10.2749 33.241 10.668 33.6341C11.061 34.0271 11.5942 34.248 12.1501 34.248H17.3901V42.2023L25.3444 34.248H29.966C30.244 34.248 30.5106 34.3584 30.7071 34.5549C30.9036 34.7514 31.014 35.018 31.014 35.296C31.014 35.5739 30.9036 35.8405 30.7071 36.037C30.5106 36.2335 30.244 36.3439 29.966 36.3439H26.2037L18.8677 43.6799C18.4868 44.0635 17.9724 44.285 17.432 44.2983V44.2983Z" fill="#404040"/>
<path d="M19.3603 57C19.2224 57.0008 19.0857 56.9744 18.958 56.9222C18.8303 56.8701 18.7142 56.7932 18.6163 56.6961C18.4904 56.5709 18.3984 56.4158 18.3489 56.2453C18.2994 56.0748 18.2941 55.8946 18.3333 55.7214C19.2399 51.7865 21.2377 48.1869 24.0973 45.3358L41.8294 27.5932C42.5041 26.9487 43.4011 26.5891 44.3341 26.5891C45.2671 26.5891 46.1642 26.9487 46.8389 27.5932L47.7192 28.4735C48.0478 28.8015 48.3085 29.1911 48.4863 29.62C48.6642 30.0489 48.7558 30.5087 48.7558 30.973C48.7558 31.4373 48.6642 31.897 48.4863 32.3259C48.3085 32.7548 48.0478 33.1444 47.7192 33.4724L29.9766 51.2151C27.1273 54.075 23.5266 56.0697 19.5909 56.9686C19.5158 56.9893 19.4383 56.9999 19.3603 57ZM44.3341 28.6516C44.1401 28.6465 43.9471 28.681 43.7669 28.7531C43.5867 28.8252 43.4231 28.9333 43.2861 29.0708L25.5435 46.8135C23.4021 48.9553 21.7908 51.5679 20.838 54.4429C23.713 53.4901 26.3256 51.8788 28.4675 49.7374L46.2101 31.9948C46.4782 31.7223 46.6285 31.3553 46.6285 30.973C46.6285 30.5907 46.4782 30.2237 46.2101 29.9512L45.3297 29.0708C45.0645 28.8078 44.7077 28.6575 44.3341 28.6516V28.6516Z" fill="#404040"/>
<path d="M39.9325 46.1637C39.7946 46.1645 39.6578 46.138 39.5302 46.0859C39.4025 46.0337 39.2863 45.9569 39.1884 45.8598C38.9932 45.6634 38.8837 45.3978 38.8837 45.1209C38.8837 44.844 38.9932 44.5784 39.1884 44.3821L44.4808 39.0897C44.7483 38.819 44.8983 38.4537 44.8983 38.0731C44.8983 37.6925 44.7483 37.3273 44.4808 37.0566L39.1884 31.8166C38.9932 31.6202 38.8837 31.3546 38.8837 31.0777C38.8837 30.8009 38.9932 30.5352 39.1884 30.3389C39.2858 30.2407 39.4017 30.1627 39.5295 30.1095C39.6572 30.0563 39.7941 30.0289 39.9325 30.0289C40.0708 30.0289 40.2078 30.0563 40.3355 30.1095C40.4632 30.1627 40.5791 30.2407 40.6766 30.3389L45.9166 35.5789C46.5808 36.2432 46.954 37.1441 46.954 38.0836C46.954 39.023 46.5808 39.924 45.9166 40.5883L40.6766 45.8283C40.5813 45.9311 40.4663 46.0138 40.3385 46.0714C40.2107 46.129 40.0726 46.1604 39.9325 46.1637Z" fill="#404040"/>
<path d="M35.6044 45.1157C35.3279 45.1117 35.0642 44.9987 34.8708 44.8013L30.4587 40.3997C30.2635 40.2033 30.1539 39.9377 30.1539 39.6608C30.1539 39.384 30.2635 39.1183 30.4587 38.922C30.5561 38.8238 30.672 38.7458 30.7998 38.6926C30.9275 38.6394 31.0644 38.612 31.2028 38.612C31.3411 38.612 31.4781 38.6394 31.6058 38.6926C31.7335 38.7458 31.8494 38.8238 31.9469 38.922L36.3484 43.3236C36.4962 43.4702 36.597 43.6574 36.638 43.8615C36.6789 44.0656 36.6582 44.2773 36.5784 44.4696C36.4985 44.6618 36.3633 44.8259 36.1898 44.941C36.0163 45.0561 35.8125 45.1169 35.6044 45.1157V45.1157Z" fill="#404040"/>
<path d="M42.5839 18.528H20.576C20.298 18.528 20.0314 18.4176 19.8349 18.221C19.6384 18.0245 19.528 17.7579 19.528 17.48C19.528 17.202 19.6384 16.9355 19.8349 16.7389C20.0314 16.5424 20.298 16.432 20.576 16.432H42.5839C42.8619 16.432 43.1284 16.5424 43.3249 16.7389C43.5215 16.9355 43.6319 17.202 43.6319 17.48C43.6319 17.7579 43.5215 18.0245 43.3249 18.221C43.1284 18.4176 42.8619 18.528 42.5839 18.528Z" fill="#FA4616"/>
<path d="M42.5839 22.72H20.576C20.298 22.72 20.0314 22.6095 19.8349 22.413C19.6384 22.2165 19.528 21.9499 19.528 21.672C19.528 21.394 19.6384 21.1275 19.8349 20.9309C20.0314 20.7344 20.298 20.624 20.576 20.624H42.5839C42.8619 20.624 43.1284 20.7344 43.3249 20.9309C43.5215 21.1275 43.6319 21.394 43.6319 21.672C43.6319 21.9499 43.5215 22.2165 43.3249 22.413C43.1284 22.6095 42.8619 22.72 42.5839 22.72Z" fill="#FA4616"/>
<path d="M32.1039 26.912H20.576C20.298 26.912 20.0314 26.8016 19.8349 26.605C19.6384 26.4085 19.528 26.1419 19.528 25.864C19.528 25.586 19.6384 25.3195 19.8349 25.1229C20.0314 24.9264 20.298 24.816 20.576 24.816H32.1039C32.3819 24.816 32.6484 24.9264 32.845 25.1229C33.0415 25.3195 33.1519 25.586 33.1519 25.864C33.1519 26.1419 33.0415 26.4085 32.845 26.605C32.6484 26.8016 32.3819 26.912 32.1039 26.912Z" fill="#FA4616"/>
</svg>
