<svg width="64" height="64" viewBox="0 0 64 64" fill="none" xmlns="http://www.w3.org/2000/svg">
<path d="M15.4653 55.449C15.2611 55.4517 15.0585 55.4132 14.8696 55.3357C14.6807 55.2583 14.5094 55.1435 14.3659 54.9982C13.4204 54.0528 14.234 52.5026 14.4978 51.9969C15.7548 49.6015 16.5492 46.9907 16.8395 44.3012C10.661 40.5853 7 34.7915 7 28.679C7 17.828 18.2137 9 32 9C45.7863 9 57 17.7951 57 28.679C57 39.5629 45.7863 48.347 32 48.347C30.684 48.3476 29.3693 48.2631 28.0642 48.0941C24.7066 50.7374 21.0938 53.0392 17.2792 54.9652C16.7201 55.2646 16.0992 55.4302 15.4653 55.449ZM31.956 11.1438C19.3791 11.1438 9.15478 18.9824 9.15478 28.624C9.15478 34.1209 12.6399 39.398 18.4886 42.6961L19.1042 43.0369L19.0492 43.7405C18.8233 46.9042 17.9595 49.9895 16.5097 52.8105C20.2285 50.9243 23.7399 48.6545 26.9868 46.0383L27.3606 45.7304L27.8333 45.7964C29.1992 45.989 30.5766 46.0882 31.956 46.0932C44.533 46.0932 54.7572 38.2546 54.7572 28.624C54.7572 18.9934 44.489 11.1438 31.956 11.1438Z" fill="#404040"/>
<path d="M39.8276 41.157H28.2181C27.529 41.1999 26.8395 41.0799 26.2054 40.8068C25.5713 40.5336 25.0104 40.1151 24.5681 39.5849C24.1394 39.1231 23.9745 38.9582 23.4687 38.9582H19.2911L19.0492 23.5669H24.5461C25.4795 23.0528 26.3377 22.4128 27.0967 21.6649C27.2396 21.489 27.4595 21.2581 27.6574 21.0273C29.0976 19.4552 30.043 18.4217 30.043 16.4758V15.5083C30.0361 15.0701 30.1702 14.6412 30.4255 14.2849C30.6809 13.9286 31.044 13.6637 31.4613 13.5295C32.0568 13.3427 32.696 13.3484 33.2881 13.5458C33.8802 13.7432 34.395 14.1221 34.7594 14.6289C35.3367 15.3123 35.7728 16.1032 36.0426 16.9562C36.3125 17.8091 36.4107 18.707 36.3315 19.5981C36.3435 20.7531 36.1307 21.8994 35.7049 22.9732C35.6568 23.0839 35.6164 23.1977 35.5839 23.314V26.1394C35.594 27.9772 35.0366 29.7732 33.9878 31.2824C32.9391 32.7915 31.4501 33.9402 29.7242 34.5717L28.9547 32.5158C30.2526 32.0315 31.3705 31.1602 32.157 30.0198C32.9435 28.8793 33.3608 27.5248 33.3522 26.1394V23.237C33.3684 22.8841 33.4505 22.5374 33.5941 22.2146C33.9351 21.3851 34.1035 20.4948 34.0888 19.5981C34.1672 18.9502 34.1099 18.293 33.9206 17.6685C33.7313 17.0439 33.4142 16.4655 32.9894 15.9701C32.9088 15.8511 32.8009 15.753 32.6746 15.6842C32.5484 15.6153 32.4076 15.5776 32.2638 15.5743V16.4538C32.2638 19.2463 30.8236 20.8514 29.3065 22.4894L28.6908 23.1821C27.3825 24.3914 25.6785 25.7436 24.5681 25.7436H21.27L21.4459 36.7375H23.4577C23.9775 36.7339 24.4912 36.8489 24.9598 37.0737C25.4285 37.2985 25.8397 37.6272 26.1622 38.0348C26.4023 38.3476 26.7179 38.5944 27.0794 38.7521C27.4409 38.9097 27.8364 38.9731 28.2291 38.9362H39.8386C40.1308 38.8708 40.399 38.725 40.6127 38.5152C40.8264 38.3054 40.9772 38.0399 41.0479 37.7489V37.562L42.587 28.4041C42.6406 28.0814 42.6243 27.7509 42.5392 27.435C42.4542 27.119 42.3023 26.8251 42.0939 26.5729C41.8854 26.3207 41.6253 26.1162 41.3311 25.9731C41.0368 25.83 40.7153 25.7518 40.3882 25.7436H36.6943V23.5448H40.3882C41.0379 23.5469 41.6794 23.6904 42.268 23.9654C42.8566 24.2403 43.3783 24.6402 43.7968 25.1372C44.2153 25.6341 44.5205 26.2162 44.6913 26.8431C44.8621 27.4699 44.8943 28.1264 44.7858 28.7669L43.2687 37.8588C43.1748 38.7256 42.7783 39.5315 42.1489 40.1347C41.5195 40.738 40.6975 41.1 39.8276 41.157Z" fill="#FA4616"/>
</svg>
