<svg width="64" height="64" viewBox="0 0 64 64" fill="none" xmlns="http://www.w3.org/2000/svg">
<path d="M43.2609 14.2732H41.1769V17.3993H43.2609V14.2732Z" fill="#404040"/>
<path d="M43.2609 8.02115H41.1769V12.1892H43.2609V8.02115Z" fill="#404040"/>
<path d="M43.2609 19.4833H41.1769V22.6093H43.2609V19.4833Z" fill="#404040"/>
<path d="M43.2609 24.6934H41.1769V28.8614H43.2609V24.6934Z" fill="#404040"/>
<path d="M28.0163 24.6934C27.7861 24.6927 27.5626 24.6157 27.3807 24.4746C27.2336 24.3593 27.1201 24.2066 27.0523 24.0324C26.9845 23.8583 26.9647 23.6691 26.9952 23.4847L27.5057 20.4211L25.1404 17.9307C25.0043 17.7899 24.9107 17.6137 24.8702 17.4222C24.8297 17.2306 24.844 17.0315 24.9114 16.8477C24.9788 16.6639 25.0967 16.5029 25.2515 16.383C25.4062 16.263 25.5916 16.1891 25.7864 16.1697L29.0167 15.8155L30.5172 12.7727C30.6036 12.5993 30.7366 12.4535 30.9014 12.3515C31.0661 12.2496 31.256 12.1956 31.4498 12.1956C31.6435 12.1956 31.8334 12.2496 31.9982 12.3515C32.1629 12.4535 32.2959 12.5993 32.3824 12.7727L33.8933 15.8155L37.1235 16.1697C37.3146 16.1963 37.4952 16.273 37.6471 16.392C37.799 16.5109 37.9168 16.6679 37.9884 16.847C38.0476 17.0253 38.0576 17.2162 38.0173 17.3996C37.9769 17.583 37.8877 17.7522 37.7592 17.8891L35.4042 20.3795L35.9148 23.443C35.9448 23.629 35.9238 23.8196 35.854 23.9945C35.7843 24.1695 35.6685 24.3224 35.5188 24.4367C35.3692 24.5511 35.1913 24.6228 35.0041 24.6441C34.817 24.6655 34.6275 24.6357 34.456 24.5579L31.455 23.2242L28.4436 24.5579C28.3127 24.6335 28.1669 24.6797 28.0163 24.6934ZM31.455 21.0776C31.5993 21.0764 31.7419 21.1084 31.8718 21.1714L33.539 21.9112L33.2681 20.2544C33.2419 20.0959 33.2527 19.9335 33.2997 19.7798C33.3467 19.6262 33.4286 19.4854 33.539 19.3687L34.8103 18.0141L33.0909 17.8265C32.9166 17.808 32.7497 17.7457 32.6059 17.6455C32.462 17.5454 32.3457 17.4105 32.2677 17.2534L31.455 15.5862L30.6318 17.2534C30.5539 17.4105 30.4376 17.5454 30.2937 17.6455C30.1498 17.7457 29.9829 17.808 29.8086 17.8265L28.0893 18.0141L29.3709 19.3687C29.4813 19.4854 29.5632 19.6262 29.6102 19.7798C29.6572 19.9335 29.6681 20.0959 29.6419 20.2544L29.3709 21.9112L31.0278 21.1714C31.1619 21.1102 31.3075 21.0783 31.455 21.0776V21.0776Z" fill="#FA4616"/>
<path d="M51.597 29.9034H28.6727V27.8194H49.5129V22.4739C48.621 22.2407 47.8315 21.7185 47.268 20.9888C46.7045 20.2591 46.3989 19.3632 46.3989 18.4413C46.3989 17.5194 46.7045 16.6235 47.268 15.8938C47.8315 15.1641 48.621 14.6418 49.5129 14.4087V9.06317H15.1265V14.4296C16.0185 14.6627 16.808 15.185 17.3714 15.9147C17.9349 16.6443 18.2406 17.5402 18.2406 18.4621C18.2406 19.3841 17.9349 20.28 17.3714 21.0097C16.808 21.7394 16.0185 22.2616 15.1265 22.4947V27.8403H18.2525V29.9243H13.0425V20.5462H14.0845C14.6372 20.5462 15.1673 20.3266 15.5581 19.9358C15.949 19.545 16.1685 19.0149 16.1685 18.4621C16.1685 17.9094 15.949 17.3794 15.5581 16.9885C15.1673 16.5977 14.6372 16.3781 14.0845 16.3781H13.0425V7H51.597V16.3781H50.555C50.0022 16.3781 49.4722 16.5977 49.0813 16.9885C48.6905 17.3794 48.4709 17.9094 48.4709 18.4621C48.4709 19.0149 48.6905 19.545 49.0813 19.9358C49.4722 20.3266 50.0022 20.5462 50.555 20.5462H51.597V29.9034Z" fill="#404040"/>
<path d="M35.9668 56.9958C35.6904 56.9958 35.4254 56.886 35.23 56.6906C35.0346 56.4952 34.9248 56.2301 34.9248 55.9537C35.0044 55.0323 35.3685 54.1583 35.9668 53.453C36.5402 52.8173 36.904 52.0206 37.0088 51.1709V40.3236C36.9814 40.0565 36.8629 39.8071 36.6731 39.6173C36.4832 39.4275 36.2338 39.3089 35.9668 39.2815H33.8828C33.6064 39.2815 33.3414 39.1718 33.1459 38.9764C32.9505 38.781 32.8407 38.5159 32.8407 38.2395C32.8134 37.9725 32.6948 37.7231 32.505 37.5333C32.3152 37.3434 32.0658 37.2249 31.7987 37.1975H29.7147C29.5386 37.199 29.365 37.1558 29.2101 37.072C29.0552 36.9881 28.9241 36.8665 28.829 36.7182C28.5148 36.3863 28.0868 36.1853 27.6307 36.1555H25.5467C25.2703 36.1555 25.0053 36.0458 24.8098 35.8503C24.6144 35.6549 24.5046 35.3898 24.5046 35.1135C24.5046 34.8371 24.6144 34.5721 24.8098 34.3767C25.0053 34.1813 25.2703 34.0715 25.5467 34.0715H27.6307C28.5809 34.1074 29.4883 34.4762 30.194 35.1135H31.7987C32.4391 35.1339 33.0592 35.3424 33.5818 35.713C34.1044 36.0837 34.5062 36.5999 34.7372 37.1975H35.9668C36.7892 37.2186 37.5721 37.5548 38.1539 38.1365C38.7356 38.7182 39.0717 39.5011 39.0928 40.3236V51.1709C39.0111 52.4486 38.5259 53.6672 37.7069 54.6512C37.38 55.0279 37.1415 55.473 37.0088 55.9537C37.0088 56.2301 36.899 56.4952 36.7036 56.6906C36.5082 56.886 36.2431 56.9958 35.9668 56.9958Z" fill="#404040"/>
<path d="M21.3786 56.9958C21.1023 56.9958 20.8372 56.886 20.6418 56.6906C20.4464 56.4952 20.3366 56.2301 20.3366 55.9538V55.4327C19.443 53.9721 18.4435 52.579 17.346 51.2647C16.6166 50.3269 16.0435 49.5975 15.7726 49.1807C15.3037 48.4304 12.6466 42.1784 12.0839 40.9279C12.0243 40.801 11.9957 40.6617 12.0005 40.5215C12.0528 40.0105 12.2638 39.5286 12.604 39.1437C12.9441 38.7587 13.3963 38.4899 13.897 38.375C14.664 38.1465 15.4843 38.1723 16.2355 38.4483C16.9867 38.7244 17.6285 39.236 18.065 39.9068L19.8677 42.5639C19.9108 42.6326 19.9688 42.6906 20.0373 42.7339C20.1058 42.7772 20.1832 42.8046 20.2637 42.814H20.3887V27.8194C20.3887 26.9903 20.7181 26.1952 21.3043 25.609C21.8906 25.0228 22.6857 24.6934 23.5148 24.6934C24.3438 24.6934 25.139 25.0228 25.7252 25.609C26.3115 26.1952 26.6408 26.9903 26.6408 27.8194V39.2815C26.6408 39.5579 26.531 39.823 26.3356 40.0184C26.1402 40.2138 25.8751 40.3236 25.5988 40.3236C25.3224 40.3236 25.0574 40.2138 24.862 40.0184C24.6666 39.823 24.5568 39.5579 24.5568 39.2815V27.8194C24.5568 27.543 24.447 27.278 24.2516 27.0826C24.0562 26.8872 23.7911 26.7774 23.5148 26.7774C23.2384 26.7774 22.9734 26.8872 22.7779 27.0826C22.5825 27.278 22.4727 27.543 22.4727 27.8194V43.4496C22.4722 43.59 22.4433 43.7288 22.3878 43.8577C22.3323 43.9866 22.2513 44.103 22.1497 44.1999C21.876 44.4648 21.5476 44.6665 21.1875 44.7907C20.8274 44.9149 20.4445 44.9587 20.0657 44.9189C19.68 44.8736 19.309 44.7436 18.9794 44.5382C18.6497 44.3329 18.3695 44.0572 18.1588 43.731L16.4812 41.1259C16.324 40.8766 16.1054 40.6718 15.8462 40.5313C15.5871 40.3908 15.2962 40.3192 15.0015 40.3236C14.7399 40.3379 14.4875 40.4245 14.2721 40.5737C15.5538 43.5643 17.3356 47.6385 17.6274 48.097C17.9192 48.5555 18.4402 49.2016 19.0862 50.0143C21.7017 53.3384 22.5144 54.5054 22.5144 55.339V55.9538C22.515 56.0989 22.4853 56.2425 22.4272 56.3755C22.369 56.5084 22.2838 56.6278 22.1769 56.7259C22.0699 56.8239 21.9437 56.8986 21.8063 56.9451C21.6688 56.9916 21.5231 57.0088 21.3786 56.9958Z" fill="#404040"/>
<path d="M29.7147 41.3656C29.4384 41.3656 29.1733 41.2558 28.9779 41.0604C28.7825 40.865 28.6727 40.5999 28.6727 40.3236V36.1555C28.6727 35.8791 28.7825 35.6141 28.9779 35.4187C29.1733 35.2233 29.4384 35.1135 29.7147 35.1135C29.9911 35.1135 30.2561 35.2233 30.4516 35.4187C30.647 35.6141 30.7568 35.8791 30.7568 36.1555V40.3236C30.7568 40.5999 30.647 40.865 30.4516 41.0604C30.2561 41.2558 29.9911 41.3656 29.7147 41.3656Z" fill="#404040"/>
<path d="M33.8828 42.4076C33.6065 42.4076 33.3414 42.2978 33.146 42.1024C32.9506 41.907 32.8408 41.6419 32.8408 41.3656V38.2395C32.8408 37.9632 32.9506 37.6981 33.146 37.5027C33.3414 37.3073 33.6065 37.1975 33.8828 37.1975C34.1592 37.1975 34.4242 37.3073 34.6196 37.5027C34.8151 37.6981 34.9248 37.9632 34.9248 38.2395V41.3656C34.9248 41.6419 34.8151 41.907 34.6196 42.1024C34.4242 42.2978 34.1592 42.4076 33.8828 42.4076Z" fill="#404040"/>
</svg>
