<svg width="64" height="64" viewBox="0 0 64 64" fill="none" xmlns="http://www.w3.org/2000/svg">
<path d="M39.4999 54.8333H31.6145C31.028 54.8267 30.4506 54.6873 29.9256 54.4257C29.4007 54.1642 28.9417 53.7871 28.5833 53.3229C28.1562 52.875 28.0103 52.75 27.802 52.75H25.7187C25.4424 52.75 25.1774 52.6402 24.9821 52.4449C24.7867 52.2495 24.677 51.9846 24.677 51.7083C24.677 51.432 24.7867 51.1671 24.9821 50.9718C25.1774 50.7764 25.4424 50.6666 25.7187 50.6666H27.802C28.2536 50.6898 28.6944 50.8131 29.0925 51.0275C29.4906 51.2418 29.8361 51.542 30.1041 51.9062C30.6249 52.4583 30.927 52.75 31.6145 52.75H39.4999C39.7603 52.75 39.9582 52.2604 40.0832 51.8437C40.2082 51.4271 40.552 47.8229 40.8332 44.6458C40.9582 43.9479 40.8853 43.6041 40.8332 43.5C40.6918 43.3977 40.5168 43.353 40.3437 43.375H38.2603C37.9841 43.375 37.7191 43.2652 37.5238 43.0699C37.3284 42.8745 37.2187 42.6096 37.2187 42.3333C37.2187 42.057 37.3284 41.7921 37.5238 41.5968C37.7191 41.4014 37.9841 41.2916 38.2603 41.2916H40.3437C40.7349 41.267 41.1265 41.3331 41.4879 41.4849C41.8493 41.6367 42.1707 41.87 42.427 42.1666C42.7162 42.5557 42.9126 43.0058 43.0011 43.4825C43.0896 43.9591 43.0678 44.4497 42.9374 44.9167C42.7707 46.8854 42.3228 51.7396 42.1249 52.4375C41.5833 54.4583 40.3853 54.8333 39.4999 54.8333Z" fill="#404040"/>
<path d="M30.8541 48.0833C30.5778 48.0833 30.3129 47.9736 30.1175 47.7782C29.9222 47.5829 29.8124 47.3179 29.8124 47.0417C29.8124 46.7654 29.9222 46.5004 30.1175 46.3051C30.3129 46.1097 30.5778 46 30.8541 46C31.5083 46.0206 32.1493 45.8124 32.6665 45.4112C33.1837 45.0099 33.5447 44.4409 33.6874 43.8021C33.8357 43.1022 34.0701 42.4234 34.3853 41.7812C34.5145 41.5561 34.6294 41.323 34.7291 41.0833C34.7291 41.0104 34.7916 40.9167 34.8333 40.8125C35.0568 40.29 35.16 39.724 35.1353 39.1563C35.1353 37.9063 35.0103 37.6146 34.5208 37.1979C34.4513 37.1557 34.3727 37.1307 34.2916 37.125V37.6146C34.2688 38.2817 34.082 38.9329 33.7478 39.5107C33.4135 40.0884 32.9419 40.5749 32.3749 40.9271C32.1041 41.1562 31.802 41.4063 31.5103 41.6979C30.56 42.7227 29.258 43.3513 27.8645 43.4583H25.7812C25.5049 43.4583 25.2399 43.3486 25.0446 43.1532C24.8492 42.9579 24.7395 42.6929 24.7395 42.4166C24.7395 42.1404 24.8492 41.8754 25.0446 41.6801C25.2399 41.4847 25.5049 41.375 25.7812 41.375H27.8645C28.6892 41.2622 29.4485 40.8642 30.0103 40.25C30.3853 39.875 30.7291 39.5937 31.052 39.3229C31.9166 38.6041 32.2082 38.2812 32.2082 37.6146V36.8229C32.2076 36.4859 32.3059 36.1562 32.4911 35.8747C32.6763 35.5932 32.9402 35.3723 33.2499 35.2396C33.684 35.0543 34.1614 34.9951 34.6276 35.0688C35.0937 35.1425 35.5296 35.3461 35.8853 35.6562C36.3838 36.0902 36.7673 36.6405 37.0017 37.2584C37.2362 37.8763 37.3143 38.5425 37.2291 39.1979C37.2539 40.0417 37.0939 40.8808 36.7603 41.6563V41.7604C36.6375 42.1235 36.4769 42.4726 36.2812 42.8021C36.0493 43.2826 35.8779 43.7899 35.7707 44.3125C35.5065 45.4088 34.8742 46.3812 33.9794 47.0675C33.0845 47.7538 31.9814 48.1123 30.8541 48.0833V48.0833Z" fill="#404040"/>
<path d="M26.7917 54.8333H19.5V39.2083H26.7917V54.8333ZM21.5833 52.75H24.7083V41.2917H21.5833V52.75Z" fill="#404040"/>
<path d="M45.0936 40.5312C44.9156 40.5339 44.7399 40.4909 44.5832 40.4062L39.4999 37.5521C39.2596 37.414 39.0839 37.186 39.0116 36.9184C38.9394 36.6507 38.9764 36.3654 39.1145 36.125C39.2526 35.8847 39.4806 35.709 39.7482 35.6367C40.0158 35.5645 40.3012 35.6015 40.5416 35.7396L43.6666 37.4792L42.8228 33.2083C42.7877 33.0336 42.798 32.8528 42.8527 32.6832C42.9074 32.5136 43.0047 32.3608 43.1353 32.2396L46.3332 29.2813L42.0103 28.7708C41.8328 28.7492 41.6639 28.6823 41.5198 28.5765C41.3756 28.4707 41.2612 28.3295 41.1874 28.1667L39.3645 24.2083L37.5312 28.1667C37.4574 28.3295 37.3429 28.4707 37.1988 28.5765C37.0547 28.6823 36.8857 28.7492 36.7082 28.7708L32.3853 29.2813L34.5832 31.3125C34.7636 31.5052 34.864 31.7592 34.8643 32.0231C34.8646 32.287 34.7647 32.5412 34.5849 32.7343C34.405 32.9274 34.1585 33.045 33.8953 33.0634C33.632 33.0818 33.3716 32.9996 33.1666 32.8333L29.3124 29.2708C29.1731 29.1405 29.0722 28.9745 29.0208 28.7908C28.9693 28.6072 28.9693 28.4129 29.0207 28.2292C29.0817 28.0377 29.1968 27.8681 29.352 27.7405C29.5073 27.613 29.6961 27.5331 29.8957 27.5104L35.8853 26.8021L38.4166 21.3229C38.5003 21.1421 38.634 20.9891 38.802 20.882C38.97 20.7749 39.1652 20.7183 39.3645 20.7188C39.5619 20.7202 39.7549 20.7778 39.9209 20.8848C40.0869 20.9918 40.2191 21.1437 40.302 21.3229L42.8332 26.8021L48.8228 27.5104C49.0224 27.5331 49.2113 27.613 49.3665 27.7405C49.5218 27.8681 49.6368 28.0377 49.6978 28.2292C49.7492 28.4129 49.7492 28.6072 49.6978 28.7908C49.6464 28.9745 49.5455 29.1405 49.4061 29.2708L44.9791 33.3646L46.1562 39.2917C46.1857 39.444 46.1808 39.601 46.1418 39.7513C46.1028 39.9015 46.0308 40.0411 45.931 40.1599C45.8311 40.2787 45.706 40.3737 45.5647 40.438C45.4235 40.5022 45.2696 40.5341 45.1145 40.5312H45.0936Z" fill="#FA4616"/>
<path d="M23.3645 37.5729C23.0913 37.5718 22.8294 37.4633 22.6354 37.2708C21.3553 36.0378 20.0021 34.883 18.5833 33.8125C16.0937 31.8646 13.9374 30.1875 13.3749 27.4688C13.2143 26.6562 13.224 25.8192 13.4033 25.0106C13.5825 24.202 13.9276 23.4393 14.4166 22.7708C14.8574 22.149 15.4252 21.6278 16.0824 21.2417C16.7396 20.8556 17.4713 20.6135 18.2291 20.5313C19.1808 20.4295 20.1431 20.5434 21.0447 20.8644C21.9464 21.1854 22.7642 21.7052 23.4374 22.3854C24.1116 21.7065 24.9295 21.1874 25.8309 20.8665C26.7323 20.5456 27.6942 20.4311 28.6458 20.5313C29.7625 20.6673 30.8119 21.1381 31.656 21.8818C32.5001 22.6255 33.0993 23.6072 33.3749 24.6979C33.4113 24.8299 33.4213 24.9678 33.4043 25.1037C33.3873 25.2395 33.3437 25.3707 33.276 25.4897C33.2083 25.6087 33.1177 25.7132 33.0096 25.7972C32.9015 25.8812 32.7778 25.943 32.6458 25.9792C32.5131 26.0153 32.3745 26.0249 32.2381 26.0072C32.1017 25.9896 31.9702 25.9451 31.8511 25.8763C31.7319 25.8076 31.6276 25.7159 31.5441 25.6066C31.4606 25.4973 31.3996 25.3726 31.3645 25.2396C31.1993 24.5517 30.8288 23.9304 30.3024 23.4579C29.7759 22.9853 29.1183 22.684 28.4166 22.5937C27.6268 22.5056 26.8284 22.6487 26.1184 23.0055C25.4083 23.3624 24.8171 23.9178 24.4166 24.6042C24.3338 24.786 24.2003 24.9402 24.0323 25.0483C23.8642 25.1565 23.6685 25.214 23.4687 25.214C23.2688 25.214 23.0732 25.1565 22.9051 25.0483C22.7371 24.9402 22.6036 24.786 22.5208 24.6042C22.1145 23.9232 21.5223 23.3722 20.8137 23.0161C20.1052 22.66 19.3097 22.5135 18.5208 22.5937C18.0533 22.6472 17.6023 22.7982 17.1968 23.0368C16.7913 23.2754 16.4403 23.5965 16.1666 23.9792C15.8521 24.4149 15.6314 24.911 15.5185 25.4364C15.4055 25.9617 15.4028 26.5048 15.5104 27.0312C15.927 29 17.5937 30.3333 19.9687 32.1667C21.0104 33.0104 22.2499 33.9479 23.4687 35.0729C24.6874 33.9479 25.8958 32.9896 26.9687 32.1563L27.5729 31.6979C27.7887 31.5276 28.0632 31.4495 28.3364 31.4807C28.6096 31.512 28.8593 31.65 29.0312 31.8646C29.1166 31.9724 29.1797 32.0961 29.2171 32.2285C29.2544 32.3608 29.2651 32.4993 29.2487 32.6359C29.2322 32.7724 29.1889 32.9043 29.1211 33.024C29.0534 33.1438 28.9627 33.2489 28.8541 33.3333L28.2499 33.8021C26.8311 34.8725 25.478 36.0274 24.1979 37.2604C24.0907 37.3708 23.9603 37.4561 23.8162 37.5102C23.6722 37.5642 23.5179 37.5856 23.3645 37.5729Z" fill="#FA4616"/>
<path d="M55.9583 46.5H45.5417C45.2654 46.5 45.0004 46.3902 44.8051 46.1949C44.6097 45.9995 44.5 45.7346 44.5 45.4583C44.5 45.1821 44.6097 44.9171 44.8051 44.7218C45.0004 44.5264 45.2654 44.4167 45.5417 44.4167H54.9167V11.0833H9.08333V44.4167H16.375C16.6513 44.4167 16.9162 44.5264 17.1116 44.7218C17.3069 44.9171 17.4167 45.1821 17.4167 45.4583C17.4167 45.7346 17.3069 45.9995 17.1116 46.1949C16.9162 46.3902 16.6513 46.5 16.375 46.5H8.04167C7.7654 46.5 7.50045 46.3902 7.3051 46.1949C7.10975 45.9995 7 45.7346 7 45.4583V10.0417C7 9.7654 7.10975 9.50046 7.3051 9.30511C7.50045 9.10976 7.7654 9 8.04167 9H55.9583C56.2346 9 56.4996 9.10976 56.6949 9.30511C56.8903 9.50046 57 9.7654 57 10.0417V45.4583C57 45.7346 56.8903 45.9995 56.6949 46.1949C56.4996 46.3902 56.2346 46.5 55.9583 46.5Z" fill="#404040"/>
<path d="M55.9583 17.3333H8.04167C7.7654 17.3333 7.50045 17.2236 7.3051 17.0282C7.10975 16.8329 7 16.5679 7 16.2917C7 16.0154 7.10975 15.7505 7.3051 15.5551C7.50045 15.3598 7.7654 15.25 8.04167 15.25H55.9583C56.2346 15.25 56.4996 15.3598 56.6949 15.5551C56.8903 15.7505 57 16.0154 57 16.2917C57 16.5679 56.8903 16.8329 56.6949 17.0282C56.4996 17.2236 56.2346 17.3333 55.9583 17.3333Z" fill="#404040"/>
<path d="M13.25 12.1667H11.1666V14.25H13.25V12.1667Z" fill="#404040"/>
<path d="M16.375 12.1667H14.2916V14.25H16.375V12.1667Z" fill="#404040"/>
</svg>
