<svg width="64" height="64" viewBox="0 0 64 64" fill="none" xmlns="http://www.w3.org/2000/svg">
<path d="M50.8979 28.5634C50.7532 28.5646 50.6098 28.5359 50.4767 28.4791L43.8941 25.6355L42.3354 26.3095L41.4191 24.3716L43.3886 23.5185C43.52 23.462 43.6616 23.4329 43.8046 23.4329C43.9477 23.4329 44.0892 23.462 44.2206 23.5185L49.3813 25.7513L48.4229 20.9908C48.3874 20.8142 48.3978 20.6314 48.4531 20.4599C48.5084 20.2884 48.6068 20.134 48.7389 20.0114L52.6989 16.3251L47.2012 15.8407C47.026 15.823 46.8581 15.7616 46.7127 15.6623C46.5674 15.5629 46.4493 15.4287 46.3692 15.2719L43.8098 10.3429L42.6092 12.66L40.7345 11.691L42.8409 7.57299C42.9293 7.40047 43.0636 7.25569 43.229 7.15459C43.3943 7.05349 43.5844 7 43.7782 7C43.9721 7 44.1622 7.05349 44.3276 7.15459C44.493 7.25569 44.6272 7.40047 44.7156 7.57299L47.9384 13.7974L55.2055 14.4399C55.4086 14.4573 55.6023 14.5332 55.763 14.6584C55.9238 14.7837 56.0448 14.9529 56.1113 15.1455C56.1775 15.3391 56.1858 15.5478 56.1353 15.7461C56.0848 15.9443 55.9776 16.1236 55.8269 16.2619L50.5609 21.1488L51.8037 27.3101C51.847 27.5025 51.8355 27.7033 51.7703 27.8895C51.7051 28.0757 51.589 28.2399 51.4351 28.3633C51.278 28.4784 51.092 28.5476 50.8979 28.5634V28.5634Z" fill="#FA4616"/>
<path d="M13.3933 28.5634C13.1521 28.5644 12.9179 28.4826 12.7298 28.3317C12.5759 28.2083 12.4597 28.0441 12.3945 27.8579C12.3293 27.6717 12.3178 27.471 12.3611 27.2785L13.6039 21.1172L8.33789 16.2304C8.18832 16.092 8.08213 15.9131 8.03216 15.7156C7.98219 15.518 7.99059 15.3102 8.05637 15.1174C8.12214 14.9245 8.24246 14.7548 8.40272 14.629C8.56299 14.5031 8.75632 14.4265 8.95928 14.4083L16.2264 13.7659L19.4598 7.62566C19.5481 7.45314 19.6824 7.30836 19.8478 7.20727C20.0132 7.10617 20.2033 7.05267 20.3971 7.05267C20.591 7.05267 20.781 7.10617 20.9464 7.20727C21.1118 7.30836 21.2461 7.45314 21.3345 7.62566L23.4409 11.7437L21.5662 12.7126L20.355 10.3429L17.7957 15.2719C17.7156 15.4287 17.5975 15.5629 17.4521 15.6623C17.3068 15.7616 17.1388 15.823 16.9637 15.8407L11.4659 16.3251L15.426 20.0114C15.558 20.134 15.6564 20.2884 15.7118 20.4599C15.7671 20.6314 15.7775 20.8142 15.7419 20.9908L14.7835 25.7513L19.9442 23.5185C20.0756 23.462 20.2172 23.4329 20.3603 23.4329C20.5033 23.4329 20.6448 23.462 20.7763 23.5185L22.7458 24.3716L21.9137 26.3095L20.355 25.6355L13.7724 28.4792C13.6524 28.5305 13.5238 28.5591 13.3933 28.5634Z" fill="#FA4616"/>
<path d="M25.263 28.5634C25.1061 28.5663 24.9506 28.534 24.8077 28.4691C24.6649 28.4041 24.5384 28.3081 24.4374 28.1879C24.3365 28.0678 24.2637 27.9267 24.2243 27.7748C24.1849 27.6229 24.1799 27.4641 24.2098 27.3101L25.442 21.1488L20.176 16.262C20.0271 16.1224 19.9219 15.9426 19.8733 15.7444C19.8247 15.5462 19.8347 15.3382 19.9022 15.1456C19.9687 14.9529 20.0896 14.7837 20.2504 14.6584C20.4112 14.5332 20.6048 14.4573 20.8079 14.4399L28.075 13.7975L31.3295 7.62566C31.4178 7.45314 31.5521 7.30836 31.7175 7.20727C31.8829 7.10617 32.073 7.05267 32.2668 7.05267C32.4606 7.05267 32.6507 7.10617 32.8161 7.20727C32.9815 7.30836 33.1158 7.45314 33.2042 7.62566L36.427 13.8501L43.6941 14.4926C43.8972 14.5099 44.0908 14.5859 44.2516 14.7111C44.4124 14.8364 44.5333 15.0056 44.5998 15.1982C44.666 15.3918 44.6744 15.6005 44.6239 15.7987C44.5734 15.997 44.4662 16.1763 44.3155 16.3146L39.0495 21.2015L40.2922 27.3628C40.3293 27.5512 40.3141 27.7463 40.2483 27.9267C40.1825 28.1072 40.0686 28.2663 39.9189 28.3867C39.7693 28.507 39.5895 28.5842 39.3991 28.6098C39.2087 28.6354 39.015 28.6084 38.8388 28.5318L36.0478 27.3312L36.8799 25.3933L37.8277 25.804L36.8693 21.0435C36.8338 20.8669 36.8442 20.684 36.8995 20.5125C36.9548 20.3411 37.0532 20.1866 37.1853 20.064L41.1453 16.3778L35.6476 15.8933C35.4724 15.8756 35.3045 15.8143 35.1591 15.7149C35.0138 15.6156 34.8957 15.4814 34.8156 15.3246L32.2563 10.3956L29.697 15.3246C29.6159 15.4828 29.4962 15.6179 29.3489 15.7173C29.2015 15.8168 29.0314 15.8773 28.8544 15.8933L23.3672 16.3778L27.3167 20.064C27.4488 20.1866 27.5472 20.3411 27.6025 20.5125C27.6578 20.684 27.6682 20.8669 27.6327 21.0435L26.6743 25.7513L27.6222 25.3406L28.4542 27.2785L25.6632 28.4792C25.5374 28.5357 25.4009 28.5644 25.263 28.5634V28.5634Z" fill="#FA4616"/>
<path d="M44.9054 53.8825C44.626 53.8825 44.3582 53.7715 44.1606 53.574C43.9631 53.3765 43.8522 53.1086 43.8522 52.8293H45.9586L43.8522 51.7761C43.954 50.8149 44.3183 49.9004 44.9054 49.1325C45.482 48.3668 45.8454 47.4619 45.9586 46.51V35.978C45.9309 35.7081 45.8111 35.456 45.6192 35.2641C45.4274 35.0723 45.1753 34.9524 44.9054 34.9248H42.7989C42.5196 34.9248 42.2517 34.8138 42.0542 34.6163C41.8567 34.4188 41.7457 34.1509 41.7457 33.8715C41.7181 33.6017 41.5982 33.3495 41.4064 33.1577C41.2145 32.9658 40.9624 32.846 40.6925 32.8183H38.5861C38.4081 32.8198 38.2327 32.7762 38.0761 32.6914C37.9195 32.6067 37.787 32.4837 37.6909 32.3339C37.3733 31.9984 36.9407 31.7953 36.4797 31.7651H34.3733V29.6587H36.4797C37.4401 29.695 38.3572 30.0678 39.0706 30.7119H40.6925C41.3394 30.7339 41.9656 30.9451 42.4936 31.3196C43.0215 31.694 43.428 32.2151 43.6626 32.8183H44.9054C45.7358 32.8422 46.5257 33.1827 47.1131 33.7702C47.7006 34.3576 48.0411 35.1475 48.065 35.978V46.51C47.9639 47.8527 47.4897 49.1404 46.6958 50.2278C46.3533 50.692 46.103 51.2176 45.9586 51.7761V52.8293C45.9586 53.1086 45.8476 53.3765 45.6501 53.574C45.4526 53.7715 45.1847 53.8825 44.9054 53.8825Z" fill="#404040"/>
<path d="M39.6393 31.723H37.5328V36.9891H39.6393V31.723Z" fill="#404040"/>
<path d="M43.8521 33.8295H41.7457V38.0423H43.8521V33.8295Z" fill="#404040"/>
<path d="M48.065 57H45.9586V53.8404H28.054V57H25.9476V52.7872C25.9476 52.5079 26.0586 52.24 26.2561 52.0425C26.4536 51.8449 26.7215 51.734 27.0008 51.734H47.0118C47.2911 51.734 47.559 51.8449 47.7565 52.0425C47.954 52.24 48.065 52.5079 48.065 52.7872V57Z" fill="#404040"/>
<path d="M31.2136 52.8293H29.1072V51.7761C29.1072 51.3337 29.1072 51.1652 28.3594 50.4174C26.8805 48.8996 25.6665 47.1445 24.768 45.2251C23.9762 43.6309 23.0044 42.1326 21.8717 40.7595C21.5418 40.3952 21.3015 39.9589 21.1699 39.4853C21.0382 39.0118 21.0189 38.5141 21.1134 38.0317C21.2048 37.5757 21.4021 37.1475 21.6893 36.7816C21.9765 36.4157 22.3456 36.1224 22.7669 35.9253C23.3667 35.6408 24.0296 35.5156 24.6919 35.5617C25.3541 35.6078 25.9933 35.8237 26.5479 36.1886C27.4726 36.8937 28.3294 37.6835 29.1072 38.5478V24.319C29.1072 23.481 29.4401 22.6773 30.0326 22.0848C30.6252 21.4923 31.4288 21.1594 32.2668 21.1594V21.1594C33.1048 21.1594 33.9085 21.4923 34.501 22.0848C35.0936 22.6773 35.4264 23.481 35.4264 24.319V36.9575H33.32V24.319C33.32 24.0397 33.2091 23.7718 33.0116 23.5743C32.8141 23.3767 32.5462 23.2658 32.2668 23.2658C31.9875 23.2658 31.7196 23.3767 31.5221 23.5743C31.3246 23.7718 31.2136 24.0397 31.2136 24.319V40.412C31.2138 40.6893 31.1292 40.9601 30.971 41.1879C30.8129 41.4157 30.5888 41.5896 30.3289 41.6864C30.0657 41.7951 29.7751 41.8191 29.4976 41.7549C29.2201 41.6907 28.9695 41.5416 28.7807 41.3283C27.7326 40.0676 26.569 38.9075 25.3051 37.8632C25.0558 37.7091 24.7715 37.6205 24.4787 37.6058C24.1859 37.591 23.8941 37.6506 23.6305 37.779C23.5045 37.8385 23.3942 37.9266 23.3082 38.0363C23.2223 38.146 23.1632 38.2743 23.1355 38.4109C23.1046 38.5711 23.1113 38.7364 23.1552 38.8935C23.1991 39.0507 23.2789 39.1956 23.3883 39.3166C24.6313 40.8109 25.692 42.4479 26.5479 44.193C27.3408 45.9127 28.4079 47.492 29.7075 48.8692C31.0135 50.1647 31.1083 50.8493 31.1083 51.6708L31.2136 52.8293Z" fill="#404040"/>
</svg>
