<svg width="64" height="64" viewBox="0 0 64 64" fill="none" xmlns="http://www.w3.org/2000/svg">
<path d="M40.1089 44.0121H28.1338C27.4629 44.0659 26.7896 43.9435 26.1805 43.6571C25.5714 43.3707 25.0476 42.9302 24.6611 42.3791C24.3018 41.9437 24.2147 41.8457 23.7575 41.8457H20.4916C20.2029 41.8457 19.926 41.731 19.7218 41.5268C19.5176 41.3227 19.403 41.0458 19.403 40.757V27.6934C19.403 27.4047 19.5176 27.1278 19.7218 26.9236C19.926 26.7194 20.2029 26.6047 20.4916 26.6047H24.8461C25.743 26.1093 26.5733 25.502 27.3174 24.7976L28.0032 24.0464C29.3749 22.555 30.2893 21.5643 30.2893 19.6919V18.7121C30.2807 18.2777 30.4128 17.8522 30.6659 17.499C30.919 17.1458 31.2796 16.884 31.6937 16.7526C32.2709 16.5793 32.8878 16.5911 33.458 16.7863C34.0281 16.9816 34.5228 17.3505 34.8725 17.8412C35.4391 18.516 35.8665 19.2963 36.1299 20.1371C36.3934 20.9779 36.4877 21.8626 36.4075 22.7401C36.4154 23.8547 36.2198 24.9615 35.8305 26.006C35.8305 26.1366 35.7434 26.2455 35.7217 26.3435V29.1304C35.7278 30.9355 35.177 32.6985 34.1445 34.1792C33.1119 35.6598 31.6478 36.7859 29.9519 37.404L29.1898 35.3683C30.4762 34.9136 31.588 34.0675 32.3689 32.9487C33.1499 31.8299 33.561 30.4947 33.5444 29.1304V26.3326C33.5592 25.9923 33.6329 25.6571 33.7621 25.3419C34.079 24.5155 34.2342 23.6359 34.2193 22.751C34.2965 22.1128 34.2396 21.4655 34.0521 20.8506C33.8646 20.2357 33.5508 19.6668 33.1307 19.1802C33.0547 19.0661 32.9532 18.9712 32.8341 18.9032C32.7151 18.8351 32.5818 18.7958 32.4449 18.7883V19.6592C32.4449 22.3699 31.0514 23.8723 29.5817 25.4617L28.885 26.2346L28.7979 26.3217C27.5895 27.4103 25.913 28.7276 24.8244 28.7276H21.5585V39.614H23.7357C24.2466 39.601 24.7524 39.7181 25.2056 39.9542C25.6588 40.1903 26.0446 40.5378 26.3267 40.9639C26.5149 41.2566 26.7832 41.4891 27.0997 41.6338C27.4162 41.7786 27.7675 41.8294 28.1121 41.7804H40.0871C40.3469 41.7042 40.5776 41.5511 40.7486 41.3412C40.9196 41.1313 41.023 40.8745 41.0451 40.6046C41.0398 40.5467 41.0398 40.4884 41.0451 40.4305L42.5583 31.373C42.5971 31.0673 42.5706 30.7569 42.4805 30.4623C42.3904 30.1677 42.2388 29.8955 42.0358 29.6638C41.7943 29.3741 41.4934 29.1396 41.1534 28.9762C40.8135 28.8128 40.4424 28.7243 40.0653 28.7167H36.7994V26.5394H40.0653C40.7567 26.5485 41.438 26.7057 42.0634 27.0006C42.6888 27.2954 43.2436 27.721 43.6905 28.2486C44.0997 28.7223 44.4021 29.2788 44.5768 29.88C44.7515 30.4811 44.7945 31.1129 44.7029 31.7322L43.2224 40.7679C43.1835 41.5938 42.8466 42.3775 42.2741 42.974C41.7016 43.5705 40.9324 43.9393 40.1089 44.0121V44.0121Z" fill="#FA4616"/>
<path d="M31.7372 56.9995C30.9438 57.0094 30.16 56.8251 29.4542 56.4626C28.7483 56.1002 28.1418 55.5707 27.6875 54.9202C27.0352 55.3734 26.2838 55.6635 25.4963 55.7661C24.7088 55.8688 23.9081 55.781 23.1615 55.5101C22.415 55.2392 21.7443 54.7931 21.2058 54.2093C20.6674 53.6255 20.2768 52.9211 20.067 52.1551C19.3017 52.3509 18.5008 52.3617 17.7306 52.1865C16.9604 52.0114 16.2429 51.6554 15.6375 51.1479C15.0322 50.6404 14.5564 49.9961 14.2495 49.2683C13.9426 48.5404 13.8134 47.75 13.8726 46.9623C13.0854 46.8844 12.3281 46.62 11.6635 46.1908C10.999 45.7617 10.4464 45.1803 10.0515 44.4948C9.65659 43.8094 9.43086 43.0396 9.393 42.2495C9.35514 41.4593 9.50624 40.6715 9.83378 39.9515C9.11859 39.6129 8.49492 39.1079 8.01501 38.4787C7.53509 37.8496 7.21289 37.1146 7.07537 36.3353C6.93786 35.5561 6.98904 34.7552 7.22462 33.9998C7.46021 33.2444 7.87333 32.5564 8.42943 31.9935C7.87333 31.4306 7.46021 30.7426 7.22462 29.9872C6.98904 29.2318 6.93786 28.4309 7.07537 27.6517C7.21289 26.8724 7.53509 26.1374 8.01501 25.5083C8.49492 24.8792 9.11859 24.3741 9.83378 24.0356C9.50591 23.3162 9.35458 22.529 9.39238 21.7393C9.43018 20.9497 9.65601 20.1805 10.0511 19.4958C10.4462 18.8111 10.9991 18.2306 11.6638 17.8027C12.3285 17.3747 13.0858 17.1118 13.8726 17.0356C13.8109 16.2473 13.9384 15.4556 14.2446 14.7265C14.5507 13.9974 15.0265 13.352 15.6325 12.844C16.2385 12.336 16.9571 11.9801 17.7284 11.8059C18.4997 11.6318 19.3015 11.6444 20.067 11.8428C20.2746 11.0753 20.664 10.3691 21.2021 9.78387C21.7403 9.19862 22.4114 8.7515 23.1588 8.48031C23.9062 8.20912 24.7079 8.12181 25.4961 8.22578C26.2843 8.32975 27.036 8.62194 27.6875 9.07765C28.148 8.43487 28.755 7.91111 29.4584 7.54979C30.1617 7.18847 30.941 7 31.7318 7C32.5225 7 33.3018 7.18847 34.0051 7.54979C34.7085 7.91111 35.3155 8.43487 35.7761 9.07765C36.4283 8.62447 37.1797 8.33438 37.9672 8.23175C38.7547 8.12912 39.5554 8.21694 40.302 8.48783C41.0485 8.75873 41.7192 9.2048 42.2577 9.78858C42.7962 10.3724 43.1867 11.0768 43.3965 11.8428C44.1603 11.631 44.9647 11.6116 45.7379 11.7864C46.511 11.9611 47.2288 12.3246 47.8273 12.8443C48.441 13.3459 48.9226 13.9902 49.2301 14.7208C49.5375 15.4514 49.6614 16.2461 49.5909 17.0356C50.3777 17.1118 51.135 17.3747 51.7997 17.8027C52.4644 18.2306 53.0173 18.8111 53.4124 19.4958C53.8075 20.1805 54.0333 20.9497 54.0711 21.7393C54.1089 22.529 53.9576 23.3162 53.6297 24.0356C54.3413 24.3778 54.9612 24.8845 55.4382 25.5138C55.9151 26.143 56.2354 26.8768 56.3727 27.6544C56.5099 28.432 56.4601 29.2311 56.2273 29.9856C55.9945 30.7401 55.5855 31.4284 55.0341 31.9935C55.5855 32.5586 55.9945 33.2469 56.2273 34.0014C56.4601 34.7559 56.5099 35.555 56.3727 36.3326C56.2354 37.1102 55.9151 37.844 55.4382 38.4732C54.9612 39.1025 54.3413 39.6092 53.6297 39.9515C53.9573 40.6715 54.1084 41.4593 54.0705 42.2495C54.0326 43.0396 53.8069 43.8094 53.412 44.4948C53.0172 45.1803 52.4645 45.7617 51.8 46.1908C51.1354 46.62 50.3781 46.8844 49.5909 46.9623C49.6501 47.75 49.5209 48.5404 49.214 49.2683C48.9071 49.9961 48.4313 50.6404 47.826 51.1479C47.2206 51.6554 46.5032 52.0114 45.7329 52.1865C44.9627 52.3617 44.1618 52.3509 43.3965 52.1551C43.1846 52.9196 42.7929 53.6223 42.2541 54.2047C41.7153 54.787 41.045 55.232 40.2993 55.5026C39.5535 55.7732 38.7538 55.8615 37.967 55.7602C37.1802 55.6589 36.4289 55.3709 35.7761 54.9202C35.3248 55.5712 34.7204 56.1014 34.0161 56.4639C33.3118 56.8265 32.5292 57.0104 31.7372 56.9995V56.9995ZM27.9814 52.0354H28.1773C28.3585 52.068 28.5284 52.146 28.6712 52.2622C28.8139 52.3783 28.925 52.5287 28.9938 52.6994L29.1353 53.0478C29.3339 53.5691 29.6879 54.0169 30.1494 54.3304C30.6109 54.6439 31.1576 54.808 31.7154 54.8005V54.8005C32.2729 54.8065 32.8189 54.6417 33.2801 54.3284C33.7413 54.0151 34.0956 53.5683 34.2955 53.0478L34.4261 52.6994C34.4951 52.5265 34.6072 52.3741 34.7518 52.2568C34.8965 52.1396 35.0688 52.0614 35.2522 52.0297C35.4357 51.998 35.6242 52.0139 35.7998 52.0759C35.9754 52.1379 36.1321 52.2439 36.2551 52.3837L36.4946 52.6559C36.8644 53.0696 37.3497 53.363 37.8879 53.4983C38.4261 53.6335 38.9925 53.6043 39.5139 53.4144C40.0354 53.2246 40.488 52.8829 40.8133 52.4333C41.1386 51.9837 41.3217 51.4469 41.339 50.8923V50.5221C41.3457 50.3377 41.3992 50.1581 41.4944 50C41.5896 49.842 41.7234 49.7107 41.8833 49.6186C42.0488 49.523 42.2365 49.4727 42.4276 49.4727C42.6187 49.4727 42.8065 49.523 42.972 49.6186L43.2986 49.7928C43.7828 50.0512 44.333 50.1598 44.8791 50.1045C45.4252 50.0492 45.9425 49.8327 46.3651 49.4825C46.7877 49.1322 47.0966 48.6641 47.2523 48.1378C47.408 47.6114 47.4035 47.0506 47.2394 46.5268L47.1305 46.1785C47.063 45.9961 47.0455 45.7989 47.08 45.6074C47.1144 45.4159 47.1996 45.2372 47.3265 45.0898C47.4454 44.9471 47.5989 44.8371 47.7723 44.7704C47.9457 44.7037 48.1332 44.6825 48.3172 44.7088L48.6873 44.7632C49.2365 44.8428 49.797 44.7559 50.2963 44.5139C50.7956 44.2718 51.211 43.8856 51.4887 43.4052C51.7664 42.9247 51.8938 42.3721 51.8543 41.8185C51.8149 41.265 51.6104 40.736 51.2674 40.2998L51.0388 40.0059C50.9154 39.8564 50.8343 39.6766 50.8037 39.4853C50.7731 39.2939 50.7941 39.0978 50.8646 38.9172C50.9279 38.7418 51.0353 38.5856 51.1764 38.4636C51.3174 38.3416 51.4875 38.2579 51.6702 38.2205L52.0294 38.1552C52.5743 38.0428 53.0729 37.7693 53.4604 37.3701C53.848 36.9709 54.1067 36.4645 54.2029 35.9165C54.2991 35.3685 54.2284 34.8042 54.0001 34.2969C53.7717 33.7896 53.3961 33.3626 52.9221 33.0713L52.6064 32.8753C52.4495 32.7772 52.3202 32.6408 52.2307 32.4789C52.1412 32.317 52.0944 32.135 52.0947 31.95C52.0944 31.765 52.1412 31.5829 52.2307 31.421C52.3202 31.2591 52.4495 31.1227 52.6064 31.0246L52.9221 30.8287C53.3924 30.536 53.7644 30.1094 53.9903 29.6036C54.2161 29.0979 54.2855 28.5361 54.1895 27.9906C54.0936 27.445 53.8365 26.9407 53.4516 26.5424C53.0667 26.1441 52.5714 25.8701 52.0294 25.7556L51.6702 25.6794C51.4875 25.642 51.3174 25.5583 51.1764 25.4363C51.0353 25.3143 50.9279 25.1581 50.8646 24.9827C50.7941 24.8021 50.7731 24.6061 50.8037 24.4147C50.8343 24.2233 50.9154 24.0436 51.0388 23.894L51.2674 23.6001C51.6104 23.1639 51.8149 22.6349 51.8543 22.0814C51.8938 21.5278 51.7664 20.9752 51.4887 20.4947C51.211 20.0143 50.7956 19.6281 50.2963 19.3861C49.797 19.144 49.2365 19.0571 48.6873 19.1367H48.3172C48.1342 19.1624 47.9478 19.1411 47.7753 19.0749C47.6029 19.0087 47.4501 18.8996 47.3314 18.7581C47.2128 18.6165 47.132 18.4471 47.0969 18.2658C47.0617 18.0844 47.0733 17.8971 47.1305 17.7214L47.2394 17.3731C47.4132 16.8466 47.4253 16.2802 47.2743 15.7467C47.1232 15.2133 46.8159 14.7373 46.3919 14.3801C45.9679 14.0229 45.4467 13.8008 44.8954 13.7424C44.3441 13.6841 43.7879 13.7922 43.2986 14.0527L42.972 14.2269C42.8084 14.3165 42.6245 14.3626 42.438 14.3607C42.2515 14.3588 42.0686 14.309 41.9068 14.2161C41.7451 14.1232 41.6099 13.9903 41.5143 13.8302C41.4187 13.6701 41.3658 13.488 41.3608 13.3016V12.9314C41.3435 12.3768 41.1604 11.84 40.8351 11.3904C40.5098 10.9409 40.0572 10.5991 39.5357 10.4093C39.0143 10.2194 38.4479 10.1902 37.9097 10.3255C37.3715 10.4607 36.8861 10.7541 36.5163 11.1678L36.2768 11.4509C36.1534 11.5895 35.9966 11.6943 35.8213 11.7553C35.646 11.8162 35.4581 11.8314 35.2753 11.7992C35.091 11.7673 34.9181 11.6884 34.7732 11.5702C34.6282 11.452 34.5162 11.2984 34.4479 11.1243L34.3173 10.7759C34.108 10.2634 33.7508 9.82489 33.2913 9.51619C32.8318 9.20749 32.2908 9.04264 31.7372 9.04264C31.1836 9.04264 30.6426 9.20749 30.1831 9.51619C29.7236 9.82489 29.3664 10.2634 29.1571 10.7759L29.0156 11.1243C28.9482 11.297 28.8379 11.4497 28.695 11.5678C28.5521 11.6859 28.3814 11.7656 28.1991 11.7992C28.0163 11.8314 27.8284 11.8162 27.6531 11.7553C27.4778 11.6943 27.321 11.5895 27.1976 11.4509L26.9472 11.1678C26.5774 10.7541 26.092 10.4607 25.5538 10.3255C25.0156 10.1902 24.4493 10.2194 23.9278 10.4093C23.4063 10.5991 22.9537 10.9409 22.6284 11.3904C22.3031 11.84 22.12 12.3768 22.1027 12.9314V13.3016C22.0979 13.4878 22.0452 13.6697 21.9499 13.8298C21.8546 13.99 21.7198 14.1229 21.5584 14.216C21.3929 14.3116 21.2052 14.3619 21.0141 14.3619C20.823 14.3619 20.6353 14.3116 20.4698 14.216L20.1432 14.0418C19.6536 13.7777 19.0959 13.6668 18.5424 13.7235C17.989 13.7802 17.4654 14.0018 17.0395 14.3597C16.6135 14.7176 16.3049 15.1952 16.1537 15.7305C16.0025 16.2659 16.0157 16.8344 16.1914 17.3622L16.3112 17.7106C16.3773 17.8939 16.393 18.0917 16.3566 18.2832C16.3202 18.4747 16.2331 18.6529 16.1043 18.7992C15.9854 18.942 15.832 19.0519 15.6586 19.1186C15.4852 19.1853 15.2976 19.2065 15.1137 19.1802H14.7544C14.2052 19.1007 13.6448 19.1875 13.1454 19.4296C12.6461 19.6717 12.2308 20.0579 11.953 20.5383C11.6753 21.0187 11.548 21.5714 11.5874 22.1249C11.6269 22.6784 11.8313 23.2074 12.1743 23.6436L12.403 23.9376C12.5263 24.0871 12.6074 24.2668 12.6381 24.4582C12.6687 24.6496 12.6477 24.8457 12.5772 25.0262C12.5138 25.2016 12.4064 25.3578 12.2654 25.4798C12.1243 25.6018 11.9543 25.6855 11.7716 25.7229L11.4014 25.7991C10.8595 25.9137 10.3642 26.1877 9.97924 26.586C9.5943 26.9843 9.3373 27.4886 9.2413 28.0341C9.14531 28.5796 9.21471 29.1414 9.44057 29.6472C9.66644 30.1529 10.0384 30.5796 10.5087 30.8722L10.8244 31.0682C10.9834 31.1649 11.1148 31.3007 11.2063 31.4627C11.2978 31.6247 11.3462 31.8075 11.347 31.9935C11.3462 32.1795 11.2978 32.3623 11.2063 32.5243C11.1148 32.6863 10.9834 32.8221 10.8244 32.9189L10.5087 33.1148C10.0347 33.4061 9.65917 33.8331 9.43079 34.3404C9.20241 34.8478 9.13174 35.412 9.22796 35.96C9.32418 36.508 9.58285 37.0145 9.97041 37.4136C10.358 37.8128 10.8565 38.0864 11.4014 38.1987L11.7716 38.2641C11.9523 38.3032 12.1201 38.3876 12.2591 38.5095C12.3982 38.6314 12.5039 38.7867 12.5663 38.9608C12.6382 39.1404 12.6611 39.3359 12.6324 39.5273C12.6037 39.7186 12.5245 39.8989 12.403 40.0494L12.1743 40.3434C11.8313 40.7796 11.6269 41.3086 11.5874 41.8621C11.548 42.4156 11.6753 42.9683 11.953 43.4487C12.2308 43.9292 12.6461 44.3153 13.1454 44.5574C13.6448 44.7995 14.2052 44.8863 14.7544 44.8068L15.1137 44.7524C15.2987 44.7237 15.4879 44.7432 15.6632 44.809C15.8384 44.8748 15.9938 44.9847 16.1142 45.1281C16.2345 45.2715 16.3159 45.4434 16.3504 45.6274C16.3849 45.8114 16.3714 46.0012 16.3112 46.1785L16.1914 46.5268C16.0311 47.0513 16.0297 47.6115 16.1875 48.1368C16.3452 48.662 16.655 49.1288 17.0777 49.4782C17.5005 49.8275 18.0172 50.0439 18.5628 50.0999C19.1084 50.1559 19.6583 50.049 20.1432 49.7928L20.4698 49.6186C20.633 49.5315 20.8157 49.4875 21.0007 49.4907C21.1857 49.4939 21.3668 49.5441 21.5269 49.6367C21.6871 49.7293 21.821 49.8612 21.9161 50.02C22.0111 50.1787 22.0641 50.359 22.0701 50.5439V50.9141C22.0874 51.4687 22.2705 52.0055 22.5958 52.4551C22.9211 52.9046 23.3737 53.2464 23.8951 53.4362C24.4166 53.626 24.983 53.6552 25.5212 53.52C26.0594 53.3848 26.5447 53.0914 26.9145 52.6776L27.1649 52.4055C27.2669 52.2894 27.3925 52.1963 27.5333 52.1325C27.6741 52.0687 27.8268 52.0355 27.9814 52.0354Z" fill="#404040"/>
</svg>
