<svg width="64" height="64" viewBox="0 0 64 64" fill="none" xmlns="http://www.w3.org/2000/svg">
<path d="M18.4151 41.3701C17.706 41.3712 17.0041 41.2275 16.3525 40.9478C15.7009 40.668 15.1133 40.2581 14.6257 39.7432C14.1381 39.2284 13.7608 38.6193 13.517 37.9534C13.2731 37.2875 13.1678 36.5789 13.2075 35.8709V34.3815C13.2075 33.0004 13.7562 31.6758 14.7328 30.6992C15.7094 29.7226 17.034 29.1739 18.4151 29.1739C19.7962 29.1739 21.1208 29.7226 22.0974 30.6992C23.074 31.6758 23.6227 33.0004 23.6227 34.3815V35.8709C23.6624 36.5789 23.5571 37.2875 23.3132 37.9534C23.0694 38.6193 22.6921 39.2284 22.2045 39.7432C21.7169 40.2581 21.1293 40.668 20.4777 40.9478C19.8261 41.2275 19.1242 41.3712 18.4151 41.3701V41.3701ZM18.4151 30.9549C17.9804 30.9607 17.5516 31.0556 17.1551 31.2338C16.7586 31.412 16.4029 31.6697 16.11 31.9909C15.8171 32.3121 15.5933 32.69 15.4523 33.1012C15.3114 33.5124 15.2563 33.9482 15.2906 34.3815V35.8709C15.2906 36.6995 15.6197 37.4943 16.2057 38.0803C16.7917 38.6662 17.5864 38.9954 18.4151 38.9954C19.2438 38.9954 20.0385 38.6662 20.6245 38.0803C21.2105 37.4943 21.5397 36.6995 21.5397 35.8709V34.3815C21.5724 33.9485 21.5162 33.5133 21.3747 33.1028C21.2332 32.6923 21.0092 32.315 20.7166 31.9942C20.4241 31.6733 20.069 31.4156 19.6732 31.2369C19.2774 31.0582 18.8493 30.9622 18.4151 30.9549V30.9549Z" fill="#404040"/>
<path d="M26.7265 56.9929H20.0087L14.4887 50.3688L16.0822 49.0357L20.9773 54.9098H26.7265C26.996 54.9321 27.267 54.8952 27.5207 54.8017C27.7744 54.7081 28.0046 54.5601 28.195 54.3682C28.5451 53.9267 28.7522 53.389 28.7887 52.8268H23.1229L15.8322 44.4947H14.2491C11.8328 44.4947 11.2495 46.786 11.1246 47.765C10.7704 50.2647 10.083 56.0243 10.083 56.0972L8 55.8576C8 55.7951 8.6874 50.0251 9.04152 47.5255C9.47896 44.4009 11.4683 42.4637 14.2491 42.4637H16.8008L24.0915 50.7958H30.7988L30.903 51.7228C31.0687 53.1779 30.6657 54.6407 29.7782 55.8055C29.3853 56.212 28.9092 56.5285 28.3824 56.7335C27.8556 56.9384 27.2907 57.0269 26.7265 56.9929V56.9929Z" fill="#404040"/>
<path d="M41.3286 53.8683H31.9549V51.7853H40.7349L45.7342 43.4532H29.3823L25.5287 49.244L23.8311 48.0567L27.9971 41.8075C28.0924 41.6628 28.2224 41.5441 28.3751 41.4623C28.5279 41.3805 28.6987 41.338 28.872 41.3388H47.6193C47.8038 41.3396 47.9848 41.3894 48.1438 41.4831C48.3028 41.5768 48.434 41.711 48.524 41.8721C48.6141 42.0331 48.6597 42.2151 48.6563 42.3996C48.6529 42.5841 48.6006 42.7644 48.5046 42.922L42.2555 53.3372C42.1634 53.5012 42.0285 53.6371 41.8653 53.7307C41.7021 53.8242 41.5166 53.8718 41.3286 53.8683V53.8683Z" fill="#404040"/>
<path d="M49.6607 54.8786H16.3322V56.9616H49.6607V54.8786Z" fill="#404040"/>
<path d="M31.9653 39.2871C31.7352 39.2838 31.5068 39.2451 31.2884 39.1725C30.8746 39.0328 30.5153 38.7665 30.2611 38.4114C30.0069 38.0563 29.8708 37.6303 29.8719 37.1936V33.0275H28.8304C27.7255 33.0275 26.6658 32.5886 25.8845 31.8073C25.1032 31.026 24.6643 29.9664 24.6643 28.8615V11.1661C24.6643 10.0612 25.1032 9.0015 25.8845 8.22021C26.6658 7.43892 27.7255 7 28.8304 7H51.7438C52.8487 7 53.9084 7.43892 54.6897 8.22021C55.4709 9.0015 55.9099 10.0612 55.9099 11.1661V27.8304C55.9099 28.5142 55.7752 29.1914 55.5135 29.8232C55.2518 30.455 54.8682 31.0291 54.3846 31.5127C53.901 31.9963 53.3269 32.3798 52.6951 32.6415C52.0633 32.9033 51.3861 33.038 50.7023 33.038H37.6833L33.6214 38.4539C33.4284 38.7112 33.1785 38.9203 32.8912 39.0648C32.6038 39.2094 32.287 39.2855 31.9653 39.2871ZM28.8408 9.08304C28.2883 9.08304 27.7585 9.30253 27.3679 9.69317C26.9772 10.0838 26.7578 10.6136 26.7578 11.1661V28.8719C26.7578 29.4243 26.9772 29.9541 27.3679 30.3448C27.7585 30.7354 28.2883 30.9549 28.8408 30.9549H30.9238C31.2001 30.9549 31.465 31.0647 31.6603 31.26C31.8556 31.4553 31.9653 31.7202 31.9653 31.9964V37.204L36.3397 31.3716C36.4367 31.2422 36.5625 31.1372 36.7072 31.0649C36.8518 30.9926 37.0112 30.9549 37.1729 30.9549H50.7127C51.5414 30.9549 52.3361 30.6258 52.9221 30.0398C53.508 29.4538 53.8372 28.6591 53.8372 27.8304V11.1661C53.8372 10.6136 53.6178 10.0838 53.2271 9.69317C52.8365 9.30253 52.3067 9.08304 51.7542 9.08304H28.8408Z" fill="#404040"/>
<path d="M40.2871 28.2365L39.5476 27.497C38.6201 26.6162 37.6202 25.8149 36.5585 25.1016C34.2984 23.4872 31.955 21.8103 31.955 18.4254C31.9556 17.4713 32.2362 16.5385 32.762 15.7424C33.2878 14.9463 34.0356 14.322 34.9129 13.9469C35.817 13.6045 36.7987 13.5206 37.7479 13.7046C38.6971 13.8885 39.5763 14.333 40.2871 14.9884C40.9969 14.335 41.8743 13.8916 42.8214 13.7077C43.7685 13.5238 44.7481 13.6066 45.6509 13.9469C46.5293 14.3215 47.2786 14.9454 47.8062 15.7414C48.3337 16.5373 48.6164 17.4705 48.6193 18.4254C48.6193 21.8103 46.2654 23.4872 44.0053 25.1016C42.9436 25.8149 41.9437 26.6162 41.0162 27.497L40.2871 28.2365ZM36.6939 15.6758C36.3573 15.6729 36.0238 15.7403 35.7148 15.8737C35.2095 16.0878 34.7797 16.4481 34.4809 16.9084C34.182 17.3688 34.0278 17.908 34.038 18.4567C34.038 20.6647 35.3816 21.7375 37.7666 23.4352C38.6388 24.0381 39.48 24.6847 40.2871 25.3724C41.0887 24.6824 41.9266 24.0357 42.7972 23.4352C45.1822 21.7375 46.5362 20.6647 46.5362 18.4567C46.5374 17.9138 46.3792 17.3826 46.081 16.929C45.7829 16.4753 45.3581 16.1192 44.8594 15.9049C43.672 15.4154 42.2764 15.905 41.0162 17.1131L40.2871 17.8526L39.5476 17.1131C39.1899 16.6976 38.7537 16.3567 38.264 16.11C37.7743 15.8634 37.2407 15.7158 36.6939 15.6758V15.6758Z" fill="#FA4616"/>
</svg>
