<svg width="64" height="64" viewBox="0 0 64 64" fill="none" xmlns="http://www.w3.org/2000/svg">
<path d="M25.4615 50.4743L23.9917 49.0045L24.1168 48.869C24.4403 48.4723 24.8518 48.1565 25.3187 47.9466C25.7855 47.7367 26.2949 47.6385 26.8063 47.6598H42.0467C43.2351 47.1594 48.5203 42.0514 49.7087 40.7067C51.4598 38.3644 53.0381 35.8978 54.4309 33.3262C53.6081 32.9023 52.6573 32.7983 51.7623 33.0344C50.4175 33.3471 49.5106 34.2957 48.2909 36.662C48.1917 36.8544 48.035 37.011 47.8427 37.1103L43.2976 39.4766L42.3386 37.6211L46.5917 35.4111C47.8218 33.0761 49.0832 31.5228 51.2932 31.0016C52.2099 30.7346 53.1828 30.7277 54.1032 30.9818C55.0237 31.2358 55.8553 31.7407 56.5053 32.4402C56.6166 32.5873 56.6867 32.7614 56.7087 32.9445C56.7307 33.1276 56.7037 33.3133 56.6304 33.4826C55.0939 36.5131 53.2866 39.3984 51.2306 42.1036C51.1681 42.187 44.0691 49.7551 42.1197 49.7551H26.7542C26.5292 49.7355 26.303 49.7753 26.0981 49.8704C25.8933 49.9655 25.7169 50.1127 25.5866 50.2971L25.4615 50.4743Z" fill="#404040"/>
<path d="M40.0558 43.4483H30.6738C30.3974 43.4483 30.1322 43.3385 29.9367 43.143C29.7412 42.9475 29.6314 42.6823 29.6314 42.4059C29.6314 42.1294 29.7412 41.8643 29.9367 41.6688C30.1322 41.4733 30.3974 41.3634 30.6738 41.3634H40.0558C41.4943 41.3634 42.1407 40.5712 42.1407 39.7998C42.1407 39.0284 41.4943 38.2361 40.0558 38.2361H33.8012C32.9921 38.128 32.2392 37.7625 31.6537 37.1937C31.1616 36.7219 30.5704 36.3658 29.9233 36.1512H24.7111C23.3976 36.3768 22.1875 37.0073 21.2502 37.9547C19.7282 39.487 17.0804 42.0202 17.0179 42.041C16.9211 42.1466 16.8037 42.2311 16.6728 42.2892C16.542 42.3474 16.4005 42.3779 16.2573 42.379C16.1141 42.3801 15.9723 42.3517 15.8405 42.2955C15.7088 42.2393 15.5901 42.1566 15.4917 42.0525C15.3934 41.9484 15.3175 41.8252 15.2689 41.6905C15.2203 41.5558 15.2 41.4126 15.2092 41.2697C15.2184 41.1268 15.2569 40.9873 15.3224 40.8599C15.3879 40.7326 15.4789 40.6201 15.5898 40.5295C15.5898 40.5295 18.2688 37.9859 19.8116 36.4536C21.1255 35.1234 22.8539 34.2813 24.7111 34.0664H29.9233C31.0501 34.212 32.1015 34.7122 32.9255 35.4945C33.2212 35.7495 33.5426 35.9731 33.8845 36.1617H40.0558C42.787 36.1617 44.2255 37.9964 44.2255 39.8102C44.2255 41.624 42.7453 43.4483 40.0558 43.4483Z" fill="#404040"/>
<path d="M20.4997 57C20.2247 56.9961 19.9624 56.8837 19.77 56.6873L8.30314 45.2205C8.10899 45.0252 8 44.7609 8 44.4855C8 44.2101 8.10899 43.9459 8.30314 43.7506L13.5153 38.5384C13.7106 38.3443 13.9748 38.2353 14.2502 38.2353C14.5256 38.2353 14.7899 38.3443 14.9852 38.5384L26.452 50.0053C26.6462 50.2006 26.7551 50.4648 26.7551 50.7402C26.7551 51.0156 26.6462 51.2798 26.452 51.4751L21.2398 56.6873C21.1433 56.7858 21.0281 56.8641 20.9011 56.9178C20.774 56.9715 20.6376 56.9994 20.4997 57ZM10.5131 44.4907L20.4997 54.4773L24.242 50.7454L14.245 40.7484L10.5131 44.4907Z" fill="#404040"/>
<path d="M14.9797 43.7882L13.5055 45.2624L15.5915 47.3485L17.0658 45.8742L14.9797 43.7882Z" fill="#404040"/>
<path d="M45.2679 33.0239C44.9914 33.0239 44.7263 32.9141 44.5308 32.7186C44.3353 32.5231 44.2255 32.258 44.2255 31.9815V30.939C44.2255 28.7291 40.1495 27.8117 37.9709 27.8117C35.7922 27.8117 31.7162 28.7291 31.7162 30.939V31.9815C31.7162 32.258 31.6064 32.5231 31.4109 32.7186C31.2154 32.9141 30.9503 33.0239 30.6738 33.0239C30.3973 33.0239 30.1322 32.9141 29.9367 32.7186C29.7412 32.5231 29.6313 32.258 29.6313 31.9815V30.939C29.6313 27.1341 34.7497 25.7269 37.9709 25.7269C41.192 25.7269 46.3104 27.1341 46.3104 30.939V31.9815C46.3104 32.258 46.2005 32.5231 46.005 32.7186C45.8095 32.9141 45.5444 33.0239 45.2679 33.0239Z" fill="#FA4616"/>
<path d="M37.9709 24.6844C36.5765 24.6707 35.2446 24.1042 34.2674 23.1094C33.2902 22.1147 32.7476 20.7728 32.7587 19.3784V18.5236C32.7587 17.1412 33.3079 15.8155 34.2853 14.838C35.2628 13.8606 36.5885 13.3114 37.9709 13.3114C39.3533 13.3114 40.679 13.8606 41.6565 14.838C42.6339 15.8155 43.1831 17.1412 43.1831 18.5236V19.4722C43.1695 20.8504 42.616 22.1683 41.6415 23.1428C40.6669 24.1174 39.3491 24.6708 37.9709 24.6844ZM37.9709 15.3025C37.5522 15.3023 37.1377 15.3862 36.7521 15.5492C36.3664 15.7122 36.0174 15.9509 35.7257 16.2514C35.4341 16.5518 35.2057 16.9077 35.0542 17.298C34.9026 17.6883 34.831 18.1051 34.8436 18.5236V19.4722C34.8436 20.3016 35.1731 21.0971 35.7596 21.6836C36.3461 22.27 37.1415 22.5995 37.9709 22.5995C38.8003 22.5995 39.5957 22.27 40.1822 21.6836C40.7687 21.0971 41.0982 20.3016 41.0982 19.4722V18.6174C41.1238 18.1912 41.0619 17.7643 40.9162 17.363C40.7706 16.9616 40.5443 16.5943 40.2513 16.2838C39.9583 15.9732 39.6048 15.7259 39.2126 15.5571C38.8205 15.3884 38.3979 15.3017 37.9709 15.3025V15.3025Z" fill="#FA4616"/>
<path d="M24.4192 32.607C24.2373 32.6059 24.0589 32.5572 23.9016 32.4658C23.7443 32.3743 23.6137 32.2433 23.5228 32.0857C22.1239 29.6888 21.3453 26.9807 21.2575 24.2068C21.1697 21.433 21.7754 18.681 23.0198 16.2004C24.2642 13.7197 26.1079 11.5888 28.3839 10.0007C30.6598 8.41261 33.2961 7.41755 36.0538 7.10566C38.8114 6.79378 41.6034 7.17494 44.1765 8.21462C46.7497 9.2543 49.0227 10.9196 50.7897 13.0597C52.5567 15.1997 53.7617 17.7469 54.2956 20.4703C54.8295 23.1937 54.6754 26.0073 53.8473 28.6561C53.7594 28.9124 53.5752 29.1244 53.3337 29.2471C53.0922 29.3699 52.8124 29.3939 52.5535 29.3139C52.2947 29.234 52.0772 29.0564 51.947 28.8188C51.8168 28.5812 51.7843 28.3023 51.8562 28.0411C52.3202 26.6206 52.5594 25.1363 52.5651 23.642C52.5718 21.3995 52.0616 19.1856 51.0742 17.1721C50.0867 15.1587 48.6486 13.3999 46.8713 12.0323C45.0941 10.6646 43.0256 9.72499 40.8264 9.28623C38.6272 8.84747 36.3565 8.92142 34.1905 9.50233C32.0245 10.0833 30.0215 11.1555 28.337 12.6359C26.6525 14.1162 25.3318 15.9649 24.4775 18.0383C23.6231 20.1117 23.2581 22.3541 23.4107 24.5914C23.5633 26.8288 24.2294 29.0009 25.3574 30.9391C25.4513 31.0973 25.5016 31.2776 25.5032 31.4616C25.5048 31.6456 25.4576 31.8267 25.3666 31.9866C25.2755 32.1465 25.1438 32.2794 24.9847 32.3719C24.8256 32.4644 24.6449 32.5131 24.4609 32.5132L24.4192 32.607Z" fill="#404040"/>
</svg>
