<svg width="64" height="64" viewBox="0 0 64 64" fill="none" xmlns="http://www.w3.org/2000/svg">
<path d="M50.2133 23.3383C49.9651 23.338 49.7181 23.3027 49.4798 23.2335C48.7249 23.0201 48.0433 22.6032 47.5095 22.0283L47.3314 21.8397C46.0109 20.4458 45.7803 18.5909 46.8074 17.6477L49.3121 15.2792C49.972 14.6758 50.8439 14.3581 51.7373 14.3955C52.6307 14.4328 53.4731 14.822 54.0805 15.4783L54.2586 15.6669C54.8884 16.3028 55.2416 17.1615 55.2416 18.0564C55.2416 18.9513 54.8884 19.81 54.2586 20.4458L51.7434 22.8038C51.5366 22.99 51.2948 23.1332 51.0321 23.2249C50.7694 23.3167 50.4911 23.3552 50.2133 23.3383ZM51.5653 16.4529C51.2658 16.45 50.9768 16.5626 50.7583 16.7674L48.2431 19.1358C48.2784 19.6171 48.4957 20.0668 48.8509 20.3934L49.0291 20.5821C49.1797 20.7745 49.3699 20.9321 49.587 21.0443C49.804 21.1564 50.0427 21.2204 50.2867 21.2318L52.7705 18.8843C53.0085 18.6448 53.1422 18.3208 53.1422 17.983C53.1422 17.6453 53.0085 17.3213 52.7705 17.0817L52.5923 16.8931C52.4639 16.7475 52.3058 16.631 52.1286 16.5515C51.9515 16.472 51.7594 16.4312 51.5653 16.432V16.4529Z" fill="#404040"/>
<path d="M28.0482 56.9895L26.5496 55.5328C26.6334 55.4385 28.6456 53.4368 29.6936 52.3888L30.0289 52.0639H30.49C32.6852 52.3062 34.9045 51.9313 36.8984 50.9816C38.8923 50.0319 40.5818 48.5449 41.777 46.6877C41.9447 46.4467 42.0809 46.258 42.1857 46.1323L43.7787 47.4946L43.4747 47.9139C42.1135 49.9948 40.2216 51.6746 37.9942 52.78C35.7669 53.8854 33.2849 54.3762 30.8044 54.2019C29.725 55.2603 28.0692 56.9686 28.0482 56.9895Z" fill="#404040"/>
<path d="M50.622 42.6634C49.739 42.6288 48.8965 42.2837 48.243 41.6888L48.0649 41.542C47.5023 41.0637 47.0819 40.4402 46.8492 39.7395C46.7277 39.3883 46.6967 39.0122 46.7589 38.6458C46.8212 38.2795 46.9748 37.9348 47.2055 37.6435L49.3015 35.2226C49.5743 34.9032 49.9082 34.6418 50.2837 34.4536C50.6591 34.2654 51.0685 34.1544 51.4875 34.127C51.9066 34.0997 52.3269 34.1566 52.7237 34.2943C53.1204 34.4321 53.4855 34.6479 53.7974 34.9291L53.9756 35.0863C54.6199 35.634 55.0228 36.4133 55.097 37.2557C55.1344 37.6735 55.0879 38.0946 54.9601 38.4942C54.8323 38.8938 54.6258 39.2637 54.3529 39.5823L52.2569 42.0031C52.0487 42.2253 51.7946 42.3995 51.5122 42.5135C51.2299 42.6276 50.9261 42.6787 50.622 42.6634ZM51.67 36.1972C51.5194 36.1959 51.3703 36.2271 51.2329 36.2886C51.0955 36.35 50.9729 36.4404 50.8735 36.5535L48.7775 38.9744C48.881 39.3593 49.1051 39.7008 49.4168 39.9491L49.595 40.1063C49.7406 40.2518 49.914 40.3667 50.1048 40.4441C50.2956 40.5215 50.5 40.5598 50.7058 40.5569L52.8018 38.1675C52.8916 38.0631 52.9584 37.9412 52.9982 37.8094C53.0379 37.6776 53.0495 37.539 53.0324 37.4024C53.0212 37.2531 52.9801 37.1076 52.9117 36.9744C52.8433 36.8412 52.7489 36.723 52.6341 36.6269L52.4665 36.4802C52.2513 36.2942 51.9754 36.1936 51.691 36.1972H51.67Z" fill="#404040"/>
<path d="M29.3373 49.2658L27.3565 48.5741C28.1849 46.2724 28.4497 43.8058 28.1288 41.3807C27.8079 38.9556 26.9106 36.6427 25.5121 34.6357L25.1662 34.1956L25.3444 33.6611C26.1332 31.3074 26.6226 28.8639 26.8011 26.388C26.8681 25.0715 26.4547 23.7755 25.6378 22.7409C25.5435 22.6357 25.4232 22.5571 25.2889 22.5129C25.1547 22.4688 25.0112 22.4607 24.8728 22.4894C24.7656 22.4965 24.6623 22.5324 24.5737 22.5932C24.4852 22.6541 24.4147 22.7377 24.3697 22.8353C23.7619 24.7531 23.3217 26.1888 22.9864 27.3521C22.3366 29.511 21.9384 30.8105 21.2467 32.5921C20.7133 34.3649 20.4691 36.2121 20.5236 38.0627C20.5915 39.1643 20.4565 40.2691 20.1254 41.322C20.031 41.5316 19.2136 42.852 17.7045 45.252L15.9333 44.1306C16.9813 42.5062 18.1132 40.6408 18.239 40.4102C18.3831 39.6188 18.4429 38.8143 18.4171 38.0103C18.3636 35.9195 18.6539 33.8342 19.2765 31.8376C19.9577 30.0874 20.3245 28.8822 20.9637 26.7129C21.3201 25.5391 21.7497 24.1033 22.3576 22.1646C22.517 21.6929 22.806 21.2756 23.1915 20.9605C23.577 20.6455 24.0434 20.4453 24.5374 20.3829C25.0536 20.2775 25.5891 20.3199 26.0823 20.5053C26.5754 20.6907 27.0062 21.0115 27.3251 21.4309C28.4751 22.8928 29.036 24.7323 28.8971 26.5871C28.7251 29.0371 28.2607 31.4577 27.5137 33.7973C28.9965 36.0576 29.9331 38.6319 30.2496 41.3165C30.5661 44.0012 30.2538 46.7226 29.3373 49.2658V49.2658Z" fill="#404040"/>
<path d="M50.664 36.082H50.2343C49.4973 35.9573 48.8106 35.6267 48.2536 35.1283L48.0754 34.9815C47.5041 34.4984 47.0763 33.8676 46.8388 33.158C46.7113 32.7967 46.6781 32.4088 46.7423 32.031C46.8065 31.6533 46.9659 31.2981 47.2056 30.9992L49.3016 28.5364C49.8684 27.8948 50.6661 27.5038 51.5204 27.4488C52.3747 27.3938 53.216 27.6793 53.8604 28.2429L54.0385 28.4001C54.6852 28.9606 55.0906 29.7489 55.1704 30.6009C55.2093 31.0229 55.1625 31.4483 55.0328 31.8518C54.9032 32.2552 54.6933 32.6282 54.4158 32.9485L52.3198 35.4112C52.1103 35.6381 51.8532 35.8159 51.5669 35.9318C51.2807 36.0478 50.9724 36.0991 50.664 36.082ZM49.616 33.5144C49.7628 33.6678 49.9406 33.7882 50.1376 33.8677C50.3345 33.9472 50.5461 33.9839 50.7583 33.9755L52.8543 31.5441C52.9467 31.4348 53.0158 31.3078 53.0573 31.1708C53.0987 31.0339 53.1117 30.8898 53.0953 30.7477C53.0832 30.5945 53.0408 30.4452 52.9707 30.3085C52.9005 30.1718 52.804 30.0504 52.6866 29.9512L52.5085 29.794C52.2827 29.5967 51.9891 29.4952 51.6897 29.5108C51.3904 29.5265 51.1089 29.6581 50.905 29.8778L48.809 32.3406C48.8975 32.7573 49.1316 33.1288 49.4693 33.3886L49.616 33.5144Z" fill="#404040"/>
<path d="M50.6639 29.6263C50.5209 29.6361 50.3773 29.6361 50.2343 29.6263C49.4996 29.5009 48.814 29.1744 48.2535 28.6831L48.0754 28.5259C47.5007 28.0457 47.0723 27.4139 46.8387 26.7024C46.7082 26.3415 46.6734 25.9529 46.7377 25.5746C46.802 25.1963 46.9632 24.841 47.2055 24.5435L49.3015 22.0807C49.8683 21.4391 50.6661 21.0481 51.5204 20.9932C52.3747 20.9382 53.216 21.2237 53.8603 21.7872L54.0385 21.9445C54.6851 22.5049 55.0906 23.2933 55.1703 24.1452C55.2093 24.5672 55.1625 24.9927 55.0328 25.3961C54.9031 25.7995 54.6933 26.1725 54.4158 26.4928L52.3198 28.9556C52.1102 29.1824 51.8532 29.3602 51.5669 29.4762C51.2806 29.5921 50.9723 29.6434 50.6639 29.6263V29.6263ZM49.6159 27.0482C49.7628 27.2016 49.9406 27.3221 50.1375 27.4016C50.3345 27.4811 50.546 27.5178 50.7583 27.5093L52.8543 25.078C52.9467 24.9687 53.0158 24.8417 53.0572 24.7047C53.0987 24.5677 53.1116 24.4237 53.0953 24.2815C53.0831 24.1283 53.0408 23.9791 52.9706 23.8424C52.9005 23.7057 52.8039 23.5842 52.6866 23.485L52.5084 23.3383C52.2852 23.1372 51.9918 23.0322 51.6916 23.0459C51.3915 23.0596 51.1089 23.191 50.905 23.4117L48.809 25.8745C48.8965 26.289 49.1264 26.6598 49.4587 26.9225L49.6159 27.0482Z" fill="#404040"/>
<path d="M38.8215 42.632H35.6775V44.7279H38.8215V42.632Z" fill="#404040"/>
<path d="M26.2455 21.672H24.1495V11.192C24.1495 10.0802 24.5912 9.01395 25.3773 8.2278C26.1635 7.44165 27.2297 7 28.3415 7H46.1575C47.2693 7 48.3355 7.44165 49.1217 8.2278C49.9078 9.01395 50.3495 10.0802 50.3495 11.192V16.432H48.2535V11.192C48.2535 10.6361 48.0327 10.103 47.6396 9.7099C47.2465 9.31682 46.7134 9.096 46.1575 9.096H28.3415C27.7856 9.096 27.2525 9.31682 26.8594 9.7099C26.4664 10.103 26.2455 10.6361 26.2455 11.192V21.672Z" fill="#404040"/>
<path d="M46.1575 47.8719H28.3416V45.7759H46.1575C46.7134 45.7759 47.2465 45.5551 47.6396 45.162C48.0327 44.769 48.2535 44.2358 48.2535 43.68V41.584H50.3495V43.68C50.3495 44.7917 49.9079 45.858 49.1217 46.6441C48.3356 47.4303 47.2693 47.8719 46.1575 47.8719Z" fill="#404040"/>
<path d="M27.6081 57L14.7177 44.1201L10.9658 47.8719L18.6057 55.5223L17.1281 57L8 47.8719L14.7177 41.1543L29.0857 55.5223L27.6081 57Z" fill="#404040"/>
<path d="M15.4594 47.1436L13.9773 48.6257L15.0222 49.6706L16.5043 48.1885L15.4594 47.1436Z" fill="#404040"/>
<path d="M48.2535 39.488H29.3895V41.584H48.2535V39.488Z" fill="#404040"/>
<path d="M33.9484 32.2463C33.8024 32.2469 33.658 32.217 33.5243 32.1585C33.3906 32.1001 33.2705 32.0143 33.1719 31.9068C33.0732 31.7992 32.9981 31.6723 32.9514 31.534C32.9046 31.3958 32.8872 31.2493 32.9004 31.104L33.2043 27.5303L30.7415 24.2605C30.6353 24.1177 30.5672 23.9502 30.5436 23.7738C30.5201 23.5974 30.5418 23.418 30.6068 23.2523C30.6719 23.0866 30.778 22.9402 30.9152 22.8269C31.0525 22.7136 31.2163 22.6371 31.3913 22.6047L34.944 21.9549L36.8723 18.6014C36.9644 18.4425 37.0966 18.3107 37.2557 18.2191C37.4148 18.1274 37.5952 18.0792 37.7788 18.0792C37.9624 18.0792 38.1428 18.1274 38.3019 18.2191C38.461 18.3107 38.5932 18.4425 38.6853 18.6014L40.6032 21.9549L44.1664 22.6047C44.3407 22.6361 44.5043 22.7113 44.6417 22.8231C44.7792 22.9349 44.8861 23.0797 44.9524 23.244C45.0245 23.4151 45.0499 23.6023 45.026 23.7864C45.0021 23.9705 44.9296 24.145 44.8161 24.292L42.3533 27.5303L42.6572 31.0411C42.6728 31.2133 42.6456 31.3866 42.5779 31.5457C42.5103 31.7048 42.4043 31.8446 42.2695 31.9528C42.1343 32.0606 41.9746 32.1333 41.8045 32.1644C41.6345 32.1955 41.4594 32.184 41.2948 32.131L37.784 31.0201L34.2733 32.1834C34.1685 32.2196 34.0591 32.2408 33.9484 32.2463V32.2463ZM33.4349 24.3653L35.1116 26.5871C35.2662 26.7911 35.3407 27.0446 35.3213 27.2997L35.1221 29.6997L37.4487 28.9346C37.6572 28.872 37.8795 28.872 38.088 28.9346L40.4355 29.6682L40.2259 27.3207C40.2038 27.062 40.2785 26.8043 40.4355 26.5976L42.1228 24.3653L39.7543 23.9357C39.6035 23.9081 39.4607 23.8479 39.3357 23.7592C39.2108 23.6704 39.1068 23.5554 39.0312 23.4221L37.7736 21.2318L36.5264 23.4221C36.4508 23.5554 36.3468 23.6704 36.2219 23.7592C36.097 23.8479 35.9541 23.9081 35.8033 23.9357L33.4349 24.3653Z" fill="#FA4616"/>
</svg>
