<svg width="64" height="64" viewBox="0 0 64 64" fill="none" xmlns="http://www.w3.org/2000/svg">
<path d="M19.4113 14.787H17.3236V20.0062H19.4113V14.787Z" fill="#FA4616"/>
<path d="M24.6305 14.787H22.5428V20.0062H24.6305V14.787Z" fill="#FA4616"/>
<path d="M20.977 27.3131C19.4376 27.3148 17.9319 26.8621 16.6488 26.0116C15.3656 25.1612 14.3621 23.9508 13.764 22.5323L15.6847 21.7181C16.1264 22.7562 16.8637 23.6413 17.8047 24.2636C18.7457 24.8858 19.8489 25.2175 20.977 25.2175C22.1051 25.2175 23.2083 24.8858 24.1493 24.2636C25.0903 23.6413 25.8275 22.7562 26.2693 21.7181L28.1899 22.5323C27.5907 23.95 26.5869 25.1596 25.304 26.0099C24.0211 26.8602 22.5161 27.3135 20.977 27.3131V27.3131Z" fill="#FA4616"/>
<path d="M21.6138 36.2276C18.7235 36.2276 15.898 35.3705 13.4948 33.7647C11.0916 32.1589 9.2185 29.8766 8.11242 27.2062C7.00633 24.5359 6.71693 21.5976 7.28081 18.7628C7.84468 15.928 9.23651 13.3241 11.2803 11.2803C13.3241 9.23652 15.928 7.84468 18.7628 7.2808C21.5976 6.71693 24.5359 7.00634 27.2062 8.11242C29.8766 9.21851 32.1589 11.0916 33.7647 13.4948C35.3705 15.898 36.2276 18.7234 36.2276 21.6138C36.2329 23.5458 35.8495 25.4592 35.1002 27.2401L33.1796 26.4363C34.2942 23.7584 34.445 20.7766 33.606 17.9999C32.7671 15.2232 30.9904 12.8237 28.5794 11.211C26.1683 9.59832 23.2723 8.87241 20.3857 9.15716C17.499 9.4419 14.8006 10.7196 12.7511 12.7723C10.7016 14.825 9.42805 17.5253 9.14779 20.4124C8.86752 23.2995 9.59793 26.1945 11.2143 28.603C12.8308 31.0116 15.233 32.7845 18.011 33.6191C20.789 34.4537 23.7706 34.2984 26.4468 33.1796L27.2505 35.1002C25.466 35.8495 23.5492 36.2329 21.6138 36.2276V36.2276Z" fill="#404040"/>
<path d="M55.2777 50.6744C55.2777 50.6744 54.2339 48.9937 53.5345 47.762C53.1405 46.8857 52.996 45.9177 53.1169 44.9645C53.2327 44.0245 53.0995 43.0707 52.7307 42.1984L47.5115 33.1587C47.4382 33.0409 47.3408 32.94 47.2256 32.8626C47.1105 32.7852 46.9802 32.7332 46.8435 32.7098C46.5907 32.6336 46.3184 32.656 46.0815 32.7725L43.3779 34.3382L42.8456 33.4405C42.6902 33.2217 42.4638 33.0636 42.2049 32.9932C41.946 32.9227 41.6707 32.9444 41.4259 33.0543L39.119 34.3904L38.6076 34.119C38.343 34.0484 38.0665 34.0352 37.7965 34.0802C37.5264 34.1252 37.2691 34.2274 37.0418 34.3799L35.476 35.2881L34.4009 33.4927L35.9458 32.6055C36.842 32.0378 37.926 31.8465 38.9625 32.0731L40.3508 31.2693C40.9157 30.9651 41.5578 30.8345 42.1966 30.8939C42.8355 30.9534 43.4425 31.2002 43.9416 31.6034L44.9854 30.9875C45.6826 30.603 46.5 30.4985 47.2714 30.6952C47.6858 30.783 48.0773 30.9566 48.4206 31.2047C48.764 31.4527 49.0517 31.7699 49.2652 32.1357L54.4844 41.1754C55.0646 42.3747 55.2961 43.713 55.1525 45.0376C55.0869 45.6082 55.1329 46.1861 55.2881 46.7391C55.9875 47.9395 57 49.5992 57 49.5992L55.2777 50.6744Z" fill="#404040"/>
<path d="M39.9902 32.6766L38.1823 33.7205L40.7919 38.2404L42.5998 37.1966L39.9902 32.6766Z" fill="#404040"/>
<path d="M44.6625 32.3862L42.8545 33.4301L44.9422 37.0461L46.7502 36.0022L44.6625 32.3862Z" fill="#404040"/>
<path d="M41.4051 56.0084L40.8623 55.0689C40.643 54.6827 40.5595 54.5366 39.547 54.2652C37.5256 53.6955 35.6134 52.7923 33.8894 51.593C32.4233 50.6138 30.8466 49.8114 29.1921 49.2025C28.7293 49.0513 28.3081 48.7943 27.962 48.4518C27.6159 48.1094 27.3544 47.6909 27.1984 47.2297C27.0437 46.7906 26.9962 46.3209 27.0597 45.8597C27.1233 45.3986 27.2961 44.9592 27.5637 44.5783C27.936 44.037 28.4424 43.6014 29.0333 43.3142C29.6243 43.0269 30.2796 42.8978 30.9353 42.9395C32.0767 43.0844 33.202 43.3361 34.2965 43.6911L27.2819 31.5408C26.8666 30.8196 26.7548 29.963 26.9711 29.1594C27.1875 28.3558 27.7141 27.671 28.4353 27.2558C29.1565 26.8405 30.0131 26.7287 30.8167 26.9451C31.6203 27.1614 32.305 27.6881 32.7203 28.4092L38.9833 39.2548L37.1775 40.2986L30.9144 29.4426C30.8454 29.3225 30.7531 29.2173 30.643 29.1332C30.5328 29.0491 30.407 28.9878 30.273 28.9528C30.1389 28.9178 29.9992 28.9099 29.862 28.9295C29.7248 28.9491 29.5929 28.9958 29.4739 29.0669C29.2407 29.2044 29.0701 29.4271 28.998 29.6881C28.926 29.9491 28.9581 30.2279 29.0877 30.4656L37.0627 44.2756C37.1961 44.5141 37.2545 44.7872 37.2301 45.0594C37.2057 45.3316 37.0997 45.5901 36.926 45.801C36.7523 46.0119 36.519 46.1655 36.2565 46.2416C35.9941 46.3177 35.7148 46.3129 35.4551 46.2276C33.9309 45.6699 32.3585 45.254 30.7579 44.9854C30.4676 44.9765 30.1798 45.0406 29.9208 45.1719C29.6618 45.3032 29.4399 45.4975 29.2756 45.737C29.1965 45.8514 29.1458 45.9831 29.1277 46.121C29.1095 46.259 29.1244 46.3993 29.1712 46.5303C29.225 46.6825 29.3133 46.8202 29.4292 46.9324C29.5451 47.0447 29.6855 47.1286 29.8393 47.1775C31.6513 47.842 33.3786 48.7179 34.9854 49.7871C36.5298 50.8647 38.2399 51.6827 40.0481 52.2088C41.8121 52.6785 42.2297 53.2527 42.6368 53.9312L43.2109 54.975L41.4051 56.0084Z" fill="#404040"/>
</svg>
