<svg width="64" height="64" viewBox="0 0 64 64" fill="none" xmlns="http://www.w3.org/2000/svg">
<path d="M40.3238 44.2602C38.8622 44.1652 37.4446 43.7214 36.1896 42.9663C33.2568 41.303 30.5755 39.231 28.2263 36.8124L29.7201 35.3291C31.9182 37.5999 34.4297 39.5447 37.1784 41.1044C39.3876 42.2825 40.5973 42.2931 40.8708 42.0195L42.3646 43.5028C42.0937 43.761 41.773 43.9613 41.4221 44.0915C41.0713 44.2217 40.6976 44.2791 40.3238 44.2602V44.2602Z" fill="#404040"/>
<path d="M28.1843 36.8124C23.0087 31.6368 19.0533 25.1252 21.4939 22.6846L22.9771 24.1679C22.1987 24.9568 24.1343 29.7853 29.6781 35.3292L28.1843 36.8124Z" fill="#404040"/>
<path d="M11.0164 56.9994C10.2113 57.0158 9.4323 56.7133 8.84934 56.1578C8.4229 55.6846 8.1424 55.0982 8.04161 54.4692C7.94082 53.8402 8.02405 53.1955 8.28128 52.6127C10.0486 48.0367 18.9165 25.2619 20.7469 23.421L21.4728 22.7057C23.9344 20.2441 30.4565 24.1994 35.6321 29.375C38.0525 31.7199 40.1217 34.402 41.7755 37.3383C43.7006 40.9676 43.1325 42.6928 42.3225 43.5028L41.5757 44.2497C39.7453 46.0801 16.9389 54.9586 12.3839 56.7258C11.9497 56.9033 11.4855 56.9961 11.0164 56.9994V56.9994ZM23.5452 23.9995C23.341 23.9786 23.1369 24.039 22.9771 24.1678L22.2407 24.9147C20.9994 26.2612 14.2248 43.082 10.2379 53.3806C10.139 53.5802 10.0956 53.8027 10.1122 54.0248C10.1289 54.2469 10.205 54.4604 10.3326 54.643C10.5162 54.7721 10.731 54.8499 10.9547 54.8684C11.1785 54.8869 11.4031 54.8454 11.6055 54.7482C21.9146 50.7612 38.7459 43.9867 40.0924 42.7349L40.8077 42.0195C41.1128 41.725 41.0918 40.5152 39.9241 38.2956C38.3577 35.5485 36.4097 33.0374 34.1383 30.8372C29.3835 26.1034 25.1441 23.9995 23.5452 23.9995V23.9995Z" fill="#404040"/>
<path d="M34.8643 15.4156C34.0321 15.4156 33.2186 15.1689 32.5266 14.7065C31.8346 14.2441 31.2953 13.587 30.9768 12.8181C30.6583 12.0492 30.575 11.2031 30.7373 10.3869C30.8997 9.57067 31.3005 8.82094 31.8889 8.23246C32.4774 7.64399 33.2272 7.24322 34.0434 7.08086C34.8596 6.9185 35.7057 7.00181 36.4746 7.32029C37.2435 7.63877 37.9006 8.17812 38.363 8.8701C38.8254 9.56207 39.0721 10.3756 39.0721 11.2078C39.0721 12.3238 38.6288 13.394 37.8397 14.1832C37.0506 14.9723 35.9803 15.4156 34.8643 15.4156ZM34.8643 9.10387C34.4482 9.10387 34.0414 9.2273 33.6954 9.45848C33.3495 9.68966 33.0798 10.0183 32.9206 10.4027C32.7613 10.7871 32.7197 11.2101 32.8008 11.6183C32.882 12.0264 33.0824 12.4013 33.3766 12.6955C33.6709 12.9897 34.0457 13.1901 34.4539 13.2713C34.862 13.3525 35.285 13.3108 35.6694 13.1516C36.0539 12.9923 36.3825 12.7226 36.6137 12.3767C36.8448 12.0307 36.9682 11.6239 36.9682 11.2078C36.9682 10.6498 36.7466 10.1147 36.352 9.72012C35.9574 9.32556 35.4223 9.10387 34.8643 9.10387Z" fill="#FA4616"/>
<path d="M49.9071 39.6105C49.2555 39.6165 48.6098 39.4857 48.0119 39.2266C47.4139 38.9675 46.877 38.5858 46.4357 38.1063C46.0419 37.7297 45.7417 37.2663 45.5591 36.7531C45.3764 36.2398 45.3164 35.6909 45.3837 35.1503L47.435 35.6447C47.499 36.0802 47.7151 36.479 48.0452 36.7703C48.3464 37.0676 48.7155 37.287 49.1205 37.4098C49.5256 37.5326 49.9544 37.555 50.37 37.4751C50.8314 37.3915 51.2565 37.1696 51.589 36.839C51.9215 36.5084 52.1457 36.0846 52.232 35.6237C52.4844 34.3718 51.6955 33.0779 50.0754 32.0891C45.3522 29.2278 39.356 33.5724 35.6637 38.1589L34.0121 36.844C38.2199 31.5842 45.268 26.7136 51.159 30.2902C53.5469 31.7419 54.7146 33.888 54.3148 36.0339C54.142 36.9181 53.7043 37.7287 53.0598 38.3581C52.4153 38.9876 51.5946 39.4061 50.7066 39.558C50.4418 39.5956 50.1746 39.6131 49.9071 39.6105V39.6105Z" fill="#FA4616"/>
<path d="M49.5285 27.8076H49.4443C49.2577 27.7929 49.0783 27.7285 48.9248 27.6213C48.7714 27.514 48.6493 27.3677 48.5712 27.1975L47.1826 24.1889L44.0268 22.9476C43.853 22.878 43.701 22.7634 43.5863 22.6154C43.4717 22.4675 43.3986 22.2917 43.3745 22.1061C43.3501 21.9213 43.3752 21.7333 43.4473 21.5614C43.5194 21.3895 43.6359 21.2399 43.7848 21.1278L46.3831 19.1921L46.4989 15.605C46.5043 15.4132 46.562 15.2266 46.6658 15.0653C46.7697 14.904 46.9156 14.7741 47.0879 14.6898C47.257 14.6129 47.4434 14.5821 47.6281 14.6006C47.8129 14.6191 47.9894 14.6862 48.1399 14.795L50.8119 16.8042L53.9677 15.7522C54.1486 15.6938 54.3419 15.6854 54.5271 15.728C54.7123 15.7706 54.8826 15.8626 55.0197 15.9942C55.1586 16.1269 55.2585 16.2951 55.3085 16.4805C55.3586 16.666 55.3569 16.8616 55.3037 17.0462L54.3885 20.202L56.4924 22.8214C56.6116 22.9712 56.6877 23.1507 56.7124 23.3405C56.7371 23.5303 56.7096 23.7233 56.6328 23.8986C56.5559 24.074 56.4327 24.225 56.2763 24.3355C56.12 24.446 55.9365 24.5117 55.7456 24.5256L52.1479 24.7675L50.3806 27.3343C50.2873 27.476 50.161 27.5931 50.0127 27.6756C49.8643 27.758 49.6982 27.8033 49.5285 27.8076ZM46.6356 21.7273L48.3924 22.4322C48.6436 22.5314 48.847 22.7235 48.9604 22.9687L49.7494 24.6834L50.8014 23.2211C50.8907 23.0915 51.0079 22.9836 51.1444 22.9053C51.281 22.827 51.4334 22.7804 51.5903 22.7688L53.6942 22.6215L52.5266 21.1593C52.4217 21.0281 52.3498 20.8737 52.3169 20.7089C52.2839 20.5442 52.2909 20.374 52.3372 20.2126L52.8421 18.4452L51.1064 19.0133C50.9459 19.0658 50.7751 19.0788 50.6085 19.0513C50.4419 19.0239 50.2843 18.9567 50.1491 18.8555L48.6554 17.7404L48.5817 19.8443C48.5769 20.0023 48.5366 20.1571 48.4638 20.2974C48.3909 20.4376 48.2874 20.5596 48.1609 20.6544L46.6356 21.7273Z" fill="#FA4616"/>
<path d="M27.8371 28.7228L25.9752 27.7445C27.9318 24.0206 29.2994 18.8029 28.0791 16.0573C27.9115 15.6351 27.6471 15.2581 27.3073 14.9566C26.9675 14.6552 26.5616 14.4376 26.1224 14.3216C25.6199 14.1359 25.0812 14.0688 24.5484 14.1254C24.0157 14.1819 23.5031 14.3607 23.0507 14.6477C22.7749 14.862 22.5539 15.1388 22.4058 15.4551C22.2577 15.7715 22.1867 16.1184 22.1987 16.4675C22.2011 16.7927 22.3033 17.1094 22.4914 17.3746C22.6795 17.6399 22.9445 17.841 23.2506 17.9508C23.468 18.0649 23.7138 18.1137 23.9583 18.0913C24.2028 18.0689 24.4356 17.9763 24.6287 17.8246L26.1119 19.3078C25.6276 19.7594 25.0198 20.0567 24.366 20.1616C23.7122 20.2665 23.0419 20.1743 22.4406 19.8969C21.7529 19.6258 21.163 19.1534 20.7482 18.5415C20.3334 17.9296 20.113 17.2068 20.1158 16.4675C20.1051 15.7931 20.2517 15.1254 20.5438 14.5174C20.836 13.9094 21.2657 13.3777 21.7989 12.9646C22.5083 12.4764 23.3221 12.1613 24.1752 12.0444C25.0284 11.9275 25.897 12.012 26.7115 12.2913C27.4515 12.4946 28.135 12.8648 28.7095 13.3736C29.284 13.8824 29.7341 14.5162 30.0252 15.2262C31.5716 18.7503 30.0357 24.5466 27.8371 28.7228Z" fill="#FA4616"/>
<path d="M37.2731 23.6945L36.2212 21.8536C37.3243 21.2396 38.2955 20.414 39.0793 19.4243C39.863 18.4346 40.444 17.3 40.7889 16.0856C41.1338 14.8711 41.2358 13.6006 41.0892 12.3467C40.9427 11.0927 40.5503 9.87992 39.9346 8.77775L41.765 7.7258C43.2782 10.438 43.6529 13.64 42.8067 16.6283C41.9605 19.6166 39.9627 22.1468 37.2521 23.6629L37.2731 23.6945Z" fill="#FA4616"/>
</svg>
