<svg width="64" height="64" viewBox="0 0 64 64" fill="none" xmlns="http://www.w3.org/2000/svg">
<path d="M26.617 47.7873C25.4775 47.8327 24.3391 47.6742 23.2553 47.3192C23.0316 47.2271 22.8335 47.0822 22.6779 46.8969C22.5223 46.7117 22.4138 46.4916 22.3617 46.2553C22.0532 44.9894 23.1915 42.9255 24.1064 41.5532C19.266 39.3617 12 31.7766 12 24.0213C12 13.6809 17.4362 7 25.8298 7C33.9787 7 39.6596 13.5638 39.6596 22.9574C39.6596 30.4043 33.2766 38.8192 28.5532 41.4575L28.8936 41.883C30.6596 44.0851 31.649 45.3724 31.3298 46.4575C31.2618 46.6722 31.1432 46.8673 30.984 47.0265C30.8248 47.1858 30.6296 47.3044 30.4149 47.3724C29.1742 47.6857 27.8961 47.8253 26.617 47.7873ZM24.4894 45.4787C25.9738 45.7032 27.4836 45.7032 28.9681 45.4787C28.5319 44.7979 27.7234 43.7872 27.2234 43.1702L26.3404 42.1064C25.5421 43.1245 24.9101 44.2627 24.4681 45.4787H24.4894ZM25.8298 9.12766C18.7234 9.12766 14.1277 14.9787 14.1277 24.0213C14.1277 31.2553 22.0319 39.0745 26.0745 39.9787L26.4043 40.0532L26.5638 40C30.2234 38.7873 37.5319 30.5532 37.5319 22.9787C37.5319 14.6702 32.7979 9.12766 25.8298 9.12766Z" fill="#404040"/>
<path d="M17.3192 25.0851C17.0371 25.0851 16.7665 24.973 16.567 24.7735C16.3675 24.574 16.2554 24.3034 16.2554 24.0213C16.2554 17.0213 19.0107 12.2659 23.8086 10.9681C24.0822 10.8947 24.3739 10.9331 24.6193 11.0747C24.8647 11.2164 25.0437 11.4497 25.1171 11.7234C25.1904 11.9971 25.1521 12.2887 25.0104 12.5341C24.8688 12.7795 24.6354 12.9585 24.3617 13.0319C20.5107 14.0957 18.383 17.9681 18.383 24.0213C18.383 24.3034 18.2709 24.574 18.0714 24.7735C17.8719 24.973 17.6013 25.0851 17.3192 25.0851Z" fill="#404040"/>
<path d="M29.0214 55.9362H26.8937C26.9178 54.7228 26.4978 53.5425 25.7129 52.617C25.2767 52.0966 24.9606 51.4863 24.7873 50.8298C24.5999 49.4026 24.8838 47.9532 25.5958 46.7021C25.7022 46.4468 25.8192 46.2128 25.9043 45.9787L27.883 46.7447C27.7873 47.0106 27.6597 47.2872 27.532 47.5745C27.0307 48.4292 26.8007 49.4159 26.8724 50.4042C26.9977 50.7596 27.189 51.0881 27.4363 51.3724C28.4879 52.6582 29.0495 54.2753 29.0214 55.9362Z" fill="#404040"/>
<path d="M41.9786 48.766C40.7209 48.799 39.4637 48.6811 38.234 48.4149C38.0327 48.3513 37.8501 48.2395 37.7018 48.0894C37.5535 47.9392 37.444 47.7552 37.3829 47.5532C36.9893 46.3617 38.2765 43.9468 39.1382 42.5425C37.3281 41.5258 35.7601 40.1284 34.5425 38.4468L36.2659 37.2128C37.4775 38.906 39.1243 40.2402 41.0318 41.0745L41.234 41.1489L41.3722 41.0957C44.5637 39.851 50.7021 35.6809 50.7021 28.766C50.7021 18.5 44.4786 17.383 41.8084 17.383C41.1537 17.3831 40.5009 17.4544 39.8616 17.5958L39.4042 15.4681C40.1937 15.2933 40.9998 15.2042 41.8084 15.2021C48.6063 15.2021 52.8297 20.3829 52.8297 28.7127C52.8297 35.9042 47.2765 40.5106 43.4574 42.4362C46.4148 46.1808 46.2127 47.0213 46.1063 47.4468C46.063 47.6418 45.9738 47.8235 45.8462 47.9771C45.7185 48.1307 45.556 48.2516 45.3723 48.3298C44.272 48.6573 43.126 48.8046 41.9786 48.766V48.766ZM39.5318 46.5213C40.9251 46.6562 42.3271 46.674 43.7233 46.5745C42.9819 45.383 42.1571 44.2454 41.2552 43.1702C40.57 44.2267 39.9926 45.3494 39.5318 46.5213V46.5213Z" fill="#FA4616"/>
<path d="M43.915 57H41.7874C41.741 55.769 41.3052 54.5845 40.5427 53.617C40.1631 53.1028 39.8752 52.527 39.6916 51.9149C39.5183 51.0363 39.5349 50.1309 39.7404 49.2593C39.9459 48.3877 40.3355 47.5702 40.8831 46.8617L42.6916 47.9894C41.9363 49.2128 41.4576 50.117 41.7661 51.4468C41.9096 51.8033 42.0992 52.1395 42.3299 52.4468C43.3234 53.7603 43.878 55.3534 43.915 57V57Z" fill="#FA4616"/>
</svg>
