<svg width="64" height="64" viewBox="0 0 64 64" fill="none" xmlns="http://www.w3.org/2000/svg">
<path d="M36.3536 22.2607H34.2681V27.4745H36.3536V22.2607Z" fill="#FA4616"/>
<path d="M41.5673 22.2607H39.4818V27.4745H41.5673V22.2607Z" fill="#FA4616"/>
<path d="M37.9177 34.7738C36.3799 34.7755 34.8758 34.3232 33.594 33.4736C32.3122 32.624 31.3097 31.4149 30.7123 29.9979L32.6309 29.1846C33.0686 30.2254 33.8037 31.1139 34.7442 31.7386C35.6847 32.3634 36.7886 32.6967 37.9177 32.6967C39.0468 32.6967 40.1507 32.3634 41.0912 31.7386C42.0317 31.1139 42.7668 30.2254 43.2045 29.1846L45.1231 29.9979C44.5257 31.4149 43.5232 32.624 42.2414 33.4736C40.9596 34.3232 39.4555 34.7755 37.9177 34.7738V34.7738Z" fill="#FA4616"/>
<path d="M11.0355 52.6674C10.7859 52.6666 10.5394 52.6122 10.3128 52.5079C10.0861 52.4035 9.88446 52.2517 9.72159 52.0626C9.51195 51.8178 9.37303 51.5205 9.31975 51.2027C9.26646 50.8848 9.30084 50.5584 9.41919 50.2586C10.0836 48.6227 10.5018 46.8973 10.6601 45.1387C9.52309 44.0375 8.61455 42.7227 7.98649 41.2698C7.35844 39.8168 7.02321 38.2543 7 36.6716C7 31.1971 10.9625 26.317 17.0939 24.2524L17.7612 26.2336C12.4849 28.0063 9.08551 32.1043 9.08551 36.6611C9.11442 38.0431 9.42743 39.4043 10.0051 40.66C10.5827 41.9158 11.4126 43.0392 12.4432 43.9604L12.7873 44.2941V44.7633C12.6928 46.6925 12.3133 48.597 11.6611 50.4151C13.7578 49.9166 15.7013 48.9145 17.3233 47.4954L17.7612 47.0887L18.3347 47.2659C20.7047 47.969 23.1996 48.1467 25.6453 47.7865C28.091 47.4263 30.4287 46.5369 32.4953 45.1804L33.6007 46.9427C31.3569 48.4174 28.8265 49.4009 26.1758 49.8286C23.525 50.2563 20.8138 50.1186 18.22 49.4244C16.2371 50.9966 13.9173 52.0887 11.4421 52.6152C11.3088 52.6472 11.1725 52.6646 11.0355 52.6674V52.6674Z" fill="#404040"/>
<path d="M51.8905 48.1627C51.7286 48.1624 51.5674 48.1413 51.4108 48.1001C48.101 47.3802 44.9963 45.9223 42.3284 43.8353C40.8096 44.157 39.2616 44.3212 37.709 44.3253C27.0729 44.3253 18.4181 37.0261 18.4181 28.1627C18.4181 19.2993 27.0729 12 37.709 12C48.3451 12 57 19.2471 57 28.1627C56.9701 30.1768 56.526 32.1633 55.6954 33.9985C54.8649 35.8337 53.6655 37.4783 52.172 38.8301C52.3975 41.0776 52.9272 43.284 53.7466 45.389C53.8686 45.6941 53.9144 46.0245 53.88 46.3513C53.8457 46.6782 53.7322 46.9917 53.5494 47.2649C53.3666 47.538 53.1201 47.7625 52.831 47.919C52.542 48.0754 52.2191 48.1591 51.8905 48.1627V48.1627ZM42.9124 41.5725L43.3086 41.9375C45.7528 43.9723 48.6551 45.3823 51.7654 46.0459C50.8284 43.6263 50.2488 41.0831 50.0448 38.4964V37.9854L50.4306 37.6413C51.8153 36.4738 52.9351 35.0244 53.7155 33.39C54.4959 31.7555 54.9188 29.9735 54.9562 28.1627C54.9562 20.3942 47.2398 14.0855 37.7507 14.0855C28.2617 14.0855 20.5453 20.342 20.5453 28.1627C20.5453 35.9833 28.2617 42.2398 37.7507 42.2398C39.3233 42.2339 40.8902 42.0521 42.4223 41.6976L42.9124 41.5725Z" fill="#404040"/>
</svg>
