<svg width="64" height="64" viewBox="0 0 64 64" fill="none" xmlns="http://www.w3.org/2000/svg">
<path d="M31.9583 57H11.125C10.2962 57 9.50134 56.6708 8.91529 56.0847C8.32924 55.4987 8 54.7038 8 53.875V10.125C8 9.2962 8.32924 8.50132 8.91529 7.91527C9.50134 7.32922 10.2962 7 11.125 7H31.9583C32.7871 7 33.582 7.32922 34.168 7.91527C34.7541 8.50132 35.0833 9.2962 35.0833 10.125V16.375H33V10.125C33 9.84873 32.8903 9.5838 32.6949 9.38845C32.4996 9.1931 32.2346 9.08333 31.9583 9.08333H11.125C10.8487 9.08333 10.5838 9.1931 10.3884 9.38845C10.1931 9.5838 10.0833 9.84873 10.0833 10.125V53.875C10.0833 54.1513 10.1931 54.4162 10.3884 54.6116C10.5838 54.8069 10.8487 54.9167 11.125 54.9167H31.9583C32.2346 54.9167 32.4996 54.8069 32.6949 54.6116C32.8903 54.4162 33 54.1513 33 53.875V42.4167H35.0833V53.875C35.0833 54.7038 34.7541 55.4987 34.168 56.0847C33.582 56.6708 32.7871 57 31.9583 57Z" fill="#404040"/>
<path d="M34.0416 48.6354H9.04163V50.7187H34.0416V48.6354Z" fill="#404040"/>
<path d="M23.625 51.7604H19.4584V53.8437H23.625V51.7604Z" fill="#404040"/>
<path d="M31.2604 37.2083L26.8958 33.8646L21.6875 35.5625L23.5104 30.3541L20.2812 25.9063L25.7812 26.0417L29.0104 21.5938L30.5729 26.8646L35.7812 28.5625L31.25 31.6875L31.2604 37.2083ZM27.3021 31.5417L29.1771 32.9896V30.6146L31.1354 29.2708L28.875 28.5417L28.1979 26.2708L26.8125 28.1875L24.4375 28.125L25.8333 30.0417L25.0417 32.2813L27.3021 31.5417Z" fill="#FA4616"/>
<path d="M39.3022 37.2083L34.9376 33.8646L34.0418 34.1563C33.9103 34.2047 33.7705 34.226 33.6306 34.2191C33.4907 34.2122 33.3536 34.1772 33.2275 34.1161C33.1015 34.0551 32.989 33.9691 32.8969 33.8636C32.8048 33.7581 32.735 33.6351 32.6915 33.5019C32.6481 33.3687 32.6319 33.2282 32.644 33.0886C32.6562 32.9491 32.6963 32.8134 32.7621 32.6897C32.8278 32.566 32.9179 32.4569 33.0268 32.3688C33.1357 32.2807 33.2612 32.2155 33.3959 32.1771L35.3334 31.5417L37.2189 33.0417V30.6666L39.1668 29.3229L36.9168 28.5937L36.2397 26.3229L36.0522 26.5729C35.9717 26.6839 35.87 26.778 35.753 26.8496C35.6361 26.9213 35.5061 26.9691 35.3706 26.9904C35.2351 27.0117 35.0968 27.006 34.9635 26.9737C34.8302 26.9414 34.7045 26.8831 34.5938 26.8021C34.4828 26.7216 34.3888 26.6199 34.3171 26.503C34.2455 26.386 34.1976 26.256 34.1763 26.1205C34.1551 25.985 34.1607 25.8467 34.193 25.7134C34.2254 25.5801 34.2837 25.4544 34.3647 25.3437L37.0314 21.6771L38.5939 26.9479L43.8022 28.6459L39.2813 31.7709L39.3022 37.2083Z" fill="#FA4616"/>
<path d="M47.3334 37.2083L42.948 33.8646L42.0521 34.1563C41.9207 34.2047 41.7808 34.226 41.6409 34.2191C41.501 34.2122 41.3639 34.1772 41.2379 34.1161C41.1118 34.0551 40.9994 33.9692 40.9073 33.8636C40.8152 33.7581 40.7454 33.6351 40.7019 33.5019C40.6584 33.3687 40.6423 33.2282 40.6544 33.0887C40.6665 32.9491 40.7067 32.8134 40.7724 32.6897C40.8382 32.566 40.9282 32.4569 41.0371 32.3688C41.1461 32.2807 41.2716 32.2155 41.4063 32.1771L43.3438 31.5417L45.2292 32.9896V30.6146L47.1771 29.2708L44.9271 28.5417L44.2501 26.2708L44.0626 26.5208C43.9001 26.7421 43.6569 26.8903 43.3857 26.9333C43.1146 26.9762 42.8375 26.9103 42.6146 26.75C42.5036 26.6695 42.4096 26.5679 42.3379 26.4509C42.2663 26.3339 42.2184 26.204 42.1971 26.0685C42.1758 25.933 42.1815 25.7945 42.2138 25.6612C42.2462 25.5279 42.3045 25.4024 42.3855 25.2917L45.0313 21.5833L46.6042 26.8542L51.8126 28.5521L47.2917 31.6771L47.3334 37.2083Z" fill="#FA4616"/>
<path d="M27.7916 46.3125C27.404 46.3123 27.0242 46.2039 26.6948 45.9997C26.3654 45.7954 26.0995 45.5033 25.927 45.1563L24.0208 41.375H18.4166C17.5878 41.375 16.793 41.0458 16.2069 40.4597C15.6209 39.8737 15.2916 39.0788 15.2916 38.25V20.5417C15.2916 19.7129 15.6209 18.918 16.2069 18.3319C16.793 17.7459 17.5878 17.4167 18.4166 17.4167H52.7916C53.6204 17.4167 54.4153 17.7459 55.0013 18.3319C55.5874 18.918 55.9166 19.7129 55.9166 20.5417V38.25C55.9166 39.0788 55.5874 39.8737 55.0013 40.4597C54.4153 41.0458 53.6204 41.375 52.7916 41.375H31.5625L29.6562 45.1875C29.4794 45.5287 29.2117 45.8145 28.8826 46.013C28.5535 46.2116 28.1759 46.3152 27.7916 46.3125ZM18.4166 19.4687C18.1404 19.4687 17.8754 19.5785 17.6801 19.7738C17.4847 19.9692 17.375 20.2341 17.375 20.5104V38.2187C17.375 38.495 17.4847 38.76 17.6801 38.9553C17.8754 39.1507 18.1404 39.2604 18.4166 39.2604H25.3125L27.7916 44.2292L30.2708 39.2604H52.7916C53.0679 39.2604 53.3328 39.1507 53.5282 38.9553C53.7235 38.76 53.8333 38.495 53.8333 38.2187V20.5417C53.8333 20.2654 53.7235 20.0005 53.5282 19.8051C53.3328 19.6098 53.0679 19.5 52.7916 19.5L18.4166 19.4687Z" fill="#404040"/>
</svg>
