<svg width="64" height="64" viewBox="0 0 64 64" fill="none" xmlns="http://www.w3.org/2000/svg">
<path d="M41.1667 55.9583H31.7917C29.7917 55.9583 29.1667 55.5834 28.6146 55.1459C28.4271 55 28.323 54.9167 27.625 54.9167H26.5834V52.8333H27.625C28.4485 52.7465 29.2727 52.9901 29.9167 53.5104C30.125 53.6771 30.3646 53.875 31.7917 53.875H41.1667V55.9583Z" fill="#404040"/>
<path d="M47.4166 44.5H44.2916C43.4628 44.5 42.668 44.1708 42.0819 43.5847C41.4959 42.9987 41.1666 42.2038 41.1666 41.375C41.1666 40.5462 41.4959 39.7514 42.0819 39.1653C42.668 38.5793 43.4628 38.25 44.2916 38.25H47.4166C48.2454 38.25 49.0403 38.5793 49.6263 39.1653C50.2124 39.7514 50.5416 40.5462 50.5416 41.375C50.5416 42.2038 50.2124 42.9987 49.6263 43.5847C49.0403 44.1708 48.2454 44.5 47.4166 44.5ZM44.2916 40.3333C44.0154 40.3333 43.7504 40.4431 43.5551 40.6384C43.3597 40.8338 43.25 41.0987 43.25 41.375C43.25 41.6513 43.3597 41.9163 43.5551 42.1116C43.7504 42.307 44.0154 42.4167 44.2916 42.4167H47.4166C47.6929 42.4167 47.9578 42.307 48.1532 42.1116C48.3485 41.9163 48.4583 41.6513 48.4583 41.375C48.4583 41.0987 48.3485 40.8338 48.1532 40.6384C47.9578 40.4431 47.6929 40.3333 47.4166 40.3333H44.2916Z" fill="#404040"/>
<path d="M47.4166 52.8333H44.2916C43.4628 52.8333 42.668 52.5041 42.0819 51.9181C41.4959 51.332 41.1666 50.5371 41.1666 49.7083C41.1666 48.8795 41.4959 48.0847 42.0819 47.4987C42.668 46.9126 43.4628 46.5833 44.2916 46.5833H45.3333V48.6667H44.2916C44.0154 48.6667 43.7504 48.7764 43.5551 48.9718C43.3597 49.1671 43.25 49.4321 43.25 49.7083C43.25 49.9846 43.3597 50.2496 43.5551 50.4449C43.7504 50.6403 44.0154 50.75 44.2916 50.75H47.4166C47.6929 50.75 47.9578 50.6403 48.1532 50.4449C48.3485 50.2496 48.4583 49.9846 48.4583 49.7083V47.625H50.5416V49.7083C50.5416 50.5371 50.2124 51.332 49.6263 51.9181C49.0403 52.5041 48.2454 52.8333 47.4166 52.8333Z" fill="#404040"/>
<path d="M45.3333 57H43.25C42.4212 57 41.6263 56.6708 41.0403 56.0847C40.4542 55.4987 40.125 54.7038 40.125 53.875C40.125 53.0462 40.4542 52.2514 41.0403 51.6653C41.6263 51.0793 42.4212 50.75 43.25 50.75H44.2917V52.8333H43.25C42.9737 52.8333 42.7088 52.9431 42.5134 53.1384C42.3181 53.3338 42.2083 53.5987 42.2083 53.875C42.2083 54.1513 42.3181 54.4163 42.5134 54.6116C42.7088 54.807 42.9737 54.9167 43.25 54.9167H45.3333C45.6096 54.9167 45.8746 54.807 46.0699 54.6116C46.2653 54.4163 46.375 54.1513 46.375 53.875V51.7917H48.4583V53.875C48.4583 54.7038 48.1291 55.4987 47.543 56.0847C46.957 56.6708 46.1621 57 45.3333 57Z" fill="#404040"/>
<path d="M27.625 55.9583H19.2916V36.1667H27.625V55.9583ZM21.375 53.875H25.5416V38.25H21.375V53.875Z" fill="#404040"/>
<path d="M48.4583 48.6667H45.3333C44.5953 48.6678 43.8807 48.4077 43.3161 47.9324C42.7515 47.4571 42.3734 46.7974 42.2486 46.07C42.1238 45.3426 42.2605 44.5946 42.6345 43.9583C43.0084 43.3221 43.5954 42.8387 44.2916 42.5938V42.4167H45.3333V44.5C45.057 44.5 44.7921 44.6098 44.5967 44.8051C44.4014 45.0005 44.2916 45.2654 44.2916 45.5417C44.2916 45.8179 44.4014 46.0829 44.5967 46.2783C44.7921 46.4736 45.057 46.5833 45.3333 46.5833H48.4583C48.7345 46.5833 48.9995 46.4736 49.1948 46.2783C49.3902 46.0829 49.4999 45.8179 49.4999 45.5417C49.4999 45.2654 49.3902 45.0005 49.1948 44.8051C48.9995 44.6098 48.7345 44.5 48.4583 44.5H47.4166V42.4167H48.4583C49.2871 42.4167 50.0819 42.746 50.668 43.332C51.254 43.9181 51.5833 44.7129 51.5833 45.5417C51.5833 46.3705 51.254 47.1653 50.668 47.7514C50.0819 48.3374 49.2871 48.6667 48.4583 48.6667Z" fill="#404040"/>
<path d="M33.5 49.0417L32.7708 47.0938C35.7188 45.9792 37.0208 43.5313 38.0417 40.1771V37.2083C38.0541 36.8947 38.1031 36.5836 38.1875 36.2813C38.4254 35.3064 38.5408 34.3056 38.5313 33.3021C38.5917 32.5772 38.4997 31.8477 38.2611 31.1606C38.0224 30.4735 37.6426 29.8439 37.1458 29.3126C37.0458 29.1756 36.918 29.0612 36.7709 28.9768C36.6237 28.8925 36.4604 28.84 36.2917 28.8229C36.17 28.797 36.043 28.8194 35.9375 28.8854V29.9271C35.942 31.3868 35.6581 32.8329 35.1022 34.1825C34.5462 35.5322 33.7292 36.7587 32.6979 37.7917L32.5 37.9688L28.9583 40.3438H26.5625V38.2604H28.3229L31.2292 36.3125C32.0655 35.4733 32.7278 34.4773 33.1783 33.3816C33.6288 32.2858 33.8584 31.1118 33.8542 29.9271V28.8854C33.8515 28.44 33.9917 28.0054 34.2541 27.6454C34.5166 27.2855 34.8875 27.0191 35.3125 26.8855C35.9396 26.702 36.6078 26.7144 37.2277 26.9211C37.8476 27.1277 38.3896 27.5187 38.7812 28.0417C40.0596 29.4893 40.7114 31.3849 40.5938 33.3125C40.6063 34.4779 40.4698 35.6401 40.1875 36.7709C40.146 36.9173 40.1181 37.0672 40.1042 37.2188L40.0521 40.6355C39.0417 44.1042 37.5208 47.5313 33.5 49.0417Z" fill="#404040"/>
<path d="M38.0417 17.4167H21.375V19.5H38.0417V17.4167Z" fill="#FA4616"/>
<path d="M38.0417 21.5833H21.375V23.6667H38.0417V21.5833Z" fill="#FA4616"/>
<path d="M29.7083 25.75H21.375V27.8333H29.7083V25.75Z" fill="#FA4616"/>
<path d="M17.2083 54.9167H13.0417C12.7654 54.9167 12.5004 54.807 12.3051 54.6116C12.1097 54.4163 12 54.1513 12 53.875V8.04167C12 7.7654 12.1097 7.50046 12.3051 7.30511C12.5004 7.10976 12.7654 7 13.0417 7H46.9896C47.2658 7 47.5308 7.10976 47.7261 7.30511C47.9215 7.50046 48.0312 7.7654 48.0312 8.04167V34.7084H45.9479V9.08333H14.0833V52.8333H17.2083V54.9167Z" fill="#404040"/>
</svg>
