<svg width="64" height="64" viewBox="0 0 64 64" fill="none" xmlns="http://www.w3.org/2000/svg">
<path d="M31.6667 57H29.5834V53.3542L30 53.0417C30 53.0417 32.7084 50.9583 32.7084 48.6667V47.625H34.7917V48.6667C34.7917 51.3542 32.6042 53.5417 31.6667 54.3646V57Z" fill="#404040"/>
<path d="M24.2188 52.8333V50.75C25.1645 50.5446 26.0092 50.0164 26.608 49.2562C27.2067 48.4959 27.5221 47.5508 27.5001 46.5833V44.0729L29.8855 41.6771C30.3294 41.1715 30.5741 40.5218 30.5741 39.849C30.5741 39.1762 30.3294 38.5264 29.8855 38.0209C29.5417 37.6875 29.4376 37.7917 29.2813 37.9479L20.948 46.2813L19.4792 44.8021L27.8126 36.4688C28.0413 36.2255 28.3185 36.0329 28.6264 35.9036C28.9342 35.7742 29.2658 35.7109 29.5996 35.7178C29.9335 35.7247 30.2621 35.8016 30.5644 35.9435C30.8666 36.0854 31.1357 36.2892 31.3542 36.5417C32.1859 37.4423 32.6477 38.6231 32.6477 39.849C32.6477 41.0748 32.1859 42.2557 31.3542 43.1563L29.5834 44.9271V46.5833C29.5987 48.0983 29.0631 49.5674 28.0763 50.7171C27.0895 51.8667 25.7187 52.6188 24.2188 52.8333V52.8333Z" fill="#404040"/>
<path d="M15 57V43.4583C15.0163 42.5161 15.2382 41.5889 15.6502 40.7414C16.0622 39.894 16.6545 39.1468 17.3854 38.5521L22.5938 33.3438L24.0625 34.8229L18.8542 40.0313C18.3184 40.4308 17.8806 40.947 17.5738 41.5407C17.267 42.1345 17.0993 42.7902 17.0833 43.4583V57H15Z" fill="#404040"/>
<path d="M48.3333 48.6667H28.5416V46.5833H47.2916V9.08333H40.927C40.4583 11.0625 38.6354 12.2083 35.8333 12.2083C33.0312 12.2083 31.1979 11.0625 30.7395 9.08333H24.375V42.4167H22.2916V8.04167C22.2916 7.7654 22.4014 7.50046 22.5967 7.30511C22.7921 7.10976 23.057 7 23.3333 7H31.6666C31.9429 7 32.2078 7.10976 32.4032 7.30511C32.5985 7.50046 32.7083 7.7654 32.7083 8.04167C32.7083 8.55208 32.7083 10.125 35.8333 10.125C38.9583 10.125 38.9583 8.55208 38.9583 8.04167C38.9583 7.7654 39.068 7.50046 39.2634 7.30511C39.4587 7.10976 39.7237 7 40 7H48.3333C48.6096 7 48.8745 7.10976 49.0699 7.30511C49.2652 7.50046 49.375 7.7654 49.375 8.04167V47.625C49.375 47.9013 49.2652 48.1663 49.0699 48.3616C48.8745 48.557 48.6096 48.6667 48.3333 48.6667Z" fill="#404040"/>
<path d="M39.7917 35.3751C39.6443 35.3744 39.4988 35.3424 39.3646 35.2813L35.8334 33.7188L32.2917 35.3229C32.1225 35.3961 31.937 35.4231 31.754 35.4012C31.571 35.3792 31.3971 35.3091 31.25 35.1979C31.0941 35.0783 30.9751 34.9171 30.9069 34.7328C30.8387 34.5485 30.8241 34.3486 30.8646 34.1563L31.4584 30.4896L28.6563 27.4688C28.5295 27.3309 28.4423 27.1613 28.4038 26.978C28.3653 26.7947 28.377 26.6044 28.4375 26.4271C28.5059 26.2469 28.6229 26.0891 28.7755 25.9714C28.9281 25.8537 29.1104 25.7807 29.3021 25.7604L33.1146 25.3334L34.8542 21.6771C34.9395 21.501 35.0727 21.3525 35.2385 21.2485C35.4043 21.1446 35.596 21.0895 35.7917 21.0895C35.9874 21.0895 36.1791 21.1446 36.3449 21.2485C36.5107 21.3525 36.6439 21.501 36.7292 21.6771L38.5 25.3334L42.3125 25.7604C42.5032 25.7827 42.684 25.8573 42.835 25.9759C42.986 26.0945 43.1012 26.2525 43.168 26.4325C43.2349 26.6125 43.2507 26.8074 43.2136 26.9958C43.1766 27.1842 43.0883 27.3587 42.9584 27.5001L40.1771 30.4896L40.7813 34.1563C40.8207 34.3496 40.8045 34.5501 40.7344 34.7345C40.6643 34.9189 40.5433 35.0796 40.3855 35.1979C40.2101 35.3158 40.003 35.3776 39.7917 35.3751ZM35.8334 31.5C35.9808 31.5007 36.1263 31.5327 36.2605 31.5938L38.448 32.5833L38.0834 30.3229C38.0575 30.1669 38.0675 30.007 38.1126 29.8554C38.1577 29.7038 38.2368 29.5645 38.3438 29.448L40.0625 27.5938L37.7292 27.3438C37.5539 27.3242 37.3864 27.2604 37.2424 27.1584C37.0985 27.0564 36.9828 26.9194 36.9063 26.7605L35.8646 24.5208L34.823 26.7605C34.7464 26.9194 34.6308 27.0564 34.4868 27.1584C34.3429 27.2604 34.1754 27.3242 34 27.3438L31.6771 27.5938L33.3959 29.448C33.5047 29.5635 33.5857 29.7025 33.6326 29.8541C33.6796 30.0058 33.6912 30.1661 33.6667 30.3229L33.2917 32.5833L35.4896 31.5938C35.598 31.543 35.7143 31.5113 35.8334 31.5V31.5Z" fill="#FA4616"/>
<path d="M27.5 15.3333H23.3334V17.4167H27.5V15.3333Z" fill="#404040"/>
<path d="M32.7084 15.3333H29.5834V17.4167H32.7084V15.3333Z" fill="#404040"/>
<path d="M37.9166 15.3333H34.7916V17.4167H37.9166V15.3333Z" fill="#404040"/>
<path d="M43.125 15.3333H40V17.4167H43.125V15.3333Z" fill="#404040"/>
<path d="M48.3334 15.3333H45.2084V17.4167H48.3334V15.3333Z" fill="#404040"/>
</svg>
