<svg width="64" height="64" viewBox="0 0 64 64" fill="none" xmlns="http://www.w3.org/2000/svg">
<path d="M30.9584 55.875C30.6821 55.875 30.4172 55.7653 30.2218 55.5699C30.0265 55.3746 29.9167 55.1096 29.9167 54.8333V50.6667C29.9167 48.4583 25.8438 47.5417 23.6667 47.5417C21.4896 47.5417 17.4167 48.4583 17.4167 50.6667V54.8333C17.4167 55.1096 17.307 55.3746 17.1116 55.5699C16.9163 55.7653 16.6513 55.875 16.375 55.875C16.0988 55.875 15.8338 55.7653 15.6385 55.5699C15.4431 55.3746 15.3334 55.1096 15.3334 54.8333V50.6667C15.3334 46.8646 20.4375 45.4583 23.6667 45.4583C26.8959 45.4583 32 46.8646 32 50.6667V54.8333C32 55.1096 31.8903 55.3746 31.6949 55.5699C31.4996 55.7653 31.2346 55.875 30.9584 55.875Z" fill="#404040"/>
<path d="M23.6668 44.4167C22.2734 44.4029 20.9424 43.8369 19.966 42.8428C18.9895 41.8488 18.4473 40.5079 18.4584 39.1146V38.2604C18.4584 36.8791 19.0071 35.5543 19.9839 34.5775C20.9607 33.6008 22.2854 33.0521 23.6668 33.0521C25.0481 33.0521 26.3729 33.6008 27.3496 34.5775C28.3264 35.5543 28.8751 36.8791 28.8751 38.2604V39.1146C28.8834 40.5071 28.3404 41.8464 27.3645 42.8398C26.3886 43.8333 25.0592 44.4002 23.6668 44.4167V44.4167ZM23.6668 35.0417C23.2484 35.0415 22.8342 35.1253 22.4488 35.2882C22.0634 35.4511 21.7147 35.6897 21.4232 35.9898C21.1318 36.29 20.9036 36.6457 20.7522 37.0357C20.6008 37.4257 20.5292 37.8422 20.5418 38.2604V39.1146C20.5418 39.9434 20.871 40.7382 21.457 41.3243C22.0431 41.9103 22.838 42.2396 23.6668 42.2396C24.4956 42.2396 25.2904 41.9103 25.8765 41.3243C26.4625 40.7382 26.7918 39.9434 26.7918 39.1146V38.2604C26.8043 37.8422 26.7328 37.4257 26.5813 37.0357C26.4299 36.6457 26.2017 36.29 25.9103 35.9898C25.6188 35.6897 25.2701 35.4511 24.8847 35.2882C24.4993 35.1253 24.0851 35.0415 23.6668 35.0417V35.0417Z" fill="#404040"/>
<path d="M36.1458 45.4583C35.8319 45.4581 35.5221 45.3868 35.2396 45.25C34.891 45.085 34.5969 44.8238 34.3921 44.4971C34.1872 44.1704 34.0801 43.7919 34.0833 43.4063V37.1563H30.9583C30.6821 37.1563 30.4171 37.0465 30.2218 36.8512C30.0264 36.6558 29.9167 36.3909 29.9167 36.1146C29.9167 35.8383 30.0264 35.5734 30.2218 35.378C30.4171 35.1827 30.6821 35.0729 30.9583 35.0729H36.1667V43.3438L43.7187 35.0417H52.8333C53.3859 35.0417 53.9158 34.8222 54.3065 34.4315C54.6972 34.0408 54.9167 33.5109 54.9167 32.9583V13.1667C54.9167 12.6141 54.6972 12.0842 54.3065 11.6935C53.9158 11.3028 53.3859 11.0833 52.8333 11.0833H11.1667C10.6141 11.0833 10.0842 11.3028 9.69353 11.6935C9.30283 12.0842 9.08333 12.6141 9.08333 13.1667V32.9583C9.08333 33.5109 9.30283 34.0408 9.69353 34.4315C10.0842 34.8222 10.6141 35.0417 11.1667 35.0417H16.375C16.6513 35.0417 16.9162 35.1514 17.1116 35.3468C17.3069 35.5421 17.4167 35.8071 17.4167 36.0833C17.4167 36.3596 17.3069 36.6246 17.1116 36.8199C16.9162 37.0153 16.6513 37.125 16.375 37.125H11.1667C10.0616 37.125 9.00179 36.686 8.22039 35.9046C7.43898 35.1232 7 34.0634 7 32.9583V13.1667C7 12.0616 7.43898 11.0018 8.22039 10.2204C9.00179 9.43898 10.0616 9 11.1667 9H52.8333C53.9384 9 54.9982 9.43898 55.7796 10.2204C56.561 11.0018 57 12.0616 57 13.1667V32.9583C57 34.0634 56.561 35.1232 55.7796 35.9046C54.9982 36.686 53.9384 37.125 52.8333 37.125H44.6354L37.4687 44.9479C37.101 45.2675 36.6329 45.4481 36.1458 45.4583Z" fill="#404040"/>
<path d="M26.7708 30.1979C26.6201 30.1968 26.4712 30.1649 26.3333 30.1041L22.4271 28.3021L18.5208 30.1041C18.3526 30.1788 18.1675 30.2075 17.9846 30.1874C17.8016 30.1673 17.6272 30.099 17.4792 29.9896C17.3213 29.8712 17.2003 29.7105 17.1303 29.5261C17.0602 29.3417 17.0439 29.1412 17.0834 28.9479L17.7813 24.8646L14.6563 21.5729C14.5203 21.4322 14.4267 21.256 14.3862 21.0645C14.3457 20.873 14.36 20.674 14.4274 20.4903C14.4948 20.3065 14.6126 20.1455 14.7673 20.0256C14.922 19.9057 15.1073 19.8319 15.3021 19.8125L19.5625 19.3646L21.5104 15.2916C21.5957 15.1155 21.7289 14.967 21.8947 14.8631C22.0605 14.7592 22.2522 14.704 22.4479 14.704C22.6436 14.704 22.8353 14.7592 23.0011 14.8631C23.1669 14.967 23.3001 15.1155 23.3854 15.2916L25.2813 19.4167L29.5417 19.8646C29.7364 19.884 29.9218 19.9578 30.0765 20.0777C30.2312 20.1976 30.349 20.3586 30.4164 20.5423C30.4838 20.7261 30.4981 20.9251 30.4576 21.1166C30.4171 21.3081 30.3235 21.4842 30.1875 21.625L27.0625 24.9167L27.7604 29C27.7999 29.1933 27.7836 29.3938 27.7135 29.5782C27.6434 29.7626 27.5224 29.9233 27.3646 30.0417C27.1869 30.1522 26.98 30.2067 26.7708 30.1979V30.1979ZM22.4271 26.1146C22.578 26.1138 22.7273 26.1458 22.8646 26.2083L25.4167 27.3854L24.9584 24.7396C24.9322 24.5811 24.943 24.4187 24.99 24.2651C25.037 24.1115 25.1188 23.9709 25.2292 23.8541L27.3125 21.7083L24.5729 21.4167C24.3958 21.3988 24.2261 21.3358 24.0802 21.2336C23.9343 21.1315 23.8171 20.9937 23.7396 20.8333L22.4792 18.1979L21.2188 20.8333C21.1413 20.9937 21.024 21.1315 20.8782 21.2336C20.7323 21.3358 20.5626 21.3988 20.3854 21.4167L17.6458 21.7083L19.6771 23.8541C19.7874 23.9709 19.8693 24.1115 19.9163 24.2651C19.9633 24.4187 19.9741 24.5811 19.9479 24.7396L19.4896 27.3854L22.0417 26.2083C22.163 26.1527 22.2938 26.1208 22.4271 26.1146V26.1146Z" fill="#FA4616"/>
<path d="M36.1459 30.1979C35.9951 30.1968 35.8463 30.1649 35.7084 30.1042L31.8021 28.3021L30.7604 28.7812C30.636 28.839 30.5014 28.8716 30.3643 28.8772C30.2272 28.8828 30.0904 28.8613 29.9617 28.8139C29.833 28.7665 29.7149 28.6941 29.6142 28.6009C29.5135 28.5077 29.4322 28.3955 29.375 28.2708C29.2616 28.0206 29.2516 27.7358 29.3472 27.4783C29.4428 27.2208 29.6363 27.0114 29.8854 26.8958L31.3646 26.2083C31.5017 26.1449 31.651 26.112 31.8021 26.112C31.9532 26.112 32.1025 26.1449 32.2396 26.2083L34.7917 27.3854L34.3334 24.7396C34.3072 24.5811 34.318 24.4187 34.365 24.2651C34.412 24.1115 34.4938 23.9709 34.6042 23.8542L36.6875 21.7083L33.948 21.4167C33.7708 21.3988 33.6011 21.3358 33.4552 21.2336C33.3093 21.1315 33.1921 20.9937 33.1146 20.8333L31.8438 18.1875C31.6996 18.4142 31.4735 18.5765 31.2125 18.6404C30.9516 18.7043 30.676 18.665 30.4434 18.5305C30.2108 18.3961 30.0391 18.1769 29.9643 17.9189C29.8894 17.6609 29.9172 17.3839 30.0417 17.1458L30.9167 15.3125C31.002 15.1364 31.1352 14.9879 31.301 14.8839C31.4668 14.78 31.6585 14.7249 31.8542 14.7249C32.0499 14.7249 32.2416 14.78 32.4074 14.8839C32.5732 14.9879 32.7064 15.1364 32.7917 15.3125L34.6563 19.4167L38.9167 19.8646C39.1114 19.884 39.2968 19.9578 39.4515 20.0777C39.6062 20.1976 39.724 20.3586 39.7914 20.5423C39.8588 20.7261 39.8731 20.9251 39.8326 21.1166C39.7921 21.3081 39.6985 21.4843 39.5625 21.625L36.4375 24.9167L37.1354 29C37.1749 29.1933 37.1586 29.3938 37.0885 29.5782C37.0185 29.7626 36.8975 29.9233 36.7396 30.0417C36.5619 30.1522 36.355 30.2067 36.1459 30.1979V30.1979Z" fill="#FA4616"/>
<path d="M45.5209 30.1979C45.3701 30.1968 45.2213 30.1649 45.0834 30.1042L41.1771 28.3021L40.1354 28.7812C40.011 28.839 39.8764 28.8716 39.7393 28.8772C39.6022 28.8828 39.4654 28.8613 39.3367 28.8139C39.208 28.7665 39.0899 28.6941 38.9892 28.6009C38.8885 28.5077 38.8072 28.3955 38.75 28.2708C38.6366 28.0206 38.6266 27.7358 38.7222 27.4783C38.8178 27.2208 39.0113 27.0114 39.2604 26.8958L40.7396 26.2083C40.8767 26.1449 41.026 26.112 41.1771 26.112C41.3282 26.112 41.4775 26.1449 41.6146 26.2083L44.1667 27.3854L43.7084 24.7396C43.6822 24.5811 43.693 24.4187 43.74 24.2651C43.787 24.1115 43.8688 23.9709 43.9792 23.8542L46.0625 21.7083L43.323 21.4167C43.1458 21.3988 42.9761 21.3358 42.8302 21.2336C42.6843 21.1315 42.5671 20.9937 42.4896 20.8333L41.2188 18.1875C41.0746 18.4142 40.8485 18.5765 40.5875 18.6404C40.3266 18.7043 40.051 18.665 39.8184 18.5305C39.5858 18.3961 39.4141 18.1769 39.3393 17.9189C39.2644 17.6609 39.2922 17.3839 39.4167 17.1458L40.2917 15.3125C40.377 15.1364 40.5102 14.9879 40.676 14.8839C40.8418 14.78 41.0335 14.7249 41.2292 14.7249C41.4249 14.7249 41.6166 14.78 41.7824 14.8839C41.9482 14.9879 42.0814 15.1364 42.1667 15.3125L44.0313 19.4167L48.2917 19.8646C48.4864 19.884 48.6718 19.9578 48.8265 20.0777C48.9812 20.1976 49.099 20.3586 49.1664 20.5423C49.2338 20.7261 49.2481 20.9251 49.2076 21.1166C49.1671 21.3081 49.0735 21.4843 48.9375 21.625L45.8125 24.9167L46.5104 29C46.5499 29.1933 46.5336 29.3938 46.4635 29.5782C46.3935 29.7626 46.2725 29.9233 46.1146 30.0417C45.9369 30.1522 45.73 30.2067 45.5209 30.1979V30.1979Z" fill="#FA4616"/>
</svg>
