<svg width="64" height="64" viewBox="0 0 64 64" fill="none" xmlns="http://www.w3.org/2000/svg">
<path d="M31 47.5263H28.8948V42.7895L29.3158 42.4737C29.3158 42.4737 32.0527 40.3684 32.0527 38.0526V35.1789H34.1579V38.0526C34.1579 40.7684 31.9474 42.9895 31 43.8105V47.5263Z" fill="#404040"/>
<path d="M34.1579 57H11V46.4737H34.1579V57ZM13.1053 54.8947H32.0526V48.579H13.1053V54.8947Z" fill="#404040"/>
<path d="M17.3158 52.7895H16.2632C15.984 52.7895 15.7163 52.6786 15.5189 52.4812C15.3215 52.2838 15.2106 52.016 15.2106 51.7368C15.2106 51.4577 15.3215 51.1899 15.5189 50.9925C15.7163 50.7951 15.984 50.6842 16.2632 50.6842H17.3158C17.595 50.6842 17.8628 50.7951 18.0602 50.9925C18.2576 51.1899 18.3685 51.4577 18.3685 51.7368C18.3685 52.016 18.2576 52.2838 18.0602 52.4812C17.8628 52.6786 17.595 52.7895 17.3158 52.7895Z" fill="#404040"/>
<path d="M14.1578 47.5263V31.9474C14.1578 29.3895 15.0736 28.3579 16.5999 26.9684L21.4841 23.1158L22.7894 24.7684L17.9578 28.5684C16.621 29.8105 16.2631 30.3158 16.2631 31.9474V47.5263H14.1578Z" fill="#404040"/>
<path d="M44.7578 40.1579C44.6053 40.1587 44.4545 40.1264 44.3157 40.0632L34.6631 35.6105L28.0105 38.6842C27.7564 38.8015 27.4662 38.813 27.2036 38.7163C26.9411 38.6195 26.7277 38.4225 26.6105 38.1684C26.4932 37.9144 26.4817 37.6242 26.5784 37.3616C26.6751 37.099 26.8722 36.8857 27.1263 36.7684L34.221 33.5053C34.3596 33.4411 34.5104 33.4079 34.6631 33.4079C34.8158 33.4079 34.9666 33.4411 35.1052 33.5053L43.3894 37.3158L41.9052 28.6211C41.8771 28.4593 41.8871 28.2931 41.9347 28.136C41.9822 27.9788 42.0658 27.8349 42.1789 27.7158L48.7684 20.7263L39.6736 19.7368C39.4946 19.7188 39.3232 19.6551 39.1757 19.5519C39.0283 19.4487 38.9098 19.3094 38.8315 19.1474L34.621 10.4526L30.4105 19.1474C30.3379 19.3013 30.2292 19.4353 30.0935 19.5379C29.9578 19.6406 29.7993 19.7088 29.6315 19.7368L20.5263 20.7053L26.8421 27.4211C27.0104 27.6271 27.0946 27.8893 27.0775 28.1548C27.0604 28.4204 26.9433 28.6696 26.7499 28.8523C26.5565 29.0351 26.301 29.1378 26.035 29.1398C25.7689 29.1418 25.5119 29.043 25.3157 28.8632L17.5263 20.6105C17.3982 20.4712 17.31 20.2998 17.2711 20.1146C17.2322 19.9293 17.244 19.737 17.3052 19.5579C17.3727 19.3738 17.4902 19.2122 17.6446 19.0913C17.7989 18.9704 17.984 18.895 18.1789 18.8737L28.8105 17.7368L33.6736 7.6C33.7589 7.42087 33.8931 7.2695 34.0608 7.16335C34.2284 7.05719 34.4226 7.00056 34.621 7C34.8194 7.00056 35.0136 7.05719 35.1812 7.16335C35.3488 7.2695 35.483 7.42087 35.5684 7.6L40.4315 17.7368L51.0631 18.8737C51.2578 18.8948 51.4428 18.9698 51.5972 19.0903C51.7516 19.2108 51.8694 19.372 51.9372 19.5557C52.005 19.7395 52.0202 19.9385 51.9811 20.1304C51.942 20.3224 51.8501 20.4996 51.7157 20.6421L44.021 28.7895L45.7578 38.9368C45.7842 39.0893 45.7765 39.2456 45.7356 39.3948C45.6946 39.5439 45.6212 39.6822 45.5207 39.7998C45.4202 39.9174 45.295 40.0114 45.1541 40.0751C45.0131 40.1388 44.8599 40.1707 44.7052 40.1684L44.7578 40.1579Z" fill="#FA4616"/>
<path d="M23.4631 42.2632V40.1579C24.4207 39.9525 25.2768 39.4197 25.8839 38.6512C26.491 37.8827 26.8112 36.9265 26.7895 35.9474V33.3579L27.1474 33.0421C27.1474 33.0421 28.2 32.1158 29.3158 31.0421C29.741 30.4911 29.9637 29.8106 29.9465 29.1148C29.9292 28.419 29.6731 27.7503 29.221 27.2211C28.9052 26.9369 28.7684 27.0316 28.5789 27.2211C26.6526 29.1474 20.1052 35.4 19.821 35.6421L18.3684 34.1158C18.4421 34.0527 25.1895 27.6211 27.0947 25.6948C27.3169 25.4514 27.5861 25.2555 27.886 25.1189C28.186 24.9823 28.5104 24.9078 28.8399 24.9C29.1694 24.8921 29.497 24.951 29.8031 25.0731C30.1092 25.1952 30.3875 25.3781 30.621 25.6106C31.4829 26.5062 31.9893 27.685 32.0455 28.9267C32.1016 30.1684 31.7038 31.3881 30.9263 32.3579L30.8421 32.4421C30.0842 33.2105 29.3263 33.8948 28.8947 34.2842V35.9474C28.9098 37.4799 28.3671 38.9657 27.3678 40.1277C26.3684 41.2897 24.9807 42.0487 23.4631 42.2632V42.2632Z" fill="#404040"/>
</svg>
