<svg width="64" height="64" viewBox="0 0 64 64" fill="none" xmlns="http://www.w3.org/2000/svg">
<path d="M18.3409 55.6932C17.9984 55.6929 17.6605 55.6152 17.3523 55.4659C16.972 55.2859 16.6512 55.0009 16.4277 54.6445C16.2042 54.2881 16.0873 53.8752 16.0909 53.4545V46.6364H11.5455C10.3399 46.6364 9.18377 46.1575 8.33133 45.305C7.47889 44.4526 7 43.2964 7 42.0909V12.5455C7 11.3399 7.47889 10.1838 8.33133 9.33133C9.18377 8.47889 10.3399 8 11.5455 8H52.4545C53.6601 8 54.8162 8.47889 55.6687 9.33133C56.5211 10.1838 57 11.3399 57 12.5455V42.0909C57 43.2964 56.5211 44.4526 55.6687 45.305C54.8162 46.1575 53.6601 46.6364 52.4545 46.6364H27.6136L19.7841 55.1705C19.3782 55.5068 18.868 55.6916 18.3409 55.6932V55.6932ZM11.5227 10.2386C10.92 10.2386 10.3419 10.4781 9.91567 10.9043C9.48945 11.3305 9.25 11.9086 9.25 12.5114V42.0568C9.25 42.6596 9.48945 43.2377 9.91567 43.6639C10.3419 44.0901 10.92 44.3295 11.5227 44.3295H18.3409V53.3523L26.5795 44.3295H52.4545C53.0573 44.3295 53.6354 44.0901 54.0616 43.6639C54.4878 43.2377 54.7273 42.6596 54.7273 42.0568V12.5114C54.7273 11.9086 54.4878 11.3305 54.0616 10.9043C53.6354 10.4781 53.0573 10.2386 52.4545 10.2386H11.5227Z" fill="#404040"/>
<path d="M23.4432 38.5455L22.4091 36.5454C26.8864 34.1477 28.3978 29.125 28.625 28.3068V20.5H19.5341V27.3182H25.2159V28.4545C25.1871 29.9253 24.8352 31.3717 24.1852 32.6914C23.5352 34.011 22.603 35.1716 21.4546 36.0909L19.8637 34.4545C21.3904 33.2414 22.4373 31.5261 22.8182 29.6136H17.2273V18.25H30.8637V28.7273C30.7727 28.9773 29.2273 35.4432 23.4432 38.5455Z" fill="#FA4616"/>
<path d="M39.3523 38.5455L38.3182 36.5454C42.7954 34.1477 44.3068 29.125 44.5341 28.3068V20.5H35.4432V27.3182H41.125V28.4545C41.0961 29.9253 40.7442 31.3717 40.0942 32.6914C39.4442 34.011 38.512 35.1716 37.3636 36.0909L35.7727 34.4545C37.2994 33.2414 38.3463 31.5261 38.7273 29.6136H33.1364V18.25H46.7727V28.7273C46.6818 28.9773 45.1364 35.4432 39.3523 38.5455Z" fill="#FA4616"/>
</svg>
