<svg width="64" height="64" viewBox="0 0 64 64" fill="none" xmlns="http://www.w3.org/2000/svg">
<path d="M30.2343 55.9883H13.1949C12.3476 55.9883 11.5349 55.6517 10.9357 55.0525C10.3366 54.4533 10 53.6407 10 52.7934V10.1949C10 9.34755 10.3366 8.5349 10.9357 7.93574C11.5349 7.33658 12.3476 7 13.1949 7H34.4941C35.3415 7 36.1541 7.33658 36.7533 7.93574C37.3524 8.5349 37.689 9.34755 37.689 10.1949V30.4292H35.5591V10.1949C35.5591 9.91244 35.4469 9.64155 35.2472 9.44183C35.0474 9.24211 34.7766 9.12993 34.4941 9.12993H13.1949C12.9124 9.12993 12.6415 9.24211 12.4418 9.44183C12.2421 9.64155 12.1299 9.91244 12.1299 10.1949V52.7934C12.1299 53.0758 12.2421 53.3467 12.4418 53.5464C12.6415 53.7461 12.9124 53.8584 13.1949 53.8584H30.2343V55.9883Z" fill="#404040"/>
<path d="M22.7795 47.4686H11.0649V49.5985H22.7795V47.4686Z" fill="#404040"/>
<path d="M25.9745 50.6635H21.7146V52.7934H25.9745V50.6635Z" fill="#404040"/>
<path d="M53.2588 51.8562C53.2055 51.771 51.7998 49.8647 51.065 48.5868C50.6692 47.6909 50.5221 46.705 50.639 45.7327C50.7622 44.7737 50.6261 43.7991 50.245 42.9105L44.9201 33.688C44.8447 33.5695 44.7466 33.4671 44.6315 33.3867C44.5163 33.3062 44.3864 33.2494 44.2492 33.2194C43.9892 33.1537 43.7145 33.18 43.4718 33.2939L40.7029 34.8914L40.1704 33.9649C40.0073 33.7442 39.7738 33.5859 39.5084 33.5162C39.2431 33.4464 38.9619 33.4695 38.7114 33.5815L36.3578 34.934L35.8466 34.6677C35.5753 34.5927 35.291 34.5776 35.0132 34.6236C34.7355 34.6696 34.4712 34.7755 34.2386 34.934L32.6518 35.8498L31.5868 34.0074L33.1629 33.0916C34.0774 32.5227 35.1759 32.3281 36.23 32.5484L37.6464 31.7391C38.2227 31.4287 38.8779 31.2955 39.5296 31.3561C40.1814 31.4167 40.8007 31.6685 41.3099 32.0799L42.3749 31.4515C43.0832 31.062 43.9127 30.9555 44.6965 31.1533C45.1193 31.2429 45.5186 31.42 45.869 31.6731C46.2193 31.9262 46.5127 32.2497 46.7306 32.623L52.0554 41.8456C52.6479 43.069 52.8841 44.4345 52.737 45.7859C52.6755 46.3681 52.7224 46.9567 52.8754 47.5218C53.557 48.6933 54.9308 50.5783 54.9521 50.5996L53.2588 51.8562Z" fill="#404040"/>
<path d="M37.2691 33.1916L35.4246 34.2565L38.087 38.8679L39.9315 37.803L37.2691 33.1916Z" fill="#404040"/>
<path d="M42.0252 32.8953L40.1807 33.9602L42.3106 37.6494L44.1552 36.5844L42.0252 32.8953Z" fill="#404040"/>
<path d="M38.722 57L38.1682 56.0415C37.9339 55.6475 37.8594 55.4984 36.8264 55.2215C34.7642 54.6398 32.8134 53.7184 31.0543 52.4952C29.5539 51.4948 27.9421 50.6727 26.2513 50.0458C25.7791 49.8915 25.3494 49.6293 24.9963 49.2799C24.6432 48.9305 24.3765 48.5035 24.2172 48.033C24.0621 47.5864 24.015 47.1093 24.0798 46.641C24.1446 46.1727 24.3194 45.7264 24.59 45.3386C24.9706 44.7871 25.4873 44.3433 26.09 44.0503C26.6927 43.7573 27.3609 43.6252 28.0298 43.6666C29.1952 43.8094 30.3438 44.0662 31.459 44.4334L24.3024 32.0266C24.0926 31.6616 23.9568 31.2588 23.9027 30.8413C23.8486 30.4238 23.8772 29.9997 23.987 29.5933C24.0967 29.1869 24.2855 28.806 24.5424 28.4725C24.7994 28.139 25.1195 27.8594 25.4845 27.6496C25.8496 27.4398 26.2523 27.304 26.6698 27.2499C27.0873 27.1957 27.5114 27.2244 27.9179 27.3341C28.3243 27.4439 28.7051 27.6327 29.0386 27.8896C29.3721 28.1466 29.6518 28.4667 29.8615 28.8317L36.2513 39.886L34.4089 40.951L28.0191 29.886C27.9529 29.7642 27.8618 29.6576 27.7517 29.5732C27.6416 29.4889 27.5151 29.4285 27.3802 29.3961C27.2433 29.3583 27.1002 29.3482 26.9594 29.3665C26.8186 29.3848 26.6828 29.4311 26.5601 29.5026C26.3177 29.6387 26.138 29.8642 26.0596 30.131C25.9859 30.3995 26.0203 30.6862 26.1554 30.9297L34.2918 45.0085C34.4316 45.2517 34.4942 45.5316 34.4714 45.8111C34.4486 46.0907 34.3414 46.3567 34.164 46.574C33.988 46.7942 33.7481 46.9544 33.4773 47.0326C33.2064 47.1108 32.918 47.1032 32.6517 47.0106C31.0982 46.4367 29.4935 46.0123 27.8594 45.7433C27.563 45.7322 27.2686 45.7967 27.004 45.9309C26.7394 46.065 26.5134 46.2644 26.3472 46.5101C26.2697 46.6263 26.2198 46.7587 26.2013 46.8971C26.1829 47.0356 26.1963 47.1764 26.2407 47.3088C26.2941 47.4661 26.3836 47.6086 26.5019 47.7251C26.6202 47.8416 26.7642 47.9288 26.9222 47.9798C28.7738 48.6511 30.5368 49.5451 32.1725 50.6422C33.7323 51.7382 35.4583 52.576 37.2843 53.1235C39.0841 53.6027 39.5101 54.1885 39.9254 54.8701L40.5218 55.935L38.722 57Z" fill="#404040"/>
<path d="M18.8287 35.7327C18.5013 35.7312 18.1835 35.6227 17.9234 35.4239C17.7072 35.2568 17.5418 35.0327 17.4459 34.7769C17.3499 34.5211 17.3272 34.2435 17.3803 33.9755L18.2642 29.5878L14.7072 26.1693C14.5044 25.9743 14.3623 25.7247 14.2981 25.4507C14.2338 25.1767 14.2502 24.89 14.3452 24.6251C14.4413 24.3581 14.6116 24.1241 14.8361 23.9506C15.0605 23.777 15.3299 23.6712 15.6125 23.6454L20.4048 23.23L22.5347 18.7678C22.6537 18.5123 22.8433 18.2961 23.081 18.1446C23.3187 17.9931 23.5947 17.9126 23.8766 17.9126C24.1585 17.9126 24.4345 17.9931 24.6722 18.1446C24.9099 18.2961 25.0994 18.5123 25.2184 18.7678L27.3484 23.23L32.1407 23.6454C32.4233 23.6712 32.6926 23.777 32.9171 23.9506C33.1416 24.1241 33.3119 24.3581 33.408 24.6251C33.503 24.89 33.5193 25.1767 33.4551 25.4507C33.3909 25.7247 33.2487 25.9743 33.0459 26.1693L31.0438 28.0969L29.5635 26.5634L30.5219 25.6475L25.9426 25.2428L23.9085 20.9191L21.8744 25.2428L17.3057 25.6475L20.6391 28.8424L19.7978 33.1022L22.7051 31.6858L23.6423 33.6028L19.5528 35.5836C19.3263 35.6889 19.0784 35.7399 18.8287 35.7327V35.7327Z" fill="#FA4616"/>
</svg>
