<svg width="64" height="64" viewBox="0 0 64 64" fill="none" xmlns="http://www.w3.org/2000/svg">
<path d="M30.1189 46.9963H27.8959V41.9944L28.3405 41.661C28.3405 41.661 31.2304 39.4379 31.2304 36.9926V34.0137H33.4535V36.9926C33.4535 39.8492 31.1193 42.1945 30.1189 43.0726V46.9963Z" fill="#404040"/>
<path d="M33.4535 57H9V45.8848H33.4535V57ZM11.223 54.777H31.2305V48.1078H11.223V54.777Z" fill="#404040"/>
<path d="M15.6691 52.5539H14.5576C14.2628 52.5539 13.9801 52.4368 13.7716 52.2284C13.5632 52.0199 13.446 51.7372 13.446 51.4424C13.446 51.1476 13.5632 50.8649 13.7716 50.6564C13.9801 50.448 14.2628 50.3309 14.5576 50.3309H15.6691C15.9639 50.3309 16.2466 50.448 16.4551 50.6564C16.6635 50.8649 16.7806 51.1476 16.7806 51.4424C16.7806 51.7372 16.6635 52.0199 16.4551 52.2284C16.2466 52.4368 15.9639 52.5539 15.6691 52.5539Z" fill="#404040"/>
<path d="M12.3346 46.9963V30.5457C12.3346 27.8447 13.3127 26.7554 14.9133 25.2771L19.5595 21.598L20.9378 23.3319L16.3583 26.9666C14.9356 28.2782 14.5576 28.8117 14.5576 30.5457V46.9963H12.3346Z" fill="#404040"/>
<path d="M36.7882 39.2156C36.6412 39.215 36.4957 39.1852 36.3602 39.128C36.2248 39.0708 36.102 38.9872 35.9991 38.8822C33.4625 36.3974 30.7828 34.0629 27.9739 31.8907L27.8627 31.8018C27.7477 31.7109 27.6518 31.5981 27.5806 31.4699C27.5093 31.3418 27.4642 31.2008 27.4476 31.0552C27.4311 30.9095 27.4436 30.762 27.4843 30.6212C27.525 30.4803 27.5932 30.3489 27.6849 30.2345C27.8699 30.0072 28.1372 29.8621 28.4286 29.8309C28.7201 29.7997 29.012 29.8848 29.241 30.0678L29.3633 30.1567C31.9436 32.1577 34.4217 34.2871 36.7882 36.5369C39.1512 34.2874 41.6256 32.158 44.2021 30.1567C48.7816 26.4998 52.4051 23.6099 53.2833 19.3083C53.5227 18.1111 53.513 16.8774 53.2549 15.6841C52.9967 14.4909 52.4956 13.3635 51.7827 12.3724C51.1812 11.5199 50.4073 10.8034 49.5112 10.2691C48.6151 9.73489 47.6167 9.39491 46.5808 9.27121C42.9905 8.87106 39.1336 10.894 37.7997 13.8729C37.7121 14.0679 37.57 14.2335 37.3906 14.3498C37.2112 14.4662 37.0021 14.5283 36.7882 14.5287C36.5725 14.5304 36.361 14.4693 36.1794 14.3529C35.9978 14.2364 35.8541 14.0697 35.7656 13.8729C34.4429 10.894 30.5859 8.88217 26.9846 9.27121C25.9604 9.4038 24.975 9.74796 24.0909 10.2818C23.2069 10.8157 22.4435 11.5276 21.8494 12.3724C21.128 13.3635 20.6219 14.4945 20.3634 15.6928C20.105 16.8911 20.1 18.1302 20.3488 19.3305C20.849 21.8203 22.2495 23.9544 25.0061 26.4887C25.1141 26.588 25.2015 26.7075 25.2633 26.8406C25.3251 26.9736 25.3601 27.1175 25.3663 27.2641C25.3725 27.4106 25.3498 27.557 25.2994 27.6948C25.2491 27.8325 25.172 27.9591 25.0728 28.0671C24.9735 28.1751 24.854 28.2625 24.7209 28.3243C24.5879 28.3861 24.444 28.4211 24.2974 28.4273C24.1509 28.4335 24.0045 28.4108 23.8667 28.3604C23.729 28.31 23.6024 28.233 23.4944 28.1338C20.371 25.2549 18.7816 22.754 18.1702 19.7751C17.865 18.2716 17.8743 16.7211 18.1976 15.2214C18.5209 13.7216 19.1511 12.305 20.0487 11.0608C20.8289 9.957 21.833 9.03014 22.9955 8.34065C24.1581 7.65116 25.453 7.21454 26.7956 7.05927C28.6811 6.87061 30.5839 7.15614 32.331 7.88991C34.078 8.62368 35.614 9.78242 36.7994 11.2608C37.9813 9.77852 39.5168 8.61694 41.2648 7.8828C43.0127 7.14866 44.9171 6.86548 46.8031 7.05927C48.1458 7.21454 49.4406 7.65116 50.6032 8.34065C51.7657 9.03014 52.7699 9.957 53.55 11.0608C54.4532 12.3023 55.0876 13.7184 55.413 15.2188C55.7383 16.7192 55.7474 18.271 55.4396 19.7751C54.417 24.8436 50.5267 27.9337 45.5915 31.8907C42.784 34.0603 40.1079 36.3949 37.5774 38.8822C37.4745 38.9872 37.3517 39.0708 37.2163 39.128C37.0808 39.1852 36.9353 39.215 36.7882 39.2156V39.2156Z" fill="#FA4616"/>
<path d="M22.1715 41.4387V39.2156C23.1807 38.9965 24.082 38.4329 24.7209 37.6216C25.3598 36.8103 25.6964 35.8019 25.6728 34.7695V32.0352L26.0619 31.7017C26.0619 31.7017 27.1734 30.7125 28.3405 29.5787C28.7895 28.9969 29.0247 28.2783 29.0065 27.5436C28.9882 26.8088 28.7178 26.1028 28.2404 25.5439C27.907 25.2549 27.7625 25.3549 27.5624 25.5439C25.5394 27.578 18.6702 34.1804 18.3145 34.4361L16.7806 32.8244C16.8584 32.7577 23.9833 25.9663 25.9952 23.9322C26.2314 23.6773 26.5165 23.4726 26.8336 23.3302C27.1506 23.1878 27.493 23.1107 27.8405 23.1035C28.1879 23.0962 28.5333 23.159 28.856 23.288C29.1787 23.417 29.4721 23.6096 29.7188 23.8544C30.6303 24.7971 31.166 26.0403 31.2254 27.3503C31.2848 28.6603 30.8636 29.9468 30.0411 30.9681L29.9633 31.0571C29.1519 31.8685 28.3516 32.6021 27.8959 33.0022V34.7251C27.9231 36.3493 27.3565 37.9276 26.3025 39.1637C25.2485 40.3998 23.7796 41.2088 22.1715 41.4387V41.4387Z" fill="#404040"/>
</svg>
