<svg width="64" height="64" viewBox="0 0 64 64" fill="none" xmlns="http://www.w3.org/2000/svg">
<path d="M41.6085 41.8756H29.3207C28.5901 41.9136 27.8608 41.7786 27.1922 41.4817C26.5236 41.1848 25.9345 40.7342 25.4727 40.1668C25.0077 39.6901 24.8334 39.5041 24.3102 39.5041H19.7764V23.2288H25.4727C26.4621 22.6835 27.3732 22.007 28.1814 21.2177L28.7743 20.5434C30.2856 18.8926 31.2853 17.7882 31.2853 15.7422V14.7192C31.2763 14.2523 31.4185 13.795 31.691 13.4157C31.9634 13.0365 32.3513 12.7555 32.7966 12.615C33.4187 12.4377 34.08 12.4539 34.6926 12.6616C35.3052 12.8692 35.8401 13.2585 36.2261 13.7775C37.4498 15.2463 38.0432 17.1393 37.8768 19.0438C37.8925 20.2654 37.6673 21.4782 37.2142 22.6127C37.2142 22.7522 37.1212 22.8685 37.0979 22.9615V25.9492C37.1077 27.8907 36.5194 29.7881 35.4128 31.3834C34.3063 32.9788 32.7352 34.1946 30.9133 34.8657L30.0996 32.6918C31.4721 32.1797 32.6541 31.2583 33.4858 30.0523C34.3175 28.8464 34.7587 27.4141 34.7496 25.9492V22.8801C34.7708 22.5062 34.8614 22.1396 35.017 21.799C35.3722 20.9246 35.5462 19.9873 35.5285 19.0438C35.6136 18.3586 35.554 17.6632 35.3538 17.0024C35.1536 16.3417 34.8171 15.7302 34.366 15.2075C34.2821 15.0794 34.1685 14.9735 34.0349 14.8986C33.9014 14.8238 33.7518 14.7821 33.5987 14.7773V15.7538C33.5987 18.7066 32.0875 20.4039 30.4832 22.1244L29.8206 22.8568C28.4372 24.1356 26.6469 25.5655 25.4611 25.5655H22.0898V37.1907H24.2986C24.8494 37.1894 25.3935 37.3121 25.8906 37.5495C26.3876 37.787 26.8249 38.1332 27.17 38.5625C27.4221 38.8924 27.7538 39.1528 28.134 39.3196C28.5142 39.4863 28.9305 39.5538 29.3439 39.5157H41.6318C41.9404 39.4485 42.2236 39.2947 42.448 39.0724C42.6724 38.85 42.8288 38.5683 42.8989 38.2602V38.0742L44.5264 28.3788C44.5811 28.0378 44.5625 27.689 44.4718 27.3558C44.381 27.0225 44.2203 26.7125 44.0003 26.4463C43.7802 26.18 43.506 25.9637 43.1958 25.8119C42.8856 25.66 42.5466 25.576 42.2014 25.5655H38.2837V23.2405H42.2014C42.8883 23.2463 43.5657 23.4009 44.1872 23.6936C44.8086 23.9863 45.3592 24.4102 45.8011 24.9361C46.243 25.462 46.5658 26.0774 46.7471 26.74C46.9284 27.4025 46.964 28.0964 46.8515 28.7741L45.2356 38.3765C45.1438 39.295 44.7287 40.151 44.0644 40.7919C43.4001 41.4328 42.5297 41.8168 41.6085 41.8756V41.8756Z" fill="#FA4616"/>
<path d="M23.136 57C22.8791 56.9963 22.6242 56.9532 22.3804 56.8721C21.9164 56.7181 21.5127 56.4218 21.2268 56.0253C20.9409 55.6288 20.7873 55.1522 20.7877 54.6633V48.8507H14.9751C13.1252 48.8507 11.351 48.1159 10.043 46.8078C8.73487 45.4997 8 43.7255 8 41.8756V13.9751C8 12.1252 8.73487 10.3511 10.043 9.043C11.351 7.73491 13.1252 7 14.9751 7H49.8507C51.7006 7 53.4748 7.73491 54.7828 9.043C56.0909 10.3511 56.8258 12.1252 56.8258 13.9751V41.8756C56.8258 43.7255 56.0909 45.4997 54.7828 46.8078C53.4748 48.1159 51.7006 48.8507 49.8507 48.8507H32.8663L24.903 56.163C24.6869 56.4225 24.4169 56.6317 24.1118 56.7763C23.8066 56.9208 23.4736 56.9972 23.136 57ZM14.9984 9.33668C13.7651 9.33668 12.5823 9.82659 11.7103 10.6987C10.8382 11.5707 10.3483 12.7535 10.3483 13.9868V41.8872C10.3483 43.1205 10.8382 44.3033 11.7103 45.1753C12.5823 46.0474 13.7651 46.5373 14.9984 46.5373H23.136V54.675L23.2871 54.5238L31.9944 46.5373H49.874C51.1072 46.5373 52.29 46.0474 53.1621 45.1753C54.0341 44.3033 54.524 43.1205 54.524 41.8872V13.9868C54.524 12.7535 54.0341 11.5707 53.1621 10.6987C52.29 9.82659 51.1072 9.33668 49.874 9.33668H14.9984Z" fill="#404040"/>
</svg>
