<svg width="64" height="64" viewBox="0 0 64 64" fill="none" xmlns="http://www.w3.org/2000/svg">
<path d="M46.5833 24.3333H44.5V30.5833H46.5833V24.3333Z" fill="#404040"/>
<path d="M46.5833 17.0417H44.5V22.25H46.5833V17.0417Z" fill="#404040"/>
<path d="M46.5833 32.6667H44.5V38.9167H46.5833V32.6667Z" fill="#404040"/>
<path d="M46.5833 41H44.5V46.2083H46.5833V41Z" fill="#404040"/>
<path d="M55.9583 47.25H8.04167C7.7654 47.25 7.50043 47.1403 7.30508 46.945C7.10973 46.7496 7 46.4846 7 46.2083V35.7917C7 35.5154 7.10973 35.2505 7.30508 35.0551C7.50043 34.8598 7.7654 34.75 8.04167 34.75C8.63496 34.6192 9.16578 34.2899 9.54634 33.8163C9.9269 33.3427 10.1344 32.7534 10.1344 32.1458C10.1344 31.5383 9.9269 30.949 9.54634 30.4754C9.16578 30.0019 8.63496 29.6724 8.04167 29.5417C7.7654 29.5417 7.50043 29.432 7.30508 29.2366C7.10973 29.0413 7 28.7763 7 28.5V17.0417C7 16.7654 7.10973 16.5005 7.30508 16.3051C7.50043 16.1098 7.7654 16 8.04167 16H55.9583C56.2346 16 56.4995 16.1098 56.6949 16.3051C56.8902 16.5005 57 16.7654 57 17.0417V28.5C57 28.7763 56.8902 29.0413 56.6949 29.2366C56.4995 29.432 56.2346 29.5417 55.9583 29.5417C55.365 29.6724 54.8342 30.0019 54.4536 30.4754C54.0731 30.949 53.8656 31.5383 53.8656 32.1458C53.8656 32.7534 54.0731 33.3427 54.4536 33.8163C54.8342 34.2899 55.365 34.6192 55.9583 34.75C56.2346 34.75 56.4995 34.8598 56.6949 35.0551C56.8902 35.2505 57 35.5154 57 35.7917V46.2083C57 46.4846 56.8902 46.7496 56.6949 46.945C56.4995 47.1403 56.2346 47.25 55.9583 47.25ZM9.08333 45.1667H54.9167V36.6875C53.9981 36.335 53.2079 35.7122 52.6506 34.9014C52.0933 34.0905 51.7949 33.1297 51.7949 32.1458C51.7949 31.1619 52.0933 30.2011 52.6506 29.3903C53.2079 28.5794 53.9981 27.9567 54.9167 27.6042V18.0833H9.08333V27.6042C10.0019 27.9567 10.7921 28.5794 11.3494 29.3903C11.9067 30.2011 12.2051 31.1619 12.2051 32.1458C12.2051 33.1297 11.9067 34.0905 11.3494 34.9014C10.7921 35.7122 10.0019 36.335 9.08333 36.6875V45.1667Z" fill="#404040"/>
<path d="M21.3853 37.875H18.6665L16.4061 27.6875L18.4374 27.2292L20.0311 34.375L21.6145 27.2292L23.6457 27.6875L21.3853 37.875Z" fill="#FA4616"/>
<path d="M28.875 27.4583H26.7916V36.8333H28.875V27.4583Z" fill="#FA4616"/>
<path d="M29.9167 35.7917H25.75V37.875H29.9167V35.7917Z" fill="#FA4616"/>
<path d="M29.9167 26.4167H25.75V28.5H29.9167V26.4167Z" fill="#FA4616"/>
<path d="M33.0417 26.4167H30.9584V28.5H33.0417V26.4167Z" fill="#FA4616"/>
<path d="M36.1667 33.7083H32V26.4167H36.1667C37.0389 26.5489 37.8348 26.9895 38.41 27.6584C38.9851 28.3274 39.3014 29.1803 39.3014 30.0625C39.3014 30.9447 38.9851 31.7977 38.41 32.4666C37.8348 33.1355 37.0389 33.5761 36.1667 33.7083V33.7083ZM34.0833 31.625H36.1667C36.7292 31.625 37.2083 30.8958 37.2083 30.0625C37.2083 29.2292 36.7292 28.5 36.1667 28.5H34.0833V31.625Z" fill="#FA4616"/>
<path d="M34.0833 32.6667H32V36.8333H34.0833V32.6667Z" fill="#FA4616"/>
<path d="M19.5 26.4167H15.3334V28.5H19.5V26.4167Z" fill="#FA4616"/>
<path d="M24.7083 26.4167H20.5416V28.5H24.7083V26.4167Z" fill="#FA4616"/>
<path d="M35.125 35.7917H30.9584V37.875H35.125V35.7917Z" fill="#FA4616"/>
</svg>
