<svg width="64" height="64" viewBox="0 0 64 64" fill="none" xmlns="http://www.w3.org/2000/svg">
<path d="M44.3883 57C44.1089 57 43.8409 56.889 43.6433 56.6915C43.4457 56.4939 43.3347 56.2259 43.3347 55.9465V54.893C43.4379 53.9287 43.8021 53.0108 44.3883 52.2381C44.9595 51.473 45.3225 50.5727 45.4418 49.6254V40.1437C45.4141 39.8737 45.2942 39.6215 45.1023 39.4296C44.9104 39.2377 44.6582 39.1179 44.3883 39.0902H41.2277V38.0367C41.2 37.7667 41.0801 37.5145 40.8882 37.3226C40.6963 37.1307 40.4442 37.0108 40.1742 36.9832H37.4982L37.1822 36.488C36.8566 36.159 36.422 35.9604 35.9601 35.9296H33.8531C33.5737 35.9296 33.3057 35.8187 33.1081 35.6211C32.9105 35.4235 32.7996 35.1555 32.7996 34.8761C32.7996 34.5967 32.9105 34.3288 33.1081 34.1312C33.3057 33.9336 33.5737 33.8226 33.8531 33.8226H35.9601C36.9222 33.8525 37.8417 34.2263 38.5518 34.8761H40.1742C40.8231 34.896 41.4517 35.1064 41.9819 35.4811C42.5121 35.8558 42.9202 36.3781 43.1556 36.9832H44.3883C45.2198 37.0045 46.0113 37.3443 46.5995 37.9325C47.1876 38.5206 47.5275 39.3122 47.5488 40.1437V49.6254C47.4495 50.9638 46.9788 52.2481 46.1898 53.3338C45.8424 53.8005 45.5884 54.3299 45.4418 54.893V55.9465C45.4418 56.2259 45.3308 56.4939 45.1332 56.6915C44.9356 56.889 44.6677 57 44.3883 57Z" fill="#404040"/>
<path d="M38.0672 42.2507C37.7878 42.2507 37.5198 42.1398 37.3222 41.9422C37.1247 41.7446 37.0137 41.4766 37.0137 41.1972V35.9296C37.0137 35.6502 37.1247 35.3823 37.3222 35.1847C37.5198 34.9871 37.7878 34.8761 38.0672 34.8761C38.3466 34.8761 38.6146 34.9871 38.8121 35.1847C39.0097 35.3823 39.1207 35.6502 39.1207 35.9296V41.1972C39.1207 41.4766 39.0097 41.7446 38.8121 41.9422C38.6146 42.1398 38.3466 42.2507 38.0672 42.2507Z" fill="#404040"/>
<path d="M42.2813 43.3043C42.0019 43.3043 41.7339 43.1933 41.5363 42.9957C41.3388 42.7981 41.2278 42.5302 41.2278 42.2507V38.0367C41.2278 37.7573 41.3388 37.4893 41.5363 37.2917C41.7339 37.0942 42.0019 36.9832 42.2813 36.9832C42.5607 36.9832 42.8287 37.0942 43.0262 37.2917C43.2238 37.4893 43.3348 37.7573 43.3348 38.0367V42.2507C43.3348 42.5302 43.2238 42.7981 43.0262 42.9957C42.8287 43.1933 42.5607 43.3043 42.2813 43.3043Z" fill="#404040"/>
<path d="M29.639 57C29.3596 57 29.0916 56.889 28.894 56.6915C28.6964 56.4939 28.5855 56.2259 28.5855 55.9465V54.893C28.5855 54.44 28.5855 54.2714 27.848 53.5234C26.4285 52.1348 25.2025 50.5615 24.2028 48.8458C23.365 47.4601 22.4098 46.149 21.3478 44.9267C21.0181 44.5601 20.7788 44.1215 20.6489 43.6458C20.519 43.1702 20.5022 42.6708 20.5998 42.1875C20.6928 41.732 20.8907 41.3043 21.1778 40.9386C21.4649 40.5728 21.8334 40.279 22.2538 40.0805C22.8539 39.7944 23.518 39.6692 24.1811 39.7173C24.8442 39.7653 25.4833 39.9849 26.0359 40.3544C26.9598 41.0533 27.8136 41.84 28.5855 42.7038V29.5664C28.5855 28.7281 28.9184 27.9243 29.5112 27.3315C30.1039 26.7388 30.9078 26.4058 31.746 26.4058C32.584 26.4066 33.3873 26.74 33.9795 27.3329C34.2758 27.6258 34.5097 27.9756 34.6672 28.3612C34.8247 28.7469 34.9026 29.1604 34.896 29.5769V41.1656C34.896 41.445 34.785 41.713 34.5875 41.9106C34.3899 42.1082 34.1219 42.2191 33.8425 42.2191C33.5631 42.2191 33.2951 42.1082 33.0975 41.9106C32.9 41.713 32.789 41.445 32.789 41.1656V29.5769C32.7954 29.4401 32.7724 29.3034 32.7215 29.1762C32.6706 29.049 32.593 28.9342 32.494 28.8395C32.3952 28.7387 32.2771 28.6587 32.1468 28.6044C32.0165 28.5501 31.8766 28.5226 31.7355 28.5234V28.5234C31.4561 28.5234 31.1881 28.6344 30.9905 28.832C30.7929 29.0296 30.682 29.2975 30.682 29.5769V44.6106C30.686 44.8875 30.6041 45.1587 30.4475 45.3871C30.2909 45.6154 30.0673 45.7895 29.8075 45.8854C29.5476 45.9889 29.262 46.0089 28.9902 45.9429C28.7184 45.8768 28.4739 45.7279 28.2905 45.5167C27.2444 44.2566 26.0802 43.0995 24.8139 42.0611C24.5653 41.9053 24.2814 41.8148 23.9885 41.7983C23.6956 41.7817 23.4033 41.8395 23.1388 41.9663C23.0139 42.0288 22.9052 42.1194 22.8212 42.2308C22.7371 42.3423 22.68 42.4717 22.6542 42.6089C22.6232 42.7692 22.63 42.9345 22.6738 43.0917C22.7177 43.249 22.7975 43.3939 22.907 43.515C24.0477 44.8292 25.0734 46.2391 25.9727 47.7291C26.8801 49.3017 27.9964 50.7441 29.2913 52.0169C30.5977 53.3232 30.6925 53.9975 30.682 54.8298V55.957C30.6792 56.2328 30.5684 56.4965 30.3734 56.6915C30.1784 56.8865 29.9148 56.9973 29.639 57V57Z" fill="#404040"/>
<path d="M22.0853 34.1387C21.8573 34.1387 21.6355 34.0647 21.4532 33.928C21.2935 33.8083 21.1712 33.6457 21.1003 33.4592C21.0294 33.2727 21.013 33.0699 21.0528 32.8744L22.9386 24.5411L16.3331 18.3991C16.1842 18.2595 16.079 18.0796 16.0303 17.8814C15.9817 17.6831 15.9917 17.475 16.0592 17.2824C16.1271 17.0866 16.2513 16.9152 16.4162 16.7896C16.5811 16.6641 16.7794 16.5899 16.9863 16.5765L25.7199 15.9865L29.2492 7.65321C29.3286 7.45998 29.4636 7.29472 29.6371 7.1784C29.8107 7.06209 30.0148 7 30.2237 7C30.4326 7 30.6368 7.06209 30.8103 7.1784C30.9838 7.29472 31.1188 7.45998 31.1982 7.65321L34.7275 15.9655L43.4612 16.5555C43.668 16.5689 43.8663 16.643 44.0312 16.7685C44.1961 16.8941 44.3203 17.0655 44.3883 17.2613C44.4557 17.454 44.4657 17.6621 44.4171 17.8603C44.3685 18.0586 44.2633 18.2384 44.1144 18.378L37.5088 24.52L38.8889 30.641C38.9408 30.9097 38.886 31.1881 38.7362 31.4172C38.5864 31.6463 38.3534 31.8081 38.0864 31.8683C37.8194 31.9286 37.5394 31.8826 37.3057 31.74C37.0721 31.5974 36.9031 31.3695 36.8345 31.1045L35.3175 24.3936C35.2768 24.2146 35.2836 24.0281 35.3372 23.8526C35.3908 23.677 35.4893 23.5185 35.623 23.3928L40.8906 18.4939L33.9374 18.0198C33.7415 18.0077 33.5528 17.9412 33.3928 17.8276C33.2327 17.7141 33.1075 17.5581 33.0314 17.3772L30.2185 10.74L27.4161 17.3772C27.3399 17.5581 27.2147 17.7141 27.0546 17.8276C26.8946 17.9412 26.706 18.0077 26.5101 18.0198L19.5569 18.4939L24.8244 23.3928C24.9581 23.5185 25.0566 23.677 25.1102 23.8526C25.1638 24.0281 25.1706 24.2146 25.13 24.3936L23.634 31.0413L26.4047 29.5032C26.6506 29.3635 26.9419 29.3272 27.2146 29.4022C27.4872 29.4773 27.7189 29.6576 27.8586 29.9035C27.9983 30.1494 28.0346 30.4407 27.9595 30.7134C27.8844 30.986 27.7041 31.2177 27.4582 31.3574L22.6226 34.0122C22.4579 34.1014 22.2724 34.145 22.0853 34.1387Z" fill="#FA4616"/>
</svg>
