<svg width="64" height="64" viewBox="0 0 64 64" fill="none" xmlns="http://www.w3.org/2000/svg">
<path d="M31.9739 51.4911C31.2897 51.4958 30.6115 51.3638 29.9789 51.1029C29.3464 50.842 28.7723 50.4575 28.2903 49.9719C27.5351 49.2148 27.0314 48.2434 26.848 47.1899C26.6646 46.1363 26.8102 45.0519 27.2651 44.0841C27.72 43.1163 28.4621 42.3122 29.3903 41.7812C30.3185 41.2502 31.3878 41.0181 32.4526 41.1165L41.7242 35.1228C41.9238 34.9904 42.1629 34.931 42.4012 34.9545C42.6395 34.978 42.8624 35.0829 43.0323 35.2516C43.2022 35.4203 43.3088 35.6425 43.334 35.8806C43.3592 36.1187 43.3015 36.3582 43.1706 36.5588L37.1665 45.8303C37.2301 46.5511 37.1428 47.2772 36.91 47.9623C36.6772 48.6474 36.304 49.2764 35.8144 49.8091C35.3248 50.3418 34.7294 50.7665 34.0663 51.0561C33.4033 51.3458 32.6871 51.4939 31.9635 51.4911H31.9739ZM31.9739 43.1665C31.1499 43.1699 30.3606 43.4991 29.7783 44.0822C29.4716 44.368 29.2256 44.7126 29.055 45.0955C28.8844 45.4785 28.7926 45.8918 28.7852 46.311C28.7778 46.7302 28.8549 47.1465 29.012 47.5352C29.169 47.9239 29.4026 48.2771 29.6991 48.5735C29.9955 48.8699 30.3486 49.1036 30.7373 49.2606C31.126 49.4176 31.5424 49.4947 31.9616 49.4873C32.3807 49.4799 32.7941 49.3882 33.177 49.2176C33.56 49.0469 33.9046 48.8009 34.1904 48.4942C34.5427 48.1404 34.8051 47.7072 34.9553 47.231C35.1056 46.7548 35.1395 46.2495 35.0541 45.7575C35.006 45.4983 35.0581 45.2305 35.1998 45.0083L38.7898 39.4932L33.2747 43.0624C33.0566 43.2051 32.793 43.2608 32.5359 43.2185C32.3467 43.1873 32.1552 43.1734 31.9635 43.1769L31.9739 43.1665Z" fill="#FA4616"/>
<path d="M55.9074 47.3392H45.5015C45.2256 47.3392 44.9609 47.2295 44.7657 47.0344C44.5706 46.8392 44.461 46.5746 44.461 46.2986C44.4647 43.9409 43.797 41.631 42.5359 39.6389L44.2945 38.5255C45.575 40.5528 46.3329 42.866 46.5005 45.258H54.8252C54.6546 41.2868 53.4454 37.4297 51.3184 34.0718L53.077 32.9583C55.6055 36.9478 56.9447 41.5753 56.9375 46.2986C56.9375 46.5728 56.8293 46.8359 56.6364 47.0307C56.4435 47.2256 56.1815 47.3364 55.9074 47.3392V47.3392Z" fill="#404040"/>
<path d="M18.4464 47.3392H8.04058C7.7646 47.3392 7.49993 47.2295 7.30478 47.0344C7.10963 46.8392 7 46.5746 7 46.2986C7 39.6751 9.63117 33.3229 14.3147 28.6393C18.9982 23.9558 25.3505 21.3246 31.974 21.3246C33.1961 21.3229 34.4168 21.4098 35.6264 21.5848L35.3246 23.666C34.2147 23.5078 33.0951 23.4278 31.974 23.4266C26.0785 23.4205 20.4079 25.6891 16.1434 29.7598C11.8789 33.8305 9.34914 39.3894 9.08116 45.2788H17.4058C17.5797 42.8289 18.3702 40.4627 19.7038 38.4002C21.0374 36.3377 22.8708 34.6458 25.0336 33.4819C27.1964 32.3179 29.6183 31.7197 32.0743 31.7428C34.5303 31.7659 36.9406 32.4095 39.0811 33.6139L38.0406 35.4245C36.1397 34.356 33.9922 33.804 31.8117 33.8232C29.6312 33.8425 27.4938 34.4323 25.6121 35.5342C23.7304 36.6361 22.1701 38.2115 21.0863 40.1037C20.0026 41.9958 19.4333 44.1388 19.4349 46.3194C19.43 46.583 19.3252 46.8349 19.1417 47.0242C18.9582 47.2135 18.7097 47.326 18.4464 47.3392Z" fill="#404040"/>
<path d="M47.1145 32.7711C45.1594 32.7711 43.2481 32.1913 41.6224 31.105C39.9968 30.0188 38.7297 28.4749 37.9815 26.6686C37.2333 24.8622 37.0375 22.8746 37.419 20.957C37.8004 19.0394 38.7419 17.2779 40.1244 15.8954C41.5069 14.5129 43.2684 13.5714 45.186 13.1899C47.1036 12.8085 49.0912 13.0043 50.8976 13.7525C52.7039 14.5007 54.2478 15.7678 55.334 17.3934C56.4203 19.0191 57.0001 20.9304 57.0001 22.8855C56.9973 25.5065 55.9549 28.0193 54.1016 29.8726C52.2483 31.7259 49.7355 32.7683 47.1145 32.7711V32.7711ZM47.1145 15.0812C45.571 15.0812 44.0621 15.5389 42.7787 16.3964C41.4952 17.254 40.4949 18.4729 39.9042 19.8989C39.3136 21.325 39.159 22.8942 39.4601 24.4081C39.7613 25.922 40.5046 27.3126 41.596 28.404C42.6875 29.4955 44.0781 30.2388 45.592 30.54C47.1059 30.8411 48.6751 30.6865 50.1011 30.0958C51.5272 29.5051 52.7461 28.5048 53.6036 27.2214C54.4612 25.938 54.9189 24.4291 54.9189 22.8855C54.9189 20.8157 54.0966 18.8306 52.633 17.367C51.1694 15.9034 49.1844 15.0812 47.1145 15.0812V15.0812Z" fill="#FA4616"/>
<path d="M50.7045 18.2029H48.6233V22.3652H50.7045V18.2029Z" fill="#FA4616"/>
<path d="M45.5015 18.2029H43.4203V22.3652H45.5015V18.2029Z" fill="#FA4616"/>
<path d="M47.1146 28.6087C45.9075 28.6084 44.7275 28.2504 43.7237 27.58C42.7199 26.9095 41.9373 25.9567 41.4746 24.8418L43.3893 24.0406C43.6942 24.7761 44.2104 25.4048 44.8725 25.8471C45.5347 26.2894 46.3131 26.5255 47.1094 26.5255C47.9056 26.5255 48.6841 26.2894 49.3462 25.8471C50.0083 25.4048 50.5245 24.7761 50.8294 24.0406L52.7545 24.8522C52.2902 25.9652 51.5069 26.9158 50.5032 27.5843C49.4996 28.2528 48.3205 28.6092 47.1146 28.6087V28.6087Z" fill="#FA4616"/>
</svg>
