<svg width="64" height="64" viewBox="0 0 64 64" fill="none" xmlns="http://www.w3.org/2000/svg">
<path d="M46.7084 36.0313C46.4871 36.0315 46.269 35.9779 46.073 35.8751L42.4167 34.0104L38.7605 35.8646C38.526 35.9819 38.2634 36.0312 38.0024 36.0072C37.7413 35.9831 37.4922 35.8866 37.2831 35.7284C37.074 35.5702 36.9133 35.3568 36.8191 35.1121C36.7249 34.8675 36.701 34.6013 36.7501 34.3438L37.5001 30.4271L34.4897 27.3855C34.3004 27.1967 34.1689 26.9578 34.1106 26.697C34.0522 26.4361 34.0694 26.164 34.1602 25.9126C34.2509 25.6612 34.4114 25.4409 34.6229 25.2774C34.8344 25.1139 35.0881 25.0141 35.3542 24.9896L39.3751 24.625L41.1355 20.6771C41.2475 20.4314 41.4279 20.2232 41.6551 20.0773C41.8823 19.9313 42.1467 19.8539 42.4167 19.8542C42.6856 19.8533 42.9489 19.9306 43.1745 20.0767C43.4002 20.2228 43.5784 20.4314 43.6876 20.6771L45.4584 24.625L49.4688 24.9896C49.7337 25.0163 49.9858 25.1171 50.196 25.2804C50.4063 25.4438 50.5662 25.6631 50.6576 25.9132C50.7489 26.1633 50.7679 26.434 50.7124 26.6944C50.6569 26.9548 50.5292 27.1943 50.3438 27.3855L47.3334 30.4271L48.073 34.3646C48.1129 34.5666 48.1077 34.7748 48.0577 34.9745C48.0077 35.1742 47.9141 35.3604 47.7837 35.5197C47.6533 35.679 47.4892 35.8075 47.3033 35.8959C47.1174 35.9844 46.9143 36.0306 46.7084 36.0313V36.0313ZM42.4167 31.8021C42.5803 31.7992 42.7417 31.8387 42.8855 31.9167L45.7709 33.3855L45.1772 30.2605C45.1467 30.0939 45.1574 29.9223 45.2082 29.7608C45.2591 29.5993 45.3485 29.4525 45.4688 29.3334L47.8542 26.9167L44.6667 26.6251C44.4819 26.6104 44.3043 26.5467 44.1523 26.4405C44.0003 26.3343 43.8794 26.1894 43.8022 26.0209L42.4167 22.8959L41.0209 26.0209C40.9445 26.188 40.8252 26.3318 40.6752 26.4379C40.5252 26.5441 40.3497 26.6086 40.1667 26.6251L36.9792 26.9167L39.3647 29.3334C39.4831 29.4536 39.5706 29.6007 39.6196 29.7622C39.6686 29.9237 39.6776 30.0947 39.6459 30.2605L39.0522 33.3855L41.9584 31.9063C42.1019 31.8391 42.2583 31.8035 42.4167 31.8021V31.8021Z" fill="#FA4616"/>
<path d="M57 44.0833H27.8334V30.5417H29.9167V42H54.9167V13.875H29.9167V20.125H27.8334V11.7917H57V44.0833Z" fill="#404040"/>
<path d="M17.4168 21.1979C16.7114 21.186 16.0156 21.0334 15.37 20.7491C14.7244 20.4648 14.142 20.0545 13.657 19.5423C13.1719 19.0301 12.794 18.4262 12.5452 17.7661C12.2965 17.106 12.182 16.4028 12.2084 15.6979V14.2083C12.2084 12.827 12.7572 11.5022 13.7339 10.5255C14.7107 9.54875 16.0354 9 17.4168 9C18.7981 9 20.1229 9.54875 21.0996 10.5255C22.0764 11.5022 22.6251 12.827 22.6251 14.2083V15.6979C22.6515 16.4028 22.537 17.106 22.2883 17.7661C22.0396 18.4262 21.6616 19.0301 21.1766 19.5423C20.6915 20.0545 20.1091 20.4648 19.4635 20.7491C18.8179 21.0334 18.1221 21.186 17.4168 21.1979V21.1979ZM17.4168 10.7813C16.9857 10.7986 16.5624 10.9013 16.1714 11.0834C15.7803 11.2655 15.4293 11.5234 15.1386 11.8422C14.8479 12.161 14.6234 12.5342 14.478 12.9404C14.3327 13.3466 14.2694 13.7775 14.2918 14.2083V15.6979C14.2918 16.5267 14.621 17.3216 15.2071 17.9076C15.7931 18.4937 16.588 18.8229 17.4168 18.8229C18.2456 18.8229 19.0404 18.4937 19.6265 17.9076C20.2125 17.3216 20.5418 16.5267 20.5418 15.6979V14.2083C20.5642 13.7775 20.5009 13.3466 20.3555 12.9404C20.2101 12.5342 19.9856 12.161 19.6949 11.8422C19.4043 11.5234 19.0533 11.2655 18.6622 11.0834C18.2711 10.9013 17.8478 10.7986 17.4168 10.7813Z" fill="#404040"/>
<path d="M23.6667 55.5729H21.5833V26.4063H27.8333C29.6042 26.4063 30.5729 25.7604 30.8646 24.3229H13.25C10.4271 24.3229 9.08333 25.1042 9.08333 29.5313V36.8229C9.08333 37.9896 9.35416 39.9479 11.1667 39.9479H12.2083V42.0313H11.1667C8.59375 42.0313 7 40.0417 7 36.8229V29.5313C7 24.4271 8.86458 22.2396 13.25 22.2396H33.0417V23.2813C33.0417 26.5938 31.1458 28.4896 27.8333 28.4896H23.6667V55.5729Z" fill="#404040"/>
<path d="M18.4583 37.8333H16.375V55.5417H18.4583V37.8333Z" fill="#404040"/>
<path d="M13.25 29.5H11.1666V55.5417H13.25V29.5Z" fill="#404040"/>
</svg>
