<svg width="64" height="64" viewBox="0 0 64 64" fill="none" xmlns="http://www.w3.org/2000/svg">
<path d="M38.8827 29.5894L38.1444 28.8406C37.2031 27.9512 36.1909 27.14 35.1178 26.4151C32.8187 24.7804 30.4459 23.0826 30.4459 19.6551C30.4488 18.6882 30.735 17.7434 31.2692 16.9374C31.8034 16.1314 32.5621 15.4997 33.4515 15.1204C34.3656 14.7758 35.3575 14.6919 36.3165 14.8782C37.2755 15.0644 38.1639 15.5133 38.8827 16.175C39.6024 15.5114 40.4927 15.0612 41.4538 14.875C42.4148 14.6887 43.4088 14.7737 44.3244 15.1204C45.2126 15.5002 45.9698 16.1323 46.5022 16.9384C47.0346 17.7445 47.3188 18.6891 47.3194 19.6551C47.3194 23.0826 44.9466 24.7804 42.6581 26.4151C41.583 27.1373 40.5705 27.9487 39.6314 28.8406L38.8827 29.5894ZM35.2549 16.871C34.912 16.8708 34.5721 16.9352 34.253 17.0608C33.748 17.2807 33.3182 17.6435 33.0166 18.1044C32.7149 18.5653 32.5545 19.1043 32.5551 19.6551C32.5551 21.8909 33.9261 22.9771 36.3411 24.6961C37.1426 25.2761 38.039 25.9089 38.8827 26.6471C39.7369 25.9089 40.6227 25.2761 41.4242 24.6961C43.8498 22.9771 45.2102 21.8909 45.2102 19.6551C45.2122 19.104 45.0523 18.5644 44.7505 18.1032C44.4487 17.6421 44.0182 17.2796 43.5123 17.0608C42.3206 16.5652 40.9075 17.0608 39.6314 18.2947L38.8827 19.0435L38.1444 18.2947C37.4075 17.4566 36.3685 16.9446 35.2549 16.871Z" fill="#404040"/>
<path d="M18.4446 56.9982C17.7182 56.9993 17.0136 56.7505 16.449 56.2934C15.8844 55.8364 15.4943 55.199 15.3441 54.4883L8.06745 20.446C7.89571 19.6276 8.05497 18.7745 8.5104 18.0732C8.73379 17.7228 9.02533 17.4208 9.36774 17.1853C9.71014 16.9498 10.0964 16.7855 10.5036 16.7022L20.6804 14.593L21.1128 16.6495L10.9465 18.8114C10.8106 18.8411 10.682 18.8974 10.568 18.977C10.4539 19.0567 10.3568 19.1581 10.2821 19.2754C10.1303 19.5092 10.0772 19.7936 10.1344 20.0664L17.369 54.1086C17.3978 54.2445 17.4531 54.3733 17.5319 54.4877C17.6106 54.6022 17.7111 54.6999 17.8277 54.7754C17.9443 54.8508 18.0747 54.9025 18.2113 54.9274C18.348 54.9524 18.4882 54.9501 18.6239 54.9207L36.1618 51.1874C36.4345 51.1299 36.6733 50.9669 36.8262 50.7339C36.978 50.5001 37.0311 50.2158 36.9738 49.943L34.1686 36.75L36.2251 36.3176L39.0303 49.5C39.117 49.9065 39.1227 50.3261 39.0472 50.7348C38.9716 51.1435 38.8163 51.5333 38.5901 51.882C38.3638 52.2306 38.0711 52.5313 37.7287 52.7667C37.3862 53.0022 37.0007 53.1679 36.5942 53.2544L19.0985 56.9455C18.8833 56.9884 18.6639 57.006 18.4446 56.9982Z" fill="#404040"/>
<path d="M36.9727 44.4879L15.311 49.0962L15.7499 51.1592L37.4116 46.5509L36.9727 44.4879Z" fill="#404040"/>
<path d="M28.3492 49.5473L25.2546 50.2056L25.6935 52.2686L28.7881 51.6103L28.3492 49.5473Z" fill="#404040"/>
<path d="M26.7126 39.6924C26.2993 39.6975 25.897 39.5596 25.5737 39.3022C25.2401 39.0245 25.0004 38.6506 24.8872 38.2316C24.7739 37.8126 24.7927 37.3689 24.9409 36.961C25.5594 34.5796 25.9652 32.148 26.1537 29.6948C24.8777 28.5663 23.8504 27.1848 23.1369 25.638C22.4234 24.0911 22.0394 22.4129 22.0092 20.7097C22.0092 13.1483 29.5811 7 38.8826 7C48.1841 7 55.7561 13.1483 55.7561 20.7097C55.7561 28.2711 48.1947 34.4194 38.8826 34.4194C37.6192 34.4189 36.3586 34.2988 35.1177 34.0608C32.7968 35.9969 30.352 37.7794 27.7989 39.3971C27.4686 39.5883 27.0942 39.6901 26.7126 39.6924V39.6924ZM38.8826 9.10919C30.7412 9.10919 24.1183 14.3189 24.1183 20.7097C24.1577 22.2007 24.5193 23.6654 25.1782 25.0034C25.8372 26.3414 26.778 27.5209 27.936 28.4609L28.3262 28.809V29.3257C28.1427 32.0511 27.7156 34.7546 27.0501 37.4039C29.5318 35.7885 31.9158 34.0278 34.1897 32.1309L34.5799 31.804L35.0861 31.9095C36.3443 32.1801 37.6273 32.3179 38.9143 32.3208C47.0557 32.3208 53.6786 27.1216 53.6786 20.7202C53.6786 14.3189 47.0241 9.10919 38.8826 9.10919Z" fill="#FA4616"/>
</svg>
