<svg width="64" height="64" viewBox="0 0 64 64" fill="none" xmlns="http://www.w3.org/2000/svg">
<path d="M34.0442 41.1568C33.8777 41.163 33.7121 41.1298 33.5609 41.0598C33.4097 40.9899 33.2772 40.8852 33.1741 40.7543C33.071 40.6234 33.0004 40.47 32.9678 40.3066C32.9353 40.1432 32.9419 39.9744 32.987 39.8141L34.6046 33.957C34.6513 33.7818 34.7423 33.6216 34.8689 33.4918L50.7274 17.5804C51.213 17.1971 51.8273 17.0152 52.4433 17.0723C53.0593 17.1293 53.6297 17.421 54.0366 17.887L56.151 20.0014C56.3884 20.1974 56.5848 20.4384 56.7287 20.7105C56.8727 20.9826 56.9615 21.2805 56.99 21.587C57.0185 21.8935 56.9861 22.2027 56.8948 22.4966C56.8034 22.7906 56.6549 23.0636 56.4577 23.3L40.5991 39.222C40.4705 39.3524 40.3102 39.4471 40.1339 39.4969L34.2874 41.1145C34.2087 41.1398 34.1268 41.1541 34.0442 41.1568V41.1568ZM36.6027 34.8133L35.5455 38.5982L39.3199 37.541L54.9141 21.8939C54.8803 21.745 54.7986 21.6113 54.6815 21.5133L52.567 19.3988C52.4594 19.2882 52.3244 19.208 52.1759 19.1662L36.6027 34.8133Z" fill="#404040"/>
<path d="M50.0379 19.8613L48.5427 21.3564L52.774 25.5877L54.2692 24.0926L50.0379 19.8613Z" fill="#404040"/>
<path d="M17.5935 54.404C17.3602 54.4059 17.1282 54.3702 16.9063 54.2982C16.4844 54.1582 16.1173 53.8887 15.8573 53.5281C15.5972 53.1675 15.4575 52.7341 15.4579 52.2895V47.0033H13.3434C11.661 47.0033 10.0476 46.3349 8.85794 45.1453C7.66832 43.9557 7 42.3423 7 40.6599V16.3434C7 14.661 7.66832 13.0476 8.85794 11.8579C10.0476 10.6683 11.661 10 13.3434 10H38.7171C40.3995 10 42.013 10.6683 43.2026 11.8579C44.3922 13.0476 45.0605 14.661 45.0605 16.3434V22.6868H42.9461V16.3434C42.9461 15.2218 42.5005 14.1462 41.7074 13.3531C40.9143 12.56 39.8387 12.1145 38.7171 12.1145H13.3434C12.2218 12.1145 11.1462 12.56 10.3531 13.3531C9.56002 14.1462 9.11447 15.2218 9.11447 16.3434V40.6599C9.11447 41.7815 9.56002 42.8571 10.3531 43.6502C11.1462 44.4433 12.2218 44.8888 13.3434 44.8888H17.5724V52.2895L17.6992 52.1414L25.6179 44.8888H38.7171C39.8387 44.8888 40.9143 44.4433 41.7074 43.6502C42.5005 42.8571 42.9461 41.7815 42.9461 40.6599V38.5454H45.0605V40.6599C45.0605 42.3423 44.3922 43.9557 43.2026 45.1453C42.013 46.3349 40.3995 47.0033 38.7171 47.0033H26.4426L19.1582 53.6639C18.9671 53.8938 18.7281 54.0792 18.4578 54.207C18.1875 54.3349 17.8925 54.4021 17.5935 54.404V54.404Z" fill="#404040"/>
<path d="M23.9157 21.6296H21.8013V26.9158H23.9157V21.6296Z" fill="#FA4616"/>
<path d="M29.202 21.6296H27.0875V26.9158H29.202V21.6296Z" fill="#FA4616"/>
<path d="M25.5016 34.3164C23.9427 34.3168 22.4183 33.8577 21.119 32.9965C19.8196 32.1352 18.803 30.9101 18.196 29.4743L20.1414 28.6496C20.5888 29.701 21.3355 30.5975 22.2885 31.2277C23.2416 31.8579 24.359 32.1939 25.5016 32.1939C26.6441 32.1939 27.7615 31.8579 28.7146 31.2277C29.6676 30.5975 30.4143 29.701 30.8618 28.6496L32.8071 29.4743C32.2013 30.911 31.1849 32.1368 29.8853 32.9982C28.5857 33.8596 27.0607 34.3182 25.5016 34.3164V34.3164Z" fill="#FA4616"/>
</svg>
