<svg width="64" height="64" viewBox="0 0 64 64" fill="none" xmlns="http://www.w3.org/2000/svg">
<path d="M20.6375 51.8265C20.4826 51.8278 20.3293 51.7958 20.1879 51.7325C20.0465 51.6693 19.9204 51.5763 19.8182 51.46L15.3442 46.3176L9.66277 50.08C9.48789 50.1937 9.28378 50.2542 9.07521 50.2542C8.86663 50.2542 8.66255 50.1937 8.48768 50.08C8.30862 49.9685 8.16619 49.807 8.07804 49.6153C7.98989 49.4237 7.95988 49.2105 7.99174 49.0019L10.288 32.0547L12.4442 32.3458L10.4929 46.9752L14.9776 43.9997C15.1963 43.8546 15.4604 43.7943 15.7204 43.83C15.9804 43.8657 16.2185 43.995 16.3899 44.1937L19.926 48.2473L21.8557 33.6394L24.0119 33.9198L21.7048 50.8886C21.6777 51.0959 21.5909 51.2908 21.455 51.4497C21.3191 51.6086 21.14 51.7245 20.9394 51.7834C20.8417 51.8136 20.7398 51.8281 20.6375 51.8265V51.8265Z" fill="#404040"/>
<path d="M19.3048 23.2388L17.1864 23.6406L18.5385 30.7689L20.6568 30.3671L19.3048 23.2388Z" fill="#404040"/>
<path d="M28.4922 20.8419L26.4252 21.4553L29.1919 30.7776L31.2589 30.1642L28.4922 20.8419Z" fill="#404040"/>
<path d="M32.6245 19.197L30.5988 19.9355L34.2987 30.0844L36.3244 29.3459L32.6245 19.197Z" fill="#404040"/>
<path d="M41.2824 14.6709L39.281 15.473L44.0616 27.4013L46.063 26.5992L41.2824 14.6709Z" fill="#404040"/>
<path d="M44.8834 49.5949H44.7756C44.5696 49.5751 44.3737 49.4965 44.2112 49.3684C44.0488 49.2403 43.9266 49.0682 43.8592 48.8726L38.3287 32.5614L40.3663 31.8714L45.1421 45.9618L47.8373 41.3045C47.9688 41.0784 48.178 40.9079 48.4259 40.8246C48.6738 40.7413 48.9436 40.7509 49.1849 40.8518L54.1548 42.9108L49.3897 28.8959L51.4273 28.206L56.9578 44.4202C57.0123 44.6093 57.014 44.8098 56.9627 44.9998C56.9114 45.1899 56.809 45.3622 56.6667 45.4982C56.5156 45.6379 56.3277 45.7313 56.1252 45.7676C55.9228 45.8039 55.7141 45.7815 55.5239 45.7031L49.228 43.0942L45.8105 48.9912C45.725 49.1662 45.5936 49.3147 45.4303 49.4211C45.2671 49.5274 45.0781 49.5874 44.8834 49.5949V49.5949Z" fill="#404040"/>
<path d="M27.1598 52.1391C27.0384 52.1378 26.9181 52.1159 26.804 52.0745C26.6084 52.0071 26.4363 51.885 26.3082 51.7225C26.1801 51.56 26.1015 51.3641 26.0817 51.1581L24.4539 33.909L26.61 33.7042L28.0223 48.5923L31.7092 44.6789C31.8892 44.4902 32.1315 44.3731 32.3911 44.3493C32.6508 44.3255 32.9103 44.3967 33.1215 44.5496L37.4338 47.6975L36.0215 32.7555L38.1777 32.5506L39.8164 49.7997C39.8441 50.0127 39.8076 50.2291 39.7116 50.4212C39.6155 50.6132 39.4643 50.7722 39.2773 50.8778C39.1036 50.9893 38.9015 51.0485 38.6952 51.0485C38.4888 51.0485 38.2867 50.9893 38.113 50.8778L32.5933 46.8889L27.9145 51.8373C27.7119 52.0325 27.4411 52.1408 27.1598 52.1391Z" fill="#404040"/>
<path d="M12.7785 25.1874L12.6276 23.0312C24.1157 22.2068 35.1078 18.0229 44.2365 11L45.5518 12.7034C36.0897 19.99 24.691 24.3283 12.7785 25.1766V25.1874Z" fill="#FA4616"/>
<path d="M25.2302 34.89C19.0538 34.8957 12.9105 33.9875 7 32.1949L7.62527 30.1358C22.8206 34.7062 39.2002 33.1588 53.2707 25.8235L54.2626 27.7317C45.3007 32.4155 35.3422 34.8708 25.2302 34.89V34.89Z" fill="#FA4616"/>
</svg>
