<svg width="64" height="64" viewBox="0 0 64 64" fill="none" xmlns="http://www.w3.org/2000/svg">
<path d="M21.154 32.2585C20.8922 32.2548 20.642 32.1496 20.4561 31.9652C18.5843 30.21 16.612 28.5652 14.5491 27.0393C11.0089 24.3386 7.95423 21.9819 7.16527 18.3102C6.94171 17.2359 6.94499 16.1268 7.17491 15.0539C7.40482 13.9809 7.85631 12.9678 8.50043 12.0795C9.10566 11.2327 9.88398 10.5243 10.7838 10.0011C11.6836 9.47796 12.6843 9.15208 13.7197 9.04506C15.0975 8.90509 16.4889 9.0923 17.7807 9.59145C19.0725 10.0906 20.2283 10.8876 21.154 11.9177C22.0823 10.8881 23.24 10.0915 24.5333 9.59249C25.8266 9.09344 27.2193 8.90591 28.5985 9.04506C30.0841 9.21773 31.4852 9.82681 32.6247 10.7954C33.7643 11.7639 34.5913 13.0485 35.0012 14.4868C35.0384 14.6143 35.0501 14.7479 35.0356 14.88C35.0212 15.012 34.9809 15.1399 34.9171 15.2564C34.8532 15.3728 34.767 15.4756 34.6634 15.5588C34.5598 15.6419 34.4409 15.7039 34.3134 15.741C34.1859 15.7782 34.0523 15.79 33.9202 15.7755C33.7882 15.7611 33.6603 15.7208 33.5438 15.6569C33.4273 15.593 33.3246 15.5069 33.2415 15.4033C33.1583 15.2997 33.0963 15.1808 33.0591 15.0532C32.7713 13.9904 32.1728 13.0376 31.3403 12.3169C30.5078 11.5961 29.4792 11.1401 28.3861 11.0073C25.8372 10.7342 23.005 12.1402 22.0745 14.1429C21.9932 14.3185 21.8633 14.4671 21.7002 14.5711C21.5371 14.675 21.3475 14.73 21.154 14.7296C20.9623 14.7281 20.7749 14.6722 20.6137 14.5683C20.4526 14.4645 20.3242 14.3169 20.2437 14.1429C19.3131 12.1199 16.481 10.7342 13.9321 11.0073C13.1779 11.0871 12.4495 11.3268 11.7954 11.7106C11.1413 12.0943 10.5766 12.6132 10.139 13.2326C9.65558 13.887 9.31563 14.6361 9.14134 15.4309C8.96705 16.2256 8.96234 17.0482 9.12755 17.8449C9.75466 20.8086 12.4047 22.8315 15.7527 25.3906C17.4115 26.6549 19.2626 28.0811 21.1338 29.8107C23.0152 28.0811 24.8662 26.665 26.525 25.3906L28.4266 23.9239C28.5284 23.8278 28.6492 23.7538 28.7811 23.7068C28.913 23.6597 29.0532 23.6406 29.1929 23.6506C29.3327 23.6605 29.4688 23.6994 29.5927 23.7648C29.7165 23.8301 29.8255 23.9204 29.9127 24.0301C29.9998 24.1397 30.0633 24.2663 30.0989 24.4017C30.1346 24.5372 30.1418 24.6785 30.12 24.8169C30.0982 24.9552 30.0479 25.0876 29.9723 25.2055C29.8967 25.3234 29.7975 25.4243 29.6808 25.5018C29.0739 25.9873 28.4266 26.5133 27.7489 26.9988C25.686 28.5248 23.7136 30.1695 21.8418 31.9247C21.6651 32.1217 21.4182 32.2415 21.154 32.2585Z" fill="#404040"/>
<path d="M51.1646 36.092C51.002 36.0895 50.8424 36.0479 50.6994 35.9706L43.3459 32.1978L41.3229 33.2599C41.2043 33.325 41.0738 33.3657 40.9392 33.3795C40.8045 33.3933 40.6685 33.3799 40.5391 33.3402C40.4097 33.3004 40.2896 33.2351 40.1859 33.1481C40.0823 33.0611 39.9971 32.9542 39.9355 32.8337C39.8739 32.7132 39.8371 32.5815 39.8273 32.4465C39.8175 32.3115 39.8349 32.176 39.8784 32.0478C39.922 31.9197 39.9908 31.8016 40.0808 31.7005C40.1708 31.5994 40.2802 31.5175 40.4025 31.4594L42.9211 30.1647C43.0636 30.0919 43.2213 30.054 43.3813 30.054C43.5413 30.054 43.699 30.0919 43.8415 30.1647L49.7789 33.1992L48.4842 26.8269C48.4512 26.662 48.4598 26.4915 48.5093 26.3308C48.5587 26.1701 48.6474 26.0242 48.7674 25.9064L53.7439 21.0311L47.058 20.4646C46.8775 20.4495 46.7043 20.3861 46.5566 20.2811C46.4089 20.1762 46.2922 20.0334 46.2185 19.8679L43.3763 13.4956L40.534 19.8679C40.4603 20.0334 40.3436 20.1762 40.1959 20.2811C40.0482 20.3861 39.875 20.4495 39.6945 20.4646L33.0187 21.0311L37.9952 25.9064C38.1152 26.0242 38.2039 26.1701 38.2534 26.3308C38.3028 26.4915 38.3114 26.662 38.2784 26.8269L37.7423 29.4668C37.6887 29.7351 37.5306 29.971 37.303 30.1228C37.0754 30.2745 36.7968 30.3296 36.5285 30.276C36.2603 30.2223 36.0243 30.0643 35.8726 29.8367C35.7208 29.6091 35.6657 29.3305 35.7194 29.0622L36.1442 26.9583L29.9944 20.8895C29.8644 20.7597 29.7721 20.597 29.7276 20.4188C29.683 20.2406 29.6878 20.0537 29.7415 19.878C29.807 19.6949 29.9238 19.5345 30.0781 19.4161C30.2324 19.2977 30.4175 19.2263 30.6114 19.2104L38.8954 18.5226L42.4153 10.623C42.4958 10.4439 42.6266 10.2922 42.7919 10.1862C42.9571 10.0802 43.1496 10.0246 43.3459 10.0262C43.5405 10.0266 43.7308 10.0831 43.894 10.189C44.0573 10.2948 44.1866 10.4455 44.2663 10.623L47.7863 18.5226L56.0703 19.2104C56.2635 19.2261 56.4482 19.297 56.6022 19.4146C56.7563 19.5322 56.8733 19.6916 56.9394 19.8738C57.0055 20.056 57.0178 20.2534 56.9749 20.4424C56.932 20.6315 56.8357 20.8042 56.6974 20.94L50.5375 27.0089L52.1458 34.9187C52.1761 35.0674 52.1727 35.2209 52.1356 35.3681C52.0986 35.5152 52.029 35.6522 51.9318 35.7687C51.8347 35.8853 51.7126 35.9785 51.5745 36.0415C51.4364 36.1044 51.286 36.1355 51.1343 36.1325L51.1646 36.092Z" fill="#FA4616"/>
<path d="M30.7125 55.3506C28.4119 55.3506 26.1629 54.6684 24.2501 53.3902C22.3372 52.1121 20.8463 50.2954 19.9659 48.17C19.0855 46.0445 18.8551 43.7057 19.304 41.4493C19.7528 39.1929 20.8606 37.1203 22.4874 35.4935C24.1142 33.8667 26.1868 32.7589 28.4432 32.3101C30.6996 31.8612 33.0384 32.0916 35.1638 32.972C37.2893 33.8524 39.106 35.3433 40.3841 37.2562C41.6623 39.169 42.3445 41.418 42.3445 43.7186C42.3418 46.8027 41.1154 49.7598 38.9346 51.9407C36.7537 54.1215 33.7966 55.3479 30.7125 55.3506V55.3506ZM30.7125 34.1095C28.812 34.1095 26.9541 34.6731 25.3739 35.7289C23.7937 36.7848 22.5621 38.2855 21.8348 40.0413C21.1076 41.7972 20.9173 43.7292 21.2881 45.5932C21.6588 47.4572 22.574 49.1693 23.9178 50.5132C25.2617 51.857 26.9738 52.7722 28.8378 53.143C30.7018 53.5138 32.6339 53.3235 34.3897 52.5962C36.1455 51.8689 37.6462 50.6373 38.7021 49.0571C39.7579 47.4769 40.3215 45.6191 40.3215 43.7186C40.3188 41.1709 39.3056 38.7284 37.5041 36.9269C35.7027 35.1254 33.2601 34.1122 30.7125 34.1095V34.1095Z" fill="#404040"/>
<path d="M29.1952 38.1555H27.1722V43.2129H29.1952V38.1555Z" fill="#404040"/>
<path d="M34.2527 38.1555H32.2297V43.2129H34.2527V38.1555Z" fill="#404040"/>
<path d="M30.7125 50.2932C29.2205 50.2962 27.7609 49.858 26.5173 49.0337C25.2737 48.2094 24.3016 47.0359 23.7231 45.6606L25.5843 44.8716C26.0123 45.8775 26.7267 46.7352 27.6385 47.3382C28.5503 47.9411 29.6193 48.2625 30.7125 48.2625C31.8056 48.2625 32.8746 47.9411 33.7864 47.3382C34.6982 46.7352 35.4126 45.8775 35.8407 44.8716L37.7018 45.6606C37.1223 47.0351 36.1498 48.2079 34.9065 49.032C33.6631 49.8561 32.2041 50.2948 30.7125 50.2932Z" fill="#404040"/>
</svg>
