<svg width="64" height="64" viewBox="0 0 64 64" fill="none" xmlns="http://www.w3.org/2000/svg">
<path d="M41.7235 57H39.7171V55.9968C39.8123 55.0778 40.1595 54.2029 40.7203 53.4687C41.2675 52.7419 41.6136 51.8838 41.7235 50.9807V40.9486C41.6972 40.6915 41.583 40.4514 41.4003 40.2687C41.2176 40.0859 40.9774 39.9718 40.7203 39.9454H37.7107V38.9422C37.6844 38.6851 37.5702 38.445 37.3875 38.2622C37.2047 38.0795 36.9646 37.9653 36.7075 37.939H34.1493L33.8584 37.4675C33.5468 37.1564 33.1338 36.9677 32.6947 36.9358H30.6882V34.9294H32.6947C33.6104 34.9596 34.4854 35.3153 35.1626 35.9326H36.7075C37.324 35.9522 37.9211 36.1529 38.4242 36.5097C38.9273 36.8666 39.3142 37.3637 39.5365 37.939H40.7203C41.5121 37.9593 42.2659 38.2829 42.826 38.843C43.386 39.4031 43.7097 40.1568 43.73 40.9486V50.9807C43.6319 52.2562 43.1803 53.479 42.4258 54.512C42.0973 54.9565 41.8587 55.4609 41.7235 55.9968V57Z" fill="#404040"/>
<path d="M35.7042 36.9358H33.6978V41.9518H35.7042V36.9358Z" fill="#404040"/>
<path d="M39.7171 38.9422H37.7107V42.955H39.7171V38.9422Z" fill="#404040"/>
<path d="M27.6785 57H25.6721V55.9968C25.6721 55.5654 25.6721 55.4049 24.9598 54.6926C23.5497 53.2518 22.3931 51.583 21.5389 49.7568C20.7894 48.2356 19.8634 46.8079 18.7801 45.5032C18.4644 45.155 18.2346 44.7378 18.1092 44.2848C17.9837 43.8319 17.9661 43.3558 18.0577 42.8949C18.1478 42.4616 18.3368 42.0551 18.61 41.707C18.8833 41.3589 19.2333 41.0788 19.6328 40.8885C20.2042 40.616 20.8367 40.4968 21.468 40.5426C22.0994 40.5883 22.7081 40.7973 23.2343 41.1493C24.1208 41.8215 24.9375 42.5811 25.6721 43.4165V29.8732C25.6781 29.0773 25.9992 28.3162 26.565 27.7564C26.8429 27.4773 27.1749 27.2576 27.5406 27.111C27.9062 26.9644 28.2979 26.8939 28.6918 26.9037C29.49 26.9037 30.2555 27.2208 30.8199 27.7852C31.3843 28.3496 31.7014 29.1151 31.7014 29.9133V41.9519H29.695V29.9133C29.695 29.6473 29.5893 29.3921 29.4012 29.2039C29.213 29.0158 28.9578 28.9101 28.6918 28.9101C28.561 28.8998 28.4296 28.9197 28.3078 28.9684C28.186 29.0172 28.0771 29.0933 27.9895 29.191C27.8962 29.2803 27.8222 29.3878 27.7722 29.5069C27.7222 29.626 27.6971 29.7541 27.6986 29.8832V45.2022C27.6975 45.466 27.6164 45.7233 27.4661 45.94C27.3157 46.1568 27.1032 46.3228 26.8565 46.4163C26.6098 46.5098 26.3406 46.5262 26.0843 46.4635C25.8281 46.4008 25.5969 46.2619 25.4213 46.065C24.4252 44.8651 23.3166 43.7633 22.1107 42.7745C21.8741 42.626 21.6037 42.5399 21.3248 42.5242C21.0459 42.5084 20.7675 42.5634 20.5156 42.6842C20.3958 42.7438 20.2911 42.8299 20.2094 42.9359C20.1277 43.0419 20.0712 43.1651 20.0441 43.2962C20.0147 43.4488 20.0211 43.6062 20.0629 43.7559C20.1046 43.9056 20.1806 44.0436 20.2849 44.1589C21.4701 45.5777 22.4806 47.1338 23.2945 48.7937C24.0425 50.4358 25.0597 51.9413 26.3041 53.248C27.5381 54.492 27.6284 55.134 27.6284 55.9266L27.6785 57Z" fill="#404040"/>
<path d="M33.8182 32.0803V30.0738C36.1954 30.0737 38.5027 29.2695 40.3649 27.7919C42.2271 26.3143 43.5348 24.2503 44.0754 21.9353C44.6159 19.6204 44.3575 17.1907 43.3422 15.0412C42.3269 12.8917 40.6144 11.1488 38.4831 10.0959C36.3517 9.04306 33.9269 8.74205 31.6029 9.24187C29.2788 9.74168 27.1921 11.013 25.6821 12.849C24.172 14.685 23.3274 16.9777 23.2855 19.3546C23.2437 21.7314 24.007 24.0525 25.4514 25.9406L23.9065 27.1645C22.2189 24.9821 21.308 22.2989 21.3182 19.5401C21.3182 17.0599 22.0537 14.6354 23.4316 12.5732C24.8095 10.511 26.768 8.90371 29.0594 7.95458C31.3508 7.00544 33.8722 6.75709 36.3048 7.24096C38.7373 7.72482 40.9718 8.91916 42.7255 10.6729C44.4793 12.4267 45.6736 14.6611 46.1575 17.0937C46.6414 19.5262 46.393 22.0476 45.4439 24.339C44.4948 26.6304 42.8875 28.5889 40.8252 29.9669C38.763 31.3448 36.3385 32.0803 33.8583 32.0803H33.8182Z" fill="#404040"/>
<path d="M32.3134 14.0225H30.307V19.0385H32.3134V14.0225Z" fill="#FA4616"/>
<path d="M37.3294 14.0225H35.323V19.0385H37.3294V14.0225Z" fill="#FA4616"/>
<path d="M33.8182 26.061C32.3442 26.0554 30.9042 25.617 29.6772 24.8002C28.4501 23.9833 27.49 22.824 26.9161 21.4663L28.762 20.6838C29.1866 21.6814 29.8951 22.5321 30.7995 23.1301C31.7039 23.7281 32.7641 24.047 33.8483 24.047C34.9325 24.047 35.9928 23.7281 36.8971 23.1301C37.8015 22.5321 38.51 21.6814 38.9346 20.6838L40.7805 21.4663C40.2037 22.8343 39.2346 24.0008 37.9955 24.8185C36.7564 25.6362 35.3028 26.0686 33.8182 26.061V26.061Z" fill="#FA4616"/>
</svg>
