<svg width="64" height="64" viewBox="0 0 64 64" fill="none" xmlns="http://www.w3.org/2000/svg">
<path d="M55.748 57H8V43.9778H28.6184V46.1482H10.1704V54.8296H53.5776V46.1482H35.1295V43.9778H55.748V57Z" fill="#404040"/>
<path d="M28.6184 46.1482H13.4259V32.0408H28.6184V34.2112H15.5963V43.9778H28.6184V46.1482Z" fill="#404040"/>
<path d="M50.3221 46.1482H35.1295V43.9778H48.1517V34.2112H35.1295V32.0408H50.3221V46.1482Z" fill="#404040"/>
<path d="M45.9813 34.2112H35.1295V32.0408H43.811V21.189H45.9813V34.2112Z" fill="#404040"/>
<path d="M28.6184 34.2112H17.7666V21.189H19.937V32.0408H28.6184V34.2112Z" fill="#404040"/>
<path d="M47.0665 22.2742H35.1295V20.1038H44.8961V15.7631H18.8518V20.1038H28.6184V22.2742H16.6814V13.5927H47.0665V22.2742Z" fill="#404040"/>
<path d="M36.2147 56.9891H27.5332V13.5819H36.2147V56.9891ZM29.7036 54.8188H34.0443V15.7522H29.7036V54.8188Z" fill="#FA4616"/>
<path d="M15.5962 53.7336H13.4259C13.4259 53.158 13.1972 52.606 12.7902 52.199C12.3831 51.7919 11.8311 51.5632 11.2555 51.5632V49.3929C12.4067 49.3929 13.5108 49.8502 14.3248 50.6642C15.1389 51.4783 15.5962 52.5824 15.5962 53.7336Z" fill="#404040"/>
<path d="M18.8518 51.5632H16.6814C16.6814 50.412 17.1387 49.3079 17.9528 48.4939C18.7668 47.6798 19.8709 47.2225 21.0221 47.2225V49.3929C20.4465 49.3929 19.8945 49.6216 19.4874 50.0286C19.0804 50.4356 18.8518 50.9876 18.8518 51.5632Z" fill="#404040"/>
<path d="M24.2777 53.7336H22.1073C22.1073 52.5824 22.5646 51.4783 23.3787 50.6642C24.1927 49.8502 25.2968 49.3929 26.448 49.3929V51.5632C25.8724 51.5632 25.3204 51.7919 24.9133 52.199C24.5063 52.606 24.2777 53.158 24.2777 53.7336Z" fill="#404040"/>
<path d="M37.2999 51.5632V49.3929C37.8755 49.3929 38.4276 49.1642 38.8346 48.7572C39.2416 48.3501 39.4703 47.7981 39.4703 47.2225H41.6407C41.6407 48.3737 41.1833 49.4778 40.3693 50.2919C39.5552 51.1059 38.4512 51.5632 37.2999 51.5632Z" fill="#404040"/>
<path d="M47.0666 53.7336C45.9153 53.7336 44.8112 53.2763 43.9972 52.4622C43.1832 51.6482 42.7258 50.5441 42.7258 49.3929H44.8962C44.8962 49.9685 45.1249 50.5205 45.5319 50.9275C45.9389 51.3346 46.4909 51.5632 47.0666 51.5632V53.7336Z" fill="#404040"/>
<path d="M52.4925 51.5632C51.3412 51.5632 50.2371 51.1059 49.4231 50.2919C48.6091 49.4778 48.1517 48.3737 48.1517 47.2225H50.3221C50.3221 47.7981 50.5508 48.3501 50.9578 48.7572C51.3648 49.1642 51.9168 49.3929 52.4925 49.3929V51.5632Z" fill="#404040"/>
<path d="M31.8847 15.7523C31.06 15.7523 27.3487 15.6546 25.276 13.799C24.8789 13.4694 24.5523 13.0632 24.3156 12.6047C24.0789 12.1461 23.937 11.6446 23.8985 11.1301C23.8599 10.6155 23.9253 10.0984 24.091 9.60965C24.2566 9.12093 24.519 8.67064 24.8625 8.28556C25.206 7.90048 25.6236 7.5885 26.0903 7.36835C26.557 7.1482 27.0633 7.02439 27.5789 7.00419C28.0946 6.984 28.609 7.06787 29.0914 7.25085C29.5739 7.43383 30.0146 7.71214 30.3872 8.06917C32.6769 10.1093 33.0784 14.3958 33.1001 14.5803L33.1761 15.7523H32.0909H31.8847ZM27.7502 9.24119C27.5159 9.24965 27.2862 9.3083 27.0765 9.41313C26.8669 9.51797 26.6821 9.66655 26.5348 9.84889C26.3706 10.0121 26.2442 10.2094 26.1644 10.4267C26.0847 10.6441 26.0535 10.8763 26.0732 11.107C26.0928 11.3377 26.1628 11.5613 26.2782 11.762C26.3936 11.9627 26.5515 12.1357 26.741 12.2688C27.9231 13.0922 29.3166 13.5592 30.7562 13.6145C30.5359 12.19 29.9148 10.8576 28.9656 9.77292C28.6381 9.4545 28.2063 9.26559 27.7502 9.24119V9.24119Z" fill="#FA4616"/>
<path d="M32.1452 15.7523H31.9933H30.8322L30.9298 14.602C30.9298 14.4283 31.353 10.1419 33.6428 8.09089C34.0289 7.71951 34.4874 7.4315 34.9895 7.24482C35.4917 7.05813 36.0269 6.97676 36.5619 7.00571C37.5586 7.09619 38.481 7.57097 39.1338 8.3296C39.4922 8.70237 39.7688 9.14598 39.9458 9.6319C40.1228 10.1178 40.1963 10.6353 40.1615 11.1513C40.1268 11.6673 39.9846 12.1703 39.7441 12.6281C39.5036 13.0859 39.17 13.4885 38.7648 13.8098C36.6921 15.6872 32.97 15.7523 32.1452 15.7523ZM36.3015 9.15435C35.8454 9.17875 35.4135 9.36766 35.0861 9.68608C34.1327 10.7681 33.5111 12.1018 33.2955 13.5277C34.7354 13.4742 36.1294 13.007 37.3107 12.182C37.5001 12.0489 37.6581 11.8759 37.7735 11.6752C37.8889 11.4744 37.9588 11.2509 37.9785 11.0202C37.9981 10.7895 37.967 10.5572 37.8872 10.3399C37.8075 10.1225 37.6811 9.92528 37.5169 9.76205C37.2461 9.42827 36.8578 9.21083 36.4317 9.15435H36.3015Z" fill="#FA4616"/>
</svg>
