<svg width="64" height="64" viewBox="0 0 64 64" fill="none" xmlns="http://www.w3.org/2000/svg">
<path d="M30.9679 48.9325C30.6919 48.9334 30.4198 48.8681 30.1743 48.7421L22.4918 44.8902L14.8198 48.7209C14.5237 48.8682 14.1921 48.9295 13.8628 48.8976C13.5336 48.8658 13.2199 48.7423 12.9574 48.541C12.6932 48.3426 12.4911 48.0729 12.3748 47.7636C12.2586 47.4543 12.2331 47.1182 12.3013 46.7949L13.8674 38.7315L7.51823 32.4776C7.28049 32.2401 7.11541 31.9397 7.04232 31.6117C6.96922 31.2837 6.99115 30.9417 7.10555 30.6257C7.21796 30.308 7.4194 30.0293 7.68583 29.8229C7.95227 29.6165 8.27243 29.4911 8.60817 29.4617L17.1267 28.6998L20.8515 20.5305C20.9834 20.2159 21.2056 19.9474 21.49 19.759C21.7744 19.5707 22.1083 19.4709 22.4494 19.4723V19.4723C22.7917 19.4716 23.1267 19.5715 23.4127 19.7596C23.6987 19.9478 23.923 20.2159 24.0579 20.5305V20.5305L27.7827 28.6998L36.2483 29.4617C36.5815 29.4963 36.8979 29.625 37.1608 29.8326C37.4237 30.0402 37.6222 30.3182 37.7331 30.6343C37.844 30.9504 37.8627 31.2915 37.7872 31.6178C37.7117 31.9442 37.545 32.2423 37.3065 32.4776L31.0102 38.7209L32.5764 46.8373C32.64 47.16 32.6112 47.4941 32.4932 47.8011C32.3753 48.1081 32.173 48.3756 31.9097 48.5727C31.6386 48.7838 31.3107 48.9091 30.9679 48.9325V48.9325ZM22.5023 42.6468C22.668 42.6478 22.8311 42.6877 22.9785 42.7632L30.4917 46.5304L28.9467 38.5728C28.914 38.4019 28.924 38.2256 28.9756 38.0594C29.0273 37.8933 29.1192 37.7425 29.243 37.6204L35.4123 31.504L27.0314 30.7527C26.8455 30.736 26.6673 30.6705 26.5149 30.5627C26.3625 30.4549 26.2414 30.3087 26.1637 30.1389L22.4918 22.0755L18.8304 30.0966C18.7527 30.2664 18.6316 30.4125 18.4792 30.5203C18.3268 30.6281 18.1486 30.6936 17.9627 30.7103L9.59232 31.4617L15.7616 37.5886C15.8855 37.7108 15.9773 37.8616 16.029 38.0277C16.0807 38.1939 16.0906 38.3701 16.0579 38.541L14.5129 46.4563L22.0261 42.7209C22.1738 42.6615 22.333 42.6362 22.4918 42.6468H22.5023Z" fill="#404040"/>
<path d="M41.2536 42.6785C40.9955 42.6818 40.7407 42.6199 40.5129 42.4986L33.7616 39.1124L34.7033 37.2182L40.5975 40.1812L39.3912 33.9484C39.3585 33.7775 39.3684 33.6012 39.4201 33.4351C39.4718 33.269 39.5636 33.1182 39.6875 32.996L44.5129 28.2024L37.9732 27.6204C37.7872 27.6037 37.6091 27.5381 37.4567 27.4303C37.3043 27.3225 37.1831 27.1764 37.1055 27.0066L34.2377 20.6574L31.37 27.0066L29.4441 26.1283L32.7351 18.8902C32.8676 18.6047 33.079 18.3631 33.3443 18.1938C33.6096 18.0244 33.9177 17.9345 34.2325 17.9345C34.5472 17.9345 34.8553 18.0244 35.1206 18.1938C35.3859 18.3631 35.5973 18.6047 35.7298 18.8902L38.7668 25.5674L45.7192 26.1812C46.0336 26.2039 46.335 26.3161 46.5877 26.5046C46.8404 26.6931 47.0338 26.95 47.1451 27.2449C47.2564 27.5399 47.2809 27.8605 47.2157 28.169C47.1506 28.4774 46.9985 28.7607 46.7774 28.9855L41.624 34.0965L42.9044 40.7209C42.9493 40.9583 42.9416 41.2027 42.8817 41.4368C42.8218 41.6709 42.7113 41.8891 42.5579 42.0758C42.4045 42.2625 42.2119 42.4132 41.9939 42.5173C41.7758 42.6215 41.5376 42.6765 41.2959 42.6785H41.2536Z" fill="#404040"/>
<path d="M51.0313 39.7473C50.7738 39.7456 50.5202 39.684 50.2905 39.5674L43.5392 36.1812L44.4916 34.287L50.3858 37.25L49.1794 31.0066C49.1454 30.8366 49.1537 30.6608 49.2035 30.4947C49.2533 30.3286 49.3432 30.1774 49.4652 30.0542L54.3011 25.2711L47.7509 24.6785C47.565 24.6619 47.3868 24.5963 47.2344 24.4885C47.082 24.3807 46.9608 24.2345 46.8831 24.0648L44.0154 17.7791L41.1477 24.0648L39.2218 23.1865L42.5234 15.959C42.654 15.6729 42.8641 15.4304 43.1286 15.2604C43.3931 15.0904 43.701 15 44.0154 15C44.3299 15 44.6377 15.0904 44.9023 15.2604C45.1668 15.4304 45.3769 15.6729 45.5075 15.959L48.5551 22.6256L55.4969 23.25C55.8085 23.2717 56.1073 23.3833 56.357 23.571C56.6067 23.7588 56.7968 24.0148 56.9043 24.3082C57.0094 24.6032 57.0283 24.922 56.959 25.2275C56.8897 25.5329 56.7349 25.8123 56.5128 26.033L51.3593 31.1441L52.6397 37.7685C52.6999 38.0687 52.6742 38.3799 52.5657 38.6662C52.4571 38.9526 52.2701 39.2025 52.026 39.3875C51.7425 39.6126 51.3932 39.7389 51.0313 39.7473V39.7473Z" fill="#404040"/>
</svg>
