<svg width="64" height="64" viewBox="0 0 64 64" fill="none" xmlns="http://www.w3.org/2000/svg">
<path d="M19.8021 42.8852C16.7572 42.1594 13.9783 40.5908 11.7835 38.359C9.58868 36.1272 8.06673 33.3224 7.39191 30.2658C6.71709 27.2093 6.9167 24.0244 7.96783 21.076C9.01896 18.1276 10.8791 15.5348 13.3354 13.5945C15.7917 11.6541 18.7447 10.4447 21.8564 10.1047C24.968 9.76472 28.1125 10.3079 30.9298 11.672C33.7471 13.0361 36.1234 15.166 37.7864 17.8178C39.4495 20.4697 40.3322 23.5362 40.3333 26.6664C40.3318 27.7858 40.2202 28.9023 40 29.9998L37.9167 29.5831C38.1127 28.6233 38.2104 27.646 38.2083 26.6664C38.2038 23.9266 37.4276 21.2436 35.9687 18.9246C34.5097 16.6055 32.427 14.7445 29.9591 13.5545C27.4913 12.3645 24.7381 11.8937 22.0151 12.1962C19.2921 12.4987 16.7093 13.5621 14.5627 15.2646C12.4162 16.9671 10.7926 19.2399 9.8781 21.8226C8.96359 24.4052 8.79509 27.1932 9.39192 29.8672C9.98875 32.5412 11.3268 34.993 13.2527 36.9416C15.1786 38.8903 17.6145 40.257 20.2813 40.8852L19.8021 42.8852Z" fill="#404040"/>
<path d="M17.677 38.3958C16.0476 34.7045 15.2475 30.7007 15.3333 26.6667C15.3333 17.2917 18.9895 10 23.6666 10C28.3437 10 31.9999 17.2917 31.9999 26.6667C31.9999 27.7083 31.9478 28.8334 31.8541 29.8854L29.7707 29.6875C29.872 28.6838 29.9207 27.6755 29.9166 26.6667C29.9166 18.0729 26.6249 12.0833 23.6666 12.0833C20.7083 12.0833 17.4166 18.0729 17.4166 26.6667C17.3256 30.3787 18.0362 34.0667 19.4999 37.4792L17.677 38.3958Z" fill="#404040"/>
<path d="M23.6667 20.4167C18.6355 20.4167 13.9271 19.375 11.0521 17.75L12.0938 15.9479C14.6667 17.4375 18.9896 18.3333 23.6667 18.3333C28.3438 18.3333 32.7084 17.4375 35.2709 15.9271L36.3125 17.7188C33.4584 19.4063 28.7292 20.4167 23.6667 20.4167Z" fill="#404040"/>
<path d="M12.0624 37.4062L11.0208 35.6146C13.8692 34.137 16.9951 33.2713 20.1978 33.0729L20.3958 35.1563C17.4932 35.3277 14.6568 36.0935 12.0624 37.4062V37.4062Z" fill="#404040"/>
<path d="M24.7083 11.0417H22.625V29.7917H24.7083V11.0417Z" fill="#404040"/>
<path d="M39.2916 25.625H8.04163V27.7083H39.2916V25.625Z" fill="#404040"/>
<path d="M48.6667 32.9167H46.5834V37.0833H48.6667V32.9167Z" fill="#404040"/>
<path d="M48.6667 39.1667H46.5834V42.2917H48.6667V39.1667Z" fill="#404040"/>
<path d="M48.6667 44.375H46.5834V47.5H48.6667V44.375Z" fill="#404040"/>
<path d="M48.6667 49.5833H46.5834V53.75H48.6667V49.5833Z" fill="#404040"/>
<path d="M33.4585 49.5833C33.2283 49.5826 33.0049 49.5057 32.8231 49.3646C32.6741 49.2506 32.5587 49.0985 32.489 48.9243C32.4193 48.7501 32.398 48.5603 32.4272 48.375L32.9376 45.3125L30.5731 42.8229C30.4463 42.685 30.3591 42.5155 30.3206 42.3322C30.2821 42.1489 30.2937 41.9585 30.3543 41.7813C30.421 41.5991 30.5373 41.4392 30.6901 41.3196C30.8429 41.1999 31.026 41.1254 31.2189 41.1042L34.4481 40.75L35.9481 37.7084C36.0334 37.5323 36.1665 37.3837 36.3323 37.2798C36.4981 37.1759 36.6899 37.1207 36.8855 37.1207C37.0812 37.1207 37.2729 37.1759 37.4387 37.2798C37.6045 37.3837 37.7377 37.5323 37.823 37.7084L39.323 40.75L42.5522 41.1042C42.747 41.1236 42.9323 41.1975 43.087 41.3173C43.2417 41.4372 43.3595 41.5982 43.4269 41.782C43.4943 41.9657 43.5086 42.1647 43.4681 42.3562C43.4276 42.5477 43.3341 42.7239 43.198 42.8646L40.8334 45.3542L41.3439 48.4167C41.3727 48.6013 41.3514 48.7903 41.2821 48.9638C41.2128 49.1373 41.0981 49.2889 40.9501 49.4029C40.802 49.5169 40.6261 49.5889 40.4406 49.6115C40.2552 49.6341 40.067 49.6064 39.8959 49.5313L36.8647 48.1771L33.8543 49.5105C33.7289 49.5622 33.5941 49.587 33.4585 49.5833V49.5833ZM33.5314 42.9063L34.8022 44.2604C34.9126 44.3772 34.9944 44.5178 35.0414 44.6714C35.0884 44.825 35.0992 44.9874 35.073 45.1459L34.8022 46.8021L36.4585 46.0625C36.5928 46.0021 36.7383 45.971 36.8855 45.971C37.0328 45.971 37.1783 46.0021 37.3126 46.0625L38.9689 46.8021L38.698 45.1459C38.6719 44.9874 38.6827 44.825 38.7297 44.6714C38.7767 44.5178 38.8585 44.3772 38.9689 44.2604L40.2397 42.9063L38.5314 42.7188C38.3571 42.7002 38.1903 42.638 38.0465 42.5379C37.9026 42.4377 37.7863 42.3029 37.7084 42.1459L36.8855 40.4792L36.0626 42.1459C35.9857 42.3015 35.871 42.4354 35.7291 42.5355C35.5872 42.6356 35.4226 42.6986 35.2501 42.7188L33.5314 42.9063Z" fill="#FA4616"/>
<path d="M57 54.7917H22.625V45.4167H23.6667C24.2192 45.4167 24.7491 45.1972 25.1398 44.8065C25.5305 44.4158 25.75 43.8859 25.75 43.3333C25.75 42.7808 25.5305 42.2509 25.1398 41.8602C24.7491 41.4695 24.2192 41.25 23.6667 41.25H22.625V31.875H57V41.25H55.9583C55.4058 41.25 54.8759 41.4695 54.4852 41.8602C54.0945 42.2509 53.875 42.7808 53.875 43.3333C53.875 43.8859 54.0945 44.4158 54.4852 44.8065C54.8759 45.1972 55.4058 45.4167 55.9583 45.4167H57V54.7917ZM24.7083 52.7083H54.9167V47.3646C54.025 47.1315 53.2358 46.6095 52.6725 45.88C52.1092 45.1506 51.8036 44.255 51.8036 43.3333C51.8036 42.4117 52.1092 41.5161 52.6725 40.7867C53.2358 40.0573 54.025 39.5351 54.9167 39.3021V33.9583H24.7083V39.3021C25.6 39.5351 26.3892 40.0573 26.9525 40.7867C27.5158 41.5161 27.8213 42.4117 27.8213 43.3333C27.8213 44.255 27.5158 45.1506 26.9525 45.88C26.3892 46.6095 25.6 47.1315 24.7083 47.3646V52.7083Z" fill="#404040"/>
</svg>
