<svg width="64" height="64" viewBox="0 0 64 64" fill="none" xmlns="http://www.w3.org/2000/svg">
<path d="M30.883 14.117H28.7554V19.4362H30.883V14.117Z" fill="#FA4616"/>
<path d="M36.2021 14.117H34.0745V19.4362H36.2021V14.117Z" fill="#FA4616"/>
<path d="M32.4787 26.883C30.9084 26.8854 29.3722 26.4245 28.0627 25.5577C26.7531 24.691 25.7285 23.4571 25.1171 22.0106L27.0852 21.1809C27.5295 22.2435 28.2781 23.151 29.2368 23.7893C30.1956 24.4276 31.3216 24.7681 32.4734 24.7681C33.6252 24.7681 34.7513 24.4276 35.71 23.7893C36.6688 23.151 37.4174 22.2435 37.8617 21.1809L39.8298 22.0106C39.2203 23.4563 38.1975 24.6898 36.8898 25.5566C35.5821 26.4233 34.0476 26.8847 32.4787 26.883V26.883Z" fill="#FA4616"/>
<path d="M34.4894 57H32.3617V50.5107C32.3617 48.0639 27.2021 46.2553 23.8511 46.2553C20.5 46.2553 15.3404 48.0958 15.3404 50.5107V57H13.2128V50.5107C13.2128 46.0319 20.2553 44.1277 23.8511 44.1277C27.4468 44.1277 34.4894 46.0639 34.4894 50.5107V57Z" fill="#404040"/>
<path d="M23.8511 43.1702C22.1582 43.1702 20.5347 42.4977 19.3377 41.3007C18.1406 40.1036 17.4681 38.4801 17.4681 36.7872V35.7234C17.4681 34.0305 18.1406 32.407 19.3377 31.21C20.5347 30.0129 22.1582 29.3404 23.8511 29.3404C25.544 29.3404 27.1675 30.0129 28.3646 31.21C29.5616 32.407 30.2341 34.0305 30.2341 35.7234V36.7872C30.2341 38.4801 29.5616 40.1036 28.3646 41.3007C27.1675 42.4977 25.544 43.1702 23.8511 43.1702ZM23.8511 31.4681C22.7225 31.4681 21.6402 31.9164 20.8422 32.7144C20.0441 33.5125 19.5958 34.5948 19.5958 35.7234V36.7872C19.5958 37.9158 20.0441 38.9982 20.8422 39.7962C21.6402 40.5942 22.7225 41.0426 23.8511 41.0426C24.9797 41.0426 26.0621 40.5942 26.8601 39.7962C27.6581 38.9982 28.1064 37.9158 28.1064 36.7872V35.7234C28.1064 34.5948 27.6581 33.5125 26.8601 32.7144C26.0621 31.9164 24.9797 31.4681 23.8511 31.4681Z" fill="#404040"/>
<path d="M35.5319 44.1702C34.9676 44.1702 34.4264 43.946 34.0274 43.547C33.6284 43.148 33.4043 42.6068 33.4043 42.0426V35.6596H31.2766V33.5319H35.5319V41.9787L43.2553 33.5319H50.4255C50.9898 33.5319 51.531 33.3077 51.93 32.9087C52.329 32.5097 52.5532 31.9685 52.5532 31.4043V11.2553C52.5532 10.691 52.329 10.1499 51.93 9.75087C51.531 9.35185 50.9898 9.12766 50.4255 9.12766H14.2553C13.691 9.12766 13.1498 9.35185 12.7508 9.75087C12.3518 10.1499 12.1277 10.691 12.1277 11.2553V31.4681C12.1277 32.0324 12.3518 32.5735 12.7508 32.9725C13.1498 33.3716 13.691 33.5957 14.2553 33.5957H16.383V35.7234H14.2553C13.1267 35.7234 12.0444 35.2751 11.2464 34.4771C10.4484 33.679 10 32.5967 10 31.4681V11.2553C10 10.1267 10.4484 9.04438 11.2464 8.24635C12.0444 7.44832 13.1267 7 14.2553 7H50.4255C51.5541 7 52.6365 7.44832 53.4345 8.24635C54.2325 9.04438 54.6809 10.1267 54.6809 11.2553V31.4681C54.6809 32.5967 54.2325 33.679 53.4345 34.4771C52.6365 35.2751 51.5541 35.7234 50.4255 35.7234H44.1915L36.8617 43.7234C36.4817 44.0184 36.0129 44.1759 35.5319 44.1702Z" fill="#404040"/>
</svg>
