<svg width="64" height="64" viewBox="0 0 64 64" fill="none" xmlns="http://www.w3.org/2000/svg">
<path fill-rule="evenodd" clip-rule="evenodd" d="M34.4418 20.8803V15.67H36.5259V20.8803H34.4418Z" fill="#404040"/>
<path fill-rule="evenodd" clip-rule="evenodd" d="M39.6521 20.8803V15.67H41.7362V20.8803H39.6521Z" fill="#404040"/>
<path fill-rule="evenodd" clip-rule="evenodd" d="M32.7881 22.5845C33.2233 23.629 33.9579 24.5213 34.8994 25.149C35.8409 25.7766 36.9471 26.1115 38.0786 26.1115C39.2101 26.1115 40.3163 25.7766 41.2578 25.149C42.1993 24.5213 42.9339 23.629 43.3691 22.5845L45.2929 23.3861C44.6995 24.8104 43.6977 26.0272 42.4139 26.8831C41.13 27.739 39.6216 28.1957 38.0786 28.1957C36.5356 28.1957 35.0272 27.739 33.7433 26.8831C32.4595 26.0272 31.4577 24.8104 30.8643 23.3861L32.7881 22.5845Z" fill="#404040"/>
<path fill-rule="evenodd" clip-rule="evenodd" d="M10.961 16.9766L19.1791 14.4247L19.7971 16.4151L11.5669 18.9708C11.3035 19.0501 11.0585 19.1808 10.8459 19.3553C10.6333 19.5298 10.4574 19.7446 10.3283 19.9875C10.1991 20.2303 10.1193 20.4963 10.0934 20.7701C10.0675 21.0437 10.096 21.3198 10.1773 21.5823C10.1773 21.5825 10.1772 21.5822 10.1773 21.5823L20.0792 53.4351C20.1586 53.6976 20.289 53.9419 20.463 54.154C20.6371 54.366 20.8512 54.5416 21.0933 54.6707C21.3353 54.7998 21.6004 54.8798 21.8734 54.9062C22.1457 54.9325 22.4204 54.905 22.6819 54.8252C22.6827 54.825 22.6835 54.8248 22.6843 54.8245L37.6216 50.1859C37.885 50.1065 38.13 49.9759 38.3425 49.8014C38.5551 49.6269 38.7311 49.4121 38.8602 49.1693C38.9894 48.9264 39.0692 48.6604 39.0951 48.3866C39.1209 48.1134 39.0925 47.8378 39.0116 47.5756C39.0114 47.575 39.0112 47.5745 39.011 47.5739L35.7399 37.1249L37.7288 36.5023L41.0019 46.9572C41.1646 47.4827 41.2217 48.0351 41.17 48.5828C41.1182 49.1304 40.9586 49.6624 40.7003 50.148C40.4419 50.6336 40.09 51.0633 39.6649 51.4123C39.2409 51.7604 38.7525 52.0212 38.2276 52.1801C38.2261 52.1805 38.2245 52.181 38.223 52.1814L23.2985 56.8161L23.2946 56.8173C22.77 56.978 22.2189 57.0334 21.6729 56.9806C21.1269 56.9279 20.5966 56.7678 20.1125 56.5096C19.6284 56.2515 19.2001 55.9003 18.852 55.4762C18.5049 55.0533 18.2444 54.5661 18.0855 54.0425C18.0851 54.0412 18.0847 54.0398 18.0842 54.0385L8.18662 22.1995C8.02387 21.674 7.96673 21.1216 8.0185 20.5739C8.07026 20.0263 8.22991 19.4944 8.48822 19.0087C8.74655 18.5231 9.09843 18.0934 9.5236 17.7444C9.94756 17.3964 10.436 17.1355 10.961 16.9766Z" fill="#404040"/>
<path fill-rule="evenodd" clip-rule="evenodd" d="M31.3542 51.022L28.3739 51.9495L27.7546 49.9595L30.735 49.032L31.3542 51.022Z" fill="#404040"/>
<path fill-rule="evenodd" clip-rule="evenodd" d="M39.3778 45.2491L18.4843 51.7412L17.8658 49.7509L38.7593 43.2588L39.3778 45.2491Z" fill="#404040"/>
<path fill-rule="evenodd" clip-rule="evenodd" d="M20.3739 21.0679C20.3739 13.0776 28.5554 7 38.089 7C47.6254 7 55.773 13.0797 55.773 21.0679C55.773 29.0583 47.5914 35.1359 38.0578 35.1359H38.0575C36.1854 35.1353 34.3219 34.8945 32.5124 34.4199C30.001 36.0184 27.2308 37.1709 24.3243 37.8252C23.9505 37.9243 23.5563 37.9174 23.1859 37.8051C22.805 37.6897 22.4651 37.4675 22.2065 37.165C21.9478 36.8625 21.7811 36.4923 21.7262 36.098C21.673 35.7155 21.7271 35.326 21.8821 34.9728C22.6306 33.0556 23.1548 31.0588 23.4447 29.0222C21.5064 26.8333 20.413 24.0166 20.374 21.0818L20.3738 21.0679H20.3739ZM22.458 21.061C22.494 23.6345 23.5074 26.0981 25.2928 27.9522L25.6375 28.3102L25.5763 28.8033C25.2808 31.1851 24.6887 33.5205 23.8139 35.7554L23.803 35.7833L23.7905 35.8106L23.7905 35.8106L23.8177 35.8029L23.8453 35.7967C26.6676 35.1642 29.3503 34.0207 31.7611 32.4228L32.1614 32.1575L32.6232 32.2894C34.3906 32.7946 36.2197 33.0511 38.0578 33.0517M22.458 21.061C22.4629 14.6737 29.2021 9.08414 38.089 9.08414C46.9765 9.08414 53.6888 14.6756 53.6888 21.0679C53.6888 27.458 46.9481 33.0516 38.0581 33.0517" fill="#FA4616"/>
</svg>
