<svg width="64" height="64" viewBox="0 0 64 64" fill="none" xmlns="http://www.w3.org/2000/svg">
<path d="M41.4583 33.0417H33.5625C32.9773 33.0358 32.4012 32.8967 31.8778 32.635C31.3544 32.3733 30.8974 31.9958 30.5416 31.5313C30.1145 31.0834 29.9687 30.9584 29.75 30.9584H27.6666V28.875H29.75C30.2033 28.8967 30.6462 29.0192 31.0462 29.2336C31.4462 29.4481 31.7934 29.749 32.0625 30.1146C32.5833 30.6667 32.8854 30.9584 33.5625 30.9584H41.4583C41.7187 30.9584 41.9166 30.4688 42.0312 30.0521C42.1458 29.6354 42.4999 26.0313 42.7812 22.8542C42.9062 22.1563 42.8333 21.8125 42.7812 21.7084C42.7291 21.6042 42.5416 21.5834 42.2916 21.5834H40.2083V19.5H42.2916C42.6826 19.4777 43.0735 19.5449 43.4345 19.6966C43.7955 19.8482 44.1172 20.0803 44.375 20.375C44.6618 20.7653 44.8558 21.2158 44.9425 21.6923C45.0291 22.1688 45.006 22.6588 44.8749 23.125C44.7083 25.0938 44.2708 29.9479 44.0625 30.6459C43.4479 32.625 42.3125 33.0417 41.4583 33.0417Z" fill="#FA4616"/>
<path d="M32.7708 26.25V24.1667C33.4292 24.1867 34.0739 23.9759 34.5932 23.5707C35.1126 23.1655 35.4739 22.5914 35.6145 21.9479C35.7532 21.2454 35.9881 20.5654 36.3124 19.9271C36.4431 19.7043 36.5546 19.4708 36.6458 19.2292L36.75 18.9583C36.9788 18.4372 37.0857 17.8707 37.0624 17.3021C37.0624 16.0521 36.927 15.7604 36.4374 15.3437C36.3668 15.2824 36.28 15.2427 36.1875 15.2292V15.6979C36.162 16.3644 35.9741 17.0146 35.64 17.5919C35.306 18.1692 34.8359 18.6562 34.2708 19.0104C33.9895 19.2396 33.6979 19.4896 33.3958 19.7812C32.4454 20.806 31.1435 21.4347 29.75 21.5417H27.6666V19.4583H29.75C30.5755 19.3481 31.3356 18.9497 31.8958 18.3333C32.2812 17.9583 32.6145 17.6771 32.9375 17.4062C33.802 16.6875 34.1041 16.3646 34.1041 15.6979V14.9062C34.1048 14.5696 34.2037 14.2404 34.3887 13.9592C34.5737 13.6779 34.8369 13.4568 35.1458 13.3229C35.5798 13.1376 36.0573 13.0784 36.5234 13.1521C36.9896 13.2258 37.4255 13.4294 37.7812 13.7396C38.2815 14.1724 38.667 14.7223 38.9033 15.3403C39.1396 15.9582 39.2193 16.625 39.1354 17.2812C39.1601 18.1251 39.0002 18.9641 38.6666 19.7396V19.8437C38.5355 20.2034 38.3752 20.5518 38.1875 20.8854C37.9494 21.367 37.7777 21.8786 37.677 22.4062C37.4257 23.5133 36.8007 24.5 35.907 25.2001C35.0134 25.9002 33.9058 26.271 32.7708 26.25V26.25Z" fill="#FA4616"/>
<path d="M27.6666 33.0417H22.4583C22.182 33.0417 21.9171 32.9319 21.7217 32.7366C21.5264 32.5412 21.4166 32.2763 21.4166 32V18.4583C21.4166 18.1821 21.5264 17.9171 21.7217 17.7218C21.9171 17.5264 22.182 17.4167 22.4583 17.4167H27.6666C27.9429 17.4167 28.2078 17.5264 28.4032 17.7218C28.5985 17.9171 28.7083 18.1821 28.7083 18.4583V32C28.7083 32.2763 28.5985 32.5412 28.4032 32.7366C28.2078 32.9319 27.9429 33.0417 27.6666 33.0417ZM23.5 30.9583H26.625V19.5H23.5V30.9583Z" fill="#FA4616"/>
<path d="M30.7916 57C30.5154 57 30.2504 56.8902 30.055 56.6949C29.8597 56.4995 29.75 56.2346 29.75 55.9583V53.875C29.75 51.6667 25.677 50.75 23.5 50.75C21.3229 50.75 17.25 51.6667 17.25 53.875V55.9583C17.25 56.2346 17.1402 56.4995 16.9448 56.6949C16.7495 56.8902 16.4846 57 16.2083 57C15.932 57 15.6671 56.8902 15.4717 56.6949C15.2764 56.4995 15.1666 56.2346 15.1666 55.9583V53.875C15.1666 50.0729 20.2812 48.6667 23.5 48.6667C26.7187 48.6667 31.8333 50.0729 31.8333 53.875V55.9583C31.8333 56.2346 31.7235 56.4995 31.5282 56.6949C31.3328 56.8902 31.0679 57 30.7916 57Z" fill="#404040"/>
<path d="M23.5 47.625C22.1067 47.6112 20.7757 47.0452 19.7992 46.0512C18.8227 45.0571 18.2806 43.7163 18.2917 42.3229V41.4687C18.2917 40.0874 18.8404 38.7626 19.8171 37.7859C20.7939 36.8091 22.1187 36.2604 23.5 36.2604C24.8813 36.2604 26.2061 36.8091 27.1828 37.7859C28.1596 38.7626 28.7083 40.0874 28.7083 41.4687V42.3229C28.7194 43.7163 28.1773 45.0571 27.2008 46.0512C26.2243 47.0452 24.8934 47.6112 23.5 47.625V47.625ZM23.5 38.25C23.0816 38.2498 22.6675 38.3336 22.2821 38.4965C21.8967 38.6594 21.5479 38.898 21.2565 39.1982C20.965 39.4984 20.7368 39.854 20.5854 40.244C20.434 40.6341 20.3625 41.0505 20.375 41.4687V42.3229C20.375 43.1517 20.7042 43.9466 21.2903 44.5326C21.8763 45.1187 22.6712 45.4479 23.5 45.4479C24.3288 45.4479 25.1236 45.1187 25.7097 44.5326C26.2958 43.9466 26.625 43.1517 26.625 42.3229V41.4687C26.6376 41.0505 26.566 40.6341 26.4146 40.244C26.2632 39.854 26.035 39.4984 25.7435 39.1982C25.4521 38.898 25.1033 38.6594 24.7179 38.4965C24.3326 38.3336 23.9184 38.2498 23.5 38.25V38.25Z" fill="#404040"/>
<path d="M34.9375 48.6354C34.6239 48.6324 34.3147 48.5613 34.0312 48.4271C33.6873 48.2562 33.3973 47.9936 33.1932 47.6682C32.9892 47.3428 32.8791 46.9674 32.875 46.5833V40.3333H30.7917C30.5154 40.3333 30.2504 40.2236 30.0551 40.0282C29.8597 39.8329 29.75 39.5679 29.75 39.2917C29.75 39.0154 29.8597 38.7504 30.0551 38.5551C30.2504 38.3597 30.5154 38.25 30.7917 38.25H34.9583V46.5208L42.5208 38.25H49.5417C50.0942 38.25 50.6241 38.0305 51.0148 37.6398C51.4055 37.2491 51.625 36.7192 51.625 36.1667V11.1667C51.625 10.6141 51.4055 10.0842 51.0148 9.69353C50.6241 9.30283 50.0942 9.08333 49.5417 9.08333H15.1667C14.6141 9.08333 14.0842 9.30283 13.6935 9.69353C13.3028 10.0842 13.0833 10.6141 13.0833 11.1667V36.1667C13.0833 36.7192 13.3028 37.2491 13.6935 37.6398C14.0842 38.0305 14.6141 38.25 15.1667 38.25H16.2083C16.4846 38.25 16.7495 38.3597 16.9449 38.5551C17.1402 38.7504 17.25 39.0154 17.25 39.2917C17.25 39.5679 17.1402 39.8329 16.9449 40.0282C16.7495 40.2236 16.4846 40.3333 16.2083 40.3333H15.1667C14.0616 40.3333 13.0018 39.8943 12.2204 39.1129C11.439 38.3315 11 37.2717 11 36.1667V11.1667C11 10.0616 11.439 9.00179 12.2204 8.22039C13.0018 7.43899 14.0616 7 15.1667 7H49.5417C50.6467 7 51.7065 7.43899 52.4879 8.22039C53.2693 9.00179 53.7083 10.0616 53.7083 11.1667V36.1667C53.7083 37.2717 53.2693 38.3315 52.4879 39.1129C51.7065 39.8943 50.6467 40.3333 49.5417 40.3333H43.4375L36.2604 48.1563C35.8884 48.4646 35.4207 48.6339 34.9375 48.6354V48.6354Z" fill="#404040"/>
</svg>
