<svg width="64" height="64" viewBox="0 0 64 64" fill="none" xmlns="http://www.w3.org/2000/svg">
<path d="M26.7917 47.5H24.7084V42.8125L25.125 42.5C25.125 42.5 27.8334 40.4167 27.8334 38.125V36.0417H29.9167V38.125C29.9167 40.8125 27.7292 43 26.7917 43.8229V47.5Z" fill="#404040"/>
<path d="M19.3332 42.2917V40.2084C20.2808 40.0051 21.128 39.4778 21.7287 38.7173C22.3295 37.9568 22.6464 37.0106 22.6249 36.0417V33.5313L25.0103 31.1355C25.3215 30.7999 25.5391 30.3886 25.6415 29.9426C25.7438 29.4965 25.7273 29.0315 25.5936 28.5938C25.546 28.3186 25.4394 28.057 25.2812 27.8269C25.1229 27.5967 24.9168 27.4035 24.677 27.2605C24.677 27.2605 24.5728 27.2605 24.3957 27.4063L16.0624 35.7396L14.5936 34.2605L22.927 25.9272C23.2111 25.6163 23.5747 25.389 23.9786 25.2696C24.3824 25.1503 24.8112 25.1435 25.2186 25.25C25.823 25.4736 26.3598 25.8487 26.7775 26.3394C27.1952 26.8301 27.4798 27.4198 27.6041 28.0521C27.8379 28.8441 27.857 29.684 27.6593 30.4857C27.4616 31.2875 27.0543 32.0222 26.479 32.6146L24.7082 34.3855V36.0417C24.7231 37.5583 24.1861 39.0286 23.1972 40.1785C22.2083 41.3284 20.8349 42.0794 19.3332 42.2917V42.2917Z" fill="#404040"/>
<path d="M29.9167 54.7916H27.8333V48.5416H9.08333V54.7916H7V46.4583H29.9167V54.7916Z" fill="#404040"/>
<path d="M13.25 50.625H11.1666V52.7083H13.25V50.625Z" fill="#404040"/>
<path d="M10.125 47.5V32.9167C10.1413 31.9745 10.3632 31.0472 10.7752 30.1998C11.1872 29.3523 11.7794 28.6051 12.5104 28.0105L17.7187 22.8021L19.1875 24.2813L13.9792 29.4896C13.4434 29.8891 13.0056 30.4053 12.6988 30.9991C12.392 31.5928 12.2243 32.2485 12.2083 32.9167V47.5H10.125Z" fill="#404040"/>
<path d="M55.9584 37.0833H23.6667V35H54.9167V28.6354C52.9376 28.1771 51.7917 26.3437 51.7917 23.5417C51.7917 20.7396 52.9376 18.9063 54.9167 18.448V12.0833H19.5001V31.875H17.4167V11.0417C17.4167 10.7654 17.5265 10.5005 17.7218 10.3051C17.9172 10.1098 18.1821 10 18.4584 10H55.9584C56.2347 10 56.4996 10.1098 56.695 10.3051C56.8903 10.5005 57.0001 10.7654 57.0001 11.0417V19.375C57.0001 19.6513 56.8903 19.9163 56.695 20.1116C56.4996 20.307 56.2347 20.4167 55.9584 20.4167C55.4376 20.4167 53.8751 20.4167 53.8751 23.5417C53.8751 26.6667 55.4376 26.6667 55.9584 26.6667C56.2347 26.6667 56.4996 26.7764 56.695 26.9718C56.8903 27.1671 57.0001 27.4321 57.0001 27.7083V36.0417C57.0001 36.3179 56.8903 36.5829 56.695 36.7783C56.4996 36.9736 56.2347 37.0833 55.9584 37.0833Z" fill="#404040"/>
<path d="M48.6667 11.0417H46.5834V15.2083H48.6667V11.0417Z" fill="#404040"/>
<path d="M48.6667 22.5H46.5834V25.625H48.6667V22.5Z" fill="#404040"/>
<path d="M48.6667 17.2917H46.5834V20.4167H48.6667V17.2917Z" fill="#404040"/>
<path d="M48.6667 27.7083H46.5834V30.8333H48.6667V27.7083Z" fill="#404040"/>
<path d="M48.6667 32.9167H46.5834V36.0417H48.6667V32.9167Z" fill="#404040"/>
<path d="M39.0833 30.0417C38.9359 30.041 38.7904 30.0091 38.6562 29.9479L35.125 28.3438L31.5833 29.9479C31.4109 30.0265 31.2204 30.0565 31.0322 30.0348C30.844 30.0131 30.6652 29.9405 30.5152 29.8248C30.3652 29.7091 30.2496 29.5546 30.1809 29.3781C30.1121 29.2016 30.0928 29.0096 30.125 28.8229L30.7292 25.1563L27.9479 22.1667C27.818 22.0254 27.7296 21.8509 27.6926 21.6625C27.6556 21.4741 27.6714 21.2792 27.7382 21.0992C27.805 20.9192 27.9203 20.7612 28.0713 20.6426C28.2223 20.524 28.4031 20.4494 28.5937 20.4271L32.4062 20L34.1875 16.3438C34.2734 16.1685 34.4068 16.0208 34.5726 15.9177C34.7384 15.8145 34.9298 15.7601 35.125 15.7605V15.7605C35.3202 15.7601 35.5116 15.8145 35.6774 15.9177C35.8431 16.0208 35.9766 16.1685 36.0625 16.3438L37.8333 20L41.6458 20.4271C41.8365 20.4494 42.0173 20.524 42.1683 20.6426C42.3193 20.7612 42.4345 20.9192 42.5013 21.0992C42.5681 21.2792 42.5839 21.4741 42.5469 21.6625C42.5099 21.8509 42.4216 22.0254 42.2916 22.1667L39.5 25.1563L40.1042 28.8229C40.1436 29.0162 40.1273 29.2168 40.0572 29.4012C39.9872 29.5856 39.8662 29.7463 39.7083 29.8646C39.5242 29.9887 39.3052 30.0508 39.0833 30.0417ZM35.125 26.1667C35.2724 26.1674 35.418 26.1994 35.5521 26.2605L37.7396 27.25L37.375 24.9896C37.3491 24.8336 37.3591 24.6737 37.4042 24.5221C37.4494 24.3704 37.5284 24.2311 37.6354 24.1146L39.3542 22.2604L37.0312 22.0105C36.8559 21.9909 36.6884 21.9271 36.5445 21.8251C36.4005 21.723 36.2849 21.5861 36.2083 21.4271L35.1666 19.1875L34.0729 21.4271C33.9964 21.5861 33.8807 21.723 33.7368 21.8251C33.5928 21.9271 33.4253 21.9909 33.25 22.0105L30.9271 22.2604L32.6458 24.1146C32.7547 24.2302 32.8356 24.3691 32.8826 24.5208C32.9295 24.6724 32.9412 24.8328 32.9166 24.9896L32.5417 27.25L34.7292 26.2605C34.8542 26.205 34.9884 26.1732 35.125 26.1667V26.1667Z" fill="#FA4616"/>
</svg>
