<svg width="64" height="64" viewBox="0 0 64 64" fill="none" xmlns="http://www.w3.org/2000/svg">
<path d="M54.9583 39.2083H52.875V30.875C52.9281 30.3146 52.8569 29.7494 52.6662 29.2197C52.4756 28.69 52.1704 28.209 51.7724 27.811C51.3743 27.4129 50.8933 27.1077 50.3636 26.9171C49.834 26.7265 49.2687 26.6552 48.7083 26.7083H40.375C39.8146 26.6552 39.2494 26.7265 38.7197 26.9171C38.19 27.1077 37.709 27.4129 37.311 27.811C36.9129 28.209 36.6077 28.69 36.4171 29.2197C36.2265 29.7494 36.1552 30.3146 36.2083 30.875V39.2083H34.125V30.875C34.125 26.2604 37.4896 24.625 40.375 24.625H48.7083C51.5938 24.625 54.9583 26.2604 54.9583 30.875V39.2083Z" fill="#404040"/>
<path d="M50.75 30.875H48.6667V38.1667H50.75V30.875Z" fill="#404040"/>
<path d="M40.3333 30.875H38.25V38.1667H40.3333V30.875Z" fill="#404040"/>
<path d="M12.2083 38.1667H7V40.25H12.2083V38.1667Z" fill="#404040"/>
<path d="M57 38.1667H30.9583V40.25H57V38.1667Z" fill="#404040"/>
<path d="M44.5416 22.5417C43.851 22.5664 43.1627 22.4487 42.5196 22.1957C41.8765 21.9427 41.2924 21.56 40.8037 21.0713C40.315 20.5826 39.9323 19.9985 39.6793 19.3554C39.4263 18.7123 39.3085 18.024 39.3333 17.3333V15.25C39.3333 13.8687 39.882 12.5439 40.8588 11.5672C41.8355 10.5904 43.1603 10.0417 44.5416 10.0417C45.923 10.0417 47.2477 10.5904 48.2245 11.5672C49.2012 12.5439 49.75 13.8687 49.75 15.25V17.3333C49.7747 18.024 49.657 18.7123 49.404 19.3554C49.151 19.9985 48.7683 20.5826 48.2796 21.0713C47.7909 21.56 47.2068 21.9427 46.5637 22.1957C45.9206 22.4487 45.2323 22.5664 44.5416 22.5417V22.5417ZM44.5416 12.125C44.1249 12.1008 43.7078 12.165 43.3177 12.3135C42.9276 12.462 42.5733 12.6913 42.2781 12.9865C41.983 13.2816 41.7536 13.6359 41.6051 14.0261C41.4567 14.4162 41.3924 14.8333 41.4166 15.25V17.3333C41.4166 18.1621 41.7459 18.957 42.3319 19.5431C42.918 20.1291 43.7128 20.4583 44.5416 20.4583C45.3704 20.4583 46.1653 20.1291 46.7514 19.5431C47.3374 18.957 47.6666 18.1621 47.6666 17.3333V15.25C47.6909 14.8333 47.6266 14.4162 47.4781 14.0261C47.3297 13.6359 47.1003 13.2816 46.8052 12.9865C46.51 12.6913 46.1557 12.462 45.7656 12.3135C45.3755 12.165 44.9584 12.1008 44.5416 12.125V12.125Z" fill="#404040"/>
<path d="M16.2084 44.4062C14.4479 44.125 11.1667 43.6042 11.1667 39.1979V29.8229C11.1667 25.2083 14.5313 23.5729 17.4167 23.5729H25.75C28.6354 23.5729 32 25.2083 32 29.8229V39.1979C32 43.5937 28.7188 44.1146 26.9583 44.4062L26.625 42.3229C28.9479 41.9583 29.9167 41.4375 29.9167 39.1979V29.8229C29.9698 29.2625 29.8985 28.6973 29.7079 28.1676C29.5173 27.638 29.2121 27.157 28.814 26.7589C28.416 26.3609 27.935 26.0556 27.4053 25.865C26.8756 25.6744 26.3104 25.6031 25.75 25.6562H17.4167C16.8563 25.6031 16.2911 25.6744 15.7614 25.865C15.2317 26.0556 14.7507 26.3609 14.3527 26.7589C13.9546 27.157 13.6494 27.638 13.4588 28.1676C13.2682 28.6973 13.1969 29.2625 13.25 29.8229V39.1979C13.25 41.4479 14.2188 41.9687 16.5417 42.3229L16.2084 44.4062Z" fill="#FA4616"/>
<path d="M26.8333 48.5833H16.4167C16.1404 48.5833 15.8754 48.4736 15.6801 48.2782C15.4847 48.0829 15.375 47.8179 15.375 47.5417V29.8333C15.375 29.5571 15.4847 29.2921 15.6801 29.0968C15.8754 28.9014 16.1404 28.7917 16.4167 28.7917H26.8333C27.1096 28.7917 27.3746 28.9014 27.5699 29.0968C27.7653 29.2921 27.875 29.5571 27.875 29.8333V47.5417C27.875 47.8179 27.7653 48.0829 27.5699 48.2782C27.3746 48.4736 27.1096 48.5833 26.8333 48.5833ZM17.4583 46.5H25.7917V30.875H17.4583V46.5Z" fill="#404040"/>
<path d="M21.625 21.5C20.9343 21.5248 20.246 21.407 19.6029 21.154C18.9598 20.901 18.3757 20.5183 17.887 20.0296C17.3983 19.541 17.0156 18.9569 16.7626 18.3137C16.5096 17.6706 16.3919 16.9823 16.4166 16.2917V14.2083C16.4166 12.827 16.9654 11.5022 17.9421 10.5255C18.9189 9.54875 20.2436 9 21.625 9C23.0063 9 24.3311 9.54875 25.3078 10.5255C26.2846 11.5022 26.8333 12.827 26.8333 14.2083V16.2917C26.8581 16.9823 26.7403 17.6706 26.4873 18.3137C26.2343 18.9569 25.8516 19.541 25.3629 20.0296C24.8742 20.5183 24.2901 20.901 23.647 21.154C23.0039 21.407 22.3156 21.5248 21.625 21.5V21.5ZM21.625 11.0833C21.2082 11.0591 20.7911 11.1234 20.401 11.2718C20.0109 11.4203 19.6566 11.6497 19.3614 11.9448C19.0663 12.24 18.8369 12.5943 18.6885 12.9844C18.54 13.3745 18.4757 13.7916 18.5 14.2083V16.2917C18.5 17.1205 18.8292 17.9153 19.4152 18.5014C20.0013 19.0874 20.7962 19.4167 21.625 19.4167C22.4538 19.4167 23.2486 19.0874 23.8347 18.5014C24.4207 17.9153 24.75 17.1205 24.75 16.2917V14.2083C24.7742 13.7916 24.7099 13.3745 24.5615 12.9844C24.413 12.5943 24.1836 12.24 23.8885 11.9448C23.5933 11.6497 23.239 11.4203 22.8489 11.2718C22.4588 11.1234 22.0417 11.0591 21.625 11.0833V11.0833Z" fill="#FA4616"/>
<path d="M55.9583 41.2917H53.875V55.875H55.9583V41.2917Z" fill="#404040"/>
<path d="M10.125 41.2917H8.04169V55.875H10.125V41.2917Z" fill="#404040"/>
<path d="M22.625 47.5417H20.5417V54.8333H22.625V47.5417Z" fill="#404040"/>
<path d="M27.8333 53.7917H15.3333V55.875H27.8333V53.7917Z" fill="#404040"/>
</svg>
