<svg width="64" height="64" viewBox="0 0 64 64" fill="none" xmlns="http://www.w3.org/2000/svg">
<path d="M22.2174 56.2826H20.0435V53.6522C20.0435 52.9348 17.2065 50.8696 14.6087 50.8696C12.0109 50.8696 9.17391 52.9348 9.17391 53.6522V56.3043H7V53.6522C7 51.1956 11.4239 48.6956 14.6087 48.6956C17.7935 48.6956 22.2174 51.1956 22.2174 53.6522V56.2826Z" fill="#404040"/>
<path d="M14.6087 50.8478C11.663 50.8478 9.17389 48.7391 9.17389 46.2391V43.5C9.17389 41.0109 11.663 38.8913 14.6087 38.8913C17.5543 38.8913 20.0435 41.0652 20.0435 43.5V46.2391C20.0435 48.7391 17.5978 50.8478 14.6087 50.8478ZM14.6087 41.0652C12.9021 41.0652 11.3478 42.2282 11.3478 43.5V46.2391C11.3478 47.5217 12.9021 48.6739 14.6087 48.6739C16.3152 48.6739 17.8695 47.5217 17.8695 46.2391V43.5C17.8695 42.2282 16.3152 41.0652 14.6087 41.0652Z" fill="#404040"/>
<path d="M39.6087 56.2826H37.4348V53.6522C37.4348 52.9348 34.5978 50.8696 32 50.8696C29.4022 50.8696 26.5652 52.9348 26.5652 53.6522V56.3043H24.3913V53.6522C24.3913 51.1956 28.8152 48.6956 32 48.6956C35.1848 48.6956 39.6087 51.1956 39.6087 53.6522V56.2826Z" fill="#404040"/>
<path d="M32 50.8478C29.0543 50.8478 26.5652 48.7391 26.5652 46.2391V43.5C26.5652 41.0109 29.0543 38.8913 32 38.8913C34.9456 38.8913 37.4348 41.0652 37.4348 43.5V46.2391C37.4348 48.7391 34.9891 50.8478 32 50.8478ZM32 41.0652C30.2934 41.0652 28.7391 42.2282 28.7391 43.5V46.2391C28.7391 47.5217 30.2934 48.6739 32 48.6739C33.7065 48.6739 35.2608 47.5217 35.2608 46.2391V43.5C35.2608 42.2282 33.7065 41.0652 32 41.0652Z" fill="#404040"/>
<path d="M39.6087 25.8478H37.4348V23.2174C37.4348 22.5 34.5978 20.4348 32 20.4348C29.4022 20.4348 26.5652 22.5 26.5652 23.2174V25.8696H24.3913V23.2174C24.3913 20.7609 28.8152 18.2609 32 18.2609C35.1848 18.2609 39.6087 20.7609 39.6087 23.2174V25.8478Z" fill="#404040"/>
<path d="M32 20.413C30.6212 20.4519 29.2817 19.9512 28.2667 19.0173C27.2516 18.0834 26.6411 16.7903 26.5652 15.4131V13.4348C26.5652 11.9934 27.1378 10.611 28.157 9.59182C29.1762 8.5726 30.5586 8 32 8C33.4414 8 34.8237 8.5726 35.8429 9.59182C36.8622 10.611 37.4348 11.9934 37.4348 13.4348V15.3913C37.3643 16.7724 36.7562 18.0711 35.7405 19.0095C34.7249 19.948 33.3823 20.4517 32 20.413V20.413ZM32 10.6304C31.2009 10.6063 30.4221 10.8835 29.818 11.4071C29.2139 11.9306 28.8288 12.6622 28.7391 13.4565V15.4131C28.7391 16.2779 29.0827 17.1073 29.6942 17.7189C30.3057 18.3304 31.1351 18.6739 32 18.6739C32.8648 18.6739 33.6942 18.3304 34.3058 17.7189C34.9173 17.1073 35.2608 16.2779 35.2608 15.4131V13.4348C35.1661 12.6444 34.7788 11.9181 34.1753 11.3991C33.5717 10.88 32.7956 10.6057 32 10.6304V10.6304Z" fill="#404040"/>
<path d="M57 56.2826H54.8261V53.6522C54.8261 52.9348 51.9891 50.8696 49.3913 50.8696C46.7935 50.8696 43.9565 52.9348 43.9565 53.6522V56.3043H41.7826V53.6522C41.7826 51.1956 46.2065 48.6956 49.3913 48.6956C52.5761 48.6956 57 51.1956 57 53.6522V56.2826Z" fill="#404040"/>
<path d="M49.3913 50.8478C46.4457 50.8478 43.9565 48.7391 43.9565 46.2391V43.5C43.9565 41.0109 46.4457 38.8913 49.3913 38.8913C52.337 38.8913 54.8261 41.0652 54.8261 43.5V46.2391C54.8261 48.7391 52.3805 50.8478 49.3913 50.8478ZM49.3913 41.0652C47.6848 41.0652 46.1305 42.2282 46.1305 43.5V46.2391C46.1305 47.5217 47.6848 48.6739 49.3913 48.6739C51.0978 48.6739 52.6522 47.5217 52.6522 46.2391V43.5C52.6522 42.2282 51.0978 41.0652 49.3913 41.0652Z" fill="#404040"/>
<path d="M33.0869 25.8478H30.913V36.7174H33.0869V25.8478Z" fill="#FA4616"/>
<path d="M50.4782 36.7174H48.3043V32.3696H15.6956V36.7174H13.5217V31.2826C13.5217 30.9943 13.6362 30.7179 13.8401 30.514C14.0439 30.3102 14.3204 30.1956 14.6087 30.1956H49.3913C49.6796 30.1956 49.956 30.3102 50.1599 30.514C50.3637 30.7179 50.4782 30.9943 50.4782 31.2826V36.7174Z" fill="#FA4616"/>
</svg>
