<svg width="64" height="64" viewBox="0 0 64 64" fill="none" xmlns="http://www.w3.org/2000/svg">
<path d="M33.107 57C32.8264 57 32.5572 56.8885 32.3588 56.6901C32.1603 56.4916 32.0488 56.2224 32.0488 55.9418V33.4233C32.0488 33.1426 32.1603 32.8735 32.3588 32.675C32.5572 32.4766 32.8264 32.3651 33.107 32.3651C33.3877 32.3651 33.6569 32.4766 33.8553 32.675C34.0538 32.8735 34.1652 33.1426 34.1652 33.4233V55.9418C34.1652 56.2224 34.0538 56.4916 33.8553 56.6901C33.6569 56.8885 33.3877 57 33.107 57Z" fill="#404040"/>
<path d="M29.9324 54.3545H29.7737C27.9983 54.1404 26.2543 53.7177 24.5779 53.0952C22.8636 52.4815 21.6256 52.037 14.0806 52.2487C13.8675 52.2621 13.6557 52.2066 13.4765 52.0904C13.2974 51.9741 13.1604 51.8033 13.0859 51.6032C13.0025 51.4091 12.9792 51.1946 13.0188 50.9871C13.0584 50.7797 13.1591 50.5889 13.3081 50.4392C15.4937 48.1621 17.0538 45.359 17.8372 42.3016C18.325 40.2222 19.3131 38.2934 20.7155 36.6825C22.4086 34.9894 23.3822 32.672 24.5039 29.9841C25.401 27.7467 26.4621 25.5786 27.6785 23.4974C27.8326 23.2855 28.0597 23.1383 28.3161 23.0843C28.5724 23.0303 28.8397 23.0733 29.0661 23.2049C29.2926 23.3366 29.4622 23.5476 29.5421 23.7971C29.622 24.0466 29.6065 24.3168 29.4986 24.5556C28.3438 26.5506 27.3426 28.6307 26.5039 30.7778C25.3398 33.5397 24.2393 36.1534 22.2711 38.1852C21.1219 39.5654 20.3135 41.1967 19.9113 42.9471C19.2099 45.5107 18.0521 47.9268 16.4933 50.0794C22.3557 50.0159 23.6467 50.4815 25.361 51.1376C26.9042 51.7097 28.5097 52.0969 30.1441 52.291C30.4247 52.3107 30.6861 52.441 30.8707 52.6533C31.0552 52.8657 31.1478 53.1426 31.1282 53.4233C31.1085 53.7039 30.9782 53.9653 30.7659 54.1499C30.5535 54.3344 30.2766 54.4271 29.9959 54.4074L29.9324 54.3545Z" fill="#FA4616"/>
<path d="M43.689 28.9577C43.4678 28.9592 43.2517 28.8914 43.071 28.7637C42.8903 28.636 42.7542 28.4549 42.6818 28.2458C42.6094 28.0368 42.6044 27.8103 42.6673 27.5982C42.7303 27.3861 42.8582 27.1991 43.033 27.0635L43.9007 26.3968C44.0105 26.31 44.1363 26.2456 44.2709 26.2074C44.4056 26.1691 44.5465 26.1578 44.6855 26.174C44.8246 26.1902 44.9591 26.2337 45.0813 26.3019C45.2036 26.37 45.3112 26.4616 45.3981 26.5714C45.4849 26.6812 45.5493 26.807 45.5875 26.9417C45.6258 27.0764 45.6371 27.2172 45.6209 27.3563C45.6046 27.4953 45.5612 27.6298 45.493 27.7521C45.4248 27.8743 45.3332 27.9819 45.2235 28.0688L44.3663 28.7355C44.1731 28.8856 43.9337 28.9641 43.689 28.9577V28.9577Z" fill="#404040"/>
<path d="M37.3398 19.4339C36.6252 19.4244 35.9197 19.2724 35.2647 18.9865C34.6096 18.7007 34.0183 18.2868 33.5254 17.7693C33.0326 17.2518 32.6481 16.641 32.3945 15.9728C32.1409 15.3046 32.0234 14.5925 32.0488 13.8783V12.291C32.0488 10.8877 32.6063 9.54196 33.5985 8.5497C34.5908 7.55744 35.9366 7 37.3398 7C38.7431 7 40.0889 7.55744 41.0811 8.5497C42.0734 9.54196 42.6308 10.8877 42.6308 12.291V13.8783C42.6548 14.5922 42.5363 15.3037 42.2822 15.9712C42.0281 16.6387 41.6435 17.2489 41.1509 17.7662C40.6583 18.2834 40.0676 18.6973 39.4132 18.9836C38.7589 19.27 38.054 19.423 37.3398 19.4339V19.4339ZM37.3398 8.85185C36.9043 8.86539 36.4759 8.96554 36.0795 9.14647C35.6832 9.3274 35.3268 9.58548 35.0313 9.90564C34.7357 10.2258 34.5069 10.6016 34.3582 11.0112C34.2095 11.4207 34.1439 11.8558 34.1652 12.291V13.8783C34.1652 14.7203 34.4997 15.5277 35.095 16.1231C35.6904 16.7184 36.4979 17.0529 37.3398 17.0529C38.1818 17.0529 38.9893 16.7184 39.5846 16.1231C40.18 15.5277 40.5144 14.7203 40.5144 13.8783V12.291C40.5357 11.8558 40.4701 11.4207 40.3214 11.0112C40.1727 10.6016 39.9439 10.2258 39.6484 9.90564C39.3529 9.58548 38.9965 9.3274 38.6001 9.14647C38.2038 8.96554 37.7753 8.86539 37.3398 8.85185V8.85185Z" fill="#404040"/>
<path d="M44.7472 57C44.4666 57 44.1974 56.8885 43.999 56.6901C43.8005 56.4916 43.689 56.2225 43.689 55.9418V34.2487C43.689 33.968 43.8005 33.6989 43.999 33.5004C44.1974 33.302 44.4666 33.1905 44.7472 33.1905C45.0279 33.1905 45.2971 33.302 45.4955 33.5004C45.694 33.6989 45.8054 33.968 45.8054 34.2487V55.9418C45.8054 56.2225 45.694 56.4916 45.4955 56.6901C45.2971 56.8885 45.0279 57 44.7472 57Z" fill="#404040"/>
<path d="M35.2975 35.3069C34.0732 35.2805 32.9091 34.7708 32.0594 33.8889L30.4086 32.3651C29.6474 31.4683 29.1138 30.401 28.8531 29.254C28.7367 28.9259 28.5885 28.545 28.4404 28.1323C28.0824 27.2579 27.7854 26.3598 27.5515 25.4444C27.4268 24.8814 27.4315 24.2975 27.5653 23.7366C27.6991 23.1756 27.9585 22.6524 28.324 22.2064C28.7795 21.6685 29.3469 21.2364 29.9866 20.9404C30.6263 20.6443 31.3228 20.4913 32.0277 20.4921H42.8319C46.2816 20.4921 47.8689 21.5503 49.1176 24.6296C49.1705 24.7672 50.8531 28.5979 51.4033 30.1852C51.5965 30.7795 51.6474 31.4109 51.5518 32.0285C51.4562 32.6461 51.2169 33.2326 50.8531 33.7407C50.525 34.2218 50.0848 34.6158 49.5704 34.8886C49.056 35.1615 48.483 35.305 47.9007 35.3069H43.6679C42.899 35.307 42.1461 35.0867 41.4986 34.672L41.2763 34.545C40.8637 34.3545 40.0912 33.9735 39.6044 33.7302L37.0541 34.9471H36.9589C36.4299 35.1617 35.8679 35.2834 35.2975 35.3069V35.3069ZM42.0488 32.5661L42.197 32.6402L42.5674 32.8413C42.8978 33.0593 43.2827 33.1803 43.6785 33.1905H47.9113C48.1549 33.1889 48.3944 33.1272 48.6085 33.0109C48.8227 32.8946 49.0048 32.7273 49.1388 32.5238C49.3054 32.2889 49.4175 32.0197 49.4669 31.736C49.5163 31.4522 49.5019 31.161 49.4245 30.8836C48.8954 29.381 47.1917 25.4974 47.1705 25.455C46.2499 23.2011 45.4033 22.6402 42.8319 22.6085H32.0383C31.6491 22.6058 31.2639 22.6877 30.9095 22.8485C30.555 23.0092 30.2397 23.2451 29.9854 23.5397C29.8159 23.7382 29.6958 23.974 29.6351 24.2278C29.5744 24.4817 29.5748 24.7463 29.6361 25C29.8431 25.8117 30.1083 26.6074 30.4298 27.381C30.5885 27.8254 30.7473 28.2381 30.8637 28.5873C31.06 29.3993 31.4201 30.1627 31.9219 30.8307L33.5515 32.3863C33.8812 32.7504 34.313 33.0068 34.7906 33.1219C35.2681 33.237 35.7693 33.2056 36.2287 33.0317L41.234 30.6402C42.5568 30.0053 42.6626 29.8466 42.6626 29.2328V28.9577H36.3134C36.108 28.9593 35.9066 28.9011 35.7338 28.7903C35.5609 28.6794 35.424 28.5206 35.3399 28.3333L34.6414 26.7884C34.5741 26.6606 34.5336 26.5203 34.5225 26.3763C34.5114 26.2323 34.5299 26.0875 34.5769 25.9509C34.6239 25.8143 34.6984 25.6887 34.7957 25.582C34.893 25.4753 35.0112 25.3896 35.1429 25.3302C35.2746 25.2709 35.4171 25.2391 35.5615 25.237C35.706 25.2348 35.8493 25.2622 35.9828 25.3175C36.1162 25.3728 36.2369 25.4548 36.3375 25.5586C36.438 25.6623 36.5163 25.7855 36.5674 25.9206L36.9801 26.8413H43.7102C43.9909 26.8413 44.26 26.9528 44.4585 27.1512C44.6569 27.3497 44.7684 27.6188 44.7684 27.8995V29.2328C44.7684 31.2963 43.361 31.963 42.1335 32.545L42.0488 32.5661Z" fill="#404040"/>
<path d="M39.4562 57C39.1756 57 38.9064 56.8885 38.708 56.6901C38.5095 56.4916 38.398 56.2225 38.398 55.9418V41.6561C38.398 41.3754 38.5095 41.1063 38.708 40.9078C38.9064 40.7094 39.1756 40.5979 39.4562 40.5979C39.7369 40.5979 40.006 40.7094 40.2045 40.9078C40.4029 41.1063 40.5144 41.3754 40.5144 41.6561V55.9418C40.5144 56.2225 40.4029 56.4916 40.2045 56.6901C40.006 56.8885 39.7369 57 39.4562 57Z" fill="#404040"/>
</svg>
