<svg width="64" height="64" viewBox="0 0 64 64" fill="none" xmlns="http://www.w3.org/2000/svg">
<path d="M11.1666 50.5833H9.08331V40.1667C9.08331 37.4792 15.0208 33.9167 19.5 33.9167C23.5937 33.9167 29.9166 36.1563 29.9166 39.125V40.1667H27.8333V39.125C27.7708 38.2708 23.6666 36 19.5 36C15.5729 36 11.1666 39.125 11.1666 40.1667V50.5833Z" fill="#404040"/>
<path d="M20.0625 32.875C16.9375 32.875 14.3333 30.5104 14.3333 27.6667V24.4583C14.3333 21.6562 16.9583 19.25 20.0625 19.25C23.1666 19.25 25.7916 21.6146 25.7916 24.4583V27.6667C25.75 30.5104 23.125 32.875 20.0625 32.875ZM20.0625 21.4167C18.1562 21.4167 16.4166 22.8854 16.4166 24.5417V27.75C16.4166 29.3646 18.1562 30.875 20.0625 30.875C21.9687 30.875 23.7083 29.4062 23.7083 27.75V24.5417C23.6666 22.8854 21.9271 21.4167 20.0625 21.4167Z" fill="#404040"/>
<path d="M35.0104 53.125L33.1458 52.1979L37.6041 43.2917H25.3958L22.5416 49.9479C22.4619 50.1362 22.3285 50.2968 22.1581 50.4098C21.9877 50.5228 21.7878 50.5832 21.5833 50.5833H15.3333V48.5H20.8958L23.75 41.8333C23.8313 41.647 23.9654 41.4885 24.1357 41.3775C24.3059 41.2664 24.505 41.2076 24.7083 41.2083H39.2916C39.4687 41.208 39.6429 41.2527 39.7978 41.3384C39.9527 41.424 40.0832 41.5478 40.1771 41.6979C40.2685 41.8562 40.3166 42.0359 40.3166 42.2187C40.3166 42.4016 40.2685 42.5812 40.1771 42.7396L35.0104 53.125Z" fill="#404040"/>
<path d="M35.1354 37.3542C34.8826 37.3557 34.6317 37.3097 34.3958 37.2187C33.9971 37.0697 33.6535 36.8022 33.4114 36.4521C33.1693 36.102 33.0403 35.6861 33.0417 35.2604V31.8333H32C31.1712 31.8333 30.3763 31.5041 29.7903 30.918C29.2042 30.332 28.875 29.5371 28.875 28.7083V14.125C28.875 13.2962 29.2042 12.5013 29.7903 11.9153C30.3763 11.3292 31.1712 11 32 11H53.875C54.7038 11 55.4987 11.3292 56.0847 11.9153C56.6708 12.5013 57 13.2962 57 14.125V28.7083C57 29.5371 56.6708 30.332 56.0847 30.918C55.4987 31.5041 54.7038 31.8333 53.875 31.8333H40.8125L36.7292 36.625C36.5324 36.855 36.2879 37.0394 36.0127 37.1653C35.7375 37.2913 35.4381 37.3557 35.1354 37.3542V37.3542ZM32.0104 13.0833C31.7342 13.0833 31.4692 13.1931 31.2738 13.3884C31.0785 13.5838 30.9688 13.8487 30.9688 14.125V28.7083C30.9688 28.9846 31.0785 29.2495 31.2738 29.4449C31.4692 29.6402 31.7342 29.75 32.0104 29.75H34.0938C34.37 29.75 34.635 29.8597 34.8303 30.0551C35.0257 30.2504 35.1354 30.5154 35.1354 30.7917V35.2604L39.5521 30.1146C39.6499 30.0002 39.7713 29.9084 39.908 29.8455C40.0446 29.7826 40.1933 29.75 40.3438 29.75H53.8854C54.1617 29.75 54.4266 29.6402 54.622 29.4449C54.8173 29.2495 54.9271 28.9846 54.9271 28.7083V14.125C54.9271 13.8487 54.8173 13.5838 54.622 13.3884C54.4266 13.1931 54.1617 13.0833 53.8854 13.0833H32.0104Z" fill="#FA4616"/>
<path d="M57 51.625H7V53.7083H57V51.625Z" fill="#404040"/>
</svg>
