<svg width="64" height="64" viewBox="0 0 64 64" fill="none" xmlns="http://www.w3.org/2000/svg">
<path d="M29.3404 42.1064C29.0583 42.1064 28.7877 41.9943 28.5882 41.7948C28.3887 41.5953 28.2766 41.3247 28.2766 41.0425C28.2766 40.7604 28.3887 40.4898 28.5882 40.2903C28.7877 40.0908 29.0583 39.9787 29.3404 39.9787C30.1696 39.926 30.9511 39.5729 31.5386 38.9854C32.1261 38.3979 32.4792 37.6164 32.5319 36.7872V27.2128C32.5319 24.6596 27.4043 22.9574 24.0213 22.9574C20.2553 22.9574 14.4468 24.7872 14.4468 27.2128V39.9787C14.4468 40.2609 14.3347 40.5314 14.1352 40.7309C13.9357 40.9304 13.6651 41.0425 13.383 41.0425C13.1008 41.0425 12.8302 40.9304 12.6307 40.7309C12.4312 40.5314 12.3192 40.2609 12.3192 39.9787V27.2128C12.3192 22.7659 20.0638 20.8298 24.0213 20.8298C28.4787 20.8298 34.6596 23.0532 34.6596 27.2128V36.7872C34.6069 38.1811 34.0296 39.5037 33.0433 40.49C32.0569 41.4764 30.7343 42.0537 29.3404 42.1064V42.1064Z" fill="#404040"/>
<path d="M24.0213 19.766C23.3159 19.7913 22.613 19.671 21.9562 19.4126C21.2994 19.1542 20.7028 18.7634 20.2038 18.2643C19.7047 17.7652 19.3138 17.1687 19.0555 16.5119C18.7971 15.8551 18.6768 15.1521 18.7021 14.4468V12.3191C18.7021 10.9084 19.2625 9.55549 20.26 8.55795C21.2576 7.56042 22.6105 7 24.0213 7C25.432 7 26.7849 7.56042 27.7825 8.55795C28.78 9.55549 29.3404 10.9084 29.3404 12.3191V14.4468C29.3641 15.1517 29.2428 15.854 28.9839 16.5101C28.7249 17.1661 28.334 17.7621 27.8352 18.2608C27.3365 18.7595 26.7406 19.1504 26.0846 19.4094C25.4285 19.6683 24.7262 19.7897 24.0213 19.766V19.766ZM24.0213 9.12766C23.5957 9.10292 23.1697 9.16854 22.7713 9.32018C22.3729 9.47182 22.011 9.70604 21.7096 10.0075C21.4082 10.3089 21.1739 10.6707 21.0223 11.0692C20.8707 11.4676 20.805 11.8936 20.8298 12.3191V14.4468C20.8298 15.2932 21.166 16.105 21.7645 16.7036C22.363 17.3021 23.1748 17.6383 24.0213 17.6383C24.8677 17.6383 25.6795 17.3021 26.278 16.7036C26.8765 16.105 27.2128 15.2932 27.2128 14.4468V12.3191C27.2375 11.8936 27.1719 11.4676 27.0202 11.0692C26.8686 10.6707 26.6344 10.3089 26.3329 10.0075C26.0315 9.70604 25.6697 9.47182 25.2713 9.32018C24.8728 9.16854 24.4469 9.10292 24.0213 9.12766V9.12766Z" fill="#404040"/>
<path d="M29.3404 57C29.0583 57 28.7877 56.888 28.5882 56.6885C28.3887 56.489 28.2766 56.2183 28.2766 55.9362V29.3404C28.2766 29.0583 28.3887 28.7877 28.5882 28.5882C28.7877 28.3887 29.0583 28.2766 29.3404 28.2766C29.6226 28.2766 29.8932 28.3887 30.0927 28.5882C30.2922 28.7877 30.4043 29.0583 30.4043 29.3404V55.9362C30.4043 56.2183 30.2922 56.489 30.0927 56.6885C29.8932 56.888 29.6226 57 29.3404 57Z" fill="#404040"/>
<path d="M17.6383 41.0426C17.3561 41.0426 17.0855 40.9305 16.886 40.731C16.6865 40.5315 16.5745 40.2609 16.5745 39.9787V29.3404C16.5745 29.0583 16.6865 28.7877 16.886 28.5882C17.0855 28.3887 17.3561 28.2766 17.6383 28.2766C17.9204 28.2766 18.191 28.3887 18.3905 28.5882C18.59 28.7877 18.7021 29.0583 18.7021 29.3404V39.9787C18.7021 40.2609 18.59 40.5315 18.3905 40.731C18.191 40.9305 17.9204 41.0426 17.6383 41.0426Z" fill="#404040"/>
<path d="M17.6383 57C17.3561 57 17.0855 56.888 16.886 56.6885C16.6865 56.489 16.5745 56.2183 16.5745 55.9362V49.5532C16.5745 49.2711 16.6865 49.0004 16.886 48.8009C17.0855 48.6014 17.3561 48.4894 17.6383 48.4894C17.9204 48.4894 18.191 48.6014 18.3905 48.8009C18.59 49.0004 18.7021 49.2711 18.7021 49.5532V55.9362C18.7021 56.2183 18.59 56.489 18.3905 56.6885C18.191 56.888 17.9204 57 17.6383 57Z" fill="#404040"/>
<path d="M24.0213 57C23.7391 57 23.4685 56.888 23.269 56.6885C23.0695 56.4889 22.9575 56.2183 22.9575 55.9362V39.9787C22.9575 39.6966 23.0695 39.426 23.269 39.2265C23.4685 39.027 23.7391 38.9149 24.0213 38.9149C24.3034 38.9149 24.574 39.027 24.7735 39.2265C24.973 39.426 25.0851 39.6966 25.0851 39.9787V55.9362C25.0851 56.2183 24.973 56.4889 24.7735 56.6885C24.574 56.888 24.3034 57 24.0213 57Z" fill="#404040"/>
<path d="M19.766 50.617H8.06383C7.78168 50.617 7.51108 50.505 7.31157 50.3055C7.11206 50.106 7 49.8353 7 49.5532V39.9787C7 39.6966 7.11206 39.426 7.31157 39.2265C7.51108 39.027 7.78168 38.9149 8.06383 38.9149H19.766C20.0481 38.9149 20.3187 39.027 20.5182 39.2265C20.7177 39.426 20.8298 39.6966 20.8298 39.9787V49.5532C20.8298 49.8353 20.7177 50.106 20.5182 50.3055C20.3187 50.505 20.0481 50.617 19.766 50.617ZM9.12766 48.4894H18.7021V41.0425H9.12766V48.4894Z" fill="#FA4616"/>
<path d="M51.6809 27.2128C50.6288 27.2128 49.6004 26.9008 48.7257 26.3163C47.851 25.7318 47.1692 24.9011 46.7666 23.9291C46.364 22.9572 46.2587 21.8877 46.4639 20.8559C46.6691 19.8241 47.1757 18.8763 47.9196 18.1324C48.6635 17.3885 49.6113 16.8819 50.6431 16.6767C51.6749 16.4714 52.7445 16.5768 53.7164 16.9794C54.6884 17.382 55.5191 18.0637 56.1036 18.9385C56.688 19.8132 57 20.8416 57 21.8936C57 23.3043 56.4396 24.6573 55.442 25.6548C54.4445 26.6523 53.0916 27.2128 51.6809 27.2128V27.2128ZM51.6809 18.7021C51.0496 18.7021 50.4326 18.8893 49.9078 19.24C49.3829 19.5907 48.9739 20.0891 48.7323 20.6723C48.4907 21.2554 48.4275 21.8971 48.5507 22.5162C48.6738 23.1353 48.9778 23.704 49.4241 24.1504C49.8704 24.5967 50.4391 24.9007 51.0582 25.0238C51.6773 25.147 52.319 25.0838 52.9022 24.8422C53.4853 24.6006 53.9838 24.1915 54.3345 23.6667C54.6852 23.1418 54.8723 22.5248 54.8723 21.8936C54.8723 21.0472 54.5361 20.2354 53.9376 19.6369C53.339 19.0384 52.5273 18.7021 51.6809 18.7021Z" fill="#404040"/>
<path d="M51.6809 39.9787C50.6288 39.9787 49.6004 39.6668 48.7257 39.0823C47.851 38.4978 47.1692 37.667 46.7666 36.6951C46.364 35.7231 46.2587 34.6537 46.4639 33.6218C46.6691 32.59 47.1757 31.6423 47.9196 30.8984C48.6635 30.1545 49.6113 29.6479 50.6431 29.4426C51.6749 29.2374 52.7445 29.3427 53.7164 29.7453C54.6884 30.1479 55.5191 30.8297 56.1036 31.7044C56.688 32.5792 57 33.6075 57 34.6596C57 36.0703 56.4396 37.4232 55.442 38.4208C54.4445 39.4183 53.0916 39.9787 51.6809 39.9787ZM51.6809 31.4681C51.0496 31.4681 50.4326 31.6553 49.9078 32.006C49.3829 32.3567 48.9739 32.8551 48.7323 33.4382C48.4907 34.0214 48.4275 34.6631 48.5507 35.2822C48.6738 35.9013 48.9778 36.47 49.4241 36.9163C49.8704 37.3627 50.4391 37.6666 51.0582 37.7898C51.6773 37.9129 52.319 37.8497 52.9022 37.6082C53.4853 37.3666 53.9838 36.9575 54.3345 36.4326C54.6852 35.9078 54.8723 35.2908 54.8723 34.6596C54.8723 33.8131 54.5361 33.0014 53.9376 32.4028C53.339 31.8043 52.5273 31.4681 51.6809 31.4681Z" fill="#404040"/>
<path d="M51.6809 52.7447C50.6288 52.7447 49.6004 52.4327 48.7257 51.8482C47.851 51.2638 47.1692 50.4331 46.7666 49.4611C46.364 48.4892 46.2587 47.4196 46.4639 46.3878C46.6691 45.356 47.1757 44.4082 47.9196 43.6643C48.6635 42.9204 49.6113 42.4138 50.6431 42.2086C51.6749 42.0033 52.7445 42.1087 53.7164 42.5113C54.6884 42.9139 55.5191 43.5957 56.1036 44.4704C56.688 45.3451 57 46.3735 57 47.4255C57 48.8363 56.4396 50.1892 55.442 51.1867C54.4445 52.1843 53.0916 52.7447 51.6809 52.7447ZM51.6809 44.234C51.0496 44.234 50.4326 44.4212 49.9078 44.7719C49.3829 45.1226 48.9739 45.621 48.7323 46.2042C48.4907 46.7874 48.4275 47.4291 48.5507 48.0482C48.6738 48.6672 48.9778 49.2359 49.4241 49.6823C49.8704 50.1286 50.4391 50.4326 51.0582 50.5557C51.6773 50.6789 52.319 50.6156 52.9022 50.3741C53.4853 50.1325 53.9838 49.7235 54.3345 49.1987C54.6852 48.6738 54.8723 48.0568 54.8723 47.4255C54.8723 46.5791 54.5361 45.7673 53.9376 45.1688C53.339 44.5703 52.5273 44.234 51.6809 44.234Z" fill="#404040"/>
<path d="M47.4255 33.5957H36.7872V35.7234H47.4255V33.5957Z" fill="#404040"/>
<path d="M47.4255 48.4893H43.1702C42.6059 48.4893 42.0647 48.2652 41.6657 47.8661C41.2667 47.4671 41.0425 46.926 41.0425 46.3617V22.9574C41.0425 22.3931 41.2667 21.852 41.6657 21.453C42.0647 21.054 42.6059 20.8298 43.1702 20.8298H47.4255V22.9574H43.1702V46.3617H47.4255V48.4893Z" fill="#404040"/>
</svg>
