<svg width="64" height="64" viewBox="0 0 64 64" fill="none" xmlns="http://www.w3.org/2000/svg">
<path d="M33.8068 29.1919C33.5705 29.1912 33.3411 29.1122 33.1544 28.9673L32.2774 28.2936C32.0534 28.1191 31.9078 27.8628 31.8727 27.581C31.8376 27.2992 31.9158 27.015 32.0903 26.7909C32.2647 26.5669 32.521 26.4212 32.8028 26.3861C33.0846 26.351 33.3688 26.4293 33.5929 26.6038L34.4592 27.2775C34.6351 27.4141 34.764 27.6021 34.828 27.8154C34.8919 28.0287 34.8876 28.2567 34.8158 28.4674C34.744 28.6782 34.6082 28.8613 34.4273 28.9912C34.2464 29.1211 34.0295 29.1912 33.8068 29.1919V29.1919Z" fill="#404040"/>
<path d="M45.5712 33.7052H43.4322V56.9987H45.5712V33.7052Z" fill="#404040"/>
<path d="M33.8068 34.5394H31.6678V56.9987H33.8068V34.5394Z" fill="#404040"/>
<path d="M56.2661 56.9987C53.6184 57.0242 50.9812 56.6639 48.4374 55.9292C48.304 55.8843 48.1807 55.8135 48.0746 55.7209C47.9686 55.6284 47.8818 55.5158 47.8192 55.3897C47.7566 55.2635 47.7195 55.1263 47.71 54.9859C47.7004 54.8454 47.7187 54.7044 47.7636 54.571C47.8086 54.4376 47.8793 54.3143 47.9719 54.2082C48.0645 54.1022 48.1771 54.0154 48.3032 53.9528C48.4293 53.8902 48.5665 53.8531 48.707 53.8436C48.8475 53.834 48.9884 53.8523 49.1219 53.8972C50.7214 54.3753 52.3668 54.6836 54.0308 54.817C51.3357 50.6139 50.9186 45.1916 50.9186 39.9403C50.765 34.7819 49.8051 29.6793 48.0738 24.8177C47.9844 24.5483 48.0058 24.2544 48.1331 24.0006C48.2605 23.7469 48.4834 23.5542 48.7529 23.4648C49.0224 23.3755 49.3163 23.3968 49.57 23.5242C49.8237 23.6516 50.0164 23.8745 50.1058 24.144C51.9073 29.2085 52.9033 34.5243 53.0576 39.8976C53.0576 45.5766 53.5389 51.3625 57.0575 55.2234C57.1963 55.3754 57.2883 55.5642 57.3224 55.7672C57.3566 55.9702 57.3314 56.1787 57.25 56.3677C57.1649 56.557 57.0266 56.7175 56.8519 56.8295C56.6772 56.9416 56.4736 57.0004 56.2661 56.9987V56.9987Z" fill="#FA4616"/>
<path d="M22.0424 38.8174H19.9034V49.5123H22.0424V38.8174Z" fill="#404040"/>
<path d="M22.0424 8.87161H19.9034V19.5665H22.0424V8.87161Z" fill="#404040"/>
<path d="M13.4864 28.1225H6V30.2615H13.4864V28.1225Z" fill="#404040"/>
<path d="M22.0424 28.1225H19.9034V30.2615H22.0424V28.1225Z" fill="#404040"/>
<path d="M20.9729 45.2343C13.8928 45.2343 8.13898 38.0366 8.13898 29.1919C8.13898 20.3472 13.8928 13.1496 20.9729 13.1496C22.8102 13.1905 24.6118 13.6653 26.2307 14.5352C27.8496 15.405 29.2399 16.6453 30.2881 18.1548L28.5877 19.4703C27.7316 18.231 26.5966 17.21 25.274 16.4893C23.9515 15.7686 22.4783 15.3683 20.9729 15.3206C15.08 15.3206 10.278 21.5558 10.278 29.224C10.278 36.8923 15.08 43.1274 20.9729 43.1274C22.4435 43.0773 23.883 42.6907 25.1808 41.9972C26.4786 41.3038 27.6002 40.3221 28.4593 39.1275L30.1063 40.4109C29.0586 41.8644 27.6891 43.056 26.1047 43.8927C24.5203 44.7294 22.764 45.1885 20.9729 45.2343V45.2343Z" fill="#404040"/>
<path d="M40.2238 19.5665C39.5019 19.5556 38.7896 19.4009 38.1282 19.1115C37.4669 18.8221 36.8698 18.4038 36.372 17.881C35.8741 17.3583 35.4855 16.7416 35.2286 16.0669C34.9718 15.3923 34.8521 14.6732 34.8763 13.9517V12.3475C34.8763 10.9292 35.4397 9.56908 36.4425 8.56623C37.4454 7.56339 38.8055 7 40.2238 7C41.642 7 43.0021 7.56339 44.005 8.56623C45.0078 9.56908 45.5712 10.9292 45.5712 12.3475V13.9517C45.5955 14.6732 45.4757 15.3923 45.2188 16.0669C44.962 16.7416 44.5734 17.3583 44.0755 17.881C43.5777 18.4038 42.9806 18.8221 42.3193 19.1115C41.6579 19.4009 40.9456 19.5556 40.2238 19.5665V19.5665ZM40.2238 8.87161C39.7836 8.88529 39.3506 8.98651 38.95 9.16937C38.5494 9.35224 38.1892 9.61307 37.8906 9.93665C37.5919 10.2602 37.3606 10.6401 37.2103 11.054C37.0601 11.4679 36.9938 11.9076 37.0153 12.3475V13.9517C37.0153 14.8026 37.3533 15.6187 37.955 16.2204C38.5567 16.8221 39.3728 17.1602 40.2238 17.1602C41.0747 17.1602 41.8908 16.8221 42.4925 16.2204C43.0942 15.6187 43.4322 14.8026 43.4322 13.9517V12.3475C43.4537 11.9076 43.3874 11.4679 43.2371 11.054C43.0869 10.6401 42.8556 10.2602 42.5569 9.93665C42.2583 9.61307 41.8981 9.35224 41.4975 9.16937C41.0969 8.98651 40.6639 8.88529 40.2238 8.87161V8.87161Z" fill="#404040"/>
<path d="M42.2879 35.6089C41.7151 35.6065 41.1471 35.5052 40.6088 35.3094H40.5018L37.9137 34.0154C37.411 34.2613 36.641 34.6464 36.2239 34.8389L35.9993 34.9672C35.3595 35.3751 34.6189 35.5972 33.8603 35.6089H29.5823C28.9938 35.607 28.4146 35.462 27.8948 35.1862C27.3749 34.9104 26.93 34.5122 26.5984 34.0261C26.2266 33.5145 25.9814 32.9221 25.8828 32.2975C25.7843 31.6728 25.8353 31.0337 26.0316 30.4326C26.5984 28.8283 28.2882 24.9568 28.3631 24.7963C29.6144 21.7376 31.2079 20.6788 34.6838 20.636H45.6247C46.3371 20.6352 47.0411 20.7899 47.6875 21.0891C48.334 21.3883 48.9075 21.825 49.3679 22.3686C49.7361 22.8199 49.9968 23.3492 50.1302 23.9162C50.2636 24.4831 50.2662 25.0731 50.1379 25.6412C49.9101 26.5676 49.6134 27.4756 49.2503 28.3578C49.0898 28.7749 48.9401 29.1599 48.8332 29.4914C48.5591 30.6555 48.0047 31.7349 47.2182 32.6357L45.5712 34.2079C45.1428 34.6456 44.6323 34.9946 44.0689 35.235C43.5056 35.4754 42.9003 35.6025 42.2879 35.6089V35.6089ZM42.598 22.775H34.6517C32.0635 22.775 31.2079 23.3739 30.2775 25.6305C30.2775 25.6947 28.5342 29.6197 27.9995 31.1384C27.9157 31.4182 27.8982 31.7136 27.9483 32.0013C27.9984 32.2891 28.1148 32.5612 28.2882 32.7961C28.4223 33.0032 28.606 33.1733 28.8227 33.291C29.0395 33.4087 29.2822 33.4702 29.5288 33.4699H33.8068C34.1884 33.4499 34.5577 33.3281 34.8763 33.117C34.9954 33.0392 35.1205 32.9712 35.2506 32.9138L35.3897 32.8389C34.1383 32.2507 32.7266 31.5769 32.7266 29.4914V28.1225C32.7266 27.8388 32.8393 27.5668 33.0399 27.3662C33.2404 27.1656 33.5125 27.053 33.7961 27.053H40.5874L41.0045 26.1225C41.0409 25.971 41.1101 25.8293 41.207 25.7073C41.304 25.5853 41.4264 25.486 41.5658 25.4162C41.7051 25.3465 41.8581 25.3081 42.0138 25.3037C42.1696 25.2992 42.3244 25.3289 42.4675 25.3905C42.6107 25.4522 42.7386 25.5444 42.8423 25.6607C42.9461 25.777 43.0231 25.9145 43.0682 26.0637C43.1132 26.2129 43.1251 26.3701 43.103 26.5243C43.0809 26.6786 43.0254 26.8262 42.9403 26.9567L42.2344 28.5182C42.15 28.7058 42.0134 28.8651 41.8407 28.9771C41.6681 29.089 41.4669 29.1487 41.2612 29.1492H34.8442V29.4272C34.8442 30.0475 34.9512 30.208 36.288 30.8497L41.3467 33.2667C41.8111 33.4425 42.3176 33.4742 42.8002 33.3578C43.2829 33.2415 43.7193 32.9824 44.0525 32.6143L45.6995 31.0422C46.1778 30.357 46.5225 29.5878 46.7156 28.7749C46.8332 28.4219 46.9936 28.0048 47.1647 27.5556C47.4801 26.7703 47.7479 25.9667 47.9669 25.1493C48.0212 24.9066 48.0206 24.6548 47.9651 24.4124C47.9095 24.17 47.8005 23.9431 47.646 23.7482C47.3889 23.4505 47.0703 23.2121 46.7121 23.0496C46.3538 22.8871 45.9646 22.8044 45.5712 22.8071L42.598 22.775Z" fill="#404040"/>
<path d="M39.1542 42.0258H37.0153V56.9987H39.1542V42.0258Z" fill="#404040"/>
</svg>
