<svg width="64" height="64" viewBox="0 0 64 64" fill="none" xmlns="http://www.w3.org/2000/svg">
<path d="M55.9583 47.1979H26.7917C26.5154 47.1979 26.2504 47.0882 26.0551 46.8928C25.8597 46.6975 25.75 46.4325 25.75 46.1563V32.6146H27.8333V45.1146H54.9167V15.9479H27.8333V21.1563H25.75V14.9063C25.75 14.63 25.8597 14.365 26.0551 14.1697C26.2504 13.9743 26.5154 13.8646 26.7917 13.8646H55.9583C56.2346 13.8646 56.4996 13.9743 56.6949 14.1697C56.8903 14.365 57 14.63 57 14.9063V46.1563C57 46.4325 56.8903 46.6975 56.6949 46.8928C56.4996 47.0882 56.2346 47.1979 55.9583 47.1979Z" fill="#404040"/>
<path d="M17.4167 22.1979C16.7114 22.1859 16.0155 22.0333 15.3699 21.749C14.7243 21.4647 14.1419 21.0545 13.6569 20.5423C13.1719 20.0301 12.7939 19.4262 12.5452 18.7661C12.2964 18.106 12.1819 17.4028 12.2084 16.6979V15.2083C12.2084 13.827 12.7571 12.5022 13.7339 11.5255C14.7106 10.5487 16.0354 10 17.4167 10C18.798 10 20.1228 10.5487 21.0996 11.5255C22.0763 12.5022 22.625 13.827 22.625 15.2083V16.6979C22.6515 17.4028 22.537 18.106 22.2882 18.7661C22.0395 19.4262 21.6616 20.0301 21.1765 20.5423C20.6915 21.0545 20.1091 21.4647 19.4635 21.749C18.8179 22.0333 18.122 22.1859 17.4167 22.1979V22.1979ZM17.4167 11.7812C16.9857 11.7986 16.5624 11.9013 16.1713 12.0834C15.7802 12.2655 15.4292 12.5234 15.1385 12.8422C14.8479 13.161 14.6233 13.5342 14.478 13.9404C14.3326 14.3466 14.2693 14.7775 14.2917 15.2083V16.6979C14.2917 17.5267 14.6209 18.3216 15.207 18.9076C15.793 19.4937 16.5879 19.8229 17.4167 19.8229C18.2455 19.8229 19.0404 19.4937 19.6264 18.9076C20.2125 18.3216 20.5417 17.5267 20.5417 16.6979V15.2083C20.5641 14.7775 20.5008 14.3466 20.3554 13.9404C20.2101 13.5342 19.9856 13.161 19.6949 12.8422C19.4042 12.5234 19.0532 12.2655 18.6621 12.0834C18.2711 11.9013 17.8477 11.7986 17.4167 11.7812V11.7812Z" fill="#404040"/>
<path d="M23.6667 54.4896H21.5833V29.7813L22.2917 29.5417C22.5 29.4792 27.5 27.7917 28.5417 27.4583C29.0838 27.3519 29.5851 27.0953 29.9885 26.7178C30.3918 26.3402 30.681 25.8569 30.8229 25.3229H14.2917C10.6458 25.3229 9.08333 26.8854 9.08333 30.5313V37.8229C9.08333 38.9896 9.35417 40.9479 11.1667 40.9479H12.2083V43.0313H11.1667C8.59375 43.0313 7 41.0417 7 37.8229V30.5313C7 25.7604 9.52083 23.2396 14.2917 23.2396H33.0417V24.2813C33.1095 25.463 32.7611 26.6312 32.0569 27.5828C31.3528 28.5343 30.3375 29.209 29.1875 29.4896C28.3646 29.7396 25.125 30.8333 23.6667 31.3229V54.4896Z" fill="#404040"/>
<path d="M18.4583 38.8646H16.375V54.4896H18.4583V38.8646Z" fill="#404040"/>
<path d="M13.25 30.5313H11.1667V54.4896H13.25V30.5313Z" fill="#404040"/>
<path d="M34.823 31.2708L33.3438 29.8021L39.2917 23.8542L42.4167 26.9792L48.9688 20.4271L50.448 21.8958L42.4167 29.9271L39.2917 26.8021L34.823 31.2708Z" fill="#FA4616"/>
<path d="M50.75 26.3646H48.6667V22.1979H44.5V20.1146H50.75V26.3646Z" fill="#FA4616"/>
<path d="M36.1666 34.6979H34.0833V40.9479H36.1666V34.6979Z" fill="#FA4616"/>
<path d="M40.3333 31.5729H38.25V40.9479H40.3333V31.5729Z" fill="#FA4616"/>
<path d="M44.5 34.6979H42.4167V40.9479H44.5V34.6979Z" fill="#FA4616"/>
<path d="M48.6666 30.5313H46.5833V40.9479H48.6666V30.5313Z" fill="#FA4616"/>
</svg>
