<svg width="64" height="64" viewBox="0 0 64 64" fill="none" xmlns="http://www.w3.org/2000/svg">
<path d="M17.4182 22.5017C16.7122 22.4884 16.0161 22.3344 15.3703 22.049C14.7246 21.7635 14.1422 21.3523 13.6572 20.8392C13.1723 20.3261 12.7944 19.7214 12.5458 19.0606C12.2971 18.3998 12.1827 17.6962 12.2091 16.9906V15.5008C12.2091 14.1193 12.7579 12.7943 13.7348 11.8175C14.7117 10.8406 16.0366 10.2917 17.4182 10.2917C18.7997 10.2917 20.1246 10.8406 21.1015 11.8175C22.0784 12.7943 22.6272 14.1193 22.6272 15.5008V16.9906C22.6536 17.6962 22.5392 18.3998 22.2905 19.0606C22.0419 19.7214 21.664 20.3261 21.1791 20.8392C20.6941 21.3523 20.1117 21.7635 19.466 22.049C18.8202 22.3344 18.1241 22.4884 17.4182 22.5017ZM17.4182 12.0836C16.9875 12.0996 16.5644 12.2011 16.1733 12.3821C15.7823 12.5631 15.4311 12.8202 15.1403 13.1382C14.8494 13.4561 14.6247 13.8288 14.4792 14.2344C14.3337 14.64 14.2703 15.0705 14.2927 15.5008V16.9906C14.2927 17.8195 14.622 18.6144 15.2081 19.2005C15.7943 19.7867 16.5892 20.1161 17.4182 20.1161C18.2471 20.1161 19.042 19.7867 19.6282 19.2005C20.2143 18.6144 20.5436 17.8195 20.5436 16.9906V15.5008C20.566 15.0705 20.5026 14.64 20.3571 14.2344C20.2116 13.8288 19.9869 13.4561 19.696 13.1382C19.4052 12.8202 19.054 12.5631 18.663 12.3821C18.2719 12.2011 17.8488 12.0996 17.4182 12.0836V12.0836Z" fill="#404040"/>
<path d="M23.6689 54.7978H21.5853V30.1383L22.2208 29.8778C22.3875 29.8049 26.3881 28.1067 27.5236 27.7942C28.0604 27.6942 28.5585 27.446 28.9617 27.0778C29.3649 26.7096 29.657 26.2361 29.8052 25.7106H14.2927C10.6359 25.7106 9.08362 27.2629 9.08362 30.9196V38.2123C9.08362 39.3791 9.35449 41.3377 11.1672 41.3377H12.209V43.4213H11.1672C8.59397 43.4213 7 41.421 7 38.2123V30.9196C7 26.1481 9.52118 23.627 14.2927 23.627H32.0034V24.6688C32.0733 25.8511 31.7256 27.0204 31.0211 27.9725C30.3165 28.9246 29.2999 29.599 28.1487 29.8778C27.4299 30.107 25.0233 31.0758 23.6689 31.6593V54.7978Z" fill="#404040"/>
<path d="M18.4599 39.1707H16.3763V54.7978H18.4599V39.1707Z" fill="#404040"/>
<path d="M13.2509 30.8362H11.1672V54.7978H13.2509V30.8362Z" fill="#404040"/>
<path d="M41.3797 41.2542C38.4464 41.2629 35.5704 40.4421 33.0837 38.8862C30.5969 37.3304 28.6008 35.1031 27.3257 32.4614L29.201 31.555C30.2592 33.729 31.8802 35.58 33.8955 36.9158C35.9108 38.2517 38.247 39.0237 40.6615 39.1517C43.0759 39.2796 45.4806 38.7588 47.6258 37.6435C49.7711 36.5282 51.5786 34.8589 52.8607 32.809C54.1429 30.7591 54.8529 28.4034 54.917 25.9864C54.9812 23.5694 54.3971 21.1793 53.2255 19.0643C52.0538 16.9493 50.3374 15.1864 48.2543 13.9589C46.1713 12.7313 43.7976 12.0838 41.3797 12.0836C38.4664 12.0944 35.6334 13.0393 33.2968 14.7795C30.9603 16.5197 29.2436 18.9634 28.3988 21.7516L26.3985 21.1578C27.2272 18.3812 28.8117 15.8895 30.9748 13.9614C33.138 12.0333 35.7946 10.7447 38.6479 10.2394C41.5012 9.73414 44.4388 10.0321 47.1325 11.1001C49.8262 12.1681 52.1699 13.9641 53.9018 16.2873C55.6337 18.6105 56.6855 21.3695 56.9397 24.256C57.194 27.1426 56.6407 30.0429 55.3416 32.6331C54.0425 35.2233 52.0488 37.4012 49.5832 38.9236C47.1177 40.4461 44.2774 41.253 41.3797 41.2542V41.2542Z" fill="#404040"/>
<path d="M41.3797 33.9616C40.5555 33.9616 39.7498 33.7172 39.0645 33.2593C38.3792 32.8014 37.8451 32.1505 37.5297 31.3891C37.2143 30.6276 37.1317 29.7898 37.2925 28.9814C37.4533 28.1731 37.8502 27.4305 38.433 26.8477C39.0158 26.2649 39.7583 25.868 40.5667 25.7072C41.3751 25.5464 42.213 25.629 42.9744 25.9444C43.7359 26.2598 44.3867 26.7938 44.8446 27.4791C45.3025 28.1644 45.5469 28.9701 45.5469 29.7943C45.5469 30.8995 45.1079 31.9596 44.3264 32.7411C43.5449 33.5226 42.4849 33.9616 41.3797 33.9616ZM41.3797 27.7107C40.9676 27.7107 40.5647 27.8329 40.2221 28.0618C39.8794 28.2908 39.6124 28.6162 39.4547 28.9969C39.297 29.3777 39.2557 29.7967 39.3361 30.2009C39.4165 30.6051 39.615 30.9762 39.9064 31.2676C40.1978 31.559 40.569 31.7575 40.9732 31.8379C41.3774 31.9183 41.7963 31.8771 42.1771 31.7193C42.5578 31.5616 42.8832 31.2946 43.1122 30.952C43.3411 30.6093 43.4633 30.2064 43.4633 29.7943C43.4633 29.2417 43.2438 28.7118 42.853 28.321C42.4623 27.9303 41.9323 27.7107 41.3797 27.7107Z" fill="#FA4616"/>
<path d="M38.1565 30.6459L35.0206 32.7223L36.171 34.4596L39.3068 32.3832L38.1565 30.6459Z" fill="#FA4616"/>
<path d="M52.247 21.3085L43.3694 27.1866L44.5197 28.9239L53.3973 23.0458L52.247 21.3085Z" fill="#FA4616"/>
<path d="M39.504 14.2401L37.4913 14.7794L38.3003 17.7983L40.3129 17.259L39.504 14.2401Z" fill="#FA4616"/>
<path d="M34.0094 16.7851L32.536 18.2584L34.746 20.4684L36.2194 18.9951L34.0094 16.7851Z" fill="#FA4616"/>
<path d="M48.7516 16.7814L46.5416 18.9915L48.0149 20.4648L50.2249 18.2548L48.7516 16.7814Z" fill="#FA4616"/>
<path d="M43.3346 14.2877L42.5256 17.3066L44.5383 17.8459L45.3472 14.827L43.3346 14.2877Z" fill="#FA4616"/>
</svg>
