<svg width="64" height="64" viewBox="0 0 64 64" fill="none" xmlns="http://www.w3.org/2000/svg">
<path d="M38.5217 51.5652V49.3913C39.3689 49.3375 40.1674 48.9766 40.7677 48.3764C41.3679 47.7761 41.7288 46.9776 41.7826 46.1304V36.3478C41.7826 33.8696 35.8478 32 32 32C28.1522 32 22.2174 33.8696 22.2174 36.3478V46.1304C22.2712 46.9776 22.632 47.7761 23.2323 48.3764C23.8325 48.9766 24.6311 49.3375 25.4782 49.3913V51.5652C24.0532 51.5139 22.7004 50.9249 21.6921 49.9166C20.6838 48.9083 20.0947 47.5555 20.0435 46.1304V36.3478C20.0435 31.8043 27.9565 29.8261 32 29.8261C36.0435 29.8261 43.9565 31.8043 43.9565 36.3478V46.1304C43.9052 47.5555 43.3162 48.9083 42.3079 49.9166C41.2995 50.9249 39.9468 51.5139 38.5217 51.5652V51.5652Z" fill="#404040"/>
<path d="M51.5652 53.7391V51.5652C52.9239 51.5652 54.8261 50.8913 54.8261 49.3913V39.6087C54.8261 37.1304 49.5543 35.2609 46.1304 35.2609C45.8261 35.2609 45.5 35.2609 45.1413 35.2609L44.9456 33.0869C45.3392 33.0447 45.7346 33.0229 46.1304 33.0217C49.8043 33.0217 57 35 57 39.5435V49.326C57 52.2173 54.1956 53.7391 51.5652 53.7391Z" fill="#404040"/>
<path d="M32 28.7391C28.8479 28.7391 26.5652 26.6413 26.5652 23.7392V21.7826C26.5652 18.8913 28.8479 16.7826 32 16.7826C35.1522 16.7826 37.4348 18.8913 37.4348 21.7826V23.7392C37.4348 26.6413 35.1522 28.7391 32 28.7391ZM32 18.9565C30.0544 18.9565 28.7392 20.0435 28.7392 21.7826V23.7392C28.7392 25.4348 30.0544 26.5652 32 26.5652C33.9457 26.5652 35.2609 25.4783 35.2609 23.7392V21.7826C35.2609 20.0978 33.9457 18.9565 32 18.9565Z" fill="#404040"/>
<path d="M52.6522 41.7826H50.4783V57H52.6522V41.7826Z" fill="#404040"/>
<path d="M39.6087 38.5217H37.4348V57H39.6087V38.5217Z" fill="#404040"/>
<path d="M26.5652 38.5217H24.3913V57H26.5652V38.5217Z" fill="#404040"/>
<path d="M47.2174 32C44.0652 32 41.7826 29.9022 41.7826 27V25.0435C41.7826 22.1522 44.0652 20.0435 47.2174 20.0435C50.3695 20.0435 52.6522 22.1522 52.6522 25.0435V27C52.6522 29.9022 50.3695 32 47.2174 32ZM47.2174 22.2174C45.2717 22.2174 43.9565 23.3043 43.9565 25.0435V27C43.9565 28.6957 45.2717 29.8261 47.2174 29.8261C49.163 29.8261 50.4782 28.7392 50.4782 27V25.0435C50.4782 23.3587 49.163 22.2174 47.2174 22.2174Z" fill="#404040"/>
<path d="M12.4348 53.7391C9.80435 53.7391 7 52.2174 7 49.3913V39.6087C7 35.0652 14.1957 33.0869 17.8696 33.0869C18.2654 33.0882 18.6608 33.1099 19.0543 33.1522L18.8587 35.3261C18.5109 35.3261 18.1739 35.3261 17.8696 35.3261C14.4457 35.3261 9.17391 37.1956 9.17391 39.6739V49.4566C9.17391 50.9566 11.0761 51.6305 12.4348 51.6305V53.7391Z" fill="#404040"/>
<path d="M13.5218 41.7826H11.3478V57H13.5218V41.7826Z" fill="#404040"/>
<path d="M16.7826 32C13.6304 32 11.3478 29.9022 11.3478 27V25.0435C11.3478 22.1522 13.6304 20.0435 16.7826 20.0435C19.9348 20.0435 22.2174 22.1522 22.2174 25.0435V27C22.2174 29.9022 19.9348 32 16.7826 32ZM16.7826 22.2174C14.837 22.2174 13.5218 23.3043 13.5218 25.0435V27C13.5218 28.6957 14.837 29.8261 16.7826 29.8261C18.7283 29.8261 20.0435 28.7392 20.0435 27V25.0435C20.0435 23.3587 18.7283 22.2174 16.7826 22.2174Z" fill="#404040"/>
<path d="M22.2174 18.9565C19.0652 18.9565 16.7826 16.8587 16.7826 13.9565V12C16.7826 9.10867 19.0652 7 22.2174 7C25.3695 7 27.6522 9.10867 27.6522 12V13.9565C27.6522 16.8587 25.3695 18.9565 22.2174 18.9565ZM22.2174 9.17391C20.2717 9.17391 18.9565 10.2608 18.9565 12V13.9565C18.9565 15.6522 20.2717 16.7826 22.2174 16.7826C24.163 16.7826 25.4782 15.6957 25.4782 13.9565V12C25.4782 10.3152 24.163 9.17391 22.2174 9.17391Z" fill="#404040"/>
<path d="M41.7826 18.9565C38.6305 18.9565 36.3478 16.8587 36.3478 13.9565V12C36.3478 9.10867 38.6305 7 41.7826 7C44.9348 7 47.2174 9.10867 47.2174 12V13.9565C47.2174 16.8587 44.9348 18.9565 41.7826 18.9565ZM41.7826 9.17391C39.837 9.17391 38.5218 10.2608 38.5218 12V13.9565C38.5218 15.6522 39.837 16.7826 41.7826 16.7826C43.7283 16.7826 45.0435 15.6957 45.0435 13.9565V12C45.0435 10.3152 43.7283 9.17391 41.7826 9.17391Z" fill="#404040"/>
</svg>
