<svg width="64" height="64" viewBox="0 0 64 64" fill="none" xmlns="http://www.w3.org/2000/svg">
<path d="M51.7357 41.3321H50.6954V39.2514H51.7357C52.5363 39.1713 53.2844 38.8168 53.8533 38.2479C54.4222 37.679 54.7768 36.9308 54.8568 36.1303V27.8073C54.82 26.4393 54.2602 25.1375 53.2925 24.1698C52.3248 23.2021 51.023 22.6423 49.655 22.6055H42.3724C39.4906 22.6055 37.5451 25.4145 37.0145 26.278C36.4839 27.1415 34.9338 29.3991 34.9338 29.3991L33.2276 28.2235C33.2276 28.2235 34.7465 25.9971 35.3083 25.1024C36.1614 23.6979 38.5751 20.4415 42.4348 20.4415H49.7174C51.6397 20.471 53.4749 21.2478 54.8343 22.6072C56.1937 23.9666 56.9705 25.8018 57 27.7241V36.047C56.9347 37.4241 56.3597 38.7278 55.3868 39.7045C54.4139 40.6813 53.1125 41.2614 51.7357 41.3321V41.3321Z" fill="#404040"/>
<path d="M40.2917 56.9377H38.2109V33.0092L36.9625 34.6738L35.2979 33.4254L38.419 29.2639C38.5515 29.09 38.7353 28.9622 38.9445 28.8987C39.1536 28.8352 39.3775 28.8392 39.5842 28.9102C39.7892 28.9794 39.9675 29.1108 40.0943 29.2861C40.2211 29.4614 40.2901 29.6718 40.2917 29.8881V56.9377Z" fill="#404040"/>
<path d="M51.7358 28.8477H49.655V56.9376H51.7358V28.8477Z" fill="#404040"/>
<path d="M46.534 40.2917H44.4532V56.9376H46.534V40.2917Z" fill="#404040"/>
<path d="M24.6862 56.9376H22.6055V29.8881C22.6074 29.6815 22.6707 29.4801 22.7874 29.3097C22.9042 29.1392 23.069 29.0074 23.2609 28.931C23.4534 28.8552 23.664 28.8384 23.866 28.8829C24.068 28.9274 24.2522 29.031 24.3949 29.1806L30.814 35.9326C31.1211 36.2288 31.5318 36.3931 31.9584 36.3904V36.3904C32.173 36.3909 32.3855 36.3489 32.5837 36.2667C32.782 36.1846 32.9619 36.0639 33.1132 35.9118L33.6854 35.3604C32.645 33.7479 30.0962 29.8464 29.0454 28.4315L28.5564 27.7345C27.2143 25.8202 24.9567 22.6055 21.5651 22.6055H14.2826C12.9096 22.627 11.599 23.1819 10.628 24.1529C9.65712 25.1238 9.10219 26.4344 9.08073 27.8074V36.1303C9.1608 36.9308 9.51535 37.679 10.0842 38.2479C10.6531 38.8168 11.4013 39.1713 12.2018 39.2514V41.3321C10.8496 41.2485 9.57457 40.6736 8.61658 39.7156C7.65859 38.7576 7.08367 37.4825 7 36.1303V27.8074C7.02952 25.8851 7.80626 24.0498 9.16566 22.6904C10.5251 21.331 12.3603 20.5543 14.2826 20.5248H21.5651C26.0387 20.5248 28.7853 24.4365 30.2626 26.5485L30.7204 27.1935C32.0833 29.035 35.7349 34.705 35.9222 34.9443C36.0532 35.1459 36.1102 35.3867 36.0837 35.6257C36.0571 35.8647 35.9486 36.0871 35.7766 36.2551L34.6113 37.3892C34.2651 37.7277 33.8551 37.9941 33.405 38.1727C32.9549 38.3513 32.4738 38.4386 31.9896 38.4295V38.4295C31.504 38.4377 31.0216 38.35 30.5699 38.1715C30.1183 37.9929 29.7063 37.7271 29.3575 37.3892L24.7175 32.5098L24.6862 56.9376Z" fill="#404040"/>
<path d="M13.2422 28.8477H11.1615V56.9376H13.2422V28.8477Z" fill="#404040"/>
<path d="M19.4844 40.2917H17.4037V56.9376H19.4844V40.2917Z" fill="#404040"/>
<path d="M18.444 19.4844C17.7542 19.5091 17.0668 19.3915 16.4245 19.1388C15.7822 18.8862 15.1988 18.5039 14.7107 18.0159C14.2227 17.5278 13.8404 16.9444 13.5877 16.3021C13.3351 15.6598 13.2174 14.9723 13.2422 14.2826V12.2018C13.2422 10.8222 13.7902 9.49913 14.7658 8.52359C15.7413 7.54806 17.0644 7 18.444 7C19.8236 7 21.1467 7.54806 22.1223 8.52359C23.0978 9.49913 23.6459 10.8222 23.6459 12.2018V14.2826C23.6706 14.9723 23.553 15.6598 23.3003 16.3021C23.0476 16.9444 22.6654 17.5278 22.1773 18.0159C21.6892 18.5039 21.1059 18.8862 20.4636 19.1388C19.8213 19.3915 19.1338 19.5091 18.444 19.4844V19.4844ZM18.444 9.08073C18.0278 9.05654 17.6112 9.12072 17.2216 9.26901C16.832 9.4173 16.4781 9.64635 16.1833 9.94115C15.8885 10.2359 15.6595 10.5898 15.5112 10.9794C15.3629 11.369 15.2987 11.7856 15.3229 12.2018V14.2826C15.3229 15.1103 15.6517 15.9042 16.2371 16.4895C16.8224 17.0749 17.6162 17.4037 18.444 17.4037C19.2718 17.4037 20.0657 17.0749 20.651 16.4895C21.2363 15.9042 21.5651 15.1103 21.5651 14.2826V12.2018C21.5893 11.7856 21.5252 11.369 21.3769 10.9794C21.2286 10.5898 20.9995 10.2359 20.7047 9.94115C20.4099 9.64635 20.0561 9.4173 19.6665 9.26901C19.2768 9.12072 18.8602 9.05654 18.444 9.08073V9.08073Z" fill="#404040"/>
<path d="M45.4936 19.4844C44.8038 19.5091 44.1163 19.3915 43.474 19.1388C42.8317 18.8862 42.2484 18.5039 41.7603 18.0159C41.2722 17.5278 40.89 16.9444 40.6373 16.3021C40.3846 15.6598 40.267 14.9723 40.2917 14.2826V12.2018C40.2917 10.8222 40.8398 9.49913 41.8153 8.52359C42.7909 7.54806 44.114 7 45.4936 7C46.8732 7 48.1963 7.54806 49.1718 8.52359C50.1474 9.49913 50.6954 10.8222 50.6954 12.2018V14.2826C50.7202 14.9723 50.6025 15.6598 50.3499 16.3021C50.0972 16.9444 49.7149 17.5278 49.2269 18.0159C48.7388 18.5039 48.1554 18.8862 47.5131 19.1388C46.8708 19.3915 46.1833 19.5091 45.4936 19.4844V19.4844ZM45.4936 9.08073C45.0774 9.05654 44.6608 9.12072 44.2712 9.26901C43.8815 9.4173 43.5277 9.64635 43.2329 9.94115C42.9381 10.2359 42.709 10.5898 42.5607 10.9794C42.4124 11.369 42.3483 11.7856 42.3725 12.2018V14.2826C42.3725 15.1103 42.7013 15.9042 43.2866 16.4895C43.8719 17.0749 44.6658 17.4037 45.4936 17.4037C46.3213 17.4037 47.1152 17.0749 47.7005 16.4895C48.2859 15.9042 48.6147 15.1103 48.6147 14.2826V12.2018C48.6389 11.7856 48.5747 11.369 48.4264 10.9794C48.2781 10.5898 48.0491 10.2359 47.7543 9.94115C47.4595 9.64635 47.1056 9.4173 46.716 9.26901C46.3264 9.12072 45.9098 9.05654 45.4936 9.08073V9.08073Z" fill="#404040"/>
</svg>
