<svg width="64" height="64" viewBox="0 0 64 64" fill="none" xmlns="http://www.w3.org/2000/svg">
<path d="M26.8894 55.9506H24.7906V50.5252C24.4521 50.6387 24.0981 50.6988 23.7412 50.7035C22.6279 50.7035 21.5602 50.2614 20.773 49.4741C19.9858 48.6869 19.5435 47.6192 19.5435 46.5059C19.5435 45.3926 19.9858 44.325 20.773 43.5378C21.5602 42.7506 22.6279 42.3082 23.7412 42.3082C24.0977 42.3076 24.452 42.3643 24.7906 42.4762V38.1106H26.8894V44.4071C26.9 44.6385 26.8337 44.8671 26.7008 45.0569C26.5679 45.2468 26.3759 45.3872 26.1548 45.4565C25.942 45.5236 25.7132 45.5213 25.5019 45.4496C25.2905 45.3778 25.1075 45.2405 24.9795 45.0577C24.8241 44.8796 24.6342 44.7349 24.4214 44.6321C24.2086 44.5293 23.9772 44.4706 23.7412 44.4596C23.1845 44.4596 22.6507 44.6807 22.2571 45.0743C21.8635 45.468 21.6423 46.0018 21.6423 46.5584C21.6423 47.1151 21.8635 47.6489 22.2571 48.0425C22.6507 48.4361 23.1845 48.6572 23.7412 48.6572C23.9776 48.6431 24.2089 48.582 24.4215 48.4775C24.6342 48.373 24.8238 48.2272 24.9795 48.0486C25.1077 47.8649 25.2913 47.7271 25.5035 47.6552C25.7156 47.5834 25.9452 47.5813 26.1587 47.6493C26.3721 47.7173 26.5581 47.8519 26.6896 48.0332C26.8211 48.2146 26.8911 48.4332 26.8894 48.6572V55.9506Z" fill="#404040"/>
<path d="M25.84 39.16H19.5436C19.3279 39.1599 19.1175 39.0935 18.941 38.9695C18.7645 38.8456 18.6304 38.6703 18.5571 38.4675C18.4822 38.2656 18.4712 38.0455 18.5256 37.8371C18.5801 37.6287 18.6973 37.4421 18.8614 37.3027C19.0578 37.146 19.2197 36.9505 19.3371 36.7284C19.4545 36.5063 19.5248 36.2623 19.5436 36.0118C19.5436 35.4552 19.3224 34.9213 18.9288 34.5277C18.5352 34.1341 18.0014 33.913 17.4447 33.913C16.8881 33.913 16.3542 34.1341 15.9606 34.5277C15.567 34.9213 15.3459 35.4552 15.3459 36.0118C15.3573 36.2566 15.4202 36.4963 15.5305 36.7151C15.6408 36.9339 15.796 37.1269 15.986 37.2817C16.1587 37.4156 16.2852 37.6001 16.3479 37.8094C16.4106 38.0188 16.4064 38.2424 16.336 38.4492C16.2655 38.656 16.1322 38.8357 15.9547 38.9631C15.7772 39.0906 15.5644 39.1594 15.3459 39.16H9.04944V37.0612H13.4045C13.3009 36.721 13.2479 36.3674 13.2471 36.0118C13.2471 34.8985 13.6893 33.8309 14.4765 33.0437C15.2638 32.2565 16.3314 31.8141 17.4447 31.8141C18.558 31.8141 19.6257 32.2565 20.4129 33.0437C21.2001 33.8309 21.6424 34.8985 21.6424 36.0118C21.6379 36.3679 21.5813 36.7215 21.4745 37.0612H25.84V39.16Z" fill="#404040"/>
<path d="M42.6306 57H9.04941C8.77109 57 8.50417 56.8895 8.30736 56.6927C8.11056 56.4959 8 56.2289 8 55.9506V21.32C8 21.0417 8.11056 20.7749 8.30736 20.5781C8.50417 20.3813 8.77109 20.2706 9.04941 20.2706H13.4045C13.3009 19.9304 13.2479 19.5768 13.2471 19.2212C13.2471 18.1079 13.6893 17.0403 14.4765 16.2531C15.2637 15.4659 16.3314 15.0236 17.4447 15.0236C18.558 15.0236 19.6257 15.4659 20.4129 16.2531C21.2001 17.0403 21.6423 18.1079 21.6423 19.2212C21.6379 19.5773 21.5813 19.9309 21.4744 20.2706H25.84C26.1183 20.2706 26.3852 20.3813 26.582 20.5781C26.7788 20.7749 26.8894 21.0417 26.8894 21.32V25.6856C27.3544 25.5351 27.8458 25.4835 28.3319 25.5341C28.8181 25.5847 29.2883 25.7364 29.7123 25.9795C30.4274 26.3304 31.032 26.8715 31.4597 27.5435C31.8873 28.2155 32.1215 28.9924 32.1365 29.7889C32.1172 30.8894 31.6665 31.9382 30.8813 32.7096C30.0962 33.481 29.0395 33.9131 27.9388 33.913C27.5831 33.9136 27.2293 33.8606 26.8894 33.7557V37.0612H32.1365C32.3165 37.0635 32.4929 37.1121 32.6487 37.2022C32.8046 37.2924 32.9346 37.4211 33.0263 37.576C33.118 37.731 33.1683 37.9069 33.1724 38.0869C33.1764 38.2669 33.1341 38.445 33.0494 38.6039C32.8672 38.9417 32.6639 39.2676 32.4408 39.5798C32.1574 39.9681 32.1365 40.031 32.1365 40.2094C32.1365 40.7661 32.3576 41.3 32.7512 41.6936C33.1448 42.0872 33.6786 42.3083 34.2353 42.3083C34.7919 42.3083 35.3258 42.0872 35.7194 41.6936C36.113 41.3 36.3341 40.7661 36.3341 40.2094C36.2782 39.6894 36.0223 39.2116 35.6205 38.8768C35.4657 38.7331 35.3578 38.546 35.311 38.34C35.2642 38.1341 35.2806 37.9188 35.3582 37.7223C35.4359 37.5271 35.5705 37.3597 35.7445 37.2418C35.9185 37.1239 36.1239 37.061 36.3341 37.0612H42.6306C42.9089 37.0612 43.1758 37.1718 43.3726 37.3686C43.5694 37.5654 43.68 37.8323 43.68 38.1106V55.9506C43.68 56.2289 43.5694 56.4959 43.3726 56.6927C43.1758 56.8895 42.9089 57 42.6306 57ZM10.0988 54.9012H41.5812V39.16H38.265C38.381 39.4978 38.4412 39.8523 38.4434 40.2094C38.4434 41.3227 38.0012 42.3905 37.214 43.1777C36.4268 43.9649 35.3591 44.4071 34.2458 44.4071C33.1325 44.4071 32.0648 43.9649 31.2776 43.1777C30.4904 42.3905 30.0481 41.3227 30.0481 40.2094C30.0421 39.8486 30.1137 39.4908 30.258 39.16H25.8505C25.5722 39.16 25.3052 39.0495 25.1084 38.8527C24.9116 38.6559 24.8011 38.3889 24.8011 38.1106V31.8141C24.8011 31.5939 24.8704 31.3792 24.9992 31.2005C25.128 31.0219 25.3097 30.8883 25.5186 30.8187C25.7276 30.749 25.9532 30.7468 26.1634 30.8125C26.3736 30.8782 26.5579 31.0083 26.69 31.1845C26.8372 31.3794 27.0275 31.5377 27.2459 31.647C27.4643 31.7562 27.7051 31.8133 27.9493 31.8141C28.506 31.8141 29.0398 31.5931 29.4334 31.1995C29.827 30.8059 30.0481 30.272 30.0481 29.7153C30.027 29.3083 29.8944 28.915 29.665 28.5782C29.4355 28.2413 29.1179 27.9741 28.7469 27.8054C28.2012 27.5116 27.5085 27.3542 26.648 28.2986C26.504 28.4496 26.3183 28.5542 26.1145 28.599C25.9108 28.6439 25.6983 28.627 25.5042 28.5505C25.3106 28.4734 25.1443 28.3404 25.0266 28.1685C24.9088 27.9965 24.8449 27.7935 24.8431 27.5851V22.3381H19.596C19.3803 22.338 19.1699 22.2714 18.9934 22.1474C18.8169 22.0235 18.6829 21.8482 18.6096 21.6454C18.5346 21.4435 18.5236 21.2234 18.5781 21.015C18.6325 20.8066 18.7497 20.62 18.9139 20.4806C19.1102 20.3239 19.2722 20.1284 19.3895 19.9063C19.5069 19.6842 19.5772 19.4403 19.596 19.1898C19.596 18.6332 19.3749 18.0992 18.9813 17.7056C18.5876 17.312 18.0538 17.091 17.4972 17.091C16.9405 17.091 16.4067 17.312 16.0131 17.7056C15.6195 18.0992 15.3984 18.6332 15.3984 19.1898C15.4097 19.4346 15.4726 19.6742 15.5829 19.893C15.6933 20.1118 15.8485 20.3048 16.0385 20.4596C16.2111 20.5935 16.3376 20.778 16.4003 20.9873C16.4631 21.1966 16.4589 21.4203 16.3884 21.6271C16.3179 21.8339 16.1846 22.0136 16.0072 22.141C15.8297 22.2685 15.6169 22.3374 15.3984 22.3381H10.1513L10.0988 54.9012Z" fill="#404040"/>
<path d="M44.0053 32.8635C43.8665 32.863 43.7291 32.8348 43.6012 32.7808C43.4733 32.7267 43.3574 32.6479 43.2602 32.5488L38.8107 28.0993C38.6583 27.9471 38.5563 27.7516 38.5188 27.5395C38.4812 27.3273 38.5099 27.1088 38.6009 26.9135C38.6929 26.7178 38.843 26.5553 39.0309 26.4482C39.2187 26.3411 39.435 26.2947 39.6503 26.3152C39.8991 26.3418 40.1508 26.3164 40.3892 26.2405C40.6277 26.1647 40.8478 26.04 41.0355 25.8745C41.2306 25.6796 41.3854 25.4481 41.4911 25.1933C41.5967 24.9385 41.6511 24.6654 41.6511 24.3896C41.6511 24.1138 41.5967 23.8407 41.4911 23.5859C41.3854 23.3311 41.2306 23.0996 41.0355 22.9046C40.8406 22.7095 40.6091 22.5547 40.3543 22.4491C40.0995 22.3435 39.8264 22.2891 39.5506 22.2891C39.2748 22.2891 39.0017 22.3435 38.7469 22.4491C38.4921 22.5547 38.2606 22.7095 38.0657 22.9046C37.9018 23.0892 37.7781 23.3057 37.7022 23.5405C37.6264 23.7753 37.6 24.0234 37.6249 24.2689C37.6472 24.4818 37.6039 24.6965 37.5007 24.8841C37.3976 25.0716 37.2395 25.2232 37.0477 25.3183C36.851 25.4154 36.6287 25.4484 36.4123 25.4126C36.1958 25.3768 35.996 25.2741 35.8409 25.1189L31.3914 20.6694C31.293 20.5718 31.215 20.4557 31.1617 20.3279C31.1084 20.2 31.081 20.0629 31.081 19.9243C31.081 19.7858 31.1084 19.6487 31.1617 19.5208C31.215 19.3929 31.293 19.2769 31.3914 19.1793L43.2602 7.31039C43.3578 7.21203 43.4739 7.13398 43.6017 7.0807C43.7296 7.02743 43.8668 7 44.0053 7C44.1439 7 44.281 7.02743 44.4089 7.0807C44.5368 7.13398 44.6528 7.21203 44.7504 7.31039L47.8357 10.3957C48.002 10.0821 48.2103 9.79249 48.4548 9.53514C49.2551 8.77172 50.3186 8.34584 51.4247 8.34584C52.5307 8.34584 53.5942 8.77172 54.3945 9.53514C54.7848 9.92499 55.0944 10.3879 55.3056 10.8975C55.5169 11.4071 55.6256 11.9534 55.6256 12.5051C55.6256 13.0567 55.5169 13.6029 55.3056 14.1125C55.0944 14.6221 54.7848 15.085 54.3945 15.4748C54.1447 15.7284 53.8538 15.9377 53.534 16.094L56.6193 19.2422C56.8147 19.4388 56.9244 19.7049 56.9244 19.9821C56.9244 20.2594 56.8147 20.5253 56.6193 20.7219L53.534 23.8071C53.9677 24.031 54.3502 24.3425 54.6573 24.7219C54.9643 25.1012 55.1893 25.5402 55.318 26.011C55.5783 26.7641 55.625 27.5745 55.4527 28.3526C55.2804 29.1306 54.896 29.8456 54.342 30.4185C53.5569 31.1907 52.4997 31.6235 51.3984 31.6235C50.2971 31.6235 49.24 31.1907 48.4548 30.4185C48.204 30.1679 47.9918 29.8813 47.8252 29.5684L44.7504 32.6432C44.5394 32.8093 44.2727 32.8881 44.0053 32.8635V32.8635ZM41.6651 27.9839L44.0053 30.324L47.7202 26.6196C47.8753 26.4644 48.0751 26.3616 48.2916 26.3259C48.5081 26.2901 48.7303 26.323 48.9271 26.4201C49.1169 26.5169 49.2728 26.6691 49.374 26.8566C49.4752 27.044 49.517 27.2578 49.4937 27.4695C49.4635 27.7129 49.4884 27.9601 49.5665 28.1926C49.6446 28.4251 49.774 28.637 49.945 28.8128C50.3373 29.1974 50.8648 29.4129 51.4142 29.4129C51.9635 29.4129 52.491 29.1974 52.8833 28.8128C53.1552 28.5103 53.3398 28.1397 53.4174 27.7405C53.495 27.3413 53.4628 26.9285 53.3241 26.5462C53.1352 25.9585 52.7574 25.3602 51.4562 25.3812C51.246 25.3882 51.0386 25.332 50.8609 25.2197C50.6831 25.1074 50.5432 24.9443 50.4592 24.7516C50.3766 24.5592 50.3534 24.3464 50.3927 24.1407C50.4319 23.935 50.5319 23.7457 50.6796 23.5973L54.3945 19.8823L50.6796 16.178C50.5288 16.0246 50.4289 15.8285 50.3932 15.6164C50.3575 15.4043 50.3879 15.1864 50.4802 14.9922C50.5706 14.7945 50.7201 14.6298 50.908 14.5207C51.096 14.4117 51.3132 14.3637 51.5296 14.3834C51.7793 14.4116 52.0322 14.388 52.2724 14.314C52.5125 14.2399 52.7348 14.1172 52.9253 13.9532C53.1203 13.7582 53.275 13.5267 53.3806 13.2719C53.4861 13.0171 53.5404 12.7441 53.5404 12.4683C53.5404 12.1925 53.4861 11.9194 53.3806 11.6646C53.275 11.4098 53.1203 11.1783 52.9253 10.9833C52.7303 10.7883 52.4988 10.6337 52.244 10.5282C51.9893 10.4227 51.7162 10.3683 51.4404 10.3683C51.1646 10.3683 50.8916 10.4227 50.6368 10.5282C50.382 10.6337 50.1505 10.7883 49.9555 10.9833C49.7873 11.1629 49.6607 11.3772 49.5845 11.6112C49.5084 11.8451 49.4845 12.093 49.5147 12.3371C49.5362 12.5512 49.4913 12.7666 49.3862 12.9543C49.281 13.142 49.1208 13.2929 48.9271 13.3865C48.7316 13.4812 48.5115 13.5128 48.2972 13.4771C48.0829 13.4414 47.885 13.34 47.7307 13.1871L44.0158 9.47224L33.6267 19.8613L35.9668 22.2016C36.1308 21.887 36.3433 21.6001 36.5965 21.3515C37.3968 20.5881 38.4603 20.1622 39.5663 20.1622C40.6723 20.1622 41.7359 20.5881 42.5362 21.3515C43.3212 22.1384 43.762 23.2047 43.762 24.3162C43.762 25.4277 43.3212 26.4938 42.5362 27.2807C42.2839 27.5587 41.9901 27.7959 41.6651 27.9839V27.9839Z" fill="#FA4616"/>
</svg>
