<svg width="64" height="64" viewBox="0 0 64 64" fill="none" xmlns="http://www.w3.org/2000/svg">
<path d="M36.2126 31.1807C35.932 31.1767 35.6643 31.062 35.4679 30.8616L32.9254 28.319C32.814 28.2237 32.7236 28.1063 32.6597 27.9743C32.5959 27.8423 32.5599 27.6986 32.5543 27.5521C32.5486 27.4056 32.5733 27.2595 32.6268 27.123C32.6803 26.9864 32.7614 26.8624 32.8651 26.7588C32.9688 26.6551 33.0928 26.574 33.2293 26.5205C33.3658 26.467 33.5119 26.4423 33.6584 26.448C33.8049 26.4537 33.9487 26.4895 34.0806 26.5534C34.2126 26.6172 34.33 26.7076 34.4254 26.819L36.9679 29.3616C37.166 29.5609 37.2772 29.8305 37.2772 30.1116C37.2772 30.3926 37.166 30.6623 36.9679 30.8616C36.8694 30.9621 36.7519 31.042 36.6222 31.0968C36.4926 31.1516 36.3533 31.1801 36.2126 31.1807Z" fill="#FA4616"/>
<path d="M36.2232 40.0636C36.0832 40.0644 35.9444 40.0376 35.8148 39.9847C35.6852 39.9317 35.5673 39.8537 35.4679 39.7551L28.3935 32.6807C28.2192 32.4772 28.1281 32.2154 28.1385 31.9477C28.1488 31.68 28.2598 31.426 28.4492 31.2365C28.6387 31.0471 28.8927 30.936 29.1604 30.9257C29.4282 30.9153 29.69 31.0065 29.8935 31.1807L36.9679 38.2551C37.166 38.4544 37.2772 38.7241 37.2772 39.0051C37.2772 39.2862 37.166 39.5558 36.9679 39.7551C36.7697 39.9517 36.5023 40.0625 36.2232 40.0636Z" fill="#FA4616"/>
<path d="M22.8297 34.6594C20.0944 34.6594 17.4206 33.8483 15.1463 32.3287C12.872 30.809 11.0995 28.6491 10.0527 26.1221C9.00599 23.595 8.73212 20.8144 9.26574 18.1317C9.79936 15.449 11.1165 12.9847 13.0506 11.0506C14.9847 9.11648 17.4489 7.79935 20.1316 7.26573C22.8143 6.73211 25.595 7.00602 28.1221 8.05275C30.6491 9.09949 32.809 10.8721 34.3286 13.1464C35.8483 15.4206 36.6594 18.0945 36.6594 20.8297C36.6594 24.4976 35.2023 28.0152 32.6088 30.6088C30.0152 33.2024 26.4975 34.6594 22.8297 34.6594V34.6594ZM22.8297 9.12768C20.5152 9.12768 18.2528 9.81398 16.3284 11.0998C14.404 12.3857 12.9041 14.2133 12.0184 16.3515C11.1327 18.4898 10.901 20.8427 11.3525 23.1127C11.804 25.3827 12.9185 27.4677 14.5551 29.1043C16.1916 30.7408 18.2767 31.8554 20.5467 32.3069C22.8167 32.7584 25.1696 32.5267 27.3079 31.641C29.4461 30.7553 31.2737 29.2554 32.5596 27.331C33.8454 25.4066 34.5317 23.1442 34.5317 20.8297C34.5317 17.7261 33.2988 14.7497 31.1043 12.5551C28.9097 10.3605 25.9332 9.12768 22.8297 9.12768Z" fill="#FA4616"/>
<path d="M22.8297 24.0212C22.2389 23.9969 21.659 23.8549 21.1237 23.6037C20.5885 23.3525 20.1088 22.9971 19.7125 22.5583C19.3163 22.1194 19.0116 21.606 18.8161 21.048C18.6207 20.49 18.5385 19.8986 18.5744 19.3084V18.0744C18.5744 16.9459 19.0227 15.8635 19.8207 15.0655C20.6187 14.2675 21.7011 13.8191 22.8297 13.8191C23.9582 13.8191 25.0406 14.2675 25.8386 15.0655C26.6366 15.8635 27.085 16.9459 27.085 18.0744V19.2872C27.1238 19.8791 27.0438 20.4727 26.8497 21.0332C26.6556 21.5937 26.3514 22.1097 25.9548 22.5508C25.5583 22.9919 25.0776 23.3493 24.5408 23.6018C24.0041 23.8544 23.4223 23.997 22.8297 24.0212V24.0212ZM22.8297 15.5106C22.5199 15.5399 22.2191 15.6301 21.9443 15.7761C21.6695 15.922 21.4263 16.1208 21.2286 16.361C21.0309 16.6012 20.8826 16.8781 20.7922 17.1758C20.7019 17.4735 20.6712 17.7861 20.702 18.0957V19.3084C20.702 19.8727 20.9262 20.4139 21.3252 20.8129C21.7242 21.2119 22.2654 21.4361 22.8297 21.4361C23.394 21.4361 23.9351 21.2119 24.3341 20.8129C24.7332 20.4139 24.9573 19.8727 24.9573 19.3084V18.0744C25.0136 17.4526 24.8214 16.8339 24.4226 16.3534C24.0239 15.873 23.4512 15.57 22.8297 15.5106V15.5106Z" fill="#404040"/>
<path d="M28.1488 28.2765C27.8666 28.2765 27.596 28.1644 27.3965 27.9649C27.197 27.7654 27.0849 27.4948 27.0849 27.2127V26.1489C27.0849 25.085 25.3722 24.0212 22.8296 24.0212C20.2871 24.0212 18.5744 25.085 18.5744 26.1489V27.2127C18.5744 27.4948 18.4623 27.7654 18.2628 27.9649C18.0633 28.1644 17.7927 28.2765 17.5105 28.2765C17.2284 28.2765 16.9578 28.1644 16.7583 27.9649C16.5588 27.7654 16.4467 27.4948 16.4467 27.2127V26.1489C16.4467 23.7233 19.1914 21.8936 22.8296 21.8936C26.4679 21.8936 29.2126 23.7233 29.2126 26.1489V27.2127C29.2126 27.4948 29.1005 27.7654 28.901 27.9649C28.7015 28.1644 28.4309 28.2765 28.1488 28.2765Z" fill="#404040"/>
<path d="M53.2975 56.489C53.2975 56.489 52.2337 54.6593 51.7656 53.872C50.0848 50.755 50.5742 49.1699 51.0103 47.7656C51.1178 47.4376 51.2066 47.1037 51.2763 46.7657C51.4789 43.5562 51.4077 40.3354 51.0635 37.1381C50.9146 36.4253 49.8933 36.1381 49.3082 36.0743H48.9784L48.7444 35.8402C48.0515 35.1133 47.1086 34.6761 46.1061 34.6168H45.638L45.3189 34.2552C44.4641 33.4176 43.3237 32.9348 42.1274 32.9041L41.4784 32.8083L41.2231 32.3615C41.2231 32.3615 39.9997 30.2339 39.2551 28.9786C38.9482 28.903 38.6257 28.9215 38.3295 29.0318C37.906 29.1631 37.5341 29.4234 37.2657 29.7764C37.4466 30.9254 37.6913 32.3722 37.8402 33.2339V33.3615V33.4998C37.7338 34.7658 37.0849 41.5955 37.0849 41.5955L34.9572 41.3934C34.9572 41.3934 35.5636 35.0105 35.7019 33.4466C35.5317 32.4786 35.2657 30.8828 35.0849 29.7445L35.0317 29.436L35.17 29.1382C35.5097 28.4665 36.0215 27.897 36.6532 27.4877C37.2849 27.0784 38.0139 26.844 38.7657 26.8084C39.2082 26.7552 39.6567 26.8266 40.0608 27.0146C40.4649 27.2025 40.8085 27.4996 41.0529 27.8722C41.5742 28.7977 42.3721 30.1701 42.787 30.8616C44.2037 30.9915 45.5401 31.5776 46.5955 32.5318C47.8779 32.6859 49.0778 33.2449 50.0209 34.1275C50.7624 34.2016 51.4641 34.4983 52.0337 34.9787C52.6033 35.4591 53.0142 36.1006 53.2124 36.8189C53.6087 40.2869 53.6835 43.784 53.4358 47.2657C53.3501 47.6901 53.24 48.1092 53.106 48.521C52.7337 49.7125 52.4465 50.6486 53.7018 52.9678C54.1167 53.7337 55.1805 55.5103 55.1805 55.5103L53.2975 56.489Z" fill="#404040"/>
<path d="M40.9146 56.9997C40.7222 56.9992 40.5335 56.9465 40.3686 56.8472C40.2038 56.7479 40.0689 56.6057 39.9785 56.4358L38.9147 54.3614C38.4024 53.5111 37.641 52.8389 36.7338 52.4359C35.5736 51.8577 34.559 51.0249 33.7657 49.9997C33.0636 49.0423 30.3934 41.3615 30.3934 39.0849C30.3934 38.8028 30.5055 38.5322 30.705 38.3327C30.9045 38.1332 31.1751 38.0211 31.4573 38.0211C31.7394 38.0211 32.01 38.1332 32.2095 38.3327C32.409 38.5322 32.5211 38.8028 32.5211 39.0849C32.5211 40.904 34.9785 47.9359 35.4998 48.7657C36.123 49.536 36.9073 50.1606 37.7976 50.5955C39.0639 51.1888 40.1129 52.1634 40.7976 53.3827L41.8614 55.4359C41.9284 55.5593 41.9703 55.6949 41.9846 55.8347C41.9989 55.9744 41.9854 56.1156 41.9449 56.2501C41.9043 56.3847 41.8375 56.5098 41.7483 56.6184C41.6591 56.7269 41.5493 56.8167 41.4253 56.8826C41.2675 56.9636 41.0919 57.0039 40.9146 56.9997Z" fill="#404040"/>
</svg>
