<svg width="64" height="64" viewBox="0 0 64 64" fill="none" xmlns="http://www.w3.org/2000/svg">
<path d="M24.7668 50.3086L23.3094 48.8192L23.437 48.6702C23.771 48.2671 24.1932 47.9462 24.6709 47.7322C25.1487 47.5182 25.6692 47.4169 26.1924 47.4361H41.7349C42.9477 46.9361 48.3413 41.7128 49.5541 40.3511C51.3409 37.9569 52.9515 35.436 54.3732 32.8085C53.5354 32.3811 52.5691 32.2789 51.6604 32.5214C50.2775 32.8405 49.3519 33.8086 48.1072 36.2235C48.006 36.4197 47.8461 36.5795 47.6498 36.6808L43.0221 39.0851L42.0434 37.2021L46.3732 34.9468C47.6392 32.5532 48.9158 30.9681 51.1711 30.4468C52.1062 30.168 53.1008 30.1579 54.0413 30.4175C54.9819 30.6771 55.8305 31.196 56.4902 31.9149C56.6037 32.0651 56.6753 32.2426 56.6978 32.4295C56.7202 32.6164 56.6926 32.806 56.6179 32.9787C55.0552 36.0755 53.2143 39.0238 51.1179 41.7873C51.0434 41.8617 43.7987 49.5851 41.8094 49.5851H26.1498C25.9191 49.5652 25.6872 49.6069 25.4779 49.706C25.2686 49.8051 25.0893 49.9579 24.9583 50.149L24.7668 50.3086Z" fill="#404040"/>
<path d="M39.6711 43.1702H30.0966C29.8145 43.1702 29.5439 43.0582 29.3444 42.8587C29.1448 42.6592 29.0328 42.3885 29.0328 42.1064C29.0328 41.8243 29.1448 41.5537 29.3444 41.3542C29.5439 41.1547 29.8145 41.0426 30.0966 41.0426H39.6711C41.1391 41.0426 41.7987 40.2447 41.7987 39.4468C41.7987 38.649 41.1391 37.8511 39.6711 37.8511H33.2881C32.4641 37.735 31.6975 37.3629 31.0966 36.7873C30.5985 36.3057 29.9986 35.9422 29.3413 35.7234H24.0221C22.681 35.9515 21.4455 36.5954 20.4902 37.564C18.9264 39.1278 16.2349 41.7128 16.1604 41.7447C16.0617 41.8525 15.9418 41.9387 15.8083 41.9981C15.6747 42.0574 15.5304 42.0887 15.3842 42.0898C15.2381 42.0909 15.0933 42.0618 14.9589 42.0045C14.8245 41.9471 14.7033 41.8628 14.6029 41.7566C14.5026 41.6503 14.4252 41.5246 14.3756 41.3871C14.3259 41.2496 14.3052 41.1035 14.3146 40.9576C14.324 40.8118 14.3633 40.6694 14.4301 40.5395C14.4969 40.4095 14.5898 40.2947 14.703 40.2022C14.703 40.2022 17.4477 37.6065 18.9583 36.0426C20.3009 34.6799 22.0687 33.8165 23.9689 33.5958H29.2881C30.4373 33.7438 31.5081 34.2586 32.3413 35.0639C32.647 35.3209 32.9786 35.5455 33.3306 35.7341H39.6179C42.4157 35.7341 43.8732 37.6064 43.8732 39.4575C43.8732 41.3085 42.4583 43.1702 39.6711 43.1702Z" fill="#404040"/>
<path d="M19.7668 57C19.6268 57.0008 19.488 56.9739 19.3584 56.921C19.2288 56.8681 19.1109 56.7901 19.0115 56.6915L7.30936 44.9894C7.11122 44.7901 7 44.5204 7 44.2393C7 43.9583 7.11122 43.6887 7.30936 43.4894L12.6285 38.1702C12.8278 37.9721 13.0975 37.8609 13.3785 37.8609C13.6596 37.8609 13.9292 37.9721 14.1285 38.1702L25.8306 49.8724C26.0288 50.0717 26.14 50.3413 26.14 50.6223C26.14 50.9034 26.0288 51.1731 25.8306 51.3724L20.5115 56.6915C20.3133 56.8881 20.0459 56.9988 19.7668 57ZM9.56468 44.234L19.7668 54.4362L23.5753 50.617L13.3838 40.4255L9.56468 44.234Z" fill="#404040"/>
<path d="M14.1333 43.4836L12.6288 44.988L14.7577 47.1168L16.2621 45.6124L14.1333 43.4836Z" fill="#404040"/>
<path d="M33.2881 25.0851H31.1604C30.5961 25.0851 30.055 24.861 29.656 24.462C29.2569 24.063 29.0328 23.5217 29.0328 22.9575V19.766C29.0328 19.2017 29.2569 18.6605 29.656 18.2615C30.055 17.8625 30.5961 17.6383 31.1604 17.6383H33.2881C33.8524 17.6383 34.3936 17.8625 34.7926 18.2615C35.1916 18.6605 35.4158 19.2017 35.4158 19.766V22.9575C35.4158 23.5217 35.1916 24.063 34.7926 24.462C34.3936 24.861 33.8524 25.0851 33.2881 25.0851ZM31.1604 19.766V22.9575H33.2881V19.766H31.1604Z" fill="#FA4616"/>
<path d="M43.9264 31.4681H20.5221C19.9578 31.4681 19.4167 31.244 19.0177 30.845C18.6186 30.446 18.3945 29.9047 18.3945 29.3404V21.8936C18.3945 21.6115 18.5066 21.3409 18.7061 21.1414C18.9056 20.9419 19.1762 20.8298 19.4583 20.8298C19.7405 20.8298 20.011 20.9419 20.2105 21.1414C20.4101 21.3409 20.5221 21.6115 20.5221 21.8936V29.3404H43.9264V21.8936C43.9264 21.6115 44.0385 21.3409 44.238 21.1414C44.4375 20.9419 44.7081 20.8298 44.9902 20.8298C45.2724 20.8298 45.5429 20.9419 45.7425 21.1414C45.942 21.3409 46.054 21.6115 46.054 21.8936V29.3404C46.054 29.9047 45.8299 30.446 45.4309 30.845C45.0319 31.244 44.4907 31.4681 43.9264 31.4681Z" fill="#FA4616"/>
<path d="M34.3519 21.8936V19.7659C38.1072 19.7659 41.9795 19.766 43.9263 18.2341V13.383H20.5221V18.2341C22.4689 19.766 26.3412 19.7659 30.0966 19.7659V21.8936C25.6923 21.8936 21.1497 21.8937 18.7029 19.4575C18.6043 19.3581 18.5263 19.2401 18.4734 19.1105C18.4205 18.9809 18.3936 18.8421 18.3944 18.7021V13.383C18.3944 12.8187 18.6186 12.2775 19.0176 11.8785C19.4166 11.4795 19.9578 11.2553 20.5221 11.2553H43.9263C44.4906 11.2553 45.0318 11.4795 45.4308 11.8785C45.8298 12.2775 46.054 12.8187 46.054 13.383V18.7021C46.0548 18.8421 46.028 18.9809 45.975 19.1105C45.9221 19.2401 45.8441 19.3581 45.7455 19.4575C43.3093 21.8937 38.7561 21.8936 34.3519 21.8936Z" fill="#FA4616"/>
<path d="M37.5434 12.3191H35.4157V9.12766H29.0327V12.3191H26.9051V9.12766C26.9051 8.56337 27.1293 8.02222 27.5283 7.62321C27.9273 7.22419 28.4685 7 29.0327 7H35.4157C35.98 7 36.5212 7.22419 36.9202 7.62321C37.3192 8.02222 37.5434 8.56337 37.5434 9.12766V12.3191Z" fill="#FA4616"/>
</svg>
