<svg width="64" height="64" viewBox="0 0 64 64" fill="none" xmlns="http://www.w3.org/2000/svg">
<path d="M39.3125 34.9167C38.2824 34.9167 37.2754 34.6112 36.4189 34.0389C35.5624 33.4666 34.8949 32.6532 34.5007 31.7015C34.1064 30.7498 34.0033 29.7026 34.2043 28.6923C34.4052 27.6819 34.9013 26.7539 35.6297 26.0255C36.3581 25.2971 37.2861 24.8011 38.2964 24.6001C39.3068 24.3991 40.354 24.5023 41.3057 24.8965C42.2574 25.2907 43.0708 25.9582 43.6431 26.8147C44.2154 27.6712 44.5209 28.6782 44.5209 29.7084C44.5209 31.0897 43.9721 32.4144 42.9954 33.3912C42.0186 34.3679 40.6939 34.9167 39.3125 34.9167V34.9167ZM39.3125 26.5834C38.6945 26.5834 38.0903 26.7666 37.5764 27.11C37.0625 27.4534 36.6619 27.9414 36.4254 28.5125C36.1889 29.0835 36.127 29.7118 36.2476 30.318C36.3682 30.9242 36.6658 31.481 37.1028 31.918C37.5399 32.3551 38.0967 32.6527 38.7029 32.7733C39.3091 32.8939 39.9374 32.832 40.5084 32.5954C41.0794 32.3589 41.5675 31.9584 41.9109 31.4445C42.2542 30.9306 42.4375 30.3264 42.4375 29.7084C42.4375 28.8796 42.1083 28.0847 41.5222 27.4986C40.9362 26.9126 40.1413 26.5834 39.3125 26.5834Z" fill="#404040"/>
<path d="M49.3854 44.25C49.1371 44.25 48.897 44.1614 48.7083 44L45.2812 41.0729L46.6354 39.4896L49.3333 41.7917L51.4166 39.7083L49.1146 37.0105C48.9718 36.8411 48.8867 36.6306 48.8717 36.4095C48.8567 36.1885 48.9126 35.9684 49.0312 35.7812C49.7163 34.6916 50.2128 33.4943 50.5 32.2396C50.5485 32.0216 50.6658 31.8249 50.8346 31.6786C51.0034 31.5323 51.2148 31.4441 51.4375 31.4271L54.9583 31.1459V28.2292L51.4375 27.9479C51.2162 27.9316 51.0058 27.8449 50.8372 27.7006C50.6686 27.5563 50.5504 27.362 50.5 27.1458C50.215 25.8872 49.7184 24.6861 49.0312 23.5938C48.9126 23.4067 48.8567 23.1866 48.8717 22.9656C48.8867 22.7445 48.9718 22.534 49.1146 22.3646L51.4166 19.6771L49.3333 17.5938L46.6666 19.9271C46.4984 20.0715 46.2885 20.1585 46.0674 20.1753C45.8464 20.1922 45.6257 20.1381 45.4375 20.0209C44.3493 19.3306 43.1517 18.8304 41.8958 18.5417C41.6794 18.4937 41.4838 18.378 41.3377 18.2113C41.1916 18.0445 41.1025 17.8355 41.0833 17.6146L40.8125 14.0833H37.8854L37.6042 17.6146C37.5857 17.8341 37.498 18.0421 37.3539 18.2086C37.2098 18.3752 37.0166 18.4918 36.8021 18.5417C35.5456 18.8284 34.3476 19.3288 33.2604 20.0209C33.0712 20.1406 32.8484 20.196 32.6251 20.1791C32.4018 20.1622 32.1899 20.0739 32.0208 19.9271L29.3333 17.625L27.25 19.7083L29.5521 22.3958C29.6965 22.5641 29.7834 22.774 29.8003 22.9951C29.8172 23.2161 29.763 23.4368 29.6458 23.625C28.9544 24.7151 28.4575 25.917 28.1771 27.1771C28.1266 27.3932 28.0085 27.5876 27.8399 27.7318C27.6712 27.8761 27.4609 27.9628 27.2396 27.9792L25.0937 28.1459L24.9271 26.0625L26.3333 25.9479C26.6159 24.9847 27.0036 24.0555 27.4896 23.1771L25.0417 20.3125C24.8743 20.1128 24.7879 19.8576 24.7994 19.5973C24.811 19.3369 24.9197 19.0904 25.1042 18.9063L28.5312 15.4792C28.7153 15.2948 28.9619 15.186 29.2222 15.1745C29.4825 15.1629 29.7378 15.2493 29.9375 15.4167L32.8021 17.8646C33.6805 17.3787 34.6097 16.9909 35.5729 16.7084L35.875 12.9584C35.896 12.6968 36.0149 12.4527 36.208 12.2751C36.4012 12.0974 36.6542 11.9992 36.9167 12H41.7708C42.0332 11.9992 42.2863 12.0974 42.4794 12.2751C42.6725 12.4527 42.7915 12.6968 42.8125 12.9584L43.1042 16.7084C44.0713 16.9892 45.0042 17.377 45.8854 17.8646L48.7396 15.4167C48.94 15.2463 49.1974 15.1581 49.4602 15.1697C49.723 15.1813 49.9716 15.2918 50.1562 15.4792L53.5833 18.9063C53.759 19.0983 53.8564 19.3491 53.8564 19.6094C53.8564 19.8697 53.759 20.1205 53.5833 20.3125L51.1458 23.1771C51.6328 24.0537 52.0172 24.9834 52.2916 25.9479L56.0416 26.25C56.3032 26.271 56.5472 26.3899 56.7249 26.583C56.9026 26.7762 57.0008 27.0293 57 27.2917V32.1458C57.0008 32.4082 56.9026 32.6614 56.7249 32.8545C56.5472 33.0476 56.3032 33.1665 56.0416 33.1875L52.2916 33.4792C52.021 34.445 51.6364 35.3751 51.1458 36.25L53.5833 39.1146C53.762 39.3072 53.8612 39.5602 53.8612 39.8229C53.8612 40.0856 53.762 40.3386 53.5833 40.5312L50.125 43.9479C50.0277 44.0445 49.9122 44.1208 49.7853 44.1727C49.6584 44.2245 49.5225 44.2508 49.3854 44.25Z" fill="#404040"/>
<path d="M17.4375 37C16.7283 37.0011 16.0263 36.8574 15.3746 36.5776C14.7229 36.2978 14.1352 35.8878 13.6476 35.3729C13.1599 34.8579 12.7826 34.2488 12.5387 33.5828C12.2948 32.9169 12.1895 32.2081 12.2292 31.5V30.0104C12.2292 28.6291 12.7779 27.3043 13.7547 26.3276C14.7314 25.3508 16.0562 24.8021 17.4375 24.8021C18.8189 24.8021 20.1436 25.3508 21.1204 26.3276C22.0971 27.3043 22.6458 28.6291 22.6458 30.0104V31.5C22.6856 32.2081 22.5802 32.9169 22.3363 33.5828C22.0924 34.2488 21.7151 34.8579 21.2274 35.3729C20.7398 35.8878 20.1521 36.2978 19.5004 36.5776C18.8487 36.8574 18.1467 37.0011 17.4375 37V37ZM17.4375 26.5834C17.0004 26.5813 16.5678 26.671 16.1675 26.8466C15.7672 27.0222 15.4083 27.2797 15.1137 27.6027C14.8192 27.9257 14.5958 28.3068 14.4577 28.7216C14.3197 29.1363 14.2703 29.5754 14.3125 30.0104V31.5C14.3125 32.3288 14.6418 33.1237 15.2278 33.7097C15.8139 34.2958 16.6087 34.625 17.4375 34.625C18.2663 34.625 19.0612 34.2958 19.6472 33.7097C20.2333 33.1237 20.5625 32.3288 20.5625 31.5V30.0104C20.6048 29.5754 20.5553 29.1363 20.4173 28.7216C20.2793 28.3068 20.0558 27.9257 19.7613 27.6027C19.4668 27.2797 19.1078 27.0222 18.7075 26.8466C18.3073 26.671 17.8746 26.5813 17.4375 26.5834V26.5834Z" fill="#404040"/>
<path d="M25.75 52.625H19.0312L13.5104 46L15.1146 44.6667L20.0104 50.5417H25.75C26.021 50.5634 26.2935 50.5262 26.5489 50.4327C26.8042 50.3392 27.0362 50.1916 27.2292 50C27.5753 49.5562 27.7819 49.0197 27.8229 48.4584H22.1562L14.8646 40.125H13.25C10.8437 40.125 10.2604 42.4166 10.125 43.3958C9.77083 45.8958 9.08333 51.6458 9.08333 51.7291L7 51.4791C7 51.4271 7.6875 45.6458 8.04167 43.1458C8.48958 40.0208 10.4792 38.0833 13.25 38.0833H15.8125L23.1042 46.4167H29.8125L29.9167 47.3438C30.077 48.7986 29.6745 50.2596 28.7917 51.4271C28.4004 51.8335 27.9263 52.1509 27.4014 52.3576C26.8765 52.5643 26.3133 52.6555 25.75 52.625V52.625Z" fill="#404040"/>
<path d="M36.1875 49.5H30.9792V47.4167H35.6042L40.6042 39.0834H28.4167L24.5521 44.875L22.8229 43.7188L26.9896 37.4688C27.084 37.3255 27.2123 37.2077 27.3631 37.1259C27.5139 37.0441 27.6826 37.0009 27.8542 37H42.4375C42.6221 37.0003 42.8033 37.0497 42.9625 37.143C43.1217 37.2364 43.2533 37.3704 43.3438 37.5313C43.4352 37.6896 43.4833 37.8693 43.4833 38.0521C43.4833 38.235 43.4352 38.4146 43.3438 38.5729L37.0938 48.9896C37.0007 49.1466 36.868 49.2764 36.7089 49.366C36.5499 49.4556 36.3701 49.5018 36.1875 49.5V49.5Z" fill="#FA4616"/>
<path d="M44.5208 50.5417H14.3125V52.625H44.5208V50.5417Z" fill="#404040"/>
</svg>
