<svg width="64" height="64" viewBox="0 0 64 64" fill="none" xmlns="http://www.w3.org/2000/svg">
<path d="M38.9149 55.5639H30.4043C30.1221 55.5639 29.8515 55.4518 29.652 55.2523C29.4525 55.0528 29.3404 54.7822 29.3404 54.5V33.2234C29.3404 32.9413 29.4525 32.6707 29.652 32.4712C29.8515 32.2717 30.1221 32.1596 30.4043 32.1596H38.9149C39.197 32.1596 39.4676 32.2717 39.6671 32.4712C39.8667 32.6707 39.9787 32.9413 39.9787 33.2234V54.5C39.9787 54.7822 39.8667 55.0528 39.6671 55.2523C39.4676 55.4518 39.197 55.5639 38.9149 55.5639ZM31.4681 53.4362H37.8511V34.2873H31.4681V53.4362Z" fill="#404040"/>
<path d="M47.4255 55.5638H38.9149C38.6328 55.5638 38.3622 55.4518 38.1627 55.2523C37.9632 55.0527 37.8511 54.7822 37.8511 54.5V41.7341C37.8511 41.4519 37.9632 41.1813 38.1627 40.9818C38.3622 40.7823 38.6328 40.6702 38.9149 40.6702H47.4255C47.7077 40.6702 47.9783 40.7823 48.1778 40.9818C48.3773 41.1813 48.4894 41.4519 48.4894 41.7341V54.5C48.4894 54.7822 48.3773 55.0527 48.1778 55.2523C47.9783 55.4518 47.7077 55.5638 47.4255 55.5638ZM39.9787 53.4362H46.3617V42.7979H39.9787V53.4362Z" fill="#404040"/>
<path d="M55.9362 55.5638H47.4255C47.1434 55.5638 46.8728 55.4518 46.6733 55.2523C46.4738 55.0528 46.3617 54.7822 46.3617 54.5V47.0532C46.3617 46.7711 46.4738 46.5005 46.6733 46.301C46.8728 46.1015 47.1434 45.9894 47.4255 45.9894H55.9362C56.2183 45.9894 56.4889 46.1015 56.6884 46.301C56.8879 46.5005 57 46.7711 57 47.0532V54.5C57 54.7822 56.8879 55.0528 56.6884 55.2523C56.4889 55.4518 56.2183 55.5638 55.9362 55.5638ZM48.4894 53.4362H54.8723V48.117H48.4894V53.4362Z" fill="#404040"/>
<path d="M22.9574 20.4575C22.2371 20.4452 21.5265 20.2894 20.8672 19.999C20.2078 19.7087 19.613 19.2897 19.1176 18.7666C18.6223 18.2435 18.2363 17.6268 17.9823 16.9526C17.7282 16.2784 17.6113 15.5604 17.6383 14.8404V13.3191C17.6383 11.9084 18.1987 10.5555 19.1962 9.55795C20.1938 8.56042 21.5467 8 22.9574 8C24.3682 8 25.7211 8.56042 26.7187 9.55795C27.7162 10.5555 28.2766 11.9084 28.2766 13.3191V14.8404C28.3036 15.5604 28.1867 16.2784 27.9327 16.9526C27.6786 17.6268 27.2926 18.2435 26.7973 18.7666C26.3019 19.2897 25.7071 19.7087 25.0478 19.999C24.3884 20.2894 23.6778 20.4452 22.9574 20.4575ZM22.9574 9.81916C22.5172 9.83686 22.0849 9.94175 21.6855 10.1277C21.2862 10.3137 20.9277 10.5771 20.6308 10.9027C20.334 11.2282 20.1047 11.6094 19.9562 12.0242C19.8077 12.439 19.7431 12.8792 19.766 13.3191V14.8404C19.766 15.6869 20.1022 16.4986 20.7007 17.0972C21.2993 17.6957 22.111 18.0319 22.9574 18.0319C23.8039 18.0319 24.6157 17.6957 25.2142 17.0972C25.8127 16.4986 26.1489 15.6869 26.1489 14.8404V13.3191C26.1718 12.8792 26.1072 12.439 25.9587 12.0242C25.8103 11.6094 25.581 11.2282 25.2841 10.9027C24.9873 10.5771 24.6288 10.3137 24.2294 10.1277C23.83 9.94175 23.3977 9.83686 22.9574 9.81916V9.81916Z" fill="#FA4616"/>
<path d="M19.6809 55.5639H19.5958C19.3153 55.5421 19.0548 55.4101 18.8714 55.1968C18.688 54.9835 18.5965 54.7062 18.6171 54.4256L19.766 39.5319C19.7765 39.3922 19.8144 39.256 19.8775 39.1309C19.9407 39.0059 20.0278 38.8945 20.134 38.8031C20.2402 38.7117 20.3634 38.6421 20.4964 38.5983C20.6295 38.5546 20.7699 38.5374 20.9096 38.5479C21.0493 38.5584 21.1856 38.5963 21.3107 38.6594C21.4357 38.7226 21.5471 38.8097 21.6385 38.9159C21.7299 39.0221 21.7994 39.1453 21.8432 39.2783C21.887 39.4114 21.9041 39.5518 21.8936 39.6915L20.7341 54.5851C20.7128 54.8505 20.5928 55.0982 20.3979 55.2794C20.2029 55.4605 19.9471 55.5621 19.6809 55.5639Z" fill="#FA4616"/>
<path d="M20.5106 51.5107L19.4468 49.6596L23.4787 47.3617C24.5426 46.7234 25.0851 45.3192 25.0851 42.7979V33.2234C25.0851 32.9413 25.1972 32.6707 25.3967 32.4712C25.5962 32.2717 25.8668 32.1596 26.1489 32.1596C26.4311 32.1596 26.7017 32.2717 26.9012 32.4712C27.1007 32.6707 27.2128 32.9413 27.2128 33.2234V42.7979C27.2128 44.9256 26.9362 47.8298 24.5319 49.1809L20.5106 51.5107Z" fill="#FA4616"/>
<path d="M15.5106 55.5639C15.2285 55.5639 14.9579 55.4518 14.7584 55.2523C14.5589 55.0528 14.4468 54.7822 14.4468 54.5V31.5426L14.1383 31.8511C14.0394 31.9508 13.9217 32.03 13.7921 32.084C13.6625 32.138 13.5234 32.1658 13.383 32.1658C13.2425 32.1658 13.1035 32.138 12.9739 32.084C12.8442 32.03 12.7266 31.9508 12.6277 31.8511C12.4295 31.6518 12.3183 31.3822 12.3183 31.1011C12.3183 30.8201 12.4295 30.5504 12.6277 30.3511L14.7553 28.2234C14.9035 28.0741 15.0926 27.972 15.2988 27.9301C15.505 27.8882 15.719 27.9083 15.9137 27.9881C16.1084 28.0678 16.2751 28.2034 16.3927 28.3779C16.5103 28.5523 16.5736 28.7577 16.5745 28.9681V54.5C16.5745 54.7822 16.4624 55.0528 16.2629 55.2523C16.0634 55.4518 15.7928 55.5639 15.5106 55.5639Z" fill="#FA4616"/>
<path d="M12.9788 54.4149C12.819 54.4142 12.6614 54.3775 12.5177 54.3075C12.3741 54.2375 12.248 54.136 12.149 54.0107C12.0618 53.9005 11.9972 53.7742 11.9591 53.639C11.921 53.5038 11.91 53.3624 11.9268 53.223C11.9437 53.0835 11.9879 52.9488 12.0571 52.8265C12.1263 52.7043 12.2189 52.5969 12.3298 52.5107L14.8617 50.5532C14.9691 50.4493 15.0972 50.3692 15.2375 50.3181C15.3779 50.267 15.5275 50.2461 15.6765 50.2566C15.8256 50.2672 15.9707 50.309 16.1025 50.3794C16.2343 50.4497 16.3498 50.5471 16.4415 50.665C16.5331 50.783 16.5989 50.919 16.6345 51.0641C16.6702 51.2091 16.6749 51.3601 16.6483 51.5071C16.6217 51.6541 16.5644 51.7939 16.4802 51.9173C16.396 52.0407 16.2868 52.145 16.1596 52.2234L13.6383 54.1915C13.4498 54.3379 13.2175 54.4166 12.9788 54.4149V54.4149Z" fill="#FA4616"/>
<path d="M15.5106 39.6064H14.3724C13.9061 39.6069 13.4454 39.5053 13.0227 39.3086C12.6 39.1119 12.2255 38.825 11.9255 38.4681C7.78724 33.5107 7 32.0851 7 31.0958C7 29.3085 9.80852 26.149 10.1383 25.7766L10.4787 25.3724C11.2946 24.2221 12.3653 23.276 13.6073 22.6079C14.8493 21.9399 16.2288 21.568 17.6383 21.5213H26.1489C29.6809 21.5213 30.7447 22.383 31.8723 23.5958C31.9787 23.7234 32.0958 23.8405 32.2234 23.9681L32.8404 24.5639C34.9681 26.5426 36.7872 28.4468 36.7872 30.0319C36.6942 31.3701 36.2702 32.6642 35.5532 33.7979C35.4571 33.9477 35.3249 34.071 35.1688 34.1565C35.0127 34.242 34.8376 34.287 34.6596 34.2873H25.0851C24.803 34.2873 24.5324 34.1752 24.3329 33.9757C24.1334 33.7762 24.0213 33.5056 24.0213 33.2234C23.9944 32.5177 24.1136 31.814 24.3714 31.1565C24.6292 30.499 25.02 29.9018 25.5194 29.4024C26.0188 28.903 26.616 28.5122 27.2735 28.2544C27.931 27.9966 28.6347 27.8774 29.3404 27.9043C29.6226 27.9043 29.8932 28.0164 30.0927 28.2159C30.2922 28.4154 30.4043 28.686 30.4043 28.9681C30.4043 29.2503 30.2922 29.5208 30.0927 29.7204C29.8932 29.9199 29.6226 30.0319 29.3404 30.0319C28.6686 30.0088 28.0073 30.2034 27.4551 30.5869C26.903 30.9703 26.4896 31.522 26.2766 32.1596H34.0319C34.3911 31.5035 34.6051 30.7779 34.6596 30.0319C34.6596 29.5 33.5958 28.1809 31.383 26.1064L30.7128 25.4681L30.3085 25.0426C29.5638 24.2341 29.0213 23.649 26.1489 23.649H17.6383C14.7553 23.649 13.0958 25.6064 12.1064 26.7766L11.7128 27.2234C10.6046 28.3315 9.72608 29.6474 9.12766 31.0958C9.19149 31.3936 9.86171 32.6702 13.5532 37.0851C13.6532 37.2052 13.7785 37.3018 13.9201 37.368C14.0616 37.4342 14.2161 37.4684 14.3724 37.4681H15.5106C15.7928 37.4681 16.0634 37.5802 16.2629 37.7797C16.4624 37.9792 16.5745 38.2498 16.5745 38.5319C16.5745 38.8141 16.4624 39.0847 16.2629 39.2842C16.0634 39.4837 15.7928 39.5958 15.5106 39.5958V39.6064Z" fill="#FA4616"/>
</svg>
