<svg width="64" height="64" viewBox="0 0 64 64" fill="none" xmlns="http://www.w3.org/2000/svg">
<path d="M47.948 44.686L47.6022 42.59L51.9199 41.8669V34.1432H54.0159V42.8415C54.0191 43.0927 53.932 43.3367 53.7704 43.5291C53.6089 43.7215 53.3836 43.8494 53.1356 43.8895L47.948 44.686Z" fill="#FA4616"/>
<path d="M35.655 37.371C35.4833 37.3712 35.3142 37.3293 35.1625 37.2489C35.0109 37.1685 34.8813 37.0521 34.7851 36.9099C34.6831 36.7445 34.6291 36.554 34.6291 36.3597C34.6291 36.1654 34.6831 35.9748 34.7851 35.8095L39.4173 27.5932C39.5214 27.4133 39.6766 27.2685 39.8632 27.177C40.0498 27.0856 40.2594 27.0517 40.4653 27.0797C43.3611 27.4038 46.1893 28.1745 48.8493 29.3643V29.3643C50.9423 30.2276 52.7226 31.7081 53.953 33.6087C54.0338 33.7603 54.076 33.9295 54.076 34.1012C54.076 34.273 54.0338 34.4422 53.953 34.5938C53.8752 34.7471 53.7609 34.8788 53.6202 34.9775C53.4795 35.0762 53.3166 35.1388 53.146 35.1597L35.8331 37.3605L35.655 37.371ZM40.8949 29.249L37.6357 35.0235L51.0396 33.3152C50.1112 32.4519 49.0496 31.7442 47.8956 31.2192V31.2192C45.6568 30.2161 43.2848 29.5419 40.853 29.2176L40.8949 29.249Z" fill="#FA4616"/>
<path d="M28.3714 50.0518C24.0222 50.1344 19.7035 49.3099 15.6906 47.6309C12.0331 45.9436 10.0105 43.6066 10.0105 41.039C10.0105 38.4714 12.0331 36.1239 15.6906 34.4366C20.2494 32.3406 26.6841 31.5232 32.9092 32.2777C33.0818 32.2989 33.2465 32.3627 33.3883 32.4633C33.5301 32.564 33.6446 32.6983 33.7215 32.8543C33.7985 33.0102 33.8354 33.1829 33.829 33.3567C33.8226 33.5304 33.773 33.6999 33.6848 33.8497L30.3102 39.6976L44.9088 37.895C45.1136 37.8661 45.3225 37.8984 45.509 37.9879C45.6955 38.0774 45.8513 38.2201 45.9568 38.398C46.3452 39.0039 46.5971 39.6872 46.6948 40.4002C46.7925 41.1133 46.7338 41.8391 46.5227 42.5272C45.9044 44.5393 44.018 46.3209 41.0731 47.6728C37.0509 49.3412 32.7247 50.1515 28.3714 50.0518V50.0518ZM28.3714 34.1013C24.3249 34.0217 20.3061 34.7854 16.5709 36.344C13.7413 37.6435 12.1065 39.3622 12.1065 41.039C12.1065 42.7158 13.7413 44.424 16.5709 45.734C23.079 48.7313 33.6638 48.7313 40.1719 45.734C42.5299 44.686 44.0704 43.2712 44.5001 41.8669C44.6892 41.2628 44.667 40.6123 44.4372 40.0224L28.4972 42.0032C28.2955 42.0352 28.089 42.0076 27.9028 41.9238C27.7166 41.84 27.5589 41.7037 27.4492 41.5316C27.3471 41.3662 27.2931 41.1757 27.2931 40.9814C27.2931 40.787 27.3471 40.5965 27.4492 40.4312L31.0648 34.206C30.1635 34.1327 29.2622 34.1013 28.3714 34.1013Z" fill="#404040"/>
<path d="M28.3609 57C18.0591 57 10 53.0176 10 47.9243V41.28H12.096V47.9243C12.096 51.2989 18.6355 54.904 28.3609 54.904C38.0863 54.904 44.6259 51.2989 44.6259 47.9243V41.28H46.7219V47.9243C46.7219 53.0176 38.6523 57 28.3609 57Z" fill="#404040"/>
<path d="M24.672 19.2721C23.9624 19.26 23.2623 19.1065 22.6128 18.8204C21.9632 18.5344 21.3773 18.1217 20.8893 17.6063C20.4013 17.091 20.0211 16.4835 19.7709 15.8194C19.5206 15.1552 19.4054 14.4478 19.432 13.7386V12.24C19.432 10.8503 19.984 9.51744 20.9667 8.53475C21.9494 7.55206 23.2823 7 24.672 7C26.0617 7 27.3945 7.55206 28.3772 8.53475C29.3599 9.51744 29.912 10.8503 29.912 12.24V13.7386C29.9386 14.4478 29.8234 15.1552 29.5731 15.8194C29.3229 16.4835 28.9426 17.091 28.4546 17.6063C27.9666 18.1217 27.3807 18.5344 26.7312 18.8204C26.0817 19.1065 25.3816 19.26 24.672 19.2721V19.2721ZM24.672 8.79208C24.2383 8.80952 23.8124 8.91284 23.419 9.09607C23.0255 9.27929 22.6724 9.53877 22.3799 9.85947C22.0875 10.1802 21.8617 10.5557 21.7154 10.9643C21.5692 11.373 21.5055 11.8066 21.528 12.24V13.7386C21.528 14.5725 21.8592 15.3721 22.4488 15.9618C23.0384 16.5514 23.8381 16.8826 24.672 16.8826C25.5058 16.8826 26.3055 16.5514 26.8951 15.9618C27.4847 15.3721 27.816 14.5725 27.816 13.7386V12.24C27.8385 11.8066 27.7748 11.373 27.6286 10.9643C27.4823 10.5557 27.2564 10.1802 26.964 9.85947C26.6716 9.53877 26.3184 9.27929 25.925 9.09607C25.5315 8.91284 25.1056 8.80952 24.672 8.79208V8.79208Z" fill="#404040"/>
<path d="M16.288 32.896H14.192V27.656C14.192 22.8562 16.7281 20.3201 21.528 20.3201H39.3439V21.3681C39.4122 22.557 39.0616 23.7323 38.3532 24.6896C37.6448 25.6469 36.6233 26.3258 35.4663 26.608C34.7432 26.8281 32.3223 27.8133 30.96 28.4001V30.842H28.864V27.0063L29.5032 26.7338C29.6709 26.6605 33.6952 24.9522 34.8375 24.6378C35.3765 24.535 35.8765 24.2846 36.2817 23.9146C36.6869 23.5445 36.9814 23.0693 37.1326 22.5418H21.528C17.8495 22.5418 16.288 24.1138 16.288 27.7818V32.896Z" fill="#404040"/>
<path d="M20.48 27.6561H18.384V31.8481H20.48V27.6561Z" fill="#404040"/>
</svg>
