<svg width="64" height="64" viewBox="0 0 64 64" fill="none" xmlns="http://www.w3.org/2000/svg">
<path d="M53.9141 43.2335H51.829V16.1276C51.829 15.8511 51.7192 15.5859 51.5237 15.3904C51.3282 15.1949 51.063 15.0851 50.7865 15.0851H13.2552C12.9787 15.0851 12.7136 15.1949 12.518 15.3904C12.3225 15.5859 12.2127 15.8511 12.2127 16.1276V43.2335H10.1276V16.1276C10.1276 15.2981 10.4571 14.5026 11.0437 13.916C11.6302 13.3295 12.4257 13 13.2552 13H50.7865C51.616 13 52.4115 13.3295 52.9981 13.916C53.5846 14.5026 53.9141 15.2981 53.9141 16.1276V43.2335Z" fill="#404040"/>
<path d="M51.829 50.5313H12.2127C10.8302 50.5313 9.50432 49.9821 8.52676 49.0046C7.54919 48.027 7 46.7011 7 45.3186V43.2336C7 42.9571 7.10984 42.6919 7.30535 42.4963C7.50086 42.3008 7.76604 42.191 8.04254 42.191H27.8507C28.1257 42.195 28.388 42.3074 28.5805 42.5039L30.3632 44.2761H34.6689L36.4516 42.5039C36.5482 42.4053 36.6633 42.3269 36.7904 42.2733C36.9174 42.2196 37.0539 42.1916 37.1918 42.191H55.9575C56.234 42.191 56.4991 42.3008 56.6946 42.4963C56.8902 42.6919 57 42.9571 57 43.2336V45.3186C57 46.6939 56.4566 48.0135 55.488 48.9899C54.5194 49.9663 53.2043 50.5203 51.829 50.5313ZM9.08507 44.2761V45.3186C9.08507 46.1481 9.41459 46.9437 10.0011 47.5302C10.5877 48.1168 11.3832 48.4463 12.2127 48.4463H51.829C52.6585 48.4463 53.454 48.1168 54.0406 47.5302C54.6271 46.9437 54.9566 46.1481 54.9566 45.3186V44.2761H37.661L35.8782 46.0588C35.684 46.2514 35.422 46.36 35.1485 46.3612H29.9358C29.7986 46.362 29.6626 46.3357 29.5355 46.2838C29.4085 46.2319 29.293 46.1554 29.1956 46.0588L27.3711 44.2761H9.08507Z" fill="#404040"/>
<path d="M32.688 41.9513C32.5508 41.9521 32.4148 41.9258 32.2878 41.8739C32.1608 41.822 32.0453 41.7455 31.9478 41.6489L21.168 30.8274C20.9739 30.632 20.8649 30.3679 20.8649 30.0924C20.8649 29.817 20.9739 29.5527 21.168 29.3574L23.7744 26.751L23.9516 26.553L23.6597 26.4592C23.1273 26.3426 22.6346 26.0887 22.2304 25.723C21.8263 25.3573 21.5247 24.8923 21.3557 24.3741C21.2935 23.7019 21.3798 23.0241 21.6085 22.3888C21.8371 21.7536 22.2026 21.1764 22.679 20.698C23.1554 20.2197 23.731 19.8518 24.3653 19.6205C24.9996 19.3892 25.6769 19.3001 26.3494 19.3595C26.8702 19.5303 27.337 19.835 27.7029 20.2431C28.0688 20.6511 28.3211 21.1481 28.4345 21.6843L28.5388 21.9658L28.716 21.7885L31.9478 18.5567C32.0448 18.459 32.1601 18.3815 32.2871 18.3285C32.4142 18.2756 32.5504 18.2484 32.688 18.2484C32.8257 18.2484 32.9619 18.2756 33.089 18.3285C33.216 18.3815 33.3313 18.459 33.4282 18.5567L36.7852 21.9241C37.5671 22.7164 38.3073 23.7798 37.0563 25.0517C36.7171 25.3505 36.3142 25.5681 35.8782 25.6877C35.2423 25.8963 35.0025 26.0109 34.8357 26.407C34.9129 27.0209 35.191 27.5919 35.6266 28.0313C36.0622 28.4706 36.6308 28.7535 37.2439 28.8361C37.6401 28.7214 37.7548 28.4816 37.9737 27.7936C38.0825 27.3524 38.2972 26.9446 38.5992 26.6052C38.7697 26.4063 38.9784 26.2437 39.2131 26.1273C39.4477 26.0109 39.7035 25.9429 39.9649 25.9275C40.648 26.0009 41.274 26.342 41.706 26.8761L44.1559 29.3366C44.3501 29.532 44.4591 29.7961 44.4591 30.0716C44.4591 30.347 44.3501 30.6112 44.1559 30.8065L33.3553 41.6489C33.1768 41.8271 32.9397 41.9345 32.688 41.9513V41.9513ZM23.3782 30.0976L32.688 39.4805L42.0187 30.0976L40.2986 28.367L40.1109 28.2002C40.1109 28.2731 40.0483 28.3878 40.0171 28.4817C39.9037 29.0179 39.6514 29.5149 39.2855 29.9229C38.9195 30.3309 38.4528 30.6357 37.932 30.8065C37.2587 30.8675 36.5801 30.7796 35.9446 30.549C35.309 30.3185 34.732 29.9509 34.2544 29.4723C33.7768 28.9937 33.4104 28.416 33.1812 27.7799C32.9519 27.1439 32.8654 26.4652 32.9278 25.792C33.0978 25.2725 33.4009 24.8065 33.807 24.4407C34.2131 24.0749 34.7079 23.8219 35.2423 23.7069L35.5342 23.6027L35.3465 23.415L32.7297 20.7878L30.2381 23.2899C30.025 23.5552 29.7614 23.7757 29.4625 23.9385C29.1637 24.1014 28.8356 24.2034 28.4971 24.2386V24.2386C28.2367 24.2248 27.982 24.1576 27.7488 24.041C27.5156 23.9244 27.309 23.7609 27.1418 23.5609C26.839 23.2205 26.6211 22.8132 26.5058 22.3724C26.2869 21.7365 26.1826 21.4967 25.7865 21.3299C25.4768 21.3344 25.172 21.4079 24.8943 21.545C24.6166 21.682 24.3729 21.8792 24.181 22.1222C23.9319 22.3164 23.7303 22.5647 23.5912 22.8483C23.4522 23.1318 23.3793 23.4431 23.3782 23.759C23.4929 24.1551 23.7222 24.2699 24.3582 24.4784C24.7973 24.5979 25.2036 24.8153 25.5467 25.1143C26.7873 26.3758 26.0575 27.4287 25.2756 28.2419L23.3782 30.0976Z" fill="#FA4616"/>
</svg>
