<svg width="64" height="64" viewBox="0 0 64 64" fill="none" xmlns="http://www.w3.org/2000/svg">
<path d="M51.7074 54.9584C51.4312 54.9584 51.1662 54.8486 50.9709 54.6533C50.7755 54.4579 50.6658 54.193 50.6658 53.9167H52.7491L50.6658 52.875C50.7698 51.9221 51.1297 51.015 51.7074 50.25C52.2739 49.4944 52.633 48.6039 52.7491 47.6667V37.25C52.7218 36.9831 52.6032 36.7337 52.4135 36.544C52.2237 36.3543 51.9744 36.2357 51.7074 36.2084H49.6241C49.3478 36.2084 49.0829 36.0986 48.8875 35.9033C48.6922 35.7079 48.5824 35.443 48.5824 35.1667C48.5551 34.8998 48.4366 34.6504 48.2468 34.4607C48.0571 34.2709 47.8077 34.1524 47.5408 34.125H45.4574C45.2831 34.1247 45.1117 34.0807 44.9589 33.997C44.806 33.9133 44.6766 33.7925 44.5824 33.6458C44.2645 33.3134 43.8332 33.1126 43.3741 33.0834H41.2908V31H43.3741C44.3244 31.0342 45.232 31.4031 45.9366 32.0417H47.5408C48.1817 32.0641 48.8021 32.2731 49.3258 32.6432C49.8495 33.0133 50.2537 33.5284 50.4887 34.125H51.7074C52.5296 34.1461 53.3123 34.4821 53.8938 35.0636C54.4753 35.6452 54.8113 36.4279 54.8324 37.25V47.6667C54.7312 48.9927 54.2663 50.265 53.4887 51.3438C53.1475 51.8028 52.8966 52.3224 52.7491 52.875V53.9167C52.7491 54.193 52.6393 54.4579 52.444 54.6533C52.2486 54.8486 51.9837 54.9584 51.7074 54.9584Z" fill="#404040"/>
<path d="M37.1241 53.875H35.0408V51.8854C34.5041 51.1064 33.8937 50.3808 33.2179 49.7188C32.6011 49.1148 32.0366 48.4596 31.5304 47.7604C31.0616 47.0313 28.7699 40.5521 27.8116 37.7917C27.7689 37.6822 27.7477 37.5655 27.7491 37.448C27.8036 36.9362 28.0166 36.4543 28.3584 36.0695C28.7001 35.6848 29.1536 35.4164 29.6554 35.3021C30.423 35.0694 31.2456 35.0942 31.9979 35.3725C32.7501 35.6508 33.3907 36.1675 33.822 36.8438L35.9054 40.0417L36.0616 39.8959V24.7083C36.0616 23.8795 36.3909 23.0847 36.9769 22.4986C37.563 21.9126 38.3578 21.5833 39.1866 21.5833C40.0154 21.5833 40.8103 21.9126 41.3963 22.4986C41.9824 23.0847 42.3116 23.8795 42.3116 24.7083V38.25H40.2283V24.7083C40.2283 24.4321 40.1185 24.1671 39.9232 23.9718C39.7278 23.7764 39.4629 23.6667 39.1866 23.6667C38.9104 23.6667 38.6454 23.7764 38.45 23.9718C38.2547 24.1671 38.145 24.4321 38.145 24.7083V40.3333C38.1458 40.4729 38.1185 40.6112 38.0649 40.74C38.0112 40.8689 37.9321 40.9857 37.8324 41.0834L36.4366 42.4271C36.3255 42.5333 36.1922 42.6136 36.0463 42.6623C35.9004 42.7109 35.7455 42.7267 35.5929 42.7084C35.4411 42.69 35.2953 42.6385 35.1657 42.5575C35.036 42.4765 34.9258 42.368 34.8429 42.2396L32.1137 38.0729C31.9586 37.821 31.7407 37.6137 31.4815 37.4713C31.2222 37.3289 30.9303 37.2562 30.6345 37.2604C30.3641 37.2787 30.1042 37.3726 29.8845 37.5313C31.1554 41.1354 32.9575 46.1458 33.2804 46.7083C33.7205 47.2835 34.1971 47.8298 34.7074 48.3438C36.2387 49.9688 37.1033 50.9375 37.1033 51.8437L37.1241 53.875Z" fill="#404040"/>
<path d="M46.4991 33.0417H44.4158V38.25H46.4991V33.0417Z" fill="#404040"/>
<path d="M50.6658 35.125H48.5825V39.2917H50.6658V35.125Z" fill="#404040"/>
<path d="M54.8325 57H52.7491V54.9167H35.0408V57H32.9575V53.875C32.9575 53.5987 33.0672 53.3338 33.2625 53.1384C33.4579 52.9431 33.7229 52.8333 33.9991 52.8333H53.7908C54.0671 52.8333 54.332 52.9431 54.5273 53.1384C54.7227 53.3338 54.8325 53.5987 54.8325 53.875V57Z" fill="#404040"/>
<path d="M32.9574 32H30.8741V28.875C30.8741 26.7917 27.7491 25.75 25.6658 25.75C23.5824 25.75 20.4574 26.7917 20.4574 28.875V32H18.3741V28.875C18.3741 25.4896 22.1345 23.6667 25.6658 23.6667C29.197 23.6667 32.9574 25.4896 32.9574 28.875V32Z" fill="#FA4616"/>
<path d="M25.6658 25.75C24.9882 25.7753 24.3125 25.6632 23.6794 25.4203C23.0464 25.1774 22.4691 24.8087 21.9824 24.3366C21.4956 23.8645 21.1096 23.2987 20.8475 22.6733C20.5854 22.048 20.4527 21.376 20.4574 20.6979V19.3542C20.4574 17.9728 21.0062 16.6481 21.9829 15.6713C22.9597 14.6946 24.2844 14.1458 25.6658 14.1458C27.0471 14.1458 28.3718 14.6946 29.3486 15.6713C30.3253 16.6481 30.8741 17.9728 30.8741 19.3542V20.6979C30.8788 21.376 30.7461 22.048 30.484 22.6733C30.2219 23.2987 29.8359 23.8645 29.3492 24.3366C28.8625 24.8087 28.2852 25.1774 27.6521 25.4203C27.019 25.6632 26.3434 25.7753 25.6658 25.75V25.75ZM25.6658 16.375C25.2606 16.3475 24.8542 16.4045 24.4723 16.5425C24.0904 16.6806 23.7414 16.8965 23.4475 17.1767C23.1536 17.4569 22.9212 17.7952 22.7651 18.1701C22.609 18.5449 22.5326 18.9482 22.5408 19.3542V20.6979C22.5408 21.5267 22.87 22.3216 23.456 22.9077C24.0421 23.4937 24.837 23.8229 25.6658 23.8229C26.4946 23.8229 27.2894 23.4937 27.8755 22.9077C28.4615 22.3216 28.7908 21.5267 28.7908 20.6979V19.3542C28.7989 18.9482 28.7225 18.5449 28.5664 18.1701C28.4103 17.7952 28.1779 17.4569 27.884 17.1767C27.5901 16.8965 27.2411 16.6806 26.8592 16.5425C26.4773 16.4045 26.0709 16.3475 25.6658 16.375V16.375Z" fill="#FA4616"/>
<path d="M25.6658 40.3333C22.5363 40.3331 19.4701 39.4519 16.818 37.7904C14.166 36.1289 12.0354 33.7542 10.67 30.9383C9.30459 28.1223 8.75959 24.9789 9.09738 21.8677C9.43518 18.7565 10.6421 15.8032 12.58 13.3459C14.518 10.8886 17.1086 9.02661 20.0554 7.97297C23.0022 6.91934 26.1861 6.7167 29.2427 7.38818C32.2994 8.05966 35.1051 9.57815 37.339 11.7699C39.5729 13.9616 41.1446 16.738 41.8741 19.7812L39.8429 20.2604C39.2034 17.5984 37.8275 15.1702 35.8726 13.2535C33.9178 11.3368 31.4628 10.0091 28.7887 9.42224C26.1146 8.83543 23.3293 9.01323 20.7515 9.93525C18.1737 10.8573 15.9075 12.4863 14.2121 14.636C12.5168 16.7856 11.4608 19.3691 11.165 22.0909C10.8692 24.8126 11.3454 27.5626 12.5393 30.0263C13.7332 32.49 15.5965 34.5679 17.916 36.0222C20.2356 37.4765 22.9176 38.2486 25.6554 38.25C26.0408 38.25 26.4158 38.25 26.7908 38.25L26.947 40.3333C26.5408 40.3229 26.1033 40.3333 25.6658 40.3333Z" fill="#404040"/>
</svg>
