<svg width="64" height="64" viewBox="0 0 64 64" fill="none" xmlns="http://www.w3.org/2000/svg">
<path d="M39.2335 27.8091C38.2025 27.8091 37.1947 27.5033 36.3375 26.9306C35.4803 26.3578 34.8122 25.5437 34.4176 24.5912C34.0231 23.6387 33.9199 22.5906 34.121 21.5794C34.3221 20.5683 34.8186 19.6395 35.5476 18.9105C36.2766 18.1815 37.2054 17.685 38.2166 17.4839C39.2277 17.2827 40.2758 17.386 41.2283 17.7805C42.1808 18.1751 42.9949 18.8431 43.5677 19.7003C44.1404 20.5576 44.4462 21.5654 44.4462 22.5964C44.4462 23.9789 43.897 25.3047 42.9194 26.2823C41.9419 27.2599 40.616 27.8091 39.2335 27.8091V27.8091ZM39.2335 19.4688C38.6149 19.4688 38.0102 19.6522 37.4959 19.9958C36.9816 20.3395 36.5807 20.828 36.344 21.3995C36.1072 21.971 36.0453 22.5999 36.166 23.2066C36.2867 23.8132 36.5846 24.3705 37.022 24.8079C37.4594 25.2453 38.0166 25.5432 38.6233 25.6639C39.23 25.7845 39.8589 25.7226 40.4304 25.4859C41.0019 25.2492 41.4903 24.8483 41.834 24.334C42.1777 23.8196 42.3611 23.215 42.3611 22.5964C42.3611 21.7669 42.0316 20.9714 41.4451 20.3848C40.8585 19.7983 40.063 19.4688 39.2335 19.4688V19.4688Z" fill="#FA4616"/>
<path d="M41.3603 38.2344H37.1067C36.8553 38.2372 36.6113 38.1491 36.4197 37.9862C36.2282 37.8234 36.1019 37.5968 36.0642 37.3482L35.6889 34.8774C34.5375 34.5433 33.4389 34.0484 32.4257 33.4075L33.5412 31.6456C34.5576 32.2869 35.6749 32.7521 36.8461 33.0217C37.0502 33.0673 37.2359 33.1731 37.3791 33.3256C37.5222 33.478 37.6162 33.67 37.6488 33.8766L37.9929 36.1493H40.4533L40.7973 33.8766C40.8299 33.67 40.9239 33.478 41.0671 33.3256C41.2102 33.1731 41.3959 33.0673 41.6 33.0217C42.7712 32.7521 43.8885 32.2869 44.9049 31.6456C45.0783 31.5268 45.2837 31.4632 45.4939 31.4632C45.7041 31.4632 45.9095 31.5268 46.0829 31.6456L47.9386 33.0113L49.6797 31.2703L48.314 29.4145C48.1974 29.2421 48.1352 29.0388 48.1352 28.8307C48.1352 28.6226 48.1974 28.4193 48.314 28.2469C48.9535 27.2259 49.4186 26.1055 49.6901 24.9317C49.7375 24.7295 49.8442 24.546 49.9965 24.4049C50.1488 24.2637 50.3398 24.1712 50.545 24.1393L52.8177 23.7848V21.3245L50.545 20.9805C50.3384 20.9479 50.1464 20.8538 49.994 20.7107C49.8415 20.5675 49.7356 20.3818 49.6901 20.1777C49.4205 19.0066 48.9553 17.8893 48.314 16.8729C48.1952 16.6994 48.1316 16.4941 48.1316 16.2838C48.1316 16.0736 48.1952 15.8683 48.314 15.6948L49.6797 13.8391L47.9386 12.1085L46.0829 13.4638C45.9095 13.5826 45.7041 13.6461 45.4939 13.6461C45.2837 13.6461 45.0783 13.5826 44.9049 13.4638C43.8885 12.8225 42.7712 12.3572 41.6 12.0876C41.3959 12.0421 41.2102 11.9362 41.0671 11.7838C40.9239 11.6313 40.8299 11.4393 40.7973 11.2328L40.4533 8.96003H37.9929L37.6488 11.2328C37.6162 11.4393 37.5222 11.6313 37.3791 11.7838C37.2359 11.9362 37.0502 12.0421 36.8461 12.0876C35.6749 12.3572 34.5576 12.8225 33.5412 13.4638C33.3678 13.5826 33.1625 13.6461 32.9522 13.6461C32.742 13.6461 32.5366 13.5826 32.3632 13.4638L30.5075 12.1085L28.7665 13.8391L30.1322 15.6948C30.251 15.8683 30.3145 16.0736 30.3145 16.2838C30.3145 16.4941 30.251 16.6994 30.1322 16.8729C29.4909 17.8893 29.0256 19.0066 28.756 20.1777L26.7231 19.719C26.9929 18.5493 27.4245 17.4229 28.0054 16.3724L26.5667 14.4333C26.4219 14.2332 26.3529 13.9881 26.372 13.7418C26.3911 13.4955 26.4971 13.2639 26.671 13.0885L29.6735 10.086C29.8495 9.90934 30.0831 9.80172 30.3318 9.7826C30.5804 9.76347 30.8277 9.83413 31.0287 9.98173L33.0513 11.4621C33.8889 10.9965 34.7774 10.6292 35.6993 10.3675L36.0746 7.88623C36.1123 7.63763 36.2386 7.41104 36.4302 7.2482C36.6217 7.08535 36.8657 6.99722 37.1171 7.00007H41.3707C41.6221 6.99722 41.8661 7.08535 42.0576 7.2482C42.2492 7.41104 42.3755 7.63763 42.4132 7.88623L42.799 10.3675C43.7208 10.6292 44.6094 10.9965 45.447 11.4621L47.4695 9.98173C47.6693 9.83279 47.9159 9.76036 48.1645 9.77757C48.4132 9.79478 48.6474 9.9005 48.8248 10.0756L51.8273 13.0781C52.0039 13.2541 52.1115 13.4877 52.1307 13.7364C52.1498 13.985 52.0792 14.2323 51.9316 14.4333L50.4407 16.4559C50.9053 17.2952 51.2759 18.1833 51.5458 19.1039L54.0166 19.4896C54.2652 19.5273 54.4918 19.6536 54.6547 19.8452C54.8175 20.0368 54.9056 20.2807 54.9028 20.5321V24.7857C54.9056 25.0371 54.8175 25.2811 54.6547 25.4727C54.4918 25.6642 54.2652 25.7905 54.0166 25.8282L51.5458 26.2035C51.2759 27.1241 50.9053 28.0122 50.4407 28.8516L51.9316 30.8741C52.0792 31.0751 52.1498 31.3224 52.1307 31.5711C52.1115 31.8197 52.0039 32.0533 51.8273 32.2294L48.8248 35.2319C48.6487 35.4085 48.4151 35.5162 48.1665 35.5353C47.9178 35.5544 47.6705 35.4837 47.4695 35.3361L45.447 33.8453C44.6076 34.3099 43.7196 34.6805 42.799 34.9504L42.4132 37.4212C42.3599 37.6582 42.2256 37.8691 42.0333 38.0176C41.8411 38.1661 41.603 38.2427 41.3603 38.2344Z" fill="#FA4616"/>
<path d="M14.2127 42.4045C12.8459 42.3553 11.5484 41.7903 10.5813 40.8232C9.61419 39.8561 9.04919 38.5587 9 37.1919V27.8091C9 23.7328 15.0571 21.5539 19.4253 21.5539C23.3036 21.5539 30.8932 23.4408 30.8932 27.8091V40.3195C30.8932 40.596 30.7834 40.8611 30.5879 41.0566C30.3924 41.2521 30.1272 41.362 29.8507 41.362C29.5742 41.362 29.309 41.2521 29.1135 41.0566C28.918 40.8611 28.8081 40.596 28.8081 40.3195V27.8091C28.8081 25.4321 23.1159 23.6389 19.4253 23.6389C16.0997 23.6389 11.0851 25.307 11.0851 27.8091V37.1919C11.1367 38.0044 11.4828 38.7703 12.0585 39.346C12.6343 39.9218 13.4001 40.2678 14.2127 40.3195C14.4892 40.3195 14.7544 40.4293 14.9499 40.6248C15.1454 40.8203 15.2552 41.0855 15.2552 41.362C15.2552 41.6385 15.1454 41.9036 14.9499 42.0992C14.7544 42.2947 14.4892 42.4045 14.2127 42.4045Z" fill="#404040"/>
<path d="M19.4253 20.5113C18.7341 20.5361 18.0452 20.4182 17.4016 20.165C16.7579 19.9119 16.1733 19.5288 15.6843 19.0397C15.1952 18.5507 14.8121 17.966 14.5589 17.3224C14.3057 16.6787 14.1879 15.9898 14.2126 15.2986V13.2136C14.2126 11.8311 14.7618 10.5052 15.7394 9.52765C16.717 8.55009 18.0428 8.00089 19.4253 8.00089C20.8078 8.00089 22.1337 8.55009 23.1112 9.52765C24.0888 10.5052 24.638 11.8311 24.638 13.2136V15.2986C24.6628 15.9898 24.5449 16.6787 24.2917 17.3224C24.0385 17.966 23.6555 18.5507 23.1664 19.0397C22.6773 19.5288 22.0927 19.9119 21.4491 20.165C20.8054 20.4182 20.1165 20.5361 19.4253 20.5113V20.5113ZM19.4253 10.086C19.0083 10.0617 18.5908 10.126 18.2004 10.2746C17.8099 10.4232 17.4554 10.6528 17.1599 10.9482C16.8645 11.2436 16.635 11.5981 16.4864 11.9886C16.3378 12.379 16.2735 12.7965 16.2977 13.2136V15.2986C16.2977 16.1281 16.6272 16.9236 17.2138 17.5102C17.8003 18.0967 18.5958 18.4263 19.4253 18.4263C20.2548 18.4263 21.0503 18.0967 21.6369 17.5102C22.2234 16.9236 22.5529 16.1281 22.5529 15.2986V13.2136C22.5772 12.7965 22.5129 12.379 22.3643 11.9886C22.2157 11.5981 21.9861 11.2436 21.6907 10.9482C21.3953 10.6528 21.0408 10.4232 20.6503 10.2746C20.2599 10.126 19.8424 10.0617 19.4253 10.086V10.086Z" fill="#404040"/>
<path d="M14.2127 57C13.9362 57 13.671 56.8901 13.4755 56.6946C13.28 56.4991 13.1701 56.234 13.1701 55.9575V29.8941C13.1701 29.6176 13.28 29.3524 13.4755 29.1569C13.671 28.9614 13.9362 28.8516 14.2127 28.8516C14.4892 28.8516 14.7544 28.9614 14.9499 29.1569C15.1454 29.3524 15.2552 29.6176 15.2552 29.8941V55.9575C15.2552 56.234 15.1454 56.4991 14.9499 56.6946C14.7544 56.8901 14.4892 57 14.2127 57Z" fill="#404040"/>
<path d="M25.6805 41.362C25.404 41.362 25.1389 41.2521 24.9434 41.0566C24.7479 40.8611 24.638 40.596 24.638 40.3195V29.8941C24.638 29.6176 24.7479 29.3524 24.9434 29.1569C25.1389 28.9614 25.404 28.8516 25.6805 28.8516C25.957 28.8516 26.2222 28.9614 26.4177 29.1569C26.6132 29.3524 26.7231 29.6176 26.7231 29.8941V40.3195C26.7231 40.596 26.6132 40.8611 26.4177 41.0566C26.2222 41.2521 25.957 41.362 25.6805 41.362Z" fill="#404040"/>
<path d="M25.6805 57C25.404 57 25.1389 56.8901 24.9434 56.6946C24.7479 56.4991 24.638 56.234 24.638 55.9575V49.7023C24.638 49.4258 24.7479 49.1605 24.9434 48.965C25.1389 48.7695 25.404 48.6597 25.6805 48.6597C25.957 48.6597 26.2222 48.7695 26.4177 48.965C26.6132 49.1605 26.7231 49.4258 26.7231 49.7023V55.9575C26.7231 56.234 26.6132 56.4991 26.4177 56.6946C26.2222 56.8901 25.957 57 25.6805 57Z" fill="#404040"/>
<path d="M19.4253 57C19.1488 57 18.8837 56.8901 18.6882 56.6946C18.4927 56.4991 18.3828 56.234 18.3828 55.9575V40.3195C18.3828 40.043 18.4927 39.7777 18.6882 39.5822C18.8837 39.3867 19.1488 39.2769 19.4253 39.2769C19.7018 39.2769 19.967 39.3867 20.1625 39.5822C20.3581 39.7777 20.4679 40.043 20.4679 40.3195V55.9575C20.4679 56.234 20.3581 56.4991 20.1625 56.6946C19.967 56.8901 19.7018 57 19.4253 57Z" fill="#404040"/>
<path d="M35.0634 50.7448H23.5955C23.319 50.7448 23.0538 50.6349 22.8583 50.4394C22.6628 50.2439 22.5529 49.9788 22.5529 49.7023V40.3195C22.5529 40.043 22.6628 39.7777 22.8583 39.5822C23.0538 39.3867 23.319 39.2769 23.5955 39.2769H35.0634C35.3398 39.2769 35.605 39.3867 35.8006 39.5822C35.9961 39.7777 36.1059 40.043 36.1059 40.3195V49.7023C36.1059 49.9788 35.9961 50.2439 35.8006 50.4394C35.605 50.6349 35.3398 50.7448 35.0634 50.7448ZM24.638 48.6597H34.0208V41.362H24.638V48.6597Z" fill="#404040"/>
</svg>
