<svg width="64" height="64" viewBox="0 0 64 64" fill="none" xmlns="http://www.w3.org/2000/svg">
<path d="M32.2673 45.3375C31.2712 45.331 30.3118 44.9606 29.5698 44.296C29.4592 44.2071 29.3678 44.0965 29.3014 43.971C29.235 43.8456 29.195 43.7079 29.1837 43.5664C29.1725 43.4248 29.1903 43.2825 29.2361 43.1481C29.2819 43.0137 29.3546 42.8901 29.4499 42.7849C29.5452 42.6796 29.661 42.595 29.7902 42.5362C29.9194 42.4773 30.0592 42.4454 30.2011 42.4426C30.3431 42.4398 30.4841 42.466 30.6155 42.5197C30.747 42.5733 30.866 42.6533 30.9655 42.7546C31.1979 42.9492 31.4714 43.0886 31.7654 43.1626C32.0593 43.2365 32.3662 43.2431 32.6631 43.1816C32.8273 43.1554 32.9818 43.0868 33.1114 42.9827C33.2411 42.8786 33.3414 42.7425 33.4026 42.5879C33.4549 42.4532 33.5347 42.3308 33.6369 42.2286C33.7391 42.1264 33.8615 42.0467 33.9962 41.9943C34.1276 41.937 34.2694 41.9074 34.4128 41.9074C34.5562 41.9074 34.698 41.937 34.8294 41.9943C35.0256 42.0812 35.2401 42.1189 35.4542 42.1044C35.6683 42.0899 35.8757 42.0235 36.0584 41.9109C36.2146 41.8068 36.3292 41.6714 36.3292 41.5881C36.3271 41.422 36.3648 41.2579 36.439 41.1093C36.5133 40.9608 36.6221 40.832 36.7562 40.734C36.8906 40.639 37.0456 40.5772 37.2086 40.5536C37.3715 40.5301 37.5377 40.5455 37.6935 40.5986C37.838 40.6504 37.9934 40.6643 38.1448 40.6388C38.2962 40.6133 38.4384 40.5493 38.558 40.4529C38.7077 40.3487 38.8354 40.2158 38.9337 40.0621C39.032 39.9084 39.099 39.7368 39.1308 39.5571C39.1286 39.3028 39.2196 39.0566 39.3865 38.8648C39.5534 38.6729 39.7847 38.5487 40.0369 38.5156C40.3181 38.5156 40.6826 38.3802 40.7764 38.1199C40.8048 37.9306 40.7876 37.7374 40.7259 37.5561C40.6643 37.3749 40.5602 37.211 40.4222 37.0784C40.2553 36.8703 40.1745 36.6062 40.1966 36.3403C40.2187 36.0745 40.342 35.8273 40.541 35.6496C40.74 35.472 40.9996 35.3774 41.2662 35.3856C41.5329 35.3937 41.7862 35.5038 41.9741 35.6932C42.3755 36.1093 42.6578 36.6255 42.7915 37.188C42.9252 37.7504 42.9055 38.3385 42.7344 38.8907C42.5939 39.2637 42.3696 39.5994 42.0789 39.872C41.7882 40.1447 41.4388 40.3469 41.0575 40.4632C40.8137 41.155 40.3673 41.7574 39.7765 42.1921C39.2828 42.5465 38.6965 42.7493 38.0893 42.7754C37.864 43.1608 37.5452 43.4831 37.1624 43.7127C36.4711 44.1371 35.6532 44.3066 34.8502 44.1919C34.4131 44.7149 33.8169 45.0807 33.1526 45.2334C32.8621 45.2996 32.5653 45.3345 32.2673 45.3375V45.3375Z" fill="#FA4616"/>
<path d="M23.5813 37.5472C23.4385 37.5467 23.2973 37.5169 23.1665 37.4596C23.0357 37.4023 22.9181 37.3186 22.821 37.2138C22.2821 36.7367 21.876 36.128 21.6424 35.4472C21.4088 34.7663 21.3555 34.0366 21.4879 33.3291L19.811 31.6419C19.6404 31.4426 19.5513 31.1863 19.5614 30.9242C19.5715 30.6621 19.6802 30.4135 19.8657 30.228C20.0512 30.0425 20.2998 29.9339 20.5619 29.9238C20.824 29.9136 21.0803 30.0027 21.2796 30.1733L23.3626 32.2563C23.4964 32.3899 23.5914 32.5575 23.6373 32.741C23.6831 32.9244 23.6782 33.1169 23.6229 33.2978C23.3001 34.256 23.4667 34.8289 24.3311 35.7559C24.5251 35.951 24.634 36.2149 24.634 36.4901C24.634 36.7652 24.5251 37.0291 24.3311 37.2243C24.2343 37.3258 24.118 37.4068 23.9892 37.4623C23.8603 37.5177 23.7216 37.5467 23.5813 37.5472Z" fill="#FA4616"/>
<path d="M29.8198 29.3611C29.5466 29.36 29.2847 29.2514 29.0907 29.059L25.7163 25.747C25.6185 25.6513 25.5405 25.5373 25.4868 25.4114C25.4331 25.2855 25.4047 25.1503 25.4033 25.0135C25.4018 24.8766 25.4273 24.7408 25.4783 24.6139C25.5294 24.4869 25.6049 24.3712 25.7007 24.2734C25.7964 24.1756 25.9105 24.0976 26.0363 24.0439C26.1622 23.9902 26.2974 23.9618 26.4343 23.9604C26.5711 23.9589 26.7069 23.9844 26.8339 24.0354C26.9609 24.0864 27.0766 24.162 27.1744 24.2578L30.5488 27.5696C30.6464 27.6665 30.7239 27.7817 30.7768 27.9086C30.8297 28.0355 30.8569 28.1717 30.8569 28.3092C30.8569 28.4467 30.8297 28.5828 30.7768 28.7097C30.7239 28.8366 30.6464 28.9518 30.5488 29.0486C30.3565 29.2448 30.0945 29.3572 29.8198 29.3611V29.3611Z" fill="#FA4616"/>
<path d="M41.2034 37.4013C40.9431 37.4061 40.6904 37.3132 40.4952 37.141L34.9024 32.0689L31.7779 32.8708L29.9448 33.3499C27.9972 33.8498 26.3621 32.1314 25.6955 31.0378C25.5576 30.8117 25.5109 30.5415 25.5651 30.2822C25.6193 30.023 25.7702 29.7942 25.9872 29.6422C27.9576 28.2059 30.0093 26.8845 32.132 25.6845C32.7451 25.484 33.4026 25.4623 34.0275 25.6219C34.4734 25.7209 34.9356 25.7209 35.3815 25.6219C36.2257 25.2723 37.0205 24.8137 37.7457 24.2576C37.9672 24.0963 38.2434 24.0288 38.5144 24.0697C38.7854 24.1107 39.0294 24.2567 39.1933 24.4763C39.2749 24.5864 39.3339 24.7115 39.367 24.8444C39.4001 24.9773 39.4067 25.1153 39.3864 25.2507C39.3661 25.3861 39.3193 25.5163 39.2486 25.6336C39.1779 25.751 39.0848 25.8531 38.9746 25.9344C38.0299 26.6678 36.9754 27.2478 35.8501 27.6529C35.1327 27.8063 34.3909 27.8063 33.6734 27.6529C33.4109 27.5812 33.134 27.5812 32.8715 27.6529C31.2285 28.6113 29.6364 29.6542 28.1014 30.7774C28.4868 31.1628 28.9867 31.5169 29.4241 31.3919L31.2676 30.9232L34.8815 29.965C35.0501 29.9207 35.2272 29.9194 35.3964 29.9612C35.5656 30.0031 35.7216 30.0868 35.8501 30.2045L41.0576 34.9121C41.5219 34.143 41.7835 33.2687 41.8179 32.3709C41.8107 32.1021 41.9077 31.8408 42.0887 31.6418L43.3906 30.2462C43.5784 30.0432 43.8392 29.9231 44.1156 29.9124C44.3919 29.9016 44.6613 30.0011 44.8643 30.1889C45.0673 30.3767 45.1874 30.6376 45.1982 30.914C45.2089 31.1903 45.1094 31.4596 44.9216 31.6627L43.8801 32.777C43.7508 34.4223 43.0552 35.9719 41.9116 37.1618C41.7134 37.3265 41.461 37.4119 41.2034 37.4013V37.4013Z" fill="#FA4616"/>
<path d="M32.3507 56.9918C32.2642 57.0018 32.1768 57.0018 32.0903 56.9918C30.9551 56.7002 11 46.4102 11 36.1619V16.3735C11 16.0972 11.1097 15.8324 11.305 15.6371C11.5004 15.4418 11.7653 15.332 12.0415 15.332C16.9157 15.332 29.8094 9.79125 31.5175 7.42705C31.6144 7.29437 31.7414 7.18648 31.888 7.11226C32.0346 7.03805 32.1968 6.99958 32.3611 7V7C32.5254 6.99958 32.6875 7.03805 32.8341 7.11226C32.9808 7.18648 33.1077 7.29437 33.2047 7.42705C34.8607 9.71834 47.2024 15.332 52.6599 15.332C52.9361 15.332 53.201 15.4418 53.3963 15.6371C53.5916 15.8324 53.7014 16.0972 53.7014 16.3735V37.2034C53.7014 45.6499 33.5484 56.7002 32.6111 56.9918C32.5246 57.0027 32.4371 57.0027 32.3507 56.9918ZM13.083 17.415V36.2245C13.083 44.3065 29.7469 53.6591 32.3611 54.8777C35.1211 53.5966 51.6184 43.692 51.6184 37.266V17.4775C45.911 16.9568 35.7668 12.5825 32.3611 9.64545C28.8617 12.52 18.3738 16.811 13.083 17.363V17.415Z" fill="#404040"/>
<path d="M29.1637 45.2021C28.8786 45.2066 28.5957 45.1526 28.3323 45.0433C28.069 44.934 27.8308 44.7719 27.6327 44.5668L22.4252 39.3593C22.0251 38.9523 21.801 38.4044 21.801 37.8336C21.801 37.2628 22.0251 36.7148 22.4252 36.3077L22.9147 35.8182C23.5367 35.1759 24.3852 34.8021 25.2789 34.7767C26.1652 34.7843 27.0148 35.131 27.6535 35.7454L31.278 39.3593C31.9038 39.9912 32.2549 40.8446 32.2549 41.734C32.2549 42.6233 31.9038 43.4766 31.278 44.1085L30.7989 44.5877C30.5847 44.7991 30.3284 44.963 30.0467 45.0689C29.7649 45.1747 29.4641 45.2201 29.1637 45.2021V45.2021ZM23.8417 37.8388L29.0492 43.0463L29.9032 43.7857L29.1637 43.0463L29.6428 42.5671C29.7615 42.449 29.8557 42.3086 29.92 42.154C29.9843 41.9994 30.0174 41.8337 30.0174 41.6662C30.0174 41.4988 29.9843 41.333 29.92 41.1784C29.8557 41.0238 29.7615 40.8834 29.6428 40.7653L26.0288 37.141C25.7876 36.9241 25.478 36.7989 25.154 36.7869C24.8036 36.7952 24.4706 36.9411 24.227 37.1931L23.7479 37.6721C23.7333 37.6876 23.7251 37.708 23.7251 37.7293C23.7251 37.7506 23.7333 37.7712 23.7479 37.7867L23.8417 37.8388Z" fill="#FA4616"/>
<path d="M44.8903 32.652C44.7525 32.6515 44.6162 32.6237 44.4893 32.57C44.3623 32.5164 44.2473 32.4381 44.1508 32.3397L36.5479 24.7367C36.3539 24.5416 36.2451 24.2776 36.2451 24.0025C36.2451 23.7273 36.3539 23.4634 36.5479 23.2683L40.1307 19.6855C40.3258 19.4915 40.5898 19.3826 40.8649 19.3826C41.1401 19.3826 41.404 19.4915 41.5992 19.6855L49.2125 27.2884C49.309 27.3858 49.3854 27.5011 49.4372 27.628C49.4891 27.7549 49.5153 27.8908 49.5146 28.0279C49.5134 28.3011 49.4049 28.5629 49.2125 28.7569L45.6298 32.3397C45.5333 32.4381 45.4183 32.5164 45.2914 32.57C45.1644 32.6237 45.0281 32.6515 44.8903 32.652ZM38.7559 23.9973L44.8903 30.1317L46.9733 28.0487L40.8389 21.9143L38.7559 23.9973Z" fill="#FA4616"/>
<path d="M19.8423 32.6521C19.5675 32.6482 19.3055 32.5359 19.1132 32.3397L15.5305 28.7569C15.3342 28.5646 15.2219 28.3026 15.218 28.0279C15.2186 27.8901 15.2465 27.7538 15.3001 27.6269C15.3538 27.5 15.4321 27.3849 15.5305 27.2885L23.1334 19.6855C23.2299 19.5871 23.3449 19.5087 23.4718 19.4551C23.5987 19.4015 23.7351 19.3736 23.8729 19.373C24.1476 19.3769 24.4096 19.4893 24.6019 19.6855L28.1847 23.2683C28.3786 23.4634 28.4875 23.7274 28.4875 24.0025C28.4875 24.2777 28.3786 24.5416 28.1847 24.7367L20.5817 32.3397C20.4853 32.4381 20.3702 32.5164 20.2433 32.5701C20.1164 32.6237 19.9801 32.6515 19.8423 32.6521ZM17.7593 28.0279L19.8423 30.1109L25.9767 23.9764L23.8937 21.8935L17.7593 28.0279Z" fill="#FA4616"/>
</svg>
