<svg width="64" height="64" viewBox="0 0 64 64" fill="none" xmlns="http://www.w3.org/2000/svg">
<path d="M39.739 39.2807C38.8119 39.2807 37.9056 39.0058 37.1348 38.4907C36.364 37.9757 35.7632 37.2436 35.4084 36.3871C35.0536 35.5306 34.9608 34.5881 35.1416 33.6788C35.3225 32.7695 35.7689 31.9343 36.4245 31.2788C37.08 30.6232 37.9153 30.1768 38.8245 29.9959C39.7338 29.8151 40.6763 29.9078 41.5328 30.2626C42.3893 30.6174 43.1214 31.2182 43.6364 31.9891C44.1515 32.7599 44.4264 33.6662 44.4264 34.5932C44.4237 35.8356 43.9289 37.0263 43.0505 37.9047C42.172 38.7832 40.9813 39.2779 39.739 39.2807V39.2807ZM39.739 31.9891C39.224 31.9891 38.7205 32.1419 38.2922 32.428C37.864 32.7141 37.5302 33.1208 37.3331 33.5967C37.136 34.0725 37.0844 34.5961 37.1849 35.1013C37.2854 35.6064 37.5334 36.0704 37.8976 36.4346C38.2618 36.7988 38.7258 37.0469 39.231 37.1473C39.7361 37.2478 40.2597 37.1962 40.7355 36.9991C41.2114 36.802 41.6181 36.4683 41.9042 36.04C42.1904 35.6118 42.3431 35.1083 42.3431 34.5932C42.3431 33.9026 42.0687 33.2402 41.5804 32.7519C41.092 32.2635 40.4297 31.9891 39.739 31.9891Z" fill="#404040"/>
<path d="M46.5098 56.9887C46.2675 56.9941 46.031 56.9149 45.8409 56.7647C45.6507 56.6145 45.5189 56.4027 45.4681 56.1658L43.0306 44.8118C42.739 43.4473 41.8432 42.7285 40.0411 42.3848L33.7912 41.3431C33.5927 41.3095 33.4082 41.219 33.26 41.0827L28.1559 36.4787C27.9512 36.9992 27.8934 37.5659 27.989 38.117C28.0845 38.6681 28.3296 39.1824 28.6976 39.6036L33.01 43.864L39.5932 45.8743C39.8493 45.9622 40.0611 46.1462 40.1838 46.3875C40.3065 46.6288 40.3304 46.9084 40.2505 47.1671C40.1706 47.4257 39.9932 47.6431 39.7557 47.7731C39.5183 47.9032 39.2396 47.9357 38.9786 47.8639L32.1454 45.7806C31.9865 45.7245 31.841 45.6358 31.7183 45.5202L27.3018 41.114C24.4789 38.4474 26.8226 34.3641 26.9164 34.1974C26.9937 34.0626 27.1003 33.9467 27.2283 33.8584C27.3562 33.7701 27.5024 33.7115 27.6559 33.687C27.8103 33.6628 27.9682 33.6736 28.1179 33.7187C28.2676 33.7638 28.4051 33.842 28.5205 33.9475L34.4891 39.3328L40.4369 40.3744C43.0723 40.8744 44.6035 42.2285 45.0931 44.416L47.5306 55.6971C47.5596 55.8312 47.5619 55.9696 47.5373 56.1046C47.5126 56.2396 47.4616 56.3683 47.3871 56.4835C47.3125 56.5987 47.216 56.698 47.103 56.7758C46.99 56.8536 46.8627 56.9082 46.7285 56.9366L46.5098 56.9887Z" fill="#404040"/>
<path d="M37.1349 56.9887C36.8912 56.9936 36.6535 56.9129 36.4632 56.7606C36.2728 56.6084 36.1419 56.3942 36.0932 56.1554L34.0099 45.8014C33.9827 45.6666 33.9824 45.5277 34.009 45.3928C34.0357 45.2579 34.0888 45.1296 34.1653 45.0154C34.2418 44.9011 34.3402 44.8031 34.4548 44.7271C34.5693 44.651 34.6978 44.5984 34.8328 44.5722C34.9669 44.5449 35.105 44.5441 35.2394 44.5701C35.3737 44.5962 35.5016 44.6484 35.6157 44.7238C35.7299 44.7993 35.828 44.8965 35.9046 45.0099C35.9812 45.1233 36.0346 45.2506 36.062 45.3847L38.1453 55.7491C38.1975 56.0183 38.1415 56.2972 37.9894 56.5254C37.8373 56.7535 37.6014 56.9125 37.3328 56.9678C37.2681 56.984 37.2015 56.9911 37.1349 56.9887V56.9887Z" fill="#404040"/>
<path d="M16.2707 42.4056C15.3436 42.4056 14.4373 42.1307 13.6665 41.6157C12.8956 41.1006 12.2948 40.3685 11.9401 39.512C11.5853 38.6555 11.4925 37.713 11.6733 36.8038C11.8542 35.8945 12.3006 35.0593 12.9562 34.4037C13.6117 33.7482 14.4469 33.3017 15.3562 33.1209C16.2655 32.94 17.208 33.0328 18.0645 33.3876C18.921 33.7423 19.6531 34.3432 20.1681 35.114C20.6832 35.8848 20.9581 36.7911 20.9581 37.7182C20.9581 38.9614 20.4642 40.1537 19.5852 41.0327C18.7061 41.9118 17.5139 42.4056 16.2707 42.4056ZM16.2707 35.1141C15.7556 35.1141 15.2521 35.2668 14.8239 35.5529C14.3957 35.8391 14.0619 36.2458 13.8648 36.7216C13.6677 37.1975 13.6161 37.7211 13.7166 38.2262C13.8171 38.7314 14.0651 39.1954 14.4293 39.5596C14.7935 39.9238 15.2575 40.1718 15.7626 40.2723C16.2678 40.3728 16.7914 40.3212 17.2672 40.1241C17.7431 39.927 18.1498 39.5932 18.4359 39.165C18.7221 38.7367 18.8748 38.2332 18.8748 37.7182C18.8748 37.0275 18.6004 36.3652 18.1121 35.8768C17.6237 35.3884 16.9613 35.1141 16.2707 35.1141Z" fill="#404040"/>
<path d="M8.06251 56.9887C7.94843 57.0038 7.83286 57.0038 7.71877 56.9887C7.58835 56.9442 7.46805 56.8743 7.36484 56.783C7.26163 56.6917 7.17756 56.5809 7.11749 56.4569C7.05743 56.3329 7.02256 56.1982 7.01491 56.0606C7.00726 55.923 7.02699 55.7853 7.07294 55.6554L9.8854 47.5409C10.6146 45.4576 11.6666 43.4993 15.7499 43.4993H27.208C27.361 43.4991 27.5122 43.5326 27.6509 43.5974C27.7895 43.6622 27.9121 43.7568 28.0101 43.8744C28.1083 43.9933 28.1788 44.1325 28.2167 44.282C28.2545 44.4316 28.2586 44.5876 28.2288 44.7389C28.2288 44.9264 27.3018 49.343 23.0206 49.8639L15.9061 50.7284C15.6299 50.7615 15.3517 50.6836 15.133 50.5117C14.9142 50.3398 14.7726 50.088 14.7395 49.8117C14.7063 49.5355 14.7843 49.2574 14.9562 49.0386C15.1281 48.8198 15.3799 48.6782 15.6561 48.6451L22.7706 47.7806C23.408 47.6897 24.012 47.4385 24.5257 47.0504C25.0395 46.6623 25.4463 46.1501 25.708 45.5618H15.7499C12.927 45.5618 12.4583 46.5201 11.8541 48.2076L9.04166 56.322C8.96549 56.5195 8.83099 56.689 8.65608 56.8081C8.48116 56.9272 8.27412 56.9902 8.06251 56.9887V56.9887Z" fill="#404040"/>
<path d="M16.2186 56.9887C16.0979 56.9874 15.9783 56.9663 15.8644 56.9262C15.6048 56.8322 15.3932 56.6389 15.276 56.3889C15.1588 56.1389 15.1456 55.8526 15.2395 55.5929L17.6353 48.9472C17.7293 48.6876 17.9225 48.4759 18.1725 48.3588C18.4226 48.2416 18.7089 48.2284 18.9686 48.3222C19.098 48.3677 19.2173 48.4384 19.3193 48.5302C19.4214 48.6219 19.5044 48.7329 19.5634 48.8568C19.6225 48.9807 19.6564 49.1151 19.6634 49.2521C19.6704 49.3892 19.6502 49.5263 19.604 49.6555L17.1978 56.3013C17.125 56.5026 16.9919 56.6766 16.8167 56.7996C16.6415 56.9226 16.4327 56.9886 16.2186 56.9887V56.9887Z" fill="#404040"/>
<path d="M10.7083 35.562L7.96874 35.3745C7.7053 35.356 7.45873 35.2382 7.27888 35.0448C7.09904 34.8514 6.99936 34.5969 7.00001 34.3328V29.7079C6.99916 29.4455 7.0974 29.1925 7.27507 28.9994C7.45274 28.8062 7.69675 28.6873 7.95832 28.6663L9.95829 28.5204C10.1877 27.7383 10.4948 26.9811 10.8749 26.2601L9.57288 24.7601C9.39124 24.5669 9.29011 24.3117 9.29011 24.0466C9.29011 23.7814 9.39124 23.5262 9.57288 23.333L12.8332 20.0623C13.0192 19.8764 13.2686 19.7677 13.5313 19.7581C13.7941 19.7484 14.0508 19.8385 14.2499 20.0102L15.8228 21.3227C16.5391 20.9272 17.2972 20.6127 18.0831 20.3852L18.2186 18.3852C18.237 18.1218 18.3549 17.8752 18.5483 17.6954C18.7417 17.5155 18.9961 17.4158 19.2602 17.4165H23.8851C24.1492 17.4158 24.4037 17.5155 24.5971 17.6954C24.7904 17.8752 24.9083 18.1218 24.9268 18.3852L25.0726 20.3748C25.8711 20.6091 26.6427 20.9268 27.3746 21.3227L28.8746 20.0102C29.0737 19.8385 29.3304 19.7484 29.5932 19.7581C29.8559 19.7677 30.1053 19.8764 30.2913 20.0623L33.5725 23.3226C33.7583 23.5086 33.867 23.758 33.8767 24.0208C33.8863 24.2835 33.7963 24.5402 33.6245 24.7393L32.2704 26.2184C32.6554 26.9361 32.9694 27.6896 33.2079 28.4684L35.1974 28.6038L35.062 30.6871L32.3225 30.4996C32.1012 30.4832 31.8908 30.3965 31.7222 30.2523C31.5536 30.108 31.4354 29.9136 31.385 29.6975C31.1295 28.6213 30.7003 27.594 30.1142 26.6559C29.9945 26.4667 29.939 26.2439 29.9559 26.0206C29.9728 25.7974 30.0612 25.5854 30.2079 25.4163L31.3642 24.0831L29.4579 22.1873L28.1246 23.406C27.9564 23.5504 27.7465 23.6373 27.5254 23.6542C27.3044 23.671 27.0837 23.617 26.8955 23.4997C25.955 22.9158 24.9234 22.4933 23.8435 22.2498C23.6273 22.1993 23.433 22.0812 23.2887 21.9125C23.1444 21.7439 23.0578 21.5336 23.0414 21.3122L22.906 19.5415H20.2289L20.0831 21.3227C20.0667 21.544 19.9801 21.7543 19.8358 21.923C19.6915 22.0916 19.4972 22.2097 19.281 22.2602C18.2025 22.5085 17.174 22.9381 16.2394 23.531C16.0512 23.6482 15.8306 23.7023 15.6095 23.6855C15.3884 23.6686 15.1785 23.5816 15.0103 23.4372L13.6666 22.281L11.7812 24.1768L12.9582 25.4893C13.1042 25.6563 13.1931 25.8657 13.2118 26.0868C13.2306 26.3079 13.1782 26.5291 13.0624 26.7184C12.4762 27.654 12.0535 28.6825 11.8124 29.76C11.7639 29.978 11.6466 30.1748 11.4778 30.3211C11.309 30.4674 11.0977 30.5555 10.8749 30.5725L9.10414 30.6975V33.385L10.8645 33.51L10.7083 35.562Z" fill="#404040"/>
<path d="M23.656 36.6974L22.8435 34.7703C23.4977 34.4957 24.0366 34.0032 24.3689 33.3763C24.7012 32.7495 24.8064 32.0269 24.6665 31.3314C24.5267 30.6358 24.1505 30.0101 23.6017 29.5604C23.053 29.1106 22.3655 28.8647 21.656 28.8642C21.0343 28.8706 20.4286 29.0624 19.9165 29.415C19.4043 29.7675 19.009 30.2649 18.7811 30.8433L16.8332 30.1038C17.126 29.2836 17.6199 28.5499 18.2696 27.9699C18.9192 27.3899 19.704 26.9821 20.552 26.7838C21.4 26.5854 22.2842 26.6029 23.1237 26.8345C23.9632 27.0662 24.7312 27.5048 25.3575 28.11C25.9837 28.7152 26.4482 29.4678 26.7084 30.2989C26.9687 31.13 27.0163 32.0131 26.8471 32.8674C26.6778 33.7217 26.297 34.5199 25.7395 35.189C25.1821 35.8581 24.4657 36.3767 23.656 36.6974V36.6974Z" fill="#404040"/>
<path d="M49.7597 36.6557C49.5079 36.6582 49.2636 36.5694 49.0722 36.4057L47.3223 34.8641C46.8996 35.0953 46.465 35.3039 46.0202 35.4891L45.2181 33.562C45.796 33.3233 46.3535 33.0376 46.8848 32.7079C47.074 32.5882 47.2968 32.5327 47.5201 32.5496C47.7433 32.5665 47.9552 32.6549 48.1243 32.8017L49.6972 34.1558L51.968 31.8746L50.6034 30.3121C50.4551 30.1442 50.3648 29.9329 50.346 29.7096C50.3272 29.4863 50.381 29.2629 50.4993 29.0725C51.1607 28.0154 51.6364 26.8528 51.9055 25.6351C51.9565 25.4174 52.0762 25.2219 52.2469 25.0774C52.4176 24.933 52.6302 24.8473 52.8534 24.833L54.9367 24.6767V21.4581L52.8534 21.3227C52.6302 21.3084 52.4176 21.2228 52.2469 21.0783C52.0762 20.9339 51.9565 20.7383 51.9055 20.5206C51.6272 19.3025 51.1447 18.1402 50.4784 17.0832C50.3612 16.895 50.3071 16.6743 50.324 16.4532C50.3408 16.2322 50.4278 16.0222 50.5722 15.854L51.9368 14.2707L49.6555 12.0103L48.0827 13.3749C47.9156 13.5209 47.7063 13.6098 47.4852 13.6285C47.2641 13.6472 47.0428 13.5949 46.8535 13.4791C45.7925 12.8229 44.6314 12.3443 43.4161 12.0624C43.198 12.0139 43.0013 11.8966 42.855 11.7278C42.7087 11.559 42.6206 11.3476 42.6036 11.1249L42.4578 9.04163H39.2286L39.0828 11.1249C39.0686 11.3481 38.9829 11.5607 38.8385 11.7314C38.694 11.9022 38.4985 12.0218 38.2807 12.0728C37.0659 12.3513 35.9071 12.8338 34.8537 13.4999C34.6655 13.6171 34.4449 13.6712 34.2238 13.6543C34.0027 13.6375 33.7928 13.5505 33.6246 13.4061L32.0413 12.0416L29.7705 14.3228L31.1455 15.8957C31.2898 16.0639 31.3768 16.2738 31.3937 16.4949C31.4105 16.716 31.3564 16.9366 31.2392 17.1248C30.9113 17.6608 30.6257 18.2215 30.385 18.8019L28.4163 18.0519C28.6038 17.6074 28.8122 17.17 29.0413 16.7394L27.5205 14.9999C27.3419 14.8072 27.2426 14.5542 27.2426 14.2915C27.2426 14.0288 27.3419 13.7758 27.5205 13.5832L31.1559 9.92703C31.3418 9.74116 31.5912 9.63251 31.854 9.62285C32.1167 9.61319 32.3734 9.70325 32.5725 9.87496L34.3225 11.3853C35.1594 10.9175 36.0471 10.5471 36.9683 10.2812L37.1245 7.97916C37.1405 7.71387 37.2572 7.46469 37.4509 7.28267C37.6445 7.10064 37.9004 6.99952 38.1662 7H43.3744C43.6385 6.99936 43.893 7.09904 44.0863 7.27888C44.2797 7.45873 44.3976 7.70529 44.4161 7.96873L44.5931 10.2708C45.5076 10.529 46.3939 10.8779 47.2389 11.3124L49.0097 9.86454C49.2023 9.6859 49.4553 9.58664 49.718 9.58664C49.9807 9.58664 50.2337 9.6859 50.4264 9.86454L54.0825 13.4999C54.2642 13.6931 54.3653 13.9482 54.3653 14.2134C54.3653 14.4786 54.2642 14.7337 54.0825 14.9269L52.5722 16.6665C53.0363 17.5052 53.4066 18.3925 53.6763 19.3123L55.9783 19.4685C56.2418 19.487 56.4884 19.6049 56.6682 19.7982C56.8481 19.9916 56.9477 20.2461 56.9471 20.5102V25.6663C56.9477 25.9304 56.8481 26.1849 56.6682 26.3783C56.4884 26.5716 56.2418 26.6895 55.9783 26.708L53.6763 26.8747C53.4199 27.7897 53.0709 28.6762 52.6347 29.5204L54.145 31.26C54.3267 31.4532 54.4278 31.7083 54.4278 31.9735C54.4278 32.2387 54.3267 32.4938 54.145 32.687L50.5097 36.3328C50.4129 36.4344 50.2965 36.5153 50.1677 36.5708C50.0388 36.6263 49.9 36.6552 49.7597 36.6557V36.6557Z" fill="#FA4616"/>
<path d="M40.9161 28.708C39.8139 28.708 38.7364 28.3811 37.82 27.7687C36.9035 27.1564 36.1893 26.286 35.7675 25.2677C35.3457 24.2494 35.2353 23.129 35.4503 22.0479C35.6654 20.9669 36.1961 19.9739 36.9755 19.1945C37.7549 18.4152 38.7479 17.8844 39.8289 17.6694C40.9099 17.4544 42.0304 17.5647 43.0487 17.9865C44.067 18.4083 44.9374 19.1226 45.5497 20.039C46.1621 20.9555 46.4889 22.0329 46.4889 23.1351C46.4861 24.6123 45.8981 26.0281 44.8536 27.0726C43.8091 28.1171 42.3932 28.7052 40.9161 28.708ZM40.9161 19.6456C40.2259 19.6456 39.5513 19.8503 38.9774 20.2337C38.4036 20.6171 37.9563 21.1621 37.6922 21.7997C37.4281 22.4374 37.359 23.139 37.4936 23.8159C37.6283 24.4928 37.9606 25.1146 38.4486 25.6026C38.9366 26.0906 39.5584 26.423 40.2353 26.5576C40.9122 26.6922 41.6138 26.6232 42.2515 26.359C42.8891 26.0949 43.4341 25.6476 43.8175 25.0738C44.2009 24.4999 44.4056 23.8253 44.4056 23.1351C44.4056 22.2096 44.038 21.3221 43.3835 20.6677C42.7291 20.0133 41.8416 19.6456 40.9161 19.6456Z" fill="#FA4616"/>
</svg>
