<svg width="64" height="64" viewBox="0 0 64 64" fill="none" xmlns="http://www.w3.org/2000/svg">
<path d="M21.6999 44.2271C20.9757 44.2283 20.259 44.0815 19.5935 43.7958C18.9281 43.5101 18.328 43.0915 17.8301 42.5657C17.3321 42.0399 16.9468 41.4179 16.6978 40.7379C16.4487 40.0579 16.3412 39.3342 16.3818 38.6111V37.0901C16.3818 35.6797 16.9421 34.327 17.9394 33.3296C18.9368 32.3323 20.2895 31.772 21.6999 31.772C23.1104 31.772 24.4631 32.3323 25.4604 33.3296C26.4578 34.327 27.0181 35.6797 27.0181 37.0901V38.6111C27.0586 39.3342 26.9511 40.0579 26.7021 40.7379C26.453 41.4179 26.0677 42.0399 25.5698 42.5657C25.0718 43.0915 24.4718 43.5101 23.8063 43.7958C23.1409 44.0815 22.4241 44.2283 21.6999 44.2271V44.2271ZM21.6999 33.5908C21.256 33.5967 20.8181 33.6936 20.4132 33.8756C20.0083 34.0576 19.645 34.3207 19.3459 34.6488C19.0468 34.9768 18.8182 35.3627 18.6742 35.7827C18.5303 36.2026 18.4741 36.6476 18.509 37.0901V38.6111C18.509 39.4574 18.8452 40.269 19.4436 40.8674C20.042 41.4659 20.8536 41.802 21.6999 41.802C22.5462 41.802 23.3578 41.4659 23.9562 40.8674C24.5546 40.269 24.8908 39.4574 24.8908 38.6111V37.0901C24.9258 36.6476 24.8696 36.2026 24.7256 35.7827C24.5817 35.3627 24.3531 34.9768 24.0539 34.6488C23.7548 34.3207 23.3916 34.0576 22.9867 33.8756C22.5818 33.6936 22.1438 33.5967 21.6999 33.5908V33.5908Z" fill="#404040"/>
<path d="M12.1273 56.9908H11.8614C11.5898 56.9206 11.357 56.7459 11.2136 56.5049C11.0701 56.2639 11.0277 55.9759 11.0955 55.7038L13.2228 47.1947C14.0312 43.8443 15.8074 42.1318 18.541 42.1318H19.7003C20.1536 42.1282 20.6024 42.2212 21.0169 42.4046C21.4313 42.588 21.802 42.8576 22.1041 43.1954L28.571 50.6409H35.4208L35.5272 51.5875C35.6965 53.0735 35.2849 54.5674 34.3785 55.7569C33.9733 56.1829 33.4792 56.5144 32.9314 56.7276C32.3835 56.9409 31.7954 57.0307 31.2088 56.9908H24.4016L18.775 51.3642C18.6636 51.2688 18.5732 51.1515 18.5094 51.0195C18.4455 50.8875 18.4096 50.7438 18.404 50.5973C18.3983 50.4509 18.423 50.3048 18.4765 50.1683C18.53 50.0318 18.6111 49.9078 18.7147 49.8042C18.8184 49.7005 18.9423 49.6194 19.0788 49.5659C19.2153 49.5125 19.3614 49.4878 19.5079 49.4934C19.6544 49.4991 19.7981 49.535 19.93 49.5988C20.062 49.6627 20.1793 49.7531 20.2747 49.8644L25.2844 54.8635H31.2088C31.4855 54.885 31.7636 54.8467 32.0242 54.7513C32.2848 54.6558 32.5218 54.5055 32.7192 54.3104C33.0694 53.8563 33.2767 53.3084 33.3148 52.7362H27.5287L20.4236 44.5995C20.3249 44.4841 20.2027 44.3911 20.0651 44.3269C19.9275 44.2627 19.7777 44.2287 19.6259 44.2272H18.5091C17.3922 44.2272 16.0202 44.6207 15.3182 47.6733L13.1909 56.1824C13.1327 56.4184 12.9954 56.6273 12.8018 56.7744C12.6083 56.9215 12.3702 56.9978 12.1273 56.9908Z" fill="#404040"/>
<path d="M46.1635 53.7999H36.5908V51.6726H45.5253L50.7477 42.0999H33.9742L30.0282 49.0135L28.1774 47.9499L32.432 40.5044C32.5291 40.3357 32.6708 40.1968 32.8415 40.1031C33.0122 40.0093 33.2053 39.9642 33.3999 39.9726H52.5453C52.7298 39.9727 52.9112 40.0207 53.0716 40.1121C53.232 40.2035 53.3658 40.335 53.46 40.4938C53.5533 40.6555 53.6025 40.8389 53.6025 41.0256C53.6025 41.2123 53.5533 41.3957 53.46 41.5574L47.0782 53.2574C46.9867 53.4201 46.8541 53.5559 46.6935 53.6512C46.5329 53.7464 46.3501 53.7977 46.1635 53.7999Z" fill="#404040"/>
<path d="M52.5453 56.9908H20.6363C20.3542 56.9908 20.0837 56.8787 19.8842 56.6792C19.6848 56.4798 19.5727 56.2092 19.5727 55.9271C19.5727 55.645 19.6848 55.3745 19.8842 55.175C20.0837 54.9756 20.3542 54.8635 20.6363 54.8635H52.5453C52.8274 54.8635 53.0979 54.9756 53.2974 55.175C53.4969 55.3745 53.6089 55.645 53.6089 55.9271C53.6089 56.2092 53.4969 56.4798 53.2974 56.6792C53.0979 56.8787 52.8274 56.9908 52.5453 56.9908Z" fill="#404040"/>
<path d="M32.3363 38.792C31.7721 38.792 31.231 38.5679 30.8321 38.1689C30.4331 37.77 30.209 37.2289 30.209 36.6647V33.5908H28.0818V31.4636H32.3363V36.6541L35.9952 31.4636H47.2272C47.5092 31.4636 47.7798 31.3515 47.9793 31.152C48.1787 30.9526 48.2908 30.682 48.2908 30.3999V10.1909C48.2908 9.90881 48.1787 9.63827 47.9793 9.4388C47.7798 9.23933 47.5092 9.12727 47.2272 9.12727H13.1909C12.9088 9.12727 12.6383 9.23933 12.4388 9.4388C12.2393 9.63827 12.1273 9.90881 12.1273 10.1909V30.3999C12.1273 30.682 12.2393 30.9526 12.4388 31.152C12.6383 31.3515 12.9088 31.4636 13.1909 31.4636H15.3182V33.5908H13.1909C12.3446 33.5908 11.533 33.2546 10.9346 32.6562C10.3362 32.0578 10 31.2462 10 30.3999V10.1909C10 9.34462 10.3362 8.533 10.9346 7.93459C11.533 7.33618 12.3446 7 13.1909 7H47.2272C48.0734 7 48.8851 7.33618 49.4835 7.93459C50.0819 8.533 50.4181 9.34462 50.4181 10.1909V30.3999C50.4181 31.2462 50.0819 32.0578 49.4835 32.6562C48.8851 33.2546 48.0734 33.5908 47.2272 33.5908H37.0907L34.0168 37.8985C33.8253 38.1677 33.5738 38.3886 33.2821 38.5437C32.9904 38.6988 32.6666 38.7838 32.3363 38.792Z" fill="#FA4616"/>
<path d="M28.0392 28.2727H25.9119V25.0818H21.6574V28.2727H19.5302V22.9545H28.0392V28.2727Z" fill="#404040"/>
<path d="M34.4211 28.2726H32.2938V20.8272H28.0393V28.2726H25.912V18.7H34.4211V28.2726Z" fill="#404040"/>
<path d="M40.8028 28.2727H38.6756V15.5091H34.421V28.2727H32.2938V13.3818H40.8028V28.2727Z" fill="#404040"/>
</svg>
