<svg width="64" height="64" viewBox="0 0 64 64" fill="none" xmlns="http://www.w3.org/2000/svg">
<path d="M44.4709 52.4889L43.3844 50.5877C46.0829 49.1585 48.4163 47.1276 50.2042 44.6521C51.992 42.1766 53.1863 39.323 53.6946 36.3121L55.8675 36.638C55.3126 39.9778 53.996 43.145 52.0196 45.8939C50.0432 48.6428 47.4602 50.8994 44.4709 52.4889V52.4889Z" fill="#FA4616"/>
<path d="M19.5048 52.4889C16.5155 50.8981 13.932 48.6412 11.954 45.8927C9.97598 43.1442 8.65641 39.9778 8.09729 36.638L10.2701 36.3121C10.7784 39.323 11.9727 42.1766 13.7606 44.6521C15.5484 47.1276 17.8818 49.1585 20.5803 50.5877L19.5048 52.4889Z" fill="#FA4616"/>
<path d="M41.6787 11.5741C38.6898 9.99759 35.3616 9.17365 31.9824 9.17365C28.6032 9.17365 25.2749 9.99759 22.286 11.5741L21.2756 9.65115C24.5759 7.91001 28.251 7 31.9824 7C35.7138 7 39.3888 7.91001 42.6891 9.65115L41.6787 11.5741Z" fill="#FA4616"/>
<path d="M48.2842 34.1609C45.3638 34.2809 42.4829 33.454 40.0708 31.8034L39.5928 31.4775V27.1318C39.5928 24.633 44.5686 22.1885 48.2842 22.1885C51.9998 22.1885 56.9756 24.633 56.9756 27.1318V31.4775L56.4867 31.8034C54.0779 33.4524 51.2009 34.2793 48.2842 34.1609V34.1609ZM41.7656 30.3041C43.7608 31.4084 46.0038 31.9877 48.2842 31.9877C50.5646 31.9877 52.8076 31.4084 54.8027 30.3041V27.1209C54.6398 26.3604 51.4022 24.3505 48.2842 24.3505C45.1661 24.3505 41.9177 26.3604 41.7656 27.1535V30.3041Z" fill="#404040"/>
<path d="M48.2842 24.3831C46.9068 24.4192 45.5696 23.9177 44.5556 22.9849C43.5416 22.052 42.9306 20.7611 42.8521 19.3855V16.3436C42.8521 14.9029 43.4244 13.5212 44.4431 12.5025C45.4618 11.4838 46.8435 10.9114 48.2842 10.9114C49.7249 10.9114 51.1066 11.4838 52.1253 12.5025C53.144 13.5212 53.7163 14.9029 53.7163 16.3436V19.3855C53.6377 20.7611 53.0267 22.052 52.0128 22.9849C50.9988 23.9177 49.6615 24.4192 48.2842 24.3831V24.3831ZM48.2842 13.5188C47.4855 13.4947 46.7071 13.7718 46.1033 14.2951C45.4995 14.8184 45.1145 15.5496 45.0249 16.3436V19.3855C45.0249 20.25 45.3683 21.079 45.9795 21.6902C46.5908 22.3015 47.4198 22.6448 48.2842 22.6448C49.1486 22.6448 49.9776 22.3015 50.5889 21.6902C51.2001 21.079 51.5435 20.25 51.5435 19.3855V16.3436C51.4538 15.5496 51.0689 14.8184 50.4651 14.2951C49.8613 13.7718 49.0828 13.4947 48.2842 13.5188V13.5188Z" fill="#404040"/>
<path d="M31.9878 56.9759C29.0301 57.1437 26.1043 56.2924 23.6984 54.564L23.2964 54.2381V49.9358C23.2964 47.4371 28.2722 44.9926 31.9878 44.9926C35.7034 44.9926 40.6792 47.4371 40.6792 49.9358V54.2815L40.2664 54.6075C37.8589 56.3205 34.937 57.1564 31.9878 56.9759V56.9759ZM25.4692 53.1734C27.4754 54.2433 29.7141 54.803 31.9878 54.803C34.2615 54.803 36.5002 54.2433 38.5063 53.1734V49.9141C38.3434 49.1536 35.1058 47.1437 31.9878 47.1437C28.8698 47.1437 25.6213 49.1536 25.4692 49.9467V53.1734Z" fill="#404040"/>
<path d="M31.9878 47.198C30.6105 47.2341 29.2732 46.7327 28.2592 45.7998C27.2452 44.867 26.6342 43.576 26.5557 42.2005V39.1585C26.5557 37.7178 27.128 36.3361 28.1467 35.3174C29.1654 34.2987 30.5471 33.7264 31.9878 33.7264C33.4285 33.7264 34.8102 34.2987 35.8289 35.3174C36.8476 36.3361 37.4199 37.7178 37.4199 39.1585V42.2005C37.3413 43.576 36.7303 44.867 35.7164 45.7998C34.7024 46.7327 33.3651 47.2341 31.9878 47.198V47.198ZM31.9878 36.3338C31.1892 36.3096 30.4107 36.5868 29.8069 37.1101C29.2031 37.6333 28.8181 38.3646 28.7285 39.1585V42.2005C28.7285 43.0649 29.0719 43.8939 29.6831 44.5052C30.2944 45.1164 31.1234 45.4598 31.9878 45.4598C32.8522 45.4598 33.6812 45.1164 34.2925 44.5052C34.9037 43.8939 35.2471 43.0649 35.2471 42.2005V39.1585C35.1574 38.3646 34.7725 37.6333 34.1687 37.1101C33.5649 36.5868 32.7864 36.3096 31.9878 36.3338Z" fill="#404040"/>
<path d="M15.6914 34.1609C12.7711 34.2809 9.89015 33.454 7.47803 31.8034L7 31.4775V27.1318C7 24.633 11.9758 22.1885 15.6914 22.1885C19.407 22.1885 24.3828 24.633 24.3828 27.1318V31.4775L23.8939 31.8034C21.4852 33.4524 18.6082 34.2793 15.6914 34.1609V34.1609ZM9.17285 30.3041C11.168 31.4084 13.411 31.9877 15.6914 31.9877C17.9718 31.9877 20.2148 31.4084 22.21 30.3041V27.1209C22.047 26.3604 18.8094 24.3505 15.6914 24.3505C12.5734 24.3505 9.32495 26.3604 9.17285 27.1535V30.3041Z" fill="#404040"/>
<path d="M15.6914 24.3831C14.3141 24.4192 12.9768 23.9177 11.9628 22.9849C10.9489 22.052 10.3379 20.7611 10.2593 19.3855V16.3436C10.2593 14.9029 10.8316 13.5212 11.8503 12.5025C12.869 11.4838 14.2507 10.9114 15.6914 10.9114C17.1321 10.9114 18.5138 11.4838 19.5325 12.5025C20.5512 13.5212 21.1235 14.9029 21.1235 16.3436V19.3855C21.045 20.7611 20.434 22.052 19.42 22.9849C18.406 23.9177 17.0687 24.4192 15.6914 24.3831V24.3831ZM15.6914 13.5188C14.8928 13.4947 14.1143 13.7718 13.5105 14.2951C12.9067 14.8184 12.5218 15.5496 12.4321 16.3436V19.3855C12.4321 20.25 12.7755 21.079 13.3868 21.6902C13.998 22.3015 14.827 22.6448 15.6914 22.6448C16.5558 22.6448 17.3848 22.3015 17.9961 21.6902C18.6073 21.079 18.9507 20.25 18.9507 19.3855V16.3436C18.8611 15.5496 18.4761 14.8184 17.8723 14.2951C17.2686 13.7718 16.49 13.4947 15.6914 13.5188V13.5188Z" fill="#404040"/>
</svg>
