<svg width="64" height="64" viewBox="0 0 64 64" fill="none" xmlns="http://www.w3.org/2000/svg">
<path d="M44.3151 57C44.0382 57 43.7727 56.89 43.577 56.6942C43.3812 56.4985 43.2713 56.233 43.2713 55.9562C43.3497 55.0359 43.7148 54.1633 44.3151 53.4614C44.8915 52.8218 45.2561 52.0197 45.3589 51.1649V40.2986C45.3315 40.0311 45.2127 39.7812 45.0226 39.5911C44.8325 39.401 44.5826 39.2822 44.3151 39.2548H42.2274C41.9506 39.2548 41.6851 39.1448 41.4893 38.949C41.2936 38.7533 41.1836 38.4878 41.1836 38.2109C41.1562 37.9434 41.0374 37.6936 40.8473 37.5034C40.6571 37.3133 40.4072 37.1945 40.1397 37.1671H38.0521C37.8774 37.1668 37.7056 37.1227 37.5524 37.0388C37.3992 36.9549 37.2696 36.8339 37.1753 36.6869C36.8549 36.3562 36.4237 36.1555 35.9644 36.1233H33.8767C33.5999 36.1233 33.3344 36.0133 33.1386 35.8175C32.9429 35.6218 32.8329 35.3563 32.8329 35.0794C32.8329 34.8026 32.9429 34.537 33.1386 34.3413C33.3344 34.1455 33.5999 34.0356 33.8767 34.0356H35.9644C36.9163 34.0716 37.8252 34.441 38.5322 35.0794H40.1397C40.7809 35.1012 41.4015 35.3105 41.9247 35.6816C42.448 36.0527 42.8508 36.5692 43.0834 37.1671H44.3151C45.1381 37.1907 45.921 37.5282 46.5032 38.1105C47.0854 38.6927 47.423 39.4756 47.4466 40.2986V51.1649C47.3669 52.4452 46.8805 53.6667 46.0583 54.6514C45.7308 55.0287 45.4919 55.4745 45.3589 55.9562C45.3589 56.233 45.249 56.4985 45.0532 56.6942C44.8574 56.89 44.5919 57 44.3151 57Z" fill="#404040"/>
<path d="M29.7014 57C29.4246 57 29.1591 56.89 28.9633 56.6942C28.7676 56.4985 28.6576 56.233 28.6576 55.9562V55.4342C27.7667 53.9708 26.7688 52.5752 25.6722 51.2589C24.9311 50.3299 24.357 49.5888 24.096 49.1712C23.6159 48.4301 20.9645 42.1566 20.3904 40.9144C20.3368 40.7817 20.3084 40.6401 20.3069 40.4969C20.3593 39.985 20.5707 39.5023 20.9114 39.1166C21.2521 38.731 21.7051 38.4616 22.2067 38.3466C22.976 38.117 23.7992 38.1435 24.5522 38.4221C25.3052 38.7007 25.9474 39.2164 26.382 39.8915L28.0939 42.5428C28.1376 42.6102 28.196 42.6668 28.2647 42.7083C28.3334 42.7499 28.4106 42.7754 28.4906 42.7829H28.6158V27.7726C28.6158 26.942 28.9458 26.1455 29.533 25.5582C30.1203 24.971 30.9168 24.6411 31.7473 24.6411C32.5779 24.6411 33.3744 24.971 33.9616 25.5582C34.5489 26.1455 34.8788 26.942 34.8788 27.7726V39.2548C34.8788 39.5316 34.7689 39.7971 34.5731 39.9929C34.3773 40.1886 34.1118 40.2986 33.835 40.2986C33.5582 40.2986 33.2927 40.1886 33.0969 39.9929C32.9012 39.7971 32.7912 39.5316 32.7912 39.2548V27.7726C32.7912 27.4957 32.6812 27.2302 32.4854 27.0344C32.2897 26.8387 32.0242 26.7287 31.7473 26.7287C31.4705 26.7287 31.205 26.8387 31.0092 27.0344C30.8135 27.2302 30.7035 27.4957 30.7035 27.7726V43.4301C30.703 43.5707 30.674 43.7097 30.6184 43.8389C30.5628 43.968 30.4817 44.0846 30.3799 44.1816C30.1066 44.4482 29.7777 44.651 29.4167 44.7756C29.0558 44.9001 28.6718 44.9432 28.2922 44.9019C27.9056 44.8572 27.5338 44.7273 27.2034 44.5215C26.8731 44.3158 26.5926 44.0392 26.382 43.7119L24.7014 41.1128C24.5479 40.8593 24.3297 40.6514 24.0692 40.5101C23.8087 40.3689 23.5153 40.2994 23.2192 40.309C22.9557 40.3155 22.7006 40.403 22.4885 40.5596C23.7724 43.5449 25.5678 47.6263 25.8497 48.096C26.1315 48.5658 26.6638 49.1921 27.311 50.0063C29.9311 53.3361 30.7453 54.5156 30.7453 55.3403V55.9562C30.7453 56.233 30.6353 56.4985 30.4395 56.6942C30.2438 56.89 29.9783 57 29.7014 57Z" fill="#404040"/>
<path d="M38.0521 41.3424C37.7752 41.3424 37.5097 41.2325 37.314 41.0367C37.1182 40.8409 37.0082 40.5754 37.0082 40.2986V36.1233C37.0082 35.8464 37.1182 35.5809 37.314 35.3851C37.5097 35.1893 37.7752 35.0794 38.0521 35.0794C38.3289 35.0794 38.5944 35.1893 38.7902 35.3851C38.9859 35.5809 39.0959 35.8464 39.0959 36.1233V40.2986C39.0959 40.5754 38.9859 40.8409 38.7902 41.0367C38.5944 41.2325 38.3289 41.3424 38.0521 41.3424Z" fill="#404040"/>
<path d="M42.2274 42.3863C41.9506 42.3863 41.6851 42.2763 41.4893 42.0805C41.2936 41.8848 41.1836 41.6193 41.1836 41.3424V38.2109C41.1836 37.9341 41.2936 37.6685 41.4893 37.4728C41.6851 37.277 41.9506 37.1671 42.2274 37.1671C42.5043 37.1671 42.7698 37.277 42.9655 37.4728C43.1613 37.6685 43.2713 37.9341 43.2713 38.2109V41.3424C43.2713 41.6193 43.1613 41.8848 42.9655 42.0805C42.7698 42.2763 42.5043 42.3863 42.2274 42.3863Z" fill="#404040"/>
<path d="M31.7891 19.4219C31.0823 19.4099 30.385 19.2569 29.738 18.972C29.0911 18.6871 28.5075 18.276 28.0214 17.7627C27.5354 17.2494 27.1566 16.6444 26.9074 15.9829C26.6581 15.3214 26.5434 14.6168 26.5699 13.9104V12.4177C26.5699 11.0335 27.1198 9.70598 28.0986 8.72719C29.0773 7.74841 30.4049 7.19852 31.7891 7.19852C33.1733 7.19852 34.5008 7.74841 35.4796 8.72719C36.4584 9.70598 37.0083 11.0335 37.0083 12.4177V13.9104C37.0348 14.6168 36.92 15.3214 36.6708 15.9829C36.4215 16.6444 36.0428 17.2494 35.5567 17.7627C35.0707 18.276 34.4871 18.6871 33.8401 18.972C33.1932 19.2569 32.4959 19.4099 31.7891 19.4219ZM31.7891 8.9835C31.3571 9.00087 30.9329 9.10376 30.5411 9.28625C30.1492 9.46875 29.7974 9.72721 29.5061 10.0466C29.2149 10.3661 28.9899 10.7401 28.8442 11.1471C28.6986 11.5541 28.6351 11.986 28.6576 12.4177V13.9104C28.6576 14.7409 28.9875 15.5374 29.5748 16.1247C30.162 16.712 30.9586 17.0419 31.7891 17.0419C32.6196 17.0419 33.4161 16.712 34.0034 16.1247C34.5907 15.5374 34.9206 14.7409 34.9206 13.9104V12.4177C34.943 11.986 34.8796 11.5541 34.7339 11.1471C34.5883 10.7401 34.3633 10.3661 34.072 10.0466C33.7807 9.72721 33.429 9.46875 33.0371 9.28625C32.6452 9.10376 32.221 9.00087 31.7891 8.9835Z" fill="#FA4616"/>
<path d="M40.1398 27.7726C39.8629 27.7726 39.5974 27.6626 39.4017 27.4668C39.2059 27.2711 39.0959 27.0056 39.0959 26.7287V23.5972C39.0959 21.3008 35.8183 19.4219 31.7891 19.4219C27.7599 19.4219 24.4822 21.3008 24.4822 23.5972V26.7287C24.4822 27.0056 24.3722 27.2711 24.1765 27.4668C23.9807 27.6626 23.7152 27.7726 23.4384 27.7726C23.1615 27.7726 22.896 27.6626 22.7003 27.4668C22.5045 27.2711 22.3945 27.0056 22.3945 26.7287V23.5972C22.3945 20.0273 26.4342 17.3342 31.7891 17.3342C37.1439 17.3342 41.1836 20.0273 41.1836 23.5972V26.7287C41.1836 27.0056 41.0736 27.2711 40.8779 27.4668C40.6821 27.6626 40.4166 27.7726 40.1398 27.7726Z" fill="#FA4616"/>
<path d="M43.8245 18.378C43.182 18.3593 42.5496 18.2128 41.9643 17.9472C41.3789 17.6816 40.8523 17.3022 40.4151 16.831C39.9779 16.3597 39.6389 15.8062 39.4177 15.2026C39.1966 14.5991 39.0979 13.9575 39.1273 13.3154V12.021C39.0844 11.3779 39.174 10.7327 39.3906 10.1256C39.6073 9.51846 39.9463 8.96227 40.3867 8.49153C40.8271 8.02079 41.3594 7.64552 41.9508 7.38895C42.5422 7.13239 43.1799 7 43.8245 7C44.4691 7 45.1069 7.13239 45.6983 7.38895C46.2896 7.64552 46.822 8.02079 47.2624 8.49153C47.7028 8.96227 48.0418 9.51846 48.2584 10.1256C48.475 10.7327 48.5647 11.3779 48.5218 12.021V13.3676C48.5441 14.0054 48.4401 14.6414 48.2158 15.2389C47.9915 15.8364 47.6513 16.3837 47.2148 16.8493C46.7783 17.3149 46.254 17.6897 45.6722 17.952C45.0904 18.2143 44.4625 18.3592 43.8245 18.378V18.378ZM43.8245 8.98351C43.4564 9.00601 43.0964 9.1013 42.7654 9.26396C42.4343 9.42663 42.1389 9.65339 41.8962 9.93108C41.6534 10.2088 41.4682 10.5319 41.3513 10.8817C41.2344 11.2315 41.188 11.601 41.2149 11.9689V13.3154C41.168 13.6858 41.2004 14.062 41.3101 14.4189C41.4198 14.7758 41.6042 15.1052 41.851 15.3853C42.0979 15.6654 42.4015 15.8898 42.7418 16.0435C43.0821 16.1972 43.4512 16.2766 43.8245 16.2766C44.1979 16.2766 44.567 16.1972 44.9072 16.0435C45.2475 15.8898 45.5512 15.6654 45.798 15.3853C46.0449 15.1052 46.2293 14.7758 46.3389 14.4189C46.4486 14.062 46.4811 13.6858 46.4341 13.3154V12.021C46.4684 11.649 46.4275 11.274 46.3139 10.9181C46.2003 10.5622 46.0163 10.2328 45.7728 9.94943C45.5294 9.66606 45.2315 9.43455 44.8968 9.26861C44.5621 9.10268 44.1974 9.00572 43.8245 8.98351Z" fill="#404040"/>
<path d="M49.5343 25.6849C49.2575 25.6849 48.992 25.5749 48.7962 25.3792C48.6005 25.1834 48.4905 24.9179 48.4905 24.6411V21.5096C48.4905 19.7559 46.4028 18.378 43.835 18.378C42.7371 18.364 41.6555 18.6451 40.7035 19.1922C40.4706 19.2882 40.2108 19.2967 39.9721 19.2162C39.7333 19.1357 39.5318 18.9715 39.4046 18.7541C39.2774 18.5366 39.2332 18.2805 39.2801 18.0329C39.3269 17.7854 39.4618 17.5631 39.6596 17.4072C40.9422 16.651 42.409 16.2645 43.8976 16.2904C47.6763 16.2904 50.6408 18.5868 50.6408 21.5096V24.6411C50.6411 24.7836 50.6121 24.9246 50.5558 25.0555C50.4995 25.1864 50.4169 25.3044 50.3133 25.4022C50.2096 25.5 50.087 25.5755 49.9531 25.6241C49.8191 25.6727 49.6766 25.6935 49.5343 25.6849Z" fill="#404040"/>
<path d="M19.8163 18.378C19.1738 18.3593 18.5414 18.2128 17.956 17.9472C17.3707 17.6816 16.8441 17.3022 16.4069 16.831C15.9696 16.3597 15.6306 15.8062 15.4095 15.2026C15.1884 14.5991 15.0897 13.9575 15.119 13.3154V12.021C15.0761 11.3779 15.1658 10.7327 15.3824 10.1256C15.599 9.51846 15.9381 8.96227 16.3784 8.49153C16.8188 8.02079 17.3512 7.64552 17.9426 7.38895C18.5339 7.13239 19.1717 7 19.8163 7C20.4609 7 21.0987 7.13239 21.69 7.38895C22.2814 7.64552 22.8137 8.02079 23.2541 8.49153C23.6945 8.96227 24.0335 9.51846 24.2502 10.1256C24.4668 10.7327 24.5565 11.3779 24.5136 12.021V13.3676C24.5358 14.0054 24.4318 14.6414 24.2075 15.2389C23.9832 15.8364 23.6431 16.3837 23.2065 16.8493C22.77 17.3149 22.2458 17.6897 21.664 17.952C21.0822 18.2143 20.4542 18.3592 19.8163 18.378V18.378ZM19.8163 8.98351C19.4481 9.00601 19.0881 9.1013 18.7571 9.26396C18.4261 9.42663 18.1307 9.65339 17.8879 9.93108C17.6452 10.2088 17.46 10.5319 17.3431 10.8817C17.2261 11.2315 17.1798 11.601 17.2067 11.9689V13.3154C17.1597 13.6858 17.1922 14.062 17.3019 14.4189C17.4115 14.7758 17.5959 15.1052 17.8428 15.3853C18.0896 15.6654 18.3933 15.8898 18.7336 16.0435C19.0738 16.1972 19.4429 16.2766 19.8163 16.2766C20.1896 16.2766 20.5587 16.1972 20.899 16.0435C21.2393 15.8898 21.5429 15.6654 21.7898 15.3853C22.0366 15.1052 22.221 14.7758 22.3307 14.4189C22.4404 14.062 22.4728 13.6858 22.4259 13.3154V12.021C22.4601 11.649 22.4192 11.274 22.3056 10.9181C22.192 10.5622 22.008 10.2328 21.7646 9.94943C21.5212 9.66606 21.2232 9.43455 20.8885 9.26861C20.5538 9.10268 20.1892 9.00572 19.8163 8.98351Z" fill="#404040"/>
<path d="M14.0438 25.6849C13.767 25.6849 13.5015 25.5749 13.3057 25.3792C13.11 25.1834 13 24.9179 13 24.6411V21.5096C13 18.5868 15.9645 16.2904 19.7536 16.2904C21.331 16.266 22.8807 16.7052 24.2108 17.5534C24.3247 17.63 24.4224 17.7284 24.4982 17.8429C24.5741 17.9573 24.6266 18.0856 24.6528 18.2204C24.6789 18.3551 24.6783 18.4938 24.6508 18.6283C24.6233 18.7628 24.5696 18.8906 24.4926 19.0043C24.338 19.2314 24.1 19.3884 23.8303 19.4412C23.5606 19.494 23.281 19.4383 23.0522 19.2862C22.0643 18.6693 20.918 18.3537 19.7536 18.378C17.1336 18.378 15.0877 19.7559 15.0877 21.5096V24.6411C15.0877 24.7781 15.0607 24.9138 15.0082 25.0405C14.9558 25.1671 14.8789 25.2822 14.7819 25.3792C14.685 25.4761 14.5699 25.5529 14.4433 25.6054C14.3167 25.6579 14.1809 25.6849 14.0438 25.6849Z" fill="#404040"/>
</svg>
