<svg width="64" height="64" viewBox="0 0 64 64" fill="none" xmlns="http://www.w3.org/2000/svg">
<path d="M53.6667 34.5665H51.4444V27.8998C51.4444 24.0331 47.9555 23.4554 45.8889 23.4554H40.3333C37.5667 23.4554 36.7889 24.4887 34.9111 26.9776L34.5444 27.4554L32.7778 26.1109L33.1444 25.6331C35.1333 22.9887 36.4778 21.1887 40.3333 21.1887H45.8889C49.6444 21.1887 53.6667 22.9331 53.6667 27.8554V34.5665Z" fill="#FA4616"/>
<path d="M40.3334 34.5665H38.1112V31.3776L36.3778 32.2331L35.3445 30.2665L37.5667 29.1554C37.7224 29.0799 37.8937 29.0418 38.0667 29.0443H39.1778C39.4725 29.0443 39.7551 29.1613 39.9635 29.3697C40.1719 29.5781 40.2889 29.8607 40.2889 30.1554L40.3334 34.5665Z" fill="#FA4616"/>
<path d="M49.1778 29.0109H46.9556V34.5665H49.1778V29.0109Z" fill="#FA4616"/>
<path d="M23.6667 55.6776H21.4444V29.0109C21.4444 28.7162 21.5615 28.4336 21.7699 28.2253C21.9783 28.0169 22.2609 27.8998 22.5556 27.8998H23.6667C23.9071 27.8998 24.141 27.9778 24.3333 28.122C24.3333 28.122 26.8889 30.0665 28.7 31.4554C29.2286 31.8173 29.8504 32.0192 30.4908 32.037C31.1313 32.0547 31.7632 31.8875 32.3111 31.5554C30.9889 30.1665 28.5778 27.6665 27.2778 26.4887C25.1889 24.6109 23.2889 23.4442 20.2444 23.4442H14.7778C14.0355 23.3951 13.2913 23.5052 12.595 23.767C11.8987 24.0288 11.2664 24.4364 10.7404 24.9624C10.2144 25.4884 9.80681 26.1207 9.54498 26.817C9.28316 27.5133 9.17312 28.2575 9.22222 28.9998V33.4442C9.29518 34.3039 9.6698 35.11 10.2798 35.72C10.8898 36.33 11.6959 36.7046 12.5556 36.7776V38.9998C11.1064 38.9248 9.73652 38.3154 8.71046 37.2894C7.68441 36.2633 7.07501 34.8934 7 33.4442V28.9998C7 23.622 10.9 21.222 14.7778 21.222H20.3333C21.9233 21.2287 23.496 21.5526 24.9594 22.1745C26.4227 22.7965 27.7473 23.7041 28.8556 24.8443C30.7667 26.5665 34.7556 30.8109 34.9222 30.9887C35.0239 31.097 35.1028 31.2245 35.1544 31.3639C35.2059 31.5032 35.229 31.6514 35.2222 31.7998C35.2159 31.95 35.1792 32.0974 35.1142 32.233C35.0493 32.3686 34.9575 32.4896 34.8444 32.5887C33.5111 33.6998 30.2333 35.3665 27.4333 33.2109L23.6667 30.3331V55.6776Z" fill="#404040"/>
<path d="M13.6222 27.8998H11.4V55.6776H13.6222V27.8998Z" fill="#404040"/>
<path d="M18.0667 40.122H15.8445V55.6776H18.0667V40.122Z" fill="#404040"/>
<path d="M17.5112 20.122C16.8749 20.1503 16.2394 20.0514 15.6418 19.831C15.0443 19.6107 14.4967 19.2734 14.0311 18.8388C13.5655 18.4042 13.1912 17.8812 12.9302 17.3002C12.6693 16.7192 12.5268 16.0921 12.5112 15.4554V13.6776C12.5958 12.4091 13.1594 11.2202 14.0877 10.3517C15.0161 9.48318 16.2399 9 17.5112 9C18.7825 9 20.0062 9.48318 20.9346 10.3517C21.863 11.2202 22.4266 12.4091 22.5112 13.6776V15.4554C22.4941 16.0916 22.3506 16.7181 22.0891 17.2983C21.8276 17.8786 21.4533 18.4011 20.988 18.8353C20.5227 19.2696 19.9757 19.607 19.3788 19.8279C18.7819 20.0488 18.1471 20.1488 17.5112 20.122V20.122ZM17.5112 11.2331C17.1681 11.2105 16.824 11.2559 16.4985 11.3666C16.173 11.4774 15.8727 11.6513 15.6146 11.8784C15.3565 12.1055 15.1458 12.3814 14.9946 12.6901C14.8433 12.9989 14.7546 13.3345 14.7334 13.6776V15.4554C14.8191 16.1316 15.1485 16.7533 15.6599 17.204C16.1713 17.6547 16.8295 17.9033 17.5112 17.9033C18.1928 17.9033 18.851 17.6547 19.3624 17.204C19.8738 16.7533 20.2032 16.1316 20.2889 15.4554V13.6776C20.2677 13.3345 20.179 12.9989 20.0278 12.6901C19.8766 12.3814 19.6659 12.1055 19.4078 11.8784C19.1497 11.6513 18.8493 11.4774 18.5238 11.3666C18.1984 11.2559 17.8542 11.2105 17.5112 11.2331Z" fill="#404040"/>
<path d="M44.1778 20.122C43.5415 20.1503 42.906 20.0514 42.3085 19.831C41.7109 19.6107 41.1633 19.2734 40.6977 18.8388C40.2321 18.4042 39.8579 17.8812 39.5969 17.3002C39.3359 16.7192 39.1934 16.0921 39.1778 15.4554V13.6776C39.2624 12.4091 39.826 11.2202 40.7544 10.3517C41.6827 9.48318 42.9065 9 44.1778 9C45.4491 9 46.6729 9.48318 47.6012 10.3517C48.5296 11.2202 49.0932 12.4091 49.1778 13.6776V15.4554C49.1607 16.0916 49.0172 16.7181 48.7557 17.2983C48.4942 17.8786 48.12 18.4011 47.6547 18.8353C47.1894 19.2696 46.6424 19.607 46.0455 19.8279C45.4486 20.0488 44.8137 20.1488 44.1778 20.122V20.122ZM44.1778 11.2331C43.8347 11.2105 43.4906 11.2559 43.1651 11.3666C42.8397 11.4774 42.5393 11.6513 42.2812 11.8784C42.0231 12.1055 41.8124 12.3814 41.6612 12.6901C41.51 12.9989 41.4212 13.3345 41.4 13.6776V15.4554C41.4857 16.1316 41.8152 16.7533 42.3265 17.204C42.8379 17.6547 43.4962 17.9033 44.1778 17.9033C44.8594 17.9033 45.5177 17.6547 46.029 17.204C46.5404 16.7533 46.8699 16.1316 46.9556 15.4554V13.6776C46.9344 13.3345 46.8456 12.9989 46.6944 12.6901C46.5432 12.3814 46.3325 12.1055 46.0744 11.8784C45.8163 11.6513 45.5159 11.4774 45.1904 11.3666C44.865 11.2559 44.5208 11.2105 44.1778 11.2331V11.2331Z" fill="#FA4616"/>
<path d="M55.8889 43.4554H44.7778V41.2331H54.7778V39.0109H25.8889V36.7887H55.8889C56.1836 36.7887 56.4662 36.9058 56.6746 37.1141C56.883 37.3225 57 37.6051 57 37.8998V42.3443C57 42.6389 56.883 42.9216 56.6746 43.1299C56.4662 43.3383 56.1836 43.4554 55.8889 43.4554Z" fill="#404040"/>
<path d="M53.6222 42.3443H51.4V55.6776H53.6222V42.3443Z" fill="#404040"/>
<path d="M52.5111 50.122H25.8445V52.3443H52.5111V50.122Z" fill="#404040"/>
<path d="M36.9556 41.2331H25.8445V43.4554H36.9556V41.2331Z" fill="#404040"/>
</svg>
