<svg width="64" height="64" viewBox="0 0 64 64" fill="none" xmlns="http://www.w3.org/2000/svg">
<path d="M24.7084 46.4583H22.625V44.375C22.625 44.0987 22.5153 43.8338 22.3199 43.6384C22.1246 43.4431 21.8596 43.3333 21.5834 43.3333H17.4167C17.1404 43.3333 16.8755 43.4431 16.6801 43.6384C16.4848 43.8338 16.375 44.0987 16.375 44.375V46.4583H14.2917V44.375C14.2917 43.5462 14.6209 42.7513 15.207 42.1653C15.793 41.5792 16.5879 41.25 17.4167 41.25H21.5834C22.4122 41.25 23.207 41.5792 23.7931 42.1653C24.3791 42.7513 24.7084 43.5462 24.7084 44.375V46.4583Z" fill="#404040"/>
<path d="M37.2084 46.4583H35.125V44.375C35.125 44.0987 35.0153 43.8338 34.8199 43.6384C34.6246 43.4431 34.3596 43.3333 34.0834 43.3333H29.9167C29.6404 43.3333 29.3755 43.4431 29.1801 43.6384C28.9848 43.8338 28.875 44.0987 28.875 44.375V46.4583H26.7917V44.375C26.7917 43.5462 27.1209 42.7513 27.707 42.1653C28.293 41.5792 29.0879 41.25 29.9167 41.25H34.0834C34.9122 41.25 35.707 41.5792 36.2931 42.1653C36.8791 42.7513 37.2084 43.5462 37.2084 44.375V46.4583Z" fill="#404040"/>
<path d="M49.7084 46.4583H47.625V44.375C47.625 44.0987 47.5153 43.8338 47.3199 43.6384C47.1246 43.4431 46.8596 43.3333 46.5834 43.3333H42.4167C42.1404 43.3333 41.8755 43.4431 41.6801 43.6384C41.4848 43.8338 41.375 44.0987 41.375 44.375V46.4583H39.2917V44.375C39.2917 43.5462 39.6209 42.7513 40.207 42.1653C40.793 41.5792 41.5879 41.25 42.4167 41.25H46.5834C47.4122 41.25 48.207 41.5792 48.7931 42.1653C49.3791 42.7513 49.7084 43.5462 49.7084 44.375V46.4583Z" fill="#404040"/>
<path d="M18.4584 53.75H16.375V51.6667C16.375 51.3904 16.2653 51.1254 16.0699 50.9301C15.8746 50.7347 15.6096 50.625 15.3334 50.625H11.1667C10.8904 50.625 10.6255 50.7347 10.4301 50.9301C10.2348 51.1254 10.125 51.3904 10.125 51.6667V53.75H8.04169V51.6667C8.04169 50.8379 8.37092 50.043 8.95698 49.4569C9.54303 48.8709 10.3379 48.5417 11.1667 48.5417H15.3334C16.1622 48.5417 16.957 48.8709 17.5431 49.4569C18.1291 50.043 18.4584 50.8379 18.4584 51.6667V53.75Z" fill="#404040"/>
<path d="M30.9584 53.75H28.875V51.6667C28.875 51.3904 28.7653 51.1254 28.5699 50.9301C28.3746 50.7347 28.1096 50.625 27.8334 50.625H23.6667C23.3904 50.625 23.1255 50.7347 22.9301 50.9301C22.7348 51.1254 22.625 51.3904 22.625 51.6667V53.75H20.5417V51.6667C20.5417 50.8379 20.8709 50.043 21.457 49.4569C22.043 48.8709 22.8379 48.5417 23.6667 48.5417H27.8334C28.6622 48.5417 29.457 48.8709 30.0431 49.4569C30.6291 50.043 30.9584 50.8379 30.9584 51.6667V53.75Z" fill="#404040"/>
<path d="M43.4584 53.75H41.375V51.6667C41.375 51.3904 41.2653 51.1254 41.0699 50.9301C40.8746 50.7347 40.6096 50.625 40.3334 50.625H36.1667C35.8904 50.625 35.6255 50.7347 35.4301 50.9301C35.2348 51.1254 35.125 51.3904 35.125 51.6667V53.75H33.0417V51.6667C33.0417 50.8379 33.3709 50.043 33.957 49.4569C34.543 48.8709 35.3379 48.5417 36.1667 48.5417H40.3334C41.1622 48.5417 41.957 48.8709 42.5431 49.4569C43.1291 50.043 43.4584 50.8379 43.4584 51.6667V53.75Z" fill="#404040"/>
<path d="M55.9584 53.75H53.875V51.6667C53.875 51.3904 53.7653 51.1254 53.5699 50.9301C53.3746 50.7347 53.1096 50.625 52.8334 50.625H48.6667C48.3904 50.625 48.1255 50.7347 47.9301 50.9301C47.7348 51.1254 47.625 51.3904 47.625 51.6667V53.75H45.5417V51.6667C45.5417 50.8379 45.8709 50.043 46.457 49.4569C47.043 48.8709 47.8379 48.5417 48.6667 48.5417H52.8334C53.6622 48.5417 54.457 48.8709 55.0431 49.4569C55.6291 50.043 55.9584 50.8379 55.9584 51.6667V53.75Z" fill="#404040"/>
<path d="M55.9583 43.3333H52.8333V41.25H54.9167V12.0833H9.08333V41.25H11.1042V43.3333H8.04167C7.7654 43.3333 7.50045 43.2236 7.3051 43.0282C7.10975 42.8329 7 42.5679 7 42.2917V11.0417C7 10.7654 7.10975 10.5004 7.3051 10.3051C7.50045 10.1097 7.7654 10 8.04167 10H55.9583C56.2346 10 56.4996 10.1097 56.6949 10.3051C56.8903 10.5004 57 10.7654 57 11.0417V42.2917C57 42.5679 56.8903 42.8329 56.6949 43.0282C56.4996 43.2236 56.2346 43.3333 55.9583 43.3333Z" fill="#FA4616"/>
<path d="M32 28.75C31.2942 28.7367 30.5981 28.5828 29.9525 28.2973C29.3068 28.0119 28.7245 27.6007 28.2396 27.0876C27.7547 26.5746 27.3769 25.97 27.1283 25.3093C26.8797 24.6486 26.7653 23.945 26.7917 23.2396V21.75C26.7917 20.3687 27.3404 19.0439 28.3172 18.0671C29.2939 17.0904 30.6187 16.5417 32 16.5417C33.3814 16.5417 34.7061 17.0904 35.6829 18.0671C36.6596 19.0439 37.2084 20.3687 37.2084 21.75V23.2396C37.2348 23.945 37.1203 24.6486 36.8717 25.3093C36.6231 25.97 36.2453 26.5746 35.7604 27.0876C35.2755 27.6007 34.6932 28.0119 34.0476 28.2973C33.4019 28.5828 32.7058 28.7367 32 28.75V28.75ZM32 18.3333C31.5695 18.3493 31.1464 18.4507 30.7554 18.6317C30.3644 18.8127 30.0133 19.0697 29.7225 19.3876C29.4317 19.7056 29.207 20.0782 29.0615 20.4837C28.916 20.8893 28.8526 21.3197 28.875 21.75V23.2396C28.875 24.0684 29.2043 24.8632 29.7903 25.4493C30.3764 26.0353 31.1712 26.3646 32 26.3646C32.8288 26.3646 33.6237 26.0353 34.2097 25.4493C34.7958 24.8632 35.125 24.0684 35.125 23.2396V21.75C35.1474 21.3197 35.084 20.8893 34.9385 20.4837C34.7931 20.0782 34.5684 19.7056 34.2776 19.3876C33.9868 19.0697 33.6357 18.8127 33.2447 18.6317C32.8537 18.4507 32.4306 18.3493 32 18.3333V18.3333Z" fill="#404040"/>
<path d="M38.25 39.1667H36.1667V33.9583C36.1671 33.758 36.2253 33.562 36.3343 33.3938C36.4433 33.2257 36.5985 33.0926 36.7813 33.0104C36.9625 32.927 37.1639 32.8973 37.3615 32.925C37.5591 32.9527 37.7446 33.0366 37.8959 33.1667L40.6042 35.5208C40.7918 35.5913 40.9957 35.6062 41.1916 35.5638C41.3874 35.5213 41.5669 35.4232 41.7084 35.2812L44.8334 32.1562C46.698 30.4375 46.8229 29.1875 46.3854 28.2083C44.5209 29.7708 42.9271 31.0417 41.9896 31.6667C41.8368 31.7678 41.6601 31.8268 41.4772 31.8377C41.2943 31.8487 41.1117 31.8113 40.9479 31.7292C40.5313 31.5104 40.0417 31.1771 39.4792 30.8125C38.1979 29.9479 36.4375 28.7812 35.1459 28.7291H28.8959C27.6355 28.7812 25.8438 29.9583 24.5313 30.8125C23.9688 31.1875 23.4896 31.5 23.0729 31.7187C22.9092 31.8008 22.7266 31.8383 22.5437 31.8273C22.3608 31.8163 22.1841 31.7573 22.0313 31.6562C21.1042 31.0312 19.5105 29.7708 17.6459 28.1979C17.2292 29.1771 17.3646 30.4062 19.2188 32.1146L22.3438 35.2396C22.4855 35.3777 22.6636 35.4727 22.8573 35.5132C23.051 35.5538 23.2523 35.5384 23.4375 35.4687L26.2084 33.1146C26.3597 32.9851 26.545 32.9018 26.7422 32.8744C26.9394 32.847 27.1404 32.8767 27.3212 32.96C27.5021 33.0433 27.6553 33.1768 27.7627 33.3445C27.8701 33.5122 27.9271 33.7071 27.9271 33.9062V39.1146H25.8438V36.1562L24.6771 37.1979C24.6117 37.249 24.542 37.2943 24.4688 37.3333C23.8827 37.6262 23.2194 37.7274 22.5726 37.6227C21.9259 37.5181 21.3284 37.2128 20.8646 36.75L17.8125 33.625C14.3334 30.4167 15.2604 27.6979 16.6459 25.9896C16.7336 25.8803 16.8425 25.7898 16.966 25.7236C17.0895 25.6574 17.225 25.6167 17.3646 25.6041C17.5033 25.5922 17.643 25.6082 17.7753 25.6511C17.9077 25.6941 18.0302 25.7631 18.1355 25.8541C19.9792 27.4375 21.6354 28.7708 22.7188 29.5729L23.4584 29.0833C25.0521 28.0416 27.0521 26.7187 28.9271 26.6458H35.1771C37.0938 26.7187 39.0521 28.0208 40.625 29.0729L41.375 29.5729C42.4167 28.7708 44.1146 27.4375 45.9584 25.8541C46.0636 25.7631 46.1861 25.6941 46.3185 25.6511C46.4509 25.6082 46.5905 25.5922 46.7292 25.6041C46.8688 25.6167 47.0044 25.6574 47.1279 25.7236C47.2514 25.7898 47.3602 25.8803 47.448 25.9896C48.8438 27.7083 49.7813 30.4375 46.3021 33.6562L43.2292 36.7812C42.7654 37.244 42.1679 37.5493 41.5212 37.654C40.8744 37.7587 40.2111 37.6574 39.625 37.3646L39.2917 37.1979L38.1875 36.2396L38.25 39.1667Z" fill="#404040"/>
</svg>
