<svg width="64" height="64" viewBox="0 0 64 64" fill="none" xmlns="http://www.w3.org/2000/svg">
<path d="M46.6964 28.7278C46.4774 28.7293 46.2636 28.6622 46.0848 28.5358C45.906 28.4095 45.7713 28.2302 45.6997 28.0234C45.628 27.8165 45.623 27.5924 45.6853 27.3825C45.7477 27.1727 45.8742 26.9876 46.0471 26.8534L46.9058 26.1937C47.0133 26.0996 47.139 26.0284 47.2751 25.9847C47.4112 25.9409 47.5548 25.9255 47.6971 25.9393C47.8393 25.9532 47.9773 25.996 48.1024 26.0651C48.2275 26.1343 48.3371 26.2284 48.4244 26.3416C48.5118 26.4547 48.5751 26.5845 48.6103 26.723C48.6456 26.8616 48.6522 27.0059 48.6296 27.147C48.607 27.2882 48.5558 27.4232 48.479 27.5438C48.4022 27.6644 48.3016 27.768 48.1833 27.8482L47.3351 28.5079C47.1523 28.6497 46.9277 28.727 46.6964 28.7278V28.7278Z" fill="#404040"/>
<path d="M40.4136 19.3037C39.7065 19.2943 39.0083 19.1439 38.3602 18.861C37.712 18.5782 37.1269 18.1687 36.6392 17.6565C36.1515 17.1444 35.771 16.54 35.5201 15.8789C35.2692 15.2177 35.1528 14.513 35.178 13.8063V12.2356C35.178 11.5481 35.3135 10.8673 35.5766 10.2321C35.8397 9.59684 36.2253 9.01966 36.7115 8.53348C37.1977 8.04731 37.7749 7.66166 38.4101 7.39855C39.0453 7.13544 39.7261 7 40.4136 7C41.1012 7 41.782 7.13544 42.4172 7.39855C43.0524 7.66166 43.6296 8.04731 44.1158 8.53348C44.6019 9.01966 44.9876 9.59684 45.2507 10.2321C45.5138 10.8673 45.6492 11.5481 45.6492 12.2356V13.7644C45.6801 14.4746 45.5681 15.1838 45.3198 15.8498C45.0714 16.5159 44.6919 17.1253 44.2036 17.6419C43.7153 18.1585 43.1282 18.5719 42.4772 18.8573C41.8262 19.1428 41.1244 19.2945 40.4136 19.3037V19.3037ZM40.4136 8.83246C39.9827 8.84585 39.5587 8.94499 39.1665 9.12402C38.7743 9.30306 38.4217 9.55843 38.1292 9.87524C37.8368 10.192 37.6104 10.5639 37.4633 10.9692C37.3161 11.3745 37.2512 11.805 37.2723 12.2356V13.7644C37.2723 14.5976 37.6032 15.3966 38.1924 15.9857C38.7815 16.5748 39.5805 16.9058 40.4136 16.9058C41.2468 16.9058 42.0458 16.5748 42.6349 15.9857C43.224 15.3966 43.555 14.5976 43.555 13.7644V12.1937C43.5704 11.7665 43.5012 11.3405 43.3515 10.9401C43.2018 10.5397 42.9745 10.1728 42.6826 9.86047C42.3907 9.54816 42.04 9.29661 41.6507 9.12019C41.2613 8.94377 40.8409 8.84597 40.4136 8.83246V8.83246Z" fill="#404040"/>
<path d="M36.2251 57C35.9474 57 35.6811 56.8897 35.4847 56.6934C35.2883 56.497 35.178 56.2306 35.178 55.9529V33.1466C35.178 32.8689 35.2883 32.6026 35.4847 32.4062C35.6811 32.2099 35.9474 32.0995 36.2251 32.0995C36.5028 32.0995 36.7692 32.2099 36.9656 32.4062C37.1619 32.6026 37.2722 32.8689 37.2722 33.1466V55.9529C37.2722 56.2306 37.1619 56.497 36.9656 56.6934C36.7692 56.8897 36.5028 57 36.2251 57Z" fill="#404040"/>
<path d="M47.7435 57C47.4658 57 47.1994 56.8897 47.0031 56.6934C46.8067 56.497 46.6964 56.2306 46.6964 55.9529V33.9633C46.6964 33.6856 46.8067 33.4193 47.0031 33.2229C47.1994 33.0266 47.4658 32.9162 47.7435 32.9162C48.0212 32.9162 48.2875 33.0266 48.4839 33.2229C48.6803 33.4193 48.7906 33.6856 48.7906 33.9633V55.9529C48.7906 56.2306 48.6803 56.497 48.4839 56.6934C48.2875 56.8897 48.0212 57 47.7435 57Z" fill="#404040"/>
<path d="M38.3927 35.0105C37.1857 34.9927 36.0344 34.4998 35.1885 33.6388L33.5759 32.11C32.8226 31.2226 32.2946 30.1665 32.0366 29.0315C31.9214 28.6964 31.7749 28.3194 31.6283 27.911C31.2741 27.0458 30.9802 26.1571 30.7487 25.2513C30.6261 24.6942 30.6311 24.1165 30.7635 23.5616C30.8959 23.0067 31.1521 22.4889 31.5131 22.0471C31.9638 21.5149 32.5253 21.0874 33.1583 20.7944C33.7912 20.5014 34.4805 20.35 35.178 20.3508H45.8691C49.2827 20.3508 50.8534 21.398 52.089 24.4556C52.1414 24.5917 53.8063 28.3823 54.3508 29.9425C54.542 30.5323 54.5923 31.1587 54.4978 31.7715C54.4032 32.3843 54.1664 32.9665 53.8063 33.4713C53.4798 33.9447 53.0436 34.332 52.5348 34.6C52.026 34.8681 51.4599 35.0089 50.8848 35.0105H46.6963C45.9352 35.0124 45.1897 34.7942 44.5497 34.3822L44.3298 34.2566L42.6754 33.4608L40.1309 34.7068H40.0366C39.51 34.9013 38.954 35.004 38.3927 35.0105V35.0105ZM45.0838 32.309L45.2303 32.3718L45.5968 32.5707C45.9204 32.7936 46.3035 32.914 46.6963 32.9162H50.8848C51.1259 32.9147 51.3629 32.8536 51.5748 32.7386C51.7866 32.6235 51.9669 32.4579 52.0995 32.2566C52.2641 32.026 52.375 31.7615 52.4239 31.4824C52.4729 31.2033 52.4586 30.9168 52.3822 30.644C51.8586 29.1466 50.1728 25.3037 50.1518 25.2723C49.2408 23.0314 48.4031 22.4765 45.8586 22.445H35.178C34.7932 22.4445 34.4128 22.5265 34.0623 22.6854C33.7119 22.8444 33.3996 23.0766 33.1466 23.3665C32.9796 23.5633 32.8613 23.7968 32.8013 24.0478C32.7412 24.2989 32.7411 24.5605 32.801 24.8115C33.0042 25.6152 33.2667 26.4027 33.5864 27.1676C33.7434 27.6074 33.9005 28.0158 34.0157 28.3718C34.2138 29.174 34.5698 29.9286 35.0628 30.5917L36.6754 32.1205C37.0017 32.4808 37.4289 32.7345 37.9015 32.8484C38.374 32.9624 38.87 32.9313 39.3246 32.7592L44.2775 30.3927C45.5864 29.7749 45.6911 29.6178 45.6911 29V28.7278H39.4084C39.2052 28.7294 39.0059 28.6718 38.8348 28.5621C38.6638 28.4524 38.5283 28.2953 38.445 28.11L37.7644 26.5812C37.6977 26.4547 37.6577 26.316 37.6467 26.1734C37.6357 26.0309 37.6541 25.8876 37.7006 25.7524C37.747 25.6173 37.8207 25.4931 37.917 25.3874C38.0133 25.2818 38.1303 25.197 38.2606 25.1383C38.3909 25.0796 38.5319 25.0482 38.6749 25.046C38.8178 25.0439 38.9596 25.0709 39.0917 25.1257C39.2237 25.1804 39.3432 25.2616 39.4427 25.3642C39.5422 25.4669 39.6196 25.5888 39.6701 25.7225L40.0785 26.6335H46.7382C47.0159 26.6335 47.2823 26.7439 47.4786 26.9402C47.675 27.1366 47.7853 27.4029 47.7853 27.6806V29C47.7853 31.0943 46.3927 31.7016 45.178 32.288L45.0838 32.309Z" fill="#404040"/>
<path d="M42.5078 57C42.2301 57 41.9638 56.8897 41.7674 56.6933C41.5711 56.497 41.4607 56.2306 41.4607 55.9529V41.2932C41.4607 41.0155 41.5711 40.7491 41.7674 40.5528C41.9638 40.3564 42.2301 40.2461 42.5078 40.2461C42.7856 40.2461 43.0519 40.3564 43.2483 40.5528C43.4447 40.7491 43.555 41.0155 43.555 41.2932V55.9529C43.555 56.2306 43.4447 56.497 43.2483 56.6933C43.0519 56.8897 42.7856 57 42.5078 57Z" fill="#404040"/>
<path d="M24.7068 46.5288C23.334 46.4794 22.0308 45.912 21.0594 44.9406C20.0881 43.9692 19.5206 42.666 19.4712 41.2932V32.9162C19.4712 28.5812 24.979 26.6335 28.8953 26.6335C29.173 26.6335 29.4393 26.7439 29.6357 26.9402C29.8321 27.1366 29.9424 27.4029 29.9424 27.6806C29.9424 27.9583 29.8321 28.2247 29.6357 28.4211C29.4393 28.6175 29.173 28.7278 28.8953 28.7278C25.8167 28.7278 21.5654 30.1833 21.5654 32.9162V41.2932C21.6151 42.1101 21.962 42.8806 22.5407 43.4593C23.1194 44.038 23.8899 44.3849 24.7068 44.4346C24.9845 44.4346 25.2509 44.5449 25.4472 44.7413C25.6436 44.9376 25.7539 45.204 25.7539 45.4817C25.7539 45.7594 25.6436 46.0258 25.4472 46.2222C25.2509 46.4185 24.9845 46.5288 24.7068 46.5288Z" fill="#404040"/>
<path d="M24.7068 57C24.4291 57 24.1628 56.8897 23.9664 56.6934C23.77 56.497 23.6597 56.2306 23.6597 55.9529V33.9633C23.6597 33.6856 23.77 33.4193 23.9664 33.2229C24.1628 33.0266 24.4291 32.9162 24.7068 32.9162C24.9845 32.9162 25.2509 33.0266 25.4473 33.2229C25.6436 33.4193 25.7539 33.6856 25.7539 33.9633V55.9529C25.7539 56.2306 25.6436 56.497 25.4473 56.6934C25.2509 56.8897 24.9845 57 24.7068 57Z" fill="#404040"/>
<path d="M28.3717 24.5393C27.7399 24.5543 27.1117 24.4392 26.5263 24.2011C25.9409 23.9629 25.4107 23.6069 24.9687 23.1552C24.5268 22.7034 24.1825 22.1655 23.9573 21.5749C23.7321 20.9844 23.6308 20.3539 23.6597 19.7225V17.8377C23.6597 16.588 24.1561 15.3895 25.0398 14.5058C25.9235 13.6221 27.122 13.1257 28.3717 13.1257C29.6214 13.1257 30.82 13.6221 31.7037 14.5058C32.5873 15.3895 33.0838 16.588 33.0838 17.8377V19.3037C33.0838 19.5814 32.9734 19.8478 32.7771 20.0441C32.5807 20.2405 32.3143 20.3508 32.0366 20.3508C31.7589 20.3508 31.4926 20.2405 31.2962 20.0441C31.0998 19.8478 30.9895 19.5814 30.9895 19.3037V17.8377C30.9895 17.1435 30.7137 16.4776 30.2228 15.9867C29.7319 15.4958 29.066 15.2199 28.3717 15.2199C27.6774 15.2199 27.0116 15.4958 26.5207 15.9867C26.0297 16.4776 25.7539 17.1435 25.7539 17.8377V19.7225C25.7255 20.0784 25.7729 20.4362 25.8929 20.7724C26.013 21.1085 26.203 21.4154 26.4504 21.6727C26.6978 21.93 26.997 22.1319 27.3282 22.265C27.6594 22.3981 28.015 22.4595 28.3717 22.445C28.6494 22.445 28.9158 22.5554 29.1122 22.7517C29.3085 22.9481 29.4188 23.2144 29.4188 23.4922C29.4188 23.7699 29.3085 24.0363 29.1122 24.2326C28.9158 24.429 28.6494 24.5393 28.3717 24.5393Z" fill="#404040"/>
<path d="M14.2356 49.6702C12.8628 49.6208 11.5596 49.0533 10.5883 48.082C9.61689 47.1106 9.0494 45.8074 9 44.4346V39.199C9 35.0733 13.1885 32.9162 17.377 32.9162C17.6547 32.9162 17.921 33.0266 18.1174 33.2229C18.3138 33.4193 18.4241 33.6856 18.4241 33.9633C18.4241 34.2411 18.3138 34.5075 18.1174 34.7038C17.921 34.9002 17.6547 35.0105 17.377 35.0105C14.2356 35.0105 11.0942 36.4555 11.0942 39.199V44.4346C11.1439 45.2515 11.4908 46.022 12.0695 46.6007C12.6482 47.1794 13.4187 47.5263 14.2356 47.5759C14.5133 47.5759 14.7797 47.6863 14.976 47.8826C15.1724 48.079 15.2827 48.3453 15.2827 48.623C15.2827 48.9007 15.1724 49.1671 14.976 49.3635C14.7797 49.5599 14.5133 49.6702 14.2356 49.6702Z" fill="#404040"/>
<path d="M14.2356 57C13.9579 57 13.6916 56.8897 13.4952 56.6933C13.2988 56.497 13.1885 56.2306 13.1885 55.9529V40.2461C13.1885 39.9684 13.2988 39.702 13.4952 39.5057C13.6916 39.3093 13.9579 39.1989 14.2356 39.1989C14.5133 39.1989 14.7797 39.3093 14.976 39.5057C15.1724 39.702 15.2827 39.9684 15.2827 40.2461V55.9529C15.2827 56.2306 15.1724 56.497 14.976 56.6933C14.7797 56.8897 14.5133 57 14.2356 57Z" fill="#404040"/>
<path d="M17.9005 30.822C17.2687 30.837 16.6406 30.7219 16.0551 30.4838C15.4697 30.2457 14.9395 29.8896 14.4975 29.4379C14.0556 28.9861 13.7113 28.4482 13.4861 27.8577C13.2609 27.2671 13.1596 26.6366 13.1885 26.0053V24.1205C13.1885 22.8707 13.6849 21.6722 14.5686 20.7885C15.4523 19.9048 16.6508 19.4084 17.9005 19.4084C19.1502 19.4084 20.3488 19.9048 21.2325 20.7885C22.1161 21.6722 22.6126 22.8707 22.6126 24.1205V26.0053C22.6126 26.283 22.5023 26.5493 22.3059 26.7457C22.1095 26.942 21.8432 27.0524 21.5654 27.0524C21.2877 27.0524 21.0214 26.942 20.825 26.7457C20.6287 26.5493 20.5183 26.283 20.5183 26.0053V24.1205C20.5183 23.4262 20.2425 22.7603 19.7516 22.2694C19.2607 21.7785 18.5948 21.5027 17.9005 21.5027C17.2062 21.5027 16.5404 21.7785 16.0495 22.2694C15.5585 22.7603 15.2827 23.4262 15.2827 24.1205V26.0053C15.2543 26.3611 15.3017 26.7189 15.4217 27.0551C15.5418 27.3912 15.7318 27.6981 15.9792 27.9554C16.2266 28.2127 16.5258 28.4146 16.857 28.5477C17.1882 28.6809 17.5439 28.7422 17.9005 28.7277C18.1782 28.7277 18.4446 28.8381 18.641 29.0345C18.8373 29.2308 18.9476 29.4972 18.9476 29.7749C18.9476 30.0526 18.8373 30.319 18.641 30.5153C18.4446 30.7117 18.1782 30.822 17.9005 30.822Z" fill="#404040"/>
</svg>
