<svg width="64" height="64" viewBox="0 0 64 64" fill="none" xmlns="http://www.w3.org/2000/svg">
<path d="M25.1818 57H22.9091V46.7727C22.9091 46.4713 23.0288 46.1823 23.242 45.9692C23.4551 45.7561 23.7441 45.6364 24.0455 45.6364H39.9546V47.9091H25.1818V57Z" fill="#404040"/>
<path d="M35.4091 47.9091C35.1077 47.9091 34.8187 47.7894 34.6056 47.5763C34.3925 47.3632 34.2727 47.0741 34.2727 46.7727V36.5454C34.274 36.2473 34.3923 35.9616 34.6023 35.75L35.875 34.4772C36.0877 34.2658 36.2564 34.0144 36.3715 33.7375C36.4866 33.4605 36.5457 33.1635 36.5455 32.8636V27.4545C36.5455 25.5795 34.0682 25.1818 32 25.1818C29.9318 25.1818 27.4545 25.5795 27.4545 27.4545V32.8636C27.4389 33.4613 27.6594 34.041 28.0682 34.4772L29.3409 35.75C29.555 35.9598 29.6775 36.2457 29.6818 36.5454V46.7727C29.6818 47.0741 29.5621 47.3632 29.349 47.5763C29.1359 47.7894 28.8468 47.9091 28.5454 47.9091C28.2441 47.9091 27.955 47.7894 27.7419 47.5763C27.5288 47.3632 27.4091 47.0741 27.4091 46.7727V37.0228L26.4659 36.0796C26.0439 35.6571 25.7093 35.1557 25.4812 34.6039C25.2531 34.0521 25.1359 33.4607 25.1364 32.8636V27.4545C25.1364 26.0909 25.7954 22.9091 31.9545 22.9091C38.1136 22.9091 38.7727 26.0909 38.7727 27.4545V32.8636C38.7828 34.0591 38.3214 35.2104 37.4886 36.0682L36.5455 37.0114V46.7614C36.547 46.9115 36.5187 47.0606 36.4622 47.1998C36.4058 47.3389 36.3223 47.4656 36.2167 47.5723C36.111 47.679 35.9852 47.7637 35.8466 47.8216C35.708 47.8794 35.5593 47.9091 35.4091 47.9091V47.9091Z" fill="#404040"/>
<path d="M32 21.7727C31.101 21.7727 30.2222 21.5061 29.4747 21.0066C28.7272 20.5072 28.1446 19.7973 27.8005 18.9667C27.4565 18.1362 27.3665 17.2222 27.5419 16.3405C27.7173 15.4588 28.1502 14.6488 28.7859 14.0131C29.4216 13.3774 30.2315 12.9446 31.1132 12.7692C31.995 12.5938 32.9089 12.6838 33.7395 13.0278C34.57 13.3718 35.2799 13.9544 35.7794 14.7019C36.2789 15.4494 36.5455 16.3282 36.5455 17.2272C36.5455 18.4328 36.0666 19.5889 35.2141 20.4414C34.3617 21.2938 33.2055 21.7727 32 21.7727ZM32 14.9545C31.5505 14.9545 31.1111 15.0878 30.7373 15.3376C30.3636 15.5873 30.0723 15.9423 29.9003 16.3576C29.7282 16.7728 29.6832 17.2298 29.7709 17.6706C29.8586 18.1115 30.0751 18.5165 30.3929 18.8343C30.7108 19.1522 31.1157 19.3687 31.5566 19.4563C31.9975 19.544 32.4544 19.499 32.8697 19.327C33.285 19.155 33.64 18.8637 33.8897 18.4899C34.1394 18.1162 34.2727 17.6767 34.2727 17.2272C34.2727 16.6245 34.0333 16.0464 33.6071 15.6202C33.1808 15.194 32.6028 14.9545 32 14.9545Z" fill="#404040"/>
<path d="M51.3182 42.2272C51.0168 42.2272 50.7278 42.1076 50.5147 41.8945C50.3016 41.6813 50.1818 41.3923 50.1818 41.0909V30.8636C50.1831 30.5655 50.3015 30.2798 50.5114 30.0681L51.7841 28.7954C51.9968 28.584 52.1656 28.3326 52.2806 28.0556C52.3957 27.7787 52.4548 27.4817 52.4546 27.1818V21.7727C52.4546 19.8977 49.9773 19.4999 47.9091 19.4999C45.8409 19.4999 43.3637 19.8977 43.3637 21.7727V27.1818C43.348 27.7794 43.5685 28.3592 43.9773 28.7954L45.25 30.0681C45.4641 30.2779 45.5867 30.5638 45.5909 30.8636V41.0909C45.5909 41.3923 45.4712 41.6813 45.2581 41.8945C45.045 42.1076 44.756 42.2272 44.4546 42.2272C44.1532 42.2272 43.8641 42.1076 43.651 41.8945C43.4379 41.6813 43.3182 41.3923 43.3182 41.0909V31.3409L42.375 30.3977C41.953 29.9753 41.6184 29.4738 41.3903 28.922C41.1622 28.3702 41.045 27.7789 41.0455 27.1818V21.7727C41.0455 20.409 41.7046 17.2272 47.8637 17.2272C54.0228 17.2272 54.6819 20.409 54.6819 21.7727V27.1818C54.6919 28.3773 54.2306 29.5286 53.3978 30.3863L52.4546 31.3295V41.0795C52.4561 41.2297 52.4278 41.3787 52.3714 41.5179C52.3149 41.6571 52.2315 41.7837 52.1258 41.8904C52.0201 41.9972 51.8943 42.0819 51.7557 42.1397C51.6171 42.1975 51.4684 42.2272 51.3182 42.2272V42.2272Z" fill="#404040"/>
<path d="M47.9092 16.0909C47.0102 16.0909 46.1313 15.8243 45.3838 15.3248C44.6364 14.8254 44.0537 14.1155 43.7097 13.2849C43.3657 12.4543 43.2757 11.5404 43.4511 10.6587C43.6264 9.77694 44.0594 8.96698 44.6951 8.33129C45.3307 7.69559 46.1407 7.26274 47.0224 7.08735C47.9041 6.91196 48.8181 7.00195 49.6486 7.34599C50.4792 7.69002 51.1891 8.27259 51.6886 9.02008C52.1881 9.76758 52.4546 10.6464 52.4546 11.5454C52.4546 12.7509 51.9757 13.9071 51.1233 14.7595C50.2709 15.612 49.1147 16.0909 47.9092 16.0909ZM47.9092 9.27269C47.4597 9.27269 47.0203 9.40602 46.6465 9.65575C46.2728 9.90548 45.9815 10.2604 45.8094 10.6757C45.6374 11.091 45.5924 11.548 45.6801 11.9888C45.7678 12.4297 45.9843 12.8347 46.3021 13.1525C46.62 13.4704 47.0249 13.6868 47.4658 13.7745C47.9066 13.8622 48.3636 13.8172 48.7789 13.6452C49.1942 13.4732 49.5491 13.1818 49.7989 12.8081C50.0486 12.4343 50.1819 11.9949 50.1819 11.5454C50.1819 10.9427 49.9425 10.3646 49.5162 9.93839C49.09 9.51217 48.5119 9.27269 47.9092 9.27269Z" fill="#404040"/>
<path d="M19.5 54.7273C19.1986 54.7273 18.9096 54.6076 18.6964 54.3945C18.4833 54.1814 18.3636 53.8923 18.3636 53.5909V43.3636C18.3649 43.0655 18.4832 42.7798 18.6932 42.5681L19.9659 41.2954C20.1786 41.084 20.3473 40.8326 20.4624 40.5556C20.5775 40.2787 20.6366 39.9817 20.6363 39.6818V34.2727C20.6363 32.3977 18.1591 32 16.0909 32C14.0227 32 11.5454 32.3977 11.5454 34.2727V39.6818C11.5298 40.2795 11.7502 40.8592 12.1591 41.2954L13.4318 42.5681C13.6459 42.778 13.7684 43.0639 13.7727 43.3636V53.5909C13.7727 53.8923 13.653 54.1814 13.4399 54.3945C13.2268 54.6076 12.9377 54.7273 12.6363 54.7273C12.3349 54.7273 12.0459 54.6076 11.8328 54.3945C11.6197 54.1814 11.5 53.8923 11.5 53.5909V43.8409L10.5568 42.8977C10.1348 42.4753 9.8002 41.9739 9.57207 41.4221C9.34394 40.8703 9.22677 40.2789 9.22724 39.6818V34.2727C9.22724 32.9091 9.88633 29.7272 16.0454 29.7272C22.2045 29.7272 22.8636 32.9091 22.8636 34.2727V39.6818C22.8737 40.8773 22.4123 42.0286 21.5795 42.8864L20.6363 43.8296V53.5795C20.6378 53.7297 20.6096 53.8788 20.5531 54.0179C20.4967 54.1571 20.4132 54.2837 20.3076 54.3905C20.2019 54.4972 20.0761 54.5819 19.9375 54.6397C19.7989 54.6976 19.6502 54.7273 19.5 54.7273V54.7273Z" fill="#404040"/>
<path d="M16.0909 28.5909C15.1919 28.5909 14.3131 28.3243 13.5656 27.8248C12.8181 27.3254 12.2355 26.6155 11.8915 25.785C11.5474 24.9544 11.4574 24.0404 11.6328 23.1587C11.8082 22.277 12.2411 21.467 12.8768 20.8313C13.5125 20.1956 14.3224 19.7628 15.2042 19.5874C16.0859 19.412 16.9998 19.502 17.8304 19.846C18.661 20.1901 19.3709 20.7726 19.8703 21.5201C20.3698 22.2676 20.6364 23.1464 20.6364 24.0454C20.6364 25.251 20.1575 26.4071 19.3051 27.2596C18.4526 28.112 17.2965 28.5909 16.0909 28.5909ZM16.0909 21.7727C15.6414 21.7727 15.202 21.9061 14.8283 22.1558C14.4545 22.4055 14.1632 22.7605 13.9912 23.1758C13.8192 23.5911 13.7742 24.048 13.8619 24.4889C13.9496 24.9297 14.166 25.3347 14.4839 25.6525C14.8017 25.9704 15.2067 26.1869 15.6475 26.2746C16.0884 26.3622 16.5454 26.3172 16.9607 26.1452C17.376 25.9732 17.7309 25.6819 17.9806 25.3081C18.2304 24.9344 18.3637 24.495 18.3637 24.0454C18.3637 23.4427 18.1242 22.8646 17.698 22.4384C17.2718 22.0122 16.6937 21.7727 16.0909 21.7727Z" fill="#404040"/>
<path d="M9.27273 57H7V53.5909C7 53.2895 7.11972 53.0005 7.33283 52.7874C7.54594 52.5743 7.83498 52.4545 8.13637 52.4545H24.0455V54.7273H9.27273V57Z" fill="#404040"/>
<path d="M57.0001 57H54.7273V42.2273H41.091V57H38.8182V41.0909C38.8182 40.7895 38.938 40.5005 39.1511 40.2874C39.3642 40.0743 39.6532 39.9545 39.9546 39.9545H55.8637C56.1651 39.9545 56.4541 40.0743 56.6672 40.2874C56.8804 40.5005 57.0001 40.7895 57.0001 41.0909V57Z" fill="#404040"/>
</svg>
