<svg width="64" height="64" viewBox="0 0 64 64" fill="none" xmlns="http://www.w3.org/2000/svg">
<path d="M32.9554 32.8944C32.6264 32.8912 32.3029 32.8102 32.0112 32.658C31.7195 32.5059 31.4679 32.2868 31.2771 32.0187L28.2644 27.8489H22.5518C21.7224 27.8489 20.927 27.5195 20.3405 26.933C19.754 26.3465 19.4245 25.551 19.4245 24.7216V10.1273C19.4245 9.29792 19.754 8.50248 20.3405 7.91599C20.927 7.3295 21.7224 7 22.5518 7H50.6979C51.5273 7 52.3228 7.3295 52.9093 7.91599C53.4958 8.50248 53.8252 9.29792 53.8252 10.1273V24.7216C53.8252 25.551 53.4958 26.3465 52.9093 26.933C52.3228 27.5195 51.5273 27.8489 50.6979 27.8489H48.613V25.7641H50.6979C50.9744 25.7641 51.2395 25.6542 51.435 25.4587C51.6305 25.2632 51.7403 24.9981 51.7403 24.7216V10.1273C51.7403 9.85087 51.6305 9.58573 51.435 9.39024C51.2395 9.19474 50.9744 9.08489 50.6979 9.08489H22.5518C22.2753 9.08489 22.0102 9.19474 21.8147 9.39024C21.6192 9.58573 21.5094 9.85087 21.5094 10.1273V24.7216C21.5094 24.9981 21.6192 25.2632 21.8147 25.4587C22.0102 25.6542 22.2753 25.7641 22.5518 25.7641H29.3382L32.9763 30.8512V25.7641H36.1036V27.8489H35.0612V30.8512C35.0612 31.4041 34.8415 31.9345 34.4505 32.3254C34.0595 32.7164 33.5292 32.9361 32.9763 32.9361L32.9554 32.8944Z" fill="#FA4616"/>
<path d="M17.3396 56.9958H15.2547C14.7384 57.0229 14.2237 56.9185 13.7588 56.6924C13.2939 56.4664 12.8939 56.126 12.5965 55.7032C12.304 55.2185 12.135 54.6695 12.1041 54.1042C12.0732 53.539 12.1814 52.9748 12.4192 52.4612C12.93 51.2415 13.5451 49.928 14.2018 48.5311C14.7022 47.4887 15.2443 46.2794 15.7968 45.0493C17.2875 41.7135 22.0515 41.3591 24.0113 41.3591V43.444C22.7916 43.444 18.7156 43.6212 17.6941 45.9042C17.1416 47.1447 16.5995 48.3122 16.0887 49.4068C15.4424 50.7932 14.8377 52.0963 14.3374 53.2743C14.239 53.4737 14.1878 53.693 14.1878 53.9154C14.1878 54.1377 14.239 54.3571 14.3374 54.5565C14.4493 54.6865 14.5916 54.7868 14.7516 54.8487C14.9116 54.9105 15.0844 54.9319 15.2547 54.9109H17.3396V56.9958Z" fill="#404040"/>
<path d="M38.1885 56.9958H36.1036V54.9109H38.1885C38.3588 54.9319 38.5316 54.9105 38.6916 54.8487C38.8517 54.7868 38.9939 54.6865 39.1059 54.5565C39.2043 54.3571 39.2554 54.1377 39.2554 53.9154C39.2554 53.693 39.2043 53.4737 39.1059 53.2743C38.6055 52.0859 37.9905 50.7828 37.3546 49.4068C36.8438 48.3018 36.3121 47.1447 35.7388 45.9042C34.6964 43.6212 30.6516 43.444 29.432 43.444V41.3591C31.4022 41.3591 36.1558 41.7135 37.6465 45.0493C38.2024 46.2794 38.7341 47.4366 39.2414 48.5207C39.8982 49.9176 40.5132 51.2415 41.024 52.4612C41.2592 52.9755 41.366 53.5393 41.3351 54.104C41.3042 54.6687 41.1366 55.2175 40.8468 55.7032C40.5493 56.126 40.1494 56.4664 39.6844 56.6924C39.2195 56.9185 38.7048 57.0229 38.1885 56.9958V56.9958Z" fill="#404040"/>
<path d="M32.9763 56.9958H20.4669C20.1904 56.9958 19.9253 56.8859 19.7298 56.6905C19.5343 56.495 19.4245 56.2298 19.4245 55.9533V47.6138C19.4245 47.3373 19.5343 47.0721 19.7298 46.8766C19.9253 46.6811 20.1904 46.5713 20.4669 46.5713H32.9763C33.2528 46.5713 33.5179 46.6811 33.7134 46.8766C33.9089 47.0721 34.0187 47.3373 34.0187 47.6138V55.9533C34.0187 56.2298 33.9089 56.495 33.7134 56.6905C33.5179 56.8859 33.2528 56.9958 32.9763 56.9958ZM21.5094 54.9109H31.9338V48.6562H21.5094V54.9109Z" fill="#404040"/>
<path d="M26.7216 44.4864C26.0153 44.4731 25.3187 44.3191 24.6726 44.0334C24.0264 43.7478 23.4437 43.3362 22.9584 42.8228C22.4731 42.3094 22.0951 41.7044 21.8463 41.0432C21.5975 40.382 21.4829 39.6778 21.5094 38.9719V37.4812C21.5094 36.0988 22.0585 34.773 23.036 33.7956C24.0135 32.8181 25.3392 32.269 26.7216 32.269C28.104 32.269 29.4298 32.8181 30.4072 33.7956C31.3847 34.773 31.9338 36.0988 31.9338 37.4812V38.9719C31.9603 39.6778 31.8458 40.382 31.597 41.0432C31.3482 41.7044 30.9701 42.3094 30.4848 42.8228C29.9996 43.3362 29.4168 43.7478 28.7707 44.0334C28.1245 44.3191 27.4279 44.4731 26.7216 44.4864V44.4864ZM26.7216 34.062C26.2907 34.078 25.8673 34.1795 25.476 34.3606C25.0847 34.5417 24.7333 34.7989 24.4423 35.117C24.1513 35.4352 23.9265 35.8081 23.7809 36.214C23.6353 36.6198 23.5719 37.0506 23.5943 37.4812V38.9719C23.5943 39.8013 23.9238 40.5967 24.5103 41.1832C25.0967 41.7697 25.8922 42.0992 26.7216 42.0992C27.551 42.0992 28.3465 41.7697 28.933 41.1832C29.5195 40.5967 29.849 39.8013 29.849 38.9719V37.4812C29.8714 37.0506 29.8079 36.6198 29.6623 36.214C29.5167 35.8081 29.2919 35.4352 29.0009 35.117C28.7099 34.7989 28.3585 34.5417 27.9672 34.3606C27.5759 34.1795 27.1525 34.078 26.7216 34.062V34.062Z" fill="#404040"/>
<path d="M42.3583 37.1893C41.652 37.1759 40.9554 37.0219 40.3093 36.7363C39.6631 36.4506 39.0804 36.0391 38.5951 35.5257C38.1099 35.0123 37.7318 34.4073 37.483 33.7461C37.2342 33.0849 37.1196 32.3807 37.1461 31.6747V30.1841C37.1461 29.4996 37.2809 28.8218 37.5429 28.1894C37.8048 27.557 38.1887 26.9824 38.6727 26.4984C39.1567 26.0144 39.7313 25.6305 40.3637 25.3686C40.9961 25.1066 41.6738 24.9718 42.3583 24.9718C43.0428 24.9718 43.7206 25.1066 44.353 25.3686C44.9853 25.6305 45.56 26.0144 46.044 26.4984C46.528 26.9824 46.9119 27.557 47.1738 28.1894C47.4358 28.8218 47.5706 29.4996 47.5706 30.1841V31.6747C47.597 32.3807 47.4825 33.0849 47.2337 33.7461C46.9849 34.4073 46.6068 35.0123 46.1215 35.5257C45.6363 36.0391 45.0535 36.4506 44.4074 36.7363C43.7613 37.0219 43.0647 37.1759 42.3583 37.1893V37.1893ZM42.3583 26.7648C41.9274 26.7808 41.5041 26.8823 41.1128 27.0635C40.7215 27.2446 40.3701 27.5017 40.0791 27.8199C39.788 28.1381 39.5632 28.511 39.4176 28.9168C39.272 29.3227 39.2086 29.7534 39.231 30.1841V31.6747C39.231 32.5042 39.5605 33.2996 40.147 33.8861C40.7335 34.4726 41.5289 34.8021 42.3583 34.8021C43.1878 34.8021 43.9832 34.4726 44.5697 33.8861C45.1562 33.2996 45.4857 32.5042 45.4857 31.6747V30.1841C45.5081 29.7534 45.4446 29.3227 45.2991 28.9168C45.1535 28.511 44.9286 28.1381 44.6376 27.8199C44.3466 27.5017 43.9952 27.2446 43.6039 27.0635C43.2126 26.8823 42.7892 26.7808 42.3583 26.7648V26.7648Z" fill="#404040"/>
<path d="M54.8677 56.9958H10.0424C9.76597 56.9958 9.50084 56.886 9.30534 56.6905C9.10984 56.495 9 56.2298 9 55.9534C9 55.6769 9.10984 55.4117 9.30534 55.2162C9.50084 55.0207 9.76597 54.9109 10.0424 54.9109H54.8677C55.1442 54.9109 55.4093 55.0207 55.6048 55.2162C55.8003 55.4117 55.9101 55.6769 55.9101 55.9534C55.9101 56.2298 55.8003 56.495 55.6048 56.6905C55.4093 56.886 55.1442 56.9958 54.8677 56.9958Z" fill="#404040"/>
<path d="M47.5705 46.5713H40.4923C40.2159 46.5713 39.9507 46.4615 39.7552 46.266C39.5597 46.0705 39.4499 45.8053 39.4499 45.5289C39.4499 45.2524 39.5597 44.9872 39.7552 44.7917C39.9507 44.5962 40.2159 44.4864 40.4923 44.4864H45.9652L45.3293 43.0478C45.2173 42.7949 45.2104 42.5078 45.3101 42.2497C45.4098 41.9917 45.608 41.7838 45.8609 41.6718C46.1139 41.5598 46.401 41.5529 46.6591 41.6527C46.9171 41.7524 47.125 41.9505 47.237 42.2035L48.5192 45.1015C48.5905 45.2601 48.6209 45.4339 48.6079 45.6073C48.5948 45.7807 48.5385 45.948 48.4442 46.0941C48.35 46.2402 48.2206 46.3604 48.068 46.4437C47.9154 46.5271 47.7444 46.571 47.5705 46.5713V46.5713Z" fill="#404040"/>
<path d="M48.957 51.377H48.8424L42.3271 50.6264C42.0506 50.5946 41.7981 50.4543 41.6251 50.2363C41.4521 50.0184 41.3727 49.7406 41.4045 49.4641C41.4363 49.1876 41.5766 48.9351 41.7946 48.7621C42.0126 48.5891 42.2904 48.5097 42.5668 48.5415L49.0092 49.2817C50.1663 49.2295 51.584 47.0717 51.657 46.4983C51.2905 44.6655 50.7314 42.8764 49.9891 41.161C48.8945 38.3673 48.1335 37.1372 45.4857 37.1372H40.0754C38.2824 37.1997 37.6152 37.2205 35.7909 39.8058C35.6331 40.0322 35.3919 40.1868 35.1203 40.2356C34.8487 40.2845 34.5687 40.2236 34.3419 40.0664C34.2292 39.9874 34.1332 39.8869 34.0595 39.7706C33.9859 39.6543 33.936 39.5245 33.9127 39.3888C33.8894 39.2532 33.8933 39.1142 33.924 38.98C33.9547 38.8458 34.0117 38.7191 34.0917 38.607C36.3955 35.3442 37.7716 35.1357 39.992 35.0523H45.4857C49.5095 35.0523 50.7813 37.4707 51.928 40.4C52.2303 41.1714 53.7419 45.1015 53.7419 46.5192C53.7419 47.9369 51.4276 51.377 48.957 51.377Z" fill="#404040"/>
<path d="M49.6555 50.7411H47.5706V55.9534H49.6555V50.7411Z" fill="#404040"/>
</svg>
