<svg width="64" height="64" viewBox="0 0 64 64" fill="none" xmlns="http://www.w3.org/2000/svg">
<path d="M20.8268 57L8 44.1733L13.5975 38.5861L26.414 51.4026L20.8268 57ZM10.9227 44.1733L20.8268 54.0773L23.4913 51.4026L13.5975 41.5087L10.9227 44.1733Z" fill="#404040"/>
<path d="M39.1272 23.5183H37.0616V8.02698H39.1272V12.3955C39.4564 12.2671 39.8065 12.2006 40.1599 12.1993C41.2555 12.1993 42.3063 12.6345 43.081 13.4092C43.8557 14.1839 44.2909 15.2347 44.2909 16.3303C44.2909 17.426 43.8557 18.4766 43.081 19.2514C42.3063 20.0261 41.2555 20.4614 40.1599 20.4614C39.8076 20.4586 39.4583 20.3956 39.1272 20.2754V23.5183ZM37.3508 16.289L38.7863 17.5903C39.1589 17.9748 39.6367 18.2407 40.1599 18.3545C40.7077 18.3545 41.2331 18.1369 41.6204 17.7495C42.0078 17.3621 42.2254 16.8368 42.2254 16.289C42.2254 15.7412 42.0078 15.2159 41.6204 14.8285C41.2331 14.4411 40.7077 14.2235 40.1599 14.2235C39.6342 14.3366 39.1552 14.6067 38.7863 14.9981L37.3508 16.289Z" fill="#FA4616"/>
<path d="M45.3237 29.7147C44.2281 29.7147 43.1773 29.2795 42.4026 28.5047C41.6279 27.73 41.1927 26.6793 41.1927 25.5837C41.194 25.2303 41.2605 24.8802 41.3889 24.551H38.0944V22.4855H53.5857V24.551H49.2585C49.3787 24.8822 49.4416 25.2314 49.4444 25.5837C49.4444 26.6776 49.0106 27.7267 48.2381 28.5011C47.4656 29.2755 46.4175 29.712 45.3237 29.7147ZM45.3237 22.7747L44.0327 24.2101C43.6414 24.5789 43.3713 25.058 43.2582 25.5837C43.2582 26.1315 43.4758 26.6569 43.8632 27.0442C44.2505 27.4316 44.7759 27.6492 45.3237 27.6492C45.8715 27.6492 46.3969 27.4316 46.7842 27.0442C47.1716 26.6569 47.3892 26.1315 47.3892 25.5837C47.2754 25.0606 47.0095 24.5826 46.625 24.2101L45.3237 22.7747Z" fill="#FA4616"/>
<path d="M39.1272 37.9768H37.0617V34.6926C36.7305 34.8128 36.3812 34.8757 36.0289 34.8785C34.9333 34.8785 33.8825 34.4432 33.1078 33.6685C32.3331 32.8938 31.8979 31.8431 31.8979 30.7475C31.8979 29.6519 32.3331 28.6011 33.1078 27.8264C33.8825 27.0517 34.9333 26.6165 36.0289 26.6165C36.3824 26.6168 36.7327 26.6833 37.0617 26.8127V23.5182H39.1272V37.9768ZM36.0289 28.682C35.4811 28.682 34.9557 28.8997 34.5684 29.287C34.181 29.6744 33.9634 30.1997 33.9634 30.7475C33.9634 31.2953 34.181 31.8207 34.5684 32.208C34.9557 32.5954 35.4811 32.813 36.0289 32.813C36.5539 32.704 37.0331 32.4374 37.4025 32.0488L38.8483 30.7475L37.4128 29.4566C37.0416 29.0629 36.5586 28.7925 36.0289 28.682Z" fill="#FA4616"/>
<path d="M38.0944 24.551H22.6031V22.4855H26.9304C26.801 22.1565 26.7345 21.8062 26.7342 21.4527C26.7342 20.3571 27.1694 19.3063 27.9441 18.5316C28.7188 17.7569 29.7696 17.3217 30.8652 17.3217C31.9608 17.3217 33.0115 17.7569 33.7862 18.5316C34.5609 19.3063 34.9962 20.3571 34.9962 21.4527C34.9934 21.805 34.9305 22.1543 34.8103 22.4855H38.0944V24.551ZM30.8652 19.3872C30.3174 19.3872 29.792 19.6049 29.4046 19.9922C29.0173 20.3796 28.7997 20.9049 28.7997 21.4527C28.9076 21.9804 29.1786 22.4608 29.5742 22.8262L30.8652 24.2721L32.1664 22.8262C32.5589 22.4598 32.8262 21.9794 32.9307 21.4527C32.9307 20.9049 32.7131 20.3796 32.3257 19.9922C31.9383 19.6049 31.413 19.3872 30.8652 19.3872Z" fill="#FA4616"/>
<path d="M25.7737 34.5376C23.7621 32.2876 22.4051 29.5298 21.85 26.5631C21.2949 23.5965 21.5629 20.5345 22.625 17.7095C23.687 14.8844 25.5025 12.4041 27.8744 10.5378C30.2464 8.67155 33.0841 7.49056 36.0798 7.123C39.0754 6.75543 42.1145 7.21542 44.8673 8.45289C47.62 9.69036 49.9813 11.6581 51.6948 14.1426C53.4083 16.6271 54.4087 19.5335 54.5872 22.5463C54.7658 25.5592 54.1159 28.5633 52.7079 31.2328L50.8799 30.2724C52.1131 27.9371 52.6832 25.3085 52.5282 22.6722C52.3732 20.0358 51.4991 17.4922 50.0007 15.3174C48.5024 13.1427 46.437 11.42 44.0287 10.3361C41.6205 9.25219 38.9613 8.84859 36.3399 9.16909C33.7185 9.48958 31.2349 10.522 29.1588 12.1541C27.0826 13.7863 25.4931 15.9559 24.5628 18.4276C23.6325 20.8992 23.3969 23.5785 23.8817 26.1746C24.3664 28.7707 25.5529 31.1843 27.3125 33.1537L25.7737 34.5376Z" fill="#FA4616"/>
<path d="M24.6686 51.1029L23.2124 49.6467L23.3467 49.5022C23.6682 49.1105 24.0761 48.7985 24.5384 48.5906C25.0006 48.3828 25.5047 48.2848 26.0112 48.3042H41.0893C42.2564 47.8188 47.4924 42.748 48.6801 41.426C50.4142 39.1036 51.9745 36.6562 53.3481 34.1039C52.5337 33.6927 51.5971 33.5935 50.7146 33.825C49.372 34.1348 48.4735 35.0746 47.2652 37.419L47.1206 37.7082L42.0911 40.2797L41.141 38.4517L45.5818 36.1384C46.8108 33.8147 48.0501 32.2759 50.2499 31.7698C51.1578 31.5017 52.1227 31.493 53.0353 31.7449C53.9479 31.9967 54.7718 32.4991 55.4136 33.195L55.7648 33.6701L55.5272 34.2175C54.0118 37.2214 52.2246 40.0803 50.1879 42.7583C50.1259 42.8306 43.0826 50.3284 41.1513 50.3284H25.9905C25.7666 50.3102 25.5419 50.3512 25.3389 50.4473C25.1359 50.5433 24.9617 50.6911 24.8338 50.8758L24.6686 51.1029Z" fill="#404040"/>
<path d="M39.1272 44.1733H29.8324V42.1078H39.1272C40.5627 42.1078 41.1927 41.3332 41.1927 40.5587C41.1927 39.7841 40.5627 39.0095 39.1272 39.0095H32.9307C32.1338 38.8968 31.3929 38.5354 30.8135 37.9768C30.3249 37.5108 29.7395 37.1582 29.0992 36.944H23.9354C22.6445 37.1716 21.4568 37.7961 20.5376 38.7307C19.0195 40.2488 16.293 42.8617 16.262 42.8617L14.8472 41.3642C14.8472 41.3642 17.584 38.772 19.1021 37.2332C20.2898 36.1282 22.2004 34.8578 23.9664 34.8578H29.1301C30.2458 35.0015 31.2853 35.5014 32.0941 36.2831C32.3909 36.5326 32.7128 36.7506 33.0546 36.9337H39.1272C41.8433 36.9337 43.2582 38.7513 43.2582 40.5483C43.2582 42.3453 41.833 44.1733 39.1272 44.1733Z" fill="#404040"/>
</svg>
