<svg width="64" height="64" viewBox="0 0 64 64" fill="none" xmlns="http://www.w3.org/2000/svg">
<path d="M55.9583 43.2917H52.8958V41.2083H54.9167V13.0833H9.08333V41.2083H11.1042V43.2917H8.04167C7.7654 43.2917 7.50045 43.1819 7.3051 42.9866C7.10975 42.7912 7 42.5263 7 42.25V12.0417C7 11.7654 7.10975 11.5004 7.3051 11.3051C7.50045 11.1097 7.7654 11 8.04167 11H55.9583C56.2346 11 56.4996 11.1097 56.6949 11.3051C56.8903 11.5004 57 11.7654 57 12.0417V42.25C57 42.5263 56.8903 42.7912 56.6949 42.9866C56.4996 43.1819 56.2346 43.2917 55.9583 43.2917Z" fill="#FA4616"/>
<path d="M20.5417 29.75C19.8359 29.7367 19.1398 29.5828 18.4942 29.2973C17.8485 29.0119 17.2662 28.6007 16.7813 28.0876C16.2964 27.5746 15.9186 26.97 15.67 26.3093C15.4214 25.6486 15.3069 24.945 15.3334 24.2396V22.75C15.3334 21.3687 15.8821 20.0439 16.8589 19.0671C17.8356 18.0904 19.1604 17.5417 20.5417 17.5417C21.923 17.5417 23.2478 18.0904 24.2246 19.0671C25.2013 20.0439 25.75 21.3687 25.75 22.75V24.2396C25.7765 24.945 25.662 25.6486 25.4134 26.3093C25.1648 26.97 24.787 27.5746 24.3021 28.0876C23.8172 28.6007 23.2349 29.0119 22.5892 29.2973C21.9436 29.5828 21.2475 29.7367 20.5417 29.75V29.75ZM20.5417 19.3333C20.1111 19.3493 19.6881 19.4507 19.2971 19.6317C18.906 19.8127 18.5549 20.0697 18.2641 20.3876C17.9733 20.7056 17.7487 21.0782 17.6032 21.4837C17.4577 21.8893 17.3943 22.3197 17.4167 22.75V24.2396C17.4167 25.0684 17.7459 25.8632 18.332 26.4493C18.918 27.0353 19.7129 27.3646 20.5417 27.3646C21.3705 27.3646 22.1654 27.0353 22.7514 26.4493C23.3375 25.8632 23.6667 25.0684 23.6667 24.2396V22.75C23.6891 22.3197 23.6257 21.8893 23.4802 21.4837C23.3347 21.0782 23.1101 20.7056 22.8193 20.3876C22.5285 20.0697 22.1774 19.8127 21.7864 19.6317C21.3954 19.4507 20.9723 19.3493 20.5417 19.3333V19.3333Z" fill="#404040"/>
<path d="M26.7916 41.2083H24.7083V34.2083L25.4166 33.9687C25.625 33.8958 30.625 32.2187 31.6666 31.8854C32.2033 31.7854 32.7014 31.5373 33.1045 31.1692C33.5076 30.801 33.7998 30.3275 33.9479 29.8021H19.5C15.8541 29.8021 14.2916 31.3542 14.2916 35.0104V39.1771H12.2083V35.0104C12.2083 30.2396 14.7291 27.7187 19.5 27.7187H36.1666V28.7604C36.224 29.9339 35.8706 31.0908 35.1672 32.0319C34.4637 32.973 33.4543 33.6395 32.3125 33.9167C31.4896 34.1771 28.25 35.2708 26.7916 35.7604V41.2083Z" fill="#404040"/>
<path d="M40.3333 53.7083H38.25C38.25 50.0833 35.5104 49.5417 33.875 49.5417H31.1666C29.5312 49.5417 26.7916 50.0833 26.7916 53.7083H24.7083C24.7083 49.0937 28.0416 47.4583 31.1666 47.4583H33.875C37 47.4583 40.3333 49.1354 40.3333 53.7083Z" fill="#404040"/>
<path d="M32.5521 49.5417C31.956 49.5667 31.3608 49.473 30.8012 49.2659C30.2416 49.0588 29.7288 48.7425 29.2926 48.3354C28.8564 47.9282 28.5055 47.4384 28.2603 46.8944C28.0152 46.3504 27.8807 45.7631 27.8646 45.1667V43.5C27.9439 42.3108 28.4723 41.1962 29.3426 40.382C30.213 39.5677 31.3603 39.1147 32.5521 39.1147C33.744 39.1147 34.8913 39.5677 35.7616 40.382C36.632 41.1962 37.1603 42.3108 37.2396 43.5V45.1667C37.2236 45.7631 37.0891 46.3504 36.8439 46.8944C36.5988 47.4384 36.2479 47.9282 35.8117 48.3354C35.3755 48.7425 34.8627 49.0588 34.3031 49.2659C33.7435 49.473 33.1483 49.5667 32.5521 49.5417V49.5417ZM32.5521 41.2083C32.2305 41.1871 31.9079 41.2297 31.6028 41.3335C31.2976 41.4373 31.016 41.6003 30.774 41.8132C30.5321 42.0262 30.3346 42.2848 30.1928 42.5742C30.051 42.8637 29.9678 43.1783 29.948 43.5V45.1667C30.0283 45.8006 30.3372 46.3835 30.8166 46.806C31.296 47.2285 31.9131 47.4616 32.5521 47.4616C33.1912 47.4616 33.8082 47.2285 34.2877 46.806C34.7671 46.3835 35.0759 45.8006 35.1563 45.1667V43.5C35.1364 43.1783 35.0532 42.8637 34.9115 42.5742C34.7697 42.2848 34.5722 42.0262 34.3302 41.8132C34.0882 41.6003 33.8066 41.4373 33.5015 41.3335C33.1964 41.2297 32.8737 41.1871 32.5521 41.2083V41.2083Z" fill="#404040"/>
<path d="M26.7917 53.7083H24.7084C24.7084 50.0833 21.9688 49.5417 20.3334 49.5417H17.625C15.9896 49.5417 13.25 50.0833 13.25 53.7083H11.1667C11.1667 49.0937 14.5 47.4583 17.625 47.4583H20.3334C23.4584 47.4583 26.7917 49.1354 26.7917 53.7083Z" fill="#404040"/>
<path d="M19.0104 49.5417C18.4143 49.5667 17.8191 49.473 17.2595 49.2659C16.6999 49.0588 16.1871 48.7425 15.7509 48.3354C15.3147 47.9282 14.9638 47.4384 14.7186 46.8944C14.4735 46.3504 14.339 45.7631 14.3229 45.1667V43.5C14.4023 42.3108 14.9306 41.1962 15.801 40.382C16.6713 39.5677 17.8186 39.1147 19.0104 39.1147C20.2023 39.1147 21.3496 39.5677 22.2199 40.382C23.0903 41.1962 23.6186 42.3108 23.6979 43.5V45.1667C23.6819 45.7631 23.5474 46.3504 23.3022 46.8944C23.0571 47.4384 22.7062 47.9282 22.27 48.3354C21.8338 48.7425 21.321 49.0588 20.7614 49.2659C20.2018 49.473 19.6066 49.5667 19.0104 49.5417ZM19.0104 41.2083C18.6888 41.1871 18.3662 41.2297 18.0611 41.3335C17.7559 41.4373 17.4743 41.6003 17.2324 41.8132C16.9904 42.0262 16.7929 42.2848 16.6511 42.5742C16.5093 42.8637 16.4261 43.1783 16.4063 43.5V45.1667C16.4866 45.8006 16.7955 46.3835 17.2749 46.806C17.7543 47.2285 18.3714 47.4616 19.0104 47.4616C19.6495 47.4616 20.2666 47.2285 20.746 46.806C21.2254 46.3835 21.5343 45.8006 21.6146 45.1667V43.5C21.5947 43.1783 21.5115 42.8637 21.3698 42.5742C21.228 42.2848 21.0305 42.0262 20.7885 41.8132C20.5466 41.6003 20.2649 41.4373 19.9598 41.3335C19.6547 41.2297 19.332 41.1871 19.0104 41.2083Z" fill="#404040"/>
<path d="M53.875 53.7083H51.7917C51.7917 50.0833 49.0521 49.5417 47.4167 49.5417H44.7083C43.0729 49.5417 40.3333 50.0833 40.3333 53.7083H38.25C38.25 49.0937 41.5833 47.4583 44.7083 47.4583H47.4167C50.5417 47.4583 53.875 49.1354 53.875 53.7083Z" fill="#404040"/>
<path d="M46.0937 49.5417C45.4976 49.5667 44.9024 49.473 44.3428 49.2659C43.7832 49.0588 43.2704 48.7425 42.8342 48.3354C42.398 47.9282 42.0471 47.4384 41.8019 46.8944C41.5568 46.3504 41.4223 45.7631 41.4062 45.1667V43.5C41.4856 42.3108 42.0139 41.1962 42.8843 40.382C43.7546 39.5677 44.9019 39.1147 46.0937 39.1147C47.2856 39.1147 48.4329 39.5677 49.3032 40.382C50.1736 41.1962 50.7019 42.3108 50.7812 43.5V45.1667C50.7652 45.7631 50.6307 46.3504 50.3856 46.8944C50.1404 47.4384 49.7895 47.9282 49.3533 48.3354C48.9171 48.7425 48.4043 49.0588 47.8447 49.2659C47.2851 49.473 46.6899 49.5667 46.0937 49.5417V49.5417ZM46.0937 41.2083C45.7721 41.1871 45.4495 41.2297 45.1444 41.3335C44.8393 41.4373 44.5576 41.6003 44.3157 41.8132C44.0737 42.0262 43.8762 42.2848 43.7344 42.5742C43.5927 42.8637 43.5095 43.1783 43.4896 43.5V45.1667C43.5699 45.8006 43.8788 46.3835 44.3582 46.806C44.8376 47.2285 45.4547 47.4616 46.0937 47.4616C46.7328 47.4616 47.3499 47.2285 47.8293 46.806C48.3087 46.3835 48.6176 45.8006 48.6979 45.1667V43.5C48.678 43.1783 48.5948 42.8637 48.4531 42.5742C48.3113 42.2848 48.1138 42.0262 47.8718 41.8132C47.6299 41.6003 47.3482 41.4373 47.0431 41.3335C46.738 41.2297 46.4154 41.1871 46.0937 41.2083Z" fill="#404040"/>
</svg>
