<svg width="64" height="64" viewBox="0 0 64 64" fill="none" xmlns="http://www.w3.org/2000/svg">
<path d="M39.6419 57H37.5156V54.8737C37.303 54.3634 34.6451 52.7474 32.1999 52.7474C29.7546 52.7474 27.1074 54.3633 26.8841 54.9693V57H24.7578V54.8737C24.7578 52.7474 29.0848 50.6211 32.1999 50.6211C35.3149 50.6211 39.6419 52.7474 39.6419 54.8737V57Z" fill="#404040"/>
<path d="M32.1999 52.7474C31.4751 52.7486 30.7577 52.6016 30.0918 52.3154C29.4259 52.0291 28.8256 51.6098 28.3277 51.0831C27.8298 50.5564 27.4449 49.9334 27.1967 49.2524C26.9484 48.5715 26.8421 47.8469 26.8841 47.1233V45.603C26.8841 44.1932 27.4441 42.8411 28.441 41.8443C29.4379 40.8474 30.79 40.2873 32.1999 40.2873C33.6097 40.2873 34.9618 40.8474 35.9586 41.8443C36.9555 42.8411 37.5156 44.1932 37.5156 45.603V47.1233C37.5576 47.8469 37.4513 48.5715 37.203 49.2524C36.9547 49.9334 36.5699 50.5564 36.072 51.0831C35.5741 51.6098 34.9738 52.0291 34.3079 52.3154C33.642 52.6016 32.9246 52.7486 32.1999 52.7474ZM32.1999 42.1159C31.7547 42.1139 31.3141 42.2052 30.9064 42.3837C30.4987 42.5623 30.1328 42.8242 29.8324 43.1527C29.532 43.4811 29.3037 43.8688 29.1621 44.2908C29.0205 44.7129 28.9689 45.1599 29.0104 45.603V47.1233C29.0104 47.9692 29.3464 48.7804 29.9446 49.3786C30.5427 49.9767 31.354 50.3127 32.1999 50.3127C33.0458 50.3127 33.857 49.9767 34.4551 49.3786C35.0533 48.7804 35.3893 47.9692 35.3893 47.1233V45.603C35.4309 45.1599 35.3792 44.7129 35.2376 44.2908C35.096 43.8688 34.8677 43.4811 34.5673 43.1527C34.2669 42.8242 33.901 42.5623 33.4933 42.3837C33.0856 42.2052 32.645 42.1139 32.1999 42.1159V42.1159Z" fill="#404040"/>
<path d="M52.3997 57H50.2734V54.8737C50.0608 54.3634 47.4029 52.7474 44.9577 52.7474C42.5124 52.7474 39.8652 54.3633 39.6419 54.9693L37.5156 54.8737C37.5156 52.7474 41.8426 50.6211 44.9577 50.6211C48.0727 50.6211 52.3997 52.7474 52.3997 54.8737V57Z" fill="#404040"/>
<path d="M44.9577 52.7474C44.2329 52.7486 43.5155 52.6016 42.8496 52.3154C42.1837 52.0291 41.5834 51.6098 41.0855 51.0831C40.5876 50.5564 40.2027 49.9334 39.9545 49.2524C39.7062 48.5715 39.5999 47.8469 39.6419 47.1233V45.603C39.6419 44.1932 40.2019 42.8411 41.1988 41.8443C42.1957 40.8474 43.5478 40.2873 44.9577 40.2873C46.3675 40.2873 47.7196 40.8474 48.7165 41.8443C49.7134 42.8411 50.2734 44.1932 50.2734 45.603V47.1233C50.3155 47.8469 50.2091 48.5715 49.9608 49.2524C49.7126 49.9334 49.3277 50.5564 48.8298 51.0831C48.332 51.6098 47.7316 52.0291 47.0657 52.3154C46.3998 52.6016 45.6825 52.7486 44.9577 52.7474ZM44.9577 42.1159C44.5126 42.1139 44.072 42.2052 43.6642 42.3837C43.2565 42.5623 42.8907 42.8242 42.5902 43.1527C42.2898 43.4811 42.0615 43.8688 41.9199 44.2908C41.7783 44.7129 41.7267 45.1599 41.7682 45.603V47.1233C41.7682 47.9692 42.1042 48.7804 42.7024 49.3786C43.3005 49.9767 44.1118 50.3127 44.9577 50.3127C45.8036 50.3127 46.6148 49.9767 47.2129 49.3786C47.8111 48.7804 48.1471 47.9692 48.1471 47.1233V45.603C48.1887 45.1599 48.137 44.7129 47.9954 44.2908C47.8538 43.8688 47.6255 43.4811 47.3251 43.1527C47.0247 42.8242 46.6588 42.5623 46.2511 42.3837C45.8434 42.2052 45.4028 42.1139 44.9577 42.1159V42.1159Z" fill="#404040"/>
<path d="M14.1263 57H12V54.8737C12 52.7474 16.327 50.6211 19.4421 50.6211C22.5571 50.6211 26.8841 52.7474 26.8841 54.8737H24.7578C24.5452 54.3634 21.8873 52.7474 19.4421 52.7474C16.9968 52.7474 14.3496 54.3633 14.1263 54.9693V57Z" fill="#404040"/>
<path d="M19.442 52.7474C18.7172 52.7486 17.9999 52.6016 17.334 52.3154C16.6681 52.0291 16.0678 51.6098 15.5699 51.0831C15.072 50.5564 14.6871 49.9334 14.4389 49.2524C14.1906 48.5715 14.0843 47.8469 14.1263 47.1233V45.603C14.1263 44.1932 14.6863 42.8411 15.6832 41.8443C16.6801 40.8474 18.0322 40.2873 19.442 40.2873C20.8519 40.2873 22.2039 40.8474 23.2008 41.8443C24.1977 42.8411 24.7578 44.1932 24.7578 45.603V47.1233C24.7998 47.8469 24.6934 48.5715 24.4452 49.2524C24.1969 49.9334 23.8121 50.5564 23.3142 51.0831C22.8163 51.6098 22.216 52.0291 21.5501 52.3154C20.8842 52.6016 20.1668 52.7486 19.442 52.7474V52.7474ZM19.442 42.1159C18.9969 42.1139 18.5563 42.2052 18.1486 42.3837C17.7409 42.5623 17.375 42.8242 17.0746 43.1527C16.7742 43.4811 16.5458 43.8688 16.4043 44.2908C16.2627 44.7129 16.211 45.1599 16.2526 45.603V47.1233C16.2526 47.9692 16.5886 48.7804 17.1867 49.3786C17.7849 49.9767 18.5961 50.3127 19.442 50.3127C20.2879 50.3127 21.0992 49.9767 21.6973 49.3786C22.2955 48.7804 22.6315 47.9692 22.6315 47.1233V45.603C22.673 45.1599 22.6214 44.7129 22.4798 44.2908C22.3382 43.8688 22.1099 43.4811 21.8095 43.1527C21.5091 42.8242 21.1432 42.5623 20.7355 42.3837C20.3278 42.2052 19.8872 42.1139 19.442 42.1159V42.1159Z" fill="#404040"/>
<path d="M33.263 7H31.1367V13.3789H33.263V7Z" fill="#FA4616"/>
<path d="M45.416 14.1246L39.8911 17.313L40.9539 19.1547L46.4788 15.9662L45.416 14.1246Z" fill="#FA4616"/>
<path d="M41.0234 26.8254L39.9602 28.6669L45.4845 31.8563L46.5476 30.0149L41.0234 26.8254Z" fill="#FA4616"/>
<path d="M27.0094 11.7617L25.168 12.8249L26.5234 15.1726L28.3649 14.1095L27.0094 11.7617Z" fill="#FA4616"/>
<path d="M44.9577 21.8841H41.7682V24.0104H44.9577V21.8841Z" fill="#FA4616"/>
<path d="M37.4387 11.6813L36.0836 14.0294L37.9252 15.0922L39.2803 12.7441L37.4387 11.6813Z" fill="#FA4616"/>
<path d="M18.397 14.0666L17.3339 15.908L22.8582 19.0975L23.9213 17.256L18.397 14.0666Z" fill="#FA4616"/>
<path d="M22.7893 26.8931L17.2644 30.0816L18.3273 31.9232L23.8521 28.7347L22.7893 26.8931Z" fill="#FA4616"/>
<path d="M22.6315 21.8841H19.442V24.0104H22.6315V21.8841Z" fill="#FA4616"/>
<path d="M33.7095 37.8314H30.7008L27.9473 35.0778V31.4525H30.0736V34.2061L31.5832 35.7051H32.8271L34.3262 34.2061V31.4525H36.4525V35.0778L33.7095 37.8314Z" fill="#FA4616"/>
<path d="M36.4525 32.5475H27.9473V30.4212C27.9624 30.0231 27.8904 29.6265 27.7361 29.2592C27.5818 28.8919 27.3491 28.5628 27.0542 28.2949C25.9808 27.2676 25.2395 25.9425 24.9257 24.4902C24.6119 23.0379 24.74 21.5249 25.2935 20.1461C25.847 18.7672 26.8005 17.5856 28.0314 16.7534C29.2623 15.9212 30.7141 15.4764 32.1999 15.4764C33.6857 15.4764 35.1375 15.9212 36.3683 16.7534C37.5992 17.5856 38.5527 18.7672 39.1062 20.1461C39.6597 21.5249 39.7879 23.0379 39.4741 24.4902C39.1603 25.9425 38.4189 27.2676 37.3455 28.2949C37.0523 28.5641 36.8208 28.8935 36.6666 29.2605C36.5125 29.6275 36.4395 30.0234 36.4525 30.4212V32.5475ZM30.0736 30.4212H34.3262C34.317 29.7547 34.4454 29.0936 34.7034 28.4789C34.9613 27.8643 35.3432 27.3094 35.8252 26.8491C36.6057 26.1212 37.149 25.1753 37.3845 24.1345C37.6201 23.0936 37.5368 22.0061 37.1457 21.0131C36.7546 20.0202 36.0737 19.1681 35.1916 18.5675C34.3095 17.9669 33.267 17.6456 32.1999 17.6456C31.1327 17.6456 30.0902 17.9669 29.2081 18.5675C28.326 19.1681 27.6451 20.0202 27.254 21.0131C26.8629 22.0061 26.7797 23.0936 27.0152 24.1345C27.2507 25.1753 27.7941 26.1212 28.5745 26.8491C29.0571 27.309 29.4393 27.8638 29.6972 28.4786C29.9552 29.0933 30.0833 29.7546 30.0736 30.4212V30.4212Z" fill="#FA4616"/>
</svg>
