<svg width="64" height="64" viewBox="0 0 64 64" fill="none" xmlns="http://www.w3.org/2000/svg">
<path d="M42.104 56.9992C41.826 56.9992 41.5595 56.8887 41.3629 56.6922C41.1664 56.4957 41.056 56.2291 41.056 55.9512C41.1382 55.0281 41.5043 54.1531 42.104 53.4465C42.6826 52.8044 43.0487 51.9991 43.1519 51.1409V40.2315C43.1244 39.9629 43.0052 39.7121 42.8143 39.5212C42.6234 39.3303 42.3725 39.211 42.104 39.1835H40.008C39.7301 39.1835 39.4635 39.0731 39.267 38.8765C39.0704 38.68 38.96 38.4135 38.96 38.1355C38.9325 37.867 38.8132 37.6161 38.6223 37.4252C38.4315 37.2343 38.1806 37.1151 37.912 37.0875H35.8161C35.639 37.089 35.4644 37.0455 35.3086 36.9612C35.1528 36.8769 35.0209 36.7545 34.9253 36.6055C34.6093 36.2717 34.1788 36.0696 33.7201 36.0396H31.6242C31.3462 36.0396 31.0797 35.9291 30.8831 35.7326C30.6866 35.5361 30.5762 35.2695 30.5762 34.9916C30.5762 34.7136 30.6866 34.447 30.8831 34.2505C31.0797 34.054 31.3462 33.9436 31.6242 33.9436H33.7201C34.6758 33.9797 35.5883 34.3507 36.2981 34.9916H37.912C38.5557 35.0134 39.1788 35.2236 39.7041 35.5962C40.2294 35.9687 40.6339 36.4873 40.8673 37.0875H42.104C42.9303 37.1113 43.7162 37.4501 44.3008 38.0347C44.8853 38.6192 45.2242 39.4052 45.2479 40.2315V51.1409C45.1679 52.4263 44.6796 53.6527 43.8541 54.6412C43.5253 55.0201 43.2854 55.4676 43.1519 55.9512C43.1519 56.2291 43.0415 56.4957 42.845 56.6922C42.6485 56.8887 42.3819 56.9992 42.104 56.9992Z" fill="#404040"/>
<path d="M27.4322 56.9992C27.1542 56.9992 26.8877 56.8887 26.6911 56.6922C26.4946 56.4957 26.3842 56.2291 26.3842 55.9512V55.4272C25.4818 53.9607 24.4767 52.5598 23.3765 51.2353C22.6429 50.3026 22.0665 49.5585 21.794 49.1393C21.3224 48.3953 18.6501 42.0969 18.0842 40.8498C18.0252 40.7181 17.9966 40.5748 18.0003 40.4306C18.0529 39.9166 18.2652 39.432 18.6072 39.0448C18.9493 38.6576 19.4041 38.3872 19.9077 38.2717C20.6801 38.0412 21.5065 38.0678 22.2625 38.3476C23.0185 38.6273 23.6632 39.145 24.0996 39.8228L25.9021 42.5266C25.9454 42.5947 26.0039 42.6519 26.073 42.6937C26.1421 42.7355 26.2199 42.7608 26.3003 42.7676H26.4261V27.6557C26.4261 26.8219 26.7573 26.0222 27.3469 25.4326C27.9365 24.843 28.7362 24.5118 29.57 24.5118C30.4039 24.5118 31.2035 24.843 31.7931 25.4326C32.3827 26.0222 32.714 26.8219 32.714 27.6557V39.1835C32.714 39.4614 32.6036 39.728 32.407 39.9245C32.2105 40.1211 31.9439 40.2315 31.666 40.2315C31.3881 40.2315 31.1215 40.1211 30.925 39.9245C30.7284 39.728 30.618 39.4614 30.618 39.1835V27.6557C30.618 27.3778 30.5076 27.1112 30.3111 26.9146C30.1145 26.7181 29.848 26.6077 29.57 26.6077C29.2921 26.6077 29.0255 26.7181 28.829 26.9146C28.6325 27.1112 28.5221 27.3778 28.5221 27.6557V43.3754C28.5215 43.5166 28.4925 43.6562 28.4366 43.7858C28.3808 43.9155 28.2994 44.0325 28.1972 44.1299C27.9162 44.4012 27.5786 44.6068 27.2087 44.7318C26.8388 44.8569 26.4457 44.8984 26.0578 44.8533C25.6699 44.8082 25.2968 44.6776 24.9655 44.471C24.6341 44.2644 24.3527 43.9868 24.1415 43.6583L22.4542 41.0489C22.2993 40.7952 22.08 40.587 21.8187 40.4453C21.5574 40.3035 21.2633 40.2334 20.9661 40.2419C20.7012 40.2464 20.4445 40.3345 20.2325 40.4935C21.5215 43.4907 23.3136 47.5883 23.607 48.0599C23.9005 48.5315 24.4244 49.1603 25.0742 49.9777C27.7046 53.3207 28.5221 54.5049 28.5221 55.3329V55.9512C28.5222 56.0924 28.4937 56.2322 28.4385 56.3622C28.3832 56.4921 28.3022 56.6095 28.2004 56.7074C28.0986 56.8053 27.9781 56.8816 27.8461 56.9318C27.7141 56.9819 27.5733 57.0048 27.4322 56.9992V56.9992Z" fill="#404040"/>
<path d="M35.816 41.2795C35.5381 41.2795 35.2715 41.169 35.075 40.9725C34.8785 40.776 34.7681 40.5094 34.7681 40.2315V36.0396C34.7681 35.7616 34.8785 35.495 35.075 35.2985C35.2715 35.1019 35.5381 34.9916 35.816 34.9916C36.094 34.9916 36.3605 35.1019 36.5571 35.2985C36.7536 35.495 36.864 35.7616 36.864 36.0396V40.2315C36.864 40.5094 36.7536 40.776 36.5571 40.9725C36.3605 41.169 36.094 41.2795 35.816 41.2795Z" fill="#404040"/>
<path d="M40.0079 42.3274C39.73 42.3274 39.4634 42.217 39.2669 42.0205C39.0704 41.8239 38.96 41.5574 38.96 41.2795V38.1355C38.96 37.8576 39.0704 37.591 39.2669 37.3944C39.4634 37.1979 39.73 37.0875 40.0079 37.0875C40.2859 37.0875 40.5524 37.1979 40.749 37.3944C40.9455 37.591 41.0559 37.8576 41.0559 38.1355V41.2795C41.0559 41.5574 40.9455 41.8239 40.749 42.0205C40.5524 42.217 40.2859 42.3274 40.0079 42.3274Z" fill="#404040"/>
<path d="M29.5281 19.2719C28.8185 19.2598 28.1185 19.1062 27.469 18.8202C26.8194 18.5342 26.2335 18.1214 25.7455 17.6061C25.2576 17.0908 24.8773 16.4834 24.6271 15.8192C24.3768 15.1551 24.2616 14.4477 24.2882 13.7385V12.2399C24.2882 10.8502 24.8403 9.51742 25.823 8.53474C26.8056 7.55207 28.1384 7 29.5281 7C30.9178 7 32.2506 7.55207 33.2333 8.53474C34.216 9.51742 34.768 10.8502 34.768 12.2399V13.7385C34.7946 14.4477 34.6794 15.1551 34.4292 15.8192C34.179 16.4834 33.7987 17.0908 33.3107 17.6061C32.8227 18.1214 32.2368 18.5342 31.5873 18.8202C30.9378 19.1062 30.2377 19.2598 29.5281 19.2719V19.2719ZM29.5281 8.79207C29.0945 8.80951 28.6686 8.9128 28.2752 9.09602C27.8817 9.27925 27.5286 9.53874 27.2361 9.85943C26.9437 10.1801 26.7178 10.5557 26.5716 10.9643C26.4254 11.3729 26.3617 11.8065 26.3842 12.2399V13.7385C26.3842 14.5723 26.7154 15.372 27.305 15.9616C27.8946 16.5512 28.6943 16.8824 29.5281 16.8824C30.362 16.8824 31.1616 16.5512 31.7512 15.9616C32.3408 15.372 32.6721 14.5723 32.6721 13.7385V12.2399C32.6946 11.8065 32.6309 11.3729 32.4847 10.9643C32.3384 10.5557 32.1125 10.1801 31.8201 9.85943C31.5277 9.53874 31.1745 9.27925 30.7811 9.09602C30.3877 8.9128 29.9618 8.80951 29.5281 8.79207V8.79207Z" fill="#FA4616"/>
<path d="M37.912 27.6557C37.6341 27.6557 37.3675 27.5453 37.171 27.3487C36.9745 27.1522 36.8641 26.8857 36.8641 26.6077V23.4638C36.8641 21.1582 33.5734 19.2719 29.5282 19.2719C25.483 19.2719 22.1923 21.1582 22.1923 23.4638V26.6077C22.1923 26.8857 22.0819 27.1522 21.8854 27.3487C21.6889 27.5453 21.4223 27.6557 21.1444 27.6557C20.8664 27.6557 20.5999 27.5453 20.4033 27.3487C20.2068 27.1522 20.0964 26.8857 20.0964 26.6077V23.4638C20.0964 19.8797 24.1521 17.1759 29.5282 17.1759C34.9043 17.1759 38.96 19.8797 38.96 23.4638V26.6077C38.96 26.8857 38.8496 27.1522 38.6531 27.3487C38.4565 27.5453 38.19 27.6557 37.912 27.6557Z" fill="#FA4616"/>
</svg>
