<svg width="64" height="64" viewBox="0 0 64 64" fill="none" xmlns="http://www.w3.org/2000/svg">
<path d="M41.375 30.8023H39.2917V26.6356C39.2917 24.8544 34.5521 23.5106 31.4792 23.5106C28.4063 23.5106 23.6667 24.8544 23.6667 26.6356V30.8023H21.5833V26.6356C21.5833 22.7398 28.375 21.4273 31.4792 21.4273C34.5833 21.4273 41.375 22.7398 41.375 26.6356V30.8023Z" fill="#FA4616"/>
<path d="M31.4792 20.396C30.8358 20.3873 30.2009 20.2482 29.6128 19.9872C29.0246 19.7262 28.4955 19.3487 28.0574 18.8775C27.6193 18.4062 27.2812 17.8511 27.0637 17.2456C26.8461 16.64 26.7536 15.9966 26.7917 15.3543V14.0106C26.7489 13.3688 26.8383 12.725 27.0545 12.1191C27.2707 11.5132 27.609 10.9582 28.0485 10.4884C28.488 10.0187 29.0192 9.64418 29.6094 9.38815C30.1995 9.13211 30.8359 9 31.4792 9C32.1224 9 32.7589 9.13211 33.349 9.38815C33.9391 9.64418 34.4704 10.0187 34.9099 10.4884C35.3494 10.9582 35.6876 11.5132 35.9038 12.1191C36.12 12.725 36.2095 13.3688 36.1667 14.0106V15.3335C36.2062 15.9772 36.1148 16.6221 35.898 17.2295C35.6812 17.8368 35.3436 18.3939 34.9055 18.8671C34.4673 19.3403 33.9378 19.7197 33.3489 19.9825C32.76 20.2453 32.124 20.3859 31.4792 20.396V20.396ZM31.4792 11.021C31.1093 11.0306 30.7454 11.1164 30.4103 11.2731C30.0751 11.4299 29.7759 11.6541 29.5315 11.9319C29.287 12.2096 29.1025 12.5348 28.9896 12.8871C28.8766 13.2394 28.8376 13.6113 28.875 13.9794V15.3335C28.8282 15.7031 28.8605 16.0785 28.97 16.4347C29.0794 16.7908 29.2635 17.1196 29.5098 17.3991C29.7561 17.6786 30.0592 17.9025 30.3987 18.0559C30.7383 18.2093 31.1066 18.2886 31.4792 18.2886C31.8518 18.2886 32.2201 18.2093 32.5597 18.0559C32.8992 17.9025 33.2022 17.6786 33.4486 17.3991C33.6949 17.1196 33.8789 16.7908 33.9884 16.4347C34.0978 16.0785 34.1302 15.7031 34.0833 15.3335V13.9898C34.1177 13.6233 34.0764 13.2537 33.9621 12.9039C33.8477 12.554 33.6628 12.2314 33.4186 11.956C33.1745 11.6806 32.8763 11.4583 32.5427 11.3028C32.2091 11.1474 31.8471 11.0621 31.4792 11.0523V11.021Z" fill="#FA4616"/>
<path d="M15.8542 23.5106C15.2094 23.5006 14.5733 23.3599 13.9844 23.0971C13.3955 22.8343 12.866 22.4549 12.4279 21.9817C11.9898 21.5085 11.6521 20.9514 11.4353 20.3441C11.2186 19.7367 11.1272 19.0917 11.1667 18.4481V17.1148C11.1239 16.4729 11.2133 15.8291 11.4295 15.2232C11.6457 14.6174 11.984 14.0624 12.4235 13.5926C12.863 13.1229 13.3942 12.7484 13.9844 12.4923C14.5745 12.2363 15.2109 12.1042 15.8542 12.1042C16.4974 12.1042 17.1339 12.2363 17.724 12.4923C18.3141 12.7484 18.8454 13.1229 19.2849 13.5926C19.7244 14.0624 20.0626 14.6174 20.2788 15.2232C20.495 15.8291 20.5845 16.4729 20.5417 17.1148V18.4585C20.5782 19.101 20.4847 19.7442 20.2668 20.3497C20.0488 20.9552 19.7108 21.5104 19.2731 21.9822C18.8354 22.4539 18.307 22.8324 17.7195 23.095C17.132 23.3577 16.4976 23.499 15.8542 23.5106V23.5106ZM15.8542 14.1356C15.4834 14.148 15.1191 14.2364 14.7839 14.3954C14.4486 14.5545 14.1497 14.7806 13.9055 15.06C13.6613 15.3393 13.4772 15.6658 13.3644 16.0193C13.2517 16.3728 13.2127 16.7456 13.25 17.1148V18.4585C13.2032 18.8281 13.2355 19.2035 13.345 19.5597C13.4544 19.9158 13.6385 20.2446 13.8848 20.5241C14.1311 20.8036 14.4342 21.0275 14.7737 21.1809C15.1133 21.3343 15.4816 21.4136 15.8542 21.4136C16.2268 21.4136 16.5951 21.3343 16.9347 21.1809C17.2742 21.0275 17.5772 20.8036 17.8236 20.5241C18.0699 20.2446 18.2539 19.9158 18.3634 19.5597C18.4728 19.2035 18.5052 18.8281 18.4583 18.4585V17.1252C18.4972 16.7552 18.4594 16.3812 18.3473 16.0265C18.2353 15.6718 18.0513 15.344 17.807 15.0635C17.5627 14.783 17.2632 14.5559 16.9272 14.3962C16.5912 14.2366 16.2259 14.1479 15.8542 14.1356V14.1356Z" fill="#404040"/>
<path d="M21.6354 55.0835L18.75 46.4273H13.25C11.5924 46.4273 10.0027 45.7688 8.83061 44.5967C7.65851 43.4246 7 41.8349 7 40.1773V28.7189C7 27.6139 7.43898 26.5541 8.22039 25.7727C9.00179 24.9913 10.0616 24.5523 11.1667 24.5523H14.7188L19.9271 29.7606H26.6771L26.7813 30.6877C26.9454 32.1396 26.5423 33.5988 25.6563 34.7606C25.2726 35.1773 24.8026 35.5051 24.279 35.721C23.7553 35.9369 23.1908 36.0358 22.625 36.0106H15.9479L11.4688 31.5418L12.9479 30.0627L16.8021 33.9273H22.625C22.8969 33.9491 23.1704 33.9109 23.4259 33.8155C23.6815 33.7201 23.913 33.5698 24.1042 33.3752C24.4484 32.9343 24.6549 32.4016 24.6979 31.8439H19.0729L13.8646 26.6356H11.1667C10.6141 26.6356 10.0842 26.8551 9.69353 27.2458C9.30283 27.6365 9.08333 28.1664 9.08333 28.7189V40.1773C9.08333 41.2823 9.52232 42.3422 10.3037 43.1236C11.0851 43.905 12.1449 44.3439 13.25 44.3439H20.25L23.6146 54.4273L21.6354 55.0835Z" fill="#404040"/>
<path d="M26.8334 55.0627L22.6667 41.521C22.2813 40.4169 20.9063 40.1773 19.8334 40.1773H14.2917V33.9273H16.375V38.0939H19.8334C22.3125 38.0939 24 39.0835 24.6459 40.8752L28.8125 54.4168L26.8334 55.0627Z" fill="#404040"/>
<path d="M49.1875 23.5106C48.5427 23.5006 47.9067 23.3599 47.3178 23.0971C46.7289 22.8343 46.1994 22.4549 45.7612 21.9817C45.3231 21.5085 44.9855 20.9514 44.7687 20.3441C44.5519 19.7367 44.4605 19.0917 44.5 18.4481V17.1148C44.4572 16.4729 44.5467 15.8291 44.7628 15.2232C44.979 14.6174 45.3174 14.0624 45.7568 13.5926C46.1963 13.1229 46.7276 12.7484 47.3177 12.4923C47.9078 12.2363 48.5442 12.1042 49.1875 12.1042C49.8308 12.1042 50.4672 12.2363 51.0574 12.4923C51.6475 12.7484 52.1788 13.1229 52.6182 13.5926C53.0577 14.0624 53.396 14.6174 53.6122 15.2232C53.8284 15.8291 53.9178 16.4729 53.875 17.1148V18.4585C53.9116 19.101 53.8181 19.7442 53.6001 20.3497C53.3821 20.9552 53.0442 21.5104 52.6065 21.9822C52.1688 22.4539 51.6403 22.8324 51.0529 23.095C50.4654 23.3577 49.8309 23.499 49.1875 23.5106V23.5106ZM49.1875 14.1356C48.8167 14.148 48.4524 14.2364 48.1172 14.3954C47.782 14.5545 47.483 14.7806 47.2388 15.06C46.9947 15.3393 46.8105 15.6658 46.6978 16.0193C46.585 16.3728 46.546 16.7456 46.5833 17.1148V18.4585C46.5365 18.8281 46.5689 19.2035 46.6783 19.5597C46.7878 19.9158 46.9718 20.2446 47.2181 20.5241C47.4645 20.8036 47.7675 21.0275 48.1071 21.1809C48.4466 21.3343 48.8149 21.4136 49.1875 21.4136C49.5601 21.4136 49.9284 21.3343 50.268 21.1809C50.6076 21.0275 50.9106 20.8036 51.1569 20.5241C51.4033 20.2446 51.5873 19.9158 51.6967 19.5597C51.8062 19.2035 51.8385 18.8281 51.7917 18.4585V17.1252C51.8305 16.7552 51.7927 16.3812 51.6807 16.0265C51.5686 15.6718 51.3847 15.344 51.1404 15.0635C50.896 14.783 50.5965 14.5559 50.2606 14.3962C49.9246 14.2366 49.5593 14.1479 49.1875 14.1356V14.1356Z" fill="#404040"/>
<path d="M42.3646 55.0835L40.3854 54.4273L43.75 44.3439H50.75C51.8551 44.3439 52.9149 43.905 53.6963 43.1236C54.4777 42.3422 54.9167 41.2823 54.9167 40.1773V28.7189C54.9167 28.1664 54.6972 27.6365 54.3065 27.2458C53.9158 26.8551 53.3859 26.6356 52.8333 26.6356H50.1354L44.9271 31.8439H39.3021C39.3451 32.4016 39.5516 32.9343 39.8958 33.3752C40.0866 33.5704 40.318 33.7211 40.5737 33.8165C40.8294 33.912 41.103 33.9498 41.375 33.9273H47.1979L51.0521 30.0627L52.5313 31.5418L48.0521 36.0106H41.375C40.809 36.0372 40.2441 35.939 39.7202 35.723C39.1964 35.507 38.7265 35.1784 38.3438 34.7606C37.4527 33.6012 37.0491 32.14 37.2188 30.6877L37.3125 29.7606H44.0729L49.2813 24.5523H52.8333C53.9384 24.5523 54.9982 24.9913 55.7796 25.7727C56.561 26.5541 57 27.6139 57 28.7189V40.1773C57 41.8349 56.3415 43.4246 55.1694 44.5967C53.9973 45.7688 52.4076 46.4273 50.75 46.4273H45.25L42.3646 55.0835Z" fill="#404040"/>
<path d="M37.1563 55.0627L35.1667 54.4481L39.3334 40.9064C39.9792 39.0835 41.6875 38.0939 44.1667 38.0939H47.625V33.9273H49.7083V40.1773H44.1667C43.125 40.1773 41.7188 40.4168 41.3125 41.5627L37.1563 55.0627Z" fill="#404040"/>
<path d="M45.5417 33.9273H18.4583V36.0106H45.5417V33.9273Z" fill="#404040"/>
</svg>
