<svg width="64" height="64" viewBox="0 0 64 64" fill="none" xmlns="http://www.w3.org/2000/svg">
<path d="M31.791 45.6364H29.5183V33.8523L36.541 25.6478L38.5183 22.3409C38.7519 21.3996 38.6473 20.4062 38.2228 19.5341C38.119 19.2889 37.9813 19.0594 37.8137 18.8524L34.8592 23.7045L30.3137 28.25C29.1797 29.2237 27.7287 29.7491 26.2342 29.7273H23.7001C22.2002 29.7488 20.7445 29.2191 19.6092 28.2387L14.8819 23.4887L12.0978 18.8524C11.9343 19.0622 11.797 19.2911 11.6887 19.5341C11.2881 20.419 11.2117 21.4167 11.4728 22.3523L13.4501 25.6592L20.4842 33.8637V36.5568H18.2115V34.7046L11.4728 26.8978L9.31375 23.2501C8.80722 21.7123 8.9172 20.0379 9.62056 18.5796C9.84444 18.0278 10.1786 17.5274 10.6026 17.1092C11.0266 16.6911 11.5316 16.364 12.0865 16.1478L12.9501 15.8637L16.7569 22.2046L21.2001 26.6478C21.9163 27.1788 22.7859 27.462 23.6774 27.4546H26.2456C27.1319 27.4628 27.997 27.1838 28.7115 26.6592L33.166 22.2046L36.9728 15.8637L37.8365 16.1478C38.3914 16.364 38.8963 16.6911 39.3203 17.1092C39.7443 17.5274 40.0785 18.0278 40.3024 18.5796C41.0057 20.0379 41.1157 21.7123 40.6092 23.2501L40.5297 23.4092L38.3478 27.0569L31.8024 34.6932L31.791 45.6364Z" fill="#404040"/>
<path d="M24.9728 26.3296C24.3721 26.3436 23.7747 26.2355 23.2169 26.012C22.6591 25.7886 22.1524 25.4543 21.7275 25.0294C21.3026 24.6045 20.9683 24.0978 20.7448 23.54C20.5214 22.9822 20.4134 22.3849 20.4274 21.7841V20.6477C20.4274 19.4422 20.9062 18.2861 21.7587 17.4337C22.6111 16.5813 23.7673 16.1023 24.9728 16.1023C26.1783 16.1023 27.3345 16.5813 28.1869 17.4337C29.0394 18.2861 29.5183 19.4422 29.5183 20.6477V21.7841C29.5323 22.3849 29.4243 22.9822 29.2008 23.54C28.9773 24.0978 28.643 24.6045 28.2181 25.0294C27.7932 25.4543 27.2865 25.7886 26.7287 26.012C26.1709 26.2355 25.5736 26.3436 24.9728 26.3296V26.3296ZM24.9728 18.375C24.6705 18.3604 24.3684 18.4091 24.0861 18.5182C23.8037 18.6272 23.5473 18.7942 23.3333 19.0083C23.1192 19.2223 22.9523 19.4787 22.8433 19.7611C22.7342 20.0434 22.6855 20.3454 22.7001 20.6477V21.7841C22.7001 22.3869 22.9395 22.9649 23.3657 23.3911C23.792 23.8174 24.37 24.0568 24.9728 24.0568C25.5756 24.0568 26.1537 23.8174 26.5799 23.3911C27.0061 22.9649 27.2455 22.3869 27.2455 21.7841V20.6477C27.26 20.3449 27.2112 20.0425 27.1023 19.7595C26.9934 19.4766 26.8267 19.2194 26.6128 19.0045C26.399 18.7896 26.1427 18.6217 25.8603 18.5114C25.578 18.401 25.2757 18.3507 24.9728 18.3636V18.375Z" fill="#404040"/>
<path d="M39.7455 44.5114C39.1448 44.5254 38.5474 44.4173 37.9896 44.1939C37.4318 43.9704 36.9251 43.6361 36.5002 43.2112C36.0753 42.7863 35.7411 42.2796 35.5176 41.7218C35.2941 41.164 35.1861 40.5667 35.2001 39.9659V38.8296C35.2001 37.624 35.679 36.468 36.5314 35.6155C37.3839 34.7631 38.54 34.2841 39.7455 34.2841C40.9511 34.2841 42.1072 34.7631 42.9597 35.6155C43.8121 36.468 44.291 37.624 44.291 38.8296V39.9659C44.305 40.5667 44.197 41.164 43.9735 41.7218C43.75 42.2796 43.4157 42.7863 42.9908 43.2112C42.5659 43.6361 42.0592 43.9704 41.5014 44.1939C40.9436 44.4173 40.3463 44.5254 39.7455 44.5114V44.5114ZM39.7455 36.5568C39.4432 36.5422 39.1412 36.591 38.8588 36.7C38.5764 36.809 38.32 36.9761 38.106 37.1901C37.892 37.4041 37.725 37.6605 37.616 37.9429C37.507 38.2253 37.4582 38.5272 37.4728 38.8296V39.9659C37.4728 40.5687 37.7123 41.1467 38.1385 41.573C38.5647 41.9992 39.1428 42.2387 39.7455 42.2387C40.3483 42.2387 40.9264 41.9992 41.3526 41.573C41.7788 41.1467 42.0183 40.5687 42.0183 39.9659V38.8296C42.0328 38.5268 41.984 38.2243 41.875 37.9414C41.7661 37.6585 41.5994 37.4012 41.3856 37.1863C41.1717 36.9714 40.9155 36.8036 40.6331 36.6932C40.3507 36.5829 40.0484 36.5325 39.7455 36.5455V36.5568Z" fill="#404040"/>
<path d="M46.6092 57H44.3365V51.8977L51.3137 46.0454L53.2797 41.6591C53.5595 40.281 53.384 38.8493 52.7797 37.5796L52.6433 37.3182L49.7115 44.1364L44.2683 46.8296C43.2591 47.3818 42.1508 47.7293 41.0069 47.8522H39.7456C37.6319 47.8522 34.0637 48.2954 34.0637 51.2613V56.9431H31.791V51.2613C31.791 47.7045 34.7456 45.5795 39.7456 45.5795H41.0183C41.8311 45.424 42.6163 45.1483 43.3478 44.7613L43.8365 44.5341L47.9614 42.4772L51.6205 33.9431L52.6092 34.2727C53.1232 34.4761 53.59 34.7828 53.9809 35.1737C54.3718 35.5646 54.6785 36.0314 54.8819 36.5454C55.7697 38.3895 55.9595 40.4927 55.416 42.4658L53.2115 47.375L46.6546 52.875L46.6092 57Z" fill="#404040"/>
<path d="M21.5637 47.9204C20.963 47.9344 20.3656 47.8264 19.8078 47.6029C19.25 47.3795 18.7433 47.0452 18.3184 46.6203C17.8935 46.1954 17.5592 45.6887 17.3358 45.1309C17.1123 44.5731 17.0043 43.9757 17.0183 43.375V42.2386C17.0183 41.0331 17.4972 39.877 18.3496 39.0246C19.202 38.1721 20.3582 37.6932 21.5637 37.6932C22.7692 37.6932 23.9254 38.1721 24.7778 39.0246C25.6303 39.877 26.1092 41.0331 26.1092 42.2386V43.375C26.1232 43.9757 26.0152 44.5731 25.7917 45.1309C25.5682 45.6887 25.2339 46.1954 24.809 46.6203C24.3841 47.0452 23.8774 47.3795 23.3196 47.6029C22.7618 47.8264 22.1645 47.9344 21.5637 47.9204ZM21.5637 39.9659C21.2614 39.9513 20.9593 40 20.677 40.1091C20.3946 40.2181 20.1382 40.3851 19.9242 40.5991C19.7101 40.8132 19.5432 41.0696 19.4342 41.352C19.3251 41.6343 19.2764 41.9363 19.291 42.2386V43.375C19.291 43.9778 19.5304 44.5558 19.9567 44.982C20.3829 45.4082 20.961 45.6477 21.5637 45.6477C22.1665 45.6477 22.7446 45.4082 23.1708 44.982C23.597 44.5558 23.8364 43.9778 23.8364 43.375V42.2386C23.8509 41.9358 23.8022 41.6334 23.6932 41.3504C23.5843 41.0675 23.4176 40.8103 23.2037 40.5954C22.9899 40.3805 22.7336 40.2126 22.4513 40.1023C22.1689 39.9919 21.8666 39.9416 21.5637 39.9545V39.9659Z" fill="#404040"/>
<path d="M29.5183 57H27.2456V54.7273C27.2456 51.7614 23.6774 51.3182 21.5637 51.3182C19.4501 51.3182 15.8819 51.7614 15.8819 54.7273V57H13.6092V54.7273C13.6092 51.1705 16.5751 49.0455 21.5637 49.0455C26.5524 49.0455 29.5183 51.1705 29.5183 54.7273V57Z" fill="#404040"/>
<path d="M26.1092 7H23.8365V12.6818H26.1092V7Z" fill="#FA4616"/>
<path d="M32.1586 9.61165L28.7516 13.0186L30.3587 14.6257L33.7657 11.2187L32.1586 9.61165Z" fill="#FA4616"/>
<path d="M17.8688 9.60162L16.2618 11.2087L19.6687 14.6156L21.2758 13.0086L17.8688 9.60162Z" fill="#FA4616"/>
</svg>
