<svg width="64" height="64" viewBox="0 0 64 64" fill="none" xmlns="http://www.w3.org/2000/svg">
<path d="M17.4166 20.5C16.726 20.5248 16.0377 20.407 15.3946 20.154C14.7515 19.901 14.1674 19.5183 13.6787 19.0296C13.19 18.541 12.8073 17.9568 12.5543 17.3137C12.3013 16.6706 12.1835 15.9823 12.2083 15.2917V13.2083C12.2083 11.827 12.757 10.5022 13.7338 9.5255C14.7105 8.54875 16.0353 8 17.4166 8C18.798 8 20.1227 8.54875 21.0995 9.5255C22.0762 10.5022 22.625 11.827 22.625 13.2083V15.2917C22.6482 15.9819 22.5294 16.6695 22.2758 17.3119C22.0223 17.9543 21.6395 18.5378 21.1512 19.0262C20.6628 19.5145 20.0793 19.8973 19.4369 20.1508C18.7945 20.4044 18.1069 20.5232 17.4166 20.5ZM17.4166 10.0833C16.9999 10.0591 16.5828 10.1234 16.1927 10.2718C15.8026 10.4203 15.4483 10.6497 15.1531 10.9448C14.858 11.24 14.6286 11.5943 14.4801 11.9844C14.3317 12.3745 14.2674 12.7916 14.2916 13.2083V15.2917C14.2916 16.1205 14.6209 16.9153 15.2069 17.5014C15.793 18.0874 16.5878 18.4167 17.4166 18.4167C18.2454 18.4167 19.0403 18.0874 19.6264 17.5014C20.2124 16.9153 20.5416 16.1205 20.5416 15.2917V13.2083C20.5659 12.7916 20.5016 12.3745 20.3531 11.9844C20.2047 11.5943 19.9753 11.24 19.6802 10.9448C19.385 10.6497 19.0307 10.4203 18.6406 10.2718C18.2505 10.1234 17.8334 10.0591 17.4166 10.0833V10.0833Z" fill="#404040"/>
<path d="M12.2083 42.375C10.8427 42.3258 9.54626 41.7613 8.57995 40.795C7.61365 39.8287 7.04914 38.5323 7 37.1667V27.7917C7 23.7187 13.0417 21.5417 17.4167 21.5417C21.7917 21.5417 27.8333 23.7187 27.8333 27.7917V28.8333H25.75V27.7917C25.75 25.2917 20.7292 23.625 17.4167 23.625C14.1042 23.625 9.08333 25.2917 9.08333 27.7917V37.1667C9.13492 37.9785 9.48072 38.7438 10.056 39.319C10.6312 39.8943 11.3964 40.2401 12.2083 40.2917V42.375Z" fill="#404040"/>
<path d="M23.6666 56.9583H21.5833V41.3333C21.5833 41.0571 21.6931 40.7921 21.8884 40.5968C22.0838 40.4014 22.3487 40.2917 22.625 40.2917C23.4369 40.2401 24.2021 39.8943 24.7773 39.3191C25.3526 38.7438 25.6984 37.9786 25.75 37.1667V35.0833H27.8333V37.1667C27.7858 38.3529 27.3536 39.4915 26.6019 40.4104C25.8502 41.3294 24.8199 41.9787 23.6666 42.2604V56.9583Z" fill="#404040"/>
<path d="M13.2291 29.875H11.1458V56.9583H13.2291V29.875Z" fill="#404040"/>
<path d="M18.4375 40.2917H16.3541V56.9584H18.4375V40.2917Z" fill="#404040"/>
<path d="M46.5833 20.5C45.8927 20.5248 45.2044 20.407 44.5613 20.154C43.9181 19.901 43.3341 19.5183 42.8454 19.0296C42.3567 18.541 41.974 17.9568 41.721 17.3137C41.468 16.6706 41.3502 15.9823 41.375 15.2917V13.2083C41.375 11.827 41.9237 10.5022 42.9005 9.5255C43.8772 8.54875 45.202 8 46.5833 8C47.9647 8 49.2894 8.54875 50.2662 9.5255C51.2429 10.5022 51.7917 11.827 51.7917 13.2083V15.2917C51.8149 15.9819 51.696 16.6695 51.4425 17.3119C51.189 17.9543 50.8062 18.5378 50.3178 19.0262C49.8295 19.5145 49.246 19.8973 48.6036 20.1508C47.9612 20.4044 47.2736 20.5232 46.5833 20.5ZM46.5833 10.0833C46.1666 10.0591 45.7495 10.1234 45.3594 10.2718C44.9693 10.4203 44.615 10.6497 44.3198 10.9448C44.0247 11.24 43.7953 11.5943 43.6468 11.9844C43.4983 12.3745 43.4341 12.7916 43.4583 13.2083V15.2917C43.4583 16.1205 43.7876 16.9153 44.3736 17.5014C44.9597 18.0874 45.7545 18.4167 46.5833 18.4167C47.4121 18.4167 48.207 18.0874 48.793 17.5014C49.3791 16.9153 49.7083 16.1205 49.7083 15.2917V13.2083C49.7326 12.7916 49.6683 12.3745 49.5198 11.9844C49.3714 11.5943 49.142 11.24 48.8468 10.9448C48.5517 10.6497 48.1974 10.4203 47.8073 10.2718C47.4172 10.1234 47 10.0591 46.5833 10.0833V10.0833Z" fill="#404040"/>
<path d="M52.8125 29.875H50.7291V56.9583H52.8125V29.875Z" fill="#404040"/>
<path d="M42.4167 56.9583H40.3334V42.2604C39.1792 41.9803 38.148 41.3313 37.3961 40.4121C36.6441 39.4928 36.2125 38.3534 36.1667 37.1667V35.0833H38.25V37.1667C38.3016 37.9786 38.6474 38.7438 39.2227 39.3191C39.7979 39.8943 40.5631 40.2401 41.375 40.2917C41.6513 40.2917 41.9162 40.4014 42.1116 40.5968C42.3069 40.7921 42.4167 41.0571 42.4167 41.3333V56.9583Z" fill="#404040"/>
<path d="M51.7917 42.375V40.2917C52.6036 40.2401 53.3688 39.8943 53.9441 39.319C54.5193 38.7438 54.8651 37.9785 54.9167 37.1667V27.7917C54.9167 25.2917 49.8959 23.625 46.5834 23.625C43.2709 23.625 38.25 25.2917 38.25 27.7917V28.8333H36.1667V27.7917C36.1667 23.7187 42.2084 21.5417 46.5834 21.5417C50.9584 21.5417 57 23.7187 57 27.7917V37.1667C56.9485 38.5315 56.3832 39.8265 55.4174 40.7923C54.4516 41.7581 53.1566 42.3234 51.7917 42.375Z" fill="#404040"/>
<path d="M47.6041 40.2917H45.5208V56.9584H47.6041V40.2917Z" fill="#404040"/>
<path d="M20.8229 36.8646L16.6563 32.698C16.4622 32.5028 16.3533 32.2388 16.3533 31.9636C16.3533 31.6884 16.4622 31.4243 16.6563 31.2292L20.8229 27.0625L22.2917 28.5313L18.8646 31.9583L22.2917 35.3958L20.8229 36.8646Z" fill="#FA4616"/>
<path d="M43.125 36.8646L41.6562 35.3958L45.0833 31.9583L41.6562 28.5313L43.125 27.0625L47.2917 31.2292C47.4857 31.4243 47.5946 31.6884 47.5946 31.9636C47.5946 32.2388 47.4857 32.5028 47.2917 32.698L43.125 36.8646Z" fill="#FA4616"/>
<path d="M26.7708 30.9167H17.3958V33H26.7708V30.9167Z" fill="#FA4616"/>
<path d="M46.5625 30.9167H37.1875V33H46.5625V30.9167Z" fill="#FA4616"/>
<path d="M30.9375 30.9167H28.8541V33H30.9375V30.9167Z" fill="#FA4616"/>
<path d="M35.1041 30.9167H33.0208V33H35.1041V30.9167Z" fill="#FA4616"/>
</svg>
