<svg width="64" height="64" viewBox="0 0 64 64" fill="none" xmlns="http://www.w3.org/2000/svg">
<path d="M17.4375 41.3334V39.2501C17.9894 39.262 18.5345 39.1276 19.0176 38.8605C19.5006 38.5933 19.9043 38.203 20.1875 37.7292L20.625 37.1563C22.0833 35.2084 23.75 32.9897 26.8021 32.9897H29.9271V35.073H26.8021C24.7812 35.073 23.625 36.6147 22.2917 38.3959L21.8438 38.9897C21.3774 39.7306 20.7254 40.3367 19.9525 40.7478C19.1795 41.1589 18.3125 41.3608 17.4375 41.3334V41.3334Z" fill="#404040"/>
<path d="M18.4583 52.7917H10.125V38.2084H18.4583V52.7917ZM12.2083 50.7084H16.375V40.2917H12.2083V50.7084Z" fill="#404040"/>
<path d="M36.1667 31.9584H34.0833V38.2084H36.1667V31.9584Z" fill="#FA4616"/>
<path d="M30.9583 31.9584H28.875V38.2084H30.9583V31.9584Z" fill="#FA4616"/>
<path d="M34.0833 56.9584H30.9583C30.4058 56.9584 29.8759 56.7389 29.4852 56.3482C29.0945 55.9575 28.875 55.4276 28.875 54.8751V52.7917H30.9583V54.8751H34.0833V52.7917H36.1667V54.8751C36.1667 55.4276 35.9472 55.9575 35.5565 56.3482C35.1658 56.7389 34.6359 56.9584 34.0833 56.9584Z" fill="#FA4616"/>
<path d="M32 33.0001C29.5277 33.0001 27.111 32.2669 25.0554 30.8934C22.9997 29.5199 21.3976 27.5676 20.4515 25.2836C19.5054 22.9995 19.2578 20.4861 19.7402 18.0614C20.2225 15.6366 21.413 13.4094 23.1611 11.6612C24.9093 9.91306 27.1366 8.72251 29.5613 8.24019C31.9861 7.75788 34.4994 8.00541 36.7835 8.95151C39.0676 9.8976 41.0198 11.4998 42.3934 13.5554C43.7669 15.611 44.5 18.0278 44.5 20.5001C44.5 23.8153 43.183 26.9946 40.8388 29.3388C38.4946 31.683 35.3152 33.0001 32 33.0001V33.0001ZM32 10.0834C29.9398 10.0834 27.9258 10.6943 26.2128 11.8389C24.4998 12.9835 23.1646 14.6104 22.3762 16.5138C21.5878 18.4172 21.3815 20.5116 21.7835 22.5322C22.1854 24.5528 23.1775 26.4089 24.6343 27.8657C26.0911 29.3225 27.9472 30.3146 29.9678 30.7165C31.9884 31.1184 34.0829 30.9122 35.9863 30.1238C37.8897 29.3354 39.5165 28.0002 40.6611 26.2872C41.8057 24.5742 42.4167 22.5603 42.4167 20.5001C42.4167 17.7374 41.3192 15.0878 39.3657 13.1343C37.4122 11.1808 34.7627 10.0834 32 10.0834V10.0834Z" fill="#FA4616"/>
<path d="M32 23.6251C31.4216 23.6012 30.8537 23.4622 30.3296 23.2163C29.8055 22.9703 29.3357 22.6223 28.9478 22.1926C28.5598 21.7629 28.2614 21.2601 28.07 20.7138C27.8787 20.1674 27.7982 19.5883 27.8333 19.0104V17.8021C27.8333 16.6971 28.2723 15.6372 29.0537 14.8558C29.8351 14.0744 30.8949 13.6355 32 13.6355C33.1051 13.6355 34.1649 14.0744 34.9463 14.8558C35.7277 15.6372 36.1667 16.6971 36.1667 17.8021V18.9896C36.2047 19.5692 36.1263 20.1504 35.9363 20.6993C35.7462 21.2481 35.4483 21.7533 35.0601 22.1853C34.6718 22.6172 34.201 22.9672 33.6755 23.2144C33.15 23.4617 32.5803 23.6013 32 23.6251V23.6251ZM32 15.2917C31.6967 15.3204 31.4021 15.4087 31.133 15.5516C30.864 15.6945 30.6259 15.8891 30.4323 16.1244C30.2387 16.3596 30.0935 16.6307 30.005 16.9222C29.9165 17.2137 29.8865 17.5198 29.9167 17.823V19.0104C29.9167 19.563 30.1362 20.0929 30.5269 20.4836C30.9176 20.8743 31.4475 21.0938 32 21.0938C32.5525 21.0938 33.0824 20.8743 33.4731 20.4836C33.8638 20.0929 34.0833 19.563 34.0833 19.0104V17.8021C34.1384 17.1933 33.9502 16.5874 33.5598 16.117C33.1694 15.6465 32.6086 15.3498 32 15.2917V15.2917Z" fill="#404040"/>
<path d="M37.2083 26.7501C36.9321 26.7501 36.6671 26.6403 36.4717 26.445C36.2764 26.2496 36.1667 25.9847 36.1667 25.7084C36.1667 24.6667 34.4896 23.6251 32 23.6251C29.5104 23.6251 27.8333 24.6667 27.8333 25.7084C27.8333 25.9847 27.7236 26.2496 27.5282 26.445C27.3329 26.6403 27.0679 26.7501 26.7917 26.7501C26.5154 26.7501 26.2504 26.6403 26.0551 26.445C25.8597 26.2496 25.75 25.9847 25.75 25.7084C25.75 23.3334 28.4375 21.5417 32 21.5417C35.5625 21.5417 38.25 23.3334 38.25 25.7084C38.25 25.9847 38.1402 26.2496 37.9449 26.445C37.7495 26.6403 37.4846 26.7501 37.2083 26.7501Z" fill="#404040"/>
<path d="M50.75 30.9167C50.1716 30.8929 49.6037 30.7539 49.0796 30.5079C48.5555 30.262 48.0857 29.9139 47.6978 29.4843C47.3098 29.0546 47.0114 28.5518 46.82 28.0054C46.6287 27.459 46.5482 26.88 46.5833 26.3021V25.0938C46.5833 23.9887 47.0223 22.9289 47.8037 22.1475C48.5851 21.3661 49.6449 20.9271 50.75 20.9271C51.8551 20.9271 52.9149 21.3661 53.6963 22.1475C54.4777 22.9289 54.9167 23.9887 54.9167 25.0938V26.2813C54.9547 26.8609 54.8763 27.4421 54.6863 27.9909C54.4962 28.5397 54.1983 29.045 53.8101 29.4769C53.4218 29.9089 52.951 30.2588 52.4255 30.5061C51.9 30.7533 51.3303 30.893 50.75 30.9167V30.9167ZM50.75 22.5834C50.4467 22.6121 50.1521 22.7004 49.883 22.8433C49.614 22.9862 49.3759 23.1808 49.1823 23.416C48.9887 23.6512 48.8435 23.9224 48.755 24.2139C48.6665 24.5054 48.6365 24.8115 48.6667 25.1146V26.3021C48.6667 26.8546 48.8862 27.3846 49.2769 27.7753C49.6676 28.166 50.1975 28.3854 50.75 28.3854C51.3025 28.3854 51.8324 28.166 52.2231 27.7753C52.6138 27.3846 52.8333 26.8546 52.8333 26.3021V25.0938C52.8884 24.4849 52.7002 23.8791 52.3098 23.4086C51.9194 22.9382 51.3586 22.6415 50.75 22.5834V22.5834Z" fill="#404040"/>
<path d="M55.9583 34.0417C55.6821 34.0417 55.4171 33.932 55.2217 33.7366C55.0264 33.5413 54.9167 33.2763 54.9167 33.0001C54.9167 31.9584 53.2396 30.9167 50.75 30.9167C48.2604 30.9167 46.5833 31.9584 46.5833 33.0001C46.5833 33.2763 46.4736 33.5413 46.2782 33.7366C46.0829 33.932 45.8179 34.0417 45.5417 34.0417C45.2654 34.0417 45.0004 33.932 44.8051 33.7366C44.6097 33.5413 44.5 33.2763 44.5 33.0001C44.5 30.6251 47.1875 28.8334 50.75 28.8334C54.3125 28.8334 57 30.6251 57 33.0001C57 33.2763 56.8902 33.5413 56.6949 33.7366C56.4995 33.932 56.2346 34.0417 55.9583 34.0417Z" fill="#404040"/>
<path d="M13.25 30.9167C12.6716 30.8929 12.1037 30.7539 11.5796 30.5079C11.0555 30.262 10.5857 29.9139 10.1978 29.4843C9.80979 29.0546 9.51139 28.5518 9.32004 28.0054C9.12868 27.459 9.04822 26.88 9.08334 26.3021V25.0938C9.08334 23.9887 9.52232 22.9289 10.3037 22.1475C11.0851 21.3661 12.1449 20.9271 13.25 20.9271C14.3551 20.9271 15.4149 21.3661 16.1963 22.1475C16.9777 22.9289 17.4167 23.9887 17.4167 25.0938V26.2813C17.4547 26.8609 17.3763 27.4421 17.1863 27.9909C16.9962 28.5397 16.6983 29.045 16.3101 29.4769C15.9218 29.9089 15.451 30.2588 14.9255 30.5061C14.4 30.7533 13.8303 30.893 13.25 30.9167V30.9167ZM13.25 22.5834C12.9467 22.6121 12.6521 22.7004 12.383 22.8433C12.114 22.9862 11.8759 23.1808 11.6823 23.416C11.4887 23.6512 11.3435 23.9224 11.255 24.2139C11.1665 24.5054 11.1365 24.8115 11.1667 25.1146V26.3021C11.1667 26.8546 11.3862 27.3846 11.7769 27.7753C12.1676 28.166 12.6975 28.3854 13.25 28.3854C13.8025 28.3854 14.3324 28.166 14.7231 27.7753C15.1138 27.3846 15.3333 26.8546 15.3333 26.3021V25.0938C15.3884 24.4849 15.2002 23.8791 14.8098 23.4086C14.4194 22.9382 13.8586 22.6415 13.25 22.5834V22.5834Z" fill="#404040"/>
<path d="M18.4583 34.0417C18.1821 34.0417 17.9171 33.932 17.7217 33.7366C17.5264 33.5413 17.4167 33.2763 17.4167 33.0001C17.4167 31.9584 15.7396 30.9167 13.25 30.9167C10.7604 30.9167 9.08333 31.9584 9.08333 33.0001C9.08333 33.2763 8.97357 33.5413 8.77822 33.7366C8.58287 33.932 8.31793 34.0417 8.04167 34.0417C7.7654 34.0417 7.50043 33.932 7.30508 33.7366C7.10973 33.5413 7 33.2763 7 33.0001C7 30.6251 9.6875 28.8334 13.25 28.8334C16.8125 28.8334 19.5 30.6251 19.5 33.0001C19.5 33.2763 19.3902 33.5413 19.1949 33.7366C18.9995 33.932 18.7346 34.0417 18.4583 34.0417Z" fill="#404040"/>
<path d="M37.2083 53.8334H24.7083C21.9583 53.8334 21.1875 53.0626 20.5417 52.1876C20.3125 51.8542 20.2396 51.7501 19.5 51.7501H17.4167V49.6667H19.5C20.044 49.5998 20.5959 49.6897 21.0905 49.9259C21.5851 50.1621 22.0018 50.5348 22.2916 51C22.5625 51.3855 22.8125 51.7501 24.7083 51.7501H37.0937C38.1354 50.9376 40.0104 43.8542 39.0416 40.2917C38.9062 39.8022 38.6562 39.2501 38.2604 39.2501H26.8021V37.1667H38.2604C38.7365 37.1719 39.2023 37.3064 39.6078 37.556C40.0133 37.8055 40.3433 38.1607 40.5625 38.5834C42.2708 41.5209 41.0104 49.2501 39.2917 52.2501C38.6875 53.3021 37.9792 53.8334 37.2083 53.8334Z" fill="#404040"/>
</svg>
