<svg width="64" height="64" viewBox="0 0 64 64" fill="none" xmlns="http://www.w3.org/2000/svg">
<path d="M24.1953 47.5661L22.6416 46.0125L22.7838 45.8702C23.1245 45.4552 23.5566 45.1246 24.0464 44.9044C24.5361 44.6843 25.0702 44.5804 25.6067 44.601H41.603C42.8503 44.0867 48.3867 38.7146 49.645 37.3141C51.4822 34.8535 53.1352 32.2606 54.5905 29.5566C53.7279 29.12 52.7352 29.0149 51.8004 29.2612C50.389 29.5894 49.4261 30.5851 48.1569 33.0688C48.0469 33.2664 47.884 33.4293 47.6864 33.5393L42.6643 36.1433L41.6577 34.1957L46.3735 31.7558C47.6646 29.294 48.9885 27.6637 51.308 27.1276C52.2699 26.8422 53.2925 26.8324 54.2596 27.0993C55.2267 27.3662 56.0995 27.8992 56.7787 28.6375C56.8955 28.792 56.9691 28.9746 56.9922 29.1668C57.0153 29.3591 56.9869 29.554 56.91 29.7317C55.2996 32.9172 53.4025 35.9495 51.2424 38.7911C51.1767 38.8677 43.7257 46.8112 41.6796 46.8112H25.6067C25.3697 46.793 25.132 46.8369 24.9171 46.9386C24.7022 47.0403 24.5175 47.1962 24.3813 47.391L24.1953 47.5661Z" fill="#404040"/>
<path d="M39.5241 40.2244H29.6769V38.0361H39.5241C41.0341 38.0361 41.7124 37.2155 41.7124 36.3949C41.7124 35.5743 41.0341 34.7537 39.5241 34.7537H32.9593C32.111 34.6373 31.3217 34.2541 30.7054 33.6596C30.1909 33.1617 29.5697 32.7876 28.8891 32.5654H23.4184C22.0398 32.8022 20.7697 33.4641 19.7859 34.4584C18.1884 36.0667 15.2889 38.8349 15.2671 38.8349L13.7571 37.2484C13.7571 37.2484 16.6566 34.5021 18.265 32.8718C19.65 31.4779 21.4667 30.5945 23.4184 30.3662H28.8891C30.0724 30.5138 31.1751 31.044 32.0293 31.8761C32.3456 32.138 32.6863 32.3689 33.0468 32.5654H39.5241C42.3908 32.5654 43.9007 34.4911 43.9007 36.3949C43.9007 38.2987 42.3908 40.2244 39.5241 40.2244Z" fill="#404040"/>
<path d="M20.136 53.3541C19.992 53.3549 19.8493 53.3273 19.716 53.2729C19.5827 53.2184 19.4614 53.1382 19.3592 53.0368L7.32365 41.0013C7.2211 40.8996 7.13969 40.7785 7.08414 40.6452C7.0286 40.5119 7 40.3689 7 40.2244C7 40.08 7.0286 39.937 7.08414 39.8036C7.13969 39.6703 7.2211 39.5493 7.32365 39.4476L11.7002 35.0711C11.8019 34.9685 11.9229 34.8871 12.0563 34.8315C12.1896 34.776 12.3326 34.7474 12.477 34.7474C12.6215 34.7474 12.7645 34.776 12.8978 34.8315C13.0312 34.8871 13.1522 34.9685 13.2539 35.0711L25.2894 47.1066C25.392 47.2083 25.4734 47.3293 25.5289 47.4626C25.5845 47.5959 25.6131 47.739 25.6131 47.8834C25.6131 48.0278 25.5845 48.1709 25.5289 48.3042C25.4734 48.4375 25.392 48.5586 25.2894 48.6603L20.9128 53.0368C20.8106 53.1382 20.6894 53.2184 20.5561 53.2729C20.4228 53.3273 20.28 53.3549 20.136 53.3541ZM9.64322 40.2244L20.136 50.7173L22.9698 47.8834L12.477 37.4344L9.64322 40.2244Z" fill="#404040"/>
<path d="M36.2418 23.8123C35.5009 23.7998 34.77 23.6395 34.0919 23.3409C33.4138 23.0422 32.802 22.6113 32.2926 22.0733C31.7831 21.5353 31.3861 20.901 31.1248 20.2076C30.8636 19.5143 30.7433 18.7758 30.7711 18.0353V16.4707C30.7711 15.0198 31.3474 13.6282 32.3734 12.6023C33.3993 11.5763 34.7908 11 36.2418 11C37.6927 11 39.0842 11.5763 40.1101 12.6023C41.1361 13.6282 41.7125 15.0198 41.7125 16.4707V18.0353C41.7402 18.7758 41.6199 19.5143 41.3587 20.2076C41.0974 20.901 40.7004 21.5353 40.191 22.0733C39.6815 22.6113 39.0698 23.0422 38.3916 23.3409C37.7135 23.6395 36.9826 23.7998 36.2418 23.8123ZM36.2418 12.8709C35.7885 12.8877 35.3432 12.9946 34.9317 13.1854C34.5203 13.3762 34.151 13.6471 33.8454 13.9822C33.5398 14.3174 33.304 14.71 33.1519 15.1373C32.9998 15.5645 32.9343 16.0179 32.9593 16.4707V18.0353C32.9593 18.9059 33.3051 19.7407 33.9207 20.3563C34.5363 20.9719 35.3712 21.3177 36.2418 21.3177C37.1123 21.3177 37.9472 20.9719 38.5628 20.3563C39.1783 19.7407 39.5242 18.9059 39.5242 18.0353V16.4707C39.5477 16.0182 39.4812 15.5655 39.3285 15.1389C39.1758 14.7123 38.94 14.3201 38.6347 13.9853C38.3294 13.6505 37.9607 13.3796 37.5499 13.1883C37.1391 12.9971 36.6945 12.8891 36.2418 12.8709V12.8709Z" fill="#FA4616"/>
<path d="M46.089 29.283H43.9007V27.0948C43.9007 25.2238 39.2506 23.8123 36.2418 23.8123C33.2329 23.8123 28.5828 25.2238 28.5828 27.0948V29.283H26.3945V27.0948C26.3945 23.2324 32.8062 21.6241 36.2418 21.6241C39.6774 21.6241 46.089 23.2324 46.089 27.0948V29.283Z" fill="#FA4616"/>
</svg>
