<svg width="64" height="64" viewBox="0 0 64 64" fill="none" xmlns="http://www.w3.org/2000/svg">
<path d="M24.4308 49.3331L22.8953 47.8084L23.0359 47.657C23.3726 47.2468 23.7997 46.9203 24.2836 46.7027C24.7676 46.4851 25.2954 46.3824 25.8257 46.4028H41.6345C42.8672 45.8946 48.3495 40.5853 49.5822 39.2012C51.3979 36.7695 53.0315 34.207 54.4697 31.5347C53.617 31.1042 52.6363 31.0003 51.7124 31.2427C50.3175 31.5671 49.3659 32.5511 48.1116 35.0057L47.9494 35.3085L42.6834 38.0442L41.6886 36.1303L46.349 33.7082C47.625 31.2752 48.9334 29.6639 51.2258 29.1341C52.1763 28.852 53.1869 28.8424 54.1427 29.1062C55.0985 29.37 55.961 29.8966 56.6323 30.6263L57 31.1238L56.7621 31.6968C55.1682 34.8403 53.2935 37.8333 51.1609 40.6393C51.096 40.715 43.7323 48.5654 41.7102 48.5654H25.8257C25.5914 48.5474 25.3565 48.5908 25.1441 48.6913C24.9318 48.7918 24.7493 48.9459 24.6146 49.1384L24.4308 49.3331Z" fill="#404040"/>
<path d="M39.58 42.0558H29.8482V39.8932H39.58C41.0722 39.8932 41.7426 39.0822 41.7426 38.2712C41.7426 37.4603 41.0722 36.6493 39.58 36.6493H33.0921C32.2537 36.5342 31.4736 36.1555 30.8646 35.568C30.3561 35.0759 29.7423 34.7062 29.0696 34.4866H23.6631C22.3006 34.7206 21.0454 35.3746 20.0731 36.3573C18.4944 37.9468 15.6289 40.6826 15.6073 40.6826L14.1151 39.1147C14.1151 39.1147 16.9805 36.4006 18.5701 34.7894C19.8136 33.6324 21.8681 32.3024 23.6631 32.3024H29.0696C30.2391 32.4482 31.3288 32.9722 32.173 33.7946C32.4856 34.0534 32.8223 34.2815 33.1786 34.4758H39.58C42.4131 34.4758 43.9053 36.3789 43.9053 38.2604C43.9053 40.1419 42.4455 42.0558 39.58 42.0558Z" fill="#404040"/>
<path d="M20.4191 55.4857L7 42.0559L12.8499 36.2059L26.2798 49.6251L20.4191 55.4857ZM10.0601 42.0559L20.4191 52.4256L23.2197 49.6251L12.8499 39.266L10.0601 42.0559Z" fill="#404040"/>
<path d="M37.4174 19.3483C36.8155 19.3308 36.2234 19.1918 35.6766 18.9396C35.1298 18.6874 34.6396 18.3273 34.2356 17.8808C33.8316 17.4344 33.522 16.9108 33.3255 16.3416C33.129 15.7725 33.0496 15.1694 33.0921 14.5688V13.3253C33.0921 12.1781 33.5478 11.078 34.359 10.2669C35.1701 9.45576 36.2703 9 37.4174 9C38.5645 9 39.6647 9.45576 40.4758 10.2669C41.287 11.078 41.7427 12.1781 41.7427 13.3253V14.5688C41.7852 15.1694 41.7058 15.7725 41.5093 16.3416C41.3128 16.9108 41.0032 17.4344 40.5992 17.8808C40.1952 18.3273 39.705 18.6874 39.1582 18.9396C38.6114 19.1918 38.0193 19.3308 37.4174 19.3483ZM37.4174 10.6977C37.0993 10.7188 36.7888 10.8047 36.5052 10.9502C36.2215 11.0958 35.9707 11.2978 35.7681 11.544C35.5655 11.7901 35.4154 12.0753 35.3271 12.3816C35.2389 12.688 35.2142 13.009 35.2548 13.3253V14.5688C35.2548 15.1424 35.4826 15.6924 35.8882 16.098C36.2938 16.5035 36.8438 16.7314 37.4174 16.7314C37.991 16.7314 38.541 16.5035 38.9466 16.098C39.3522 15.6924 39.58 15.1424 39.58 14.5688V13.3253C39.619 13.0093 39.5932 12.6888 39.5043 12.3831C39.4154 12.0774 39.2652 11.7929 39.0629 11.5471C38.8606 11.3013 38.6104 11.0993 38.3275 10.9533C38.0446 10.8073 37.735 10.7203 37.4174 10.6977Z" fill="#FA4616"/>
<path d="M48.2305 21.5108C47.6286 21.4934 47.0365 21.3544 46.4897 21.1022C45.9429 20.85 45.4527 20.4899 45.0487 20.0434C44.6447 19.597 44.3351 19.0734 44.1386 18.5042C43.9421 17.9351 43.8627 17.332 43.9053 16.7314V15.4879C43.9053 14.3407 44.361 13.2406 45.1721 12.4295C45.9832 11.6184 47.0834 11.1626 48.2305 11.1626C49.3776 11.1626 50.4778 11.6184 51.2889 12.4295C52.1001 13.2406 52.5558 14.3407 52.5558 15.4879V16.7314C52.5983 17.332 52.5189 17.9351 52.3224 18.5042C52.1259 19.0734 51.8163 19.597 51.4123 20.0434C51.0083 20.4899 50.5181 20.85 49.9713 21.1022C49.4245 21.3544 48.8324 21.4934 48.2305 21.5108ZM48.2305 12.8603C47.9124 12.8814 47.6019 12.9673 47.3183 13.1128C47.0346 13.2584 46.7838 13.4604 46.5812 13.7066C46.3786 13.9527 46.2285 14.2379 46.1402 14.5442C46.052 14.8506 46.0273 15.1716 46.0679 15.4879V16.7314C46.0679 17.305 46.2957 17.855 46.7013 18.2606C47.1069 18.6661 47.657 18.894 48.2305 18.894C48.8041 18.894 49.3542 18.6661 49.7597 18.2606C50.1653 17.855 50.3931 17.305 50.3931 16.7314V15.4879C50.4321 15.1719 50.4063 14.8514 50.3174 14.5457C50.2285 14.24 50.0783 13.9555 49.876 13.7097C49.6737 13.4639 49.4235 13.2619 49.1406 13.1159C48.8577 12.9699 48.5481 12.8829 48.2305 12.8603V12.8603Z" fill="#FA4616"/>
<path d="M26.6042 21.5108C26.0023 21.4934 25.4102 21.3544 24.8634 21.1022C24.3166 20.85 23.8265 20.4899 23.4224 20.0434C23.0184 19.597 22.7088 19.0734 22.5123 18.5042C22.3158 17.9351 22.2364 17.332 22.279 16.7314V15.4879C22.279 14.3407 22.7347 13.2406 23.5458 12.4295C24.357 11.6184 25.4571 11.1626 26.6042 11.1626C27.7514 11.1626 28.8515 11.6184 29.6626 12.4295C30.4738 13.2406 30.9295 14.3407 30.9295 15.4879V16.7314C30.972 17.332 30.8926 17.9351 30.6961 18.5042C30.4996 19.0734 30.1901 19.597 29.786 20.0434C29.382 20.4899 28.8918 20.85 28.3451 21.1022C27.7983 21.3544 27.2061 21.4934 26.6042 21.5108ZM26.6042 12.8603C26.2861 12.8814 25.9757 12.9673 25.692 13.1128C25.4084 13.2584 25.1575 13.4604 24.9549 13.7066C24.7523 13.9527 24.6022 14.2379 24.514 14.5442C24.4257 14.8506 24.4011 15.1716 24.4416 15.4879V16.7314C24.4416 17.305 24.6695 17.855 25.075 18.2606C25.4806 18.6661 26.0307 18.894 26.6042 18.894C27.1778 18.894 27.7279 18.6661 28.1334 18.2606C28.539 17.855 28.7669 17.305 28.7669 16.7314V15.4879C28.8058 15.1719 28.78 14.8514 28.6911 14.5457C28.6023 14.24 28.4521 13.9555 28.2498 13.7097C28.0474 13.4639 27.7972 13.2619 27.5143 13.1159C27.2314 12.9699 26.9218 12.8829 26.6042 12.8603V12.8603Z" fill="#FA4616"/>
<path d="M44.9866 32.324H42.824V24.7548C42.824 23.1761 39.58 22.5922 37.4174 22.5922C35.2548 22.5922 32.0108 23.1761 32.0108 24.7548V31.2427H29.8482V24.7548C29.8482 21.5109 33.7518 20.4296 37.4174 20.4296C41.0831 20.4296 44.9866 21.5109 44.9866 24.7548V32.324Z" fill="#FA4616"/>
<path d="M54.7184 27.9987H52.5558V26.9174C52.5558 25.3387 49.3118 24.7548 47.1492 24.7548C46.1451 24.7556 45.1441 24.868 44.1648 25.0899L43.6458 22.9923C44.7944 22.7254 45.9699 22.5911 47.1492 22.5922C50.8041 22.5922 54.7184 23.6735 54.7184 26.9174V27.9987Z" fill="#FA4616"/>
<path d="M22.279 31.2427H20.1163V26.9174C20.1163 23.6735 24.0199 22.5922 27.6855 22.5922C28.8648 22.5911 30.0403 22.7254 31.189 22.9923L30.67 25.0899C29.6905 24.8686 28.6897 24.7562 27.6855 24.7548C25.5229 24.7548 22.279 25.3387 22.279 26.9174V31.2427Z" fill="#FA4616"/>
</svg>
