<svg width="64" height="64" viewBox="0 0 64 64" fill="none" xmlns="http://www.w3.org/2000/svg">
<path d="M17.4166 23.5631C16.7113 23.5511 16.0154 23.3985 15.3698 23.1142C14.7242 22.8299 14.1418 22.4196 13.6568 21.9074C13.1718 21.3952 12.7938 20.7914 12.5451 20.1313C12.2964 19.4711 12.1818 18.768 12.2083 18.0631V16.5735C12.2083 15.1922 12.757 13.8675 13.7337 12.8907C14.7105 11.914 16.0353 11.3652 17.4166 11.3652C18.7979 11.3652 20.1226 11.914 21.0994 12.8907C22.0761 13.8675 22.6249 15.1922 22.6249 16.5735V18.0631C22.6513 18.768 22.5368 19.4711 22.2881 20.1313C22.0393 20.7914 21.6614 21.3952 21.1763 21.9074C20.6913 22.4196 20.1089 22.8299 19.4633 23.1142C18.8177 23.3985 18.1219 23.5511 17.4166 23.5631V23.5631ZM17.4166 13.1465C16.9855 13.1638 16.5622 13.2665 16.1712 13.4486C15.7801 13.6307 15.4291 13.8887 15.1384 14.2074C14.8477 14.5262 14.6232 14.8995 14.4779 15.3056C14.3325 15.7118 14.2692 16.1427 14.2916 16.5735V18.0631C14.2916 18.8919 14.6208 19.6868 15.2069 20.2728C15.7929 20.8588 16.5878 21.1881 17.4166 21.1881C18.2454 21.1881 19.0402 20.8588 19.6263 20.2728C20.2123 19.6868 20.5416 18.8919 20.5416 18.0631V16.5735C20.564 16.1427 20.5006 15.7118 20.3553 15.3056C20.2099 14.8995 19.9854 14.5262 19.6947 14.2074C19.4041 13.8887 19.053 13.6307 18.662 13.4486C18.2709 13.2665 17.8476 13.1638 17.4166 13.1465V13.1465Z" fill="#404040"/>
<path d="M23.6665 55.8545H21.5832V31.1568L22.2915 30.9172C22.4999 30.8443 27.4998 29.1672 28.5415 28.8339C29.0846 28.7298 29.5872 28.474 29.9909 28.096C30.3946 27.7181 30.683 27.2335 30.8227 26.6985H14.2916C10.6354 26.6985 9.08332 28.2609 9.08332 31.9068V39.1984C9.08332 40.365 9.35415 42.3233 11.1666 42.3233H12.2083V44.4067H11.1666C8.59374 44.4067 7 42.4171 7 39.1984V31.9068C7 27.136 9.52081 24.6151 14.2916 24.6151H33.0415V25.6568C33.1114 26.839 32.7637 28.0082 32.0592 28.9602C31.3548 29.9121 30.3383 30.5864 29.1873 30.8651C28.3644 31.1151 25.1144 32.2088 23.6665 32.6984V55.8545Z" fill="#404040"/>
<path d="M18.4583 40.2296H16.3749V55.8545H18.4583V40.2296Z" fill="#404040"/>
<path d="M13.2499 31.8963H11.1666V55.8545H13.2499V31.8963Z" fill="#404040"/>
<path d="M39.2914 31.8964C37.9101 31.8964 36.5853 31.3476 35.6086 30.3709C34.6318 29.3941 34.0831 28.0694 34.0831 26.6881C34.0831 25.3067 34.6318 23.982 35.6086 23.0052C36.5853 22.0285 37.9101 21.4798 39.2914 21.4798C39.5677 21.4798 39.8326 21.5895 40.028 21.7849C40.2233 21.9802 40.3331 22.2452 40.3331 22.5214C40.3331 22.7977 40.2233 23.0626 40.028 23.258C39.8326 23.4533 39.5677 23.5631 39.2914 23.5631C38.6893 23.567 38.1012 23.7447 37.5977 24.0749C37.0942 24.4051 36.6969 24.8737 36.4534 25.4244C36.21 25.9751 36.1308 26.5844 36.2254 27.179C36.32 27.7736 36.5844 28.3282 36.9867 28.7762C37.389 29.2241 37.9122 29.5463 38.4933 29.7039C39.0744 29.8616 39.6887 29.848 40.2622 29.6649C40.8358 29.4817 41.3442 29.1367 41.7264 28.6715C42.1085 28.2062 42.3481 27.6404 42.4164 27.0422C42.4314 26.9054 42.4733 26.7729 42.5395 26.6523C42.6058 26.5317 42.6951 26.4253 42.8025 26.3392C42.9099 26.2531 43.0331 26.189 43.1653 26.1506C43.2974 26.1121 43.4358 26.1001 43.5726 26.1151C43.7094 26.1302 43.8419 26.172 43.9625 26.2383C44.0832 26.3045 44.1895 26.3939 44.2756 26.5013C44.3617 26.6086 44.4258 26.7319 44.4643 26.864C44.5027 26.9962 44.5148 27.1346 44.4997 27.2714C44.3557 28.5493 43.744 29.7287 42.7824 30.5826C41.8209 31.4365 40.5774 31.9044 39.2914 31.8964Z" fill="#404040"/>
<path d="M39.2914 38.1463C37.4531 38.1469 35.6417 37.7053 34.01 36.8586C32.3783 36.0119 30.9743 34.7851 29.9165 33.2817C29.7805 33.0562 29.735 32.7876 29.7891 32.5299C29.8432 32.2722 29.9928 32.0445 30.208 31.8927C30.4232 31.7409 30.6879 31.6762 30.9488 31.7117C31.2097 31.7471 31.4475 31.8801 31.6144 32.0838C32.7592 33.7172 34.3952 34.9429 36.2845 35.5827C38.1739 36.2225 40.218 36.243 42.1197 35.6412C44.0215 35.0394 45.6817 33.8467 46.8591 32.2366C48.0364 30.6264 48.6695 28.6827 48.6663 26.688C48.6698 25.3973 48.4037 24.12 47.8851 22.938C47.8296 22.8129 47.7993 22.678 47.796 22.5412C47.7926 22.4043 47.8164 22.2681 47.8657 22.1404C47.915 22.0127 47.9891 21.896 48.0835 21.7969C48.178 21.6979 48.2911 21.6184 48.4163 21.5631C48.5421 21.5079 48.6776 21.4781 48.8149 21.4755C48.9522 21.4729 49.0887 21.4975 49.2165 21.5478C49.3443 21.5982 49.4609 21.6733 49.5595 21.7689C49.6582 21.8644 49.7369 21.9786 49.7913 22.1047C50.4263 23.5491 50.7527 25.1102 50.7496 26.688C50.7496 29.7269 49.5424 32.6414 47.3936 34.7902C45.2448 36.9391 42.3303 38.1463 39.2914 38.1463V38.1463Z" fill="#404040"/>
<path d="M29.8956 23.2297C29.7369 23.2304 29.5802 23.1947 29.4373 23.1256C29.191 23.0044 29.0025 22.7908 28.9128 22.5314C28.8231 22.272 28.8394 21.9876 28.9581 21.7401C29.8983 19.7964 31.3653 18.1556 33.1921 17.0046C35.0189 15.8536 37.1322 15.2387 39.2914 15.2298C40.9494 15.2179 42.5894 15.5736 44.0934 16.2714C44.3426 16.387 44.5361 16.5964 44.6317 16.8539C44.7273 17.1114 44.7173 17.3963 44.6039 17.6464C44.5467 17.7711 44.4654 17.8833 44.3647 17.9765C44.264 18.0697 44.1459 18.142 44.0172 18.1895C43.8885 18.2369 43.7516 18.2584 43.6146 18.2528C43.4775 18.2472 43.3429 18.2146 43.2185 18.1568C41.9889 17.5835 40.6481 17.2883 39.2914 17.2923C37.5235 17.2998 35.7933 17.8037 34.2979 18.7466C32.8025 19.6896 31.602 21.0336 30.8331 22.6256C30.7502 22.8048 30.618 22.9567 30.4521 23.0637C30.2861 23.1706 30.0931 23.2282 29.8956 23.2297Z" fill="#404040"/>
<path d="M39.2914 44.3962C36.7155 44.4021 34.1694 43.8458 31.8305 42.7664C29.4917 41.6869 27.4166 40.1102 25.7498 38.1463C25.5717 37.9349 25.4847 37.6615 25.5082 37.386C25.5316 37.1106 25.6635 36.8557 25.8748 36.6775C26.0862 36.4993 26.3597 36.4124 26.6351 36.4359C26.9105 36.4593 27.1654 36.5912 27.3436 36.8025C29.9049 39.8407 33.5276 41.7887 37.4745 42.2503C41.4214 42.7119 45.3958 41.6524 48.5891 39.2873C51.7824 36.9222 53.9546 33.4292 54.6637 29.5192C55.3727 25.6092 54.5653 21.576 52.4059 18.2402C52.3313 18.1253 52.2801 17.9968 52.2552 17.8621C52.2303 17.7274 52.2322 17.5892 52.2607 17.4552C52.2893 17.3212 52.3439 17.1942 52.4215 17.0813C52.4991 16.9685 52.5982 16.872 52.7132 16.7975C52.8281 16.7229 52.9565 16.6717 53.0912 16.6468C53.2259 16.6219 53.3642 16.6238 53.4981 16.6523C53.6321 16.6809 53.7592 16.7355 53.872 16.8131C53.9849 16.8908 54.0813 16.9899 54.1559 17.1048C55.8871 19.7783 56.8651 22.8693 56.987 26.0521C57.1089 29.2349 56.37 32.3917 54.8483 35.1898C53.3267 37.9879 51.0785 40.3238 48.3406 41.9514C45.6027 43.579 42.4765 44.438 39.2914 44.4379V44.3962Z" fill="#404040"/>
<path d="M24.979 19.1881C24.792 19.188 24.6086 19.1377 24.4478 19.0423C24.2102 18.9013 24.0383 18.6718 23.97 18.4042C23.9016 18.1366 23.9423 17.8528 24.0832 17.6152C25.2832 15.6098 26.8684 13.8617 28.7472 12.4719C30.6261 11.082 32.7614 10.0778 35.0302 9.51714C37.299 8.95647 39.6564 8.85045 41.9663 9.20518C44.2763 9.55991 46.4932 10.3684 48.4892 11.584C48.6307 11.638 48.7586 11.7223 48.8642 11.8308C48.9697 11.9394 49.0503 12.0697 49.1004 12.2126C49.1504 12.3554 49.1688 12.5075 49.154 12.6582C49.1393 12.8089 49.0919 12.9546 49.0151 13.0851C48.9384 13.2156 48.8341 13.3278 48.7095 13.4139C48.585 13.5 48.4431 13.5579 48.2939 13.5835C48.1447 13.6092 47.9917 13.6021 47.8455 13.5625C47.6993 13.523 47.5635 13.4521 47.4476 13.3548C45.6852 12.2837 43.7282 11.5722 41.6895 11.2611C39.6508 10.95 37.5707 11.0456 35.5691 11.5424C33.5675 12.0392 31.6841 12.9273 30.0274 14.1555C28.3707 15.3837 26.9736 16.9277 25.9165 18.6985C25.8182 18.8564 25.6794 18.985 25.5145 19.0711C25.3496 19.1572 25.1647 19.1976 24.979 19.1881Z" fill="#404040"/>
<path d="M39.2914 27.7297C39.1543 27.7305 39.0184 27.7042 38.8915 27.6524C38.7646 27.6005 38.6492 27.5242 38.5518 27.4276C38.3578 27.2325 38.2489 26.9684 38.2489 26.6932C38.2489 26.4181 38.3578 26.154 38.5518 25.9589L54.6976 9.81317C54.8927 9.61916 55.1567 9.51025 55.4319 9.51025C55.7071 9.51025 55.9711 9.61916 56.1663 9.81317C56.3603 10.0083 56.4692 10.2724 56.4692 10.5475C56.4692 10.8227 56.3603 11.0867 56.1663 11.2819L40.0206 27.4276C39.8265 27.6201 39.5647 27.7285 39.2914 27.7297V27.7297Z" fill="#FA4616"/>
</svg>
