<svg width="64" height="64" viewBox="0 0 64 64" fill="none" xmlns="http://www.w3.org/2000/svg">
<path d="M38.1785 44.5286H36.1V25.8215L43.7699 18.5465C44.2535 17.9951 44.5731 17.3192 44.6925 16.5955C44.8119 15.8719 44.7263 15.1293 44.4454 14.4517L36.7963 21.4149C35.7453 22.291 34.4123 22.7562 33.0445 22.7244H30.7788C29.4089 22.744 28.0787 22.2637 27.0374 21.3733L19.2116 14.4933C18.9287 15.1857 18.8489 15.9444 18.9814 16.6806C19.1139 17.4168 19.4533 18.1 19.9599 18.6504L27.7857 25.8318V44.5389H25.7071V26.7048L18.4841 20.0638C17.4962 19.0135 16.919 17.643 16.8579 16.2024C16.7969 14.7618 17.256 13.3473 18.1515 12.2172L18.8271 11.365L28.4716 19.8456C29.1307 20.3583 29.9438 20.633 30.7788 20.6251H33.0445C33.8708 20.6416 34.6803 20.39 35.3517 19.9079L44.7988 11.3026L45.4951 12.1653C46.3899 13.2822 46.8573 14.6814 46.8135 16.1118C46.7697 17.5422 46.2175 18.9103 45.2561 19.9703L38.1785 26.6944V44.5286Z" fill="#404040"/>
<path d="M32.9821 34.1357H30.9035V44.5286H32.9821V34.1357Z" fill="#404040"/>
<path d="M41.2963 57H39.2178V47.6464H24.6678V57H22.5892V46.6072C22.5892 46.3315 22.6987 46.0671 22.8936 45.8722C23.0885 45.6773 23.3529 45.5679 23.6285 45.5679H40.2571C40.5327 45.5679 40.797 45.6773 40.9919 45.8722C41.1869 46.0671 41.2963 46.3315 41.2963 46.6072V57Z" fill="#FA4616"/>
<path d="M56.8856 57H54.807V51.8036H41.2963V57H39.2178V50.7643C39.2178 50.4887 39.3273 50.2243 39.5222 50.0294C39.7171 49.8345 39.9814 49.725 40.2571 49.725H55.8463C56.122 49.725 56.3863 49.8345 56.5812 50.0294C56.7761 50.2243 56.8856 50.4887 56.8856 50.7643V57Z" fill="#FA4616"/>
<path d="M24.6678 57H22.5893V54.9214H9.07857V57H7V53.8821C7 53.6065 7.10949 53.3421 7.3044 53.1472C7.4993 52.9523 7.76365 52.8429 8.03928 52.8429H23.6285C23.9042 52.8429 24.1685 52.9523 24.3634 53.1472C24.5583 53.3421 24.6678 53.6065 24.6678 53.8821V57Z" fill="#FA4616"/>
<path d="M31.9428 18.5672C31.2668 18.5925 30.5926 18.4806 29.961 18.2383C29.3294 17.9959 28.7534 17.6281 28.2678 17.1571C27.7822 16.686 27.3971 16.1215 27.1356 15.4976C26.8741 14.8737 26.7417 14.2032 26.7464 13.5267V12.1964C26.7464 10.8182 27.2939 9.49653 28.2684 8.52201C29.2429 7.54749 30.5646 7 31.9428 7C33.321 7 34.6427 7.54749 35.6172 8.52201C36.5918 9.49653 37.1392 10.8182 37.1392 12.1964V13.5267C37.1439 14.2032 37.0115 14.8737 36.75 15.4976C36.4886 16.1215 36.1034 16.686 35.6178 17.1571C35.1322 17.6281 34.5562 17.9959 33.9246 18.2383C33.293 18.4806 32.6189 18.5925 31.9428 18.5672V18.5672ZM31.9428 9.21368C31.5391 9.18469 31.1338 9.24026 30.7528 9.37677C30.3718 9.51327 30.0235 9.72772 29.7301 10.0065C29.4367 10.2852 29.2046 10.6221 29.0488 10.9956C28.8929 11.3691 28.8167 11.771 28.825 12.1757V13.5059C28.825 14.3328 29.1534 15.1259 29.7382 15.7106C30.3229 16.2953 31.1159 16.6238 31.9428 16.6238C32.7697 16.6238 33.5628 16.2953 34.1475 15.7106C34.7322 15.1259 35.0607 14.3328 35.0607 13.5059V12.1757C35.066 11.7728 34.9876 11.3731 34.8305 11.0021C34.6733 10.6311 34.4409 10.2967 34.1478 10.0202C33.8547 9.74374 33.5073 9.53112 33.1278 9.39586C32.7482 9.2606 32.3447 9.20567 31.9428 9.23449V9.21368Z" fill="#404040"/>
</svg>
