<svg width="64" height="64" viewBox="0 0 64 64" fill="none" xmlns="http://www.w3.org/2000/svg">
<path d="M17.4166 22.2083C16.7108 22.195 16.0148 22.0411 15.3691 21.7556C14.7235 21.4702 14.1412 21.059 13.6563 20.546C13.1713 20.033 12.7935 19.4284 12.5449 18.7677C12.2963 18.107 12.1819 17.4034 12.2083 16.698V15.2083C12.2083 13.827 12.7571 12.5022 13.7338 11.5255C14.7106 10.5487 16.0353 10 17.4166 10C18.798 10 20.1227 10.5487 21.0995 11.5255C22.0762 12.5022 22.625 13.827 22.625 15.2083V16.698C22.6514 17.4034 22.537 18.107 22.2884 18.7677C22.0397 19.4284 21.662 20.033 21.177 20.546C20.6921 21.059 20.1098 21.4702 19.4642 21.7556C18.8185 22.0411 18.1224 22.195 17.4166 22.2083ZM17.4166 11.7916C16.9861 11.8076 16.563 11.9091 16.172 12.0901C15.781 12.2711 15.4299 12.5281 15.1391 12.846C14.8483 13.164 14.6236 13.5365 14.4781 13.9421C14.3326 14.3477 14.2692 14.7781 14.2916 15.2083V16.698C14.2916 17.5268 14.6209 18.3215 15.2069 18.9076C15.793 19.4936 16.5878 19.823 17.4166 19.823C18.2454 19.823 19.0403 19.4936 19.6264 18.9076C20.2124 18.3215 20.5416 17.5268 20.5416 16.698V15.2083C20.564 14.7781 20.5006 14.3477 20.3552 13.9421C20.2097 13.5365 19.985 13.164 19.6942 12.846C19.4034 12.5281 19.0523 12.2711 18.6613 12.0901C18.2703 11.9091 17.8472 11.8076 17.4166 11.7916Z" fill="#404040"/>
<path d="M23.6667 54.4999H21.5833V29.7916L22.2917 29.5521C22.5 29.4791 27.5 27.8021 28.5417 27.4687C29.0784 27.3688 29.5764 27.1206 29.9795 26.7525C30.3826 26.3843 30.6748 25.9108 30.8229 25.3854H14.2917C10.6458 25.3854 9.08333 26.9375 9.08333 30.5937V37.8854C9.08333 39.0521 9.35417 41.0104 11.1667 41.0104H12.2083V43.0937H11.1667C8.59375 43.0937 7 41.0937 7 37.8854V30.5937C7 25.8229 9.52083 23.3021 14.2917 23.3021H33.0417V24.3437C33.1116 25.5259 32.7639 26.6952 32.0595 27.6471C31.355 28.5991 30.3385 29.2733 29.1875 29.5521C28.3646 29.8125 25.125 30.8958 23.6667 31.3854V54.4999Z" fill="#404040"/>
<path d="M18.4583 38.8749H16.375V54.4999H18.4583V38.8749Z" fill="#404040"/>
<path d="M13.25 30.5416H11.1667V54.5H13.25V30.5416Z" fill="#404040"/>
<path d="M41.8125 44.0833H37.2083V42H40.9479L43.0208 39.9166H54.9166V20.125H53.875V18.0416H57V42H43.8854L41.8125 44.0833Z" fill="#404040"/>
<path d="M39.9271 39.9166H36.1667V20.125C36.1667 18.7436 36.7154 17.4189 37.6922 16.4421C38.6689 15.4654 39.9937 14.9166 41.375 14.9166H52.8334V37.8333H43.4584C41.3021 37.8333 40.625 38.5625 40.2188 39.3438L39.9271 39.9166ZM38.25 37.8333H38.6979C39.25 37.1112 39.9764 36.5412 40.8091 36.1768C41.6417 35.8124 42.5534 35.6655 43.4584 35.75H50.75V17H41.375C40.5462 17 39.7514 17.3292 39.1653 17.9152C38.5793 18.5013 38.25 19.2962 38.25 20.125V37.8333Z" fill="#FA4616"/>
<path d="M37.2083 44.0833H32.6146L30.5313 42H25.75V39.9166H31.3958L33.4792 42H37.2083V44.0833Z" fill="#404040"/>
<path d="M38.25 39.9166H34.4896L34.1979 39.3438C33.7916 38.5625 33.1562 37.8333 30.9583 37.8333H25.75V35.75H30.9583C31.8633 35.6655 32.7749 35.8124 33.6076 36.1768C34.4403 36.5412 35.1667 37.1112 35.7187 37.8333H36.1666V20.125C36.1666 19.2962 35.8374 18.5013 35.2514 17.9152C34.6653 17.3292 33.8704 17 33.0416 17H24.7083V14.9166H33.0416C34.423 14.9166 35.7477 15.4654 36.7245 16.4421C37.7013 17.4189 38.25 18.7436 38.25 20.125V39.9166Z" fill="#FA4616"/>
</svg>
