<svg width="64" height="64" viewBox="0 0 64 64" fill="none" xmlns="http://www.w3.org/2000/svg">
<path d="M53.75 57H51.6667V48.6667C51.6667 45.0417 48.4063 44.5 46.4583 44.5H41.25C38.9896 44.5 37.3438 46.8021 35.75 49.0313L34.7917 50.3438L33.125 49.0833C33.4375 48.6771 33.7396 48.25 34.0521 47.8125C35.8646 45.2812 37.9271 42.4167 41.25 42.4167H46.4583C49.9792 42.4167 53.75 44.0625 53.75 48.6667V57Z" fill="#404040"/>
<path d="M41.25 57H39.1667V52.2292L36.7813 54.6146L35.3021 53.1459L38.7396 49.7083H41.25V57Z" fill="#404040"/>
<path d="M49.5833 49.7083H47.5V57H49.5833V49.7083Z" fill="#404040"/>
<path d="M25.625 57H23.5417V49.7083C23.5431 49.4973 23.6086 49.2916 23.7295 49.1186C23.8504 48.9456 24.021 48.8134 24.2187 48.7396C24.4168 48.6663 24.6324 48.655 24.8371 48.7071C25.0417 48.7592 25.2257 48.8723 25.3646 49.0313C25.3646 49.0313 28.4896 52.6146 29.8438 54.0208C30.2604 54.4583 31.3125 54.4583 32.3021 54.2813C31.2604 52.6458 29.3542 49.6979 28.0521 47.4688C27.0104 45.6875 25.6562 44.5 22.5 44.5H17.2917C16.5962 44.4557 15.8993 44.5601 15.2473 44.8061C14.5953 45.0522 14.0032 45.4343 13.5104 45.9271C13.0176 46.4198 12.6355 47.012 12.3894 47.664C12.1434 48.316 12.039 49.0129 12.0833 49.7083V57H10V49.7083C10 44.6771 13.6667 42.4167 17.2917 42.4167H22.5C26.0104 42.4167 28.1979 43.6146 29.8438 46.4167C31.7083 49.5417 34.8021 54.3021 34.8333 54.3438C34.92 54.4762 34.9754 54.6266 34.9953 54.7837C35.0151 54.9407 34.9989 55.1002 34.9479 55.25C34.8975 55.3985 34.8141 55.5338 34.7041 55.6456C34.5941 55.7575 34.4602 55.843 34.3125 55.8958C33.8958 56.0521 30.1458 57.3438 28.3437 55.4583C27.6562 54.75 26.5625 53.5313 25.625 52.4688V57Z" fill="#404040"/>
<path d="M16.25 49.7083H14.1667V57H16.25V49.7083Z" fill="#404040"/>
<path d="M44.9271 41.375C44.3306 41.4015 43.7348 41.3088 43.1746 41.1022C42.6144 40.8956 42.101 40.5794 41.6645 40.172C41.228 39.7646 40.8772 39.2742 40.6325 38.7296C40.3878 38.1849 40.2543 37.597 40.2396 37.0001V34.3021C40.3189 33.1129 40.8473 31.9983 41.7176 31.1841C42.588 30.3699 43.7353 29.9169 44.9271 29.9169C46.119 29.9169 47.2663 30.3699 48.1366 31.1841C49.007 31.9983 49.5353 33.1129 49.6146 34.3021V37.0104C49.5986 37.6064 49.464 38.1933 49.2188 38.7368C48.9735 39.2802 48.6224 39.7694 48.1861 40.1757C47.7497 40.582 47.2368 40.8973 46.6773 41.1032C46.1177 41.3091 45.5228 41.4015 44.9271 41.375V41.375ZM44.9271 32C44.6055 31.9788 44.2829 32.0214 43.9778 32.1252C43.6726 32.229 43.391 32.392 43.149 32.605C42.9071 32.8179 42.7096 33.0765 42.5678 33.3659C42.426 33.6554 42.3428 33.97 42.323 34.2917V37.0001C42.4033 37.634 42.7122 38.2169 43.1916 38.6394C43.671 39.0619 44.2881 39.295 44.9271 39.295C45.5662 39.295 46.1832 39.0619 46.6627 38.6394C47.1421 38.2169 47.4509 37.634 47.5313 37.0001V34.3021C47.5127 33.9795 47.4305 33.6638 47.2893 33.3732C47.1481 33.0825 46.9508 32.8227 46.7087 32.6086C46.4666 32.3946 46.1845 32.2307 45.8788 32.1262C45.573 32.0218 45.2496 31.9789 44.9271 32V32Z" fill="#404040"/>
<path d="M19.9271 41.375C19.3306 41.4015 18.7348 41.3088 18.1746 41.1022C17.6144 40.8956 17.101 40.5794 16.6645 40.172C16.228 39.7646 15.8772 39.2742 15.6325 38.7296C15.3878 38.1849 15.2543 37.597 15.2396 37.0001V34.3021C15.3189 33.1129 15.8473 31.9983 16.7176 31.1841C17.588 30.3699 18.7353 29.9169 19.9271 29.9169C21.119 29.9169 22.2663 30.3699 23.1366 31.1841C24.007 31.9983 24.5353 33.1129 24.6146 34.3021V37.0104C24.5986 37.6064 24.464 38.1933 24.2188 38.7368C23.9735 39.2802 23.6224 39.7694 23.1861 40.1757C22.7497 40.582 22.2368 40.8973 21.6773 41.1032C21.1177 41.3091 20.5228 41.4015 19.9271 41.375V41.375ZM19.9271 32C19.6055 31.9788 19.2829 32.0214 18.9778 32.1252C18.6726 32.229 18.391 32.392 18.149 32.605C17.9071 32.8179 17.7096 33.0765 17.5678 33.3659C17.426 33.6554 17.3428 33.97 17.323 34.2917V37.0001C17.4033 37.634 17.7122 38.2169 18.1916 38.6394C18.671 39.0619 19.2881 39.295 19.9271 39.295C20.5662 39.295 21.1832 39.0619 21.6627 38.6394C22.1421 38.2169 22.4509 37.634 22.5313 37.0001V34.3021C22.5127 33.9795 22.4305 33.6638 22.2893 33.3732C22.1481 33.0825 21.9508 32.8227 21.7087 32.6086C21.4666 32.3946 21.1845 32.2307 20.8788 32.1262C20.573 32.0218 20.2496 31.9789 19.9271 32V32Z" fill="#404040"/>
<path d="M30.8437 35.125C30.5909 35.1265 30.3401 35.0806 30.1042 34.9896C29.7071 34.8412 29.3647 34.5753 29.1227 34.2272C28.8808 33.8792 28.7507 33.4656 28.75 33.0417V27.8333H23.5417C22.4366 27.8333 21.3768 27.3943 20.5954 26.6129C19.814 25.8315 19.375 24.7717 19.375 23.6667V11.1667C19.375 10.0616 19.814 9.00179 20.5954 8.22039C21.3768 7.43898 22.4366 7 23.5417 7H48.5417C49.6467 7 50.7065 7.43898 51.4879 8.22039C52.2693 9.00179 52.7083 10.0616 52.7083 11.1667V23.6667C52.7083 24.7717 52.2693 25.8315 51.4879 26.6129C50.7065 27.3943 49.6467 27.8333 48.5417 27.8333H38.5729L32.3229 34.4375C32.1381 34.6491 31.911 34.8196 31.6562 34.938C31.4014 35.0564 31.1246 35.1201 30.8437 35.125V35.125ZM23.5521 9.08333C22.9995 9.08333 22.4696 9.30286 22.0789 9.69356C21.6882 10.0843 21.4687 10.6141 21.4687 11.1667V23.6667C21.4687 24.2192 21.6882 24.7491 22.0789 25.1398C22.4696 25.5305 22.9995 25.75 23.5521 25.75H30.8437V33.0417L37.6875 25.75H48.5521C49.1046 25.75 49.6345 25.5305 50.0252 25.1398C50.4159 24.7491 50.6354 24.2192 50.6354 23.6667V11.1667C50.6354 10.6141 50.4159 10.0843 50.0252 9.69356C49.6345 9.30286 49.1046 9.08333 48.5521 9.08333H23.5521Z" fill="#404040"/>
<path d="M31.3542 16.1459H28.2292V18.698H31.3542V16.1459Z" fill="#FA4616"/>
<path d="M37.6042 16.1459H34.4792V18.698H37.6042V16.1459Z" fill="#FA4616"/>
<path d="M43.8542 16.1459H40.7292V18.698H43.8542V16.1459Z" fill="#FA4616"/>
</svg>
