<svg width="64" height="64" viewBox="0 0 64 64" fill="none" xmlns="http://www.w3.org/2000/svg">
<path d="M21.737 37.4789H9.06386C8.78376 37.4789 8.51514 37.3676 8.31708 37.1696C8.11903 36.9715 8.00776 36.7029 8.00776 36.4228C8.03126 34.6241 8.34509 32.841 8.93713 31.1423C8.6203 30.1496 7.8071 27.8156 7.46915 26.918C7.08485 25.4583 6.93513 23.9468 7.02559 22.4401V21.8276C7.026 21.3384 7.13967 20.856 7.35771 20.418C7.57574 19.9801 7.89222 19.5987 8.28234 19.3035L10.2678 17.8039C11.2642 16.8724 12.5594 16.3259 13.9219 16.262C15.1516 16.2196 16.3722 16.4884 17.4704 17.0435L17.7872 17.1913C19.1081 17.7362 20.3316 18.4924 21.4096 19.4303C22.2334 20.2434 25.5284 24.4573 25.898 24.9325C26.3293 25.4674 26.5608 26.1358 26.5528 26.8229V27.3193C26.573 27.7534 26.4874 28.1859 26.3034 28.5795C26.1195 28.9732 25.8426 29.3163 25.4967 29.5793C25.1065 29.8624 24.6627 30.0627 24.1923 30.168C23.7219 30.2734 23.235 30.2815 22.7614 30.1919V36.4334C22.7588 36.7062 22.6507 36.9675 22.4597 37.1624C22.2687 37.3573 22.0097 37.4707 21.737 37.4789ZM10.12 35.3667H20.6809V28.8717L17.9139 26.6856C17.6947 26.5129 17.5528 26.2604 17.5192 25.9834C17.4855 25.7064 17.5629 25.4273 17.7344 25.2071C17.82 25.097 17.9266 25.005 18.048 24.9364C18.1693 24.8677 18.3031 24.8238 18.4415 24.8071C18.58 24.7904 18.7204 24.8013 18.8546 24.8391C18.9888 24.877 19.1142 24.941 19.2235 25.0276L22.3918 27.5094L23.036 28.0163C23.2324 28.0948 23.4451 28.1234 23.6553 28.0994C23.8654 28.0755 24.0663 27.9997 24.2399 27.879C24.3878 27.7523 24.4406 27.6784 24.4406 27.2876V26.8229C24.444 26.62 24.3768 26.4221 24.2505 26.2632C22.8037 24.415 20.4697 21.4896 19.9205 20.9827C19.0229 20.2445 18.0189 19.6463 16.9423 19.2085L16.5833 19.0501C15.7736 18.5882 14.8538 18.3546 13.9219 18.3742C13.0216 18.4255 12.1701 18.8006 11.5246 19.4303L9.54966 20.9193C9.4185 21.0177 9.31204 21.1453 9.23872 21.2919C9.1654 21.4386 9.12722 21.6003 9.12722 21.7642V22.3873C9.04638 23.658 9.16395 24.9336 9.47573 26.1681C9.60246 26.5272 10.8487 30.0334 11.0704 30.8783C11.1469 31.1008 11.1469 31.3423 11.0704 31.5648C10.5877 32.7805 10.2922 34.0624 10.1939 35.3667H10.12Z" fill="#404040"/>
<path d="M19.3502 16.357C19.2313 16.3557 19.1135 16.3342 19.0017 16.2936C18.8704 16.2475 18.7496 16.1758 18.6461 16.0828C18.5426 15.9898 18.4585 15.8773 18.3986 15.7517C18.3387 15.626 18.3043 15.4898 18.2972 15.3508C18.2902 15.2119 18.3107 15.0729 18.3575 14.9418C18.4966 14.5556 18.5681 14.1484 18.5687 13.7379V12.2805C18.5687 11.4402 18.2349 10.6343 17.6408 10.0402C17.0466 9.44599 16.2407 9.11219 15.4004 9.11219C14.5602 9.11219 13.7543 9.44599 13.1601 10.0402C12.566 10.6343 12.2322 11.4402 12.2322 12.2805V13.7379C12.2213 13.9032 12.2213 14.069 12.2322 14.2343C12.2509 14.3729 12.2421 14.514 12.2063 14.6493C12.1706 14.7846 12.1085 14.9115 12.0237 15.0228C11.9388 15.1341 11.8329 15.2276 11.7119 15.298C11.591 15.3683 11.4573 15.4142 11.3186 15.4329C11.0385 15.4707 10.7549 15.3957 10.5301 15.2244C10.3053 15.0531 10.1578 14.7995 10.12 14.5194C10.1039 14.2591 10.1039 13.9981 10.12 13.7379V12.2805C10.12 10.88 10.6763 9.5369 11.6666 8.54662C12.6569 7.55633 14 7 15.4004 7C16.8009 7 18.144 7.55633 19.1343 8.54662C20.1246 9.5369 20.6809 10.88 20.6809 12.2805V13.7379C20.6795 14.3923 20.5688 15.042 20.3535 15.66C20.2791 15.8658 20.1426 16.0434 19.9629 16.1683C19.7832 16.2931 19.5691 16.3591 19.3502 16.357V16.357Z" fill="#404040"/>
<path d="M11.176 36.4228H9.06384V56.4886H11.176V36.4228Z" fill="#404040"/>
<path d="M15.4004 40.6472H13.2882V56.4886H15.4004V40.6472Z" fill="#404040"/>
<path d="M21.737 36.4228H19.6248V56.4886H21.737V36.4228Z" fill="#404040"/>
<path d="M41.8028 7.9082H39.6906V35.2822H41.8028V7.9082Z" fill="#404040"/>
<path d="M56.8838 21.6375H47.0833V19.5253H54.1802L53.3776 16.3147L54.064 14.2448H50.2515V12.1326H57L55.5743 16.3992L56.8838 21.6375Z" fill="#404040"/>
<path d="M49.1955 20.5814H40.7467V18.4692H47.0833V12.1326H40.7467V10.0204H49.1955V20.5814Z" fill="#404040"/>
<path d="M25.9614 54.3764H23.8492V56.4886H25.9614V54.3764Z" fill="#FA4616"/>
<path d="M29.1296 50.152H27.0175V52.2642H29.1296V50.152Z" fill="#FA4616"/>
<path d="M32.2979 45.9277H30.1857V48.0399H32.2979V45.9277Z" fill="#FA4616"/>
<path d="M35.4663 41.7033H33.3541V43.8155H35.4663V41.7033Z" fill="#FA4616"/>
<path d="M38.6345 37.4789H36.5223V39.5911H38.6345V37.4789Z" fill="#FA4616"/>
</svg>
