<svg width="64" height="64" viewBox="0 0 64 64" fill="none" xmlns="http://www.w3.org/2000/svg">
<path d="M47.9091 46.7727C47.1396 46.7596 46.3806 46.5932 45.6763 46.283C44.972 45.9729 44.3366 45.5253 43.8075 44.9666C43.2783 44.4078 42.866 43.749 42.5947 43.0289C42.3234 42.3088 42.1984 41.5417 42.2273 40.7727V39.1591C42.2273 37.6522 42.8259 36.207 43.8914 35.1414C44.957 34.0759 46.4022 33.4773 47.9091 33.4773C49.416 33.4773 50.8612 34.0759 51.9268 35.1414C52.9923 36.207 53.5909 37.6522 53.5909 39.1591V40.7841C53.6182 41.5522 53.4922 42.318 53.2201 43.0368C52.9481 43.7556 52.5355 44.413 52.0065 44.9705C51.4775 45.5281 50.8427 45.9746 50.1392 46.2841C49.4357 46.5935 48.6775 46.7596 47.9091 46.7727ZM47.9091 35.4091C47.4389 35.428 46.9771 35.54 46.5505 35.7387C46.1239 35.9374 45.7409 36.2187 45.4238 36.5665C45.1067 36.9142 44.8618 37.3214 44.7032 37.7645C44.5446 38.2076 44.4756 38.6777 44.5 39.1477V40.7727C44.5 41.6769 44.8592 42.544 45.4985 43.1833C46.1378 43.8226 47.0049 44.1818 47.9091 44.1818C48.8132 44.1818 49.6804 43.8226 50.3197 43.1833C50.959 42.544 51.3182 41.6769 51.3182 40.7727V39.1591C51.3442 38.6882 51.2763 38.2168 51.1184 37.7724C50.9605 37.328 50.7159 36.9194 50.3986 36.5705C50.0814 36.2215 49.6979 35.9391 49.2705 35.7397C48.8431 35.5403 48.3803 35.428 47.9091 35.4091Z" fill="#404040"/>
<path d="M57 57H54.7273V53.5909C54.7273 51.9432 51.9886 50.1818 47.9091 50.1818C43.8295 50.1818 41.0909 51.9432 41.0909 53.5909V57H38.8182V53.5909C38.8182 50.3523 42.7273 47.9091 47.9091 47.9091C53.0909 47.9091 57 50.3523 57 53.5909V57Z" fill="#404040"/>
<path d="M34.2727 57H32V22.9091C32 22.6077 32.1197 22.3187 32.3328 22.1056C32.546 21.8925 32.835 21.7727 33.1364 21.7727H45.6364C45.9377 21.7727 46.2268 21.8925 46.4399 22.1056C46.653 22.3187 46.7727 22.6077 46.7727 22.9091V30.8636H44.5V24.0455H34.2727V57Z" fill="#404040"/>
<path d="M21.7727 57H19.5V35.4091C19.5 35.1077 19.6197 34.8187 19.8328 34.6056C20.046 34.3925 20.335 34.2727 20.6364 34.2727H33.1364V36.5455H21.7727V57Z" fill="#404040"/>
<path d="M9.27273 57H7V47.9091C7 47.6077 7.11974 47.3187 7.33285 47.1056C7.54596 46.8925 7.83498 46.7727 8.13636 46.7727H20.6364V49.0455H9.27273V57Z" fill="#404040"/>
<path d="M39.9545 14.9545H37.6818V9.27273H32V7H38.8182C39.1196 7 39.4086 7.11972 39.6217 7.33283C39.8348 7.54594 39.9545 7.83498 39.9545 8.13636V14.9545Z" fill="#FA4616"/>
<path d="M38.0133 7.34808L9.6004 35.7609L11.2075 37.368L39.6203 8.95514L38.0133 7.34808Z" fill="#FA4616"/>
</svg>
