<svg width="64" height="64" viewBox="0 0 64 64" fill="none" xmlns="http://www.w3.org/2000/svg">
<path d="M37.2107 42.3708V40.2878C38.0225 40.2362 38.7876 39.8904 39.3628 39.3153C39.938 38.7401 40.2838 37.9749 40.3354 37.1631V27.7893C40.3354 25.2792 35.3151 23.6231 32.003 23.6231C28.6909 23.6231 23.6707 25.2792 23.6707 27.7893V37.1631C23.7223 37.9749 24.068 38.7401 24.6432 39.3153C25.2184 39.8904 25.9835 40.2362 26.7953 40.2878V42.3708C25.4298 42.3217 24.1336 41.7573 23.1674 40.7911C22.2012 39.8249 21.6368 38.5287 21.5876 37.1631V27.7893C21.5876 23.7064 27.639 21.54 32.003 21.54C36.3671 21.54 42.4184 23.7064 42.4184 27.7893V37.1631C42.3669 38.5279 41.8017 39.8227 40.836 40.7884C39.8703 41.7541 38.5754 42.3193 37.2107 42.3708Z" fill="#404040"/>
<path d="M32.003 20.4985C31.3125 20.5233 30.6242 20.4055 29.9812 20.1525C29.3382 19.8996 28.7541 19.5169 28.2655 19.0283C27.7769 18.5397 27.3942 17.9556 27.1413 17.3126C26.8883 16.6696 26.7706 15.9813 26.7953 15.2908V13.2077C26.7953 11.8265 27.344 10.5019 28.3206 9.52531C29.2972 8.54868 30.6219 8 32.003 8C33.3842 8 34.7088 8.54868 35.6854 9.52531C36.662 10.5019 37.2107 11.8265 37.2107 13.2077V15.2908C37.2339 15.9809 37.1151 16.6685 36.8616 17.3108C36.6081 17.9532 36.2253 18.5366 35.7371 19.0249C35.2488 19.5131 34.6654 19.8959 34.0231 20.1494C33.3807 20.4029 32.6932 20.5217 32.003 20.4985V20.4985ZM32.003 10.0831C31.5859 10.0572 31.1681 10.1202 30.7773 10.2681C30.3864 10.416 30.0315 10.6453 29.736 10.9407C29.4405 11.2362 29.2113 11.5912 29.0634 11.982C28.9156 12.3728 28.8525 12.7906 28.8784 13.2077V15.2908C28.8784 16.1195 29.2076 16.9143 29.7936 17.5002C30.3795 18.0862 31.1743 18.4154 32.003 18.4154C32.8317 18.4154 33.6265 18.0862 34.2124 17.5002C34.7984 16.9143 35.1276 16.1195 35.1276 15.2908V13.2077C35.1519 12.791 35.0876 12.374 34.9392 11.9839C34.7907 11.5938 34.5614 11.2396 34.2663 10.9445C33.9711 10.6493 33.6169 10.42 33.2268 10.2716C32.8367 10.1231 32.4197 10.0589 32.003 10.0831V10.0831Z" fill="#404040"/>
<path d="M38.2523 29.8724H36.1692V56.9524H38.2523V29.8724Z" fill="#404040"/>
<path d="M27.8369 29.8724H25.7538V56.9524H27.8369V29.8724Z" fill="#404040"/>
<path d="M33.0446 40.2878H30.9615V56.9524H33.0446V40.2878Z" fill="#404040"/>
<path d="M18.463 34.0385H8.04758C7.77135 34.0385 7.50641 33.9288 7.31109 33.7335C7.11576 33.5382 7.00604 33.2732 7.00604 32.997C7.00604 32.7207 7.11576 32.4558 7.31109 32.2605C7.50641 32.0652 7.77135 31.9554 8.04758 31.9554H18.463C18.7392 31.9554 19.0041 32.0652 19.1995 32.2605C19.3948 32.4558 19.5045 32.7207 19.5045 32.997C19.5045 33.2732 19.3948 33.5382 19.1995 33.7335C19.0041 33.9288 18.7392 34.0385 18.463 34.0385Z" fill="#FA4616"/>
<path d="M12.2137 38.2047C12.0767 38.2055 11.9408 38.1792 11.8139 38.1274C11.687 38.0756 11.5716 37.9992 11.4743 37.9026L7.30809 33.7365C7.21047 33.6396 7.13298 33.5245 7.0801 33.3975C7.02722 33.2706 7 33.1345 7 32.997C7 32.8595 7.02722 32.7233 7.0801 32.5964C7.13298 32.4695 7.21047 32.3543 7.30809 32.2575L11.4743 28.0913C11.5714 27.9949 11.6865 27.9185 11.8131 27.8666C11.9397 27.8147 12.0754 27.7882 12.2122 27.7887C12.3491 27.7892 12.4845 27.8166 12.6107 27.8694C12.737 27.9223 12.8516 27.9994 12.948 28.0966C13.0444 28.1937 13.1208 28.3088 13.1727 28.4354C13.2247 28.562 13.2511 28.6977 13.2506 28.8345C13.2502 28.9714 13.2227 29.1068 13.1699 29.233C13.1171 29.3593 13.0399 29.4739 12.9428 29.5703L9.51616 32.997L12.9428 36.4237C13.0404 36.5205 13.1179 36.6357 13.1708 36.7626C13.2237 36.8895 13.2509 37.0257 13.2509 37.1632C13.2509 37.3006 13.2237 37.4368 13.1708 37.5637C13.1179 37.6906 13.0404 37.8058 12.9428 37.9026C12.7488 38.0951 12.487 38.2035 12.2137 38.2047Z" fill="#FA4616"/>
<path d="M19.5045 24.6646C19.3675 24.6654 19.2316 24.6392 19.1047 24.5873C18.9778 24.5355 18.8624 24.4591 18.765 24.3626L11.4743 17.0718C11.3766 16.975 11.2991 16.8598 11.2463 16.7329C11.1934 16.606 11.1662 16.4698 11.1662 16.3323C11.1662 16.1948 11.1934 16.0587 11.2463 15.9318C11.2991 15.8048 11.3766 15.6897 11.4743 15.5928C11.6694 15.3988 11.9334 15.29 12.2085 15.29C12.4837 15.29 12.7477 15.3988 12.9428 15.5928L20.2336 22.8836C20.3312 22.9804 20.4087 23.0956 20.4616 23.2226C20.5145 23.3495 20.5417 23.4856 20.5417 23.6231C20.5417 23.7606 20.5145 23.8967 20.4616 24.0237C20.4087 24.1506 20.3312 24.2658 20.2336 24.3626C20.0396 24.555 19.7778 24.6635 19.5045 24.6646Z" fill="#FA4616"/>
<path d="M12.2138 22.5816C11.9375 22.5816 11.6726 22.4719 11.4773 22.2765C11.2819 22.0812 11.1722 21.8163 11.1722 21.54V16.3323C11.1722 16.0561 11.2819 15.7912 11.4773 15.5959C11.6726 15.4005 11.9375 15.2908 12.2138 15.2908H17.4215C17.6977 15.2908 17.9626 15.4005 18.1579 15.5959C18.3532 15.7912 18.463 16.0561 18.463 16.3323C18.463 16.6086 18.3532 16.8735 18.1579 17.0688C17.9626 17.2642 17.6977 17.3739 17.4215 17.3739H13.2553V21.54C13.2553 21.8163 13.1455 22.0812 12.9502 22.2765C12.7549 22.4719 12.49 22.5816 12.2138 22.5816Z" fill="#FA4616"/>
<path d="M12.2137 50.7032C12.0767 50.704 11.9408 50.6777 11.8139 50.6259C11.687 50.574 11.5716 50.4977 11.4743 50.4011C11.3766 50.3043 11.2991 50.1891 11.2463 50.0622C11.1934 49.9353 11.1662 49.7991 11.1662 49.6616C11.1662 49.5241 11.1934 49.388 11.2463 49.2611C11.2991 49.1342 11.3766 49.019 11.4743 48.9222L18.765 41.6314C18.8622 41.5349 18.9773 41.4586 19.1039 41.4066C19.2305 41.3547 19.3662 41.3283 19.503 41.3287C19.6399 41.3292 19.7753 41.3567 19.9015 41.4095C20.0278 41.4623 20.1424 41.5395 20.2388 41.6366C20.3352 41.7337 20.4116 41.8488 20.4635 41.9754C20.5155 42.1021 20.5419 42.2377 20.5414 42.3745C20.541 42.5114 20.5135 42.6468 20.4607 42.7731C20.4079 42.8993 20.3307 43.0139 20.2336 43.1103L12.9428 50.4011C12.7488 50.5935 12.487 50.702 12.2137 50.7032Z" fill="#FA4616"/>
<path d="M17.4215 50.7032H12.2138C11.9375 50.7032 11.6726 50.5935 11.4773 50.3981C11.2819 50.2028 11.1722 49.9379 11.1722 49.6616V44.4539C11.1722 44.1777 11.2819 43.9128 11.4773 43.7175C11.6726 43.5221 11.9375 43.4124 12.2138 43.4124C12.49 43.4124 12.7549 43.5221 12.9502 43.7175C13.1455 43.9128 13.2553 44.1777 13.2553 44.4539V48.6201H17.4215C17.6977 48.6201 17.9626 48.7298 18.1579 48.9252C18.3532 49.1205 18.463 49.3854 18.463 49.6616C18.463 49.9379 18.3532 50.2028 18.1579 50.3981C17.9626 50.5935 17.6977 50.7032 17.4215 50.7032Z" fill="#FA4616"/>
<path d="M55.9585 34.0385H45.5431C45.2668 34.0385 45.0019 33.9288 44.8066 33.7335C44.6112 33.5382 44.5015 33.2732 44.5015 32.997C44.5015 32.7207 44.6112 32.4558 44.8066 32.2605C45.0019 32.0652 45.2668 31.9554 45.5431 31.9554H55.9585C56.2347 31.9554 56.4996 32.0652 56.6949 32.2605C56.8903 32.4558 57 32.7207 57 32.997C57 33.2732 56.8903 33.5382 56.6949 33.7335C56.4996 33.9288 56.2347 34.0385 55.9585 34.0385Z" fill="#FA4616"/>
<path d="M51.7923 38.2047C51.6552 38.2055 51.5193 38.1792 51.3924 38.1274C51.2655 38.0755 51.1501 37.9992 51.0528 37.9026C50.9552 37.8058 50.8777 37.6906 50.8248 37.5637C50.7719 37.4368 50.7447 37.3006 50.7447 37.1631C50.7447 37.0256 50.7719 36.8895 50.8248 36.7626C50.8777 36.6357 50.9552 36.5205 51.0528 36.4237L54.4795 32.997L51.0528 29.5703C50.9552 29.4735 50.8777 29.3583 50.8248 29.2314C50.7719 29.1045 50.7447 28.9683 50.7447 28.8308C50.7447 28.6933 50.7719 28.5572 50.8248 28.4303C50.8777 28.3033 50.9552 28.1882 51.0528 28.0913C51.248 27.8973 51.5119 27.7884 51.7871 27.7884C52.0622 27.7884 52.3262 27.8973 52.5214 28.0913L56.6875 32.2575C56.7851 32.3543 56.8626 32.4695 56.9155 32.5964C56.9684 32.7233 56.9956 32.8595 56.9956 32.997C56.9956 33.1345 56.9684 33.2706 56.9155 33.3975C56.8626 33.5245 56.7851 33.6396 56.6875 33.7365L52.5214 37.9026C52.3274 38.095 52.0655 38.2035 51.7923 38.2047Z" fill="#FA4616"/>
<path d="M44.5015 24.6647C44.3644 24.6655 44.2285 24.6392 44.1016 24.5874C43.9747 24.5355 43.8593 24.4591 43.762 24.3626C43.6644 24.2658 43.5869 24.1506 43.534 24.0237C43.4811 23.8968 43.4539 23.7606 43.4539 23.6231C43.4539 23.4856 43.4811 23.3495 43.534 23.2226C43.5869 23.0956 43.6644 22.9805 43.762 22.8836L51.0528 15.5928C51.1499 15.4964 51.265 15.4201 51.3917 15.3681C51.5183 15.3162 51.6539 15.2897 51.7908 15.2902C51.9276 15.2907 52.063 15.3181 52.1893 15.371C52.3155 15.4238 52.4301 15.5009 52.5266 15.5981C52.623 15.6952 52.6994 15.8103 52.7513 15.9369C52.8032 16.0635 52.8297 16.1992 52.8292 16.336C52.8287 16.4729 52.8013 16.6083 52.7485 16.7345C52.6956 16.8608 52.6185 16.9754 52.5213 17.0718L45.2306 24.3626C45.0366 24.555 44.7747 24.6635 44.5015 24.6647Z" fill="#FA4616"/>
<path d="M51.7923 22.5816C51.5161 22.5816 51.2511 22.4719 51.0558 22.2765C50.8605 22.0812 50.7508 21.8163 50.7508 21.54V17.3739H46.5846C46.3084 17.3739 46.0434 17.2642 45.8481 17.0688C45.6528 16.8735 45.5431 16.6086 45.5431 16.3323C45.5431 16.0561 45.6528 15.7912 45.8481 15.5959C46.0434 15.4005 46.3084 15.2908 46.5846 15.2908H51.7923C52.0685 15.2908 52.3334 15.4005 52.5288 15.5959C52.7241 15.7912 52.8338 16.0561 52.8338 16.3323V21.54C52.8338 21.8163 52.7241 22.0812 52.5288 22.2765C52.3334 22.4719 52.0685 22.5816 51.7923 22.5816Z" fill="#FA4616"/>
<path d="M51.7923 50.7032C51.6552 50.704 51.5193 50.6777 51.3924 50.6259C51.2655 50.574 51.1501 50.4976 51.0528 50.4011L43.762 43.1103C43.6644 43.0135 43.5869 42.8983 43.534 42.7714C43.4811 42.6445 43.4539 42.5083 43.4539 42.3708C43.4539 42.2334 43.4811 42.0972 43.534 41.9703C43.5869 41.8434 43.6644 41.7282 43.762 41.6314C43.9572 41.4374 44.2211 41.3285 44.4963 41.3285C44.7714 41.3285 45.0354 41.4374 45.2306 41.6314L52.5213 48.9221C52.619 49.019 52.6965 49.1342 52.7493 49.2611C52.8022 49.388 52.8294 49.5241 52.8294 49.6616C52.8294 49.7991 52.8022 49.9353 52.7493 50.0622C52.6965 50.1891 52.619 50.3043 52.5213 50.4011C52.3273 50.5935 52.0655 50.702 51.7923 50.7032Z" fill="#FA4616"/>
<path d="M51.7923 50.7032H46.5846C46.3084 50.7032 46.0434 50.5935 45.8481 50.3981C45.6528 50.2028 45.5431 49.9379 45.5431 49.6616C45.5431 49.3854 45.6528 49.1205 45.8481 48.9252C46.0434 48.7298 46.3084 48.6201 46.5846 48.6201H50.7508V44.4539C50.7508 44.1777 50.8605 43.9128 51.0558 43.7175C51.2511 43.5221 51.5161 43.4124 51.7923 43.4124C52.0685 43.4124 52.3334 43.5221 52.5288 43.7175C52.7241 43.9128 52.8338 44.1777 52.8338 44.4539V49.6616C52.8338 49.9379 52.7241 50.2028 52.5288 50.3981C52.3334 50.5935 52.0685 50.7032 51.7923 50.7032Z" fill="#FA4616"/>
</svg>
