<svg width="64" height="64" viewBox="0 0 64 64" fill="none" xmlns="http://www.w3.org/2000/svg">
<path d="M36.2979 36.5958C33.6678 36.5958 31.0968 35.8159 28.91 34.3547C26.7232 32.8935 25.0187 30.8166 24.0122 28.3867C23.0058 25.9569 22.7424 23.2831 23.2555 20.7036C23.7686 18.124 25.0351 15.7546 26.8949 13.8948C28.7546 12.0351 31.1241 10.7686 33.7036 10.2555C36.2831 9.74242 38.9569 10.0057 41.3867 11.0122C43.8166 12.0187 45.8935 13.7232 47.3547 15.91C48.8158 18.0968 49.5957 20.6678 49.5957 23.2979C49.5929 26.8238 48.191 30.2045 45.6978 32.6978C43.2046 35.191 39.8238 36.5929 36.2979 36.5958V36.5958ZM36.2979 12.1277C34.0886 12.1277 31.929 12.7828 30.092 14.0102C28.2551 15.2376 26.8234 16.9821 25.9779 19.0232C25.1325 21.0643 24.9113 23.3102 25.3423 25.477C25.7733 27.6439 26.8372 29.6342 28.3993 31.1964C29.9615 32.7586 31.9519 33.8224 34.1187 34.2534C36.2855 34.6845 38.5314 34.4632 40.5725 33.6178C42.6136 32.7723 44.3582 31.3406 45.5856 29.5037C46.813 27.6667 47.4681 25.5072 47.4681 23.2979C47.4653 20.3362 46.2875 17.4966 44.1933 15.4024C42.0991 13.3082 39.2595 12.1305 36.2979 12.1277V12.1277Z" fill="#FA4616"/>
<path d="M50.1276 46.1702C49.4728 46.1511 48.8283 46.0018 48.2318 45.7312C47.6352 45.4605 47.0985 45.0737 46.6529 44.5935C46.2073 44.1133 45.8618 43.5491 45.6365 42.934C45.4111 42.3189 45.3105 41.665 45.3404 41.0106V39.6915C45.2967 39.036 45.388 38.3785 45.6088 37.7597C45.8296 37.1409 46.1751 36.5741 46.624 36.0943C47.0728 35.6146 47.6153 35.2321 48.218 34.9707C48.8207 34.7092 49.4707 34.5742 50.1276 34.5742C50.7846 34.5742 51.4346 34.7092 52.0373 34.9707C52.64 35.2321 53.1825 35.6146 53.6313 36.0943C54.0802 36.5741 54.4257 37.1409 54.6465 37.7597C54.8672 38.3785 54.9586 39.036 54.9149 39.6915V41.0638C54.9376 41.7138 54.8316 42.362 54.603 42.9709C54.3744 43.5799 54.0277 44.1377 53.5828 44.6122C53.138 45.0867 52.6037 45.4687 52.0107 45.736C51.4178 46.0034 50.7778 46.151 50.1276 46.1702V46.1702ZM50.1276 36.5957C49.7525 36.6187 49.3855 36.7158 49.0482 36.8816C48.7108 37.0474 48.4097 37.2785 48.1623 37.5615C47.915 37.8445 47.7262 38.1738 47.607 38.5303C47.4879 38.8868 47.4406 39.2634 47.4681 39.6383V41.0106C47.4202 41.3881 47.4533 41.7715 47.5651 42.1352C47.6768 42.4989 47.8648 42.8347 48.1163 43.1201C48.3679 43.4056 48.6774 43.6343 49.0242 43.7909C49.371 43.9476 49.7471 44.0285 50.1276 44.0285C50.5082 44.0285 50.8843 43.9476 51.2311 43.7909C51.5779 43.6343 51.8874 43.4056 52.1389 43.1201C52.3905 42.8347 52.5785 42.4989 52.6902 42.1352C52.802 41.7715 52.8351 41.3881 52.7872 41.0106V39.6915C52.8221 39.3123 52.7804 38.9301 52.6647 38.5674C52.5489 38.2047 52.3614 37.869 52.1133 37.5802C51.8652 37.2914 51.5615 37.0554 51.2204 36.8863C50.8793 36.7172 50.5077 36.6184 50.1276 36.5957V36.5957Z" fill="#404040"/>
<path d="M55.9362 49.3617C55.654 49.3617 55.3834 49.2496 55.1839 49.0501C54.9844 48.8506 54.8724 48.58 54.8724 48.2979C54.8724 47.2979 52.9043 46.1702 50.0851 46.1702C47.266 46.1702 45.2979 47.2979 45.2979 48.2979C45.2979 48.58 45.1858 48.8506 44.9863 49.0501C44.7868 49.2496 44.5162 49.3617 44.2341 49.3617C43.9519 49.3617 43.6813 49.2496 43.4818 49.0501C43.2823 48.8506 43.1702 48.58 43.1702 48.2979C43.1702 45.8723 46.1383 44.0426 50.0851 44.0426C54.0319 44.0426 57 45.8723 57 48.2979C57 48.58 56.8879 48.8506 56.6884 49.0501C56.4889 49.2496 56.2183 49.3617 55.9362 49.3617Z" fill="#404040"/>
<path d="M34.1702 51.4894C33.5154 51.4703 32.8709 51.321 32.2743 51.0503C31.6777 50.7796 31.141 50.3929 30.6955 49.9126C30.2499 49.4324 29.9043 48.8683 29.679 48.2531C29.4537 47.638 29.353 46.9842 29.383 46.3298V45.0106C29.3392 44.3551 29.4306 43.6976 29.6514 43.0789C29.8722 42.4601 30.2177 41.8933 30.6665 41.4135C31.1153 40.9337 31.6579 40.5513 32.2606 40.2898C32.8633 40.0283 33.5132 39.8934 34.1702 39.8934C34.8272 39.8934 35.4771 40.0283 36.0798 40.2898C36.6825 40.5513 37.2251 40.9337 37.6739 41.4135C38.1227 41.8933 38.4682 42.4601 38.689 43.0789C38.9098 43.6976 39.0011 44.3551 38.9574 45.0106V46.3829C38.9801 47.033 38.8742 47.6811 38.6456 48.2901C38.417 48.899 38.0702 49.4568 37.6254 49.9313C37.1805 50.4059 36.6462 50.7878 36.0533 51.0552C35.4603 51.3225 34.8204 51.4701 34.1702 51.4894V51.4894ZM34.1702 41.9149C33.795 41.9378 33.4281 42.0349 33.0907 42.2007C32.7534 42.3665 32.4523 42.5976 32.2049 42.8806C31.9575 43.1636 31.7688 43.493 31.6496 43.8495C31.5304 44.206 31.4832 44.5826 31.5106 44.9574V46.3298C31.4628 46.7072 31.4958 47.0906 31.6076 47.4544C31.7194 47.8181 31.9073 48.1538 32.1589 48.4393C32.4105 48.7248 32.7199 48.9535 33.0667 49.1101C33.4135 49.2667 33.7897 49.3477 34.1702 49.3477C34.5507 49.3477 34.9269 49.2667 35.2736 49.1101C35.6204 48.9535 35.9299 48.7248 36.1815 48.4393C36.4331 48.1538 36.621 47.8181 36.7328 47.4544C36.8445 47.0906 36.8776 46.7072 36.8298 46.3298V45.0106C36.8647 44.6315 36.823 44.2492 36.7072 43.8865C36.5914 43.5238 36.4039 43.1881 36.1558 42.8993C35.9077 42.6105 35.6041 42.3746 35.263 42.2055C34.9219 42.0364 34.5502 41.9375 34.1702 41.9149V41.9149Z" fill="#404040"/>
<path d="M39.9787 54.6809C39.6966 54.6809 39.426 54.5688 39.2265 54.3693C39.027 54.1697 38.9149 53.8992 38.9149 53.617C38.9149 52.617 36.9468 51.4894 34.1277 51.4894C31.3085 51.4894 29.3404 52.617 29.3404 53.617C29.3404 53.8992 29.2283 54.1697 29.0288 54.3693C28.8293 54.5688 28.5587 54.6809 28.2766 54.6809C27.9945 54.6809 27.7239 54.5688 27.5244 54.3693C27.3248 54.1697 27.2128 53.8992 27.2128 53.617C27.2128 51.1915 30.1809 49.3617 34.1277 49.3617C38.0745 49.3617 41.0426 51.1915 41.0426 53.617C41.0426 53.8992 40.9305 54.1697 40.731 54.3693C40.5315 54.5688 40.2609 54.6809 39.9787 54.6809Z" fill="#404040"/>
<path d="M13.9574 27.0213C13.3026 27.0022 12.6581 26.8529 12.0615 26.5822C11.465 26.3115 10.9283 25.9248 10.4827 25.4446C10.0371 24.9643 9.69158 24.4002 9.46624 23.785C9.2409 23.1699 9.14026 22.5161 9.17018 21.8617V20.5425C9.12646 19.887 9.21782 19.2295 9.43861 18.6108C9.6594 17.992 10.0049 17.4252 10.4537 16.9454C10.9025 16.4657 11.4451 16.0832 12.0478 15.8217C12.6505 15.5602 13.3005 15.4253 13.9574 15.4253C14.6144 15.4253 15.2644 15.5602 15.867 15.8217C16.4697 16.0832 17.0123 16.4657 17.4611 16.9454C17.9099 17.4252 18.2554 17.992 18.4762 18.6108C18.697 19.2295 18.7884 19.887 18.7447 20.5425V21.9148C18.7674 22.5649 18.6614 23.213 18.4328 23.822C18.2042 24.431 17.8575 24.9887 17.4126 25.4633C16.9677 25.9378 16.4335 26.3197 15.8405 26.5871C15.2475 26.8544 14.6076 27.002 13.9574 27.0213V27.0213ZM13.9574 17.4468C13.5822 17.4697 13.2153 17.5669 12.878 17.7326C12.5406 17.8984 12.2395 18.1295 11.9921 18.4125C11.7447 18.6955 11.556 19.0249 11.4368 19.3814C11.3176 19.7379 11.2704 20.1145 11.2978 20.4893V21.8617C11.25 22.2392 11.2831 22.6225 11.3948 22.9863C11.5066 23.35 11.6945 23.6857 11.9461 23.9712C12.1977 24.2567 12.5072 24.4854 12.854 24.642C13.2008 24.7986 13.5769 24.8796 13.9574 24.8796C14.3379 24.8796 14.7141 24.7986 15.0609 24.642C15.4077 24.4854 15.7171 24.2567 15.9687 23.9712C16.2203 23.6857 16.4082 23.35 16.52 22.9863C16.6318 22.6225 16.6648 22.2392 16.617 21.8617V20.5425C16.6519 20.1634 16.6102 19.7811 16.4944 19.4184C16.3787 19.0557 16.1911 18.72 15.943 18.4312C15.6949 18.1424 15.3913 17.9065 15.0502 17.7374C14.7091 17.5683 14.3375 17.4694 13.9574 17.4468V17.4468Z" fill="#404040"/>
<path d="M19.766 30.2128C19.4838 30.2128 19.2132 30.1007 19.0137 29.9012C18.8142 29.7017 18.7021 29.4311 18.7021 29.1489C18.7021 28.1489 16.734 27.0213 13.9149 27.0213C11.0957 27.0213 9.12766 28.1489 9.12766 29.1489C9.12766 29.4311 9.01558 29.7017 8.81607 29.9012C8.61657 30.1007 8.34597 30.2128 8.06383 30.2128C7.78168 30.2128 7.51109 30.1007 7.31159 29.9012C7.11208 29.7017 7 29.4311 7 29.1489C7 26.7234 9.96809 24.8936 13.9149 24.8936C17.8617 24.8936 20.8298 26.7234 20.8298 29.1489C20.8298 29.4311 20.7177 29.7017 20.5182 29.9012C20.3187 30.1007 20.0481 30.2128 19.766 30.2128Z" fill="#404040"/>
<path d="M36.2978 27.0213C35.643 27.0022 34.9985 26.8529 34.4019 26.5822C33.8054 26.3115 33.2687 25.9248 32.8231 25.4446C32.3775 24.9643 32.032 24.4002 31.8066 23.785C31.5813 23.1699 31.4807 22.5161 31.5106 21.8617V20.5425C31.4669 19.887 31.5582 19.2295 31.779 18.6108C31.9998 17.992 32.3453 17.4252 32.7941 16.9454C33.2429 16.4657 33.7855 16.0832 34.3882 15.8217C34.9909 15.5602 35.6408 15.4253 36.2978 15.4253C36.9548 15.4253 37.6047 15.5602 38.2074 15.8217C38.8101 16.0832 39.3527 16.4657 39.8015 16.9454C40.2503 17.4252 40.5958 17.992 40.8166 18.6108C41.0374 19.2295 41.1288 19.887 41.085 20.5425V21.9148C41.1078 22.5649 41.0018 23.213 40.7732 23.822C40.5446 24.431 40.1979 24.9887 39.753 25.4633C39.3081 25.9378 38.7739 26.3197 38.1809 26.5871C37.5879 26.8544 36.948 27.002 36.2978 27.0213V27.0213ZM36.2978 17.4468C35.9226 17.4697 35.5557 17.5669 35.2183 17.7326C34.881 17.8984 34.5799 18.1295 34.3325 18.4125C34.0851 18.6955 33.8964 19.0249 33.7772 19.3814C33.658 19.7379 33.6108 20.1145 33.6382 20.4893V21.8617C33.5904 22.2392 33.6235 22.6225 33.7352 22.9863C33.847 23.35 34.0349 23.6857 34.2865 23.9712C34.5381 24.2567 34.8476 24.4854 35.1944 24.642C35.5411 24.7986 35.9173 24.8796 36.2978 24.8796C36.6783 24.8796 37.0545 24.7986 37.4013 24.642C37.7481 24.4854 38.0575 24.2567 38.3091 23.9712C38.5607 23.6857 38.7486 23.35 38.8604 22.9863C38.9722 22.6225 39.0052 22.2392 38.9574 21.8617V20.5425C38.9923 20.1634 38.9506 19.7811 38.8348 19.4184C38.7191 19.0557 38.5315 18.72 38.2834 18.4312C38.0353 18.1424 37.7317 17.9065 37.3906 17.7374C37.0495 17.5683 36.6779 17.4694 36.2978 17.4468Z" fill="#404040"/>
<path d="M42.1064 30.2128C41.8243 30.2128 41.5537 30.1007 41.3542 29.9012C41.1547 29.7017 41.0426 29.4311 41.0426 29.1489C41.0426 28.1489 39.0745 27.0213 36.2553 27.0213C33.4362 27.0213 31.4681 28.1489 31.4681 29.1489C31.4681 29.4311 31.356 29.7017 31.1565 29.9012C30.957 30.1007 30.6864 30.2128 30.4043 30.2128C30.1221 30.2128 29.8515 30.1007 29.652 29.9012C29.4525 29.7017 29.3405 29.4311 29.3405 29.1489C29.3405 26.7234 32.3085 24.8936 36.2553 24.8936C40.2022 24.8936 43.1702 26.7234 43.1702 29.1489C43.1702 29.4311 43.0582 29.7017 42.8587 29.9012C42.6591 30.1007 42.3886 30.2128 42.1064 30.2128Z" fill="#404040"/>
<path d="M17.2553 46.7127C16.9069 46.7191 16.5607 46.6556 16.2373 46.5258C15.9138 46.3961 15.6197 46.2028 15.3723 45.9574L14.1276 44.7234C13.6029 44.1219 13.3365 43.3378 13.3863 42.5411C13.4361 41.7444 13.798 40.9995 14.3936 40.468L25.4042 29.4574L26.9042 30.9574L15.8936 41.9787C15.7089 42.1186 15.5806 42.32 15.5318 42.5464C15.483 42.7728 15.517 43.0092 15.6276 43.2127L16.8723 44.4574C17.1063 44.6914 17.6702 44.6383 18.117 44.1914L29.2446 33.0638L30.7446 34.5638L19.617 45.7021C18.9946 46.3384 18.1453 46.7018 17.2553 46.7127Z" fill="#FA4616"/>
</svg>
