<svg width="64" height="64" viewBox="0 0 64 64" fill="none" xmlns="http://www.w3.org/2000/svg">
<path d="M26.544 39.2916H14.044C13.7677 39.2916 13.5028 39.1819 13.3074 38.9865C13.1121 38.7912 13.0023 38.5262 13.0023 38.25C13.0255 36.4758 13.335 34.7171 13.919 33.0416C13.6169 32.0625 12.8044 29.7604 12.4815 28.875C12.0917 27.4406 11.937 25.9526 12.0232 24.4687V23.8646C12.0248 23.3812 12.1385 22.9048 12.3554 22.4728C12.5723 22.0408 12.8864 21.665 13.2732 21.375L15.2211 19.8958C16.2082 18.9695 17.4938 18.4265 18.8461 18.3646C20.0556 18.3241 21.2558 18.5892 22.3357 19.1354L22.6586 19.2812C23.9576 19.8171 25.1635 20.5554 26.2315 21.4687C27.0336 22.2708 30.2836 26.4271 30.6586 26.8958C31.0809 27.4325 31.3054 28.0984 31.294 28.7812V29.2708C31.313 29.6988 31.2282 30.1251 31.0468 30.5133C30.8654 30.9014 30.5929 31.24 30.2523 31.5C29.8654 31.7789 29.4258 31.9763 28.9602 32.0801C28.4946 32.184 28.0128 32.1922 27.544 32.1041V38.2604C27.5415 38.5278 27.4363 38.784 27.2502 38.976C27.064 39.1679 26.8112 39.281 26.544 39.2916ZM15.1482 37.2083H25.5023V30.8021L22.7732 28.6458C22.5585 28.4739 22.4206 28.2242 22.3893 27.951C22.3581 27.6778 22.4362 27.4033 22.6065 27.1875C22.7769 26.9713 23.0259 26.8313 23.2991 26.7981C23.5724 26.7649 23.8477 26.8412 24.0648 27.0104L27.1898 29.4583L27.8357 29.9583C28.027 30.0325 28.2338 30.058 28.4374 30.0325C28.641 30.0071 28.8351 29.9315 29.0023 29.8125C29.1482 29.6875 29.2002 29.6146 29.2002 29.2291V28.7812C29.2036 28.581 29.1373 28.3859 29.0127 28.2291C27.5857 26.4062 25.2836 23.5208 24.7419 23.0208C23.8566 22.2927 22.8662 21.7027 21.8044 21.2708L21.4607 21.1146C20.6528 20.6909 19.7469 20.4896 18.8357 20.5312C17.9472 20.58 17.1068 20.9503 16.4711 21.5729L14.5127 23.0417C14.3834 23.1387 14.2784 23.2645 14.206 23.4091C14.1337 23.5538 14.0961 23.7133 14.0961 23.875V24.4896C14.0215 25.7429 14.1374 27.0002 14.4398 28.2187C14.5648 28.5729 15.794 32.0312 16.0232 32.8646C16.0986 33.084 16.0986 33.3222 16.0232 33.5416C15.5508 34.7136 15.2559 35.9494 15.1482 37.2083V37.2083Z" fill="#404040"/>
<path d="M24.2003 18.4584C24.0795 18.4582 23.9596 18.4371 23.8461 18.3959C23.5865 18.3018 23.3748 18.1086 23.2576 17.8586C23.1404 17.6085 23.1273 17.3222 23.2211 17.0625C23.3558 16.6812 23.4227 16.2794 23.419 15.875V14.4375C23.419 13.6087 23.0898 12.8139 22.5037 12.2278C21.9177 11.6418 21.1228 11.3125 20.294 11.3125C19.4652 11.3125 18.6703 11.6418 18.0843 12.2278C17.4982 12.8139 17.169 13.6087 17.169 14.4375V15.875C17.1583 16.038 17.1583 16.2016 17.169 16.3646C17.2076 16.6381 17.1361 16.9157 16.97 17.1365C16.804 17.3572 16.5571 17.503 16.2836 17.5417C16.1474 17.5607 16.0088 17.5526 15.8757 17.5178C15.7427 17.483 15.6179 17.4223 15.5084 17.339C15.399 17.2557 15.3071 17.1516 15.2382 17.0326C15.1692 16.9136 15.1244 16.7822 15.1065 16.6459C15.0906 16.3892 15.0906 16.1317 15.1065 15.875V14.4375C15.1065 13.0562 15.6552 11.7314 16.632 10.7547C17.6087 9.77792 18.9335 9.22919 20.3148 9.22919C21.6962 9.22919 23.0209 9.77792 23.9977 10.7547C24.9744 11.7314 25.5232 13.0562 25.5232 14.4375V15.875C25.5271 16.521 25.4178 17.1626 25.2002 17.7709C25.1263 17.9756 24.9901 18.152 24.8107 18.2753C24.6313 18.3986 24.4179 18.4626 24.2003 18.4584V18.4584Z" fill="#404040"/>
<path d="M15.0857 57C14.8094 57 14.5445 56.8903 14.3491 56.6949C14.1538 56.4996 14.044 56.2346 14.044 55.9583V38.25C14.044 37.9737 14.1538 37.7088 14.3491 37.5134C14.5445 37.3181 14.8094 37.2083 15.0857 37.2083C15.3619 37.2083 15.6269 37.3181 15.8222 37.5134C16.0176 37.7088 16.1273 37.9737 16.1273 38.25V55.9583C16.1273 56.2346 16.0176 56.4996 15.8222 56.6949C15.6269 56.8903 15.3619 57 15.0857 57Z" fill="#404040"/>
<path d="M19.2523 57C18.976 57 18.7111 56.8903 18.5157 56.6949C18.3204 56.4996 18.2106 56.2346 18.2106 55.9583V42.4167C18.2106 42.1404 18.3204 41.8755 18.5157 41.6801C18.7111 41.4848 18.976 41.375 19.2523 41.375C19.5286 41.375 19.7935 41.4848 19.9889 41.6801C20.1842 41.8755 20.294 42.1404 20.294 42.4167V55.9583C20.294 56.2346 20.1842 56.4996 19.9889 56.6949C19.7935 56.8903 19.5286 57 19.2523 57Z" fill="#404040"/>
<path d="M25.5023 57C25.226 57 24.9611 56.8903 24.7657 56.6949C24.5704 56.4996 24.4606 56.2346 24.4606 55.9583V38.25C24.4606 37.9737 24.5704 37.7088 24.7657 37.5134C24.9611 37.3181 25.226 37.2083 25.5023 37.2083C25.7786 37.2083 26.0435 37.3181 26.2389 37.5134C26.4342 37.7088 26.544 37.9737 26.544 38.25V55.9583C26.544 56.2346 26.4342 56.4996 26.2389 56.6949C26.0435 56.8903 25.7786 57 25.5023 57Z" fill="#404040"/>
<path d="M39.044 44.5C38.7677 44.5 38.5028 44.3902 38.3074 44.1949C38.1121 43.9995 38.0023 43.7346 38.0023 43.4583V34.0833C38.0023 33.8071 38.1121 33.5421 38.3074 33.3468C38.5028 33.1514 38.7677 33.0417 39.044 33.0417C39.3203 33.0417 39.5852 33.1514 39.7806 33.3468C39.9759 33.5421 40.0857 33.8071 40.0857 34.0833V43.4583C40.0857 43.7346 39.9759 43.9995 39.7806 44.1949C39.5852 44.3902 39.3203 44.5 39.044 44.5Z" fill="#FA4616"/>
<path d="M39.044 18.4583C38.7677 18.4583 38.5028 18.3486 38.3074 18.1532C38.1121 17.9579 38.0023 17.6929 38.0023 17.4167V8.04167C38.0023 7.7654 38.1121 7.50045 38.3074 7.3051C38.5028 7.10975 38.7677 7 39.044 7C39.3203 7 39.5852 7.10975 39.7806 7.3051C39.9759 7.50045 40.0857 7.7654 40.0857 8.04167V17.4167C40.0857 17.6929 39.9759 17.9579 39.7806 18.1532C39.5852 18.3486 39.3203 18.4583 39.044 18.4583Z" fill="#FA4616"/>
<path d="M51.544 26.7917H45.294C45.0177 26.7917 44.7528 26.6819 44.5574 26.4866C44.3621 26.2912 44.2523 26.0263 44.2523 25.75C44.2523 25.4737 44.3621 25.2088 44.5574 25.0134C44.7528 24.8181 45.0177 24.7083 45.294 24.7083H51.544C51.8203 24.7083 52.0852 24.8181 52.2806 25.0134C52.4759 25.2088 52.5857 25.4737 52.5857 25.75C52.5857 26.0263 52.4759 26.2912 52.2806 26.4866C52.0852 26.6819 51.8203 26.7917 51.544 26.7917Z" fill="#FA4616"/>
<path d="M39.044 40.3333C36.1377 40.3333 33.4398 38.7187 31.4606 35.7812C31.384 35.6677 31.3306 35.5402 31.3032 35.406C31.2759 35.2718 31.2753 35.1335 31.3014 34.999C31.3275 34.8646 31.3799 34.7366 31.4554 34.6224C31.531 34.5081 31.6283 34.4099 31.7419 34.3333C31.8554 34.2567 31.9829 34.2032 32.1172 34.1759C32.2514 34.1486 32.3897 34.148 32.5241 34.1741C32.6586 34.2002 32.7865 34.2525 32.9008 34.3281C33.015 34.4037 33.1132 34.501 33.1898 34.6146C34.7732 36.9583 36.8565 38.25 39.044 38.25C43.6377 38.25 47.3773 32.6458 47.3773 25.75C47.3773 18.8542 43.6377 13.25 39.044 13.25C35.5752 13.25 32.4294 16.5417 31.2211 21.4479C31.1893 21.5815 31.1314 21.7075 31.0508 21.8186C30.9701 21.9297 30.8683 22.0238 30.7512 22.0954C30.634 22.1671 30.5039 22.2149 30.3682 22.236C30.2325 22.2572 30.094 22.2513 29.9606 22.2187C29.6928 22.1523 29.4622 21.9822 29.3197 21.7459C29.1771 21.5095 29.1341 21.2263 29.2002 20.9583C30.6481 15.1042 34.5961 11.1667 39.044 11.1667C44.794 11.1667 49.4606 17.7083 49.4606 25.75C49.4606 33.7917 44.794 40.3333 39.044 40.3333Z" fill="#FA4616"/>
<path d="M40.0857 24.7083H38.0023V26.7917H40.0857V24.7083Z" fill="#FA4616"/>
</svg>
