<svg width="64" height="64" viewBox="0 0 64 64" fill="none" xmlns="http://www.w3.org/2000/svg">
<path d="M37.2084 41.8646H35.125V39.2604C34.328 38.3522 33.2053 37.7945 32 37.7083C31.394 37.7485 30.8031 37.9147 30.265 38.1963C29.7269 38.4779 29.2535 38.8687 28.875 39.3437V41.8646H26.7917V39.2604C26.7917 37.4584 29.8229 35.625 32 35.625C34.1771 35.625 37.2084 37.4584 37.2084 39.2604V41.8646Z" fill="#404040"/>
<path d="M32 46.0313C29.7338 46.0313 27.5184 45.3592 25.6341 44.1002C23.7498 42.8411 22.2812 41.0516 21.4139 38.9578C20.5467 36.8641 20.3197 34.5603 20.7619 32.3376C21.204 30.1149 22.2953 28.0732 23.8977 26.4707C25.5002 24.8682 27.5419 23.7769 29.7646 23.3348C31.9873 22.8927 34.2912 23.1196 36.3849 23.9868C38.4787 24.8541 40.2682 26.3227 41.5273 28.207C42.7863 30.0913 43.4584 32.3067 43.4584 34.573C43.4584 37.6119 42.2511 40.5263 40.1023 42.6752C37.9534 44.8241 35.039 46.0313 32 46.0313V46.0313ZM32 25.198C30.1458 25.198 28.3333 25.7478 26.7915 26.7779C25.2498 27.808 24.0482 29.2723 23.3387 30.9853C22.6291 32.6984 22.4434 34.5834 22.8052 36.4019C23.1669 38.2205 24.0598 39.891 25.3709 41.2021C26.682 42.5132 28.3525 43.4061 30.1711 43.7678C31.9896 44.1295 33.8746 43.9439 35.5877 43.2343C37.3007 42.5247 38.7649 41.3231 39.7951 39.7814C40.8252 38.2397 41.375 36.4272 41.375 34.573C41.375 32.0866 40.3873 29.7019 38.6291 27.9438C36.871 26.1856 34.4864 25.198 32 25.198V25.198Z" fill="#FA4616"/>
<path d="M32 37.6562C31.4489 37.6705 30.9007 37.5726 30.3887 37.3683C29.8767 37.1639 29.4116 36.8576 29.0218 36.4678C28.632 36.0779 28.3257 35.6129 28.1213 35.1009C27.917 34.5889 27.819 34.0406 27.8333 33.4896V32.4479C27.8333 31.3428 28.2723 30.283 29.0537 29.5016C29.8351 28.7202 30.8949 28.2812 32 28.2812C33.1051 28.2812 34.1649 28.7202 34.9463 29.5016C35.7277 30.283 36.1667 31.3428 36.1667 32.4479V33.4896C36.181 34.0406 36.083 34.5889 35.8787 35.1009C35.6744 35.6129 35.368 36.0779 34.9782 36.4678C34.5884 36.8576 34.1233 37.1639 33.6113 37.3683C33.0993 37.5726 32.5511 37.6705 32 37.6562V37.6562ZM32 30.3646C31.7229 30.3512 31.446 30.3959 31.1872 30.4958C30.9283 30.5958 30.6933 30.7488 30.4971 30.945C30.3009 31.1412 30.1479 31.3762 30.0479 31.635C29.948 31.8939 29.9033 32.1708 29.9167 32.4479V33.4896C29.9167 34.0421 30.1362 34.572 30.5269 34.9627C30.9176 35.3534 31.4475 35.5729 32 35.5729C32.5525 35.5729 33.0824 35.3534 33.4731 34.9627C33.8638 34.572 34.0833 34.0421 34.0833 33.4896V32.4479C34.0908 32.1742 34.0417 31.9019 33.9391 31.648C33.8365 31.3942 33.6826 31.1643 33.4871 30.9726C33.2915 30.781 33.0585 30.6317 32.8026 30.5342C32.5467 30.4368 32.2735 30.3933 32 30.4063V30.3646Z" fill="#404040"/>
<path d="M18.4583 25.1979H16.375V22.0729C16.375 19.9896 20.0104 17.9063 22.625 17.9063C24.6791 18.0028 26.6227 18.8649 28.0729 20.3229L26.5312 21.7292C25.4804 20.6989 24.0938 20.0814 22.625 19.9896C20.7604 19.9896 18.6042 21.5313 18.4583 22.0729V25.1979Z" fill="#404040"/>
<path d="M22.625 19.9479C22.0456 19.9325 21.4754 19.7999 20.9487 19.5581C20.422 19.3163 19.9498 18.9703 19.5604 18.541C19.171 18.1118 18.8727 17.6081 18.6832 17.0604C18.4938 16.5126 18.4173 15.9323 18.4583 15.3542V14.1667C18.4583 13.0616 18.8973 12.0018 19.6787 11.2204C20.4601 10.439 21.5199 10 22.625 10C23.7301 10 24.7899 10.439 25.5713 11.2204C26.3527 12.0018 26.7917 13.0616 26.7917 14.1667V15.3542C26.8327 15.9323 26.7561 16.5126 26.5667 17.0604C26.3773 17.6081 26.0789 18.1118 25.6896 18.541C25.3002 18.9703 24.8279 19.3163 24.3012 19.5581C23.7745 19.7999 23.2043 19.9325 22.625 19.9479V19.9479ZM22.625 11.6146C22.3205 11.635 22.0234 11.7173 21.7517 11.8562C21.48 11.9951 21.2394 12.1878 21.0445 12.4227C20.8496 12.6575 20.7046 12.9295 20.6181 13.2221C20.5317 13.5148 20.5057 13.822 20.5417 14.125V15.3125C20.5417 15.865 20.7611 16.3949 21.1518 16.7856C21.5426 17.1763 22.0725 17.3958 22.625 17.3958C23.1775 17.3958 23.7074 17.1763 24.0981 16.7856C24.4888 16.3949 24.7083 15.865 24.7083 15.3125V14.1667C24.7443 13.8636 24.7183 13.5564 24.6319 13.2638C24.5454 12.9711 24.4004 12.6991 24.2055 12.4643C24.0106 12.2295 23.77 12.0367 23.4983 11.8978C23.2266 11.7589 22.9295 11.6768 22.625 11.6563V11.6146Z" fill="#404040"/>
<path d="M47.625 25.1979H45.5417V22.0729C45.3959 21.5417 43.2396 19.9896 41.375 19.9896C39.9063 20.0814 38.5196 20.6989 37.4688 21.7292L35.9271 20.3229C37.3774 18.8649 39.3209 18.0028 41.375 17.9063C43.9896 17.9063 47.625 19.9896 47.625 22.0729V25.1979Z" fill="#404040"/>
<path d="M41.375 19.9479C40.7956 19.9325 40.2254 19.7999 39.6987 19.5581C39.172 19.3163 38.6998 18.9703 38.3104 18.541C37.921 18.1118 37.6227 17.6081 37.4332 17.0604C37.2438 16.5126 37.1673 15.9323 37.2083 15.3542V14.1667C37.2083 13.0616 37.6473 12.0018 38.4287 11.2204C39.2101 10.439 40.2699 10 41.375 10C42.4801 10 43.5399 10.439 44.3213 11.2204C45.1027 12.0018 45.5417 13.0616 45.5417 14.1667V15.3542C45.5827 15.9323 45.5061 16.5126 45.3167 17.0604C45.1273 17.6081 44.8289 18.1118 44.4396 18.541C44.0502 18.9703 43.5779 19.3163 43.0512 19.5581C42.5245 19.7999 41.9543 19.9325 41.375 19.9479V19.9479ZM41.375 11.6146C41.0705 11.635 40.7734 11.7173 40.5017 11.8562C40.23 11.9951 39.9894 12.1878 39.7945 12.4227C39.5996 12.6575 39.4546 12.9295 39.3681 13.2221C39.2817 13.5148 39.2557 13.822 39.2917 14.125V15.3125C39.2917 15.865 39.5111 16.3949 39.9018 16.7856C40.2926 17.1763 40.8225 17.3958 41.375 17.3958C41.9275 17.3958 42.4574 17.1763 42.8481 16.7856C43.2388 16.3949 43.4583 15.865 43.4583 15.3125V14.1667C43.4943 13.8636 43.4683 13.5564 43.3819 13.2638C43.2954 12.9711 43.1504 12.6991 42.9555 12.4643C42.7606 12.2295 42.52 12.0367 42.2483 11.8978C41.9766 11.7589 41.6795 11.6768 41.375 11.6563V11.6146Z" fill="#404040"/>
<path d="M22.625 53.3229H20.5417V51.2396C20.3958 50.7084 18.2396 49.1563 16.375 49.1563C14.5104 49.1563 12.3542 50.6979 12.2083 51.2396V53.3229H10.125V51.2396C10.125 49.1563 13.7604 47.0729 16.375 47.0729C18.9896 47.0729 22.625 49.1563 22.625 51.2396V53.3229Z" fill="#404040"/>
<path d="M53.875 53.3229H51.7917V51.2396C51.6458 50.7084 49.4896 49.1563 47.625 49.1563C45.7604 49.1563 43.6042 50.6979 43.4583 51.2396V53.3229H41.375V51.2396C41.375 49.1563 45.0104 47.0729 47.625 47.0729C50.2396 47.0729 53.875 49.1563 53.875 51.2396V53.3229Z" fill="#404040"/>
<path d="M16.3751 49.1146C15.7957 49.0992 15.2255 48.9666 14.6988 48.7248C14.1721 48.483 13.6998 48.137 13.3105 47.7077C12.9211 47.2785 12.6227 46.7748 12.4333 46.2271C12.2439 45.6793 12.1674 45.099 12.2084 44.5209V43.3334C12.2084 42.2283 12.6474 41.1685 13.4288 40.3871C14.2102 39.6057 15.27 39.1667 16.3751 39.1667C17.4801 39.1667 18.5399 39.6057 19.3213 40.3871C20.1027 41.1685 20.5417 42.2283 20.5417 43.3334V44.5209C20.5827 45.099 20.5062 45.6793 20.3168 46.2271C20.1274 46.7748 19.829 47.2785 19.4396 47.7077C19.0503 48.137 18.578 48.483 18.0513 48.7248C17.5246 48.9666 16.9544 49.0992 16.3751 49.1146V49.1146ZM16.3751 40.7813C16.0706 40.8017 15.7735 40.8839 15.5018 41.0229C15.2301 41.1618 14.9894 41.3545 14.7946 41.5893C14.5997 41.8242 14.4546 42.0962 14.3682 42.3888C14.2817 42.6815 14.2557 42.9887 14.2917 43.2917V44.4792C14.2917 45.0317 14.5112 45.5616 14.9019 45.9523C15.2926 46.343 15.8225 46.5625 16.3751 46.5625C16.9276 46.5625 17.4575 46.343 17.8482 45.9523C18.2389 45.5616 18.4584 45.0317 18.4584 44.4792V43.3334C18.4944 43.0303 18.4684 42.7231 18.3819 42.4305C18.2955 42.1378 18.1504 41.8658 17.9555 41.631C17.7607 41.3962 17.5201 41.2034 17.2483 41.0645C16.9766 40.9256 16.6795 40.8434 16.3751 40.823V40.7813Z" fill="#404040"/>
<path d="M47.625 49.1146C47.0456 49.0992 46.4754 48.9666 45.9487 48.7248C45.422 48.483 44.9498 48.137 44.5604 47.7077C44.171 47.2785 43.8727 46.7748 43.6832 46.2271C43.4938 45.6793 43.4173 45.099 43.4583 44.5209V43.3334C43.4583 42.2283 43.8973 41.1685 44.6787 40.3871C45.4601 39.6057 46.5199 39.1667 47.625 39.1667C48.7301 39.1667 49.7899 39.6057 50.5713 40.3871C51.3527 41.1685 51.7917 42.2283 51.7917 43.3334V44.5209C51.8327 45.099 51.7561 45.6793 51.5667 46.2271C51.3773 46.7748 51.0789 47.2785 50.6896 47.7077C50.3002 48.137 49.8279 48.483 49.3012 48.7248C48.7745 48.9666 48.2043 49.0992 47.625 49.1146V49.1146ZM47.625 40.7813C47.3205 40.8017 47.0234 40.8839 46.7517 41.0229C46.48 41.1618 46.2394 41.3545 46.0445 41.5893C45.8496 41.8242 45.7046 42.0962 45.6181 42.3888C45.5317 42.6815 45.5057 42.9887 45.5417 43.2917V44.4792C45.5417 45.0317 45.7611 45.5616 46.1518 45.9523C46.5426 46.343 47.0725 46.5625 47.625 46.5625C48.1775 46.5625 48.7074 46.343 49.0981 45.9523C49.4888 45.5616 49.7083 45.0317 49.7083 44.4792V43.3334C49.7443 43.0303 49.7183 42.7231 49.6319 42.4305C49.5454 42.1378 49.4004 41.8658 49.2055 41.631C49.0106 41.3962 48.77 41.2034 48.4983 41.0645C48.2266 40.9256 47.9295 40.8434 47.625 40.823V40.7813Z" fill="#404040"/>
<path d="M57 40.8229H54.9167V37.6979C54.7708 37.1667 52.625 35.6146 50.75 35.6146V33.5313C53.3646 33.5313 57 35.6146 57 37.6979V40.8229Z" fill="#404040"/>
<path d="M50.75 35.5729C50.1706 35.5575 49.6004 35.4249 49.0737 35.1831C48.547 34.9413 48.0748 34.5953 47.6854 34.166C47.296 33.7368 46.9977 33.2331 46.8082 32.6854C46.6188 32.1376 46.5423 31.5573 46.5833 30.9792V29.7917C46.5833 28.6866 47.0223 27.6268 47.8037 26.8454C48.5851 26.064 49.6449 25.625 50.75 25.625C51.8551 25.625 52.9149 26.064 53.6963 26.8454C54.4777 27.6268 54.9167 28.6866 54.9167 29.7917V30.9792C54.9577 31.5573 54.8811 32.1376 54.6917 32.6854C54.5023 33.2331 54.2039 33.7368 53.8146 34.166C53.4252 34.5953 52.9529 34.9413 52.4262 35.1831C51.8995 35.4249 51.3293 35.5575 50.75 35.5729V35.5729ZM50.75 27.2396C50.4455 27.26 50.1484 27.3423 49.8767 27.4812C49.605 27.6201 49.3644 27.8128 49.1695 28.0477C48.9746 28.2825 48.8296 28.5545 48.7431 28.8471C48.6567 29.1398 48.6307 29.447 48.6667 29.75V30.9375C48.6667 31.49 48.8861 32.0199 49.2768 32.4106C49.6676 32.8013 50.1975 33.0208 50.75 33.0208C51.3025 33.0208 51.8324 32.8013 52.2231 32.4106C52.6138 32.0199 52.8333 31.49 52.8333 30.9375V29.7917C52.8693 29.4886 52.8433 29.1814 52.7569 28.8888C52.6704 28.5961 52.5254 28.3241 52.3305 28.0893C52.1356 27.8545 51.895 27.6617 51.6233 27.5228C51.3516 27.3839 51.0545 27.3018 50.75 27.2813V27.2396Z" fill="#404040"/>
<path d="M9.08333 40.8229H7V37.6979C7 35.6146 10.6354 33.5313 13.25 33.5313V35.6146C11.3854 35.6146 9.22917 37.1563 9.08333 37.6979V40.8229Z" fill="#404040"/>
<path d="M13.2501 35.5729C12.6707 35.5575 12.1005 35.4249 11.5738 35.1831C11.0471 34.9413 10.5748 34.5953 10.1855 34.166C9.7961 33.7368 9.49772 33.2331 9.30831 32.6854C9.1189 32.1376 9.04239 31.5573 9.08338 30.9792V29.7917C9.08338 28.6866 9.52237 27.6268 10.3038 26.8454C11.0852 26.064 12.145 25.625 13.2501 25.625C14.3551 25.625 15.4149 26.064 16.1963 26.8454C16.9777 27.6268 17.4167 28.6866 17.4167 29.7917V30.9792C17.4577 31.5573 17.3812 32.1376 17.1918 32.6854C17.0024 33.2331 16.704 33.7368 16.3146 34.166C15.9253 34.5953 15.453 34.9413 14.9263 35.1831C14.3996 35.4249 13.8294 35.5575 13.2501 35.5729V35.5729ZM13.2501 27.2396C12.9456 27.26 12.6485 27.3423 12.3767 27.4812C12.105 27.6201 11.8644 27.8128 11.6696 28.0477C11.4747 28.2825 11.3296 28.5545 11.2432 28.8471C11.1567 29.1398 11.1307 29.447 11.1667 29.75V30.9375C11.1667 31.49 11.3862 32.0199 11.7769 32.4106C12.1676 32.8013 12.6975 33.0208 13.2501 33.0208C13.8026 33.0208 14.3325 32.8013 14.7232 32.4106C15.1139 32.0199 15.3334 31.49 15.3334 30.9375V29.7917C15.3694 29.4886 15.3434 29.1814 15.2569 28.8888C15.1705 28.5961 15.0254 28.3241 14.8305 28.0893C14.6357 27.8545 14.3951 27.6617 14.1233 27.5228C13.8516 27.3839 13.5545 27.3018 13.2501 27.2813V27.2396Z" fill="#404040"/>
<path d="M33.0416 19.9896H30.9583V27.2813H33.0416V19.9896Z" fill="#FA4616"/>
<path d="M33.0416 41.8646H30.9583V49.1563H33.0416V41.8646Z" fill="#FA4616"/>
<path d="M24.7083 33.5313H18.4583V35.6146H24.7083V33.5313Z" fill="#FA4616"/>
<path d="M45.5417 33.5313H39.2917V35.6146H45.5417V33.5313Z" fill="#FA4616"/>
</svg>
