<svg width="64" height="64" viewBox="0 0 64 64" fill="none" xmlns="http://www.w3.org/2000/svg">
<path d="M43.3568 57C43.08 57 42.8145 56.8901 42.6188 56.6944C42.4231 56.4986 42.3131 56.2331 42.3131 55.9563C42.3916 55.0361 42.7566 54.1636 43.3568 53.4618C43.9332 52.8223 44.2977 52.0203 44.4006 51.1656V40.3005C44.3732 40.033 44.2544 39.7831 44.0643 39.593C43.8742 39.4029 43.6243 39.2842 43.3568 39.2568H41.2694C40.9926 39.2568 40.7271 39.1468 40.5314 38.9511C40.3356 38.7554 40.2257 38.4898 40.2257 38.213C40.1983 37.9456 40.0795 37.6957 39.8894 37.5055C39.6993 37.3154 39.4494 37.1967 39.182 37.1693H37.0945C36.9181 37.1708 36.7442 37.1275 36.5891 37.0436C36.4339 36.9596 36.3026 36.8377 36.2074 36.6892C35.8926 36.3568 35.4639 36.1555 35.0071 36.1256H32.9196C32.6428 36.1256 32.3773 36.0157 32.1816 35.8199C31.9859 35.6242 31.8759 35.3587 31.8759 35.0819C31.8759 34.8051 31.9859 34.5395 32.1816 34.3438C32.3773 34.1481 32.6428 34.0381 32.9196 34.0381H35.0071C35.9589 34.0741 36.8677 34.4436 37.5746 35.0819H39.182C39.823 35.1036 40.4436 35.3129 40.9667 35.684C41.4899 36.0551 41.8928 36.5715 42.1253 37.1693H43.3568C44.1798 37.193 44.9626 37.5305 45.5447 38.1126C46.1269 38.6948 46.4644 39.4775 46.488 40.3005V51.1656C46.4083 52.4458 45.922 53.6671 45.0998 54.6516C44.7724 55.0289 44.5335 55.4747 44.4006 55.9563C44.4006 56.2331 44.2906 56.4986 44.0949 56.6944C43.8991 56.8901 43.6337 57 43.3568 57V57Z" fill="#404040"/>
<path d="M28.7447 57C28.4679 57 28.2024 56.8901 28.0067 56.6943C27.811 56.4986 27.701 56.2331 27.701 55.9563V55.4344C26.806 53.9714 25.8048 52.576 24.7056 51.2595C23.9749 50.3306 23.4009 49.5896 23.1295 49.1721C22.6598 48.431 19.9984 42.1582 19.4347 40.9162C19.3811 40.7835 19.3528 40.6418 19.3513 40.4987C19.4036 39.9868 19.615 39.5042 19.9557 39.1186C20.2964 38.733 20.7493 38.4638 21.2508 38.3487C22.0201 38.1191 22.8432 38.1457 23.5961 38.4242C24.349 38.7028 24.9911 39.2184 25.4257 39.8934L27.1374 42.5445C27.1806 42.6123 27.2388 42.6692 27.3076 42.7109C27.3764 42.7525 27.4539 42.7778 27.534 42.7845H27.6593V27.734C27.6593 26.9036 27.9892 26.1071 28.5764 25.5199C29.1636 24.9327 29.96 24.6028 30.7904 24.6028C31.6209 24.6028 32.4173 24.9327 33.0045 25.5199C33.5917 26.1071 33.9216 26.9036 33.9216 27.734V39.2149C33.9216 39.4918 33.8116 39.7573 33.6159 39.953C33.4202 40.1487 33.1547 40.2587 32.8779 40.2587C32.6011 40.2587 32.3356 40.1487 32.1399 39.953C31.9441 39.7573 31.8342 39.4918 31.8342 39.2149V27.734C31.8342 27.4572 31.7242 27.1918 31.5285 26.9961C31.3327 26.8003 31.0672 26.6903 30.7904 26.6903C30.5136 26.6903 30.2482 26.8003 30.0524 26.9961C29.8567 27.1918 29.7467 27.4572 29.7467 27.734V43.3898C29.7462 43.5304 29.7172 43.6695 29.6616 43.7987C29.606 43.9278 29.5249 44.0443 29.4232 44.1413C29.1434 44.4114 28.8071 44.6162 28.4387 44.7407C28.0703 44.8653 27.6788 44.9067 27.2925 44.8618C26.9062 44.8168 26.5346 44.6867 26.2046 44.4809C25.8746 44.2752 25.5943 43.9988 25.384 43.6716L23.7036 41.0728C23.5474 40.8211 23.3289 40.6139 23.0693 40.4713C22.8097 40.3287 22.5177 40.2554 22.2215 40.2587C21.9574 40.2708 21.7029 40.3617 21.4909 40.5196C22.7747 43.5046 24.5594 47.5856 24.8517 48.0552C25.1439 48.5249 25.6658 49.099 26.3129 49.9653C28.9326 53.2948 29.7467 54.4742 29.7467 55.2987V55.9145C29.7523 56.0516 29.7308 56.1884 29.6835 56.3172C29.6361 56.446 29.5638 56.5642 29.4708 56.665C29.3777 56.7659 29.2657 56.8473 29.1411 56.9048C29.0165 56.9623 28.8818 56.9946 28.7447 57Z" fill="#404040"/>
<path d="M37.0945 41.3442C36.8177 41.3442 36.5522 41.2343 36.3565 41.0385C36.1608 40.8428 36.0508 40.5773 36.0508 40.3005V36.1256C36.0508 35.8488 36.1608 35.5832 36.3565 35.3875C36.5522 35.1918 36.8177 35.0818 37.0945 35.0818C37.3713 35.0818 37.6368 35.1918 37.8325 35.3875C38.0283 35.5832 38.1383 35.8488 38.1383 36.1256V40.3005C38.1383 40.5773 38.0283 40.8428 37.8325 41.0385C37.6368 41.2343 37.3713 41.3442 37.0945 41.3442Z" fill="#404040"/>
<path d="M41.2694 42.3879C40.9926 42.3879 40.7271 42.278 40.5314 42.0823C40.3356 41.8865 40.2257 41.621 40.2257 41.3442V38.213C40.2257 37.9362 40.3356 37.6707 40.5314 37.475C40.7271 37.2792 40.9926 37.1693 41.2694 37.1693C41.5462 37.1693 41.8117 37.2792 42.0074 37.475C42.2031 37.6707 42.3131 37.9362 42.3131 38.213V41.3442C42.3131 41.621 42.2031 41.8865 42.0074 42.0823C41.8117 42.278 41.5462 42.3879 41.2694 42.3879Z" fill="#404040"/>
<path d="M44.4006 30.9069H36.0508V28.8195H44.4006V21.5135C44.3656 21.117 44.465 20.7203 44.6827 20.3872C44.9004 20.054 45.2238 19.8037 45.6008 19.6765C45.9861 19.5787 46.3919 19.6001 46.7647 19.738C47.1374 19.876 47.4595 20.1238 47.6883 20.4488C47.8619 20.7276 48.0987 20.9614 48.3797 21.1314C48.6606 21.3013 48.9776 21.4027 49.3051 21.4271C49.6325 21.4515 49.9611 21.3983 50.2641 21.2719C50.5672 21.1454 50.8361 20.9492 51.0491 20.6993C51.3166 20.3527 51.5041 19.9511 51.5979 19.5234C51.6918 19.0956 51.6897 18.6525 51.5918 18.2257C51.5178 17.8098 51.3364 17.4204 51.0654 17.0964C50.7944 16.7723 50.4434 16.5247 50.0471 16.3783C49.6019 16.2566 49.129 16.2859 48.7022 16.4615C48.2754 16.6371 47.9189 16.9492 47.6883 17.349C47.4591 17.6733 47.1366 17.9199 46.7636 18.056C46.3906 18.1921 45.985 18.2113 45.6008 18.1109C45.2226 17.9876 44.8972 17.7401 44.6775 17.4085C44.4577 17.0769 44.3564 16.6808 44.3901 16.2844V8.97835H35.7168C36.1711 9.37137 36.5317 9.86104 36.7723 10.4114C37.0129 10.9618 37.1274 11.559 37.1074 12.1593C37.0874 12.7597 36.9334 13.348 36.6567 13.8811C36.3799 14.4143 35.9875 14.8788 35.508 15.2407C34.9273 15.7012 34.2516 16.0272 33.5297 16.1951C32.8077 16.3629 32.0575 16.3685 31.3332 16.2114C30.5509 16.0606 29.8228 15.7048 29.2231 15.1803C28.6235 14.6558 28.1738 13.9814 27.9202 13.2262C27.6941 12.4907 27.6851 11.7055 27.8943 10.9649C28.1035 10.2243 28.522 9.55989 29.0996 9.05136H20.4367V16.3574C20.4686 16.7535 20.3665 17.1488 20.147 17.48C19.9275 17.8112 19.6032 18.059 19.226 18.1839C18.8419 18.2843 18.4362 18.2653 18.0633 18.1291C17.6903 17.993 17.3677 17.7463 17.1386 17.422C16.908 17.0222 16.5515 16.7101 16.1247 16.5345C15.6979 16.3589 15.2249 16.3297 14.7798 16.4514C14.3824 16.596 14.0303 16.8429 13.759 17.1673C13.4878 17.4917 13.307 17.8821 13.235 18.2988C13.1319 18.7253 13.1271 19.1696 13.2212 19.5981C13.3152 20.0267 13.5056 20.4284 13.7778 20.7725C13.9915 21.0219 14.2611 21.2172 14.5646 21.3429C14.8681 21.4685 15.1969 21.5207 15.5244 21.4952C15.8519 21.4698 16.1688 21.3675 16.4492 21.1966C16.7297 21.0256 16.9659 20.7909 17.1386 20.5115C17.3687 20.1884 17.6914 19.9426 18.064 19.8066C18.4367 19.6706 18.8418 19.6506 19.226 19.7495C19.6022 19.876 19.9254 20.1243 20.1447 20.4551C20.364 20.7859 20.4667 21.1803 20.4367 21.576V28.8821H25.6553V30.9695H20.4367C19.8831 30.9695 19.3522 30.7497 18.9607 30.3582C18.5692 29.9667 18.3493 29.4357 18.3493 28.8821V22.3067C17.9545 22.7586 17.4639 23.1169 16.9133 23.3555C16.3627 23.5941 15.7657 23.707 15.166 23.686C14.5663 23.665 13.9787 23.5107 13.4461 23.2342C12.9135 22.9577 12.4492 22.566 12.087 22.0876C11.6245 21.5079 11.2973 20.8321 11.1294 20.1098C10.9614 19.3875 10.9569 18.6369 11.1163 17.9127C11.2674 17.1294 11.6232 16.3999 12.1475 15.7986C12.6718 15.1973 13.3459 14.7456 14.1013 14.4892C14.8372 14.267 15.6213 14.26 16.3611 14.469C17.1008 14.678 17.7654 15.0942 18.2762 15.6686V9.09315C18.2762 8.53952 18.4962 8.00861 18.8876 7.61713C19.2791 7.22566 19.8101 7.00571 20.3637 7.00571H29.7572C30.1529 6.97572 30.5473 7.07846 30.8781 7.29772C31.2089 7.51699 31.4572 7.8403 31.5837 8.21646C31.6826 8.60064 31.6627 9.00576 31.5267 9.37841C31.3907 9.75107 31.1449 10.0738 30.8218 10.3039C30.4201 10.5329 30.1058 10.8887 29.9282 11.3156C29.7506 11.7426 29.7199 12.2164 29.8406 12.6627C29.988 13.0584 30.2358 13.409 30.5597 13.6798C30.8837 13.9507 31.2725 14.1325 31.6881 14.2074C32.1162 14.3107 32.5622 14.3154 32.9924 14.2214C33.4227 14.1274 33.826 13.9371 34.1721 13.6647C34.4146 13.4757 34.6124 13.2356 34.7513 12.9614C34.8903 12.6871 34.9669 12.3855 34.9758 12.0782C34.9631 11.7189 34.8611 11.3686 34.6788 11.0588C34.4966 10.749 34.2399 10.4895 33.9321 10.3039C33.6078 10.0748 33.3611 9.75215 33.225 9.37918C33.0889 9.0062 33.0697 8.6006 33.1701 8.21646C33.2951 7.83929 33.543 7.51495 33.8741 7.29543C34.2053 7.07591 34.6006 6.97387 34.9966 7.00571H44.3901C44.9437 7.00571 45.4747 7.22566 45.8662 7.61713C46.2576 8.00861 46.4776 8.53952 46.4776 9.09315V15.6791C46.9872 15.1029 47.6512 14.6845 48.391 14.4737C49.1309 14.2628 49.9156 14.2683 50.6525 14.4892C51.4068 14.7475 52.0798 15.1998 52.6039 15.8008C53.1279 16.4017 53.4844 17.1302 53.6375 17.9127C53.7939 18.6371 53.7879 19.387 53.6201 20.1088C53.4523 20.8306 53.1267 21.5064 52.6668 22.0876C52.2825 22.5709 51.7958 22.9628 51.2417 23.2354C50.6876 23.5079 50.08 23.6541 49.4626 23.6635C48.893 23.6603 48.3303 23.5381 47.8108 23.3044C47.2913 23.0707 46.8265 22.7308 46.4463 22.3067V28.8821C46.4303 29.4176 46.209 29.9266 45.8282 30.3035C45.4474 30.6805 44.9363 30.8965 44.4006 30.9069V30.9069Z" fill="#FA4616"/>
</svg>
