<svg width="64" height="64" viewBox="0 0 64 64" fill="none" xmlns="http://www.w3.org/2000/svg">
<path d="M55.9583 45.4583H40.3333V43.375H54.9167V11.0833H9.08333V39.2083H7V10.0417C7 9.7654 7.10975 9.50043 7.3051 9.30508C7.50045 9.10973 7.7654 9 8.04167 9H55.9583C56.2346 9 56.4996 9.10973 56.6949 9.30508C56.8903 9.50043 57 9.7654 57 10.0417V44.4167C57 44.6929 56.8903 44.9579 56.6949 45.1532C56.4996 45.3486 56.2346 45.4583 55.9583 45.4583Z" fill="#FA4616"/>
<path d="M23.6667 27.75C22.9609 27.7367 22.2648 27.5828 21.6192 27.2973C20.9735 27.0119 20.3912 26.6007 19.9063 26.0876C19.4214 25.5746 19.0436 24.9701 18.795 24.3094C18.5464 23.6487 18.4319 22.945 18.4584 22.2396V20.75C18.4584 19.3687 19.0071 18.0439 19.9839 17.0671C20.9606 16.0904 22.2854 15.5417 23.6667 15.5417C25.048 15.5417 26.3728 16.0904 27.3496 17.0671C28.3263 18.0439 28.875 19.3687 28.875 20.75V22.2396C28.9015 22.945 28.787 23.6487 28.5384 24.3094C28.2898 24.9701 27.912 25.5746 27.4271 26.0876C26.9422 26.6007 26.3599 27.0119 25.7142 27.2973C25.0686 27.5828 24.3725 27.7367 23.6667 27.75V27.75ZM23.6667 17.3333C23.2361 17.3493 22.8131 17.4508 22.4221 17.6318C22.031 17.8128 21.6799 18.0697 21.3891 18.3876C21.0983 18.7056 20.8737 19.0782 20.7282 19.4837C20.5827 19.8893 20.5193 20.3197 20.5417 20.75V22.2396C20.5417 23.0684 20.8709 23.8633 21.457 24.4493C22.043 25.0354 22.8379 25.3646 23.6667 25.3646C24.4955 25.3646 25.2904 25.0354 25.8764 24.4493C26.4625 23.8633 26.7917 23.0684 26.7917 22.2396V20.75C26.8141 20.3197 26.7507 19.8893 26.6052 19.4837C26.4597 19.0782 26.2351 18.7056 25.9443 18.3876C25.6535 18.0697 25.3024 17.8128 24.9114 17.6318C24.5204 17.4508 24.0973 17.3493 23.6667 17.3333V17.3333Z" fill="#404040"/>
<path d="M29.9166 39.2083H27.8333V32.9583H35.125C36.9062 32.9583 37.875 32.3021 38.1562 30.875H21.5833C18.7604 30.875 17.4166 31.6458 17.4166 36.0833V39.2083H15.3333V36.0833C15.3333 30.9688 17.2083 28.7917 21.5833 28.7917H40.3333V29.8333C40.3333 33.1354 38.4375 35.0417 35.125 35.0417H29.9166V39.2083Z" fill="#404040"/>
<path d="M32 55.875H29.9167V46.5H32V48.5833H33.4896L36.1667 44.0729V42.3333H9.08333V44.0729L11.7604 48.5833H13.25V46.5H15.3333V55.875H13.25V50.6667H10.5729L7 44.6458V40.25H38.25V44.6458L34.6771 50.6667H32V55.875Z" fill="#404040"/>
</svg>
