<svg width="64" height="64" viewBox="0 0 64 64" fill="none" xmlns="http://www.w3.org/2000/svg">
<path d="M25.8889 44.7778C22.153 44.7778 18.501 43.6699 15.3948 41.5944C12.2885 39.5188 9.86748 36.5688 8.43783 33.1174C7.00818 29.6659 6.63412 25.8679 7.36295 22.2038C8.09178 18.5397 9.89076 15.1741 12.5324 12.5325C15.1741 9.89083 18.5397 8.09178 22.2038 7.36295C25.8679 6.63412 29.6658 7.00819 33.1173 8.43784C36.5688 9.8675 39.5188 12.2886 41.5944 15.3948C43.6699 18.5011 44.7777 22.1531 44.7777 25.8889C44.7777 30.8985 42.7876 35.703 39.2453 39.2453C35.703 42.7877 30.8985 44.7778 25.8889 44.7778V44.7778ZM25.8889 9.22228C22.5925 9.22228 19.3702 10.1998 16.6294 12.0311C13.8886 13.8625 11.7524 16.4654 10.4909 19.5108C9.22944 22.5562 8.89938 25.9074 9.54246 29.1404C10.1856 32.3734 11.7729 35.3431 14.1038 37.674C16.4346 40.0048 19.4044 41.5922 22.6374 42.2353C25.8704 42.8783 29.2215 42.5483 32.2669 41.2868C35.3123 40.0254 37.9153 37.8892 39.7467 35.1484C41.578 32.4076 42.5555 29.1853 42.5555 25.8889C42.5555 21.4686 40.7996 17.2294 37.674 14.1038C34.5484 10.9782 30.3091 9.22228 25.8889 9.22228V9.22228Z" fill="#404040"/>
<path d="M52.7444 57C52.1868 57.0021 51.6343 56.8931 51.1192 56.6795C50.6041 56.4658 50.1368 56.1517 49.7444 55.7555L38.4333 44.4555L40.0111 42.8889L51.311 54.1888C51.6927 54.5704 52.2102 54.7849 52.7499 54.7849C53.2896 54.7849 53.8072 54.5704 54.1888 54.1888C54.5704 53.8072 54.7848 53.2896 54.7848 52.75C54.7848 52.2103 54.5704 51.6926 54.1888 51.311L42.8777 40.0111L44.4555 38.4444L55.7555 49.7444C56.3476 50.3401 56.7502 51.0978 56.9126 51.9219C57.0749 52.746 56.9897 53.5998 56.6678 54.3756C56.3458 55.1514 55.8014 55.8146 55.1033 56.2816C54.4051 56.7486 53.5843 56.9986 52.7444 57V57Z" fill="#404040"/>
<path d="M29.6334 28.4666C28.6099 27.5328 27.2744 27.0151 25.8889 27.0151C24.5035 27.0151 23.168 27.5328 22.1445 28.4666L20.7445 26.7444C22.1587 25.4779 23.9905 24.7775 25.8889 24.7775C27.7874 24.7775 29.6192 25.4779 31.0334 26.7444L29.6334 28.4666Z" fill="#FA4616"/>
<path d="M25.8889 27C25.27 26.9806 24.6613 26.8364 24.0994 26.5761C23.5374 26.3158 23.0339 25.9446 22.6189 25.485C22.2038 25.0254 21.8859 24.4867 21.6841 23.9012C21.4823 23.3157 21.4008 22.6955 21.4445 22.0778V20.7889C21.4445 19.6102 21.9128 18.4797 22.7462 17.6462C23.5797 16.8127 24.7102 16.3445 25.8889 16.3445C27.0677 16.3445 28.1981 16.8127 29.0316 17.6462C29.8651 18.4797 30.3334 19.6102 30.3334 20.7889V22.0556C30.3802 22.6751 30.301 23.2977 30.1006 23.8858C29.9003 24.4738 29.5829 25.0153 29.1675 25.4773C28.7522 25.9394 28.2475 26.3125 27.6841 26.5742C27.1206 26.8359 26.5099 26.9808 25.8889 27V27ZM25.8889 18.1112C25.5626 18.1343 25.2444 18.2236 24.9537 18.3737C24.6631 18.5237 24.406 18.7314 24.1981 18.984C23.9902 19.2365 23.8359 19.5288 23.7445 19.8429C23.6532 20.157 23.6267 20.4865 23.6667 20.8111V22.0778C23.6667 22.6671 23.9008 23.2324 24.3176 23.6491C24.7343 24.0659 25.2996 24.3 25.8889 24.3C26.4783 24.3 27.0435 24.0659 27.4603 23.6491C27.877 23.2324 28.1112 22.6671 28.1112 22.0778V20.7889C28.1496 20.4657 28.1218 20.138 28.0296 19.8258C27.9374 19.5137 27.7826 19.2235 27.5748 18.973C27.3669 18.7226 27.1103 18.517 26.8205 18.3688C26.5306 18.2206 26.2137 18.133 25.8889 18.1112V18.1112Z" fill="#FA4616"/>
<path d="M22.5556 35.8889H20.3334V32.5555C20.1778 31.9889 17.8778 30.3333 15.8889 30.3333C14.5799 30.2096 13.266 30.5136 12.1445 31.1999L10.7445 29.4777C12.2508 28.4433 14.0679 27.9606 15.8889 28.1111C18.6778 28.1111 22.5556 30.3333 22.5556 32.5555V35.8889Z" fill="#FA4616"/>
<path d="M15.8889 30.3334C15.27 30.314 14.6613 30.1698 14.0994 29.9094C13.5374 29.6491 13.0339 29.278 12.6189 28.8183C12.2038 28.3587 11.8859 27.82 11.6841 27.2345C11.4823 26.6491 11.4008 26.0288 11.4445 25.4111V24.1222C11.4445 22.9435 11.9128 21.813 12.7462 20.9795C13.5797 20.146 14.7102 19.6778 15.8889 19.6778C17.0677 19.6778 18.1981 20.146 19.0316 20.9795C19.8651 21.813 20.3334 22.9435 20.3334 24.1222V25.3889C20.3802 26.0084 20.301 26.631 20.1006 27.2191C19.9003 27.8072 19.5829 28.3486 19.1675 28.8107C18.7522 29.2727 18.2475 29.6458 17.6841 29.9075C17.1206 30.1692 16.5099 30.3141 15.8889 30.3334ZM15.8889 21.4445C15.5626 21.4677 15.2444 21.557 14.9537 21.707C14.6631 21.8571 14.406 22.0647 14.1981 22.3173C13.9902 22.5699 13.8359 22.8621 13.7445 23.1763C13.6532 23.4904 13.6267 23.8198 13.6667 24.1445V25.4111C13.6667 26.0005 13.9008 26.5657 14.3176 26.9825C14.7343 27.3992 15.2996 27.6333 15.8889 27.6333C16.4783 27.6333 17.0435 27.3992 17.4603 26.9825C17.877 26.5657 18.1112 26.0005 18.1112 25.4111V24.1222C18.1496 23.799 18.1218 23.4713 18.0296 23.1592C17.9374 22.847 17.7826 22.5569 17.5748 22.3064C17.3669 22.0559 17.1103 21.8503 16.8205 21.7021C16.5306 21.5539 16.2137 21.4663 15.8889 21.4445V21.4445Z" fill="#FA4616"/>
<path d="M31.4444 35.8889H29.2222V32.5555C29.2222 30.3333 33.1 28.1111 35.8889 28.1111C37.7099 27.9606 39.5271 28.4433 41.0333 29.4777L39.6333 31.1999C38.5124 30.5121 37.198 30.2079 35.8889 30.3333C33.9 30.3333 31.6 31.9889 31.4444 32.5555V35.8889Z" fill="#FA4616"/>
<path d="M35.8889 30.3334C35.2699 30.314 34.6612 30.1698 34.0993 29.9094C33.5374 29.6491 33.0338 29.278 32.6188 28.8183C32.2038 28.3587 31.8859 27.82 31.6841 27.2345C31.4823 26.6491 31.4008 26.0288 31.4444 25.4111V24.1222C31.4444 22.9435 31.9127 21.813 32.7462 20.9795C33.5797 20.146 34.7101 19.6778 35.8889 19.6778C37.0676 19.6778 38.1981 20.146 39.0316 20.9795C39.865 21.813 40.3333 22.9435 40.3333 24.1222V25.3889C40.3801 26.0084 40.301 26.631 40.1006 27.2191C39.9002 27.8072 39.5828 28.3486 39.1675 28.8107C38.7521 29.2727 38.2475 29.6458 37.684 29.9075C37.1205 30.1692 36.5099 30.3141 35.8889 30.3334ZM35.8889 21.4445C35.5626 21.4677 35.2444 21.557 34.9537 21.707C34.663 21.8571 34.4059 22.0647 34.198 22.3173C33.9901 22.5699 33.8358 22.8621 33.7444 23.1763C33.6531 23.4904 33.6266 23.8198 33.6667 24.1445V25.4111C33.6667 26.0005 33.9008 26.5657 34.3175 26.9825C34.7343 27.3992 35.2995 27.6333 35.8889 27.6333C36.4782 27.6333 37.0435 27.3992 37.4602 26.9825C37.877 26.5657 38.1111 26.0005 38.1111 25.4111V24.1222C38.1479 23.7993 38.119 23.4722 38.0262 23.1607C37.9333 22.8492 37.7785 22.5597 37.5709 22.3096C37.3633 22.0594 37.1073 21.8538 36.8183 21.7052C36.5292 21.5565 36.2131 21.4679 35.8889 21.4445V21.4445Z" fill="#FA4616"/>
<path d="M38.1111 46.3555L33.9889 42.2333L35.5667 40.6667L38.1111 43.2111L43.2111 38.1111L40.6555 35.5666L42.2333 34L46.3555 38.1111L38.1111 46.3555Z" fill="#404040"/>
</svg>
