<svg width="64" height="64" viewBox="0 0 64 64" fill="none" xmlns="http://www.w3.org/2000/svg">
<path d="M18.4153 41.3705C17.7062 41.3716 17.0043 41.2279 16.3527 40.9481C15.7011 40.6684 15.1134 40.2585 14.6259 39.7436C14.1383 39.2287 13.761 38.6197 13.5171 37.9538C13.2732 37.2879 13.1679 36.5793 13.2076 35.8712V34.3819C13.2076 33.0007 13.7563 31.6761 14.7329 30.6995C15.7095 29.7228 17.0341 29.1742 18.4153 29.1742C19.7964 29.1742 21.121 29.7228 22.0977 30.6995C23.0743 31.6761 23.6229 33.0007 23.6229 34.3819V35.8712C23.6627 36.5793 23.5573 37.2879 23.3135 37.9538C23.0696 38.6197 22.6923 39.2287 22.2047 39.7436C21.7171 40.2585 21.1295 40.6684 20.4779 40.9481C19.8263 41.2279 19.1244 41.3716 18.4153 41.3705ZM18.4153 30.9552C17.9783 30.9531 17.5457 31.0428 17.1454 31.2184C16.7452 31.3939 16.3863 31.6515 16.0918 31.9745C15.7974 32.2974 15.5739 32.6785 15.4359 33.0932C15.2979 33.5079 15.2484 33.9469 15.2907 34.3819V35.8712C15.2907 36.6999 15.6199 37.4946 16.2059 38.0806C16.7918 38.6666 17.5866 38.9958 18.4153 38.9958C19.244 38.9958 20.0387 38.6666 20.6247 38.0806C21.2107 37.4946 21.5399 36.6999 21.5399 35.8712V34.3819C21.5821 33.9469 21.5327 33.5079 21.3947 33.0932C21.2567 32.6785 21.0332 32.2974 20.7388 31.9745C20.4443 31.6515 20.0854 31.3939 19.6851 31.2184C19.2849 31.0428 18.8523 30.9531 18.4153 30.9552V30.9552Z" fill="#404040"/>
<path d="M26.7267 56.9935H20.0193L14.4992 50.3693L16.1031 49.0362L20.9983 54.9104H26.7371C27.0081 54.9314 27.2804 54.8939 27.5355 54.8005C27.7907 54.707 28.0228 54.5599 28.2161 54.3688C28.559 53.9242 28.762 53.3876 28.7994 52.8273H23.1439L15.8531 44.4951H14.2492C11.8328 44.4951 11.2496 46.7865 11.1246 47.7655C10.7705 50.2652 10.0831 56.0144 10.0831 56.0978L8 55.8478C8 55.8478 8.69783 50.0152 9.04153 47.5156C9.47897 44.391 11.4683 42.4537 14.2492 42.4537H16.8009L24.0916 50.786H30.7991L30.9033 51.7129C31.069 53.168 30.666 54.6309 29.7784 55.7957C29.3865 56.204 28.9107 56.5225 28.3839 56.7293C27.8571 56.936 27.2917 57.0262 26.7267 56.9935V56.9935Z" fill="#404040"/>
<path d="M41.329 53.8689H31.9552V51.7858H40.7353L45.7346 43.4536H29.393L25.5394 49.2445L23.8104 48.0884L27.9765 41.8392C28.0709 41.6959 28.1992 41.5782 28.35 41.4964C28.5008 41.4147 28.6695 41.3714 28.841 41.3705H47.5886C47.7731 41.3713 47.9541 41.4211 48.113 41.5147C48.272 41.6084 48.4032 41.7426 48.4933 41.9037C48.5833 42.0647 48.629 42.2468 48.6256 42.4313C48.6222 42.6158 48.5698 42.796 48.4739 42.9536L42.2247 53.3689C42.1312 53.5225 41.9996 53.6492 41.8426 53.7368C41.6857 53.8244 41.5087 53.8699 41.329 53.8689V53.8689Z" fill="#FA4616"/>
<path d="M49.6612 54.9104H16.3322V56.9935H49.6612V54.9104Z" fill="#404040"/>
<path d="M31.9656 39.2979C31.7354 39.2945 31.5071 39.2559 31.2886 39.1833C30.8749 39.0436 30.5155 38.7773 30.2613 38.4222C30.0072 38.0671 29.871 37.6411 29.8721 37.2044V33.0383H28.8306C27.7257 33.0383 26.666 32.5993 25.8847 31.818C25.1034 31.0367 24.6645 29.9771 24.6645 28.8721V11.1661C24.6645 10.0612 25.1034 9.00152 25.8847 8.22023C26.666 7.43893 27.7257 7 28.8306 7H51.7443C52.8492 7 53.9089 7.43893 54.6902 8.22023C55.4715 9.00152 55.9104 10.0612 55.9104 11.1661V27.8306C55.9104 29.2118 55.3617 30.5363 54.3851 31.513C53.4085 32.4896 52.0839 33.0383 50.7027 33.0383H37.7253L33.6633 38.4542C33.4672 38.7191 33.2111 38.9337 32.916 39.0804C32.6209 39.227 32.2952 39.3016 31.9656 39.2979ZM28.841 9.09349C28.2886 9.09349 27.7587 9.31298 27.3681 9.70363C26.9774 10.0943 26.758 10.6241 26.758 11.1765V28.8826C26.758 29.435 26.9774 29.9649 27.3681 30.3555C27.7587 30.7462 28.2886 30.9656 28.841 30.9656H30.9241C31.2003 30.9656 31.4652 31.0754 31.6606 31.2707C31.8559 31.466 31.9656 31.7309 31.9656 32.0072V37.2148L36.34 31.3823C36.4371 31.2529 36.5629 31.1479 36.7075 31.0756C36.8521 31.0033 37.0116 30.9656 37.1733 30.9656H50.7132C51.5419 30.9656 52.3366 30.6364 52.9226 30.0505C53.5086 29.4645 53.8378 28.6697 53.8378 27.841V11.1765C53.8378 10.6241 53.6183 10.0943 53.2276 9.70363C52.837 9.31298 52.3072 9.09349 51.7547 9.09349H28.841Z" fill="#404040"/>
<path d="M46.5366 27.8306H44.4536V24.706C44.4536 23.477 42.2559 22.623 40.2875 22.623C38.319 22.623 36.1213 23.477 36.1213 24.706V27.8306H34.0383V24.706C34.0383 21.998 37.2566 20.5399 40.2875 20.5399C43.3183 20.5399 46.5366 21.998 46.5366 24.706V27.8306Z" fill="#404040"/>
<path d="M40.2874 22.623C39.7368 22.6358 39.1893 22.5368 38.6781 22.332C38.1668 22.1272 37.7024 21.8207 37.313 21.4313C36.9235 21.0418 36.6171 20.5774 36.4123 20.0662C36.2075 19.5549 36.1085 19.0074 36.1213 18.4568V17.4153C36.1213 16.3104 36.5602 15.2507 37.3415 14.4694C38.1228 13.6881 39.1825 13.2492 40.2874 13.2492C41.3923 13.2492 42.452 13.6881 43.2333 14.4694C44.0146 15.2507 44.4535 16.3104 44.4535 17.4153V18.4568C44.4664 19.0074 44.3674 19.5549 44.1625 20.0662C43.9577 20.5774 43.6513 21.0418 43.2619 21.4313C42.8724 21.8207 42.408 22.1272 41.8968 22.332C41.3855 22.5368 40.838 22.6358 40.2874 22.623V22.623ZM40.2874 15.3322C40.0103 15.3188 39.7335 15.3636 39.4747 15.4635C39.2159 15.5635 38.9808 15.7164 38.7847 15.9126C38.5885 16.1087 38.4355 16.3438 38.3356 16.6026C38.2357 16.8614 38.1909 17.1382 38.2043 17.4153V18.4568C38.2043 19.0093 38.4238 19.5392 38.8145 19.9298C39.2051 20.3205 39.7349 20.5399 40.2874 20.5399C40.8399 20.5399 41.3697 20.3205 41.7604 19.9298C42.151 19.5392 42.3705 19.0093 42.3705 18.4568V17.4153C42.3823 17.1386 42.3364 16.8625 42.2359 16.6044C42.1354 16.3463 41.9824 16.112 41.7866 15.9161C41.5907 15.7203 41.3564 15.5673 41.0983 15.4668C40.8402 15.3662 40.5641 15.3205 40.2874 15.3322Z" fill="#404040"/>
</svg>
