<svg width="64" height="64" viewBox="0 0 64 64" fill="none" xmlns="http://www.w3.org/2000/svg">
<path d="M41.7245 40.551C38.7033 40.551 35.75 39.6551 33.2379 37.9766C30.7259 36.2981 28.768 33.9124 27.6118 31.1211C26.4556 28.3299 26.1532 25.2585 26.7426 22.2954C27.332 19.3322 28.7868 16.6104 30.9231 14.4741C33.0594 12.3378 35.7813 10.8829 38.7444 10.2935C41.7076 9.70412 44.779 10.0066 47.5702 11.1628C50.3614 12.3189 52.7471 14.2769 54.4256 16.7889C56.1041 19.301 57 22.2543 57 25.2755C57 29.3268 55.3906 33.2121 52.5259 36.0769C49.6612 38.9416 45.7758 40.551 41.7245 40.551V40.551ZM41.7245 12.1822C39.1349 12.1822 36.6035 12.9501 34.4503 14.3888C32.2971 15.8275 30.6189 17.8724 29.6279 20.2649C28.6369 22.6574 28.3776 25.29 28.8828 27.8298C29.388 30.3697 30.635 32.7027 32.4662 34.5338C34.2973 36.365 36.6303 37.6119 39.1701 38.1171C41.71 38.6224 44.3426 38.3631 46.7351 37.3721C49.1276 36.3811 51.1725 34.7029 52.6112 32.5497C54.0499 30.3966 54.8178 27.8651 54.8178 25.2755C54.8178 21.8029 53.4383 18.4726 50.9829 16.0171C48.5274 13.5617 45.1971 12.1822 41.7245 12.1822Z" fill="#404040"/>
<path d="M20.9935 38.3688C20.1303 38.3688 19.2864 38.1128 18.5687 37.6332C17.851 37.1536 17.2916 36.472 16.9613 35.6746C16.6309 34.8771 16.5445 33.9995 16.7129 33.1529C16.8813 32.3063 17.297 31.5286 17.9074 30.9182C18.5177 30.3078 19.2954 29.8922 20.142 29.7238C20.9886 29.5554 21.8662 29.6418 22.6637 29.9722C23.4612 30.3025 24.1428 30.8619 24.6223 31.5796C25.1019 32.2973 25.3579 33.1411 25.3579 34.0043C25.3579 35.1618 24.8981 36.272 24.0796 37.0904C23.2611 37.9089 22.151 38.3688 20.9935 38.3688ZM20.9935 31.8221C20.5619 31.8221 20.14 31.9501 19.7811 32.1899C19.4222 32.4296 19.1425 32.7705 18.9774 33.1692C18.8122 33.568 18.769 34.0068 18.8532 34.4301C18.9374 34.8534 19.1452 35.2422 19.4504 35.5474C19.7556 35.8525 20.1444 36.0604 20.5677 36.1446C20.991 36.2288 21.4298 36.1856 21.8285 36.0205C22.2273 35.8553 22.5681 35.5756 22.8079 35.2167C23.0477 34.8578 23.1757 34.4359 23.1757 34.0043C23.1757 33.4256 22.9458 32.8705 22.5365 32.4613C22.1273 32.0521 21.5722 31.8221 20.9935 31.8221Z" fill="#404040"/>
<path d="M23.9177 48.0032C23.712 48.0026 23.5107 47.9439 23.3369 47.8339C23.1632 47.7238 23.0241 47.567 22.9357 47.3813L21.7354 44.8826C21.0553 44.9354 20.3715 44.9171 19.6951 44.8281L18.3749 47.2613C18.2444 47.5045 18.0267 47.6892 17.7655 47.7783C17.5044 47.8673 17.2192 47.8542 16.9673 47.7414L13.4976 46.192C13.2453 46.0811 13.0443 45.8788 12.935 45.6258C12.8257 45.3728 12.8162 45.0878 12.9084 44.8281L13.8249 42.2204C13.3093 41.772 12.838 41.275 12.4174 40.7364L9.76601 41.5221C9.50395 41.5977 9.22306 41.5724 8.97868 41.4513C8.73431 41.3301 8.54419 41.1218 8.44578 40.8674L7.07098 37.3104C6.97342 37.0533 6.97653 36.7688 7.07971 36.5139C7.18288 36.259 7.37852 36.0525 7.62746 35.9356L10.1152 34.7463C10.0552 34.0675 10.0552 33.3847 10.1152 32.7059L7.682 31.3856C7.44075 31.2534 7.25837 31.0349 7.17137 30.7739C7.08437 30.5129 7.09918 30.2287 7.21283 29.9781L8.76221 26.4975C8.87494 26.2497 9.07622 26.053 9.32655 25.946C9.57688 25.839 9.85816 25.8295 10.1152 25.9193L12.7338 26.8358C13.1812 26.323 13.6742 25.8519 14.2068 25.4283L13.4212 22.7769C13.3425 22.5133 13.3662 22.2297 13.4876 21.9829C13.6089 21.7361 13.8191 21.5442 14.0759 21.4457L17.6329 20.0818C17.8887 19.9835 18.1721 19.985 18.4268 20.0861C18.6815 20.1872 18.8889 20.3804 19.0077 20.6274L20.2079 23.126C20.8882 23.0788 21.5715 23.097 22.2483 23.1806L23.5685 20.7474L25.4888 21.8385L23.7976 24.9482C23.6862 25.1513 23.5129 25.3136 23.303 25.4117C23.0931 25.5098 22.8575 25.5385 22.6302 25.4937C21.6672 25.2995 20.6778 25.2736 19.706 25.4173C19.4834 25.4396 19.2594 25.393 19.0642 25.2837C18.8691 25.1744 18.7122 25.0077 18.6149 24.8063L17.5238 22.5259L15.8435 23.1697L16.5636 25.5919C16.6287 25.8139 16.6215 26.051 16.543 26.2687C16.4646 26.4864 16.319 26.6736 16.1272 26.8031C15.3159 27.3517 14.6038 28.0343 14.0213 28.8216C13.881 29.0085 13.6845 29.1454 13.4605 29.2122C13.2366 29.2789 12.9972 29.2721 12.7775 29.1926L10.3989 28.3524L9.66782 29.9891L11.85 31.2002C12.0531 31.3116 12.2155 31.4849 12.3136 31.6948C12.4117 31.9047 12.4404 32.1404 12.3956 32.3677C12.2058 33.3312 12.18 34.3197 12.3192 35.2918C12.3415 35.5144 12.2948 35.7384 12.1855 35.9336C12.0762 36.1288 11.9096 36.2856 11.7082 36.3829L9.42777 37.474L10.0715 39.1435L12.4938 38.4233C12.7185 38.3567 12.9587 38.3643 13.1788 38.4449C13.3989 38.5254 13.5872 38.6748 13.7158 38.8707C14.2627 39.683 14.9412 40.3984 15.7234 40.9874C15.91 41.1256 16.0476 41.3196 16.1163 41.5414C16.1849 41.7631 16.1811 42.001 16.1053 42.2204L15.2543 44.6098L16.8909 45.3409L18.1021 43.1587C18.2119 42.9536 18.3844 42.7889 18.5945 42.6888C18.8045 42.5887 19.041 42.5584 19.2695 42.6022C20.2324 42.7956 21.221 42.8252 22.1937 42.6895C22.4151 42.6663 22.6382 42.7113 22.8333 42.8186C23.0283 42.9259 23.1859 43.0903 23.2848 43.2896L24.3759 45.57L26.0562 44.9372L25.3361 42.5149C25.2685 42.2914 25.2743 42.052 25.3529 41.832C25.4315 41.612 25.5786 41.423 25.7725 41.2929C26.59 40.7481 27.3063 40.0651 27.8893 39.2744C28.0289 39.0898 28.2236 38.9543 28.4452 38.8877C28.6668 38.821 28.904 38.8265 29.1222 38.9034L32.461 40.0818L31.7409 42.144L29.1222 41.2165C28.6806 41.7348 28.1871 42.2065 27.6492 42.6241L28.4348 45.2755C28.5136 45.539 28.4899 45.8226 28.3685 46.0694C28.2471 46.3162 28.037 46.5081 27.7802 46.6066L24.2232 47.9705C24.1236 47.997 24.0206 48.0081 23.9177 48.0032Z" fill="#404040"/>
<path d="M41.1462 46.552C40.921 46.5678 40.695 46.5678 40.4697 46.552C39.3489 46.3904 38.3254 45.8261 37.5904 44.9646C36.8554 44.1031 36.4594 43.0035 36.4763 41.8712H38.6585C38.6544 42.3341 38.7796 42.789 39.0199 43.1847C39.2603 43.5804 39.6063 43.9011 40.019 44.1108C40.4317 44.3206 40.8947 44.411 41.356 44.372C41.8173 44.3329 42.2585 44.1659 42.6301 43.8897C42.9577 43.6458 43.2205 43.3254 43.3955 42.9563C43.5705 42.5873 43.6524 42.181 43.6339 41.773L45.8161 41.6748C45.8456 42.3058 45.747 42.9362 45.5264 43.5281C45.3058 44.1199 44.9676 44.661 44.5323 45.1188C44.097 45.5765 43.5736 45.9413 42.9935 46.1914C42.4135 46.4415 41.7888 46.5716 41.1571 46.5739L41.1462 46.552Z" fill="#404040"/>
<path d="M40.8407 53.8188H40.6225L37.0546 53.0877C36.914 53.058 36.7807 53.0007 36.6623 52.9193C36.5439 52.8378 36.4428 52.7338 36.3648 52.6131C36.2867 52.4925 36.2332 52.3576 36.2074 52.2162C36.1816 52.0748 36.184 51.9298 36.2145 51.7893L36.6182 49.8472C36.2392 49.6352 35.8747 49.3982 35.5271 49.138L33.8686 50.2291C33.6282 50.3899 33.3339 50.4488 33.0502 50.3928C32.7668 50.3296 32.5176 50.1621 32.3519 49.9236L30.3552 46.8794C30.1973 46.6388 30.1408 46.3456 30.198 46.0636C30.2552 45.7816 30.4215 45.5336 30.6607 45.3736L33.0175 43.8243L34.2177 45.6464L32.7775 46.5957L33.574 47.8068L35.0142 46.8576C35.2201 46.7217 35.466 46.6596 35.7117 46.6814C35.9574 46.7032 36.1885 46.8076 36.3672 46.9776C36.9224 47.5063 37.56 47.9411 38.2548 48.2651C38.4804 48.3666 38.6649 48.5417 38.7779 48.7618C38.8909 48.9818 38.9257 49.2337 38.8767 49.4762L38.5276 51.1674L39.9569 51.462L40.3061 49.7708C40.3552 49.5298 40.4843 49.3124 40.6724 49.1539C40.8606 48.9955 41.0968 48.9053 41.3426 48.8979C42.1102 48.8812 42.8697 48.7374 43.5903 48.4724C43.8215 48.3877 44.0745 48.3836 44.3082 48.4609C44.542 48.5381 44.7427 48.6922 44.8778 48.8979L45.8271 50.3381L47.0491 49.5307L46.0999 48.0905C45.964 47.8846 45.9019 47.6388 45.9237 47.3931C45.9455 47.1474 46.0499 46.9163 46.2199 46.7375C46.7501 46.1858 47.1819 45.5474 47.4965 44.8499C47.5998 44.6263 47.7757 44.4443 47.9956 44.3333C48.2155 44.2224 48.4664 44.1891 48.7076 44.2389L50.3988 44.5881L50.6934 43.1587L49.0022 42.8096L49.4495 40.6273L52.21 41.1947C52.4917 41.255 52.738 41.4242 52.8954 41.6654C53.0528 41.9066 53.1084 42.2002 53.0502 42.4822L52.3192 46.0501C52.2597 46.3322 52.0911 46.5794 51.85 46.7375C51.6097 46.8983 51.3154 46.9572 51.0317 46.9012L49.0786 46.4975C48.8687 46.8604 48.6316 47.207 48.3694 47.5341L49.4605 49.2034C49.6175 49.4453 49.6725 49.7395 49.6132 50.0217C49.5538 50.3039 49.3851 50.551 49.144 50.7091L46.0999 52.7168C45.858 52.8737 45.5639 52.9285 45.2817 52.8692C44.9996 52.8099 44.7524 52.6413 44.5941 52.4003L43.503 50.7419C43.0978 50.8492 42.6859 50.9293 42.2701 50.9819L41.8664 52.9241C41.8383 53.0658 41.7823 53.2004 41.7018 53.3203C41.6213 53.4402 41.5177 53.5428 41.3972 53.6224C41.2333 53.7377 41.0407 53.8057 40.8407 53.8188Z" fill="#404040"/>
<path d="M48.2712 31.8221H46.0889V29.6399C46.0889 28.3524 43.7976 27.4577 41.7245 27.4577C39.6514 27.4577 37.3601 28.3524 37.3601 29.6399V31.8221H35.1779V29.6399C35.1779 26.803 38.5603 25.2755 41.7245 25.2755C44.8887 25.2755 48.2712 26.803 48.2712 29.6399V31.8221Z" fill="#FA4616"/>
<path d="M41.7245 27.4577C41.1477 27.4711 40.5741 27.3674 40.0385 27.1528C39.5029 26.9382 39.0164 26.6173 38.6084 26.2093C38.2005 25.8013 37.8795 25.3148 37.6649 24.7792C37.4503 24.2436 37.3466 23.6701 37.3601 23.0933V22.0022C37.3601 20.8446 37.8199 19.7345 38.6384 18.916C39.4569 18.0976 40.567 17.6377 41.7245 17.6377C42.882 17.6377 43.9921 18.0976 44.8106 18.916C45.6291 19.7345 46.0889 20.8446 46.0889 22.0022V23.0933C46.1024 23.6701 45.9987 24.2436 45.7841 24.7792C45.5695 25.3148 45.2485 25.8013 44.8405 26.2093C44.4325 26.6173 43.9461 26.9382 43.4105 27.1528C42.8749 27.3674 42.3013 27.4711 41.7245 27.4577V27.4577ZM41.7245 19.82C41.4346 19.8076 41.1453 19.8556 40.875 19.9609C40.6047 20.0662 40.3591 20.2265 40.154 20.4316C39.9488 20.6368 39.7885 20.8823 39.6832 21.1527C39.5779 21.423 39.5299 21.7123 39.5423 22.0022V23.0933C39.5423 23.672 39.7722 24.227 40.1814 24.6363C40.5907 25.0455 41.1457 25.2755 41.7245 25.2755C42.3033 25.2755 42.8583 25.0455 43.2676 24.6363C43.6768 24.227 43.9067 23.672 43.9067 23.0933V22.0022C43.9207 21.7119 43.8739 21.4218 43.7692 21.1507C43.6645 20.8796 43.5043 20.6334 43.2988 20.4279C43.0932 20.2224 42.847 20.0622 42.5759 19.9575C42.3048 19.8528 42.0148 19.8059 41.7245 19.82V19.82Z" fill="#FA4616"/>
</svg>
