<svg width="64" height="64" viewBox="0 0 64 64" fill="none" xmlns="http://www.w3.org/2000/svg">
<path d="M13.2577 47.4201H11.1288V31.4536C11.1288 28.867 12.0656 27.8238 13.5983 26.4188L18.9205 21.0966L20.432 22.5974L15.1098 27.9196C13.6516 29.2607 13.2896 29.7717 13.2896 31.4216L13.2577 47.4201Z" fill="#404040"/>
<path d="M29.2243 47.4201H27.0954V45.2912C27.0954 45.126 27.1339 44.963 27.2078 44.8152C27.2817 44.6674 27.389 44.5388 27.5212 44.4396C27.5212 44.4396 30.2887 42.3108 30.2887 39.9691V36.7758H32.4176V39.9691C32.4176 42.7153 30.1823 44.9612 29.2243 45.7915V47.4201Z" fill="#404040"/>
<path d="M31.3531 57H10.0644C9.78213 57 9.51139 56.8879 9.31177 56.6883C9.11214 56.4887 9 56.2179 9 55.9356V47.4201C9 47.1378 9.11214 46.867 9.31177 46.6674C9.51139 46.4677 9.78213 46.3557 10.0644 46.3557H31.3531C31.6354 46.3557 31.9062 46.4677 32.1058 46.6674C32.3054 46.867 32.4176 47.1378 32.4176 47.4201V55.9356C32.4176 56.2179 32.3054 56.4887 32.1058 56.6883C31.9062 56.8879 31.6354 57 31.3531 57ZM11.1289 54.8711H30.2887V48.4845H11.1289V54.8711Z" fill="#404040"/>
<path d="M28.1173 50.6133H25.9884V52.7422H28.1173V50.6133Z" fill="#404040"/>
<path d="M43.0619 37.8402H24.9665V35.7113H43.0619C43.3442 35.7113 43.615 35.5992 43.8146 35.3996C44.0142 35.2 44.1264 34.9292 44.1264 34.6469V25.067C44.0983 24.6254 44.2166 24.187 44.4629 23.8194C44.7092 23.4519 45.0698 23.1758 45.4888 23.0338C45.9147 22.8951 46.3722 22.8869 46.8028 23.0102C47.2334 23.1335 47.6172 23.3827 47.9051 23.7258C48.2035 24.1396 48.595 24.4775 49.048 24.7124C49.501 24.9472 50.0028 25.0723 50.513 25.0776C51.3599 25.0776 52.1721 24.7412 52.771 24.1423C53.3698 23.5435 53.7063 22.7312 53.7063 21.8843C53.7063 21.0374 53.3698 20.2251 52.771 19.6263C52.1721 19.0274 51.3599 18.691 50.513 18.691C50.0031 18.698 49.5019 18.8238 49.0492 19.0585C48.5964 19.2931 48.2047 19.6302 47.9051 20.0429C47.6194 20.389 47.2362 20.641 46.8052 20.7663C46.3743 20.8916 45.9156 20.8843 45.4888 20.7453C45.0708 20.6018 44.7112 20.3254 44.4652 19.9583C44.2191 19.5911 44.1001 19.1535 44.1264 18.7123V10.1968C44.1264 9.91452 44.0142 9.64373 43.8146 9.44411C43.615 9.24449 43.3442 9.13239 43.0619 9.13239H35.6109C36.2428 9.64889 36.7534 10.298 37.1066 11.0337C37.4598 11.7695 37.6469 12.574 37.6546 13.3901C37.6546 14.8017 37.0939 16.1554 36.0958 17.1535C35.0977 18.1516 33.7439 18.7123 32.3324 18.7123C30.9209 18.7123 29.5672 18.1516 28.5691 17.1535C27.571 16.1554 27.0102 14.8017 27.0102 13.3901C27.0143 12.5646 27.2085 11.7511 27.5777 11.0127C27.9468 10.2743 28.4811 9.63096 29.1391 9.13239H21.6881C21.4058 9.13239 21.135 9.24449 20.9354 9.44411C20.7358 9.64373 20.6236 9.91452 20.6236 10.1968V31.4855H18.4948V10.1968C18.4948 9.34991 18.8312 8.53766 19.43 7.9388C20.0289 7.33994 20.8411 7.00352 21.6881 7.00352H29.1391C29.583 6.97737 30.0233 7.0975 30.3925 7.34551C30.7616 7.59352 31.0392 7.95565 31.1828 8.37655C31.3222 8.80066 31.3307 9.25689 31.2073 9.68592C31.0839 10.1149 30.8343 10.4969 30.4909 10.7822C30.0771 11.0806 29.7392 11.4721 29.5044 11.9251C29.2695 12.3781 29.1444 12.8799 29.1391 13.3901C29.1391 14.237 29.4755 15.0493 30.0744 15.6482C30.6733 16.247 31.4855 16.5834 32.3324 16.5834C33.1793 16.5834 33.9916 16.247 34.5904 15.6482C35.1893 15.0493 35.5257 14.237 35.5257 13.3901C35.5204 12.8799 35.3953 12.3781 35.1605 11.9251C34.9257 11.4721 34.5877 11.0806 34.1739 10.7822C33.8305 10.4969 33.5809 10.1149 33.4575 9.68592C33.3341 9.25689 33.3427 8.80066 33.482 8.37655C33.6256 7.95565 33.9032 7.59352 34.2724 7.34551C34.6415 7.0975 35.0818 6.97737 35.5257 7.00352H42.9768C43.8237 7.00352 44.6359 7.33994 45.2348 7.9388C45.8336 8.53766 46.1701 9.34991 46.1701 10.1968V18.7123C46.7144 17.9865 47.4352 17.412 48.264 17.0431C49.0929 16.6743 50.0022 16.5234 50.9058 16.6049C51.8093 16.6863 52.677 16.9974 53.4265 17.5086C54.176 18.0197 54.7824 18.714 55.1881 19.5254C55.5938 20.3369 55.7854 21.2385 55.7446 22.1448C55.7038 23.0511 55.4321 23.9319 54.9551 24.7037C54.4782 25.4754 53.8119 26.1123 53.0195 26.5541C52.2272 26.9958 51.335 27.2278 50.4278 27.2278C49.6023 27.2237 48.7888 27.0295 48.0504 26.6604C47.3121 26.2912 46.6686 25.7569 46.1701 25.0989V34.6788C46.1621 35.5057 45.8337 36.2971 45.254 36.8867C44.6743 37.4763 43.8885 37.8182 43.0619 37.8402V37.8402Z" fill="#FA4616"/>
<path d="M20.7087 43.1623V41.0335C21.1409 41.0869 21.5795 41.0412 21.9913 40.8996C22.4031 40.7581 22.7772 40.5243 23.0851 40.2164C23.393 39.9085 23.6266 39.5345 23.7682 39.1228C23.9097 38.711 23.9555 38.2723 23.9021 37.8402V34.6468C23.9032 34.3676 24.0141 34.1001 24.2107 33.9018L26.8399 31.2725C27.2695 30.6229 27.4627 29.8453 27.3871 29.0701C27.3116 28.2949 26.9718 27.5692 26.4248 27.0148C25.999 26.6316 25.8393 26.7807 25.7222 26.9084L17.2068 35.4239L15.6953 33.923L24.2107 25.4075C24.4436 25.1597 24.7248 24.9623 25.037 24.8273C25.3491 24.6924 25.6855 24.6227 26.0256 24.6227C26.3657 24.6227 26.7021 24.6924 27.0142 24.8273C27.3264 24.9623 27.6076 25.1597 27.8405 25.4075C28.8066 26.3318 29.4031 27.5762 29.5187 28.9082C29.6343 30.2403 29.2609 31.5688 28.4685 32.6457L28.394 32.7308L26.0309 35.094V37.8402C26.078 38.5512 25.9726 39.2642 25.7217 39.9312C25.4709 40.5983 25.0805 41.204 24.5765 41.708C24.0726 42.2119 23.4669 42.6023 22.7998 42.8531C22.1328 43.1039 21.4198 43.2094 20.7087 43.1623V43.1623Z" fill="#404040"/>
</svg>
