<svg width="64" height="64" viewBox="0 0 64 64" fill="none" xmlns="http://www.w3.org/2000/svg">
<path d="M40.2628 40.0289C39.9976 40.028 39.7426 39.9268 39.5491 39.7456L35.9282 36.387H34.0495C32.9812 37.128 31.8336 37.7476 30.628 38.2342C29.6165 38.6067 28.5168 38.6688 27.4698 38.4127C26.4227 38.1565 25.4759 37.5937 24.7506 36.7964C24.5614 36.6007 24.4557 36.3392 24.4557 36.067C24.4557 35.7948 24.5614 35.5332 24.7506 35.3375C26.3144 33.6792 27.8992 32.105 27.8992 32.105L30.9009 29.0613C31.6744 28.3791 32.6719 28.0055 33.7032 28.0117H41.6586C42.9012 28.0121 44.1164 28.377 45.1536 29.0613L45.6574 29.3971C46.3464 29.8601 47.1572 30.1085 47.9874 30.1108H55.3341C55.6125 30.1108 55.8794 30.2213 56.0763 30.4182C56.2731 30.615 56.3837 30.882 56.3837 31.1603C56.3837 31.4387 56.2731 31.7057 56.0763 31.9025C55.8794 32.0994 55.6125 32.2099 55.3341 32.2099H47.9874C46.7443 32.2127 45.5283 31.8475 44.4924 31.1603L43.9886 30.8246C43.2984 30.3652 42.4877 30.1205 41.6586 30.1213H33.6192C33.1153 30.1188 32.6273 30.2976 32.2443 30.6251L29.3056 33.6057C29.3056 33.6057 28.2561 34.6553 26.9966 35.9882C27.4243 36.2619 27.9108 36.4303 28.4161 36.4795C28.9215 36.5288 29.4313 36.4575 29.9038 36.2716C31.0167 35.8048 32.073 35.2132 33.0524 34.5083C33.2309 34.3838 33.4436 34.3178 33.6612 34.3195H36.327C36.5943 34.3149 36.8534 34.4125 37.0512 34.5924L40.966 38.2447C41.1614 38.4414 41.2712 38.7073 41.2712 38.9846C41.2712 39.2619 41.1614 39.528 40.966 39.7246C40.7783 39.9111 40.5271 40.0197 40.2628 40.0289Z" fill="#404040"/>
<path d="M47.2737 47.1027C47.0661 47.1018 46.8635 47.0395 46.6914 46.9235C46.5193 46.8074 46.3854 46.643 46.3068 46.4509C46.2282 46.2588 46.2083 46.0476 46.2496 45.8442C46.2909 45.6408 46.3917 45.4542 46.539 45.308C47.1409 44.7533 47.8499 44.3275 48.6224 44.0567C49.3948 43.786 50.2145 43.676 51.0311 43.7337C51.3094 43.7337 51.5764 43.8444 51.7732 44.0412C51.97 44.238 52.0806 44.5049 52.0806 44.7833C52.0806 45.0616 51.97 45.3286 51.7732 45.5255C51.5764 45.7223 51.3094 45.8328 51.0311 45.8328C50.4901 45.7713 49.9422 45.8245 49.4231 45.9891C48.9041 46.1537 48.4256 46.4259 48.0189 46.7879C47.9217 46.8871 47.8058 46.966 47.6779 47.0201C47.5499 47.0741 47.4126 47.1021 47.2737 47.1027Z" fill="#404040"/>
<path d="M45.6469 50.7027C44.8765 50.6759 44.1373 50.3913 43.5479 49.8945C41.9945 48.5616 37.2506 44.0696 37.1037 43.8807C36.9266 43.6837 36.8305 43.4271 36.8347 43.1622C36.8389 42.8974 36.943 42.6439 37.1263 42.4527C37.3096 42.2615 37.5584 42.1466 37.8228 42.1311C38.0873 42.1157 38.3477 42.2008 38.5521 42.3694C38.5521 42.3694 43.4009 47.0084 44.8493 48.2678C44.9537 48.3781 45.0809 48.4643 45.222 48.5206C45.363 48.5769 45.5146 48.602 45.6663 48.594C45.818 48.586 45.9661 48.5452 46.1005 48.4743C46.2349 48.4035 46.3523 48.3044 46.4446 48.1838C46.7699 47.7849 46.9274 47.1342 46.6125 46.8824C45.0172 45.5075 39.7485 39.9765 39.5176 39.7456C39.3256 39.5438 39.2215 39.2738 39.2284 38.9953C39.2353 38.7168 39.3526 38.4525 39.5544 38.2604C39.7562 38.0684 40.026 37.9643 40.3045 37.9711C40.583 37.978 40.8474 38.0954 41.0395 38.2972C41.0395 38.2972 46.4656 43.9856 47.9769 45.2975C48.5336 45.8487 48.8545 46.5944 48.8722 47.3775C48.8898 48.1607 48.6027 48.9201 48.0714 49.4957C47.7825 49.8646 47.415 50.1644 46.9955 50.3732C46.5761 50.582 46.1154 50.6946 45.6469 50.7027V50.7027Z" fill="#404040"/>
<path d="M41.8161 53.0012C40.9812 52.9841 40.1759 52.6887 39.5281 52.1617C37.9643 50.8287 34.9207 47.9635 34.7947 47.8271C34.6831 47.7358 34.5914 47.6226 34.5255 47.4943C34.4596 47.3661 34.4208 47.2257 34.4115 47.0818C34.4023 46.9379 34.4228 46.7937 34.4717 46.6581C34.5206 46.5225 34.597 46.3984 34.696 46.2936C34.795 46.1888 34.9146 46.1056 35.0472 46.049C35.1798 45.9925 35.3227 45.9638 35.4668 45.9649C35.611 45.966 35.7534 45.9968 35.8851 46.0553C36.0169 46.1139 36.1352 46.199 36.2326 46.3053C36.2326 46.3053 39.3812 49.2755 40.8401 50.5034C41.011 50.6579 41.2165 50.769 41.4393 50.8274C41.6622 50.8859 41.8958 50.8899 42.1205 50.8392C42.9285 50.4888 43.5684 49.8376 43.9047 49.0235C43.9505 48.8867 44.024 48.7607 44.1207 48.6535C44.2174 48.5464 44.3351 48.4604 44.4665 48.4008C44.5979 48.3412 44.7402 48.3094 44.8845 48.3072C45.0288 48.3051 45.172 48.3328 45.3051 48.3885C45.4383 48.4442 45.5585 48.5267 45.6582 48.631C45.758 48.7353 45.8352 48.8589 45.885 48.9943C45.9348 49.1298 45.9562 49.2741 45.9477 49.4181C45.9392 49.5622 45.9012 49.703 45.8359 49.8317C45.554 50.5304 45.1279 51.1617 44.5853 51.6844C44.0428 52.2071 43.396 52.6094 42.6872 52.8649C42.4042 52.9488 42.1113 52.9946 41.8161 53.0012Z" fill="#404040"/>
<path d="M38.0587 55.2367C37.2043 55.2197 36.3802 54.9167 35.7183 54.3761C34.62 53.4575 33.5692 52.4836 32.5697 51.4584C32.399 51.2564 32.311 50.9975 32.323 50.7334C32.335 50.4693 32.4463 50.2194 32.6346 50.0337C32.8229 49.8481 33.0743 49.7404 33.3385 49.7321C33.6028 49.7239 33.8605 49.8156 34.06 49.989C34.06 49.989 35.8652 51.8258 36.9987 52.7179C37.1746 52.883 37.387 53.0042 37.6187 53.0717C37.8503 53.1391 38.0946 53.151 38.3316 53.1062C38.7335 52.9605 39.0997 52.7306 39.4056 52.432C39.7115 52.1333 39.9501 51.7728 40.1053 51.3745C40.1593 51.2407 40.2404 51.1194 40.3433 51.0183C40.4463 50.9172 40.569 50.8385 40.7038 50.7869C40.8386 50.7354 40.9826 50.7122 41.1268 50.7188C41.2709 50.7254 41.4122 50.7617 41.5417 50.8254C41.6712 50.889 41.7862 50.9787 41.8794 51.0888C41.9727 51.1989 42.0423 51.3271 42.0838 51.4653C42.1253 51.6035 42.1379 51.7488 42.1207 51.8921C42.1035 52.0354 42.057 52.1736 41.984 52.2981C41.7039 52.9777 41.276 53.5864 40.7314 54.0802C40.1868 54.574 39.5392 54.9404 38.8354 55.1528C38.5811 55.2136 38.3201 55.2417 38.0587 55.2367V55.2367Z" fill="#404040"/>
<path d="M34.1335 57C33.5029 56.9952 32.8857 56.8173 32.3493 56.4857C31.4572 55.9295 29.9143 54.7959 29.8514 54.754C29.7403 54.672 29.6465 54.5691 29.5753 54.4508C29.5041 54.3326 29.4569 54.2015 29.4364 54.0651C29.4159 53.9286 29.4226 53.7894 29.456 53.6555C29.4894 53.5216 29.5488 53.3955 29.631 53.2846C29.7947 53.0616 30.0397 52.9123 30.3129 52.8691C30.5861 52.8259 30.8653 52.8922 31.0898 53.0537C31.0898 53.0537 32.6326 54.1873 33.4618 54.7016C33.6278 54.8049 33.8147 54.8698 34.009 54.8916C34.2033 54.9133 34.4 54.8915 34.5848 54.8275C34.8964 54.7113 35.1799 54.5307 35.4168 54.2973C35.6538 54.064 35.8387 53.7833 35.9597 53.4735C36.0053 53.3378 36.0782 53.2127 36.1739 53.1061C36.2696 52.9996 36.3861 52.9138 36.5163 52.854C36.6464 52.7941 36.7875 52.7615 36.9307 52.7583C37.0739 52.755 37.2162 52.7811 37.349 52.8349C37.4817 52.8887 37.602 52.9692 37.7025 53.0713C37.803 53.1733 37.8816 53.2949 37.9333 53.4285C37.9851 53.562 38.0089 53.7048 38.0034 53.8479C37.9979 53.991 37.9632 54.1315 37.9013 54.2607C37.6695 54.8555 37.3109 55.3926 36.8506 55.8349C36.3902 56.2771 35.8391 56.6137 35.2355 56.8215C34.8794 56.9369 34.5078 56.9972 34.1335 57V57Z" fill="#404040"/>
<path d="M18.3065 32.1889H9.04954C8.77118 32.1889 8.50423 32.0784 8.3074 31.8816C8.11058 31.6847 8 31.4177 8 31.1394C8 30.861 8.11058 30.5941 8.3074 30.3973C8.50423 30.2005 8.77118 30.0898 9.04954 30.0898H18.3065C18.9309 30.0891 19.5409 29.9028 20.0592 29.5546L21.1087 28.8723C21.9726 28.2963 22.9881 27.9895 24.0264 27.9908H29.0957C29.7938 27.9876 30.4731 28.2165 31.0269 28.6415L31.877 29.2188C31.9925 29.2958 32.0916 29.3951 32.1686 29.5107C32.2455 29.6264 32.2987 29.7561 32.325 29.8925C32.3514 30.0289 32.3505 30.1692 32.3222 30.3052C32.294 30.4412 32.239 30.5703 32.1605 30.6849C32.082 30.7995 31.9816 30.8975 31.865 30.9729C31.7484 31.0484 31.6179 31.0999 31.4812 31.1246C31.3445 31.1493 31.2043 31.1467 31.0687 31.1168C30.933 31.0869 30.8046 31.0304 30.691 30.9505L29.7884 30.3417C29.5928 30.1815 29.3485 30.0926 29.0957 30.0898H23.974C23.3507 30.0874 22.7407 30.27 22.2212 30.6146L21.1717 31.3073C20.3227 31.8736 19.3269 32.1799 18.3065 32.1889V32.1889Z" fill="#404040"/>
<path d="M18.3694 50.304H18.3065C17.7243 50.2893 17.1593 50.1038 16.6818 49.7706C16.2042 49.4374 15.8351 48.9713 15.6204 48.43C15.4057 47.8887 15.3548 47.2963 15.4741 46.7263C15.5934 46.1563 15.8776 45.634 16.2913 45.2242L17.3409 44.1747C17.9059 43.6367 18.6599 43.3426 19.44 43.356C19.833 43.3544 20.2222 43.4338 20.5834 43.5891C20.9445 43.7444 21.2698 43.9722 21.539 44.2586C21.8184 44.51 22.0432 44.816 22.1997 45.1576C22.3562 45.4993 22.441 45.8694 22.4488 46.2451C22.4567 46.6208 22.3875 46.9941 22.2454 47.342C22.1034 47.6899 21.8916 48.0051 21.623 48.2679C21.5064 48.381 21.3651 48.4654 21.2103 48.5145C21.0555 48.5637 20.8914 48.5762 20.7309 48.5512C20.7536 48.7158 20.7369 48.8835 20.6822 49.0405C20.6274 49.1974 20.5362 49.3391 20.416 49.4539C19.8728 49.9964 19.1371 50.3019 18.3694 50.304V50.304ZM19.419 45.4656C19.2009 45.4653 18.9908 45.5478 18.8312 45.6965L17.7817 46.746C17.702 46.825 17.6388 46.919 17.5957 47.0226C17.5525 47.1262 17.5303 47.2374 17.5303 47.3496C17.5303 47.4618 17.5525 47.5728 17.5957 47.6764C17.6388 47.78 17.702 47.874 17.7817 47.953C17.9413 48.1121 18.1547 48.2057 18.3799 48.2154C18.4946 48.2235 18.6096 48.206 18.7167 48.1643C18.8237 48.1225 18.9202 48.0576 18.9992 47.974C19.1169 47.8594 19.2599 47.7741 19.4167 47.7248C19.5735 47.6756 19.7396 47.6639 19.9018 47.6906C19.876 47.5252 19.8901 47.356 19.9431 47.1971C19.996 47.0383 20.0862 46.8944 20.2061 46.7775C20.6259 46.3787 20.2061 45.8854 20.0802 45.728C20.0015 45.6457 19.907 45.5801 19.8024 45.535C19.6979 45.49 19.5853 45.4663 19.4714 45.4656H19.419Z" fill="#404040"/>
<path d="M20.7833 53.274C20.1998 53.2622 19.6328 53.0781 19.1536 52.7449C18.6744 52.4117 18.3045 51.9444 18.0902 51.4015C17.876 50.8586 17.827 50.2644 17.9495 49.6938C18.072 49.1232 18.3605 48.6014 18.7787 48.1943L21.9273 45.1506C22.2053 44.8809 22.5339 44.6689 22.8941 44.5266C23.2543 44.3843 23.6391 44.3146 24.0264 44.3216C24.4184 44.3205 24.8066 44.399 25.1674 44.5523C25.5282 44.7057 25.8542 44.9307 26.1255 45.2137L25.3803 45.9588L26.136 45.2347C26.4099 45.5132 26.6257 45.8432 26.771 46.2058C26.9163 46.5684 26.988 46.9562 26.9822 47.3468C26.9763 47.7374 26.8929 48.123 26.7369 48.481C26.5808 48.8391 26.3551 49.1627 26.073 49.4328L22.9244 52.466C22.6394 52.7366 22.3031 52.9474 21.9354 53.0862C21.5678 53.225 21.1761 53.2888 20.7833 53.274V53.274ZM23.9319 46.4207C23.7138 46.4204 23.5038 46.5029 23.3442 46.6515L20.1956 49.6952C20.0366 49.8579 19.9476 50.0764 19.9476 50.3039C19.9476 50.5314 20.0366 50.7498 20.1956 50.9126C20.359 51.0723 20.5759 51.1658 20.8043 51.175C20.9175 51.1845 21.0314 51.1678 21.1371 51.1259C21.2427 51.084 21.3372 51.0182 21.413 50.9336L24.5617 47.9004C24.7206 47.7377 24.8096 47.5192 24.8096 47.2917C24.8096 47.0642 24.7206 46.8458 24.5617 46.683V46.683C24.4066 46.5248 24.1954 46.4343 23.9739 46.4312L23.9319 46.4207Z" fill="#404040"/>
<path d="M23.953 55.5097H23.8795C23.2966 55.491 22.732 55.3012 22.2562 54.9639C21.7805 54.6265 21.4145 54.1566 21.2041 53.6126C20.9937 53.0687 20.9481 52.4748 21.073 51.9051C21.1979 51.3354 21.4877 50.815 21.9064 50.4089C22.1082 50.2155 22.3786 50.1101 22.6581 50.116C22.7964 50.119 22.9329 50.1492 23.0596 50.2048C23.1864 50.2605 23.3009 50.3405 23.3967 50.4404C23.4925 50.5404 23.5677 50.6582 23.6179 50.7871C23.6682 50.9161 23.6925 51.0537 23.6896 51.1921C23.6867 51.3305 23.6565 51.467 23.6009 51.5938C23.5452 51.7205 23.4651 51.835 23.3652 51.9308C23.2856 52.0099 23.2224 52.1039 23.1792 52.2074C23.1361 52.311 23.1139 52.4221 23.1139 52.5343C23.1139 52.6465 23.1361 52.7575 23.1792 52.8611C23.2224 52.9647 23.2856 53.0587 23.3652 53.1377C23.5207 53.3043 23.7358 53.4024 23.9635 53.4106C24.1921 53.4068 24.4118 53.3212 24.5827 53.1692L27.4269 50.3984C27.5069 50.3185 27.5703 50.2237 27.6136 50.1193C27.6569 50.0148 27.6792 49.9028 27.6792 49.7897C27.6792 49.6767 27.6569 49.5647 27.6136 49.4602C27.5703 49.3558 27.5069 49.261 27.4269 49.181C27.3512 49.0962 27.2593 49.0274 27.1565 48.9787C27.0538 48.9301 26.9423 48.9025 26.8287 48.8977C26.7155 48.8881 26.6016 48.9048 26.4959 48.9467C26.3903 48.9886 26.2958 49.0545 26.22 49.139C26.0182 49.3311 25.7483 49.4351 25.4698 49.4282C25.1913 49.4213 24.9269 49.3041 24.7349 49.1023C24.5428 48.9004 24.4388 48.6306 24.4457 48.3521C24.4525 48.0736 24.5698 47.8093 24.7716 47.6172C25.3414 47.0868 26.0922 46.794 26.8707 46.7986C27.2651 46.8009 27.6548 46.884 28.0159 47.0429C28.3769 47.2017 28.7015 47.433 28.9697 47.7222C29.2423 48.002 29.4566 48.3333 29.6 48.6966C29.7435 49.06 29.8134 49.4482 29.8056 49.8388C29.7978 50.2294 29.7124 50.6145 29.5545 50.9719C29.3966 51.3292 29.1693 51.6516 28.8858 51.9203L26.0415 54.7016C25.4769 55.2322 24.7277 55.522 23.953 55.5097Z" fill="#404040"/>
<path d="M27.9622 56.9266C27.5701 56.9283 27.1817 56.85 26.8208 56.6966C26.4599 56.5432 26.1341 56.3178 25.8631 56.0344C25.5864 55.7593 25.3668 55.4323 25.217 55.0721C25.0671 54.7118 24.99 54.3254 24.99 53.9353C24.99 53.5451 25.0671 53.1589 25.217 52.7986C25.3668 52.4384 25.5864 52.1113 25.8631 51.8362C25.9922 51.7086 26.1509 51.6148 26.3249 51.5633C26.381 51.3974 26.4743 51.2467 26.5978 51.1226C27.1679 50.5887 27.916 50.2856 28.6969 50.2724C29.2808 50.2831 29.8486 50.4656 30.3293 50.7973C30.81 51.1289 31.1823 51.5949 31.3996 52.137C31.6169 52.6791 31.6695 53.2732 31.551 53.8451C31.4324 54.4169 31.1479 54.9412 30.733 55.3523L30.0088 56.0554C29.4677 56.6036 28.7324 56.9167 27.9622 56.9266V56.9266ZM27.6264 52.9173C27.5737 53.0847 27.4799 53.2363 27.3535 53.3581C27.2729 53.4374 27.2086 53.5317 27.1645 53.6357C27.1203 53.7398 27.0971 53.8516 27.0961 53.9646C27.0951 54.0777 27.1164 54.1898 27.1588 54.2946C27.2011 54.3995 27.2637 54.4948 27.343 54.5755C27.4222 54.6561 27.5166 54.7204 27.6207 54.7646C27.7247 54.8087 27.8365 54.832 27.9495 54.833C28.0626 54.834 28.1747 54.8126 28.2796 54.7702C28.3844 54.7279 28.4798 54.6652 28.5604 54.586L29.2951 53.8829C29.451 53.7206 29.538 53.5043 29.538 53.2793C29.538 53.0543 29.451 52.8381 29.2951 52.6759C29.1345 52.5105 28.9167 52.4129 28.6864 52.403C28.5734 52.4029 28.4614 52.4251 28.357 52.4683C28.2525 52.5116 28.1576 52.575 28.0777 52.6549C27.9484 52.7745 27.7943 52.8641 27.6264 52.9173V52.9173Z" fill="#404040"/>
<path d="M43.17 41.1731C42.0326 41.1856 40.9238 40.816 40.0214 40.1235L39.6646 39.903C39.5474 39.83 39.4458 39.7346 39.3655 39.6223C39.2852 39.51 39.2279 39.383 39.1967 39.2485C39.1655 39.114 39.1611 38.9747 39.1837 38.8385C39.2064 38.7023 39.2557 38.5718 39.3287 38.4547C39.4018 38.3375 39.4972 38.2359 39.6095 38.1556C39.7218 38.0754 39.8488 38.018 39.9833 37.9868C40.1178 37.9556 40.2571 37.9512 40.3933 37.9738C40.5295 37.9965 40.6599 38.0458 40.7771 38.1189L41.1549 38.3602C41.6106 38.7351 42.1557 38.9854 42.737 39.0865C43.3183 39.1877 43.9159 39.1364 44.4714 38.9375C44.7498 38.8805 45.0394 38.9363 45.2766 39.0928C45.5138 39.2493 45.6791 39.4935 45.7361 39.7718C45.7932 40.0502 45.7373 40.3399 45.5809 40.5771C45.4244 40.8142 45.1801 40.9796 44.9017 41.0366C44.3306 41.1402 43.7504 41.1859 43.17 41.1731V41.1731Z" fill="#404040"/>
<path d="M16.9525 47.1133C16.6823 47.1122 16.4229 47.0071 16.2283 46.8195C15.3809 46.1562 14.3225 45.8208 13.2477 45.8749C12.9693 45.8749 12.7023 45.7643 12.5055 45.5674C12.3087 45.3706 12.1981 45.1037 12.1981 44.8254C12.1981 44.547 12.3087 44.28 12.5055 44.0832C12.7023 43.8864 12.9693 43.7758 13.2477 43.7758C14.8616 43.7169 16.4399 44.2591 17.6767 45.2976C17.8308 45.4419 17.9378 45.6293 17.9838 45.8353C18.0298 46.0414 18.0125 46.2565 17.9343 46.4526C17.8561 46.6487 17.7205 46.8167 17.5454 46.9346C17.3703 47.0524 17.1636 47.1147 16.9525 47.1133V47.1133Z" fill="#404040"/>
<path d="M46.8329 27.9908C46.5545 27.9908 46.2876 27.8802 46.0907 27.6834C45.8939 27.4866 45.7833 27.2196 45.7833 26.9412V9.09908H16.2703V26.469C16.2703 26.7473 16.1598 27.0142 15.9629 27.211C15.7661 27.4079 15.4992 27.5185 15.2208 27.5185C14.9424 27.5185 14.6755 27.4079 14.4787 27.211C14.2818 27.0142 14.1713 26.7473 14.1713 26.469V8.04954C14.1713 7.77118 14.2818 7.50431 14.4787 7.30748C14.6755 7.11066 14.9424 7 15.2208 7H46.8329C47.1112 7 47.3782 7.11066 47.575 7.30748C47.7718 7.50431 47.8824 7.77118 47.8824 8.04954V26.9412C47.8824 27.2196 47.7718 27.4866 47.575 27.6834C47.3782 27.8802 47.1112 27.9908 46.8329 27.9908Z" fill="#FA4616"/>
<path d="M38.4366 17.4954H23.7431C23.4647 17.4954 23.1978 17.3848 23.0009 17.188C22.8041 16.9912 22.6935 16.7242 22.6935 16.4458C22.6935 16.1675 22.8041 15.9006 23.0009 15.7038C23.1978 15.507 23.4647 15.3963 23.7431 15.3963H38.4366C38.715 15.3963 38.9819 15.507 39.1787 15.7038C39.3756 15.9006 39.4861 16.1675 39.4861 16.4458C39.4861 16.7242 39.3756 16.9912 39.1787 17.188C38.9819 17.3848 38.715 17.4954 38.4366 17.4954Z" fill="#FA4616"/>
<path d="M32.1394 21.6935H23.7431C23.4647 21.6935 23.1978 21.583 23.0009 21.3861C22.8041 21.1893 22.6935 20.9223 22.6935 20.644C22.6935 20.3656 22.8041 20.0987 23.0009 19.9019C23.1978 19.7051 23.4647 19.5944 23.7431 19.5944H32.1394C32.4177 19.5944 32.6847 19.7051 32.8815 19.9019C33.0783 20.0987 33.1889 20.3656 33.1889 20.644C33.1889 20.9223 33.0783 21.1893 32.8815 21.3861C32.6847 21.583 32.4177 21.6935 32.1394 21.6935Z" fill="#FA4616"/>
<path d="M34.2384 30.0898H22.6935C22.4152 30.0898 22.1482 29.9793 21.9514 29.7824C21.7546 29.5856 21.644 29.3186 21.644 29.0403C21.644 28.7619 21.7546 28.495 21.9514 28.2982C22.1482 28.1014 22.4152 27.9907 22.6935 27.9907H34.2384C34.5168 27.9907 34.7837 28.1014 34.9806 28.2982C35.1774 28.495 35.288 28.7619 35.288 29.0403C35.288 29.3186 35.1774 29.5856 34.9806 29.7824C34.7837 29.9793 34.5168 30.0898 34.2384 30.0898Z" fill="#404040"/>
</svg>
