<svg width="64" height="64" viewBox="0 0 64 64" fill="none" xmlns="http://www.w3.org/2000/svg">
<path d="M38.5218 30.3478H27.6522C27.0756 30.3478 26.5227 30.1188 26.115 29.7111C25.7073 29.3034 25.4783 28.7504 25.4783 28.1739V24.913C25.4783 22.7391 29.9022 20.5652 33.087 20.5652C36.2609 20.5652 40.6957 22.7391 40.6957 24.913V28.1739C40.6957 28.7504 40.4666 29.3034 40.0589 29.7111C39.6513 30.1188 39.0983 30.3478 38.5218 30.3478ZM33.087 22.7391C30.5978 22.7391 27.8804 24.3913 27.6522 25.0109V28.1739H38.5218V24.913C38.3044 24.3913 35.587 22.7391 33.087 22.7391Z" fill="#404040"/>
<path d="M33.0869 22.7391C32.3459 22.7403 31.6125 22.5901 30.9317 22.2975C30.2509 22.0048 29.6371 21.5761 29.1281 21.0375C28.6191 20.499 28.2255 19.862 27.9717 19.1658C27.7179 18.4696 27.6092 17.7289 27.6522 16.9891V15.4348C27.6522 13.9934 28.2248 12.611 29.244 11.5918C30.2632 10.5725 31.6455 10 33.0869 10C34.5283 10 35.9107 10.5725 36.9299 11.5918C37.9491 12.611 38.5217 13.9934 38.5217 15.4348V16.9891C38.5647 17.7289 38.4559 18.4696 38.2021 19.1658C37.9483 19.862 37.5548 20.499 37.0458 21.0375C36.5368 21.5761 35.923 22.0048 35.2422 22.2975C34.5614 22.5901 33.828 22.7403 33.0869 22.7391V22.7391ZM33.0869 11.8695C32.6319 11.8675 32.1814 11.9608 31.7645 12.1434C31.3477 12.326 30.9736 12.5938 30.6665 12.9296C30.3594 13.2654 30.1259 13.6617 29.9812 14.0932C29.8364 14.5247 29.7836 14.9817 29.8261 15.4348V16.9891C29.8261 17.854 30.1696 18.6833 30.7811 19.2949C31.3927 19.9064 32.2221 20.25 33.0869 20.25C33.9518 20.25 34.7812 19.9064 35.3927 19.2949C36.0042 18.6833 36.3478 17.854 36.3478 16.9891V15.4348C36.3903 14.9817 36.3374 14.5247 36.1927 14.0932C36.048 13.6617 35.8145 13.2654 35.5074 12.9296C35.2002 12.5938 34.8262 12.326 34.4093 12.1434C33.9925 11.9608 33.542 11.8675 33.0869 11.8695V11.8695Z" fill="#404040"/>
<path d="M54.8261 53.1739H43.9565C43.38 53.1739 42.827 52.9449 42.4193 52.5372C42.0117 52.1295 41.7826 51.5765 41.7826 51V47.7391C41.7826 45.5652 46.2065 43.3913 49.3913 43.3913C52.5652 43.3913 57 45.5652 57 47.7391V51C57 51.5765 56.771 52.1295 56.3633 52.5372C55.9556 52.9449 55.4027 53.1739 54.8261 53.1739ZM49.3913 45.5652C46.9022 45.5652 44.1848 47.2174 43.9565 47.8369V51H54.8261V47.7391C54.6087 47.2174 51.8913 45.5652 49.3913 45.5652Z" fill="#404040"/>
<path d="M49.3913 45.5652C48.6503 45.5664 47.9169 45.4162 47.2361 45.1235C46.5552 44.8309 45.9415 44.4022 45.4325 43.8636C44.9234 43.3251 44.5299 42.6881 44.2761 41.9919C44.0223 41.2957 43.9136 40.555 43.9565 39.8152V38.2609C43.9565 36.8195 44.5291 35.4371 45.5484 34.4178C46.5676 33.3986 47.9499 32.8261 49.3913 32.8261C50.8327 32.8261 52.2151 33.3986 53.2343 34.4178C54.2535 35.4371 54.8261 36.8195 54.8261 38.2609V39.8152C54.8691 40.555 54.7603 41.2957 54.5065 41.9919C54.2527 42.6881 53.8592 43.3251 53.3502 43.8636C52.8412 44.4022 52.2274 44.8309 51.5466 45.1235C50.8658 45.4162 50.1323 45.5664 49.3913 45.5652V45.5652ZM49.3913 34.6956C48.9362 34.6936 48.4858 34.7869 48.0689 34.9695C47.6521 35.152 47.278 35.4199 46.9709 35.7557C46.6637 36.0915 46.4303 36.4878 46.2856 36.9193C46.1408 37.3507 46.088 37.8078 46.1305 38.2609V39.8152C46.1305 40.68 46.474 41.5094 47.0855 42.1209C47.6971 42.7325 48.5265 43.0761 49.3913 43.0761C50.2562 43.0761 51.0856 42.7325 51.6971 42.1209C52.3086 41.5094 52.6522 40.68 52.6522 39.8152V38.2609C52.6947 37.8078 52.6418 37.3507 52.4971 36.9193C52.3523 36.4878 52.1189 36.0915 51.8118 35.7557C51.5046 35.4199 51.1306 35.152 50.7137 34.9695C50.2969 34.7869 49.8464 34.6936 49.3913 34.6956V34.6956Z" fill="#404040"/>
<path d="M20.0435 53.1739H9.17391C8.59736 53.1739 8.04441 52.9449 7.63672 52.5372C7.22903 52.1295 7 51.5765 7 51V47.7391C7 45.5652 11.4239 43.3913 14.6087 43.3913C17.7826 43.3913 22.2174 45.5652 22.2174 47.7391V51C22.2174 51.5765 21.9884 52.1295 21.5807 52.5372C21.173 52.9449 20.62 53.1739 20.0435 53.1739ZM14.6087 45.5652C12.1196 45.5652 9.40217 47.2174 9.17391 47.8369V51H20.0435V47.7391C19.8261 47.2174 17.1087 45.5652 14.6087 45.5652Z" fill="#404040"/>
<path d="M14.6087 45.5652C13.8677 45.5664 13.1342 45.4162 12.4534 45.1235C11.7726 44.8309 11.1589 44.4022 10.6498 43.8636C10.1408 43.3251 9.7473 42.6881 9.49349 41.9919C9.23967 41.2957 9.13093 40.555 9.17392 39.8152V38.2609C9.17392 36.8195 9.74652 35.4371 10.7657 34.4178C11.785 33.3986 13.1673 32.8261 14.6087 32.8261C16.0501 32.8261 17.4324 33.3986 18.4517 34.4178C19.4709 35.4371 20.0435 36.8195 20.0435 38.2609V39.8152C20.0865 40.555 19.9777 41.2957 19.7239 41.9919C19.4701 42.6881 19.0766 43.3251 18.5676 43.8636C18.0585 44.4022 17.4448 44.8309 16.764 45.1235C16.0832 45.4162 15.3497 45.5664 14.6087 45.5652V45.5652ZM14.6087 34.6956C14.1536 34.6936 13.7032 34.7869 13.2863 34.9695C12.8694 35.152 12.4954 35.4199 12.1883 35.7557C11.8811 36.0915 11.6477 36.4878 11.5029 36.9193C11.3582 37.3507 11.3053 37.8078 11.3478 38.2609V39.8152C11.3478 40.68 11.6914 41.5094 12.3029 42.1209C12.9144 42.7325 13.7439 43.0761 14.6087 43.0761C15.4735 43.0761 16.3029 42.7325 16.9145 42.1209C17.526 41.5094 17.8696 40.68 17.8696 39.8152V38.2609C17.912 37.8078 17.8592 37.3507 17.7145 36.9193C17.5697 36.4878 17.3363 36.0915 17.0291 35.7557C16.722 35.4199 16.348 35.152 15.9311 34.9695C15.5142 34.7869 15.0638 34.6936 14.6087 34.6956V34.6956Z" fill="#404040"/>
<path d="M13.5217 30.3478H11.3478V19.4782C11.3478 18.3251 11.8059 17.2192 12.6213 16.4038C13.4366 15.5885 14.5425 15.1304 15.6956 15.1304H24.3913V17.3043H15.6956C15.1191 17.3043 14.5661 17.5334 14.1584 17.9411C13.7508 18.3488 13.5217 18.9017 13.5217 19.4782V30.3478Z" fill="#FA4616"/>
<path d="M20.8152 21.3261L19.2826 19.7934L22.8587 16.2174L19.2826 12.6304L20.8152 11.0978L25.163 15.4456C25.3655 15.6493 25.4791 15.9248 25.4791 16.2119C25.4791 16.4991 25.3655 16.7746 25.163 16.9783L20.8152 21.3261Z" fill="#FA4616"/>
<path d="M27.9782 48.5L23.6304 44.1521C23.428 43.9485 23.3144 43.673 23.3144 43.3858C23.3144 43.0987 23.428 42.8231 23.6304 42.6195L27.9782 38.2717L29.5109 39.8043L25.9348 43.3913L29.5109 46.9673L27.9782 48.5Z" fill="#FA4616"/>
<path d="M51.5652 29.2608H49.3913V19.4782C49.393 19.1921 49.3381 18.9085 49.2299 18.6436C49.1217 18.3788 48.9623 18.1379 48.7608 17.9348C48.5577 17.7333 48.3168 17.5738 48.052 17.4657C47.7871 17.3575 47.5035 17.3027 47.2174 17.3043H40.6956V15.1304H47.2174C48.3705 15.1304 49.4764 15.5885 50.2918 16.4038C51.1071 17.2192 51.5652 18.3251 51.5652 19.4782V29.2608Z" fill="#FA4616"/>
<path d="M50.4782 30.3478C50.1915 30.3437 49.918 30.2265 49.7174 30.0217L45.3695 25.6739L46.9022 24.1412L50.4782 27.7174L54.0652 24.1412L55.5978 25.6739L51.25 30.0217C51.1493 30.1244 51.0293 30.2061 50.8968 30.2621C50.7643 30.318 50.6221 30.3472 50.4782 30.3478Z" fill="#FA4616"/>
<path d="M40.6956 42.3043H24.3913V44.4782H40.6956V42.3043Z" fill="#FA4616"/>
</svg>
