<svg width="64" height="64" viewBox="0 0 64 64" fill="none" xmlns="http://www.w3.org/2000/svg">
<path d="M32 48.0113C29.0783 48.0113 26.2221 47.1449 23.7927 45.5217C21.3634 43.8984 19.4699 41.5912 18.3518 38.8919C17.2337 36.1925 16.9411 33.2222 17.5112 30.3566C18.0812 27.4909 19.4881 24.8587 21.5541 22.7927C23.6201 20.7267 26.2524 19.3197 29.118 18.7497C31.9836 18.1797 34.9539 18.4723 37.6533 19.5904C40.3527 20.7085 42.6599 22.602 44.2831 25.0313C45.9063 27.4607 46.7728 30.3168 46.7728 33.2386C46.7728 37.1566 45.2163 40.9141 42.4459 43.6845C39.6755 46.4549 35.918 48.0113 32 48.0113ZM32 20.7386C29.5278 20.7386 27.111 21.4717 25.0554 22.8452C22.9998 24.2187 21.3976 26.171 20.4515 28.4551C19.5054 30.7391 19.2579 33.2525 19.7402 35.6772C20.2225 38.102 21.413 40.3293 23.1612 42.0774C24.9093 43.8256 27.1366 45.0161 29.5614 45.4984C31.9862 45.9807 34.4995 45.7332 36.7836 44.7871C39.0676 43.841 41.0199 42.2389 42.3934 40.1832C43.7669 38.1276 44.5 35.7109 44.5 33.2386C44.5 29.9234 43.1831 26.744 40.8389 24.3998C38.4947 22.0555 35.3152 20.7386 32 20.7386Z" fill="#FA4616"/>
<path d="M31.9999 36.6477C31.3689 36.6217 30.7494 36.4701 30.1777 36.2018C29.606 35.9335 29.0935 35.5538 28.6702 35.085C28.247 34.6163 27.9215 34.0678 27.7127 33.4718C27.504 32.8757 27.4162 32.244 27.4545 31.6136V30.3182C27.4545 29.1127 27.9334 27.9565 28.7858 27.1041C29.6383 26.2516 30.7944 25.7727 31.9999 25.7727C33.2055 25.7727 34.3616 26.2516 35.2141 27.1041C36.0665 27.9565 36.5454 29.1127 36.5454 30.3182V31.6136C36.5837 32.244 36.4959 32.8757 36.2872 33.4718C36.0784 34.0678 35.7529 34.6163 35.3296 35.085C34.9064 35.5538 34.3939 35.9335 33.8222 36.2018C33.2505 36.4701 32.631 36.6217 31.9999 36.6477V36.6477ZM31.9999 27.5568C31.6691 27.5881 31.3477 27.6845 31.0542 27.8404C30.7607 27.9963 30.5009 28.2086 30.2897 28.4651C30.0785 28.7217 29.9201 29.0175 29.8236 29.3355C29.7271 29.6535 29.6943 29.9875 29.7272 30.3182V31.6136C29.7272 32.2164 29.9667 32.7945 30.3929 33.2207C30.8191 33.6469 31.3972 33.8863 31.9999 33.8863C32.6027 33.8863 33.1808 33.6469 33.607 33.2207C34.0332 32.7945 34.2727 32.2164 34.2727 31.6136V30.3182C34.3056 29.9875 34.2728 29.6535 34.1763 29.3355C34.0798 29.0175 33.9214 28.7217 33.7102 28.4651C33.499 28.2086 33.2392 27.9963 32.9457 27.8404C32.6522 27.6845 32.3308 27.5881 31.9999 27.5568V27.5568Z" fill="#404040"/>
<path d="M27.4546 38.9205H25.1818C25.1818 36.3295 28.1136 34.375 32 34.375V36.6477C29.2727 36.6477 27.4546 37.8295 27.4546 38.9205Z" fill="#404040"/>
<path d="M38.8182 38.9205H36.5455C36.5455 37.7841 34.7159 36.6477 32 36.6477V34.375C35.8864 34.375 38.8182 36.3295 38.8182 38.9205Z" fill="#404040"/>
<path d="M13.8181 50.2841C13.1871 50.2581 12.5676 50.1065 11.9959 49.8382C11.4241 49.5698 10.9117 49.1902 10.4884 48.7214C10.0652 48.2527 9.73965 47.7042 9.5309 47.1081C9.32214 46.5121 9.23435 45.8804 9.27266 45.25V43.9546C9.27266 42.749 9.75156 41.5929 10.604 40.7404C11.4564 39.888 12.6126 39.4091 13.8181 39.4091C15.0236 39.4091 16.1798 39.888 17.0322 40.7404C17.8847 41.5929 18.3636 42.749 18.3636 43.9546V45.25C18.4019 45.8804 18.3141 46.5121 18.1053 47.1081C17.8966 47.7042 17.5711 48.2527 17.1478 48.7214C16.7246 49.1902 16.2121 49.5698 15.6404 49.8382C15.0686 50.1065 14.4491 50.2581 13.8181 50.2841V50.2841ZM13.8181 41.1932C13.4873 41.2245 13.1659 41.3209 12.8724 41.4768C12.5789 41.6326 12.3191 41.8449 12.1079 42.1015C11.8967 42.3581 11.7383 42.6539 11.6418 42.9719C11.5452 43.2899 11.5125 43.6239 11.5454 43.9546V45.25C11.5454 45.8527 11.7848 46.4309 12.2111 46.8571C12.6373 47.2833 13.2154 47.5227 13.8181 47.5227C14.4209 47.5227 14.999 47.2833 15.4252 46.8571C15.8514 46.4309 16.0908 45.8527 16.0908 45.25V43.9546C16.1238 43.6239 16.091 43.2899 15.9945 42.9719C15.8979 42.6539 15.7395 42.3581 15.5284 42.1015C15.3172 41.8449 15.0574 41.6326 14.7639 41.4768C14.4704 41.3209 14.149 41.2245 13.8181 41.1932V41.1932Z" fill="#404040"/>
<path d="M9.27273 52.5568H7C7 49.9659 9.93182 48.0114 13.8182 48.0114V50.2841C11.0909 50.2841 9.27273 51.4659 9.27273 52.5568Z" fill="#404040"/>
<path d="M20.6364 52.5568H18.3636C18.3636 51.4205 16.5341 50.2841 13.8182 50.2841V48.0114C17.7045 48.0114 20.6364 49.9659 20.6364 52.5568Z" fill="#404040"/>
<path d="M50.1818 50.2841C49.5507 50.2581 48.9312 50.1065 48.3595 49.8382C47.7878 49.5698 47.2753 49.1902 46.8521 48.7214C46.4288 48.2527 46.1033 47.7042 45.8945 47.1081C45.6858 46.5121 45.598 45.8804 45.6363 45.25V43.9546C45.6363 42.749 46.1152 41.5929 46.9676 40.7404C47.8201 39.888 48.9762 39.4091 50.1818 39.4091C51.3873 39.4091 52.5435 39.888 53.3959 40.7404C54.2483 41.5929 54.7272 42.749 54.7272 43.9546V45.25C54.7655 45.8804 54.6777 46.5121 54.469 47.1081C54.2602 47.7042 53.9347 48.2527 53.5115 48.7214C53.0882 49.1902 52.5757 49.5698 52.004 49.8382C51.4323 50.1065 50.8128 50.2581 50.1818 50.2841ZM50.1818 41.1932C49.8509 41.2245 49.5295 41.3209 49.236 41.4768C48.9425 41.6326 48.6827 41.8449 48.4715 42.1015C48.2603 42.3581 48.1019 42.6539 48.0054 42.9719C47.9089 43.2899 47.8761 43.6239 47.909 43.9546V45.25C47.909 45.8527 48.1485 46.4309 48.5747 46.8571C49.0009 47.2833 49.579 47.5227 50.1818 47.5227C50.7845 47.5227 51.3626 47.2833 51.7888 46.8571C52.215 46.4309 52.4545 45.8527 52.4545 45.25V43.9546C52.4874 43.6239 52.4547 43.2899 52.3581 42.9719C52.2616 42.6539 52.1032 42.3581 51.892 42.1015C51.6808 41.8449 51.421 41.6326 51.1275 41.4768C50.834 41.3209 50.5126 41.2245 50.1818 41.1932Z" fill="#404040"/>
<path d="M45.6364 52.5568H43.3636C43.3636 49.9659 46.2955 48.0114 50.1818 48.0114V50.2841C47.4546 50.2841 45.6364 51.4659 45.6364 52.5568Z" fill="#404040"/>
<path d="M57 52.5568H54.7273C54.7273 51.4205 52.8977 50.2841 50.1818 50.2841V48.0114C54.0682 48.0114 57 49.9659 57 52.5568Z" fill="#404040"/>
<path d="M13.8181 21.875C13.1871 21.849 12.5676 21.6974 11.9959 21.429C11.4241 21.1607 10.9117 20.781 10.4884 20.3123C10.0652 19.8436 9.73965 19.2951 9.5309 18.699C9.32214 18.103 9.23435 17.4713 9.27266 16.8409V15.5455C9.27266 14.3399 9.75156 13.1838 10.604 12.3313C11.4564 11.4789 12.6126 11 13.8181 11C15.0236 11 16.1798 11.4789 17.0322 12.3313C17.8847 13.1838 18.3636 14.3399 18.3636 15.5455V16.8409C18.4019 17.4713 18.3141 18.103 18.1053 18.699C17.8966 19.2951 17.5711 19.8436 17.1478 20.3123C16.7246 20.781 16.2121 21.1607 15.6404 21.429C15.0686 21.6974 14.4491 21.849 13.8181 21.875ZM13.8181 12.7841C13.4873 12.8154 13.1659 12.9118 12.8724 13.0676C12.5789 13.2235 12.3191 13.4358 12.1079 13.6924C11.8967 13.949 11.7383 14.2448 11.6418 14.5628C11.5452 14.8808 11.5125 15.2148 11.5454 15.5455V16.8409C11.5454 17.4436 11.7848 18.0217 12.2111 18.448C12.6373 18.8742 13.2154 19.1136 13.8181 19.1136C14.4209 19.1136 14.999 18.8742 15.4252 18.448C15.8514 18.0217 16.0908 17.4436 16.0908 16.8409V15.5455C16.1238 15.2148 16.091 14.8808 15.9945 14.5628C15.8979 14.2448 15.7395 13.949 15.5284 13.6924C15.3172 13.4358 15.0574 13.2235 14.7639 13.0676C14.4704 12.9118 14.149 12.8154 13.8181 12.7841V12.7841Z" fill="#404040"/>
<path d="M9.27273 24.1477H7C7 21.5568 9.93182 19.6023 13.8182 19.6023V21.875C11.0909 21.875 9.27273 23.0568 9.27273 24.1477Z" fill="#404040"/>
<path d="M17.5 23.1932C17.0086 22.734 16.4285 22.3802 15.7953 22.1536C15.1622 21.9269 14.4893 21.8321 13.8182 21.875V19.6023C14.8151 19.5538 15.8111 19.7159 16.7411 20.0781C17.6712 20.4403 18.5144 20.9945 19.2159 21.7045L17.5 23.1932Z" fill="#404040"/>
<path d="M50.1818 21.875C49.5507 21.849 48.9312 21.6974 48.3595 21.429C47.7878 21.1607 47.2753 20.781 46.8521 20.3123C46.4288 19.8436 46.1033 19.2951 45.8945 18.699C45.6858 18.103 45.598 17.4713 45.6363 16.8409V15.5455C45.6363 14.3399 46.1152 13.1838 46.9676 12.3313C47.8201 11.4789 48.9762 11 50.1818 11C51.3873 11 52.5435 11.4789 53.3959 12.3313C54.2483 13.1838 54.7272 14.3399 54.7272 15.5455V16.8409C54.7655 17.4713 54.6777 18.103 54.469 18.699C54.2602 19.2951 53.9347 19.8436 53.5115 20.3123C53.0882 20.781 52.5757 21.1607 52.004 21.429C51.4323 21.6974 50.8128 21.849 50.1818 21.875ZM50.1818 12.7841C49.8509 12.8154 49.5295 12.9118 49.236 13.0676C48.9425 13.2235 48.6827 13.4358 48.4715 13.6924C48.2603 13.949 48.1019 14.2448 48.0054 14.5628C47.9089 14.8808 47.8761 15.2148 47.909 15.5455V16.8409C47.909 17.4436 48.1485 18.0217 48.5747 18.448C49.0009 18.8742 49.579 19.1136 50.1818 19.1136C50.7845 19.1136 51.3626 18.8742 51.7888 18.448C52.215 18.0217 52.4545 17.4436 52.4545 16.8409V15.5455C52.4874 15.2148 52.4547 14.8808 52.3581 14.5628C52.2616 14.2448 52.1032 13.949 51.892 13.6924C51.6808 13.4358 51.421 13.2235 51.1275 13.0676C50.834 12.9118 50.5126 12.8154 50.1818 12.7841V12.7841Z" fill="#404040"/>
<path d="M57 24.1477H54.7273C54.7273 23.0114 52.8977 21.875 50.1818 21.875V19.6023C54.0682 19.6023 57 21.5568 57 24.1477Z" fill="#404040"/>
<path d="M46.4886 23.1932L44.7727 21.7046C45.4772 20.9954 46.3226 20.4419 47.2543 20.0798C48.186 19.7177 49.1833 19.555 50.1818 19.6023V21.875C49.509 21.8326 48.8345 21.9275 48.1996 22.1541C47.5646 22.3808 46.9825 22.7343 46.4886 23.1932V23.1932Z" fill="#404040"/>
<path d="M33.1364 43.4659H30.8636V52.5568H33.1364V43.4659Z" fill="#FA4616"/>
<path d="M33.1364 13.9205H30.8636V23.0114H33.1364V13.9205Z" fill="#FA4616"/>
<path d="M21.7727 32.1023H11.5455V34.375H21.7727V32.1023Z" fill="#FA4616"/>
<path d="M52.4546 32.1023H42.2273V34.375H52.4546V32.1023Z" fill="#FA4616"/>
</svg>
