<svg width="64" height="64" viewBox="0 0 64 64" fill="none" xmlns="http://www.w3.org/2000/svg">
<path d="M38.25 53.4478H25.75C25.4737 53.4478 25.2088 53.3381 25.0134 53.1427C24.8181 52.9474 24.7083 52.6824 24.7083 52.4062V40.9479C24.7083 40.6716 24.8181 40.4067 25.0134 40.2113C25.2088 40.016 25.4737 39.9062 25.75 39.9062H35.125V41.9895H26.7916V51.3645H37.2083V47.1979H39.2916V52.4062C39.2916 52.6824 39.1819 52.9474 38.9865 53.1427C38.7912 53.3381 38.5262 53.4478 38.25 53.4478Z" fill="#404040"/>
<path d="M32 50.3229C31.7268 50.3217 31.4649 50.2132 31.2709 50.0208L28.1459 46.8958L29.6146 45.4167L31.9479 47.7604L38.5104 40.2604L40.0729 41.6354L32.7813 49.9687C32.6884 50.0747 32.5749 50.1608 32.4478 50.2216C32.3207 50.2825 32.1825 50.3169 32.0417 50.3229H32Z" fill="#FA4616"/>
<path d="M55.9583 53.4478H43.4584C43.1821 53.4478 42.9171 53.3381 42.7218 53.1427C42.5264 52.9474 42.4167 52.6824 42.4167 52.4062V40.9479C42.4167 40.6716 42.5264 40.4067 42.7218 40.2113C42.9171 40.016 43.1821 39.9062 43.4584 39.9062H55.9583C56.2346 39.9062 56.4996 40.016 56.6949 40.2113C56.8903 40.4067 57 40.6716 57 40.9479V52.4062C57 52.6824 56.8903 52.9474 56.6949 53.1427C56.4996 53.3381 56.2346 53.4478 55.9583 53.4478ZM44.5 51.3645H54.9167V41.9895H44.5V51.3645Z" fill="#404040"/>
<path d="M20.5417 53.4478H8.04167C7.7654 53.4478 7.50045 53.3381 7.3051 53.1427C7.10975 52.9474 7 52.6824 7 52.4062V40.9479C7 40.6716 7.10975 40.4067 7.3051 40.2113C7.50045 40.016 7.7654 39.9062 8.04167 39.9062H17.4167V41.9895H9.08333V51.3645H19.5V47.1979H21.5833V52.4062C21.5833 52.6824 21.4736 52.9474 21.2782 53.1427C21.0829 53.3381 20.8179 53.4478 20.5417 53.4478Z" fill="#404040"/>
<path d="M14.2917 50.3229C14.0185 50.3217 13.7566 50.2132 13.5626 50.0208L10.4376 46.8958L11.9063 45.4167L14.2396 47.7604L20.8021 40.2604L22.3646 41.6354L15.073 49.9687C14.9801 50.0747 14.8666 50.1608 14.7395 50.2216C14.6124 50.2825 14.4742 50.3169 14.3334 50.3229H14.2917Z" fill="#FA4616"/>
<path d="M19.5 22.1979C18.7908 22.199 18.0888 22.0552 17.4371 21.7755C16.7854 21.4957 16.1977 21.0857 15.7101 20.5708C15.2224 20.0558 14.8451 19.4467 14.6012 18.7807C14.3573 18.1148 14.252 17.406 14.2917 16.6979V15.2083C14.2917 13.827 14.8404 12.5022 15.8172 11.5254C16.7939 10.5487 18.1187 10 19.5 10C20.8813 10 22.2061 10.5487 23.1829 11.5254C24.1596 12.5022 24.7083 13.827 24.7083 15.2083V16.6979C24.7481 17.406 24.6427 18.1148 24.3988 18.7807C24.1549 19.4467 23.7776 20.0558 23.2899 20.5708C22.8023 21.0857 22.2146 21.4957 21.5629 21.7755C20.9112 22.0552 20.2092 22.199 19.5 22.1979ZM19.5 11.7812C19.0629 11.7792 18.6303 11.8688 18.23 12.0444C17.8297 12.22 17.4707 12.4776 17.1762 12.8006C16.8817 13.1236 16.6583 13.5047 16.5202 13.9195C16.3822 14.3342 16.3328 14.7733 16.375 15.2083V16.6979C16.375 17.5267 16.7043 18.3215 17.2903 18.9076C17.8764 19.4936 18.6712 19.8229 19.5 19.8229C20.3288 19.8229 21.1237 19.4936 21.7097 18.9076C22.2958 18.3215 22.625 17.5267 22.625 16.6979V15.2083C22.6673 14.7733 22.6178 14.3342 22.4798 13.9195C22.3418 13.5047 22.1183 13.1236 21.8238 12.8006C21.5293 12.4776 21.1703 12.22 20.77 12.0444C20.3697 11.8688 19.9371 11.7792 19.5 11.7812V11.7812Z" fill="#404040"/>
<path d="M28.8542 37.8229H22.1354L16.6146 31.1979L18.2188 29.8645L23.1146 35.7395H28.8542C29.1252 35.7612 29.3977 35.7241 29.653 35.6306C29.9084 35.5371 30.1404 35.3895 30.3333 35.1979C30.6795 34.7541 30.8861 34.2175 30.9271 33.6562H25.2604L17.9688 25.3229H16.3542C13.9479 25.3229 13.3646 27.6145 13.2292 28.5937C12.875 31.0937 12.1875 36.8437 12.1875 36.927L10.1042 36.6771C10.1042 36.6771 10.7917 30.8437 11.1459 28.3437C11.5938 25.2187 13.5834 23.2812 16.3542 23.2812H18.9167L26.2083 31.6146H32.9167L33.0208 32.5416C33.1817 33.9933 32.779 35.4513 31.8958 36.6146C31.5068 37.0245 31.0333 37.345 30.508 37.5536C29.9828 37.7623 29.4185 37.8541 28.8542 37.8229V37.8229Z" fill="#404040"/>
<path d="M38.25 34.6979H34.0833V32.6145H37.6354L42.6354 24.2812H31.4896L27.625 30.0729L25.8958 28.9166L30.0625 22.6666C30.1568 22.5233 30.2851 22.4056 30.436 22.3238C30.5868 22.242 30.7555 22.1988 30.9271 22.1979H44.4687C44.6533 22.1982 44.8345 22.2476 44.9937 22.3409C45.153 22.4343 45.2845 22.5682 45.375 22.7291C45.4664 22.8875 45.5145 23.0671 45.5145 23.25C45.5145 23.4328 45.4664 23.6124 45.375 23.7708L39.125 34.1875C39.0346 34.34 38.9068 34.4669 38.7537 34.5562C38.6006 34.6455 38.4272 34.6943 38.25 34.6979Z" fill="#FA4616"/>
<path d="M53.875 35.7395H18.4583V37.8229H53.875V35.7395Z" fill="#404040"/>
</svg>
