<svg width="64" height="64" viewBox="0 0 64 64" fill="none" xmlns="http://www.w3.org/2000/svg">
<path d="M42.3989 37.1192C42.1031 37.1188 41.8109 37.0554 41.5415 36.9333C41.2722 36.8112 41.0319 36.6331 40.8367 36.4109L35.6295 29.829H30.9325V27.7461H36.6397L42.4197 35.0363V27.7461H53.8757C54.1519 27.7461 54.4168 27.6364 54.6121 27.4411C54.8074 27.2457 54.9171 26.9809 54.9171 26.7047V12.1244C54.9171 11.8481 54.8074 11.5832 54.6121 11.3879C54.4168 11.1926 54.1519 11.0829 53.8757 11.0829H28.8809C28.6046 11.0829 28.3398 11.1926 28.1444 11.3879C27.9491 11.5832 27.8394 11.8481 27.8394 12.1244V21.4974H25.7565V12.1244C25.7565 11.2957 26.0857 10.501 26.6716 9.91508C27.2575 9.32915 28.0522 9 28.8809 9H53.8757C54.7043 9 55.499 9.32915 56.0849 9.91508C56.6709 10.501 57 11.2957 57 12.1244V26.7047C57 27.5333 56.6709 28.328 56.0849 28.9139C55.499 29.4998 54.7043 29.829 53.8757 29.829H44.5026V35.0363C44.5019 35.4601 44.3719 35.8735 44.13 36.2215C43.888 36.5695 43.5457 36.8354 43.1487 36.9838C42.9096 37.076 42.6552 37.122 42.3989 37.1192V37.1192Z" fill="#404040"/>
<path d="M12.2073 41.285C10.8427 41.2334 9.54789 40.6682 8.58229 39.7026C7.61669 38.737 7.05155 37.4423 7 36.0777V28.7875C7 24.7051 13.0508 22.5388 17.4145 22.5388C17.6907 22.5388 17.9556 22.6486 18.1509 22.8439C18.3462 23.0392 18.456 23.3041 18.456 23.5803C18.456 23.8565 18.3462 24.1214 18.1509 24.3167C17.9556 24.512 17.6907 24.6217 17.4145 24.6217C14.0923 24.6217 9.0829 26.2777 9.0829 28.7875V36.0777C9.13447 36.8894 9.48019 37.6545 10.0553 38.2296C10.6304 38.8047 11.3955 39.1505 12.2073 39.2021C12.4835 39.2021 12.7483 39.3118 12.9437 39.5071C13.139 39.7024 13.2487 39.9673 13.2487 40.2435C13.2487 40.5197 13.139 40.7846 12.9437 40.9799C12.7483 41.1752 12.4835 41.285 12.2073 41.285Z" fill="#404040"/>
<path d="M22.6217 41.285C22.3455 41.285 22.0806 41.1752 21.8853 40.9799C21.69 40.7846 21.5803 40.5197 21.5803 40.2435C21.5803 39.9673 21.69 39.7024 21.8853 39.5071C22.0806 39.3118 22.3455 39.2021 22.6217 39.2021C23.4335 39.1505 24.1985 38.8047 24.7736 38.2296C25.3488 37.6545 25.6945 36.8894 25.7461 36.0777V28.7875C25.7461 26.2777 20.7263 24.6217 17.4145 24.6217C17.1383 24.6217 16.8734 24.512 16.6781 24.3167C16.4828 24.1214 16.373 23.8565 16.373 23.5803C16.373 23.3041 16.4828 23.0392 16.6781 22.8439C16.8734 22.6486 17.1383 22.5388 17.4145 22.5388C21.7782 22.5388 27.829 24.7051 27.829 28.7875V36.0777C27.7751 37.4415 27.2091 38.7349 26.244 39.7C25.2789 40.6651 23.9855 41.231 22.6217 41.285Z" fill="#404040"/>
<path d="M12.2073 54.8238C11.931 54.8238 11.6661 54.7141 11.4708 54.5188C11.2755 54.3234 11.1658 54.0586 11.1658 53.7824V29.829C11.1658 29.5528 11.2755 29.2879 11.4708 29.0926C11.6661 28.8973 11.931 28.7876 12.2073 28.7876C12.4835 28.7876 12.7483 28.8973 12.9437 29.0926C13.139 29.2879 13.2487 29.5528 13.2487 29.829V53.7824C13.2487 54.0586 13.139 54.3234 12.9437 54.5188C12.7483 54.7141 12.4835 54.8238 12.2073 54.8238Z" fill="#404040"/>
<path d="M22.6217 54.8238C22.3455 54.8238 22.0806 54.7141 21.8853 54.5188C21.69 54.3234 21.5803 54.0586 21.5803 53.7824V29.829C21.5803 29.5528 21.69 29.2879 21.8853 29.0926C22.0806 28.8973 22.3455 28.7876 22.6217 28.7876C22.898 28.7876 23.1628 28.8973 23.3581 29.0926C23.5535 29.2879 23.6632 29.5528 23.6632 29.829V53.7824C23.6632 54.0586 23.5535 54.3234 23.3581 54.5188C23.1628 54.7141 22.898 54.8238 22.6217 54.8238Z" fill="#404040"/>
<path d="M17.4145 54.8238C17.1383 54.8238 16.8734 54.7141 16.6781 54.5188C16.4828 54.3234 16.373 54.0586 16.373 53.7824V39.202C16.373 38.9258 16.4828 38.6609 16.6781 38.4656C16.8734 38.2703 17.1383 38.1606 17.4145 38.1606C17.6907 38.1606 17.9556 38.2703 18.1509 38.4656C18.3462 38.6609 18.4559 38.9258 18.4559 39.202V53.7824C18.4559 54.0586 18.3462 54.3234 18.1509 54.5188C17.9556 54.7141 17.6907 54.8238 17.4145 54.8238Z" fill="#404040"/>
<path d="M17.4145 21.4974C16.7244 21.5206 16.0369 21.4018 15.3946 21.1483C14.7523 20.8948 14.169 20.5121 13.6807 20.0239C13.1925 19.5356 12.8098 18.9523 12.5563 18.31C12.3028 17.6677 12.184 16.9802 12.2072 16.2902V14.2073C12.2072 12.8262 12.7558 11.5017 13.7324 10.5251C14.7089 9.5486 16.0334 9 17.4145 9C18.7955 9 20.12 9.5486 21.0965 10.5251C22.0731 11.5017 22.6217 12.8262 22.6217 14.2073V16.2902C22.6449 16.9802 22.5261 17.6677 22.2727 18.31C22.0192 18.9523 21.6364 19.5356 21.1482 20.0239C20.66 20.5121 20.0766 20.8948 19.4344 21.1483C18.7921 21.4018 18.1046 21.5206 17.4145 21.4974ZM17.4145 11.0829C16.9974 11.057 16.5797 11.1201 16.1888 11.2679C15.798 11.4158 15.4431 11.645 15.1477 11.9405C14.8522 12.2359 14.623 12.5908 14.4751 12.9816C14.3273 13.3724 14.2642 13.7902 14.2901 14.2073V16.2902C14.2901 17.1188 14.6193 17.9135 15.2052 18.4994C15.7911 19.0853 16.5858 19.4145 17.4145 19.4145C18.2431 19.4145 19.0378 19.0853 19.6237 18.4994C20.2096 17.9135 20.5388 17.1188 20.5388 16.2902V14.2073C20.563 13.7906 20.4988 13.3736 20.3504 12.9835C20.2019 12.5935 19.9726 12.2393 19.6775 11.9442C19.3824 11.6491 19.0282 11.4198 18.6382 11.2713C18.2481 11.1229 17.8311 11.0587 17.4145 11.0829V11.0829Z" fill="#404040"/>
<path d="M50.7409 43.3679C50.163 43.3426 49.596 43.2027 49.0727 42.9564C48.5493 42.71 48.0802 42.362 47.6926 41.9327C47.305 41.5034 47.0065 41.0014 46.8147 40.4557C46.6229 39.91 46.5414 39.3316 46.5751 38.7542V37.567C46.5751 36.4621 47.014 35.4026 47.7952 34.6213C48.5765 33.8401 49.6361 33.4012 50.7409 33.4012C51.8457 33.4012 52.9053 33.8401 53.6866 34.6213C54.4678 35.4026 54.9067 36.4621 54.9067 37.567V38.7959C54.9347 39.3699 54.849 39.9438 54.6546 40.4847C54.4601 41.0255 54.1608 41.5226 53.7737 41.9474C53.3866 42.3722 52.9195 42.7164 52.399 42.9602C51.8785 43.2039 51.3151 43.3425 50.7409 43.3679V43.3679ZM50.7409 35.0363C50.4377 35.065 50.1431 35.1533 49.8741 35.2961C49.6051 35.439 49.3671 35.6336 49.1735 35.8687C48.98 36.1039 48.8348 36.375 48.7463 36.6664C48.6579 36.9579 48.6278 37.2639 48.658 37.567V38.7959C48.658 39.3483 48.8774 39.8781 49.2681 40.2687C49.6587 40.6593 50.1885 40.8788 50.7409 40.8788C51.2933 40.8788 51.8231 40.6593 52.2137 40.2687C52.6043 39.8781 52.8238 39.3483 52.8238 38.7959V37.6086C52.8598 37.3023 52.8342 36.9919 52.7485 36.6956C52.6627 36.3993 52.5186 36.1232 52.3245 35.8835C52.1304 35.6438 51.8902 35.4453 51.6183 35.2998C51.3463 35.1543 51.048 35.0647 50.7409 35.0363Z" fill="#404040"/>
<path d="M55.9481 47.5336C55.6719 47.5336 55.407 47.4239 55.2117 47.2286C55.0164 47.0333 54.9067 46.7684 54.9067 46.4922V45.4507C54.9067 44.3156 52.3447 43.3678 50.7409 43.3678C49.1371 43.3678 46.5751 44.3156 46.5751 45.4507V46.4922C46.5751 46.7684 46.4653 47.0333 46.27 47.2286C46.0747 47.4239 45.8098 47.5336 45.5336 47.5336C45.2574 47.5336 44.9925 47.4239 44.7972 47.2286C44.6019 47.0333 44.4922 46.7684 44.4922 46.4922V45.4507C44.4922 42.5451 48.658 41.2849 50.7409 41.2849C52.8238 41.2849 56.9896 42.5451 56.9896 45.4507V46.4922C56.9896 46.7684 56.8799 47.0333 56.6845 47.2286C56.4892 47.4239 56.2243 47.5336 55.9481 47.5336Z" fill="#404040"/>
<path d="M38.2435 49.6166C37.6656 49.5913 37.0986 49.4514 36.5753 49.205C36.0519 48.9587 35.5828 48.6107 35.1952 48.1814C34.8076 47.7521 34.5091 47.2501 34.3173 46.7044C34.1254 46.1587 34.044 45.5803 34.0777 45.0029V43.8157C34.0777 42.7108 34.5166 41.6512 35.2978 40.87C36.0791 40.0888 37.1386 39.6499 38.2435 39.6499C39.3483 39.6499 40.4079 40.0888 41.1892 40.87C41.9704 41.6512 42.4093 42.7108 42.4093 43.8157V45.0446C42.4373 45.6186 42.3516 46.1925 42.1572 46.7333C41.9627 47.2742 41.6634 47.7713 41.2763 48.1961C40.8892 48.6209 40.422 48.9651 39.9016 49.2089C39.3811 49.4526 38.8176 49.5912 38.2435 49.6166V49.6166ZM38.2435 41.285C37.9403 41.3136 37.6457 41.4019 37.3767 41.5448C37.1077 41.6877 36.8696 41.8823 36.6761 42.1174C36.4826 42.3526 36.3374 42.6237 36.2489 42.9151C36.1604 43.2066 36.1304 43.5126 36.1606 43.8157V45.0446C36.1606 45.597 36.38 46.1268 36.7707 46.5174C37.1613 46.908 37.6911 47.1275 38.2435 47.1275C38.7959 47.1275 39.3257 46.908 39.7163 46.5174C40.1069 46.1268 40.3264 45.597 40.3264 45.0446V43.8573C40.3624 43.551 40.3368 43.2406 40.2511 42.9443C40.1653 42.648 40.0211 42.3719 39.8271 42.1322C39.633 41.8925 39.3928 41.694 39.1209 41.5485C38.8489 41.403 38.5506 41.3134 38.2435 41.285Z" fill="#404040"/>
<path d="M43.4508 53.7824C43.1746 53.7824 42.9096 53.6726 42.7143 53.4773C42.519 53.282 42.4093 53.0171 42.4093 52.7409V51.6995C42.4093 50.5643 39.8473 49.6166 38.2435 49.6166C36.6397 49.6166 34.0777 50.5643 34.0777 51.6995V52.7409C34.0777 53.0171 33.968 53.282 33.7727 53.4773C33.5774 53.6726 33.3125 53.7824 33.0363 53.7824C32.7601 53.7824 32.4951 53.6726 32.2998 53.4773C32.1045 53.282 31.9948 53.0171 31.9948 52.7409V51.6995C31.9948 48.7938 36.1606 47.5337 38.2435 47.5337C40.3264 47.5337 44.4922 48.7938 44.4922 51.6995V52.7409C44.4922 53.0171 44.3825 53.282 44.1872 53.4773C43.9919 53.6726 43.727 53.7824 43.4508 53.7824Z" fill="#404040"/>
<path d="M37.2021 18.3731H35.1192V20.456H37.2021V18.3731Z" fill="#FA4616"/>
<path d="M42.4093 18.3731H40.3264V20.456H42.4093V18.3731Z" fill="#FA4616"/>
<path d="M47.6166 18.3731H45.5337V20.456H47.6166V18.3731Z" fill="#FA4616"/>
</svg>
