<svg width="64" height="64" viewBox="0 0 64 64" fill="none" xmlns="http://www.w3.org/2000/svg">
<path d="M36.1667 44.4167H10.125C9.84871 44.4167 9.58376 44.3069 9.38841 44.1116C9.19306 43.9162 9.08331 43.6513 9.08331 43.375V14.2083C9.08331 13.9321 9.19306 13.6671 9.38841 13.4718C9.58376 13.2764 9.84871 13.1667 10.125 13.1667H36.1667C36.4429 13.1667 36.7079 13.2764 36.9032 13.4718C37.0986 13.6671 37.2083 13.9321 37.2083 14.2083V26.7083H35.125V15.25H11.1666V42.3333H35.125V39.2083H37.2083V43.375C37.2083 43.6513 37.0986 43.9162 36.9032 44.1116C36.7079 44.3069 36.4429 44.4167 36.1667 44.4167Z" fill="#FA4616"/>
<path d="M46.5834 24.625C45.8776 24.6116 45.1815 24.4577 44.5359 24.1723C43.8902 23.8869 43.3079 23.4756 42.823 22.9626C42.3381 22.4496 41.9603 21.8451 41.7117 21.1844C41.4631 20.5237 41.3486 19.82 41.3751 19.1146V17.625C41.3751 16.2437 41.9238 14.9189 42.9005 13.9421C43.8773 12.9654 45.2021 12.4167 46.5834 12.4167C47.9647 12.4167 49.2895 12.9654 50.2662 13.9421C51.243 14.9189 51.7917 16.2437 51.7917 17.625V19.1146C51.8182 19.82 51.7037 20.5237 51.4551 21.1844C51.2065 21.8451 50.8287 22.4496 50.3438 22.9626C49.8589 23.4756 49.2766 23.8869 48.6309 24.1723C47.9853 24.4577 47.2892 24.6116 46.5834 24.625V24.625ZM46.5834 14.2083C46.1528 14.2243 45.7297 14.3258 45.3387 14.5068C44.9477 14.6878 44.5966 14.9447 44.3058 15.2626C44.015 15.5805 43.7904 15.9531 43.6449 16.3587C43.4994 16.7643 43.436 17.1947 43.4584 17.625V19.1146C43.4584 19.9434 43.7876 20.7382 44.3737 21.3243C44.9597 21.9103 45.7546 22.2396 46.5834 22.2396C47.4122 22.2396 48.207 21.9103 48.7931 21.3243C49.3791 20.7382 49.7084 19.9434 49.7084 19.1146V17.625C49.7322 17.1944 49.6698 16.7634 49.5249 16.3572C49.3799 15.951 49.1553 15.5779 48.8642 15.2596C48.5732 14.9414 48.2215 14.6845 47.8298 14.504C47.4382 14.3234 47.0144 14.2229 46.5834 14.2083V14.2083Z" fill="#404040"/>
<path d="M42.4167 55.875H40.3333V35.8229C39.3898 36.4626 38.3269 36.9055 37.2083 37.125C36.0833 37.125 34.1979 36.2188 32.4063 34.8125C31.5127 34.1196 30.6573 33.379 29.8438 32.5937C29.4456 32.1825 29.1978 31.649 29.1407 31.0794C29.0835 30.5099 29.2203 29.9377 29.5289 29.4556C29.8374 28.9734 30.2997 28.6096 30.8408 28.4229C31.382 28.2363 31.9702 28.2377 32.5104 28.4271C33.7604 28.9062 35.0208 29.375 35.8854 29.6875L36.0417 29.5104C37.4896 27.9063 39.4583 25.7083 43.4583 25.7083H50.75C55.1354 25.7083 57 27.8854 57 33V40.2917C57 43.5 55.4063 45.5 52.8333 45.5V43.4167C54.6563 43.4167 54.9167 41.4583 54.9167 40.2917V33C54.9167 28.5625 53.5729 27.7917 50.75 27.7917H43.4583C40.3333 27.7917 38.9688 29.3646 37.5938 30.9167C37.3646 31.1771 37.1458 31.4271 36.9271 31.6563L36.4479 32.1458L35.8125 31.9062C35.0521 31.6354 33.4167 31.0104 31.7813 30.4062C31.6826 30.3617 31.5707 30.3563 31.4682 30.3911C31.3658 30.4259 31.2803 30.4983 31.2292 30.5937C31.1669 30.6781 31.1387 30.783 31.1503 30.8872C31.1618 30.9915 31.2123 31.0876 31.2917 31.1562C32 31.8437 32.8542 32.5833 33.6875 33.2396C34.6931 34.1366 35.9012 34.7765 37.2083 35.1042C38.46 34.539 39.6621 33.87 40.8021 33.1042L42.3854 32.1354L42.4167 55.875Z" fill="#404040"/>
<path d="M47.625 41.2917H45.5417V55.875H47.625V41.2917Z" fill="#404040"/>
<path d="M52.8333 32.9583H50.75V55.875H52.8333V32.9583Z" fill="#404040"/>
<path d="M38.25 15.25H8.04167C7.7654 15.25 7.50045 15.1402 7.3051 14.9449C7.10975 14.7495 7 14.4846 7 14.2083V10.0417C7 9.7654 7.10975 9.50043 7.3051 9.30508C7.50045 9.10973 7.7654 9 8.04167 9H38.25C38.5263 9 38.7912 9.10973 38.9866 9.30508C39.1819 9.50043 39.2917 9.7654 39.2917 10.0417V14.2083C39.2917 14.4846 39.1819 14.7495 38.9866 14.9449C38.7912 15.1402 38.5263 15.25 38.25 15.25ZM9.08333 13.1667H37.2083V11.0833H9.08333V13.1667Z" fill="#FA4616"/>
<path d="M16.375 43.375H14.2917V55.875H16.375V43.375Z" fill="#FA4616"/>
<path d="M32 43.375H29.9167V55.875H32V43.375Z" fill="#FA4616"/>
</svg>
