<svg width="64" height="64" viewBox="0 0 64 64" fill="none" xmlns="http://www.w3.org/2000/svg">
<path d="M39.2917 33.9167H37.2083V30.7917H34.0833V33.9167H32V28.7083H39.2917V33.9167Z" fill="#FA4616"/>
<path d="M44.5 33.9167H42.4166V26.625H39.2916V33.9167H37.2083V24.5417H44.5V33.9167Z" fill="#FA4616"/>
<path d="M49.7084 33.9167H47.625V21.4167H44.5V33.9167H42.4167V19.3333H49.7084V33.9167Z" fill="#FA4616"/>
<path d="M27.25 41.2083H23.6667V33.9167H25.75V39.125H27.25V41.2083Z" fill="#404040"/>
<path d="M57 41.2083H52.8959V39.125H54.9167V13.0833H25.75V22.4583H23.6667V11H57V41.2083Z" fill="#404040"/>
<path d="M15.3334 26.625C14.6281 26.613 13.9322 26.4604 13.2866 26.1761C12.641 25.8918 12.0586 25.4816 11.5736 24.9693C11.0885 24.4571 10.7106 23.8533 10.4619 23.1932C10.2131 22.533 10.0986 21.8299 10.1251 21.125V19.6354C10.1251 18.2541 10.6738 16.9293 11.6505 15.9526C12.6273 14.9758 13.9521 14.4271 15.3334 14.4271C16.7147 14.4271 18.0395 14.9758 19.0162 15.9526C19.993 16.9293 20.5417 18.2541 20.5417 19.6354V21.125C20.5682 21.8299 20.4537 22.533 20.2049 23.1932C19.9562 23.8533 19.5782 24.4571 19.0932 24.9693C18.6081 25.4816 18.0258 25.8918 17.3802 26.1761C16.7346 26.4604 16.0387 26.613 15.3334 26.625ZM15.3334 16.2083C14.9024 16.2257 14.479 16.3284 14.088 16.5105C13.6969 16.6926 13.3459 16.9505 13.0552 17.2693C12.7646 17.588 12.54 17.9613 12.3947 18.3675C12.2493 18.7736 12.186 19.2046 12.2084 19.6354V21.125C12.2084 21.9538 12.5376 22.7486 13.1237 23.3347C13.7097 23.9207 14.5046 24.25 15.3334 24.25C16.1622 24.25 16.9571 23.9207 17.5431 23.3347C18.1292 22.7486 18.4584 21.9538 18.4584 21.125V19.6354C18.4808 19.2046 18.4175 18.7736 18.2721 18.3675C18.1267 17.9613 17.9022 17.588 17.6116 17.2693C17.3209 16.9505 16.9699 16.6926 16.5788 16.5105C16.1878 16.3284 15.7644 16.2257 15.3334 16.2083Z" fill="#404040"/>
<path d="M21.5833 41.2083H19.5V31.0938L20.2083 30.8542C20.4167 30.7813 25.4167 29.1042 26.4583 28.7708C27.0015 28.6668 27.504 28.4109 27.9078 28.033C28.3115 27.6551 28.5999 27.1705 28.7396 26.6354H14.2917C10.6458 26.6354 9.08333 28.1979 9.08333 31.8438V41.2188H7V31.8438C7 27.0729 9.52083 24.5521 14.2917 24.5521H30.9583V25.5938C31.0282 26.776 30.6806 27.9452 29.9761 28.8971C29.2717 29.8491 28.2552 30.5233 27.1042 30.8021C26.2813 31.0521 23.0417 32.1459 21.5833 32.6354V41.2083Z" fill="#404040"/>
<path d="M41.375 52.6667H39.2917V50.5833C39.2917 46.9583 36.5521 46.4167 34.9167 46.4167H32.2083C30.5729 46.4167 27.8333 46.9583 27.8333 50.5833V52.6667H25.75V50.5833C25.75 45.9792 29.0833 44.3333 32.2083 44.3333H34.9167C38.0417 44.3333 41.375 45.9792 41.375 50.5833V52.6667Z" fill="#404040"/>
<path d="M33.5937 46.4167C32.9973 46.4432 32.4015 46.3504 31.8412 46.1439C31.281 45.9373 30.7677 45.6211 30.3312 45.2137C29.8946 44.8063 29.5438 44.3159 29.2991 43.7712C29.0545 43.2266 28.9209 42.6386 28.9062 42.0417V40.375C28.9856 39.1858 29.5139 38.0712 30.3843 37.257C31.2546 36.4428 32.4019 35.9898 33.5937 35.9898C34.7856 35.9898 35.9329 36.4428 36.8032 37.257C37.6736 38.0712 38.2019 39.1858 38.2812 40.375V42.0417C38.2666 42.6386 38.133 43.2266 37.8884 43.7712C37.6437 44.3159 37.2929 44.8063 36.8563 45.2137C36.4198 45.6211 35.9065 45.9373 35.3463 46.1439C34.786 46.3504 34.1902 46.4432 33.5937 46.4167V46.4167ZM33.5937 38.0833C33.2721 38.0622 32.9495 38.1047 32.6444 38.2085C32.3393 38.3123 32.0576 38.4754 31.8157 38.6883C31.5737 38.9012 31.3762 39.1598 31.2344 39.4493C31.0927 39.7387 31.0095 40.0533 30.9896 40.375V42.0417C31.0699 42.6756 31.3788 43.2585 31.8582 43.681C32.3376 44.1035 32.9547 44.3366 33.5937 44.3366C34.2328 44.3366 34.8499 44.1035 35.3293 43.681C35.8087 43.2585 36.1176 42.6756 36.1979 42.0417V40.375C36.178 40.0533 36.0948 39.7387 35.9531 39.4493C35.8113 39.1598 35.6138 38.9012 35.3718 38.6883C35.1299 38.4754 34.8482 38.3123 34.5431 38.2085C34.238 38.1047 33.9154 38.0622 33.5937 38.0833V38.0833Z" fill="#404040"/>
<path d="M54.9167 52.6667H52.8334V50.5833C52.8334 46.9583 50.0938 46.4167 48.4584 46.4167H45.75C44.1146 46.4167 41.375 46.9583 41.375 50.5833V52.6667H39.2917V50.5833C39.2917 45.9792 42.625 44.3333 45.75 44.3333H48.4584C51.5834 44.3333 54.9167 45.9792 54.9167 50.5833V52.6667Z" fill="#404040"/>
<path d="M47.1354 46.4167C46.5389 46.4432 45.9431 46.3504 45.3829 46.1439C44.8227 45.9373 44.3093 45.6211 43.8728 45.2137C43.4363 44.8063 43.0855 44.3159 42.8408 43.7712C42.5962 43.2266 42.4626 42.6386 42.4479 42.0417V40.375C42.5273 39.1858 43.0556 38.0712 43.926 37.257C44.7963 36.4428 45.9436 35.9898 47.1354 35.9898C48.3273 35.9898 49.4746 36.4428 50.3449 37.257C51.2153 38.0712 51.7436 39.1858 51.8229 40.375V42.0417C51.8083 42.6386 51.6747 43.2266 51.4301 43.7712C51.1854 44.3159 50.8345 44.8063 50.398 45.2137C49.9615 45.6211 49.4482 45.9373 48.8879 46.1439C48.3277 46.3504 47.7319 46.4432 47.1354 46.4167V46.4167ZM47.1354 38.0833C46.8138 38.0622 46.4912 38.1047 46.1861 38.2085C45.8809 38.3123 45.5993 38.4754 45.3574 38.6883C45.1154 38.9012 44.9179 39.1598 44.7761 39.4493C44.6343 39.7387 44.5511 40.0533 44.5313 40.375V42.0417C44.6116 42.6756 44.9205 43.2585 45.3999 43.681C45.8793 44.1035 46.4964 44.3366 47.1354 44.3366C47.7745 44.3366 48.3916 44.1035 48.871 43.681C49.3504 43.2585 49.6593 42.6756 49.7396 42.0417V40.375C49.7197 40.0533 49.6365 39.7387 49.4948 39.4493C49.353 39.1598 49.1555 38.9012 48.9135 38.6883C48.6716 38.4754 48.3899 38.3123 48.0848 38.2085C47.7797 38.1047 47.457 38.0622 47.1354 38.0833V38.0833Z" fill="#404040"/>
</svg>
