<svg width="64" height="64" viewBox="0 0 64 64" fill="none" xmlns="http://www.w3.org/2000/svg">
<path d="M22.8529 17.42C22.7158 17.4208 22.5799 17.3946 22.453 17.3427C22.3261 17.2909 22.2107 17.2145 22.1134 17.118C22.0158 17.0212 21.9383 16.906 21.8854 16.779C21.8325 16.6521 21.8053 16.516 21.8053 16.3785C21.8053 16.241 21.8325 16.1048 21.8854 15.9779C21.9383 15.851 22.0158 15.7358 22.1134 15.6389L30.446 7.30632C30.6422 7.11019 30.9082 7 31.1855 7C31.4629 7 31.7289 7.11019 31.925 7.30632C32.1212 7.50245 32.2314 7.76847 32.2314 8.04584C32.2314 8.32321 32.1212 8.58923 31.925 8.78536L23.5924 17.118C23.4951 17.2145 23.3797 17.2909 23.2528 17.3427C23.1259 17.3946 22.99 17.4208 22.8529 17.42V17.42Z" fill="#404040"/>
<path d="M17.645 22.6279C17.508 22.6287 17.3721 22.6025 17.2452 22.5506C17.1183 22.4988 17.0028 22.4224 16.9055 22.3259C16.8079 22.2291 16.7304 22.1139 16.6775 21.9869C16.6246 21.86 16.5974 21.7239 16.5974 21.5864C16.5974 21.4489 16.6246 21.3127 16.6775 21.1858C16.7304 21.0589 16.8079 20.9437 16.9055 20.8468L18.9887 18.7637C19.1848 18.5676 19.4508 18.4574 19.7282 18.4574C20.0056 18.4574 20.2716 18.5676 20.4677 18.7637C20.6638 18.9598 20.774 19.2258 20.774 19.5032C20.774 19.7806 20.6638 20.0466 20.4677 20.2427L18.3845 22.3259C18.2872 22.4224 18.1718 22.4988 18.0449 22.5506C17.918 22.6025 17.7821 22.6287 17.645 22.6279V22.6279Z" fill="#404040"/>
<path d="M33.2687 49.7089C33.1316 49.7097 32.9957 49.6834 32.8688 49.6316C32.7419 49.5798 32.6265 49.5034 32.5292 49.4069C32.4315 49.31 32.3541 49.1948 32.3012 49.0679C32.2483 48.941 32.2211 48.8048 32.2211 48.6673C32.2211 48.5298 32.2483 48.3937 32.3012 48.2668C32.3541 48.1399 32.4315 48.0247 32.5292 47.9278L41.9034 38.5536C42.0995 38.3575 42.3655 38.2473 42.6429 38.2473C42.9203 38.2473 43.1863 38.3575 43.3824 38.5536C43.5785 38.7498 43.6887 39.0158 43.6887 39.2932C43.6887 39.5705 43.5785 39.8365 43.3824 40.0327L34.0082 49.4069C33.9109 49.5034 33.7955 49.5798 33.6686 49.6316C33.5417 49.6834 33.4058 49.7097 33.2687 49.7089Z" fill="#404040"/>
<path d="M28.0608 54.9168C27.9237 54.9176 27.7878 54.8913 27.6609 54.8395C27.534 54.7877 27.4186 54.7113 27.3213 54.6148C27.2237 54.5179 27.1462 54.4027 27.0933 54.2758C27.0404 54.1489 27.0132 54.0127 27.0132 53.8752C27.0132 53.7377 27.0404 53.6016 27.0933 53.4747C27.1462 53.3477 27.2237 53.2325 27.3213 53.1357L29.4044 51.0526C29.5016 50.9554 29.6168 50.8784 29.7437 50.8259C29.8706 50.7733 30.0066 50.7462 30.144 50.7462C30.2813 50.7462 30.4173 50.7733 30.5442 50.8259C30.6711 50.8784 30.7864 50.9554 30.8835 51.0526C30.9806 51.1497 31.0576 51.265 31.1102 51.3919C31.1627 51.5187 31.1898 51.6547 31.1898 51.7921C31.1898 51.9294 31.1627 52.0654 31.1102 52.1923C31.0576 52.3192 30.9806 52.4345 30.8835 52.5316L28.8003 54.6148C28.703 54.7113 28.5876 54.7877 28.4607 54.8395C28.3338 54.8913 28.1979 54.9176 28.0608 54.9168Z" fill="#404040"/>
<path d="M50.7359 21.2114C50.4827 21.211 50.2384 21.1185 50.0485 20.951C49.9452 20.8598 49.8611 20.749 49.8009 20.625C49.7407 20.5011 49.7058 20.3664 49.698 20.2289C49.6903 20.0913 49.7099 19.9536 49.7558 19.8236C49.8016 19.6937 49.8728 19.5742 49.9652 19.4719L53.8607 15.1077C54.1375 14.5821 54.2908 14.0002 54.3088 13.4064C54.3269 12.8126 54.2092 12.2224 53.9648 11.6809L50.9443 14.3995C50.7385 14.5859 50.467 14.683 50.1896 14.6693C49.9122 14.6557 49.6517 14.5324 49.4652 14.3266C49.2787 14.1208 49.1817 13.8493 49.1953 13.5719C49.209 13.2946 49.3323 13.034 49.5381 12.8475L53.569 9.22283C53.6794 9.12437 53.8094 9.05055 53.9505 9.00626C54.0916 8.96198 54.2405 8.94825 54.3874 8.96598C54.5342 8.98372 54.6755 9.03252 54.802 9.10913C54.9285 9.18574 55.0372 9.28841 55.121 9.41031C55.2251 9.55613 57.5999 13.0871 55.5689 16.2951L55.4647 16.4305L51.5067 20.8677C51.4093 20.9756 51.2904 21.0619 51.1577 21.1211C51.025 21.1803 50.8813 21.211 50.7359 21.2114V21.2114Z" fill="#404040"/>
<path d="M16.6034 57H16.541C16.3941 56.9886 16.251 56.9477 16.1204 56.8797C15.9897 56.8117 15.8741 56.718 15.7806 56.6042C15.6348 56.4063 12.1871 51.9275 14.5099 48.9694C14.6811 48.7526 14.9315 48.6126 15.206 48.5804C15.4804 48.5482 15.7564 48.6263 15.9733 48.7976C16.1901 48.9688 16.3301 49.2192 16.3623 49.4937C16.3945 49.7681 16.3164 50.0441 16.1451 50.261C15.3327 51.3026 16.0618 53.1045 16.7701 54.3231L40.5285 30.5648C40.7277 30.3941 40.984 30.305 41.2462 30.3151C41.5083 30.3252 41.757 30.4339 41.9425 30.6194C42.128 30.8049 42.2367 31.0535 42.2468 31.3157C42.2569 31.5778 42.1677 31.8341 41.9971 32.0334L17.343 56.6979C17.2456 56.7945 17.1302 56.8708 17.0033 56.9227C16.8764 56.9745 16.7405 57.0008 16.6034 57V57Z" fill="#404040"/>
<path d="M14.2078 39.3452C14.0412 39.3459 13.8769 39.3066 13.7287 39.2307C12.8121 38.762 11.4476 38.1891 10.229 37.6891L8.91659 37.1163C8.658 37.0147 8.43408 36.8409 8.27155 36.6156C8.10903 36.3903 8.01476 36.123 8 35.8455C8 34.804 9.09366 33.8978 9.69778 33.5853C12.5517 32.1063 14.1974 30.1481 16.0931 27.8983C16.5201 27.3775 16.968 26.8567 17.4471 26.3047C18.4742 25.0999 19.8684 24.2656 21.4155 23.9299C22.2643 23.6793 23.1268 23.4776 23.9986 23.3258C25.2923 23.1368 26.5518 22.7614 27.7379 22.2113C28.1337 22.0134 28.4983 21.7843 28.8524 21.5655C29.6407 21.0321 30.4996 20.6114 31.4042 20.3156C34.2582 19.472 36.5288 21.2739 38.1849 22.93C38.3811 23.1261 38.4913 23.3921 38.4913 23.6695C38.4913 23.9469 38.3811 24.2129 38.1849 24.409C37.9888 24.6052 37.7228 24.7154 37.4454 24.7154C37.168 24.7154 36.902 24.6052 36.7059 24.409C34.7998 22.4925 33.4353 21.8884 31.9875 22.3259C31.2478 22.5738 30.5466 22.9244 29.9044 23.3675C29.4982 23.6174 29.092 23.8674 28.6545 24.0966C27.2913 24.7368 25.8422 25.1754 24.3528 25.3985C23.5577 25.5348 22.7716 25.7191 21.9988 25.9506C20.8154 26.1695 19.7444 26.7915 18.9678 27.7108L17.645 29.2732C15.6869 31.6063 13.8433 33.8041 10.6144 35.5227L10.4685 35.606L11.0102 35.8351C12.2497 36.3559 13.6662 36.9496 14.6557 37.4496C14.8641 37.5563 15.0304 37.7302 15.1279 37.943C15.2253 38.1559 15.2482 38.3954 15.1928 38.6229C15.1375 38.8504 15.0071 39.0526 14.8227 39.1969C14.6383 39.3412 14.4107 39.4191 14.1765 39.4182L14.2078 39.3452Z" fill="#FA4616"/>
<path d="M42.6429 22.6279C41.9371 22.6146 41.2411 22.4607 40.5955 22.1753C39.9499 21.8899 39.3677 21.4787 38.8828 20.9657C38.3979 20.4527 38.0202 19.8482 37.7716 19.1876C37.523 18.5269 37.4086 17.8233 37.435 17.118V15.6285C37.435 14.2473 37.9837 12.9226 38.9603 11.946C39.937 10.9693 41.2617 10.4206 42.6429 10.4206C44.0241 10.4206 45.3487 10.9693 46.3254 11.946C47.3021 12.9226 47.8508 14.2473 47.8508 15.6285V17.118C47.8786 17.8237 47.7652 18.5279 47.5171 19.1892C47.269 19.8504 46.8914 20.4555 46.4062 20.9688C45.9211 21.482 45.3383 21.8932 44.692 22.1781C44.0457 22.4631 43.3491 22.616 42.6429 22.6279ZM42.6429 12.2121C42.2124 12.2281 41.7893 12.3296 41.3983 12.5105C41.0073 12.6915 40.6563 12.9484 40.3655 13.2664C40.0747 13.5843 39.8501 13.9568 39.7046 14.3623C39.5591 14.7679 39.4958 15.1983 39.5182 15.6285V17.118C39.5182 17.9467 39.8473 18.7415 40.4333 19.3275C41.0193 19.9135 41.8142 20.2427 42.6429 20.2427C43.4716 20.2427 44.2664 19.9135 44.8524 19.3275C45.4384 18.7415 45.7676 17.9467 45.7676 17.118V15.6285C45.79 15.1983 45.7266 14.7679 45.5812 14.3623C45.4357 13.9568 45.211 13.5843 44.9203 13.2664C44.6295 12.9484 44.2784 12.6915 43.8875 12.5105C43.4965 12.3296 43.0734 12.2281 42.6429 12.2121V12.2121Z" fill="#404040"/>
<path d="M11.3955 53.8752H11.2393C11.0895 53.8516 10.9466 53.7956 10.8206 53.7111C10.6947 53.6265 10.5887 53.5155 10.5102 53.3857C9.71657 52.0311 9.40213 50.4488 9.61753 48.8937C9.83294 47.3386 10.5657 45.9014 11.6976 44.8135L32.5292 23.982C34.7269 21.7738 37.1954 22.3675 39.1015 23.1383L45.351 25.836L54.2877 24.3569C54.4413 24.3313 54.5987 24.3405 54.7483 24.3837C54.898 24.427 55.036 24.5033 55.1522 24.6069C55.2687 24.7091 55.361 24.836 55.4222 24.9783C55.4835 25.1207 55.5123 25.2749 55.5064 25.4298C55.5064 25.6485 55.2355 30.8251 51.0172 31.6167L44.1427 33.0854C43.9786 33.1259 43.8069 33.1259 43.6428 33.0854L35.9976 30.8668C35.731 30.7922 35.505 30.6148 35.3692 30.3735C35.2335 30.1323 35.1991 29.847 35.2737 29.5804C35.3483 29.3139 35.5257 29.0878 35.767 28.9521C36.0082 28.8163 36.2935 28.782 36.5601 28.8565L44.0386 30.9397L50.6838 29.5232C51.3501 29.3332 51.9482 28.9567 52.4077 28.4382C52.8672 27.9197 53.1689 27.2806 53.2774 26.5963L45.3718 27.9295C45.1744 27.9617 44.9719 27.9364 44.7885 27.8566L38.2578 25.0548C36.258 24.2424 35.0497 24.3465 33.9665 25.4402L13.135 46.2717C12.4788 46.8696 12.0025 47.6387 11.7597 48.4925C11.5168 49.3463 11.5169 50.2509 11.7601 51.1046C14.8848 48.4278 23.9049 40.7618 25.2381 39.5535C25.3327 39.4684 25.4422 39.4013 25.561 39.3556C26.8041 38.8401 27.9909 38.1979 29.1024 37.4391C29.3358 37.2748 29.6249 37.2099 29.9062 37.2587C30.1875 37.3075 30.4379 37.4661 30.6022 37.6995C30.7666 37.933 30.8315 38.2221 30.7826 38.5034C30.7338 38.7847 30.5753 39.035 30.3418 39.1994C29.1462 40.0171 27.8727 40.7149 26.5401 41.2826C24.4569 43.1574 12.5933 53.2399 12.0726 53.6773C11.8768 53.82 11.6374 53.89 11.3955 53.8752Z" fill="#404040"/>
</svg>
