<svg width="64" height="64" viewBox="0 0 64 64" fill="none" xmlns="http://www.w3.org/2000/svg">
<path d="M39.2435 52.8238H36.1191C35.8429 52.8238 35.578 52.7141 35.3827 52.5188C35.1874 52.3235 35.0777 52.0585 35.0777 51.7823V47.0125L33.6092 45.5336H30.9119C30.6387 45.5325 30.3769 45.424 30.1829 45.2316L29.1414 44.1902C29.043 44.0937 28.9647 43.9787 28.9111 43.8518C28.8575 43.7248 28.8296 43.5885 28.829 43.4507V40.3264C28.8329 40.0517 28.9452 39.7896 29.1414 39.5973L31.2243 37.5144C31.4166 37.3182 31.6786 37.2059 31.9533 37.202H37.1606C37.2984 37.2026 37.4347 37.2305 37.5616 37.2842C37.6885 37.3378 37.8036 37.416 37.9 37.5144L41.7638 41.3678H42.3678C42.644 41.3678 42.9089 41.4776 43.1043 41.6729C43.2996 41.8682 43.4093 42.1331 43.4093 42.4093V44.4922C43.4101 44.6292 43.3838 44.7651 43.332 44.892C43.2802 45.0189 43.2038 45.1343 43.1073 45.2316L42.3678 45.971V49.6994C42.3686 49.8365 42.3424 49.9724 42.2905 50.0992C42.2387 50.2261 42.1623 50.3415 42.0658 50.4388L39.9829 52.5217C39.8856 52.6182 39.7702 52.6946 39.6433 52.7465C39.5164 52.7983 39.3805 52.8246 39.2435 52.8238V52.8238ZM37.1606 50.7409H38.8165L40.2849 49.2724V45.5336C40.2888 45.2589 40.4012 44.9969 40.5974 44.8046L41.3264 44.0652V43.4507C41.0532 43.4496 40.7914 43.3411 40.5974 43.1487L36.7336 39.2849H32.3908L30.9119 40.7638V43.0238L31.3493 43.4507H34.0362C34.174 43.4513 34.3103 43.4792 34.4373 43.5328C34.5642 43.5865 34.6792 43.6647 34.7757 43.7631L36.8586 45.846C37.051 46.04 37.1594 46.3019 37.1606 46.5751V50.7409Z" fill="#404040"/>
<path d="M31.9533 31.9948H20.4974C18.0256 31.9948 15.6094 31.2618 13.5542 29.8886C11.499 28.5154 9.89721 26.5636 8.95131 24.28C8.00541 21.9964 7.75793 19.4835 8.24014 17.0593C8.72236 14.635 9.91262 12.4082 11.6604 10.6604C13.4082 8.91259 15.635 7.72236 18.0593 7.24014C20.4835 6.75793 22.9964 7.00541 25.28 7.95131C27.5636 8.89721 29.5154 10.499 30.8886 12.5542C32.2618 14.6094 32.9948 17.0256 32.9948 19.4974V30.9533C32.9948 31.2295 32.8851 31.4944 32.6898 31.6897C32.4945 31.885 32.2295 31.9948 31.9533 31.9948ZM20.4974 9.08289C17.7353 9.08289 15.0863 10.1802 13.1333 12.1333C11.1802 14.0863 10.0829 16.7353 10.0829 19.4974C10.0829 22.2595 11.1802 24.9084 13.1333 26.8615C15.0863 28.8146 17.7353 29.9119 20.4974 29.9119H30.9119V19.4974C30.9119 16.7353 29.8146 14.0863 27.8616 12.1333C25.9085 10.1802 23.2595 9.08289 20.4974 9.08289V9.08289Z" fill="#FA4616"/>
<path d="M37.1606 56.9896C34.2988 56.9878 31.4715 56.3654 28.8736 55.1651C26.2757 53.9649 23.969 52.2153 22.1127 50.0372C20.2564 47.8592 18.8947 45.3044 18.1214 42.5491C17.348 39.7938 17.1815 36.9036 17.6334 34.0777C17.6762 33.8015 17.827 33.5536 18.0526 33.3886C18.2782 33.2235 18.5601 33.1549 18.8363 33.1977C19.1125 33.2405 19.3604 33.3913 19.5254 33.6168C19.6905 33.8424 19.7591 34.1243 19.7163 34.4005C19.5672 35.3375 19.4906 36.2846 19.4872 37.2333C19.4872 40.735 20.5255 44.1579 22.471 47.0694C24.4164 49.9809 27.1815 52.2502 30.4166 53.5903C33.6517 54.9303 37.2115 55.2809 40.6459 54.5978C44.0802 53.9146 47.2349 52.2284 49.7109 49.7523C52.1869 47.2763 53.8732 44.1217 54.5563 40.6873C55.2394 37.253 54.8888 33.6931 53.5488 30.458C52.2088 27.2229 49.9395 24.4578 47.028 22.5124C44.1165 20.567 40.6935 19.5287 37.1918 19.5287C36.5565 19.5287 35.9108 19.5286 35.2756 19.6328C34.9994 19.6632 34.7224 19.5826 34.5056 19.4088C34.2888 19.235 34.1499 18.9821 34.1196 18.7059C34.0892 18.4297 34.1697 18.1527 34.3436 17.9359C34.5174 17.7191 34.7702 17.5803 35.0464 17.5499C35.7586 17.4671 36.4749 17.4253 37.1918 17.4249C42.4398 17.4249 47.4728 19.5096 51.1837 23.2205C54.8946 26.9314 56.9794 31.9645 56.9794 37.2125C56.9794 42.4605 54.8946 47.4935 51.1837 51.2044C47.4728 54.9153 42.4398 57 37.1918 57L37.1606 56.9896Z" fill="#404040"/>
<path d="M49.658 40.3264C49.3848 40.3252 49.123 40.2168 48.929 40.0244L47.1481 38.2435H46.9711L46.2316 38.9829C46.1343 39.0795 46.0189 39.1558 45.892 39.2076C45.7651 39.2595 45.6293 39.2857 45.4922 39.2849H43.4093C43.1361 39.2838 42.8743 39.1753 42.6803 38.9829L38.8165 35.1191H36.1191C35.8429 35.1191 35.5781 35.0094 35.3827 34.8141C35.1874 34.6188 35.0777 34.3539 35.0777 34.0777V31.9948C35.0777 31.1662 35.4069 30.3715 35.9928 29.7855C36.5787 29.1996 37.3734 28.8704 38.202 28.8704H39.8579L41.6388 27.1C41.8311 26.9037 42.0931 26.7915 42.3678 26.7875H45.0652L46.8461 25.0171C47.0384 24.8208 47.3004 24.7086 47.5751 24.7047H52.0013V26.7875H48.0125L46.2316 28.5685C46.1343 28.665 46.0189 28.7413 45.892 28.7932C45.7651 28.845 45.6293 28.8712 45.4922 28.8704H42.8053L41.0244 30.6513C40.9271 30.7479 40.8117 30.8242 40.6848 30.8761C40.5579 30.9279 40.422 30.9541 40.2849 30.9533H38.202C37.9258 30.9533 37.661 31.0631 37.4656 31.2584C37.2703 31.4537 37.1606 31.7186 37.1606 31.9948V33.0362H39.2435C39.3813 33.0368 39.5176 33.0647 39.6445 33.1184C39.7715 33.172 39.8865 33.2503 39.9829 33.3487L43.8467 37.202H45.0652L45.8046 36.473C45.9969 36.2768 46.2589 36.1645 46.5336 36.1606H47.5751C47.7129 36.1612 47.8492 36.1891 47.9761 36.2427C48.103 36.2964 48.2181 36.3746 48.3145 36.473L50.0954 38.2435H55.7921V40.3264H49.658Z" fill="#404040"/>
<path d="M20.4974 22.6217C19.92 22.5978 19.3532 22.4592 18.8299 22.214C18.3067 21.9687 17.8375 21.6217 17.4497 21.1932C17.0619 20.7648 16.7634 20.2634 16.5714 19.7183C16.3794 19.1733 16.2979 18.5954 16.3316 18.0186V16.8209C16.3316 15.716 16.7705 14.6564 17.5517 13.8752C18.333 13.094 19.3925 12.6551 20.4974 12.6551C21.6022 12.6551 22.6618 13.094 23.4431 13.8752C24.2243 14.6564 24.6632 15.716 24.6632 16.8209V18.0186C24.6969 18.5954 24.6153 19.1733 24.4234 19.7183C24.2314 20.2634 23.9328 20.7648 23.5451 21.1932C23.1573 21.6217 22.6881 21.9687 22.1649 22.214C21.6416 22.4592 21.0748 22.5978 20.4974 22.6217V22.6217ZM20.4974 14.2901C20.1942 14.3188 19.8996 14.4071 19.6306 14.55C19.3617 14.6929 19.1235 14.8875 18.93 15.1227C18.7364 15.3578 18.5913 15.6289 18.5028 15.9203C18.4143 16.2118 18.3843 16.5178 18.4145 16.8209V18.0186C18.4145 18.571 18.6339 19.1007 19.0245 19.4914C19.4152 19.882 19.945 20.1014 20.4974 20.1014C21.0498 20.1014 21.5796 19.882 21.9702 19.4914C22.3608 19.1007 22.5803 18.571 22.5803 18.0186V16.8209C22.6104 16.5178 22.5804 16.2118 22.492 15.9203C22.4035 15.6289 22.2583 15.3578 22.0648 15.1227C21.8712 14.8875 21.6331 14.6929 21.3642 14.55C21.0952 14.4071 20.8006 14.3188 20.4974 14.2901Z" fill="#404040"/>
<path d="M25.7046 25.7461C25.4284 25.7461 25.1635 25.6364 24.9682 25.441C24.7729 25.2457 24.6632 24.9809 24.6632 24.7046C24.6632 23.6632 22.9969 22.6217 20.4974 22.6217C17.9979 22.6217 16.3316 23.6632 16.3316 24.7046C16.3316 24.9809 16.2219 25.2457 16.0266 25.441C15.8313 25.6364 15.5663 25.7461 15.2901 25.7461C15.0139 25.7461 14.749 25.6364 14.5537 25.441C14.3584 25.2457 14.2487 24.9809 14.2487 24.7046C14.2487 22.3301 16.9356 20.5388 20.4974 20.5388C24.0591 20.5388 26.7461 22.3301 26.7461 24.7046C26.7461 24.9809 26.6364 25.2457 26.4411 25.441C26.2458 25.6364 25.9808 25.7461 25.7046 25.7461Z" fill="#404040"/>
</svg>
