<svg width="64" height="64" viewBox="0 0 64 64" fill="none" xmlns="http://www.w3.org/2000/svg">
<path d="M46.9282 57H39.7257C38.597 57 37.5146 56.5516 36.7165 55.7536C35.9184 54.9555 35.4701 53.8731 35.4701 52.7444C35.4701 51.6157 35.9184 50.5333 36.7165 49.7352C37.5146 48.9372 38.597 48.4888 39.7257 48.4888H40.7896V41.0415H23.7672V48.4888H24.8311C25.9597 48.4888 27.0421 48.9372 27.8402 49.7352C28.6383 50.5333 29.0867 51.6157 29.0867 52.7444C29.0867 53.8731 28.6383 54.9555 27.8402 55.7536C27.0421 56.5516 25.9597 57 24.8311 57H17.6178C17.4016 56.9951 17.1912 56.9286 17.0114 56.8085L12.7558 53.8509C12.0109 53.3678 11.4558 52.6423 11.1844 51.797C10.913 50.9517 10.9419 50.0386 11.2663 49.2122C12.8303 45.9354 15.8624 39.5308 16.2773 38.4882C16.6922 37.4455 17.6604 35.0517 19.2775 33.9878L19.4052 33.924L26.4907 30.4983C26.6716 30.4109 26.8735 30.3766 27.073 30.3992C27.2726 30.4218 27.4617 30.5004 27.6185 30.6259L32.2784 34.3496L36.9276 30.6259C37.0843 30.5004 37.2734 30.4218 37.473 30.3992C37.6726 30.3766 37.8745 30.4109 38.0553 30.4983L45.1515 33.924L45.2686 33.9878C46.8857 35.0517 47.79 37.2859 48.2688 38.4882C48.7475 39.6904 51.7158 45.9354 53.2585 49.1271C53.5963 49.9656 53.6301 50.8957 53.3542 51.7565C53.0783 52.6173 52.51 53.3544 51.7477 53.8402L47.4921 56.7659C47.329 56.8938 47.134 56.9748 46.9282 57V57ZM39.7257 50.6166C39.1613 50.6166 38.6201 50.8408 38.2211 51.2398C37.822 51.6389 37.5979 52.1801 37.5979 52.7444C37.5979 53.3087 37.822 53.8499 38.2211 54.249C38.6201 54.648 39.1613 54.8722 39.7257 54.8722H46.5984L50.5774 52.1061C50.9147 51.8951 51.1714 51.577 51.3065 51.2028C51.4415 50.8285 51.447 50.4198 51.3222 50.0421C51.1519 49.7016 46.8431 40.6479 46.2899 39.2861C45.884 37.9662 45.1522 36.7697 44.1621 35.8071L37.7787 32.7112L32.9805 36.5518C32.7918 36.7029 32.5573 36.7852 32.3156 36.7852C32.0738 36.7852 31.8393 36.7029 31.6506 36.5518L26.8525 32.7112L20.4691 35.8071C19.4846 36.7742 18.7538 37.9691 18.3413 39.2861C17.788 40.6479 13.4792 49.7016 13.2984 50.0847C13.185 50.4487 13.1933 50.8397 13.3219 51.1987C13.4505 51.5576 13.6924 51.8649 14.0112 52.0741L18.0434 54.8722H24.9162C25.4805 54.8722 26.0217 54.648 26.4207 54.249C26.8198 53.8499 27.044 53.3087 27.044 52.7444C27.044 52.1801 26.8198 51.6389 26.4207 51.2398C26.0217 50.8408 25.4805 50.6166 24.9162 50.6166H22.7884C22.5062 50.6166 22.2356 50.5045 22.0361 50.305C21.8366 50.1055 21.7245 49.8349 21.7245 49.5527V39.9776C21.7245 39.6954 21.8366 39.4248 22.0361 39.2253C22.2356 39.0258 22.5062 38.9137 22.7884 38.9137H41.9385C42.2207 38.9137 42.4913 39.0258 42.6908 39.2253C42.8903 39.4248 43.0024 39.6954 43.0024 39.9776V49.5527C43.0024 49.8349 42.8903 50.1055 42.6908 50.305C42.4913 50.5045 42.2207 50.6166 41.9385 50.6166H39.7257Z" fill="#404040"/>
<path d="M32.2783 28.2747C29.0866 28.2747 23.7672 26.881 23.7672 17.6357C23.7672 14.061 24.597 11.3268 26.2354 9.4969C27.0153 8.66844 27.9643 8.01737 29.0179 7.58784C30.0716 7.1583 31.2053 6.96031 32.3422 7.00735V7.00735C33.4708 6.95815 34.5966 7.15646 35.6405 7.58836C36.6844 8.02025 37.6211 8.67528 38.3851 9.50752C39.981 11.3161 40.7895 14.061 40.7895 17.6357C40.7895 26.881 35.4488 28.2641 32.2783 28.2747ZM32.3422 9.12453C31.5038 9.07522 30.6648 9.2096 29.8838 9.51833C29.1028 9.82706 28.3987 10.3027 27.8206 10.9119C26.5439 12.3269 25.8949 14.593 25.8949 17.6251C25.8949 23.2744 28.0227 26.1363 32.2783 26.1363C36.5339 26.1363 38.6617 23.2637 38.6617 17.6251C38.6617 14.5823 38.034 12.3056 36.7893 10.9012C36.2247 10.2957 35.5333 9.8224 34.7645 9.51525C33.9957 9.20809 33.1686 9.07468 32.3422 9.12453V9.12453Z" fill="#404040"/>
</svg>
