<svg width="64" height="64" viewBox="0 0 64 64" fill="none" xmlns="http://www.w3.org/2000/svg">
<path d="M32.0052 23.1797C31.3009 23.1678 30.6061 23.0154 29.9615 22.7316C29.3168 22.4477 28.7353 22.038 28.251 21.5266C27.7667 21.0151 27.3893 20.4122 27.1409 19.753C26.8926 19.0939 26.7782 18.3918 26.8046 17.688V16.2006C26.8046 14.8213 27.3525 13.4985 28.3278 12.5232C29.3031 11.5479 30.6259 11 32.0052 11C33.3845 11 34.7073 11.5479 35.6826 12.5232C36.6579 13.4985 37.2058 14.8213 37.2058 16.2006V17.688C37.2322 18.3918 37.1179 19.0939 36.8695 19.753C36.6212 20.4122 36.2438 21.0151 35.7594 21.5266C35.2751 22.038 34.6936 22.4477 34.0489 22.7316C33.4043 23.0154 32.7095 23.1678 32.0052 23.1797ZM32.0052 12.7786C31.5748 12.7959 31.1521 12.8985 30.7616 13.0803C30.3712 13.2621 30.0206 13.5197 29.7304 13.838C29.4402 14.1563 29.216 14.529 29.0709 14.9345C28.9257 15.3401 28.8625 15.7704 28.8849 16.2006V17.688C28.8849 18.5155 29.2136 19.3092 29.7988 19.8944C30.384 20.4796 31.1776 20.8083 32.0052 20.8083C32.8328 20.8083 33.6265 20.4796 34.2116 19.8944C34.7968 19.3092 35.1256 18.5155 35.1256 17.688V16.2006C35.1479 15.7704 35.0847 15.3401 34.9396 14.9345C34.7944 14.529 34.5702 14.1563 34.28 13.838C33.9898 13.5197 33.6393 13.2621 33.2488 13.0803C32.8583 12.8985 32.4356 12.7959 32.0052 12.7786V12.7786Z" fill="#FA4616"/>
<path d="M39.286 28.3803C39.0102 28.3803 38.7456 28.2708 38.5506 28.0758C38.3555 27.8807 38.2459 27.6161 38.2459 27.3402V26.3001C38.2459 24.4383 34.4911 23.1798 32.0052 23.1798C29.5193 23.1798 25.7645 24.4279 25.7645 26.3001V27.3402C25.7645 27.6161 25.6549 27.8807 25.4599 28.0758C25.2648 28.2708 25.0002 28.3803 24.7244 28.3803C24.4485 28.3803 24.184 28.2708 23.9889 28.0758C23.7938 27.8807 23.6843 27.6161 23.6843 27.3402V26.3001C23.6843 22.4101 29.3945 21.0995 32.0052 21.0995C34.6159 21.0995 40.3262 22.3997 40.3262 26.3001V27.3402C40.3262 27.6161 40.2166 27.8807 40.0215 28.0758C39.8265 28.2708 39.5619 28.3803 39.286 28.3803Z" fill="#FA4616"/>
<path d="M17.4436 29.4205C16.7393 29.4085 16.0445 29.2561 15.3998 28.9723C14.7552 28.6884 14.1737 28.2787 13.6894 27.7673C13.205 27.2558 12.8276 26.6529 12.5793 25.9937C12.3309 25.3346 12.2166 24.6326 12.243 23.9287V22.4413C12.243 21.062 12.7909 19.7393 13.7662 18.764C14.7415 17.7887 16.0643 17.2407 17.4436 17.2407C18.8229 17.2407 20.1456 17.7887 21.1209 18.764C22.0962 19.7393 22.6442 21.062 22.6442 22.4413V23.9287C22.6706 24.6326 22.5562 25.3346 22.3079 25.9937C22.0595 26.6529 21.6821 27.2558 21.1978 27.7673C20.7135 28.2787 20.1319 28.6884 19.4873 28.9723C18.8427 29.2561 18.1478 29.4085 17.4436 29.4205ZM17.4436 19.0193C17.0132 19.0366 16.5905 19.1392 16.2 19.321C15.8095 19.5029 15.459 19.7604 15.1688 20.0787C14.8785 20.397 14.6544 20.7697 14.5092 21.1753C14.3641 21.5808 14.3008 22.0111 14.3232 22.4413V23.9287C14.3232 24.7562 14.652 25.5499 15.2371 26.1351C15.8223 26.7203 16.616 27.049 17.4436 27.049C18.2711 27.049 19.0648 26.7203 19.65 26.1351C20.2352 25.5499 20.5639 24.7562 20.5639 23.9287V22.4413C20.5863 22.0111 20.5231 21.5808 20.3779 21.1753C20.2328 20.7697 20.0086 20.397 19.7184 20.0787C19.4281 19.7604 19.0776 19.5029 18.6871 19.321C18.2967 19.1392 17.874 19.0366 17.4436 19.0193V19.0193Z" fill="#FA4616"/>
<path d="M24.7243 34.6211C24.4485 34.6211 24.1839 34.5115 23.9889 34.3165C23.7938 34.1214 23.6842 33.8568 23.6842 33.581V32.5408C23.6842 30.679 19.9294 29.4205 17.4435 29.4205C14.9576 29.4205 11.2028 30.6686 11.2028 32.5408V33.581C11.2028 33.8568 11.0932 34.1214 10.8982 34.3165C10.7031 34.5115 10.4385 34.6211 10.1627 34.6211C9.88682 34.6211 9.62226 34.5115 9.4272 34.3165C9.23214 34.1214 9.12256 33.8568 9.12256 33.581V32.5408C9.12256 28.6508 14.8328 27.3402 17.4435 27.3402C20.0542 27.3402 25.7645 28.6404 25.7645 32.5408V33.581C25.7645 33.8568 25.6549 34.1214 25.4598 34.3165C25.2648 34.5115 25.0002 34.6211 24.7243 34.6211Z" fill="#FA4616"/>
<path d="M46.5669 29.4205C45.8626 29.4085 45.1678 29.2561 44.5231 28.9723C43.8785 28.6884 43.297 28.2787 42.8127 27.7673C42.3283 27.2558 41.9509 26.6529 41.7026 25.9937C41.4542 25.3346 41.3399 24.6326 41.3663 23.9287V22.4413C41.3663 21.062 41.9142 19.7393 42.8895 18.764C43.8648 17.7887 45.1876 17.2407 46.5669 17.2407C47.9461 17.2407 49.2689 17.7887 50.2442 18.764C51.2195 19.7393 51.7675 21.062 51.7675 22.4413V23.9287C51.7938 24.6326 51.6795 25.3346 51.4312 25.9937C51.1828 26.6529 50.8054 27.2558 50.3211 27.7673C49.8367 28.2787 49.2552 28.6884 48.6106 28.9723C47.966 29.2561 47.2711 29.4085 46.5669 29.4205ZM46.5669 19.0193C46.1365 19.0366 45.7138 19.1392 45.3233 19.321C44.9328 19.5029 44.5823 19.7604 44.2921 20.0787C44.0018 20.397 43.7776 20.7697 43.6325 21.1753C43.4874 21.5808 43.4241 22.0111 43.4465 22.4413V23.9287C43.4465 24.7562 43.7753 25.5499 44.3604 26.1351C44.9456 26.7203 45.7393 27.049 46.5669 27.049C47.3944 27.049 48.1881 26.7203 48.7733 26.1351C49.3585 25.5499 49.6872 24.7562 49.6872 23.9287V22.4413C49.7096 22.0111 49.6464 21.5808 49.5012 21.1753C49.3561 20.7697 49.1319 20.397 48.8417 20.0787C48.5514 19.7604 48.2009 19.5029 47.8104 19.321C47.4199 19.1392 46.9973 19.0366 46.5669 19.0193V19.0193Z" fill="#FA4616"/>
<path d="M53.8477 34.6211C53.5718 34.6211 53.3073 34.5115 53.1122 34.3165C52.9172 34.1214 52.8076 33.8568 52.8076 33.581V32.5408C52.8076 30.679 49.0527 29.4205 46.5669 29.4205C44.081 29.4205 40.3261 30.6686 40.3261 32.5408V33.581C40.3261 33.8568 40.2166 34.1214 40.0215 34.3165C39.8264 34.5115 39.5619 34.6211 39.286 34.6211C39.0102 34.6211 38.7456 34.5115 38.5506 34.3165C38.3555 34.1214 38.2459 33.8568 38.2459 33.581V32.5408C38.2459 28.6508 43.9562 27.3402 46.5669 27.3402C49.1776 27.3402 54.8878 28.6404 54.8878 32.5408V33.581C54.8878 33.8568 54.7782 34.1214 54.5832 34.3165C54.3881 34.5115 54.1235 34.6211 53.8477 34.6211Z" fill="#FA4616"/>
<path d="M39.0468 53.3432C38.8961 53.344 38.7471 53.3121 38.61 53.2496L31.9948 50.1293L25.3693 53.2496C25.2003 53.3227 25.0151 53.3496 24.8323 53.3277C24.6496 53.3058 24.476 53.2358 24.3291 53.1248C24.1734 53.0054 24.0546 52.8444 23.9865 52.6603C23.9184 52.4763 23.9038 52.2767 23.9443 52.0847L25.1508 45.1575L19.8566 39.624C19.7283 39.4874 19.6393 39.3186 19.599 39.1355C19.5587 38.9524 19.5687 38.7618 19.6278 38.5839C19.6952 38.4005 19.813 38.2399 19.9675 38.1203C20.122 38.0007 20.3071 37.9271 20.5015 37.9079L27.7823 37.159L31.0795 30.2422C31.1616 30.0648 31.2919 29.9142 31.4556 29.8075C31.6194 29.7008 31.8098 29.6424 32.0052 29.6389C32.2013 29.6395 32.3932 29.6954 32.5588 29.8003C32.7244 29.9052 32.857 30.0548 32.9413 30.2318L36.2385 37.1485L43.5193 37.8975C43.7138 37.9167 43.8988 37.9904 44.0534 38.1099C44.2079 38.2295 44.3256 38.3902 44.393 38.5736C44.4522 38.7515 44.4621 38.942 44.4218 39.1251C44.3816 39.3082 44.2925 39.477 44.1642 39.6137L38.8596 45.2407L40.0661 52.1679C40.1066 52.3599 40.092 52.5595 40.0239 52.7435C39.9558 52.9276 39.837 53.0886 39.6813 53.208C39.4896 53.3195 39.2673 53.3669 39.0468 53.3432ZM22.8002 39.7593L26.9606 44.1486C27.0724 44.2663 27.155 44.4084 27.202 44.5638C27.2489 44.7191 27.2589 44.8832 27.2311 45.0431L26.2742 50.5245L31.4748 48.0802C31.6131 48.0153 31.764 47.9816 31.9168 47.9816C32.0696 47.9816 32.2205 48.0153 32.3589 48.0802L37.5594 50.5245L36.6025 45.0431C36.5747 44.8832 36.5847 44.7191 36.6316 44.5638C36.6786 44.4084 36.7612 44.2663 36.873 44.1486L41.0334 39.7593L35.2816 39.1664C35.1047 39.1485 34.9353 39.0856 34.7896 38.9837C34.6439 38.8817 34.5268 38.744 34.4495 38.5839L32.0052 33.1025L29.3841 38.5839C29.3068 38.744 29.1897 38.8817 29.044 38.9837C28.8983 39.0856 28.7289 39.1485 28.552 39.1664L22.8002 39.7593Z" fill="#404040"/>
<path d="M21.604 50.2228C21.4569 50.2222 21.3115 50.1903 21.1776 50.1293L16.4034 47.9866L11.6605 50.1293C11.4879 50.2059 11.2977 50.234 11.1103 50.2107C10.9229 50.1874 10.7454 50.1136 10.5968 49.997C10.4482 49.8805 10.3341 49.7257 10.2668 49.5493C10.1995 49.3729 10.1815 49.1814 10.2147 48.9955L11.0676 44.2422L7.30239 40.4145C7.16377 40.2751 7.06753 40.0992 7.02483 39.9072C6.98212 39.7153 6.99469 39.5151 7.06111 39.33C7.12752 39.1449 7.24506 38.9825 7.40006 38.8615C7.55507 38.7405 7.74119 38.6658 7.93687 38.6463L13.1375 38.1263L15.4881 33.3521C15.5739 33.1771 15.7071 33.0297 15.8727 32.9267C16.0382 32.8237 16.2293 32.7693 16.4242 32.7697V32.7697C16.6174 32.7712 16.8063 32.8265 16.9698 32.9294C17.1333 33.0323 17.265 33.1787 17.3499 33.3521L18.6813 36.0564C18.7999 36.3035 18.8162 36.5875 18.7266 36.8466C18.637 37.1056 18.4488 37.3188 18.2028 37.4398C17.9559 37.5624 17.6704 37.582 17.4091 37.4942C17.1477 37.4065 16.9319 37.2185 16.8091 36.9717L16.4242 36.1709L14.7496 39.5616C14.6723 39.7217 14.5552 39.8594 14.4095 39.9614C14.2639 40.0634 14.0945 40.1262 13.9176 40.1441L10.3291 40.4978L12.9502 43.1605C13.0669 43.2794 13.1534 43.4246 13.2022 43.5839C13.2511 43.7432 13.261 43.9119 13.2311 44.0758L12.6278 47.4249L15.9874 45.9064C16.1229 45.8446 16.2701 45.8126 16.419 45.8126C16.568 45.8126 16.7152 45.8446 16.8507 45.9064L20.2103 47.4249L19.607 44.0758C19.5587 43.7999 19.622 43.5162 19.7829 43.287C19.9439 43.0578 20.1892 42.9019 20.4651 42.8536C20.741 42.8054 21.0247 42.8686 21.2539 43.0296C21.4831 43.1905 21.639 43.4359 21.6872 43.7118L22.6338 48.9955C22.6754 49.1866 22.6624 49.3855 22.5961 49.5695C22.5299 49.7534 22.4132 49.915 22.2593 50.0356C22.0681 50.1699 21.8373 50.2358 21.604 50.2228Z" fill="#404040"/>
<path d="M52.6932 50.2229C52.546 50.2222 52.4006 50.1903 52.2667 50.1293L47.5342 47.9866L42.7912 50.1293C42.6223 50.2024 42.437 50.2293 42.2543 50.2074C42.0716 50.1854 41.8979 50.1154 41.7511 50.0045C41.5954 49.8851 41.4766 49.724 41.4085 49.54C41.3404 49.3559 41.3258 49.1564 41.3663 48.9644L42.3128 43.6805C42.3367 43.5439 42.3873 43.4134 42.4616 43.2963C42.536 43.1793 42.6326 43.0781 42.7461 42.9984C42.8596 42.9187 42.9877 42.8621 43.123 42.8319C43.2584 42.8018 43.3983 42.7985 43.5349 42.8224C43.6715 42.8463 43.8021 42.8969 43.9191 42.9713C44.0361 43.0457 44.1374 43.1423 44.2171 43.2558C44.2968 43.3693 44.3533 43.4973 44.3835 43.6327C44.4137 43.768 44.4169 43.908 44.393 44.0446L43.7898 47.3938L47.1493 45.8752C47.2848 45.8134 47.432 45.7814 47.581 45.7814C47.7299 45.7814 47.8771 45.8134 48.0126 45.8752L51.3722 47.3938L50.7689 44.0446C50.739 43.8806 50.7489 43.712 50.7978 43.5527C50.8467 43.3934 50.9331 43.2482 51.0498 43.1292L53.6709 40.4665L50.0825 40.1129C49.9056 40.0951 49.7362 40.0321 49.5905 39.9302C49.4448 39.8282 49.3277 39.6906 49.2504 39.5305L47.5862 36.1397L47.1909 36.9406C47.0696 37.1889 46.8545 37.3787 46.5931 37.4685C46.3318 37.5582 46.0454 37.5404 45.7972 37.419C45.5489 37.2976 45.359 37.0826 45.2693 36.8212C45.1796 36.5599 45.1973 36.2735 45.3187 36.0253L46.6501 33.3209C46.7358 33.1459 46.8691 32.9984 47.0346 32.8955C47.2001 32.7925 47.3912 32.7381 47.5862 32.7385V32.7385C47.7793 32.74 47.9683 32.7954 48.1318 32.8983C48.2953 33.0011 48.4269 33.1475 48.5119 33.3209L50.8626 38.0951L56.0632 38.6152C56.2588 38.6347 56.445 38.7093 56.6 38.8303C56.755 38.9513 56.8725 39.1137 56.9389 39.2988C57.0053 39.4839 57.0179 39.6841 56.9752 39.876C56.9325 40.068 56.8363 40.2439 56.6976 40.3834L52.8596 44.2006L53.7229 48.9539C53.7634 49.146 53.7488 49.3455 53.6807 49.5296C53.6126 49.7136 53.4938 49.8747 53.338 49.9941C53.155 50.1409 52.9278 50.2215 52.6932 50.2229V50.2229Z" fill="#404040"/>
</svg>
