<svg width="64" height="64" viewBox="0 0 64 64" fill="none" xmlns="http://www.w3.org/2000/svg">
<path fill-rule="evenodd" clip-rule="evenodd" d="M45.5417 12.1667H40.3333V10.0834H45.5417C46.0941 10.0834 46.624 10.3027 47.0148 10.6935C47.4056 11.0843 47.625 11.6143 47.625 12.1667V26.75H45.5417V12.1667Z" fill="#404040"/>
<path fill-rule="evenodd" clip-rule="evenodd" d="M7.61021 10.6935C8.00099 10.3027 8.53091 10.0834 9.08333 10.0834H14.2917V12.1667H9.08333V40.2917H29.9167V42.375H9.08333C8.53074 42.375 8.00087 42.1555 7.61021 41.7648C7.21955 41.3742 7 40.8443 7 40.2917V12.1667C7 11.6142 7.2195 11.0842 7.61021 10.6935Z" fill="#404040"/>
<path fill-rule="evenodd" clip-rule="evenodd" d="M46.5834 20.5H8.04169V18.4167H46.5834V20.5Z" fill="#404040"/>
<path fill-rule="evenodd" clip-rule="evenodd" d="M37.2083 14.25V8H39.2917V14.25H37.2083Z" fill="#404040"/>
<path fill-rule="evenodd" clip-rule="evenodd" d="M36.1667 12.1667H18.4583V10.0833H36.1667V12.1667Z" fill="#404040"/>
<path fill-rule="evenodd" clip-rule="evenodd" d="M15.3333 14.25V8H17.4166V14.25H15.3333Z" fill="#404040"/>
<path fill-rule="evenodd" clip-rule="evenodd" d="M22.625 25.7083H19.5V23.625H22.625V25.7083Z" fill="#404040"/>
<path fill-rule="evenodd" clip-rule="evenodd" d="M27.8333 25.7083H24.7083V23.625H27.8333V25.7083Z" fill="#404040"/>
<path fill-rule="evenodd" clip-rule="evenodd" d="M33.0417 25.7083H29.9167V23.625H33.0417V25.7083Z" fill="#404040"/>
<path fill-rule="evenodd" clip-rule="evenodd" d="M38.25 25.7083H35.125V23.625H38.25V25.7083Z" fill="#404040"/>
<path fill-rule="evenodd" clip-rule="evenodd" d="M17.4167 30.9167H14.2917V28.8333H17.4167V30.9167Z" fill="#404040"/>
<path fill-rule="evenodd" clip-rule="evenodd" d="M22.625 30.9167H19.5V28.8333H22.625V30.9167Z" fill="#404040"/>
<path fill-rule="evenodd" clip-rule="evenodd" d="M27.8333 30.9167H24.7083V28.8333H27.8333V30.9167Z" fill="#404040"/>
<path fill-rule="evenodd" clip-rule="evenodd" d="M33.0417 30.9167H29.9167V28.8333H33.0417V30.9167Z" fill="#404040"/>
<path fill-rule="evenodd" clip-rule="evenodd" d="M17.4167 36.125H14.2917V34.0417H17.4167V36.125Z" fill="#404040"/>
<path fill-rule="evenodd" clip-rule="evenodd" d="M22.625 36.125H19.5V34.0417H22.625V36.125Z" fill="#404040"/>
<path fill-rule="evenodd" clip-rule="evenodd" d="M27.8333 36.125H24.7083V34.0417H27.8333V36.125Z" fill="#404040"/>
<path fill-rule="evenodd" clip-rule="evenodd" d="M44.5 30.9688C38.696 30.9688 34.0833 35.4257 34.0833 40.8125C34.0833 46.1994 38.696 50.6563 44.5 50.6563C50.304 50.6563 54.9167 46.1994 54.9167 40.8125C54.9167 35.4257 50.304 30.9688 44.5 30.9688ZM32 40.8125C32 34.1757 37.6474 28.8854 44.5 28.8854C51.3526 28.8854 57 34.1757 57 40.8125C57 47.4494 51.3526 52.7396 44.5 52.7396C37.6474 52.7396 32 47.4494 32 40.8125Z" fill="#FA4616"/>
<path fill-rule="evenodd" clip-rule="evenodd" d="M29.1801 55.1801L36.4718 47.8884L37.9449 49.3616L30.6533 56.6532L29.1801 55.1801Z" fill="#FA4616"/>
<path fill-rule="evenodd" clip-rule="evenodd" d="M41.5537 35.71C42.3352 34.9286 43.3949 34.4896 44.5 34.4896C45.6051 34.4896 46.6649 34.9286 47.4463 35.71C48.2277 36.4914 48.6667 37.5512 48.6667 38.6563V39.8064C48.7046 40.3712 48.6324 40.9381 48.4538 41.4756C48.2707 42.0266 47.9795 42.5355 47.5972 42.9725C47.215 43.4096 46.7493 43.766 46.2276 44.0208C45.706 44.2756 45.1387 44.4238 44.559 44.4567L44.5 43.4167L44.441 44.4567C43.8613 44.4238 43.2941 44.2756 42.7724 44.0208C42.2507 43.7659 41.7851 43.4095 41.4028 42.9725C41.0206 42.5355 40.7294 42.0266 40.5463 41.4756C40.3677 40.9382 40.2954 40.3712 40.3333 39.8064V38.6563C40.3333 37.5512 40.7723 36.4914 41.5537 35.71ZM44.5 42.3726C44.7824 42.3492 45.0582 42.2734 45.3132 42.1489C45.5859 42.0157 45.8293 41.8294 46.0291 41.601C46.2289 41.3725 46.3811 41.1066 46.4768 40.8186C46.5725 40.5306 46.6097 40.2264 46.5864 39.9238L46.5833 39.8838V38.6563C46.5833 38.1037 46.3638 37.5738 45.9732 37.1831C45.5825 36.7924 45.0526 36.573 44.5 36.573C43.9475 36.573 43.4176 36.7924 43.0269 37.1831C42.6362 37.5738 42.4167 38.1038 42.4167 38.6563V39.8838L42.4136 39.9238C42.3903 40.2263 42.4276 40.5306 42.5233 40.8186C42.619 41.1066 42.7712 41.3725 42.971 41.601C43.1708 41.8294 43.4141 42.0157 43.6868 42.1489C43.9418 42.2734 44.2176 42.3492 44.5 42.3726Z" fill="#404040"/>
<path fill-rule="evenodd" clip-rule="evenodd" d="M40.2367 43.4451C41.3602 42.7606 42.8586 42.375 44.5 42.375C46.1414 42.375 47.6398 42.7606 48.7633 43.4451C49.8741 44.1219 50.75 45.1897 50.75 46.5417C50.75 47.117 50.2836 47.5834 49.7083 47.5834C49.133 47.5834 48.6667 47.117 48.6667 46.5417C48.6667 46.175 48.4279 45.6803 47.6794 45.2242C46.9436 44.776 45.8377 44.4584 44.5 44.4584C43.1623 44.4584 42.0564 44.776 41.3206 45.2242C40.5721 45.6803 40.3333 46.175 40.3333 46.5417C40.3333 47.117 39.867 47.5834 39.2917 47.5834C38.7164 47.5834 38.25 47.117 38.25 46.5417C38.25 45.1897 39.1259 44.1219 40.2367 43.4451Z" fill="#404040"/>
</svg>
