<svg width="64" height="64" viewBox="0 0 64 64" fill="none" xmlns="http://www.w3.org/2000/svg">
<path d="M23.8978 37.7939H11.0937C10.8107 37.7939 10.5393 37.6814 10.3392 37.4813C10.1391 37.2812 10.0267 37.0098 10.0267 36.7268C10.0519 34.9097 10.369 33.1084 10.9657 31.3918C10.6562 30.3888 9.82398 28.0307 9.49321 27.1238C9.09397 25.6545 8.93543 24.1303 9.02372 22.6103V22.0021C9.02372 21.5052 9.13943 21.0151 9.36167 20.5706C9.58391 20.1261 9.90658 19.7395 10.3041 19.4413L12.2994 17.9368C13.3205 17.0151 14.6375 16.489 16.0126 16.4537C17.2516 16.4122 18.4809 16.6838 19.5871 17.2433L19.9179 17.3926C21.2439 17.9506 22.4778 18.7061 23.5777 19.6334C24.3993 20.455 27.7284 24.7123 28.1125 25.1925C28.5359 25.7308 28.7653 26.3962 28.7634 27.0811V27.5933C28.782 28.0301 28.6947 28.4649 28.5089 28.8606C28.3231 29.2564 28.0443 29.6013 27.6964 29.866C27.3008 30.1535 26.8509 30.3576 26.374 30.4658C25.897 30.5741 25.4031 30.5842 24.9222 30.4955V36.7268C24.9224 37.0026 24.8158 37.2677 24.6249 37.4666C24.4339 37.6656 24.1733 37.7828 23.8978 37.7939V37.7939ZM12.1607 35.6598H22.8308V29.0977L20.0352 26.9104C19.8131 26.7349 19.6698 26.4784 19.6367 26.1972C19.6037 25.9161 19.6837 25.6334 19.8592 25.4112C20.0346 25.1891 20.2912 25.0457 20.5723 25.0127C20.8534 24.9797 21.1362 25.0597 21.3583 25.2352L25.2316 28.2761C25.4272 28.354 25.6394 28.3812 25.8483 28.3551C26.0573 28.329 26.2562 28.2504 26.4266 28.1268C26.576 28.0094 26.6294 27.924 26.6294 27.5399V27.0277C26.631 26.823 26.5633 26.6236 26.4373 26.4622C24.9755 24.6056 22.6174 21.6393 22.0626 21.1272C21.1557 20.3813 20.1413 19.777 19.0536 19.3346L18.7015 19.1746C17.873 18.7435 16.9458 18.5374 16.0126 18.577C15.0993 18.6264 14.2348 19.0055 13.5799 19.644L11.5845 21.1592C11.452 21.2586 11.3445 21.3875 11.2704 21.5356C11.1963 21.6838 11.1577 21.8471 11.1577 22.0128V22.6317C11.0765 23.919 11.1953 25.2112 11.5099 26.4622C11.6379 26.825 12.897 30.3568 13.121 31.2104C13.1983 31.4351 13.1983 31.6792 13.121 31.904C12.6474 33.1064 12.3526 34.3718 12.2461 35.6598H12.1607Z" fill="#404040"/>
<path d="M21.497 16.4537C21.3733 16.4535 21.2506 16.4319 21.1343 16.3897C21.0016 16.343 20.8795 16.2707 20.7749 16.1767C20.6704 16.0827 20.5854 15.969 20.5249 15.8421C20.4644 15.7152 20.4296 15.5776 20.4225 15.4371C20.4154 15.2967 20.4361 15.1563 20.4834 15.0239C20.625 14.634 20.6972 14.2223 20.6968 13.8075V12.335C20.6968 11.4861 20.3595 10.6719 19.7592 10.0716C19.1589 9.47126 18.3447 9.13402 17.4958 9.13402C16.6468 9.13402 15.8326 9.47126 15.2323 10.0716C14.632 10.6719 14.2947 11.4861 14.2947 12.335V13.8075C14.2838 13.9745 14.2838 14.142 14.2947 14.309C14.3343 14.592 14.2599 14.8791 14.0878 15.1073C13.9157 15.3354 13.6601 15.4858 13.3771 15.5254C13.0941 15.565 12.807 15.4906 12.5789 15.3185C12.3507 15.1464 12.2003 14.8908 12.1607 14.6078C12.144 14.3413 12.144 14.074 12.1607 13.8075V12.335C12.1607 10.9201 12.7228 9.56312 13.7233 8.5626C14.7238 7.56209 16.0808 7 17.4958 7C18.9107 7 20.2677 7.56209 21.2682 8.5626C22.2687 9.56312 22.8308 10.9201 22.8308 12.335V13.8075C22.8348 14.4692 22.7228 15.1264 22.5 15.7495C22.4255 15.9557 22.2892 16.1339 22.1097 16.2599C21.9303 16.3859 21.7163 16.4536 21.497 16.4537V16.4537Z" fill="#404040"/>
<path d="M12.1607 57C11.8777 57 11.6063 56.8876 11.4062 56.6875C11.2061 56.4874 11.0937 56.216 11.0937 55.933V36.7268C11.0937 36.4438 11.2061 36.1724 11.4062 35.9723C11.6063 35.7722 11.8777 35.6598 12.1607 35.6598C12.4437 35.6598 12.7151 35.7722 12.9152 35.9723C13.1153 36.1724 13.2277 36.4438 13.2277 36.7268V55.933C13.2277 56.216 13.1153 56.4874 12.9152 56.6875C12.7151 56.8876 12.4437 57 12.1607 57Z" fill="#404040"/>
<path d="M16.4288 57C16.1458 57 15.8744 56.8876 15.6743 56.6875C15.4742 56.4874 15.3618 56.216 15.3618 55.933V40.9949C15.3618 40.7119 15.4742 40.4405 15.6743 40.2404C15.8744 40.0403 16.1458 39.9279 16.4288 39.9279C16.7118 39.9279 16.9832 40.0403 17.1833 40.2404C17.3834 40.4405 17.4958 40.7119 17.4958 40.9949V55.933C17.4958 56.216 17.3834 56.4874 17.1833 56.6875C16.9832 56.8876 16.7118 57 16.4288 57Z" fill="#404040"/>
<path d="M22.8308 57C22.5478 57 22.2764 56.8876 22.0763 56.6875C21.8762 56.4874 21.7638 56.216 21.7638 55.933V36.7268C21.7638 36.4438 21.8762 36.1724 22.0763 35.9723C22.2764 35.7722 22.5478 35.6598 22.8308 35.6598C23.1138 35.6598 23.3852 35.7722 23.5853 35.9723C23.7854 36.1724 23.8978 36.4438 23.8978 36.7268V55.933C23.8978 56.216 23.7854 56.4874 23.5853 56.6875C23.3852 56.8876 23.1138 57 22.8308 57Z" fill="#404040"/>
<path d="M53.7954 42.0619H26.5867V39.9279H52.7284V11.1186H25.5303V8.98462H53.7954C54.0784 8.98462 54.3498 9.09703 54.5499 9.29714C54.75 9.49724 54.8624 9.76864 54.8624 10.0516V40.9949C54.8624 41.2779 54.75 41.5493 54.5499 41.7494C54.3498 41.9495 54.0784 42.0619 53.7954 42.0619Z" fill="#404040"/>
<path d="M37.7689 34.5928H30.2999V24.9897H37.7689V34.5928ZM32.4339 32.4588H35.6349V27.1238H32.4339V32.4588Z" fill="#FA4616"/>
<path d="M43.1039 34.5928H35.6349V16.4537H43.1039V34.5928ZM37.7689 32.4588H40.9699V18.5877H37.7689V32.4588Z" fill="#FA4616"/>
<path d="M48.439 34.5928H40.97V22.8557H48.439V34.5928ZM43.104 32.4588H46.305V24.9898H43.104V32.4588Z" fill="#FA4616"/>
</svg>
