<svg width="64" height="64" viewBox="0 0 64 64" fill="none" xmlns="http://www.w3.org/2000/svg">
<path d="M23.6667 55.875H21.5833V28.7917H27.8333C29.6146 28.7917 30.5729 28.1458 30.8646 26.7083H13.25C12.0938 26.7083 9.08333 27.6458 9.08333 31.9167V39.2083C9.10442 40.0305 9.44043 40.8131 10.022 41.3947C10.6035 41.9762 11.3862 42.3122 12.2083 42.3333V44.4167C10.8329 44.3978 9.51904 43.843 8.54635 42.8703C7.57366 41.8976 7.01886 40.5838 7 39.2083V31.9167C7 26.6042 10.8333 24.625 13.25 24.625H33.0417V25.6667C33.0417 28.9792 31.1458 30.875 27.8333 30.875H23.6667V55.875Z" fill="#404040"/>
<path d="M13.2083 31.9167H11.125V55.875H13.2083V31.9167Z" fill="#404040"/>
<path d="M17.4166 23.5833H16.375C15.2699 23.5833 14.2101 23.1443 13.4287 22.3629C12.6473 21.5815 12.2083 20.5217 12.2083 19.4167V16.2917C12.2083 15.1866 12.6473 14.1268 13.4287 13.3454C14.2101 12.564 15.2699 12.125 16.375 12.125H17.4166C18.5217 12.125 19.5815 12.564 20.3629 13.3454C21.1443 14.1268 21.5833 15.1866 21.5833 16.2917V19.4167C21.5833 20.5217 21.1443 21.5815 20.3629 22.3629C19.5815 23.1443 18.5217 23.5833 17.4166 23.5833ZM16.375 14.2083C15.8224 14.2083 15.2925 14.4278 14.9018 14.8185C14.5111 15.2092 14.2916 15.7391 14.2916 16.2917V19.4167C14.2916 19.9692 14.5111 20.4991 14.9018 20.8898C15.2925 21.2805 15.8224 21.5 16.375 21.5H17.4166C17.9692 21.5 18.4991 21.2805 18.8898 20.8898C19.2805 20.4991 19.5 19.9692 19.5 19.4167V16.2917C19.5 15.7391 19.2805 15.2092 18.8898 14.8185C18.4991 14.4278 17.9692 14.2083 17.4166 14.2083H16.375Z" fill="#404040"/>
<path d="M18.4167 40.25H16.3334V55.875H18.4167V40.25Z" fill="#404040"/>
<path d="M37.2084 42.3333H27.8334C27.5571 42.3333 27.2921 42.2236 27.0968 42.0282C26.9014 41.8329 26.7917 41.5679 26.7917 41.2916V32.9583H28.875V40.25H37.2084V42.3333Z" fill="#FA4616"/>
<path d="M28.875 22.5417H26.7917V18.375C26.7917 18.0987 26.9014 17.8338 27.0968 17.6384C27.2921 17.4431 27.5571 17.3333 27.8334 17.3333H37.2084V19.4167H28.875V22.5417Z" fill="#FA4616"/>
<path d="M46.5834 42.3333H37.2084C36.9321 42.3333 36.6671 42.2236 36.4718 42.0282C36.2764 41.8329 36.1667 41.5679 36.1667 41.2917V10.0417C36.1667 9.7654 36.2764 9.50045 36.4718 9.3051C36.6671 9.10975 36.9321 9 37.2084 9H46.5834C46.8596 9 47.1246 9.10975 47.3199 9.3051C47.5153 9.50045 47.625 9.7654 47.625 10.0417V41.2917C47.625 41.5679 47.5153 41.8329 47.3199 42.0282C47.1246 42.2236 46.8596 42.3333 46.5834 42.3333ZM38.25 40.25H45.5417V11.0833H38.25V40.25Z" fill="#FA4616"/>
<path d="M55.9583 42.3333H46.5833V40.25H54.9166V26.7083H46.5833V24.625H55.9583C56.2346 24.625 56.4995 24.7347 56.6949 24.9301C56.8902 25.1254 57 25.3904 57 25.6667V41.2917C57 41.5679 56.8902 41.8329 56.6949 42.0282C56.4995 42.2236 56.2346 42.3333 55.9583 42.3333Z" fill="#FA4616"/>
</svg>
