<svg width="64" height="64" viewBox="0 0 64 64" fill="none" xmlns="http://www.w3.org/2000/svg">
<path d="M32 49.0381C31.2306 49.025 30.4714 48.8586 29.7672 48.5484C29.0629 48.2383 28.4275 47.7907 27.8984 47.2319C27.3693 46.6732 26.9569 46.0144 26.6856 45.2943C26.4143 44.5742 26.2893 43.8071 26.3182 43.0381V41.4131C26.3182 39.9062 26.9168 38.461 27.9823 37.3955C29.0479 36.33 30.4931 35.7313 32 35.7313C33.5069 35.7313 34.9521 36.33 36.0176 37.3955C37.0832 38.461 37.6818 39.9062 37.6818 41.4131V43.0381C37.7107 43.8071 37.5857 44.5742 37.3144 45.2943C37.043 46.0144 36.6307 46.6732 36.1016 47.2319C35.5725 47.7907 34.9371 48.2383 34.2328 48.5484C33.5286 48.8586 32.7694 49.025 32 49.0381V49.0381ZM32 37.6745C31.5298 37.6934 31.068 37.8054 30.6413 38.0041C30.2147 38.2028 29.8318 38.4842 29.5147 38.8319C29.1976 39.1797 28.9527 39.5868 28.7941 40.0299C28.6356 40.473 28.5665 40.9432 28.5909 41.4131V43.0381C28.5909 43.9423 28.9501 44.8094 29.5894 45.4487C30.2287 46.0881 31.0959 46.4472 32 46.4472C32.9041 46.4472 33.7712 46.0881 34.4106 45.4487C35.0499 44.8094 35.4091 43.9423 35.4091 43.0381V41.4131C35.4335 40.9432 35.3644 40.473 35.2059 40.0299C35.0473 39.5868 34.8024 39.1797 34.4853 38.8319C34.1682 38.4842 33.7852 38.2028 33.3586 38.0041C32.932 37.8054 32.4702 37.6934 32 37.6745V37.6745Z" fill="#404040"/>
<path d="M41.0909 56.9927H38.8182V55.8563C38.8182 54.2086 36.0795 52.4472 32 52.4472C27.9205 52.4472 25.1818 54.2086 25.1818 55.8563V56.9927H22.9091V55.8563C22.9091 52.6177 26.8182 50.1745 32 50.1745C37.1818 50.1745 41.0909 52.6177 41.0909 55.8563V56.9927Z" fill="#404040"/>
<path d="M16.0909 49.0381C15.3215 49.025 14.5624 48.8586 13.8581 48.5484C13.1538 48.2383 12.5185 47.7907 11.9893 47.2319C11.4602 46.6732 11.0479 46.0144 10.7765 45.2943C10.5052 44.5742 10.3803 43.8071 10.4091 43.0381V41.4131C10.4091 39.9062 11.0077 38.461 12.0732 37.3955C13.1388 36.33 14.584 35.7313 16.0909 35.7313C17.5978 35.7313 19.043 36.33 20.1085 37.3955C21.1741 38.461 21.7727 39.9062 21.7727 41.4131V43.0381C21.8016 43.8071 21.6766 44.5742 21.4053 45.2943C21.134 46.0144 20.7216 46.6732 20.1925 47.2319C19.6634 47.7907 19.0281 48.2383 18.3238 48.5484C17.6195 48.8586 16.8604 49.025 16.0909 49.0381V49.0381ZM16.0909 37.6745C15.6207 37.6934 15.1589 37.8054 14.7323 38.0041C14.3056 38.2028 13.9227 38.4842 13.6056 38.8319C13.2885 39.1797 13.0436 39.5868 12.885 40.0299C12.7265 40.473 12.6574 40.9432 12.6818 41.4131V43.0381C12.6818 43.9423 13.041 44.8094 13.6803 45.4487C14.3196 46.0881 15.1868 46.4472 16.0909 46.4472C16.9951 46.4472 17.8622 46.0881 18.5015 45.4487C19.1408 44.8094 19.5 43.9423 19.5 43.0381V41.4131C19.5244 40.9432 19.4554 40.473 19.2968 40.0299C19.1382 39.5868 18.8933 39.1797 18.5762 38.8319C18.2591 38.4842 17.8761 38.2028 17.4495 38.0041C17.0229 37.8054 16.5611 37.6934 16.0909 37.6745V37.6745Z" fill="#404040"/>
<path d="M25.1818 56.9927H22.9091V55.8563C22.9091 54.2086 20.1705 52.4472 16.0909 52.4472C12.0114 52.4472 9.27273 54.2086 9.27273 55.8563V56.9927H7V55.8563C7 52.6177 10.9091 50.1745 16.0909 50.1745C21.2727 50.1745 25.1818 52.6177 25.1818 55.8563V56.9927Z" fill="#404040"/>
<path d="M47.9091 49.0381C47.1396 49.025 46.3805 48.8586 45.6762 48.5484C44.9719 48.2383 44.3366 47.7907 43.8075 47.2319C43.2783 46.6732 42.866 46.0144 42.5947 45.2943C42.3234 44.5742 42.1984 43.8071 42.2273 43.0381V41.4131C42.2273 39.9062 42.8259 38.461 43.8914 37.3955C44.957 36.33 46.4022 35.7313 47.9091 35.7313C49.416 35.7313 50.8612 36.33 51.9267 37.3955C52.9923 38.461 53.5909 39.9062 53.5909 41.4131V43.0381C53.6197 43.8071 53.4948 44.5742 53.2235 45.2943C52.9521 46.0144 52.5398 46.6732 52.0107 47.2319C51.4815 47.7907 50.8462 48.2383 50.1419 48.5484C49.4376 48.8586 48.6785 49.025 47.9091 49.0381ZM47.9091 37.6745C47.4389 37.6934 46.977 37.8054 46.5504 38.0041C46.1238 38.2028 45.7409 38.4842 45.4238 38.8319C45.1067 39.1797 44.8618 39.5868 44.7032 40.0299C44.5446 40.473 44.4756 40.9432 44.5 41.4131V43.0381C44.5 43.9423 44.8591 44.8094 45.4985 45.4487C46.1378 46.0881 47.0049 46.4472 47.9091 46.4472C48.8132 46.4472 49.6803 46.0881 50.3197 45.4487C50.959 44.8094 51.3182 43.9423 51.3182 43.0381V41.4131C51.3426 40.9432 51.2735 40.473 51.115 40.0299C50.9564 39.5868 50.7115 39.1797 50.3944 38.8319C50.0773 38.4842 49.6943 38.2028 49.2677 38.0041C48.8411 37.8054 48.3793 37.6934 47.9091 37.6745V37.6745Z" fill="#404040"/>
<path d="M57 56.9927H54.7273V55.8563C54.7273 54.2086 51.9886 52.4472 47.9091 52.4472C43.8295 52.4472 41.0909 54.2086 41.0909 55.8563V56.9927H38.8182V55.8563C38.8182 52.6177 42.7273 50.1745 47.9091 50.1745C53.0909 50.1745 57 52.6177 57 55.8563V56.9927Z" fill="#404040"/>
<path d="M14.9547 33.129C14.6533 33.129 14.3643 33.0094 14.1512 32.7962C13.9381 32.5831 13.8184 32.294 13.8184 31.9927V25.1745H9.27291C9.06424 25.1749 8.85948 25.1179 8.68108 25.0097C8.50268 24.9014 8.35752 24.7462 8.26153 24.5609C8.17361 24.3812 8.13468 24.1815 8.14865 23.982C8.16262 23.7825 8.22899 23.5902 8.34108 23.4245L19.7047 7.51542C19.8104 7.36699 19.9502 7.24614 20.1124 7.16308C20.2746 7.08001 20.4543 7.03718 20.6365 7.03816C20.8168 7.039 20.9943 7.08272 21.1544 7.16571C21.3144 7.2487 21.4524 7.36855 21.557 7.51542L26.1025 13.8222C26.2761 14.0667 26.3461 14.3699 26.2972 14.6658C26.2482 14.9617 26.0843 15.2263 25.8411 15.4018C25.7196 15.4896 25.582 15.5525 25.4362 15.5868C25.2903 15.6212 25.1391 15.6264 24.9913 15.6021C24.8434 15.5778 24.7018 15.5245 24.5746 15.4453C24.4474 15.366 24.3372 15.2625 24.2502 15.1404L20.682 10.129L11.5229 22.9473H15.0002C15.3016 22.9473 15.5906 23.0669 15.8037 23.28C16.0168 23.4931 16.1366 23.7822 16.1366 24.0836V32.0382C16.1307 32.1874 16.0954 32.3341 16.0329 32.4697C15.9703 32.6054 15.8816 32.7273 15.7718 32.8286C15.6621 32.93 15.5334 33.0087 15.3932 33.0602C15.253 33.1118 15.104 33.1351 14.9547 33.129V33.129Z" fill="#FA4616"/>
<path d="M49.0455 33.129C48.7441 33.129 48.455 33.0093 48.2419 32.7962C48.0288 32.5831 47.9091 32.294 47.9091 31.9926V24.0381C47.9091 23.7367 48.0288 23.4477 48.2419 23.2346C48.455 23.0215 48.7441 22.9017 49.0455 22.9017H52.5227L43.3636 10.0836L39.7159 15.1972C39.5404 15.4404 39.2759 15.6044 38.98 15.6533C38.6841 15.7023 38.3809 15.6323 38.1364 15.4586C38.0135 15.3725 37.9088 15.2628 37.8285 15.1361C37.7482 15.0093 37.6938 14.8679 37.6685 14.72C37.6431 14.5721 37.6473 14.4206 37.6808 14.2743C37.7143 14.128 37.7765 13.9898 37.8637 13.8677L42.4091 7.46997C42.5145 7.32445 42.6528 7.20598 42.8128 7.12429C42.9728 7.0426 43.1499 7 43.3296 7C43.5092 7 43.6863 7.0426 43.8463 7.12429C44.0063 7.20598 44.1447 7.32445 44.25 7.46997L55.6136 23.3791C55.7344 23.5487 55.8063 23.7482 55.8213 23.9558C55.8364 24.1635 55.7941 24.3713 55.6992 24.5566C55.6042 24.7418 55.4601 24.8974 55.2827 25.0064C55.1053 25.1154 54.9014 25.1735 54.6932 25.1745H50.1477V31.9926C50.1479 32.2882 50.0328 32.5722 49.827 32.7844C49.6212 32.9965 49.3409 33.1201 49.0455 33.129V33.129Z" fill="#FA4616"/>
<path d="M37.6818 35.4017C37.3804 35.4017 37.0914 35.282 36.8783 35.0689C36.6652 34.8558 36.5455 34.5667 36.5455 34.2654V27.4472C36.5455 27.1458 36.6652 26.8568 36.8783 26.6437C37.0914 26.4306 37.3804 26.3108 37.6818 26.3108H41.0909L32 13.4927L22.8409 26.3108H26.3182C26.6196 26.3108 26.9086 26.4306 27.1217 26.6437C27.3348 26.8568 27.4546 27.1458 27.4546 27.4472V34.2654C27.4546 34.5667 27.3348 34.8558 27.1217 35.0689C26.9086 35.282 26.6196 35.4017 26.3182 35.4017C26.0168 35.4017 25.7278 35.282 25.5146 35.0689C25.3015 34.8558 25.1818 34.5667 25.1818 34.2654V28.5835H20.6364C20.4277 28.584 20.2229 28.527 20.0445 28.4187C19.8661 28.3105 19.721 28.1552 19.625 27.9699C19.5371 27.7903 19.4981 27.5906 19.5121 27.3911C19.5261 27.1915 19.5925 26.9992 19.7045 26.8336L31.0682 10.9245C31.1732 10.7767 31.3121 10.6562 31.4732 10.5731C31.6343 10.49 31.813 10.4466 31.9943 10.4466C32.1756 10.4466 32.3543 10.49 32.5154 10.5731C32.6765 10.6562 32.8154 10.7767 32.9205 10.9245L44.2841 26.8336C44.4049 27.0032 44.4767 27.2027 44.4918 27.4103C44.5069 27.618 44.4646 27.8258 44.3696 28.0111C44.2746 28.1963 44.1306 28.3519 43.9532 28.4609C43.7758 28.5699 43.5718 28.6281 43.3636 28.629H38.8182V34.3109C38.8064 34.6043 38.6815 34.8818 38.4697 35.0852C38.2578 35.2885 37.9755 35.402 37.6818 35.4017Z" fill="#FA4616"/>
</svg>
