<svg width="64" height="64" viewBox="0 0 64 64" fill="none" xmlns="http://www.w3.org/2000/svg">
<path d="M33.7876 44.5026H31.7047V37.5873L26.4974 31.3386V23.7985L27.4139 23.6839C27.4139 23.6839 32.6212 23.0278 34.6416 22.6425C35.1756 22.5637 35.6718 22.321 36.0618 21.9478C36.4517 21.5747 36.7161 21.0895 36.8182 20.5596H20.2487C17.291 20.5596 16.0829 22.0697 16.0829 25.7668V33.057C16.1705 33.8555 16.5279 34.6003 17.0959 35.1684C17.664 35.7364 18.4087 36.0937 19.2073 36.1814V38.2643C17.8589 38.1654 16.5911 37.5851 15.6352 36.6291C14.6792 35.6732 14.0988 34.4053 14 33.057V25.7668C14 20.9345 16.0829 18.4767 20.2487 18.4767H38.8907L38.9532 19.4556C39.0647 20.6704 38.7185 21.8829 37.9826 22.8558C37.2467 23.8286 36.1741 24.4917 34.9749 24.715C33.4335 24.9962 30.1425 25.4336 28.5387 25.6419V30.5992L33.746 36.8479L33.7876 44.5026Z" fill="#FA4616"/>
<path d="M23.8522 17.4248C23.2524 17.4662 22.6505 17.3838 22.0839 17.1827C21.5173 16.9817 20.9981 16.6662 20.5585 16.256C20.119 15.8458 19.7685 15.3495 19.5289 14.7981C19.2893 14.2467 19.1656 13.6519 19.1656 13.0507V11.3843C19.245 10.1954 19.7732 9.08101 20.6434 8.26695C21.5135 7.45289 22.6606 7 23.8522 7C25.0438 7 26.1908 7.45289 27.061 8.26695C27.9312 9.08101 28.4594 10.1954 28.5387 11.3843V13.0507C28.5387 13.6519 28.4151 14.2467 28.1755 14.7981C27.9358 15.3495 27.5854 15.8458 27.1458 16.256C26.7063 16.6662 26.1871 16.9817 25.6205 17.1827C25.0539 17.3838 24.452 17.4662 23.8522 17.4248V17.4248ZM23.8522 9.09314C23.5274 9.05516 23.1982 9.0859 22.886 9.18337C22.5738 9.28084 22.2856 9.44285 22.0401 9.6589C21.7946 9.87495 21.5973 10.1402 21.4609 10.4375C21.3245 10.7347 21.2522 11.0573 21.2486 11.3843V13.0507C21.3289 13.6845 21.6377 14.2673 22.117 14.6897C22.5963 15.1121 23.2133 15.3451 23.8522 15.3451C24.4911 15.3451 25.108 15.1121 25.5874 14.6897C26.0667 14.2673 26.3755 13.6845 26.4558 13.0507V11.3843C26.4522 11.0573 26.3799 10.7347 26.2435 10.4375C26.1071 10.1402 25.9098 9.87495 25.6643 9.6589C25.4187 9.44285 25.1305 9.28084 24.8184 9.18337C24.5062 9.0859 24.177 9.05516 23.8522 9.09314V9.09314Z" fill="#FA4616"/>
<path d="M20.2071 24.7149H18.1242V50.7513H20.2071V24.7149Z" fill="#FA4616"/>
<path d="M24.4145 50.8346L22.3316 50.6784L23.3731 36.098C23.3869 35.9103 23.4513 35.7298 23.5595 35.5758C23.6677 35.4217 23.8156 35.2999 23.9875 35.2232C24.1557 35.1486 24.3408 35.1198 24.5237 35.14C24.7066 35.1601 24.881 35.2283 25.029 35.3378L29.1948 38.4621C29.3241 38.5591 29.4291 38.6849 29.5014 38.8295C29.5737 38.9741 29.6114 39.1336 29.6114 39.2953V44.5025H27.5285V39.816L25.3102 38.1497L24.4145 50.8346Z" fill="#FA4616"/>
<path d="M37.9534 57H27.5389C27.2627 57 26.9978 56.8903 26.8025 56.695C26.6072 56.4997 26.4974 56.2348 26.4974 55.9586V44.5026C26.4974 44.2264 26.6072 43.9615 26.8025 43.7662C26.9978 43.5708 27.2627 43.4611 27.5389 43.4611H37.9534C38.2296 43.4611 38.4945 43.5708 38.6898 43.7662C38.8852 43.9615 38.9949 44.2264 38.9949 44.5026V55.9586C38.9949 56.2348 38.8852 56.4997 38.6898 56.695C38.4945 56.8903 38.2296 57 37.9534 57ZM28.5803 54.9171H36.912V45.544H28.5803V54.9171Z" fill="#404040"/>
<path d="M48.368 57H37.9534C37.6772 57 37.4123 56.8903 37.217 56.695C37.0217 56.4997 36.912 56.2348 36.912 55.9586V26.7979C36.912 26.5217 37.0217 26.2568 37.217 26.0614C37.4123 25.8661 37.6772 25.7564 37.9534 25.7564H48.368C48.6442 25.7564 48.9091 25.8661 49.1044 26.0614C49.2997 26.2568 49.4094 26.5217 49.4094 26.7979V55.9586C49.4094 56.2348 49.2997 56.4997 49.1044 56.695C48.9091 56.8903 48.6442 57 48.368 57ZM38.9949 54.9171H47.3265V27.8393H38.9949V54.9171Z" fill="#404040"/>
<path d="M27.5389 57H16.0829C15.8067 57 15.5418 56.8903 15.3465 56.695C15.1512 56.4997 15.0414 56.2348 15.0414 55.9586V50.7513C15.0414 50.4751 15.1512 50.2102 15.3465 50.0149C15.5418 49.8196 15.8067 49.7098 16.0829 49.7098H27.5389C27.8151 49.7098 28.08 49.8196 28.2753 50.0149C28.4706 50.2102 28.5803 50.4751 28.5803 50.7513V55.9586C28.5803 56.2348 28.4706 56.4997 28.2753 56.695C28.08 56.8903 27.8151 57 27.5389 57ZM17.1243 54.9171H26.4974V51.7927H17.1243V54.9171Z" fill="#404040"/>
</svg>
