<svg width="64" height="64" viewBox="0 0 64 64" fill="none" xmlns="http://www.w3.org/2000/svg">
<path d="M11.6969 20.4041C11.0532 20.394 10.4182 20.2536 9.83016 19.9916C9.24212 19.7295 8.71323 19.351 8.27534 18.879C7.83745 18.4071 7.49963 17.8514 7.28224 17.2454C7.06484 16.6394 6.97238 15.9958 7.01042 15.3531V14.0096C6.96761 13.3678 7.05705 12.7241 7.27319 12.1184C7.48934 11.5126 7.82759 10.9578 8.26697 10.4882C8.70635 10.0185 9.2375 9.64411 9.82751 9.38813C10.4175 9.13215 11.0538 9 11.6969 9C12.3401 9 12.9764 9.13215 13.5664 9.38813C14.1564 9.64411 14.6876 10.0185 15.1269 10.4882C15.5663 10.9578 15.9045 11.5126 16.1207 12.1184C16.3368 12.7241 16.4263 13.3678 16.3835 14.0096V15.3531C16.4215 15.9958 16.329 16.6394 16.1117 17.2454C15.8943 17.8514 15.5564 18.4071 15.1186 18.879C14.6807 19.351 14.1518 19.7295 13.5637 19.9916C12.9757 20.2536 12.3407 20.394 11.6969 20.4041ZM11.6969 11.031C11.3262 11.0434 10.962 11.1318 10.6268 11.2908C10.2917 11.4497 9.9928 11.6759 9.74867 11.9551C9.50455 12.2344 9.32042 12.5609 9.20769 12.9143C9.09495 13.2677 9.05602 13.6405 9.09332 14.0096V15.3531C9.04648 15.7226 9.07886 16.0978 9.18828 16.4539C9.29771 16.81 9.48168 17.1387 9.72797 17.4182C9.97426 17.6977 10.2772 17.9215 10.6167 18.0748C10.9562 18.2281 11.3244 18.3075 11.6969 18.3075C12.0695 18.3075 12.4377 18.2281 12.7772 18.0748C13.1167 17.9215 13.4196 17.6977 13.6659 17.4182C13.9122 17.1387 14.0962 16.81 14.2056 16.4539C14.315 16.0978 14.3474 15.7226 14.3006 15.3531V14.0096C14.3379 13.6405 14.299 13.2677 14.1862 12.9143C14.0735 12.5609 13.8893 12.2344 13.6452 11.9551C13.4011 11.6759 13.1022 11.4497 12.767 11.2908C12.4319 11.1318 12.0677 11.0434 11.6969 11.031V11.031Z" fill="#404040"/>
<path d="M28.5267 54.2825L23.2362 45.8259C23.007 45.4822 22.7988 45.1489 22.6425 45.0968L20.3305 44.3366L17.1124 43.2951C16.5292 43.0973 13.5507 42.0662 12.4363 40.254C12.0536 39.6174 11.7059 38.9603 11.3949 38.2857L10.9783 37.4318L12.8216 36.4736L13.2695 37.3796C13.5543 37.9893 13.8707 38.5838 14.2172 39.1606C15.1654 40.2029 16.3953 40.948 17.7581 41.3059C18.7996 41.6288 19.9348 42.0245 21.0074 42.3474L23.2986 43.1076C24.0357 43.4098 24.6386 43.9684 24.9962 44.6802L25.1108 44.8677L30.318 53.1993L28.5267 54.2825Z" fill="#404040"/>
<path d="M33.6819 54.2095L27.9539 42.9411C27.7397 42.3572 27.3975 41.8287 26.9523 41.3944C26.5072 40.9601 25.9705 40.631 25.3816 40.4311C24.0589 39.9104 22.0385 39.0148 20.5805 38.3482C19.8601 38.0284 19.2872 37.448 18.9766 36.7235L17.5186 33.3077L19.4245 32.4849L20.8929 35.9009C21.0018 36.1436 21.1939 36.3394 21.4345 36.4529C22.6113 36.984 24.7879 37.9525 26.1418 38.4732C26.9842 38.766 27.7524 39.2393 28.3928 39.8599C29.0332 40.4806 29.5303 41.2334 29.8494 42.0662L35.5461 53.2515L33.6819 54.2095Z" fill="#404040"/>
<path d="M23.1529 20.4041C22.5092 20.394 21.8741 20.2536 21.2861 19.9916C20.6981 19.7295 20.1692 19.351 19.7313 18.879C19.2934 18.4071 18.9556 17.8514 18.7382 17.2454C18.5208 16.6394 18.4283 15.9958 18.4663 15.3531V14.0096C18.4235 13.3678 18.513 12.7241 18.7291 12.1184C18.9453 11.5126 19.2835 10.9578 19.7229 10.4882C20.1623 10.0185 20.6934 9.64411 21.2834 9.38813C21.8735 9.13215 22.5097 9 23.1529 9C23.796 9 24.4323 9.13215 25.0223 9.38813C25.6123 9.64411 26.1435 10.0185 26.5829 10.4882C27.0222 10.9578 27.3605 11.5126 27.5766 12.1184C27.7928 12.7241 27.8822 13.3678 27.8394 14.0096V15.3531C27.8774 15.9958 27.785 16.6394 27.5676 17.2454C27.3502 17.8514 27.0124 18.4071 26.5745 18.879C26.1366 19.351 25.6077 19.7295 25.0197 19.9916C24.4316 20.2536 23.7966 20.394 23.1529 20.4041ZM23.1529 11.031C22.7821 11.0434 22.4179 11.1318 22.0828 11.2908C21.7476 11.4497 21.4487 11.6759 21.2046 11.9551C20.9605 12.2344 20.7764 12.5609 20.6636 12.9143C20.5509 13.2677 20.5119 13.6405 20.5492 14.0096V15.3531C20.5024 15.7226 20.5348 16.0978 20.6442 16.4539C20.7536 16.81 20.9376 17.1387 21.1839 17.4182C21.4302 17.6977 21.7331 17.9215 22.0726 18.0748C22.4121 18.2281 22.7804 18.3075 23.1529 18.3075C23.5254 18.3075 23.8936 18.2281 24.2331 18.0748C24.5726 17.9215 24.8756 17.6977 25.1219 17.4182C25.3682 17.1387 25.5521 16.81 25.6616 16.4539C25.771 16.0978 25.8033 15.7226 25.7565 15.3531V14.0096C25.7938 13.6405 25.7549 13.2677 25.6421 12.9143C25.5294 12.5609 25.3453 12.2344 25.1011 11.9551C24.857 11.6759 24.5581 11.4497 24.223 11.2908C23.8878 11.1318 23.5236 11.0434 23.1529 11.031Z" fill="#404040"/>
<path d="M39.9827 54.2825L34.6921 45.8259C34.463 45.4822 34.2547 45.1489 34.0985 45.0968L31.9218 44.3783L31.6823 44.2949L32.3384 42.3265L32.5884 42.3995L34.7442 43.1181C35.4812 43.4203 36.0842 43.9788 36.4418 44.6907L36.5563 44.8782L41.7636 53.2098L39.9827 54.2825Z" fill="#404040"/>
<path d="M57 31.86H40.3368V33.9429H57V31.86Z" fill="#FA4616"/>
<path d="M23.8741 46.4177L22.4875 53.6384L24.533 54.0312L25.9196 46.8105L23.8741 46.4177Z" fill="#404040"/>
<path d="M19.3167 43.0204L18.4708 53.5572L20.547 53.7239L21.393 43.1871L19.3167 43.0204Z" fill="#404040"/>
<path d="M25.7773 34.9844H19.0495L13.5298 28.3608L15.1232 27.0277L20.0181 32.9015H25.7773C26.0913 32.936 26.409 32.9027 26.7091 32.8039C27.0091 32.7051 27.2845 32.543 27.5165 32.3287C27.6682 32.1452 27.772 31.9269 27.8185 31.6934L22.101 30.7456L17.1957 24.7469C16.8056 24.3379 16.3323 24.0175 15.8076 23.8073C15.283 23.597 14.7193 23.502 14.1547 23.5285H12.2384C10.2597 23.5285 9.46816 24.2366 9.2078 26.2362C9.10601 26.9686 9.19571 27.7149 9.46816 28.4024L11.5511 33.7035L9.60355 34.4637L7.52065 29.1523C7.12551 28.1395 6.98948 27.0441 7.1249 25.9654C7.53106 22.9244 9.20781 21.4456 12.228 21.4456H14.1443C14.9994 21.4212 15.85 21.5785 16.6399 21.907C17.4297 22.2356 18.141 22.7278 18.7267 23.3514L23.2049 28.819L29.8181 29.923L29.9223 30.6728C29.9936 31.2071 29.9556 31.7504 29.8106 32.2696C29.6656 32.7887 29.4166 33.273 29.0787 33.693C28.6572 34.1378 28.1429 34.4842 27.5722 34.7074C27.0015 34.9306 26.3887 35.0252 25.7773 34.9844V34.9844Z" fill="#404040"/>
<path d="M37.2333 34.9844H30.9846V32.9015H37.2333C37.5473 32.936 37.865 32.9026 38.1651 32.8038C38.4651 32.705 38.7404 32.5429 38.9725 32.3286C39.1242 32.1451 39.228 31.9268 39.2745 31.6933L33.557 30.7456L28.6517 24.7468C28.2991 24.3357 27.8561 24.0118 27.3575 23.8005C26.8588 23.5891 26.318 23.4959 25.7773 23.5284H21.6115V21.4455H25.7773C26.6273 21.4078 27.4745 21.5667 28.253 21.9099C29.0316 22.2531 29.7204 22.7714 30.266 23.4243L34.6713 28.8189L41.2845 29.9229L41.3887 30.6727C41.46 31.207 41.422 31.7503 41.277 32.2695C41.132 32.7887 40.883 33.273 40.5451 33.693C40.1225 34.1392 39.6064 34.4864 39.0338 34.7096C38.4613 34.9329 37.8464 35.0267 37.2333 34.9844Z" fill="#404040"/>
<path d="M45.1379 54.2096L39.4099 42.9411C39.1956 42.3573 38.8534 41.8288 38.4083 41.3945C37.9632 40.9602 37.4264 40.631 36.8375 40.4312C34.8692 39.6605 31.4324 38.088 31.2866 38.0151L32.151 36.13C32.151 36.13 35.6815 37.7443 37.5978 38.4837C38.4401 38.7765 39.2083 39.2497 39.8487 39.8703C40.4891 40.4909 40.9862 41.2439 41.3053 42.0766L47.0021 53.2618L45.1379 54.2096Z" fill="#404040"/>
<path d="M9.35365 39.1502H7.27075C7.27075 35.6301 9.78065 31.86 13.5195 31.86H18.4872V33.9429H13.5403C11.0616 33.9429 9.35365 36.6924 9.35365 39.1502Z" fill="#FA4616"/>
</svg>
