<svg width="64" height="64" viewBox="0 0 64 64" fill="none" xmlns="http://www.w3.org/2000/svg">
<path d="M31.5339 57C31.3622 56.9992 31.1933 56.956 31.0422 56.8745L25.2577 53.7364C24.4104 53.2866 23.5946 52.7741 23.5946 51.8849C23.5946 50.9958 24.3686 50.6192 24.787 50.3995C25.3107 50.1613 25.8683 50.0061 26.4397 49.9394C27.1848 49.8848 27.9042 49.6438 28.5318 49.2385C28.1864 48.777 27.7242 48.4159 27.1929 48.1924C26.0085 47.5193 24.6493 47.2169 23.2912 47.3243C22.9376 47.3283 22.5917 47.4275 22.2898 47.6116C21.9879 47.7957 21.7412 48.0578 21.5757 48.3703C21.3254 48.8051 20.9645 49.166 20.5297 49.4163C19.2536 50.0963 18.3749 50.0335 16.7431 49.1653L12.559 46.9163C12.3903 46.8276 12.2491 46.6944 12.1506 46.5312C12.0521 46.3681 12 46.1812 12 45.9906C12 45.8 12.0521 45.613 12.1506 45.4498C12.2491 45.2867 12.3903 45.1536 12.559 45.0648L27.3812 37.1464C27.5027 37.0703 27.6386 37.0201 27.7804 36.9988C27.9222 36.9774 28.0669 36.9855 28.2055 37.0224C28.3441 37.0593 28.4736 37.1244 28.5859 37.2135C28.6983 37.3026 28.7911 37.4138 28.8587 37.5403C28.9263 37.6668 28.9671 37.8058 28.9787 37.9488C28.9902 38.0917 28.9723 38.2356 28.9259 38.3713C28.8795 38.507 28.8058 38.6318 28.7092 38.7378C28.6126 38.8438 28.4952 38.9287 28.3644 38.9874L15.2682 45.9854L17.7577 47.3243C18.8979 47.931 19.0443 47.8577 19.5674 47.5649C19.6784 47.4634 19.7705 47.3429 19.8393 47.2091C20.1603 46.6468 20.6142 46.1717 21.1612 45.8252C21.7082 45.4788 22.3318 45.2716 22.9774 45.2218C24.7927 45.0331 26.6215 45.4171 28.2075 46.32C29.2649 46.7809 30.1118 47.6203 30.582 48.6736C30.6623 48.9173 30.6917 49.1749 30.6683 49.4304C30.6449 49.6859 30.5692 49.9339 30.446 50.159C29.7347 51.477 28.082 51.7699 26.8895 51.9895H26.6071L31.6071 54.6673L36.6698 51.9581C38.2912 51.0899 39.1803 51.0272 40.446 51.7071C40.8793 51.9594 41.2397 52.3198 41.492 52.7531C41.6557 53.067 41.902 53.3304 42.2043 53.5148C42.5066 53.6991 42.8534 53.7974 43.2075 53.7991C44.5576 53.9055 45.9087 53.6069 47.0882 52.9414C47.6262 52.7194 48.0955 52.3584 48.4481 51.8954C47.8234 51.4842 47.1024 51.2427 46.356 51.1945C45.7852 51.1249 45.228 50.9698 44.7033 50.7343C44.2953 50.5147 43.5213 50.1067 43.5213 49.2385C43.5213 48.3703 44.3372 47.8473 45.174 47.3975L47.9251 45.933L42.4021 42.9833C42.1565 42.8515 41.9734 42.6276 41.893 42.3608C41.8125 42.094 41.8414 41.8062 41.9732 41.5607C42.105 41.3152 42.3289 41.132 42.5956 41.0516C42.8624 40.9712 43.1502 41 43.3958 41.1318L50.6343 45.002C50.8029 45.0908 50.9442 45.224 51.0427 45.3871C51.1412 45.5503 51.1933 45.7372 51.1933 45.9278C51.1933 46.1184 51.1412 46.3054 51.0427 46.4685C50.9442 46.6317 50.8029 46.7648 50.6343 46.8535L46.4502 49.0815H46.7221C47.925 49.3012 49.5673 49.6046 50.2891 50.9121C50.4147 51.1363 50.4918 51.3844 50.5152 51.6403C50.5386 51.8962 50.5079 52.1542 50.425 52.3975C49.9502 53.4622 49.0964 54.3123 48.0296 54.7824C46.4358 55.662 44.609 56.0274 42.7995 55.8285C42.1539 55.7787 41.5304 55.5715 40.9833 55.225C40.4363 54.8786 39.9824 54.4034 39.6615 53.841C39.5894 53.7062 39.4977 53.5829 39.3895 53.4749C38.8665 53.1925 38.7305 53.1193 37.5904 53.726L32.036 56.6966C31.901 56.8436 31.7267 56.9489 31.5339 57Z" fill="#FA4616"/>
<path d="M39.5987 34.9811C39.3213 34.9811 39.0552 34.871 38.8591 34.6748C38.6629 34.4786 38.5527 34.2125 38.5527 33.9351C38.5527 33.6577 38.6629 33.3916 38.8591 33.1954C39.0552 32.9992 39.3213 32.8891 39.5987 32.8891C40.4 32.7992 41.1471 32.4398 41.7172 31.8696C42.2874 31.2994 42.6469 30.5523 42.7368 29.751V24.5209C42.7368 20.8807 38.1447 20.3368 35.4146 20.3368C32.6845 20.3368 28.0924 20.8807 28.0924 24.5209V29.751C28.1823 30.5523 28.5418 31.2994 29.112 31.8696C29.6822 32.4398 30.4292 32.7992 31.2305 32.8891C31.5079 32.8891 31.774 32.9992 31.9702 33.1954C32.1663 33.3916 32.2765 33.6577 32.2765 33.9351C32.2765 34.2125 32.1663 34.4786 31.9702 34.6748C31.774 34.871 31.5079 34.9811 31.2305 34.9811C29.877 34.8797 28.6049 34.2961 27.6451 33.3364C26.6854 32.3766 26.1018 31.1045 26.0004 29.751V24.5209C26.0004 20.5251 29.4314 18.2448 35.4146 18.2448C41.3979 18.2448 44.8288 20.5251 44.8288 24.5209V29.751C44.7274 31.1045 44.1439 32.3766 43.1841 33.3364C42.2244 34.2961 40.9522 34.8797 39.5987 34.9811V34.9811Z" fill="#404040"/>
<path d="M35.4146 17.1987C34.8471 17.1994 34.2854 17.0847 33.7636 16.8615C33.2418 16.6383 32.7709 16.3112 32.3795 15.9003C31.9881 15.4893 31.6844 15.003 31.4869 14.4709C31.2894 13.9389 31.2021 13.3723 31.2305 12.8055V11.1841C31.2305 10.0744 31.6713 9.01022 32.456 8.22555C33.2407 7.44088 34.3049 7 35.4146 7C36.5243 7 37.5885 7.44088 38.3732 8.22555C39.1579 9.01022 39.5987 10.0744 39.5987 11.1841V12.8577C39.6198 13.4202 39.5272 13.9813 39.3264 14.5072C39.1256 15.0331 38.8207 15.513 38.4301 15.9183C38.0394 16.3236 37.571 16.646 37.0529 16.866C36.5347 17.086 35.9775 17.1991 35.4146 17.1987ZM35.4146 8.83054C35.1214 8.82907 34.8311 8.88929 34.5626 9.00726C34.2941 9.12523 34.0534 9.29834 33.8561 9.51533C33.6589 9.73233 33.5094 9.9883 33.4175 10.2668C33.3256 10.5453 33.2932 10.84 33.3226 11.1317V12.8055C33.3226 13.3603 33.543 13.8924 33.9353 14.2848C34.3276 14.6771 34.8598 14.8975 35.4146 14.8975C35.9695 14.8975 36.5016 14.6771 36.8939 14.2848C37.2862 13.8924 37.5067 13.3603 37.5067 12.8055V11.1841C37.5439 10.8882 37.5175 10.5879 37.4292 10.303C37.3409 10.0182 37.1928 9.75558 36.9947 9.5327C36.7965 9.30982 36.5531 9.1318 36.2806 9.01071C36.0081 8.88962 35.7128 8.8282 35.4146 8.83054Z" fill="#404040"/>
<path d="M39.5987 46.4874C39.3213 46.4874 39.0552 46.3772 38.8591 46.181C38.6629 45.9849 38.5527 45.7188 38.5527 45.4413V25.5669C38.5527 25.2895 38.6629 25.0234 38.8591 24.8272C39.0552 24.631 39.3213 24.5209 39.5987 24.5209C39.8761 24.5209 40.1422 24.631 40.3384 24.8272C40.5345 25.0234 40.6447 25.2895 40.6447 25.5669V45.4413C40.6447 45.7188 40.5345 45.9849 40.3384 46.181C40.1422 46.3772 39.8761 46.4874 39.5987 46.4874Z" fill="#404040"/>
<path d="M31.2305 46.4874C30.9531 46.4874 30.687 46.3772 30.4909 46.181C30.2947 45.9849 30.1845 45.7188 30.1845 45.4413V25.5669C30.1845 25.2895 30.2947 25.0234 30.4909 24.8272C30.687 24.631 30.9531 24.5209 31.2305 24.5209C31.5079 24.5209 31.774 24.631 31.9702 24.8272C32.1663 25.0234 32.2765 25.2895 32.2765 25.5669V45.4413C32.2765 45.7188 32.1663 45.9849 31.9702 46.181C31.774 46.3772 31.5079 46.4874 31.2305 46.4874Z" fill="#404040"/>
<path d="M35.4146 46.4874C35.1372 46.4874 34.8711 46.3772 34.675 46.1811C34.4788 45.9849 34.3686 45.7188 34.3686 45.4414V32.8891C34.3686 32.6117 34.4788 32.3456 34.675 32.1494C34.8711 31.9532 35.1372 31.8431 35.4146 31.8431C35.692 31.8431 35.9581 31.9532 36.1543 32.1494C36.3504 32.3456 36.4606 32.6117 36.4606 32.8891V45.4414C36.4606 45.7188 36.3504 45.9849 36.1543 46.1811C35.9581 46.3772 35.692 46.4874 35.4146 46.4874Z" fill="#404040"/>
</svg>
