<svg width="64" height="64" viewBox="0 0 64 64" fill="none" xmlns="http://www.w3.org/2000/svg">
<path d="M34.4347 48.3042H29.2174C28.9676 48.3109 28.7231 48.2314 28.5252 48.0789C28.3272 47.9265 28.1878 47.7104 28.1304 47.4673L27.5978 45.1847C27.1295 44.958 26.679 44.6964 26.25 44.4021L24 45.0869C23.7643 45.1588 23.5111 45.1485 23.282 45.0576C23.0529 44.9668 22.8615 44.8008 22.7391 44.5869L20.1304 40.0651C20.0087 39.8517 19.9628 39.6034 20.0004 39.3606C20.0379 39.1178 20.1565 38.8949 20.3369 38.7282L22.0761 37.1738C22.0761 36.9057 22.0761 36.6449 22.0761 36.3913C22.0761 36.1413 22.0761 35.8912 22.0761 35.6086L20.3695 34.0108C20.1891 33.8441 20.0705 33.6212 20.033 33.3784C19.9955 33.1356 20.0413 32.8872 20.163 32.6738L22.7717 28.1521C22.8957 27.9402 23.0879 27.7764 23.3168 27.6876C23.5458 27.5988 23.7981 27.5901 24.0326 27.663L26.2826 28.3478C26.7065 28.0455 27.1577 27.7835 27.6304 27.5651L28.163 25.2826C28.2182 25.0374 28.3567 24.8189 28.5549 24.6643C28.7531 24.5097 28.9987 24.4286 29.25 24.4348H34.4673C34.7186 24.4286 34.9642 24.5097 35.1624 24.6643C35.3606 24.8189 35.4991 25.0374 35.5543 25.2826L36.0869 27.5651C36.5596 27.7835 37.0108 28.0455 37.4347 28.3478L39.6847 27.663C39.9192 27.5901 40.1715 27.5988 40.4005 27.6876C40.6294 27.7764 40.8216 27.9402 40.9456 28.1521L43.5543 32.6738C43.676 32.8872 43.7219 33.1356 43.6844 33.3784C43.6468 33.6212 43.5282 33.8441 43.3478 34.0108L41.6412 35.6086C41.6412 35.8912 41.6412 36.1413 41.6412 36.3913C41.6412 36.6413 41.6412 36.9021 41.6412 37.1738L43.3478 38.7716C43.5282 38.9383 43.6468 39.1613 43.6844 39.4041C43.7219 39.6469 43.676 39.8952 43.5543 40.1086L40.9456 44.6303C40.8232 44.8443 40.6318 45.0103 40.4027 45.1012C40.1736 45.192 39.9204 45.2023 39.6847 45.1303L37.4347 44.4456C37.0057 44.7399 36.5552 45.0014 36.0869 45.2281L35.5543 47.5108C35.4874 47.7516 35.3395 47.962 35.1356 48.1065C34.9316 48.2511 34.6841 48.3209 34.4347 48.3042V48.3042ZM30.0869 46.1303H33.5869L34.0434 44.1629C34.082 43.9942 34.1604 43.8372 34.2719 43.7049C34.3835 43.5725 34.525 43.4687 34.6847 43.4021C35.3409 43.1262 35.9555 42.7604 36.5108 42.3151C36.6486 42.2069 36.8105 42.1336 36.9827 42.1014C37.1549 42.0692 37.3324 42.0791 37.4999 42.1303L39.4347 42.7173L41.1847 39.6956L39.6956 38.3151C39.5676 38.1962 39.4701 38.0482 39.4114 37.8836C39.3527 37.719 39.3346 37.5426 39.3586 37.3695C39.4183 37.0103 39.4474 36.6467 39.4456 36.2825C39.4465 35.9184 39.4175 35.5549 39.3586 35.1956C39.3364 35.0242 39.3554 34.85 39.414 34.6875C39.4726 34.5249 39.5692 34.3786 39.6956 34.2608L41.1847 32.8695L39.4347 29.8478L37.4999 30.4456C37.3324 30.4968 37.1549 30.5068 36.9827 30.4746C36.8105 30.4424 36.6486 30.3691 36.5108 30.2608C35.9582 29.8117 35.343 29.4455 34.6847 29.1739C34.5237 29.1062 34.3813 29.0008 34.2697 28.8664C34.1581 28.7321 34.0804 28.5728 34.0434 28.4021L33.5869 26.4347H30.0869L29.6304 28.4021C29.5934 28.5728 29.5158 28.7321 29.4041 28.8664C29.2925 29.0008 29.1501 29.1062 28.9891 29.1739C28.3308 29.4455 27.7156 29.8117 27.163 30.2608C27.0252 30.3691 26.8633 30.4424 26.6911 30.4746C26.5189 30.5068 26.3414 30.4968 26.1739 30.4456L24.2391 29.8478L22.4891 32.8695L23.9782 34.2608C24.1047 34.3786 24.2012 34.5249 24.2598 34.6875C24.3184 34.85 24.3374 35.0242 24.3152 35.1956C24.2564 35.5549 24.2273 35.9184 24.2282 36.2825C24.2264 36.6467 24.2555 37.0103 24.3152 37.3695C24.3392 37.5426 24.3211 37.719 24.2624 37.8836C24.2038 38.0482 24.1063 38.1962 23.9782 38.3151L22.4891 39.6956L24.2391 42.7173L26.1739 42.1303C26.3414 42.0791 26.5189 42.0692 26.6911 42.1014C26.8633 42.1336 27.0252 42.2069 27.163 42.3151C27.7183 42.7604 28.3329 43.1262 28.9891 43.4021C29.1488 43.4687 29.2904 43.5725 29.4019 43.7049C29.5135 43.8372 29.5918 43.9942 29.6304 44.1629L30.0869 46.1303Z" fill="#404040"/>
<path d="M31.826 40.6956C30.9661 40.6956 30.1255 40.4406 29.4105 39.9628C28.6955 39.4851 28.1382 38.8061 27.8092 38.0116C27.4801 37.2172 27.394 36.343 27.5618 35.4996C27.7295 34.6562 28.1436 33.8814 28.7517 33.2734C29.3597 32.6653 30.1344 32.2512 30.9778 32.0835C31.8212 31.9157 32.6954 32.0018 33.4899 32.3309C34.2843 32.66 34.9634 33.2172 35.4411 33.9322C35.9189 34.6472 36.1738 35.4878 36.1738 36.3478C36.1738 37.5009 35.7158 38.6068 34.9004 39.4221C34.085 40.2375 32.9791 40.6956 31.826 40.6956ZM31.826 34.1739C31.3961 34.1739 30.9758 34.3014 30.6183 34.5403C30.2608 34.7791 29.9821 35.1186 29.8176 35.5158C29.6531 35.9131 29.61 36.3502 29.6939 36.7719C29.7778 37.1936 29.9848 37.581 30.2888 37.885C30.5929 38.189 30.9802 38.3961 31.4019 38.4799C31.8236 38.5638 32.2607 38.5207 32.6579 38.3562C33.0552 38.1917 33.3947 37.913 33.6336 37.5555C33.8724 37.198 33.9999 36.7777 33.9999 36.3478C33.9999 35.7712 33.7709 35.2183 33.3632 34.8106C32.9555 34.4029 32.4026 34.1739 31.826 34.1739Z" fill="#404040"/>
<path d="M31.826 15.6956C30.9661 15.6956 30.1255 15.4406 29.4105 14.9629C28.6955 14.4852 28.1382 13.8061 27.8092 13.0116C27.4801 12.2172 27.394 11.343 27.5618 10.4996C27.7295 9.65618 28.1436 8.88148 28.7517 8.27343C29.3597 7.66537 30.1344 7.2513 30.9778 7.08354C31.8212 6.91578 32.6954 7.00189 33.4899 7.33097C34.2843 7.66004 34.9634 8.21731 35.4411 8.93231C35.9189 9.6473 36.1738 10.4879 36.1738 11.3478C36.1738 12.5009 35.7158 13.6068 34.9004 14.4222C34.085 15.2375 32.9791 15.6956 31.826 15.6956ZM31.826 9.17389C31.3961 9.17389 30.9758 9.30139 30.6183 9.54027C30.2608 9.77914 29.9821 10.1187 29.8176 10.5159C29.6531 10.9131 29.61 11.3502 29.6939 11.7719C29.7778 12.1936 29.9848 12.581 30.2888 12.885C30.5929 13.189 30.9802 13.3961 31.4019 13.4799C31.8236 13.5638 32.2607 13.5208 32.6579 13.3562C33.0552 13.1917 33.3947 12.9131 33.6336 12.5556C33.8724 12.1981 33.9999 11.7778 33.9999 11.3478C33.9999 10.7712 33.7709 10.2183 33.3632 9.81061C32.9555 9.40293 32.4026 9.17389 31.826 9.17389Z" fill="#404040"/>
<path d="M38.3478 21.1304H36.1739V17.8695C36.1739 16.8478 34.3152 15.6956 31.826 15.6956C29.3369 15.6956 27.4782 16.8478 27.4782 17.8695V21.1304H25.3043V17.8695C25.3043 15.4348 28.1739 13.5217 31.826 13.5217C35.4782 13.5217 38.3478 15.4348 38.3478 17.8695V21.1304Z" fill="#404040"/>
<path d="M14.4348 50.4782C13.5749 50.4782 12.7343 50.2232 12.0193 49.7454C11.3043 49.2677 10.747 48.5887 10.4179 47.7942C10.0889 46.9998 10.0028 46.1255 10.1705 45.2822C10.3383 44.4388 10.7524 43.664 11.3604 43.056C11.9685 42.4479 12.7432 42.0338 13.5866 41.8661C14.43 41.6983 15.3042 41.7844 16.0986 42.1135C16.8931 42.4426 17.5721 42.9998 18.0499 43.7148C18.5276 44.4298 18.7826 45.2704 18.7826 46.1303C18.7826 47.2835 18.3245 48.3893 17.5092 49.2047C16.6938 50.0201 15.5879 50.4782 14.4348 50.4782ZM14.4348 43.9564C14.0048 43.9564 13.5845 44.084 13.227 44.3228C12.8695 44.5617 12.5909 44.9012 12.4264 45.2984C12.2618 45.6956 12.2188 46.1328 12.3027 46.5545C12.3865 46.9762 12.5936 47.3635 12.8976 47.6676C13.2016 47.9716 13.589 48.1786 14.0107 48.2625C14.4324 48.3464 14.8695 48.3033 15.2667 48.1388C15.6639 47.9743 16.0035 47.6956 16.2423 47.3381C16.4812 46.9806 16.6087 46.5603 16.6087 46.1303C16.6087 45.5538 16.3797 45.0009 15.972 44.5932C15.5643 44.1855 15.0113 43.9564 14.4348 43.9564Z" fill="#404040"/>
<path d="M19.8695 55.9129H17.6956V52.6521C17.6956 51.4781 16.2065 50.4781 14.4348 50.4781C12.663 50.4781 11.1739 51.4781 11.1739 52.6521V55.9129H9V52.6521C9 50.2608 11.4348 48.3042 14.4348 48.3042C17.4348 48.3042 19.8695 50.2608 19.8695 52.6521V55.9129Z" fill="#404040"/>
<path d="M49.2173 50.4782C48.3573 50.4782 47.5167 50.2232 46.8018 49.7454C46.0868 49.2677 45.5295 48.5887 45.2004 47.7942C44.8713 46.9998 44.7852 46.1255 44.953 45.2822C45.1208 44.4388 45.5348 43.664 46.1429 43.056C46.7509 42.4479 47.5257 42.0338 48.369 41.8661C49.2124 41.6983 50.0866 41.7844 50.8811 42.1135C51.6756 42.4426 52.3546 42.9998 52.8323 43.7148C53.3101 44.4298 53.5651 45.2704 53.5651 46.1303C53.5651 47.2835 53.107 48.3893 52.2916 49.2047C51.4763 50.0201 50.3704 50.4782 49.2173 50.4782ZM49.2173 43.9564C48.7873 43.9564 48.367 44.084 48.0095 44.3228C47.652 44.5617 47.3734 44.9012 47.2088 45.2984C47.0443 45.6956 47.0012 46.1328 47.0851 46.5545C47.169 46.9762 47.3761 47.3635 47.6801 47.6676C47.9841 47.9716 48.3715 48.1786 48.7932 48.2625C49.2149 48.3464 49.652 48.3033 50.0492 48.1388C50.4464 47.9743 50.7859 47.6956 51.0248 47.3381C51.2637 46.9806 51.3912 46.5603 51.3912 46.1303C51.3912 45.5538 51.1621 45.0009 50.7545 44.5932C50.3468 44.1855 49.7938 43.9564 49.2173 43.9564Z" fill="#404040"/>
<path d="M54.6521 55.9129H52.4782V52.6521C52.4782 51.4781 50.989 50.4781 49.2173 50.4781C47.4456 50.4781 45.9564 51.4781 45.9564 52.6521V55.9129H43.7825V52.6521C43.7825 50.2608 46.2173 48.3042 49.2173 48.3042C52.2173 48.3042 54.6521 50.2608 54.6521 52.6521V55.9129Z" fill="#404040"/>
<path d="M11.3043 38.7282C11.2173 37.9377 11.1738 37.143 11.1739 36.3477C11.1704 32.7128 12.1264 29.1413 13.9452 25.9942C15.764 22.847 18.3813 20.2356 21.5326 18.4239L22.6195 20.3152C19.7997 21.9369 17.4563 24.2722 15.825 27.0865C14.1937 29.9008 13.3318 33.0948 13.3261 36.3477C13.3258 37.074 13.3657 37.7998 13.4456 38.5217L11.3043 38.7282Z" fill="#FA4616"/>
<path d="M31.826 56.9999C28.6183 57.0112 25.453 56.2665 22.5869 54.826L23.5652 52.8803C26.1302 54.1623 28.9584 54.8297 31.826 54.8297C34.6936 54.8297 37.5218 54.1623 40.0869 52.8803L41.0651 54.826C38.199 56.2665 35.0338 57.0112 31.826 56.9999V56.9999Z" fill="#FA4616"/>
<path d="M52.3478 38.7282L50.1739 38.4782C50.2538 37.7563 50.2938 37.0306 50.2935 36.3043C50.2877 33.0514 49.4259 29.8573 47.7945 27.043C46.1632 24.2287 43.8199 21.8934 41 20.2717L42.087 18.3804C45.2443 20.188 47.8681 22.7976 49.6928 25.9451C51.5175 29.0925 52.4784 32.6661 52.4782 36.3043C52.4799 37.1141 52.4364 37.9233 52.3478 38.7282V38.7282Z" fill="#FA4616"/>
</svg>
