<svg width="64" height="64" viewBox="0 0 64 64" fill="none" xmlns="http://www.w3.org/2000/svg">
<path d="M25.0851 43.1702C21.5082 43.1702 18.0116 42.1095 15.0376 40.1223C12.0635 38.1351 9.74548 35.3106 8.37666 32.006C7.00784 28.7014 6.64969 25.065 7.34751 21.5569C8.04532 18.0487 9.76778 14.8263 12.297 12.2971C14.8263 9.76782 18.0487 8.04532 21.5569 7.34751C25.065 6.64969 28.7013 7.00784 32.006 8.37666C35.3106 9.74548 38.1351 12.0635 40.1223 15.0376C42.1095 18.0117 43.1702 21.5082 43.1702 25.0851C43.1702 29.8816 41.2648 34.4816 37.8732 37.8732C34.4816 41.2648 29.8816 43.1702 25.0851 43.1702ZM25.0851 9.12772C21.929 9.12772 18.8438 10.0636 16.2196 11.817C13.5954 13.5704 11.5502 16.0626 10.3424 18.9785C9.1346 21.8943 8.81857 25.1028 9.43429 28.1983C10.05 31.2937 11.5698 34.137 13.8015 36.3687C16.0332 38.6004 18.8765 40.1202 21.972 40.7359C25.0674 41.3516 28.2759 41.0356 31.1917 39.8278C34.1076 38.6201 36.5998 36.5748 38.3532 33.9506C40.1066 31.3264 41.0425 28.2412 41.0425 25.0851C41.0425 20.853 39.3613 16.7941 36.3687 13.8015C33.3761 10.8089 29.3173 9.12772 25.0851 9.12772Z" fill="#404040"/>
<path d="M52.7446 57C52.6046 57.0008 52.4658 56.9739 52.3362 56.921C52.2066 56.868 52.0887 56.79 51.9893 56.6914L38.1596 42.8617C37.9614 42.6624 37.8502 42.3927 37.8502 42.1117C37.8502 41.8306 37.9614 41.561 38.1596 41.3617L41.351 38.1702C41.5504 37.9721 41.82 37.8608 42.101 37.8608C42.3821 37.8608 42.6517 37.9721 42.851 38.1702L56.6808 52C56.8789 52.1993 56.9901 52.4689 56.9901 52.7499C56.9901 53.031 56.8789 53.3006 56.6808 53.5L53.4893 56.6914C53.2911 56.888 53.0237 56.9988 52.7446 57ZM40.4149 42.1064L52.7446 54.4361L54.4255 52.7447L42.1063 40.4149L40.4149 42.1064Z" fill="#404040"/>
<path d="M40.5106 41.5745C40.3706 41.5753 40.2318 41.5484 40.1022 41.4955C39.9726 41.4425 39.8547 41.3645 39.7553 41.2659L36.3617 37.8723C36.1636 37.673 36.0523 37.4034 36.0523 37.1224C36.0523 36.8413 36.1636 36.5717 36.3617 36.3723C36.4606 36.2726 36.5782 36.1934 36.7079 36.1394C36.8375 36.0854 36.9766 36.0576 37.117 36.0576C37.2574 36.0576 37.3965 36.0854 37.5261 36.1394C37.6558 36.1934 37.7734 36.2726 37.8723 36.3723L41.2553 39.766C41.4534 39.9653 41.5646 40.2349 41.5646 40.5159C41.5646 40.797 41.4534 41.0666 41.2553 41.2659C41.0571 41.4625 40.7897 41.5733 40.5106 41.5745Z" fill="#404040"/>
<path d="M32.5319 33.5958H30.4042V30.4043C30.4042 28.2766 27.2128 27.2128 25.0851 27.2128C22.9574 27.2128 19.766 28.2766 19.766 30.4043V33.5958H17.6383V30.4043C17.6383 26.9468 21.4681 25.0851 25.0851 25.0851C28.7021 25.0851 32.5319 26.9468 32.5319 30.4043V33.5958Z" fill="#FA4616"/>
<path d="M25.0851 27.2128C24.3931 27.2387 23.703 27.1241 23.0565 26.876C22.41 26.6279 21.8204 26.2514 21.3233 25.7693C20.8263 25.2871 20.432 24.7093 20.1643 24.0706C19.8967 23.4319 19.7612 22.7457 19.766 22.0532V20.6809C19.766 19.2702 20.3263 17.9172 21.3239 16.9197C22.3214 15.9222 23.6744 15.3617 25.0851 15.3617C26.4958 15.3617 27.8488 15.9222 28.8463 16.9197C29.8438 17.9172 30.4042 19.2702 30.4042 20.6809V22.0532C30.409 22.7457 30.2735 23.4319 30.0059 24.0706C29.7382 24.7093 29.3439 25.2871 28.8469 25.7693C28.3498 26.2514 27.7602 26.6279 27.1137 26.876C26.4672 27.1241 25.7771 27.2387 25.0851 27.2128V27.2128ZM25.0851 17.6383C24.6713 17.6102 24.2563 17.6685 23.8663 17.8094C23.4762 17.9504 23.1198 18.171 22.8197 18.4571C22.5195 18.7433 22.2822 19.0888 22.1227 19.4716C21.9633 19.8544 21.8853 20.2663 21.8936 20.6809V22.0532C21.8936 22.8996 22.2298 23.7114 22.8284 24.3099C23.4269 24.9085 24.2387 25.2447 25.0851 25.2447C25.9315 25.2447 26.7433 24.9085 27.3418 24.3099C27.9403 23.7114 28.2766 22.8996 28.2766 22.0532V20.6809C28.2849 20.2663 28.2069 19.8544 28.0474 19.4716C27.888 19.0888 27.6507 18.7433 27.3505 18.4571C27.0504 18.171 26.694 17.9504 26.304 17.8094C25.9139 17.6685 25.4989 17.6102 25.0851 17.6383V17.6383Z" fill="#FA4616"/>
</svg>
