<svg width="64" height="64" viewBox="0 0 64 64" fill="none" xmlns="http://www.w3.org/2000/svg">
<path d="M31.9073 36.0925H31.7401C31.4671 36.0464 31.2236 35.8941 31.0629 35.6687C30.9022 35.4433 30.8375 35.1633 30.8829 34.8903C32.0014 28.179 40.6989 24.6144 46.5634 24.6144C46.8406 24.6144 47.1065 24.7245 47.3026 24.9205C47.4986 25.1166 47.6087 25.3825 47.6087 25.6597V27.7505C47.6087 28.0277 47.4986 28.2937 47.3026 28.4897C47.1065 28.6858 46.8406 28.7958 46.5634 28.7958C46.2861 28.7958 46.0202 28.6858 45.8242 28.4897C45.6281 28.2937 45.518 28.0277 45.518 27.7505V26.7051C40.5734 27.0814 33.8203 30.0712 32.9736 35.1935C32.9377 35.4483 32.809 35.681 32.6123 35.8468C32.4156 36.0127 32.1645 36.1002 31.9073 36.0925V36.0925Z" fill="#FA4616"/>
<path d="M31.9074 56.9999C31.6316 56.9959 31.3686 56.8833 31.1756 56.6863C28.4263 53.9475 19.478 52.8184 14.3452 53.8428C14.1933 53.8728 14.0367 53.8687 13.8867 53.8307C13.7366 53.7928 13.5969 53.7219 13.4775 53.6234C13.3576 53.5261 13.2608 53.4034 13.1939 53.2643C13.127 53.1251 13.0918 52.9728 13.0908 52.8184V44.4555C13.0908 44.1782 13.2009 43.9124 13.3969 43.7164C13.593 43.5203 13.8589 43.4101 14.1361 43.4101C14.4134 43.4101 14.6793 43.5203 14.8753 43.7164C15.0714 43.9124 15.1815 44.1782 15.1815 44.4555V51.5849C20.5129 50.9159 29.3358 51.8985 32.6496 55.2123C32.797 55.3585 32.8976 55.5453 32.9384 55.7489C32.9792 55.9525 32.9585 56.1637 32.8789 56.3554C32.7993 56.5472 32.6644 56.7109 32.4913 56.8257C32.3183 56.9405 32.115 57.0011 31.9074 56.9999Z" fill="#404040"/>
<path d="M14.1361 39.2286C13.8589 39.2286 13.593 39.1186 13.3969 38.9225C13.2009 38.7265 13.0907 38.4605 13.0907 38.1833V31.9111C13.0863 31.665 13.1687 31.4253 13.3236 31.2341C13.4785 31.0429 13.6959 30.9124 13.9375 30.8657C19.0075 29.8203 29.064 30.6985 32.6496 34.2841C32.759 34.3778 32.8479 34.4932 32.9106 34.6229C32.9734 34.7526 33.0086 34.8938 33.0142 35.0377C33.0198 35.1817 32.9955 35.3253 32.9429 35.4595C32.8904 35.5936 32.8107 35.7154 32.7088 35.8173C32.6069 35.9192 32.4851 35.9989 32.3509 36.0515C32.2168 36.104 32.0732 36.1282 31.9293 36.1227C31.7853 36.1171 31.644 36.0819 31.5143 36.0192C31.3846 35.9564 31.2693 35.8675 31.1756 35.7581C28.5726 33.1656 20.3979 32.0052 15.1815 32.7683V38.1623C15.1843 38.3014 15.1593 38.4397 15.108 38.5689C15.0567 38.6982 14.9801 38.8158 14.8828 38.9151C14.7854 39.0144 14.6693 39.0933 14.5411 39.1471C14.4128 39.2009 14.2752 39.2287 14.1361 39.2286V39.2286Z" fill="#404040"/>
<path d="M31.9073 56.9999C31.7011 56.995 31.5009 56.9292 31.3319 56.8107C31.163 56.6923 31.0329 56.5265 30.958 56.3342C30.8831 56.142 30.8668 55.9319 30.9111 55.7304C30.9554 55.5289 31.0583 55.345 31.2069 55.2019C34.5207 51.888 43.3436 50.9159 48.6646 51.5745V43.3996C48.6646 43.1224 48.7747 42.8566 48.9707 42.6605C49.1668 42.4645 49.4327 42.3542 49.7099 42.3542C49.9872 42.3542 50.2531 42.4645 50.4491 42.6605C50.6452 42.8566 50.7553 43.1224 50.7553 43.3996V52.8079C50.7555 52.9615 50.722 53.1133 50.6569 53.2524C50.5919 53.3915 50.497 53.5146 50.379 53.6129C50.2596 53.7114 50.1199 53.7823 49.9698 53.8202C49.8198 53.8582 49.6632 53.8623 49.5113 53.8324C44.3786 52.787 35.4198 53.937 32.6809 56.6759C32.5813 56.7804 32.4612 56.863 32.328 56.9188C32.1949 56.9746 32.0517 57.0022 31.9073 56.9999Z" fill="#404040"/>
<path d="M49.6786 38.1832C49.4013 38.1832 49.1354 38.0731 48.9394 37.8771C48.7433 37.6811 48.6332 37.4151 48.6332 37.1379V31.7542C43.5004 31.1061 35.3257 33.1028 32.6495 35.779C32.4537 35.9737 32.1887 36.0829 31.9126 36.0829C31.6364 36.0829 31.3714 35.9737 31.1756 35.779C30.9809 35.5831 30.8716 35.3181 30.8716 35.0419C30.8716 34.7657 30.9809 34.5008 31.1756 34.305C34.4998 30.9807 44.1172 28.6809 49.8876 29.8412C50.1273 29.8901 50.3423 30.0214 50.4951 30.2124C50.6479 30.4034 50.7289 30.642 50.7239 30.8866V37.1588C50.7185 37.4324 50.6059 37.693 50.4105 37.8845C50.215 38.076 49.9522 38.1833 49.6786 38.1832V38.1832Z" fill="#404040"/>
<path d="M31.9074 56.9998C31.6301 56.9998 31.3642 56.8898 31.1682 56.6937C30.9721 56.4977 30.862 56.2317 30.862 55.9545V35.0471C30.862 34.7699 30.9721 34.5041 31.1682 34.308C31.3642 34.112 31.6301 34.0018 31.9074 34.0018C32.1846 34.0018 32.4505 34.112 32.6466 34.308C32.8426 34.5041 32.9527 34.7699 32.9527 35.0471V55.9545C32.9527 56.2317 32.8426 56.4977 32.6466 56.6937C32.4505 56.8898 32.1846 56.9998 31.9074 56.9998Z" fill="#404040"/>
<path d="M29.8166 24.5935C27.8518 24.5659 25.978 23.7603 24.6063 22.3533C23.2345 20.9463 22.4767 19.0527 22.4991 17.0878V14.3176C22.4991 12.3768 23.27 10.5156 24.6423 9.14331C26.0147 7.771 27.8759 7 29.8166 7C31.7574 7 33.6186 7.771 34.991 9.14331C36.3633 10.5156 37.1342 12.3768 37.1342 14.3176V17.0878C37.1566 19.0527 36.3988 20.9463 35.027 22.3533C33.6553 23.7603 31.7815 24.5659 29.8166 24.5935ZM29.8166 8.91298C28.4081 8.94046 27.0677 9.52436 26.0883 10.537C25.109 11.5497 24.5702 12.9089 24.5898 14.3176V17.0878C24.5898 18.4741 25.1405 19.8035 26.1207 20.7837C27.1009 21.764 28.4304 22.3147 29.8166 22.3147C31.2029 22.3147 32.5324 21.764 33.5126 20.7837C34.4928 19.8035 35.0435 18.4741 35.0435 17.0878V14.3176C35.0659 12.9081 34.528 11.5474 33.5481 10.5341C32.5681 9.52082 31.2261 8.93772 29.8166 8.91298V8.91298Z" fill="#404040"/>
<path d="M17.7949 29.2036C17.611 29.2044 17.4302 29.1566 17.2707 29.0652C17.1113 28.9737 16.9787 28.8418 16.8865 28.6827C16.7942 28.5237 16.7455 28.3431 16.7454 28.1593C16.7452 27.9754 16.7935 27.7948 16.8854 27.6356C18.6625 24.5622 23.858 22.5028 29.8166 22.5028C32.3011 22.4772 34.773 22.8586 37.1342 23.6319C37.3867 23.7292 37.5916 23.9206 37.7058 24.1659C37.82 24.4112 37.8347 24.6912 37.7467 24.9471C37.6586 25.203 37.4749 25.4148 37.2339 25.538C36.993 25.6611 36.7136 25.6861 36.4547 25.6075C34.324 24.9017 32.0924 24.5486 29.848 24.5621C24.6943 24.5621 20.1261 26.2452 18.7253 28.6496C18.6356 28.8181 18.5014 28.9588 18.3374 29.0565C18.1734 29.1542 17.9858 29.205 17.7949 29.2036V29.2036Z" fill="#404040"/>
<path d="M15.1815 45.5008H13.0907C12.5362 45.5008 12.0045 45.2805 11.6124 44.8884C11.2203 44.4963 11 43.9646 11 43.4101V39.2286C11 38.6741 11.2203 38.1424 11.6124 37.7503C12.0045 37.3582 12.5362 37.1379 13.0907 37.1379H15.1815C16.0132 37.1379 16.8109 37.4683 17.399 38.0564C17.9872 38.6445 18.3176 39.4422 18.3176 40.274V42.3647C18.3176 43.1965 17.9872 43.9942 17.399 44.5823C16.8109 45.1704 16.0132 45.5008 15.1815 45.5008ZM13.0907 39.2286V43.4101H15.1815C15.4587 43.4101 15.7246 43.3 15.9207 43.1039C16.1167 42.9079 16.2268 42.642 16.2268 42.3647V40.274C16.2268 39.9967 16.1167 39.7309 15.9207 39.5349C15.7246 39.3388 15.4587 39.2286 15.1815 39.2286H13.0907Z" fill="#404040"/>
<path d="M50.724 44.4555H48.6332C47.8015 44.4555 47.0038 44.1251 46.4157 43.5369C45.8275 42.9488 45.4971 42.1511 45.4971 41.3194V39.2286C45.4971 38.3969 45.8275 37.5992 46.4157 37.0111C47.0038 36.4229 47.8015 36.0925 48.6332 36.0925H50.724C51.2785 36.0925 51.8103 36.3128 52.2023 36.7049C52.5944 37.097 52.8147 37.6288 52.8147 38.1833V42.3647C52.8147 42.9192 52.5944 43.451 52.2023 43.8431C51.8103 44.2352 51.2785 44.4555 50.724 44.4555ZM48.6332 38.1833C48.356 38.1833 48.0901 38.2935 47.894 38.4895C47.698 38.6856 47.5879 38.9514 47.5879 39.2286V41.3194C47.5879 41.5966 47.698 41.8626 47.894 42.0586C48.0901 42.2546 48.356 42.3647 48.6332 42.3647H50.724V38.1833H48.6332Z" fill="#404040"/>
</svg>
