<svg width="64" height="64" viewBox="0 0 64 64" fill="none" xmlns="http://www.w3.org/2000/svg">
<path d="M18.7213 40.7978H16.561V57H18.7213V40.7978Z" fill="#404040"/>
<path d="M46.5459 49.0609L44.9149 47.6459L52.2059 39.3072V36.4772H11.1603V39.3072L18.4621 47.6459L16.8311 49.0609L9.27004 40.4197C9.09881 40.2256 9.00298 39.9765 9 39.7177V35.3971C9 35.1106 9.1138 34.8358 9.31637 34.6333C9.51893 34.4307 9.79367 34.3169 10.0801 34.3169H53.286C53.5725 34.3169 53.8472 34.4307 54.0498 34.6333C54.2524 34.8358 54.3662 35.1106 54.3662 35.3971V39.7177C54.3662 39.9751 54.2742 40.2241 54.1069 40.4197L46.5459 49.0609Z" fill="#404040"/>
<path d="M46.8051 40.7978H44.6448V57H46.8051V40.7978Z" fill="#404040"/>
<path d="M42.4845 32.1566H40.3242V28.9162C40.2989 28.6728 40.2257 28.4368 40.109 28.2218C39.9922 28.0068 39.8341 27.817 39.6437 27.6632C37.8183 25.8594 33.3033 24.6064 31.6939 24.5956C29.998 24.5956 25.5694 25.8702 23.7548 27.6632C23.374 27.9768 23.13 28.4261 23.0743 28.9162V32.1566H20.914V28.9162C20.9364 28.3846 21.0655 27.8629 21.2938 27.3823C21.522 26.9016 21.8447 26.4719 22.2426 26.1186C24.5973 23.7963 29.728 22.4353 31.7263 22.4353C33.7245 22.4353 38.8336 23.7963 41.1992 26.1186C41.596 26.472 41.9173 26.902 42.1438 27.3828C42.3702 27.8635 42.4972 28.3851 42.5169 28.9162L42.4845 32.1566Z" fill="#FA4616"/>
<path d="M31.6831 21.3552C30.8496 21.384 30.0187 21.2461 29.2392 20.9496C28.4597 20.6531 27.7473 20.204 27.1437 19.6285C26.54 19.053 26.0574 18.3629 25.724 17.5984C25.3906 16.834 25.2132 16.0106 25.2022 15.1767V13.4809C25.2022 11.762 25.885 10.1136 27.1004 8.8982C28.3158 7.6828 29.9643 7 31.6831 7C33.4019 7 35.0504 7.6828 36.2658 8.8982C37.4812 10.1136 38.164 11.762 38.164 13.4809V15.1767C38.153 16.0106 37.9756 16.834 37.6422 17.5984C37.3088 18.3629 36.8262 19.053 36.2225 19.6285C35.6189 20.204 34.9064 20.6531 34.1269 20.9496C33.3474 21.2461 32.5166 21.384 31.6831 21.3552V21.3552ZM31.6831 9.47355C31.135 9.44748 30.5871 9.53098 30.0717 9.71922C29.5562 9.90746 29.0835 10.1966 28.6812 10.5698C28.2788 10.943 27.955 11.3926 27.7286 11.8925C27.5021 12.3924 27.3777 12.9323 27.3625 13.4809V15.1767C27.3625 16.3226 27.8177 17.4216 28.628 18.2318C29.4382 19.0421 30.5372 19.4973 31.6831 19.4973C32.829 19.4973 33.9279 19.0421 34.7382 18.2318C35.5485 17.4216 36.0037 16.3226 36.0037 15.1767V13.4809C35.9885 12.9323 35.864 12.3924 35.6376 11.8925C35.4112 11.3926 35.0873 10.943 34.685 10.5698C34.2827 10.1966 33.8099 9.90746 33.2945 9.71922C32.779 9.53098 32.2312 9.44748 31.6831 9.47355V9.47355Z" fill="#FA4616"/>
<path d="M41.4044 57H39.2441V42.9581H24.122V57H21.9617V41.8779C21.9617 41.5915 22.0755 41.3167 22.2781 41.1141C22.4807 40.9116 22.7554 40.7978 23.0419 40.7978H40.3242C40.6107 40.7978 40.8854 40.9116 41.088 41.1141C41.2906 41.3167 41.4044 41.5915 41.4044 41.8779V57Z" fill="#404040"/>
</svg>
