<svg width="64" height="64" viewBox="0 0 64 64" fill="none" xmlns="http://www.w3.org/2000/svg">
<path d="M22.625 50.75H20.5417V48.6667C20.5422 48.4743 20.5961 48.2858 20.6972 48.1222C20.7983 47.9586 20.9428 47.8262 21.1146 47.7396C21.5257 47.5232 21.878 47.21 22.1412 46.8271C22.4043 46.4442 22.5703 46.0031 22.625 45.5417V42.4167H24.7083V45.5417C24.6832 46.28 24.4808 47.0014 24.1182 47.645C23.7556 48.2886 23.2434 48.8356 22.625 49.2397V50.75Z" fill="#404040"/>
<path d="M45.5312 20.5416H31.9896V22.625H45.5312V20.5416Z" fill="#404040"/>
<path d="M48.6667 43.4583H43.4583C43.1154 43.4861 42.7712 43.4215 42.4617 43.2713C42.1521 43.1211 41.8884 42.8907 41.6979 42.6041C41.5451 42.3416 41.4647 42.0433 41.4647 41.7396C41.4647 41.4358 41.5451 41.1375 41.6979 40.875L41.8646 40.5729C42.1336 40.1922 42.3086 39.7531 42.375 39.2917C42.375 38.7391 42.1555 38.2093 41.7648 37.8186C41.3741 37.4279 40.8442 37.2083 40.2917 37.2083C39.7392 37.2083 39.2093 37.4279 38.8186 37.8186C38.4279 38.2093 38.2084 38.7391 38.2084 39.2917C38.2748 39.7531 38.4497 40.1922 38.7188 40.5729L38.8854 40.875C39.0382 41.1375 39.1187 41.4358 39.1187 41.7396C39.1187 42.0433 39.0382 42.3416 38.8854 42.6041C38.6966 42.8923 38.4332 43.1239 38.1232 43.2743C37.8132 43.4247 37.4683 43.4883 37.125 43.4583H31.9167V41.375H36.7396C36.337 40.7453 36.1112 40.0189 36.0858 39.272C36.0604 38.525 36.2364 37.7849 36.5953 37.1294C36.9543 36.4738 37.483 35.9268 38.126 35.5458C38.769 35.1648 39.5026 34.9638 40.25 34.9638C40.9974 34.9638 41.7311 35.1648 42.3741 35.5458C43.0171 35.9268 43.5457 36.4738 43.9047 37.1294C44.2636 37.7849 44.4397 38.525 44.4143 39.272C44.3889 40.0189 44.1631 40.7453 43.7604 41.375H47.5417V25.75H49.625V42.4167C49.6259 42.6791 49.5276 42.9322 49.35 43.1253C49.1723 43.3184 48.9283 43.4373 48.6667 43.4583V43.4583Z" fill="#404040"/>
<path d="M10.125 50.75H8.04168V38.1874C8.03672 37.4059 8.19439 36.6319 8.50462 35.9146C8.81486 35.1973 9.2709 34.5524 9.84377 34.0208L14.6771 30.1249L15.9896 31.75L11.1979 35.5937C10.8595 35.9299 10.5927 36.3314 10.4137 36.7736C10.2347 37.2158 10.1471 37.6897 10.1563 38.1667L10.125 50.75Z" fill="#404040"/>
<path d="M23.6667 57H8.04167C7.7654 57 7.50046 56.8903 7.30511 56.6949C7.10976 56.4996 7 56.2346 7 55.9583V50.75C7 50.4737 7.10976 50.2087 7.30511 50.0134C7.50046 49.818 7.7654 49.7083 8.04167 49.7083H23.6667C23.9429 49.7083 24.2079 49.818 24.4033 50.0134C24.5986 50.2087 24.7083 50.4737 24.7083 50.75V55.9583C24.7083 56.2346 24.5986 56.4996 24.4033 56.6949C24.2079 56.8903 23.9429 57 23.6667 57ZM9.08333 54.9166H22.625V51.7916H9.08333V54.9166Z" fill="#404040"/>
<path d="M32 43.4479H18.4584V41.3646H30.9584V35.5C30.3346 35.9001 29.6155 36.1266 28.875 36.1562C27.77 36.1562 26.7101 35.7172 25.9287 34.9358C25.1473 34.1544 24.7084 33.0946 24.7084 31.9896C24.7084 30.8845 25.1473 29.8247 25.9287 29.0433C26.7101 28.2619 27.77 27.8229 28.875 27.8229C29.6155 27.8525 30.3346 28.079 30.9584 28.4792V22.6146H26.7917C26.4487 22.6423 26.1046 22.5777 25.795 22.4275C25.4854 22.2773 25.2217 22.047 25.0313 21.7605C24.8785 21.4979 24.798 21.1995 24.798 20.8958C24.798 20.592 24.8785 20.2938 25.0313 20.0312L25.1979 19.7291C25.467 19.3484 25.6419 18.9093 25.7084 18.4479C25.7084 17.8954 25.4889 17.3655 25.0982 16.9748C24.7075 16.5841 24.1776 16.3646 23.625 16.3646C23.0725 16.3646 22.5426 16.5841 22.1519 16.9748C21.7612 17.3655 21.5417 17.8954 21.5417 18.4479C21.6082 18.9093 21.7831 19.3484 22.0521 19.7291L22.2188 20.0312C22.3716 20.2938 22.4521 20.592 22.4521 20.8958C22.4521 21.1995 22.3716 21.4979 22.2188 21.7605C22.0299 22.0486 21.7665 22.2802 21.4566 22.4306C21.1466 22.581 20.8016 22.6446 20.4584 22.6146H16.2917V38.2396H14.2084V21.5729C14.2084 21.2966 14.3181 21.0316 14.5135 20.8363C14.7088 20.6409 14.9738 20.5312 15.25 20.5312H20.073C19.6703 19.9015 19.4445 19.1752 19.4191 18.4282C19.3937 17.6812 19.5697 16.9412 19.9287 16.2856C20.2876 15.63 20.8163 15.083 21.4593 14.702C22.1023 14.321 22.836 14.12 23.5834 14.12C24.3308 14.12 25.0644 14.321 25.7074 14.702C26.3504 15.083 26.8791 15.63 27.238 16.2856C27.597 16.9412 27.773 17.6812 27.7476 18.4282C27.7222 19.1752 27.4964 19.9015 27.0938 20.5312H31.9167C32.193 20.5312 32.4579 20.6409 32.6533 20.8363C32.8486 21.0316 32.9584 21.2966 32.9584 21.5729V28.8646C32.9885 29.2089 32.9238 29.555 32.7714 29.8653C32.619 30.1756 32.3847 30.4382 32.0938 30.6249C31.8332 30.7778 31.5366 30.8585 31.2344 30.8585C30.9323 30.8585 30.6356 30.7778 30.375 30.6249L30.0625 30.4479C29.6864 30.1775 29.2504 30.0024 28.7917 29.9375C28.2392 29.9375 27.7093 30.157 27.3186 30.5477C26.9279 30.9384 26.7084 31.4683 26.7084 32.0208C26.7084 32.5734 26.9279 33.1033 27.3186 33.494C27.7093 33.8847 28.2392 34.1042 28.7917 34.1042C29.2496 34.0432 29.6858 33.8716 30.0625 33.6042L30.375 33.4271C30.6356 33.2741 30.9323 33.1935 31.2344 33.1935C31.5366 33.1935 31.8332 33.2741 32.0938 33.4271C32.3847 33.6113 32.6193 33.872 32.7718 34.1807C32.9243 34.4894 32.9888 34.8342 32.9584 35.1771V42.4688C32.9465 42.7221 32.8426 42.9623 32.6661 43.1445C32.4897 43.3267 32.2529 43.4383 32 43.4583V43.4479Z" fill="#FA4616"/>
<path d="M49.3229 33.8542L48.0104 32.2291L52.8021 28.3854C53.1383 28.0497 53.4037 27.6499 53.5826 27.2098C53.7615 26.7696 53.8503 26.2979 53.8437 25.8229V13.25H55.9271V25.8229C55.932 26.6044 55.7744 27.3785 55.4642 28.0958C55.1539 28.8131 54.6979 29.4579 54.125 29.9895L49.3229 33.8542Z" fill="#404040"/>
<path d="M41.375 21.5833H39.2917V18.4583C39.3193 17.7206 39.5229 17.0002 39.8852 16.3569C40.2476 15.7137 40.7583 15.1663 41.375 14.7604V13.25H43.4583V15.3333C43.4597 15.5275 43.4068 15.7181 43.3055 15.8838C43.2043 16.0494 43.0588 16.1835 42.8854 16.2709C42.4728 16.4827 42.119 16.7932 41.8555 17.1748C41.5919 17.5565 41.4269 17.9974 41.375 18.4583V21.5833Z" fill="#404040"/>
<path d="M44.7083 30.3021C44.0928 30.288 43.5051 30.0425 43.0625 29.6145C42.3221 28.902 41.8711 27.9411 41.7961 26.9163C41.7211 25.8915 42.0274 24.8752 42.6562 24.0625L42.7292 23.9792L44.5104 22.1979V21.5833C44.5104 18.3229 46.4583 16.375 49.7187 16.375V18.4583C46.9167 18.4583 46.5937 20.2396 46.5937 21.5833V22.625C46.5945 22.7621 46.5683 22.898 46.5164 23.0249C46.4646 23.1518 46.3882 23.2672 46.2916 23.3645L44.2083 25.4479C43.9232 25.845 43.7868 26.3297 43.823 26.8172C43.8592 27.3047 44.0656 27.764 44.4062 28.1146C44.6354 28.3125 44.6875 28.2604 44.7708 28.1875L49.9792 22.9791L51.4583 24.4479L46.25 29.6562C45.8393 30.0633 45.2865 30.2949 44.7083 30.3021V30.3021Z" fill="#404040"/>
<path d="M55.9583 14.2917H40.3333C40.0571 14.2917 39.7921 14.182 39.5968 13.9866C39.4014 13.7913 39.2917 13.5263 39.2917 13.25V8.04167C39.2917 7.7654 39.4014 7.5004 39.5968 7.30505C39.7921 7.1097 40.0571 7 40.3333 7H55.9583C56.2346 7 56.4996 7.1097 56.6949 7.30505C56.8903 7.5004 57 7.7654 57 8.04167V13.25C57 13.5263 56.8903 13.7913 56.6949 13.9866C56.4996 14.182 56.2346 14.2917 55.9583 14.2917ZM41.375 12.2083H54.9167V9.08333H41.375V12.2083Z" fill="#404040"/>
<path d="M14.2917 47.625V45.5417C17.0938 45.5417 17.4167 43.7604 17.4167 42.4167V41.375C17.4178 41.1017 17.5263 40.8399 17.7188 40.6459L19.8021 38.5625C20.0872 38.1655 20.2236 37.6807 20.1874 37.1932C20.1512 36.7057 19.9448 36.2465 19.6042 35.8958C19.375 35.6875 19.3125 35.7396 19.2396 35.8229L14.0313 41.0313L12.5521 39.5625L17.7605 34.3542C17.9694 34.1368 18.2201 33.9638 18.4976 33.8457C18.775 33.7275 19.0735 33.6666 19.375 33.6666C19.6766 33.6666 19.975 33.7275 20.2525 33.8457C20.5299 33.9638 20.7807 34.1368 20.9896 34.3542C21.7329 35.0672 22.1857 36.0302 22.2607 37.0574C22.3357 38.0846 22.0276 39.1032 21.3959 39.9166L21.3229 39.9999L19.5417 41.7812V42.3854C19.5 45.677 17.5521 47.625 14.2917 47.625Z" fill="#404040"/>
</svg>
