<svg width="64" height="64" viewBox="0 0 64 64" fill="none" xmlns="http://www.w3.org/2000/svg">
<path d="M40.9343 26.2471H38.8134V22.0053C38.8134 20.5207 33.5112 18.824 31.3903 18.824C29.2694 18.824 23.9671 20.5207 23.9671 22.0053V26.2471H21.8463V22.0053C21.8463 18.3468 29.4284 16.7031 31.3903 16.7031C33.3521 16.7031 40.9343 18.3468 40.9343 22.0053V26.2471Z" fill="#404040"/>
<path d="M31.3902 18.824C30.7018 18.8409 30.0169 18.7203 29.3757 18.4691C28.7344 18.218 28.1498 17.8414 27.656 17.3614C27.1622 16.8814 26.7691 16.3077 26.4999 15.6739C26.2306 15.04 26.0906 14.3588 26.088 13.6702V12.3022C26.088 10.896 26.6466 9.54733 27.641 8.55297C28.6353 7.55861 29.984 7 31.3902 7C32.7965 7 34.1451 7.55861 35.1395 8.55297C36.1338 9.54733 36.6925 10.896 36.6925 12.3022V13.6702C36.6899 14.3588 36.5498 15.04 36.2806 15.6739C36.0113 16.3077 35.6183 16.8814 35.1245 17.3614C34.6306 17.8414 34.046 18.218 33.4048 18.4691C32.7636 18.7203 32.0787 18.8409 31.3902 18.824ZM31.3902 9.27995C30.9805 9.25987 30.571 9.32311 30.1864 9.46584C29.8019 9.60857 29.4503 9.82784 29.1529 10.1104C28.8555 10.3929 28.6185 10.7328 28.4562 11.1095C28.294 11.4863 28.2098 11.892 28.2089 12.3022V13.6702C28.2089 14.5139 28.5441 15.3231 29.1407 15.9197C29.7373 16.5164 30.5465 16.8515 31.3902 16.8515C32.234 16.8515 33.0432 16.5164 33.6398 15.9197C34.2364 15.3231 34.5716 14.5139 34.5716 13.6702V12.3022C34.5706 11.892 34.4865 11.4863 34.3242 11.1095C34.162 10.7328 33.925 10.3929 33.6276 10.1104C33.3302 9.82784 32.9786 9.60857 32.594 9.46584C32.2095 9.32311 31.7999 9.25987 31.3902 9.27995V9.27995Z" fill="#404040"/>
<path d="M53.6596 55.9396H51.5387V53.9247C51.5528 53.3588 51.4536 52.7958 51.2468 52.2689C51.0399 51.7419 50.7297 51.2617 50.3344 50.8565C49.9391 50.4513 49.4667 50.1294 48.945 49.9096C48.4234 49.6898 47.863 49.5767 47.2969 49.5769H46.2365V47.456C46.2365 46.331 45.7895 45.2521 44.994 44.4566C44.1986 43.6611 43.1197 43.2142 41.9947 43.2142C40.8697 43.2142 39.7908 43.6611 38.9953 44.4566C38.1998 45.2521 37.7529 46.331 37.7529 47.456H35.632C35.632 46.331 35.1851 45.2521 34.3896 44.4566C33.5941 43.6611 32.5152 43.2142 31.3902 43.2142C30.2652 43.2142 29.1863 43.6611 28.3908 44.4566C27.5953 45.2521 27.1484 46.331 27.1484 47.456H25.0276C25.0276 46.331 24.5806 45.2521 23.7851 44.4566C22.9897 43.6611 21.9108 43.2142 20.7858 43.2142C19.6608 43.2142 18.5819 43.6611 17.7864 44.4566C16.9909 45.2521 16.544 46.331 16.544 47.456V49.5769H15.4835C14.9175 49.5767 14.3571 49.6898 13.8354 49.9096C13.3137 50.1294 12.8413 50.4513 12.446 50.8565C12.0507 51.2617 11.7405 51.7419 11.5337 52.2689C11.3268 52.7958 11.2276 53.3588 11.2418 53.9247V55.9396H9.12087V53.9247C9.11672 52.4103 9.64574 50.9428 10.6152 49.7794C11.5847 48.616 12.9328 47.831 14.4231 47.562V47.4772C14.409 45.7746 15.071 44.136 16.264 42.9212C17.4569 41.7064 19.0832 41.0147 20.7858 40.9979C21.8412 41.0044 22.8785 41.2734 23.8041 41.7806C24.7297 42.2879 25.5146 43.0174 26.088 43.9035C26.6563 43.0123 27.44 42.2788 28.3667 41.7706C29.2934 41.2624 30.3333 40.996 31.3902 40.996C32.4472 40.996 33.487 41.2624 34.4137 41.7706C35.3405 42.2788 36.1242 43.0123 36.6925 43.9035C37.2659 43.0174 38.0508 42.2879 38.9764 41.7806C39.902 41.2734 40.9392 41.0044 41.9947 40.9979C43.6972 41.0147 45.3235 41.7064 46.5164 42.9212C47.7094 44.136 48.3715 45.7746 48.3574 47.4772V47.562C49.8467 47.833 51.1936 48.6185 52.1627 49.7815C53.1319 50.9444 53.6617 52.4109 53.6596 53.9247V55.9396Z" fill="#404040"/>
<path d="M21.8463 55.9396H19.7254V53.9247C19.7395 53.3588 19.6402 52.7958 19.4334 52.2689C19.2266 51.7419 18.9164 51.2617 18.5211 50.8565C18.1258 50.4513 17.6534 50.1294 17.1317 49.9096C16.61 49.6898 16.0497 49.5767 15.4836 49.5769V47.456C16.3261 47.4629 17.159 47.6358 17.9347 47.9646C18.7105 48.2934 19.4138 48.7718 20.0047 49.3725C20.5955 49.9732 21.0623 50.6844 21.3782 51.4654C21.6942 52.2465 21.8532 53.0822 21.8463 53.9247V55.9396Z" fill="#404040"/>
<path d="M32.4507 55.9396H30.3298V53.9247C30.3298 52.7997 29.8829 51.7208 29.0874 50.9253C28.2919 50.1298 27.213 49.6829 26.088 49.6829C24.963 49.6829 23.8841 50.1298 23.0886 50.9253C22.2931 51.7208 21.8462 52.7997 21.8462 53.9247V55.9396H19.7253V53.9247C19.7253 52.2372 20.3957 50.6189 21.5889 49.4256C22.7822 48.2324 24.4005 47.562 26.088 47.562C27.7755 47.562 29.3938 48.2324 30.5871 49.4256C31.7803 50.6189 32.4507 52.2372 32.4507 53.9247V55.9396Z" fill="#404040"/>
<path d="M43.0552 55.9396H40.9343V53.9247C40.9343 52.7997 40.4873 51.7208 39.6918 50.9253C38.8964 50.1298 37.8175 49.6829 36.6925 49.6829C35.5675 49.6829 34.4886 50.1298 33.6931 50.9253C32.8976 51.7208 32.4507 52.7997 32.4507 53.9247V55.9396H30.3298V53.9247C30.3298 52.2372 31.0001 50.6189 32.1934 49.4256C33.3866 48.2324 35.005 47.562 36.6925 47.562C38.38 47.562 39.9983 48.2324 41.1915 49.4256C42.3848 50.6189 43.0552 52.2372 43.0552 53.9247V55.9396Z" fill="#404040"/>
<path d="M43.0551 55.9396H40.9342V53.9247C40.9273 53.0822 41.0863 52.2465 41.4022 51.4654C41.7182 50.6844 42.1849 49.9732 42.7758 49.3725C43.3666 48.7718 44.07 48.2934 44.8457 47.9646C45.6215 47.6358 46.4544 47.4629 47.2969 47.456V49.5769C46.7308 49.5767 46.1704 49.6898 45.6488 49.9096C45.1271 50.1294 44.6547 50.4513 44.2594 50.8565C43.8641 51.2617 43.5539 51.7419 43.347 52.2689C43.1402 52.7958 43.041 53.3588 43.0551 53.9247V55.9396Z" fill="#404040"/>
<path d="M56.8409 54.8791H7V57H56.8409V54.8791Z" fill="#404040"/>
<path d="M41.6871 36.5334L40.1813 35.0382L46.2365 28.983V27.3075H16.544V28.983L22.5991 35.0382L21.0933 36.5334L14.7306 30.1707C14.5347 29.9732 14.4243 29.7066 14.4231 29.4284V26.2471C14.4231 25.9658 14.5348 25.6961 14.7337 25.4972C14.9325 25.2983 15.2023 25.1866 15.4835 25.1866H47.2969C47.5782 25.1866 47.8479 25.2983 48.0467 25.4972C48.2456 25.6961 48.3574 25.9658 48.3574 26.2471V29.4284C48.3562 29.7066 48.2457 29.9732 48.0498 30.1707L41.6871 36.5334Z" fill="#FA4616"/>
<path d="M22.9067 30.4889H20.7858V38.9724H22.9067V30.4889Z" fill="#FA4616"/>
<path d="M41.9947 30.4889H39.8738V38.9724H41.9947V30.4889Z" fill="#FA4616"/>
</svg>
