<svg width="64" height="64" viewBox="0 0 64 64" fill="none" xmlns="http://www.w3.org/2000/svg">
<path d="M17.4167 34.0833C16.7114 34.0714 16.0155 33.9188 15.3699 33.6345C14.7243 33.3502 14.1419 32.9399 13.6569 32.4277C13.1719 31.9155 12.7939 31.3116 12.5452 30.6515C12.2964 29.9914 12.1819 29.2883 12.2084 28.5834V27.0938C12.2084 25.7125 12.7571 24.3876 13.7339 23.4109C14.7106 22.4341 16.0354 21.8855 17.4167 21.8855C18.798 21.8855 20.1228 22.4341 21.0996 23.4109C22.0763 24.3876 22.625 25.7125 22.625 27.0938V28.5834C22.6515 29.2883 22.537 29.9914 22.2883 30.6515C22.0395 31.3116 21.6616 31.9155 21.1765 32.4277C20.6915 32.9399 20.1091 33.3502 19.4635 33.6345C18.8179 33.9188 18.122 34.0714 17.4167 34.0833V34.0833ZM17.4167 23.6667C16.9852 23.6826 16.5612 23.7844 16.1695 23.9661C15.7778 24.1477 15.4262 24.4056 15.1353 24.7247C14.8443 25.0437 14.6199 25.4176 14.4751 25.8243C14.3302 26.2311 14.2679 26.6627 14.2917 27.0938V28.5834C14.2917 29.4122 14.6209 30.207 15.207 30.793C15.793 31.3791 16.5879 31.7084 17.4167 31.7084C18.2455 31.7084 19.0404 31.3791 19.6264 30.793C20.2125 30.207 20.5417 29.4122 20.5417 28.5834V27.0938C20.5641 26.663 20.5008 26.232 20.3554 25.8259C20.2101 25.4197 19.9856 25.0464 19.6949 24.7276C19.4042 24.4088 19.0532 24.151 18.6621 23.9689C18.2711 23.7867 17.8477 23.684 17.4167 23.6667V23.6667Z" fill="#404040"/>
<path d="M18.4583 52.8333H14.2917C9.71875 52.8333 7 50.5 7 46.5833V42.4167C7 37.6458 9.52083 35.125 14.2917 35.125H19.5C21.8686 35.4019 24.1571 36.1529 26.2292 37.3333L25.2604 39.1771C23.4661 38.1565 21.4932 37.4882 19.4479 37.2083H14.2917C10.6354 37.2083 9.08333 38.7708 9.08333 42.4167V46.5833C9.08333 50.0313 11.9062 50.75 14.2917 50.75H18.4583V52.8333Z" fill="#404040"/>
<path d="M20.5416 47.625H14.2916C13.7391 47.625 13.2092 47.4055 12.8185 47.0148C12.4278 46.6241 12.2083 46.0942 12.2083 45.5417V41.375H14.2916V45.5417H20.5416V47.625Z" fill="#404040"/>
<path d="M13.2813 51.7917H11.1979V57H13.2813V51.7917Z" fill="#404040"/>
<path d="M24.7396 53.875H22.6562V57H24.7396V53.875Z" fill="#404040"/>
<path d="M17.9896 40.4451L16.9178 42.2317L22.1255 45.3558L23.1972 43.5693L17.9896 40.4451Z" fill="#FA4616"/>
<path d="M27.8333 54.9167H17.4167C17.2382 54.9179 17.0625 54.8733 16.9062 54.7871C16.75 54.7009 16.6185 54.576 16.5244 54.4244C16.4302 54.2728 16.3767 54.0995 16.3688 53.9212C16.3608 53.743 16.3989 53.5656 16.4792 53.4063L22.7292 40.9063C22.8165 40.7329 22.9506 40.5874 23.1162 40.4862C23.2819 40.385 23.4725 40.332 23.6667 40.3334H34.0833C34.2609 40.3339 34.4354 40.3798 34.5902 40.4667C34.745 40.5537 34.8751 40.6788 34.968 40.8301C35.0609 40.9814 35.1135 41.154 35.1209 41.3314C35.1284 41.5088 35.0903 41.6852 35.0104 41.8438L32.9271 46.0104L31.0625 45.0729L32.3958 42.4167H24.3021L19.0938 52.8334H27.1875L28.9792 49.2396L30.8438 50.1771L28.7604 54.3438C28.6739 54.5156 28.5414 54.66 28.3778 54.7612C28.2141 54.8623 28.0257 54.9161 27.8333 54.9167Z" fill="#FA4616"/>
<path d="M33.0416 38.2604C32.8114 38.2571 32.5831 38.2185 32.3646 38.1459C31.9508 38.0061 31.5914 37.7398 31.3371 37.3846C31.0829 37.0295 30.9468 36.6034 30.9479 36.1667V32H29.9062C28.8012 32 27.7413 31.561 26.9599 30.7796C26.1785 29.9982 25.7396 28.9384 25.7396 27.8333V11.1667C25.7396 10.0616 26.1785 9.00179 26.9599 8.22039C27.7413 7.43898 28.8012 7 29.9062 7H52.8229C53.928 7 54.9878 7.43898 55.7692 8.22039C56.5506 9.00179 56.9896 10.0616 56.9896 11.1667V26.7917C56.9896 28.173 56.4408 29.4978 55.4641 30.4745C54.4873 31.4513 53.1626 32 51.7812 32H38.7604L34.6875 37.4167C34.4966 37.6745 34.2488 37.8849 33.9633 38.0312C33.6778 38.1776 33.3624 38.256 33.0416 38.2604V38.2604ZM29.9166 9.09376C29.3641 9.09376 28.8342 9.31328 28.4435 9.70398C28.0528 10.0947 27.8333 10.6246 27.8333 11.1771V27.8438C27.8333 28.3963 28.0528 28.9262 28.4435 29.3169C28.8342 29.7076 29.3641 29.9271 29.9166 29.9271H32C32.2762 29.9271 32.5412 30.0369 32.7365 30.2322C32.9319 30.4276 33.0416 30.6925 33.0416 30.9688V36.1771L37.4166 30.3438C37.5137 30.2144 37.6395 30.1094 37.7841 30.0371C37.9288 29.9648 38.0883 29.9271 38.25 29.9271H51.7916C52.6204 29.9271 53.4153 29.5979 54.0014 29.0118C54.5874 28.4258 54.9166 27.6309 54.9166 26.8021V11.1771C54.9166 10.6246 54.6971 10.0947 54.3064 9.70398C53.9157 9.31328 53.3858 9.09376 52.8333 9.09376H29.9166Z" fill="#404040"/>
<path d="M47.625 26.7917H45.5417V23.6667C45.5417 22.4375 43.3437 21.5833 41.375 21.5833C39.4062 21.5833 37.2083 22.4375 37.2083 23.6667V26.7917H35.125V23.6667C35.125 20.9583 38.3542 19.5 41.375 19.5C44.3958 19.5 47.625 20.9583 47.625 23.6667V26.7917Z" fill="#404040"/>
<path d="M41.3749 21.5833C40.8239 21.5977 40.2756 21.4997 39.7637 21.2954C39.2517 21.0911 38.7866 20.7847 38.3968 20.3949C38.007 20.0051 37.7006 19.54 37.4963 19.028C37.2919 18.516 37.194 17.9677 37.2083 17.4167V16.375C37.2083 15.2699 37.6473 14.2101 38.4287 13.4287C39.2101 12.6473 40.2699 12.2083 41.3749 12.2083C42.48 12.2083 43.5398 12.6473 44.3212 13.4287C45.1026 14.2101 45.5416 15.2699 45.5416 16.375V17.4167C45.553 17.967 45.4529 18.5138 45.2476 19.0245C45.0422 19.5352 44.7357 19.9991 44.3465 20.3883C43.9573 20.7775 43.4934 21.0839 42.9828 21.2893C42.4721 21.4947 41.9252 21.5947 41.3749 21.5833ZM41.3749 14.2917C41.0978 14.2783 40.8209 14.323 40.5621 14.423C40.3033 14.5229 40.0682 14.6759 39.872 14.8721C39.6758 15.0683 39.5228 15.3033 39.4229 15.5622C39.3229 15.821 39.2782 16.0979 39.2916 16.375V17.4167C39.2916 17.9692 39.5111 18.4991 39.9018 18.8898C40.2925 19.2805 40.8224 19.5 41.3749 19.5C41.9275 19.5 42.4574 19.2805 42.8481 18.8898C43.2388 18.4991 43.4583 17.9692 43.4583 17.4167V16.375C43.4701 16.0983 43.4243 15.8221 43.3237 15.564C43.2232 15.3059 43.0702 15.0715 42.8743 14.8756C42.6785 14.6798 42.4441 14.5267 42.186 14.4262C41.9279 14.3257 41.6517 14.2799 41.3749 14.2917Z" fill="#404040"/>
<path d="M30.7396 50.75H26.7917C26.6132 50.7513 26.4375 50.7067 26.2812 50.6205C26.125 50.5342 25.9935 50.4094 25.8994 50.2577C25.8052 50.1061 25.7517 49.9329 25.7438 49.7546C25.7358 49.5763 25.7739 49.399 25.8542 49.2396L27.9375 45.0729C28.0249 44.8996 28.1589 44.7541 28.3246 44.6529C28.4902 44.5516 28.6809 44.4987 28.875 44.5H32.3958C32.7519 44.4993 33.1021 44.5899 33.4132 44.763C33.7243 44.9362 33.9858 45.1862 34.1728 45.4891C34.3598 45.7921 34.466 46.1379 34.4813 46.4936C34.4967 46.8493 34.4206 47.203 34.2604 47.5209L33.5 49.0209C33.2434 49.5351 32.8499 49.9685 32.3629 50.2736C31.8759 50.5786 31.3142 50.7435 30.7396 50.75ZM28.5 48.6667H30.7396C30.9319 48.6661 31.1204 48.6123 31.284 48.5112C31.4477 48.4101 31.5801 48.2656 31.6667 48.0938L32.4271 46.5834H29.5417L28.5 48.6667Z" fill="#404040"/>
</svg>
