<svg width="64" height="64" viewBox="0 0 64 64" fill="none" xmlns="http://www.w3.org/2000/svg">
<path d="M29.801 40.0839L22.4398 32.733C21.8651 32.1268 21.5499 31.3201 21.5616 30.4849C21.5732 29.6496 21.9108 28.8521 22.5022 28.2623L23.9162 26.8481L25.3822 28.3246L23.9786 29.7282C23.774 29.9284 23.6536 30.1992 23.642 30.4853C23.6304 30.7713 23.7285 31.0508 23.9162 31.2669L31.267 38.6178L29.801 40.0839Z" fill="#404040"/>
<path d="M32.733 37.1414L23.178 27.5865C22.8856 27.2975 22.6547 26.9522 22.4992 26.5716C22.3438 26.191 22.267 25.7829 22.2734 25.3719C22.2738 24.9599 22.3557 24.5521 22.5146 24.172C22.6734 23.7919 22.9059 23.447 23.1988 23.1573C23.7828 22.5795 24.5711 22.2554 25.3926 22.2554C26.2141 22.2554 27.0024 22.5795 27.5864 23.1573L37.1518 32.7122L35.6754 34.1782L26.1204 24.6233C25.9265 24.4359 25.6674 24.3311 25.3978 24.3311C25.1282 24.3311 24.8691 24.4359 24.6752 24.6233C24.472 24.8282 24.3565 25.1041 24.3529 25.3927C24.3521 25.5295 24.3783 25.6652 24.43 25.7918C24.4818 25.9185 24.558 26.0337 24.6544 26.1308L34.2094 35.6858L32.733 37.1414Z" fill="#404040"/>
<path d="M39.3248 52.5812L37.1102 50.377C36.4639 49.8804 35.7198 49.526 34.9268 49.3373C33.5619 48.9908 32.2976 48.3284 31.2358 47.4034L22.4086 38.5866C22.117 38.2873 21.8885 37.9325 21.7367 37.5431C21.5848 37.1537 21.5128 36.7378 21.5249 36.3201C21.5491 35.4919 21.8874 34.704 22.471 34.1159L23.885 32.7018L25.351 34.1678L23.9474 35.5818C23.7388 35.7934 23.6165 36.0751 23.6043 36.372C23.5971 36.6454 23.698 36.9106 23.885 37.1102L32.7018 45.9375C33.5437 46.6209 34.5277 47.1076 35.5818 47.3619C36.6891 47.6239 37.7187 48.144 38.5866 48.8799L40.7908 51.084L39.3248 52.5812Z" fill="#404040"/>
<path d="M39.3248 31.9949L31.2358 23.9163C31.1497 23.8152 31.0437 23.7329 30.9244 23.6746C30.8051 23.6163 30.6751 23.5831 30.5424 23.5773C30.4097 23.5714 30.2773 23.593 30.1533 23.6406C30.0293 23.6882 29.9165 23.7607 29.8218 23.8538L28.2934 25.3823L26.8482 23.9163L28.3766 22.3775C28.6643 22.093 29.0057 21.8685 29.3811 21.7174C29.7564 21.5663 30.1581 21.4914 30.5627 21.4972C30.9673 21.503 31.3666 21.5893 31.7375 21.7512C32.1083 21.913 32.4432 22.1471 32.7226 22.4398L40.8116 30.5289L39.3248 31.9949Z" fill="#404040"/>
<path d="M50.377 41.5914L48.1728 39.3768C46.9288 38.0506 46.1449 36.359 45.9374 34.5525C45.6671 33.0206 44.9042 31.6187 43.7644 30.56L40.0838 26.8794C40.0014 26.7614 39.8917 26.6652 39.7641 26.5986C39.6365 26.5321 39.4947 26.4974 39.3508 26.4974C39.2069 26.4974 39.0651 26.5321 38.9375 26.5986C38.8099 26.6652 38.7002 26.7614 38.6178 26.8794L37.1518 28.3558L35.6754 26.8794L37.1518 25.4134C37.426 25.0981 37.7647 24.8455 38.145 24.6723C38.5252 24.4991 38.9382 24.4094 39.356 24.4094C39.7738 24.4094 40.1868 24.4991 40.5671 24.6723C40.9473 24.8455 41.2859 25.0981 41.5602 25.4134L45.2304 29.0836C46.6731 30.4368 47.6396 32.2203 47.9856 34.1678C48.1148 35.5621 48.6953 36.8762 49.6388 37.9108L51.8534 40.115L50.377 41.5914Z" fill="#404040"/>
<path d="M42.288 57L37.8796 52.5812L51.843 38.6178L56.2618 43.0262L54.7854 44.5026L51.843 41.5602L40.822 52.5812L43.754 55.5236L42.288 57Z" fill="#404040"/>
<path d="M19.5078 35.6755L16.5654 32.733C15.6404 31.6712 14.978 30.407 14.6315 29.0421C14.4428 28.2491 14.0885 27.5049 13.5918 26.8586L11.3876 24.6439L12.8536 23.178L15.0578 25.3822C15.7937 26.2501 16.3138 27.2798 16.5758 28.387C16.8301 29.4412 17.3168 30.425 18.0002 31.2669L20.9426 34.2094L19.5078 35.6755Z" fill="#404040"/>
<path d="M37.1518 23.9162L33.4712 20.2356C32.4125 19.0958 31.0107 18.3329 29.4787 18.0626C27.6722 17.8551 25.9806 17.0712 24.6544 15.8272L22.4398 13.623L23.9162 12.1467L26.1204 14.3613C27.1565 15.3042 28.4692 15.8875 29.8634 16.0248C31.8114 16.363 33.5962 17.3266 34.9476 18.7697L38.6178 22.4398L37.1518 23.9162Z" fill="#404040"/>
<path d="M11.4084 26.1204L7 21.712L8.46601 20.2356L11.4084 23.178L22.4398 12.1466L19.4974 9.20416L20.9738 7.73816L25.3822 12.1466L11.4084 26.1204Z" fill="#404040"/>
<path d="M23.9162 51.8535L22.4398 50.377L24.6544 48.1728C25.5276 47.4449 26.5552 46.9258 27.6592 46.6549C28.1271 46.4989 28.6053 46.343 29.0628 46.1558L29.8738 48.0689C29.3539 48.2872 28.8341 48.464 28.3142 48.6304C27.5219 48.8299 26.7765 49.1832 26.1204 49.6701L23.9162 51.8535Z" fill="#404040"/>
<path d="M12.8848 40.822L11.4188 39.3456L13.623 37.1414C14.507 36.1869 15.0704 34.9801 15.2346 33.6896L17.314 34.0951C17.0817 35.7953 16.3175 37.3784 15.1306 38.6178L12.8848 40.822Z" fill="#404040"/>
<path d="M20.9738 56.2618L19.4974 54.7958L22.4398 51.8534L11.4084 40.822L8.46601 43.7644L7 42.288L11.4084 37.8796L25.3822 51.8534L20.9738 56.2618Z" fill="#404040"/>
<path d="M48.0688 29.8634L46.1558 29.0628C46.3429 28.5949 46.5092 28.1166 46.6548 27.6488C46.9258 26.5448 47.4449 25.5171 48.1728 24.644L50.377 22.4398L51.8534 23.9162L49.6492 26.1204C49.1565 26.7692 48.8026 27.5124 48.6095 28.3038C48.4639 28.8236 48.2872 29.3539 48.0688 29.8634Z" fill="#404040"/>
<path d="M34.1262 17.2724L33.7207 15.193C35.0137 15.0339 36.2244 14.4739 37.183 13.5918L39.3248 11.4396L40.7908 12.9161L38.5866 15.1203C37.3598 16.2841 35.8007 17.0363 34.1262 17.2724V17.2724Z" fill="#404040"/>
<path d="M51.843 25.3822L37.8796 11.4188L42.288 7L43.754 8.4764L40.822 11.4188L51.843 22.4398L54.7854 19.4974L56.2618 20.9738L51.843 25.3822Z" fill="#404040"/>
</svg>
