<svg width="64" height="64" viewBox="0 0 64 64" fill="none" xmlns="http://www.w3.org/2000/svg">
<path d="M25.7604 39.2917C25.5042 39.293 25.2499 39.2471 25.0104 39.1562C24.6153 39.0062 24.2751 38.7396 24.0351 38.3917C23.7951 38.0437 23.6666 37.631 23.6666 37.2083V32H21.5833C20.7545 32 19.9597 31.6708 19.3736 31.0847C18.7876 30.4987 18.4583 29.7038 18.4583 28.875V10.125C18.4583 9.2962 18.7876 8.50139 19.3736 7.91534C19.9597 7.32929 20.7545 7 21.5833 7H53.875C54.7038 7 55.4986 7.32929 56.0847 7.91534C56.6707 8.50139 57 9.2962 57 10.125V28.875C57 29.7038 56.6707 30.4987 56.0847 31.0847C55.4986 31.6708 54.7038 32 53.875 32H51.7916V29.9167H53.875C54.1512 29.9167 54.4162 29.807 54.6116 29.6116C54.8069 29.4163 54.9166 29.1513 54.9166 28.875V10.125C54.9166 9.84873 54.8069 9.5838 54.6116 9.38845C54.4162 9.1931 54.1512 9.08333 53.875 9.08333H21.5833C21.307 9.08333 21.0421 9.1931 20.8467 9.38845C20.6514 9.5838 20.5416 9.84873 20.5416 10.125V28.875C20.5416 29.1513 20.6514 29.4163 20.8467 29.6116C21.0421 29.807 21.307 29.9167 21.5833 29.9167H25.75V37.2083L32.5833 29.9167H39.2916V32H33.4896L27.2396 38.6042C27.0547 38.8158 26.8276 38.9863 26.5728 39.1047C26.3181 39.2231 26.0413 39.2868 25.7604 39.2917V39.2917Z" fill="#404040"/>
<path d="M15.3333 46.5833C14.628 46.5714 13.9322 46.4188 13.2866 46.1345C12.641 45.8502 12.0586 45.4399 11.5735 44.9277C11.0885 44.4155 10.7105 43.8116 10.4618 43.1515C10.2131 42.4914 10.0986 41.7883 10.125 41.0834V39.5938C10.125 38.2125 10.6737 36.8877 11.6505 35.911C12.6272 34.9342 13.952 34.3855 15.3333 34.3855C16.7147 34.3855 18.0394 34.9342 19.0162 35.911C19.9929 36.8877 20.5417 38.2125 20.5417 39.5938V41.0729C20.5695 41.7787 20.4561 42.483 20.208 43.1443C19.9599 43.8057 19.5822 44.4107 19.097 44.9241C18.6118 45.4374 18.0289 45.8486 17.3826 46.1335C16.7363 46.4185 16.0396 46.5714 15.3333 46.5833V46.5833ZM15.3333 36.1667C14.9023 36.184 14.479 36.2867 14.0879 36.4689C13.6969 36.651 13.3458 36.9089 13.0552 37.2277C12.7645 37.5464 12.54 37.9197 12.3946 38.3259C12.2492 38.732 12.1859 39.163 12.2083 39.5938V41.0729C12.2083 41.9018 12.5376 42.6966 13.1236 43.2827C13.7097 43.8687 14.5045 44.1979 15.3333 44.1979C16.1621 44.1979 16.957 43.8687 17.543 43.2827C18.1291 42.6966 18.4583 41.9018 18.4583 41.0729V39.5834C18.4793 39.1534 18.4149 38.7236 18.2689 38.3186C18.1229 37.9137 17.8982 37.5416 17.6077 37.224C17.3171 36.9063 16.9666 36.6494 16.5762 36.4679C16.1859 36.2864 15.7635 36.184 15.3333 36.1667V36.1667Z" fill="#404040"/>
<path d="M8.04167 51.7917C7.7654 51.7917 7.50045 51.682 7.3051 51.4866C7.10975 51.2913 7 51.0263 7 50.75V49.7083C7 45.8229 12.7187 44.5 15.3333 44.5C17.9479 44.5 23.6667 45.8125 23.6667 49.7083C23.6667 49.9846 23.5569 50.2496 23.3616 50.445C23.1662 50.6403 22.9013 50.75 22.625 50.75C22.3487 50.75 22.0838 50.6403 21.8884 50.445C21.6931 50.2496 21.5833 49.9846 21.5833 49.7083C21.5833 47.8333 17.8229 46.5833 15.3333 46.5833C12.8437 46.5833 9.08333 47.8229 9.08333 49.7083V50.75C9.08333 51.0263 8.97359 51.2913 8.77824 51.4866C8.58289 51.682 8.31793 51.7917 8.04167 51.7917Z" fill="#404040"/>
<path d="M30.9583 51.7917C30.253 51.7797 29.5572 51.6271 28.9116 51.3428C28.266 51.0585 27.6836 50.6482 27.1985 50.136C26.7135 49.6238 26.3355 49.0199 26.0868 48.3598C25.8381 47.6997 25.7236 46.9966 25.75 46.2917V44.8021C25.75 43.4208 26.2987 42.096 27.2755 41.1193C28.2522 40.1425 29.577 39.5938 30.9583 39.5938C32.3397 39.5938 33.6644 40.1425 34.6412 41.1193C35.6179 42.096 36.1667 43.4208 36.1667 44.8021V46.2813C36.1945 46.9871 36.0811 47.6913 35.833 48.3526C35.5849 49.014 35.2072 49.6191 34.722 50.1324C34.2368 50.6457 33.6539 51.0569 33.0076 51.3418C32.3613 51.6268 31.6646 51.7797 30.9583 51.7917V51.7917ZM30.9583 41.375C30.5273 41.3923 30.104 41.4951 29.7129 41.6772C29.3219 41.8593 28.9708 42.1172 28.6802 42.436C28.3895 42.7547 28.165 43.128 28.0196 43.5342C27.8742 43.9403 27.8109 44.3713 27.8333 44.8021V46.2813C27.8333 47.1101 28.1626 47.9049 28.7486 48.491C29.3347 49.077 30.1295 49.4063 30.9583 49.4063C31.7871 49.4063 32.582 49.077 33.168 48.491C33.7541 47.9049 34.0833 47.1101 34.0833 46.2813V44.7917C34.1043 44.3617 34.0399 43.9319 33.8939 43.5269C33.7479 43.122 33.5232 42.7499 33.2327 42.4323C32.9421 42.1147 32.5916 41.8577 32.2012 41.6762C31.8109 41.4948 31.3885 41.3924 30.9583 41.375Z" fill="#404040"/>
<path d="M38.25 57C37.9737 57 37.7088 56.8903 37.5134 56.695C37.3181 56.4996 37.2083 56.2346 37.2083 55.9583V54.9167C37.2083 53.0417 33.4479 51.7917 30.9583 51.7917C28.4687 51.7917 24.7083 53.0313 24.7083 54.9167V55.9583C24.7083 56.2346 24.5986 56.4996 24.4032 56.695C24.2079 56.8903 23.9429 57 23.6667 57C23.3904 57 23.1254 56.8903 22.9301 56.695C22.7347 56.4996 22.625 56.2346 22.625 55.9583V54.9167C22.625 51.0313 28.3437 49.7083 30.9583 49.7083C33.5729 49.7083 39.2917 51.0208 39.2917 54.9167V55.9583C39.2917 56.2346 39.1819 56.4996 38.9866 56.695C38.7912 56.8903 38.5263 57 38.25 57Z" fill="#404040"/>
<path d="M45.5416 42.4167C44.8363 42.4047 44.1405 42.2521 43.4949 41.9678C42.8493 41.6835 42.2669 41.2732 41.7818 40.761C41.2968 40.2488 40.9188 39.6449 40.6701 38.9848C40.4214 38.3247 40.3069 37.6216 40.3333 36.9167V35.4271C40.3333 34.0458 40.8821 32.721 41.8588 31.7443C42.8356 30.7675 44.1603 30.2188 45.5416 30.2188C46.923 30.2188 48.2477 30.7675 49.2245 31.7443C50.2013 32.721 50.75 34.0458 50.75 35.4271V36.9063C50.7778 37.6121 50.6644 38.3163 50.4163 38.9776C50.1682 39.639 49.7905 40.2441 49.3053 40.7574C48.8201 41.2707 48.2372 41.6819 47.5909 41.9668C46.9446 42.2518 46.2479 42.4047 45.5416 42.4167V42.4167ZM45.5416 32C45.1106 32.0173 44.6873 32.1201 44.2962 32.3022C43.9052 32.4843 43.5541 32.7422 43.2635 33.061C42.9728 33.3797 42.7483 33.753 42.6029 34.1592C42.4576 34.5653 42.3942 34.9963 42.4166 35.4271V36.9063C42.4166 37.7351 42.7459 38.5299 43.3319 39.116C43.918 39.702 44.7128 40.0313 45.5416 40.0313C46.3704 40.0313 47.1653 39.702 47.7514 39.116C48.3374 38.5299 48.6666 37.7351 48.6666 36.9063V35.4167C48.6876 34.9867 48.6233 34.5569 48.4773 34.1519C48.3312 33.747 48.1065 33.3749 47.816 33.0573C47.5254 32.7397 47.1749 32.4827 46.7845 32.3012C46.3942 32.1198 45.9718 32.0174 45.5416 32V32Z" fill="#404040"/>
<path d="M52.8333 47.625C52.557 47.625 52.2921 47.5153 52.0967 47.32C51.9014 47.1246 51.7916 46.8596 51.7916 46.5833V45.5417C51.7916 43.6667 48.0312 42.4167 45.5416 42.4167C43.0521 42.4167 39.2916 43.6563 39.2916 45.5417V46.5833C39.2916 46.8596 39.1819 47.1246 38.9865 47.32C38.7912 47.5153 38.5262 47.625 38.25 47.625C37.9737 47.625 37.7088 47.5153 37.5134 47.32C37.3181 47.1246 37.2083 46.8596 37.2083 46.5833V45.5417C37.2083 41.6563 42.9271 40.3333 45.5416 40.3333C48.1562 40.3333 53.875 41.6458 53.875 45.5417V46.5833C53.875 46.8596 53.7652 47.1246 53.5699 47.32C53.3745 47.5153 53.1096 47.625 52.8333 47.625Z" fill="#404040"/>
<path d="M30.2604 18.1563H26.7917V20.8438H30.2604V18.1563Z" fill="#FA4616"/>
<path d="M38.9374 18.1563H35.4687V20.8438H38.9374V18.1563Z" fill="#FA4616"/>
<path d="M47.6146 18.1563H44.1458V20.8438H47.6146V18.1563Z" fill="#FA4616"/>
</svg>
