<svg width="64" height="64" viewBox="0 0 64 64" fill="none" xmlns="http://www.w3.org/2000/svg">
<path d="M22.9676 20.4761C22.2419 20.4773 21.5236 20.3301 20.8569 20.0435C20.1901 19.7569 19.589 19.337 19.0905 18.8096C18.592 18.2822 18.2066 17.6584 17.9581 16.9766C17.7095 16.2947 17.603 15.5693 17.6451 14.8448V13.3225C17.6451 11.9109 18.2058 10.5571 19.204 9.55895C20.2022 8.56078 21.556 8 22.9676 8C24.3792 8 25.7331 8.56078 26.7312 9.55895C27.7294 10.5571 28.2902 11.9109 28.2902 13.3225V14.8448C28.3323 15.5693 28.2258 16.2947 27.9772 16.9766C27.7286 17.6584 27.3432 18.2822 26.8447 18.8096C26.3462 19.337 25.7451 19.7569 25.0784 20.0435C24.4116 20.3301 23.6933 20.4773 22.9676 20.4761V20.4761ZM22.9676 9.83096C22.5219 9.82901 22.0808 9.92037 21.6725 10.0992C21.2643 10.278 20.898 10.5402 20.5972 10.8691C20.2964 11.198 20.0677 11.5862 19.926 12.0087C19.7842 12.4313 19.7325 12.8788 19.7741 13.3225V14.8448C19.7741 15.6918 20.1105 16.5041 20.7095 17.103C21.3084 17.7019 22.1206 18.0383 22.9676 18.0383C23.8146 18.0383 24.6269 17.7019 25.2258 17.103C25.8247 16.5041 26.1611 15.6918 26.1611 14.8448V13.3225C26.2028 12.8788 26.151 12.4313 26.0093 12.0087C25.8675 11.5862 25.6389 11.198 25.3381 10.8691C25.0373 10.5402 24.671 10.278 24.2627 10.0992C23.8545 9.92037 23.4133 9.82901 22.9676 9.83096V9.83096Z" fill="#404040"/>
<path d="M29.4505 56.1159L23.3722 44.9598H16.5806C15.8003 44.9986 15.0216 44.8564 14.3054 44.5444C13.5891 44.2324 12.9548 43.759 12.4518 43.1612C11.9488 42.5634 11.5909 41.8574 11.406 41.0984C11.221 40.3393 11.2141 39.5478 11.3858 38.7856C11.7797 36.0073 13.2593 26.5651 13.27 26.4693C13.4333 25.1313 14.0729 23.8968 15.0718 22.9918C16.0707 22.0867 17.3621 21.5716 18.7096 21.5406H19.7741C22.1799 21.5406 23.4786 23.5206 24.2557 24.7341L24.458 25.0428C24.9263 25.7347 25.4586 26.4799 25.7673 26.9057L33.7511 28.1299L33.6021 29.1944C33.3573 30.9828 31.9308 34.3679 28.2796 34.3679H21.3496L18.5925 30.6102L20.3064 29.3434L22.4354 32.2389H28.2902C28.96 32.2084 29.6032 31.9678 30.1286 31.5513C30.654 31.1348 31.035 30.5634 31.2176 29.9183L24.5644 28.8537L24.3089 28.4918C24.3089 28.4918 23.436 27.2996 22.6909 26.2031L22.478 25.8731C21.6902 24.6702 20.9451 23.6802 19.7741 23.6802H18.7096C17.8658 23.7075 17.0609 24.0415 16.4456 24.6195C15.8304 25.1976 15.4469 25.9801 15.3671 26.8205C15.3671 26.9057 13.8874 36.3266 13.4935 39.0943C13.3877 39.5676 13.3882 40.0585 13.4949 40.5316C13.6017 41.0047 13.8121 41.4482 14.1109 41.8301C14.4253 42.1668 14.8088 42.4316 15.2351 42.6061C15.6614 42.7807 16.1204 42.861 16.5806 42.8414H24.6602L31.356 55.1046L29.4505 56.1159Z" fill="#404040"/>
<path d="M22.9676 49.2178H16.5806C14.0397 49.2178 11.6028 48.2084 9.80609 46.4117C8.00938 44.615 7 42.1782 7 39.6372V27.9276H9.12902V39.6372C9.12902 41.6135 9.9141 43.5088 11.3115 44.9063C12.709 46.3037 14.6043 47.0888 16.5806 47.0888H22.9676V49.2178Z" fill="#404040"/>
<path d="M34.7411 56.052L27.2895 39.9885C26.8744 38.8176 25.4799 38.5727 24.3728 38.5727H19.476L20.8705 32.9947L22.9357 33.5056L22.2012 36.4437H24.3302C26.8424 36.4437 28.5882 37.4337 29.2376 39.2327L36.6891 55.2004L34.7411 56.052Z" fill="#404040"/>
<path d="M36.7743 32.1857H21.8712V34.3147H36.7743V32.1857Z" fill="#404040"/>
<path d="M40.862 44.9491C39.063 44.6617 35.7098 44.1295 35.7098 39.6266V30.046C35.7098 25.3302 39.1481 23.6589 42.0968 23.6589H50.6129C53.5616 23.6589 57 25.3302 57 30.046V39.6266C57 44.1188 53.6468 44.6511 51.8478 44.9491L51.5071 42.8201C53.881 42.4475 54.871 41.9153 54.871 39.6266V30.046C54.9253 29.4733 54.8524 28.8957 54.6576 28.3544C54.4628 27.8132 54.1509 27.3216 53.7441 26.9148C53.3374 26.508 52.8458 26.1961 52.3045 26.0013C51.7632 25.8065 51.1856 25.7337 50.6129 25.788H42.0968C41.5241 25.7337 40.9465 25.8065 40.4052 26.0013C39.864 26.1961 39.3724 26.508 38.9656 26.9148C38.5588 27.3216 38.2469 27.8132 38.0521 28.3544C37.8573 28.8957 37.7845 29.4733 37.8388 30.046V39.6266C37.8388 41.9259 38.8288 42.4582 41.2027 42.8201L40.862 44.9491Z" fill="#FA4616"/>
<path d="M51.7094 49.2178H41.0643C40.782 49.2178 40.5112 49.1057 40.3116 48.9061C40.112 48.7064 39.9998 48.4356 39.9998 48.1533V30.0566C39.9998 29.7743 40.112 29.5036 40.3116 29.3039C40.5112 29.1043 40.782 28.9921 41.0643 28.9921H51.7094C51.9918 28.9921 52.2625 29.1043 52.4621 29.3039C52.6618 29.5036 52.7739 29.7743 52.7739 30.0566V48.1533C52.7739 48.4356 52.6618 48.7064 52.4621 48.9061C52.2625 49.1057 51.9918 49.2178 51.7094 49.2178ZM42.1288 47.0888H50.6449V31.1212H42.1288V47.0888Z" fill="#404040"/>
<path d="M46.3869 21.5406C45.6811 21.5659 44.9777 21.4455 44.3205 21.187C43.6633 20.9285 43.0664 20.5373 42.567 20.0379C42.0676 19.5386 41.6764 18.9416 41.4179 18.2844C41.1594 17.6272 41.039 16.9238 41.0643 16.218V14.089C41.0643 12.6774 41.6251 11.3236 42.6233 10.3254C43.6214 9.32722 44.9753 8.76644 46.3869 8.76644C47.7985 8.76644 49.1523 9.32722 50.1505 10.3254C51.1487 11.3236 51.7094 12.6774 51.7094 14.089V16.218C51.7347 16.9238 51.6144 17.6272 51.3559 18.2844C51.0973 18.9416 50.7062 19.5386 50.2068 20.0379C49.7074 20.5373 49.1105 20.9285 48.4533 21.187C47.7961 21.4455 47.0927 21.5659 46.3869 21.5406V21.5406ZM46.3869 10.8955C45.961 10.8707 45.5348 10.9364 45.1361 11.0881C44.7374 11.2398 44.3754 11.4742 44.0737 11.7758C43.7721 12.0775 43.5377 12.4395 43.386 12.8382C43.2343 13.2369 43.1686 13.6631 43.1934 14.089V16.218C43.1934 17.065 43.5298 17.8773 44.1287 18.4762C44.7276 19.0751 45.5399 19.4115 46.3869 19.4115C47.2339 19.4115 48.0462 19.0751 48.6451 18.4762C49.244 17.8773 49.5804 17.065 49.5804 16.218V14.089C49.6052 13.6631 49.5395 13.2369 49.3878 12.8382C49.2361 12.4395 49.0017 12.0775 48.7 11.7758C48.3984 11.4742 48.0363 11.2398 47.6377 11.0881C47.239 10.9364 46.8127 10.8707 46.3869 10.8955V10.8955Z" fill="#FA4616"/>
<path d="M47.4194 48.1533H45.2904V55.6049H47.4194V48.1533Z" fill="#404040"/>
<path d="M52.742 54.5404H39.9678V56.6694H52.742V54.5404Z" fill="#404040"/>
<path d="M17.6132 48.1533H15.4841V55.6049H17.6132V48.1533Z" fill="#404040"/>
<path d="M22.9357 54.5404H10.1616V56.6694H22.9357V54.5404Z" fill="#404040"/>
</svg>
