<svg width="64" height="64" viewBox="0 0 64 64" fill="none" xmlns="http://www.w3.org/2000/svg">
<path d="M9.08345 30.75H7.00011V28.6667C6.99748 28.4887 7.04051 28.313 7.12511 28.1563L12.3334 18.7813C12.4247 18.6188 12.5579 18.4839 12.7192 18.3904C12.8804 18.297 13.0638 18.2485 13.2501 18.25H15.3334V20.3334H13.8647L9.08345 28.9375V30.75Z" fill="#404040"/>
<path d="M56.9998 30.75H54.9165V28.9375L50.1353 20.3333H48.6665V18.25H50.7498C50.9344 18.2503 51.1156 18.2997 51.2748 18.3931C51.4341 18.4864 51.5656 18.6204 51.6561 18.7813L56.8644 28.1563C56.9526 28.3119 56.9993 28.4877 56.9998 28.6667V30.75Z" fill="#404040"/>
<path d="M55.9583 51.5833H8.04167C7.7654 51.5833 7.50043 51.4736 7.30508 51.2783C7.10973 51.0829 7 50.8179 7 50.5417V30.75C7 30.4737 7.10973 30.2087 7.30508 30.0134C7.50043 29.818 7.7654 29.7083 8.04167 29.7083H21.5833C21.7204 29.7075 21.8563 29.7338 21.9832 29.7856C22.1102 29.8375 22.2256 29.9139 22.3229 30.0105L25.1354 32.8333H38.8542L41.6771 30.0105C41.7744 29.9139 41.8898 29.8375 42.0168 29.7856C42.1437 29.7338 42.2796 29.7075 42.4167 29.7083H55.9583C56.2346 29.7083 56.4995 29.818 56.6949 30.0134C56.8902 30.2087 57 30.4737 57 30.75V50.5417C57 50.8179 56.8902 51.0829 56.6949 51.2783C56.4995 51.4736 56.2346 51.5833 55.9583 51.5833ZM9.08333 49.5H54.9167V31.7917H42.8438L40.0312 34.6145C39.8316 34.8049 39.5675 34.9128 39.2917 34.9167H24.7083C24.5712 34.9175 24.4353 34.8912 24.3084 34.8394C24.1815 34.7875 24.0661 34.7111 23.9687 34.6145L21.1458 31.7917H9.08333V49.5Z" fill="#404040"/>
<path d="M49.7082 28.6667H47.6248V24.5H16.3748V28.6667H14.2915V22.4167H49.7082V28.6667Z" fill="#FA4616"/>
<path d="M46.5832 21.375H44.4998V19.2916H19.4998V21.375H17.4165V17.2083H46.5832V21.375Z" fill="#FA4616"/>
<path d="M44.5 16.1667H42.4167V14.0833H21.5833V16.1667H19.5V12H44.5V16.1667Z" fill="#FA4616"/>
<path d="M36.1667 45.3334H27.8333C27.2808 45.3334 26.7509 45.1138 26.3602 44.7231C25.9695 44.3324 25.75 43.8026 25.75 43.25V39.0834C25.75 38.8071 25.8597 38.5421 26.0551 38.3467C26.2504 38.1514 26.5154 38.0417 26.7917 38.0417H37.2083C37.4846 38.0417 37.7495 38.1514 37.9449 38.3467C38.1402 38.5421 38.25 38.8071 38.25 39.0834V43.25C38.25 43.8026 38.0305 44.3324 37.6398 44.7231C37.2491 45.1138 36.7192 45.3334 36.1667 45.3334ZM27.8333 40.125V43.25H36.1667V40.125H27.8333Z" fill="#404040"/>
</svg>
