<svg width="64" height="64" viewBox="0 0 64 64" fill="none" xmlns="http://www.w3.org/2000/svg">
<path d="M15.0942 47.8377H13V13.2827C13 11.6164 13.6619 10.0184 14.8402 8.84019C16.0184 7.66195 17.6164 7 19.2827 7H50.6963V44.6963H46.5079V42.6021H48.6021V9.09424H19.2827C18.1719 9.09424 17.1065 9.53552 16.321 10.321C15.5355 11.1065 15.0942 12.1719 15.0942 13.2827V47.8377Z" fill="#404040"/>
<path d="M50.6963 54.1204H31.8482V52.0262H48.6021V44.6963H18.8534C18.3676 44.6866 17.8847 44.7731 17.4324 44.9507C16.9802 45.1283 16.5675 45.3935 16.2181 45.7312C15.8688 46.0689 15.5896 46.4723 15.3967 46.9183C15.2039 47.3643 15.101 47.8439 15.0942 48.3298C15.1107 49.3158 15.5141 50.2559 16.2173 50.9474C16.9205 51.6388 17.8672 52.0263 18.8534 52.0262H21.377V54.1204H18.8534C17.3207 54.1207 15.8491 53.5198 14.7546 52.4469C13.6601 51.3739 13.0302 49.9146 13 48.3822V48.2774C13.041 46.7543 13.6764 45.3078 14.7703 44.2471C15.8642 43.1865 17.3297 42.596 18.8534 42.6021H50.6963V54.1204Z" fill="#404040"/>
<path d="M46.5078 49.932H29.7539V47.8377H44.4136V43.6492H46.5078V49.932Z" fill="#404040"/>
<path d="M23.4712 47.8377H17.1885V49.9319H23.4712V47.8377Z" fill="#404040"/>
<path d="M30.8013 57L26.6128 54.4241L22.4243 57V45.7435H30.8013V57ZM26.6128 51.9634L28.707 53.2513V47.7958H24.5186V53.2513L26.6128 51.9634Z" fill="#FA4616"/>
<path d="M31.8691 30.0367C31.0407 30.0367 30.2309 29.791 29.5422 29.3308C28.8534 28.8705 28.3165 28.2164 27.9995 27.4511C27.6825 26.6857 27.5995 25.8436 27.7611 25.0311C27.9228 24.2186 28.3217 23.4723 28.9075 22.8865C29.4932 22.3007 30.2395 21.9018 31.052 21.7402C31.8645 21.5786 32.7067 21.6615 33.472 21.9786C34.2374 22.2956 34.8915 22.8324 35.3517 23.5212C35.812 24.21 36.0576 25.0198 36.0576 25.8482C36.0576 26.959 35.6163 28.0244 34.8308 28.8099C34.0453 29.5954 32.98 30.0367 31.8691 30.0367ZM31.8691 23.7539C31.4549 23.7539 31.0501 23.8767 30.7057 24.1069C30.3613 24.337 30.0928 24.6641 29.9343 25.0467C29.7758 25.4294 29.7343 25.8505 29.8152 26.2568C29.896 26.663 30.0954 27.0361 30.3883 27.329C30.6812 27.6219 31.0543 27.8214 31.4606 27.9022C31.8668 27.983 32.2879 27.9415 32.6706 27.783C33.0532 27.6245 33.3803 27.3561 33.6105 27.0117C33.8406 26.6673 33.9634 26.2624 33.9634 25.8482C33.9689 25.5697 33.9189 25.2928 33.8162 25.0339C33.7134 24.775 33.56 24.5391 33.365 24.3402C33.17 24.1413 32.9372 23.9832 32.6804 23.8754C32.4235 23.7675 32.1477 23.712 31.8691 23.7121V23.7539Z" fill="#404040"/>
<path d="M33.9428 36.3194H29.7543C29.4766 36.3194 29.2103 36.209 29.0139 36.0127C28.8175 35.8163 28.7072 35.55 28.7072 35.2722V33.5759C27.9981 33.2883 27.3322 32.9042 26.7281 32.4345L25.2621 33.2827C25.1426 33.3519 25.0106 33.3969 24.8737 33.4149C24.7367 33.4328 24.5976 33.4236 24.4642 33.3876C24.3309 33.3516 24.206 33.2895 24.0967 33.205C23.9875 33.1205 23.896 33.0152 23.8276 32.8953L21.7333 29.2723C21.6644 29.153 21.6197 29.0213 21.6017 28.8848C21.5838 28.7482 21.5929 28.6095 21.6286 28.4764C21.7068 28.2094 21.8825 27.9814 22.1208 27.8377L23.5868 27C23.5246 26.6121 23.4931 26.22 23.4925 25.8272C23.4947 25.4522 23.5227 25.0779 23.5763 24.7068L22.1208 23.8586C22.0008 23.7902 21.8955 23.6987 21.8111 23.5895C21.7266 23.4802 21.6645 23.3553 21.6285 23.222C21.5925 23.0886 21.5832 22.9495 21.6012 22.8126C21.6192 22.6756 21.6641 22.5436 21.7333 22.4241L23.8276 18.8011C23.896 18.6811 23.9875 18.5758 24.0967 18.4913C24.206 18.4068 24.3309 18.3448 24.4642 18.3087C24.5976 18.2727 24.7367 18.2635 24.8737 18.2815C25.0106 18.2995 25.1426 18.3444 25.2621 18.4136L26.6967 19.2513C27.3131 18.7719 27.9888 18.3742 28.7072 18.0681V16.4241C28.7072 16.1464 28.8175 15.88 29.0139 15.6837C29.2103 15.4873 29.4766 15.377 29.7543 15.377H33.9428C34.2205 15.377 34.4868 15.4873 34.6832 15.6837C34.8796 15.88 34.9899 16.1464 34.9899 16.4241V18.0576C35.7393 18.3489 36.4442 18.7436 37.0841 19.2303L38.4873 18.4136C38.7302 18.2807 39.014 18.2433 39.2831 18.3089C39.4168 18.3446 39.5421 18.4065 39.6517 18.491C39.7614 18.5755 39.8532 18.6809 39.9218 18.8011L42.0161 22.4241C42.0853 22.5436 42.1302 22.6756 42.1482 22.8126C42.1662 22.9495 42.1569 23.0886 42.1209 23.222C42.0849 23.3553 42.0229 23.4802 41.9384 23.5895C41.8539 23.6987 41.7486 23.7902 41.6286 23.8586L40.215 24.6754C40.2738 25.0565 40.3018 25.4416 40.2988 25.8272C40.2966 26.2265 40.2686 26.6252 40.215 27.0209L41.6286 27.8377C41.7486 27.9061 41.8539 27.9976 41.9384 28.1068C42.0229 28.2161 42.0849 28.341 42.1209 28.4743C42.1569 28.6077 42.1662 28.7468 42.1482 28.8837C42.1302 29.0207 42.0853 29.1528 42.0161 29.2723L39.9218 32.8953C39.8534 33.0152 39.762 33.1205 39.6527 33.205C39.5434 33.2895 39.4185 33.3516 39.2852 33.3876C39.1519 33.4236 39.0127 33.4328 38.8758 33.4149C38.7388 33.3969 38.6068 33.3519 38.4873 33.2827L37.0422 32.445C36.4352 32.9242 35.7614 33.3123 35.0423 33.5969V35.2722C35.0424 35.4143 35.0137 35.5548 34.9578 35.6854C34.902 35.816 34.8201 35.9339 34.7173 36.0318C34.6144 36.1298 34.4927 36.2058 34.3596 36.2552C34.2265 36.3046 34.0846 36.3265 33.9428 36.3194ZM30.8014 34.2251H32.8957V32.8534C32.8864 32.6197 32.9555 32.3897 33.0922 32.1999C33.2288 32.0101 33.425 31.8716 33.6496 31.8063C34.5875 31.5301 35.448 31.0389 36.1627 30.3717C36.3259 30.2184 36.5339 30.1214 36.7563 30.095C36.9787 30.0686 37.2037 30.1142 37.3983 30.2251L38.5815 30.9058L39.6286 29.0942L38.4663 28.4241C38.2691 28.3103 38.1143 28.1351 38.0254 27.9254C37.9366 27.7156 37.9186 27.4826 37.9742 27.2617C38.0889 26.7779 38.1486 26.2826 38.1522 25.7853C38.1525 25.2988 38.0963 24.8139 37.9847 24.3403C37.9316 24.1209 37.9508 23.8902 38.0395 23.6827C38.1282 23.4751 38.2816 23.3018 38.4768 23.1885L39.6286 22.5288L38.5815 20.7172L37.4297 21.3769C37.2351 21.4878 37.0101 21.5334 36.7877 21.5071C36.5654 21.4807 36.3573 21.3837 36.1941 21.2304C35.4736 20.5476 34.6016 20.0452 33.6496 19.7644C33.425 19.6991 33.2288 19.5605 33.0922 19.3708C32.9555 19.181 32.8864 18.9509 32.8957 18.7173V17.3874H30.8014V18.7278C30.8113 18.9601 30.7437 19.189 30.609 19.3786C30.4744 19.5682 30.2806 19.7077 30.058 19.7749C29.1155 20.0565 28.2539 20.5591 27.5449 21.2408C27.3821 21.3982 27.1726 21.4986 26.948 21.5269C26.7233 21.5553 26.4956 21.51 26.2988 21.3979L25.1156 20.7172L24.0684 22.5288L25.2621 23.2199C25.4572 23.3311 25.6114 23.5021 25.7019 23.7076C25.7924 23.9131 25.8144 24.1423 25.7648 24.3613C25.6502 24.8274 25.5905 25.3053 25.5867 25.7853C25.5904 26.2757 25.6501 26.7641 25.7648 27.2408C25.8178 27.4602 25.7986 27.6909 25.7099 27.8984C25.6212 28.106 25.4678 28.2794 25.2726 28.3927L24.0684 29.0942L25.1156 30.9058L26.3302 30.2042C26.5248 30.0932 26.7498 30.0476 26.9721 30.074C27.1945 30.1004 27.4026 30.1974 27.5658 30.3508C28.2734 31.019 29.1265 31.5136 30.058 31.7958C30.2806 31.863 30.4744 32.0024 30.609 32.192C30.7437 32.3816 30.8113 32.6106 30.8014 32.8429V34.2251Z" fill="#404040"/>
</svg>
