<svg width="64" height="64" viewBox="0 0 64 64" fill="none" xmlns="http://www.w3.org/2000/svg">
<path d="M48.7014 38.9225H45.5895V36.8478H48.7014C50.3521 36.8478 51.9352 36.1921 53.1024 35.0249C54.2696 33.8577 54.9254 32.2746 54.9254 30.6239C54.9254 28.9732 54.2696 27.3901 53.1024 26.2229C51.9352 25.0557 50.3521 24.3999 48.7014 24.3999C48.0612 24.4027 47.4249 24.5006 46.8135 24.6904L45.1434 25.2298L45.4753 23.5079C45.5488 23.1179 45.5869 22.7221 45.5895 22.3253C45.589 21.1334 45.2463 19.9667 44.6021 18.9639C43.9579 17.9611 43.0394 17.1644 41.9556 16.6684C40.8718 16.1724 39.6685 15.9981 38.4885 16.166C37.3085 16.334 36.2015 16.8372 35.2992 17.6159L34.1478 18.6532L33.6499 17.2113C32.8095 14.939 31.1188 13.0824 28.9348 12.0337C26.7509 10.985 24.2448 10.8263 21.946 11.5912C19.6472 12.3561 17.7358 13.9847 16.6156 16.1329C15.4954 18.2811 15.2541 20.7805 15.9428 23.1033L16.337 24.3585L15.0299 24.4518C13.3792 24.5151 11.8213 25.2315 10.6988 26.4435C9.57636 27.6555 8.98131 29.2637 9.04458 30.9144C9.10786 32.565 9.82427 34.123 11.0362 35.2454C12.2482 36.3679 13.8564 36.9629 15.5071 36.8997H18.6191V38.9743H15.5071C13.4268 39.0266 11.4027 38.2954 9.83616 36.9256C8.26958 35.5558 7.27481 33.6475 7.04902 31.5788C6.82322 29.5101 7.38289 27.4321 8.61708 25.7566C9.85128 24.0811 11.6699 22.9305 13.7125 22.5328C13.5552 21.7787 13.4752 21.0106 13.4739 20.2403C13.512 17.6882 14.4047 15.2225 16.0092 13.2375C17.6137 11.2525 19.8374 9.86278 22.3249 9.29051C24.8123 8.71824 27.4197 8.99647 29.7304 10.0807C32.041 11.165 33.9215 12.9926 35.071 15.2715C36.3293 14.5105 37.7672 14.0976 39.2376 14.0749C40.7079 14.0522 42.1579 14.4206 43.4391 15.1425C44.7203 15.8643 45.7866 16.9137 46.529 18.183C47.2714 19.4524 47.6631 20.8963 47.6641 22.3668V22.4291C48.0083 22.3877 48.3547 22.3669 48.7014 22.3668C50.9023 22.3668 53.0131 23.2411 54.5694 24.7974C56.1257 26.3537 57 28.4645 57 30.6654C57 32.8663 56.1257 34.9771 54.5694 36.5333C53.0131 38.0896 50.9023 38.964 48.7014 38.964V38.9225Z" fill="#404040"/>
<path d="M34.1373 19.3171C34.0673 18.5844 33.907 17.8632 33.6602 17.1698L35.6207 16.4851C35.9171 17.334 36.112 18.215 36.2016 19.1096L34.1373 19.3171Z" fill="#404040"/>
<path d="M46.4819 26.599L44.6978 25.5617C45.0773 24.9438 45.3409 24.2618 45.4757 23.5493L47.5504 23.9331C47.3519 24.8771 46.9903 25.7793 46.4819 26.599V26.599Z" fill="#404040"/>
<path d="M17.3335 24.6696C16.5886 24.4411 15.8071 24.3566 15.0306 24.4207L14.875 22.3461C15.9246 22.2674 16.9796 22.3834 17.987 22.6884L17.3335 24.6696Z" fill="#404040"/>
<path d="M32.1046 54.4822C32.0154 54.4979 31.9241 54.4979 31.8349 54.4822C31.1814 54.3059 19.6567 47.999 19.6567 41.7128V29.877C19.6567 29.6019 19.766 29.338 19.9606 29.1434C20.1551 28.9489 20.4189 28.8397 20.6941 28.8397C23.5882 28.8397 30.3827 25.6032 31.254 24.3273C31.3503 24.1884 31.4791 24.0752 31.6292 23.9975C31.7792 23.9197 31.946 23.8798 32.115 23.8812C32.2822 23.8815 32.4469 23.9222 32.595 23.9999C32.7431 24.0775 32.8703 24.1899 32.9656 24.3273C33.8369 25.6032 40.6314 28.8397 43.5152 28.8397C43.7903 28.8397 44.0541 28.9489 44.2487 29.1434C44.4432 29.338 44.5525 29.6019 44.5525 29.877V42.3249C44.5525 47.6671 32.9448 54.337 32.3847 54.4822C32.2919 54.4973 32.1974 54.4973 32.1046 54.4822ZM21.7314 30.8313V41.6713C21.7314 45.9347 30.03 51.2458 32.1046 52.3143C34.1793 51.277 42.4778 45.6442 42.4778 42.2833V30.8313C38.7467 30.0905 35.2127 28.5745 32.1046 26.3812C28.9963 28.5739 25.4624 30.0899 21.7314 30.8313V30.8313Z" fill="#FA4616"/>
</svg>
