<svg width="64" height="64" viewBox="0 0 64 64" fill="none" xmlns="http://www.w3.org/2000/svg">
<path d="M42.2821 48.2985L41.0381 46.4546C43.3164 44.9251 45.234 42.9174 46.6574 40.5713C48.0808 38.2252 48.9757 35.5972 49.2799 32.87L51.5015 33.1143C51.1607 36.1632 50.1594 39.1013 48.5672 41.7237C46.9749 44.346 44.8301 46.5897 42.2821 48.2985V48.2985Z" fill="#FA4616"/>
<path d="M21 14.9867L19.7671 13.1317C23.0477 10.9503 26.8734 9.73069 30.8113 9.61095C34.7491 9.4912 38.6419 10.4761 42.049 12.4542L40.9382 14.3758C37.8891 12.6063 34.4056 11.7257 30.8819 11.8336C27.3582 11.9416 23.9351 13.0339 21 14.9867V14.9867Z" fill="#FA4616"/>
<path d="M19.7674 48.2874C17.1975 46.5853 15.0335 44.3389 13.4287 41.7071C11.8239 39.0754 10.8177 36.1228 10.4814 33.0588L12.703 32.8145C13.01 35.556 13.9139 38.197 15.3513 40.5516C16.7886 42.9063 18.7245 44.9173 21.0226 46.4435L19.7674 48.2874Z" fill="#FA4616"/>
<path d="M48.1141 30.6928C46.3566 30.6928 44.6386 30.1717 43.1773 29.1953C41.716 28.2189 40.577 26.831 39.9044 25.2073C39.2319 23.5835 39.0559 21.7968 39.3988 20.0731C39.7416 18.3494 40.588 16.766 41.8307 15.5233C43.0734 14.2805 44.6568 13.4343 46.3805 13.0914C48.1043 12.7485 49.891 12.9245 51.5147 13.5971C53.1384 14.2697 54.5262 15.4086 55.5026 16.8699C56.4791 18.3312 57.0002 20.0492 57.0002 21.8067C57.0002 24.1635 56.064 26.4237 54.3975 28.0901C52.7311 29.7566 50.4709 30.6928 48.1141 30.6928ZM48.1141 15.1421C46.796 15.1421 45.5075 15.5331 44.4115 16.2654C43.3155 16.9977 42.4613 18.0385 41.9569 19.2563C41.4524 20.4741 41.3205 21.8142 41.5776 23.107C41.8348 24.3998 42.4695 25.5873 43.4016 26.5193C44.3336 27.4514 45.5211 28.0861 46.8139 28.3432C48.1067 28.6004 49.4468 28.4684 50.6645 27.964C51.8823 27.4595 52.9232 26.6053 53.6555 25.5094C54.3878 24.4134 54.7787 23.1248 54.7787 21.8067C54.767 20.0469 54.0596 18.3631 52.811 17.1229C51.5625 15.8826 49.874 15.1866 48.1141 15.1866V15.1421Z" fill="#404040"/>
<path d="M38.1505 55.1518H24.7436C24.449 55.1518 24.1665 55.0348 23.9581 54.8265C23.7498 54.6182 23.6328 54.3357 23.6328 54.0411V40.7119C23.6328 40.4173 23.7498 40.1348 23.9581 39.9265C24.1665 39.7182 24.449 39.6012 24.7436 39.6012H38.1505C38.445 39.6012 38.7276 39.7182 38.9359 39.9265C39.1442 40.1348 39.2612 40.4173 39.2612 40.7119V54.0411C39.2612 54.3357 39.1442 54.6182 38.9359 54.8265C38.7276 55.0348 38.445 55.1518 38.1505 55.1518ZM25.8543 52.9303H37.0397V41.8227H25.8543V52.9303Z" fill="#404040"/>
<path d="M23.6547 30.7151H8.10408C7.91131 30.7151 7.72187 30.6649 7.55438 30.5695C7.38689 30.474 7.24713 30.3366 7.14882 30.1708C7.05133 30.002 7 29.8104 7 29.6154C7 29.4205 7.05133 29.2289 7.14882 29.0601L14.9241 14.6202C15.0193 14.4438 15.1604 14.2965 15.3325 14.1939C15.5046 14.0912 15.7012 14.037 15.9016 14.037C16.102 14.037 16.2986 14.0912 16.4707 14.1939C16.6428 14.2965 16.7839 14.4438 16.8791 14.6202L24.6544 29.0601C24.7519 29.2289 24.8032 29.4205 24.8032 29.6154C24.8032 29.8104 24.7519 30.002 24.6544 30.1708C24.5524 30.3433 24.4056 30.4849 24.2296 30.5807C24.0536 30.6765 23.855 30.723 23.6547 30.7151ZM9.97015 28.4936H21.7998L15.8794 17.5081L9.97015 28.4936Z" fill="#404040"/>
<path d="M25.6209 17.0416L20.0671 15.1089C19.929 15.0604 19.8019 14.985 19.693 14.8872C19.5842 14.7894 19.4957 14.671 19.4328 14.5389C19.3698 14.4068 19.3336 14.2635 19.3261 14.1173C19.3187 13.9712 19.3403 13.8249 19.3895 13.6871L21.4333 8L23.5216 8.75531L21.8665 13.3761L26.4651 14.9978L25.6209 17.0416Z" fill="#FA4616"/>
<path d="M52.7792 38.6237L50.0579 34.5361L46.0258 37.2796L44.7817 35.4469L49.7357 32.1146C49.8561 32.0316 49.9916 31.9732 50.1345 31.9427C50.2775 31.9122 50.4251 31.9102 50.5688 31.9369C50.713 31.9655 50.8501 32.0225 50.9721 32.1044C51.0942 32.1864 51.1987 32.2918 51.2797 32.4145L54.612 37.424L52.7792 38.6237Z" fill="#FA4616"/>
<path d="M14.5134 48.976L14.3135 46.7545L19.2119 46.3213L18.7565 41.4673L20.978 41.2673L21.5445 47.2321C21.5573 47.3774 21.5413 47.5238 21.4974 47.663C21.4536 47.8021 21.3828 47.9312 21.2891 48.043C21.0963 48.2661 20.8267 48.4089 20.5337 48.4429L14.5134 48.976Z" fill="#FA4616"/>
</svg>
