<svg width="64" height="64" viewBox="0 0 64 64" fill="none" xmlns="http://www.w3.org/2000/svg">
<path d="M30.3424 57H27.8762V45.8865C23.3779 42.9229 14.1167 36.2443 14.1167 31.5555V30.4971H16.2335V31.5555C16.2335 34.0957 21.5257 39.2608 29.5062 44.4259L29.9931 44.7434V54.5762L33.1684 52.1948V44.7858L33.6446 44.4682C41.5934 39.3031 46.9279 34.138 46.9279 31.5978V30.5394H49.0447V31.5978C49.0447 36.2866 39.7835 42.9653 35.2852 45.9288V53.3378L30.3424 57Z" fill="#404040"/>
<path d="M49.0449 31.5978H32.1101V29.4809H49.0449V27.3641H14.1169V29.4809H22.5843V31.5978H14.1169C13.5554 31.5978 13.017 31.3747 12.62 30.9778C12.223 30.5808 12 30.0424 12 29.4809V27.3641C12 26.8027 12.223 26.2643 12.62 25.8673C13.017 25.4703 13.5554 25.2472 14.1169 25.2472H49.0449C49.6063 25.2472 50.1447 25.4703 50.5417 25.8673C50.9387 26.2643 51.1617 26.8027 51.1617 27.3641V29.4809C51.1617 30.0424 50.9387 30.5808 50.5417 30.9778C50.1447 31.3747 49.6063 31.5978 49.0449 31.5978Z" fill="#404040"/>
<path d="M49.0451 24.1888H46.9282V21.0135H43.7529V18.8967H49.0451V24.1888Z" fill="#FA4616"/>
<path d="M44.811 24.1888H42.6942V13.6046H40.5773V17.8383H38.4604V11.4877H44.811V24.1888Z" fill="#FA4616"/>
<path d="M40.5776 24.1888H38.4608V18.8967H36.3439V24.1888H34.2271V16.7798H40.5776V24.1888Z" fill="#FA4616"/>
<path d="M17.1863 24.6016L12.5928 13.7739L28.5962 7L34.9573 9.57197L36.9577 14.3031L35.0102 15.1287L33.3485 11.2125L28.6173 9.29676L15.3764 14.9064L19.1338 23.776L17.1863 24.6016Z" fill="#404040"/>
<path d="M29.1354 14.8218L27.4736 10.9267L29.4317 10.0906L30.2573 12.0487L32.2048 11.2231L33.0304 13.1706L29.1354 14.8218Z" fill="#404040"/>
</svg>
