<svg width="64" height="64" viewBox="0 0 64 64" fill="none" xmlns="http://www.w3.org/2000/svg">
<path d="M42.1089 56.9397H8.06391C7.78174 56.9397 7.51113 56.8275 7.31161 56.628C7.11209 56.4285 7 56.1579 7 55.8757V9.06391C7 8.78174 7.11209 8.51115 7.31161 8.31163C7.51113 8.11211 7.78174 8 8.06391 8H42.1089C42.391 8 42.6617 8.11211 42.8612 8.31163C43.0607 8.51115 43.1728 8.78174 43.1728 9.06391V25.2353C43.1728 25.5174 43.0607 25.788 42.8612 25.9876C42.6617 26.1871 42.391 26.2992 42.1089 26.2992C41.8267 26.2992 41.5561 26.1871 41.3566 25.9876C41.1571 25.788 41.045 25.5174 41.045 25.2353V10.1278H9.12781V54.8118H41.045V46.5134C41.045 46.2312 41.1571 45.9606 41.3566 45.7611C41.5561 45.5616 41.8267 45.4495 42.1089 45.4495C42.391 45.4495 42.6617 45.5616 42.8612 45.7611C43.0607 45.9606 43.1728 46.2312 43.1728 46.5134V55.8757C43.1728 56.1579 43.0607 56.4285 42.8612 56.628C42.6617 56.8275 42.391 56.9397 42.1089 56.9397Z" fill="#404040"/>
<path d="M28.2781 50.5562C28.1011 50.5568 27.9268 50.5133 27.7709 50.4296C27.615 50.3458 27.4824 50.2245 27.3852 50.0766C27.2881 49.9287 27.2293 49.7589 27.2143 49.5826C27.1993 49.4062 27.2285 49.229 27.2993 49.0668L30.8102 41.0449C30.8658 40.9233 30.9413 40.8118 31.0336 40.7151L50.3647 21.3946C50.5624 21.1967 50.797 21.0398 51.0554 20.9327C51.3137 20.8256 51.5906 20.7705 51.8702 20.7705C52.1498 20.7705 52.4267 20.8256 52.685 20.9327C52.9433 21.0398 53.178 21.1967 53.3756 21.3946L56.3758 24.4054C56.5737 24.6031 56.7306 24.8377 56.8377 25.096C56.9448 25.3543 56.9999 25.6312 56.9999 25.9108C56.9999 26.1905 56.9448 26.4674 56.8377 26.7257C56.7306 26.984 56.5737 27.2187 56.3758 27.4163L37.0553 46.7368C36.9604 46.8314 36.8485 46.9072 36.7255 46.9602L28.7036 50.4711C28.5691 50.5284 28.4243 50.5574 28.2781 50.5562ZM32.6826 42.045L30.3421 47.3645L35.6616 45.0239L54.8119 25.8736L51.8649 22.8947L32.6826 42.045Z" fill="#404040"/>
<path d="M48.1062 25.1038L46.6016 26.6083L51.1153 31.1221L52.6199 29.6175L48.1062 25.1038Z" fill="#404040"/>
<path d="M19.7667 30.342C19.4845 30.342 19.2139 30.2299 19.0144 30.0304C18.8149 29.8309 18.7028 29.5603 18.7028 29.2781V19.703C18.7028 19.288 17.8516 18.639 16.575 18.639C15.2983 18.639 14.4471 19.2774 14.4471 19.703V29.2781C14.4471 29.5603 14.3351 29.8309 14.1355 30.0304C13.936 30.2299 13.6654 30.342 13.3832 30.342C13.1011 30.342 12.8305 30.2299 12.6309 30.0304C12.4314 29.8309 12.3193 29.5603 12.3193 29.2781V19.703C12.3193 17.9156 14.1918 16.5112 16.575 16.5112C18.9581 16.5112 20.8306 17.9156 20.8306 19.703V29.2781C20.8306 29.5603 20.7185 29.8309 20.519 30.0304C20.3194 30.2299 20.0488 30.342 19.7667 30.342Z" fill="#FA4616"/>
<path d="M19.7667 25.0225H13.3832C13.1011 25.0225 12.8305 24.9104 12.6309 24.7109C12.4314 24.5113 12.3193 24.2407 12.3193 23.9586C12.3193 23.6764 12.4314 23.4058 12.6309 23.2063C12.8305 23.0068 13.1011 22.8947 13.3832 22.8947H19.7667C20.0488 22.8947 20.3194 23.0068 20.519 23.2063C20.7185 23.4058 20.8306 23.6764 20.8306 23.9586C20.8306 24.2407 20.7185 24.5113 20.519 24.7109C20.3194 24.9104 20.0488 25.0225 19.7667 25.0225Z" fill="#FA4616"/>
<path d="M36.7893 23.9586H24.0224C23.7402 23.9586 23.4696 23.8465 23.2701 23.647C23.0706 23.4474 22.9585 23.1768 22.9585 22.8947C22.9585 22.6125 23.0706 22.3419 23.2701 22.1424C23.4696 21.9429 23.7402 21.8308 24.0224 21.8308H36.7893C37.0714 21.8308 37.342 21.9429 37.5416 22.1424C37.7411 22.3419 37.8532 22.6125 37.8532 22.8947C37.8532 23.1768 37.7411 23.4474 37.5416 23.647C37.342 23.8465 37.0714 23.9586 36.7893 23.9586Z" fill="#404040"/>
<path d="M36.7893 29.2781H24.0224C23.7402 29.2781 23.4696 29.166 23.2701 28.9665C23.0706 28.767 22.9585 28.4964 22.9585 28.2142C22.9585 27.932 23.0706 27.6614 23.2701 27.4619C23.4696 27.2624 23.7402 27.1503 24.0224 27.1503H36.7893C37.0714 27.1503 37.342 27.2624 37.5416 27.4619C37.7411 27.6614 37.8532 27.932 37.8532 28.2142C37.8532 28.4964 37.7411 28.767 37.5416 28.9665C37.342 29.166 37.0714 29.2781 36.7893 29.2781Z" fill="#404040"/>
<path d="M33.5974 34.5976H12.3193C12.0371 34.5976 11.7665 34.4855 11.567 34.286C11.3675 34.0865 11.2554 33.8159 11.2554 33.5337C11.2554 33.2516 11.3675 32.981 11.567 32.7815C11.7665 32.5819 12.0371 32.4698 12.3193 32.4698H33.5974C33.8796 32.4698 34.1502 32.5819 34.3497 32.7815C34.5492 32.981 34.6613 33.2516 34.6613 33.5337C34.6613 33.8159 34.5492 34.0865 34.3497 34.286C34.1502 34.4855 33.8796 34.5976 33.5974 34.5976Z" fill="#404040"/>
<path d="M29.3418 39.9172H12.3193C12.0371 39.9172 11.7665 39.8051 11.567 39.6055C11.3675 39.406 11.2554 39.1354 11.2554 38.8533C11.2554 38.5711 11.3675 38.3005 11.567 38.101C11.7665 37.9015 12.0371 37.7894 12.3193 37.7894H29.3418C29.6239 37.7894 29.8945 37.9015 30.0941 38.101C30.2936 38.3005 30.4057 38.5711 30.4057 38.8533C30.4057 39.1354 30.2936 39.406 30.0941 39.6055C29.8945 39.8051 29.6239 39.9172 29.3418 39.9172Z" fill="#404040"/>
</svg>
