<svg width="64" height="64" viewBox="0 0 64 64" fill="none" xmlns="http://www.w3.org/2000/svg">
<path d="M18.9565 54.6522H8.08696C7.79868 54.6522 7.52219 54.5377 7.31834 54.3338C7.1145 54.13 7 53.8535 7 53.5652V10.087C7 9.79868 7.1145 9.52221 7.31834 9.31836C7.52219 9.11452 7.79868 9 8.08696 9H55.913C56.2013 9 56.4778 9.11452 56.6816 9.31836C56.8855 9.52221 57 9.79868 57 10.087V39.4348C57 39.7231 56.8855 39.9995 56.6816 40.2034C56.4778 40.4072 56.2013 40.5217 55.913 40.5217C55.6248 40.5217 55.3483 40.4072 55.1444 40.2034C54.9406 39.9995 54.8261 39.7231 54.8261 39.4348V11.1739H9.17391V52.4783H18.9565C19.2448 52.4783 19.5213 52.5928 19.7251 52.7966C19.9289 53.0005 20.0435 53.2769 20.0435 53.5652C20.0435 53.8535 19.9289 54.13 19.7251 54.3338C19.5213 54.5377 19.2448 54.6522 18.9565 54.6522Z" fill="#404040"/>
<path d="M55.913 15.5217H8.08691V17.6956H55.913V15.5217Z" fill="#404040"/>
<path d="M13.5216 12.2609H11.3477V14.4348H13.5216V12.2609Z" fill="#404040"/>
<path d="M17.8697 12.2609H15.6958V14.4348H17.8697V12.2609Z" fill="#404040"/>
<path d="M22.2174 12.2609H20.0435V14.4348H22.2174V12.2609Z" fill="#404040"/>
<path d="M54.8264 54.6522H45.0438V52.4783H54.8264L40.5221 30.5543L26.2286 52.4783H36.3482V54.6522H26.2286C25.837 54.6528 25.4525 54.5476 25.1157 54.3477C24.7789 54.1478 24.5024 53.8607 24.3153 53.5166C24.1283 53.1726 24.0376 52.7844 24.0529 52.3931C24.0683 52.0017 24.1891 51.6218 24.4025 51.2935L38.7068 29.3696C38.9035 29.067 39.1725 28.8181 39.4894 28.6454C39.8063 28.4727 40.1612 28.3817 40.5221 28.3804C40.8848 28.3799 41.2419 28.4701 41.5609 28.6428C41.8798 28.8156 42.1505 29.0654 42.3482 29.3696L56.6416 51.2826C56.8546 51.6102 56.9753 51.9891 56.9911 52.3795C57.0069 52.7699 56.9172 53.1573 56.7314 53.501C56.5457 53.8447 56.2707 54.132 55.9355 54.3327C55.6002 54.5334 55.2171 54.64 54.8264 54.6413V54.6522Z" fill="#404040"/>
<path d="M41.7828 38.3478H39.6089V49.2174H41.7828V38.3478Z" fill="#FA4616"/>
<path d="M41.7828 51.3913H39.6089V54.6522H41.7828V51.3913Z" fill="#FA4616"/>
</svg>
