<svg width="64" height="64" viewBox="0 0 64 64" fill="none" xmlns="http://www.w3.org/2000/svg">
<path d="M55.9583 16.2917H8.04167C7.7654 16.2917 7.50045 16.1819 7.3051 15.9866C7.10975 15.7912 7 15.5263 7 15.25V12.125C7 11.2962 7.32924 10.5013 7.91529 9.91527C8.50134 9.32922 9.2962 9 10.125 9H53.875C54.7038 9 55.4987 9.32922 56.0847 9.91527C56.6708 10.5013 57 11.2962 57 12.125V15.25C57 15.5263 56.8903 15.7912 56.6949 15.9866C56.4996 16.1819 56.2346 16.2917 55.9583 16.2917ZM9.08333 14.2083H54.9167V12.125C54.9167 11.8487 54.8069 11.5838 54.6116 11.3884C54.4162 11.1931 54.1513 11.0833 53.875 11.0833H10.125C9.84873 11.0833 9.58378 11.1931 9.38843 11.3884C9.19308 11.5838 9.08333 11.8487 9.08333 12.125V14.2083Z" fill="#404040"/>
<path d="M53.8752 51.7083H10.1252C9.8489 51.7083 9.58394 51.5986 9.38859 51.4032C9.19324 51.2079 9.0835 50.9429 9.0835 50.6667V15.25H11.1668V49.625H52.8335V15.25H54.9168V50.6667C54.9168 50.9429 54.8071 51.2079 54.6117 51.4032C54.4164 51.5986 54.1514 51.7083 53.8752 51.7083Z" fill="#404040"/>
<path d="M25.7498 45.4583C24.7197 45.4583 23.7128 45.1529 22.8562 44.5806C21.9997 44.0083 21.3322 43.1948 20.938 42.2431C20.5438 41.2914 20.4406 40.2442 20.6416 39.2339C20.8425 38.2236 21.3386 37.2956 22.067 36.5672C22.7954 35.8388 23.7234 35.3427 24.7337 35.1417C25.7441 34.9408 26.7913 35.0439 27.743 35.4381C28.6947 35.8323 29.5081 36.4999 30.0804 37.3564C30.6527 38.2129 30.9582 39.2199 30.9582 40.25C30.9582 41.6313 30.4094 42.9561 29.4327 43.9328C28.4559 44.9096 27.1312 45.4583 25.7498 45.4583V45.4583ZM25.7498 37.125C25.1318 37.125 24.5276 37.3083 24.0137 37.6517C23.4998 37.9951 23.0992 38.4831 22.8627 39.0541C22.6262 39.6251 22.5643 40.2535 22.6849 40.8596C22.8055 41.4658 23.1031 42.0227 23.5401 42.4597C23.9772 42.8968 24.534 43.1944 25.1402 43.315C25.7464 43.4356 26.3747 43.3737 26.9457 43.1371C27.5167 42.9006 28.0048 42.5 28.3482 41.9861C28.6916 41.4722 28.8748 40.8681 28.8748 40.25C28.8748 39.4212 28.5456 38.6263 27.9595 38.0403C27.3735 37.4542 26.5786 37.125 25.7498 37.125V37.125Z" fill="#FA4616"/>
<path d="M42.4165 45.4583H34.0832C33.8069 45.4583 33.542 45.3486 33.3466 45.1532C33.1512 44.9579 33.0415 44.6929 33.0415 44.4167V36.0833C33.0415 35.8071 33.1512 35.5421 33.3466 35.3468C33.542 35.1514 33.8069 35.0417 34.0832 35.0417H42.4165C42.6928 35.0417 42.9577 35.1514 43.1531 35.3468C43.3484 35.5421 43.4582 35.8071 43.4582 36.0833V44.4167C43.4582 44.6929 43.3484 44.9579 43.1531 45.1532C42.9577 45.3486 42.6928 45.4583 42.4165 45.4583ZM35.1248 43.375H41.3748V37.125H35.1248V43.375Z" fill="#FA4616"/>
<path d="M37.2082 28.7917H26.7916C26.6052 28.7932 26.4219 28.7447 26.2607 28.6513C26.0994 28.5578 25.9662 28.4229 25.8749 28.2604C25.7835 28.1021 25.7354 27.9224 25.7354 27.7396C25.7354 27.5567 25.7835 27.3771 25.8749 27.2187L31.0832 18.8854C31.1767 18.7347 31.307 18.6103 31.462 18.524C31.6169 18.4378 31.7913 18.3925 31.9687 18.3925C32.146 18.3925 32.3204 18.4378 32.4753 18.524C32.6303 18.6103 32.7607 18.7347 32.8541 18.8854L38.0624 27.2187C38.1538 27.3771 38.202 27.5567 38.202 27.7396C38.202 27.9224 38.1538 28.1021 38.0624 28.2604C37.9765 28.4139 37.8531 28.5431 37.7037 28.636C37.5543 28.7289 37.3839 28.7824 37.2082 28.7917V28.7917ZM28.6666 26.7083H35.3228L31.9999 21.3854L28.6666 26.7083Z" fill="#FA4616"/>
<path d="M33.0418 27.75H30.9585V31.9167H33.0418V27.75Z" fill="#FA4616"/>
<path d="M39.2918 36.0833H37.2085V32.9583H26.7918V36.0833H24.7085V31.9167C24.7085 31.6404 24.8182 31.3755 25.0136 31.1801C25.2089 30.9848 25.4739 30.875 25.7502 30.875H38.2502C38.5264 30.875 38.7914 30.9848 38.9867 31.1801C39.1821 31.3755 39.2918 31.6404 39.2918 31.9167V36.0833Z" fill="#FA4616"/>
<path d="M33.0418 50.6667H30.9585V54.8333H33.0418V50.6667Z" fill="#404040"/>
</svg>
