<svg width="64" height="64" viewBox="0 0 64 64" fill="none" xmlns="http://www.w3.org/2000/svg">
<path d="M28.4124 26.3142H13.1178C12.8474 26.3142 12.588 26.2069 12.3968 26.0156C12.2056 25.8244 12.0981 25.565 12.0981 25.2946C12.0981 25.0242 12.2056 24.7648 12.3968 24.5736C12.588 24.3823 12.8474 24.275 13.1178 24.275H28.4124C28.6828 24.275 28.9421 24.3823 29.1334 24.5736C29.3246 24.7648 29.432 25.0242 29.432 25.2946C29.432 25.565 29.3246 25.8244 29.1334 26.0156C28.9421 26.2069 28.6828 26.3142 28.4124 26.3142Z" fill="#404040"/>
<path d="M25.3535 34.4713H8.01964C7.74921 34.4713 7.48988 34.3639 7.29866 34.1727C7.10744 33.9815 7 33.7221 7 33.4516C7 33.1812 7.10744 32.9218 7.29866 32.7306C7.48988 32.5394 7.74921 32.432 8.01964 32.432H25.3535C25.6239 32.432 25.8833 32.5394 26.0745 32.7306C26.2657 32.9218 26.3731 33.1812 26.3731 33.4516C26.3731 33.7221 26.2657 33.9815 26.0745 34.1727C25.8833 34.3639 25.6239 34.4713 25.3535 34.4713Z" fill="#404040"/>
<path d="M26.3733 42.6284H11.0787C10.8083 42.6284 10.549 42.5211 10.3577 42.3299C10.1665 42.1386 10.0591 41.8792 10.0591 41.6088C10.0591 41.3384 10.1665 41.079 10.3577 40.8878C10.549 40.6966 10.8083 40.5892 11.0787 40.5892H26.3733C26.6437 40.5892 26.9031 40.6966 27.0943 40.8878C27.2855 41.079 27.3929 41.3384 27.3929 41.6088C27.3929 41.8792 27.2855 42.1386 27.0943 42.3299C26.9031 42.5211 26.6437 42.6284 26.3733 42.6284Z" fill="#404040"/>
<path d="M26.373 51.0404C26.1477 51.0397 25.929 50.9645 25.7511 50.8263C23.7537 49.2801 22.0744 47.3618 20.8058 45.1775C20.7384 45.0611 20.6947 44.9326 20.6771 44.7992C20.6596 44.6659 20.6687 44.5304 20.7037 44.4006C20.7388 44.2707 20.7992 44.1491 20.8815 44.0427C20.9637 43.9363 21.0662 43.8472 21.1831 43.7806C21.416 43.6468 21.6922 43.6103 21.9519 43.679C22.2115 43.7478 22.4336 43.9162 22.5698 44.1476C23.7012 46.1173 25.2041 47.8487 26.995 49.2458C27.1627 49.376 27.2856 49.5553 27.3466 49.7586C27.4075 49.962 27.4035 50.1793 27.335 50.3802C27.2665 50.5812 27.137 50.7558 26.9646 50.8796C26.7921 51.0034 26.5853 51.0704 26.373 51.071V51.0404Z" fill="#404040"/>
<path d="M20.2559 42.547C20.0434 42.5482 19.8358 42.483 19.6621 42.3605C19.4885 42.238 19.3574 42.0644 19.2873 41.8638C18.703 40.1523 18.3598 38.3678 18.2677 36.5617C18.2528 36.2913 18.3459 36.026 18.5266 35.8242C18.7073 35.6225 18.9608 35.5008 19.2312 35.4859C19.5016 35.471 19.7669 35.5642 19.9686 35.7449C20.1704 35.9256 20.2921 36.1791 20.3069 36.4495C20.389 38.0661 20.7014 39.6625 21.2348 41.1908C21.28 41.3173 21.2998 41.4515 21.293 41.5857C21.2862 41.7199 21.2529 41.8514 21.1951 41.9727C21.1373 42.094 21.0561 42.2026 20.9562 42.2924C20.8563 42.3822 20.7396 42.4514 20.6128 42.4959C20.4978 42.534 20.377 42.5513 20.2559 42.547V42.547Z" fill="#404040"/>
<path d="M19.3478 34.4713H19.2356C18.9683 34.4405 18.724 34.3054 18.556 34.0953C18.3879 33.8852 18.3097 33.6172 18.3383 33.3497C18.5406 31.4969 19.0112 29.6834 19.7352 27.966C19.7839 27.8377 19.8579 27.7205 19.9529 27.6215C20.0479 27.5224 20.1619 27.4436 20.2881 27.3897C20.4143 27.3358 20.55 27.3079 20.6872 27.3077C20.8245 27.3075 20.9603 27.335 21.0867 27.3886C21.213 27.4421 21.3273 27.5206 21.4225 27.6193C21.5178 27.7181 21.5922 27.8351 21.6412 27.9632C21.6902 28.0914 21.7128 28.2282 21.7077 28.3653C21.7025 28.5024 21.6698 28.6372 21.6114 28.7613C20.9642 30.2969 20.5418 31.9178 20.3572 33.574C20.3274 33.821 20.2083 34.0485 20.0224 34.2138C19.8365 34.379 19.5965 34.4706 19.3478 34.4713V34.4713Z" fill="#404040"/>
<path d="M37.5894 50.7855H33.5108C33.2404 50.7855 32.9811 50.6781 32.7899 50.4869C32.5987 50.2957 32.4912 50.0363 32.4912 49.7659C32.4912 49.4955 32.5987 49.2361 32.7899 49.0448C32.9811 48.8536 33.2404 48.7462 33.5108 48.7462H37.5894C41.1049 48.7462 44.4765 47.3497 46.9623 44.8639C49.4482 42.378 50.8447 39.0065 50.8447 35.491C50.8447 35.2205 50.9521 34.9611 51.1434 34.7699C51.3346 34.5787 51.5939 34.4713 51.8643 34.4713C52.1348 34.4713 52.3941 34.5787 52.5853 34.7699C52.7766 34.9611 52.884 35.2205 52.884 35.491C52.884 39.5473 51.2726 43.4375 48.4043 46.3058C45.536 49.1741 41.6458 50.7855 37.5894 50.7855Z" fill="#404040"/>
<path d="M45.7463 24.7949C45.5384 24.7944 45.3356 24.7303 45.1651 24.6113C42.9407 23.0676 40.2968 22.2421 37.5892 22.2458H35.5499C35.2795 22.2458 35.0202 22.1384 34.8289 21.9472C34.6377 21.756 34.5303 21.4966 34.5303 21.2262C34.5303 20.9558 34.6377 20.6964 34.8289 20.5051C35.0202 20.3139 35.2795 20.2065 35.5499 20.2065H37.5892C40.7127 20.2038 43.7621 21.1575 46.3275 22.9392C46.5052 23.0633 46.6388 23.2408 46.7089 23.4459C46.7789 23.6511 46.7817 23.8731 46.7169 24.08C46.6521 24.2868 46.5231 24.4677 46.3486 24.5963C46.174 24.7248 45.9631 24.7944 45.7463 24.7949V24.7949Z" fill="#404040"/>
<path d="M37.5888 54.864H20.255C19.9846 54.864 19.7252 54.7566 19.534 54.5654C19.3428 54.3742 19.2354 54.1148 19.2354 53.8444C19.2354 53.5739 19.3428 53.3146 19.534 53.1233C19.7252 52.9321 19.9846 52.8247 20.255 52.8247H37.5888C40.5775 52.8312 43.517 52.0648 46.1221 50.6C48.7272 49.1352 50.9093 47.0217 52.4565 44.4647C54.0037 41.9078 54.8636 38.9941 54.9525 36.0068C55.0415 33.0195 54.3565 30.0599 52.9641 27.4154C51.5718 24.7709 49.5193 22.5313 47.006 20.9141C44.4927 19.2969 41.6039 18.357 38.6202 18.1857C35.6364 18.0143 32.6591 18.6173 29.9772 19.9362C27.2952 21.255 24.9999 23.2449 23.3139 25.7126C23.239 25.8249 23.1426 25.9212 23.0302 25.9959C22.9178 26.0706 22.7918 26.1222 22.6593 26.1479C22.5268 26.1735 22.3905 26.1725 22.2584 26.1451C22.1262 26.1177 22.0008 26.0643 21.8895 25.988C21.7782 25.9118 21.6831 25.8142 21.6097 25.7009C21.5364 25.5876 21.4863 25.4609 21.4623 25.3281C21.4383 25.1953 21.4409 25.0591 21.4699 24.9273C21.499 24.7955 21.5539 24.6708 21.6315 24.5604C23.515 21.8042 26.0787 19.5815 29.0741 18.1077C32.0695 16.634 35.3948 15.9594 38.7277 16.1491C42.0606 16.3389 45.2879 17.3866 48.0966 19.1907C50.9054 20.9949 53.2003 23.4942 54.7588 26.4463C56.3173 29.3985 57.0865 32.7032 56.9919 36.0402C56.8973 39.3771 55.9419 42.6329 54.2186 45.492C52.4953 48.351 50.0624 50.7163 47.1559 52.3584C44.2494 54.0004 40.9679 54.8635 37.6296 54.864H37.5888Z" fill="#404040"/>
<path d="M37.5893 37.9483L31.7672 32.1261C31.5773 31.9351 31.4707 31.6767 31.4707 31.4073C31.4707 31.1379 31.5773 30.8796 31.7672 30.6885C31.862 30.5929 31.9748 30.5171 32.099 30.4653C32.2233 30.4136 32.3565 30.3869 32.4912 30.3869C32.6258 30.3869 32.759 30.4136 32.8833 30.4653C33.0075 30.5171 33.1203 30.5929 33.2151 30.6885L37.5893 35.0627L48.0814 24.5707C48.1762 24.4751 48.289 24.3993 48.4132 24.3475C48.5375 24.2958 48.6708 24.2691 48.8054 24.2691C48.94 24.2691 49.0732 24.2958 49.1975 24.3475C49.3217 24.3993 49.4345 24.4751 49.5293 24.5707C49.7192 24.7617 49.8258 25.0201 49.8258 25.2895C49.8258 25.5589 49.7192 25.8172 49.5293 26.0083L37.5893 37.9483Z" fill="#FA4616"/>
<path d="M37.5893 18.1571C36.7826 18.1571 35.9941 17.9179 35.3234 17.4698C34.6526 17.0216 34.1299 16.3846 33.8212 15.6394C33.5125 14.8941 33.4317 14.074 33.5891 13.2828C33.7465 12.4916 34.1349 11.765 34.7053 11.1946C35.2757 10.6242 36.0024 10.2358 36.7936 10.0784C37.5848 9.92102 38.4048 10.0017 39.1501 10.3104C39.8953 10.6191 40.5323 11.1419 40.9805 11.8126C41.4287 12.4833 41.6678 13.2719 41.6678 14.0785C41.6678 15.1602 41.2381 16.1977 40.4733 16.9626C39.7084 17.7274 38.671 18.1571 37.5893 18.1571ZM37.5893 12.0393C37.186 12.0393 36.7917 12.1588 36.4563 12.3829C36.121 12.607 35.8596 12.9255 35.7053 13.2981C35.5509 13.6707 35.5105 14.0807 35.5892 14.4763C35.6679 14.8719 35.8621 15.2353 36.1473 15.5205C36.4325 15.8057 36.7959 15.9999 37.1915 16.0786C37.587 16.1573 37.9971 16.1169 38.3697 15.9626C38.7423 15.8082 39.0608 15.5469 39.2849 15.2116C39.509 14.8762 39.6286 14.4819 39.6286 14.0785C39.6286 13.5377 39.4137 13.019 39.0313 12.6366C38.6488 12.2541 38.1301 12.0393 37.5893 12.0393Z" fill="#404040"/>
</svg>
