<svg width="64" height="64" viewBox="0 0 64 64" fill="none" xmlns="http://www.w3.org/2000/svg">
<path d="M42.9948 57H18V51.7927C18 50.9641 18.3292 50.1694 18.9151 49.5835C19.501 48.9975 20.2957 48.6684 21.1243 48.6684V46.5855C21.1243 46.0331 21.3438 45.5033 21.7344 45.1127C22.125 44.7221 22.6548 44.5026 23.2072 44.5026V35.5566L19.0414 31.3908V20.5493H25.2901V23.6736H27.373V20.5493H33.6217V23.6736H35.7046V20.5493H41.9533V31.3908L37.7875 35.5566V44.5026C38.34 44.5026 38.8698 44.7221 39.2604 45.1127C39.651 45.5033 39.8704 46.0331 39.8704 46.5855V48.6684C40.6991 48.6684 41.4938 48.9975 42.0797 49.5835C42.6656 50.1694 42.9948 50.9641 42.9948 51.7927V57ZM20.0829 54.9171H40.9119V51.7927C40.9119 51.5165 40.8022 51.2516 40.6069 51.0563C40.4115 50.861 40.1466 50.7513 39.8704 50.7513H37.7875V46.5855H35.7046V34.6921L39.8704 30.5263V22.6322H37.7875V25.7565H31.5388V22.6322H29.4559V25.7565H23.2072V22.6322H21.1243V30.5263L25.2901 34.6921V46.5855H23.2072V50.7513H21.1243C20.8481 50.7513 20.5832 50.861 20.3879 51.0563C20.1926 51.2516 20.0829 51.5165 20.0829 51.7927V54.9171Z" fill="#404040"/>
<path d="M30.4976 48.658H22.166V50.7409H30.4976V48.658Z" fill="#404040"/>
<path d="M38.8288 48.658H33.6216V50.7409H38.8288V48.658Z" fill="#404040"/>
<path d="M30.4975 28.8704H20.083V30.9533H30.4975V28.8704Z" fill="#404040"/>
<path d="M40.9118 28.8704H34.6631V30.9533H40.9118V28.8704Z" fill="#404040"/>
<path d="M34.0277 16.9875C33.1845 16.9827 32.345 16.8743 31.5282 16.6647L30.2368 16.3418L30.7575 14.3214L32.0385 14.6442C33.6525 15.0635 35.3575 14.9653 36.9125 14.3631C38.8521 13.611 40.9773 13.48 42.9946 13.9882V9.88484L42.5259 9.77029C40.9084 9.35155 39.2003 9.44983 37.6415 10.0514C35.6813 10.8099 33.5331 10.9373 31.497 10.416L30.2368 10.0931L30.7575 8.07273L32.0073 8.39557C33.6248 8.81432 35.3329 8.71597 36.8917 8.11436C38.8554 7.35511 41.0071 7.2277 43.0466 7.74988L45.0775 8.2706V16.6751L42.5572 16.019C40.9361 15.6001 39.2247 15.6985 37.6624 16.3002C36.5046 16.7551 35.2716 16.9881 34.0277 16.9875V16.9875Z" fill="#FA4616"/>
<path d="M31.539 7H29.4561V19.4974H31.539V7Z" fill="#FA4616"/>
<path d="M36.7459 44.4922H33.6216V46.5751H36.7459V44.4922Z" fill="#404040"/>
<path d="M30.4972 44.4922H24.2485V46.5751H30.4972V44.4922Z" fill="#404040"/>
</svg>
