<svg width="64" height="64" viewBox="0 0 64 64" fill="none" xmlns="http://www.w3.org/2000/svg">
<path d="M36.3478 47.0435C36.0595 47.0435 35.783 46.9289 35.5792 46.7251C35.3753 46.5213 35.2608 46.2448 35.2608 45.9565V42.25L36.9782 40.5217L33.0869 36.6195V34C33.0869 33.7117 33.2014 33.4352 33.4053 33.2314C33.6091 33.0275 33.8856 32.913 34.1739 32.913C34.4621 32.913 34.7386 33.0275 34.9424 33.2314C35.1463 33.4352 35.2608 33.7117 35.2608 34V35.7282L40.0543 40.5217L37.4347 43.1413V45.9565C37.4347 46.2448 37.3202 46.5213 37.1164 46.7251C36.9125 46.9289 36.6361 47.0435 36.3478 47.0435Z" fill="#FA4616"/>
<path d="M39.0109 36.5435L36.087 35.0869H33.087C32.2291 35.0649 31.4124 34.7143 30.8056 34.1075C30.1988 33.5007 29.8482 32.684 29.8262 31.8261V30.7391C29.8262 30.4508 29.9407 30.1744 30.1445 29.9705C30.3484 29.7667 30.6248 29.6522 30.9131 29.6522C31.2014 29.6522 31.4779 29.7667 31.6817 29.9705C31.8856 30.1744 32.0001 30.4508 32.0001 30.7391V31.8261C32.018 32.1085 32.1383 32.3746 32.3384 32.5747C32.5385 32.7748 32.8046 32.8951 33.087 32.913H36.5979L38.0327 33.6304L38.5218 32.6522V32.2717L34.4892 28.25C34.2845 28.0453 34.1696 27.7677 34.1696 27.4782C34.1696 27.1888 34.2845 26.9112 34.4892 26.7065C34.6939 26.5018 34.9715 26.3868 35.261 26.3868C35.5504 26.3868 35.828 26.5018 36.0327 26.7065L40.6957 31.3804V33.1739L39.0109 36.5435Z" fill="#FA4616"/>
<path d="M30.9129 51.3913H25.4781C25.1898 51.3913 24.9133 51.2768 24.7095 51.0729C24.5056 50.8691 24.3911 50.5926 24.3911 50.3043C24.3911 50.0161 24.5056 49.7396 24.7095 49.5357C24.9133 49.3319 25.1898 49.2174 25.4781 49.2174H30.9129C31.2011 49.2174 31.4776 49.3319 31.6814 49.5357C31.8853 49.7396 31.9998 50.0161 31.9998 50.3043C31.9998 50.5926 31.8853 50.8691 31.6814 51.0729C31.4776 51.2768 31.2011 51.3913 30.9129 51.3913Z" fill="#FA4616"/>
<path d="M38.5217 51.3913H35.2608C34.9725 51.3913 34.696 51.2768 34.4922 51.0729C34.2883 50.8691 34.1738 50.5926 34.1738 50.3043C34.1738 50.0161 34.2883 49.7396 34.4922 49.5357C34.696 49.3319 34.9725 49.2174 35.2608 49.2174H38.5217C38.8099 49.2174 39.0864 49.3319 39.2902 49.5357C39.4941 49.7396 39.6086 50.0161 39.6086 50.3043C39.6086 50.5926 39.4941 50.8691 39.2902 51.0729C39.0864 51.2768 38.8099 51.3913 38.5217 51.3913Z" fill="#FA4616"/>
<path d="M40.696 55.7391H23.3047C23.0165 55.7391 22.74 55.6246 22.5361 55.4208C22.3323 55.2169 22.2178 54.9405 22.2178 54.6522V51.3913C22.2178 50.8147 22.4468 50.2618 22.8545 49.8541C23.2622 49.4464 23.8151 49.2174 24.3917 49.2174V47.0435C24.3917 46.4669 24.6207 45.914 25.0284 45.5063C25.4361 45.0986 25.989 44.8696 26.5656 44.8696H30.9134C31.2017 44.8696 31.4782 44.9841 31.682 45.1879C31.8858 45.3918 32.0004 45.6682 32.0004 45.9565C32.0004 46.2448 31.8858 46.5213 31.682 46.7251C31.4782 46.929 31.2017 47.0435 30.9134 47.0435H26.5656V50.3044C26.5656 50.5926 26.4511 50.8691 26.2472 51.0729C26.0434 51.2768 25.7669 51.3913 25.4786 51.3913H24.3917V53.5652H39.6091V51.3913H38.5221C38.2338 51.3913 37.9574 51.2768 37.7535 51.0729C37.5497 50.8691 37.4352 50.5926 37.4352 50.3044V47.0435H35.2613C34.973 47.0435 34.6965 46.929 34.4926 46.7251C34.2888 46.5213 34.1743 46.2448 34.1743 45.9565C34.1743 45.6682 34.2888 45.3918 34.4926 45.1879C34.6965 44.9841 34.973 44.8696 35.2613 44.8696H37.4352C38.0117 44.8696 38.5647 45.0986 38.9724 45.5063C39.38 45.914 39.6091 46.4669 39.6091 47.0435V49.2174C40.1856 49.2174 40.7386 49.4464 41.1463 49.8541C41.554 50.2618 41.783 50.8147 41.783 51.3913V54.6522C41.783 54.9405 41.6685 55.2169 41.4646 55.4208C41.2608 55.6246 40.9843 55.7391 40.696 55.7391Z" fill="#FA4616"/>
<path d="M27.652 47.0435C27.3637 47.0435 27.0872 46.929 26.8834 46.7251C26.6795 46.5213 26.565 46.2448 26.565 45.9565V38.7935L24.3911 36.6196V30.7391C24.3919 28.9311 24.9561 27.1683 26.0054 25.696C27.0547 24.2236 28.5369 23.115 30.2457 22.5242C31.9545 21.9335 33.8049 21.8901 35.5394 22.4001C37.274 22.9101 38.8065 23.948 39.9237 25.3696C40.1024 25.5959 40.184 25.8839 40.1503 26.1703C40.1167 26.4567 39.9707 26.718 39.7444 26.8967C39.5181 27.0755 39.23 27.157 38.9436 27.1233C38.6572 27.0897 38.3959 26.9437 38.2172 26.7174C37.3799 25.6505 36.2308 24.8712 34.9299 24.4879C33.629 24.1046 32.241 24.1364 30.959 24.5789C29.677 25.0214 28.5648 25.8525 27.7773 26.9566C26.9897 28.0607 26.566 29.3829 26.565 30.7391V35.7283L28.7389 37.9022V45.9565C28.7389 46.2448 28.6244 46.5213 28.4206 46.7251C28.2167 46.929 27.9403 47.0435 27.652 47.0435Z" fill="#FA4616"/>
<path d="M55.913 53.5652H43.9565V51.3913H54.8261V11.1739H9.17391V51.3913H20.0435V53.5652H8.08696C7.79868 53.5652 7.52219 53.4507 7.31834 53.2469C7.1145 53.043 7 52.7665 7 52.4783V10.087C7 9.79868 7.1145 9.52221 7.31834 9.31836C7.52219 9.11452 7.79868 9 8.08696 9H55.913C56.2013 9 56.4778 9.11452 56.6816 9.31836C56.8855 9.52221 57 9.79868 57 10.087V52.4783C57 52.7665 56.8855 53.043 56.6816 53.2469C56.4778 53.4507 56.2013 53.5652 55.913 53.5652Z" fill="#404040"/>
<path d="M53.739 15.5217H10.2607V17.6956H53.739V15.5217Z" fill="#404040"/>
<path d="M13.5221 12.2609H11.3481V14.4348H13.5221V12.2609Z" fill="#404040"/>
<path d="M16.7828 12.2609H14.6089V14.4348H16.7828V12.2609Z" fill="#404040"/>
<path d="M20.0435 12.2609H17.8696V14.4348H20.0435V12.2609Z" fill="#404040"/>
</svg>
