<svg width="64" height="64" viewBox="0 0 64 64" fill="none" xmlns="http://www.w3.org/2000/svg">
<path d="M38.5218 51.3913H36.3479V49.2174H34.8914C34.6371 49.2225 34.3891 49.1383 34.1905 48.9794C33.9918 48.8205 33.8553 48.597 33.8044 48.3478C33.6442 47.6255 33.3571 46.9373 32.9566 46.3152C32.8353 46.1017 32.7846 45.8552 32.812 45.6111C32.8393 45.367 32.9432 45.1379 33.1088 44.9565L34.9023 43.1521L32.6196 40.8587L30.8153 42.663C30.6468 42.8306 30.428 42.9384 30.1924 42.9698C29.9569 43.0012 29.7175 42.9545 29.5109 42.8369C28.827 42.449 28.0965 42.1495 27.337 41.9456C27.0999 41.8819 26.8913 41.7398 26.7453 41.5424C26.5992 41.3451 26.5243 41.1041 26.5327 40.8587V38.3152H23.2718V40.8587C23.2802 41.1041 23.2053 41.3451 23.0593 41.5424C22.9132 41.7398 22.7046 41.8819 22.4675 41.9456C21.708 42.1495 20.9775 42.449 20.2936 42.8369C20.0859 42.9572 19.8443 43.0054 19.6064 42.9739C19.3684 42.9424 19.1476 42.8331 18.9784 42.663L17.2501 40.8587L14.9457 43.163L16.7392 44.9674C16.9068 45.1359 17.0146 45.3547 17.046 45.5902C17.0774 45.8258 17.0307 46.0652 16.9131 46.2717C16.5057 46.9123 16.2116 47.6183 16.0436 48.3587C15.9927 48.6079 15.8562 48.8314 15.6575 48.9903C15.4589 49.1492 15.2109 49.2334 14.9566 49.2282H13.5001V51.4021H11.3262V48.1413C11.3262 47.853 11.4407 47.5765 11.6445 47.3727C11.8484 47.1688 12.1248 47.0543 12.4131 47.0543H14.1305C14.2526 46.6784 14.4091 46.3146 14.5979 45.9674L12.6197 43.9782C12.4172 43.7746 12.3036 43.4991 12.3036 43.2119C12.3036 42.9248 12.4172 42.6493 12.6197 42.4456L16.4566 38.5978C16.6603 38.3954 16.9358 38.2817 17.2229 38.2817C17.5101 38.2817 17.7856 38.3954 17.9892 38.5978L20.0001 40.6087C20.3588 40.4348 20.7283 40.2826 21.087 40.1413V37.3152C21.087 37.0269 21.2016 36.7504 21.4054 36.5466C21.6092 36.3428 21.8857 36.2282 22.174 36.2282H27.6088C27.8971 36.2282 28.1735 36.3428 28.3774 36.5466C28.5812 36.7504 28.6957 37.0269 28.6957 37.3152V40.1413C29.0725 40.279 29.4349 40.4311 29.7827 40.5978L31.7827 38.5978C31.8837 38.4959 32.004 38.4151 32.1364 38.3599C32.2689 38.3047 32.4109 38.2763 32.5544 38.2763C32.6979 38.2763 32.84 38.3047 32.9725 38.3599C33.1049 38.4151 33.2251 38.4959 33.3262 38.5978L37.1631 42.4456C37.3656 42.6493 37.4792 42.9248 37.4792 43.2119C37.4792 43.4991 37.3656 43.7746 37.1631 43.9782L35.174 45.9674C35.3624 46.3162 35.5223 46.6797 35.6523 47.0543H37.3697C37.6579 47.0543 37.9344 47.1688 38.1383 47.3727C38.3421 47.5765 38.4566 47.853 38.4566 48.1413L38.5218 51.3913Z" fill="#FA4616"/>
<path d="M29.8915 51.3913H27.7176C27.7176 50.6706 27.4313 49.9794 26.9217 49.4698C26.4121 48.9602 25.7209 48.6739 25.0002 48.6739C24.2795 48.6739 23.5883 48.9602 23.0787 49.4698C22.5691 49.9794 22.2828 50.6706 22.2828 51.3913H20.1089C20.1089 50.094 20.6242 48.8499 21.5415 47.9326C22.4588 47.0153 23.7029 46.5 25.0002 46.5C26.2974 46.5 27.5416 47.0153 28.4589 47.9326C29.3762 48.8499 29.8915 50.094 29.8915 51.3913V51.3913Z" fill="#FA4616"/>
<path d="M52.652 49.2174H49.3911C49.1028 49.2174 48.8263 49.1029 48.6225 48.8991C48.4187 48.6952 48.3041 48.4187 48.3041 48.1305V46.4131C47.9295 46.2831 47.566 46.1232 47.2172 45.9348L45.228 47.9239C45.0244 48.1264 44.7489 48.24 44.4617 48.24C44.1746 48.24 43.8991 48.1264 43.6954 47.9239L39.815 44.1196C39.6126 43.9159 39.4989 43.6404 39.4989 43.3533C39.4989 43.0661 39.6126 42.7906 39.815 42.587L41.7607 40.6413C41.5017 40.2663 41.2622 39.8781 41.0433 39.4783H38.5215C38.2332 39.4783 37.9568 39.3638 37.7529 39.1599C37.5491 38.9561 37.4346 38.6796 37.4346 38.3913V32.9565C37.4346 32.6683 37.5491 32.3918 37.7529 32.1879C37.9568 31.9841 38.2332 31.8696 38.5215 31.8696H41.3259C41.448 31.4937 41.6044 31.1298 41.7933 30.7826L39.815 28.7935C39.6126 28.5898 39.4989 28.3144 39.4989 28.0272C39.4989 27.74 39.6126 27.4646 39.815 27.2609L43.652 23.4131C43.7535 23.3123 43.874 23.2326 44.0064 23.1785C44.1388 23.1244 44.2806 23.097 44.4237 23.0979C44.7088 23.0991 44.9821 23.2123 45.1846 23.4131L47.1737 25.4022C47.5243 25.2174 47.8875 25.0576 48.2606 24.9239V23.2174C48.2606 22.9291 48.3752 22.6527 48.579 22.4488C48.7829 22.245 49.0593 22.1305 49.3476 22.1305H52.6085V24.3044H50.4346V25.6413C50.4402 25.8941 50.3575 26.1409 50.2008 26.3393C50.0441 26.5377 49.8231 26.6753 49.5759 26.7283C48.8487 26.8782 48.1558 27.162 47.5324 27.5652C47.321 27.6914 47.0744 27.7458 46.8296 27.7203C46.5847 27.6948 46.3546 27.5909 46.1737 27.4239L44.4237 25.6413L42.1194 27.9457L43.9128 29.75C44.0804 29.9185 44.1882 30.1373 44.2196 30.3729C44.251 30.6085 44.2043 30.8478 44.0867 31.0544C43.6776 31.6941 43.3833 32.4003 43.2172 33.1413C43.1664 33.3905 43.0298 33.614 42.8312 33.7729C42.6325 33.9318 42.3845 34.016 42.1302 34.0109H39.5867V37.2718H41.7607C42.0046 37.2627 42.2445 37.3361 42.4417 37.4801C42.6389 37.624 42.7819 37.8301 42.8476 38.0652C43.0309 38.5485 43.2835 39.0026 43.5976 39.4131C43.7824 39.6848 43.9563 39.9565 44.1085 40.2174C44.2261 40.4239 44.2727 40.6633 44.2413 40.8989C44.2099 41.1345 44.1022 41.3533 43.9346 41.5218L42.1411 43.3261L44.4454 45.6305L46.2389 43.8261C46.4082 43.656 46.629 43.5467 46.8669 43.5152C47.1048 43.4838 47.3465 43.5319 47.5541 43.6522C48.1891 44.0703 48.8971 44.3653 49.6411 44.5218C49.8883 44.5748 50.1093 44.7123 50.266 44.9107C50.4227 45.1091 50.5054 45.3559 50.4998 45.6087V47.0761H52.6737L52.652 49.2174Z" fill="#404040"/>
<path d="M52.652 40.4565C51.3548 40.4565 50.1107 39.9412 49.1934 39.0239C48.2761 38.1066 47.7607 36.8625 47.7607 35.5652C47.7607 34.268 48.2761 33.0238 49.1934 32.1065C50.1107 31.1892 51.3548 30.6739 52.652 30.6739V32.8478C51.9313 32.8478 51.2402 33.1341 50.7306 33.6437C50.2209 34.1533 49.9347 34.8445 49.9347 35.5652C49.9347 36.2859 50.2209 36.9771 50.7306 37.4867C51.2402 37.9963 51.9313 38.2826 52.652 38.2826V40.4565Z" fill="#404040"/>
<path d="M55.913 55.7391H8.08696C7.79868 55.7391 7.52221 55.6246 7.31836 55.4208C7.11452 55.2169 7 54.9405 7 54.6522V10.087C7 9.79868 7.11452 9.52221 7.31836 9.31836C7.52221 9.11452 7.79868 9 8.08696 9H55.913C56.2013 9 56.4778 9.11452 56.6816 9.31836C56.8855 9.52221 57 9.79868 57 10.087V54.6522C57 54.9405 56.8855 55.2169 56.6816 55.4208C56.4778 55.6246 56.2013 55.7391 55.913 55.7391ZM9.17391 53.5652H54.8261V11.1739H9.17391V53.5652Z" fill="#404040"/>
<path d="M55.913 15.5217H8.08691V17.6956H55.913V15.5217Z" fill="#404040"/>
<path d="M13.5216 12.2609H11.3477V14.4348H13.5216V12.2609Z" fill="#404040"/>
<path d="M17.8697 12.2609H15.6958V14.4348H17.8697V12.2609Z" fill="#404040"/>
<path d="M22.2174 12.2609H20.0435V14.4348H22.2174V12.2609Z" fill="#404040"/>
</svg>
