<svg width="64" height="64" viewBox="0 0 64 64" fill="none" xmlns="http://www.w3.org/2000/svg">
<path d="M26.8677 28.877H8.04567C7.76834 28.877 7.50239 28.7668 7.30629 28.5707C7.11018 28.3746 7 28.1086 7 27.8313V19.4659C7 19.1886 7.11018 18.9226 7.30629 18.7265C7.50239 18.5304 7.76834 18.4203 8.04567 18.4203H26.8677C27.1451 18.4203 27.4111 18.5304 27.6072 18.7265C27.8033 18.9226 27.9134 19.1886 27.9134 19.4659V27.8313C27.9134 28.1086 27.8033 28.3746 27.6072 28.5707C27.4111 28.7668 27.1451 28.877 26.8677 28.877ZM9.09134 26.7856H25.8221V20.5116H9.09134V26.7856Z" fill="#404040"/>
<path d="M26.8677 37.2423H8.04567C7.76834 37.2423 7.50239 37.1322 7.30629 36.9361C7.11018 36.74 7 36.474 7 36.1967V27.8313H9.09134V35.151H25.8221V27.8313H27.9134V36.1967C27.9134 36.474 27.8033 36.74 27.6072 36.9361C27.4111 37.1322 27.1451 37.2423 26.8677 37.2423Z" fill="#404040"/>
<path d="M26.8677 45.6077H8.04567C7.76834 45.6077 7.50239 45.4975 7.30629 45.3014C7.11018 45.1053 7 44.8394 7 44.562V36.1967H9.09134V43.5164H25.8221V36.1967H27.9134V44.562C27.9134 44.8394 27.8033 45.1053 27.6072 45.3014C27.4111 45.4975 27.1451 45.6077 26.8677 45.6077Z" fill="#404040"/>
<path d="M43.5987 36.1967C42.7714 36.1967 41.9628 35.9514 41.2749 35.4918C40.5871 35.0322 40.051 34.3789 39.7344 33.6146C39.4178 32.8503 39.335 32.0093 39.4964 31.198C39.6578 30.3866 40.0561 29.6414 40.6411 29.0564C41.226 28.4714 41.9713 28.0731 42.7827 27.9117C43.594 27.7503 44.435 27.8331 45.1993 28.1497C45.9636 28.4663 46.6169 29.0024 47.0765 29.6902C47.5361 30.3781 47.7814 31.1868 47.7814 32.014C47.7814 33.1233 47.3407 34.1872 46.5563 34.9716C45.7719 35.756 44.708 36.1967 43.5987 36.1967ZM43.5987 29.9227C43.1851 29.9227 42.7807 30.0453 42.4368 30.2751C42.0929 30.5049 41.8248 30.8315 41.6665 31.2137C41.5083 31.5958 41.4668 32.0163 41.5475 32.422C41.6282 32.8277 41.8274 33.2003 42.1199 33.4928C42.4124 33.7853 42.785 33.9845 43.1907 34.0651C43.5964 34.1458 44.0169 34.1044 44.399 33.9461C44.7812 33.7878 45.1078 33.5198 45.3376 33.1759C45.5674 32.832 45.69 32.4276 45.69 32.014C45.69 31.4594 45.4697 30.9274 45.0775 30.5352C44.6853 30.143 44.1533 29.9227 43.5987 29.9227Z" fill="#404040"/>
<path d="M46.3899 45.4299C46.1929 45.4294 45.9999 45.3731 45.8334 45.2677C45.6669 45.1622 45.5336 45.0118 45.4488 44.8339L44.309 42.4498C43.655 42.5073 42.9972 42.5073 42.3432 42.4498L41.0779 44.7816C40.9514 45.0103 40.7438 45.1833 40.496 45.2665C40.2483 45.3497 39.9784 45.3371 39.7395 45.2312L36.4038 43.7464C36.1644 43.6402 35.9736 43.4482 35.869 43.2081C35.7644 42.968 35.7538 42.6974 35.8391 42.4498L36.7279 39.9402C36.2305 39.5143 35.7753 39.0416 35.3686 38.5285L32.8276 39.2814C32.5764 39.3539 32.3072 39.3297 32.073 39.2136C31.8389 39.0975 31.6566 38.8978 31.5623 38.654L30.2448 35.2451C30.1513 34.9987 30.1543 34.7261 30.2531 34.4818C30.352 34.2375 30.5395 34.0395 30.7781 33.9275L33.1622 32.7773C33.1204 32.125 33.1414 31.4702 33.225 30.8219L30.8617 29.5044C30.6287 29.3794 30.4516 29.1708 30.3663 28.9205C30.2809 28.6702 30.2935 28.3968 30.4016 28.1555L31.9074 24.7989C32.0137 24.5571 32.2075 24.3644 32.45 24.2597C32.6925 24.1549 32.9656 24.1459 33.2145 24.2342L35.7137 25.123C36.14 24.6193 36.6165 24.1604 37.1358 23.7532L36.3829 21.2122C36.3104 20.9611 36.3346 20.6918 36.4507 20.4576C36.5668 20.2234 36.7665 20.0412 37.0103 19.9469L40.4192 18.6294C40.6656 18.5359 40.9382 18.5389 41.1825 18.6378C41.4268 18.7367 41.6247 18.9241 41.7367 19.1627L42.8765 21.5468C43.5285 21.5068 44.1829 21.5242 44.8319 21.5991L46.0972 19.2673C46.2239 19.0361 46.4333 18.8613 46.6834 18.7779C46.9336 18.6945 47.2059 18.7087 47.4461 18.8177L50.7817 20.3025C51.0192 20.4105 51.2078 20.6034 51.3103 20.8433C51.4128 21.0832 51.422 21.3528 51.3359 21.5991L50.4576 24.1087C50.949 24.5375 51.4005 25.01 51.8065 25.5204L54.3475 24.7675C54.6001 24.692 54.8718 24.7147 55.1084 24.831C55.3449 24.9474 55.5288 25.1488 55.6232 25.3949L56.9303 28.8038C57.0245 29.0489 57.0231 29.3206 56.9262 29.5647C56.8293 29.8088 56.6441 30.0075 56.4075 30.1214L54.0129 31.2716C54.0703 31.9221 54.0703 32.5764 54.0129 33.227L56.3447 34.4922C56.5759 34.619 56.7507 34.8284 56.8341 35.0785C56.9175 35.3287 56.9033 35.601 56.7944 35.8411L55.3095 39.1664C55.2034 39.4058 55.0112 39.5966 54.7711 39.7011C54.531 39.8057 54.2605 39.8164 54.0129 39.7311L51.5137 38.8527C51.0789 39.342 50.6032 39.7932 50.0916 40.2016L50.8445 42.7425C50.92 42.9951 50.8973 43.2669 50.7809 43.5034C50.6646 43.74 50.4632 43.9239 50.2171 44.0183L46.8082 45.3254C46.6764 45.3856 46.5346 45.421 46.3899 45.4299V45.4299ZM44.926 40.2852C45.1249 40.2838 45.32 40.3392 45.4886 40.4447C45.6571 40.5503 45.792 40.7017 45.8775 40.8813L46.9232 43.0667L48.5336 42.4498L47.8434 40.1284C47.7786 39.9141 47.7842 39.6847 47.8595 39.4739C47.9348 39.263 48.0758 39.0819 48.2617 38.9572C49.0424 38.436 49.7285 37.7853 50.2903 37.0332C50.4233 36.8523 50.6111 36.719 50.8258 36.6531C51.0405 36.5872 51.2707 36.5921 51.4824 36.6672L53.7619 37.4829L54.4625 35.9143L52.3712 34.7537C52.1765 34.6468 52.0209 34.4808 51.9269 34.2797C51.8329 34.0785 51.8054 33.8526 51.8483 33.6348C52.0302 32.7114 52.055 31.764 51.9216 30.8324C51.9002 30.6191 51.9449 30.4044 52.0496 30.2173C52.1544 30.0303 52.3141 29.88 52.5071 29.7867L54.6926 28.7411L54.0756 27.1307L51.7542 27.8209C51.54 27.8857 51.3105 27.88 51.0997 27.8047C50.8889 27.7294 50.7078 27.5885 50.5831 27.4026C50.0648 26.6195 49.4136 25.9329 48.659 25.374C48.4821 25.2402 48.3523 25.0536 48.2884 24.8412C48.2245 24.6288 48.2298 24.4016 48.3035 24.1924L49.1087 21.9023L47.5402 21.2017L46.3795 23.2931C46.2726 23.4877 46.1066 23.6434 45.9055 23.7374C45.7043 23.8314 45.4785 23.8589 45.2606 23.8159C44.3061 23.6267 43.3259 23.6055 42.3641 23.7532C42.1508 23.7745 41.9361 23.7298 41.749 23.6251C41.562 23.5204 41.4117 23.3606 41.3184 23.1676L40.2728 20.9821L38.6729 21.5991L39.3526 23.9205C39.4174 24.1347 39.4117 24.3642 39.3365 24.575C39.2612 24.7859 39.1202 24.967 38.9343 25.0917C38.1558 25.6158 37.4702 26.266 36.9057 27.0157C36.7733 27.1944 36.5873 27.3263 36.3748 27.3921C36.1623 27.4579 35.9344 27.4543 35.7241 27.3816L33.4341 26.566L32.7335 28.1346L34.8248 29.2952C35.0195 29.4021 35.1751 29.5681 35.2691 29.7692C35.3631 29.9704 35.3906 30.1963 35.3477 30.4141C35.1658 31.3375 35.141 32.2849 35.2745 33.2165C35.2958 33.4298 35.2511 33.6445 35.1463 33.8316C35.0416 34.0186 34.8819 34.1689 34.6889 34.2622L32.5034 35.3078L33.1204 36.9182L35.4418 36.228C35.656 36.1632 35.8854 36.1689 36.0963 36.2442C36.3071 36.3195 36.4882 36.4604 36.6129 36.6463C37.137 37.4248 37.7873 38.1104 38.5369 38.6749C38.7179 38.808 38.8512 38.9957 38.9171 39.2104C38.983 39.4251 38.978 39.6553 38.9029 39.8669L38.0873 42.1466L39.6558 42.8471L40.8165 40.7558C40.9233 40.5612 41.0894 40.4055 41.2905 40.3115C41.4917 40.2175 41.7175 40.19 41.9354 40.233C42.8587 40.4148 43.8062 40.4396 44.7378 40.3062L44.926 40.2852Z" fill="#404040"/>
<path d="M23.7308 22.603H20.5938V24.6943H23.7308V22.603Z" fill="#404040"/>
<path d="M23.7308 30.9683H20.5938V33.0597H23.7308V30.9683Z" fill="#404040"/>
<path d="M23.7308 39.3337H20.5938V41.425H23.7308V39.3337Z" fill="#404040"/>
<path d="M23.1451 16.8204L21.1792 16.1198C22.0877 13.7141 23.7133 11.6456 25.8361 10.1943C27.9588 8.74297 30.4762 7.97886 33.0476 8.00538C35.4358 7.93488 37.7934 8.55814 39.8348 9.79969C41.8762 11.0412 43.514 12.8479 44.55 15.0009L42.6468 15.8688C41.7743 14.0832 40.4037 12.588 38.7004 11.5638C36.9971 10.5396 35.0339 10.0301 33.0476 10.0967C30.9072 10.0692 28.81 10.6992 27.0391 11.9016C25.2683 13.104 23.909 14.8209 23.1451 16.8204Z" fill="#FA4616"/>
<path d="M44.4035 16.4335L39.332 15.827L39.583 13.7566L42.7827 14.133L43.5356 10.8914L45.5747 11.362L44.4035 16.4335Z" fill="#FA4616"/>
<path d="M33.1417 56.0644C30.7783 56.1439 28.4427 55.5362 26.4178 54.3149C24.3929 53.0937 22.7657 51.3113 21.7334 49.1839L23.6365 48.316C24.5044 50.0769 25.8641 51.5485 27.5511 52.5525C29.2381 53.5565 31.18 54.05 33.1417 53.9731C35.2182 54.0149 37.2544 53.3965 38.957 52.207C40.6595 51.0174 41.9405 49.3182 42.6154 47.354L44.5813 48.0545C43.7688 50.4293 42.2231 52.4846 40.1671 53.9241C38.1111 55.3637 35.6511 56.1132 33.1417 56.0644V56.0644Z" fill="#FA4616"/>
<path d="M22.6536 53.1365L20.625 52.6241L21.8903 47.6049L26.8572 48.18L26.6167 50.2505L23.4692 49.8949L22.6536 53.1365Z" fill="#FA4616"/>
</svg>
