<svg width="64" height="64" viewBox="0 0 64 64" fill="none" xmlns="http://www.w3.org/2000/svg">
<path d="M24.7584 38.3415H20.4993C20.2357 38.3423 19.9815 38.2437 19.7875 38.0652C19.5935 37.8867 19.474 37.6415 19.4529 37.3788L19.2017 34.1661C18.4024 33.9322 17.6305 33.6129 16.8995 33.2138L14.4613 35.3067C14.2599 35.4779 14.0013 35.5666 13.7373 35.5549C13.4733 35.5433 13.2235 35.4322 13.0381 35.2439L10.0243 32.2301C9.84779 32.0372 9.74992 31.7852 9.74992 31.5238C9.74992 31.2623 9.84779 31.0103 10.0243 30.8174L12.1172 28.3687C11.7225 27.6356 11.4034 26.8642 11.1649 26.0665L7.96275 25.8154C7.69997 25.7943 7.45483 25.6748 7.27634 25.4808C7.09785 25.2868 6.99916 25.0326 7.00001 24.7689V20.5517C6.99916 20.288 7.09785 20.0338 7.27634 19.8398C7.45483 19.6458 7.69997 19.5263 7.96275 19.5052L11.1649 19.2541C11.4052 18.457 11.7242 17.6858 12.1172 16.9518L10.0243 14.5136C9.84481 14.3201 9.74509 14.0659 9.74509 13.802C9.74509 13.5381 9.84481 13.2839 10.0243 13.0904L13.0381 10.0766C13.2249 9.88987 13.4754 9.78068 13.7394 9.77098C14.0034 9.76127 14.2612 9.85178 14.4613 10.0243L16.8995 12.1172C17.6335 11.7243 18.4046 11.4053 19.2017 11.165L19.4529 7.96273C19.474 7.69995 19.5935 7.45486 19.7875 7.27637C19.9815 7.09788 20.2357 6.99916 20.4993 7.00001H24.7584C25.0221 6.99916 25.2763 7.09788 25.4703 7.27637C25.6643 7.45486 25.7838 7.69995 25.8049 7.96273L26.056 11.165C26.8537 11.4035 27.6251 11.7225 28.3582 12.1172L30.807 10.0243C31.0089 9.85008 31.2698 9.75956 31.5362 9.77123C31.8027 9.7829 32.0547 9.89588 32.2406 10.0871L35.2544 13.1009C35.4426 13.2864 35.5537 13.5362 35.5654 13.8001C35.577 14.0641 35.4884 14.3227 35.3172 14.5241L33.2243 16.9623C33.6234 17.6933 33.9427 18.4652 34.1766 19.2645L37.3892 19.5157C37.652 19.5368 37.8971 19.6562 38.0756 19.8502C38.2541 20.0443 38.3528 20.2985 38.3519 20.5621V24.7375C38.3528 25.0011 38.2541 25.2553 38.0756 25.4493C37.8971 25.6434 37.652 25.7629 37.3892 25.784L34.1766 26.0351C33.9427 26.8345 33.6234 27.6063 33.2243 28.3373L35.3172 30.7861C35.4853 30.9867 35.5722 31.2431 35.5605 31.5046C35.5489 31.7662 35.4397 32.0138 35.2544 32.1988L32.2406 35.2544C32.0557 35.4397 31.808 35.5489 31.5465 35.5605C31.2849 35.5722 31.0285 35.4853 30.8279 35.3172L28.3792 33.2243C27.6482 33.6234 26.8763 33.9427 26.077 34.1766L25.8258 37.3892C25.802 37.6538 25.6784 37.8993 25.4802 38.0762C25.282 38.253 25.024 38.3479 24.7584 38.3415V38.3415ZM21.4726 36.2486H23.7957L24.0259 33.2662C24.043 33.0424 24.1316 32.8301 24.2785 32.6605C24.4255 32.4909 24.6231 32.3731 24.8421 32.3243C25.9346 32.0824 26.976 31.6503 27.9187 31.0477C28.1078 30.9299 28.3295 30.8755 28.5516 30.8925C28.7737 30.9094 28.9846 30.9968 29.1536 31.1418L31.4244 33.0882L33.0778 31.4349L31.1314 29.164C30.9863 28.995 30.8989 28.7841 30.882 28.562C30.8651 28.3399 30.9194 28.1183 31.0372 27.9292C31.6398 26.9864 32.072 25.945 32.3139 24.8526C32.3626 24.6335 32.4804 24.436 32.65 24.289C32.8196 24.142 33.0319 24.0535 33.2557 24.0364L36.2381 23.8061V21.4726L33.2557 21.2423C33.0333 21.2258 32.8221 21.1389 32.6526 20.9939C32.4832 20.849 32.3645 20.6537 32.3139 20.4366C32.072 19.3441 31.6398 18.3027 31.0372 17.36C30.9194 17.1709 30.8651 16.9492 30.882 16.7271C30.8989 16.5051 30.9863 16.2942 31.1314 16.1252L33.0778 13.8439L31.4244 12.18L29.1536 14.1264C28.9834 14.2698 28.7719 14.3553 28.5499 14.3704C28.3278 14.3854 28.1067 14.3293 27.9187 14.2101C26.9715 13.6162 25.9316 13.1846 24.8421 12.9334C24.6231 12.8847 24.4255 12.7669 24.2785 12.5973C24.1316 12.4277 24.043 12.2154 24.0259 11.9916L23.7957 9.01966H21.4726L21.2319 11.9916C21.2154 12.214 21.1284 12.4252 20.9834 12.5946C20.8385 12.7641 20.6432 12.8827 20.4261 12.9334C19.3366 13.1846 18.2967 13.6162 17.3495 14.2101C17.1615 14.3293 16.9404 14.3854 16.7184 14.3704C16.4963 14.3553 16.2848 14.2698 16.1147 14.1264L13.8334 12.18L12.1904 13.8229L14.1369 16.1042C14.2803 16.2744 14.3658 16.4859 14.3808 16.7079C14.3959 16.93 14.3398 17.1511 14.2206 17.339C13.6266 18.2863 13.1951 19.3261 12.9439 20.4156C12.8932 20.6327 12.7745 20.828 12.6051 20.973C12.4357 21.1179 12.2244 21.205 12.0021 21.2214L9.03014 21.4621V23.7853L12.0021 24.0154C12.2258 24.0325 12.4382 24.1211 12.6078 24.2681C12.7773 24.415 12.8952 24.6127 12.9439 24.8317C13.197 25.9206 13.6283 26.9602 14.2206 27.9083C14.3398 28.0963 14.3959 28.3174 14.3808 28.5394C14.3658 28.7615 14.2803 28.973 14.1369 29.1431L12.1904 31.4139L13.8334 33.0673L16.1147 31.1209C16.2837 30.9758 16.4946 30.8885 16.7166 30.8715C16.9387 30.8546 17.1604 30.909 17.3495 31.0267C18.2923 31.6294 19.3337 32.0615 20.4261 32.3034C20.6432 32.3541 20.8385 32.4727 20.9834 32.6422C21.1284 32.8116 21.2154 33.0229 21.2319 33.2452L21.4726 36.2486Z" fill="#404040"/>
<path d="M43.5633 47.7596C42.7354 47.7596 41.9261 47.5141 41.2377 47.0542C40.5494 46.5942 40.0129 45.9405 39.6961 45.1757C39.3792 44.4108 39.2964 43.5692 39.4579 42.7572C39.6194 41.9452 40.018 41.1993 40.6034 40.6139C41.1888 40.0285 41.9347 39.6299 42.7467 39.4684C43.5586 39.3068 44.4003 39.3898 45.1651 39.7066C45.93 40.0234 46.5837 40.5599 47.0437 41.2482C47.5036 41.9366 47.7491 42.7459 47.7491 43.5738C47.7491 44.6839 47.3081 45.7486 46.5231 46.5336C45.7381 47.3186 44.6734 47.7596 43.5633 47.7596ZM43.5633 41.4809C43.1493 41.4809 42.7447 41.6036 42.4005 41.8336C42.0563 42.0635 41.7881 42.3904 41.6297 42.7728C41.4713 43.1553 41.4298 43.5761 41.5106 43.9821C41.5913 44.3881 41.7907 44.761 42.0834 45.0537C42.3761 45.3464 42.749 45.5457 43.155 45.6265C43.561 45.7072 43.9818 45.6658 44.3642 45.5074C44.7466 45.349 45.0735 45.0807 45.3035 44.7365C45.5335 44.3924 45.6562 43.9877 45.6562 43.5738C45.6562 43.0187 45.4357 42.4864 45.0432 42.0939C44.6507 41.7014 44.1184 41.4809 43.5633 41.4809Z" fill="#FA4616"/>
<path d="M46.3572 56.9999C46.1611 57.0003 45.9688 56.9455 45.8022 56.8419C45.6357 56.7383 45.5017 56.59 45.4154 56.4139L44.2747 54.0384C43.6187 54.0786 42.9604 54.0611 42.3074 53.9861L41.0412 56.3197C40.9145 56.5485 40.7068 56.7216 40.4588 56.8049C40.2109 56.8882 39.9408 56.8756 39.7017 56.7696L36.3635 55.2837C36.1239 55.1774 35.9329 54.9851 35.8283 54.7449C35.7237 54.5046 35.713 54.2338 35.7984 53.9861L36.6879 51.485C36.1924 51.0526 35.7371 50.5763 35.3275 50.0618L32.7951 50.8153C32.5423 50.8908 32.2703 50.8681 32.0336 50.7517C31.7969 50.6352 31.6129 50.4337 31.5184 50.1874L30.2103 46.7132C30.116 46.4678 30.1175 46.196 30.2144 45.9517C30.3114 45.7074 30.4967 45.5085 30.7335 45.3946L33.1299 44.254C33.0792 43.5982 33.0968 42.9389 33.1822 42.2867L30.8486 41.0204C30.618 40.8955 30.4426 40.6885 30.3574 40.4404C30.2721 40.1923 30.2831 39.9213 30.3882 39.681L31.8742 36.3428C31.9805 36.1008 32.1745 35.908 32.4172 35.8032C32.6598 35.6984 32.9332 35.6892 33.1822 35.7777L35.6833 36.6672C36.1105 36.1668 36.5873 35.7109 37.1065 35.3067L36.353 32.7638C36.2805 32.5125 36.3047 32.2431 36.4209 32.0088C36.5371 31.7744 36.7369 31.592 36.9809 31.4977L40.3924 30.1896C40.6377 30.0953 40.9095 30.0967 41.1538 30.1937C41.3981 30.2906 41.597 30.476 41.7109 30.7128L42.8515 33.1092C43.5039 33.0586 44.1597 33.0761 44.8084 33.1615L46.0746 30.8279C46.1997 30.5947 46.4085 30.4175 46.659 30.3321C46.9095 30.2467 47.183 30.2593 47.4246 30.3675L50.7628 31.8534C51.0029 31.9617 51.1933 32.1565 51.2961 32.3989C51.3989 32.6414 51.4065 32.9137 51.3174 33.1615L50.4384 35.6626C50.9329 36.0926 51.3849 36.5692 51.7883 37.0857L54.3312 36.3323C54.584 36.2568 54.8559 36.2795 55.0927 36.3959C55.3294 36.5123 55.5134 36.7138 55.6079 36.9602L56.916 40.3716C57.0103 40.617 57.0088 40.8888 56.9119 41.1331C56.8149 41.3774 56.6296 41.5763 56.3927 41.6902L53.9963 42.8308C54.059 43.4816 54.059 44.1369 53.9963 44.7877L56.3299 46.0539C56.5613 46.1807 56.7363 46.3903 56.8197 46.6406C56.9031 46.8909 56.8889 47.1635 56.7799 47.4038L55.2626 50.7839C55.1544 51.0216 54.9614 51.2102 54.7213 51.3128C54.4812 51.4154 54.2114 51.4246 53.9649 51.3385L51.4639 50.4595C51.0288 50.9492 50.5527 51.4008 50.0407 51.8094L50.7942 54.3523C50.8697 54.6051 50.847 54.877 50.7306 55.1138C50.6141 55.3505 50.4126 55.5345 50.1663 55.629L46.7548 56.9371C46.6268 56.9806 46.4924 57.0018 46.3572 56.9999ZM44.8921 51.8513C45.0912 51.8498 45.2865 51.9052 45.4551 52.0109C45.6238 52.1165 45.7588 52.2681 45.8444 52.4477L46.8909 54.6349L48.5024 54.0174L47.8118 51.6943C47.7469 51.4799 47.7525 51.2503 47.8279 51.0393C47.9032 50.8283 48.0443 50.6471 48.2303 50.5223C49.014 50.0036 49.7011 49.3519 50.2605 48.5968C50.395 48.4176 50.5835 48.2862 50.7983 48.2222C51.0131 48.1581 51.2427 48.1648 51.4534 48.241L53.7347 49.0468L54.4359 47.4771L52.3429 46.3155C52.1481 46.2086 51.9924 46.0424 51.8983 45.8411C51.8043 45.6398 51.7767 45.4138 51.8197 45.1958C52.0017 44.2717 52.0265 43.3236 51.893 42.3913C51.8716 42.1778 51.9164 41.9629 52.0212 41.7758C52.126 41.5886 52.2858 41.4382 52.479 41.3448L54.6661 40.2984L54.0487 38.6973L51.7255 39.3775C51.5125 39.4399 51.2852 39.433 51.0764 39.3577C50.8676 39.2825 50.6881 39.1429 50.5639 38.9589C50.0357 38.1795 49.3815 37.4934 48.628 36.9288C48.4509 36.7949 48.321 36.6082 48.2571 36.3956C48.1931 36.183 48.1984 35.9557 48.2722 35.7463L49.078 33.4545L47.5083 32.7534L46.3467 34.8463C46.2414 35.043 46.0759 35.2009 45.8745 35.297C45.673 35.393 45.4462 35.422 45.227 35.38C44.304 35.1902 43.3551 35.1619 42.4225 35.2963C42.209 35.3177 41.9942 35.2729 41.807 35.1681C41.6198 35.0632 41.4694 34.9035 41.376 34.7103L40.3296 32.5232L38.7285 33.1406L39.4192 35.4637C39.483 35.6793 39.4758 35.9096 39.3985 36.1207C39.3212 36.3318 39.178 36.5124 38.9901 36.6358C38.211 37.1602 37.5249 37.811 36.96 38.5613C36.8275 38.7402 36.6414 38.8721 36.4287 38.938C36.216 39.0038 35.9879 39.0002 35.7775 38.9275L33.4857 38.1113L32.7846 39.6914L34.8775 40.8425C35.0742 40.9479 35.2321 41.1134 35.3281 41.3148C35.4242 41.5162 35.4533 41.7431 35.4112 41.9623C35.2257 42.8857 35.1974 43.8339 35.3275 44.7668C35.3604 44.9885 35.3212 45.215 35.2157 45.4128C35.1102 45.6106 34.944 45.7693 34.7415 45.8655L32.5544 46.912L33.1718 48.513L35.4949 47.8224C35.7094 47.7575 35.939 47.7632 36.1499 47.8386C36.3609 47.9139 36.5421 48.055 36.667 48.241C37.1666 49.0165 37.7927 49.7027 38.5192 50.2712C38.7003 50.4043 38.8336 50.5922 38.8996 50.807C38.9656 51.0219 38.9606 51.2523 38.8855 51.4641L38.0797 53.7453L39.6494 54.4465L40.8005 52.3536C40.9079 52.1568 41.0758 51.9997 41.2793 51.9055C41.4827 51.8113 41.7111 51.785 41.9307 51.8304C42.8513 52.0112 43.7958 52.036 44.7247 51.9036L44.8921 51.8513Z" fill="#404040"/>
<path d="M22.6341 26.8304C21.8062 26.8304 20.9969 26.5849 20.3085 26.125C19.6202 25.665 19.0837 25.0113 18.7669 24.2465C18.45 23.4816 18.3672 22.64 18.5287 21.828C18.6902 21.016 19.0888 20.2701 19.6742 19.6847C20.2596 19.0993 21.0055 18.7007 21.8175 18.5392C22.6294 18.3777 23.4711 18.4606 24.2359 18.7774C25.0008 19.0942 25.6545 19.6307 26.1145 20.319C26.5744 21.0074 26.8199 21.8167 26.8199 22.6446C26.8199 23.7547 26.3789 24.8194 25.5939 25.6044C24.8089 26.3894 23.7442 26.8304 22.6341 26.8304ZM22.6341 20.5517C22.2201 20.5517 21.8155 20.6744 21.4713 20.9044C21.1271 21.1343 20.8589 21.4612 20.7005 21.8436C20.5421 22.2261 20.5006 22.6469 20.5814 23.0529C20.6621 23.4589 20.8615 23.8318 21.1542 24.1245C21.4469 24.4172 21.8198 24.6165 22.2258 24.6973C22.6318 24.778 23.0526 24.7366 23.435 24.5782C23.8174 24.4198 24.1443 24.1515 24.3743 23.8074C24.6043 23.4632 24.727 23.0585 24.727 22.6446C24.727 22.0895 24.5065 21.5572 24.114 21.1647C23.7215 20.7722 23.1892 20.5517 22.6341 20.5517Z" fill="#FA4616"/>
</svg>
