<svg width="64" height="64" viewBox="0 0 64 64" fill="none" xmlns="http://www.w3.org/2000/svg">
<path d="M31.1223 45.8889C30.8308 45.8877 30.5515 45.7719 30.3445 45.5667L25.6223 40.9111C25.4627 40.7487 25.3568 40.5411 25.3191 40.3166C25.2813 40.092 25.3135 39.8612 25.4112 39.6555C25.5086 39.4484 25.6676 39.2764 25.8665 39.163C26.0654 39.0496 26.2944 39.0004 26.5223 39.0222C26.7874 39.0492 27.0553 39.0218 27.3094 38.9415C27.5635 38.8613 27.7986 38.7299 28.0001 38.5556C28.4171 38.1386 28.6513 37.573 28.6513 36.9833C28.6513 36.3936 28.4171 35.8281 28.0001 35.4111C27.5831 34.9941 27.0176 34.7599 26.4279 34.7599C25.8382 34.7599 25.2726 34.9941 24.8557 35.4111C24.6776 35.6012 24.5435 35.8282 24.4629 36.0759C24.3822 36.3236 24.357 36.5859 24.389 36.8444C24.4117 37.0711 24.3641 37.2992 24.2528 37.498C24.1415 37.6967 23.9719 37.8565 23.7668 37.9555C23.5597 38.0558 23.3267 38.0893 23.0998 38.0515C22.873 38.0137 22.6634 37.9064 22.5001 37.7444L17.7779 33.0333C17.6738 32.93 17.5911 32.8071 17.5347 32.6717C17.4783 32.5363 17.4492 32.3911 17.4492 32.2445C17.4492 32.0978 17.4783 31.9525 17.5347 31.8171C17.5911 31.6817 17.6738 31.5588 17.7779 31.4555L30.3556 18.8889C30.5638 18.6819 30.8454 18.5658 31.139 18.5658C31.4325 18.5658 31.7141 18.6819 31.9223 18.8889L35.189 22.1556C35.3651 21.8207 35.5898 21.5137 35.8556 21.2444C36.2646 20.8147 36.7555 20.4713 37.2993 20.2342C37.8431 19.9972 38.4289 19.8715 39.0221 19.8644C39.6153 19.8574 40.2039 19.9691 40.7532 20.1931C41.3025 20.4171 41.8014 20.7488 42.2205 21.1687C42.6396 21.5885 42.9704 22.088 43.1934 22.6377C43.4164 23.1874 43.5272 23.7762 43.519 24.3693C43.5109 24.9625 43.3841 25.548 43.1462 26.0914C42.9082 26.6348 42.5638 27.1251 42.1334 27.5333C41.868 27.8007 41.5601 28.0222 41.2223 28.1889L44.489 31.4555C44.5931 31.5588 44.6758 31.6817 44.7322 31.8171C44.7886 31.9525 44.8176 32.0978 44.8176 32.2445C44.8176 32.3911 44.7886 32.5363 44.7322 32.6717C44.6758 32.8071 44.5931 32.93 44.489 33.0333L41.2223 36.3C41.6831 36.5364 42.0899 36.8658 42.417 37.2674C42.744 37.669 42.9842 38.1342 43.1223 38.6333C43.3928 39.4322 43.4384 40.29 43.2541 41.1131C43.0699 41.9361 42.663 42.6926 42.0779 43.3C41.2398 44.107 40.1188 44.5531 38.9554 44.5428C37.7921 44.5324 36.6791 44.0662 35.8556 43.2444C35.5891 42.9773 35.3609 42.6744 35.1778 42.3444L31.9223 45.6C31.8145 45.6983 31.6883 45.7745 31.551 45.824C31.4138 45.8736 31.2681 45.8956 31.1223 45.8889ZM28.6445 40.7333L31.1223 43.2111L35.0556 39.2778C35.2211 39.1152 35.4333 39.0086 35.6624 38.9727C35.8916 38.9368 36.1262 38.9736 36.3334 39.0778C36.5364 39.1785 36.7038 39.339 36.813 39.5376C36.9223 39.7362 36.9682 39.9635 36.9445 40.1889C36.9103 40.4458 36.9345 40.7071 37.0153 40.9534C37.0961 41.1996 37.2314 41.4244 37.4112 41.6111C37.8266 42.0183 38.3851 42.2464 38.9667 42.2464C39.5484 42.2464 40.1069 42.0183 40.5223 41.6111C40.8122 41.2921 41.0091 40.8996 41.0914 40.4764C41.1737 40.0532 41.1383 39.6155 40.989 39.2111C40.789 38.5778 40.3779 37.9444 39.0112 37.9778C38.7906 37.9829 38.5734 37.9223 38.3874 37.8035C38.2014 37.6848 38.055 37.5134 37.9667 37.3111C37.8792 37.1074 37.8547 36.8821 37.8963 36.6643C37.9379 36.4465 38.0437 36.2461 38.2001 36.0889L42.1223 32.1556L38.2001 28.2222C38.0407 28.061 37.9344 27.8549 37.8955 27.6316C37.8566 27.4082 37.887 27.1783 37.9825 26.9727C38.0781 26.7671 38.2342 26.5957 38.43 26.4814C38.6258 26.3671 38.8519 26.3154 39.0779 26.3333C39.3432 26.3645 39.6121 26.339 39.8668 26.2585C40.1215 26.1781 40.3563 26.0445 40.5557 25.8667C40.9695 25.4503 41.2018 24.8871 41.2018 24.3C41.2018 23.7129 40.9695 23.1497 40.5557 22.7334C40.3493 22.5267 40.1042 22.3628 39.8344 22.251C39.5646 22.1391 39.2755 22.0816 38.9834 22.0816C38.6914 22.0816 38.4022 22.1391 38.1324 22.251C37.8626 22.3628 37.6176 22.5267 37.4112 22.7334C37.2357 22.9251 37.1032 23.1523 37.0227 23.3995C36.9422 23.6467 36.9156 23.9083 36.9445 24.1667C36.9731 24.3964 36.9292 24.6294 36.8189 24.833C36.7086 25.0366 36.5375 25.2007 36.3294 25.3023C36.1213 25.4039 35.8867 25.4379 35.6583 25.3997C35.43 25.3614 35.2193 25.2528 35.0556 25.0889L31.1223 21.1556L20.1223 32.1556L22.6112 34.6333C22.7796 34.2965 23.0009 33.9889 23.2667 33.7222C23.6795 33.309 24.1697 32.9812 24.7092 32.7575C25.2488 32.5339 25.8271 32.4187 26.4112 32.4187C26.9953 32.4187 27.5736 32.5339 28.1132 32.7575C28.6527 32.9812 29.1429 33.309 29.5556 33.7222C29.9689 34.135 30.2967 34.6252 30.5204 35.1647C30.744 35.7043 30.8591 36.2826 30.8591 36.8666C30.8591 37.4507 30.744 38.0291 30.5204 38.5686C30.2967 39.1082 29.9689 39.5983 29.5556 40.0111C29.2927 40.2992 28.9851 40.5431 28.6445 40.7333V40.7333Z" fill="#FA4616"/>
<path d="M49.6667 57H14.1111C13.9649 57.0008 13.8199 56.9728 13.6846 56.9175C13.5492 56.8622 13.4261 56.7807 13.3223 56.6777C13.2193 56.5739 13.1378 56.4508 13.0825 56.3154C13.0272 56.18 12.9992 56.0351 13 55.8889L13.0778 8.28891C13.0778 7.99423 13.1948 7.71159 13.4032 7.50322C13.6116 7.29485 13.8942 7.1778 14.1889 7.1778L49.6667 7.00002C49.8129 6.99917 49.9579 7.02719 50.0932 7.08248C50.2286 7.13778 50.3517 7.21924 50.4555 7.32222C50.6586 7.53514 50.7737 7.81694 50.7778 8.11113V55.8889C50.7778 56.0348 50.749 56.1792 50.6932 56.314C50.6374 56.4488 50.5555 56.5713 50.4523 56.6745C50.3492 56.7777 50.2267 56.8595 50.0919 56.9154C49.9571 56.9712 49.8126 57 49.6667 57ZM15.2222 54.7778H48.5555V9.22224L15.3 9.37778L15.2222 54.7778Z" fill="#404040"/>
</svg>
