<svg width="64" height="64" viewBox="0 0 64 64" fill="none" xmlns="http://www.w3.org/2000/svg">
<path d="M54.9167 49.6667H9.08333C8.5308 49.6667 8.00089 49.4472 7.61019 49.0565C7.21949 48.6658 7 48.1359 7 47.5833V14.25C7 13.6975 7.21949 13.1675 7.61019 12.7768C8.00089 12.3861 8.5308 12.1667 9.08333 12.1667H13.25V14.25H9.08333V47.5833H54.9167V14.25H50.75V12.1667H54.9167C55.4692 12.1667 55.9991 12.3861 56.3898 12.7768C56.7805 13.1675 57 13.6975 57 14.25V47.5833C57 48.1359 56.7805 48.6658 56.3898 49.0565C55.9991 49.4472 55.4692 49.6667 54.9167 49.6667Z" fill="#404040"/>
<path d="M38.2498 50.7083H36.1665V54.875H38.2498V50.7083Z" fill="#404040"/>
<path d="M28.8748 50.7083H26.7915V54.875H28.8748V50.7083Z" fill="#404040"/>
<path d="M41.3748 53.8333H23.6665V55.9167H41.3748V53.8333Z" fill="#404040"/>
<path d="M55.9582 41.3333H8.0415V43.4167H55.9582V41.3333Z" fill="#404040"/>
<path d="M34.0835 44.4583H30.9585V46.5417H34.0835V44.4583Z" fill="#404040"/>
<path d="M48.6668 39.25H46.5835V10.0833H17.4168V39.25H15.3335V9.04167C15.3335 8.7654 15.4432 8.50045 15.6386 8.3051C15.8339 8.10975 16.0989 8 16.3752 8H47.6252C47.9014 8 48.1664 8.10975 48.3617 8.3051C48.5571 8.50045 48.6668 8.7654 48.6668 9.04167V39.25Z" fill="#FA4616"/>
<path d="M47.625 14.25H16.375V16.3333H47.625V14.25Z" fill="#FA4616"/>
<path d="M21.5833 11.125H19.5V13.2083H21.5833V11.125Z" fill="#FA4616"/>
<path d="M25.7498 11.125H23.6665V13.2083H25.7498V11.125Z" fill="#FA4616"/>
<path d="M29.9168 11.125H27.8335V13.2083H29.9168V11.125Z" fill="#FA4616"/>
</svg>
