<svg width="64" height="64" viewBox="0 0 64 64" fill="none" xmlns="http://www.w3.org/2000/svg">
<path d="M34.064 54.351L24.6811 42.2262H29.8938V40.1411H31.9789V44.3113H28.9034L34.064 50.9523L39.2767 44.3113H36.1491V37.0135H48.6596C50.3186 37.0135 51.9097 36.3545 53.0828 35.1814C54.2559 34.0083 54.9149 32.4172 54.9149 30.7582C54.9149 29.0992 54.2559 27.5081 53.0828 26.335C51.9097 25.162 50.3186 24.5029 48.6596 24.5029C48.0162 24.5057 47.3767 24.6041 46.7622 24.7948L45.0837 25.3369L45.4173 23.6063C45.4911 23.2144 45.5295 22.8166 45.532 22.4178C45.5315 21.2199 45.1871 20.0474 44.5397 19.0395C43.8923 18.0317 42.9691 17.2309 41.8798 16.7324C40.7906 16.2339 39.5812 16.0587 38.3952 16.2275C37.2093 16.3963 36.0968 16.902 35.1899 17.6847L34.0327 18.7272L33.5219 17.2781C32.6491 15.0402 30.9513 13.2222 28.7783 12.1987C26.6052 11.1752 24.1224 11.0241 21.8412 11.7764C19.5601 12.5288 17.6543 14.1274 16.5166 16.2429C15.3788 18.3584 15.0957 20.8296 15.7256 23.1476L16.1322 24.4091L14.8186 24.5029C13.1596 24.5665 11.5938 25.2865 10.4656 26.5046C9.33752 27.7226 8.73947 29.339 8.80306 30.998C8.86666 32.657 9.58671 34.2227 10.8048 35.3509C12.0228 36.479 13.6391 37.077 15.2981 37.0135H23.6385V28.6731H18.4258L27.8087 16.5483L37.2438 28.6731H31.9789V29.7156H29.8938V26.588H33.0214L27.8087 19.947L22.6481 26.588H25.7236V39.0985H15.2981C13.2552 39.0882 11.2871 38.3284 9.76725 36.9633C8.24735 35.5982 7.28137 33.7227 7.05252 31.6926C6.82366 29.6625 7.34786 27.619 8.52569 25.9498C9.70352 24.2805 11.4531 23.1017 13.4424 22.6368C12.9184 19.916 13.3972 17.0975 14.7902 14.7024C16.1832 12.3073 18.3963 10.4975 21.0202 9.6076C23.6442 8.71769 26.5016 8.80785 29.0642 9.86143C31.6268 10.915 33.7214 12.8608 34.9606 15.3389C36.2252 14.5741 37.6704 14.1591 39.1481 14.1363C40.6259 14.1135 42.0832 14.4838 43.3708 15.2092C44.6584 15.9347 45.7301 16.9893 46.4763 18.2651C47.2224 19.5409 47.6161 20.992 47.6171 22.4699V22.5325C47.963 22.4909 48.3112 22.47 48.6596 22.4699C50.8716 22.4699 52.993 23.3486 54.5572 24.9127C56.1213 26.4769 57 28.5983 57 30.8103C57 33.0223 56.1213 35.1437 54.5572 36.7078C52.993 38.2719 50.8716 39.1507 48.6596 39.1507H38.2342V42.2783H43.499L34.064 54.351Z" fill="#404040"/>
<path d="M34.0225 19.3945C33.9471 18.6589 33.7862 17.9347 33.543 17.2364L35.5134 16.5483C35.8112 17.4014 36.0072 18.2868 36.0972 19.186L34.0225 19.3945Z" fill="#404040"/>
<path d="M46.4807 26.7131L44.6875 25.6706C45.0689 25.0495 45.3339 24.3641 45.4694 23.648L47.5545 24.0337C47.355 24.9825 46.9916 25.8892 46.4807 26.7131V26.7131Z" fill="#404040"/>
<path d="M17.1331 24.774C16.3844 24.5448 15.599 24.4599 14.8187 24.5238L14.6519 22.4387C15.7067 22.3603 16.7669 22.477 17.7795 22.7828L17.1331 24.774Z" fill="#404040"/>
<path d="M31.9791 31.8008H29.894V33.8858H31.9791V31.8008Z" fill="#FA4616"/>
<path d="M31.9791 35.9709H29.894V38.056H31.9791V35.9709Z" fill="#FA4616"/>
</svg>
