<svg width="64" height="64" viewBox="0 0 64 64" fill="none" xmlns="http://www.w3.org/2000/svg">
<path d="M55.913 54.5652H8.08696C7.79868 54.5652 7.52221 54.4507 7.31836 54.2469C7.11452 54.043 7 53.7665 7 53.4783V11.087C7 10.7987 7.11452 10.5222 7.31836 10.3184C7.52221 10.1145 7.79868 10 8.08696 10H55.913C56.2013 10 56.4778 10.1145 56.6816 10.3184C56.8855 10.5222 57 10.7987 57 11.087V53.4783C57 53.7665 56.8855 54.043 56.6816 54.2469C56.4778 54.4507 56.2013 54.5652 55.913 54.5652ZM9.17391 52.3913H54.8261V12.1739H9.17391V52.3913Z" fill="#404040"/>
<path d="M53.7395 16.5217H10.2612V18.6956H53.7395V16.5217Z" fill="#404040"/>
<path d="M13.5216 13.2609H11.3477V15.4348H13.5216V13.2609Z" fill="#404040"/>
<path d="M16.7828 13.2609H14.6089V15.4348H16.7828V13.2609Z" fill="#404040"/>
<path d="M20.0435 13.2609H17.8696V15.4348H20.0435V13.2609Z" fill="#404040"/>
<path d="M32.0002 46.9565C31.1403 46.9565 30.2997 46.7015 29.5847 46.2238C28.8697 45.746 28.3124 45.067 27.9833 44.2725C27.6542 43.4781 27.5681 42.6039 27.7359 41.7605C27.9036 40.9171 28.3177 40.1424 28.9258 39.5343C29.5338 38.9263 30.3086 38.5122 31.152 38.3444C31.9954 38.1766 32.8695 38.2627 33.664 38.5918C34.4585 38.9209 35.1375 39.4782 35.6153 40.1932C36.093 40.9082 36.348 41.7488 36.348 42.6087C36.348 43.7618 35.8899 44.8677 35.0746 45.6831C34.2592 46.4984 33.1533 46.9565 32.0002 46.9565ZM32.0002 40.4348C31.5702 40.4348 31.1499 40.5623 30.7924 40.8012C30.4349 41.04 30.1563 41.3795 29.9917 41.7768C29.8272 42.174 29.7842 42.6111 29.868 43.0328C29.9519 43.4545 30.159 43.8419 30.463 44.1459C30.767 44.4499 31.1544 44.657 31.5761 44.7408C31.9978 44.8247 32.4349 44.7817 32.8321 44.6171C33.2293 44.4526 33.5689 44.174 33.8077 43.8165C34.0466 43.459 34.1741 43.0387 34.1741 42.6087C34.1741 42.0321 33.945 41.4792 33.5374 41.0715C33.1297 40.6638 32.5767 40.4348 32.0002 40.4348Z" fill="#FA4616"/>
<path d="M28.1956 37.1087C28.0059 37.1075 27.8199 37.0568 27.6559 36.9614C27.4919 36.8661 27.3557 36.7295 27.2608 36.5652L22.3695 28.087C22.2269 27.8387 22.188 27.5442 22.2613 27.2674C22.3346 26.9906 22.5141 26.7539 22.7609 26.6087C22.8843 26.5364 23.0207 26.4891 23.1624 26.4697C23.3041 26.4502 23.4483 26.4589 23.5866 26.4952C23.725 26.5316 23.8548 26.5949 23.9686 26.6815C24.0825 26.7681 24.1781 26.8763 24.25 27L29.1413 35.4783C29.283 35.7278 29.3203 36.0233 29.2449 36.3003C29.1696 36.5772 28.9877 36.8131 28.7391 36.9565C28.5745 37.0542 28.387 37.1067 28.1956 37.1087Z" fill="#404040"/>
<path d="M35.8043 37.1087C35.6129 37.1067 35.4255 37.0542 35.2609 36.9565C35.0141 36.8113 34.8346 36.5746 34.7613 36.2978C34.688 36.021 34.7269 35.7265 34.8695 35.4782L39.7608 27C39.906 26.7532 40.1427 26.5737 40.4195 26.5004C40.6963 26.4272 40.9908 26.4661 41.2391 26.6087C41.4877 26.7521 41.6696 26.988 41.7449 27.2649C41.8203 27.5419 41.783 27.8374 41.6413 28.0869L36.75 36.5652C36.6542 36.7311 36.5163 36.8687 36.3503 36.9641C36.1842 37.0596 35.9959 37.1094 35.8043 37.1087Z" fill="#404040"/>
<path d="M34.8693 42.1304C34.6269 42.1317 34.391 42.0518 34.1992 41.9036C34.0074 41.7554 33.8706 41.5473 33.8106 41.3124C33.7507 41.0775 33.7709 40.8293 33.8682 40.6073C33.9655 40.3852 34.1342 40.2021 34.3476 40.087L43.4345 35.1304C43.5601 35.0616 43.698 35.0182 43.8403 35.0028C43.9827 34.9874 44.1266 35.0002 44.264 35.0406C44.4014 35.081 44.5294 35.1482 44.6407 35.2382C44.7521 35.3282 44.8445 35.4394 44.9128 35.5652C44.9817 35.6907 45.025 35.8287 45.0404 35.971C45.0559 36.1133 45.043 36.2573 45.0026 36.3947C44.9622 36.5321 44.8951 36.6601 44.805 36.7714C44.715 36.8828 44.6039 36.9752 44.478 37.0435L35.3802 42C35.2232 42.0847 35.0477 42.1295 34.8693 42.1304Z" fill="#FA4616"/>
<path d="M49.3917 43.6957H39.6091C39.3208 43.6957 39.0443 43.5811 38.8405 43.3773C38.6366 43.1734 38.5221 42.897 38.5221 42.6087C38.5441 42.3338 38.5441 42.0575 38.5221 41.7826C38.4861 41.4943 38.566 41.2035 38.7444 40.9742C38.9228 40.7449 39.1849 40.5958 39.4732 40.5598C39.7615 40.5238 40.0523 40.6037 40.2816 40.7821C40.5109 40.9604 40.66 41.2226 40.696 41.5109H48.3047C48.0426 37.3734 46.2143 33.4911 43.1916 30.6538C40.1688 27.8165 36.1787 26.2372 32.033 26.2372C27.8872 26.2372 23.8971 27.8165 20.8744 30.6538C17.8517 33.4911 16.0233 37.3734 15.7612 41.5109H23.3699C23.5648 39.9703 24.1686 38.51 25.1187 37.2817C26.0688 36.0534 27.3305 35.1019 28.7727 34.5262C30.2149 33.9504 31.785 33.7713 33.3198 34.0076C34.8546 34.2438 36.2981 34.8868 37.5004 35.8696C37.6205 35.9567 37.7216 36.0675 37.7973 36.1952C37.873 36.3229 37.9218 36.4647 37.9406 36.612C37.9593 36.7592 37.9478 36.9088 37.9066 37.0514C37.8654 37.194 37.7954 37.3266 37.7009 37.4411C37.6065 37.5557 37.4896 37.6496 37.3574 37.7172C37.2253 37.7848 37.0807 37.8247 36.9326 37.8343C36.7844 37.8438 36.6359 37.823 36.4961 37.773C36.3564 37.723 36.2284 37.6449 36.1199 37.5435C35.164 36.7611 34.0055 36.2664 32.7794 36.1168C31.5532 35.9672 30.3098 36.1689 29.1938 36.6984C28.0777 37.2279 27.1351 38.0635 26.4754 39.1079C25.8158 40.1523 25.4664 41.3626 25.4678 42.5978C25.4678 42.8861 25.3532 43.1626 25.1494 43.3664C24.9455 43.5703 24.6691 43.6848 24.3808 43.6848H14.5982C14.3099 43.6848 14.0334 43.5703 13.8296 43.3664C13.6257 43.1626 13.5112 42.8861 13.5112 42.5978C13.5112 37.6971 15.458 32.9971 18.9234 29.5317C22.3887 26.0664 27.0888 24.1196 31.9895 24.1196C36.8902 24.1196 41.5903 26.0664 45.0556 29.5317C48.5209 32.9971 50.4678 37.6971 50.4678 42.5978C50.4692 42.7406 50.4425 42.8822 50.3892 43.0146C50.3359 43.1471 50.257 43.2677 50.1571 43.3696C50.0572 43.4716 49.9381 43.5528 49.8068 43.6088C49.6755 43.6647 49.5344 43.6942 49.3917 43.6957V43.6957Z" fill="#404040"/>
</svg>
