<svg width="64" height="64" viewBox="0 0 64 64" fill="none" xmlns="http://www.w3.org/2000/svg">
<path d="M51.7917 50.4583H12.2083C10.827 50.4583 9.50223 49.9096 8.52548 48.9329C7.54873 47.9561 7 46.6313 7 45.25V42.125C7 41.8487 7.10975 41.5838 7.3051 41.3884C7.50045 41.1931 7.7654 41.0833 8.04167 41.0833H55.9583C56.2346 41.0833 56.4996 41.1931 56.6949 41.3884C56.8903 41.5838 57 41.8487 57 42.125V45.25C57 46.6313 56.4513 47.9561 55.4745 48.9329C54.4978 49.9096 53.173 50.4583 51.7917 50.4583V50.4583ZM9.08333 43.1667V45.25C9.08333 46.0788 9.41257 46.8737 9.99862 47.4597C10.5847 48.0458 11.3795 48.375 12.2083 48.375H51.7917C52.6205 48.375 53.4153 48.0458 54.0014 47.4597C54.5874 46.8737 54.9167 46.0788 54.9167 45.25V43.1667H9.08333Z" fill="#404040"/>
<path d="M35.125 44.2083H28.875V46.2917H35.125V44.2083Z" fill="#404040"/>
<path d="M52.8333 43.1667H11.1667C10.8904 43.1667 10.6254 43.057 10.4301 42.8616C10.2347 42.6663 10.125 42.4013 10.125 42.125V17.125C10.125 16.2962 10.4542 15.5014 11.0403 14.9153C11.6263 14.3293 12.4212 14 13.25 14H50.75C51.5788 14 52.3737 14.3293 52.9597 14.9153C53.5458 15.5014 53.875 16.2962 53.875 17.125V42.125C53.875 42.4013 53.7652 42.6663 53.5699 42.8616C53.3745 43.057 53.1096 43.1667 52.8333 43.1667ZM12.2083 41.0833H51.7917V17.125C51.7917 16.8487 51.6819 16.5838 51.4866 16.3884C51.2912 16.1931 51.0263 16.0833 50.75 16.0833H13.25C12.9737 16.0833 12.7088 16.1931 12.5134 16.3884C12.3181 16.5838 12.2083 16.8487 12.2083 17.125V41.0833Z" fill="#404040"/>
<path d="M49.708 39H47.6247V35.875H45.1663C44.927 35.8814 44.6927 35.8052 44.503 35.6591C44.3133 35.513 44.1797 35.306 44.1247 35.073C43.811 33.7793 43.2979 32.5422 42.6038 31.4063C42.4808 31.2074 42.4282 30.9728 42.4547 30.7404C42.4811 30.5079 42.585 30.2912 42.7497 30.125L44.4893 28.3854L41.5413 25.4375L39.8018 27.1771C39.6426 27.3476 39.4309 27.4598 39.2005 27.4956C38.9701 27.5315 38.7343 27.489 38.5309 27.375C37.3422 26.7232 36.0844 26.2061 34.7809 25.8334C34.5634 25.7627 34.3751 25.6224 34.2452 25.4342C34.1153 25.2459 34.051 25.0202 34.0622 24.7917V22.3333H29.8955V24.7917C29.9019 25.0311 29.8256 25.2653 29.6795 25.455C29.5335 25.6448 29.3265 25.7784 29.0934 25.8334C27.7961 26.136 26.5574 26.6498 25.4267 27.3542C25.2267 27.4759 24.9915 27.5268 24.759 27.4984C24.5265 27.4701 24.3104 27.3642 24.1455 27.198L22.4059 25.4583L19.4788 28.4167L21.2184 30.1563C21.3872 30.3219 21.4946 30.5399 21.523 30.7747C21.5514 31.0094 21.4991 31.2468 21.3747 31.4479C20.6703 32.5748 20.1565 33.8101 19.8538 35.1042C19.7989 35.3372 19.6652 35.5442 19.4755 35.6903C19.2858 35.8364 19.0515 35.9127 18.8122 35.9063H16.3538V39.0313H14.2705V34.8646C14.2705 34.5883 14.3803 34.3234 14.5756 34.1281C14.771 33.9327 15.0359 33.8229 15.3122 33.8229H18.0205C18.3059 32.8656 18.6899 31.9405 19.1663 31.0625L17.2497 29.1563C17.152 29.0595 17.0745 28.9442 17.0217 28.8173C16.9688 28.6904 16.9415 28.5542 16.9415 28.4167C16.9415 28.2792 16.9688 28.143 17.0217 28.0161C17.0745 27.8892 17.152 27.7739 17.2497 27.6771L21.6663 23.2604C21.7632 23.1628 21.8784 23.0853 22.0053 23.0324C22.1323 22.9796 22.2684 22.9523 22.4059 22.9523C22.5434 22.9523 22.6796 22.9796 22.8065 23.0324C22.9335 23.0853 23.0487 23.1628 23.1455 23.2604L25.0517 25.1771C25.9289 24.6989 26.8542 24.3148 27.8122 24.0313V21.3229C27.8122 21.0467 27.9219 20.7817 28.1173 20.5864C28.3126 20.391 28.5776 20.2813 28.8538 20.2813H35.1038C35.3801 20.2813 35.6451 20.391 35.8404 20.5864C36.0358 20.7817 36.1455 21.0467 36.1455 21.3229V24.073C37.0871 24.3797 38.006 24.7522 38.8955 25.1876L40.8226 23.2604C41.0178 23.0664 41.2818 22.9575 41.557 22.9575C41.8322 22.9575 42.0962 23.0664 42.2913 23.2604L46.708 27.6771C46.8056 27.7739 46.8831 27.8892 46.936 28.0161C46.9889 28.143 47.0161 28.2792 47.0161 28.4167C47.0161 28.5542 46.9889 28.6904 46.936 28.8173C46.8831 28.9442 46.8056 29.0595 46.708 29.1563L44.7809 31.0313C45.2529 31.9114 45.6368 32.836 45.9268 33.7917H48.6247C48.9009 33.7917 49.1659 33.9014 49.3612 34.0968C49.5566 34.2921 49.6663 34.5571 49.6663 34.8333L49.708 39Z" fill="#FA4616"/>
<path d="M41.375 39H39.2917C39.2917 37.0661 38.5234 35.2115 37.156 33.8441C35.7885 32.4766 33.9339 31.7083 32 31.7083C30.0661 31.7083 28.2115 32.4766 26.844 33.8441C25.4766 35.2115 24.7083 37.0661 24.7083 39H22.625C22.625 36.5136 23.6127 34.129 25.3709 32.3709C27.129 30.6127 29.5136 29.625 32 29.625C34.4864 29.625 36.871 30.6127 38.6291 32.3709C40.3873 34.129 41.375 36.5136 41.375 39V39Z" fill="#FA4616"/>
</svg>
