<svg width="64" height="64" viewBox="0 0 64 64" fill="none" xmlns="http://www.w3.org/2000/svg">
<path d="M33.0413 24.4583H30.958V39.0417H33.0413V24.4583Z" fill="#FA4616"/>
<path d="M50.75 39.0417H48.6667V32.7917H15.3333V39.0417H13.25V31.75C13.25 31.4737 13.3597 31.2088 13.5551 31.0135C13.7504 30.8181 14.0154 30.7083 14.2917 30.7083H49.7083C49.9846 30.7083 50.2495 30.8181 50.4449 31.0135C50.6402 31.2088 50.75 31.4737 50.75 31.75V39.0417Z" fill="#FA4616"/>
<path d="M38.2502 25.5H25.7502C25.4739 25.5 25.2089 25.3903 25.0136 25.1949C24.8182 24.9996 24.7085 24.7346 24.7085 24.4583V14.0417C24.7085 13.7654 24.8182 13.5004 25.0136 13.3051C25.2089 13.1097 25.4739 13 25.7502 13H38.2502C38.5264 13 38.7914 13.1097 38.9867 13.3051C39.1821 13.5004 39.2918 13.7654 39.2918 14.0417V24.4583C39.2918 24.7346 39.1821 24.9996 38.9867 25.1949C38.7914 25.3903 38.5264 25.5 38.2502 25.5ZM26.7918 23.4167H37.2085V15.0833H26.7918V23.4167Z" fill="#404040"/>
<path d="M20.5417 50.5H8.04167C7.7654 50.5 7.50043 50.3903 7.30508 50.1949C7.10973 49.9996 7 49.7346 7 49.4583V39.0417C7 38.7654 7.10973 38.5005 7.30508 38.3051C7.50043 38.1098 7.7654 38 8.04167 38H20.5417C20.8179 38 21.0829 38.1098 21.2782 38.3051C21.4736 38.5005 21.5833 38.7654 21.5833 39.0417V49.4583C21.5833 49.7346 21.4736 49.9996 21.2782 50.1949C21.0829 50.3903 20.8179 50.5 20.5417 50.5ZM9.08333 48.4167H19.5V40.0833H9.08333V48.4167Z" fill="#404040"/>
<path d="M38.2502 50.5H25.7502C25.4739 50.5 25.2089 50.3903 25.0136 50.1949C24.8182 49.9996 24.7085 49.7346 24.7085 49.4583V39.0417C24.7085 38.7654 24.8182 38.5005 25.0136 38.3051C25.2089 38.1098 25.4739 38 25.7502 38H38.2502C38.5264 38 38.7914 38.1098 38.9867 38.3051C39.1821 38.5005 39.2918 38.7654 39.2918 39.0417V49.4583C39.2918 49.7346 39.1821 49.9996 38.9867 50.1949C38.7914 50.3903 38.5264 50.5 38.2502 50.5ZM26.7918 48.4167H37.2085V40.0833H26.7918V48.4167Z" fill="#404040"/>
<path d="M55.9582 50.5H43.4582C43.1819 50.5 42.9169 50.3903 42.7216 50.1949C42.5262 49.9996 42.4165 49.7346 42.4165 49.4583V39.0417C42.4165 38.7654 42.5262 38.5005 42.7216 38.3051C42.9169 38.1098 43.1819 38 43.4582 38H55.9582C56.2344 38 56.4994 38.1098 56.6947 38.3051C56.8901 38.5005 56.9998 38.7654 56.9998 39.0417V49.4583C56.9998 49.7346 56.8901 49.9996 56.6947 50.1949C56.4994 50.3903 56.2344 50.5 55.9582 50.5ZM44.4998 48.4167H54.9165V40.0833H44.4998V48.4167Z" fill="#404040"/>
</svg>
