<svg width="64" height="64" viewBox="0 0 64 64" fill="none" xmlns="http://www.w3.org/2000/svg">
<path d="M26.7917 52.625H10.125C9.2962 52.625 8.50136 52.2958 7.9153 51.7097C7.32925 51.1237 7 50.3288 7 49.5V15.125C7 14.2962 7.32925 13.5014 7.9153 12.9153C8.50136 12.3293 9.2962 12 10.125 12H26.7917C27.6205 12 28.4153 12.3293 29.0014 12.9153C29.5874 13.5014 29.9167 14.2962 29.9167 15.125V29.7083H27.8333V15.125C27.8333 14.8487 27.7236 14.5838 27.5283 14.3884C27.3329 14.1931 27.0679 14.0833 26.7917 14.0833H10.125C9.84873 14.0833 9.5838 14.1931 9.38845 14.3884C9.1931 14.5838 9.08333 14.8487 9.08333 15.125V49.5C9.08333 49.7763 9.1931 50.0412 9.38845 50.2366C9.5838 50.4319 9.84873 50.5417 10.125 50.5417H26.7917C27.0679 50.5417 27.3329 50.4319 27.5283 50.2366C27.7236 50.0412 27.8333 49.7763 27.8333 49.5V35.9583H29.9167V49.5C29.9167 50.3288 29.5874 51.1237 29.0014 51.7097C28.4153 52.2958 27.6205 52.625 26.7917 52.625V52.625Z" fill="#404040"/>
<path d="M28.8753 44.2917H8.04199V46.375H28.8753V44.2917Z" fill="#404040"/>
<path d="M19.4998 47.4167H17.4165V49.5H19.4998V47.4167Z" fill="#404040"/>
<path d="M53.8752 52.625H37.2085C36.3797 52.625 35.5849 52.2958 34.9988 51.7097C34.4127 51.1237 34.0835 50.3288 34.0835 49.5V35.9583H36.1668V49.5C36.1668 49.7763 36.2766 50.0412 36.4719 50.2366C36.6673 50.4319 36.9322 50.5417 37.2085 50.5417H53.8752C54.1514 50.5417 54.4164 50.4319 54.6117 50.2366C54.8071 50.0412 54.9168 49.7763 54.9168 49.5V15.125C54.9168 14.8487 54.8071 14.5838 54.6117 14.3884C54.4164 14.1931 54.1514 14.0833 53.8752 14.0833H37.2085C36.9322 14.0833 36.6673 14.1931 36.4719 14.3884C36.2766 14.5838 36.1668 14.8487 36.1668 15.125V29.7083H34.0835V15.125C34.0835 14.2962 34.4127 13.5014 34.9988 12.9153C35.5849 12.3293 36.3797 12 37.2085 12H53.8752C54.704 12 55.4988 12.3293 56.0849 12.9153C56.6709 13.5014 57.0002 14.2962 57.0002 15.125V49.5C57.0002 50.3288 56.6709 51.1237 56.0849 51.7097C55.4988 52.2958 54.704 52.625 53.8752 52.625Z" fill="#404040"/>
<path d="M55.9583 44.2917H35.125V46.375H55.9583V44.2917Z" fill="#404040"/>
<path d="M47.6253 47.4167H45.542V49.5H47.6253V47.4167Z" fill="#404040"/>
<path d="M47.6252 31.7917H37.2085V33.875H47.6252V31.7917Z" fill="#FA4616"/>
<path d="M45.2394 36.6979L43.7603 35.2188L46.1561 32.8333L43.7603 30.4479L45.2394 28.9688L49.0936 32.8333L45.2394 36.6979Z" fill="#FA4616"/>
<path d="M35.1248 31.7917H33.0415V33.875H35.1248V31.7917Z" fill="#FA4616"/>
<path d="M26.7917 31.7917H16.375V33.875H26.7917V31.7917Z" fill="#FA4616"/>
<path d="M18.7604 36.6979L14.9062 32.8333L18.7604 28.9688L20.2396 30.4479L17.8438 32.8333L20.2396 35.2188L18.7604 36.6979Z" fill="#FA4616"/>
<path d="M30.9583 31.7917H28.875V33.875H30.9583V31.7917Z" fill="#FA4616"/>
</svg>
