<svg width="64" height="64" viewBox="0 0 64 64" fill="none" xmlns="http://www.w3.org/2000/svg">
<path d="M44.6201 57H19.6201V50.75H27.9535V52.8333H21.7035V54.9167H42.5368V52.8333H37.3284V50.75H44.6201V57Z" fill="#404040"/>
<path d="M22.7452 16.3854C22.6452 16.4014 22.5432 16.4014 22.4431 16.3854L8.90146 12.2187C8.76992 12.1794 8.64746 12.1144 8.5411 12.0276C8.43475 11.9408 8.34663 11.8339 8.28177 11.7128C8.21691 11.5918 8.17661 11.4592 8.16319 11.3225C8.14977 11.1859 8.16349 11.048 8.20356 10.9167C8.28518 10.6529 8.46817 10.4324 8.71232 10.3034C8.95647 10.1745 9.24181 10.1478 9.50565 10.2292L23.0473 14.3958C23.3236 14.4358 23.5726 14.5841 23.7397 14.8078C23.9067 15.0314 23.978 15.3122 23.9379 15.5885C23.8979 15.8648 23.7497 16.1139 23.526 16.2809C23.3024 16.4479 23.0215 16.5192 22.7452 16.4791V16.3854Z" fill="#FA4616"/>
<path d="M9.20359 26.8021C9.0668 26.8219 8.92745 26.8146 8.79348 26.7806C8.65951 26.7465 8.53354 26.6865 8.42279 26.6038C8.19911 26.4368 8.05096 26.1877 8.0109 25.9115C7.97084 25.6352 8.04217 25.3543 8.2092 25.1306C8.37622 24.9069 8.62523 24.7588 8.9015 24.7187L22.4432 20.5521C22.7084 20.4719 22.9946 20.5005 23.2388 20.6314C23.4829 20.7623 23.6651 20.9848 23.7453 21.25C23.8254 21.5152 23.7969 21.8013 23.666 22.0455C23.5351 22.2897 23.3126 22.472 23.0474 22.5521L9.50569 26.7188C9.41018 26.7628 9.30814 26.7909 9.20359 26.8021Z" fill="#FA4616"/>
<path d="M41.4951 16.3855C41.3583 16.4053 41.219 16.398 41.085 16.364C40.951 16.33 40.825 16.2699 40.7143 16.1872C40.4906 16.0202 40.3425 15.7711 40.3024 15.4949C40.2623 15.2186 40.3337 14.9377 40.5007 14.714C40.6677 14.4903 40.9167 14.3422 41.193 14.3021L54.7347 10.1355C54.868 10.0857 55.01 10.0639 55.1521 10.0711C55.2942 10.0784 55.4332 10.1147 55.5607 10.1777C55.6882 10.2408 55.8015 10.3294 55.8935 10.4379C55.9854 10.5464 56.0542 10.6726 56.0955 10.8088C56.1369 10.9449 56.1499 11.088 56.1338 11.2293C56.1177 11.3707 56.0728 11.5072 56.0019 11.6306C55.931 11.7539 55.8356 11.8614 55.7216 11.9464C55.6075 12.0315 55.4773 12.0922 55.3389 12.125L41.7972 16.2918C41.7024 16.3395 41.6003 16.3712 41.4951 16.3855Z" fill="#FA4616"/>
<path d="M55.0365 26.8021C54.9364 26.8179 54.8345 26.8179 54.7344 26.8021L41.1927 22.6354C40.9275 22.5553 40.705 22.3731 40.5741 22.129C40.4432 21.8848 40.4147 21.5986 40.4948 21.3333C40.5749 21.0681 40.7571 20.8456 41.0013 20.7147C41.2455 20.5838 41.5317 20.5553 41.7969 20.6354L55.3386 24.802C55.6148 24.8421 55.8639 24.9904 56.0309 25.214C56.1979 25.4377 56.2692 25.7185 56.2292 25.9948C56.1891 26.271 56.041 26.5201 55.8173 26.6871C55.5936 26.8542 55.3128 26.9254 55.0365 26.8854V26.8021Z" fill="#FA4616"/>
<path d="M40.4639 51.9375L36.4326 24.7083H27.8076L23.7763 51.9375L21.7139 51.6354L26.016 22.625H38.2243L42.5263 51.6354L40.4639 51.9375Z" fill="#404040"/>
<path d="M38.1413 24.7187H26.0996L24.5371 18.4688H39.7038L38.1413 24.7187ZM27.7246 22.6354H36.5163L37.0371 20.5521H27.2038L27.7246 22.6354Z" fill="#404040"/>
<path d="M39.4119 16.3854H36.5474V15.3438C36.4704 14.2221 35.9705 13.1715 35.1487 12.4042C34.327 11.6369 33.2446 11.2102 32.1203 11.2102C30.996 11.2102 29.9136 11.6369 29.0918 12.4042C28.2701 13.1715 27.7702 14.2221 27.6932 15.3438V16.3854H24.8286V14.3021H25.7036C26.0085 12.8256 26.8133 11.4995 27.9822 10.5473C29.1511 9.59512 30.6126 9.0752 32.1203 9.0752C33.6279 9.0752 35.0894 9.59512 36.2583 10.5473C37.4272 11.4995 38.232 12.8256 38.5369 14.3021H39.4119V16.3854Z" fill="#404040"/>
<path d="M33.1619 7H31.0786V10.125H33.1619V7Z" fill="#404040"/>
<path d="M38.3701 14.2917H25.8701V16.375H38.3701V14.2917Z" fill="#404040"/>
<path d="M28.995 15.3333H26.9116V19.5H28.995V15.3333Z" fill="#404040"/>
<path d="M37.3285 15.3333H35.2451V19.5H37.3285V15.3333Z" fill="#404040"/>
<path d="M36.2868 55.9687H34.2035V49.7187C34.2035 49.4425 34.0937 49.1775 33.8984 48.9821C33.703 48.7868 33.4381 48.6771 33.1618 48.6771H32.1201C31.8438 48.6771 31.5789 48.7868 31.3836 48.9821C31.1882 49.1775 31.0785 49.4425 31.0785 49.7187V55.9687H28.9951V49.7187C28.9951 48.8899 29.3244 48.0951 29.9104 47.509C30.4965 46.923 31.2913 46.5938 32.1201 46.5938H33.1618C33.9906 46.5938 34.7855 46.923 35.3715 47.509C35.9576 48.0951 36.2868 48.8899 36.2868 49.7187V55.9687Z" fill="#404040"/>
</svg>
