<svg width="64" height="64" viewBox="0 0 64 64" fill="none" xmlns="http://www.w3.org/2000/svg">
<path d="M37.9566 49.6333H35.8518V47.5285C35.8518 44.0977 37.4935 42.6244 39.5773 40.7722C40.0508 40.3407 40.5771 39.8776 41.1138 39.3514C42.5006 38.0032 43.599 36.3874 44.3425 34.6018C45.086 32.8163 45.4591 30.8984 45.4391 28.9643C45.4391 21.987 39.1248 16.0936 31.6423 16.0936C24.1598 16.0936 17.8875 21.9449 17.8875 28.9223C17.8712 30.8558 18.2459 32.7726 18.9892 34.5576C19.7325 36.3426 20.829 37.9589 22.2128 39.3093C22.7601 39.8355 23.2652 40.2986 23.7599 40.73C25.8646 42.5822 27.4853 44.0556 27.4853 47.4864V49.5912H25.3805V47.4864C25.3805 44.9923 24.3282 44.0346 22.3602 42.2982C21.855 41.8561 21.3078 41.372 20.75 40.8248C19.1619 39.2785 17.9031 37.4269 17.0495 35.3814C16.1958 33.3358 15.7649 31.1387 15.7828 28.9223C15.7828 20.8083 23.0758 13.9468 31.6949 13.9468C40.314 13.9468 47.5965 20.8083 47.5965 28.9223C47.6157 31.138 47.1865 33.3347 46.3346 35.3802C45.4828 37.4257 44.2259 39.2777 42.6397 40.8248C42.0714 41.372 41.5242 41.8772 41.0296 42.2982C39.0827 44.0346 38.0092 44.9923 38.0092 47.4864L37.9566 49.6333Z" fill="#404040"/>
<path d="M37.9568 50.6857H25.3281V52.7904H37.9568V50.6857Z" fill="#404040"/>
<path d="M34.1786 57H29.0955L28.0431 55.9476H26.3804V53.8428H28.9166L29.969 54.8952H33.3051L34.3575 53.8428H36.9043V55.9476H35.231L34.1786 57Z" fill="#404040"/>
<path d="M34.7997 47.5285H28.4854V49.6333H34.7997V47.5285Z" fill="#404040"/>
<path d="M26.6683 7L24.6353 7.54475L25.7248 11.6109L27.7578 11.0661L26.6683 7Z" fill="#404040"/>
<path d="M16.0137 12.5135L14.5254 14.0018L17.502 16.9784L18.9903 15.4901L16.0137 12.5135Z" fill="#404040"/>
<path d="M13.1444 21.9107L12.5972 23.9524L16.6804 25.0468L17.2277 23.0052L13.1444 21.9107Z" fill="#404040"/>
<path d="M13.0661 33.5121L9 34.6017L9.54476 36.6347L13.6109 35.5452L13.0661 33.5121Z" fill="#404040"/>
<path d="M17.5064 42.2793L14.5298 45.256L16.0181 46.7443L18.9947 43.7676L17.5064 42.2793Z" fill="#404040"/>
<path d="M45.7764 42.2825L44.2881 43.7708L47.2647 46.7474L48.753 45.2591L45.7764 42.2825Z" fill="#404040"/>
<path d="M50.2137 33.514L49.6689 35.5471L53.7351 36.6366L54.2798 34.6035L50.2137 33.514Z" fill="#404040"/>
<path d="M53.7356 22.6219L49.6694 23.7114L50.2142 25.7445L54.2803 24.655L53.7356 22.6219Z" fill="#404040"/>
<path d="M47.2603 12.5167L44.2837 15.4933L45.772 16.9816L48.7486 14.005L47.2603 12.5167Z" fill="#404040"/>
<path d="M36.6139 7.00676L35.5244 11.0729L37.5575 11.6176L38.647 7.55151L36.6139 7.00676Z" fill="#404040"/>
<path d="M25.6332 34.5841L21.4237 30.3746C21.2277 30.1774 21.1177 29.9106 21.1177 29.6326C21.1177 29.3546 21.2277 29.0878 21.4237 28.8906L25.6332 24.6811L27.1276 26.165L23.6548 29.6379L27.1276 33.1002L25.6332 34.5841Z" fill="#FA4616"/>
<path d="M37.6516 34.5841L36.1572 33.1002L39.6196 29.6379L36.1572 26.165L37.6516 24.6811L41.8612 28.8906C42.0572 29.0878 42.1672 29.3546 42.1672 29.6326C42.1672 29.9106 42.0572 30.1774 41.8612 30.3746L37.6516 34.5841Z" fill="#FA4616"/>
<path d="M32.7225 21.9385L28.5195 36.6736L30.5436 37.2509L34.7465 22.5159L32.7225 21.9385Z" fill="#FA4616"/>
</svg>
