<svg width="64" height="64" viewBox="0 0 64 64" fill="none" xmlns="http://www.w3.org/2000/svg">
<path d="M39.2652 29.826H37.0913V48.3043H39.2652V29.826Z" fill="#FA4616"/>
<path d="M32.7432 29.826H30.5693V48.3043H32.7432V29.826Z" fill="#FA4616"/>
<path d="M26.2218 29.826H24.0479V48.3043H26.2218V29.826Z" fill="#FA4616"/>
<path d="M47.9607 22.2174H15.3521V24.3913H47.9607V22.2174Z" fill="#404040"/>
<path d="M44.7001 57H18.6132C17.4601 57 16.3542 56.5419 15.5388 55.7265C14.7234 54.9111 14.2654 53.8052 14.2654 52.6521V24.3913H11.0045V17.8696C10.9478 16.5024 11.4295 15.1674 12.346 14.1513C13.2625 13.1352 14.5409 12.519 15.9067 12.4348H47.4284C48.7952 12.5162 50.0752 13.1317 50.9923 14.1484C51.9093 15.1651 52.39 16.5016 52.3305 17.8696V24.3913H49.0696V52.6521C49.0697 53.2249 48.9565 53.7921 48.7366 54.321C48.5168 54.8499 48.1946 55.3302 47.7885 55.7342C47.3825 56.1382 46.9006 56.4581 46.3706 56.6753C45.8406 56.8925 45.2729 57.0028 44.7001 57ZM13.1784 22.2174H16.4393V52.6521C16.4393 53.2287 16.6683 53.7816 17.076 54.1893C17.4837 54.597 18.0366 54.826 18.6132 54.826H44.7001C45.2767 54.826 45.8296 54.597 46.2373 54.1893C46.645 53.7816 46.874 53.2287 46.874 52.6521V22.2174H50.1349V17.8696C50.1901 17.0787 49.9367 16.2972 49.428 15.6892C48.9193 15.0812 48.1948 14.6939 47.4066 14.6087H15.8849C15.0967 14.6939 14.3723 15.0812 13.8635 15.6892C13.3548 16.2972 13.1015 17.0787 13.1567 17.8696L13.1784 22.2174Z" fill="#404040"/>
<path d="M37.124 11.6196C36.8599 10.7197 36.4079 9.88618 35.7979 9.17391H27.5153C26.9053 9.88618 26.4534 10.7197 26.1893 11.6196L24.0806 11.0761C24.2436 10.4348 25.5371 7 27.3414 7H36.0371C37.8197 7 39.1023 10.4348 39.2979 11.0761L37.124 11.6196Z" fill="#404040"/>
</svg>
