<svg width="64" height="64" viewBox="0 0 64 64" fill="none" xmlns="http://www.w3.org/2000/svg">
<path d="M21.6547 39.3443L10.9233 50.0757L12.6093 51.7617L23.3407 41.0303L21.6547 39.3443Z" fill="#404040"/>
<path d="M32.0358 56.8793H11.7687C10.504 56.8793 9.29103 56.3769 8.39672 55.4826C7.50241 54.5883 7 53.3754 7 52.1106V28.2671C7.06631 27.4112 7.32876 26.5822 7.76705 25.8441C8.20534 25.1061 8.8077 24.4789 9.52741 24.011L9.80163 23.7845C10.8507 22.8904 15.5956 19.1469 15.7625 19.0158L17.2408 20.8875C17.2408 20.8875 12.329 24.7501 11.2799 25.6562L10.9938 25.8946C9.94469 26.7768 9.31283 27.3849 9.31283 28.279V52.1226C9.31283 52.7549 9.56404 53.3614 10.0112 53.8086C10.4583 54.2557 11.0648 54.5069 11.6972 54.5069H31.9642L32.0358 56.8793Z" fill="#404040"/>
<path d="M42.4199 39.3471L40.7339 41.0331L51.4653 51.7645L53.1513 50.0785L42.4199 39.3471Z" fill="#404040"/>
<path d="M52.3027 56.8793H32.0356V54.495H52.3027C52.9351 54.495 53.5415 54.2438 53.9887 53.7966C54.4358 53.3495 54.687 52.743 54.687 52.1106V28.267C54.687 27.3252 54.0433 26.7172 52.9941 25.8827L52.72 25.6443C51.7066 24.774 46.8425 20.9471 46.7591 20.8756L48.2374 19.0038C48.44 19.1588 53.1849 22.9023 54.1982 23.7726L54.4605 23.9991C55.1837 24.4642 55.7893 25.0906 56.2299 25.829C56.6704 26.5674 56.934 27.3978 56.9999 28.2552V52.0987C57.0031 53.3532 56.5119 54.5585 55.6327 55.4533C54.7535 56.3482 53.5571 56.8605 52.3027 56.8793Z" fill="#404040"/>
<path d="M47.534 35.4201C47.2179 35.4201 46.9146 35.2946 46.691 35.071C46.4674 34.8474 46.3419 34.5441 46.3419 34.2279V10.3844H17.7296V34.2279C17.7296 34.5441 17.604 34.8474 17.3804 35.071C17.1568 35.2946 16.8536 35.4201 16.5374 35.4201C16.2212 35.4201 15.918 35.2946 15.6944 35.071C15.4708 34.8474 15.3452 34.5441 15.3452 34.2279V9.19218C15.3452 8.87599 15.4708 8.57278 15.6944 8.3492C15.918 8.12562 16.2212 8 16.5374 8H47.534C47.8502 8 48.1534 8.12562 48.377 8.3492C48.6006 8.57278 48.7262 8.87599 48.7262 9.19218V34.2279C48.7262 34.5441 48.6006 34.8474 48.377 35.071C48.1534 35.2946 47.8502 35.4201 47.534 35.4201Z" fill="#FA4616"/>
<path d="M34.4202 44.9576H29.6515C28.4081 44.9792 27.1726 44.7544 26.0165 44.296C24.8604 43.8377 23.8065 43.1549 22.9157 42.2871L10.9224 30.3653L12.6153 28.6844L24.5371 40.6061C25.2068 41.2742 26.0058 41.7985 26.8852 42.147C27.7646 42.4955 28.706 42.6609 29.6515 42.6329H34.4202C35.3822 42.6565 36.3388 42.4824 37.2308 42.1215C38.1228 41.7606 38.9313 41.2205 39.6062 40.5346L51.4564 28.6844L53.1494 30.3653L41.2276 42.2871C40.3243 43.1581 39.2581 43.8424 38.09 44.3006C36.9219 44.7589 35.6748 44.9821 34.4202 44.9576Z" fill="#404040"/>
</svg>
