<svg width="64" height="64" viewBox="0 0 64 64" fill="none" xmlns="http://www.w3.org/2000/svg">
<path d="M55.913 52.5652H47.2174V50.3913H54.8261V10.1739H9.17391V50.3913H17.8696V52.5652H8.08696C7.79868 52.5652 7.52222 52.4507 7.31838 52.2469C7.11453 52.043 7 51.7665 7 51.4783V9.08696C7 8.79868 7.11453 8.52221 7.31838 8.31836C7.52222 8.11452 7.79868 8 8.08696 8H55.913C56.2013 8 56.4778 8.11452 56.6817 8.31836C56.8855 8.52221 57 8.79868 57 9.08696V51.4783C57 51.7665 56.8855 52.043 56.6817 52.2469C56.4778 52.4507 56.2013 52.5652 55.913 52.5652Z" fill="#404040"/>
<path d="M53.739 14.5218H10.2607V16.6957H53.739V14.5218Z" fill="#404040"/>
<path d="M13.5221 11.2609H11.3481V13.4348H13.5221V11.2609Z" fill="#404040"/>
<path d="M16.7828 11.2609H14.6089V13.4348H16.7828V11.2609Z" fill="#404040"/>
<path d="M20.0435 11.2609H17.8696V13.4348H20.0435V11.2609Z" fill="#404040"/>
<path d="M32.0003 37.3478C30.7104 37.3478 29.4495 36.9653 28.377 36.2487C27.3045 35.5321 26.4686 34.5135 25.975 33.3219C25.4813 32.1302 25.3522 30.8189 25.6038 29.5538C25.8555 28.2887 26.4766 27.1266 27.3887 26.2145C28.3008 25.3024 29.4628 24.6813 30.7279 24.4297C31.993 24.178 33.3043 24.3072 34.496 24.8008C35.6877 25.2944 36.7063 26.1303 37.4229 27.2028C38.1395 28.2753 38.522 29.5362 38.522 30.8261C38.522 32.5558 37.8349 34.2146 36.6118 35.4377C35.3888 36.6607 33.7299 37.3478 32.0003 37.3478ZM32.0003 26.4783C31.1403 26.4783 30.2997 26.7333 29.5847 27.211C28.8697 27.6888 28.3125 28.3678 27.9834 29.1623C27.6543 29.9567 27.5682 30.8309 27.736 31.6743C27.9037 32.5177 28.3178 33.2924 28.9259 33.9005C29.5339 34.5085 30.3086 34.9226 31.152 35.0904C31.9954 35.2581 32.8696 35.172 33.6641 34.843C34.4586 34.5139 35.1376 33.9566 35.6154 33.2416C36.0931 32.5266 36.3481 31.686 36.3481 30.8261C36.3481 29.673 35.89 28.5671 35.0746 27.7517C34.2593 26.9363 33.1534 26.4783 32.0003 26.4783Z" fill="#FA4616"/>
<path d="M34.3808 42.663C33.4679 42.6665 32.5802 42.3642 31.8591 41.8043C31.3217 42.1977 30.6976 42.4561 30.0394 42.5576C29.3813 42.6592 28.7083 42.6009 28.0774 42.3878C27.4465 42.1746 26.876 41.8128 26.4143 41.3329C25.9525 40.853 25.613 40.2691 25.4243 39.6304V39.6304C24.7593 39.6306 24.104 39.471 23.5136 39.1651C22.9231 38.8592 22.4147 38.416 22.0312 37.8727C21.6477 37.3295 21.4003 36.702 21.3099 36.0432C21.2194 35.3844 21.2885 34.7135 21.5113 34.0869C20.9755 33.6951 20.5411 33.1808 20.2445 32.587C19.9478 31.9931 19.7975 31.337 19.806 30.6732C19.8145 30.0095 19.9816 29.3574 20.2934 28.7713C20.6052 28.1853 21.0525 27.6823 21.5982 27.3043C21.3976 26.6719 21.3507 26.0007 21.4614 25.3465C21.572 24.6922 21.8371 24.0738 22.2345 23.5425C22.6319 23.0112 23.1503 22.5823 23.7467 22.2913C24.343 22.0004 25.0001 21.8558 25.6635 21.8696C25.8705 21.2334 26.2273 20.6562 26.7041 20.1869C27.1808 19.7175 27.7634 19.3695 28.4027 19.1724C29.042 18.9753 29.7194 18.9347 30.3777 19.0542C31.0359 19.1736 31.6559 19.4495 32.1852 19.8587C32.7231 19.4701 33.3461 19.2157 34.0023 19.1168C34.6585 19.0179 35.3288 19.0772 35.9574 19.29C36.586 19.5027 37.1547 19.8626 37.6159 20.3397C38.0772 20.8168 38.4177 21.3972 38.6091 22.0326V22.0326C39.2742 22.0322 39.9297 22.192 40.52 22.4985C41.1103 22.805 41.6181 23.2492 42.0004 23.7935C42.3879 24.3343 42.6379 24.9613 42.7288 25.6203C42.8197 26.2793 42.7487 26.9506 42.5221 27.5761C43.0623 27.9661 43.5006 28.4805 43.8002 29.0756C44.0997 29.6707 44.2516 30.3292 44.2431 30.9954C44.2345 31.6616 44.0658 32.316 43.7512 32.9032C43.4365 33.4905 42.9851 33.9934 42.4352 34.3696C42.6419 35.0025 42.6925 35.676 42.5827 36.3328C42.473 36.9895 42.206 37.61 41.8047 38.1413C41.4107 38.677 40.8919 39.1085 40.2934 39.3983C39.6948 39.6881 39.0346 39.8275 38.37 39.8043C38.1658 40.4371 37.8123 41.0115 37.3393 41.4788C36.8663 41.9461 36.2878 42.2926 35.6526 42.4891C35.2405 42.6139 34.8113 42.6726 34.3808 42.663V42.663ZM31.9026 39.25C32.1893 39.2541 32.4628 39.3713 32.6635 39.5761L32.9678 39.8913C33.2263 40.1532 33.5524 40.3383 33.9098 40.4259C34.2673 40.5135 34.642 40.5003 34.9923 40.3876C35.3427 40.275 35.6549 40.0673 35.8943 39.7878C36.1337 39.5083 36.2908 39.1678 36.3482 38.8043L36.4243 38.3696C36.4483 38.2282 36.5001 38.093 36.5766 37.9718C36.6531 37.8505 36.7528 37.7456 36.87 37.663C36.9869 37.58 37.1192 37.5209 37.2591 37.4891C37.399 37.4574 37.5438 37.4537 37.6852 37.4783L38.1091 37.5543C38.4696 37.6186 38.8409 37.5815 39.1816 37.4472C39.5223 37.3129 39.819 37.0867 40.0388 36.7937C40.2585 36.5008 40.3926 36.1525 40.4261 35.7879C40.4597 35.4232 40.3913 35.0564 40.2287 34.7283L40.033 34.3369C39.9125 34.0742 39.8931 33.7761 39.9787 33.5C40.0246 33.3634 40.0973 33.2373 40.1925 33.1291C40.2877 33.0209 40.4034 32.9326 40.533 32.8696L40.9243 32.6739C41.2511 32.5132 41.5263 32.2639 41.7184 31.9546C41.9106 31.6452 42.012 31.2881 42.0113 30.9239C42.0143 30.555 41.9142 30.1925 41.7221 29.8775C41.53 29.5625 41.2537 29.3075 40.9243 29.1413L40.533 28.9348C40.2779 28.8007 40.0866 28.5708 40.0009 28.2956C39.9153 28.0204 39.9425 27.7225 40.0765 27.4674L40.283 27.0761C40.4527 26.7517 40.5296 26.3868 40.5052 26.0216C40.4809 25.6563 40.3562 25.3048 40.1449 25.0059C39.9336 24.707 39.6439 24.4721 39.3078 24.3272C38.9716 24.1824 38.6019 24.1331 38.2395 24.1848L37.8047 24.25C37.6626 24.2715 37.5176 24.2646 37.3782 24.2297C37.2387 24.1948 37.1076 24.1326 36.9923 24.0467C36.8771 23.9607 36.7801 23.8528 36.7068 23.7291C36.6336 23.6054 36.5856 23.4684 36.5656 23.3261L36.5113 22.8913C36.4532 22.5321 36.2972 22.196 36.0604 21.9197C35.8237 21.6435 35.5153 21.4379 35.1693 21.3255C34.8232 21.2132 34.4529 21.1984 34.099 21.2829C33.7452 21.3674 33.4214 21.5478 33.1635 21.8043L32.8482 22.1087C32.7517 22.2154 32.6318 22.2984 32.498 22.3512C32.3641 22.4039 32.2199 22.4251 32.0765 22.413C31.9327 22.4124 31.7904 22.3833 31.6579 22.3273C31.5255 22.2714 31.4054 22.1897 31.3048 22.0869L31.0004 21.7717C30.7419 21.5098 30.4158 21.3248 30.0584 21.2371C29.7009 21.1495 29.3262 21.1628 28.9758 21.2754C28.6255 21.3881 28.3133 21.5957 28.0739 21.8752C27.8345 22.1547 27.6774 22.4952 27.62 22.8587L27.5439 23.2935C27.5199 23.4348 27.4681 23.57 27.3916 23.6913C27.3152 23.8125 27.2154 23.9174 27.0982 24C26.983 24.0865 26.8509 24.1477 26.7104 24.1796C26.5699 24.2114 26.4242 24.2132 26.283 24.1848L25.8591 24.1087C25.494 24.035 25.1156 24.0653 24.7669 24.1961C24.4182 24.3269 24.1132 24.553 23.8866 24.8486C23.6601 25.1442 23.5211 25.4975 23.4855 25.8683C23.4499 26.239 23.5191 26.6123 23.6852 26.9456L23.8808 27.3369C24.0014 27.5997 24.0208 27.8977 23.9352 28.1739C23.8398 28.4457 23.6404 28.6686 23.3808 28.7935L22.9895 28.9891C22.6627 29.1499 22.3876 29.3991 22.1954 29.7085C22.0033 30.0178 21.9018 30.3749 21.9026 30.7391C21.8929 31.1093 21.9904 31.4745 22.1832 31.7907C22.376 32.1069 22.656 32.3607 22.9895 32.5217L23.3808 32.7283C23.5085 32.7946 23.6218 32.8857 23.714 32.9962C23.8062 33.1067 23.8756 33.2344 23.9181 33.372C23.9606 33.5095 23.9753 33.6541 23.9614 33.7973C23.9476 33.9406 23.9054 34.0797 23.8373 34.2065L23.6309 34.5869C23.4611 34.9113 23.3842 35.2762 23.4086 35.6415C23.433 36.0067 23.5577 36.3582 23.7689 36.6571C23.9802 36.9561 24.2699 37.1909 24.6061 37.3358C24.9423 37.4807 25.3119 37.53 25.6743 37.4783L26.1091 37.413C26.394 37.3727 26.6832 37.447 26.9135 37.6196C27.0298 37.7044 27.1282 37.8115 27.2028 37.9346C27.2775 38.0578 27.3269 38.1945 27.3482 38.3369V38.7717C27.3925 39.1536 27.5465 39.5145 27.7916 39.8107C28.0366 40.1068 28.3623 40.3257 28.7291 40.4407C29.0959 40.5557 29.4882 40.5619 29.8585 40.4586C30.2288 40.3553 30.5613 40.1469 30.8156 39.8587L31.12 39.5543C31.2237 39.4542 31.3463 39.3758 31.4807 39.3235C31.6151 39.2713 31.7585 39.2463 31.9026 39.25Z" fill="#FA4616"/>
<path d="M27.2178 56.5L24.9569 51.163L19.2178 51.8587L26.1308 39.8913L28.0221 40.9783L23.283 49.1848L26.3265 48.8152L27.5113 51.6304L31.533 44.6739L33.4135 45.7609L27.2178 56.5Z" fill="#FA4616"/>
<path d="M37.729 56.5L29.3159 41.9457L31.2072 40.8587L37.4246 51.6304L38.6203 48.8152L41.6638 49.1848L36.3594 40.0109L38.2398 38.9239L45.7181 51.8587L39.9898 51.163L37.729 56.5Z" fill="#FA4616"/>
</svg>
