<svg width="64" height="64" viewBox="0 0 64 64" fill="none" xmlns="http://www.w3.org/2000/svg">
<path d="M21.5849 32.9191H7V35.0026H21.5849V32.9191Z" fill="#404040"/>
<path d="M25.7519 26.6685H11.167V28.752H25.7519V26.6685Z" fill="#404040"/>
<path d="M25.7516 38.1279H12.2085V40.2115H25.7516V38.1279Z" fill="#404040"/>
<path d="M37.2118 53.7546C33.5502 53.766 29.958 52.7563 26.8387 50.8387C23.7194 48.9211 21.1966 46.1716 19.5537 42.8992L21.4081 41.9617C23.1894 45.4797 26.0939 48.3025 29.6612 49.9829C33.2285 51.6634 37.2546 52.1052 41.1015 51.2384C44.9483 50.3715 48.3958 48.2456 50.8976 45.1975C53.3995 42.1495 54.8125 38.3537 54.9127 34.4116C55.013 30.4696 53.7948 26.6069 51.4511 23.4356C49.1075 20.2643 45.7725 17.966 41.9747 16.9047C38.1769 15.8434 34.1336 16.0799 30.4854 17.5768C26.8373 19.0737 23.793 21.7454 21.8352 25.1683L20.0225 24.1265C21.7486 21.1072 24.2398 18.596 27.2452 16.8458C30.2505 15.0956 33.664 14.1681 37.1418 14.1568C40.6197 14.1455 44.0391 15.0507 47.0558 16.7813C50.0725 18.5119 52.58 21.0068 54.3257 24.0147C56.0715 27.0227 56.9938 30.4376 57 33.9154C57.0061 37.3933 56.0958 40.8114 54.3607 43.8255C52.6256 46.8396 50.127 49.3434 47.1164 51.0846C44.1059 52.8259 40.6897 53.7432 37.2118 53.7441V53.7546Z" fill="#404040"/>
<path d="M38.2535 11.0418H36.1699V15.2089H38.2535V11.0418Z" fill="#404040"/>
<path d="M40.3366 10H34.0859V12.0836H40.3366V10Z" fill="#404040"/>
<path d="M22.3263 15.5114L20.853 16.9847L23.9764 20.1081L25.4497 18.6348L22.3263 15.5114Z" fill="#404040"/>
<path d="M22.9355 13.4257L18.7661 17.5951L20.2394 19.0684L24.4088 14.899L22.9355 13.4257Z" fill="#404040"/>
<path d="M51.0575 15.5168L47.9341 18.6401L49.4074 20.1134L52.5307 16.9901L51.0575 15.5168Z" fill="#404040"/>
<path d="M50.4469 13.4297L48.9736 14.903L53.143 19.0724L54.6163 17.5991L50.4469 13.4297Z" fill="#404040"/>
<path d="M46.3478 25.4288C44.1763 23.1041 41.2003 21.6946 38.026 21.4875C34.8517 21.2804 31.7178 22.2912 29.2627 24.314L27.9292 22.6993C30.7941 20.3375 34.452 19.1573 38.157 19.3993C41.8621 19.6412 45.3354 21.2872 47.8688 24.0015L46.3478 25.4288Z" fill="#FA4616"/>
<path d="M37.2115 39.1697C36.3874 39.1697 35.5817 38.9253 34.8964 38.4675C34.2111 38.0096 33.677 37.3587 33.3616 36.5973C33.0462 35.8359 32.9637 34.9979 33.1245 34.1896C33.2853 33.3813 33.6822 32.6388 34.265 32.0561C34.8477 31.4733 35.5902 31.0764 36.3986 30.9156C37.2069 30.7548 38.0448 30.8373 38.8062 31.1526C39.5677 31.468 40.2185 32.0022 40.6764 32.6875C41.1343 33.3727 41.3786 34.1784 41.3786 35.0026C41.3786 36.1078 40.9396 37.1678 40.1581 37.9492C39.3766 38.7307 38.3167 39.1697 37.2115 39.1697ZM37.2115 32.919C36.7995 32.919 36.3966 33.0412 36.054 33.2702C35.7113 33.4991 35.4443 33.8245 35.2866 34.2052C35.1289 34.586 35.0876 35.0049 35.168 35.409C35.2484 35.8132 35.4469 36.1845 35.7382 36.4759C36.0296 36.7672 36.4009 36.9657 36.8051 37.0461C37.2092 37.1265 37.6282 37.0853 38.0089 36.9276C38.3896 36.7699 38.715 36.5029 38.9439 36.1602C39.1729 35.8176 39.2951 35.4147 39.2951 35.0026C39.2951 34.45 39.0756 33.9201 38.6848 33.5293C38.2941 33.1386 37.7641 32.919 37.2115 32.919Z" fill="#FA4616"/>
<path d="M34.0306 35.8665L30.3813 38.2994L31.5371 40.033L35.1864 37.6002L34.0306 35.8665Z" fill="#FA4616"/>
<path d="M49.1421 25.8036L39.2432 32.4029L40.3989 34.1365L50.2979 27.5372L49.1421 25.8036Z" fill="#FA4616"/>
</svg>
