<svg width="64" height="64" viewBox="0 0 64 64" fill="none" xmlns="http://www.w3.org/2000/svg">
<path d="M32.5814 12.6395H30.2559V17.2907H32.5814V12.6395Z" fill="#404040"/>
<path d="M31.4184 55.6745C28.1045 55.6745 25.6045 54.1745 25.6045 52.1861H27.9301C27.9301 52.4768 29.1743 53.3489 31.4184 53.3489C33.6626 53.3489 34.9068 52.4768 34.9068 52.1861H37.2324C37.2324 54.1628 34.7324 55.6745 31.4184 55.6745Z" fill="#404040"/>
<path d="M15.1395 21.9534H12.814C12.814 19.7947 13.6715 17.7244 15.198 16.198C16.7244 14.6715 18.7948 13.8139 20.9535 13.8139V16.1395C19.4115 16.1395 17.9328 16.752 16.8424 17.8424C15.7521 18.9327 15.1395 20.4115 15.1395 21.9534Z" fill="#FA4616"/>
<path d="M9.32558 21.9535H7C7 20.1211 7.36092 18.3067 8.06214 16.6138C8.76337 14.9208 9.79118 13.3826 11.0869 12.0869C12.3826 10.7912 13.9208 9.76338 15.6137 9.06215C17.3066 8.36093 19.1211 8 20.9535 8V10.3256C19.4265 10.3256 17.9144 10.6264 16.5037 11.2107C15.0929 11.7951 13.8111 12.6516 12.7313 13.7313C11.6516 14.8111 10.7951 16.093 10.2107 17.5037C9.62634 18.9145 9.32558 20.4265 9.32558 21.9535V21.9535Z" fill="#FA4616"/>
<path d="M51.1859 21.9534H48.8603C48.8603 20.4115 48.2478 18.9327 47.1575 17.8424C46.0671 16.752 44.5883 16.1395 43.0464 16.1395V13.8139C45.2051 13.8139 47.2755 14.6715 48.8019 16.198C50.3284 17.7244 51.1859 19.7947 51.1859 21.9534Z" fill="#FA4616"/>
<path d="M56.9999 21.9535H54.6743C54.6743 18.8696 53.4492 15.912 51.2686 13.7313C49.0879 11.5507 46.1303 10.3256 43.0464 10.3256V8C46.7471 8 50.2962 9.47016 52.913 12.0869C55.5298 14.7037 56.9999 18.2528 56.9999 21.9535V21.9535Z" fill="#FA4616"/>
<path d="M48.8603 51.0232H13.9766V47.1743L18.6277 40.1976V28.9302C18.6277 25.5379 19.9753 22.2845 22.374 19.8858C24.7728 17.4871 28.0261 16.1395 31.4184 16.1395C34.8107 16.1395 38.0641 17.4871 40.4628 19.8858C42.8615 22.2845 44.2091 25.5379 44.2091 28.9302V40.1976L48.8603 47.1743V51.0232ZM16.3021 48.6977H46.5347V47.8838L41.8835 40.907V28.9302C41.8835 26.1547 40.781 23.4928 38.8184 21.5302C36.8558 19.5676 34.1939 18.4651 31.4184 18.4651C28.6429 18.4651 25.9811 19.5676 24.0185 21.5302C22.0559 23.4928 20.9533 26.1547 20.9533 28.9302V40.907L16.3021 47.8838V48.6977Z" fill="#404040"/>
</svg>
