<svg width="64" height="64" viewBox="0 0 64 64" fill="none" xmlns="http://www.w3.org/2000/svg">
<path d="M53.8748 46.125H20.5415C19.7127 46.125 18.9178 45.7958 18.3318 45.2097C17.7457 44.6237 17.4165 43.8288 17.4165 43V38.8333H19.4998V43C19.4998 43.2763 19.6096 43.5413 19.8049 43.7366C20.0003 43.932 20.2652 44.0417 20.5415 44.0417H53.8748C54.1511 44.0417 54.4161 43.932 54.6114 43.7366C54.8068 43.5413 54.9165 43.2763 54.9165 43V21.125C54.9165 20.8487 54.8068 20.5838 54.6114 20.3884C54.4161 20.1931 54.1511 20.0833 53.8748 20.0833H20.5415C20.2652 20.0833 20.0003 20.1931 19.8049 20.3884C19.6096 20.5838 19.4998 20.8487 19.4998 21.125V27.375H17.4165V21.125C17.4165 20.2962 17.7457 19.5014 18.3318 18.9153C18.9178 18.3293 19.7127 18 20.5415 18H53.8748C54.7036 18 55.4985 18.3293 56.0845 18.9153C56.6706 19.5014 56.9998 20.2962 56.9998 21.125V43C56.9998 43.8288 56.6706 44.6237 56.0845 45.2097C55.4985 45.7958 54.7036 46.125 53.8748 46.125V46.125Z" fill="#404040"/>
<path d="M37.2083 36.25C35.2818 36.264 33.4281 35.515 32.0521 34.1667L20.8438 22.9583L22.3229 21.4896L33.5312 32.6771C34.5079 33.6535 35.8325 34.202 37.2135 34.202C38.5946 34.202 39.9191 33.6535 40.8958 32.6771L52.0937 21.4792L53.5729 22.9479L42.3646 34.1563C40.9902 35.5084 39.1363 36.2612 37.2083 36.25V36.25Z" fill="#404040"/>
<path d="M29.1724 32.896L20.8418 41.2266L22.3149 42.6997L30.6455 34.3691L29.1724 32.896Z" fill="#404040"/>
<path d="M45.2353 32.8998L43.7622 34.3729L52.0928 42.7035L53.5659 41.2304L45.2353 32.8998Z" fill="#404040"/>
<path d="M21.5832 26.3333H11.1665V28.4167H21.5832V26.3333Z" fill="#FA4616"/>
<path d="M18.4583 30.5H7V32.5833H18.4583V30.5Z" fill="#FA4616"/>
<path d="M22.6252 34.6667H12.2085V36.75H22.6252V34.6667Z" fill="#FA4616"/>
</svg>
