<svg width="64" height="64" viewBox="0 0 64 64" fill="none" xmlns="http://www.w3.org/2000/svg">
<path d="M30.3178 46.8629H10.3311C9.44765 46.8629 8.60037 46.512 7.97566 45.8873C7.35096 45.2626 7 44.4153 7 43.5318V13.5518C7 12.6683 7.35096 11.821 7.97566 11.1963C8.60037 10.5716 9.44765 10.2207 10.3311 10.2207H48.0837C48.9672 10.2207 49.8145 10.5716 50.4392 11.1963C51.0639 11.821 51.4148 12.6683 51.4148 13.5518V25.7659H49.1941V13.5518C49.1941 13.2573 49.0771 12.9748 48.8689 12.7666C48.6606 12.5584 48.3782 12.4414 48.0837 12.4414H10.3311C10.0366 12.4414 9.7542 12.5584 9.54596 12.7666C9.33773 12.9748 9.22074 13.2573 9.22074 13.5518V43.5318C9.22074 43.8263 9.33773 44.1088 9.54596 44.317C9.7542 44.5253 10.0366 44.6422 10.3311 44.6422H30.3178V46.8629Z" fill="#404040"/>
<path d="M43.6421 8H41.4214V14.6622H43.6421V8Z" fill="#404040"/>
<path d="M36.98 8H34.7593V14.6622H36.98V8Z" fill="#404040"/>
<path d="M30.3179 8H28.0972V14.6622H30.3179V8Z" fill="#404040"/>
<path d="M23.6553 8H21.4346V14.6622H23.6553V8Z" fill="#404040"/>
<path d="M16.9932 8H14.7725V14.6622H16.9932V8Z" fill="#404040"/>
<path d="M50.3044 20.2141H8.11035V22.4349H50.3044V20.2141Z" fill="#404040"/>
<path d="M44.7525 55.7459C42.2653 55.7459 40.311 54.2802 40.311 52.4148H42.5318C42.5318 52.8589 43.4201 53.5252 44.7525 53.5252C46.085 53.5252 46.9733 52.87 46.9733 52.4148H49.194C49.194 54.2802 47.2397 55.7459 44.7525 55.7459Z" fill="#FA4616"/>
<path d="M55.8564 51.3044H33.6489C33.3545 51.3044 33.072 51.1875 32.8638 50.9793C32.6556 50.771 32.5386 50.4885 32.5386 50.1941V46.8629C32.5382 46.6548 32.5962 46.4508 32.7062 46.2741C32.8161 46.0974 32.9735 45.9551 33.1604 45.8636C33.4057 45.7484 33.6579 45.6482 33.9154 45.5638C34.7038 45.2862 35.1257 45.1196 35.3256 44.4534C35.864 42.3821 36.0516 40.2354 35.8808 38.1021C35.8808 37.4026 35.8808 36.6365 35.8808 35.7815C35.8808 33.4256 36.8167 31.1661 38.4826 29.5003C40.1484 27.8344 42.4079 26.8985 44.7638 26.8985C47.1197 26.8985 49.3791 27.8344 51.045 29.5003C52.7108 31.1661 53.6467 33.4256 53.6467 35.7815C53.6467 36.6365 53.6467 37.4026 53.6467 38.1021C53.4789 40.236 53.6703 42.3829 54.213 44.4534C54.4129 45.1418 54.8348 45.3084 55.6121 45.5638C55.8739 45.6464 56.1299 45.7466 56.3782 45.8636C56.5651 45.9551 56.7225 46.0974 56.8324 46.2741C56.9424 46.4508 57.0005 46.6548 57 46.8629V50.1941C57.0001 50.3427 56.9703 50.4899 56.9124 50.6268C56.8546 50.7638 56.7698 50.8876 56.6631 50.9912C56.5565 51.0947 56.4301 51.1758 56.2915 51.2296C56.1529 51.2834 56.005 51.3089 55.8564 51.3044ZM34.7593 49.0837H54.746V47.6181C54.1142 47.4611 53.5338 47.1434 53.061 46.696C52.5882 46.2485 52.2392 45.6863 52.0478 45.0641C51.441 42.7776 51.2196 40.406 51.3927 38.0467C51.3927 37.3582 51.3927 36.6031 51.3927 35.7592C51.3927 33.9923 50.6908 32.2977 49.4414 31.0483C48.1919 29.7989 46.4974 29.097 44.7305 29.097C42.9635 29.097 41.269 29.7989 40.0195 31.0483C38.7701 32.2977 38.0682 33.9923 38.0682 35.7592C38.0682 36.6031 38.0682 37.3582 38.0682 38.0467C38.2447 40.4054 38.0271 42.777 37.4242 45.0641C37.2318 45.6858 36.8825 46.2474 36.4099 46.6947C35.9372 47.1421 35.3573 47.4601 34.726 47.6181L34.7593 49.0837Z" fill="#FA4616"/>
</svg>
