<svg width="64" height="64" viewBox="0 0 64 64" fill="none" xmlns="http://www.w3.org/2000/svg">
<path d="M31.4042 36.7872C30.5626 36.7872 29.7399 36.5376 29.0401 36.0701C28.3403 35.6025 27.7949 34.9379 27.4728 34.1604C27.1508 33.3828 27.0665 32.5272 27.2307 31.7018C27.3949 30.8763 27.8002 30.1181 28.3953 29.523C28.9904 28.9278 29.7486 28.5226 30.5741 28.3584C31.3995 28.1942 32.2551 28.2785 33.0327 28.6005C33.8102 28.9226 34.4748 29.468 34.9424 30.1678C35.41 30.8676 35.6596 31.6903 35.6596 32.5319C35.6596 33.6605 35.2112 34.7429 34.4132 35.5409C33.6152 36.3389 32.5328 36.7872 31.4042 36.7872ZM31.4042 30.4043C30.9834 30.4043 30.5721 30.5291 30.2222 30.7629C29.8723 30.9967 29.5996 31.329 29.4385 31.7177C29.2775 32.1065 29.2354 32.5343 29.3175 32.947C29.3996 33.3597 29.6022 33.7389 29.8998 34.0364C30.1973 34.334 30.5764 34.5366 30.9892 34.6187C31.4019 34.7008 31.8297 34.6587 32.2185 34.4976C32.6072 34.3366 32.9395 34.0639 33.1733 33.714C33.4071 33.3641 33.5319 32.9527 33.5319 32.5319C33.5319 31.9676 33.3077 31.4265 32.9087 31.0275C32.5097 30.6285 31.9685 30.4043 31.4042 30.4043Z" fill="#FA4616"/>
<path d="M34.2447 46.1808C34.0442 46.1803 33.8479 46.1231 33.6785 46.0158C33.5091 45.9085 33.3735 45.7555 33.2873 45.5745L32.1277 43.1383C31.4628 43.2074 30.7926 43.2074 30.1277 43.1383L28.8085 45.4575C28.6815 45.6919 28.4711 45.8702 28.2189 45.9569C27.9667 46.0436 27.6912 46.0324 27.4468 45.9255L24.0532 44.4149C23.8072 44.3068 23.6113 44.1096 23.5047 43.8629C23.3981 43.6162 23.3889 43.3384 23.4787 43.0851L24.383 40.5426C23.8801 40.1055 23.4206 39.621 23.0107 39.0958L20.4255 39.8617C20.1686 39.9385 19.8921 39.9154 19.6515 39.797C19.4108 39.6787 19.2237 39.4738 19.1277 39.2234L17.7979 35.7553C17.702 35.5059 17.7035 35.2296 17.8021 34.9812C17.9006 34.7329 18.089 34.5307 18.3298 34.4149L20.766 33.2553C20.7146 32.5921 20.7324 31.9254 20.8192 31.2659L18.4787 29.9575C18.2416 29.8303 18.0615 29.618 17.9747 29.3634C17.8878 29.1088 17.9007 28.8307 18.0107 28.5851L19.5213 25.1915C19.6294 24.9455 19.8266 24.7495 20.0733 24.643C20.32 24.5364 20.5979 24.5271 20.8511 24.617L23.3936 25.5213C23.8307 25.0185 24.3152 24.5588 24.8404 24.1489L24.0745 21.5638C23.9977 21.3069 24.0208 21.0304 24.1391 20.7897C24.2575 20.5491 24.4624 20.362 24.7128 20.266L28.1809 18.9362C28.4303 18.8403 28.7066 18.8418 28.955 18.9404C29.2033 19.0389 29.4055 19.2273 29.5213 19.4681L30.6809 21.9043C31.3424 21.8405 32.0086 21.8405 32.6702 21.9043L33.9575 19.5319C34.0846 19.2948 34.2969 19.1147 34.5515 19.0279C34.8062 18.941 35.0843 18.9539 35.3298 19.0639L38.7234 20.5745C38.9675 20.6845 39.1611 20.8826 39.2656 21.1291C39.3701 21.3755 39.3778 21.6523 39.2872 21.9043L38.3936 24.4468C38.8965 24.8839 39.356 25.3684 39.766 25.8936L42.3511 25.1277C42.608 25.0509 42.8845 25.0739 43.1252 25.1923C43.3658 25.3107 43.5529 25.5156 43.6489 25.766L44.9787 29.2341C45.0746 29.4835 45.0731 29.7598 44.9745 30.0082C44.876 30.2565 44.6876 30.4587 44.4468 30.5745L42.0106 31.734C42.0744 32.3992 42.0744 33.0689 42.0106 33.734L44.383 35.0213C44.6175 35.1483 44.7957 35.3587 44.8824 35.6109C44.9691 35.8631 44.9579 36.1386 44.8511 36.383L43.3404 39.7766C43.2323 40.0226 43.0351 40.2185 42.7884 40.3251C42.5417 40.4317 42.2639 40.441 42.0106 40.3511L39.4468 39.5319C39.0097 40.0348 38.5252 40.4943 38 40.9042L38.766 43.4893C38.8428 43.7463 38.8197 44.0228 38.7013 44.2634C38.583 44.5041 38.3781 44.6912 38.1277 44.7872L34.6596 46.117C34.5275 46.1681 34.386 46.1898 34.2447 46.1808V46.1808ZM32.766 40.9362C32.9665 40.9367 33.1628 40.9939 33.3322 41.1012C33.5016 41.2085 33.6372 41.3615 33.7234 41.5426L34.7872 43.7659L36.4149 43.149L35.7128 40.7766C35.6493 40.5601 35.6563 40.329 35.7328 40.1167C35.8093 39.9045 35.9513 39.722 36.1383 39.5957C36.9353 39.0646 37.6337 38.3986 38.2021 37.6277C38.3389 37.4455 38.5306 37.312 38.7489 37.2469C38.9672 37.1818 39.2007 37.1884 39.4149 37.266L41.7447 38.0851L42.4468 36.4894L40.3192 35.3191C40.1191 35.2099 39.9594 35.0393 39.8637 34.8324C39.7679 34.6256 39.7411 34.3935 39.7872 34.1702C39.9765 33.2349 40.0017 32.2737 39.8617 31.3298C39.84 31.1128 39.8855 30.8944 39.9921 30.7041C40.0986 30.5138 40.2611 30.3608 40.4574 30.2659L42.6808 29.2021L42.0532 27.5745L39.6915 28.2766C39.475 28.34 39.2439 28.333 39.0316 28.2565C38.8194 28.18 38.6369 28.0381 38.5106 27.8511C37.9795 27.0541 37.3135 26.3557 36.5426 25.7873C36.3604 25.6505 36.2269 25.4588 36.1618 25.2405C36.0966 25.0222 36.1033 24.7887 36.1809 24.5745L37 22.2447L35.4043 21.5426L34.2234 23.6703C34.1147 23.8683 33.9458 24.0265 33.7412 24.1222C33.5365 24.2178 33.3068 24.2458 33.0851 24.2022C32.1462 24.0128 31.1816 23.9876 30.2341 24.1277C30.017 24.1494 29.7986 24.1039 29.6083 23.9973C29.418 23.8908 29.2651 23.7283 29.1702 23.532L28.1064 21.3085L26.4787 21.9362L27.1809 24.2979C27.2433 24.5155 27.2346 24.7473 27.1562 24.9597C27.0777 25.1721 26.9336 25.3539 26.7447 25.4787C25.9523 26.0157 25.2549 26.6809 24.6809 27.4468C24.5448 27.6268 24.3549 27.7589 24.1388 27.8239C23.9227 27.8889 23.6916 27.8835 23.4787 27.8085L21.149 26.9894L20.4468 28.5851L22.5745 29.766C22.7745 29.8731 22.935 30.0413 23.0326 30.2461C23.1302 30.4509 23.1598 30.6815 23.117 30.9043C22.9278 31.8396 22.9026 32.8007 23.0426 33.7447C23.076 33.9701 23.0362 34.2004 22.9289 34.4015C22.8217 34.6026 22.6527 34.7639 22.4468 34.8617L20.2234 35.9255L20.8511 37.5532L23.2128 36.851C23.4304 36.7886 23.6623 36.7973 23.8746 36.8757C24.087 36.9542 24.2688 37.0984 24.3936 37.2873C24.9306 38.0796 25.5957 38.7771 26.3617 39.3511C26.5433 39.4954 26.6728 39.695 26.7304 39.9197C26.7881 40.1444 26.7706 40.3819 26.6809 40.5957L25.8617 42.9255L27.4575 43.6276L28.6277 41.5C28.7353 41.298 28.9053 41.1361 29.1122 41.0384C29.3192 40.9406 29.5522 40.9123 29.7766 40.9575C30.7119 41.1469 31.6731 41.1721 32.617 41.0319L32.766 40.9362Z" fill="#FA4616"/>
<path d="M43.1063 17.6383C42.0542 17.6383 41.0258 17.3263 40.1511 16.7419C39.2764 16.1574 38.5946 15.3267 38.192 14.3547C37.7894 13.3828 37.6841 12.3132 37.8893 11.2814C38.0946 10.2496 38.6012 9.30185 39.3451 8.55796C40.0889 7.81406 41.0367 7.30744 42.0686 7.1022C43.1004 6.89696 44.1699 7.00232 45.1418 7.40491C46.1138 7.80751 46.9445 8.48928 47.529 9.36401C48.1134 10.2387 48.4254 11.2671 48.4254 12.3191C48.4254 13.7299 47.865 15.0828 46.8675 16.0803C45.8699 17.0779 44.517 17.6383 43.1063 17.6383V17.6383ZM43.1063 9.12766C42.475 9.12766 41.858 9.31486 41.3332 9.66555C40.8083 10.0162 40.3993 10.5147 40.1577 11.0979C39.9162 11.681 39.853 12.3227 39.9761 12.9418C40.0992 13.5609 40.4032 14.1295 40.8495 14.5759C41.2959 15.0222 41.8645 15.3262 42.4836 15.4493C43.1027 15.5725 43.7444 15.5093 44.3276 15.2677C44.9107 15.0262 45.4092 14.6171 45.7599 14.0923C46.1106 13.5674 46.2977 12.9504 46.2977 12.3191C46.2977 11.4727 45.9615 10.661 45.363 10.0625C44.7645 9.46395 43.9527 9.12766 43.1063 9.12766V9.12766Z" fill="#404040"/>
<path d="M32.4685 17.6383H30.3408V12.3191C30.3408 12.037 30.4529 11.7664 30.6524 11.5669C30.8519 11.3674 31.1225 11.2553 31.4046 11.2553H38.8515V13.383H32.4685V17.6383Z" fill="#404040"/>
<path d="M49.4892 52.7446C49.3492 52.7455 49.2104 52.7186 49.0808 52.6657C48.9512 52.6127 48.8333 52.5348 48.7339 52.4362L43.4148 47.117C43.3151 47.0181 43.2359 46.9004 43.1819 46.7708C43.1279 46.6412 43.1001 46.5021 43.1001 46.3617C43.1001 46.2212 43.1279 46.0822 43.1819 45.9525C43.2359 45.8229 43.3151 45.7053 43.4148 45.6064L48.7339 40.2872C48.8328 40.1875 48.9505 40.1083 49.0801 40.0543C49.2097 40.0003 49.3488 39.9725 49.4892 39.9725C49.6297 39.9725 49.7687 40.0003 49.8984 40.0543C50.028 40.1083 50.1457 40.1875 50.2445 40.2872L55.5637 45.6064C55.6634 45.7053 55.7426 45.8229 55.7966 45.9525C55.8506 46.0822 55.8784 46.2212 55.8784 46.3617C55.8784 46.5021 55.8506 46.6412 55.7966 46.7708C55.7426 46.9004 55.6634 47.0181 55.5637 47.117L50.2445 52.4362C50.1451 52.5348 50.0273 52.6127 49.8977 52.6657C49.768 52.7186 49.6292 52.7455 49.4892 52.7446ZM45.6701 46.3617L49.4892 50.1808L53.3084 46.3617L49.4892 42.5426L45.6701 46.3617Z" fill="#404040"/>
<path d="M20.7659 57C20.5667 57.0006 20.3713 56.9454 20.202 56.8405L11.6914 51.5213C11.5381 51.4255 11.4117 51.2921 11.3242 51.1339C11.2368 50.9757 11.191 50.7978 11.1914 50.617C11.191 50.4362 11.2368 50.2583 11.3242 50.1001C11.4117 49.9419 11.5381 49.8086 11.6914 49.7128L20.202 44.3936C20.3632 44.2929 20.5485 44.2372 20.7385 44.2323C20.9285 44.2274 21.1163 44.2735 21.2825 44.3658C21.4487 44.4581 21.5871 44.5933 21.6833 44.7572C21.7795 44.9211 21.8301 45.1078 21.8297 45.2979V55.9362C21.8302 56.1275 21.7791 56.3155 21.6818 56.4803C21.5844 56.645 21.4444 56.7805 21.2765 56.8723C21.1197 56.957 20.9441 57.0009 20.7659 57V57ZM14.2659 50.617L19.702 54.0213V47.2234L14.2659 50.617Z" fill="#404040"/>
<path d="M17.5745 24.0213H9.06383C8.78168 24.0213 8.51109 23.9092 8.31159 23.7097C8.11208 23.5102 8 23.2396 8 22.9574V14.4468C8 14.1647 8.11208 13.8941 8.31159 13.6946C8.51109 13.4951 8.78168 13.383 9.06383 13.383H17.5745C17.8566 13.383 18.1272 13.4951 18.3267 13.6946C18.5262 13.8941 18.6383 14.1647 18.6383 14.4468V22.9574C18.6383 23.2396 18.5262 23.5102 18.3267 23.7097C18.1272 23.9092 17.8566 24.0213 17.5745 24.0213ZM10.1277 21.8936H16.5106V15.5106H10.1277V21.8936Z" fill="#404040"/>
<path d="M50.553 41.0425H48.4254V33.5957H45.2339V31.4681H49.4892C49.7713 31.4681 50.0419 31.5802 50.2414 31.7797C50.441 31.9792 50.553 32.2497 50.553 32.5319V41.0425Z" fill="#404040"/>
<path d="M17.5745 33.5957H13.3192C13.0371 33.5957 12.7665 33.4837 12.567 33.2842C12.3675 33.0847 12.2554 32.814 12.2554 32.5319V22.9574H14.383V31.4681H17.5745V33.5957Z" fill="#404040"/>
<path d="M31.4039 52.7447H20.7656V50.617H30.3401V47.4255H32.4677V51.6808C32.4677 51.963 32.3557 52.2336 32.1562 52.4331C31.9566 52.6326 31.6861 52.7447 31.4039 52.7447Z" fill="#404040"/>
</svg>
