<svg width="64" height="64" viewBox="0 0 64 64" fill="none" xmlns="http://www.w3.org/2000/svg">
<path d="M16.3191 49.5532H14.1914V46.3617C14.1914 45.5153 14.5277 44.7035 15.1262 44.105C15.7247 43.5065 16.5365 43.1702 17.3829 43.1702H21.6382V45.2979H17.3829C17.1008 45.2979 16.8302 45.4099 16.6307 45.6094C16.4311 45.8089 16.3191 46.0796 16.3191 46.3617V49.5532Z" fill="#404040"/>
<path d="M38.6597 49.5532H36.532V46.3617C36.532 46.0796 36.42 45.8089 36.2205 45.6094C36.0209 45.4099 35.7504 45.2979 35.4682 45.2979H31.2129V43.1702H35.4682C36.3146 43.1702 37.1264 43.5065 37.7249 44.105C38.3235 44.7035 38.6597 45.5153 38.6597 46.3617V49.5532Z" fill="#404040"/>
<path d="M41.8511 57H11V51.6809C11 50.8344 11.3362 50.0226 11.9348 49.4241C12.5333 48.8256 13.3451 48.4894 14.1915 48.4894H23.766V50.617H14.1915C13.9093 50.617 13.6388 50.7291 13.4392 50.9286C13.2397 51.1281 13.1277 51.3987 13.1277 51.6809V54.8724H39.7234V51.6809C39.7234 51.3987 39.6113 51.1281 39.4118 50.9286C39.2123 50.7291 38.9417 50.617 38.6596 50.617H33.3404V48.4894H38.6596C39.506 48.4894 40.3178 48.8256 40.9163 49.4241C41.5148 50.0226 41.8511 50.8344 41.8511 51.6809V57Z" fill="#404040"/>
<path d="M35.4681 44.2234H33.3404V38.4574L36.0851 35.7127L30.1489 29.766V24.0106H32.2766V28.8829L39.0957 35.7127L35.4681 39.3404V44.2234Z" fill="#404040"/>
<path d="M37.5959 28.7128L33.9576 25.0851H29.0853C26.4682 25.0851 23.7661 23.4894 23.7661 20.8298V19.766H25.8938V20.8298C25.8938 22.1383 27.5533 22.9574 29.0853 22.9574H34.8406L37.5853 25.7021L39.7129 23.5744V21.2978L32.5746 14.1702L34.0853 12.6596L41.8406 20.4149V24.4468L37.5959 28.7128Z" fill="#404040"/>
<path d="M19.5106 44.234H17.3829V34.032L14.1914 30.8405V20.8298C14.1914 11.8404 21.8616 7 29.085 7C32.4735 7.10512 35.7302 8.33667 38.3403 10.5L39.1063 11.2447L35.1595 15.2021L33.6489 13.6915L36.0106 11.3298C33.9331 10.0053 31.5459 9.24622 29.085 9.12766C22.8935 9.12766 16.3191 13.2234 16.3191 20.8298V29.9574L19.5106 33.1489V44.234Z" fill="#404040"/>
<path d="M47.2444 40.851L46.0635 39.0851C46.7294 38.6405 47.2862 38.0512 47.6926 37.3613C48.0989 36.6715 48.3443 35.8988 48.4105 35.1009C48.4766 34.303 48.3618 33.5005 48.0745 32.7532C47.7873 32.0058 47.335 31.333 46.7515 30.7848C46.168 30.2367 45.4682 29.8273 44.7044 29.5873C43.9406 29.3472 43.1325 29.2826 42.3403 29.3984C41.548 29.5142 40.7922 29.8073 40.129 30.2559C39.4659 30.7045 38.9126 31.297 38.5103 31.9893L36.6699 30.9255C37.2315 29.9542 38.0053 29.1223 38.9335 28.492C39.8617 27.8617 40.9204 27.4494 42.0303 27.2857C43.1403 27.122 44.2729 27.2112 45.3435 27.5467C46.4142 27.8822 47.3952 28.4553 48.2132 29.2231C49.0313 29.991 49.6653 30.9339 50.0678 31.9811C50.4703 33.0284 50.631 34.1531 50.5379 35.2712C50.4447 36.3893 50.1001 37.4718 49.5298 38.438C48.9595 39.4042 48.1782 40.2291 47.2444 40.851V40.851Z" fill="#FA4616"/>
<path d="M49.2978 45.2979H39.7234V43.1702H49.2978V41.0425H37.5957V38.9149H49.2978C49.8621 38.9149 50.4033 39.1391 50.8023 39.5381C51.2013 39.9371 51.4255 40.4783 51.4255 41.0425V43.1702C51.4255 43.7345 51.2013 44.2756 50.8023 44.6747C50.4033 45.0737 49.8621 45.2979 49.2978 45.2979Z" fill="#FA4616"/>
<path d="M52.4895 57H42.915V54.8723H50.3618V53.8085C50.3618 53.5263 50.2498 53.2557 50.0503 53.0562C49.8508 52.8567 49.5802 52.7447 49.298 52.7447H45.0427V50.617H49.298C50.1445 50.617 50.9562 50.9532 51.5547 51.5518C52.1533 52.1503 52.4895 52.9621 52.4895 53.8085V57Z" fill="#FA4616"/>
<path d="M49.2981 44.2234H47.1704V51.6702H49.2981V44.2234Z" fill="#FA4616"/>
<path d="M19.5105 22.9575H17.3828V20.8298C17.3828 18.0083 18.5036 15.3025 20.4987 13.3074C22.4938 11.3123 25.1997 10.1915 28.0211 10.1915V12.3192C25.7639 12.3192 23.5992 13.2158 22.0032 14.8119C20.4071 16.4079 19.5105 18.5726 19.5105 20.8298V22.9575Z" fill="#404040"/>
</svg>
