<svg width="64" height="64" viewBox="0 0 64 64" fill="none" xmlns="http://www.w3.org/2000/svg">
<path d="M32.0003 40.2083C31.7692 40.2182 31.5414 40.1509 31.3528 40.017C31.1642 39.8831 31.0255 39.6902 30.9587 39.4688C29.8934 36.4147 28.292 33.575 26.2295 31.0833C23.8128 27.8229 21.542 24.75 21.542 20.4167C21.542 17.654 22.6395 15.0045 24.593 13.051C26.5465 11.0975 29.196 10 31.9587 10C34.7213 10 37.3708 11.0975 39.3243 13.051C41.2779 15.0045 42.3753 17.654 42.3753 20.4167C42.3753 24.75 40.1045 27.8229 37.6982 31.0833C35.6324 33.5745 34.0274 36.4141 32.9587 39.4688C32.8959 39.6765 32.7698 39.8595 32.598 39.992C32.4261 40.1246 32.2172 40.2003 32.0003 40.2083ZM32.0003 12.0833C29.8157 12.1634 27.7423 13.0671 26.1965 14.6129C24.6508 16.1587 23.7471 18.2321 23.667 20.4167C23.667 24.0625 25.6462 26.7396 27.9482 29.8437C29.5107 31.8376 30.8683 33.9839 32.0003 36.25C33.1319 33.9813 34.4932 31.8347 36.0628 29.8437C38.3545 26.7187 40.3337 24.0625 40.3337 20.4167C40.2536 18.2321 39.3499 16.1587 37.8041 14.6129C36.2583 13.0671 34.1849 12.1634 32.0003 12.0833V12.0833Z" fill="#FA4616"/>
<path d="M32.0109 24.5521C31.1868 24.5521 30.3812 24.3077 29.696 23.8499C29.0108 23.392 28.4768 22.7413 28.1614 21.9799C27.846 21.2186 27.7635 20.3808 27.9243 19.5725C28.0851 18.7643 28.4819 18.0219 29.0646 17.4391C29.6473 16.8564 30.3898 16.4596 31.198 16.2988C32.0063 16.138 32.8441 16.2206 33.6054 16.5359C34.3668 16.8513 35.0175 17.3853 35.4754 18.0705C35.9332 18.7557 36.1776 19.5613 36.1776 20.3854C36.1776 21.4905 35.7386 22.5503 34.9572 23.3317C34.1758 24.1131 33.116 24.5521 32.0109 24.5521ZM32.0109 18.3021C31.5989 18.3021 31.1961 18.4243 30.8535 18.6532C30.5109 18.8821 30.2438 19.2075 30.0862 19.5881C29.9285 19.9688 29.8872 20.3877 29.9676 20.7918C30.048 21.196 30.2464 21.5672 30.5378 21.8586C30.8291 22.1499 31.2003 22.3483 31.6045 22.4287C32.0086 22.5091 32.4275 22.4678 32.8082 22.3102C33.1888 22.1525 33.5142 21.8855 33.7431 21.5429C33.9721 21.2003 34.0942 20.7975 34.0942 20.3854C34.086 19.8383 33.8629 19.3164 33.4731 18.9324C33.0833 18.5485 32.5581 18.3333 32.0109 18.3333V18.3021Z" fill="#FA4616"/>
<path d="M55.9583 53.75H8.04167C7.7654 53.75 7.50045 53.6403 7.3051 53.4449C7.10975 53.2496 7 52.9846 7 52.7083V20.4167C7 20.1404 7.10975 19.8755 7.3051 19.6801C7.50045 19.4848 7.7654 19.375 8.04167 19.375H20.5417V21.4583H9.08333V51.6667H54.9167V21.4583H43.4583V19.375H55.9583C56.2346 19.375 56.4996 19.4848 56.6949 19.6801C56.8903 19.8755 57 20.1404 57 20.4167V52.7083C57 52.9846 56.8903 53.2496 56.6949 53.4449C56.4996 53.6403 56.2346 53.75 55.9583 53.75Z" fill="#404040"/>
<path d="M55.958 25.625H43.458V27.7083H55.958V25.625Z" fill="#404040"/>
<path d="M20.5415 25.625H8.0415V27.7083H20.5415V25.625Z" fill="#404040"/>
<path d="M13.2498 22.5H11.1665V24.5833H13.2498V22.5Z" fill="#404040"/>
<path d="M17.4168 22.5H15.3335V24.5833H17.4168V22.5Z" fill="#404040"/>
<path d="M31.9997 45.4167C26.0622 45.4167 21.583 43.1771 21.583 40.2083C21.583 38.0625 23.833 36.2917 27.6143 35.4583L28.0622 37.4896C25.1768 38.125 23.6663 39.3438 23.6663 40.2083C23.6663 41.4792 26.9163 43.3333 31.9997 43.3333C37.083 43.3333 40.333 41.4792 40.333 40.2083C40.333 39.3438 38.8226 38.125 35.9476 37.4896L36.3955 35.4583C40.1663 36.2917 42.4163 38.0625 42.4163 40.2083C42.4163 43.1771 37.9372 45.4167 31.9997 45.4167Z" fill="#FA4616"/>
</svg>
