<svg width="64" height="64" viewBox="0 0 64 64" fill="none" xmlns="http://www.w3.org/2000/svg">
<path d="M34.049 47.912H29.5676L27.7818 45.9897L27.8728 44.2267L27.4406 43.7149L27.2359 43.6353L27.1335 43.6921C26.997 43.6921 26.8377 43.8286 26.6558 43.8855L25.1657 45.603H22.5724L18.2388 41.2694V38.6761L19.9563 37.1975L20.0587 36.8335L20.127 36.5832C20.0855 36.4718 20.0513 36.3578 20.0246 36.242L19.7971 36.06L19.581 35.8894H17.6815L15.8389 34.0695V29.5767L17.7384 27.7796L19.5355 27.8592L20.0473 27.4952C20.0473 27.4156 20.1042 27.336 20.127 27.2677C20.1314 27.2223 20.1314 27.1766 20.127 27.1312C20.0701 26.9947 20.0018 26.8355 19.945 26.6535L18.2616 25.209V22.6043L22.5952 18.2707H25.1657L26.6103 19.9427L26.9742 20.0451L27.2131 20.1133L27.5316 20.0337L27.7136 19.7948L27.8842 19.5788V17.7134L29.7041 15.8708H34.2538L36.0509 17.7589L35.9713 19.6015L36.3352 20.1133L36.5968 20.2044H36.7447C36.8812 20.1475 37.0404 20.0792 37.2224 20.0223L38.7011 18.2935H41.3058L45.6394 22.6271V25.2317L43.9219 26.7104C43.9219 26.8355 43.8422 26.9493 43.8081 27.0744C43.774 27.1995 43.7512 27.2222 43.7285 27.3019C43.7656 27.3973 43.7923 27.4965 43.8081 27.5976L44.0583 27.7796L44.2745 27.9616H46.1171L47.9597 29.7814V34.2629L46.0602 36.0487L44.2517 35.969L43.7399 36.333C43.7399 36.4126 43.683 36.4809 43.6489 36.5491L43.7171 36.697C43.774 36.8335 43.8422 36.9927 43.8991 37.1747L45.6735 38.7102V41.3035L41.3399 45.6371H38.7466L37.211 43.8741L36.8471 43.7717L36.54 43.7149L36.2215 43.7945L36.0509 44.022L35.8689 44.2494V46.1262L34.049 47.912ZM30.5685 45.6371H33.1163L33.5827 45.1594V43.4647L33.8102 43.1462L34.2538 42.5775L34.6518 42.0542L34.8907 41.7472L35.2661 41.6448L35.5618 41.5765C35.702 41.5482 35.8391 41.5063 35.9713 41.4514L36.2784 41.3035H36.631C36.8997 41.3533 37.1655 41.4178 37.4272 41.4969C37.5951 41.5519 37.766 41.5975 37.939 41.6334H38.3485L39.7134 43.2144H40.3276L43.3304 40.223V39.5974L41.7494 38.2325L41.6925 37.823C41.6538 37.6903 41.6044 37.5609 41.5446 37.4363C41.4101 37.1389 41.3145 36.8254 41.2603 36.5036L41.2034 36.1624L41.3513 35.8439C41.4558 35.6287 41.5395 35.4039 41.6015 35.1728L41.7153 34.7861L43.501 33.5008L45.1275 33.5805L45.6166 33.1255V30.5777L45.1503 30.1113H43.4669L43.1484 29.8725L42.5797 29.4288L42.0451 29.008L41.738 28.7691L41.5674 28.1208C41.5477 27.9799 41.5094 27.8422 41.4536 27.7113L41.2944 27.3815L41.374 27.0175C41.4243 26.7467 41.4966 26.4804 41.5901 26.2213C41.5901 26.0621 41.6925 25.9028 41.738 25.7208L41.8062 25.3341L43.3076 24.0489V23.4346L40.3048 20.4319H39.6906L38.3599 22.1038H37.9504C37.8139 22.1422 37.6807 22.1916 37.5523 22.2517C37.2555 22.3879 36.9418 22.4835 36.6196 22.5361H36.2784L35.9599 22.3882C35.7303 22.2744 35.4904 22.183 35.2433 22.1152L34.868 22.0014L33.594 20.2271L33.6623 18.5665L33.2073 18.0774H30.6367L30.1704 18.5437V20.2384L29.9315 20.557L29.4993 21.1143L29.1012 21.6488L28.8624 21.9673L28.4756 22.0697L28.1799 22.138C28.0438 22.1629 27.9105 22.201 27.7818 22.2517L27.4633 22.3996L27.1221 22.3427C26.8519 22.2997 26.5857 22.235 26.3259 22.1493C26.1588 22.0945 25.9877 22.0527 25.8141 22.0242L25.4046 21.956L24.1307 20.4659H23.5051L20.5137 23.4688V24.0829L21.9923 25.3568L22.0606 25.7663C22.0959 25.9023 22.1416 26.0354 22.1971 26.1644C22.3361 26.4571 22.4355 26.7669 22.4928 27.0858V27.427L22.3449 27.7455C22.2435 27.9659 22.1598 28.1941 22.0947 28.4279L21.9923 28.8033L20.1952 30.1L18.5801 30.0203L18.091 30.4866V33.0458L18.5573 33.5122H20.2862L20.5933 33.7397L21.1506 34.1719L21.6738 34.57L21.9923 34.8088L22.1743 35.4799C22.1994 35.632 22.2413 35.7808 22.2994 35.9236L22.4473 36.2306V36.5832C22.4473 36.8789 22.3222 37.1292 22.2539 37.3794C22.1965 37.5466 22.1509 37.7177 22.1174 37.8913L22.0492 38.3121L20.525 39.6202V40.3026L23.5165 43.294H24.1421L25.4387 41.7812L25.8368 41.713C25.9619 41.6736 26.0836 41.6241 26.2008 41.5651C26.488 41.4175 26.7942 41.3104 27.1107 41.2467L27.4747 41.1784L27.8046 41.3376C28.0206 41.4402 28.2452 41.524 28.4756 41.5879L28.851 41.6902L30.1704 43.4988L30.0794 45.0912L30.5685 45.6371Z" fill="#FA4616"/>
<path d="M31.9224 37.641C31.175 37.6424 30.4348 37.4964 29.7439 37.2114C29.053 36.9265 28.425 36.5082 27.8959 35.9804V35.9804C26.9644 35.0513 26.3839 33.828 26.2532 32.5189C26.1225 31.2098 26.4498 29.8958 27.1792 28.8009C27.9086 27.706 28.995 26.8979 30.2534 26.5141C31.5118 26.1304 32.8644 26.1948 34.0806 26.6964C35.2968 27.1981 36.3015 28.1058 36.9236 29.2651C37.5456 30.4244 37.7464 31.7634 37.4919 33.0542C37.2374 34.3449 36.5432 35.5076 35.5277 36.3439C34.5121 37.1803 33.238 37.6387 31.9224 37.641ZM29.5111 34.3653C29.9881 34.8429 30.5961 35.1684 31.2581 35.3004C31.9202 35.4324 32.6065 35.365 33.2302 35.1069C33.854 34.8487 34.3872 34.4114 34.7623 33.8501C35.1374 33.2889 35.3377 32.629 35.3377 31.9539C35.3377 31.2788 35.1374 30.619 34.7623 30.0578C34.3872 29.4965 33.854 29.0591 33.2302 28.801C32.6065 28.5429 31.9202 28.4755 31.2581 28.6075C30.5961 28.7395 29.9881 29.0649 29.5111 29.5426C28.8721 30.1824 28.5131 31.0497 28.5131 31.9539C28.5131 32.8582 28.8721 33.7255 29.5111 34.3653V34.3653Z" fill="#FA4616"/>
<path d="M12.5859 52.4275H10.311V44.4655H18.273V46.7404H12.5859V52.4275Z" fill="#404040"/>
<path d="M9.12849 42.1225C6.77645 36.7904 6.35927 30.8046 7.9489 25.1978C9.53852 19.591 13.0353 14.7149 17.8359 11.4107C22.6364 8.10648 28.4397 6.58151 34.2445 7.09881C40.0493 7.61612 45.4915 10.1433 49.6321 14.2443L52.7032 17.3153L51.0994 18.9305L48.0284 15.848C44.2654 12.1191 39.3189 9.82052 34.0424 9.34867C28.7658 8.87682 23.49 10.2613 19.1251 13.2634C14.7602 16.2654 11.5799 20.6968 10.1328 25.7929C8.68578 30.8891 9.06271 36.3305 11.1986 41.1785L9.12849 42.1225Z" fill="#404040"/>
<path d="M31.9905 57C28.7001 57.0041 25.4413 56.3592 22.4005 55.1022C19.3597 53.8453 16.5966 52.0011 14.2694 49.675L11.187 46.5926L12.8022 44.9888L15.8732 48.0598C19.6361 51.7846 24.5805 54.08 29.8542 54.5507C35.1279 55.0214 40.4006 53.6379 44.7637 50.6384C49.1268 47.639 52.307 43.2115 53.7562 38.1191C55.2054 33.0266 54.833 27.5881 52.703 22.7408L54.7731 21.7967C56.466 25.5982 57.1842 29.7619 56.8626 33.9109C56.541 38.0598 55.1898 42.063 52.9312 45.5582C50.6726 49.0534 47.578 51.93 43.9275 53.9279C40.2771 55.9257 36.186 56.9816 32.0246 57H31.9905Z" fill="#404040"/>
<path d="M53.5333 19.4422H45.5713V17.1674H51.2584V11.4803H53.5333V19.4422Z" fill="#404040"/>
</svg>
