<svg width="64" height="64" viewBox="0 0 64 64" fill="none" xmlns="http://www.w3.org/2000/svg">
<path d="M54.9239 57H9.04275C8.7662 57 8.50097 56.8902 8.30541 56.6946C8.10986 56.499 8 56.2338 8 55.9573V24.6747C8 24.3981 8.10986 24.1329 8.30541 23.9373C8.50097 23.7418 8.7662 23.6319 9.04275 23.6319H29.8978V25.7174H10.0855V54.9145H53.8811V25.7174H44.4963V23.6319H54.9239C55.2004 23.6319 55.4656 23.7418 55.6612 23.9373C55.8568 24.1329 55.9666 24.3981 55.9666 24.6747V55.9573C55.9666 56.2338 55.8568 56.499 55.6612 56.6946C55.4656 56.8902 55.2004 57 54.9239 57Z" fill="#404040"/>
<path d="M29.8975 29.8884H11.1279V31.9739H29.8975V29.8884Z" fill="#404040"/>
<path d="M52.8381 29.8884H44.4961V31.9739H52.8381V29.8884Z" fill="#404040"/>
<path d="M14.2564 26.7602H12.1709V28.8457H14.2564V26.7602Z" fill="#404040"/>
<path d="M17.3848 26.7602H15.2993V28.8457H17.3848V26.7602Z" fill="#404040"/>
<path d="M20.5132 26.7602H18.4277V28.8457H20.5132V26.7602Z" fill="#404040"/>
<path d="M34.0688 44.487H31.9833V21.5464H27.8123C27.618 21.5477 27.4271 21.4948 27.2613 21.3934C27.0955 21.2921 26.9613 21.1464 26.8738 20.9729C26.7976 20.8053 26.7671 20.6206 26.7854 20.4374C26.8038 20.2543 26.8702 20.0793 26.9781 19.9301L36.3629 7.4171C36.46 7.2876 36.5859 7.18248 36.7307 7.11008C36.8755 7.03769 37.0352 7 37.1971 7C37.359 7 37.5186 7.03769 37.6634 7.11008C37.8082 7.18248 37.9341 7.2876 38.0313 7.4171L47.416 19.9301C47.5322 20.0851 47.603 20.2693 47.6204 20.4621C47.6378 20.655 47.6011 20.8489 47.5145 21.0221C47.4279 21.1953 47.2948 21.341 47.1301 21.4428C46.9653 21.5446 46.7755 21.5985 46.5818 21.5985H42.4108V34.1116H40.3253V20.5558C40.3253 20.2792 40.4352 20.014 40.6307 19.8184C40.8263 19.6229 41.0915 19.513 41.3681 19.513H44.4963L37.1971 9.78415L29.8978 19.513H33.0261C33.3026 19.513 33.5678 19.6229 33.7634 19.8184C33.959 20.014 34.0688 20.2792 34.0688 20.5558V44.487Z" fill="#FA4616"/>
<path d="M29.898 34.0594H27.8125V46.5725H29.898V34.0594Z" fill="#404040"/>
<path d="M34.0689 46.5724H31.9834V48.658H34.0689V46.5724Z" fill="#FA4616"/>
<path d="M34.0689 50.7435H31.9834V52.829H34.0689V50.7435Z" fill="#FA4616"/>
<path d="M42.4112 36.1449H40.3257V41.3587H42.4112V36.1449Z" fill="#FA4616"/>
<path d="M42.4112 43.4442H40.3257V45.5297H42.4112V43.4442Z" fill="#FA4616"/>
<path d="M46.5816 38.2304H44.4961V50.7435H46.5816V38.2304Z" fill="#404040"/>
</svg>
