<svg width="64" height="64" viewBox="0 0 64 64" fill="none" xmlns="http://www.w3.org/2000/svg">
<path d="M55.913 54.5652H8.08696C7.79868 54.5652 7.52221 54.4507 7.31836 54.2469C7.11452 54.043 7 53.7665 7 53.4783V11.087C7 10.7987 7.11452 10.5222 7.31836 10.3184C7.52221 10.1145 7.79868 10 8.08696 10H55.913C56.2013 10 56.4778 10.1145 56.6816 10.3184C56.8855 10.5222 57 10.7987 57 11.087V53.4783C57 53.7665 56.8855 54.043 56.6816 54.2469C56.4778 54.4507 56.2013 54.5652 55.913 54.5652ZM9.17391 52.3913H54.8261V12.1739H9.17391V52.3913Z" fill="#404040"/>
<path d="M53.7395 16.5217H10.2612V18.6956H53.7395V16.5217Z" fill="#404040"/>
<path d="M13.5216 13.2609H11.3477V15.4348H13.5216V13.2609Z" fill="#404040"/>
<path d="M16.7828 13.2609H14.6089V15.4348H16.7828V13.2609Z" fill="#404040"/>
<path d="M20.0435 13.2609H17.8696V15.4348H20.0435V13.2609Z" fill="#404040"/>
<path d="M34.1742 44.7826H29.8263C29.5381 44.7826 29.2616 44.6681 29.0578 44.4642C28.8539 44.2604 28.7394 43.9839 28.7394 43.6956V42.6087C28.7394 42.0652 27.9894 41.2935 27.4894 40.7826C26.5491 39.8821 25.8999 38.7209 25.6253 37.4483C25.3506 36.1757 25.4632 34.85 25.9483 33.642C26.4335 32.4339 27.2692 31.3986 28.3477 30.6695C29.4263 29.9404 30.6984 29.5508 32.0003 29.5508C33.3021 29.5508 34.5742 29.9404 35.6528 30.6695C36.7313 31.3986 37.567 32.4339 38.0522 33.642C38.5373 34.85 38.6499 36.1757 38.3752 37.4483C38.1006 38.7209 37.4514 39.8821 36.5111 40.7826C36.0111 41.2935 35.2611 42.0652 35.2611 42.6087V43.6956C35.2611 43.9839 35.1466 44.2604 34.9428 44.4642C34.7389 44.6681 34.4625 44.7826 34.1742 44.7826ZM30.9133 42.6087H33.0872C33.256 41.291 33.9302 40.0906 34.9676 39.2609C35.3998 38.8521 35.7448 38.3603 35.982 37.8149C36.2192 37.2695 36.3438 36.6817 36.3481 36.0869C36.3504 35.3644 36.1726 34.6527 35.8308 34.0162C35.489 33.3796 34.994 32.8383 34.3904 32.4411C33.7869 32.0439 33.0939 31.8034 32.374 31.7413C31.6542 31.6792 30.9302 31.7974 30.2676 32.0854C29.6049 32.3733 29.0244 32.8218 28.5787 33.3904C28.1329 33.959 27.8358 34.6298 27.7143 35.342C27.5929 36.0542 27.6508 36.7855 27.8829 37.4697C28.115 38.154 28.514 38.7695 29.0437 39.2609C30.0701 40.0983 30.7387 41.2955 30.9133 42.6087Z" fill="#404040"/>
<path d="M32 27.3913C31.7118 27.3913 31.4353 27.2768 31.2314 27.0729C31.0276 26.8691 30.9131 26.5926 30.9131 26.3044V21.9565C30.9131 21.6682 31.0276 21.3918 31.2314 21.1879C31.4353 20.9841 31.7118 20.8696 32 20.8696C32.2883 20.8696 32.5648 20.9841 32.7686 21.1879C32.9725 21.3918 33.087 21.6682 33.087 21.9565V26.3044C33.087 26.5926 32.9725 26.8691 32.7686 27.0729C32.5648 27.2768 32.2883 27.3913 32 27.3913Z" fill="#FA4616"/>
<path d="M23.5218 32.2826C23.3298 32.2845 23.1413 32.2317 22.9783 32.1304L19.2174 29.9565C19.0875 29.8885 18.9727 29.795 18.8799 29.6815C18.7871 29.5681 18.7182 29.437 18.6773 29.2962C18.6365 29.1554 18.6245 29.0078 18.6422 28.8623C18.6599 28.7168 18.7068 28.5763 18.7802 28.4494C18.8535 28.3225 18.9518 28.2117 19.0691 28.1238C19.1864 28.0358 19.3202 27.9725 19.4626 27.9376C19.605 27.9027 19.753 27.897 19.8976 27.9208C20.0423 27.9446 20.1806 27.9974 20.3044 28.0761L24.0652 30.25C24.2746 30.3686 24.4387 30.5534 24.5318 30.7754C24.6248 30.9973 24.6416 31.2439 24.5794 31.4764C24.5173 31.7089 24.3797 31.9142 24.1883 32.0601C23.9969 32.206 23.7624 32.2843 23.5218 32.2826V32.2826Z" fill="#FA4616"/>
<path d="M19.7606 44.2391C19.5199 44.2408 19.2855 44.1626 19.0941 44.0167C18.9027 43.8708 18.7651 43.6655 18.7029 43.433C18.6407 43.2005 18.6575 42.9539 18.7506 42.7319C18.8436 42.51 19.0077 42.3252 19.2171 42.2065L22.978 40.0326C23.102 39.9608 23.2391 39.9141 23.3812 39.8955C23.5234 39.8768 23.6678 39.8864 23.8062 39.9238C23.9447 39.9612 24.0743 40.0256 24.1877 40.1133C24.3011 40.201 24.3961 40.3102 24.4671 40.4348C24.6088 40.6844 24.646 40.9799 24.5707 41.2568C24.4954 41.5338 24.3135 41.7697 24.0649 41.9131L20.304 44.087C20.141 44.1883 19.9525 44.241 19.7606 44.2391V44.2391Z" fill="#FA4616"/>
<path d="M44.2395 44.2392C44.0473 44.2429 43.8583 44.19 43.696 44.087L39.9242 41.9131C39.6877 41.7627 39.5183 41.5267 39.4516 41.2544C39.3849 40.9821 39.426 40.6945 39.5663 40.4518C39.7066 40.2091 39.9353 40.03 40.2045 39.9519C40.4738 39.8737 40.7628 39.9027 41.0112 40.0326L44.7829 42.2066C44.9923 42.3252 45.1564 42.51 45.2495 42.732C45.3426 42.9539 45.3593 43.2005 45.2971 43.433C45.235 43.6655 45.0974 43.8708 44.906 44.0167C44.7146 44.1626 44.4801 44.2408 44.2395 44.2392V44.2392Z" fill="#FA4616"/>
<path d="M40.4676 32.2826C40.2269 32.2843 39.9925 32.2061 39.8011 32.0602C39.6097 31.9143 39.4721 31.709 39.4099 31.4765C39.3478 31.2439 39.3645 30.9974 39.4576 30.7754C39.5506 30.5535 39.7147 30.3687 39.9241 30.25L43.6959 28.0761C43.9443 27.9461 44.2333 27.9172 44.5025 27.9953C44.7718 28.0734 45.0005 28.2525 45.1408 28.4953C45.2811 28.738 45.3221 29.0255 45.2554 29.2978C45.1887 29.5701 45.0194 29.8061 44.7828 29.9565L41.0111 32.1304C40.8488 32.2335 40.6598 32.2864 40.4676 32.2826V32.2826Z" fill="#FA4616"/>
<path d="M33.0871 49.1304H30.9132C30.7701 49.1313 30.6283 49.1038 30.4959 49.0497C30.3635 48.9957 30.243 48.916 30.1414 48.8152L29.0545 47.7283C28.9537 47.6267 28.874 47.5062 28.8199 47.3738C28.7659 47.2414 28.7384 47.0996 28.7393 46.9565V43.6956H30.9132V46.4783L31.3588 46.9348H32.6414L33.0871 46.4783V43.6956H35.261V46.9565C35.257 47.2443 35.1444 47.52 34.9458 47.7283L33.8588 48.8152C33.6505 49.0138 33.3749 49.1264 33.0871 49.1304V49.1304Z" fill="#404040"/>
</svg>
