<svg width="64" height="64" viewBox="0 0 64 64" fill="none" xmlns="http://www.w3.org/2000/svg">
<path d="M52.8333 55.875H11.1667C10.0616 55.875 9.00179 55.436 8.22039 54.6546C7.43898 53.8732 7 52.8134 7 51.7084V49.625C7 49.3488 7.10975 49.0838 7.3051 48.8885C7.50045 48.6931 7.7654 48.5834 8.04167 48.5834H26.7917C26.9288 48.5826 27.0647 48.6088 27.1916 48.6607C27.3185 48.7125 27.4339 48.7889 27.5313 48.8854L28.2708 49.625H35.7396L36.4688 48.8854C36.6684 48.6951 36.9325 48.5872 37.2083 48.5834H55.9583C56.2346 48.5834 56.4996 48.6931 56.6949 48.8885C56.8903 49.0838 57 49.3488 57 49.625V51.7084C57 52.8134 56.561 53.8732 55.7796 54.6546C54.9982 55.436 53.9384 55.875 52.8333 55.875ZM9.08333 50.6667V51.7084C9.08333 52.2609 9.30283 52.7908 9.69353 53.1815C10.0842 53.5722 10.6141 53.7917 11.1667 53.7917H52.8333C53.3859 53.7917 53.9158 53.5722 54.3065 53.1815C54.6972 52.7908 54.9167 52.2609 54.9167 51.7084V50.6667H37.6458L36.9063 51.4063C36.8089 51.5028 36.6935 51.5792 36.5666 51.631C36.4397 51.6829 36.3038 51.7092 36.1667 51.7084H27.8333C27.5575 51.7045 27.2934 51.5966 27.0938 51.4063L26.3646 50.6667H9.08333Z" fill="#404040"/>
<path d="M12.2083 46.5H10.125V49.625H12.2083V46.5Z" fill="#404040"/>
<path d="M53.8748 49.625H51.7915V23.5833C51.7915 23.3071 51.6818 23.0421 51.4864 22.8468C51.2911 22.6514 51.0261 22.5417 50.7498 22.5417H29.9165V20.4583H50.7498C51.5786 20.4583 52.3735 20.7876 52.9596 21.3736C53.5456 21.9597 53.8748 22.7545 53.8748 23.5833V49.625Z" fill="#404040"/>
<path d="M25.75 45.4583H10.125C9.2962 45.4583 8.50134 45.1291 7.91529 44.5431C7.32924 43.957 7 43.1621 7 42.3333V12.125C7 11.2962 7.32924 10.5014 7.91529 9.9153C8.50134 9.32925 9.2962 9 10.125 9H25.75C26.5788 9 27.3737 9.32925 27.9597 9.9153C28.5458 10.5014 28.875 11.2962 28.875 12.125V27.75H26.7917V12.125C26.7917 11.8487 26.6819 11.5838 26.4866 11.3884C26.2912 11.1931 26.0263 11.0833 25.75 11.0833H10.125C9.84873 11.0833 9.58378 11.1931 9.38843 11.3884C9.19308 11.5838 9.08333 11.8487 9.08333 12.125V42.3333C9.08333 42.6096 9.19308 42.8745 9.38843 43.0699C9.58378 43.2652 9.84873 43.375 10.125 43.375H25.75C26.0263 43.375 26.2912 43.2652 26.4866 43.0699C26.6819 42.8745 26.7917 42.6096 26.7917 42.3333V34H28.875V42.3333C28.875 43.1621 28.5458 43.957 27.9597 44.5431C27.3737 45.1291 26.5788 45.4583 25.75 45.4583Z" fill="#404040"/>
<path d="M27.8337 37.125H8.04199V39.2083H27.8337V37.125Z" fill="#404040"/>
<path d="M19.5 40.25H16.375V42.3333H19.5V40.25Z" fill="#404040"/>
<path d="M37.2085 29.8333H18.4585V31.9167H37.2085V29.8333Z" fill="#FA4616"/>
<path d="M20.8434 34.7396L16.9893 30.875L20.8434 27.0104L22.3226 28.4896L19.9372 30.875L22.3226 33.2604L20.8434 34.7396Z" fill="#FA4616"/>
<path d="M34.8229 34.7396L33.3438 33.2604L35.7396 30.875L33.3438 28.4896L34.8229 27.0104L38.6875 30.875L34.8229 34.7396Z" fill="#FA4616"/>
</svg>
