<svg width="64" height="64" viewBox="0 0 64 64" fill="none" xmlns="http://www.w3.org/2000/svg">
<path d="M40.1562 56.9998C39.672 57.0013 39.1916 56.913 38.7396 56.7394L23.1146 51.0415C22.078 50.6634 21.2338 49.8895 20.7671 48.8896C20.3003 47.8898 20.2493 46.7456 20.6251 45.7082L23.8542 36.8437L25.8125 37.5624L22.5834 46.4166C22.4902 46.674 22.4487 46.9472 22.4612 47.2206C22.4737 47.4941 22.54 47.7624 22.6563 48.0103C22.8976 48.4979 23.32 48.8717 23.8334 49.0519L39.4583 54.7602C39.7161 54.8547 39.99 54.8973 40.2644 54.8856C40.5387 54.8739 40.808 54.808 41.0568 54.6919C41.3055 54.5757 41.5289 54.4115 41.714 54.2087C41.8991 54.006 42.0423 53.7686 42.1354 53.5103L53.177 23.1666C53.3647 22.6472 53.3384 22.0746 53.104 21.5746C52.8696 21.0745 52.4463 20.688 51.927 20.5L44.6354 17.8333L45.3437 15.875L52.6353 18.5417C53.6719 18.9198 54.5162 19.6937 54.9829 20.6935C55.4496 21.6934 55.5007 22.8375 55.1249 23.875L44.1145 54.2498C43.9329 54.766 43.6493 55.2404 43.2807 55.6448C42.912 56.0492 42.4659 56.3754 41.9687 56.604C41.402 56.8705 40.7825 57.0058 40.1562 56.9998V56.9998Z" fill="#404040"/>
<path d="M31.09 47.286L30.3774 49.2437L34.2928 50.6687L35.0054 48.711L31.09 47.286Z" fill="#404040"/>
<path d="M23.3454 41.1604L22.6328 43.1181L44.1674 50.956L44.8799 48.9983L23.3454 41.1604Z" fill="#404040"/>
<path d="M37.6457 40.4374C37.1586 40.4119 36.6841 40.2728 36.2603 40.0312C33.5763 38.6777 31.0328 37.0622 28.6666 35.2082C27.7681 35.3189 26.8636 35.3746 25.9583 35.3749C16.0521 35.3749 8 29.0103 8 21.1874C8 13.3646 16.0521 7 25.9583 7C35.8645 7 43.9165 13.3646 43.9165 21.1874C43.9165 25.5624 41.3332 29.6978 36.9687 32.3853C37.1795 34.2051 37.7232 35.9706 38.5728 37.5936C38.7916 37.9999 39.427 39.2187 38.6249 40.0312C38.4978 40.1617 38.3454 40.265 38.1771 40.3349C38.0087 40.4047 37.828 40.4396 37.6457 40.4374ZM29.3124 33.0207L29.6666 33.3124C31.7374 34.9872 33.9667 36.4559 36.3228 37.6978C35.4976 35.8682 35.0005 33.9078 34.8541 31.9061V31.2395L35.427 30.9166C39.4895 28.6249 41.9061 24.9895 41.9061 21.1874C41.9061 14.5104 34.7812 9.08333 26.0312 9.08333C17.2812 9.08333 10.1562 14.5104 10.1562 21.1874C10.1562 27.8645 17.2708 33.2916 26.0312 33.2916C26.9931 33.2862 27.9536 33.2166 28.9062 33.0832L29.3124 33.0207Z" fill="#FA4616"/>
<path d="M33.4998 28.8749H18.9165C18.0877 28.8749 17.2929 28.5457 16.7068 27.9596C16.1208 27.3736 15.7915 26.5787 15.7915 25.7499V16.375C15.7915 15.5462 16.1208 14.7513 16.7068 14.1652C17.2929 13.5792 18.0877 13.25 18.9165 13.25H33.4998C34.3286 13.25 35.1234 13.5792 35.7095 14.1652C36.2955 14.7513 36.6248 15.5462 36.6248 16.375V25.7499C36.6248 26.5787 36.2955 27.3736 35.7095 27.9596C35.1234 28.5457 34.3286 28.8749 33.4998 28.8749V28.8749ZM18.9165 15.3333C18.6402 15.3333 18.3753 15.4431 18.1799 15.6384C17.9846 15.8338 17.8748 16.0987 17.8748 16.375V25.7499C17.8748 26.0262 17.9846 26.2911 18.1799 26.4865C18.3753 26.6818 18.6402 26.7916 18.9165 26.7916H33.4998C33.776 26.7916 34.041 26.6818 34.2364 26.4865C34.4317 26.2911 34.5414 26.0262 34.5414 25.7499V16.375C34.5414 16.0987 34.4317 15.8338 34.2364 15.6384C34.041 15.4431 33.776 15.3333 33.4998 15.3333H18.9165Z" fill="#404040"/>
<path d="M25.958 23.3958C25.2778 23.4002 24.6112 23.2047 24.0413 22.8333L16.3018 17.625L17.458 15.8854L25.1976 21.0937C25.4253 21.2316 25.6865 21.3045 25.9528 21.3045C26.219 21.3045 26.4802 21.2316 26.708 21.0937L34.4475 15.8854L35.6142 17.625L27.8642 22.8333C27.2983 23.205 26.635 23.4007 25.958 23.3958V23.3958Z" fill="#404040"/>
</svg>
