<svg width="64" height="64" viewBox="0 0 64 64" fill="none" xmlns="http://www.w3.org/2000/svg">
<path d="M32.0648 53.4833C28.2126 53.4833 24.4469 52.341 21.244 50.2009C18.041 48.0607 15.5446 45.0189 14.0705 41.46C12.5963 37.901 12.2106 33.9849 12.9621 30.2068C13.7137 26.4286 15.5686 22.9582 18.2925 20.2343C21.0164 17.5104 24.4869 15.6554 28.265 14.9039C32.0431 14.1523 35.9593 14.538 39.5182 16.0122C43.0771 17.4863 46.119 19.9828 48.2591 23.1858C50.3993 26.3887 51.5416 30.1543 51.5416 34.0065C51.5416 39.1721 49.4896 44.1261 45.8369 47.7787C42.1843 51.4313 37.2303 53.4833 32.0648 53.4833ZM32.0648 16.6938C28.6406 16.6938 25.2934 17.7092 22.4463 19.6115C19.5992 21.5139 17.3802 24.2177 16.0699 27.3812C14.7595 30.5447 14.4166 34.0257 15.0847 37.3841C15.7527 40.7424 17.4015 43.8272 19.8228 46.2485C22.244 48.6697 25.3288 50.3185 28.6872 50.9865C32.0455 51.6545 35.5266 51.3118 38.69 50.0014C41.8535 48.6911 44.5574 46.472 46.4598 43.625C48.3621 40.7779 49.3775 37.4306 49.3775 34.0065C49.3775 29.4149 47.5535 25.0113 44.3067 21.7645C41.0599 18.5178 36.6564 16.6938 32.0648 16.6938Z" fill="#404040"/>
<path d="M32.0652 48.0731C29.283 48.0731 26.5634 47.248 24.2502 45.7024C21.9369 44.1567 20.134 41.9598 19.0693 39.3895C18.0046 36.8191 17.7261 33.9909 18.2688 31.2622C18.8116 28.5336 20.1513 26.0271 22.1186 24.0599C24.0858 22.0926 26.5922 20.7528 29.3209 20.2101C32.0495 19.6673 34.8779 19.946 37.4482 21.0107C40.0185 22.0753 42.2155 23.8782 43.7611 26.1915C45.3068 28.5047 46.1318 31.2243 46.1318 34.0064C46.1318 35.8537 45.7679 37.6828 45.061 39.3895C44.3541 41.0961 43.3179 42.6468 42.0117 43.953C40.7055 45.2592 39.1548 46.2953 37.4482 47.0022C35.7416 47.7091 33.9124 48.0731 32.0652 48.0731ZM32.0652 22.1039C29.7111 22.1039 27.4098 22.8021 25.4525 24.1099C23.4951 25.4178 21.9695 27.2767 21.0686 29.4516C20.1678 31.6265 19.9321 34.0197 20.3913 36.3285C20.8506 38.6374 21.9842 40.7582 23.6488 42.4228C25.3134 44.0874 27.4342 45.2211 29.7431 45.6803C32.0519 46.1396 34.4451 45.9039 36.62 45.003C38.7949 44.1021 40.6538 42.5765 41.9617 40.6192C43.2696 38.6618 43.9677 36.3605 43.9677 34.0064C43.9677 30.8497 42.7136 27.8222 40.4815 25.5901C38.2493 23.3579 35.2219 22.1039 32.0652 22.1039Z" fill="#404040"/>
<path d="M53.955 26.14L52.5484 24.5386C53.8733 23.2685 54.6492 21.5308 54.7105 19.6965C54.7718 17.8621 54.1136 16.0764 52.8765 14.7206C51.6394 13.3649 49.9213 12.5465 48.089 12.4401C46.2567 12.3336 44.4554 12.9476 43.0696 14.151L41.6089 12.5604C43.4082 10.916 45.7871 10.0537 48.2222 10.1633C50.6572 10.2729 52.9491 11.3453 54.5934 13.1446C56.2378 14.9439 57.1001 17.3228 56.9905 19.7579C56.8809 22.1929 55.8085 24.4848 54.0091 26.1292L53.955 26.14Z" fill="#404040"/>
<path d="M10.1647 26.14C9.23811 25.3348 8.48207 24.3524 7.94113 23.2505C7.4002 22.1486 7.08535 20.9494 7.01508 19.7239C6.94482 18.4984 7.12059 17.2712 7.53203 16.1147C7.94348 14.9581 8.58226 13.8957 9.41075 12.9899C10.2392 12.0841 11.2407 11.3533 12.356 10.8406C13.4714 10.3279 14.6781 10.0437 15.905 10.0046C17.1319 9.96562 18.3542 10.1727 19.4999 10.6134C20.6456 11.0542 21.6914 11.7198 22.5758 12.5711L21.115 14.1618C20.433 13.5387 19.6348 13.056 18.7663 12.7413C17.8977 12.4267 16.9756 12.2862 16.0527 12.3279C15.1298 12.3696 14.2242 12.5927 13.3875 12.9844C12.5508 13.3761 11.7995 13.9287 11.1764 14.6107C10.5533 15.2928 10.0707 16.091 9.75603 16.9596C9.44138 17.8282 9.3009 18.7502 9.3426 19.6731C9.38429 20.5959 9.60737 21.5016 9.99906 22.3383C10.3908 23.175 10.9434 23.9263 11.6255 24.5494L10.1647 26.14Z" fill="#404040"/>
<path d="M36.7069 40.1741L30.9829 34.4501V24.2572H33.147V33.5519L38.2326 38.6485L36.7069 40.1741Z" fill="#FA4616"/>
<path d="M50.4598 54.5654H47.2136C47.0705 54.5648 46.9288 54.5358 46.797 54.48C46.6651 54.4243 46.5456 54.3429 46.4453 54.2407L44.2812 52.0766L45.8178 50.551L47.6573 52.4013H48.9557L47.2677 47.3265L49.3236 46.6448L51.4877 53.1371C51.5427 53.3001 51.5581 53.4738 51.5326 53.6439C51.507 53.8141 51.4413 53.9757 51.3408 54.1153C51.2403 54.255 51.1079 54.3688 50.9547 54.447C50.8015 54.5253 50.6318 54.5658 50.4598 54.5654V54.5654Z" fill="#404040"/>
<path d="M16.9165 54.5654H13.6703C13.4983 54.5658 13.3286 54.5253 13.1754 54.447C13.0221 54.3688 12.8898 54.255 12.7893 54.1153C12.6888 53.9757 12.623 53.8141 12.5974 53.6439C12.5719 53.4738 12.5873 53.3001 12.6424 53.1371L14.8064 46.6448L16.8623 47.3265L15.1743 52.4013H16.462L18.3123 50.551L19.8488 52.0766L17.6847 54.2407C17.5845 54.3429 17.465 54.4243 17.3331 54.48C17.2012 54.5358 17.0596 54.5648 16.9165 54.5654Z" fill="#404040"/>
</svg>
