<svg width="64" height="64" viewBox="0 0 64 64" fill="none" xmlns="http://www.w3.org/2000/svg">
<path d="M54.7778 54.5555H9.22222C8.63285 54.5555 8.06762 54.3214 7.65087 53.9046C7.23412 53.4879 7 52.9227 7 52.3333V14.5555C7 13.9662 7.23412 13.401 7.65087 12.9842C8.06762 12.5675 8.63285 12.3333 9.22222 12.3333H15.8889V14.5555H9.22222V52.3333H54.7778V14.5555H48.1111V12.3333H54.7778C55.3672 12.3333 55.9324 12.5675 56.3491 12.9842C56.7659 13.401 57 13.9662 57 14.5555V52.3333C57 52.9227 56.7659 53.4879 56.3491 53.9046C55.9324 54.3214 55.3672 54.5555 54.7778 54.5555Z" fill="#404040"/>
<path d="M55.8891 21.2222H8.11133V23.4445H55.8891V21.2222Z" fill="#404040"/>
<path d="M47.0001 9H44.7778V16.7778H47.0001V9Z" fill="#FA4616"/>
<path d="M43.6668 12.3333H20.3335V14.5555H43.6668V12.3333Z" fill="#404040"/>
<path d="M19.2222 9H17V16.7778H19.2222V9Z" fill="#FA4616"/>
<path d="M28.1112 30.1111H24.7778V32.3333H28.1112V30.1111Z" fill="#FA4616"/>
<path d="M33.6668 30.1111H30.3335V32.3333H33.6668V30.1111Z" fill="#FA4616"/>
<path d="M39.2225 30.1111H35.8892V32.3333H39.2225V30.1111Z" fill="#FA4616"/>
<path d="M44.7777 30.1111H41.4443V32.3333H44.7777V30.1111Z" fill="#FA4616"/>
<path d="M22.5555 35.6667H19.2222V37.8889H22.5555V35.6667Z" fill="#FA4616"/>
<path d="M28.1112 35.6667H24.7778V37.8889H28.1112V35.6667Z" fill="#FA4616"/>
<path d="M33.6668 35.6667H30.3335V37.8889H33.6668V35.6667Z" fill="#FA4616"/>
<path d="M39.2225 35.6667H35.8892V37.8889H39.2225V35.6667Z" fill="#FA4616"/>
<path d="M44.7777 35.6667H41.4443V37.8889H44.7777V35.6667Z" fill="#FA4616"/>
<path d="M22.5555 41.2222H19.2222V43.4445H22.5555V41.2222Z" fill="#FA4616"/>
<path d="M28.1112 41.2222H24.7778V43.4445H28.1112V41.2222Z" fill="#FA4616"/>
<path d="M33.6668 41.2222H30.3335V43.4445H33.6668V41.2222Z" fill="#FA4616"/>
<path d="M39.2225 41.2222H35.8892V43.4445H39.2225V41.2222Z" fill="#FA4616"/>
</svg>
