<svg width="64" height="64" viewBox="0 0 64 64" fill="none" xmlns="http://www.w3.org/2000/svg">
<path d="M19.3152 45.6228C19.1757 45.6236 19.0373 45.5968 18.9081 45.5441C18.7789 45.4913 18.6614 45.4136 18.5623 45.3153L15.5829 42.3252C15.406 42.1467 15.2982 41.9113 15.2788 41.6607C15.2594 41.4102 15.3296 41.161 15.4768 40.9574L17.4596 38.2324C17.1216 37.7168 16.8136 37.1823 16.5371 36.6313L13.2184 36.9176C12.9685 36.941 12.7183 36.875 12.5125 36.7313C12.3067 36.5876 12.1586 36.3756 12.0944 36.1329L11.0341 32.0613C10.9715 31.8204 10.9956 31.5652 11.1023 31.3404C11.2089 31.1155 11.3912 30.9353 11.6173 30.8313L14.6392 29.4211C14.602 28.7996 14.602 28.1764 14.6392 27.5549L11.6279 26.1553C11.3996 26.051 11.2156 25.8691 11.1089 25.6419C11.0021 25.4148 10.9793 25.1571 11.0447 24.9148L12.105 20.8431C12.1689 20.6024 12.3155 20.3919 12.519 20.2484C12.7226 20.1049 12.9702 20.0377 13.2184 20.0585L16.5266 20.3448C16.8128 19.7934 17.1203 19.2844 17.4596 18.7225L15.5617 16.0081C15.4186 15.8042 15.3519 15.5564 15.3732 15.3082C15.3945 15.0601 15.5025 14.8274 15.6783 14.6509L18.6684 11.6714C18.8449 11.4956 19.0776 11.3876 19.3258 11.3663C19.5739 11.3449 19.8217 11.4117 20.0256 11.5547L22.7506 13.4633C23.2702 13.124 23.8109 12.8165 24.3623 12.5302L24.076 9.21143C24.0547 8.96467 24.1204 8.71821 24.2618 8.51485C24.4032 8.31149 24.6113 8.16405 24.85 8.09809L28.9323 7.03777C29.1719 6.97441 29.4261 6.99698 29.6508 7.10158C29.8755 7.20618 30.0565 7.38619 30.1622 7.61034L31.5725 10.6323C32.1941 10.6004 32.817 10.6004 33.4386 10.6323L34.8383 7.61034C34.9444 7.38396 35.127 7.20235 35.354 7.09759C35.581 6.99282 35.8377 6.97164 36.0788 7.03777L40.1505 8.09809C40.3912 8.16197 40.6017 8.30855 40.7452 8.51212C40.8886 8.71568 40.9559 8.96326 40.9351 9.21143L40.6488 12.5196C41.2056 12.8019 41.7471 13.1134 42.2711 13.4527L44.9855 11.5441C45.1906 11.4024 45.4391 11.3375 45.6873 11.3607C45.9355 11.384 46.1676 11.494 46.3427 11.6714L49.3222 14.6509C49.498 14.8274 49.606 15.0601 49.6273 15.3082C49.6487 15.5564 49.5819 15.8042 49.4388 16.0081L47.5303 18.7331C47.8696 19.2633 48.1771 19.7934 48.4634 20.3554L51.7822 20.0585C52.0303 20.0377 52.2779 20.1049 52.4815 20.2484C52.685 20.3919 52.8316 20.6024 52.8955 20.8431L53.9558 24.9148C54.0219 25.1559 54.0007 25.4126 53.896 25.6396C53.7912 25.8665 53.6096 26.0492 53.3832 26.1553L50.3613 27.5549C50.3613 27.8624 50.3613 28.1593 50.3613 28.4668C50.3613 28.7743 50.3613 29.103 50.3613 29.4211L53.3832 30.8313C53.6074 30.9371 53.7874 31.1181 53.892 31.3428C53.9966 31.5675 54.0192 31.8217 53.9558 32.0613L52.8955 36.1435C52.8295 36.3823 52.6821 36.5904 52.4787 36.7318C52.2754 36.8732 52.0289 36.9389 51.7822 36.9176L47.7529 36.5677L47.9332 34.447L51.1142 34.7227L51.7397 32.3688L48.8663 31.0222C48.6686 30.9292 48.5044 30.7775 48.3963 30.5877C48.2881 30.3979 48.2411 30.1793 48.2619 29.9619C48.3093 29.4614 48.3306 28.9589 48.3255 28.4562C48.3255 27.9685 48.3043 27.4807 48.2619 26.993C48.2411 26.7755 48.2881 26.5569 48.3963 26.3671C48.5044 26.1774 48.6686 26.0256 48.8663 25.9327L51.7397 24.5967L51.1142 22.2427L47.9332 22.5184C47.7145 22.5383 47.4951 22.4898 47.3052 22.3797C47.1152 22.2695 46.9642 22.1031 46.8729 21.9034C46.4596 21.0001 45.9626 20.1375 45.3884 19.3269C45.263 19.1483 45.1956 18.9354 45.1956 18.7172C45.1956 18.499 45.263 18.2861 45.3884 18.1075L47.2016 15.5097L45.4839 13.7814L42.8967 15.5945C42.7181 15.72 42.5052 15.7874 42.287 15.7874C42.0688 15.7874 41.8559 15.72 41.6773 15.5945C40.8618 15.0192 39.9959 14.5188 39.0901 14.0995C38.8905 14.0082 38.7241 13.8571 38.6139 13.6672C38.5037 13.4773 38.4553 13.2578 38.4751 13.0392L38.7508 9.85822L36.3969 9.23262L35.0397 12.1697C34.9468 12.3674 34.795 12.5316 34.6052 12.6398C34.4155 12.7479 34.1969 12.7949 33.9794 12.7741C32.9921 12.6787 31.9978 12.6787 31.0105 12.7741C30.793 12.7949 30.5745 12.7479 30.3847 12.6398C30.1949 12.5316 30.0431 12.3674 29.9502 12.1697L28.6036 9.29624L26.2497 9.92184L26.536 13.1028C26.5559 13.3215 26.5074 13.5409 26.3972 13.7308C26.2871 13.9208 26.1206 14.0718 25.921 14.1631C25.0176 14.5764 24.155 15.0734 23.3444 15.6476C23.1659 15.773 22.9529 15.8404 22.7347 15.8404C22.5165 15.8404 22.3036 15.773 22.125 15.6476L19.5272 13.8238L17.7989 15.5521L19.6121 18.1393C19.7376 18.3179 19.8049 18.5308 19.8049 18.749C19.8049 18.9672 19.7376 19.1801 19.6121 19.3587C19.0379 20.1731 18.541 21.0392 18.1276 21.9459C18.0363 22.1455 17.8853 22.3119 17.6953 22.4221C17.5054 22.5323 17.286 22.5807 17.0673 22.5608L13.8863 22.2852L13.2502 24.6391L16.1236 25.9751C16.3233 26.0664 16.4897 26.2174 16.5998 26.4074C16.71 26.5973 16.7585 26.8167 16.7386 27.0354C16.6432 28.0227 16.6432 29.017 16.7386 30.0043C16.7585 30.223 16.71 30.4424 16.5998 30.6323C16.4897 30.8222 16.3233 30.9733 16.1236 31.0646L13.335 32.3794L13.9712 34.7333L17.1521 34.447C17.3708 34.4271 17.5902 34.4756 17.7801 34.5858C17.9701 34.6959 18.1211 34.8623 18.2125 35.062C18.6257 35.9653 19.1227 36.828 19.6969 37.6386C19.8272 37.8192 19.8973 38.0362 19.8973 38.2589C19.8973 38.4815 19.8272 38.6986 19.6969 38.8792L17.8095 41.4663L19.5272 43.1946L20.7996 42.3252L21.9872 44.0747L19.9938 45.4425C19.7946 45.5779 19.5553 45.6415 19.3152 45.6228Z" fill="#404040"/>
<path d="M46.9999 57H44.8793V55.9397C44.9831 54.9692 45.3497 54.0453 45.9396 53.2677C46.5145 52.4976 46.8799 51.5916 46.9999 50.6381V41.0952C46.9721 40.8235 46.8514 40.5697 46.6583 40.3765C46.4652 40.1834 46.2113 40.0627 45.9396 40.0349H42.7587V38.9746C42.7308 38.7029 42.6102 38.449 42.417 38.2559C42.2239 38.0628 41.9701 37.9421 41.6983 37.9143H38.9945L38.687 37.4265C38.3616 37.0906 37.9236 36.8867 37.4571 36.8539H35.3364V34.7333H37.4571C38.425 34.7653 39.3497 35.1412 40.0654 35.7936H41.6983C42.3499 35.8144 42.981 36.0265 43.5127 36.4037C44.0445 36.7808 44.4534 37.3062 44.6884 37.9143H45.9396C46.7765 37.9357 47.5732 38.2778 48.1651 38.8697C48.7571 39.4617 49.0991 40.2583 49.1206 41.0952V50.6381C49.0169 51.9861 48.5396 53.2786 47.7422 54.3704C47.3949 54.8402 47.1428 55.3733 46.9999 55.9397V57Z" fill="#404040"/>
<path d="M31.0951 57H28.9745V54.9748C28.4273 54.1794 27.8022 53.4406 27.1083 52.7693C26.4864 52.152 25.9156 51.4854 25.4012 50.7759C24.9241 50.0337 22.5914 43.4279 21.6159 40.6287L21.5522 40.459V40.2788C21.6086 39.757 21.8256 39.2657 22.1731 38.8725C22.5207 38.4794 22.9817 38.2038 23.4926 38.0839C24.2743 37.8542 25.1093 37.8829 25.8734 38.1656C26.6375 38.4483 27.29 38.97 27.7339 39.6532L29.8545 42.919L30.0136 42.7599V28.3714C30.0136 27.5277 30.3487 26.7187 30.9453 26.1221C31.5418 25.5256 32.3509 25.1904 33.1946 25.1904C34.0382 25.1904 34.8473 25.5256 35.4438 26.1221C36.0404 26.7187 36.3755 27.5277 36.3755 28.3714V41.0952H34.2549V28.3714C34.2549 28.0902 34.1432 27.8205 33.9443 27.6216C33.7455 27.4228 33.4758 27.3111 33.1946 27.3111C32.9133 27.3111 32.6436 27.4228 32.4448 27.6216C32.2459 27.8205 32.1342 28.0902 32.1342 28.3714V43.6612L29.4622 46.2272L26.0586 40.8514C25.9002 40.5962 25.678 40.3867 25.414 40.2435C25.15 40.1003 24.8532 40.0284 24.5529 40.0349C24.2763 40.0468 24.0099 40.143 23.7895 40.3106C25.0725 43.9687 26.9174 49.0794 27.2355 49.652C27.6878 50.2371 28.1766 50.7931 28.6988 51.3167C30.2575 52.9708 31.1375 53.9463 31.1375 54.8794L31.0951 57Z" fill="#404040"/>
<path d="M40.6382 36.8539H38.5176V41.0952H40.6382V36.8539Z" fill="#404040"/>
<path d="M44.8794 38.9746H42.7588V42.1555H44.8794V38.9746Z" fill="#404040"/>
<path d="M38.539 33.5457L37.0227 32.0613C37.7428 31.3207 38.2308 30.3859 38.4268 29.3717C38.6228 28.3575 38.5182 27.3082 38.126 26.3526C37.7338 25.3971 37.071 24.5769 36.219 23.9929C35.367 23.4088 34.3629 23.0864 33.3302 23.0652C32.2975 23.044 31.2811 23.325 30.4059 23.8736C29.5307 24.4221 28.8347 25.2144 28.4037 26.1531C27.9726 27.0918 27.8251 28.1359 27.9793 29.1573C28.1335 30.1787 28.5828 31.1327 29.2718 31.9022L27.6813 33.3231C26.88 32.4262 26.3087 31.3481 26.0164 30.1815C25.7242 29.0148 25.7198 27.7947 26.0037 26.626C26.2875 25.4573 26.8512 24.3751 27.646 23.4725C28.4409 22.5699 29.4432 21.874 30.5666 21.4447C31.69 21.0154 32.901 20.8655 34.0952 21.0079C35.2894 21.1503 36.4311 21.5808 37.4221 22.2623C38.413 22.9438 39.2235 23.8559 39.7838 24.9201C40.3441 25.9843 40.6374 27.1687 40.6384 28.3714C40.6388 30.3037 39.8857 32.16 38.539 33.5457V33.5457Z" fill="#FA4616"/>
</svg>
