<svg width="64" height="64" viewBox="0 0 64 64" fill="none" xmlns="http://www.w3.org/2000/svg">
<path d="M25.75 47.5H8.04167C7.7654 47.5 7.50045 47.3903 7.3051 47.1949C7.10975 46.9996 7 46.7346 7 46.4583V11.0417C7 10.7654 7.10975 10.5004 7.3051 10.3051C7.50045 10.1097 7.7654 10 8.04167 10H38.25C38.5263 10 38.7912 10.1097 38.9866 10.3051C39.1819 10.5004 39.2917 10.7654 39.2917 11.0417V21.4583H37.2083V12.0833H9.08333V45.4167H25.75V47.5Z" fill="#404040"/>
<path d="M38.2498 16.25H8.0415V18.3333H38.2498V16.25Z" fill="#404040"/>
<path d="M13.2503 13.125H11.167V15.2083H13.2503V13.125Z" fill="#404040"/>
<path d="M17.4168 13.125H15.3335V15.2083H17.4168V13.125Z" fill="#404040"/>
<path d="M55.9587 54.7917H27.8337C27.5574 54.7917 27.2924 54.6819 27.0971 54.4866C26.9017 54.2912 26.792 54.0263 26.792 53.75V41.25H28.8753V52.7083H54.917V24.5833H28.8753V35H26.792V23.5417C26.792 23.2654 26.9017 23.0005 27.0971 22.8051C27.2924 22.6098 27.5574 22.5 27.8337 22.5H55.9587C56.2349 22.5 56.4999 22.6098 56.6952 22.8051C56.8906 23.0005 57.0003 23.2654 57.0003 23.5417V53.75C57.0003 54.0263 56.8906 54.2912 56.6952 54.4866C56.4999 54.6819 56.2349 54.7917 55.9587 54.7917Z" fill="#404040"/>
<path d="M55.9585 28.75H27.8335V30.8333H55.9585V28.75Z" fill="#404040"/>
<path d="M33.0418 25.625H30.9585V27.7083H33.0418V25.625Z" fill="#404040"/>
<path d="M37.2083 25.625H35.125V27.7083H37.2083V25.625Z" fill="#404040"/>
<path d="M19.8016 43.0312L14.9058 38.125L19.8016 33.2188L21.2808 34.6979L17.8433 38.125L21.2808 41.5521L19.8016 43.0312Z" fill="#FA4616"/>
<path d="M37.9479 43.0312L36.4688 41.5521L39.9063 38.125L36.4688 34.6979L37.9479 33.2188L42.8438 38.125L37.9479 43.0312Z" fill="#FA4616"/>
<path d="M41.375 37.0833H16.375V39.1667H41.375V37.0833Z" fill="#FA4616"/>
</svg>
