<svg width="64" height="64" viewBox="0 0 64 64" fill="none" xmlns="http://www.w3.org/2000/svg">
<path d="M50.75 42.1667H48.6667V40.3021L45.4792 40.0104L45.2813 39.3333C45.1589 38.9219 44.9948 38.524 44.7917 38.1458L44.4688 37.5417L46.4479 35.0208L45.4063 33.9792L42.875 35.9583L42.2708 35.6354C41.8956 35.4261 41.497 35.2618 41.0833 35.1458L40.4271 34.9479L40.0417 31.7604H38.5417L38.1563 34.9479L37.5 35.1458C37.0876 35.2656 36.6895 35.4297 36.3125 35.6354L35.7188 35.9583L33.1875 33.9792L32.1458 35.0208L34.125 37.5417L33.8021 38.1458C33.5989 38.524 33.4349 38.9219 33.3125 39.3333L33.1146 40.0104L29.9271 40.3021V42.1667H27.8438V38.3958L31.5521 38.0625C31.5521 37.9687 31.625 37.875 31.6667 37.7812L29.3646 34.8542L33.0312 31.1875L35.9583 33.4792L36.2604 33.3646L36.7083 29.6667H41.9167L42.375 33.3646L42.6667 33.4792L45.6042 31.1875L49.2604 34.8542L46.9271 37.8021L47.0417 38.0833L50.75 38.4166V42.1667Z" fill="#404040"/>
<path d="M43.4583 42.1667H41.375V41.125C41.375 40.5725 41.1555 40.0426 40.7648 39.6519C40.3741 39.2612 39.8442 39.0417 39.2917 39.0417C38.7391 39.0417 38.2092 39.2612 37.8185 39.6519C37.4278 40.0426 37.2083 40.5725 37.2083 41.125V42.1667H35.125V41.125C35.125 40.0199 35.564 38.9601 36.3454 38.1787C37.1268 37.3973 38.1866 36.9583 39.2917 36.9583C40.3967 36.9583 41.4565 37.3973 42.2379 38.1787C43.0193 38.9601 43.4583 40.0199 43.4583 41.125V42.1667Z" fill="#404040"/>
<path d="M27.8332 20.2917C26.7281 20.2917 25.6683 19.8527 24.8869 19.0713C24.1055 18.2899 23.6665 17.2301 23.6665 16.125H25.7498C25.7498 16.6775 25.9693 17.2074 26.36 17.5981C26.7507 17.9888 27.2806 18.2083 27.8332 18.2083C28.3857 18.2083 28.9156 17.9888 29.3063 17.5981C29.697 17.2074 29.9165 16.6775 29.9165 16.125H31.9998C31.9998 17.2301 31.5608 18.2899 30.7794 19.0713C29.998 19.8527 28.9382 20.2917 27.8332 20.2917Z" fill="#FA4616"/>
<path d="M53.875 42.1667H51.7917V16.125C51.7917 15.8487 51.6819 15.5838 51.4866 15.3884C51.2912 15.1931 51.0263 15.0833 50.75 15.0833H13.25C12.9737 15.0833 12.7088 15.1931 12.5134 15.3884C12.3181 15.5838 12.2083 15.8487 12.2083 16.125V42.1667H10.125V16.125C10.125 15.2962 10.4542 14.5013 11.0403 13.9153C11.6263 13.3292 12.4212 13 13.25 13H50.75C51.5788 13 52.3737 13.3292 52.9597 13.9153C53.5458 14.5013 53.875 15.2962 53.875 16.125V42.1667Z" fill="#404040"/>
<path d="M51.7917 50.5H12.2083C10.827 50.5 9.50224 49.9513 8.52549 48.9745C7.54873 47.9978 7 46.673 7 45.2917V43.2083H28.2604L29.3021 44.25H35.7187L36.7604 43.2083H57V45.2917C57 46.673 56.4513 47.9978 55.4745 48.9745C54.4978 49.9513 53.173 50.5 51.7917 50.5V50.5ZM9.08333 45.2917C9.08333 46.1205 9.41257 46.9153 9.99863 47.5014C10.5847 48.0874 11.3795 48.4167 12.2083 48.4167H51.7917C52.6205 48.4167 53.4153 48.0874 54.0014 47.5014C54.5874 46.9153 54.9167 46.1205 54.9167 45.2917H37.6354L36.5937 46.3333H28.4271L27.3854 45.2917H9.08333Z" fill="#404040"/>
<path d="M30.9582 30.7083H24.7082V25.9896C24.3976 25.8862 24.0947 25.7609 23.8019 25.6146L20.4686 28.9479L16.0519 24.5312L19.3748 21.1979C19.2359 20.8924 19.1109 20.5903 18.9998 20.2917H14.2915V16.125H16.3748V18.2083H20.5415L20.7394 18.9896C20.9066 19.6445 21.1662 20.2723 21.5103 20.8542L21.9269 21.5521L18.9478 24.5312L20.4269 26L23.3957 23.0313L24.0936 23.4375C24.679 23.7817 25.3103 24.0413 25.9686 24.2083L26.7498 24.4167V28.5833H28.8332V24.4167L29.6144 24.2083C30.2727 24.0413 30.904 23.7817 31.4894 23.4375L32.1873 23.0313L35.1561 26L36.6248 24.5312L33.6561 21.5521L34.0623 20.8542C34.4055 20.2706 34.6683 19.6434 34.8436 18.9896L35.0415 18.2083H39.2082V16.125H41.2915V20.2917H36.6665C36.5519 20.5937 36.4269 20.8958 36.2811 21.1979L39.6144 24.5312L35.1978 28.9479L31.8644 25.6146C31.5716 25.7609 31.2688 25.8862 30.9582 25.9896V30.7083Z" fill="#FA4616"/>
</svg>
