<svg width="64" height="64" viewBox="0 0 64 64" fill="none" xmlns="http://www.w3.org/2000/svg">
<path d="M52.8335 55.8754H12.2082C11.9319 55.8754 11.667 55.7656 11.4716 55.5703C11.2763 55.3749 11.1665 55.11 11.1665 54.8337V50.667H13.2499V53.792H51.7918V50.667H53.8752V54.8337C53.8752 55.11 53.7654 55.3749 53.5701 55.5703C53.3747 55.7656 53.1098 55.8754 52.8335 55.8754Z" fill="#404040"/>
<path d="M53.8752 18.3751H51.7918V11.0834H13.2499V18.3751H11.1665V10.0417C11.1665 9.76541 11.2763 9.50047 11.4716 9.30511C11.667 9.10976 11.9319 9 12.2082 9H52.8335C53.1098 9 53.3747 9.10976 53.5701 9.30511C53.7654 9.50047 53.8752 9.76541 53.8752 10.0417V18.3751Z" fill="#404040"/>
<path d="M52.8338 15.2917H12.2085V17.3751H52.8338V15.2917Z" fill="#404040"/>
<path d="M17.4168 12.1667H15.3335V14.2501H17.4168V12.1667Z" fill="#404040"/>
<path d="M21.5833 12.1667H19.5V14.2501H21.5833V12.1667Z" fill="#404040"/>
<path d="M35.1254 38.2086H20.542V36.1252H33.0421V22.5835H23.667V20.5001H35.1254V38.2086Z" fill="#FA4616"/>
<path d="M46.5839 20.5001H38.2505V22.5835H46.5839V20.5001Z" fill="#404040"/>
<path d="M46.5839 25.7085H38.2505V27.7918H46.5839V25.7085Z" fill="#404040"/>
<path d="M46.5839 30.9169H38.2505V33.0002H46.5839V30.9169Z" fill="#404040"/>
<path d="M46.5839 36.1252H38.2505V38.2086H46.5839V36.1252Z" fill="#404040"/>
<path d="M46.5839 42.3753H20.542V44.4586H46.5839V42.3753Z" fill="#FA4616"/>
<path d="M46.5839 47.5836H20.542V49.667H46.5839V47.5836Z" fill="#FA4616"/>
<path d="M15.3334 49.6253H14.2917C13.4629 49.6253 12.6681 49.2961 12.082 48.71C11.4959 48.124 11.1667 47.3291 11.1667 46.5003V33.6877C9.08335 32.646 7 30.4064 7 27.7918V26.7501C7 23.8647 8.72918 21.6668 11.8542 20.5626C12.0115 20.5057 12.1801 20.4876 12.3459 20.5096C12.5117 20.5317 12.6697 20.5934 12.8066 20.6894C12.9435 20.7855 13.0553 20.913 13.1325 21.0614C13.2096 21.2098 13.25 21.3745 13.2501 21.5418V25.7085H16.3751V21.5418C16.3757 21.3758 16.4161 21.2123 16.4927 21.0651C16.5693 20.9178 16.68 20.7911 16.8155 20.6953C16.9511 20.5994 17.1076 20.5374 17.2719 20.5143C17.4363 20.4913 17.6038 20.5078 17.7605 20.5626C20.8855 21.6668 22.6251 23.8647 22.6251 26.7501V27.7918C22.6251 30.4064 20.5418 32.6669 18.4584 33.6877V46.5003C18.4584 47.3291 18.1292 48.124 17.5431 48.71C16.9571 49.2961 16.1622 49.6253 15.3334 49.6253ZM11.1667 23.1251C10.5206 23.4696 9.98337 23.9875 9.61535 24.6205C9.24733 25.2535 9.0631 25.9765 9.08335 26.7085V27.7501C9.08335 29.6043 10.8854 31.3856 12.5521 31.9793C12.7554 32.0504 12.9317 32.1827 13.0566 32.358C13.1816 32.5334 13.2492 32.7432 13.2501 32.9585V46.5003C13.2501 46.7766 13.3598 47.0415 13.5551 47.2369C13.7505 47.4322 14.0155 47.542 14.2917 47.542H15.3334C15.6097 47.542 15.8746 47.4322 16.07 47.2369C16.2653 47.0415 16.3751 46.7766 16.3751 46.5003V32.9585C16.3752 32.7444 16.4412 32.5356 16.5642 32.3604C16.6872 32.1852 16.8613 32.0521 17.0626 31.9793C18.7397 31.3856 20.5418 29.6043 20.5418 27.7501V26.7085C20.562 25.9765 20.3778 25.2535 20.0098 24.6205C19.6418 23.9875 19.1045 23.4696 18.4584 23.1251V26.7085C18.4584 26.9847 18.3487 27.2497 18.1533 27.445C17.958 27.6404 17.693 27.7501 17.4168 27.7501H12.2084C11.9321 27.7501 11.6672 27.6404 11.4718 27.445C11.2764 27.2497 11.1667 26.9847 11.1667 26.7085V23.1251Z" fill="#404040"/>
<path d="M53.8748 49.6253H52.8331C52.6245 49.6255 52.4206 49.5631 52.2479 49.4461C52.0752 49.3291 51.9416 49.1629 51.8644 48.9691L49.781 43.7607C49.731 43.6384 49.7062 43.5074 49.7081 43.3753V22.5418C49.7081 21.713 50.0374 20.9181 50.6234 20.3321C51.2095 19.746 52.0043 19.4167 52.8331 19.4167H53.8748C54.7036 19.4167 55.4985 19.746 56.0845 20.3321C56.6706 20.9181 56.9998 21.713 56.9998 22.5418V43.3753C56.9967 43.5069 56.9721 43.637 56.9269 43.7607L54.8436 48.9691C54.7664 49.1629 54.6328 49.3291 54.46 49.4461C54.2873 49.5631 54.0834 49.6255 53.8748 49.6253ZM51.7915 43.1774L53.354 47.0836L54.9165 43.1774V22.5418C54.9165 22.2655 54.8067 22.0006 54.6114 21.8052C54.416 21.6099 54.1511 21.5001 53.8748 21.5001H52.8331C52.5569 21.5001 52.2919 21.6099 52.0966 21.8052C51.9012 22.0006 51.7915 22.2655 51.7915 22.5418V43.1774Z" fill="#404040"/>
<path d="M55.9589 24.6668H50.7505V26.7502H55.9589V24.6668Z" fill="#404040"/>
</svg>
