<svg width="64" height="64" viewBox="0 0 64 64" fill="none" xmlns="http://www.w3.org/2000/svg">
<path d="M25.75 50.4583H10.125C9.2962 50.4583 8.50134 50.1291 7.91529 49.5431C7.32924 48.957 7 48.1621 7 47.3333V17.125C7 16.2962 7.32924 15.5014 7.91529 14.9153C8.50134 14.3293 9.2962 14 10.125 14H25.75C26.5788 14 27.3737 14.3293 27.9597 14.9153C28.5458 15.5014 28.875 16.2962 28.875 17.125V28.5833H26.7917V17.125C26.7917 16.8487 26.6819 16.5838 26.4866 16.3884C26.2912 16.1931 26.0263 16.0833 25.75 16.0833H10.125C9.84873 16.0833 9.58378 16.1931 9.38843 16.3884C9.19308 16.5838 9.08333 16.8487 9.08333 17.125V47.3333C9.08333 47.6096 9.19308 47.8745 9.38843 48.0699C9.58378 48.2652 9.84873 48.375 10.125 48.375H25.75C26.0263 48.375 26.2912 48.2652 26.4866 48.0699C26.6819 47.8745 26.7917 47.6096 26.7917 47.3333V34.8333H28.875V47.3333C28.875 48.1621 28.5458 48.957 27.9597 49.5431C27.3737 50.1291 26.5788 50.4583 25.75 50.4583V50.4583Z" fill="#404040"/>
<path d="M49.7083 44.2083H35.125C34.2962 44.2083 33.5013 43.8791 32.9153 43.2931C32.3292 42.707 32 41.9121 32 41.0833V34.8333H34.0833V41.0833C34.0833 41.3596 34.1931 41.6245 34.3884 41.8199C34.5838 42.0152 34.8487 42.125 35.125 42.125H49.7083C49.9846 42.125 50.2496 42.0152 50.4449 41.8199C50.6403 41.6245 50.75 41.3596 50.75 41.0833V23.375C50.75 23.0987 50.6403 22.8338 50.4449 22.6384C50.2496 22.4431 49.9846 22.3333 49.7083 22.3333H35.125C34.8487 22.3333 34.5838 22.4431 34.3884 22.6384C34.1931 22.8338 34.0833 23.0987 34.0833 23.375V28.5833H32V23.375C32 22.5462 32.3292 21.7514 32.9153 21.1653C33.5013 20.5793 34.2962 20.25 35.125 20.25H49.7083C50.5371 20.25 51.332 20.5793 51.918 21.1653C52.5041 21.7514 52.8333 22.5462 52.8333 23.375V41.0833C52.8333 41.9121 52.5041 42.707 51.918 43.2931C51.332 43.8791 50.5371 44.2083 49.7083 44.2083Z" fill="#404040"/>
<path d="M49.7083 50.4583H35.125V43.1667H37.2083V48.375H47.625V43.1667H49.7083V50.4583Z" fill="#404040"/>
<path d="M49.7083 21.2917H47.625V16.0833H37.2083V21.2917H35.125V14H49.7083V21.2917Z" fill="#404040"/>
<path d="M27.8337 42.125H8.04199V44.2083H27.8337V42.125Z" fill="#404040"/>
<path d="M19.5 45.25H16.375V47.3333H19.5V45.25Z" fill="#404040"/>
<path d="M42.4165 30.6667H17.4165V32.75H42.4165V30.6667Z" fill="#FA4616"/>
<path d="M19.8018 35.5729L16.6768 32.4479C16.5791 32.3511 16.5016 32.2359 16.4488 32.1089C16.3959 31.982 16.3687 31.8458 16.3687 31.7083C16.3687 31.5708 16.3959 31.4347 16.4488 31.3077C16.5016 31.1808 16.5791 31.0656 16.6768 30.9688L19.8018 27.8438L21.2809 29.3229L18.8851 31.7083L21.2809 34.0938L19.8018 35.5729Z" fill="#FA4616"/>
<path d="M40.0314 35.5729L38.5522 34.0938L40.9481 31.7083L38.5522 29.3229L40.0314 27.8438L43.1564 30.9688C43.254 31.0656 43.3316 31.1808 43.3844 31.3077C43.4373 31.4347 43.4645 31.5708 43.4645 31.7083C43.4645 31.8458 43.4373 31.982 43.3844 32.1089C43.3316 32.2359 43.254 32.3511 43.1564 32.4479L40.0314 35.5729Z" fill="#FA4616"/>
<path d="M54.9167 35.875H53.875V33.7917H54.9167V29.625H53.875V27.5417H54.9167C55.4692 27.5417 55.9991 27.7612 56.3898 28.1519C56.7805 28.5426 57 29.0725 57 29.625V33.7917C57 34.3442 56.7805 34.8741 56.3898 35.2648C55.9991 35.6555 55.4692 35.875 54.9167 35.875Z" fill="#404040"/>
</svg>
