<svg width="64" height="64" viewBox="0 0 64 64" fill="none" xmlns="http://www.w3.org/2000/svg">
<path d="M49.6667 57H14.1111C13.8164 57 13.5338 56.8829 13.3254 56.6745C13.117 56.4662 13 56.1836 13 55.8889L13.0778 8.28891C13.0778 7.99423 13.1948 7.71159 13.4032 7.50322C13.6116 7.29485 13.8942 7.1778 14.1889 7.1778L49.6555 7.00002C49.8018 6.99917 49.9467 7.02719 50.0821 7.08248C50.2175 7.13778 50.3406 7.21924 50.4444 7.32222C50.5494 7.42512 50.6329 7.54786 50.6901 7.68327C50.7474 7.81869 50.7772 7.96412 50.7778 8.11113V55.8889C50.7778 56.0348 50.749 56.1793 50.6932 56.3141C50.6373 56.4489 50.5555 56.5714 50.4523 56.6745C50.3491 56.7777 50.2267 56.8596 50.0919 56.9154C49.9571 56.9712 49.8126 57 49.6667 57ZM15.2222 54.7778H48.5555V9.22224L15.3 9.37778L15.2222 54.7778Z" fill="#404040"/>
<path d="M34.1114 45.3556H29.6669C29.3723 45.3556 29.0896 45.2385 28.8812 45.0301C28.6729 44.8217 28.5558 44.5391 28.5558 44.2445V41.4445C27.3973 41.0367 26.3239 40.4189 25.3892 39.6222L22.9225 41C22.6687 41.1458 22.3677 41.1856 22.0847 41.1107C21.8018 41.0358 21.5598 40.8523 21.4114 40.6L19.1892 36.7445C19.0434 36.4907 19.0036 36.1896 19.0785 35.9067C19.1534 35.6237 19.3369 35.3818 19.5892 35.2334L22.0114 33.8333C21.7893 32.625 21.7893 31.3862 22.0114 30.1778L19.5892 28.7778C19.3369 28.6294 19.1534 28.3874 19.0785 28.1045C19.0036 27.8215 19.0434 27.5205 19.1892 27.2667L21.4114 23.4111C21.5598 23.1589 21.8018 22.9754 22.0847 22.9005C22.3677 22.8256 22.6687 22.8654 22.9225 23.0111L25.3447 24.4111C26.2769 23.6108 27.351 22.9927 28.5114 22.5889V19.8C28.5114 19.5053 28.6285 19.2227 28.8368 19.0144C29.0452 18.806 29.3278 18.6889 29.6225 18.6889H34.0669C34.3616 18.6889 34.6442 18.806 34.8526 19.0144C35.061 19.2227 35.178 19.5053 35.178 19.8V22.6111C36.335 23.015 37.4055 23.6332 38.3336 24.4334L40.7558 23.0334C40.882 22.9594 41.0215 22.9111 41.1663 22.8912C41.3112 22.8713 41.4585 22.8802 41.6 22.9174C41.7414 22.9545 41.8741 23.0192 41.9904 23.1078C42.1068 23.1963 42.2045 23.3069 42.2781 23.4333L44.5003 27.2889C44.645 27.5414 44.6849 27.8406 44.6114 28.1222C44.5734 28.2641 44.5078 28.3971 44.4181 28.5134C44.3285 28.6297 44.2167 28.7272 44.0891 28.8L41.6669 30.2C41.9039 31.407 41.9039 32.6486 41.6669 33.8556L44.0891 35.2556C44.3433 35.4021 44.5292 35.6433 44.6062 35.9264C44.6832 36.2095 44.6451 36.5115 44.5003 36.7667L42.2781 40.6222C42.2045 40.7486 42.1068 40.8593 41.9904 40.9478C41.8741 41.0364 41.7414 41.101 41.6 41.1382C41.4585 41.1754 41.3112 41.1843 41.1663 41.1643C41.0215 41.1444 40.882 41.0962 40.7558 41.0222L38.3336 39.6222C37.4043 40.4207 36.3341 41.0387 35.178 41.4445V44.2445C35.1783 44.5316 35.0673 44.8077 34.8685 45.0148C34.6696 45.222 34.3983 45.3441 34.1114 45.3556V45.3556ZM30.7781 43.1333H33.0003V40.6222C32.9923 40.3699 33.0705 40.1224 33.2219 39.9204C33.3734 39.7185 33.5891 39.5741 33.8336 39.5111C35.1987 39.1611 36.443 38.4468 37.4336 37.4445C37.6053 37.2688 37.8304 37.155 38.0736 37.1208C38.3169 37.0866 38.5646 37.134 38.778 37.2556L41.0002 38.5111L42.1114 36.5889L39.8891 35.3334C39.6751 35.2093 39.5086 35.0173 39.416 34.7878C39.3234 34.5584 39.31 34.3046 39.378 34.0667C39.5665 33.3901 39.6637 32.6913 39.6669 31.9889C39.6623 31.2866 39.5651 30.588 39.378 29.9111C39.3128 29.6748 39.3275 29.4235 39.4199 29.1964C39.5124 28.9693 39.6773 28.7791 39.8891 28.6556L42.1114 27.4L41.0002 25.4778L38.778 26.7333C38.5646 26.8549 38.3169 26.9023 38.0736 26.8681C37.8304 26.8339 37.6053 26.7201 37.4336 26.5445C36.4423 25.5408 35.1986 24.823 33.8336 24.4667C33.5891 24.4037 33.3734 24.2593 33.2219 24.0574C33.0705 23.8554 32.9923 23.6079 33.0003 23.3556V20.9111H30.7781V23.4333C30.786 23.6857 30.7079 23.9332 30.5564 24.1351C30.4049 24.3371 30.1892 24.4815 29.9447 24.5444C28.5784 24.8976 27.334 25.6159 26.3447 26.6223C26.1722 26.8005 25.9451 26.9159 25.6995 26.9502C25.4538 26.9844 25.2038 26.9354 24.9891 26.8111L22.8225 25.5556L21.7114 27.4778L23.9336 28.7334C24.1454 28.8569 24.3104 29.0471 24.4028 29.2742C24.4953 29.5013 24.51 29.7526 24.4447 29.9889C24.2576 30.6658 24.1605 31.3644 24.1558 32.0667C24.159 32.7691 24.2562 33.4678 24.4447 34.1445C24.5127 34.3824 24.4993 34.6361 24.4068 34.8656C24.3142 35.095 24.1477 35.287 23.9336 35.4111L21.7114 36.6667L22.8225 38.5889L24.9891 37.3333C25.2038 37.209 25.4538 37.1601 25.6995 37.1943C25.9451 37.2285 26.1722 37.344 26.3447 37.5222C27.3304 38.5309 28.5766 39.2463 29.9447 39.5889C30.1892 39.6519 30.4049 39.7962 30.5564 39.9982C30.7079 40.2002 30.786 40.4477 30.7781 40.7V43.1333Z" fill="#FA4616"/>
<path d="M31.8888 36.4667C31.0098 36.4667 30.1505 36.206 29.4196 35.7176C28.6887 35.2293 28.119 34.5352 27.7827 33.723C27.4463 32.9109 27.3582 32.0173 27.5297 31.1552C27.7012 30.293 28.1245 29.5011 28.7461 28.8795C29.3677 28.258 30.1596 27.8347 31.0217 27.6632C31.8839 27.4917 32.7775 27.5797 33.5896 27.9161C34.4017 28.2525 35.0958 28.8221 35.5842 29.553C36.0726 30.2839 36.3332 31.1432 36.3332 32.0222C36.3332 33.201 35.865 34.3314 35.0315 35.1649C34.198 35.9984 33.0675 36.4667 31.8888 36.4667ZM31.8888 29.8C31.4493 29.8 31.0196 29.9303 30.6542 30.1745C30.2887 30.4187 30.0039 30.7657 29.8357 31.1718C29.6675 31.5779 29.6235 32.0247 29.7093 32.4557C29.795 32.8868 30.0067 33.2828 30.3174 33.5936C30.6282 33.9044 31.0242 34.116 31.4552 34.2018C31.8863 34.2875 32.3331 34.2435 32.7392 34.0753C33.1452 33.9071 33.4923 33.6223 33.7365 33.2568C33.9807 32.8914 34.111 32.4617 34.111 32.0222C34.111 31.4329 33.8769 30.8676 33.4601 30.4509C33.0434 30.0341 32.4782 29.8 31.8888 29.8Z" fill="#FA4616"/>
</svg>
