<svg width="64" height="64" viewBox="0 0 64 64" fill="none" xmlns="http://www.w3.org/2000/svg">
<path d="M26.0436 40.4882C23.1809 40.4882 20.3824 39.6393 18.0021 38.0488C15.6218 36.4584 13.7667 34.1978 12.6711 31.553C11.5756 28.9082 11.289 25.9979 11.8475 23.1902C12.406 20.3824 13.7845 17.8034 15.8087 15.7792C17.833 13.7549 20.4121 12.3763 23.2198 11.8178C26.0275 11.2593 28.9378 11.546 31.5826 12.6415C34.2275 13.737 36.488 15.5922 38.0785 17.9725C39.6689 20.3528 40.5178 23.1512 40.5178 26.014C40.5178 29.8528 38.9929 33.5344 36.2784 36.2488C33.564 38.9633 29.8824 40.4882 26.0436 40.4882V40.4882ZM26.0436 13.7665C23.6213 13.7665 21.2533 14.4848 19.2393 15.8306C17.2252 17.1764 15.6554 19.0891 14.7284 21.3271C13.8014 23.565 13.5589 26.0276 14.0315 28.4033C14.504 30.7791 15.6705 32.9613 17.3833 34.6742C19.0962 36.387 21.2785 37.5535 23.6542 38.0261C26.03 38.4986 28.4925 38.2561 30.7305 37.3291C32.9684 36.4021 34.8812 34.8324 36.227 32.8183C37.5727 30.8042 38.291 28.4363 38.291 26.014C38.291 22.7658 37.0007 19.6505 34.7038 17.3537C32.407 15.0569 29.2918 13.7665 26.0436 13.7665Z" fill="#FA4616"/>
<path d="M17.7824 30.4676C17.5713 30.466 17.3651 30.4045 17.1877 30.2901C17.0102 30.1758 16.869 30.0134 16.7804 29.8218C16.3011 28.6251 16.0555 27.3477 16.0566 26.0585C16.0566 25.7632 16.1739 25.4801 16.3828 25.2713C16.5916 25.0625 16.8748 24.9451 17.17 24.9451C17.4653 24.9451 17.7485 25.0625 17.9573 25.2713C18.1661 25.4801 18.2835 25.7632 18.2835 26.0585C18.283 27.061 18.4719 28.0545 18.8402 28.9868C18.9503 29.26 18.9477 29.5657 18.8329 29.837C18.7182 30.1083 18.5006 30.323 18.2278 30.4342C18.0831 30.4753 17.9316 30.4867 17.7824 30.4676V30.4676Z" fill="#404040"/>
<path d="M17.7823 23.7872C17.6375 23.789 17.4938 23.7625 17.3592 23.7093C17.0864 23.5981 16.8688 23.3834 16.754 23.1121C16.6392 22.8408 16.6366 22.5351 16.7468 22.2619C17.4949 20.4092 18.7798 18.8225 20.4364 17.7056C22.093 16.5886 24.0457 15.9924 26.0437 15.9934C26.339 15.9934 26.6222 16.1107 26.831 16.3195C27.0398 16.5283 27.1571 16.8115 27.1571 17.1068C27.1571 17.4021 27.0398 17.6853 26.831 17.8941C26.6222 18.1029 26.339 18.2202 26.0437 18.2202C24.4904 18.2205 22.9726 18.6849 21.6851 19.5538C20.3976 20.4227 19.3991 21.6565 18.8177 23.0969C18.7335 23.302 18.5899 23.4772 18.4054 23.6002C18.221 23.7232 18.004 23.7883 17.7823 23.7872Z" fill="#404040"/>
<path d="M52.7654 57C52.205 57.0023 51.6496 56.8933 51.1316 56.6793C50.6136 56.4652 50.1434 56.1503 49.7481 55.753L36.0644 42.0693C32.1129 44.5456 27.3883 45.4809 22.7914 44.6967C18.1945 43.9126 14.0471 41.4639 11.1401 37.8176C8.23307 34.1714 6.76984 29.5827 7.02946 24.9266C7.28909 20.2706 9.2534 15.873 12.5478 12.5726C15.8422 9.2721 20.2361 7.29967 24.8916 7.03145C29.5472 6.76323 34.1386 8.21795 37.7902 11.1182C41.4418 14.0185 43.8982 18.1614 44.6908 22.7568C45.4835 27.3522 44.5569 32.0786 42.0879 36.0346L55.7493 49.7183C56.3458 50.3141 56.7524 51.0732 56.9176 51.8999C57.0828 52.7266 56.9993 53.5837 56.6776 54.363C56.3559 55.1422 55.8105 55.8086 55.1102 56.2779C54.4099 56.7473 53.5862 56.9985 52.7431 57H52.7654ZM36.3316 39.1855L51.2957 54.1719C51.6821 54.5467 52.1993 54.7564 52.7376 54.7564C53.2759 54.7564 53.793 54.5467 54.1794 54.1719C54.5588 53.7902 54.7718 53.2739 54.7718 52.7357C54.7718 52.1975 54.5588 51.6811 54.1794 51.2993L39.193 36.313L39.7275 35.5447C42.1468 32.0509 43.1533 27.7704 42.5444 23.5645C42.0138 19.972 40.3267 16.6503 37.7388 14.1028C35.1509 11.5552 31.8031 9.92055 28.2027 9.4465C24.6023 8.97244 20.9456 9.68482 17.7864 11.4757C14.6272 13.2665 12.1379 16.0383 10.6955 19.371C9.25305 22.7037 8.93619 26.4157 9.79291 29.9447C10.6496 33.4736 12.6332 36.6272 15.4432 38.9276C18.2531 41.2279 21.7363 42.5498 25.3649 42.6928C28.9936 42.8358 32.57 41.7921 35.5522 39.72L36.3316 39.1855Z" fill="#404040"/>
</svg>
