<svg width="64" height="64" viewBox="0 0 64 64" fill="none" xmlns="http://www.w3.org/2000/svg">
<path d="M54.9167 47.5H9.08333C8.5308 47.5 8.00089 47.2805 7.61019 46.8898C7.21949 46.4991 7 45.9692 7 45.4167V12.0833C7 11.5308 7.21949 11.0009 7.61019 10.6102C8.00089 10.2195 8.5308 10 9.08333 10H54.9167C55.4692 10 55.9991 10.2195 56.3898 10.6102C56.7805 11.0009 57 11.5308 57 12.0833V45.4167C57 45.9692 56.7805 46.4991 56.3898 46.8898C55.9991 47.2805 55.4692 47.5 54.9167 47.5ZM9.08333 12.0833V45.4167H54.9167V12.0833H9.08333Z" fill="#404040"/>
<path d="M38.2498 48.5417H36.1665V52.7084H38.2498V48.5417Z" fill="#404040"/>
<path d="M28.8748 48.5417H26.7915V52.7084H28.8748V48.5417Z" fill="#404040"/>
<path d="M41.3748 51.6667H23.6665V53.75H41.3748V51.6667Z" fill="#404040"/>
<path d="M55.9582 39.1667H8.0415V41.25H55.9582V39.1667Z" fill="#404040"/>
<path d="M34.0835 42.2917H30.9585V44.375H34.0835V42.2917Z" fill="#404040"/>
<path d="M19.4998 14.1667H11.1665V16.25H19.4998V14.1667Z" fill="#FA4616"/>
<path d="M18.4585 18.3333H15.3335V20.4167H18.4585V18.3333Z" fill="#404040"/>
<path d="M32 18.3333H19.5V20.4167H32V18.3333Z" fill="#FA4616"/>
<path d="M24.7085 22.5H15.3335V24.5833H24.7085V22.5Z" fill="#404040"/>
<path d="M29.9167 22.5H25.75V24.5833H29.9167V22.5Z" fill="#404040"/>
<path d="M18.4585 30.8333H15.3335V32.9167H18.4585V30.8333Z" fill="#404040"/>
<path d="M39.2917 30.8333H19.5V32.9167H39.2917V30.8333Z" fill="#FA4616"/>
<path d="M24.7085 35H15.3335V37.0833H24.7085V35Z" fill="#404040"/>
<path d="M29.9167 35H25.75V37.0833H29.9167V35Z" fill="#404040"/>
<path d="M20.5415 26.6667H11.1665V28.75H20.5415V26.6667Z" fill="#FA4616"/>
</svg>
