<svg width="64" height="64" viewBox="0 0 64 64" fill="none" xmlns="http://www.w3.org/2000/svg">
<path d="M46.6545 56.0769C45.7859 56.0762 44.9531 55.7305 44.3392 55.1159L41.2485 52.0251L42.7884 50.4852L45.8791 53.5759C46.0837 53.7793 46.3605 53.8935 46.649 53.8935C46.9376 53.8935 47.2144 53.7793 47.419 53.5759L50.5097 50.4852C50.7131 50.2805 50.8272 50.0038 50.8272 49.7153C50.8272 49.4268 50.7131 49.15 50.5097 48.9454L47.419 45.8546L48.9698 44.3039L52.0605 47.3945C52.674 48.0088 53.0186 48.8416 53.0186 49.7098C53.0186 50.578 52.674 51.4108 52.0605 52.0251L48.9698 55.1159C48.3559 55.7305 47.5231 56.0762 46.6545 56.0769V56.0769Z" fill="#FA4616"/>
<path d="M42.0133 52.8006L30.3276 41.0057L31.8784 39.4658L42.0242 49.7098L46.6547 45.0793L36.4872 34.8024L38.038 33.2626L49.7345 45.0793L42.0133 52.8006Z" fill="#404040"/>
<path d="M22.6828 33.3609L10.8552 21.7189L7 10.1316L18.5764 13.9977L30.4477 25.6724L28.9187 27.2341L17.4079 15.9089L10.4511 13.5936L12.7664 20.5395L24.2226 31.81L22.6828 33.3609Z" fill="#404040"/>
<path d="M45.8357 22.2214C44.6991 22.2199 43.5982 21.8244 42.7204 21.1024C41.8426 20.3804 41.2421 19.3765 41.0214 18.2616C40.8006 17.1466 40.9731 15.9895 41.5094 14.9875C42.0458 13.9854 42.913 13.2004 43.9632 12.7658C45.0134 12.3312 46.1818 12.274 47.2694 12.6041C48.357 12.9341 49.2966 13.631 49.9282 14.5759C50.5597 15.5209 50.8443 16.6555 50.7333 17.7867C50.6223 18.9179 50.1227 19.9756 49.3195 20.7797V20.7797C48.8627 21.238 48.3196 21.6014 47.7217 21.8488C47.1237 22.0962 46.4828 22.2229 45.8357 22.2214V22.2214ZM45.8357 14.5766C45.387 14.5774 44.9455 14.6887 44.5501 14.9007C44.1547 15.1127 43.8177 15.419 43.5689 15.7923C43.32 16.1656 43.1669 16.5944 43.1233 17.0409C43.0796 17.4874 43.1466 17.9379 43.3184 18.3524C43.4902 18.7668 43.7615 19.1325 44.1082 19.4171C44.455 19.7018 44.8666 19.8966 45.3066 19.9844C45.7465 20.0721 46.2014 20.0501 46.6308 19.9203C47.0603 19.7904 47.4511 19.5567 47.7687 19.2398V19.2398C48.023 18.9862 48.2247 18.685 48.3624 18.3533C48.5 18.0216 48.5708 17.666 48.5708 17.3069C48.5708 16.9478 48.5 16.5921 48.3624 16.2604C48.2247 15.9287 48.023 15.6275 47.7687 15.3738C47.2537 14.8651 46.5596 14.5789 45.8357 14.5766V14.5766Z" fill="#FA4616"/>
<path d="M19.6025 56.9942C19.458 56.9936 19.3151 56.9644 19.182 56.9081C19.0489 56.8519 18.9283 56.7697 18.8271 56.6665L15.7473 53.5978L15.2231 54.1438C14.8699 54.5054 14.4489 54.7936 13.9842 54.9922C13.5194 55.1909 13.0201 55.296 12.5147 55.3014V55.3014C11.765 55.3003 11.0322 55.078 10.4082 54.6626C9.78414 54.2471 9.29647 53.6568 9.00622 52.9656C8.71597 52.2743 8.63602 51.5129 8.77638 50.7764C8.91674 50.04 9.27117 49.3613 9.79532 48.8252L36.3555 21.4349C35.4099 19.2208 35.2646 16.7467 35.9446 14.4372C36.6245 12.1277 38.0873 10.1269 40.0818 8.7784C42.0762 7.42992 44.4779 6.81775 46.8745 7.04718C49.2711 7.2766 51.513 8.33331 53.2154 10.0357C54.9178 11.7381 55.9744 13.98 56.2038 16.3765C56.4333 18.7731 55.8212 21.1749 54.4727 23.1693C53.1242 25.1638 51.1234 26.6265 48.8139 27.3065C46.5044 27.9864 44.0302 27.8411 41.8161 26.8955L26.603 42.8077L29.7155 45.9092C29.9151 46.1185 30.0282 46.3954 30.0322 46.6846C30.033 46.8283 30.0055 46.9708 29.9511 47.1039C29.8968 47.2369 29.8167 47.358 29.7155 47.4601L26.6248 50.5507C26.5228 50.6519 26.4017 50.7321 26.2687 50.7864C26.1356 50.8408 25.9931 50.8683 25.8494 50.8675V50.8675C25.5602 50.8635 25.2833 50.7503 25.074 50.5507L21.9942 47.4601L20.4434 48.9999L23.5341 52.0906C23.6365 52.1922 23.7177 52.313 23.7732 52.4461C23.8286 52.5791 23.8572 52.7218 23.8572 52.866C23.8572 53.0102 23.8286 53.1529 23.7732 53.2859C23.7177 53.419 23.6365 53.5398 23.5341 53.6414L20.4434 56.7212C20.33 56.8228 20.1967 56.8996 20.0518 56.9466C19.907 56.9937 19.754 57.0099 19.6025 56.9942V56.9942ZM15.7364 50.9439C16.0256 50.9479 16.3025 51.0611 16.5118 51.2606L19.6025 54.3513L21.1424 52.8113L18.0517 49.7207C17.8483 49.5161 17.7341 49.2393 17.7341 48.9508C17.7341 48.6623 17.8483 48.3854 18.0517 48.1808L21.1424 45.0902C21.347 44.8867 21.6238 44.7726 21.9123 44.7726C22.2009 44.7726 22.4777 44.8867 22.6823 45.0902L25.773 48.1808L27.3238 46.6301L24.2331 43.5393C24.033 43.3352 23.9209 43.0607 23.9209 42.7749C23.9209 42.489 24.033 42.2146 24.2331 42.0104L40.724 24.755C40.8886 24.5838 41.1045 24.4709 41.3391 24.4334C41.5736 24.396 41.8139 24.436 42.0236 24.5474C43.757 25.4649 45.7621 25.73 47.6744 25.2945C49.5867 24.859 51.2792 23.7518 52.4443 22.1741C53.6094 20.5965 54.1698 18.6532 54.0236 16.6974C53.8773 14.7416 53.0341 12.9032 51.6473 11.5164C50.2605 10.1296 48.4221 9.28648 46.4663 9.14022C44.5105 8.99396 42.5672 9.55421 40.9895 10.7193C39.4119 11.8845 38.3047 13.5771 37.8691 15.4893C37.4336 17.4016 37.6987 19.4066 38.6162 21.14C38.724 21.3428 38.765 21.5744 38.7337 21.8018C38.7023 22.0292 38.6001 22.2409 38.4415 22.4069L11.3461 50.3433C11.0433 50.6481 10.8734 51.0603 10.8734 51.4899C10.8734 51.9196 11.0433 52.3319 11.3461 52.6367C11.6621 52.9302 12.0728 53.1007 12.5038 53.1172C12.7201 53.1187 12.9344 53.0758 13.1335 52.9913C13.3326 52.9068 13.5122 52.7824 13.6614 52.6258L14.961 51.2825C15.0612 51.1773 15.1815 51.0932 15.3146 51.0351C15.4477 50.9769 15.5912 50.9459 15.7364 50.9439Z" fill="#404040"/>
</svg>
