<svg width="64" height="64" viewBox="0 0 64 64" fill="none" xmlns="http://www.w3.org/2000/svg">
<path d="M54.7447 53.8085H46.234V51.6809H53.6809V9.12766H11.1277V51.6809H22.8298V53.8085H10.0638C9.78168 53.8085 9.51109 53.6964 9.31159 53.4969C9.11208 53.2974 9 53.0268 9 52.7447V8.06383C9 7.78168 9.11208 7.51109 9.31159 7.31159C9.51109 7.11208 9.78168 7 10.0638 7H54.7447C55.0268 7 55.2974 7.11208 55.4969 7.31159C55.6964 7.51109 55.8085 7.78168 55.8085 8.06383V52.7447C55.8085 53.0268 55.6964 53.2974 55.4969 53.4969C55.2974 53.6964 55.0268 53.8085 54.7447 53.8085Z" fill="#404040"/>
<path d="M54.7448 13.383H10.064V15.5106H54.7448V13.383Z" fill="#404040"/>
<path d="M15.383 10.1915H13.2554V12.3191H15.383V10.1915Z" fill="#404040"/>
<path d="M19.6384 10.1915H17.5107V12.3191H19.6384V10.1915Z" fill="#404040"/>
<path d="M50.4895 36.7872H35.5959V34.6596H48.3619V20.8298H16.447V34.6596H27.0853V36.7872H14.3193V18.7021H50.4895V36.7872Z" fill="#FA4616"/>
<path d="M41.9782 57H29.2122C29.0342 56.9997 28.8591 56.9548 28.703 56.8693C28.5469 56.7838 28.4147 56.6605 28.3186 56.5106C28.042 56.0851 24.3399 51.0532 22.7548 48.9043L21.7654 47.5638C20.1803 45.4362 20.8292 43.8723 21.1803 43.3085C21.4897 42.8364 21.9348 42.4689 22.4569 42.2544C22.979 42.0398 23.5538 41.9882 24.1058 42.1064C25.3611 42.3617 27.1165 43.8723 28.1484 44.8404V33.5957C28.1484 32.7493 28.4846 31.9376 29.0831 31.339C29.6817 30.7405 30.4934 30.4043 31.3399 30.4043C32.1863 30.4043 32.9981 30.7405 33.5966 31.339C34.1951 31.9376 34.5314 32.7493 34.5314 33.5957V39.1383C36.5739 39.6702 41.0845 40.8511 41.8186 41.1596C42.4717 41.3714 43.0428 41.7811 43.4526 42.332C43.8624 42.8829 44.0907 43.5476 44.1058 44.234V51.6808C44.1058 52.4468 43.5207 57 41.9782 57ZM29.7654 54.8723H41.2973C41.7146 53.8582 41.9452 52.777 41.9782 51.6808V44.234C41.9782 43.6383 41.4569 43.3085 41.0101 43.1702C40.4569 42.9362 35.925 41.7447 33.2016 41.0425C32.9675 40.9822 32.761 40.844 32.6159 40.6507C32.4709 40.4573 32.396 40.2203 32.4037 39.9787V33.5957C32.4037 33.3136 32.2916 33.043 32.0921 32.8435C31.8926 32.644 31.622 32.5319 31.3399 32.5319C31.0577 32.5319 30.7871 32.644 30.5876 32.8435C30.3881 33.043 30.276 33.3136 30.276 33.5957V46.3617C30.276 46.6438 30.164 46.9144 29.9644 47.114C29.7649 47.3135 29.4943 47.4255 29.2122 47.4255H28.1484C28.0051 47.425 27.8634 47.3955 27.7317 47.3388C27.6001 47.2821 27.4813 47.1995 27.3824 47.0957C26.3405 45.9106 25.0846 44.9325 23.6803 44.2128C23.5485 44.1826 23.4107 44.1916 23.284 44.2389C23.1574 44.2862 23.0473 44.3696 22.9675 44.4787C22.7867 44.766 22.8186 45.4043 23.4888 46.3085L24.4675 47.6383C27.0633 51.1702 28.9994 53.7979 29.8186 54.8723H29.7654Z" fill="#404040"/>
<path d="M21.7661 38.9149H14.3193V41.0425H21.7661V38.9149Z" fill="#404040"/>
<path d="M18.5747 43.1702H14.3193V45.2979H18.5747V43.1702Z" fill="#404040"/>
</svg>
