<svg width="64" height="64" viewBox="0 0 64 64" fill="none" xmlns="http://www.w3.org/2000/svg">
<path d="M55.9132 45.9565H16.7828C16.4945 45.9565 16.218 45.842 16.0142 45.6382C15.8103 45.4343 15.6958 45.1579 15.6958 44.8696V10.087C15.6958 9.79868 15.8103 9.52221 16.0142 9.31836C16.218 9.11452 16.4945 9 16.7828 9H55.9132C56.2015 9 56.4779 9.11452 56.6818 9.31836C56.8856 9.52221 57.0001 9.79868 57.0001 10.087V44.8696C57.0001 45.1579 56.8856 45.4343 56.6818 45.6382C56.4779 45.842 56.2015 45.9565 55.9132 45.9565ZM17.8697 43.7826H54.8262V11.1739H17.8697V43.7826Z" fill="#404040"/>
<path d="M49.3913 54.6522H8.08696C7.79868 54.6522 7.52221 54.5377 7.31836 54.3338C7.11452 54.13 7 53.8535 7 53.5652V16.6087C7 16.3204 7.11452 16.0439 7.31836 15.8401C7.52221 15.6362 7.79868 15.5217 8.08696 15.5217H14.6087V17.6956H9.17391V52.4783H48.3043V47.0435H50.4783V53.5652C50.4783 53.8535 50.3637 54.13 50.1599 54.3338C49.956 54.5377 49.6796 54.6522 49.3913 54.6522Z" fill="#404040"/>
<path d="M55.9131 15.5217H16.7827V17.6956H55.9131V15.5217Z" fill="#404040"/>
<path d="M22.2174 12.2609H20.0435V14.4348H22.2174V12.2609Z" fill="#FA4616"/>
<path d="M26.565 12.2609H24.3911V14.4348H26.565V12.2609Z" fill="#FA4616"/>
<path d="M30.9132 12.2609H28.7393V14.4348H30.9132V12.2609Z" fill="#FA4616"/>
<path d="M14.6086 20.9565H8.08691V23.1304H14.6086V20.9565Z" fill="#404040"/>
</svg>
