<svg width="64" height="64" viewBox="0 0 64 64" fill="none" xmlns="http://www.w3.org/2000/svg">
<path d="M52.8335 57H28.8752C27.7701 57 26.7103 56.561 25.9289 55.7796C25.1475 54.9982 24.7085 53.9384 24.7085 52.8333V11.1667C24.7085 10.0616 25.1475 9.00179 25.9289 8.22039C26.7103 7.43898 27.7701 7 28.8752 7H52.8335C53.9386 7 54.9984 7.43898 55.7798 8.22039C56.5612 9.00179 57.0002 10.0616 57.0002 11.1667V52.8333C57.0002 53.9384 56.5612 54.9982 55.7798 55.7796C54.9984 56.561 53.9386 57 52.8335 57ZM28.8752 9.08333C28.3226 9.08333 27.7927 9.30286 27.402 9.69356C27.0113 10.0843 26.7918 10.6141 26.7918 11.1667V52.8333C26.7918 53.3859 27.0113 53.9158 27.402 54.3065C27.7927 54.6972 28.3226 54.9167 28.8752 54.9167H52.8335C53.386 54.9167 53.9159 54.6972 54.3066 54.3065C54.6973 53.9158 54.9168 53.3859 54.9168 52.8333V11.1667C54.9168 10.6141 54.6973 10.0843 54.3066 9.69356C53.9159 9.30286 53.386 9.08333 52.8335 9.08333H28.8752Z" fill="#404040"/>
<path d="M43.4583 50.75H38.25V52.8333H43.4583V50.75Z" fill="#404040"/>
<path d="M43.4578 26.7917H38.2495C37.9732 26.7917 37.7083 26.682 37.5129 26.4866C37.3176 26.2913 37.2078 26.0263 37.2078 25.75V23.0313C36.8522 22.9063 36.5044 22.7602 36.1662 22.5938L34.2495 24.5208C34.1527 24.6185 34.0375 24.696 33.9105 24.7489C33.7836 24.8018 33.6474 24.829 33.5099 24.829C33.3724 24.829 33.2363 24.8018 33.1093 24.7489C32.9824 24.696 32.8672 24.6185 32.7703 24.5208L29.0933 20.8334C28.9948 20.7369 28.9165 20.6218 28.8629 20.4949C28.8093 20.3679 28.7813 20.2316 28.7808 20.0938C28.7847 19.819 28.897 19.557 29.0933 19.3646L30.9995 17.4584C30.8148 17.1247 30.658 16.7763 30.5308 16.4167H28.8745V14.3334H31.312C31.5542 14.328 31.7908 14.4072 31.9809 14.5574C32.171 14.7076 32.3029 14.9194 32.3537 15.1563C32.5053 15.8524 32.7804 16.5157 33.1662 17.1146C33.2825 17.3192 33.331 17.5555 33.3048 17.7894C33.2786 18.0233 33.179 18.2429 33.0203 18.4167L31.3016 20.1355L33.5099 22.3542L35.2287 20.625C35.3909 20.462 35.6025 20.3572 35.8305 20.3271C36.0585 20.2969 36.2901 20.3431 36.4891 20.4584C37.144 20.8288 37.8443 21.1124 38.5724 21.3021C38.7997 21.3632 38.9996 21.4993 39.1395 21.6885C39.2795 21.8776 39.3513 22.1086 39.3433 22.3438V24.7813H42.4683V22.3438C42.4602 22.1086 42.532 21.8776 42.672 21.6885C42.812 21.4993 43.0118 21.3632 43.2391 21.3021C43.9681 21.1152 44.6688 20.8314 45.3224 20.4584C45.5204 20.3457 45.7498 20.3009 45.9755 20.331C46.2013 20.3611 46.4109 20.4644 46.5724 20.625L48.2183 22.3125L50.4266 20.0938L48.7078 18.375C48.5432 18.2141 48.4365 18.003 48.4044 17.775C48.3724 17.5469 48.4168 17.3147 48.5308 17.1146C48.9323 16.5053 49.2183 15.8274 49.3745 15.1146C49.4253 14.8777 49.5572 14.6659 49.7473 14.5157C49.9374 14.3655 50.1739 14.2863 50.4162 14.2917H52.8537V16.375H51.187C51.0667 16.7356 50.9133 17.0843 50.7287 17.4167L52.6349 19.3229C52.8312 19.5153 52.9435 19.7774 52.9474 20.0521C52.9469 20.1899 52.9189 20.3263 52.8653 20.4532C52.8117 20.5802 52.7334 20.6952 52.6349 20.7917L48.9578 24.4792C48.8605 24.5757 48.7451 24.6521 48.6182 24.704C48.4912 24.7558 48.3554 24.7821 48.2183 24.7813V24.7813C48.0812 24.7821 47.9453 24.7558 47.8184 24.704C47.6914 24.6521 47.576 24.5757 47.4787 24.4792L45.562 22.5521C45.2238 22.7186 44.876 22.8646 44.5203 22.9896V25.7084C44.5261 25.8504 44.5027 25.9921 44.4516 26.1247C44.4005 26.2574 44.3227 26.3781 44.2232 26.4796C44.1237 26.5811 44.0044 26.6611 43.8728 26.7148C43.7412 26.7685 43.6 26.7946 43.4578 26.7917Z" fill="#FA4616"/>
<path d="M40.9268 16.8958C39.6844 16.8931 38.4937 16.3983 37.6152 15.5199C36.7368 14.6414 36.242 13.4507 36.2393 12.2083H38.3226C38.3226 12.899 38.597 13.5614 39.0853 14.0498C39.5737 14.5382 40.2361 14.8125 40.9268 14.8125C41.6174 14.8125 42.2798 14.5382 42.7682 14.0498C43.2566 13.5614 43.5309 12.899 43.5309 12.2083H45.6143C45.6143 13.4515 45.1204 14.6438 44.2413 15.5229C43.3622 16.402 42.17 16.8958 40.9268 16.8958Z" fill="#FA4616"/>
<path d="M55.9583 46.5833H25.75V48.6667H55.9583V46.5833Z" fill="#404040"/>
<path d="M23.6667 48.6667H20.5417C20.2654 48.6667 20.0004 48.557 19.8051 48.3616C19.6097 48.1663 19.5 47.9013 19.5 47.625V44.8542C18.8157 44.634 18.1503 44.3588 17.5104 44.0313L15.5625 45.9792C15.3673 46.1732 15.1033 46.2821 14.8281 46.2821C14.5529 46.2821 14.2889 46.1732 14.0938 45.9792L9.67708 41.5833C9.57945 41.4865 9.50196 41.3713 9.44907 41.2444C9.39619 41.1175 9.36896 40.9813 9.36896 40.8438C9.36896 40.7063 9.39619 40.5701 9.44907 40.4432C9.50196 40.3163 9.57945 40.201 9.67708 40.1042L11.625 38.1563C11.2975 37.5164 11.0223 36.851 10.8021 36.1667H8.04167C7.7654 36.1667 7.50045 36.057 7.3051 35.8616C7.10975 35.6663 7 35.4013 7 35.125V28.875C7 28.5987 7.10975 28.3338 7.3051 28.1384C7.50045 27.9431 7.7654 27.8333 8.04167 27.8333H10.7917C11.0137 27.1497 11.2889 26.4845 11.6146 25.8438L9.67708 23.8959C9.48307 23.7007 9.37417 23.4367 9.37417 23.1615C9.37417 22.8863 9.48307 22.6222 9.67708 22.4271L14.1042 18.0104C14.2993 17.8164 14.5634 17.7075 14.8385 17.7075C15.1137 17.7075 15.3777 17.8164 15.5729 18.0104L17.5208 19.9583C18.1587 19.6265 18.8245 19.3511 19.5104 19.1354V16.375C19.5104 16.0987 19.6202 15.8338 19.8155 15.6384C20.0109 15.4431 20.2758 15.3333 20.5521 15.3333H23.6771V17.4167H21.5937V19.9167C21.6012 20.1532 21.5279 20.3853 21.3859 20.5747C21.2439 20.764 21.0417 20.8993 20.8125 20.9584C19.7793 21.2294 18.7876 21.6394 17.8646 22.1771C17.6667 22.2937 17.4358 22.3415 17.2078 22.3133C16.9799 22.285 16.7676 22.1822 16.6042 22.0209L14.8333 20.2605L11.8958 23.2083L13.6562 24.9687C13.8176 25.1322 13.9204 25.3445 13.9487 25.5724C13.9769 25.8004 13.9291 26.0313 13.8125 26.2292C13.2724 27.151 12.8622 28.143 12.5937 29.1771C12.5347 29.4063 12.3994 29.6085 12.21 29.7505C12.0207 29.8925 11.7886 29.9659 11.5521 29.9584H9.08333V34.125H11.5729C11.8095 34.1176 12.0415 34.1908 12.2309 34.3328C12.4202 34.4748 12.5555 34.6771 12.6146 34.9063C12.8883 35.9271 13.302 36.9051 13.8438 37.8125C13.9629 38.0115 14.0122 38.2446 13.9839 38.4748C13.9556 38.705 13.8513 38.9192 13.6875 39.0834L11.9271 40.8438L14.8229 43.8125L16.5937 42.0521C16.756 41.8891 16.9676 41.7843 17.1956 41.7542C17.4236 41.724 17.6551 41.7702 17.8542 41.8855C18.7752 42.4272 19.7674 42.8374 20.8021 43.1042C21.0313 43.1632 21.2335 43.2986 21.3755 43.4879C21.5175 43.6772 21.5908 43.9093 21.5833 44.1459V46.6355H23.6667V48.6667Z" fill="#404040"/>
<path d="M23.6667 39.2917C21.7328 39.2917 19.8781 38.5235 18.5107 37.156C17.1432 35.7886 16.375 33.9339 16.375 32C16.375 30.0661 17.1432 28.2115 18.5107 26.8441C19.8781 25.4766 21.7328 24.7083 23.6667 24.7083V26.7917C22.2853 26.7917 20.9606 27.3404 19.9838 28.3172C19.0071 29.2939 18.4583 30.6187 18.4583 32C18.4583 33.3813 19.0071 34.7061 19.9838 35.6829C20.9606 36.6596 22.2853 37.2083 23.6667 37.2083V39.2917Z" fill="#404040"/>
</svg>
