<svg width="64" height="64" viewBox="0 0 64 64" fill="none" xmlns="http://www.w3.org/2000/svg">
<path d="M29.7273 52.4545C25.2323 52.4545 20.8382 51.1216 17.1007 48.6243C13.3632 46.127 10.4502 42.5775 8.73003 38.4246C7.00985 34.2718 6.55977 29.7021 7.43671 25.2934C8.31364 20.8847 10.4782 16.8352 13.6567 13.6567C16.8351 10.4782 20.8847 8.31366 25.2934 7.43672C29.7021 6.55979 34.2718 7.0098 38.4246 8.72998C42.5775 10.4501 46.127 13.3632 48.6243 17.1007C51.1216 20.8382 52.4546 25.2322 52.4546 29.7272C52.4542 31.335 52.2867 32.9383 51.9546 34.5114L49.6818 34.0341C49.987 32.6189 50.1394 31.175 50.1364 29.7272C50.1364 25.6817 48.9368 21.7271 46.6892 18.3633C44.4416 14.9996 41.247 12.3779 37.5095 10.8297C33.7719 9.28157 29.6591 8.87651 25.6914 9.66576C21.7236 10.455 18.0789 12.4031 15.2183 15.2637C12.3577 18.1243 10.4096 21.769 9.62031 25.7368C8.83107 29.7046 9.23615 33.8173 10.7843 37.5549C12.3325 41.2924 14.9542 44.487 18.3179 46.7346C21.6816 48.9822 25.6363 50.1818 29.6818 50.1818L29.7273 52.4545Z" fill="#404040"/>
<path d="M29.7272 52.4545C22.6818 52.4545 17.1704 42.4773 17.1704 29.7273C17.1704 16.9773 22.6818 7 29.7272 7C36.7727 7 42.2841 16.9886 42.2841 29.7273C42.2841 30.8636 42.284 32.0796 42.1363 33.2273L39.8636 33.0455C39.9545 31.9091 40 30.8409 40 29.7273C40 18.6364 35.2954 9.27273 29.7159 9.27273C24.1363 9.27273 19.4318 18.6364 19.4318 29.7273C19.4318 40.8182 24.1363 50.1818 29.7159 50.1818C30.7382 50.1692 31.7371 49.8743 32.6022 49.3295L33.7386 51.2841C32.5317 52.0294 31.1455 52.4339 29.7272 52.4545Z" fill="#404040"/>
<path d="M50.1816 20.6364H9.27246V22.9091H50.1816V20.6364Z" fill="#404040"/>
<path d="M33.1365 37.6818H10.4092V39.9545H33.1365V37.6818Z" fill="#404040"/>
<path d="M30.8635 8.13637H28.5908V51.3182H30.8635V8.13637Z" fill="#404040"/>
<path d="M45.6592 50.1818C44.7602 50.1818 43.8814 49.9152 43.1339 49.4158C42.3864 48.9163 41.8038 48.2065 41.4598 47.3759C41.1157 46.5453 41.0257 45.6314 41.2011 44.7496C41.3765 43.8679 41.8094 43.058 42.4451 42.4223C43.0808 41.7866 43.8907 41.3537 44.7725 41.1783C45.6542 41.0029 46.5681 41.0929 47.3987 41.437C48.2293 41.781 48.9392 42.3636 49.4386 43.1111C49.9381 43.8586 50.2047 44.7374 50.2047 45.6364C50.2047 46.8419 49.7258 47.9981 48.8734 48.8505C48.0209 49.703 46.8648 50.1818 45.6592 50.1818ZM45.6592 43.3637C45.2097 43.3637 44.7703 43.497 44.3966 43.7467C44.0228 43.9965 43.7315 44.3514 43.5595 44.7667C43.3875 45.182 43.3425 45.6389 43.4302 46.0798C43.5179 46.5207 43.7343 46.9256 44.0522 47.2435C44.37 47.5613 44.775 47.7778 45.2158 47.8655C45.6567 47.9532 46.1137 47.9082 46.529 47.7361C46.9442 47.5641 47.2992 47.2728 47.5489 46.8991C47.7987 46.5253 47.932 46.0859 47.932 45.6364C47.938 45.3341 47.8837 45.0337 47.7722 44.7527C47.6607 44.4717 47.4943 44.2158 47.2826 43.9999C47.071 43.784 46.8183 43.6125 46.5396 43.4954C46.2609 43.3784 45.9616 43.3182 45.6592 43.3182V43.3637Z" fill="#FA4616"/>
<path d="M47.9094 57H43.364C43.0626 57 42.7735 56.8803 42.5604 56.6672C42.3473 56.4541 42.2276 56.165 42.2276 55.8636V54.0227C41.4581 53.7107 40.7354 53.2939 40.0799 52.7841L38.489 53.7046C38.3596 53.7794 38.2166 53.8279 38.0685 53.8474C37.9203 53.8669 37.7697 53.857 37.6253 53.8182C37.4802 53.7794 37.3442 53.7122 37.2253 53.6205C37.1063 53.5289 37.0067 53.4146 36.9322 53.2841L34.6594 49.3523C34.5843 49.2226 34.5356 49.0793 34.516 48.9307C34.4965 48.7821 34.5066 48.6311 34.5456 48.4864C34.5847 48.3417 34.652 48.2061 34.7437 48.0875C34.8354 47.969 34.9497 47.8697 35.0799 47.7955L36.6708 46.875C36.6032 46.458 36.5691 46.0362 36.5685 45.6137C36.5705 45.203 36.6009 44.7929 36.6594 44.3864L35.0799 43.4773C34.9495 43.4028 34.8351 43.3032 34.7434 43.1842C34.6517 43.0652 34.5846 42.9292 34.5458 42.7841C34.507 42.6397 34.4971 42.4891 34.5166 42.341C34.5361 42.1928 34.5846 42.0499 34.6594 41.9205L36.9322 37.9887C37.0067 37.8582 37.1063 37.7439 37.2253 37.6522C37.3442 37.5605 37.4802 37.4933 37.6253 37.4545C37.7697 37.4157 37.9203 37.4058 38.0685 37.4253C38.2166 37.4448 38.3596 37.4934 38.489 37.5682L40.0458 38.4773C40.7091 37.9488 41.4436 37.5166 42.2276 37.1932V35.4091C42.2276 35.1077 42.3473 34.8187 42.5604 34.6056C42.7735 34.3925 43.0626 34.2727 43.364 34.2727H47.9094C48.2108 34.2727 48.4998 34.3925 48.713 34.6056C48.9261 34.8187 49.0458 35.1077 49.0458 35.4091V37.1818C49.8392 37.5027 50.5848 37.9309 51.2617 38.4545L52.7844 37.5682C52.9138 37.4934 53.0567 37.4448 53.2049 37.4253C53.3531 37.4058 53.5037 37.4157 53.6481 37.4545C53.7932 37.4933 53.9291 37.5605 54.0481 37.6522C54.1671 37.7439 54.2667 37.8582 54.3412 37.9887L56.614 41.9205C56.6888 42.0499 56.7373 42.1928 56.7568 42.341C56.7763 42.4891 56.7664 42.6397 56.7276 42.7841C56.6888 42.9292 56.6216 43.0652 56.53 43.1842C56.4383 43.3032 56.3239 43.4028 56.1935 43.4773L54.6594 44.3636C54.7232 44.7772 54.7536 45.1953 54.7503 45.6137C54.7475 46.047 54.7171 46.4796 54.6594 46.9091L56.1935 47.7955C56.3237 47.8697 56.438 47.969 56.5296 48.0875C56.6213 48.2061 56.6887 48.3417 56.7277 48.4864C56.7668 48.6311 56.7769 48.7821 56.7574 48.9307C56.7378 49.0793 56.6891 49.2226 56.614 49.3523L54.3412 53.2841C54.2667 53.4146 54.1671 53.5289 54.0481 53.6205C53.9291 53.7122 53.7932 53.7794 53.6481 53.8182C53.5037 53.857 53.3531 53.8669 53.2049 53.8474C53.0567 53.8279 52.9138 53.7794 52.7844 53.7046L51.2162 52.7954C50.5519 53.3073 49.8219 53.7278 49.0458 54.0455V55.8636C49.0458 56.165 48.9261 56.4541 48.713 56.6672C48.4998 56.8803 48.2108 57 47.9094 57V57ZM44.5003 54.7273H46.7731V53.2386C46.763 52.9851 46.838 52.7354 46.9863 52.5295C47.1346 52.3235 47.3476 52.1731 47.5913 52.1023C48.6102 51.7993 49.5441 51.2623 50.3185 50.5341C50.4969 50.3695 50.7234 50.2663 50.9647 50.2397C51.206 50.2131 51.4494 50.2645 51.6594 50.3864L52.9435 51.125L54.0799 49.1478L52.8185 48.4205C52.6066 48.2975 52.4402 48.1094 52.344 47.8841C52.2477 47.6589 52.2268 47.4086 52.2844 47.1705C52.4089 46.6454 52.4737 46.1078 52.4776 45.5682C52.4779 45.0402 52.4169 44.5139 52.2958 44C52.2382 43.7619 52.2591 43.5116 52.3553 43.2864C52.4516 43.0611 52.618 42.873 52.8299 42.75L54.0799 42.0341L52.9435 40.0568L51.6935 40.7841C51.4824 40.9045 51.2382 40.954 50.9969 40.9254C50.7555 40.8967 50.5297 40.7915 50.3526 40.625C49.5737 39.8801 48.6264 39.3343 47.5913 39.0341C47.3476 38.9632 47.1346 38.8129 46.9863 38.6069C46.838 38.401 46.763 38.1513 46.7731 37.8977V36.4546H44.5003V37.9091C44.4986 38.1516 44.4194 38.3872 44.2742 38.5814C44.1291 38.7756 43.9256 38.9183 43.6935 38.9887C42.6714 39.3016 41.7372 39.8504 40.9662 40.5909C40.7882 40.7599 40.5603 40.8668 40.3166 40.8955C40.0728 40.9241 39.8263 40.8731 39.614 40.75L38.3299 40.0114L37.1935 41.9887L38.489 42.7273C38.7029 42.8486 38.8717 43.0359 38.9701 43.2613C39.0684 43.4867 39.091 43.738 39.0344 43.9773C38.9101 44.4832 38.8453 45.0018 38.8412 45.5228C38.8452 46.0549 38.91 46.5849 39.0344 47.1023C39.092 47.3404 39.0711 47.5907 38.9749 47.8159C38.8786 48.0412 38.7122 48.2293 38.5003 48.3523L37.1935 49.1023L38.3299 51.0796L39.648 50.3182C39.8592 50.1978 40.1034 50.1483 40.3447 50.177C40.5861 50.2056 40.8118 50.3109 40.989 50.4773C41.7568 51.2024 42.6827 51.7393 43.6935 52.0455C43.9351 52.1184 44.1455 52.2697 44.2916 52.4754C44.4377 52.6812 44.5111 52.9297 44.5003 53.1818V54.7273Z" fill="#FA4616"/>
</svg>
