<svg width="64" height="64" viewBox="0 0 64 64" fill="none" xmlns="http://www.w3.org/2000/svg">
<path d="M46.1045 56.8811H14.6033C14.3152 56.8811 14.039 56.7667 13.8352 56.563C13.6315 56.3592 13.5171 56.083 13.5171 55.7949V52.5361C13.5171 52.248 13.6315 51.9717 13.8352 51.768C14.039 51.5643 14.3152 51.4499 14.6033 51.4499C14.8914 51.4499 15.1677 51.5643 15.3714 51.768C15.5751 51.9717 15.6896 52.248 15.6896 52.5361V54.7086H45.0183V10.1725H15.9611V17.4503C15.9611 17.7384 15.8467 18.0147 15.643 18.2184C15.4393 18.4222 15.163 18.5366 14.8749 18.5366C14.5868 18.5366 14.3105 18.4222 14.1068 18.2184C13.9031 18.0147 13.7887 17.7384 13.7887 17.4503V9.08625C13.7887 8.79816 13.9031 8.52185 14.1068 8.31814C14.3105 8.11443 14.5868 8 14.8749 8H46.1045C46.3926 8 46.6689 8.11443 46.8726 8.31814C47.0763 8.52185 47.1908 8.79816 47.1908 9.08625V55.7949C47.1908 56.083 47.0763 56.3592 46.8726 56.563C46.6689 56.7667 46.3926 56.8811 46.1045 56.8811Z" fill="#404040"/>
<path d="M15.69 50.0378H14.6037C13.7395 50.0378 12.9106 49.6944 12.2995 49.0833C11.6883 48.4722 11.345 47.6433 11.345 46.779V33.3856C9.17249 32.2994 7 29.9639 7 27.2266V26.1403C7 23.1423 8.80317 20.8503 12.0619 19.688C12.2275 19.6289 12.4049 19.6109 12.579 19.6355C12.753 19.6601 12.9185 19.7266 13.0613 19.8292C13.2016 19.9292 13.3162 20.0611 13.3956 20.2141C13.4749 20.3671 13.5167 20.5367 13.5175 20.7091V25.0541H16.7762V20.7091C16.7769 20.536 16.819 20.3656 16.8988 20.212C16.9787 20.0585 17.0942 19.9262 17.2355 19.8263C17.3769 19.7264 17.54 19.6618 17.7115 19.6377C17.8829 19.6137 18.0575 19.6309 18.2209 19.688C21.4797 20.8503 23.2937 23.1423 23.2937 26.1403V27.2266C23.2937 29.9639 21.1212 32.3102 18.9487 33.3856V46.779C18.9487 47.207 18.8644 47.6307 18.7007 48.0261C18.5369 48.4215 18.2969 48.7807 17.9943 49.0833C17.6917 49.3859 17.3324 49.6259 16.937 49.7897C16.5417 49.9535 16.1179 50.0378 15.69 50.0378V50.0378ZM11.345 22.4036C10.6721 22.7639 10.1125 23.3041 9.72891 23.9639C9.34527 24.6238 9.15263 25.3773 9.17249 26.1403V27.2266C9.17249 29.1601 11.0517 31.0176 12.7897 31.6367C13.0017 31.7108 13.1855 31.8488 13.3158 32.0317C13.4461 32.2145 13.5166 32.4333 13.5175 32.6578V46.779C13.5175 47.0671 13.6319 47.3434 13.8356 47.5471C14.0393 47.7508 14.3156 47.8653 14.6037 47.8653H15.69C15.9781 47.8653 16.2544 47.7508 16.4581 47.5471C16.6618 47.3434 16.7762 47.0671 16.7762 46.779V32.6578C16.7763 32.4346 16.8452 32.2168 16.9735 32.0341C17.1018 31.8514 17.2832 31.7126 17.4931 31.6367C19.242 31.0176 21.1212 29.1601 21.1212 27.2266V26.1403C21.1411 25.3773 20.9484 24.6238 20.5648 23.9639C20.1812 23.3041 19.6216 22.7639 18.9487 22.4036V26.1403C18.9487 26.4284 18.8343 26.7047 18.6306 26.9084C18.4269 27.1121 18.1506 27.2266 17.8625 27.2266H12.4312C12.1431 27.2266 11.8669 27.1121 11.6631 26.9084C11.4594 26.7047 11.345 26.4284 11.345 26.1403V22.4036Z" fill="#404040"/>
<path d="M40.1307 24.2937H27.0957V26.4662H40.1307V24.2937Z" fill="#FA4616"/>
<path d="M40.1307 28.6387H27.0957V30.8112H40.1307V28.6387Z" fill="#FA4616"/>
<path d="M40.1307 32.9837H27.0957V35.1562H40.1307V32.9837Z" fill="#FA4616"/>
<path d="M33.1135 37.3287H27.0957V39.5012H33.1135V37.3287Z" fill="#FA4616"/>
<path d="M53.2417 51.917L52.4596 51.1349C50.6061 49.1466 49.5237 46.5618 49.4072 43.8462V19.612L49.6028 19.3295C50.0527 18.8177 50.6132 18.4149 51.2417 18.1514C51.8702 17.888 52.5504 17.7708 53.2308 17.8088C53.9036 17.7677 54.5768 17.8837 55.1971 18.1476C55.8173 18.4116 56.3677 18.8162 56.8046 19.3295L57.0001 19.612V43.8462C56.8932 46.5504 55.8309 49.1291 54.002 51.124L53.2417 51.917ZM51.5797 20.4158V43.8679C51.6337 45.5897 52.2053 47.2552 53.22 48.6473C54.2203 47.2493 54.7836 45.586 54.8385 43.8679V20.4049C54.3477 20.1309 53.7928 19.9922 53.2308 20.003C52.6399 19.965 52.0508 20.101 51.5363 20.3941L51.5797 20.4158Z" fill="#404040"/>
<path d="M55.8809 23.2075H50.4497V25.38H55.8809V23.2075Z" fill="#404040"/>
</svg>
