<svg width="64" height="64" viewBox="0 0 64 64" fill="none" xmlns="http://www.w3.org/2000/svg">
<path d="M44.1252 50.75H42.0418V44.2604C42.0379 42.0507 41.1619 39.9319 39.6043 38.3645L32.2397 31L39.6043 23.6354C40.378 22.8609 40.9914 21.9416 41.4096 20.93C41.8279 19.9184 42.0427 18.8343 42.0418 17.7396V13.2917H44.1252V17.7396C44.1289 19.108 43.861 20.4636 43.3371 21.7278C42.8132 22.9919 42.0437 24.1395 41.0731 25.1042L35.1773 31L41.0731 36.8959C42.0446 37.8598 42.8148 39.0073 43.3387 40.2716C43.8627 41.536 44.13 42.8918 44.1252 44.2604V50.75Z" fill="#404040"/>
<path d="M21.2084 50.75H19.1251V44.2604C19.1202 42.8918 19.3875 41.536 19.9115 40.2716C20.4355 39.0073 21.2056 37.8598 22.1771 36.8959L28.073 31L22.1771 25.1042C21.2066 24.1395 20.437 22.9919 19.9131 21.7278C19.3892 20.4636 19.1214 19.108 19.1251 17.7396V13.2917H21.2084V17.7396C21.2075 18.8343 21.4224 19.9184 21.8406 20.93C22.2588 21.9416 22.8723 22.8609 23.6459 23.6354L31.0105 31L23.6459 38.3645C22.0883 39.9319 21.2123 42.0507 21.2084 44.2604V50.75Z" fill="#404040"/>
<path d="M44.125 14.2917H19.125C18.2962 14.2917 17.5014 13.9624 16.9153 13.3764C16.3293 12.7903 16 11.9955 16 11.1667V7H47.25V11.1667C47.25 11.9955 46.9208 12.7903 46.3347 13.3764C45.7487 13.9624 44.9538 14.2917 44.125 14.2917ZM18.0833 9.08333V11.1667C18.0833 11.4429 18.1931 11.7079 18.3884 11.9033C18.5838 12.0986 18.8487 12.2083 19.125 12.2083H44.125C44.4013 12.2083 44.6662 12.0986 44.8616 11.9033C45.0569 11.7079 45.1667 11.4429 45.1667 11.1667V9.08333H18.0833Z" fill="#404040"/>
<path d="M47.25 57H16V52.8333C16 52.0045 16.3293 51.2096 16.9153 50.6236C17.5014 50.0375 18.2962 49.7083 19.125 49.7083H44.125C44.9538 49.7083 45.7487 50.0375 46.3347 50.6236C46.9208 51.2096 47.25 52.0045 47.25 52.8333V57ZM18.0833 54.9166H45.1667V52.8333C45.1667 52.557 45.0569 52.2922 44.8616 52.0968C44.6662 51.9015 44.4013 51.7916 44.125 51.7916H19.125C18.8487 51.7916 18.5838 51.9015 18.3884 52.0968C18.1931 52.2922 18.0833 52.557 18.0833 52.8333V54.9166Z" fill="#404040"/>
<path d="M37.8748 48.6771C37.7498 47.9167 34.8332 46.0208 31.6248 44.5937C28.4269 46.0208 25.4998 47.9167 25.3748 48.6771H23.2915C23.2915 46.1771 28.8332 43.5312 31.2186 42.5104L31.6248 42.3334L32.0311 42.5104C34.4165 43.552 39.9582 46.1771 39.9582 48.6771H37.8748Z" fill="#FA4616"/>
<path d="M32.6668 34.0833H30.5835V36.1666H32.6668V34.0833Z" fill="#FA4616"/>
<path d="M32.6668 38.25H30.5835V40.3333H32.6668V38.25Z" fill="#FA4616"/>
</svg>
