<svg width="64" height="64" viewBox="0 0 64 64" fill="none" xmlns="http://www.w3.org/2000/svg">
<path d="M57 51.5833H51.0938L50.8229 50.9375C50.6203 50.5305 50.3146 50.1837 49.9363 49.9315C49.558 49.6793 49.1203 49.5305 48.6667 49.5C48.2126 49.5338 47.7748 49.6838 47.3954 49.9355C47.016 50.1872 46.7077 50.5323 46.5 50.9375L46.2396 51.5833H42.7604L42.4896 50.9375C42.2869 50.5305 41.9812 50.1837 41.603 49.9315C41.2247 49.6793 40.787 49.5305 40.3333 49.5C39.8793 49.5338 39.4415 49.6838 39.0621 49.9355C38.6827 50.1872 38.3743 50.5323 38.1667 50.9375L37.9062 51.5833H34.4271L34.1562 50.9375C33.9536 50.5305 33.6479 50.1837 33.2696 49.9315C32.8913 49.6793 32.4536 49.5305 32 49.5C31.5459 49.5338 31.1082 49.6838 30.7288 49.9355C30.3493 50.1872 30.041 50.5323 29.8333 50.9375L29.5729 51.5833H26.0938L25.8229 50.9375C25.6203 50.5305 25.3146 50.1837 24.9363 49.9315C24.558 49.6793 24.1203 49.5305 23.6667 49.5C23.2126 49.5338 22.7748 49.6838 22.3954 49.9355C22.016 50.1872 21.7077 50.5323 21.5 50.9375L21.2396 51.5833H17.7604L17.4896 50.9375C17.2869 50.5305 16.9812 50.1837 16.603 49.9315C16.2247 49.6793 15.787 49.5305 15.3333 49.5C14.8793 49.5338 14.4415 49.6838 14.0621 49.9355C13.6827 50.1872 13.3743 50.5323 13.1667 50.9375L12.9062 51.5833H7V42.5521L7.64583 42.2813C8.07174 42.1027 8.4354 41.8023 8.69115 41.4177C8.9469 41.0332 9.08335 40.5816 9.08335 40.1198C9.08335 39.658 8.9469 39.2064 8.69115 38.8219C8.4354 38.4373 8.07174 38.1369 7.64583 37.9583L7 37.6979V34.2188L7.64583 33.9479C8.07174 33.7694 8.4354 33.469 8.69115 33.0844C8.9469 32.6999 9.08335 32.2483 9.08335 31.7865C9.08335 31.3246 8.9469 30.8731 8.69115 30.4886C8.4354 30.104 8.07174 29.8036 7.64583 29.625L7 29.3646V25.8854L7.64583 25.6146C8.05025 25.4086 8.3949 25.1021 8.64665 24.7245C8.89839 24.3469 9.04877 23.9109 9.08333 23.4583C9.08338 23.0053 8.95268 22.5618 8.70693 22.1812C8.46119 21.8005 8.11084 21.4989 7.69791 21.3125L7 21.0625V12H12.9062L13.1667 12.6458C13.3743 13.051 13.6827 13.3961 14.0621 13.6478C14.4415 13.8996 14.8793 14.0495 15.3333 14.0833C15.7864 14.0508 16.2233 13.9012 16.6012 13.6492C16.9792 13.3973 17.2853 13.0515 17.4896 12.6458L17.7604 12H21.2396L21.5 12.6458C21.7077 13.051 22.016 13.3961 22.3954 13.6478C22.7748 13.8996 23.2126 14.0495 23.6667 14.0833C24.1197 14.0508 24.5566 13.9012 24.9345 13.6492C25.3125 13.3973 25.6186 13.0515 25.8229 12.6458L26.0938 12H29.5729L29.8333 12.6458C30.041 13.051 30.3493 13.3961 30.7288 13.6478C31.1082 13.8996 31.5459 14.0495 32 14.0833C32.4531 14.0508 32.8899 13.9012 33.2679 13.6492C33.6458 13.3973 33.9519 13.0515 34.1562 12.6458L34.4271 12H37.9062L38.1667 12.6458C38.3743 13.051 38.6827 13.3961 39.0621 13.6478C39.4415 13.8996 39.8793 14.0495 40.3333 14.0833C40.7864 14.0508 41.2233 13.9012 41.6012 13.6492C41.9792 13.3973 42.2853 13.0515 42.4896 12.6458L42.7604 12H46.2396L46.5 12.6458C46.7077 13.051 47.016 13.3961 47.3954 13.6478C47.7748 13.8996 48.2126 14.0495 48.6667 14.0833C49.1197 14.0508 49.5566 13.9012 49.9345 13.6492C50.3125 13.3973 50.6186 13.0515 50.8229 12.6458L51.0938 12H57V21.0625L56.3021 21.3125C55.8884 21.4969 55.5371 21.7973 55.2905 22.1772C55.0439 22.5571 54.9127 23.0002 54.9127 23.4531C54.9127 23.906 55.0439 24.3492 55.2905 24.7291C55.5371 25.109 55.8884 25.4093 56.3021 25.5937L57 25.8437V29.3958L56.3021 29.6458C55.8884 29.8303 55.5371 30.1306 55.2905 30.5105C55.0439 30.8904 54.9127 31.3336 54.9127 31.7865C54.9127 32.2393 55.0439 32.6826 55.2905 33.0625C55.5371 33.4424 55.8884 33.7426 56.3021 33.9271L57 34.1771V37.7292L56.3021 37.9792C55.8884 38.1636 55.5371 38.4639 55.2905 38.8438C55.0439 39.2237 54.9127 39.6669 54.9127 40.1198C54.9127 40.5727 55.0439 41.0159 55.2905 41.3958C55.5371 41.7757 55.8884 42.076 56.3021 42.2604L57 42.5104V51.5833ZM52.4062 49.5H54.9167V43.8958C54.2798 43.4928 53.7553 42.9352 53.3918 42.275C53.0283 41.6148 52.8377 40.8734 52.8377 40.1198C52.8377 39.3661 53.0283 38.6247 53.3918 37.9645C53.7553 37.3043 54.2798 36.7468 54.9167 36.3437V35.5625C54.2798 35.1595 53.7553 34.6019 53.3918 33.9417C53.0283 33.2815 52.8377 32.5401 52.8377 31.7865C52.8377 31.0328 53.0283 30.2914 53.3918 29.6312C53.7553 28.971 54.2798 28.4134 54.9167 28.0104V27.2292C54.2798 26.8261 53.7553 26.2686 53.3918 25.6084C53.0283 24.9482 52.8377 24.2068 52.8377 23.4531C52.8377 22.6995 53.0283 21.9581 53.3918 21.2979C53.7553 20.6377 54.2798 20.0801 54.9167 19.6771V14.0833H52.4062C52.0123 14.7208 51.462 15.247 50.8075 15.612C50.153 15.977 49.416 16.1686 48.6667 16.1686C47.9173 16.1686 47.1803 15.977 46.5258 15.612C45.8713 15.247 45.321 14.7208 44.9271 14.0833H44.0729C43.679 14.7208 43.1287 15.247 42.4742 15.612C41.8196 15.977 41.0827 16.1686 40.3333 16.1686C39.5839 16.1686 38.847 15.977 38.1925 15.612C37.538 15.247 36.9877 14.7208 36.5938 14.0833H35.7396C35.3457 14.7208 34.7953 15.247 34.1408 15.612C33.4863 15.977 32.7494 16.1686 32 16.1686C31.2506 16.1686 30.5137 15.977 29.8592 15.612C29.2047 15.247 28.6543 14.7208 28.2604 14.0833H27.4062C27.0123 14.7208 26.462 15.247 25.8075 15.612C25.153 15.977 24.4161 16.1686 23.6667 16.1686C22.9173 16.1686 22.1803 15.977 21.5258 15.612C20.8713 15.247 20.321 14.7208 19.9271 14.0833H19.0729C18.679 14.7208 18.1287 15.247 17.4742 15.612C16.8196 15.977 16.0827 16.1686 15.3333 16.1686C14.5839 16.1686 13.847 15.977 13.1925 15.612C12.538 15.247 11.9877 14.7208 11.5938 14.0833H9.08333V19.6771C9.71838 20.0836 10.2417 20.6425 10.6055 21.303C10.9694 21.9634 11.1623 22.7043 11.1667 23.4583C11.1372 24.2 10.9331 24.9242 10.5711 25.5722C10.2091 26.2201 9.69941 26.7736 9.08333 27.1875V28.0521C9.72096 28.4446 10.2474 28.994 10.6126 29.6477C10.9778 30.3014 11.1695 31.0377 11.1695 31.7865C11.1695 32.5352 10.9778 33.2715 10.6126 33.9252C10.2474 34.5789 9.72096 35.1283 9.08333 35.5209V36.3854C9.72096 36.778 10.2474 37.3273 10.6126 37.981C10.9778 38.6347 11.1695 39.371 11.1695 40.1198C11.1695 40.8686 10.9778 41.6049 10.6126 42.2586C10.2474 42.9123 9.72096 43.4616 9.08333 43.8542V49.5H11.5938C11.9877 48.8625 12.538 48.3363 13.1925 47.9713C13.847 47.6064 14.5839 47.4148 15.3333 47.4148C16.0827 47.4148 16.8196 47.6064 17.4742 47.9713C18.1287 48.3363 18.679 48.8625 19.0729 49.5H19.9271C20.321 48.8625 20.8713 48.3363 21.5258 47.9713C22.1803 47.6064 22.9173 47.4148 23.6667 47.4148C24.4161 47.4148 25.153 47.6064 25.8075 47.9713C26.462 48.3363 27.0123 48.8625 27.4062 49.5H28.2604C28.6543 48.8625 29.2047 48.3363 29.8592 47.9713C30.5137 47.6064 31.2506 47.4148 32 47.4148C32.7494 47.4148 33.4863 47.6064 34.1408 47.9713C34.7953 48.3363 35.3457 48.8625 35.7396 49.5H36.5938C36.9877 48.8625 37.538 48.3363 38.1925 47.9713C38.847 47.6064 39.5839 47.4148 40.3333 47.4148C41.0827 47.4148 41.8196 47.6064 42.4742 47.9713C43.1287 48.3363 43.679 48.8625 44.0729 49.5H44.9271C45.321 48.8625 45.8713 48.3363 46.5258 47.9713C47.1803 47.6064 47.9173 47.4148 48.6667 47.4148C49.416 47.4148 50.153 47.6064 50.8075 47.9713C51.462 48.3363 52.0123 48.8625 52.4062 49.5V49.5Z" fill="#404040"/>
<path d="M41.3747 31.7917C40.5506 31.7917 39.745 31.5473 39.0598 31.0895C38.3746 30.6316 37.8405 29.9809 37.5252 29.2196C37.2098 28.4582 37.1273 27.6204 37.2881 26.8122C37.4488 26.0039 37.8457 25.2615 38.4284 24.6787C39.0111 24.096 39.7535 23.6992 40.5618 23.5384C41.3701 23.3776 42.2078 23.4602 42.9692 23.7755C43.7305 24.0909 44.3813 24.6249 44.8391 25.3101C45.297 25.9953 45.5413 26.8009 45.5413 27.625C45.5413 28.7301 45.1024 29.7899 44.321 30.5713C43.5396 31.3527 42.4797 31.7917 41.3747 31.7917ZM41.3747 25.5417C40.9626 25.5417 40.5598 25.6638 40.2172 25.8928C39.8746 26.1217 39.6076 26.4471 39.4499 26.8277C39.2922 27.2084 39.251 27.6273 39.3314 28.0315C39.4118 28.4356 39.6102 28.8068 39.9015 29.0981C40.1929 29.3895 40.5641 29.5879 40.9682 29.6683C41.3724 29.7487 41.7913 29.7075 42.1719 29.5498C42.5526 29.3921 42.878 29.1251 43.1069 28.7825C43.3358 28.4399 43.458 28.0371 43.458 27.625C43.458 27.0725 43.2385 26.5426 42.8478 26.1519C42.4571 25.7612 41.9272 25.5417 41.3747 25.5417Z" fill="#404040"/>
<path d="M45.8441 43.9792L37.2087 35.3437L35.8649 36.6875L34.3857 35.2187L37.2087 32.3958L47.3232 42.5104L45.8441 43.9792Z" fill="#404040"/>
<path d="M35.4271 40.8542L25.75 31.1771L16.0729 40.8542L14.5938 39.3854L25.75 28.2292L36.9062 39.3854L35.4271 40.8542Z" fill="#404040"/>
<path d="M49.7082 44.2917H14.2915V19.2917H49.7082V44.2917ZM16.3748 42.2084H47.6248V21.375H16.3748V42.2084Z" fill="#FA4616"/>
</svg>
