<svg width="64" height="64" viewBox="0 0 64 64" fill="none" xmlns="http://www.w3.org/2000/svg">
<path d="M55.913 54.5652H8.08696C7.79868 54.5652 7.52221 54.4507 7.31836 54.2469C7.11452 54.043 7 53.7665 7 53.4783V11.087C7 10.7987 7.11452 10.5222 7.31836 10.3184C7.52221 10.1145 7.79868 10 8.08696 10H55.913C56.2013 10 56.4778 10.1145 56.6816 10.3184C56.8855 10.5222 57 10.7987 57 11.087V53.4783C57 53.7665 56.8855 54.043 56.6816 54.2469C56.4778 54.4507 56.2013 54.5652 55.913 54.5652ZM9.17391 52.3913H54.8261V12.1739H9.17391V52.3913Z" fill="#404040"/>
<path d="M53.7395 16.5217H10.2612V18.6956H53.7395V16.5217Z" fill="#404040"/>
<path d="M13.5216 13.2609H11.3477V15.4348H13.5216V13.2609Z" fill="#404040"/>
<path d="M16.7828 13.2609H14.6089V15.4348H16.7828V13.2609Z" fill="#404040"/>
<path d="M20.0435 13.2609H17.8696V15.4348H20.0435V13.2609Z" fill="#404040"/>
<path d="M20.0431 35C19.1832 35 18.3426 34.745 17.6276 34.2673C16.9126 33.7895 16.3553 33.1105 16.0263 32.316C15.6972 31.5216 15.6111 30.6474 15.7789 29.804C15.9466 28.9606 16.3607 28.1859 16.9688 27.5778C17.5768 26.9697 18.3515 26.5557 19.1949 26.3879C20.0383 26.2201 20.9125 26.3062 21.707 26.6353C22.5014 26.9644 23.1805 27.5217 23.6582 28.2367C24.136 28.9517 24.391 29.7923 24.391 30.6522C24.391 31.8053 23.9329 32.9112 23.1175 33.7266C22.3021 34.5419 21.1963 35 20.0431 35ZM20.0431 28.4783C19.6132 28.4783 19.1929 28.6058 18.8354 28.8446C18.4779 29.0835 18.1992 29.423 18.0347 29.8203C17.8702 30.2175 17.8271 30.6546 17.911 31.0763C17.9949 31.498 18.2019 31.8853 18.506 32.1894C18.81 32.4934 19.1973 32.7004 19.619 32.7843C20.0407 32.8682 20.4778 32.8252 20.8751 32.6606C21.2723 32.4961 21.6118 32.2174 21.8507 31.8599C22.0896 31.5024 22.2171 31.0821 22.2171 30.6522C22.2171 30.0756 21.988 29.5227 21.5803 29.115C21.1726 28.7073 20.6197 28.4783 20.0431 28.4783Z" fill="#FA4616"/>
<path d="M21.1305 21.9565H18.9565V27.3913H21.1305V21.9565Z" fill="#FA4616"/>
<path d="M21.1305 33.913H18.9565V50.2174H21.1305V33.913Z" fill="#FA4616"/>
<path d="M32.0002 45.8695C31.1403 45.8695 30.2996 45.6145 29.5846 45.1368C28.8697 44.6591 28.3124 43.98 27.9833 43.1856C27.6542 42.3911 27.5681 41.5169 27.7359 40.6735C27.9036 39.8301 28.3177 39.0554 28.9258 38.4473C29.5339 37.8393 30.3086 37.4252 31.152 37.2574C31.9953 37.0897 32.8696 37.1758 33.664 37.5048C34.4585 37.8339 35.1375 38.3912 35.6153 39.1062C36.093 39.8212 36.348 40.6618 36.348 41.5217C36.348 42.6748 35.8899 43.7807 35.0745 44.5961C34.2592 45.4115 33.1533 45.8695 32.0002 45.8695ZM32.0002 39.3478C31.5702 39.3478 31.1499 39.4753 30.7924 39.7142C30.4349 39.953 30.1563 40.2926 29.9917 40.6898C29.8272 41.087 29.7841 41.5241 29.868 41.9458C29.9519 42.3675 30.159 42.7549 30.463 43.0589C30.767 43.3629 31.1544 43.57 31.5761 43.6539C31.9978 43.7377 32.4349 43.6947 32.8321 43.5302C33.2293 43.3656 33.5688 43.087 33.8077 42.7295C34.0466 42.372 34.1741 41.9517 34.1741 41.5217C34.1741 40.9452 33.9451 40.3922 33.5374 39.9845C33.1297 39.5768 32.5767 39.3478 32.0002 39.3478Z" fill="#FA4616"/>
<path d="M33.087 21.9565H30.9131V38.2609H33.087V21.9565Z" fill="#FA4616"/>
<path d="M33.087 44.7826H30.9131V50.2174H33.087V44.7826Z" fill="#FA4616"/>
<path d="M43.9567 39.3478C43.0968 39.3478 42.2562 39.0928 41.5412 38.6151C40.8262 38.1374 40.2689 37.4583 39.9398 36.6639C39.6108 35.8694 39.5247 34.9952 39.6924 34.1518C39.8602 33.3084 40.2743 32.5337 40.8823 31.9256C41.4904 31.3176 42.2651 30.9035 43.1085 30.7357C43.9519 30.568 44.8261 30.6541 45.6206 30.9832C46.415 31.3122 47.0941 31.8695 47.5718 32.5845C48.0495 33.2995 48.3045 34.1401 48.3045 35C48.3045 36.1531 47.8465 37.259 47.0311 38.0744C46.2157 38.8898 45.1098 39.3478 43.9567 39.3478ZM43.9567 32.8261C43.5268 32.8261 43.1065 32.9536 42.749 33.1925C42.3915 33.4313 42.1128 33.7709 41.9483 34.1681C41.7837 34.5653 41.7407 35.0024 41.8246 35.4241C41.9085 35.8458 42.1155 36.2332 42.4195 36.5372C42.7236 36.8412 43.1109 37.0483 43.5326 37.1322C43.9543 37.216 44.3914 37.173 44.7886 37.0085C45.1859 36.8439 45.5254 36.5653 45.7643 36.2078C46.0031 35.8503 46.1306 35.43 46.1306 35C46.1306 34.4235 45.9016 33.8705 45.4939 33.4628C45.0862 33.0551 44.5333 32.8261 43.9567 32.8261Z" fill="#FA4616"/>
<path d="M45.0435 21.9565H42.8696V31.7392H45.0435V21.9565Z" fill="#FA4616"/>
<path d="M45.0435 38.2609H42.8696V50.2174H45.0435V38.2609Z" fill="#FA4616"/>
</svg>
