<svg width="64" height="64" viewBox="0 0 64 64" fill="none" xmlns="http://www.w3.org/2000/svg">
<path d="M48.4545 57H15.1247C14.296 57 13.5012 56.6708 12.9152 56.0848C12.3292 55.4988 12 54.7041 12 53.8753V15.3377C12 14.509 12.3292 13.7142 12.9152 13.1282C13.5012 12.5422 14.296 12.213 15.1247 12.213H19.2909V14.2961H15.1247C14.8484 14.2961 14.5835 14.4059 14.3882 14.6012C14.1928 14.7965 14.0831 15.0614 14.0831 15.3377V53.8753C14.0831 54.1516 14.1928 54.4165 14.3882 54.6118C14.5835 54.8071 14.8484 54.9169 15.1247 54.9169H48.4545C48.7308 54.9169 48.9957 54.8071 49.191 54.6118C49.3863 54.4165 49.4961 54.1516 49.4961 53.8753V15.3377C49.4961 15.0614 49.3863 14.7965 49.191 14.6012C48.9957 14.4059 48.7308 14.2961 48.4545 14.2961H44.2883V12.213H48.4545C49.2833 12.213 50.078 12.5422 50.664 13.1282C51.25 13.7142 51.5792 14.509 51.5792 15.3377V53.8753C51.5792 54.7041 51.25 55.4988 50.664 56.0848C50.078 56.6708 49.2833 57 48.4545 57V57Z" fill="#404040"/>
<path d="M47.4128 52.8338H16.166V16.3792H19.2907V18.4624H18.2491V50.7507H45.3296V18.4624H44.2881V16.3792H47.4128V52.8338Z" fill="#404040"/>
<path d="M43.2468 19.5039H20.3325V15.3377C20.3325 14.2327 20.7715 13.173 21.5528 12.3917C22.3341 11.6104 23.3938 11.1714 24.4988 11.1714H26.686C26.9251 9.99418 27.5638 8.93574 28.4939 8.1755C29.424 7.41527 30.5884 7 31.7897 7C32.9909 7 34.1553 7.41527 35.0854 8.1755C36.0155 8.93574 36.6542 9.99418 36.8933 11.1714H39.0806C40.1855 11.1714 41.2452 11.6104 42.0265 12.3917C42.8079 13.173 43.2468 14.2327 43.2468 15.3377V19.5039ZM22.4156 17.4208H41.1637V15.3377C41.1637 14.7852 40.9442 14.2554 40.5536 13.8647C40.1629 13.4741 39.633 13.2546 39.0806 13.2546H34.9143V12.213C34.9143 11.3843 34.5851 10.5895 33.9991 10.0035C33.4131 9.41752 32.6184 9.08833 31.7897 9.08833C30.9609 9.08833 30.1662 9.41752 29.5802 10.0035C28.9942 10.5895 28.665 11.3843 28.665 12.213V13.2546H24.4988C23.9463 13.2546 23.4164 13.4741 23.0258 13.8647C22.6351 14.2554 22.4156 14.7852 22.4156 15.3377V17.4208Z" fill="#404040"/>
<path d="M32.8312 11.1714H30.748V13.2546H32.8312V11.1714Z" fill="#404040"/>
<path d="M24.1961 23.9749L22.7231 25.4479L28.976 31.7007L30.4489 30.2277L24.1961 23.9749Z" fill="#404040"/>
<path d="M28.976 23.9675L22.7231 30.2204L24.1961 31.6934L30.449 25.4405L28.976 23.9675Z" fill="#404040"/>
<path d="M36.9973 46.5844C36.1733 46.5844 35.3678 46.3401 34.6827 45.8823C33.9975 45.4245 33.4635 44.7739 33.1482 44.0126C32.8329 43.2513 32.7504 42.4136 32.9111 41.6054C33.0719 40.7973 33.4687 40.0549 34.0513 39.4722C34.634 38.8896 35.3763 38.4928 36.1845 38.332C36.9927 38.1712 37.8304 38.2538 38.5916 38.5691C39.3529 38.8845 40.0036 39.4184 40.4614 40.1035C40.9192 40.7887 41.1635 41.5942 41.1635 42.4182C41.1635 43.5231 40.7246 44.5828 39.9433 45.3642C39.162 46.1455 38.1023 46.5844 36.9973 46.5844ZM36.9973 40.3351C36.5853 40.3351 36.1825 40.4572 35.84 40.6861C35.4974 40.915 35.2304 41.2404 35.0727 41.621C34.9151 42.0016 34.8738 42.4205 34.9542 42.8246C35.0346 43.2287 35.233 43.5998 35.5243 43.8911C35.8156 44.1825 36.1868 44.3809 36.5909 44.4613C36.995 44.5416 37.4138 44.5004 37.7945 44.3428C38.1751 44.1851 38.5004 43.9181 38.7293 43.5755C38.9582 43.2329 39.0804 42.8302 39.0804 42.4182C39.0804 41.8657 38.8609 41.3359 38.4703 40.9452C38.0796 40.5546 37.5498 40.3351 36.9973 40.3351Z" fill="#404040"/>
<path d="M27.6236 45.5429H25.5405V41.4704C25.5411 40.3117 25.8639 39.176 26.4727 38.1902C27.0815 37.2043 27.9524 36.4071 28.9881 35.8876L33.6542 33.5545C34.3464 33.2082 34.9284 32.6758 35.335 32.0172C35.7416 31.3586 35.9567 30.5997 35.9561 29.8257V24.7117H38.0392V29.8257C38.0396 30.9873 37.7162 32.1259 37.1054 33.1139C36.4945 34.1019 35.6205 34.9001 34.5812 35.4189L29.9255 37.752C29.2349 38.0976 28.6539 38.6283 28.2475 39.2849C27.841 39.9415 27.625 40.6982 27.6236 41.4704V45.5429Z" fill="#FA4616"/>
<path d="M39.3826 28.5759L36.9975 26.1907L34.6123 28.5759L33.1333 27.1073L36.258 23.9826C36.3548 23.885 36.47 23.8075 36.5969 23.7546C36.7239 23.7018 36.86 23.6745 36.9975 23.6745C37.135 23.6745 37.2711 23.7018 37.3981 23.7546C37.525 23.8075 37.6402 23.885 37.737 23.9826L40.8617 27.1073L39.3826 28.5759Z" fill="#FA4616"/>
</svg>
