<svg width="64" height="64" viewBox="0 0 64 64" fill="none" xmlns="http://www.w3.org/2000/svg">
<path d="M57 57H7V7H57V57ZM9.27273 54.7273H54.7273V9.27273H9.27273V54.7273Z" fill="#404040"/>
<path d="M55.8635 13.8182H8.13623V16.0909H55.8635V13.8182Z" fill="#404040"/>
<path d="M13.8181 10.4091H11.5454V12.6818H13.8181V10.4091Z" fill="#404040"/>
<path d="M18.3635 10.4091H16.0908V12.6818H18.3635V10.4091Z" fill="#404040"/>
<path d="M33.1362 38.8182H12.6816V19.5H33.1362V38.8182ZM14.9544 36.5455H30.8635V21.7727H14.9544V36.5455Z" fill="#FA4616"/>
<path d="M14.5954 19.7876L13.041 21.4457L31.2221 38.4891L32.7765 36.831L14.5954 19.7876Z" fill="#FA4616"/>
<path d="M31.2319 19.8083L13.0479 36.8485L14.6019 38.5069L32.786 21.4667L31.2319 19.8083Z" fill="#FA4616"/>
<path d="M51.3181 19.5H36.5454V21.7727H51.3181V19.5Z" fill="#404040"/>
<path d="M51.3181 25.1818H36.5454V27.4546H51.3181V25.1818Z" fill="#404040"/>
<path d="M51.3181 30.8636H36.5454V33.1364H51.3181V30.8636Z" fill="#404040"/>
<path d="M51.3181 36.5455H36.5454V38.8182H51.3181V36.5455Z" fill="#404040"/>
<path d="M51.318 43.3636H12.6816V45.6364H51.318V43.3636Z" fill="#404040"/>
<path d="M51.318 49.0455H12.6816V51.3182H51.318V49.0455Z" fill="#404040"/>
</svg>
