<svg width="64" height="64" viewBox="0 0 64 64" fill="none" xmlns="http://www.w3.org/2000/svg">
<path d="M25.1625 48.9758L23.6191 47.465L23.7604 47.3237C24.0978 46.9102 24.5268 46.5809 25.0136 46.362C25.5003 46.1432 26.0314 46.0408 26.5646 46.063H41.6833C42.9223 45.5412 48.4329 40.2046 49.6719 38.8134C51.4975 36.3673 53.1431 33.7918 54.5956 31.1073C53.7382 30.6756 52.7528 30.5712 51.824 30.8138C50.411 31.1399 49.4654 32.129 48.1938 34.5962C48.0969 34.8015 47.9317 34.9668 47.7264 35.0636L42.7702 37.683L41.7702 35.7592L46.4439 33.3246C47.7373 30.8791 49.0416 29.2596 51.3458 28.727C52.3013 28.4448 53.3168 28.4357 54.2772 28.7008C55.2376 28.9659 56.1047 29.4945 56.7802 30.2269C56.8962 30.3804 56.9693 30.5618 56.9922 30.7528C57.0152 30.9437 56.987 31.1373 56.9106 31.3138C55.3118 34.4729 53.431 37.4813 51.2914 40.3024C51.2153 40.3785 43.8136 48.2802 41.7811 48.2802H26.5646C26.33 48.2599 26.0942 48.3013 25.8806 48.4005C25.667 48.4997 25.4831 48.6531 25.3473 48.8454L25.1625 48.9758Z" fill="#404040"/>
<path d="M39.6071 41.6937H30.912V39.5199H39.6071C41.107 39.5199 41.7809 38.6938 41.7809 37.8895C41.7809 37.0852 41.107 36.2592 39.6071 36.2592H33.8683C33.0247 36.1465 32.2398 35.7654 31.6294 35.1723C31.1162 34.6804 30.4998 34.3091 29.8251 34.0854H24.3906C23.0212 34.3206 21.7595 34.978 20.7822 35.9657L16.4346 40.3133L14.9238 38.7699L19.2714 34.4224C20.6472 33.0376 22.4518 32.1602 24.3906 31.9334H29.8251C30.9975 32.0831 32.0909 32.605 32.9445 33.4224C33.2587 33.6826 33.5972 33.9119 33.9553 34.1072H39.6071C42.4657 34.1072 43.9547 36.0201 43.9547 37.9113C43.9547 39.8025 42.4657 41.6937 39.6071 41.6937Z" fill="#404040"/>
<path d="M21.1305 56.9101C20.9867 56.9096 20.8444 56.8804 20.7119 56.8245C20.5795 56.7685 20.4594 56.6868 20.3588 56.5841L7.31607 43.5414C7.11364 43.3377 7 43.0623 7 42.7751C7 42.488 7.11364 42.2125 7.31607 42.0089L12.7505 36.5744C12.8516 36.4725 12.9718 36.3917 13.1042 36.3365C13.2367 36.2813 13.3787 36.2529 13.5222 36.2529C13.6657 36.2529 13.8078 36.2813 13.9402 36.3365C14.0727 36.3917 14.1929 36.4725 14.2939 36.5744L27.3366 49.6171C27.539 49.8207 27.6527 50.0962 27.6527 50.3834C27.6527 50.6705 27.539 50.946 27.3366 51.1496L21.9021 56.5841C21.8015 56.6868 21.6815 56.7685 21.549 56.8245C21.4165 56.8804 21.2743 56.9096 21.1305 56.9101ZM9.62028 42.7806L21.1305 54.2799L25.0324 50.3888L13.5222 38.8786L9.62028 42.7806Z" fill="#404040"/>
<path d="M14.2891 42.0083L12.752 43.5454L14.9269 45.7204L16.464 44.1833L14.2891 42.0083Z" fill="#404040"/>
<path d="M23.3037 30.8247H21.1299V9.08689C21.1299 8.79863 21.2444 8.52217 21.4482 8.31834C21.6521 8.11451 21.9285 8 22.2168 8H51.5629C51.8511 8 52.1276 8.11451 52.3314 8.31834C52.5353 8.52217 52.6497 8.79863 52.6497 9.08689V27.5641H50.476V10.1738H23.3037V30.8247Z" fill="#404040"/>
<path d="M51.5634 14.5213H22.2173V16.6951H51.5634V14.5213Z" fill="#404040"/>
<path d="M27.6518 11.2607H25.478V13.4345H27.6518V11.2607Z" fill="#FA4616"/>
<path d="M31.999 11.2607H29.8252V13.4345H31.999V11.2607Z" fill="#FA4616"/>
</svg>
