<svg width="64" height="64" viewBox="0 0 64 64" fill="none" xmlns="http://www.w3.org/2000/svg">
<path d="M23.7963 36.2205C23.6556 36.22 23.5164 36.1916 23.3867 36.1368C23.2571 36.082 23.1396 36.002 23.0411 35.9015L19.1479 32.0083C18.9934 31.854 18.8901 31.6559 18.852 31.4409C18.8139 31.2259 18.843 31.0043 18.9352 30.8063C19.0268 30.606 19.1783 30.4392 19.3689 30.3286C19.5594 30.2181 19.7796 30.1695 19.9989 30.1894C20.19 30.2072 20.3827 30.1863 20.5655 30.1278C20.7483 30.0693 20.9174 29.9744 21.0626 29.849C21.38 29.5316 21.5583 29.1012 21.5583 28.6523C21.5583 28.2035 21.38 27.773 21.0626 27.4557C20.7452 27.1383 20.3148 26.96 19.8659 26.96C19.4171 26.96 18.9867 27.1383 18.6693 27.4557C18.5375 27.5972 18.4379 27.7655 18.3773 27.9491C18.3167 28.1327 18.2966 28.3272 18.3183 28.5194C18.3456 28.7393 18.3036 28.9624 18.198 29.1573C18.0924 29.3522 17.9286 29.5093 17.7294 29.6066C17.5302 29.7038 17.3056 29.7364 17.0869 29.6998C16.8683 29.6632 16.6666 29.5592 16.51 29.4023L12.6062 25.4985C12.4081 25.2992 12.2969 25.0296 12.2969 24.7486C12.2969 24.4676 12.4081 24.1979 12.6062 23.9986L23.0092 13.5958C23.1081 13.4961 23.2257 13.4168 23.3553 13.3628C23.485 13.3088 23.624 13.281 23.7644 13.281C23.9048 13.281 24.0439 13.3088 24.1735 13.3628C24.3031 13.4168 24.4207 13.4961 24.5196 13.5958L27.0832 16.1592C27.2186 15.9359 27.3792 15.7289 27.5618 15.5423C27.9097 15.1575 28.3322 14.8474 28.8036 14.6309C29.275 14.4144 29.7855 14.2959 30.304 14.2826C30.8226 14.2694 31.3385 14.3616 31.8203 14.5538C32.3022 14.7459 32.7399 15.0339 33.1071 15.4004C33.4743 15.7668 33.7631 16.204 33.9562 16.6854C34.1493 17.1669 34.2425 17.6825 34.2303 18.2011C34.218 18.7197 34.1005 19.2305 33.8849 19.7023C33.6693 20.1741 33.3601 20.5971 32.976 20.9458C32.7912 21.135 32.5798 21.2963 32.3485 21.4246L34.9226 23.9986C35.1207 24.1979 35.2319 24.4676 35.2319 24.7486C35.2319 25.0296 35.1207 25.2992 34.9226 25.4985L32.3591 28.0727C33.0783 28.4988 33.6015 29.1901 33.8164 29.9979C34.0524 30.6836 34.0939 31.4214 33.9362 32.1292C33.7785 32.8371 33.4277 33.4875 32.9229 34.0081C32.5241 34.4093 32.0395 34.7149 31.5057 34.902C30.9719 35.089 30.4026 35.1526 29.8406 35.0882C29.2786 35.0237 28.7386 34.8327 28.261 34.5296C27.7834 34.2264 27.3807 33.819 27.0832 33.338L24.5196 35.9015C24.3285 36.0969 24.0695 36.211 23.7963 36.2205V36.2205ZM21.9668 31.8275L23.7857 33.6465L26.9768 30.4554C27.1348 30.2957 27.3392 30.1902 27.5609 30.1539C27.7825 30.1176 28.01 30.1523 28.2107 30.2532C28.4031 30.3512 28.5611 30.5056 28.6637 30.6956C28.7663 30.8856 28.8086 31.1023 28.7851 31.3169C28.758 31.5092 28.7756 31.7053 28.8365 31.8898C28.8974 32.0742 28.9999 32.2421 29.1361 32.3806C29.4563 32.6844 29.8808 32.8538 30.3221 32.8538C30.7635 32.8538 31.188 32.6844 31.5081 32.3806C31.7281 32.1346 31.8769 31.8334 31.9388 31.5092C32.0006 31.185 31.9731 30.8501 31.8592 30.5404C31.6996 30.0405 31.423 29.5937 30.3593 29.615C30.1481 29.6199 29.9403 29.5619 29.7622 29.4483C29.5841 29.3346 29.4439 29.1705 29.3595 28.9768C29.2757 28.7818 29.2522 28.5661 29.292 28.3576C29.3318 28.1491 29.4331 27.9572 29.5828 27.8068L32.7739 24.6157L29.5828 21.4246C29.4283 21.2703 29.325 21.0722 29.2869 20.8571C29.2488 20.6421 29.2779 20.4205 29.3701 20.2226C29.4633 20.0243 29.6156 19.8595 29.806 19.751C29.9964 19.6425 30.2156 19.5954 30.4338 19.6162C30.6249 19.634 30.8176 19.613 31.0004 19.5545C31.1832 19.496 31.3522 19.4013 31.4975 19.2759C31.6548 19.1188 31.7795 18.9322 31.8647 18.7269C31.9498 18.5216 31.9936 18.3015 31.9936 18.0792C31.9936 17.8569 31.9498 17.6369 31.8647 17.4315C31.7795 17.2262 31.6548 17.0396 31.4975 16.8825C31.3411 16.724 31.1548 16.598 30.9494 16.5121C30.744 16.4262 30.5235 16.382 30.3008 16.382C30.0782 16.382 29.8577 16.4262 29.6523 16.5121C29.4468 16.598 29.2605 16.724 29.1042 16.8825C28.973 17.0244 28.8738 17.1927 28.8132 17.3762C28.7527 17.5597 28.7322 17.7542 28.7532 17.9462C28.7805 18.1662 28.7385 18.3893 28.6329 18.5842C28.5273 18.7791 28.3635 18.9361 28.1643 19.0333C27.9651 19.1306 27.7405 19.1632 27.5218 19.1266C27.3032 19.0899 27.1015 18.9859 26.9449 18.8291L23.7538 15.638L14.8612 24.5411L16.6695 26.3495C16.805 26.1262 16.9656 25.9191 17.1482 25.7325C17.6837 25.1993 18.3649 24.8366 19.1062 24.6898C19.8474 24.543 20.6156 24.6188 21.3138 24.9077C22.0121 25.1965 22.6093 25.6855 23.0302 26.313C23.4511 26.9406 23.677 27.6787 23.6793 28.4343C23.6807 28.937 23.5817 29.435 23.388 29.899C23.1944 30.3629 22.9101 30.7835 22.5518 31.1362C22.4011 31.4007 22.2027 31.6351 21.9668 31.8275V31.8275Z" fill="#FA4616"/>
<path d="M25.0829 43.1658C21.5064 43.1658 18.0103 42.1053 15.0366 40.1183C12.0629 38.1313 9.74514 35.3071 8.37649 32.0029C7.00784 28.6987 6.64973 25.0628 7.34747 21.5551C8.0452 18.0474 9.76743 14.8254 12.2964 12.2964C14.8253 9.76748 18.0474 8.0452 21.5551 7.34746C25.0628 6.64973 28.6987 7.00784 32.0029 8.37649C35.3072 9.74515 38.1313 12.0628 40.1183 15.0366C42.1053 18.0103 43.1658 21.5064 43.1658 25.0829C43.1658 27.4576 42.6981 29.809 41.7893 32.0029C40.8806 34.1968 39.5486 36.1903 37.8695 37.8695C36.1903 39.5487 34.1969 40.8805 32.0029 41.7893C29.809 42.698 27.4576 43.1658 25.0829 43.1658V43.1658ZM25.0829 9.12739C21.9272 9.12739 18.8424 10.0632 16.2185 11.8164C13.5946 13.5696 11.5496 16.0615 10.3419 18.977C9.13432 21.8925 8.81834 25.1006 9.43399 28.1957C10.0496 31.2908 11.5693 34.1337 13.8007 36.3651C16.0321 38.5965 18.8751 40.1162 21.9701 40.7318C25.0652 41.3475 28.2733 41.0314 31.1888 39.8238C34.1043 38.6162 36.5962 36.5712 38.3494 33.9474C40.1026 31.3235 41.0384 28.2386 41.0384 25.0829C41.0384 22.9876 40.6257 20.9128 39.8239 18.977C39.022 17.0412 37.8468 15.2823 36.3652 13.8007C34.8835 12.3191 33.1246 11.1438 31.1888 10.342C29.253 9.54014 27.1782 9.12739 25.0829 9.12739Z" fill="#404040"/>
<path d="M52.7388 56.9939C52.5988 56.9947 52.46 56.9679 52.3304 56.9149C52.2008 56.862 52.083 56.784 51.9836 56.6854L38.1555 42.8573C38.0558 42.7584 37.9766 42.6409 37.9226 42.5112C37.8686 42.3816 37.8408 42.2425 37.8408 42.1021C37.8408 41.9617 37.8686 41.8227 37.9226 41.6931C37.9766 41.5635 38.0558 41.4458 38.1555 41.3469L41.3466 38.1558C41.4454 38.0561 41.5631 37.977 41.6927 37.923C41.8223 37.869 41.9614 37.8412 42.1018 37.8412C42.2422 37.8412 42.3812 37.869 42.5109 37.923C42.6405 37.977 42.7581 38.0561 42.857 38.1558L56.6851 51.9839C56.7848 52.0828 56.8639 52.2005 56.918 52.3301C56.972 52.4597 56.9998 52.5987 56.9998 52.7391C56.9998 52.8795 56.972 53.0186 56.918 53.1482C56.8639 53.2779 56.7848 53.3954 56.6851 53.4943L53.494 56.6854C53.3946 56.784 53.2767 56.862 53.1471 56.9149C53.0175 56.9679 52.8788 56.9947 52.7388 56.9939V56.9939ZM40.4105 42.1021L52.7388 54.4198L54.4194 52.7391L42.1018 40.4108L40.4105 42.1021Z" fill="#404040"/>
<path d="M40.5069 41.571C40.3669 41.5718 40.2281 41.5449 40.0985 41.492C39.9689 41.4391 39.851 41.361 39.7516 41.2624L36.3686 37.8688C36.1943 37.6653 36.1032 37.4035 36.1136 37.1358C36.1239 36.868 36.2349 36.6141 36.4244 36.4247C36.6138 36.2352 36.8678 36.1242 37.1356 36.1139C37.4033 36.1036 37.6651 36.1945 37.8686 36.3688L41.2622 39.7518C41.3619 39.8507 41.4411 39.9684 41.4951 40.0981C41.5491 40.2277 41.5769 40.3667 41.5769 40.5071C41.5769 40.6476 41.5491 40.7867 41.4951 40.9163C41.4411 41.046 41.3619 41.1635 41.2622 41.2624C41.1628 41.361 41.0449 41.4391 40.9153 41.492C40.7857 41.5449 40.6469 41.5718 40.5069 41.571V41.571Z" fill="#404040"/>
</svg>
