<svg width="64" height="64" viewBox="0 0 64 64" fill="none" xmlns="http://www.w3.org/2000/svg">
<path d="M21.5829 41.7656H18.458V39.6823H21.5829C21.8592 39.6823 22.1241 39.5725 22.3194 39.3772C22.5148 39.1818 22.6245 38.917 22.6245 38.6407V36.5574H24.7078V38.6407C24.7078 39.4695 24.3786 40.2642 23.7925 40.8502C23.2065 41.4363 22.4117 41.7656 21.5829 41.7656Z" fill="#404040"/>
<path d="M18.458 50.0986H17.4164C14.7394 50.0986 13.7915 47.5674 13.3853 46.4945L13.3228 46.2967C12.9374 45.3175 10.6979 40.3489 10.6771 40.3073C10.3131 39.3526 10.126 38.3395 10.125 37.3178V36.5574H12.2083V37.3178C12.2084 38.0647 12.3425 38.8056 12.6041 39.5052C12.677 39.651 14.8644 44.5154 15.2602 45.557L15.3436 45.7654C15.8019 46.9945 16.281 48.0154 17.4268 48.0154H18.4685C18.6852 48.0284 18.9022 47.9952 19.1052 47.918C19.3081 47.8408 19.4923 47.7213 19.6455 47.5674C19.8747 47.2445 19.6976 46.63 19.5726 46.2967C19.0101 44.7863 16.9685 40.3594 16.9477 40.3073C16.5756 39.3545 16.3848 38.3406 16.3852 37.3178V36.5574H18.4685V37.3178C18.4686 38.0647 18.6027 38.8056 18.8643 39.5052C18.9164 39.6198 20.9475 43.9842 21.5204 45.557C21.7687 46.0593 21.8847 46.6167 21.8573 47.1763C21.83 47.7359 21.6602 48.2792 21.3642 48.7549C21.0166 49.1883 20.5733 49.5351 20.069 49.7683C19.5648 50.0014 19.0134 50.1145 18.458 50.0986V50.0986Z" fill="#404040"/>
<path d="M41.3735 35.5158V33.4325C41.989 33.43 42.5901 33.2456 43.1013 32.9027C43.6124 32.5598 44.0109 32.0736 44.2468 31.505C44.4827 30.9365 44.5454 30.311 44.4271 29.707C44.3088 29.1029 44.0147 28.5472 43.5818 28.1097C43.2927 27.8175 42.9489 27.5853 42.57 27.4262C42.1911 27.2672 41.7845 27.1845 41.3735 27.1827V25.0995C42.7548 25.0995 44.0795 25.6481 45.0563 26.6248C46.033 27.6015 46.5817 28.9264 46.5817 30.3076C46.5602 31.6822 46.0046 32.9945 45.0325 33.9666C44.0604 34.9387 42.7481 35.4943 41.3735 35.5158V35.5158Z" fill="#404040"/>
<path d="M40.3218 45.5675C39.7991 45.5631 39.2971 45.3624 38.9156 45.0051C33.8532 40.2969 29.4263 37.5991 26.791 37.5991H14.2914C12.3576 37.5991 10.503 36.8309 9.1356 35.4635C7.7682 34.0961 7 32.2415 7 30.3077V29.2661C7 27.3323 7.7682 25.4776 9.1356 24.1102C10.503 22.7428 12.3576 21.9747 14.2914 21.9747H26.791C29.4263 21.9747 33.8532 19.2663 38.9156 14.5581C39.2124 14.2819 39.5834 14.0984 39.983 14.0299C40.3827 13.9615 40.7937 14.011 41.1655 14.1727C41.5381 14.3354 41.8551 14.6036 42.0772 14.9442C42.2993 15.2847 42.4169 15.6828 42.4154 16.0894V43.4738C42.4169 43.8804 42.2993 44.2786 42.0772 44.6192C41.8551 44.9598 41.5381 45.2279 41.1655 45.3905C40.8985 45.5039 40.6118 45.5639 40.3218 45.5675ZM14.281 24.0579C12.8997 24.0579 11.575 24.6065 10.5983 25.5832C9.62156 26.5599 9.07284 27.8848 9.07284 29.2661V30.3077C9.07284 31.689 9.62156 33.0137 10.5983 33.9904C11.575 34.9671 12.8997 35.5159 14.281 35.5159H26.7806C31.1033 35.5159 37.124 40.5052 40.3218 43.4842V16.0894C37.1135 19.0685 31.1033 24.0579 26.7806 24.0579H14.281Z" fill="#404040"/>
<path d="M27.8328 23.0162H25.7495V36.5574H27.8328V23.0162Z" fill="#404040"/>
<path d="M51.3528 42.5259L49.9258 41.005C51.4889 39.695 52.746 38.0582 53.6085 36.21C54.4709 34.3618 54.9179 32.3472 54.9179 30.3076C54.9179 28.2681 54.4709 26.2533 53.6085 24.4051C52.746 22.5569 51.4889 20.9201 49.9258 19.61L51.3528 18.0892C53.1231 19.5951 54.545 21.4678 55.5201 23.5774C56.4952 25.6871 57.0002 27.9835 57.0002 30.3076C57.0002 32.6317 56.4952 34.9281 55.5201 37.0378C54.545 39.1474 53.1231 41.02 51.3528 42.5259Z" fill="#FA4616"/>
<path d="M47.3214 40.4115L45.8423 38.9427C47.0578 37.8553 48.0302 36.5237 48.6959 35.0348C49.3617 33.5459 49.7058 31.9334 49.7058 30.3025C49.7058 28.6715 49.3617 27.0589 48.6959 25.57C48.0302 24.0811 47.0578 22.7495 45.8423 21.6621L47.3214 20.1934C48.7293 21.4742 49.8542 23.035 50.624 24.7758C51.3937 26.5166 51.7913 28.3991 51.7913 30.3025C51.7913 32.2058 51.3937 34.0882 50.624 35.829C49.8542 37.5698 48.7293 39.1306 47.3214 40.4115Z" fill="#FA4616"/>
</svg>
