<svg width="64" height="64" viewBox="0 0 64 64" fill="none" xmlns="http://www.w3.org/2000/svg">
<path d="M25.0659 17.182H19.3662V19.4573H25.0659V17.182Z" fill="#404040"/>
<path d="M14.8152 24.008C13.6902 24.008 12.5904 23.6744 11.655 23.0493C10.7196 22.4243 9.99048 21.5359 9.55995 20.4965C9.12942 19.4571 9.01677 18.3134 9.23625 17.2099C9.45574 16.1065 9.99749 15.093 10.793 14.2975C11.5885 13.502 12.6021 12.9602 13.7055 12.7407C14.8089 12.5212 15.9526 12.6339 16.992 13.0644C18.0314 13.495 18.9198 14.224 19.5449 15.1595C20.1699 16.0949 20.5035 17.1947 20.5035 18.3197C20.5035 19.8283 19.9042 21.2751 18.8374 22.3419C17.7707 23.4087 16.3238 24.008 14.8152 24.008V24.008ZM14.8152 14.9067C14.1402 14.9067 13.4803 15.1069 12.9191 15.4819C12.3578 15.857 11.9204 16.3899 11.6621 17.0136C11.4037 17.6372 11.3361 18.3235 11.4678 18.9855C11.5995 19.6476 11.9246 20.2557 12.4019 20.733C12.8792 21.2104 13.4873 21.5354 14.1494 21.6671C14.8114 21.7988 15.4977 21.7312 16.1213 21.4729C16.745 21.2146 17.278 20.7771 17.653 20.2158C18.028 19.6545 18.2282 18.9947 18.2282 18.3197C18.2282 17.4145 17.8686 16.5464 17.2286 15.9063C16.5885 15.2663 15.7204 14.9067 14.8152 14.9067V14.9067Z" fill="#404040"/>
<path d="M15.953 22.8703H13.6777V31.9716H15.953V22.8703Z" fill="#404040"/>
<path d="M14.8268 44.4858C14.6771 44.4867 14.5287 44.458 14.3901 44.4014C14.2515 44.3447 14.1254 44.2613 14.0191 44.1559L8.33082 38.4676C8.11893 38.2545 8 37.9661 8 37.6656C8 37.365 8.11893 37.0766 8.33082 36.8635L14.0191 31.1752C14.1249 31.0686 14.2507 30.984 14.3893 30.9262C14.528 30.8684 14.6767 30.8387 14.8268 30.8387C14.977 30.8387 15.1257 30.8684 15.2643 30.9262C15.403 30.984 15.5288 31.0686 15.6346 31.1752L21.3228 36.8635C21.5347 37.0766 21.6537 37.365 21.6537 37.6656C21.6537 37.9661 21.5347 38.2545 21.3228 38.4676L15.6346 44.1559C15.5283 44.2613 15.4022 44.3447 15.2636 44.4014C15.125 44.458 14.9766 44.4867 14.8268 44.4858ZM10.7427 37.6599L14.8268 41.7441L18.911 37.6599L14.8268 33.587L10.7427 37.6599Z" fill="#404040"/>
<path d="M34.1666 42.2105H25.0654C24.7637 42.2105 24.4743 42.0906 24.2609 41.8772C24.0476 41.6639 23.9277 41.3745 23.9277 41.0728V34.2469C23.9277 33.9452 24.0476 33.6558 24.2609 33.4425C24.4743 33.2291 24.7637 33.1092 25.0654 33.1092H34.1666C34.4684 33.1092 34.7577 33.2291 34.9711 33.4425C35.1844 33.6558 35.3043 33.9452 35.3043 34.2469V41.0728C35.3043 41.3745 35.1844 41.6639 34.9711 41.8772C34.7577 42.0906 34.4684 42.2105 34.1666 42.2105ZM26.203 39.9352H33.029V35.3845H26.203V39.9352Z" fill="#404040"/>
<path d="M25.0659 36.5222H20.5039V38.7975H25.0659V36.5222Z" fill="#404040"/>
<path d="M42.1306 36.5222H34.167V38.7975H42.1306V36.5222Z" fill="#404040"/>
<path d="M29.616 57C28.491 57 27.3912 56.6664 26.4558 56.0414C25.5204 55.4163 24.7913 54.5279 24.3607 53.4885C23.9302 52.4491 23.8176 51.3054 24.037 50.202C24.2565 49.0986 24.7983 48.085 25.5938 47.2895C26.3893 46.494 27.4029 45.9522 28.5063 45.7327C29.6097 45.5133 30.7534 45.6259 31.7928 46.0565C32.8322 46.487 33.7206 47.2161 34.3457 48.1515C34.9707 49.0869 35.3043 50.1867 35.3043 51.3117C35.3043 52.8204 34.705 54.2672 33.6382 55.3339C32.5715 56.4007 31.1246 57 29.616 57V57ZM29.616 47.8988C28.941 47.8988 28.2811 48.099 27.7199 48.474C27.1586 48.849 26.7212 49.382 26.4629 50.0056C26.2045 50.6293 26.1369 51.3155 26.2686 51.9776C26.4003 52.6396 26.7254 53.2478 27.2027 53.7251C27.68 54.2024 28.2881 54.5275 28.9502 54.6591C29.6122 54.7908 30.2985 54.7233 30.9221 54.4649C31.5457 54.2066 32.0788 53.7691 32.4538 53.2078C32.8288 52.6466 33.029 51.9867 33.029 51.3117C33.029 50.4066 32.6694 49.5384 32.0294 48.8984C31.3893 48.2583 30.5212 47.8988 29.616 47.8988Z" fill="#404040"/>
<path d="M51.2316 42.2105H39.855C39.6582 42.2091 39.4652 42.1566 39.2947 42.0583C39.1242 41.9599 38.9822 41.819 38.8825 41.6494C38.7828 41.4797 38.7287 41.2871 38.7257 41.0903C38.7227 40.8936 38.7708 40.6994 38.8652 40.5268L44.5535 30.2879C44.6527 30.1128 44.7966 29.9671 44.9705 29.8658C45.1444 29.7645 45.342 29.7111 45.5433 29.7111C45.7445 29.7111 45.9422 29.7645 46.116 29.8658C46.2899 29.9671 46.4338 30.1128 46.533 30.2879L52.2213 40.5268C52.3212 40.6997 52.3737 40.8959 52.3737 41.0956C52.3737 41.2953 52.3212 41.4915 52.2213 41.6644C52.1182 41.8338 51.9727 41.9733 51.7991 42.069C51.6254 42.1648 51.4298 42.2136 51.2316 42.2105V42.2105ZM41.789 39.9352H49.2975L45.5433 33.1775L41.789 39.9352Z" fill="#404040"/>
<path d="M55.7825 52.4494H34.167V50.1741H54.6448V19.4573H45.5436V17.182H55.7825C56.0842 17.182 56.3736 17.3019 56.5869 17.5153C56.8003 17.7286 56.9201 18.018 56.9201 18.3197V51.3117C56.9201 51.6134 56.8003 51.9028 56.5869 52.1161C56.3736 52.3295 56.0842 52.4494 55.7825 52.4494Z" fill="#404040"/>
<path d="M35.3045 22.8703C34.4045 22.8703 33.5247 22.6034 32.7763 22.1034C32.028 21.6034 31.4447 20.8927 31.1003 20.0612C30.7559 19.2297 30.6658 18.3147 30.8413 17.432C31.0169 16.5492 31.4503 15.7383 32.0868 15.1019C32.7232 14.4655 33.534 14.0321 34.4167 13.8565C35.2995 13.6809 36.2145 13.7711 37.046 14.1155C37.8775 14.4599 38.5882 15.0432 39.0882 15.7915C39.5883 16.5399 39.8552 17.4197 39.8552 18.3197C39.8552 19.5266 39.3757 20.6841 38.5223 21.5375C37.6689 22.3909 36.5114 22.8703 35.3045 22.8703ZM35.3045 16.0444C34.8545 16.0444 34.4146 16.1778 34.0404 16.4278C33.6663 16.6778 33.3746 17.0332 33.2024 17.449C33.0302 17.8647 32.9851 18.3223 33.0729 18.7636C33.1607 19.205 33.3774 19.6104 33.6956 19.9286C34.0139 20.2468 34.4193 20.4635 34.8606 20.5513C35.302 20.6391 35.7595 20.5941 36.1753 20.4218C36.591 20.2496 36.9464 19.958 37.1964 19.5838C37.4464 19.2096 37.5798 18.7697 37.5798 18.3197C37.5798 17.7163 37.3401 17.1376 36.9134 16.7109C36.4867 16.2841 35.908 16.0444 35.3045 16.0444Z" fill="#FA4616"/>
<path d="M37.5801 29.6963H33.0295C32.7278 29.6963 32.4384 29.5764 32.225 29.363C32.0117 29.1497 31.8918 28.8603 31.8918 28.5586V26.7611H31.7553L30.4811 28.0353C30.3748 28.1407 30.2488 28.2242 30.1101 28.2808C29.9715 28.3374 29.8231 28.3661 29.6734 28.3652V28.3652C29.5237 28.3661 29.3753 28.3374 29.2366 28.2808C29.098 28.2242 28.972 28.1407 28.8657 28.0353L25.703 24.7588C25.5975 24.6525 25.5141 24.5265 25.4575 24.3879C25.4009 24.2493 25.3722 24.1008 25.3731 23.9511C25.3743 23.6527 25.4928 23.3666 25.703 23.1547L26.9771 21.8806C26.9836 21.8315 26.9836 21.7818 26.9771 21.7327H25.1796C24.8779 21.7327 24.5886 21.6128 24.3752 21.3994C24.1619 21.1861 24.042 20.8967 24.042 20.595V16.0444C24.042 15.7427 24.1619 15.4533 24.3752 15.24C24.5886 15.0266 24.8779 14.9067 25.1796 14.9067H26.8406C26.8451 14.8613 26.8451 14.8156 26.8406 14.7702L25.703 13.496C25.5975 13.3897 25.5141 13.2636 25.4575 13.125C25.4009 12.9864 25.3722 12.838 25.3731 12.6883C25.3743 12.3898 25.4928 12.1038 25.703 11.8919L28.9225 8.67239C29.0283 8.56576 29.1541 8.48108 29.2928 8.42332C29.4314 8.36556 29.5801 8.33583 29.7303 8.33583C29.8805 8.33583 30.0292 8.36556 30.1678 8.42332C30.3064 8.48108 30.4323 8.56576 30.538 8.67239L31.8122 9.94656H31.9487V8.13766C31.9487 7.83593 32.0686 7.54658 32.2819 7.33323C32.4953 7.11988 32.7846 7 33.0864 7H37.637C37.9387 7 38.2281 7.11988 38.4414 7.33323C38.6548 7.54658 38.7747 7.83593 38.7747 8.13766V9.94656H38.9112L40.1853 8.67239C40.2911 8.56576 40.4169 8.48108 40.5556 8.42332C40.6942 8.36556 40.8429 8.33583 40.9931 8.33583C41.1433 8.33583 41.2919 8.36556 41.4306 8.42332C41.5692 8.48108 41.695 8.56576 41.8008 8.67239L45.009 11.8919C45.2234 12.102 45.346 12.3882 45.3503 12.6883C45.3497 12.8388 45.3192 12.9877 45.2606 13.1264C45.202 13.265 45.1165 13.3907 45.009 13.496L43.7348 14.7702C43.7393 14.8156 43.7393 14.8613 43.7348 14.9067H45.5437C45.8454 14.9067 46.1348 15.0266 46.3481 15.24C46.5615 15.4533 46.6814 15.7427 46.6814 16.0444V20.595C46.6814 20.8967 46.5615 21.1861 46.3481 21.3994C46.1348 21.6128 45.8454 21.7327 45.5437 21.7327H43.7348C43.7377 21.7819 43.7377 21.8313 43.7348 21.8806L45.009 23.1547C45.2234 23.3648 45.346 23.651 45.3503 23.9511C45.3497 24.1016 45.3192 24.2505 45.2606 24.3892C45.202 24.5278 45.1165 24.6534 45.009 24.7588L41.8008 27.9784C41.6945 28.0838 41.5684 28.1672 41.4298 28.2238C41.2912 28.2805 41.1428 28.3092 40.9931 28.3083V28.3083C40.8434 28.3092 40.6949 28.2805 40.5563 28.2238C40.4177 28.1672 40.2916 28.0838 40.1853 27.9784L38.9112 26.7042H38.7747V28.5017C38.7828 28.6608 38.7575 28.8197 38.7004 28.9683C38.6432 29.117 38.5555 29.252 38.4429 29.3646C38.3303 29.4772 38.1954 29.5648 38.0467 29.622C37.8981 29.6791 37.7391 29.7044 37.5801 29.6963V29.6963ZM34.1671 27.4209H36.4425V25.9534C36.4317 25.701 36.5052 25.4522 36.6514 25.2462C36.7977 25.0402 37.0083 24.8888 37.2502 24.8157C37.7003 24.6841 38.135 24.5048 38.5471 24.281C38.7632 24.1621 39.0121 24.1167 39.2563 24.1516C39.5005 24.1865 39.7267 24.2997 39.9009 24.4744L40.9362 25.5211L42.5403 23.9056L41.505 22.8703C41.3329 22.697 41.2212 22.4728 41.1864 22.2311C41.1516 21.9893 41.1955 21.7428 41.3116 21.5279C41.5315 21.114 41.7106 20.6796 41.8463 20.2309C41.9173 19.987 42.0678 19.7738 42.274 19.6253C42.4802 19.4769 42.7301 19.4018 42.984 19.4119H44.4515V17.1366H42.984C42.7316 17.1473 42.4828 17.0738 42.2768 16.9276C42.0708 16.7813 41.9194 16.5706 41.8463 16.3288C41.7126 15.8794 41.5335 15.4449 41.3116 15.0319C41.1955 14.817 41.1516 14.5704 41.1864 14.3287C41.2212 14.0869 41.3329 13.8628 41.505 13.6894L42.5403 12.6428L40.9362 11.0387L39.9009 12.074C39.7267 12.2486 39.5005 12.3619 39.2563 12.3968C39.0121 12.4317 38.7632 12.3862 38.5471 12.2674C38.1328 12.0483 37.6985 11.8693 37.2502 11.7327C37.0083 11.6597 36.7977 11.5082 36.6514 11.3022C36.5052 11.0962 36.4317 10.8474 36.4425 10.595V9.11602H34.1671V10.595C34.1779 10.8474 34.1044 11.0962 33.9582 11.3022C33.8119 11.5082 33.6012 11.6597 33.3594 11.7327C32.9111 11.8693 32.4768 12.0483 32.0625 12.2674C31.8463 12.3862 31.5974 12.4317 31.3533 12.3968C31.1091 12.3619 30.8828 12.2486 30.7087 12.074L29.6734 11.0387L28.0579 12.6428L29.1046 13.6894C29.2767 13.8628 29.3884 14.0869 29.4232 14.3287C29.458 14.5704 29.4141 14.817 29.298 15.0319C29.0742 15.4439 28.8949 15.8787 28.7633 16.3288C28.6902 16.5706 28.5388 16.7813 28.3328 16.9276C28.1268 17.0738 27.878 17.1473 27.6256 17.1366H26.158V19.4119H27.6256C27.8795 19.4018 28.1294 19.4769 28.3356 19.6253C28.5418 19.7738 28.6923 19.987 28.7633 20.2309C28.899 20.6796 29.0781 21.114 29.298 21.5279C29.4141 21.7428 29.458 21.9893 29.4232 22.2311C29.3884 22.4728 29.2767 22.697 29.1046 22.8703L28.0579 23.9056L29.6734 25.5211L30.7087 24.4744C30.8828 24.2997 31.1091 24.1865 31.3533 24.1516C31.5974 24.1167 31.8463 24.1621 32.0625 24.281C32.4746 24.5048 32.9093 24.6841 33.3594 24.8157C33.6012 24.8888 33.8119 25.0402 33.9582 25.2462C34.1044 25.4522 34.1779 25.701 34.1671 25.9534V27.4209Z" fill="#FA4616"/>
</svg>
