<svg width="64" height="64" viewBox="0 0 64 64" fill="none" xmlns="http://www.w3.org/2000/svg">
<path d="M24.7082 21.5417H17.4165V23.625H24.7082V21.5417Z" fill="#404040"/>
<path d="M11.1667 55.9167C10.0616 55.9167 9.00179 55.4777 8.22039 54.6963C7.43898 53.9149 7 52.8551 7 51.75V43.4167C7 43.1404 7.10973 42.8754 7.30508 42.6801C7.50043 42.4847 7.7654 42.375 8.04167 42.375H12.2083V44.4583H9.08333V51.75C9.08333 52.3025 9.30283 52.8324 9.69353 53.2231C10.0842 53.6138 10.6141 53.8333 11.1667 53.8333C11.7192 53.8333 12.2491 53.6138 12.6398 53.2231C13.0305 52.8324 13.25 52.3025 13.25 51.75V25.7083C13.25 24.6033 13.689 23.5435 14.4704 22.7621C15.2518 21.9807 16.3116 21.5417 17.4167 21.5417C18.5217 21.5417 19.5815 21.9807 20.3629 22.7621C21.1443 23.5435 21.5833 24.6033 21.5833 25.7083V44.4583C21.5833 45.0109 21.8028 45.5408 22.1935 45.9315C22.5842 46.3222 23.1141 46.5417 23.6667 46.5417C24.2192 46.5417 24.7491 46.3222 25.1398 45.9315C25.5305 45.5408 25.75 45.0109 25.75 44.4583V9.04167C25.75 8.7654 25.8597 8.50043 26.0551 8.30508C26.2504 8.10973 26.5154 8 26.7917 8H55.9583C56.2346 8 56.4995 8.10973 56.6949 8.30508C56.8902 8.50043 57 8.7654 57 9.04167V44.4583C57 45.5634 56.561 46.6232 55.7796 47.4046C54.9982 48.186 53.9384 48.625 52.8333 48.625H23.6667C22.5616 48.625 21.5018 48.186 20.7204 47.4046C19.939 46.6232 19.5 45.5634 19.5 44.4583V25.7083C19.5 25.1558 19.2805 24.6259 18.8898 24.2352C18.4991 23.8445 17.9692 23.625 17.4167 23.625C16.8641 23.625 16.3342 23.8445 15.9435 24.2352C15.5528 24.6259 15.3333 25.1558 15.3333 25.7083V51.75C15.3333 52.8551 14.8943 53.9149 14.1129 54.6963C13.3315 55.4777 12.2717 55.9167 11.1667 55.9167ZM27.2708 46.5417H52.8333C53.3859 46.5417 53.9158 46.3222 54.3065 45.9315C54.6972 45.5408 54.9167 45.0109 54.9167 44.4583V10.0833H27.8333V44.4583C27.832 45.1901 27.638 45.9087 27.2708 46.5417Z" fill="#404040"/>
<path d="M38.2502 55.9167H12.2085V53.8333H38.2502C38.8027 53.8333 39.3326 53.6138 39.7233 53.2231C40.114 52.8324 40.3335 52.3025 40.3335 51.75V49.6667H42.4168V51.75C42.4168 52.8551 41.9778 53.9149 41.1964 54.6963C40.415 55.4777 39.3552 55.9167 38.2502 55.9167Z" fill="#404040"/>
<path d="M55.9582 14.25H26.7915V16.3333H55.9582V14.25Z" fill="#404040"/>
<path d="M31.9998 11.125H29.9165V13.2083H31.9998V11.125Z" fill="#404040"/>
<path d="M36.1668 11.125H34.0835V13.2083H36.1668V11.125Z" fill="#404040"/>
<path d="M43.4582 30.9167H29.9165V18.4167H43.4582V30.9167ZM31.9998 28.8333H41.3748V20.5H31.9998V28.8333Z" fill="#FA4616"/>
<path d="M52.8332 19.4583H45.5415V21.5417H52.8332V19.4583Z" fill="#404040"/>
<path d="M52.8332 23.625H45.5415V25.7083H52.8332V23.625Z" fill="#404040"/>
<path d="M52.8332 27.7917H45.5415V29.875H52.8332V27.7917Z" fill="#404040"/>
<path d="M52.8332 35.0833H29.9165V37.1667H52.8332V35.0833Z" fill="#FA4616"/>
<path d="M52.8332 39.25H29.9165V41.3333H52.8332V39.25Z" fill="#FA4616"/>
</svg>
