<svg width="64" height="64" viewBox="0 0 64 64" fill="none" xmlns="http://www.w3.org/2000/svg">
<path d="M50.753 53.7495H8.04174C7.76545 53.7495 7.50048 53.6397 7.30512 53.4443C7.10975 53.249 7 52.984 7 52.7077V17.2886C7 17.0123 7.10975 16.7473 7.30512 16.552C7.50048 16.3566 7.76545 16.2469 8.04174 16.2469H41.3774V18.3304H9.08348V51.666H49.7113V24.5808H51.7948V52.7077C51.7948 52.984 51.685 53.249 51.4897 53.4443C51.2943 53.6397 51.0293 53.7495 50.753 53.7495Z" fill="#404040"/>
<path d="M35.1267 22.4973H8.0415V24.5808H35.1267V22.4973Z" fill="#404040"/>
<path d="M13.2505 19.3721H11.167V21.4556H13.2505V19.3721Z" fill="#404040"/>
<path d="M17.4175 19.3721H15.334V21.4556H17.4175V19.3721Z" fill="#404040"/>
<path d="M20.5424 40.2069H12.2085V27.706H28.8763V30.8312H26.7928V29.7895H14.292V38.1234H20.5424V40.2069Z" fill="#FA4616"/>
<path d="M18.4589 45.4156H12.2085V47.4991H18.4589V45.4156Z" fill="#404040"/>
<path d="M20.5425 47.499C20.3692 47.4997 20.1985 47.457 20.0458 47.375C19.8932 47.293 19.7634 47.1742 19.6682 47.0294C19.5731 46.8846 19.5155 46.7183 19.5008 46.5457C19.4861 46.373 19.5147 46.1994 19.5841 46.0406L23.0218 38.1755C23.079 38.0611 23.1527 37.9558 23.2406 37.863L50.5029 10.6111C50.6964 10.4173 50.9262 10.2637 51.1791 10.1588C51.432 10.054 51.7031 10 51.9769 10C52.2507 10 52.5218 10.054 52.7748 10.1588C53.0277 10.2637 53.2575 10.4173 53.451 10.6111L56.3887 13.5488C56.5824 13.7423 56.7361 13.972 56.8409 14.225C56.9458 14.4779 56.9998 14.749 56.9998 15.0228C56.9998 15.2966 56.9458 15.5677 56.8409 15.8207C56.7361 16.0736 56.5824 16.3034 56.3887 16.4969V16.4969L29.1368 43.8113C29.0417 43.8984 28.9325 43.9689 28.8139 44.0196L20.9591 47.4678C20.8232 47.5028 20.6821 47.5133 20.5425 47.499V47.499ZM24.8553 39.1651L22.5634 44.3738L27.7721 42.082L54.8573 14.9968L51.9092 12.0487L24.8553 39.1651Z" fill="#404040"/>
<path d="M48.2909 14.3108L46.8174 15.7837L51.2363 20.2042L52.7098 18.7312L48.2909 14.3108Z" fill="#404040"/>
</svg>
