<svg width="64" height="64" viewBox="0 0 64 64" fill="none" xmlns="http://www.w3.org/2000/svg">
<path d="M29.6689 51.8686C29.5293 51.8669 29.3913 51.8378 29.2629 51.7831L25.5983 50.266L26.4103 48.2894L29.1667 49.4326L30.6731 46.4091C30.7752 46.2043 30.9404 46.0377 31.1443 45.9339C31.3481 45.83 31.58 45.7944 31.8056 45.8322C33.6132 46.1313 35.4575 46.1313 37.2651 45.8322C37.4907 45.7944 37.7226 45.83 37.9264 45.9339C38.1303 46.0377 38.2955 46.2043 38.3976 46.4091L39.904 49.4326L44.8934 47.3706L43.825 44.1655C43.753 43.9484 43.7526 43.714 43.8237 43.4967C43.8949 43.2794 44.0339 43.0906 44.2203 42.9582C45.7086 41.8884 47.0115 40.5819 48.0771 39.0907C48.2096 38.9042 48.3983 38.7652 48.6156 38.6941C48.8329 38.6229 49.0674 38.6234 49.2844 38.6954L52.4896 39.7637L54.5516 34.785L51.528 33.2679C51.3233 33.1658 51.1567 33.0007 51.0529 32.7968C50.949 32.5929 50.9133 32.3611 50.9511 32.1354C51.2609 30.3324 51.2609 28.4898 50.9511 26.6867C50.9133 26.461 50.949 26.2292 51.0529 26.0253C51.1567 25.8214 51.3233 25.6563 51.528 25.5542L54.5516 24.0371L52.4896 19.0584L49.2844 20.1268C49.0674 20.1988 48.8329 20.1992 48.6156 20.128C48.3983 20.0569 48.2096 19.9179 48.0771 19.7315C47.0131 18.2383 45.7057 16.9346 44.2096 15.8746C44.0251 15.7408 43.8882 15.5513 43.819 15.3341C43.7498 15.1169 43.7519 14.8833 43.825 14.6674L44.8934 11.4622L39.904 9.38953L38.3976 12.4237C38.2938 12.6265 38.128 12.7908 37.9242 12.8927C37.7205 12.9946 37.4895 13.0287 37.2651 12.99C35.4575 12.6909 33.6132 12.6909 31.8056 12.99C31.58 13.0278 31.3481 12.9921 31.1443 12.8882C30.9404 12.7843 30.7752 12.6178 30.6731 12.413L29.1667 9.38953L24.1773 11.4622L25.2457 14.6674C25.3177 14.8844 25.3182 15.1188 25.247 15.3361C25.1758 15.5534 25.0368 15.7422 24.8504 15.8746C23.36 16.9376 22.0565 18.241 20.9935 19.7315C20.8611 19.9179 20.6724 20.0569 20.455 20.128C20.2377 20.1992 20.0033 20.1988 19.7863 20.1268L16.5811 19.0584L14.5191 24.0371L17.5427 25.5542C17.7474 25.6563 17.914 25.8214 18.0179 26.0253C18.1217 26.2292 18.1574 26.461 18.1196 26.6867C17.8151 28.4938 17.8151 30.3391 18.1196 32.1461C18.1582 32.3706 18.1242 32.6015 18.0223 32.8053C17.9205 33.009 17.7561 33.1749 17.5533 33.2786L14.5298 34.785L16.1644 38.7381L14.1879 39.5501L12.1687 34.6889C12.0646 34.4384 12.0597 34.1577 12.1549 33.9038C12.2502 33.6498 12.4384 33.4416 12.6815 33.3213L15.8867 31.7081C15.6944 30.1828 15.6944 28.6393 15.8867 27.114L12.6815 25.5007C12.441 25.3806 12.2546 25.1742 12.1595 24.9227C12.0645 24.6712 12.0678 24.3931 12.1687 24.1439L14.9999 17.3169C15.1045 17.0685 15.2992 16.8687 15.5449 16.7578C15.7906 16.6468 16.0691 16.6328 16.3247 16.7186L19.7435 17.8511C20.6807 16.6591 21.7567 15.5831 22.9487 14.646L21.8055 11.2271C21.7204 10.9702 21.7359 10.6906 21.8489 10.4447C21.9619 10.1988 22.1641 10.005 22.4145 9.90234L29.2308 7.08178C29.4813 6.97771 29.762 6.97279 30.0159 7.06802C30.2699 7.16325 30.4781 7.35156 30.5984 7.59465L32.2116 10.7998C33.734 10.6182 35.2726 10.6182 36.795 10.7998L38.4083 7.59465C38.5285 7.35156 38.7368 7.16325 38.9907 7.06802C39.2447 6.97279 39.5253 6.97771 39.7758 7.08178L46.5921 9.90234C46.8425 10.005 47.0447 10.1988 47.1577 10.4447C47.2707 10.6906 47.2862 10.9702 47.2011 11.2271L46.0579 14.6567C47.2552 15.5879 48.3319 16.6645 49.2631 17.8618L52.6819 16.7293C52.9374 16.6435 53.216 16.6575 53.4617 16.7685C53.7074 16.8794 53.9021 17.0792 54.0067 17.3276L56.8379 24.1546C56.9388 24.4038 56.9421 24.6819 56.847 24.9334C56.752 25.1849 56.5656 25.3913 56.3251 25.5114L53.1199 27.1247C53.3122 28.65 53.3122 30.1934 53.1199 31.7188L56.3251 33.332C56.5682 33.4523 56.7564 33.6605 56.8517 33.9145C56.9469 34.1684 56.942 34.4491 56.8379 34.6996L54.0067 41.5159C53.9041 41.7663 53.7102 41.9684 53.4643 42.0815C53.2184 42.1945 52.9388 42.21 52.6819 42.1248L49.2631 40.9817C48.3315 42.1786 47.2548 43.2553 46.0579 44.1869L47.2011 47.6057C47.2862 47.8625 47.2707 48.1422 47.1577 48.3881C47.0447 48.634 46.8425 48.8279 46.5921 48.9305L39.7758 51.751C39.5266 51.8559 39.2469 51.8624 38.9931 51.7692C38.7394 51.676 38.5304 51.4901 38.4083 51.2489L36.795 48.0437C35.2732 48.236 33.7333 48.236 32.2116 48.0437L30.5984 51.2489C30.5157 51.4279 30.3851 51.5805 30.2211 51.6899C30.057 51.7993 29.8659 51.8611 29.6689 51.8686V51.8686Z" fill="#404040"/>
<path d="M15.4167 56.9968C14.059 57.0447 12.7376 56.553 11.7415 55.6292C11.6413 55.5299 11.5618 55.4117 11.5076 55.2815C11.4534 55.1513 11.4254 55.0118 11.4254 54.8707C11.4254 54.7297 11.4534 54.59 11.5076 54.4598C11.5618 54.3296 11.6413 54.2115 11.7415 54.1121L15.1069 50.7467L13.2479 48.8877L9.88246 52.2532C9.78263 52.3522 9.66425 52.4305 9.53408 52.4837C9.40392 52.5368 9.26453 52.5638 9.12392 52.563C8.84152 52.5474 8.57334 52.4341 8.36537 52.2425C6.06834 49.9027 6.90166 45.4689 9.14528 43.2253L9.83972 42.5308C10.7713 41.6078 11.9547 40.9805 13.2415 40.7277C14.5284 40.4749 15.8612 40.6079 17.0727 41.1099L27.0087 31.0884C26.6167 29.9129 26.558 28.6517 26.839 27.4447C27.1199 26.2378 27.7297 25.1323 28.6006 24.2507L29.2844 23.5563C31.5387 21.3127 35.9725 20.4793 38.3122 22.7764C38.4132 22.8753 38.4935 22.9933 38.5485 23.1235C38.6035 23.2537 38.6322 23.3936 38.6327 23.5349C38.6336 23.6755 38.6066 23.8149 38.5534 23.9451C38.5003 24.0753 38.4219 24.1936 38.3229 24.2935L34.9575 27.6589L36.8165 29.5179L40.1819 26.1525C40.3809 25.9551 40.6495 25.8438 40.9298 25.8426C41.0729 25.8418 41.2148 25.8697 41.3469 25.9248C41.4791 25.9798 41.5988 26.0609 41.699 26.1631C43.996 28.5029 43.1627 32.9367 40.9084 35.1803L40.2246 35.8748C39.3411 36.7426 38.2356 37.3502 37.0294 37.6311C35.8232 37.9119 34.5629 37.855 33.387 37.4667L23.1625 47.6804C23.4709 48.8139 23.4763 50.0084 23.1782 51.1446C22.8801 52.2808 22.2889 53.3188 21.4638 54.1549L20.7693 54.8493C19.3221 56.2182 17.4087 56.9858 15.4167 56.9968V56.9968ZM14.1881 54.6784C15.0776 54.8917 16.0062 54.8804 16.8903 54.6454C17.7744 54.4104 18.5861 53.9592 19.2522 53.3322L19.936 52.6485C20.5429 52.0365 20.9612 51.2631 21.1411 50.4202C21.321 49.5773 21.2551 48.7006 20.951 47.8941C20.8521 47.6938 20.8185 47.4676 20.8549 47.2472C20.8914 47.0268 20.9959 46.8233 21.154 46.6655L32.4041 35.4154C32.5745 35.2465 32.7968 35.1399 33.0352 35.1128C33.2736 35.0857 33.5141 35.1396 33.7182 35.2658C34.5413 35.6506 35.4637 35.7699 36.3576 35.6072C37.2516 35.4445 38.0728 35.0078 38.7075 34.3577L39.3913 33.6739C40.0188 33.0083 40.4698 32.1962 40.7031 31.3116C40.9363 30.4271 40.9445 29.4983 40.7268 28.6098L37.5216 31.8149C37.4223 31.9151 37.3041 31.9945 37.1739 32.0488C37.0438 32.103 36.9041 32.1309 36.7631 32.1309C36.622 32.1309 36.4824 32.103 36.3522 32.0488C36.222 31.9945 36.1038 31.9151 36.0045 31.8149L32.6391 28.4388C32.4401 28.2386 32.3284 27.9679 32.3284 27.6856C32.3284 27.4034 32.4401 27.1326 32.6391 26.9324L35.8443 23.7272C34.9613 23.5184 34.0402 23.5321 33.1638 23.7671C32.2874 24.002 31.483 24.4509 30.8228 25.0734L30.1284 25.7572C29.4773 26.3915 29.0407 27.2134 28.8798 28.108C28.7189 29.0026 28.8417 29.9252 29.231 30.7465C29.3559 30.9517 29.408 31.193 29.3789 31.4314C29.3498 31.6699 29.2412 31.8915 29.0707 32.0606L17.9595 43.268C17.7622 43.4693 17.4934 43.5846 17.2116 43.5886C16.9313 43.5874 16.6627 43.4761 16.4637 43.2787L16.2714 43.0864C15.4537 42.736 14.5493 42.6403 13.6764 42.8119C12.8035 42.9834 12.0025 43.4142 11.3782 44.048L10.6944 44.7317C10.0675 45.3978 9.61621 46.2096 9.3812 47.0936C9.1462 47.9777 9.13489 48.9064 9.34827 49.7959L12.5534 46.5907C12.7536 46.3917 13.0244 46.28 13.3067 46.28C13.5889 46.28 13.8597 46.3917 14.0599 46.5907L17.436 49.9668C17.6333 50.1658 17.7446 50.4344 17.7458 50.7147C17.7466 50.8553 17.7196 50.9947 17.6665 51.1248C17.6133 51.255 17.535 51.3734 17.436 51.4732L14.1881 54.6784Z" fill="#404040"/>
<path d="M34.5084 43.0223C33.5826 43.0215 32.6592 42.9284 31.7519 42.7445L32.1793 40.6078C32.9462 40.761 33.7263 40.8398 34.5084 40.8428C36.8934 40.8405 39.217 40.0866 41.1492 38.6884C43.0813 37.2901 44.5237 35.3186 45.2715 33.0538C46.0192 30.789 46.0343 28.3462 45.3145 26.0724C44.5947 23.7986 43.1768 21.8094 41.262 20.3875C39.3472 18.9655 37.0331 18.183 34.6483 18.1513C32.2634 18.1196 29.9293 18.8401 27.9774 20.2106C26.0254 21.5811 24.555 23.5319 23.775 25.7857C22.9949 28.0396 22.945 30.482 23.6322 32.7658L21.5916 33.3855C21.2074 32.1213 21.013 30.8071 21.0147 29.4859C21.0231 26.8189 21.8217 24.2143 23.3095 22.0009C24.7973 19.7875 26.9077 18.0645 29.3741 17.0498C31.8405 16.035 34.5523 15.7739 37.167 16.2994C39.7817 16.8248 42.182 18.1134 44.0649 20.0022C45.9477 21.891 47.2287 24.2954 47.7459 26.9118C48.2631 29.5281 47.9933 32.2391 46.9708 34.7022C45.9482 37.1654 44.2187 39.2703 42.0006 40.7512C39.7825 42.232 37.1754 43.0223 34.5084 43.0223Z" fill="#FA4616"/>
</svg>
