<svg width="64" height="64" viewBox="0 0 64 64" fill="none" xmlns="http://www.w3.org/2000/svg">
<path d="M57 40.25H7V12.125H18.4583V14.2083H9.08333V38.1667H54.9167V14.2083H45.5417V12.125H57V40.25Z" fill="#404040"/>
<path d="M43.4582 12.125H33.0415V14.2083H43.4582V12.125Z" fill="#404040"/>
<path d="M30.9582 12.125H20.5415V14.2083H30.9582V12.125Z" fill="#404040"/>
<path d="M29.9168 41.2917H27.8335V53.7917H29.9168V41.2917Z" fill="#404040"/>
<path d="M36.1668 41.2917H34.0835V53.7917H36.1668V41.2917Z" fill="#404040"/>
<path d="M38.25 52.75H25.75V54.8333H38.25V52.75Z" fill="#404040"/>
<path d="M21.5835 16.2917H15.3335V18.375H21.5835V16.2917Z" fill="#FA4616"/>
<path d="M19.4998 17.3333H17.4165V12.125C17.4165 11.2962 17.7457 10.5013 18.3318 9.91527C18.9178 9.32922 19.7127 9 20.5415 9H21.5832V11.0833H20.5415C20.2652 11.0833 20.0003 11.1931 19.8049 11.3884C19.6096 11.5838 19.4998 11.8487 19.4998 12.125V17.3333Z" fill="#FA4616"/>
<path d="M34.0835 16.2917H27.8335V18.375H34.0835V16.2917Z" fill="#FA4616"/>
<path d="M31.9998 17.3333H29.9165V12.125C29.9165 11.2962 30.2457 10.5013 30.8318 9.91527C31.4178 9.32922 32.2127 9 33.0415 9H34.0832V11.0833H33.0415C32.7652 11.0833 32.5003 11.1931 32.3049 11.3884C32.1096 11.5838 31.9998 11.8487 31.9998 12.125V17.3333Z" fill="#FA4616"/>
<path d="M46.5835 16.2917H40.3335V18.375H46.5835V16.2917Z" fill="#FA4616"/>
<path d="M44.4998 17.3333H42.4165V12.125C42.4165 11.2962 42.7457 10.5013 43.3318 9.91527C43.9178 9.32922 44.7127 9 45.5415 9H46.5832V11.0833H45.5415C45.2652 11.0833 45.0003 11.1931 44.8049 11.3884C44.6096 11.5838 44.4998 11.8487 44.4998 12.125V17.3333Z" fill="#FA4616"/>
</svg>
