<svg width="64" height="64" viewBox="0 0 64 64" fill="none" xmlns="http://www.w3.org/2000/svg">
<path d="M36.1667 44.2917H10.125C9.2962 44.2917 8.50136 43.9624 7.9153 43.3764C7.32925 42.7903 7 41.9955 7 41.1667V15.125C7 14.2962 7.32925 13.5014 7.9153 12.9153C8.50136 12.3293 9.2962 12 10.125 12H49.7083C50.5371 12 51.332 12.3293 51.9181 12.9153C52.5041 13.5014 52.8333 14.2962 52.8333 15.125V24.5H50.75V15.125C50.75 14.8487 50.6403 14.5838 50.4449 14.3884C50.2496 14.1931 49.9846 14.0833 49.7083 14.0833H10.125C9.84873 14.0833 9.5838 14.1931 9.38845 14.3884C9.1931 14.5838 9.08333 14.8487 9.08333 15.125V41.1667C9.08333 41.4429 9.1931 41.7079 9.38845 41.9033C9.5838 42.0986 9.84873 42.2083 10.125 42.2083H36.1667V44.2917Z" fill="#404040"/>
<path d="M29.9168 32.9271C28.8221 32.928 27.738 32.7131 26.7264 32.2949C25.7148 31.8766 24.7955 31.2632 24.021 30.4896L10.4272 16.9479L11.9064 15.4792L25.5002 29.0209C26.672 30.1913 28.2606 30.8487 29.9168 30.8487C31.5731 30.8487 33.1616 30.1913 34.3335 29.0209L47.9272 15.4792L49.4064 16.9479L35.8127 30.4896C35.0382 31.2632 34.1189 31.8766 33.1072 32.2949C32.0956 32.7131 31.0115 32.928 29.9168 32.9271V32.9271Z" fill="#404040"/>
<path d="M20.8428 28.9729L10.4277 39.388L11.9009 40.8611L22.316 30.446L20.8428 28.9729Z" fill="#404040"/>
<path d="M54.9167 52.625H40.3333C39.7808 52.625 39.2509 52.4055 38.8602 52.0148C38.4695 51.6241 38.25 51.0942 38.25 50.5417V39.0833C38.25 38.5308 38.4695 38.0009 38.8602 37.6102C39.2509 37.2195 39.7808 37 40.3333 37H54.9167C55.4692 37 55.9991 37.2195 56.3898 37.6102C56.7805 38.0009 57 38.5308 57 39.0833V50.5417C57 51.0942 56.7805 51.6241 56.3898 52.0148C55.9991 52.4055 55.4692 52.625 54.9167 52.625ZM40.3333 39.0833V50.5417H54.9167V39.0833H40.3333Z" fill="#FA4616"/>
<path d="M53.875 39.0833H41.375V32.8333C41.375 31.1757 42.0335 29.5861 43.2056 28.414C44.3777 27.2419 45.9674 26.5833 47.625 26.5833C49.2826 26.5833 50.8723 27.2419 52.0444 28.414C53.2165 29.5861 53.875 31.1757 53.875 32.8333V39.0833ZM43.4583 37H51.7917V32.8333C51.7917 31.7283 51.3527 30.6685 50.5713 29.8871C49.7899 29.1057 48.7301 28.6667 47.625 28.6667C46.5199 28.6667 45.4601 29.1057 44.6787 29.8871C43.8973 30.6685 43.4583 31.7283 43.4583 32.8333V37Z" fill="#FA4616"/>
</svg>
