<svg width="64" height="64" viewBox="0 0 64 64" fill="none" xmlns="http://www.w3.org/2000/svg">
<path d="M52.8429 55.9267H11.1675C10.0622 55.9267 9.00221 55.4876 8.22064 54.706C7.43908 53.9245 7 52.8644 7 51.7591V49.6754C7 49.399 7.10977 49.134 7.30516 48.9387C7.50055 48.7433 7.76556 48.6335 8.04188 48.6335H26.7958C26.9329 48.6327 27.0688 48.659 27.1958 48.7108C27.3227 48.7627 27.4382 48.839 27.5355 48.9356L28.2648 49.6754H35.7247L36.4645 48.9356C36.5618 48.839 36.6773 48.7627 36.8042 48.7108C36.9312 48.659 37.0671 48.6327 37.2042 48.6335H55.9581C56.2344 48.6335 56.4995 48.7433 56.6948 48.9387C56.8902 49.134 57 49.399 57 49.6754V51.7591C57 52.8626 56.5624 53.9211 55.7831 54.7023C55.0037 55.4836 53.9464 55.9239 52.8429 55.9267ZM9.08377 50.7172V51.7591C9.08377 52.3118 9.30331 52.8418 9.69409 53.2325C10.0849 53.6233 10.6149 53.8429 11.1675 53.8429H52.8429C53.3955 53.8429 53.9256 53.6233 54.3163 53.2325C54.7071 52.8418 54.9267 52.3118 54.9267 51.7591V50.7172H37.6418L36.9125 51.457C36.7128 51.6474 36.4486 51.7553 36.1727 51.7591H27.8377C27.7006 51.7599 27.5646 51.7337 27.4377 51.6818C27.3107 51.63 27.1953 51.5536 27.0979 51.457L26.3478 50.7172H9.08377Z" fill="#404040"/>
<path d="M12.2093 44.4659H10.1255V49.6753H12.2093V44.4659Z" fill="#404040"/>
<path d="M53.8844 49.6753H51.8006V22.5864C51.8006 22.31 51.6909 22.0451 51.4955 21.8497C51.3001 21.6543 51.0351 21.5445 50.7587 21.5445H36.1724V19.4607H50.7587C51.5877 19.4607 52.3827 19.79 52.9689 20.3762C53.5551 20.9624 53.8844 21.7574 53.8844 22.5864V49.6753Z" fill="#404040"/>
<path d="M28.8796 33.0052H21.5864V35.089H28.8796V33.0052Z" fill="#FA4616"/>
<path d="M46.5915 33.0052H39.2983V35.089H46.5915V33.0052Z" fill="#FA4616"/>
<path d="M23.9718 37.9125L20.1064 34.0471L23.9718 30.1817L25.4513 31.6612L23.055 34.0471L25.4513 36.433L23.9718 37.9125Z" fill="#FA4616"/>
<path d="M44.206 37.9125L42.7266 36.433L45.1125 34.0471L42.7266 31.6612L44.206 30.1817L48.061 34.0471L44.206 37.9125Z" fill="#FA4616"/>
<path d="M34.3497 42.9031H8.30263C8.0263 42.9031 7.76129 42.7933 7.5659 42.5979C7.37051 42.4025 7.26074 42.1375 7.26074 41.8612V9.04188C7.26074 8.76556 7.37051 8.50057 7.5659 8.30518C7.76129 8.10978 8.0263 8 8.30263 8H33.0474C33.6 8 34.13 8.21954 34.5208 8.61032C34.9116 9.0011 35.1311 9.53112 35.1311 10.0838V29.8796C35.1311 30.1559 35.0214 30.4209 34.826 30.6163C34.6306 30.8117 34.3656 30.9214 34.0892 30.9214C33.8129 30.9214 33.5479 30.8117 33.3525 30.6163C33.1571 30.4209 33.0474 30.1559 33.0474 29.8796V10.0838H9.34451V40.8193H33.3078V37.6937C33.3078 37.4174 33.4176 37.1524 33.613 36.957C33.8084 36.7616 34.0734 36.6518 34.3497 36.6518C34.626 36.6518 34.8911 36.7616 35.0864 36.957C35.2818 37.1524 35.3916 37.4174 35.3916 37.6937V41.8612C35.3916 42.1375 35.2818 42.4025 35.0864 42.5979C34.8911 42.7933 34.626 42.9031 34.3497 42.9031Z" fill="#404040"/>
<path d="M33.0471 33.0052H30.9634V35.089H33.0471V33.0052Z" fill="#FA4616"/>
<path d="M37.2146 33.0052H35.1309V35.089H37.2146V33.0052Z" fill="#FA4616"/>
</svg>
