<svg width="64" height="64" viewBox="0 0 64 64" fill="none" xmlns="http://www.w3.org/2000/svg">
<path d="M55.8636 57H8.13636C7.83498 57 7.54596 56.8803 7.33285 56.6672C7.11974 56.4541 7 56.165 7 55.8636V8.13636C7 7.83498 7.11974 7.54594 7.33285 7.33283C7.54596 7.11972 7.83498 7 8.13636 7H55.8636C56.165 7 56.4541 7.11972 56.6672 7.33283C56.8803 7.54594 57 7.83498 57 8.13636V55.8636C57 56.165 56.8803 56.4541 56.6672 56.6672C56.4541 56.8803 56.165 57 55.8636 57ZM9.27273 54.7273H54.7273V9.27273H9.27273V54.7273Z" fill="#404040"/>
<path d="M55.8635 13.8182H8.13623V16.0909H55.8635V13.8182Z" fill="#404040"/>
<path d="M13.8181 10.4091H11.5454V12.6818H13.8181V10.4091Z" fill="#404040"/>
<path d="M18.3635 10.4091H16.0908V12.6818H18.3635V10.4091Z" fill="#404040"/>
<path d="M51.318 38.8182H12.6816V19.5H51.318V38.8182ZM14.9544 36.5455H49.0453V21.7727H14.9544V36.5455Z" fill="#FA4616"/>
<path d="M30.8635 53.5909H28.5907V44.5H14.9544V53.5909H12.6816V42.2273H30.8635V53.5909Z" fill="#404040"/>
<path d="M51.318 53.5909H49.0453V44.5H35.409V53.5909H33.1362V42.2273H51.318V53.5909Z" fill="#404040"/>
</svg>
