<svg width="64" height="64" viewBox="0 0 64 64" fill="none" xmlns="http://www.w3.org/2000/svg">
<path d="M44.7076 57H19.1236C18.8286 57 18.5456 56.8828 18.337 56.6742C18.1284 56.4656 18.0112 56.1827 18.0112 55.8877V20.2926C18.0112 19.9975 18.1284 19.7146 18.337 19.506C18.5456 19.2974 18.8286 19.1802 19.1236 19.1802H44.4295C44.7245 19.1802 45.0074 19.2974 45.216 19.506C45.4246 19.7146 45.5418 19.9975 45.5418 20.2926C45.5418 20.5876 45.4246 20.8705 45.216 21.0791C45.0074 21.2877 44.7245 21.4049 44.4295 21.4049H20.2359V54.7753H43.5952V24.4082C43.5952 24.1132 43.7124 23.8303 43.921 23.6217C44.1296 23.4131 44.4125 23.2959 44.7076 23.2959C45.0026 23.2959 45.2855 23.4131 45.4941 23.6217C45.7027 23.8303 45.8199 24.1132 45.8199 24.4082V55.8877C45.8199 56.1827 45.7027 56.4656 45.4941 56.6742C45.2855 56.8828 45.0026 57 44.7076 57Z" fill="#404040"/>
<path d="M15.5083 50.3259H9.11235C8.81733 50.3259 8.5344 50.2087 8.3258 50.0001C8.11719 49.7915 8 49.5086 8 49.2136V13.6185C8 13.3235 8.11719 13.0405 8.3258 12.8319C8.5344 12.6233 8.81733 12.5061 9.11235 12.5061H25.5195C25.8145 12.5061 26.0974 12.6233 26.306 12.8319C26.5146 13.0405 26.6318 13.3235 26.6318 13.6185C26.6318 13.9135 26.5146 14.1964 26.306 14.405C26.0974 14.6136 25.8145 14.7308 25.5195 14.7308H10.2247V48.1012H15.5083C15.8034 48.1012 16.0863 48.2184 16.2949 48.427C16.5035 48.6356 16.6207 48.9186 16.6207 49.2136C16.6207 49.5086 16.5035 49.7915 16.2949 50.0001C16.0863 50.2087 15.8034 50.3259 15.5083 50.3259Z" fill="#404040"/>
<path d="M54.4407 44.8198H48.879C48.584 44.8198 48.301 44.7026 48.0924 44.494C47.8838 44.2854 47.7666 44.0025 47.7666 43.7074C47.7666 43.4124 47.8838 43.1295 48.0924 42.9209C48.301 42.7123 48.584 42.5951 48.879 42.5951H53.3283V9.22469H30.2472V16.6774C30.2472 16.9724 30.13 17.2554 29.9214 17.464C29.7128 17.6726 29.4298 17.7898 29.1348 17.7898C28.8398 17.7898 28.5569 17.6726 28.3483 17.464C28.1397 17.2554 28.0225 16.9724 28.0225 16.6774V8.11235C28.0225 7.81733 28.1397 7.53442 28.3483 7.32581C28.5569 7.11721 28.8398 7 29.1348 7H54.4407C54.7357 7 55.0186 7.11721 55.2272 7.32581C55.4359 7.53442 55.553 7.81733 55.553 8.11235V43.7074C55.5524 43.8546 55.5226 44.0002 55.4653 44.1358C55.4081 44.2713 55.3244 44.3942 55.2193 44.4972C55.0121 44.7027 54.7325 44.8186 54.4407 44.8198V44.8198Z" fill="#404040"/>
<path d="M29.1345 51.4383H23.5728C23.2778 51.4383 22.9949 51.3211 22.7862 51.1125C22.5776 50.9038 22.4604 50.6209 22.4604 50.3259V43.6518C22.4604 43.3568 22.5776 43.0739 22.7862 42.8653C22.9949 42.6567 23.2778 42.5395 23.5728 42.5395H29.1345C29.4295 42.5395 29.7125 42.6567 29.9211 42.8653C30.1297 43.0739 30.2469 43.3568 30.2469 43.6518V50.3259C30.2469 50.6209 30.1297 50.9038 29.9211 51.1125C29.7125 51.3211 29.4295 51.4383 29.1345 51.4383ZM24.6851 49.2136H28.0222V44.7642H24.6851V49.2136Z" fill="#FA4616"/>
<path d="M40.2581 51.4383H34.6963C34.4013 51.4383 34.1184 51.3211 33.9098 51.1125C33.7012 50.9038 33.584 50.6209 33.584 50.3259V44.7642C33.584 44.4692 33.7012 44.1862 33.9098 43.9776C34.1184 43.769 34.4013 43.6518 34.6963 43.6518H40.2581C40.5531 43.6518 40.836 43.769 41.0446 43.9776C41.2532 44.1862 41.3704 44.4692 41.3704 44.7642V50.3259C41.3704 50.6209 41.2532 50.9038 41.0446 51.1125C40.836 51.3211 40.5531 51.4383 40.2581 51.4383ZM35.8087 49.2136H39.1457V45.8765H35.8087V49.2136Z" fill="#FA4616"/>
<path d="M34.6965 51.4383H29.1348C28.8398 51.4383 28.5569 51.3211 28.3483 51.1125C28.1397 50.9038 28.0225 50.6209 28.0225 50.3259V40.3148C28.0225 40.0198 28.1397 39.7368 28.3483 39.5282C28.5569 39.3196 28.8398 39.2025 29.1348 39.2025H34.6965C34.9916 39.2025 35.2745 39.3196 35.4831 39.5282C35.6917 39.7368 35.8089 40.0198 35.8089 40.3148V50.3259C35.8089 50.6209 35.6917 50.9038 35.4831 51.1125C35.2745 51.3211 34.9916 51.4383 34.6965 51.4383ZM30.2472 49.2136H33.5842V41.4271H30.2472V49.2136Z" fill="#FA4616"/>
<path d="M38.8676 31.416H23.5728C23.2778 31.416 22.9949 31.2988 22.7862 31.0902C22.5776 30.8816 22.4604 30.5987 22.4604 30.3037C22.4604 30.0087 22.5776 29.7257 22.7862 29.5171C22.9949 29.3085 23.2778 29.1913 23.5728 29.1913H38.8676C39.1626 29.1913 39.4455 29.3085 39.6541 29.5171C39.8627 29.7257 39.9799 30.0087 39.9799 30.3037C39.9799 30.5987 39.8627 30.8816 39.6541 31.0902C39.4455 31.2988 39.1626 31.416 38.8676 31.416Z" fill="#404040"/>
<path d="M38.8676 26.9666H23.5728C23.2778 26.9666 22.9949 26.8494 22.7862 26.6408C22.5776 26.4322 22.4604 26.1493 22.4604 25.8543C22.4604 25.5593 22.5776 25.2763 22.7862 25.0677C22.9949 24.8591 23.2778 24.7419 23.5728 24.7419H38.8676C39.1626 24.7419 39.4455 24.8591 39.6541 25.0677C39.8627 25.2763 39.9799 25.5593 39.9799 25.8543C39.9799 26.1493 39.8627 26.4322 39.6541 26.6408C39.4455 26.8494 39.1626 26.9666 38.8676 26.9666Z" fill="#404040"/>
<path d="M33.7619 35.8654H23.5728C23.2778 35.8654 22.9949 35.7482 22.7862 35.5396C22.5776 35.331 22.4604 35.0481 22.4604 34.7531C22.4604 34.4581 22.5776 34.1751 22.7862 33.9665C22.9949 33.7579 23.2778 33.6407 23.5728 33.6407H33.7619C34.0569 33.6407 34.3398 33.7579 34.5484 33.9665C34.7571 34.1751 34.8742 34.4581 34.8742 34.7531C34.8742 35.0481 34.7571 35.331 34.5484 35.5396C34.3398 35.7482 34.0569 35.8654 33.7619 35.8654Z" fill="#404040"/>
</svg>
