<svg width="64" height="64" viewBox="0 0 64 64" fill="none" xmlns="http://www.w3.org/2000/svg">
<path d="M55.913 54.5652H8.08696C7.79868 54.5652 7.52222 54.4507 7.31838 54.2469C7.11453 54.043 7 53.7666 7 53.4783V11.087C7 10.7987 7.11453 10.5222 7.31838 10.3184C7.52222 10.1145 7.79868 10 8.08696 10H55.913C56.2013 10 56.4778 10.1145 56.6817 10.3184C56.8855 10.5222 57 10.7987 57 11.087V53.4783C57 53.7666 56.8855 54.043 56.6817 54.2469C56.4778 54.4507 56.2013 54.5652 55.913 54.5652ZM9.17391 52.3913H54.8261V12.1739H9.17391V52.3913Z" fill="#404040"/>
<path d="M53.739 16.5217H10.2607V18.6956H53.739V16.5217Z" fill="#404040"/>
<path d="M13.5216 13.2609H11.3477V15.4348H13.5216V13.2609Z" fill="#404040"/>
<path d="M16.7828 13.2609H14.6089V15.4348H16.7828V13.2609Z" fill="#404040"/>
<path d="M20.0435 13.2609H17.8696V15.4348H20.0435V13.2609Z" fill="#404040"/>
<path d="M25.4785 42.6087C25.2245 42.6092 24.9784 42.5207 24.7829 42.3587L18.2611 36.9239C18.138 36.8219 18.0389 36.694 17.9709 36.5493C17.9029 36.4047 17.8677 36.2468 17.8677 36.0869C17.8677 35.9271 17.9029 35.7692 17.9709 35.6245C18.0389 35.4799 18.138 35.352 18.2611 35.25L24.7829 29.8152C24.8928 29.7238 25.0196 29.655 25.1561 29.6127C25.2926 29.5704 25.4361 29.5553 25.5784 29.5684C25.7207 29.5816 25.8591 29.6226 25.9855 29.6892C26.112 29.7558 26.2241 29.8466 26.3154 29.9565C26.4068 30.0664 26.4756 30.1932 26.5179 30.3297C26.5603 30.4662 26.5753 30.6098 26.5622 30.7521C26.5491 30.8944 26.5081 31.0327 26.4415 31.1592C26.3749 31.2856 26.2841 31.3978 26.1742 31.4891L20.6524 36.0869L26.1742 40.6848C26.2842 40.776 26.3752 40.8881 26.4419 41.0145C26.5086 41.141 26.5496 41.2794 26.5628 41.4217C26.5759 41.5641 26.5608 41.7077 26.5184 41.8442C26.4759 41.9807 26.407 42.1075 26.3154 42.2174C26.2132 42.3401 26.0853 42.4387 25.9406 42.5064C25.796 42.574 25.6382 42.6089 25.4785 42.6087Z" fill="#FA4616"/>
<path d="M38.522 42.6087C38.3623 42.6089 38.2045 42.574 38.0599 42.5064C37.9152 42.4387 37.7872 42.3401 37.685 42.2174C37.5935 42.1075 37.5245 41.9807 37.4821 41.8442C37.4396 41.7077 37.4246 41.5641 37.4377 41.4218C37.4508 41.2794 37.4919 41.141 37.5586 41.0145C37.6253 40.8881 37.7163 40.776 37.8263 40.6848L43.3481 36.0869L37.8263 31.4891C37.6044 31.3046 37.4648 31.0395 37.4383 30.7521C37.4118 30.4647 37.5005 30.1785 37.685 29.9565C37.8695 29.7345 38.1346 29.5949 38.4221 29.5684C38.7095 29.5419 38.9957 29.6307 39.2176 29.8152L45.7394 35.25C45.8625 35.352 45.9615 35.4799 46.0295 35.6245C46.0975 35.7692 46.1328 35.9271 46.1328 36.0869C46.1328 36.2468 46.0975 36.4047 46.0295 36.5493C45.9615 36.694 45.8625 36.8219 45.7394 36.9239L39.2176 42.3587C39.0221 42.5207 38.7759 42.6092 38.522 42.6087Z" fill="#FA4616"/>
<path d="M28.7392 45.8696C28.6096 45.8692 28.481 45.8471 28.3587 45.8043C28.2243 45.7547 28.101 45.6791 27.9959 45.5816C27.8908 45.4842 27.806 45.3669 27.7464 45.2366C27.6868 45.1063 27.6536 44.9655 27.6486 44.8223C27.6436 44.6791 27.667 44.5363 27.7174 44.4022L34.2392 27.0109C34.3401 26.7399 34.5445 26.5201 34.8075 26.3998C35.0704 26.2795 35.3704 26.2687 35.6414 26.3696C35.9123 26.4705 36.1321 26.6749 36.2524 26.9378C36.3727 27.2008 36.3836 27.5007 36.2827 27.7717L29.7609 45.163C29.6832 45.3711 29.5436 45.5503 29.3609 45.6766C29.1783 45.8029 28.9613 45.8703 28.7392 45.8696Z" fill="#FA4616"/>
</svg>
