<svg width="64" height="64" viewBox="0 0 64 64" fill="none" xmlns="http://www.w3.org/2000/svg">
<path d="M54.7447 42.1064H40.9149V39.9787H53.6809V9.12766H11.1277V39.9787H23.8936V42.1064H10.0638C9.78168 42.1064 9.51111 41.9943 9.3116 41.7948C9.1121 41.5953 9 41.3247 9 41.0425V8.06383C9 7.78168 9.1121 7.51108 9.3116 7.31157C9.51111 7.11206 9.78168 7 10.0638 7H54.7447C55.0268 7 55.2974 7.11206 55.4969 7.31157C55.6964 7.51108 55.8085 7.78168 55.8085 8.06383V41.0425C55.8085 41.3247 55.6964 41.5953 55.4969 41.7948C55.2974 41.9943 55.0268 42.1064 54.7447 42.1064Z" fill="#404040"/>
<path d="M54.7443 13.383H10.0635V15.5106H54.7443V13.383Z" fill="#404040"/>
<path d="M15.383 10.1915H13.2554V12.3191H15.383V10.1915Z" fill="#404040"/>
<path d="M19.6384 10.1915H17.5107V12.3191H19.6384V10.1915Z" fill="#404040"/>
<path d="M33.4678 31.4681H14.3188V18.7021H33.4678V31.4681ZM16.4465 29.3404H31.3401V20.8298H16.4465V29.3404Z" fill="#404040"/>
<path d="M50.4895 18.7021H36.6597V20.8298H50.4895V18.7021Z" fill="#404040"/>
<path d="M50.4895 24.0213H36.6597V26.1489H50.4895V24.0213Z" fill="#404040"/>
<path d="M50.4895 29.3404H36.6597V31.4681H50.4895V29.3404Z" fill="#404040"/>
<path d="M38.7874 57H36.6598V47.4255C36.6598 47.1434 36.7719 46.8728 36.9714 46.6733C37.1709 46.4738 37.4415 46.3617 37.7236 46.3617H39.7555L32.4257 37.4042L25.096 46.3617H27.1066C27.3887 46.3617 27.6593 46.4738 27.8588 46.6733C28.0583 46.8728 28.1704 47.1434 28.1704 47.4255V57H26.0427V48.4894H22.8513C22.6508 48.488 22.4549 48.4301 22.286 48.3223C22.117 48.2145 21.982 48.0612 21.8964 47.88C21.8108 47.6987 21.7781 47.497 21.8021 47.298C21.8261 47.0991 21.9059 46.9109 22.0321 46.7553L31.6066 35.0532C31.7063 34.9308 31.8321 34.8322 31.9747 34.7645C32.1173 34.6968 32.2732 34.6617 32.431 34.6617C32.5889 34.6617 32.7448 34.6968 32.8874 34.7645C33.03 34.8322 33.1558 34.9308 33.2555 35.0532L42.83 46.7553C42.9602 46.9162 43.0406 47.1117 43.0614 47.3176C43.0822 47.5236 43.0424 47.7312 42.947 47.9149C42.8608 48.0959 42.7252 48.2489 42.5558 48.3562C42.3864 48.4635 42.1901 48.5207 41.9896 48.5213H38.7981L38.7874 57Z" fill="#FA4616"/>
</svg>
