<svg width="64" height="64" viewBox="0 0 64 64" fill="none" xmlns="http://www.w3.org/2000/svg">
<path d="M48.7228 39.8811H45.6188V37.8118H48.7228C50.3692 37.8118 51.9482 37.1578 53.1124 35.9936C54.2766 34.8294 54.9307 33.2503 54.9307 31.6039C54.9307 29.9574 54.2766 28.3784 53.1124 27.2142C51.9482 26.05 50.3692 25.3959 48.7228 25.3959C48.0808 25.3987 47.4428 25.4964 46.8293 25.6857L45.1635 26.2236L45.505 24.5061C45.5782 24.1172 45.6163 23.7224 45.6188 23.3266C45.6183 22.1378 45.2765 20.9741 44.634 19.9739C43.9915 18.9737 43.0753 18.179 41.9943 17.6842C40.9133 17.1895 39.713 17.0156 38.5361 17.1831C37.3591 17.3507 36.255 17.8526 35.355 18.6293L34.2065 19.6639L33.6995 18.2361C32.8614 15.9697 31.1749 14.1178 28.9966 13.0718C26.8183 12.0258 24.3186 11.8675 22.0257 12.6304C19.7329 13.3934 17.8264 15.0178 16.7091 17.1604C15.5917 19.3031 15.3511 21.7962 16.038 24.113L16.4415 25.3649L15.1378 25.458C13.4914 25.5211 11.9374 26.2357 10.8178 27.4445C9.69824 28.6534 9.10474 30.2575 9.16785 31.9039C9.23097 33.5504 9.94553 35.1043 11.1544 36.2239C12.3632 37.3435 13.9673 37.937 15.6138 37.8739H18.7177V39.9432H15.6138C13.522 40.0283 11.4757 39.3176 9.88699 37.9543C8.29827 36.591 7.28515 34.6764 7.05167 32.5959C6.81818 30.5155 7.38167 28.424 8.62866 26.7424C9.87565 25.0609 11.7135 23.9142 13.7721 23.5335C13.2521 20.8334 13.7272 18.0363 15.1097 15.6593C16.4921 13.2823 18.6884 11.4862 21.2925 10.603C23.8966 9.71983 26.7324 9.8093 29.2756 10.8549C31.8188 11.9005 33.8975 13.8315 35.1274 16.291C36.3824 15.5319 37.8167 15.12 39.2832 15.0974C40.7498 15.0748 42.1961 15.4423 43.4739 16.1623C44.7518 16.8822 45.8154 17.9289 46.5559 19.195C47.2964 20.4611 47.6871 21.9013 47.6881 23.368V23.4301C48.0314 23.3885 48.3769 23.3678 48.7228 23.368C50.918 23.368 53.0234 24.2401 54.5756 25.7924C56.1279 27.3447 57 29.45 57 31.6453C57 33.8405 56.1279 35.9458 54.5756 37.4981C53.0234 39.0504 50.918 39.9225 48.7228 39.9225V39.8811Z" fill="#404040"/>
<path d="M34.1961 20.3262C34.1213 19.5962 33.9616 18.8774 33.7202 18.1844L35.6757 17.5015C35.9663 18.3496 36.1607 19.2277 36.2551 20.1192L34.1961 20.3262Z" fill="#404040"/>
<path d="M46.5086 27.5894L44.729 26.5548C45.1075 25.9384 45.3705 25.2582 45.505 24.5475L47.5743 24.9303C47.3801 25.873 47.0192 26.7735 46.5086 27.5894V27.5894Z" fill="#404040"/>
<path d="M17.4346 25.665C16.6916 25.4375 15.9122 25.3532 15.1377 25.4167L14.9722 23.3473C16.019 23.2696 17.0712 23.3853 18.0761 23.6888L17.4346 25.665Z" fill="#404040"/>
<path d="M44.5844 49.193H42.515V35.7425H34.2378V33.6732H42.515C43.0639 33.6732 43.5902 33.8912 43.9783 34.2793C44.3663 34.6674 44.5844 35.1937 44.5844 35.7425V49.193Z" fill="#404040"/>
<path d="M21.8218 49.193H19.7524V35.7425C19.7524 35.1937 19.9705 34.6674 20.3585 34.2793C20.7466 33.8912 21.2729 33.6732 21.8218 33.6732H30.099V35.7425H21.8218V49.193Z" fill="#404040"/>
<path d="M45.6188 53.3317H18.7177C18.5249 53.333 18.3356 53.2805 18.171 53.1799C18.0065 53.0794 17.8733 52.9348 17.7865 52.7626L16.7519 50.6933C16.6861 50.5468 16.6509 50.3883 16.6484 50.2277V49.193C16.6484 48.9186 16.7574 48.6555 16.9515 48.4614C17.1455 48.2674 17.4087 48.1584 17.6831 48.1584H46.6535C46.9279 48.1584 47.191 48.2674 47.3851 48.4614C47.5791 48.6555 47.6881 48.9186 47.6881 49.193V50.2277C47.6872 50.3897 47.6482 50.5492 47.5743 50.6933L46.5397 52.7626C46.4537 52.9332 46.3221 53.0768 46.1596 53.1772C45.997 53.2776 45.8099 53.3311 45.6188 53.3317ZM19.3592 51.2624H44.9773L45.4947 50.2277H18.8419L19.3592 51.2624Z" fill="#404040"/>
<path d="M33.2031 26.4306H31.1338V42.9851H33.2031V26.4306Z" fill="#FA4616"/>
<path d="M32.1687 44.0197C32.0325 44.0205 31.8975 43.9944 31.7714 43.9429C31.6454 43.8915 31.5307 43.8156 31.434 43.7197L28.3301 40.6157L29.7993 39.1465L32.1687 41.5262L34.538 39.1465L36.0072 40.6157L32.9033 43.7197C32.8066 43.8156 32.6919 43.8915 32.5659 43.9429C32.4398 43.9944 32.3048 44.0205 32.1687 44.0197Z" fill="#FA4616"/>
<path d="M34.538 30.2692L32.1687 27.8895L29.7993 30.2692L28.3301 28.8L31.434 25.696C31.5302 25.5991 31.6447 25.5221 31.7707 25.4695C31.8968 25.417 32.0321 25.39 32.1687 25.39C32.3052 25.39 32.4405 25.417 32.5666 25.4695C32.6926 25.5221 32.8071 25.5991 32.9033 25.696L36.0072 28.8L34.538 30.2692Z" fill="#FA4616"/>
</svg>
