<svg width="64" height="64" viewBox="0 0 64 64" fill="none" xmlns="http://www.w3.org/2000/svg">
<path d="M53.7391 49.8696H10.2609C9.39603 49.8696 8.56662 49.526 7.95509 48.9145C7.34356 48.303 7 47.4735 7 46.6087V17.2609C7 16.396 7.34356 15.5667 7.95509 14.9551C8.56662 14.3436 9.39603 14 10.2609 14H53.7391C54.604 14 55.4334 14.3436 56.0449 14.9551C56.6564 15.5667 57 16.396 57 17.2609V46.6087C57 47.4735 56.6564 48.303 56.0449 48.9145C55.4334 49.526 54.604 49.8696 53.7391 49.8696V49.8696ZM10.2609 16.1739C9.97259 16.1739 9.69612 16.2884 9.49227 16.4923C9.28843 16.6961 9.17391 16.9726 9.17391 17.2609V46.6087C9.17391 46.897 9.28843 47.1735 9.49227 47.3773C9.69612 47.5812 9.97259 47.6957 10.2609 47.6957H53.7391C54.0274 47.6957 54.3039 47.5812 54.5077 47.3773C54.7116 47.1735 54.8261 46.897 54.8261 46.6087V17.2609C54.8261 16.9726 54.7116 16.6961 54.5077 16.4923C54.3039 16.2884 54.0274 16.1739 53.7391 16.1739H10.2609Z" fill="#404040"/>
<path d="M32.0001 36.9239C30.8578 36.9248 29.7266 36.7006 28.671 36.2642C27.6153 35.8278 26.6561 35.1877 25.8479 34.3804L10.5762 19.163L12.1196 17.6305L27.337 32.8479C28.5599 34.0692 30.2175 34.7551 31.9457 34.7551C33.674 34.7551 35.3316 34.0692 36.5544 32.8479L51.7718 17.6305L53.3153 19.163L38.0979 34.3804C36.4791 35.9975 34.2882 36.9114 32.0001 36.9239V36.9239Z" fill="#FA4616"/>
<path d="M22.5335 32.8001L10.5742 44.7595L12.1114 46.2966L24.0707 34.3373L22.5335 32.8001Z" fill="#404040"/>
<path d="M41.461 32.7981L39.9238 34.3353L51.8832 46.2947L53.4203 44.7575L41.461 32.7981Z" fill="#404040"/>
</svg>
