<svg width="64" height="64" viewBox="0 0 64 64" fill="none" xmlns="http://www.w3.org/2000/svg">
<path d="M16.688 40.386L10.4346 46.6395L11.9077 48.1126L18.1612 41.8591L16.688 40.386Z" fill="#404040"/>
<path d="M34.0833 51.5417H10.125C9.2962 51.5417 8.50134 51.2124 7.91529 50.6264C7.32924 50.0403 7 49.2455 7 48.4167V32.7917C7 31.9629 7.32924 31.168 7.91529 30.582C8.50134 29.9959 9.2962 29.6667 10.125 29.6667H34.0833C34.9121 29.6667 35.707 29.9959 36.293 30.582C36.8791 31.168 37.2083 31.9629 37.2083 32.7917V41.125H35.125V32.7917C35.125 32.5154 35.0153 32.2505 34.8199 32.0551C34.6246 31.8598 34.3596 31.75 34.0833 31.75H10.125C9.84873 31.75 9.58378 31.8598 9.38843 32.0551C9.19308 32.2505 9.08333 32.5154 9.08333 32.7917V48.4167C9.08333 48.6929 9.19308 48.9579 9.38843 49.1533C9.58378 49.3486 9.84873 49.4583 10.125 49.4583H34.0833C34.3596 49.4583 34.6246 49.3486 34.8199 49.1533C35.0153 48.9579 35.125 48.6929 35.125 48.4167V44.25H37.2083V48.4167C37.2083 49.2455 36.8791 50.0403 36.293 50.6264C35.707 51.2124 34.9121 51.5417 34.0833 51.5417Z" fill="#404040"/>
<path d="M22.1043 43.9375C20.9526 43.9748 19.8186 43.6467 18.8648 43.0001L18.7606 42.9063L10.4272 34.5729L11.9064 33.1042L20.1772 41.3751C20.7664 41.6978 21.4274 41.867 22.0991 41.867C22.7709 41.867 23.4318 41.6978 24.021 41.3751L32.3022 33.1042L33.7814 34.5729L25.3439 43.0001C24.3895 43.6454 23.2559 43.9734 22.1043 43.9375V43.9375Z" fill="#404040"/>
<path d="M27.5293 40.3865L26.0562 41.8596L32.3096 48.1131L33.7828 46.64L27.5293 40.3865Z" fill="#404040"/>
<path d="M36.4644 23.7256L33.3413 26.8487L34.8144 28.3218L37.9375 25.1988L36.4644 23.7256Z" fill="#FA4616"/>
<path d="M28.8748 26.5417H26.7915V30.7083H28.8748V26.5417Z" fill="#404040"/>
<path d="M53.8748 34.875H36.1665V32.7917H53.8748C54.1511 32.7917 54.4161 32.682 54.6114 32.4866C54.8068 32.2913 54.9165 32.0263 54.9165 31.75V16.125C54.9165 15.8487 54.8068 15.5838 54.6114 15.3884C54.4161 15.1931 54.1511 15.0833 53.8748 15.0833H29.9165C29.6402 15.0833 29.3753 15.1931 29.1799 15.3884C28.9846 15.5838 28.8748 15.8487 28.8748 16.125V24.4583H26.7915V16.125C26.7915 15.2962 27.1207 14.5014 27.7068 13.9153C28.2928 13.3293 29.0877 13 29.9165 13H53.8748C54.7036 13 55.4985 13.3293 56.0845 13.9153C56.6706 14.5014 56.9998 15.2962 56.9998 16.125V31.75C56.9998 32.5788 56.6706 33.3737 56.0845 33.9597C55.4985 34.5458 54.7036 34.875 53.8748 34.875V34.875Z" fill="#404040"/>
<path d="M41.8958 27.2709C40.7441 27.3082 39.6101 26.98 38.6563 26.3334L38.5521 26.2396L30.2188 17.9063L31.6979 16.4376L39.9688 24.7084C40.5579 25.0312 41.2189 25.2003 41.8906 25.2003C42.5624 25.2003 43.2234 25.0312 43.8125 24.7084L52.0937 16.4376L53.5729 17.9063L45.1354 26.3334C44.181 26.9787 43.0474 27.3067 41.8958 27.2709V27.2709Z" fill="#FA4616"/>
<path d="M47.3218 23.7211L45.8486 25.1942L52.1021 31.4477L53.5752 29.9746L47.3218 23.7211Z" fill="#FA4616"/>
<path d="M30.9583 23.4167H19.5V25.5H30.9583V23.4167Z" fill="#404040"/>
<path d="M20.5417 18.2083H10.125V20.2917H20.5417V18.2083Z" fill="#404040"/>
<path d="M24.7082 13H14.2915V15.0833H24.7082V13Z" fill="#404040"/>
<path d="M50.7502 45.2917H40.3335V47.375H50.7502V45.2917Z" fill="#404040"/>
<path d="M43.4582 40.0833H33.0415V42.1667H43.4582V40.0833Z" fill="#404040"/>
</svg>
