<svg width="64" height="64" viewBox="0 0 64 64" fill="none" xmlns="http://www.w3.org/2000/svg">
<path d="M16.7315 43.3659H16.0973C14.1829 43.3775 12.3303 42.6885 10.8888 41.4285C9.4474 40.1685 8.5167 38.4247 8.27222 36.5259C8.02775 34.6271 8.48638 32.7044 9.56166 31.1204C10.6369 29.5364 12.2546 28.4005 14.1095 27.9269C13.9917 27.3038 13.9345 26.6708 13.9388 26.0366C13.9338 24.7273 14.1737 23.4285 14.6461 22.2074L16.9266 23.0854C16.5608 24.0261 16.3747 25.0272 16.3778 26.0366C16.3863 26.8645 16.5179 27.6865 16.7681 28.4757L17.2315 29.939L15.6949 30.061C14.3158 30.1907 13.0389 30.844 12.1268 31.8866C11.2147 32.9291 10.7369 34.2814 10.7916 35.6655C10.8462 37.0496 11.4293 38.3602 12.4208 39.3275C13.4122 40.2948 14.7367 40.8453 16.1217 40.8659H16.7681L16.7315 43.3659Z" fill="#FA4616"/>
<path d="M46.0241 43.3659H26.5119V40.9268H46.0241C49.2193 40.9268 52.1217 38.3415 52.1217 35.5C52.1143 34.6444 51.9061 33.8026 51.5139 33.0422C51.1216 32.2818 50.5563 31.6242 49.8633 31.1224C49.1704 30.6205 48.3693 30.2883 47.5245 30.1526C46.6798 30.017 45.8149 30.0817 44.9997 30.3415L43.0363 30.9634L43.4266 28.9756C43.4986 28.6348 43.5353 28.2874 43.5363 27.9391C43.5331 27.2248 43.3893 26.5182 43.113 25.8595C42.8367 25.2008 42.4334 24.603 41.926 24.1002C41.4187 23.5974 40.8173 23.1994 40.1562 22.9291C39.4951 22.6587 38.7872 22.5212 38.0729 22.5244C36.763 22.524 35.496 22.9909 34.4997 23.8415L33.1461 25.061L32.5607 23.378C31.9843 21.7557 30.92 20.3516 29.5139 19.3581C28.1078 18.3647 26.4287 17.8306 24.7071 17.8293C23.7946 17.8264 22.888 17.9747 22.0241 18.2683L21.2437 15.9512C22.361 15.5814 23.5301 15.392 24.7071 15.3902C26.665 15.393 28.5853 15.9278 30.2629 16.9373C31.9404 17.9469 33.3122 19.3933 34.2315 21.122C35.4136 20.4698 36.743 20.1309 38.0931 20.1374C39.4432 20.144 40.7692 20.4959 41.945 21.1596C43.1207 21.8232 44.1072 22.7766 44.8105 23.9291C45.5138 25.0815 45.9106 26.3948 45.9632 27.7439H46.6583C48.7467 27.7407 50.7512 28.5655 52.2325 30.0376C53.7138 31.5098 54.551 33.5092 54.5607 35.5976C54.5607 39.6951 50.5729 43.3659 46.0241 43.3659Z" fill="#FA4616"/>
<path d="M19 30.9025C18.0105 30.2933 16.854 30.0116 15.6951 30.0976L15.5122 27.6585C17.1941 27.5546 18.8661 27.9811 20.2927 28.878L19 30.9025Z" fill="#FA4616"/>
<path d="M44.8901 31.9634L42.8047 30.7439C43.1188 30.1977 43.3296 29.5982 43.4266 28.9756L45.8657 29.439C45.6878 30.3303 45.3578 31.1842 44.8901 31.9634V31.9634Z" fill="#FA4616"/>
<path d="M54.91 8.35943L43.9326 19.3368L45.6573 21.0615L56.6347 10.0841L54.91 8.35943Z" fill="#404040"/>
<path d="M27.4716 34.577L7.35352 54.695L9.07817 56.4197L29.1962 36.3016L27.4716 34.577Z" fill="#404040"/>
<path d="M14.3171 56.7805H7V49.4634H9.43902V54.3415H14.3171V56.7805Z" fill="#404040"/>
<path d="M44.3719 43.7076L42.7402 45.5204L54.9315 56.4936L56.5633 54.6808L44.3719 43.7076Z" fill="#404040"/>
<path d="M57.0002 56.7805H49.6831V54.3415H54.5612V49.4634H57.0002V56.7805Z" fill="#404040"/>
<path d="M57.0002 15.3171H54.5612V10.439H49.6831V8H57.0002V15.3171Z" fill="#404040"/>
<path d="M9.08598 8.362L7.36133 10.0867L23.2109 25.9362L24.9355 24.2115L9.08598 8.362Z" fill="#404040"/>
<path d="M9.43902 15.3171H7V8H14.3171V10.439H9.43902V15.3171Z" fill="#404040"/>
</svg>
