<svg width="64" height="64" viewBox="0 0 64 64" fill="none" xmlns="http://www.w3.org/2000/svg">
<path d="M27.293 22.8862H27.1118C26.8774 22.8862 21.2937 21.8846 18.5871 17.7608C15.8805 13.637 17.8412 8.83118 17.9265 8.62872C18.0105 8.44177 18.1467 8.28302 18.3187 8.17151C18.4907 8.05999 18.6912 8.00043 18.8961 8C19.1199 8 24.2241 8 27.0052 12.2623C29.7864 16.5247 28.3692 21.8526 28.3159 22.1297C28.2495 22.349 28.114 22.5411 27.9297 22.6774C27.7455 22.8137 27.5222 22.8869 27.293 22.8862ZM19.6527 10.1738C19.3172 11.2306 19.2084 12.3462 19.3332 13.4478C19.4581 14.5495 19.8139 15.6125 20.3773 16.5673V16.5673C21.9437 18.9542 24.8847 20.0624 26.4405 20.5099C26.6536 18.9009 26.8028 15.7575 25.2364 13.3706C24.5827 12.4752 23.7475 11.7276 22.7854 11.1768C21.8233 10.626 20.7558 10.2842 19.6527 10.1738V10.1738Z" fill="#404040"/>
<path d="M27.186 26.4985C26.9275 26.501 26.6768 26.4095 26.4807 26.2409C26.2847 26.0723 26.1566 25.8381 26.1205 25.5821C25.6303 22.1083 27.0155 16.6099 31.2139 12.1451C31.4136 11.9466 31.6837 11.8353 31.9652 11.8353C32.2467 11.8353 32.5168 11.9466 32.7164 12.1451C32.8198 12.2406 32.9034 12.3557 32.9621 12.4836C33.0208 12.6116 33.0536 12.7499 33.0585 12.8906C33.0635 13.0313 33.0405 13.1715 32.9909 13.3033C32.9414 13.4351 32.8662 13.5557 32.7697 13.6582C29.0508 17.6115 27.8147 22.3748 28.2303 25.3797C28.2698 25.6595 28.1966 25.9435 28.0268 26.1693C27.8569 26.3951 27.6043 26.5442 27.3246 26.5838L27.186 26.4985Z" fill="#404040"/>
<path d="M30.3618 36.0887C30.1502 36.09 29.943 36.0282 29.7666 35.9112C29.5902 35.7942 29.4527 35.6273 29.3715 35.4319C29.2903 35.2364 29.2692 35.0211 29.3109 34.8136C29.3525 34.6061 29.455 34.4157 29.6052 34.2666L43.4578 20.4141C43.5569 20.3142 43.6748 20.2349 43.8046 20.1808C43.9345 20.1267 44.0737 20.0989 44.2144 20.0989C44.3551 20.0989 44.4943 20.1267 44.6242 20.1808C44.7541 20.2349 44.8719 20.3142 44.971 20.4141C45.1694 20.6137 45.2808 20.8837 45.2808 21.1652C45.2808 21.4468 45.1694 21.7169 44.971 21.9166L31.1184 35.7692C31.0197 35.8698 30.902 35.9498 30.7721 36.0047C30.6423 36.0596 30.5028 36.0882 30.3618 36.0887V36.0887Z" fill="#FA4616"/>
<path d="M30.3617 39.2856C29.2312 39.2856 28.1471 38.8366 27.3477 38.0372C26.5484 37.2379 26.0993 36.1537 26.0993 35.0232C26.0958 34.664 26.1388 34.3058 26.2272 33.9576C26.2952 33.6836 26.4692 33.4479 26.7109 33.3021C26.9527 33.1562 27.2424 33.1122 27.5165 33.1798C27.7906 33.2478 28.0264 33.4218 28.1722 33.6635C28.3181 33.9053 28.362 34.195 28.2944 34.4691C28.1947 34.8643 28.2104 35.2799 28.3397 35.6665C28.4689 36.053 28.7064 36.3945 29.0238 36.6502C29.3412 36.9059 29.7253 37.0652 30.1305 37.1093C30.5357 37.1533 30.9451 37.0802 31.31 36.8987C31.5617 36.7723 31.8531 36.7507 32.1207 36.8386C32.3882 36.9264 32.6102 37.1166 32.7379 37.3676C32.8021 37.4927 32.841 37.6293 32.8522 37.7695C32.8634 37.9097 32.8467 38.0507 32.8031 38.1845C32.7595 38.3182 32.6899 38.442 32.5982 38.5487C32.5066 38.6554 32.3947 38.7429 32.269 38.8061C31.6793 39.1124 31.0261 39.2766 30.3617 39.2856V39.2856Z" fill="#404040"/>
<path d="M50.608 22.2361H44.2145C43.9319 22.2361 43.6609 22.1239 43.461 21.9241C43.2612 21.7243 43.1489 21.4532 43.1489 21.1706V15.8426C43.1481 15.7024 43.175 15.5634 43.228 15.4336C43.2811 15.3037 43.3592 15.1857 43.458 15.0861L49.8515 8.69262C50.0005 8.54234 50.1909 8.43982 50.3984 8.39819C50.606 8.35656 50.8212 8.37771 51.0167 8.45887C51.2121 8.54003 51.379 8.67753 51.496 8.85391C51.613 9.03028 51.6748 9.23755 51.6736 9.4492V13.7115H55.936C56.1368 13.7121 56.3334 13.7694 56.5031 13.8769C56.6728 13.9843 56.8086 14.1376 56.895 14.3189C56.9832 14.5024 57.017 14.7072 56.9925 14.9092C56.9679 15.1113 56.886 15.3021 56.7564 15.459L51.4285 21.8526C51.3283 21.9728 51.2029 22.0696 51.0611 22.1359C50.9193 22.2022 50.7646 22.2364 50.608 22.2361V22.2361ZM45.2801 20.105H50.1392L53.6876 15.8426H50.64C50.3574 15.8426 50.0864 15.7304 49.8865 15.5306C49.6867 15.3308 49.5744 15.0597 49.5744 14.7771V12.0172L45.3121 16.2796L45.2801 20.105Z" fill="#FA4616"/>
<path d="M50.6079 15.8427C50.3963 15.8439 50.189 15.7821 50.0127 15.6651C49.8363 15.5481 49.6988 15.3813 49.6176 15.1858C49.5364 14.9903 49.5153 14.7751 49.5569 14.5675C49.5986 14.36 49.7011 14.1696 49.8513 14.0206L54.1137 9.75823C54.2127 9.65835 54.3306 9.5791 54.4604 9.525C54.5903 9.4709 54.7296 9.44305 54.8703 9.44305C55.0109 9.44305 55.1502 9.4709 55.28 9.525C55.4099 9.5791 55.5277 9.65835 55.6268 9.75823C55.8253 9.95788 55.9367 10.228 55.9367 10.5095C55.9367 10.791 55.8253 11.061 55.6268 11.2607L51.3645 15.5231C51.2658 15.6238 51.1481 15.7038 51.0182 15.7586C50.8884 15.8135 50.7489 15.8421 50.6079 15.8427Z" fill="#FA4616"/>
<path d="M30.9585 56.2603C29.7482 56.2682 28.5487 56.0327 27.4314 55.5676C26.6827 55.3536 25.889 55.3536 25.1404 55.5676C23.7438 55.921 22.3164 56.1387 20.878 56.2176H20.8248C14.655 56.1324 9.90251 49.6004 8.09102 43.5692C5.10739 33.5527 8.80496 27.8305 12.4386 24.7936C13.6486 23.7862 15.0708 23.0656 16.5987 22.6854C18.1266 22.3053 19.7206 22.2756 21.2616 22.5985C22.4387 22.8625 23.5931 23.2188 24.7141 23.6641C25.5612 24.0592 26.4766 24.2871 27.4101 24.3354C28.2228 24.2483 29.0213 24.0585 29.7863 23.7706C31.7226 23.0238 33.802 22.7214 35.8708 22.8861C36.1506 22.9257 36.4031 23.0749 36.573 23.3007C36.7429 23.5265 36.8161 23.8105 36.7766 24.0902C36.7369 24.3679 36.5893 24.6188 36.3659 24.7884C36.1424 24.9579 35.8612 25.0326 35.5831 24.9961C33.8295 24.8789 32.0718 25.1518 30.4363 25.7953C29.4667 26.1687 28.4466 26.395 27.4101 26.4666C26.2167 26.4302 25.0427 26.1548 23.9576 25.6568C22.9196 25.2431 21.8507 24.9117 20.7608 24.6657C19.5389 24.423 18.2784 24.4538 17.0698 24.756C15.8612 25.0581 14.7345 25.6241 13.7706 26.4133C9.19923 30.2387 7.97381 35.8011 10.105 42.9405C11.746 48.4283 15.9444 54.0012 20.8248 54.0758C22.09 54.0058 23.3458 53.8168 24.5756 53.5111C25.785 53.149 27.077 53.1713 28.2732 53.575C29.4969 54.0779 30.8386 54.2221 32.1413 53.9906C37.1495 52.925 41.4758 48.5454 43.1701 42.9085C45.0029 36.7814 44.5127 32.0182 41.7209 28.7575C41.6299 28.6512 41.5608 28.5279 41.5174 28.3949C41.4741 28.2618 41.4574 28.1215 41.4683 27.982C41.4792 27.8425 41.5174 27.7065 41.5809 27.5818C41.6443 27.457 41.7317 27.3461 41.8381 27.2551C41.9444 27.1642 42.0677 27.095 42.2007 27.0517C42.3338 27.0084 42.4741 26.9916 42.6136 27.0025C42.7531 27.0134 42.8891 27.0517 43.0138 27.1152C43.1386 27.1786 43.2496 27.266 43.3405 27.3723C46.6332 31.2191 47.2619 36.6536 45.2053 43.516C43.3086 49.9095 38.3536 54.8217 32.5995 56.0684C32.0605 56.1889 31.5106 56.2532 30.9585 56.2603V56.2603Z" fill="#404040"/>
<path d="M12.247 38.316C11.9644 38.316 11.6934 38.2036 11.4935 38.0038C11.2937 37.8039 11.1814 37.533 11.1814 37.2504C11.1277 35.4575 11.4938 33.6768 12.2505 32.0506C13.0072 30.4243 14.1335 28.9975 15.5397 27.8839C16.2307 27.3307 17.0036 26.8885 17.8307 26.5732C18.0922 26.4717 18.3832 26.4774 18.6406 26.5891C18.8979 26.7008 19.1008 26.9095 19.2053 27.1699C19.2569 27.3007 19.2821 27.4405 19.2795 27.581C19.2769 27.7216 19.2465 27.8602 19.19 27.989C19.1335 28.1177 19.0521 28.234 18.9505 28.3312C18.8489 28.4284 18.7291 28.5045 18.5979 28.5552C17.9824 28.7921 17.4073 29.1228 16.893 29.5356C15.7383 30.4529 14.8134 31.6269 14.1919 32.9642C13.5703 34.3016 13.2693 35.7656 13.3126 37.2397C13.3126 37.5223 13.2003 37.7933 13.0005 37.9931C12.8007 38.193 12.5296 38.3053 12.247 38.3053V38.316Z" fill="#404040"/>
</svg>
