<svg width="64" height="64" viewBox="0 0 64 64" fill="none" xmlns="http://www.w3.org/2000/svg">
<path d="M40.9151 46.3617C38.4139 46.3624 35.9529 45.7332 33.759 44.5321C31.565 43.3311 29.7089 41.5968 28.3619 39.4893L30.1491 38.3405C31.8003 40.9317 34.3307 42.8404 37.2758 43.7164C40.2208 44.5923 43.383 44.3766 46.1819 43.109C48.9808 41.8413 51.2286 39.6067 52.5127 36.8154C53.7968 34.024 54.0311 30.8631 53.1725 27.9129C52.314 24.9627 50.4202 22.4212 47.8387 20.7548C45.2573 19.0883 42.1614 18.4089 39.1194 18.8411C36.0774 19.2733 33.2933 20.7881 31.2781 23.1076C29.263 25.4271 28.152 28.3955 28.1491 31.4681V35.7234H26.0215V31.4681C26.0215 28.5224 26.895 25.6429 28.5315 23.1936C30.168 20.7444 32.4941 18.8354 35.2156 17.7082C37.937 16.5809 40.9316 16.286 43.8207 16.8607C46.7098 17.4353 49.3635 18.8538 51.4465 20.9367C53.5294 23.0196 54.9479 25.6734 55.5225 28.5625C56.0972 31.4516 55.8023 34.4462 54.675 37.1676C53.5477 39.8891 51.6388 42.2151 49.1896 43.8517C46.7403 45.4882 43.8608 46.3617 40.9151 46.3617V46.3617Z" fill="#FA4616"/>
<path d="M27.0854 36.7872C26.9454 36.788 26.8066 36.7612 26.677 36.7083C26.5473 36.6553 26.4294 36.5773 26.33 36.4787L22.0747 32.2234L23.5854 30.7128L27.0854 34.2234L30.5853 30.7128L32.096 32.2234L27.8407 36.4787C27.7413 36.5773 27.6234 36.6553 27.4938 36.7083C27.3642 36.7612 27.2254 36.788 27.0854 36.7872Z" fill="#FA4616"/>
<path d="M39.9364 37.3191L34.8726 32.2128L36.3832 30.7128L39.7661 34.1277L47.5321 24.3936L49.1917 25.7128L39.9364 37.3191Z" fill="#404040"/>
<path d="M34.5319 57H12.1915C11.3451 57 10.5333 56.6638 9.93475 56.0653C9.33623 55.4667 9 54.6549 9 53.8085V10.1915C9 9.34505 9.33623 8.5333 9.93475 7.93478C10.5333 7.33626 11.3451 7 12.1915 7H34.5319C35.3784 7 36.1901 7.33626 36.7886 7.93478C37.3871 8.5333 37.7234 9.34505 37.7234 10.1915V15.5106H35.5957V10.1915C35.5957 9.90934 35.4836 9.63877 35.2841 9.43926C35.0846 9.23976 34.8141 9.12766 34.5319 9.12766H12.1915C11.9093 9.12766 11.6387 9.23976 11.4392 9.43926C11.2397 9.63877 11.1277 9.90934 11.1277 10.1915V53.8085C11.1277 54.0907 11.2397 54.3612 11.4392 54.5607C11.6387 54.7602 11.9093 54.8723 12.1915 54.8723H34.5319C34.8141 54.8723 35.0846 54.7602 35.2841 54.5607C35.4836 54.3612 35.5957 54.0907 35.5957 53.8085V47.4255H37.7234V53.8085C37.7234 54.6549 37.3871 55.4667 36.7886 56.0653C36.1901 56.6638 35.3784 57 34.5319 57V57Z" fill="#404040"/>
<path d="M36.6597 48.4894H10.064V50.617H36.6597V48.4894Z" fill="#404040"/>
<path d="M24.9576 51.6809H21.7661V53.8085H24.9576V51.6809Z" fill="#404040"/>
</svg>
