<svg width="64" height="64" viewBox="0 0 64 64" fill="none" xmlns="http://www.w3.org/2000/svg">
<path d="M49.8 30.2501C49.647 30.251 49.4952 30.2216 49.3535 30.1638C49.2118 30.1059 49.0829 30.0206 48.9743 29.9128L43.9848 24.9234L38.9838 29.9128C38.7659 30.1294 38.4711 30.251 38.1638 30.251C37.8566 30.251 37.5618 30.1294 37.3439 29.9128L32.6917 25.2606C32.4751 25.0427 32.3535 24.748 32.3535 24.4407C32.3535 24.1335 32.4751 23.8387 32.6917 23.6208L37.6811 18.6197L32.6917 13.6302C32.4751 13.4123 32.3535 13.1176 32.3535 12.8103C32.3535 12.5031 32.4751 12.2083 32.6917 11.9904L37.3439 7.33821C37.5618 7.1216 37.8566 7 38.1638 7C38.4711 7 38.7659 7.1216 38.9838 7.33821L43.9848 12.3276L48.9743 7.33821C49.1922 7.1216 49.487 7 49.7942 7C50.1015 7 50.3963 7.1216 50.6142 7.33821L55.2663 11.9904C55.4829 12.2083 55.6045 12.5031 55.6045 12.8103C55.6045 13.1176 55.4829 13.4123 55.2663 13.6302L50.3001 18.6197L55.2896 23.6208C55.5062 23.8387 55.6278 24.1335 55.6278 24.4407C55.6278 24.748 55.5062 25.0427 55.2896 25.2606L50.6374 29.9128C50.5274 30.022 50.3966 30.1081 50.2528 30.166C50.109 30.2239 49.9551 30.2525 49.8 30.2501ZM43.9848 22.1088C44.2916 22.1132 44.5842 22.2386 44.799 22.4577L49.8 27.4472L52.8007 24.4349L47.8112 19.4454C47.5946 19.2275 47.473 18.9328 47.473 18.6255C47.473 18.3183 47.5946 18.0235 47.8112 17.8056L52.8007 12.8045L49.8 9.80385L44.799 14.7933C44.5811 15.0099 44.2863 15.1315 43.979 15.1315C43.6718 15.1315 43.377 15.0099 43.1591 14.7933L38.1696 9.80385L35.1806 12.8045L40.1701 17.8056C40.3867 18.0235 40.5083 18.3183 40.5083 18.6255C40.5083 18.9328 40.3867 19.2275 40.1701 19.4454L35.1806 24.4349L38.1929 27.4472L43.1823 22.4577C43.3942 22.2414 43.6821 22.1162 43.9848 22.1088Z" fill="#FA4616"/>
<path d="M31.191 54.6739H21.8867V57H31.191V54.6739Z" fill="#404040"/>
<path d="M43.9845 54.6739H34.6802V57H43.9845V54.6739Z" fill="#404040"/>
<path d="M47.613 56.9186L47.3223 54.5925C49.1158 54.3665 50.783 53.5501 52.0613 52.2718C53.3395 50.9936 54.1559 49.3264 54.3819 47.5329L56.708 47.8236C56.4204 50.1356 55.3696 52.2855 53.7223 53.9329C52.0749 55.5802 49.925 56.631 47.613 56.9186V56.9186Z" fill="#404040"/>
<path d="M54.1843 44.4973C53.7335 42.7512 52.7157 41.2043 51.2906 40.0991C49.8655 38.994 48.1139 38.3934 46.3105 38.3914V36.0653C48.6303 36.0664 50.8839 36.838 52.7175 38.259C54.5511 39.68 55.8607 41.6697 56.4406 43.9158L54.1843 44.4973Z" fill="#404040"/>
<path d="M42.8214 36.0653H33.5171V38.3914H42.8214V36.0653Z" fill="#404040"/>
<path d="M30.028 36.0653H20.7236V38.3914H30.028V36.0653Z" fill="#404040"/>
<path d="M17.0833 38.31C14.777 38.021 12.6323 36.9726 10.9877 35.3301C9.34303 33.6875 8.29189 31.5443 8 29.2383L10.3261 28.9475C10.5521 30.741 11.3685 32.4083 12.6467 33.6865C13.9249 34.9647 15.5922 35.7812 17.3857 36.0071L17.0833 38.31Z" fill="#404040"/>
<path d="M10.5126 25.8887L8.25635 25.3072C8.83678 23.0592 10.1481 21.068 11.9841 19.6468C13.82 18.2256 16.0763 17.4552 18.3981 17.4567V19.7827C16.5927 19.7822 14.8384 20.3817 13.4109 21.487C11.9835 22.5923 10.964 24.1407 10.5126 25.8887V25.8887Z" fill="#404040"/>
<path d="M31.191 17.4567H21.8867V19.7827H31.191V17.4567Z" fill="#404040"/>
</svg>
