<svg width="64" height="64" viewBox="0 0 64 64" fill="none" xmlns="http://www.w3.org/2000/svg">
<path d="M16.4325 21.7736L8 30.2061L9.49116 31.6972L17.9237 23.2647L16.4325 21.7736Z" fill="#FA4616"/>
<path d="M40.6776 47.0763L32.2451 55.5089L33.7363 57L42.1688 48.5675L40.6776 47.0763Z" fill="#FA4616"/>
<path d="M19.5914 40.3838L13.6235 37.3998C13.3751 37.2734 13.1869 37.0538 13.1 36.7891C13.013 36.5243 13.0345 36.2359 13.1595 35.9869L14.6462 33.0029C14.7486 32.8028 14.9123 32.6406 15.1134 32.5401C15.3145 32.4396 15.5424 32.4059 15.7639 32.4441L24.7053 33.9308L24.3679 36.0396L16.1857 34.6794L15.5109 36.0185L20.5404 38.528L19.5914 40.3838Z" fill="#404040"/>
<path d="M27.5205 50.9279C27.324 50.9292 27.1311 50.8757 26.9634 50.7732C26.7957 50.6707 26.66 50.5234 26.5716 50.3479L23.5981 44.38L25.475 43.431L27.995 48.4605L29.3341 47.7857L27.9739 39.6035L30.0828 39.2556L31.5695 48.2075C31.6068 48.4302 31.5715 48.659 31.469 48.8602C31.3665 49.0614 31.2022 49.2244 31.0001 49.3252L28.0266 50.8119C27.8694 50.8897 27.696 50.9295 27.5205 50.9279V50.9279Z" fill="#404040"/>
<path d="M30.2409 28.9645L25.127 23.8507L14.5829 17.9565C14.42 17.865 14.2844 17.7318 14.19 17.5706C14.0955 17.4094 14.0455 17.226 14.0452 17.0392V14.0236C14.0416 13.8643 14.0742 13.7064 14.1404 13.5615C14.2066 13.4167 14.3048 13.2887 14.4276 13.1872C14.5504 13.0858 14.6945 13.0134 14.8493 12.9757C15.004 12.9379 15.1653 12.9357 15.321 12.9692L40.1523 18.2412L39.7201 20.35L16.1118 15.3521V16.4065L26.2763 22.0687C26.3628 22.1156 26.4411 22.1762 26.5083 22.248L31.7171 27.4567L30.2409 28.9645Z" fill="#404040"/>
<path d="M49.8533 49.9262H46.901C46.7131 49.9248 46.5289 49.8733 46.3677 49.7769C46.2064 49.6805 46.0738 49.5427 45.9836 49.3779L40.0894 38.8338L34.9756 33.7199L36.4623 32.2227L41.6816 37.442C41.7503 37.512 41.8105 37.5898 41.8609 37.674L47.5231 47.8385H48.5775L43.6217 24.2408L45.7305 23.8085L50.9077 48.6504C50.9412 48.8061 50.939 48.9674 50.9012 49.1221C50.8634 49.2768 50.7911 49.421 50.6896 49.5438C50.5882 49.6665 50.4602 49.7647 50.3153 49.831C50.1705 49.8972 50.0125 49.9298 49.8533 49.9262V49.9262Z" fill="#404040"/>
<path d="M20.0451 45.9194C19.7749 45.9313 19.505 45.8889 19.2515 45.7947C18.9979 45.7005 18.7658 45.5565 18.5689 45.3711V45.3711C17.5145 44.3167 17.9468 42.2606 20.0767 39.0447C21.6164 36.7815 23.36 34.6638 25.2855 32.7182L45.4142 12.5896C47.3437 10.66 53.4171 5.68317 55.8528 8.11886C58.2885 10.5545 53.3117 16.6279 51.3821 18.5575L31.2429 38.6862C31.1585 38.7389 23.862 45.9194 20.0451 45.9194ZM20.0451 43.8106C21.2893 43.9055 26.0236 40.8161 29.7035 37.1362L49.8532 17.0392C53.3011 13.5912 54.7773 10.0273 54.3345 9.57395C53.8916 9.12055 50.3172 10.6284 46.8692 14.0552L26.7722 34.1839C23.1556 37.8005 20.0134 42.6191 20.0978 43.8422L20.0451 43.8106Z" fill="#404040"/>
<path d="M37.5198 39.6925L33.2998 43.9125L34.791 45.4037L39.011 41.1837L37.5198 39.6925Z" fill="#FA4616"/>
<path d="M30.1409 7.00001L24.8696 12.2712L26.3608 13.7624L31.632 8.49117L30.1409 7.00001Z" fill="#FA4616"/>
</svg>
