<svg width="64" height="64" viewBox="0 0 64 64" fill="none" xmlns="http://www.w3.org/2000/svg">
<path d="M16.803 24.7267L15.9227 23.5493C15.7577 23.3512 12.0825 18.4547 11.3233 17.3543C10.5389 16.2659 10.1506 14.9418 10.2229 13.6021C10.2229 11.8511 10.9185 10.1718 12.1566 8.93371C13.3948 7.69557 15.074 7 16.825 7C18.576 7 20.2553 7.69557 21.4934 8.93371C22.7316 10.1718 23.4271 11.8511 23.4271 13.6021C23.4978 14.9382 23.1096 16.2583 22.3268 17.3433C21.5675 18.4437 17.9254 23.3402 17.7273 23.5383L16.803 24.7267ZM16.803 9.68486C15.6991 9.62474 14.6163 10.0043 13.7914 10.7404C12.9666 11.4766 12.4669 12.5095 12.4016 13.6131C12.3363 14.5093 12.6026 15.3982 13.1498 16.1109C13.645 16.8481 15.6256 19.5 16.803 21.0625C17.9694 19.5 19.95 16.8481 20.4452 16.1109C20.9924 15.3982 21.2587 14.5093 21.1934 13.6131C21.1281 12.5095 20.6284 11.4766 19.8036 10.7404C18.9788 10.0043 17.8959 9.62474 16.792 9.68486H16.803Z" fill="#FA4616"/>
<path d="M16.8028 32.7922C11.8622 32.7922 8 30.3825 8 27.2905C8 25.3869 9.48546 23.6593 11.9943 22.658L12.8085 24.7046C11.191 25.3428 10.2007 26.3332 10.2007 27.2905C10.2007 28.853 12.9076 30.5915 16.8028 30.5915C20.6981 30.5915 23.4049 28.853 23.4049 27.2905C23.4049 26.3332 22.4036 25.3428 20.7971 24.7046L21.6113 22.658C24.1091 23.6593 25.6056 25.3869 25.6056 27.2905C25.6056 30.3825 21.7324 32.7922 16.8028 32.7922Z" fill="#404040"/>
<path d="M46.5123 41.5951C41.5717 41.5951 37.7095 39.1853 37.7095 36.0933C37.7095 33.0013 41.5717 30.5916 46.5123 30.5916C51.4529 30.5916 55.3151 33.0123 55.3151 36.0933C55.3151 39.1743 51.4419 41.5951 46.5123 41.5951ZM46.5123 32.7923C42.617 32.7923 39.9102 34.5308 39.9102 36.0933C39.9102 37.6558 42.617 39.3944 46.5123 39.3944C50.4075 39.3944 53.1144 37.6558 53.1144 36.0933C53.1144 34.5308 50.3965 32.7923 46.5123 32.7923Z" fill="#404040"/>
<path d="M21.2042 57C16.2636 57 12.4014 54.5902 12.4014 51.4983C12.4014 48.4063 16.2636 45.9965 21.2042 45.9965C26.1448 45.9965 30.007 48.4173 30.007 51.4983C30.007 54.5792 26.1338 57 21.2042 57ZM21.2042 48.1972C17.3089 48.1972 14.6021 49.9358 14.6021 51.4983C14.6021 53.0608 17.3089 54.7993 21.2042 54.7993C25.0994 54.7993 27.8063 53.0608 27.8063 51.4983C27.8063 49.9358 25.0884 48.1972 21.2042 48.1972Z" fill="#404040"/>
<path d="M23.6788 28.4154L23.1118 30.5418L39.6128 34.9416L40.1798 32.8152L23.6788 28.4154Z" fill="#404040"/>
<path d="M40.4152 38.4315L26.1182 47.2374L27.2723 49.1112L41.5693 40.3053L40.4152 38.4315Z" fill="#404040"/>
</svg>
