<svg width="64" height="64" viewBox="0 0 64 64" fill="none" xmlns="http://www.w3.org/2000/svg">
<path d="M34.515 18.8366C34.2714 18.8366 34.0378 18.7398 33.8656 18.5676C33.6934 18.3954 33.5967 18.1618 33.5967 17.9183V11.4169C33.5967 11.1734 33.6934 10.9398 33.8656 10.7676C34.0378 10.5954 34.2714 10.4986 34.515 10.4986C34.7585 10.4986 34.9921 10.5954 35.1643 10.7676C35.3365 10.9398 35.4332 11.1734 35.4332 11.4169V17.9183C35.4332 18.1618 35.3365 18.3954 35.1643 18.5676C34.9921 18.7398 34.7585 18.8366 34.515 18.8366Z" fill="#FA4616"/>
<path d="M34.5151 15.5491H28.7943C28.5507 15.5491 28.3171 15.4524 28.1449 15.2802C27.9727 15.108 27.876 14.8744 27.876 14.6309C27.876 14.3873 27.9727 14.1538 28.1449 13.9815C28.3171 13.8093 28.5507 13.7126 28.7943 13.7126H34.5151C34.7586 13.7126 34.9922 13.8093 35.1644 13.9815C35.3366 14.1538 35.4334 14.3873 35.4334 14.6309C35.4334 14.8744 35.3366 15.108 35.1644 15.2802C34.9922 15.4524 34.7586 15.5491 34.5151 15.5491Z" fill="#FA4616"/>
<path d="M28.7943 18.8366C28.5507 18.8366 28.3171 18.7398 28.1449 18.5676C27.9727 18.3954 27.876 18.1618 27.876 17.9183V11.4169C27.876 11.1734 27.9727 10.9398 28.1449 10.7676C28.3171 10.5954 28.5507 10.4986 28.7943 10.4986C29.0378 10.4986 29.2714 10.5954 29.4436 10.7676C29.6158 10.9398 29.7125 11.1734 29.7125 11.4169V17.9183C29.7125 18.1618 29.6158 18.3954 29.4436 18.5676C29.2714 18.7398 29.0378 18.8366 28.7943 18.8366Z" fill="#FA4616"/>
<path d="M23.7069 41.0496H19.9695C19.726 41.0496 19.4924 40.9528 19.3202 40.7806C19.148 40.6084 19.0513 40.3749 19.0513 40.1313V36.0358C19.0513 35.7923 19.148 35.5587 19.3202 35.3865C19.4924 35.2143 19.726 35.1175 19.9695 35.1175C20.2131 35.1175 20.4467 35.2143 20.6189 35.3865C20.7911 35.5587 20.8878 35.7923 20.8878 36.0358V39.2131H23.7436C23.9872 39.2131 24.2208 39.3098 24.393 39.482C24.5652 39.6542 24.6619 39.8878 24.6619 40.1313C24.6619 40.3749 24.5652 40.6084 24.393 40.7806C24.2208 40.9528 23.9872 41.0496 23.7436 41.0496H23.7069Z" fill="#404040"/>
<path d="M33.5693 41.0496H29.7952C29.5517 41.0496 29.3181 40.9528 29.1459 40.7806C28.9737 40.6084 28.877 40.3749 28.877 40.1313V36.0358C28.877 35.7923 28.9737 35.5587 29.1459 35.3865C29.3181 35.2143 29.5517 35.1175 29.7952 35.1175C30.0388 35.1175 30.2723 35.2143 30.4445 35.3865C30.6168 35.5587 30.7135 35.7923 30.7135 36.0358V39.2131H33.5693C33.8129 39.2131 34.0464 39.3098 34.2186 39.482C34.3909 39.6542 34.4876 39.8878 34.4876 40.1313C34.4876 40.3749 34.3909 40.6084 34.2186 40.7806C34.0464 40.9528 33.8129 41.0496 33.5693 41.0496Z" fill="#404040"/>
<path d="M43.4312 41.0496H39.657C39.4135 41.0496 39.1799 40.9528 39.0077 40.7806C38.8355 40.6084 38.7388 40.3749 38.7388 40.1313V36.0358C38.7388 35.7923 38.8355 35.5587 39.0077 35.3865C39.1799 35.2143 39.4135 35.1175 39.657 35.1175C39.9006 35.1175 40.1342 35.2143 40.3064 35.3865C40.4786 35.5587 40.5753 35.7923 40.5753 36.0358V39.2131H43.4312C43.6747 39.2131 43.9083 39.3098 44.0805 39.482C44.2527 39.6542 44.3494 39.8878 44.3494 40.1313C44.3494 40.3749 44.2527 40.6084 44.0805 40.7806C43.9083 40.9528 43.6747 41.0496 43.4312 41.0496Z" fill="#404040"/>
<path d="M23.7069 51.2424H19.9695C19.726 51.2424 19.4924 51.1457 19.3202 50.9735C19.148 50.8013 19.0513 50.5677 19.0513 50.3241V46.2287C19.0513 45.9851 19.148 45.7515 19.3202 45.5793C19.4924 45.4071 19.726 45.3104 19.9695 45.3104C20.2131 45.3104 20.4467 45.4071 20.6189 45.5793C20.7911 45.7515 20.8878 45.9851 20.8878 46.2287V49.4059H23.7436C23.9872 49.4059 24.2208 49.5026 24.393 49.6748C24.5652 49.847 24.6619 50.0806 24.6619 50.3241C24.6619 50.5677 24.5652 50.8013 24.393 50.9735C24.2208 51.1457 23.9872 51.2424 23.7436 51.2424H23.7069Z" fill="#404040"/>
<path d="M43.4312 51.2424H39.657C39.4135 51.2424 39.1799 51.1457 39.0077 50.9735C38.8355 50.8013 38.7388 50.5677 38.7388 50.3241V46.2287C38.7388 45.9851 38.8355 45.7515 39.0077 45.5793C39.1799 45.4071 39.4135 45.3104 39.657 45.3104C39.9006 45.3104 40.1342 45.4071 40.3064 45.5793C40.4786 45.7515 40.5753 45.9851 40.5753 46.2287V49.4059H43.4312C43.6747 49.4059 43.9083 49.5026 44.0805 49.6748C44.2527 49.847 44.3494 50.0806 44.3494 50.3241C44.3494 50.5677 44.2527 50.8013 44.0805 50.9735C43.9083 51.1457 43.6747 51.2424 43.4312 51.2424Z" fill="#404040"/>
<path d="M49.3544 21.5271C49.1108 21.5271 48.8773 21.4303 48.7051 21.2581C48.5329 21.0859 48.4361 20.8524 48.4361 20.6088V15.9073C48.4361 15.5663 48.3007 15.2393 48.0596 14.9982C47.8185 14.7571 47.4915 14.6217 47.1505 14.6217H38.8861C38.6425 14.6217 38.409 14.525 38.2368 14.3527C38.0645 14.1805 37.9678 13.9469 37.9678 13.7034V10.1222C37.9678 9.78119 37.8324 9.45422 37.5913 9.21313C37.3502 8.97203 37.0232 8.83655 36.6822 8.83655H26.5812C26.2418 8.83897 25.9172 8.97549 25.6781 9.21632C25.439 9.45715 25.3048 9.78278 25.3048 10.1222V13.7034C25.3048 13.9469 25.2081 14.1805 25.0358 14.3527C24.8636 14.525 24.6301 14.6217 24.3865 14.6217C24.143 14.6217 23.9094 14.525 23.7372 14.3527C23.565 14.1805 23.4683 13.9469 23.4683 13.7034V10.1222C23.4683 9.2957 23.7959 8.50296 24.3795 7.91771C24.963 7.33246 25.7548 7.00243 26.5812 7H36.6822C37.5103 7 38.3044 7.32895 38.8899 7.91446C39.4754 8.49998 39.8043 9.29411 39.8043 10.1222V12.7851H47.1505C47.9778 12.7875 48.7705 13.1173 49.3555 13.7023C49.9405 14.2873 50.2702 15.08 50.2727 15.9073V20.6088C50.2727 20.8524 50.1759 21.0859 50.0037 21.2581C49.8315 21.4303 49.5979 21.5271 49.3544 21.5271Z" fill="#404040"/>
<path d="M13.9183 21.5271C13.6747 21.5271 13.4412 21.4303 13.269 21.2581C13.0967 21.0859 13 20.8524 13 20.6088V15.9073C13 15.0792 13.3289 14.2851 13.9145 13.6996C14.5 13.1141 15.2941 12.7851 16.1221 12.7851H24.3866C24.6301 12.7851 24.8637 12.8819 25.0359 13.0541C25.2081 13.2263 25.3049 13.4598 25.3049 13.7034C25.3049 13.9469 25.2081 14.1805 25.0359 14.3527C24.8637 14.525 24.6301 14.6217 24.3866 14.6217H16.1221C15.7812 14.6217 15.4542 14.7571 15.2131 14.9982C14.972 15.2393 14.8365 15.5663 14.8365 15.9073V20.6088C14.8365 20.8524 14.7398 21.0859 14.5676 21.2581C14.3954 21.4303 14.1618 21.5271 13.9183 21.5271Z" fill="#404040"/>
<path d="M23.7069 30.8568H19.9695C19.726 30.8568 19.4924 30.76 19.3202 30.5878C19.148 30.4156 19.0513 30.182 19.0513 29.9385V25.843C19.0513 25.5994 19.148 25.3659 19.3202 25.1937C19.4924 25.0215 19.726 24.9247 19.9695 24.9247C20.2131 24.9247 20.4467 25.0215 20.6189 25.1937C20.7911 25.3659 20.8878 25.5994 20.8878 25.843V29.0202H23.7436C23.9872 29.0202 24.2208 29.1169 24.393 29.2891C24.5652 29.4614 24.6619 29.695 24.6619 29.9385C24.6619 30.182 24.5652 30.4156 24.393 30.5878C24.2208 30.76 23.9872 30.8568 23.7436 30.8568H23.7069Z" fill="#404040"/>
<path d="M33.5693 30.8568H29.7952C29.5517 30.8568 29.3181 30.76 29.1459 30.5878C28.9737 30.4156 28.877 30.182 28.877 29.9385V25.843C28.877 25.5994 28.9737 25.3659 29.1459 25.1937C29.3181 25.0215 29.5517 24.9247 29.7952 24.9247C30.0388 24.9247 30.2723 25.0215 30.4445 25.1937C30.6168 25.3659 30.7135 25.5994 30.7135 25.843V29.0202H33.5693C33.8129 29.0202 34.0464 29.1169 34.2186 29.2891C34.3909 29.4614 34.4876 29.695 34.4876 29.9385C34.4876 30.182 34.3909 30.4156 34.2186 30.5878C34.0464 30.76 33.8129 30.8568 33.5693 30.8568Z" fill="#404040"/>
<path d="M43.4312 30.8568H39.657C39.4135 30.8568 39.1799 30.76 39.0077 30.5878C38.8355 30.4156 38.7388 30.182 38.7388 29.9385V25.843C38.7388 25.5994 38.8355 25.3659 39.0077 25.1937C39.1799 25.0215 39.4135 24.9247 39.657 24.9247C39.9006 24.9247 40.1342 25.0215 40.3064 25.1937C40.4786 25.3659 40.5753 25.5994 40.5753 25.843V29.0202H43.4312C43.6747 29.0202 43.9083 29.1169 44.0805 29.2891C44.2527 29.4614 44.3494 29.695 44.3494 29.9385C44.3494 30.182 44.2527 30.4156 44.0805 30.5878C43.9083 30.76 43.6747 30.8568 43.4312 30.8568Z" fill="#404040"/>
<path d="M34.8088 57C34.5653 57 34.3317 56.9032 34.1595 56.731C33.9873 56.5588 33.8906 56.3253 33.8906 56.0817V46.3848H29.4186V56.0542C29.4186 56.2978 29.3218 56.5313 29.1496 56.7035C28.9774 56.8757 28.7438 56.9725 28.5003 56.9725C28.2568 56.9725 28.0232 56.8757 27.851 56.7035C27.6788 56.5313 27.582 56.2978 27.582 56.0542V45.4665C27.582 45.2229 27.6788 44.9894 27.851 44.8172C28.0232 44.645 28.2568 44.5482 28.5003 44.5482H34.8088C35.0524 44.5482 35.286 44.645 35.4582 44.8172C35.6304 44.9894 35.7271 45.2229 35.7271 45.4665V56.0542C35.7308 56.1771 35.7098 56.2994 35.6653 56.414C35.6208 56.5286 35.5537 56.6332 35.4681 56.7214C35.3825 56.8096 35.28 56.8797 35.1667 56.9276C35.0535 56.9755 34.9318 57.0001 34.8088 57Z" fill="#FA4616"/>
<path d="M49.3544 57H13.9183C13.6747 57 13.4412 56.9032 13.269 56.731C13.0967 56.5588 13 56.3253 13 56.0817V20.2691C13 20.0255 13.0967 19.792 13.269 19.6198C13.4412 19.4476 13.6747 19.3508 13.9183 19.3508H49.3544C49.598 19.3508 49.8316 19.4476 50.0038 19.6198C50.176 19.792 50.2727 20.0255 50.2727 20.2691V56.0817C50.2727 56.3253 50.176 56.5588 50.0038 56.731C49.8316 56.9032 49.598 57 49.3544 57ZM14.7998 55.1635H48.4362V21.1873H14.8365L14.7998 55.1635Z" fill="#404040"/>
</svg>
