<svg width="64" height="64" viewBox="0 0 64 64" fill="none" xmlns="http://www.w3.org/2000/svg">
<path d="M24.7794 46.9515L23.2783 45.4505L23.4061 45.3014C23.7386 44.8988 24.1593 44.5781 24.6355 44.364C25.1118 44.1499 25.6309 44.0481 26.1527 44.0665H42.0256C43.2285 43.5662 48.6259 38.3391 49.8502 36.9764C51.6378 34.5823 53.2462 32.0595 54.6621 29.4285C53.8226 29.0047 52.8571 28.9025 51.9474 29.1411C50.5635 29.4605 49.6373 30.4292 48.3917 32.8458C48.2932 33.0407 48.1371 33.2005 47.9446 33.3036L43.0582 35.8373L42.0788 33.9424L46.6565 31.5684C47.9233 29.173 49.2008 27.5868 51.4684 27.0652C52.4043 26.7888 53.3989 26.7799 54.3397 27.0395C55.2804 27.2991 56.1296 27.8169 56.7913 28.5343C56.9031 28.6856 56.9729 28.8638 56.9934 29.0508C57.014 29.2378 56.9847 29.4269 56.9084 29.5989C55.3463 32.6954 53.5039 35.6424 51.4045 38.4029C51.3406 38.4775 44.0802 46.2063 42.0894 46.2063H26.1208C25.8915 46.1873 25.6612 46.2295 25.4536 46.3286C25.246 46.4277 25.0684 46.5802 24.9391 46.7705L24.7794 46.9515Z" fill="#404040"/>
<path d="M39.992 39.8082H30.4108V37.6791H39.992C41.4718 37.6791 42.1212 36.8806 42.1212 36.0822C42.1212 35.2838 41.4718 34.4853 39.992 34.4853H33.3065C32.4819 34.3692 31.7148 33.9968 31.1134 33.4207C30.6128 32.9363 30.0085 32.5723 29.3463 32.3562H24.0234C22.6851 32.5865 21.4527 33.2306 20.4996 34.1979L16.2413 38.4562L14.7402 36.9551L18.9985 32.6968C20.3393 31.3353 22.1043 30.4716 24.0021 30.2483H29.325C30.4788 30.3942 31.5543 30.9096 32.391 31.7174C32.6969 31.9746 33.0287 32.1994 33.381 32.3881H39.9708C42.7706 32.3881 44.2291 34.2618 44.2291 36.1141C44.2291 37.9665 42.7919 39.8082 39.992 39.8082Z" fill="#404040"/>
<path d="M20.8297 54.7123C20.5504 54.7111 20.2828 54.6002 20.0845 54.4036L7.30957 41.6286C7.11129 41.4291 7 41.1593 7 40.8781C7 40.5968 7.11129 40.327 7.30957 40.1275L12.6325 34.8047C12.8319 34.6064 13.1018 34.4951 13.383 34.4951C13.6642 34.4951 13.9341 34.6064 14.1335 34.8047L26.9085 47.5796C27.1067 47.7791 27.218 48.0489 27.218 48.3301C27.218 48.6114 27.1067 48.8812 26.9085 49.0807L21.5856 54.4036C21.4861 54.5022 21.3681 54.5803 21.2384 54.6333C21.1087 54.6862 20.9698 54.7131 20.8297 54.7123V54.7123ZM9.56648 40.8728L20.8297 52.1466L24.6516 48.3248L13.3777 37.0616L9.56648 40.8728Z" fill="#404040"/>
<path d="M14.1315 40.1299L12.626 41.6354L14.7563 43.7657L16.2619 42.2602L14.1315 40.1299Z" fill="#404040"/>
<path d="M42.1212 16.3875H33.6046C33.3223 16.3875 33.0515 16.2753 32.8518 16.0757C32.6522 15.876 32.54 15.6053 32.54 15.3229V11.0646H34.6692V14.2583H41.0567V11.0646H43.1858V15.3229C43.1858 15.6053 43.0737 15.876 42.874 16.0757C42.6744 16.2753 42.4036 16.3875 42.1212 16.3875Z" fill="#FA4616"/>
<path d="M28.2815 25.9687H26.1523V28.0978H28.2815V25.9687Z" fill="#FA4616"/>
<path d="M31.4753 25.9687H29.3462V28.0978H31.4753V25.9687Z" fill="#FA4616"/>
<path d="M34.6692 25.9687H32.54V28.0978H34.6692V25.9687Z" fill="#FA4616"/>
<path d="M24.0237 31.2916H21.8945V11.0646C21.8945 10.7822 22.0067 10.5115 22.2063 10.3118C22.406 10.1122 22.6768 10 22.9591 10H52.7673C53.0497 10 53.3204 10.1122 53.5201 10.3118C53.7197 10.5115 53.8319 10.7822 53.8319 11.0646V28.0978H51.7027V12.1292H24.0237V31.2916Z" fill="#404040"/>
</svg>
