<svg width="64" height="64" viewBox="0 0 64 64" fill="none" xmlns="http://www.w3.org/2000/svg">
<path d="M55.9583 53.8229H8.04167C7.7654 53.8229 7.50043 53.7132 7.30508 53.5178C7.10973 53.3225 7 53.0575 7 52.7813V49.6563C7.00149 49.4741 7.04799 49.2952 7.13539 49.1354L15.4687 34.5521C15.5605 34.3931 15.6927 34.2612 15.8518 34.1698C16.011 34.0783 16.1914 34.0305 16.375 34.0313H25.75V36.1146H16.9791L9.08333 49.9271V51.7396H54.9166V49.9583L46.0208 36.1146H38.25V34.0313H46.5833C46.7566 34.0304 46.9274 34.0729 47.0802 34.1547C47.233 34.2366 47.363 34.3552 47.4583 34.5L56.8333 49.0833C56.9435 49.254 57.0015 49.4531 57 49.6563V52.7813C57 53.0575 56.8902 53.3225 56.6949 53.5178C56.4995 53.7132 56.2346 53.8229 55.9583 53.8229Z" fill="#404040"/>
<path d="M32.0207 27.7812C31.3344 27.7896 30.6534 27.6606 30.0177 27.4019C29.382 27.1431 28.8045 26.7598 28.3192 26.2745C27.8339 25.7891 27.4505 25.2116 27.1918 24.5759C26.933 23.9402 26.804 23.2592 26.8124 22.5729C26.8124 21.1916 27.3611 19.8668 28.3379 18.8901C29.3146 17.9133 30.6394 17.3646 32.0207 17.3646C32.707 17.3562 33.3881 17.4852 34.0238 17.744C34.6595 18.0027 35.2369 18.3861 35.7223 18.8714C36.2076 19.3567 36.5909 19.9342 36.8497 20.5699C37.1085 21.2056 37.2374 21.8866 37.2291 22.5729C37.2403 23.26 37.1133 23.9423 36.8555 24.5793C36.5978 25.2163 36.2146 25.795 35.7287 26.2809C35.2428 26.7668 34.6641 27.15 34.0271 27.4077C33.3901 27.6655 32.7078 27.7925 32.0207 27.7812V27.7812ZM32.0207 19.4479C31.6076 19.4379 31.1968 19.5119 30.8131 19.6654C30.4295 19.8189 30.081 20.0488 29.7888 20.3409C29.4966 20.6331 29.2667 20.9816 29.1132 21.3653C28.9597 21.749 28.8857 22.1598 28.8957 22.5729C28.8957 23.4017 29.225 24.1966 29.811 24.7826C30.3971 25.3687 31.1919 25.6979 32.0207 25.6979C32.8495 25.6979 33.6444 25.3687 34.2304 24.7826C34.8165 24.1966 35.1457 23.4017 35.1457 22.5729C35.1572 22.1594 35.0843 21.7479 34.9313 21.3636C34.7783 20.9792 34.5485 20.6301 34.256 20.3376C33.9635 20.0451 33.6144 19.8154 33.2301 19.6624C32.8457 19.5094 32.4342 19.4364 32.0207 19.4479V19.4479Z" fill="#FA4616"/>
<path d="M31.9999 45.2812L31.1458 44.0312C30.8228 43.5625 23.2187 32.5729 21.677 30.0625C20.1962 27.8001 19.4671 25.1281 19.5937 22.4271C19.5937 19.1312 20.9029 15.9703 23.2335 13.6398C25.564 11.3093 28.7249 10 32.0207 10C35.3166 10 38.4775 11.3093 40.808 13.6398C43.1386 15.9703 44.4478 19.1312 44.4478 22.4271C44.5744 25.1281 43.8453 27.8001 42.3645 30.0625C40.8228 32.5208 33.2291 43.6042 32.8957 44.0312L31.9999 45.2812ZM31.9999 12.0833C29.2625 12.1024 26.6426 13.1984 24.7069 15.1341C22.7712 17.0698 21.6753 19.6897 21.6562 22.4271C21.5371 24.74 22.1652 27.0299 23.4478 28.9583C24.6562 30.8958 29.9166 38.5625 31.9999 41.6042C34.0833 38.5625 39.2916 30.8958 40.552 28.9583C41.8346 27.0299 42.4627 24.74 42.3437 22.4271C42.3409 19.6846 41.2502 17.0552 39.311 15.116C37.3718 13.1768 34.7424 12.0861 31.9999 12.0833Z" fill="#FA4616"/>
</svg>
