<svg width="64" height="64" viewBox="0 0 64 64" fill="none" xmlns="http://www.w3.org/2000/svg">
<path d="M23.6528 45.4688C23.4988 45.4689 23.3464 45.437 23.2053 45.3751L7.59327 38.0895C7.41456 38.0044 7.26382 37.8701 7.15874 37.7023C7.05367 37.5346 6.99861 37.3403 7.00003 37.1424V36.1016C6.99967 35.9247 7.04439 35.7507 7.12998 35.5959C7.21557 35.4411 7.3392 35.3107 7.48919 35.2169L15.8156 30.0129C15.9738 29.9216 16.1533 29.8735 16.336 29.8735C16.5187 29.8735 16.6982 29.9216 16.8564 30.0129L32.4684 37.2985C32.6474 37.3814 32.7993 37.5134 32.9061 37.6793C33.013 37.8451 33.0706 38.0379 33.072 38.2352V39.276C33.0724 39.4529 33.0277 39.627 32.9421 39.7818C32.8565 39.9365 32.7329 40.067 32.5829 40.1607L24.2565 45.3647C24.0702 45.4592 23.8599 45.4954 23.6528 45.4688ZM9.25856 36.57L23.58 43.2519L30.7511 38.766L16.4297 32.0841L9.25856 36.57Z" fill="#404040"/>
<path d="M40.3057 45.4688C40.1108 45.4694 39.9197 45.4153 39.754 45.3127L31.4276 40.1087C31.2776 40.0149 31.154 39.8845 31.0684 39.7297C30.9828 39.5749 30.9381 39.4009 30.9385 39.224V38.1832C30.939 37.987 30.995 37.795 31.1 37.6293C31.2049 37.4635 31.3546 37.3308 31.5317 37.2465L47.1437 29.9609C47.3019 29.8695 47.4814 29.8214 47.6641 29.8214C47.8468 29.8214 48.0263 29.8695 48.1845 29.9609L56.5109 35.1649C56.6609 35.2586 56.7845 35.389 56.8701 35.5438C56.9557 35.6986 57.0004 35.8727 57.0001 36.0496V37.0904C57.0006 37.2894 56.944 37.4845 56.837 37.6523C56.73 37.8202 56.5771 37.9539 56.3964 38.0375L40.7844 45.3231C40.6381 45.4077 40.4743 45.4575 40.3057 45.4688V45.4688ZM33.197 38.766L40.3681 43.2519L54.6895 36.57L47.5184 32.0841L33.197 38.766Z" fill="#404040"/>
<path d="M16.3672 31.9384C16.2051 31.9407 16.0447 31.905 15.8988 31.8343L7.57245 27.6711C7.39923 27.5838 7.25384 27.4499 7.15269 27.2844C7.05155 27.1189 6.99868 26.9284 7.00003 26.7344V25.6936C7.00058 25.4974 7.05656 25.3054 7.16152 25.1397C7.26649 24.9739 7.41616 24.8412 7.59327 24.7569L23.2053 17.4713C23.3635 17.3799 23.543 17.3318 23.7257 17.3318C23.9084 17.3318 24.0878 17.3799 24.2461 17.4713L25.2869 18.127L24.1004 19.938L23.5383 19.5945L9.31059 26.2348L16.336 29.7423L22.1228 27.0466L23.0075 28.9305L16.7627 31.8447C16.6378 31.9002 16.5037 31.9319 16.3672 31.9384V31.9384Z" fill="#404040"/>
<path d="M47.5915 31.9384C47.4375 31.9385 47.2851 31.9066 47.144 31.8447L40.8992 28.9305L41.7839 27.0466L47.5707 29.7423L54.5961 26.2348L40.3684 19.5945L39.8168 19.9484L38.6719 18.179L39.7127 17.5233C39.8709 17.432 40.0504 17.3839 40.2331 17.3839C40.4158 17.3839 40.5953 17.432 40.7535 17.5233L56.3655 24.8089C56.5445 24.8918 56.6963 25.0238 56.8032 25.1897C56.9101 25.3555 56.9676 25.5483 56.9691 25.7456V26.7864C56.9695 26.9815 56.9151 27.1728 56.812 27.3384C56.709 27.504 56.5614 27.6373 56.3863 27.7232L48.0599 31.8864C47.9098 31.9393 47.7496 31.9571 47.5915 31.9384Z" fill="#404040"/>
<path d="M33.0201 39.224H30.9385V55.8768H33.0201V39.224Z" fill="#404040"/>
<path d="M31.9795 56.9176C31.8254 56.9177 31.673 56.8858 31.5319 56.8239L15.9199 49.5383C15.7412 49.4532 15.5905 49.3189 15.4854 49.1511C15.3803 48.9834 15.3253 48.7891 15.3267 48.5912V41.3056H17.4083V47.9355L31.9795 54.7319L46.5507 47.9355V41.3056H48.6323V48.5912C48.6328 48.7903 48.5762 48.9853 48.4692 49.1532C48.3622 49.3211 48.2093 49.4547 48.0286 49.5383L32.4166 56.8239C32.2788 56.8847 32.1301 56.9165 31.9795 56.9176V56.9176Z" fill="#404040"/>
<path d="M31.9795 34.02C31.8325 34.0211 31.6869 33.9911 31.5524 33.9319C31.4178 33.8727 31.2973 33.7857 31.1989 33.6765L21.8317 23.2685C21.6963 23.1186 21.6075 22.9325 21.5761 22.7329C21.5447 22.5334 21.5721 22.329 21.6548 22.1448C21.7376 21.9605 21.8722 21.8043 22.0422 21.6952C22.2122 21.5861 22.4103 21.5288 22.6123 21.5304H26.7755V9.0408C26.7755 8.76476 26.8851 8.50003 27.0803 8.30484C27.2755 8.10965 27.5402 8 27.8163 8H36.1427C36.4187 8 36.6834 8.10965 36.8786 8.30484C37.0738 8.50003 37.1835 8.76476 37.1835 9.0408V21.5304H41.3467C41.5478 21.5309 41.7444 21.5896 41.9129 21.6995C42.0813 21.8094 42.2143 21.9657 42.2958 22.1495C42.3772 22.3334 42.4037 22.5369 42.3719 22.7355C42.3402 22.9341 42.2516 23.1192 42.1168 23.2685L32.7496 33.6765C32.6523 33.7843 32.5335 33.8706 32.4009 33.9298C32.2682 33.9889 32.1247 34.0196 31.9795 34.02ZM24.9436 23.612L31.9795 31.4284L39.0049 23.612H36.1427C35.8666 23.612 35.6019 23.5023 35.4067 23.3072C35.2115 23.112 35.1019 22.8472 35.1019 22.5712V10.0816H28.8571V22.5712C28.8571 22.8472 28.7474 23.112 28.5522 23.3072C28.357 23.5023 28.0923 23.612 27.8163 23.612H24.9436Z" fill="#FA4616"/>
</svg>
