<svg width="64" height="64" viewBox="0 0 64 64" fill="none" xmlns="http://www.w3.org/2000/svg">
<path d="M27.5678 56.9252H7.93109C7.68415 56.9252 7.44731 56.8271 7.2727 56.6525C7.09808 56.4779 7 56.2411 7 55.9941C7 55.7472 7.09808 55.5103 7.2727 55.3357C7.44731 55.1611 7.68415 55.063 7.93109 55.063H27.5678C27.8148 55.063 28.0516 55.1611 28.2262 55.3357C28.4008 55.5103 28.4989 55.7472 28.4989 55.9941C28.4989 56.2411 28.4008 56.4779 28.2262 56.6525C28.0516 56.8271 27.8148 56.9252 27.5678 56.9252V56.9252Z" fill="#404040"/>
<path d="M24.5514 21.2457H11.6464C11.3995 21.2457 11.1627 21.1476 10.9881 20.973C10.8134 20.7984 10.7153 20.5616 10.7153 20.3146V7.93109C10.7153 7.68415 10.8134 7.44728 10.9881 7.27267C11.1627 7.09805 11.3995 7 11.6464 7H24.5514C24.7983 7 25.0351 7.09805 25.2098 7.27267C25.3844 7.44728 25.4825 7.68415 25.4825 7.93109V20.3146C25.4825 20.5616 25.3844 20.7984 25.2098 20.973C25.0351 21.1476 24.7983 21.2457 24.5514 21.2457ZM12.5775 19.3835H23.6203V8.86219H12.5775V19.3835Z" fill="#404040"/>
<path d="M14.7094 56.9252C14.4625 56.9252 14.2256 56.8271 14.051 56.6525C13.8764 56.4779 13.7783 56.241 13.7783 55.9941V20.3332C13.7783 20.0863 13.8764 19.8494 14.051 19.6748C14.2256 19.5002 14.4625 19.4021 14.7094 19.4021C14.9564 19.4021 15.1932 19.5002 15.3678 19.6748C15.5424 19.8494 15.6405 20.0863 15.6405 20.3332V55.9941C15.6405 56.241 15.5424 56.4779 15.3678 56.6525C15.1932 56.8271 14.9564 56.9252 14.7094 56.9252Z" fill="#404040"/>
<path d="M21.4877 56.9252C21.2408 56.9252 21.004 56.8271 20.8293 56.6525C20.6547 56.4779 20.5566 56.2411 20.5566 55.9941V20.3798C20.5566 20.1329 20.6547 19.896 20.8293 19.7214C21.004 19.5468 21.2408 19.4487 21.4877 19.4487C21.7347 19.4487 21.9715 19.5468 22.1461 19.7214C22.3207 19.896 22.4188 20.1329 22.4188 20.3798V55.9941C22.4188 56.2411 22.3207 56.4779 22.1461 56.6525C21.9715 56.8271 21.7347 56.9252 21.4877 56.9252Z" fill="#404040"/>
<path d="M11.4786 18.3034H7.93109C7.68415 18.3034 7.44731 18.2054 7.2727 18.0308C7.09808 17.8561 7 17.6193 7 17.3723V10.8547C7 10.6077 7.09808 10.3709 7.2727 10.1963C7.44731 10.0217 7.68415 9.92358 7.93109 9.92358H11.4413C11.6882 9.92358 11.9251 10.0217 12.0997 10.1963C12.2743 10.3709 12.3724 10.6077 12.3724 10.8547C12.3724 11.1016 12.2743 11.3385 12.0997 11.5131C11.9251 11.6877 11.6882 11.7858 11.4413 11.7858H8.86219V16.4412H11.4786C11.7255 16.4412 11.9623 16.5393 12.1369 16.714C12.3115 16.8886 12.4096 17.1254 12.4096 17.3723C12.4096 17.6193 12.3115 17.8561 12.1369 18.0308C11.9623 18.2054 11.7255 18.3034 11.4786 18.3034Z" fill="#404040"/>
<path d="M47.866 18.3034H24.7563C24.5093 18.3034 24.2725 18.2054 24.0979 18.0308C23.9233 17.8561 23.8252 17.6193 23.8252 17.3723C23.8252 17.1254 23.9233 16.8886 24.0979 16.714C24.2725 16.5393 24.5093 16.4412 24.7563 16.4412H47.866C48.1129 16.4412 48.3498 16.5393 48.5244 16.714C48.699 16.8886 48.7971 17.1254 48.7971 17.3723C48.7971 17.6193 48.699 17.8561 48.5244 18.0308C48.3498 18.2054 48.1129 18.3034 47.866 18.3034Z" fill="#404040"/>
<path d="M42.2236 11.8137H24.7563C24.5093 11.8137 24.2725 11.7156 24.0979 11.541C23.9233 11.3664 23.8252 11.1296 23.8252 10.8826C23.8252 10.6357 23.9233 10.3989 24.0979 10.2243C24.2725 10.0497 24.5093 9.95155 24.7563 9.95155H42.2236C42.4705 9.95155 42.7074 10.0497 42.882 10.2243C43.0566 10.3989 43.1547 10.6357 43.1547 10.8826C43.1547 11.1296 43.0566 11.3664 42.882 11.541C42.7074 11.7156 42.4705 11.8137 42.2236 11.8137Z" fill="#404040"/>
<path d="M24.551 18.2941C24.4278 18.2936 24.3059 18.2687 24.1924 18.2207C24.079 18.1728 23.9761 18.1028 23.8899 18.0148C23.7165 17.8403 23.6191 17.6044 23.6191 17.3584C23.6191 17.1124 23.7165 16.8764 23.8899 16.702L30.3051 10.2774C30.4905 10.1006 30.7379 10.0037 30.9941 10.0074C31.1216 10.0115 31.2469 10.0416 31.3622 10.0961C31.4775 10.1505 31.5804 10.2281 31.6645 10.324L36.59 15.9105L41.5248 10.324C41.6122 10.2249 41.7196 10.1455 41.84 10.0912C41.9604 10.0368 42.091 10.0087 42.2231 10.0087C42.3552 10.0087 42.4858 10.0368 42.6062 10.0912C42.7266 10.1455 42.834 10.2249 42.9214 10.324L48.5452 16.7485C48.708 16.9338 48.7906 17.1762 48.7749 17.4223C48.7592 17.6684 48.6464 17.8982 48.4614 18.0613C48.2761 18.2241 48.0338 18.3067 47.7877 18.291C47.5415 18.2753 47.3117 18.1626 47.1486 17.9776L42.2045 12.391L37.2697 17.9776C37.1825 18.0769 37.0751 18.1565 36.9546 18.2111C36.8342 18.2657 36.7036 18.2939 36.5714 18.2941V18.2941C36.4392 18.2939 36.3085 18.2657 36.1881 18.2111C36.0677 18.1565 35.9603 18.0769 35.8731 17.9776L30.9103 12.391L25.1841 18.1079C25.0029 18.2452 24.7777 18.3114 24.551 18.2941Z" fill="#404040"/>
<path d="M21.3295 56.9252H14.7094C14.4625 56.9252 14.2257 56.8271 14.051 56.6525C13.8764 56.4779 13.7784 56.2411 13.7784 55.9941C13.7784 55.7472 13.8764 55.5103 14.051 55.3357C14.2257 55.1611 14.4625 55.063 14.7094 55.063H19.756L13.8901 44.3368C13.8124 44.1948 13.7731 44.035 13.776 43.8732C13.7789 43.7114 13.8239 43.5531 13.9066 43.414C13.9893 43.2749 14.1069 43.1597 14.2477 43.0799C14.3884 43.0001 14.5476 42.9584 14.7094 42.9588H19.6815L13.8528 32.2978C13.7751 32.1558 13.7358 31.996 13.7387 31.8342C13.7416 31.6723 13.7866 31.5141 13.8693 31.375C13.9521 31.2359 14.0696 31.1207 14.2104 31.0409C14.3512 30.961 14.5103 30.9193 14.6722 30.9197H19.7932L13.8621 20.7895C13.7779 20.6474 13.733 20.4855 13.732 20.3204C13.7309 20.1553 13.7738 19.9928 13.8563 19.8497C13.9387 19.7067 14.0577 19.588 14.2011 19.5061C14.3445 19.4242 14.5071 19.3819 14.6722 19.3835H21.1898C21.4368 19.3835 21.6736 19.4816 21.8482 19.6562C22.0229 19.8308 22.1209 20.0677 22.1209 20.3146C22.1209 20.5615 22.0229 20.7984 21.8482 20.973C21.6736 21.1476 21.4368 21.2457 21.1898 21.2457H16.2551L22.1861 31.3853C22.2676 31.5264 22.3106 31.6865 22.3109 31.8494C22.3111 32.0124 22.2686 32.1726 22.1875 32.314C22.1065 32.4553 21.9897 32.573 21.849 32.6551C21.7082 32.7372 21.5483 32.7809 21.3854 32.7819H16.1992L22.0371 43.4429C22.1148 43.5849 22.1542 43.7447 22.1513 43.9065C22.1484 44.0684 22.1034 44.2266 22.0206 44.3657C21.9379 44.5048 21.8204 44.62 21.6796 44.6998C21.5388 44.7797 21.3796 44.8214 21.2178 44.821H16.1992L22.0744 55.5471C22.1561 55.6887 22.1991 55.8493 22.1991 56.0127C22.1991 56.1761 22.1561 56.3367 22.0744 56.4782C21.9959 56.6077 21.8871 56.7161 21.7573 56.7939C21.6275 56.8718 21.4806 56.9169 21.3295 56.9252Z" fill="#404040"/>
<path d="M44.1977 22.4748C43.9508 22.4748 43.7139 22.3767 43.5393 22.202C43.3647 22.0274 43.2666 21.7906 43.2666 21.5437V17.3723C43.2666 17.1254 43.3647 16.8886 43.5393 16.714C43.7139 16.5393 43.9508 16.4412 44.1977 16.4412C44.4446 16.4412 44.6815 16.5393 44.8561 16.714C45.0307 16.8886 45.1288 17.1254 45.1288 17.3723V21.5437C45.1288 21.7906 45.0307 22.0274 44.8561 22.202C44.6815 22.3767 44.4446 22.4748 44.1977 22.4748Z" fill="#404040"/>
<path d="M43.9371 28.1358C43.5613 28.177 43.1819 28.1029 42.8493 27.9232C42.5166 27.7436 42.2466 27.467 42.0749 27.1302C41.9911 26.8981 42.0028 26.6421 42.1076 26.4187C42.2123 26.1952 42.4015 26.0224 42.6336 25.9384C42.8201 25.8696 43.0238 25.8623 43.2148 25.9175C43.4058 25.9728 43.5741 26.0878 43.695 26.2457C43.9088 26.2977 44.1335 26.2814 44.3375 26.1991C44.3839 26.1817 44.4252 26.153 44.4577 26.1157C44.4902 26.0783 44.5129 26.0333 44.5237 25.9849C44.654 25.3611 43.844 24.9794 43.8068 24.9608C43.6451 24.886 43.5084 24.7664 43.4127 24.6162C43.3169 24.466 43.2663 24.2915 43.2667 24.1134V21.5437C43.2667 21.2967 43.3648 21.0599 43.5394 20.8852C43.7141 20.7106 43.9509 20.6126 44.1978 20.6126C44.4447 20.6126 44.6816 20.7106 44.8562 20.8852C45.0308 21.0599 45.1289 21.2967 45.1289 21.5437V23.5828C45.5882 23.8726 45.9494 24.2942 46.1653 24.7926C46.3812 25.2909 46.4419 25.8427 46.3393 26.376C46.2228 26.8704 45.9439 27.3114 45.5473 27.6287C45.1507 27.946 44.6592 28.1213 44.1513 28.1265L43.9371 28.1358Z" fill="#404040"/>
<path d="M36.4411 52.428H32.7167C32.4698 52.428 32.233 52.3299 32.0584 52.1553C31.8838 51.9807 31.7856 51.7439 31.7856 51.4969V47.3442C31.7856 47.0973 31.8838 46.8605 32.0584 46.6859C32.233 46.5112 32.4698 46.4131 32.7167 46.4131C32.9637 46.4131 33.2005 46.5112 33.3751 46.6859C33.5497 46.8605 33.6478 47.0973 33.6478 47.3442V50.5658H36.4411C36.6881 50.5658 36.9249 50.6639 37.0995 50.8386C37.2741 51.0132 37.3722 51.25 37.3722 51.4969C37.3722 51.7439 37.2741 51.9807 37.0995 52.1553C36.9249 52.3299 36.6881 52.428 36.4411 52.428Z" fill="#FA4616"/>
<path d="M36.4411 44.1227H32.7167C32.4698 44.1227 32.233 44.0246 32.0584 43.85C31.8838 43.6753 31.7856 43.4385 31.7856 43.1916V39.0389C31.7856 38.792 31.8838 38.5551 32.0584 38.3805C32.233 38.2059 32.4698 38.1078 32.7167 38.1078C32.9637 38.1078 33.2005 38.2059 33.3751 38.3805C33.5497 38.5551 33.6478 38.792 33.6478 39.0389V42.2605H36.4411C36.6881 42.2605 36.9249 42.3586 37.0995 42.5332C37.2741 42.7078 37.3722 42.9447 37.3722 43.1916C37.3722 43.4385 37.2741 43.6753 37.0995 43.85C36.9249 44.0246 36.6881 44.1227 36.4411 44.1227Z" fill="#FA4616"/>
<path d="M44.4763 52.428H40.7519C40.505 52.428 40.2681 52.3299 40.0935 52.1553C39.9189 51.9807 39.8208 51.7439 39.8208 51.4969V47.3442C39.8208 47.0973 39.9189 46.8605 40.0935 46.6859C40.2681 46.5112 40.505 46.4131 40.7519 46.4131C40.9988 46.4131 41.2356 46.5112 41.4103 46.6859C41.5849 46.8605 41.683 47.0973 41.683 47.3442V50.5658H44.4763C44.7232 50.5658 44.96 50.6639 45.1346 50.8386C45.3092 51.0132 45.4074 51.25 45.4074 51.4969C45.4074 51.7439 45.3092 51.9807 45.1346 52.1553C44.96 52.3299 44.7232 52.428 44.4763 52.428Z" fill="#FA4616"/>
<path d="M52.6516 52.428H48.9272C48.6802 52.428 48.4434 52.3299 48.2688 52.1553C48.0942 51.9807 47.9961 51.7439 47.9961 51.4969V47.3442C47.9961 47.0973 48.0942 46.8605 48.2688 46.6859C48.4434 46.5112 48.6802 46.4131 48.9272 46.4131C49.1741 46.4131 49.4109 46.5112 49.5856 46.6859C49.7602 46.8605 49.8583 47.0973 49.8583 47.3442V50.5658H52.6516C52.8985 50.5658 53.1353 50.6639 53.3099 50.8386C53.4845 51.0132 53.5827 51.25 53.5827 51.4969C53.5827 51.7439 53.4845 51.9807 53.3099 52.1553C53.1353 52.3299 52.8985 52.428 52.6516 52.428Z" fill="#FA4616"/>
<path d="M56.069 56.9252H27.5683C27.3214 56.9252 27.0845 56.8271 26.9099 56.6525C26.7353 56.4779 26.6372 56.2411 26.6372 55.9941V31.3015C26.6372 31.0546 26.7353 30.8178 26.9099 30.6431C27.0845 30.4685 27.3214 30.3704 27.5683 30.3704H32.4286C32.6755 30.3704 32.9124 30.4685 33.087 30.6431C33.2616 30.8178 33.3597 31.0546 33.3597 31.3015V34.0948H38.1548V32.5212C38.1548 32.2743 38.2529 32.0375 38.4275 31.8629C38.6022 31.6883 38.839 31.5902 39.0859 31.5902H44.3466C44.5935 31.5902 44.8304 31.6883 45.005 31.8629C45.1796 32.0375 45.2777 32.2743 45.2777 32.5212V40.5752H49.6538V27.7261C49.6538 27.4792 49.7519 27.2423 49.9265 27.0677C50.1011 26.8931 50.338 26.795 50.5849 26.795H56.069C56.316 26.795 56.5528 26.8931 56.7274 27.0677C56.9021 27.2423 57.0001 27.4792 57.0001 27.7261V56.05C56.9859 56.2871 56.8816 56.5098 56.7085 56.6725C56.5354 56.8352 56.3066 56.9256 56.069 56.9252ZM28.4994 55.063H55.138V28.6013H51.516V41.4505C51.516 41.6974 51.4179 41.9342 51.2433 42.1088C51.0687 42.2834 50.8319 42.3815 50.5849 42.3815H44.3466C44.0996 42.3815 43.8628 42.2834 43.6882 42.1088C43.5136 41.9342 43.4155 41.6974 43.4155 41.4505V33.3965H40.017V34.97C40.017 35.217 39.9189 35.4538 39.7443 35.6284C39.5697 35.803 39.3329 35.9011 39.0859 35.9011H32.4286C32.1817 35.9011 31.9448 35.803 31.7702 35.6284C31.5956 35.4538 31.4975 35.217 31.4975 34.97V32.1767H28.4994V55.063Z" fill="#404040"/>
<path d="M44.9887 23.0148H43.2289C42.982 23.0148 42.7452 22.9167 42.5705 22.7421C42.3959 22.5675 42.2979 22.3306 42.2979 22.0837C42.2979 21.8367 42.3959 21.5999 42.5705 21.4253C42.7452 21.2507 42.982 21.1526 43.2289 21.1526H44.9887C45.2356 21.1526 45.4725 21.2507 45.6471 21.4253C45.8217 21.5999 45.9198 21.8367 45.9198 22.0837C45.9198 22.3306 45.8217 22.5675 45.6471 22.7421C45.4725 22.9167 45.2356 23.0148 44.9887 23.0148Z" fill="#404040"/>
</svg>
