<svg width="64" height="64" viewBox="0 0 64 64" fill="none" xmlns="http://www.w3.org/2000/svg">
<path d="M57 24.5833H54.9167V23.8958L46.0625 12.0833H17.9375L9.08333 23.8958V24.5833H7V23.5417C7 23.3163 7.0731 23.097 7.20833 22.9167L16.5833 10.4167C16.6804 10.2873 16.8062 10.1823 16.9508 10.11C17.0955 10.0377 17.255 10 17.4167 10H46.5833C46.745 10 46.9045 10.0377 47.0492 10.11C47.1938 10.1823 47.3196 10.2873 47.4167 10.4167L56.7917 22.9167C56.9269 23.097 57 23.3163 57 23.5417V24.5833Z" fill="#404040"/>
<path d="M55.9583 53.75H8.04167C7.7654 53.75 7.50045 53.6402 7.3051 53.4449C7.10975 53.2495 7 52.9846 7 52.7083V24.5833C7 24.3071 7.10975 24.0421 7.3051 23.8468C7.50045 23.6514 7.7654 23.5417 8.04167 23.5417H55.9583C56.2346 23.5417 56.4996 23.6514 56.6949 23.8468C56.8903 24.0421 57 24.3071 57 24.5833V52.7083C57 52.9846 56.8903 53.2495 56.6949 53.4449C56.4996 53.6402 56.2346 53.75 55.9583 53.75ZM9.08333 51.6667H54.9167V25.625H9.08333V51.6667Z" fill="#404040"/>
<path d="M50.75 16.25H13.25V18.3333H50.75V16.25Z" fill="#404040"/>
<path d="M16.0104 42.6667L14.2917 40.9479L12.5833 42.6667L11.8438 41.9271L14.2917 39.4688L16.75 41.9271L16.0104 42.6667Z" fill="#FA4616"/>
<path d="M14.8127 41.25H13.771V46.4583H14.8127V41.25Z" fill="#FA4616"/>
<path d="M22.2599 42.6667L20.5412 40.9479L18.8328 42.6667L18.0933 41.9271L20.5412 39.4688L22.9995 41.9271L22.2599 42.6667Z" fill="#FA4616"/>
<path d="M21.0622 41.25H20.0205V46.4583H21.0622V41.25Z" fill="#FA4616"/>
<path d="M22.6247 48.0208H12.208V49.0625H22.6247V48.0208Z" fill="#FA4616"/>
<path d="M38.9165 41.0104L35.8853 32.0937L49.6978 27.3854L52.7186 36.2604L38.9165 41.0104ZM38.5415 33.4375L40.2186 38.3437L50.0728 34.9792L48.3957 30.0521L38.5415 33.4375Z" fill="#404040"/>
<path d="M45.1978 49.8437L31.229 45.6667L33.9061 36.6875L36.4686 37.4479L35.8644 39.4375L35.3123 39.2708L33.8228 44.2708L43.8019 47.25L45.2915 42.2604L44.2082 41.9271L44.8019 39.9375L47.8853 40.8542L45.1978 49.8437Z" fill="#404040"/>
</svg>
