<svg width="64" height="64" viewBox="0 0 64 64" fill="none" xmlns="http://www.w3.org/2000/svg">
<path d="M16.4862 28.1477L15.6099 26.876C15.4282 26.6089 11.1431 20.411 10.2669 19.0218C9.38376 17.6762 8.94293 16.0885 9.00592 14.4802C9.00592 12.4963 9.79403 10.5937 11.1968 9.19092C12.5997 7.7881 14.5023 7 16.4862 7C18.47 7 20.3726 7.7881 21.7755 9.19092C23.1783 10.5937 23.9664 12.4963 23.9664 14.4802C24.0396 16.0896 23.5979 17.6805 22.7054 19.0218C21.8399 20.411 17.5548 26.6089 17.3624 26.876L16.4862 28.1477ZM16.4862 9.16928C15.0691 9.16928 13.7101 9.7322 12.7081 10.7342C11.7061 11.7362 11.1431 13.0952 11.1431 14.5123C11.073 15.7178 11.4037 16.9125 12.0835 17.9105C12.6926 18.8936 15.1504 22.4734 16.4862 24.4183C17.8326 22.4734 20.2904 18.8936 20.8995 17.9105C21.5763 16.9116 21.9032 15.7166 21.8292 14.5123C21.8179 13.1027 21.25 11.7546 20.2492 10.7618C19.2484 9.76903 17.8958 9.21197 16.4862 9.21202V9.16928Z" fill="#404040"/>
<path d="M36.7901 47.6818H21.8296C19.5623 47.6818 17.3879 46.7811 15.7847 45.1779C14.1814 43.5747 13.2808 41.4002 13.2808 39.1329C13.2808 36.8657 14.1814 34.6912 15.7847 33.088C17.3879 31.4848 19.5623 30.5841 21.8296 30.5841H43.2017C44.9021 30.5841 46.533 29.9086 47.7354 28.7062C48.9378 27.5038 49.6133 25.873 49.6133 24.1725C49.6133 22.472 48.9378 20.8412 47.7354 19.6388C46.533 18.4364 44.9021 17.7609 43.2017 17.7609H28.2412V15.6237H43.2017C45.469 15.6237 47.6434 16.5243 49.2466 18.1275C50.8498 19.7308 51.7505 21.9052 51.7505 24.1725C51.7505 26.4398 50.8498 28.6142 49.2466 30.2174C47.6434 31.8207 45.469 32.7213 43.2017 32.7213H21.8296C20.1291 32.7213 18.4983 33.3968 17.2959 34.5992C16.0935 35.8017 15.418 37.4325 15.418 39.1329C15.418 40.8334 16.0935 42.4642 17.2959 43.6667C18.4983 44.8691 20.1291 45.5446 21.8296 45.5446H36.7901V47.6818Z" fill="#FA4616"/>
<path d="M47.4759 57L46.5996 55.7284C46.418 55.4612 42.1329 49.2633 41.2566 47.8741C40.3735 46.5286 39.9327 44.9408 39.9957 43.3326C39.9957 41.3487 40.7838 39.4461 42.1866 38.0432C43.5894 36.6404 45.492 35.8523 47.4759 35.8523C49.4598 35.8523 51.3624 36.6404 52.7652 38.0432C54.168 39.4461 54.9561 41.3487 54.9561 43.3326C55.0294 44.942 54.5877 46.5328 53.6952 47.8741C52.8296 49.2633 48.5445 55.4612 48.3522 55.7284L47.4759 57ZM47.4759 38.0216C46.0588 38.0216 44.6998 38.5845 43.6978 39.5865C42.6958 40.5885 42.1329 41.9476 42.1329 43.3646C42.0628 44.5701 42.3934 45.7649 43.0733 46.7628C43.6824 47.7459 46.1401 51.3257 47.4759 53.2706C48.8223 51.3257 51.2801 47.7459 51.8892 46.7628C52.5661 45.7639 52.893 44.569 52.8189 43.3646C52.8076 41.955 52.2397 40.6069 51.2389 39.6141C50.2381 38.6214 48.8856 38.0643 47.4759 38.0643V38.0216Z" fill="#404040"/>
<path d="M31.8102 21.6826L27.5358 17.4082C27.4357 17.3089 27.3562 17.1907 27.3019 17.0604C27.2477 16.9302 27.2197 16.7906 27.2197 16.6495C27.2197 16.5084 27.2477 16.3687 27.3019 16.2385C27.3562 16.1083 27.4357 15.9901 27.5358 15.8908L31.8102 11.6164L33.317 13.1338L29.7585 16.6922L33.2742 20.2079L31.8102 21.6826Z" fill="#FA4616"/>
</svg>
