<svg width="64" height="64" viewBox="0 0 64 64" fill="none" xmlns="http://www.w3.org/2000/svg">
<path d="M7.86942 25.3555C7.71793 25.3544 7.56932 25.314 7.43811 25.2383C7.30689 25.1626 7.19756 25.0541 7.12079 24.9235C7.04402 24.7929 7.00243 24.6446 7.0001 24.4932C6.99777 24.3417 7.03478 24.1922 7.1075 24.0593L10.5317 17.71C10.6479 17.5056 10.8405 17.3557 11.0671 17.2933C11.2938 17.2309 11.5359 17.2611 11.7403 17.3772C11.9447 17.4934 12.0946 17.6859 12.157 17.9126C12.2194 18.1392 12.1892 18.3814 12.0731 18.5858L8.64885 24.9263C8.56911 25.061 8.45476 25.1718 8.31768 25.2473C8.18061 25.3227 8.02582 25.3601 7.86942 25.3555Z" fill="#404040"/>
<path d="M52.7346 19.0061H14.0432C13.811 19.0061 13.5882 18.9138 13.424 18.7496C13.2597 18.5854 13.1675 18.3626 13.1675 18.1304C13.1675 17.8981 13.2597 17.6753 13.424 17.5111C13.5882 17.3469 13.811 17.2546 14.0432 17.2546H52.7346C52.9669 17.2546 53.1896 17.3469 53.3539 17.5111C53.5181 17.6753 53.6104 17.8981 53.6104 18.1304C53.6104 18.3626 53.5181 18.5854 53.3539 18.7496C53.1896 18.9138 52.9669 19.0061 52.7346 19.0061Z" fill="#404040"/>
<path d="M52.0257 25.3555C51.8686 25.3552 51.7145 25.3127 51.5795 25.2324C51.4445 25.1521 51.3335 25.037 51.2583 24.8991C51.1831 24.7612 51.1463 24.6056 51.1519 24.4486C51.1575 24.2916 51.2052 24.139 51.29 24.0068L55.3799 17.6575C55.5053 17.4612 55.7035 17.3228 55.931 17.2727C56.1585 17.2226 56.3965 17.265 56.5928 17.3904C56.7891 17.5158 56.9275 17.7141 56.9776 17.9415C57.0276 18.169 56.9853 18.407 56.8599 18.6033L52.7613 24.9526C52.6822 25.0759 52.5734 25.1774 52.4449 25.2478C52.3163 25.3182 52.1722 25.3552 52.0257 25.3555Z" fill="#404040"/>
<path d="M46.6305 30.5575C43.1275 30.5575 40.2549 28.0528 40.2199 24.9789V24.541C40.2119 24.426 40.2265 24.3105 40.2631 24.2012C40.2997 24.0919 40.3574 23.9908 40.4331 23.9038C40.5858 23.728 40.8021 23.6202 41.0344 23.6039C41.2666 23.5876 41.4959 23.6643 41.6716 23.8171C41.8473 23.9698 41.9552 24.1861 41.9714 24.4184V24.9C41.9714 27.0807 44.082 28.806 46.6305 28.806C47.9353 28.8265 49.195 28.3289 50.1336 27.4222C50.4593 27.1039 50.7184 26.7239 50.8959 26.3044C51.0733 25.8849 51.1654 25.4343 51.167 24.9789V24.541C51.1589 24.426 51.1736 24.3105 51.2102 24.2012C51.2468 24.0919 51.3045 23.9908 51.3802 23.9038C51.5329 23.728 51.7492 23.6202 51.9815 23.6039C52.2137 23.5876 52.4429 23.6643 52.6187 23.8171C52.7944 23.9698 52.9023 24.1861 52.9185 24.4184V24.9088C52.9225 25.6003 52.79 26.2859 52.5285 26.9261C52.267 27.5663 51.8817 28.1486 51.3947 28.6396C50.7658 29.2569 50.0212 29.744 49.2037 30.0732C48.3862 30.4023 47.5117 30.5669 46.6305 30.5575Z" fill="#404040"/>
<path d="M35.5784 30.5575C32.0754 30.5575 29.2028 28.0528 29.1678 24.9789V24.541C29.1595 24.4259 29.174 24.3103 29.2104 24.2009C29.2469 24.0914 29.3046 23.9903 29.3803 23.9032C29.456 23.8161 29.5481 23.7449 29.6514 23.6935C29.7547 23.6421 29.8672 23.6117 29.9823 23.6039C30.2132 23.5895 30.4405 23.667 30.6144 23.8196C30.7884 23.9722 30.8948 24.1875 30.9106 24.4184V24.9C30.9106 27.0807 33.0299 28.806 35.5784 28.806C36.8832 28.8265 38.1429 28.3289 39.0815 27.4222C39.4064 27.1033 39.665 26.7232 39.8424 26.3038C40.0198 25.8845 40.1124 25.4342 40.1149 24.9789V24.541C40.1069 24.426 40.1215 24.3105 40.1581 24.2012C40.1947 24.0919 40.2524 23.9908 40.3281 23.9038C40.4808 23.728 40.6971 23.6202 40.9294 23.6039C41.1616 23.5876 41.3908 23.6643 41.5666 23.8171C41.7423 23.9698 41.8502 24.1861 41.8664 24.4184V24.9C41.8716 25.5972 41.738 26.2884 41.4734 26.9335C41.2087 27.5785 40.8184 28.1644 40.3251 28.6571C39.0552 29.8915 37.3493 30.5745 35.5784 30.5575Z" fill="#404040"/>
<path d="M24.5086 30.5575C21.0055 30.5575 18.133 28.0528 18.098 24.9789V24.541C18.0897 24.4259 18.1041 24.3103 18.1406 24.2009C18.1771 24.0914 18.2348 23.9903 18.3105 23.9032C18.3862 23.8161 18.4783 23.7448 18.5816 23.6935C18.6849 23.6421 18.7974 23.6117 18.9125 23.6039C19.1434 23.5895 19.3707 23.667 19.5446 23.8196C19.7186 23.9722 19.825 24.1875 19.8408 24.4184V24.9C19.8408 27.0807 21.9601 28.806 24.5086 28.806C25.8132 28.8255 27.0726 28.328 28.0117 27.4222C28.3366 27.1033 28.5952 26.7232 28.7726 26.3038C28.9499 25.8845 29.0426 25.4342 29.0451 24.9789V24.541C29.0367 24.4259 29.0512 24.3103 29.0877 24.2009C29.1242 24.0914 29.1819 23.9903 29.2576 23.9032C29.3332 23.8161 29.4254 23.7448 29.5287 23.6935C29.632 23.6421 29.7444 23.6117 29.8595 23.6039C29.9746 23.5956 30.0902 23.61 30.1997 23.6465C30.3091 23.683 30.4103 23.7407 30.4973 23.8164C30.5844 23.8921 30.6557 23.9842 30.707 24.0875C30.7584 24.1908 30.7888 24.3032 30.7966 24.4184V24.9088C30.8006 25.6045 30.6665 26.2941 30.4019 26.9375C30.1373 27.581 29.7475 28.1655 29.2553 28.6571C27.9854 29.8915 26.2795 30.5745 24.5086 30.5575Z" fill="#404040"/>
<path d="M13.474 30.5575C9.97091 30.5575 7.0984 28.0528 7.06337 24.9789V24.541C7.04647 24.31 7.12175 24.0817 7.27275 23.9061C7.42375 23.7304 7.63816 23.6218 7.86908 23.6039C7.98414 23.5956 8.09973 23.61 8.20918 23.6465C8.31864 23.683 8.4198 23.7407 8.50687 23.8164C8.59395 23.8921 8.66522 23.9842 8.71658 24.0875C8.76794 24.1908 8.79838 24.3032 8.80615 24.4184V24.9C8.80615 27.0807 10.9255 28.806 13.474 28.806C14.7786 28.8255 16.0379 28.328 16.977 27.4222C17.302 27.1033 17.5606 26.7232 17.738 26.3038C17.9153 25.8845 18.0079 25.4342 18.0105 24.9789V24.541C18.0024 24.426 18.0171 24.3105 18.0537 24.2012C18.0902 24.0918 18.148 23.9908 18.2236 23.9038C18.2992 23.8168 18.3913 23.7455 18.4944 23.694C18.5976 23.6426 18.7099 23.6119 18.8249 23.6039C18.9399 23.5958 19.0554 23.6105 19.1647 23.6471C19.2741 23.6837 19.3751 23.7414 19.4621 23.8171C19.5491 23.8927 19.6204 23.9847 19.6719 24.0879C19.7233 24.1911 19.7539 24.3033 19.762 24.4184V24.9C19.7733 25.5973 19.6433 26.2896 19.3799 26.9353C19.1165 27.581 18.7252 28.1667 18.2294 28.6571C16.9574 29.8937 15.2479 30.5768 13.474 30.5575Z" fill="#404040"/>
<path d="M40.9735 25.3554C40.8257 25.3559 40.6805 25.3166 40.5531 25.2416C40.4524 25.1858 40.3637 25.1108 40.2921 25.0208C40.2204 24.9307 40.1672 24.8274 40.1355 24.7168C40.1038 24.6062 40.0942 24.4905 40.1072 24.3761C40.1203 24.2618 40.1557 24.1512 40.2115 24.0505L43.7146 17.71C43.7721 17.6094 43.8489 17.521 43.9405 17.4501C44.0321 17.3791 44.1369 17.3269 44.2487 17.2964C44.3605 17.2659 44.4772 17.2577 44.5922 17.2723C44.7072 17.287 44.8181 17.3241 44.9188 17.3816C45.0194 17.4391 45.1077 17.5158 45.1787 17.6075C45.2497 17.6991 45.3019 17.8038 45.3324 17.9156C45.3629 18.0275 45.3711 18.1442 45.3564 18.2592C45.3418 18.3742 45.3047 18.4851 45.2472 18.5858L41.7441 24.9351C41.664 25.0668 41.5506 25.175 41.4153 25.2488C41.28 25.3226 41.1276 25.3594 40.9735 25.3554Z" fill="#404040"/>
<path d="M29.9212 25.3554C29.7734 25.3559 29.6282 25.3166 29.5008 25.2416C29.4002 25.1858 29.3115 25.1108 29.2398 25.0208C29.1682 24.9307 29.115 24.8274 29.0832 24.7168C29.0515 24.6062 29.0419 24.4905 29.055 24.3761C29.068 24.2618 29.1035 24.1512 29.1593 24.0505L32.6624 17.71C32.7199 17.6094 32.7966 17.521 32.8883 17.4501C32.9799 17.3791 33.0846 17.3269 33.1964 17.2964C33.3082 17.2659 33.425 17.2577 33.54 17.2723C33.6549 17.287 33.7659 17.3241 33.8665 17.3816C33.9672 17.4391 34.0555 17.5158 34.1265 17.6075C34.1974 17.6991 34.2496 17.8038 34.2801 17.9156C34.3106 18.0275 34.3188 18.1442 34.3042 18.2592C34.2896 18.3742 34.2525 18.4851 34.195 18.5858L30.6919 24.9351C30.6118 25.0668 30.4983 25.175 30.363 25.2488C30.2277 25.3226 30.0753 25.3594 29.9212 25.3554Z" fill="#404040"/>
<path d="M18.8689 25.3554C18.7185 25.355 18.5707 25.3158 18.4398 25.2416C18.3391 25.1858 18.2504 25.1108 18.1788 25.0208C18.1071 24.9307 18.0539 24.8274 18.0222 24.7168C17.9905 24.6062 17.9809 24.4905 17.9939 24.3761C18.007 24.2618 18.0424 24.1512 18.0983 24.0505L21.6013 17.71C21.6588 17.6094 21.7356 17.521 21.8272 17.4501C21.9189 17.3791 22.0236 17.3269 22.1354 17.2964C22.2472 17.2659 22.364 17.2577 22.4789 17.2723C22.5939 17.287 22.7049 17.3241 22.8055 17.3816C22.9061 17.4391 22.9945 17.5158 23.0654 17.6075C23.1364 17.6991 23.1886 17.8038 23.2191 17.9156C23.2496 18.0275 23.2578 18.1442 23.2432 18.2592C23.2285 18.3742 23.1914 18.4851 23.1339 18.5858L19.6308 24.9351C19.5515 25.0655 19.4394 25.1728 19.3058 25.2465C19.1722 25.3203 19.0216 25.3578 18.8689 25.3554V25.3554Z" fill="#404040"/>
<path d="M56.1242 51.138H11.2937C11.0615 51.138 10.8387 51.0457 10.6745 50.8815C10.5102 50.7173 10.418 50.4945 10.418 50.2622L10.5493 29.673C10.5493 29.4407 10.6416 29.218 10.8058 29.0537C10.9701 28.8895 11.1928 28.7972 11.4251 28.7972C11.6574 28.7972 11.8801 28.8895 12.0444 29.0537C12.2086 29.218 12.3009 29.4407 12.3009 29.673L12.1783 49.3689H55.2485V13.7515H12.2483V18.1304C12.2483 18.3626 12.1561 18.5854 11.9918 18.7496C11.8276 18.9139 11.6048 19.0061 11.3726 19.0061C11.1403 19.0061 10.9175 18.9139 10.7533 18.7496C10.5891 18.5854 10.4968 18.3626 10.4968 18.1304V12.8758C10.4968 12.6435 10.5891 12.4208 10.7533 12.2565C10.9175 12.0923 11.1403 12 11.3726 12H56.1242C56.3565 12 56.5792 12.0923 56.7435 12.2565C56.9077 12.4208 57 12.6435 57 12.8758V50.2798C56.9954 50.509 56.9011 50.7273 56.7374 50.8877C56.5736 51.0482 56.3535 51.1381 56.1242 51.138V51.138Z" fill="#404040"/>
<path d="M52.2095 51.138C51.9772 51.138 51.7544 51.0457 51.5902 50.8815C51.426 50.7173 51.3337 50.4945 51.3337 50.2622V36.3025H44.8355V50.2622C44.8355 50.4945 44.7433 50.7173 44.579 50.8815C44.4148 51.0457 44.192 51.138 43.9598 51.138C43.7275 51.138 43.5047 51.0457 43.3405 50.8815C43.1763 50.7173 43.084 50.4945 43.084 50.2622V35.4268C43.084 35.1945 43.1763 34.9718 43.3405 34.8075C43.5047 34.6433 43.7275 34.551 43.9598 34.551H52.2095C52.4417 34.551 52.6645 34.6433 52.8287 34.8075C52.993 34.9718 53.0852 35.1945 53.0852 35.4268V50.2622C53.0852 50.4945 52.993 50.7173 52.8287 50.8815C52.6645 51.0457 52.4417 51.138 52.2095 51.138Z" fill="#404040"/>
<path d="M38.5214 38.632C38.2891 38.632 38.0663 38.5398 37.9021 38.3756C37.7379 38.2113 37.6456 37.9885 37.6456 37.7563V34.4196H17.9058V37.4935C17.9058 37.7258 17.8136 37.9486 17.6493 38.1128C17.4851 38.277 17.2623 38.3693 17.0301 38.3693C16.7978 38.3693 16.575 38.277 16.4108 38.1128C16.2466 37.9486 16.1543 37.7258 16.1543 37.4935V33.5438C16.1543 33.3116 16.2466 33.0888 16.4108 32.9246C16.575 32.7603 16.7978 32.6681 17.0301 32.6681H38.5214C38.7536 32.6681 38.9764 32.7603 39.1406 32.9246C39.3049 33.0888 39.3971 33.3116 39.3971 33.5438V37.7563C39.3971 37.9885 39.3049 38.2113 39.1406 38.3756C38.9764 38.5398 38.7536 38.632 38.5214 38.632Z" fill="#404040"/>
<path d="M27.3465 51.138C27.1142 51.138 26.8914 51.0457 26.7272 50.8815C26.563 50.7173 26.4707 50.4945 26.4707 50.2622V42.6518C26.4707 42.4196 26.563 42.1968 26.7272 42.0326C26.8914 41.8683 27.1142 41.7761 27.3465 41.7761C27.5787 41.7761 27.8015 41.8683 27.9657 42.0326C28.13 42.1968 28.2222 42.4196 28.2222 42.6518V50.306C28.211 50.5306 28.1138 50.7423 27.9507 50.8972C27.7877 51.052 27.5713 51.1383 27.3465 51.138Z" fill="#FA4616"/>
<path d="M39.2219 46.0323H32.3909C32.1586 46.0323 31.9359 45.94 31.7716 45.7757C31.6074 45.6115 31.5151 45.3888 31.5151 45.1565C31.5151 44.9242 31.6074 44.7015 31.7716 44.5373C31.9359 44.373 32.1586 44.2807 32.3909 44.2807H39.2044C39.4366 44.2807 39.6594 44.373 39.8236 44.5373C39.9879 44.7015 40.0801 44.9242 40.0801 45.1565C40.0801 45.3888 39.9879 45.6115 39.8236 45.7757C39.6594 45.94 39.4366 46.0323 39.2044 46.0323H39.2219Z" fill="#FA4616"/>
<path d="M37.6453 51.138C37.413 51.138 37.1903 51.0457 37.026 50.8815C36.8618 50.7172 36.7695 50.4945 36.7695 50.2622V45.1565C36.7695 44.9242 36.8618 44.7015 37.026 44.5372C37.1903 44.373 37.413 44.2807 37.6453 44.2807C37.8776 44.2807 38.1003 44.373 38.2646 44.5372C38.4288 44.7015 38.5211 44.9242 38.5211 45.1565V50.2622C38.5211 50.4945 38.4288 50.7172 38.2646 50.8815C38.1003 51.0457 37.8776 51.138 37.6453 51.138Z" fill="#FA4616"/>
<path d="M33.6956 51.138C33.4633 51.138 33.2406 51.0457 33.0763 50.8815C32.9121 50.7172 32.8198 50.4945 32.8198 50.2622V45.1565C32.8198 44.9242 32.9121 44.7015 33.0763 44.5372C33.2406 44.373 33.4633 44.2807 33.6956 44.2807C33.9279 44.2807 34.1506 44.373 34.3149 44.5372C34.4791 44.7015 34.5714 44.9242 34.5714 45.1565V50.2622C34.5714 50.4945 34.4791 50.7172 34.3149 50.8815C34.1506 51.0457 33.9279 51.138 33.6956 51.138Z" fill="#FA4616"/>
<path d="M38.6527 46.0323H38.5213C38.2929 45.9957 38.0882 45.8701 37.952 45.683C37.8158 45.496 37.7591 45.2626 37.7944 45.0339L38.6177 39.7268C38.6358 39.6128 38.6762 39.5035 38.7367 39.4052C38.7972 39.3069 38.8765 39.2215 38.9701 39.1539C39.0637 39.0864 39.1697 39.038 39.2821 39.0116C39.3944 38.9852 39.5109 38.9812 39.6248 38.9999C39.8533 39.0366 40.058 39.1621 40.1942 39.3492C40.3304 39.5363 40.387 39.7696 40.3517 39.9983L39.5285 45.3055C39.493 45.5111 39.3853 45.6973 39.2248 45.8305C39.0642 45.9638 38.8613 46.0353 38.6527 46.0323V46.0323Z" fill="#FA4616"/>
<path d="M35.1058 46.0323H34.9657C34.7372 45.9956 34.5325 45.8701 34.3963 45.683C34.2601 45.4959 34.2035 45.2626 34.2388 45.0339L35.062 39.7267C35.0798 39.6117 35.1201 39.5014 35.1806 39.402C35.2411 39.3025 35.3206 39.216 35.4145 39.1473C35.5084 39.0785 35.615 39.029 35.728 39.0014C35.8411 38.9739 35.9585 38.9689 36.0735 38.9867C36.1885 39.0046 36.2989 39.0449 36.3983 39.1053C36.4977 39.1658 36.5843 39.2453 36.653 39.3392C36.7217 39.4331 36.7713 39.5397 36.7988 39.6528C36.8263 39.7658 36.8314 39.8832 36.8135 39.9982L35.9816 45.3054C35.9461 45.511 35.8384 45.6972 35.6778 45.8305C35.5173 45.9637 35.3144 46.0353 35.1058 46.0323V46.0323Z" fill="#FA4616"/>
<path d="M39.1869 41.5396H35.8152C35.583 41.5396 35.3602 41.4474 35.196 41.2831C35.0317 41.1189 34.9395 40.8961 34.9395 40.6638C34.9395 40.4316 35.0317 40.2088 35.196 40.0446C35.3602 39.8803 35.583 39.7881 35.8152 39.7881H39.1869C39.4192 39.7881 39.6419 39.8803 39.8062 40.0446C39.9704 40.2088 40.0627 40.4316 40.0627 40.6638C40.0627 40.8961 39.9704 41.1189 39.8062 41.2831C39.6419 41.4474 39.4192 41.5396 39.1869 41.5396Z" fill="#FA4616"/>
<path d="M32.391 43.5276H22.346C22.1137 43.5276 21.891 43.4353 21.7267 43.2711C21.5625 43.1068 21.4702 42.8841 21.4702 42.6518C21.4702 42.4196 21.5625 42.1968 21.7267 42.0326C21.891 41.8683 22.1137 41.7761 22.346 41.7761H32.391C32.6233 41.7761 32.846 41.8683 33.0103 42.0326C33.1745 42.1968 33.2668 42.4196 33.2668 42.6518C33.2668 42.8841 33.1745 43.1068 33.0103 43.2711C32.846 43.4353 32.6233 43.5276 32.391 43.5276Z" fill="#FA4616"/>
<path d="M22.2845 46.0323H15.471C15.2387 46.0323 15.016 45.94 14.8517 45.7757C14.6875 45.6115 14.5952 45.3888 14.5952 45.1565C14.5952 44.9242 14.6875 44.7015 14.8517 44.5373C15.016 44.373 15.2387 44.2807 15.471 44.2807H22.2845C22.5167 44.2807 22.7395 44.373 22.9037 44.5373C23.068 44.7015 23.1602 44.9242 23.1602 45.1565C23.1602 45.3888 23.068 45.6115 22.9037 45.7757C22.7395 45.94 22.5167 46.0323 22.2845 46.0323Z" fill="#FA4616"/>
<path d="M17.0389 51.138C16.8066 51.138 16.5838 51.0457 16.4196 50.8815C16.2554 50.7172 16.1631 50.4945 16.1631 50.2622V45.1565C16.1631 44.9242 16.2554 44.7015 16.4196 44.5372C16.5838 44.373 16.8066 44.2807 17.0389 44.2807C17.2711 44.2807 17.4939 44.373 17.6581 44.5372C17.8224 44.7015 17.9146 44.9242 17.9146 45.1565V50.2622C17.9146 50.4945 17.8224 50.7172 17.6581 50.8815C17.4939 51.0457 17.2711 51.138 17.0389 51.138Z" fill="#FA4616"/>
<path d="M21.0056 51.138C20.7734 51.138 20.5506 51.0457 20.3864 50.8815C20.2222 50.7172 20.1299 50.4945 20.1299 50.2622V45.1565C20.1299 44.9242 20.2222 44.7015 20.3864 44.5372C20.5506 44.373 20.7734 44.2807 21.0056 44.2807C21.2379 44.2807 21.4607 44.373 21.6249 44.5372C21.7891 44.7015 21.8814 44.9242 21.8814 45.1565V50.2622C21.8814 50.4945 21.7891 50.7172 21.6249 50.8815C21.4607 51.0457 21.2379 51.138 21.0056 51.138Z" fill="#FA4616"/>
<path d="M16.04 46.0323C15.8301 46.035 15.6262 45.9622 15.4655 45.8272C15.3047 45.6922 15.1979 45.5039 15.1643 45.2967L14.3498 40.0246C14.332 39.9096 14.337 39.7922 14.3645 39.6791C14.3921 39.566 14.4416 39.4595 14.5103 39.3655C14.5791 39.2716 14.6656 39.1921 14.765 39.1316C14.8645 39.0712 14.9748 39.0309 15.0898 39.013C15.2048 38.9952 15.3222 39.0002 15.4353 39.0278C15.5484 39.0553 15.6549 39.1049 15.7489 39.1736C15.8428 39.2423 15.9223 39.3288 15.9827 39.4282C16.0432 39.5277 16.0835 39.6381 16.1013 39.7531L16.9333 45.0602C16.9507 45.1741 16.9455 45.2903 16.9179 45.4022C16.8904 45.514 16.841 45.6193 16.7727 45.712C16.7043 45.8048 16.6184 45.8831 16.5197 45.9426C16.421 46.0021 16.3116 46.0415 16.1977 46.0586L16.04 46.0323Z" fill="#FA4616"/>
<path d="M19.5872 46.0323C19.3773 46.035 19.1734 45.9622 19.0126 45.8272C18.8519 45.6922 18.745 45.5039 18.7114 45.2967L17.8882 39.9895C17.8529 39.7608 17.9095 39.5275 18.0457 39.3404C18.1819 39.1533 18.3866 39.0278 18.6151 38.9911C18.8438 38.9558 19.0771 39.0125 19.2642 39.1487C19.4513 39.2849 19.5768 39.4896 19.6135 39.718L20.4892 45.0252C20.5245 45.2539 20.4679 45.4872 20.3317 45.6743C20.1955 45.8613 19.9908 45.9869 19.7623 46.0235L19.5872 46.0323Z" fill="#FA4616"/>
<path d="M18.764 41.5396H15.5061C15.2739 41.5396 15.0511 41.4474 14.8869 41.2831C14.7226 41.1189 14.6304 40.8961 14.6304 40.6638C14.6304 40.4316 14.7226 40.2088 14.8869 40.0446C15.0511 39.8803 15.2739 39.7881 15.5061 39.7881H18.764C18.9963 39.7881 19.219 39.8803 19.3833 40.0446C19.5475 40.2088 19.6398 40.4316 19.6398 40.6638C19.6398 40.8961 19.5475 41.1189 19.3833 41.2831C19.219 41.4474 18.9963 41.5396 18.764 41.5396Z" fill="#FA4616"/>
</svg>
