<svg width="64" height="64" viewBox="0 0 64 64" fill="none" xmlns="http://www.w3.org/2000/svg">
<path d="M53.8139 43.0884H51.7333V41.0078H53.8139C54.0898 41.0078 54.3544 40.8982 54.5495 40.7031C54.7446 40.508 54.8542 40.2434 54.8542 39.9675V32.9038C54.8542 32.0611 54.5109 31.645 53.8139 31.645H52.7736C52.5882 31.6437 52.4065 31.5928 52.2474 31.4977C52.0883 31.4026 51.9575 31.2667 51.8685 31.104L48.3835 24.7373C48.2845 24.6185 48.1604 24.5233 48.02 24.4585C47.8796 24.3937 47.7266 24.361 47.572 24.3628H39.2495V22.2822H47.572C48.0788 22.2837 48.5776 22.4085 49.0253 22.646C49.473 22.8834 49.8561 23.2263 50.1416 23.645L53.4394 29.5644H53.8659C54.2975 29.5537 54.7265 29.6346 55.1247 29.8016C55.5228 29.9687 55.8811 30.2181 56.1759 30.5336C56.4707 30.849 56.6954 31.2233 56.8351 31.6319C56.9749 32.0404 57.0266 32.4739 56.9868 32.9038V39.9155C56.9939 40.3341 56.9166 40.7499 56.7596 41.138C56.6027 41.5261 56.3692 41.8787 56.0732 42.1748C55.7771 42.4708 55.4245 42.7043 55.0364 42.8612C54.6483 43.0182 54.2325 43.0955 53.8139 43.0884V43.0884Z" fill="#404040"/>
<path d="M39.2498 43.0884H23.6451V41.0078H38.2094V17.0806H21.5645V15H39.2498C39.5257 15 39.7903 15.1096 39.9854 15.3047C40.1805 15.4998 40.2901 15.7644 40.2901 16.0403V42.0481C40.2901 42.324 40.1805 42.5886 39.9854 42.7837C39.7903 42.9788 39.5257 43.0884 39.2498 43.0884Z" fill="#404040"/>
<path d="M15.3227 41.0078H10.1211V43.0884H15.3227V41.0078Z" fill="#404040"/>
<path d="M47.5614 48.29C46.5327 48.29 45.527 47.9849 44.6716 47.4134C43.8162 46.8418 43.1495 46.0294 42.7558 45.079C42.3621 44.1285 42.2591 43.0827 42.4598 42.0737C42.6605 41.0647 43.1559 40.1378 43.8834 39.4104C44.6108 38.6829 45.5376 38.1875 46.5467 37.9868C47.5557 37.7861 48.6015 37.8891 49.552 38.2828C50.5024 38.6765 51.3148 39.3432 51.8864 40.1986C52.4579 41.054 52.763 42.0597 52.763 43.0884C52.763 44.468 52.215 45.791 51.2395 46.7665C50.264 47.742 48.941 48.29 47.5614 48.29V48.29ZM47.5614 39.9675C46.9442 39.9675 46.3408 40.1505 45.8275 40.4935C45.3143 40.8364 44.9143 41.3238 44.6781 41.8941C44.4418 42.4644 44.38 43.0919 44.5005 43.6973C44.6209 44.3027 44.9181 44.8588 45.3546 45.2953C45.7911 45.7317 46.3472 46.029 46.9526 46.1494C47.558 46.2698 48.1855 46.208 48.7558 45.9718C49.326 45.7356 49.8135 45.3356 50.1564 44.8223C50.4993 44.3091 50.6824 43.7057 50.6824 43.0884C50.6769 42.2643 50.3456 41.4758 49.7609 40.895C49.1762 40.3142 48.3856 39.9883 47.5614 39.9883V39.9675Z" fill="#404040"/>
<path d="M19.494 48.29C18.4653 48.29 17.4596 47.9849 16.6042 47.4134C15.7488 46.8418 15.0821 46.0294 14.6884 45.079C14.2947 44.1285 14.1917 43.0827 14.3924 42.0737C14.5931 41.0647 15.0885 40.1378 15.816 39.4104C16.5434 38.6829 17.4703 38.1875 18.4793 37.9868C19.4883 37.7861 20.5341 37.8891 21.4846 38.2828C22.4351 38.6765 23.2474 39.3432 23.819 40.1986C24.3905 41.054 24.6956 42.0597 24.6956 43.0884C24.6956 44.468 24.1476 45.791 23.1721 46.7665C22.1966 47.742 20.8736 48.29 19.494 48.29V48.29ZM19.494 39.9675C18.8768 39.9675 18.2734 40.1505 17.7601 40.4935C17.2469 40.8364 16.8469 41.3238 16.6107 41.8941C16.3745 42.4644 16.3127 43.0919 16.4331 43.6973C16.5535 44.3027 16.8507 44.8588 17.2872 45.2953C17.7237 45.7317 18.2798 46.029 18.8852 46.1494C19.4906 46.2698 20.1181 46.208 20.6884 45.9718C21.2587 45.7356 21.7461 45.3356 22.089 44.8223C22.4319 44.3091 22.615 43.7057 22.615 43.0884C22.6095 42.2643 22.2782 41.4758 21.6936 40.895C21.1089 40.3142 20.3182 39.9883 19.494 39.9883V39.9675Z" fill="#404040"/>
<path d="M43.4108 41.0078H39.2495V43.0884H43.4108V41.0078Z" fill="#404040"/>
<path d="M48.6123 32.6853H41.3301V30.6047H47.3431L45.6682 28.0559L47.4055 26.9012L49.4861 30.0221C49.5962 30.1925 49.6541 30.3914 49.6526 30.5943V31.6346C49.6539 31.7721 49.6281 31.9085 49.5764 32.0359C49.5247 32.1633 49.4483 32.2792 49.3516 32.377C49.2548 32.4747 49.1397 32.5522 49.0128 32.6051C48.8859 32.6581 48.7498 32.6853 48.6123 32.6853V32.6853Z" fill="#FA4616"/>
<path d="M24.6853 27.4837H7V29.5644H24.6853V27.4837Z" fill="#FA4616"/>
<path d="M30.9269 21.2419H15.3223V23.3225H30.9269V21.2419Z" fill="#FA4616"/>
<path d="M13.2418 21.2419H11.1611V23.3225H13.2418V21.2419Z" fill="#FA4616"/>
<path d="M19.4839 15H17.4033V17.0806H19.4839V15Z" fill="#404040"/>
</svg>
