<svg width="64" height="64" viewBox="0 0 64 64" fill="none" xmlns="http://www.w3.org/2000/svg">
<path d="M15.3466 7.02085C13.2253 7.01493 11.1818 7.81918 9.63357 9.26927C8.08534 10.7194 7.14916 12.7059 7.01634 14.823C6.88352 16.9401 7.56409 19.028 8.91895 20.6603C10.2738 22.2925 12.2008 23.3458 14.3061 23.6051V46.5566H13.2657C12.7139 46.5566 12.1846 46.7758 11.7944 47.1661C11.4041 47.5563 11.1849 48.0856 11.1849 48.6374V56.9608H19.5082V48.6374C19.5082 48.0856 19.289 47.5563 18.8988 47.1661C18.5085 46.7758 17.9793 46.5566 17.4274 46.5566H16.387V23.5843C18.4923 23.325 20.4193 22.2717 21.7742 20.6395C23.129 19.0072 23.8095 16.9193 23.6767 14.8022C23.5439 12.6851 22.6078 10.6986 21.0595 9.24846C19.5113 7.79837 17.4678 6.99412 15.3466 7.00003V7.02085ZM17.4274 54.8799H13.2657V48.6374H17.4274V54.8799ZM15.3466 21.5867C14.1119 21.5867 12.905 21.2205 11.8784 20.5346C10.8518 19.8487 10.0517 18.8737 9.57925 17.7331C9.10677 16.5924 8.98312 15.3372 9.22399 14.1263C9.46485 12.9154 10.0594 11.8031 10.9324 10.9301C11.8055 10.057 12.9178 9.46248 14.1287 9.22161C15.3396 8.98075 16.5948 9.10438 17.7354 9.57686C18.8761 10.0493 19.851 10.8495 20.537 11.876C21.2229 12.9026 21.589 14.1095 21.589 15.3442C21.589 16.9998 20.9313 18.5876 19.7606 19.7583C18.5899 20.929 17.0022 21.5867 15.3466 21.5867Z" fill="#404040"/>
<path d="M53.6119 23.6675H44.5291V15.3442H53.6119L56.3794 12.6703C56.576 12.4767 56.7322 12.2459 56.8387 11.9914C56.9453 11.7368 57.0002 11.4637 57.0002 11.1877C57.0002 10.9118 56.9453 10.6386 56.8387 10.3841C56.7322 10.1295 56.576 9.89875 56.3794 9.70513L53.6119 7.02086H42.4067V15.3442H33.3342L30.5563 18.0285C30.3597 18.2221 30.2036 18.4529 30.097 18.7074C29.9904 18.9619 29.9355 19.2351 29.9355 19.511C29.9355 19.787 29.9904 20.0602 30.097 20.3147C30.2036 20.5692 30.3597 20.8 30.5563 20.9936L33.3342 23.6675H42.4067V46.5566H41.3662C40.8144 46.5566 40.2851 46.7758 39.8949 47.1661C39.5046 47.5563 39.2854 48.0856 39.2854 48.6374V56.9608H47.6087V48.6374C47.6087 48.0856 47.3895 47.5563 46.9993 47.1661C46.609 46.7758 46.0798 46.5566 45.5279 46.5566H44.4875V31.9908H53.6119L56.3794 29.3169C56.576 29.1233 56.7322 28.8925 56.8387 28.638C56.9453 28.3835 57.0002 28.1103 57.0002 27.8344C57.0002 27.5584 56.9453 27.2852 56.8387 27.0307C56.7322 26.7762 56.576 26.5454 56.3794 26.3518L53.6119 23.6675ZM44.5291 9.10169H52.7692L54.9332 11.1825L52.7692 13.2633H44.5291V9.10169ZM34.2082 21.5867L32.0441 19.5058L34.2082 17.425H42.4482V21.5867H34.2082ZM45.5695 54.8799H41.4078V48.6374H45.5695V54.8799ZM52.7692 29.91H44.5291V25.7483H52.7692L54.9332 27.8292L52.7692 29.91Z" fill="#404040"/>
</svg>
