<svg width="64" height="64" viewBox="0 0 64 64" fill="none" xmlns="http://www.w3.org/2000/svg">
<path d="M39.283 42.0762H31.9932V39.9934H38.2416V17.0828H12.2068V27.4967H10.124V16.0414C10.124 15.7652 10.2337 15.5003 10.429 15.305C10.6243 15.1097 10.8892 15 11.1654 15H39.283C39.5592 15 39.8241 15.1097 40.0194 15.305C40.2147 15.5003 40.3244 15.7652 40.3244 16.0414V41.0348C40.3244 41.311 40.2147 41.5759 40.0194 41.7712C39.8241 41.9664 39.5592 42.0762 39.283 42.0762Z" fill="#404040"/>
<path d="M29.9106 48.3245H8.04139C7.7652 48.3245 7.50031 48.2148 7.30502 48.0195C7.10972 47.8242 7 47.5593 7 47.2831V29.5795C7 29.3033 7.10972 29.0384 7.30502 28.8431C7.50031 28.6478 7.7652 28.5381 8.04139 28.5381H29.9106C30.1868 28.5381 30.4517 28.6478 30.647 28.8431C30.8423 29.0384 30.952 29.3033 30.952 29.5795V47.2831C30.952 47.5593 30.8423 47.8242 30.647 48.0195C30.4517 48.2148 30.1868 48.3245 29.9106 48.3245ZM9.08278 46.2417H28.8692V30.6209H9.08278V46.2417Z" fill="#FA4616"/>
<path d="M22.6207 34.7864H15.3309C15.0547 34.7864 14.7899 34.6767 14.5946 34.4814C14.3993 34.2861 14.2896 34.0212 14.2896 33.745V29.5795C14.2896 29.3033 14.3993 29.0384 14.5946 28.8431C14.7899 28.6478 15.0547 28.5381 15.3309 28.5381H22.6207C22.8969 28.5381 23.1618 28.6478 23.3571 28.8431C23.5524 29.0384 23.6621 29.3033 23.6621 29.5795V33.745C23.6621 34.0212 23.5524 34.2861 23.3571 34.4814C23.1618 34.6767 22.8969 34.7864 22.6207 34.7864ZM16.3723 32.7036H21.5793V30.6209H16.3723V32.7036Z" fill="#FA4616"/>
<path d="M13.2483 42.0762H11.1655V44.159H13.2483V42.0762Z" fill="#FA4616"/>
<path d="M17.4138 42.0762H15.3311V44.159H17.4138V42.0762Z" fill="#FA4616"/>
<path d="M53.863 42.0762H51.7802V39.9934H53.863C54.1392 39.9934 54.4041 39.8837 54.5994 39.6884C54.7947 39.4931 54.9044 39.2282 54.9044 38.952V31.881C54.9044 31.0478 54.5607 30.6209 53.863 30.6209H52.8216C52.636 30.6195 52.4542 30.5686 52.2949 30.4734C52.1356 30.3782 52.0047 30.2421 51.9156 30.0793L48.3749 23.706C48.2758 23.5871 48.1515 23.4918 48.011 23.4269C47.8705 23.3621 47.7173 23.3293 47.5626 23.3311H39.2314V21.2484H47.5626C48.0716 21.2481 48.573 21.3723 49.0231 21.6101C49.4733 21.8478 49.8585 22.192 50.1452 22.6126L53.436 28.5381H53.863C54.2951 28.5274 54.7245 28.6084 55.1231 28.7756C55.5216 28.9428 55.8803 29.1925 56.1754 29.5083C56.4705 29.8241 56.6954 30.1988 56.8353 30.6077C56.9752 31.0166 57.027 31.4506 56.9872 31.881V38.952C56.9872 39.7806 56.658 40.5752 56.0721 41.1611C55.4862 41.747 54.6916 42.0762 53.863 42.0762V42.0762Z" fill="#404040"/>
<path d="M47.6142 47.2831C46.5843 47.2831 45.5776 46.9777 44.7213 46.4056C43.8651 45.8334 43.1977 45.0202 42.8036 44.0688C42.4095 43.1173 42.3064 42.0704 42.5073 41.0603C42.7082 40.0503 43.2041 39.1225 43.9323 38.3943C44.6605 37.6661 45.5883 37.1702 46.5983 36.9693C47.6084 36.7683 48.6553 36.8715 49.6068 37.2656C50.5582 37.6597 51.3715 38.3271 51.9436 39.1833C52.5158 40.0396 52.8211 41.0463 52.8211 42.0762C52.8211 43.4571 52.2725 44.7815 51.296 45.758C50.3196 46.7345 48.9952 47.2831 47.6142 47.2831V47.2831ZM47.6142 38.952C46.9963 38.952 46.3923 39.1352 45.8785 39.4785C45.3647 39.8218 44.9643 40.3097 44.7278 40.8806C44.4914 41.4515 44.4295 42.0796 44.55 42.6857C44.6706 43.2917 44.9681 43.8484 45.4051 44.2853C45.842 44.7222 46.3987 45.0198 47.0047 45.1403C47.6107 45.2608 48.2389 45.199 48.8097 44.9625C49.3806 44.7261 49.8685 44.3256 50.2118 43.8119C50.5551 43.2981 50.7384 42.6941 50.7384 42.0762C50.7329 41.2512 50.4013 40.4619 49.816 39.8805C49.2307 39.2991 48.4392 38.9728 47.6142 38.9728V38.952Z" fill="#404040"/>
<path d="M43.4488 39.9934H39.2832V42.0762H43.4488V39.9934Z" fill="#404040"/>
<path d="M48.6555 31.6623H41.3657V29.5795H47.4058L45.7083 27.0281L47.4787 25.8721L49.5615 28.9963C49.6736 29.1699 49.7316 29.3729 49.7281 29.5795V30.6209C49.7282 30.7603 49.7002 30.8983 49.6459 31.0267C49.5917 31.1552 49.5121 31.2714 49.4121 31.3685C49.3121 31.4656 49.1935 31.5417 49.0636 31.5921C48.9336 31.6426 48.7948 31.6664 48.6555 31.6623Z" fill="#404040"/>
</svg>
