<svg width="64" height="64" viewBox="0 0 64 64" fill="none" xmlns="http://www.w3.org/2000/svg">
<path d="M32.0013 47.8593C28.8644 47.8593 25.7979 46.929 23.1896 45.1862C20.5813 43.4434 18.5484 40.9664 17.348 38.0682C16.1475 35.17 15.8334 31.981 16.4454 28.9043C17.0574 25.8276 18.568 23.0015 20.7861 20.7833C23.0043 18.5652 25.8304 17.0546 28.9071 16.4426C31.9837 15.8306 35.1728 16.1447 38.071 17.3452C40.9691 18.5456 43.4462 20.5786 45.189 23.1868C46.9318 25.7951 47.862 28.8616 47.862 31.9986C47.8725 34.0844 47.4695 36.1515 46.6761 38.0806C45.8828 40.0096 44.7149 41.7623 43.24 43.2372C41.7651 44.7121 40.0124 45.88 38.0834 46.6733C36.1543 47.4667 34.0871 47.8698 32.0013 47.8593V47.8593ZM32.0013 18.4037C28.3957 18.4037 24.9378 19.836 22.3883 22.3855C19.8388 24.9351 18.4064 28.393 18.4064 31.9986C18.4064 35.6042 19.8388 39.062 22.3883 41.6116C24.9378 44.1611 28.3957 45.5935 32.0013 45.5935V45.5935C35.6069 45.5935 39.0648 44.1611 41.6144 41.6116C44.1639 39.062 45.5962 35.6042 45.5962 31.9986C45.5962 28.393 44.1639 24.9351 41.6144 22.3855C39.0648 19.836 35.6069 18.4037 32.0013 18.4037V18.4037Z" fill="#404040"/>
<path d="M32.0017 47.8932C29.4413 47.8932 27.1076 46.1486 25.3969 42.9764C23.7153 39.5735 22.876 35.8163 22.9498 32.0212C22.9498 23.1166 26.9263 16.1605 32.013 16.1605C34.5621 16.1605 36.9072 17.9052 38.6066 21.066C40.2963 24.4665 41.1397 28.2248 41.065 32.0212C41.065 40.9259 37.0885 47.8819 32.0017 47.8819V47.8932ZM32.0017 18.4377C28.3198 18.4377 25.2043 24.6687 25.2043 32.0325C25.125 35.4538 25.8752 38.8433 27.3908 41.9115C28.671 44.3133 30.3137 45.6387 31.9904 45.6387C35.661 45.6387 38.7878 39.3964 38.7878 32.0439C38.8613 28.6232 38.1114 25.235 36.6013 22.1649C35.3098 19.7745 33.6784 18.415 32.0017 18.415V18.4377Z" fill="#404040"/>
<path d="M33.1232 17.2708H30.8574V46.7264H33.1232V17.2708Z" fill="#404040"/>
<path d="M45.5853 35.3973H18.3955V37.6631H45.5853V35.3973Z" fill="#404040"/>
<path d="M45.5853 25.2011H18.3955V27.4669H45.5853V25.2011Z" fill="#404040"/>
<path d="M53.5153 52.3909H51.2495V46.7264H45.585V44.4605H52.3824C52.6829 44.4605 52.971 44.5799 53.1835 44.7923C53.396 45.0048 53.5153 45.293 53.5153 45.5934V52.3909Z" fill="#FA4616"/>
<path d="M46.7185 18.4037H44.4526V11.6062C44.4526 11.3058 44.572 11.0176 44.7845 10.8051C44.9969 10.5927 45.2851 10.4733 45.5855 10.4733H52.383V12.7391H46.7185V18.4037Z" fill="#FA4616"/>
<path d="M19.528 18.4037H12.7306C12.4301 18.4037 12.1419 18.2843 11.9295 18.0718C11.717 17.8594 11.5977 17.5712 11.5977 17.2708V10.4733H13.8635V16.1379H19.528V18.4037Z" fill="#FA4616"/>
<path d="M18.3951 53.5238H11.5977V51.258H17.2622V45.5934H19.528V52.3909C19.528 52.6914 19.4086 52.9795 19.1962 53.192C18.9837 53.4044 18.6956 53.5238 18.3951 53.5238Z" fill="#FA4616"/>
<path d="M54.4897 42.7498L52.4504 41.7756C54.5049 37.5365 55.1983 32.7659 54.4357 28.1173C53.6731 23.4688 51.4918 19.1698 48.1907 15.8093L44.792 12.4106L46.3894 10.8132L49.7881 14.2119C53.4219 17.9015 55.8246 22.6253 56.6664 27.735C57.5082 32.8446 56.7478 38.0896 54.4897 42.7498V42.7498Z" fill="#FA4616"/>
<path d="M32.2393 56.9905C28.4327 56.9885 24.6745 56.137 21.2388 54.4981L22.2131 52.4589C26.4521 54.5133 31.2227 55.2067 35.8713 54.4441C40.5198 53.6816 44.8188 51.5003 48.1793 48.1991L51.578 44.8004L53.1754 46.3978L49.7767 49.7965C47.4695 52.089 44.733 53.9043 41.7239 55.1387C38.7147 56.373 35.4918 57.0023 32.2393 56.9905V56.9905Z" fill="#FA4616"/>
<path d="M17.5908 53.1952L14.1921 49.7965C10.4219 45.9471 7.98576 40.99 7.24147 35.6535C6.49717 30.317 7.484 24.8825 10.057 20.1483L12.0509 21.2246C9.70958 25.5301 8.80932 30.4725 9.48215 35.327C10.155 40.1815 12.3655 44.6927 15.7895 48.1991L19.1882 51.5978L17.5908 53.1952Z" fill="#FA4616"/>
<path d="M13.5251 18.0751L11.9277 16.4777L14.1935 14.2119C17.8831 10.5781 22.607 8.17544 27.7166 7.33364C32.8263 6.49183 38.0712 7.2522 42.7315 9.51036L41.7572 11.5496C37.5181 9.49514 32.7475 8.80171 28.099 9.56429C23.4505 10.3269 19.1514 12.5082 15.7909 15.8093L13.5251 18.0751Z" fill="#FA4616"/>
</svg>
