<svg width="64" height="64" viewBox="0 0 64 64" fill="none" xmlns="http://www.w3.org/2000/svg">
<path d="M8.19189 56.2253C7.94349 56.2237 7.70181 56.1445 7.5006 55.9988C7.34656 55.8891 7.22082 55.7444 7.13377 55.5765C7.04673 55.4087 7.00087 55.2225 7 55.0334V32.0775H9.38379V53.3647L22.1132 48.9786C22.3349 48.9127 22.5709 48.9127 22.7926 48.9786L40.3135 53.4959L54.6162 48.1204V20.3016L40.6948 24.8665C40.4511 24.9474 40.1877 24.9474 39.944 24.8665L32.7926 22.4828L33.5435 20.2182L40.3254 22.4828L55.4386 17.5245C55.6174 17.4662 55.8076 17.451 55.9934 17.4803C56.1792 17.5095 56.3555 17.5823 56.5078 17.6928C56.6601 17.8032 56.7841 17.9481 56.8696 18.1157C56.9552 18.2832 56.9998 18.4687 57 18.6568V48.919C57.0017 49.1611 56.9296 49.398 56.7933 49.5982C56.6571 49.7983 56.4631 49.9522 56.2372 50.0393L40.7425 55.8439C40.5054 55.9151 40.2526 55.9151 40.0155 55.8439L22.4946 51.3147L8.52563 56.0823C8.42235 56.1467 8.30979 56.1949 8.19189 56.2253V56.2253Z" fill="#404040"/>
<path d="M41.5649 23.7343H39.1812V54.7235H41.5649V23.7343Z" fill="#404040"/>
<path d="M23.6865 42.8046H21.3027V49.9559H23.6865V42.8046Z" fill="#404040"/>
<path d="M18.919 39.2288C18.6646 39.227 18.4175 39.144 18.2138 38.9917C18.0101 38.8394 17.8604 38.626 17.7866 38.3826C16.5947 34.5089 14.3897 32.0417 12.2324 29.646C9.53873 26.6782 7 23.8653 7 18.9189C7 15.7578 8.25574 12.7262 10.491 10.491C12.7262 8.25575 15.7579 7 18.919 7C22.0801 7 25.1117 8.25575 27.3469 10.491C29.5821 12.7262 30.8379 15.7578 30.8379 18.9189C30.8379 23.8176 28.3111 26.6305 25.6174 29.646C23.4601 32.0298 21.2312 34.5089 20.0632 38.3826C19.9888 38.6279 19.8373 38.8428 19.6312 38.9952C19.4251 39.1477 19.1753 39.2296 18.919 39.2288ZM18.919 9.43147C16.4202 9.52587 14.0494 10.5608 12.2812 12.3289C10.5131 14.097 9.47818 16.4679 9.38379 18.9666C9.38379 22.9476 11.5292 25.3194 13.9964 28.0489C15.9557 30.0426 17.6139 32.3111 18.919 34.7831C20.232 32.3131 21.8939 30.0451 23.8534 28.0489C26.3206 25.3194 28.4541 22.9476 28.4541 18.9666C28.3625 16.467 27.3285 14.0945 25.5597 12.3258C23.791 10.5571 21.4186 9.52311 18.919 9.43147Z" fill="#FA4616"/>
<path d="M18.9072 23.7104C17.9643 23.7104 17.0425 23.4308 16.2585 22.9069C15.4745 22.383 14.8634 21.6384 14.5026 20.7673C14.1417 19.8961 14.0473 18.9375 14.2313 18.0127C14.4152 17.0879 14.8693 16.2384 15.5361 15.5716C16.2028 14.9049 17.0523 14.4508 17.9771 14.2668C18.902 14.0829 19.8605 14.1773 20.7317 14.5382C21.6029 14.899 22.3475 15.5101 22.8713 16.2941C23.3952 17.0781 23.6748 17.9999 23.6748 18.9428C23.6748 20.2072 23.1725 21.4199 22.2784 22.314C21.3843 23.2081 20.1717 23.7104 18.9072 23.7104ZM18.9072 16.559C18.4358 16.559 17.9749 16.6988 17.5829 16.9608C17.1909 17.2227 16.8853 17.595 16.7049 18.0306C16.5245 18.4662 16.4773 18.9455 16.5693 19.4079C16.6612 19.8703 16.8883 20.295 17.2216 20.6284C17.555 20.9618 17.9798 21.1888 18.4422 21.2808C18.9046 21.3728 19.3839 21.3256 19.8195 21.1451C20.255 20.9647 20.6274 20.6592 20.8893 20.2672C21.1512 19.8752 21.291 19.4143 21.291 18.9428C21.2847 18.3147 21.0308 17.7145 20.5845 17.2726C20.1381 16.8307 19.5353 16.5828 18.9072 16.5829V16.559Z" fill="#FA4616"/>
</svg>
