<svg width="64" height="64" viewBox="0 0 64 64" fill="none" xmlns="http://www.w3.org/2000/svg">
<path d="M25.0343 56.1543C24.7793 56.1644 24.5282 56.0889 24.3211 55.9398C24.1139 55.7907 23.9627 55.5765 23.8914 55.3314C22.0171 49.08 18.4514 45.1371 15 41.32C10.8743 36.7486 7 32.44 7 25.0114C7.12173 20.2689 9.06154 15.7546 12.4182 12.4022C15.7749 9.0498 20.2916 7.11572 25.0343 7C29.6666 7.104 34.0901 8.94755 37.4252 12.1641C40.7603 15.3806 42.7627 19.7345 43.0343 24.36L40.7486 24.4514C40.4658 20.4287 38.7036 16.6532 35.8019 13.8528C32.9002 11.0524 29.0645 9.42546 25.0343 9.28571C20.8953 9.38981 16.9544 11.0797 14.0257 14.0063C11.097 16.9328 9.40425 20.8725 9.29715 25.0114C9.29715 31.56 12.7257 35.3771 16.7371 39.7886C19.64 43 22.8743 46.5771 25.0343 51.6514C26.8029 47.7347 29.2262 44.1481 32.2 41.0457L33.9029 42.5657C30.8971 45.9371 27.8229 49.6971 26.1314 55.3314C26.0622 55.5688 25.9178 55.7773 25.72 55.9257C25.5222 56.0741 25.2816 56.1543 25.0343 56.1543Z" fill="#404040"/>
<path d="M25.057 31.7428C23.7254 31.7338 22.4262 31.3307 21.3234 30.5843C20.2206 29.8379 19.3635 28.7817 18.8601 27.5488C18.3568 26.316 18.2297 24.9617 18.4951 23.6567C18.7604 22.3517 19.4061 21.1546 20.3509 20.2161C21.2957 19.2777 22.4973 18.64 23.804 18.3835C25.1107 18.127 26.4641 18.2632 27.6936 18.7749C28.923 19.2865 29.9734 20.1508 30.7123 21.2586C31.4512 22.3665 31.8456 23.6683 31.8456 25C31.8365 26.7934 31.1169 28.5101 29.8445 29.774C28.572 31.0379 26.8505 31.7459 25.057 31.7428V31.7428ZM25.057 20.5428C24.1775 20.5518 23.3203 20.8209 22.5933 21.3161C21.8664 21.8113 21.3022 22.5105 20.9719 23.3257C20.6415 24.1409 20.5598 25.0356 20.7369 25.8972C20.914 26.7588 21.342 27.5487 21.9672 28.1675C22.5923 28.7862 23.3865 29.2062 24.2499 29.3745C25.1132 29.5428 26.007 29.4519 26.8188 29.1133C27.6306 28.7746 28.324 28.2034 28.8118 27.4714C29.2995 26.7395 29.5598 25.8796 29.5599 25C29.5538 23.8108 29.0764 22.6725 28.2323 21.8348C27.3881 20.9971 26.2462 20.5284 25.057 20.5314V20.5428Z" fill="#404040"/>
<path d="M45.6174 56.3943C45.3638 56.4051 45.1139 56.3312 44.9069 56.1843C44.7 56.0374 44.5479 55.8258 44.4745 55.5829C43.3316 51.8686 41.2174 49.5029 39.1488 47.2057C36.5774 44.36 34.1431 41.6629 34.1431 36.92C34.1431 33.8889 35.3471 30.9821 37.4904 28.8388C39.6337 26.6955 42.5406 25.4914 45.5716 25.4914C48.6027 25.4914 51.5096 26.6955 53.6529 28.8388C55.7961 30.9821 57.0002 33.8889 57.0002 36.92C57.0002 41.6171 54.5659 44.3143 51.9945 47.2057C49.9259 49.4914 47.7888 51.8686 46.6688 55.5829C46.5999 55.8108 46.4615 56.0115 46.273 56.157C46.0845 56.3024 45.8553 56.3854 45.6174 56.3943V56.3943ZM45.6174 27.8229C43.2205 27.9107 40.9457 28.9022 39.2498 30.5981C37.5538 32.2941 36.5624 34.5689 36.4745 36.9657C36.4745 40.7829 38.5202 43.0571 40.8974 45.6743C42.776 47.586 44.366 49.7612 45.6174 52.1314C46.8764 49.7631 48.4699 47.5884 50.3488 45.6743C52.7145 43.0571 54.7602 40.7829 54.7602 36.9657C54.6723 34.5689 53.6809 32.2941 51.9849 30.5981C50.289 28.9022 48.0142 27.9107 45.6174 27.8229Z" fill="#FA4616"/>
<path d="M45.6291 41.5143C44.7249 41.5143 43.8411 41.2462 43.0893 40.7439C42.3375 40.2416 41.7516 39.5276 41.4056 38.6923C41.0596 37.857 40.9691 36.9378 41.1455 36.051C41.3218 35.1642 41.7572 34.3497 42.3966 33.7104C43.0359 33.071 43.8504 32.6357 44.7372 32.4593C45.624 32.2829 46.5431 32.3734 47.3785 32.7194C48.2138 33.0654 48.9277 33.6513 49.4301 34.4031C49.9324 35.1549 50.2005 36.0387 50.2005 36.9429C50.2005 38.1553 49.7188 39.318 48.8615 40.1754C48.0042 41.0327 46.8415 41.5143 45.6291 41.5143ZM45.6291 34.6571C45.177 34.6571 44.7351 34.7912 44.3592 35.0423C43.9833 35.2935 43.6903 35.6505 43.5173 36.0682C43.3443 36.4858 43.2991 36.9454 43.3873 37.3888C43.4754 37.8322 43.6931 38.2394 44.0128 38.5591C44.3325 38.8788 44.7397 39.0965 45.1831 39.1846C45.6265 39.2728 46.0861 39.2276 46.5038 39.0546C46.9214 38.8816 47.2784 38.5886 47.5295 38.2127C47.7807 37.8369 47.9148 37.3949 47.9148 36.9429C47.9087 36.3406 47.6653 35.7651 47.2373 35.3414C46.8093 34.9176 46.2313 34.68 45.6291 34.68V34.6571Z" fill="#FA4616"/>
</svg>
