<svg width="64" height="64" viewBox="0 0 64 64" fill="none" xmlns="http://www.w3.org/2000/svg">
<path d="M45.4481 34.0833H43.3647V24.7083H37.1147V22.625H45.4481V34.0833Z" fill="#FA4616"/>
<path d="M19.4066 34.0833H17.3232V16.375H26.6982V18.4583H19.4066V34.0833Z" fill="#FA4616"/>
<path d="M38.1562 34.0833H36.0729V15.3333H27.7396V34.0833H25.6562V13.25H38.1562V34.0833Z" fill="#FA4616"/>
<path d="M35.0415 15.3333H28.7915V10.125H35.0415V15.3333ZM30.8748 13.25H32.9582V12.2083H30.8748V13.25Z" fill="#FA4616"/>
<path d="M32.9583 7H30.875V11.1667H32.9583V7Z" fill="#FA4616"/>
<path d="M34.0002 17.4167H29.8335V19.5H34.0002V17.4167Z" fill="#FA4616"/>
<path d="M34.0002 21.5833H29.8335V23.6667H34.0002V21.5833Z" fill="#FA4616"/>
<path d="M34.0002 25.75H29.8335V27.8333H34.0002V25.75Z" fill="#FA4616"/>
<path d="M23.5833 20.5417H21.5V22.625H23.5833V20.5417Z" fill="#FA4616"/>
<path d="M23.5833 24.7083H21.5V26.7917H23.5833V24.7083Z" fill="#FA4616"/>
<path d="M23.5833 28.875H21.5V30.9583H23.5833V28.875Z" fill="#FA4616"/>
<path d="M42.3231 23.6667H40.2397V20.5417H37.1147V18.4583H42.3231V23.6667Z" fill="#FA4616"/>
<path d="M31.9167 57C25.8388 57 20.0099 54.5856 15.7122 50.2879C11.4145 45.9901 9.00006 40.1612 9.00006 34.0833C8.98852 29.1147 10.6099 24.28 13.6146 20.3229C13.6911 20.2001 13.7923 20.0947 13.9118 20.0132C14.0313 19.9316 14.1664 19.8759 14.3086 19.8495C14.4508 19.8231 14.597 19.8266 14.7378 19.8598C14.8785 19.8929 15.0109 19.9551 15.1263 20.0422C15.2418 20.1293 15.3378 20.2396 15.4083 20.3659C15.4788 20.4921 15.5222 20.6317 15.5358 20.7757C15.5494 20.9197 15.5329 21.065 15.4873 21.2022C15.4417 21.3395 15.368 21.4657 15.2709 21.5729C13.2902 24.2138 11.9655 27.2875 11.4058 30.5408C10.8461 33.7941 11.0676 37.1338 12.0519 40.2847C13.0361 43.4357 14.7551 46.3076 17.067 48.6638C19.379 51.0201 22.2178 52.7932 25.3495 53.8371C28.4811 54.881 31.8161 55.1658 35.0794 54.668C38.3427 54.1701 41.441 52.904 44.119 50.9738C46.797 49.0436 48.978 46.5047 50.4822 43.5663C51.9864 40.6278 52.7709 37.374 52.7709 34.0729C52.7571 30.1333 51.6326 26.2775 49.5266 22.948C47.4206 19.6185 44.4184 16.9504 40.8646 15.25C40.7408 15.1912 40.6298 15.1086 40.538 15.0068C40.4461 14.9051 40.3752 14.7863 40.3292 14.6572C40.2833 14.528 40.2632 14.3911 40.2702 14.2542C40.2772 14.1173 40.311 13.9832 40.3698 13.8594C40.4287 13.7356 40.5113 13.6246 40.613 13.5327C40.7147 13.4408 40.8335 13.3699 40.9627 13.324C41.0918 13.278 41.2287 13.258 41.3656 13.2649C41.5025 13.2719 41.6367 13.3058 41.7605 13.3646C46.4634 15.5936 50.2675 19.3571 52.5469 24.0358C54.8264 28.7145 55.4454 34.0296 54.3022 39.1069C53.1589 44.1842 50.3215 48.7212 46.2567 51.9714C42.192 55.2215 37.142 56.9913 31.9375 56.9896L31.9167 57Z" fill="#404040"/>
<path d="M31.9168 57C25.4897 57 20.4585 46.9375 20.4585 34.0833H22.5418C22.5418 45.375 26.8335 54.9167 31.9168 54.9167C37.0002 54.9167 41.2918 45.375 41.2918 34.0833H43.3752C43.3752 46.9375 38.3335 57 31.9168 57Z" fill="#404040"/>
<path d="M32.9583 34.0833H30.875V55.9583H32.9583V34.0833Z" fill="#404040"/>
<path d="M53.7915 33.0417H10.0415V35.125H53.7915V33.0417Z" fill="#404040"/>
<path d="M48.0731 49.0833C44.0522 46.8333 38.1668 45.5417 31.9168 45.5417C25.6668 45.5417 19.771 46.8333 15.7502 49.0833L14.7085 47.2604C19.021 44.8437 25.2814 43.4583 31.8856 43.4583C38.4897 43.4583 44.7397 44.8437 49.0626 47.2604L48.0731 49.0833Z" fill="#404040"/>
</svg>
