<svg width="64" height="64" viewBox="0 0 64 64" fill="none" xmlns="http://www.w3.org/2000/svg">
<path d="M55.6045 24.253C55.4468 24.2541 55.2915 24.2137 55.1543 24.136L32.4819 10.9989C32.3295 10.8859 32.1487 10.8173 31.9596 10.8008C31.8375 10.801 31.7166 10.7763 31.6044 10.7282C31.4921 10.6802 31.3907 10.6098 31.3065 10.5214C31.2223 10.4329 31.1569 10.3283 31.1144 10.2138C31.0719 10.0993 31.0531 9.97738 31.0592 9.85541C31.0708 9.62449 31.1707 9.40682 31.3384 9.24758C31.506 9.08834 31.7284 8.99971 31.9596 9C32.4601 9.02652 32.9434 9.19173 33.3553 9.47719L55.9827 22.5783C56.1871 22.6985 56.3358 22.8946 56.3965 23.1239C56.4572 23.3532 56.425 23.5972 56.3068 23.8028C56.2348 23.9289 56.1333 24.0358 56.011 24.1141C55.8887 24.1925 55.7492 24.2402 55.6045 24.253V24.253Z" fill="#404040"/>
<path d="M49.7971 51.3285H45.7543C45.5155 51.3285 45.2865 51.2336 45.1176 51.0648C44.9487 50.8959 44.8539 50.6669 44.8539 50.4281L44.5117 30.1957C44.5117 29.9569 44.6066 29.7279 44.7754 29.5591C44.9443 29.3902 45.1733 29.2953 45.4121 29.2953C45.6509 29.2953 45.88 29.3902 46.0488 29.5591C46.2177 29.7279 46.3125 29.9569 46.3125 30.1957L46.6367 49.5367H48.9147L49.2479 30.1957C49.2479 29.9569 49.3428 29.7279 49.5116 29.5591C49.6805 29.3902 49.9095 29.2953 50.1483 29.2953C50.3871 29.2953 50.6161 29.3902 50.785 29.5591C50.9538 29.7279 51.0487 29.9569 51.0487 30.1957L50.6975 50.4281C50.6975 50.5463 50.6743 50.6634 50.629 50.7727C50.5838 50.8819 50.5174 50.9811 50.4338 51.0648C50.3502 51.1484 50.251 51.2147 50.1417 51.26C50.0325 51.3052 49.9154 51.3285 49.7971 51.3285V51.3285Z" fill="#404040"/>
<path d="M54.9921 51.3285C54.7533 51.3285 54.5242 51.2336 54.3554 51.0648C54.1865 50.8959 54.0917 50.6669 54.0917 50.4281L53.7495 30.1957C53.7495 29.9569 53.8444 29.7279 54.0132 29.5591C54.1821 29.3902 54.4111 29.2953 54.6499 29.2953C54.8887 29.2953 55.1177 29.3902 55.2866 29.5591C55.4555 29.7279 55.5503 29.9569 55.5503 30.1957L55.8925 50.4191C55.8925 50.6579 55.7976 50.8869 55.6288 51.0557C55.4599 51.2246 55.2309 51.3195 54.9921 51.3195V51.3285Z" fill="#404040"/>
<path d="M54.9922 55.9746H8.98098C8.74218 55.9746 8.51315 55.8797 8.34429 55.7109C8.17543 55.542 8.08057 55.313 8.08057 55.0742V50.4281C8.08057 50.1893 8.17543 49.9602 8.34429 49.7913C8.51315 49.6225 8.74218 49.5277 8.98098 49.5277C9.21979 49.5277 9.44881 49.6225 9.61767 49.7913C9.78653 49.9602 9.8814 50.1893 9.8814 50.4281V54.1738H54.0917V50.4281C54.0917 50.1893 54.1866 49.9602 54.3555 49.7913C54.5243 49.6225 54.7534 49.5277 54.9922 49.5277C55.231 49.5277 55.46 49.6225 55.6288 49.7913C55.7977 49.9602 55.8926 50.1893 55.8926 50.4281V55.0742C55.8926 55.313 55.7977 55.542 55.6288 55.7109C55.46 55.8797 55.231 55.9746 54.9922 55.9746Z" fill="#404040"/>
<path d="M45.439 55.9746C45.2328 55.9755 45.0325 55.9056 44.8717 55.7766L39.2171 51.1214C39.1176 51.0492 39.0338 50.9574 38.9711 50.8516C38.9084 50.7459 38.868 50.6284 38.8525 50.5064C38.8369 50.3844 38.8465 50.2606 38.8806 50.1424C38.9148 50.0243 38.9727 49.9144 39.051 49.8196C39.1292 49.7247 39.226 49.6468 39.3355 49.5908C39.445 49.5348 39.5648 49.5018 39.6875 49.4939C39.8102 49.4859 39.9332 49.5032 40.049 49.5447C40.1648 49.5861 40.2708 49.6508 40.3606 49.7348L46.0152 54.3809C46.158 54.4992 46.2608 54.6587 46.3095 54.8376C46.3582 55.0164 46.3505 55.206 46.2875 55.3804C46.2245 55.5547 46.1091 55.7054 45.9573 55.8117C45.8054 55.9181 45.6244 55.975 45.439 55.9746V55.9746Z" fill="#404040"/>
<path d="M8.3959 24.253C8.23724 24.2537 8.08122 24.2123 7.94366 24.1333C7.80609 24.0542 7.69186 23.9402 7.61253 23.8028C7.49514 23.5961 7.46429 23.3513 7.5267 23.1218C7.58911 22.8924 7.73974 22.697 7.94569 22.5783L30.5911 9.44119C30.9913 9.17775 31.4543 9.02549 31.9327 9C32.1639 8.99971 32.3864 9.08834 32.554 9.24758C32.7216 9.40682 32.8216 9.62449 32.8331 9.85541C32.8392 9.97368 32.8219 10.092 32.7821 10.2036C32.7424 10.3151 32.6811 10.4178 32.6016 10.5056C32.5221 10.5934 32.4261 10.6647 32.3191 10.7154C32.212 10.766 32.096 10.7951 31.9777 10.8008C31.8127 10.8117 31.6538 10.8677 31.5185 10.9629L8.78307 24.136C8.66456 24.2038 8.53216 24.2439 8.3959 24.253Z" fill="#404040"/>
<path d="M56.0996 31.1052H7.90041C7.66161 31.1052 7.43259 31.0103 7.26372 30.8414C7.09486 30.6726 7 30.4435 7 30.2047V23.9018C6.99999 23.5237 7.14959 23.1609 7.41613 22.8927C7.68268 22.6244 8.04452 22.4726 8.42266 22.4702H55.5774C55.9555 22.4726 56.3173 22.6244 56.5839 22.8927C56.8504 23.1609 57 23.5237 57 23.9018V30.2047C57 30.4435 56.9052 30.6726 56.7363 30.8414C56.5674 31.0103 56.3384 31.1052 56.0996 31.1052ZM8.80083 29.3043H55.1992V24.253H8.80083V29.3043Z" fill="#404040"/>
<path d="M35.6331 51.3285C35.3943 51.3285 35.1652 51.2336 34.9964 51.0648C34.8275 50.8959 34.7327 50.6669 34.7327 50.4281V41.2168H29.2671V50.4281C29.2671 50.6669 29.1723 50.8959 29.0034 51.0648C28.8346 51.2336 28.6055 51.3285 28.3667 51.3285C28.1279 51.3285 27.8989 51.2336 27.73 51.0648C27.5612 50.8959 27.4663 50.6669 27.4663 50.4281V40.3164C27.4663 40.0776 27.5612 39.8486 27.73 39.6797C27.8989 39.5108 28.1279 39.416 28.3667 39.416H35.6331C35.8719 39.416 36.1009 39.5108 36.2698 39.6797C36.4386 39.8486 36.5335 40.0776 36.5335 40.3164V50.4281C36.5335 50.6669 36.4386 50.8959 36.2698 51.0648C36.1009 51.2336 35.8719 51.3285 35.6331 51.3285Z" fill="#FA4616"/>
<path d="M18.2466 51.3285H14.2037C13.9649 51.3285 13.7359 51.2336 13.567 51.0648C13.3982 50.8959 13.3033 50.6669 13.3033 50.4281L12.9521 30.1957C12.9521 29.9569 13.047 29.7279 13.2159 29.5591C13.3847 29.3902 13.6138 29.2953 13.8526 29.2953C14.0914 29.2953 14.3204 29.3902 14.4893 29.5591C14.6581 29.7279 14.753 29.9569 14.753 30.1957L15.0861 49.5367H17.3642L17.6973 30.1957C17.6973 29.9569 17.7922 29.7279 17.9611 29.5591C18.1299 29.3902 18.3589 29.2953 18.5977 29.2953C18.8365 29.2953 19.0656 29.3902 19.2344 29.5591C19.4033 29.7279 19.4982 29.9569 19.4982 30.1957L19.147 50.4281C19.147 50.5463 19.1237 50.6634 19.0785 50.7727C19.0332 50.8819 18.9669 50.9811 18.8833 51.0648C18.7997 51.1484 18.7004 51.2147 18.5912 51.26C18.4819 51.3052 18.3648 51.3285 18.2466 51.3285Z" fill="#404040"/>
<path d="M8.98098 51.3285C8.74218 51.3285 8.51315 51.2336 8.34429 51.0647C8.17543 50.8959 8.08057 50.6669 8.08057 50.4281L8.42273 30.2047C8.42273 29.9659 8.51759 29.7369 8.68645 29.5681C8.85531 29.3992 9.08434 29.3043 9.32314 29.3043C9.56195 29.3043 9.79097 29.3992 9.95983 29.5681C10.1287 29.7369 10.2236 29.9659 10.2236 30.2047L9.8814 50.446C9.87668 50.6817 9.77974 50.9061 9.61139 51.0711C9.44304 51.2361 9.2167 51.3285 8.98098 51.3285V51.3285Z" fill="#404040"/>
<path d="M18.561 55.9746C18.3818 55.9688 18.2083 55.9097 18.0629 55.8048C17.9175 55.6998 17.8067 55.5538 17.7448 55.3855C17.6829 55.2171 17.6727 55.0342 17.7154 54.86C17.7582 54.6858 17.8519 54.5284 17.9848 54.4079L23.6484 49.7618C23.7373 49.6726 23.8439 49.6031 23.9613 49.5577C24.0788 49.5123 24.2044 49.492 24.3302 49.4981C24.4559 49.5043 24.579 49.5368 24.6914 49.5935C24.8039 49.6502 24.9032 49.7298 24.9829 49.8273C25.0626 49.9247 25.121 50.0378 25.1543 50.1593C25.1876 50.2807 25.1951 50.4078 25.1763 50.5323C25.1574 50.6568 25.1127 50.7759 25.0449 50.8821C24.9772 50.9882 24.8879 51.0789 24.7829 51.1484L19.1283 55.8035C18.9639 55.9229 18.764 55.9832 18.561 55.9746V55.9746Z" fill="#404040"/>
<path d="M40.5589 51.3285H23.4511C23.2123 51.3285 22.9832 51.2336 22.8144 51.0648C22.6455 50.8959 22.5507 50.6669 22.5507 50.4281L22.2085 30.1957C22.2085 29.9569 22.3034 29.7279 22.4722 29.5591C22.6411 29.3902 22.8701 29.2953 23.1089 29.2953C23.3477 29.2953 23.5767 29.3902 23.7456 29.5591C23.9145 29.7279 24.0093 29.9569 24.0093 30.1957L24.3425 49.5367H39.6495L39.9827 30.1957C39.9827 29.9569 40.0775 29.7279 40.2464 29.5591C40.4153 29.3902 40.6443 29.2953 40.8831 29.2953C41.1219 29.2953 41.3509 29.3902 41.5198 29.5591C41.6886 29.7279 41.7835 29.9569 41.7835 30.1957L41.4413 50.4281C41.4414 50.6638 41.349 50.8901 41.184 51.0585C41.019 51.2268 40.7946 51.3238 40.5589 51.3285Z" fill="#404040"/>
</svg>
