<svg width="64" height="64" viewBox="0 0 64 64" fill="none" xmlns="http://www.w3.org/2000/svg">
<path d="M15.0365 55.9577H12.9518V53.3519C12.9518 52.6608 13.2264 51.998 13.715 51.5093C14.2037 51.0206 14.8665 50.7461 15.5576 50.7461H23.375C23.6514 50.7461 23.9166 50.6363 24.112 50.4408C24.3075 50.2453 24.4173 49.9802 24.4173 49.7038V49.1826C24.4173 48.4915 24.6919 47.8287 25.1805 47.34C25.6692 46.8514 26.332 46.5768 27.0231 46.5768H27.5443C27.8207 46.5768 28.0858 46.467 28.2813 46.2715C28.4768 46.076 28.5866 45.8109 28.5866 45.5345V44.4922C28.5866 44.2157 28.4768 43.9506 28.2813 43.7552C28.0858 43.5597 27.8207 43.4499 27.5443 43.4499H21.2904C21.1521 43.4499 21.0196 43.5048 20.9219 43.6025C20.8241 43.7003 20.7692 43.8328 20.7692 43.971C20.7692 44.6621 20.4947 45.3249 20.006 45.8136C19.5173 46.3023 18.8545 46.5768 18.1634 46.5768H10.8672V44.4922H18.1634C18.3016 44.4922 18.4342 44.4373 18.5319 44.3395C18.6297 44.2418 18.6846 44.1092 18.6846 43.971C18.6846 43.2799 18.9591 42.6171 19.4478 42.1285C19.9365 41.6398 20.5993 41.3652 21.2904 41.3652H27.5443C28.3736 41.3652 29.1689 41.6947 29.7554 42.2811C30.3418 42.8675 30.6712 43.6629 30.6712 44.4922V45.5345C30.6712 46.3638 30.3418 47.1592 29.7554 47.7456C29.1689 48.332 28.3736 48.6615 27.5443 48.6615H27.0231C26.8849 48.6615 26.7523 48.7164 26.6546 48.8141C26.5569 48.9118 26.502 49.0444 26.502 49.1826V49.7038C26.502 50.5331 26.1725 51.3284 25.5861 51.9149C24.9997 52.5013 24.2043 52.8307 23.375 52.8307H15.5576C15.4194 52.8307 15.2868 52.8856 15.1891 52.9834C15.0914 53.0811 15.0365 53.2137 15.0365 53.3519V55.9577Z" fill="#404040"/>
<path d="M33.798 55.9577H31.7134V52.8307C31.7134 52.0014 32.0428 51.2061 32.6292 50.6197C33.2157 50.0332 34.011 49.7038 34.8403 49.7038H42.1366C42.413 49.7038 42.6781 49.5939 42.8736 49.3985C43.0691 49.203 43.1789 48.9379 43.1789 48.6615C43.1789 48.385 43.0691 48.1199 42.8736 47.9244C42.6781 47.729 42.413 47.6191 42.1366 47.6191H41.0942C40.2649 47.6191 39.4696 47.2897 38.8831 46.7033C38.2967 46.1168 37.9673 45.3215 37.9673 44.4922C37.9673 43.6629 38.2967 42.8675 38.8831 42.2811C39.4696 41.6947 40.2649 41.3652 41.0942 41.3652H50.4751V43.4499H41.0942C40.8178 43.4499 40.5527 43.5597 40.3572 43.7552C40.1617 43.9506 40.0519 44.2157 40.0519 44.4922C40.0519 44.7686 40.1617 45.0337 40.3572 45.2292C40.5527 45.4247 40.8178 45.5345 41.0942 45.5345H42.1366C42.9659 45.5345 43.7612 45.864 44.3477 46.4504C44.9341 47.0368 45.2635 47.8321 45.2635 48.6615C45.2635 49.4908 44.9341 50.2861 44.3477 50.8725C43.7612 51.459 42.9659 51.7884 42.1366 51.7884H34.8403C34.5639 51.7884 34.2988 51.8982 34.1033 52.0937C33.9078 52.2892 33.798 52.5543 33.798 52.8307V55.9577Z" fill="#404040"/>
<path d="M55.6869 57H7.74023V55.9577C7.74023 49.5996 10.266 43.5019 14.7619 39.006C19.2577 34.5101 25.3554 31.9844 31.7135 31.9844C38.0717 31.9844 44.1694 34.5101 48.6652 39.006C53.1611 43.5019 55.6869 49.5996 55.6869 55.9577V57ZM9.82487 54.9154H53.6022C53.6022 49.1101 51.2961 43.5427 47.1912 39.4377C43.0863 35.3328 37.5188 33.0267 31.7135 33.0267C25.9083 33.0267 20.3408 35.3328 16.2359 39.4377C12.131 43.5427 9.82487 49.1101 9.82487 54.9154V54.9154Z" fill="#404040"/>
<path d="M35.8827 14.265H33.7981V13.6083L30.15 9.08464H29.1076L30.619 12.8683C30.6702 12.9902 30.6951 13.1217 30.692 13.2539V14.2962H28.6073V13.452L26.5957 8.42798C26.5327 8.27014 26.5093 8.09931 26.5275 7.93036C26.5456 7.7614 26.6048 7.59947 26.6999 7.45863C26.7955 7.31718 26.9244 7.20139 27.0753 7.12142C27.2261 7.04145 27.3943 6.99975 27.565 7.00001H30.692C30.8477 6.99948 31.0016 7.03385 31.1422 7.10059C31.2829 7.16732 31.4069 7.26473 31.505 7.38566L35.6743 12.5972C35.8223 12.7921 35.9028 13.03 35.9036 13.2747L35.8827 14.265Z" fill="#404040"/>
<path d="M29.6286 29.8997H26.5016C26.3239 29.8992 26.1494 29.8533 25.9944 29.7663C25.8395 29.6793 25.7094 29.5541 25.6165 29.4027C25.5235 29.2512 25.4708 29.0786 25.4634 28.901C25.4559 28.7235 25.494 28.547 25.574 28.3883L28.5863 22.3534V21.5612H20.8314C20.2373 21.5612 15.0361 21.4778 15.0361 18.5697C15.0418 18.2479 15.1219 17.9317 15.2702 17.646C15.4184 17.3602 15.6309 17.1127 15.8908 16.9229L15.0674 13.4624C15.0306 13.307 15.03 13.1453 15.0657 12.9896C15.1013 12.834 15.1722 12.6886 15.2729 12.5647C15.3736 12.4408 15.5015 12.3418 15.6466 12.2751C15.7916 12.2085 15.9501 12.176 16.1097 12.1803H18.1943C18.4464 12.1778 18.6908 12.2667 18.8823 12.4305C20.206 13.5874 21.6861 14.8487 22.249 15.3073H45.2946C46.1239 15.3073 46.9193 15.6367 47.5057 16.2231C48.0921 16.8096 48.4216 17.6049 48.4216 18.4342C48.4216 19.2635 48.0921 20.0589 47.5057 20.6453C46.9193 21.2317 46.1239 21.5612 45.2946 21.5612H37.4564L35.747 24.2087C35.7077 24.2688 35.6623 24.3247 35.6115 24.3755L30.3999 29.587C30.2997 29.6894 30.1795 29.7699 30.0468 29.8237C29.9141 29.8775 29.7717 29.9034 29.6286 29.8997ZM28.1902 27.8151H29.2325L34.0584 22.9891L36.0076 19.956C36.1018 19.8092 36.2312 19.6884 36.3842 19.6046C36.5372 19.5209 36.7087 19.4768 36.8831 19.4765H45.2946C45.5711 19.4765 45.8362 19.3667 46.0316 19.1712C46.2271 18.9758 46.3369 18.7107 46.3369 18.4342C46.3369 18.1578 46.2271 17.8927 46.0316 17.6972C45.8362 17.5017 45.5711 17.3919 45.2946 17.3919H21.8737C21.3943 17.3919 21.3734 17.3919 17.7774 14.265H17.4022L18.0901 17.1626C18.1452 17.3874 18.1239 17.6242 18.0295 17.8356C17.9352 18.047 17.7731 18.2209 17.569 18.33C17.3949 18.4001 17.2357 18.5027 17.0999 18.6323C17.2771 18.9658 19.1012 19.4765 20.8314 19.4765H29.6286C29.905 19.4765 30.1701 19.5864 30.3656 19.7818C30.5611 19.9773 30.6709 20.2424 30.6709 20.5189V22.6035C30.6715 22.7623 30.6359 22.9192 30.5667 23.0621L28.1902 27.8151Z" fill="#404040"/>
<path d="M8.54263 36.039L7 34.6423C11.5487 29.5803 17.5466 26.0427 24.1774 24.5109L24.6464 26.533C18.433 27.9811 12.8127 31.2987 8.54263 36.039Z" fill="#FA4616"/>
<path d="M54.7173 35.8305C50.2233 30.9178 44.2655 27.5844 37.7275 26.3246L38.1236 24.24C45.0821 25.5905 51.4221 29.1424 56.2078 34.3713L54.7173 35.8305Z" fill="#FA4616"/>
</svg>
