<svg width="64" height="64" viewBox="0 0 64 64" fill="none" xmlns="http://www.w3.org/2000/svg">
<path d="M11.1783 48.2776C10.9451 48.2776 10.7214 48.1849 10.5564 48.0199C10.3915 47.855 10.2988 47.6313 10.2988 47.3981V29.5531C10.2988 29.3198 10.3915 29.0961 10.5564 28.9311C10.7214 28.7662 10.9451 28.6736 11.1783 28.6736C11.4116 28.6736 11.6353 28.7662 11.8002 28.9311C11.9652 29.0961 12.0578 29.3198 12.0578 29.5531V47.3981C12.0578 47.6313 11.9652 47.855 11.8002 48.0199C11.6353 48.1849 11.4116 48.2776 11.1783 48.2776Z" fill="#404040"/>
<path d="M46.6568 30.4326H7.87983C7.71065 30.4322 7.54515 30.3831 7.4032 30.291C7.26124 30.199 7.14885 30.068 7.07949 29.9136C7.00522 29.751 6.98227 29.5697 7.0137 29.3937C7.04512 29.2177 7.12943 29.0555 7.25538 28.9286L18.6888 16.2902C18.7711 16.1991 18.8715 16.1263 18.9835 16.0763C19.0956 16.0263 19.2169 16.0003 19.3397 16H35.1706C35.2933 16.0003 35.4146 16.0263 35.5267 16.0763C35.6388 16.1263 35.7392 16.1991 35.8214 16.2902L47.2549 28.9286C47.3693 29.0553 47.4444 29.2126 47.471 29.3813C47.4975 29.55 47.4744 29.7227 47.4044 29.8785C47.3441 30.0315 47.2421 30.1645 47.1099 30.2625C46.9778 30.3604 46.8208 30.4194 46.6568 30.4326ZM9.86749 28.6736H44.6692L34.8012 17.7942H19.7354L9.86749 28.6736Z" fill="#404040"/>
<path d="M43.2359 48.2776C43.0027 48.2776 42.779 48.1849 42.614 48.0199C42.4491 47.855 42.3564 47.6313 42.3564 47.3981V29.5531C42.3564 29.3198 42.4491 29.0961 42.614 28.9311C42.779 28.7662 43.0027 28.6736 43.2359 28.6736C43.4692 28.6736 43.6929 28.7662 43.8578 28.9311C44.0228 29.0961 44.1154 29.3198 44.1154 29.5531V47.3981C44.1154 47.6313 44.0228 47.855 43.8578 48.0199C43.6929 48.1849 43.4692 48.2776 43.2359 48.2776Z" fill="#404040"/>
<path d="M53.9477 48.2776H41.8194C41.5862 48.2776 41.3625 48.1849 41.1975 48.0199C41.0326 47.855 40.9399 47.6313 40.9399 47.3981C40.9399 47.1648 41.0326 46.9411 41.1975 46.7762C41.3625 46.6112 41.5862 46.5186 41.8194 46.5186H53.0682V34.1352C53.0682 33.902 53.1609 33.6783 53.3258 33.5133C53.4907 33.3484 53.7144 33.2557 53.9477 33.2557C54.181 33.2557 54.4047 33.3484 54.5696 33.5133C54.7345 33.6783 54.8272 33.902 54.8272 34.1352V47.3981C54.8272 47.6313 54.7345 47.855 54.5696 48.0199C54.4047 48.1849 54.181 48.2776 53.9477 48.2776Z" fill="#404040"/>
<path d="M56.1206 34.8916H43.2359C43.0027 34.8916 42.779 34.799 42.614 34.634C42.4491 34.4691 42.3564 34.2454 42.3564 34.0121C42.3564 33.7789 42.4491 33.5551 42.614 33.3902C42.779 33.2253 43.0027 33.1326 43.2359 33.1326H56.1206C56.3538 33.1326 56.5775 33.2253 56.7425 33.3902C56.9074 33.5551 57.0001 33.7789 57.0001 34.0121C57.0001 34.2454 56.9074 34.4691 56.7425 34.634C56.5775 34.799 56.3538 34.8916 56.1206 34.8916Z" fill="#404040"/>
<path d="M56.1204 34.8916C55.9868 34.8923 55.8548 34.8626 55.7344 34.8047C55.614 34.7468 55.5084 34.6622 55.4256 34.5574L47.7564 24.8214H42.0133C41.78 24.8214 41.5563 24.7287 41.3914 24.5638C41.2264 24.3988 41.1338 24.1751 41.1338 23.9419C41.1338 23.7086 41.2264 23.4849 41.3914 23.3199C41.5563 23.155 41.78 23.0624 42.0133 23.0624H48.1698C48.3026 23.064 48.4333 23.0957 48.5521 23.1551C48.6709 23.2146 48.7748 23.3001 48.8558 23.4053L56.7712 33.4756C56.9141 33.6589 56.9785 33.8914 56.9505 34.1221C56.9225 34.3528 56.8043 34.5631 56.6217 34.7069C56.4778 34.819 56.3026 34.8835 56.1204 34.8916Z" fill="#404040"/>
<path d="M36.9914 48.2775C36.7581 48.2775 36.5344 48.1849 36.3695 48.0199C36.2046 47.855 36.1119 47.6313 36.1119 47.3981V35.9646H30.4655V47.3981C30.4655 47.6313 30.3729 47.855 30.2079 48.0199C30.043 48.1849 29.8193 48.2775 29.586 48.2775C29.3528 48.2775 29.1291 48.1849 28.9641 48.0199C28.7992 47.855 28.7065 47.6313 28.7065 47.3981V35.0851C28.7065 34.8518 28.7992 34.6281 28.9641 34.4632C29.1291 34.2983 29.3528 34.2056 29.586 34.2056H36.9914C37.2247 34.2056 37.4484 34.2983 37.6133 34.4632C37.7782 34.6281 37.8709 34.8518 37.8709 35.0851V47.3981C37.8709 47.6313 37.7782 47.855 37.6133 48.0199C37.4484 48.1849 37.2247 48.2775 36.9914 48.2775Z" fill="#FA4616"/>
<path d="M24.406 43.7833H16.2618C16.0286 43.7833 15.8049 43.6907 15.6399 43.5257C15.475 43.3608 15.3823 43.1371 15.3823 42.9038V35.4017C15.3823 35.1684 15.475 34.9448 15.6399 34.7798C15.8049 34.6149 16.0286 34.5222 16.2618 34.5222H24.406C24.6392 34.5222 24.8629 34.6149 25.0279 34.7798C25.1928 34.9448 25.2855 35.1684 25.2855 35.4017V42.9038C25.2855 43.1371 25.1928 43.3608 25.0279 43.5257C24.8629 43.6907 24.6392 43.7833 24.406 43.7833ZM17.1413 42.0243H23.5265V36.2812H17.1413V42.0243Z" fill="#FA4616"/>
<path d="M43.236 48.2775H11.1783C10.9451 48.2775 10.7214 48.1849 10.5564 48.0199C10.3915 47.855 10.2988 47.6313 10.2988 47.3981C10.2988 47.1648 10.3915 46.9411 10.5564 46.7762C10.7214 46.6112 10.9451 46.5186 11.1783 46.5186H43.236C43.4692 46.5186 43.693 46.6112 43.8579 46.7762C44.0228 46.9411 44.1155 47.1648 44.1155 47.3981C44.1155 47.6313 44.0228 47.855 43.8579 48.0199C43.693 48.1849 43.4692 48.2775 43.236 48.2775Z" fill="#404040"/>
<path d="M12.0138 24.795C11.7805 24.795 11.5568 24.7023 11.3919 24.5374C11.2269 24.3724 11.1343 24.1487 11.1343 23.9155V17.2489C11.1343 17.0156 11.2269 16.7919 11.3919 16.627C11.5568 16.462 11.7805 16.3694 12.0138 16.3694H16.2002C16.4334 16.3694 16.6571 16.462 16.8221 16.627C16.987 16.7919 17.0797 17.0156 17.0797 17.2489V20.1336C17.0797 20.3669 16.987 20.5906 16.8221 20.7555C16.6571 20.9205 16.4334 21.0131 16.2002 21.0131C15.9669 21.0131 15.7432 20.9205 15.5783 20.7555C15.4133 20.5906 15.3207 20.3669 15.3207 20.1336V18.102H12.8933V23.8891C12.8968 24.0068 12.8767 24.124 12.834 24.2338C12.7914 24.3436 12.7272 24.4436 12.6452 24.5281C12.5632 24.6126 12.465 24.6798 12.3565 24.7256C12.2481 24.7715 12.1315 24.795 12.0138 24.795V24.795Z" fill="#404040"/>
</svg>
