<svg width="64" height="64" viewBox="0 0 64 64" fill="none" xmlns="http://www.w3.org/2000/svg">
<path d="M21.7459 34.9994C19.5751 31.996 18.4117 28.382 18.4229 24.6762C18.4277 22.0665 19.0093 19.4902 20.1259 17.1315C21.2425 14.7728 22.8667 12.69 24.8821 11.0322C26.8976 9.37439 29.2546 8.18256 31.7844 7.54191C34.3142 6.90126 36.9543 6.82766 39.5159 7.32637C42.0775 7.82508 44.4972 8.88378 46.6018 10.4267C48.7065 11.9697 50.4442 13.9587 51.6905 16.2515C52.9368 18.5444 53.661 21.0843 53.8112 23.6897C53.9613 26.295 53.5339 28.9014 52.5593 31.3222L50.6217 30.541C51.6388 28.0232 51.9821 25.2839 51.618 22.593C51.2538 19.9021 50.1948 17.3526 48.5451 15.1957C46.8955 13.0389 44.7122 11.3491 42.2106 10.2931C39.7089 9.23704 36.9753 8.85116 34.2791 9.17346C31.5828 9.49577 29.0172 10.5151 26.8349 12.1311C24.6527 13.747 22.9293 15.9038 21.8345 18.3887C20.7397 20.8737 20.3114 23.601 20.5918 26.3019C20.8722 29.0028 21.8516 31.584 23.4335 33.791L21.7459 34.9994Z" fill="#FA4616"/>
<path d="M25.4128 49.3748L23.9336 47.8956L24.069 47.7601C24.3934 47.365 24.8048 47.0503 25.2711 46.8406C25.7373 46.631 26.2458 46.5321 26.7566 46.5518H41.2362C42.4237 46.0622 47.7051 40.9474 48.903 39.6037C50.6452 37.2599 52.2187 34.7953 53.6115 32.2285C52.7913 31.8102 51.8465 31.7065 50.9552 31.9368C49.601 32.2597 48.6947 33.2076 47.4759 35.5723C47.3767 35.7645 47.2202 35.921 47.028 36.0202L42.257 38.4995L41.2987 36.6452L45.7779 34.3223C47.0176 31.9785 48.2676 30.4263 50.476 29.9159C51.3908 29.6442 52.3635 29.6338 53.2839 29.886C54.2044 30.1382 55.0359 30.6429 55.6845 31.343C55.7956 31.4901 55.8657 31.664 55.8877 31.847C55.9097 32.03 55.8826 32.2155 55.8095 32.3847C54.2744 35.4142 52.4721 38.3008 50.4239 41.0099C50.351 41.0829 43.2466 48.6456 41.3091 48.6456H26.7254C26.5009 48.6292 26.2759 48.6703 26.0717 48.7651C25.8676 48.8599 25.691 49.0052 25.5586 49.1873L25.4128 49.3748Z" fill="#404040"/>
<path d="M39.2572 42.4163H30.9236V40.3329H39.2572C40.6947 40.3329 41.3405 39.5516 41.3405 38.7703C41.3405 37.9891 40.6947 37.2078 39.2572 37.2078H33.8091C33.0014 37.0969 32.2499 36.7321 31.6632 36.1661C31.1733 35.6921 30.582 35.3359 29.934 35.1244H24.7255C23.413 35.3498 22.2037 35.9799 21.2671 36.9265L17.1003 41.0933L15.6211 39.6141L19.7879 35.4473C21.1065 34.1201 22.8361 33.2792 24.6942 33.0618H29.9027C31.0311 33.2068 32.0829 33.7108 32.9028 34.4994C33.2007 34.7481 33.5216 34.9678 33.8611 35.1556H39.278C42.0176 35.1556 43.4448 36.989 43.4448 38.8016C43.4448 40.6141 41.9968 42.4163 39.2572 42.4163Z" fill="#404040"/>
<path d="M21.5481 57C21.411 57.0008 21.2751 56.9745 21.1482 56.9227C21.0212 56.8708 20.9058 56.7944 20.8084 56.6979L8.30811 44.1975C8.21047 44.1007 8.133 43.9855 8.08011 43.8586C8.02723 43.7316 8 43.5955 8 43.458C8 43.3204 8.02723 43.1843 8.08011 43.0573C8.133 42.9304 8.21047 42.8152 8.30811 42.7184L13.5166 37.5099C13.6134 37.4122 13.7287 37.3347 13.8556 37.2819C13.9825 37.229 14.1187 37.2017 14.2562 37.2017C14.3937 37.2017 14.5299 37.229 14.6568 37.2819C14.7837 37.3347 14.899 37.4122 14.9958 37.5099L27.4961 50.0102C27.5938 50.1071 27.6713 50.2223 27.7242 50.3492C27.7771 50.4761 27.8043 50.6123 27.8043 50.7498C27.8043 50.8873 27.7771 51.0235 27.7242 51.1504C27.6713 51.2774 27.5938 51.3926 27.4961 51.4894L22.2877 56.6979C22.1903 56.7944 22.0749 56.8708 21.948 56.9227C21.821 56.9745 21.6852 57.0008 21.5481 57ZM10.5269 43.458L21.5481 54.4895L25.2878 50.7498L14.2562 39.7183L10.5269 43.458Z" fill="#404040"/>
<path d="M14.9986 42.699L13.5254 44.1721L15.61 46.2567L17.0831 44.7835L14.9986 42.699Z" fill="#404040"/>
<path d="M52.7988 25.7491H46.5487C46.2729 25.7453 46.0087 25.6374 45.8091 25.447L41.9548 21.5824H35.09C34.8138 21.5824 34.5488 21.4726 34.3534 21.2772C34.1581 21.0819 34.0483 20.8169 34.0483 20.5407V18.4573C34.0483 17.3522 34.4873 16.2923 35.2688 15.5109C36.0502 14.7295 37.11 14.2905 38.2151 14.2905H40.9131L42.684 12.5092C42.8836 12.3189 43.1478 12.2109 43.4236 12.2071H47.5904V14.2905H43.8611L42.0798 16.0718C41.9825 16.1683 41.867 16.2447 41.7401 16.2966C41.6132 16.3484 41.4773 16.3747 41.3402 16.3739H38.2151C37.6626 16.3739 37.1327 16.5934 36.7419 16.9841C36.3512 17.3748 36.1317 17.9047 36.1317 18.4573V19.499H42.3819C42.519 19.4982 42.6549 19.5244 42.7818 19.5763C42.9087 19.6281 43.0242 19.7045 43.1215 19.8011L46.9862 23.6657H52.7988V25.7491Z" fill="#FA4616"/>
<path d="M41.3402 34.0827H39.2568V33.4681L37.788 31.9993H36.1317C35.5792 31.9993 35.0493 31.7798 34.6585 31.3891C34.2678 30.9984 34.0483 30.4685 34.0483 29.9159V27.8325C34.0483 26.7274 34.4873 25.6676 35.2688 24.8862C36.0502 24.1048 37.11 23.6658 38.2151 23.6658H42.3819C42.6552 23.6669 42.917 23.7754 43.1111 23.9679L47.2778 28.1346C47.3744 28.232 47.4508 28.3474 47.5026 28.4743C47.5545 28.6012 47.5807 28.7371 47.5799 28.8742V30.9576H45.4966V29.3013L41.9548 25.7491H38.2151C37.6626 25.7491 37.1326 25.9686 36.7419 26.3594C36.3512 26.7501 36.1317 27.28 36.1317 27.8325V29.9159H38.2151C38.3522 29.9151 38.4881 29.9414 38.615 29.9932C38.7419 30.0451 38.8574 30.1215 38.9547 30.218L41.0381 32.3014C41.1346 32.3988 41.211 32.5142 41.2629 32.6411C41.3147 32.768 41.341 32.9039 41.3402 33.041V34.0827Z" fill="#FA4616"/>
<path d="M21.5482 26.7908H19.4648V24.7074H21.1211L22.5899 23.2387V22.6241C22.5938 22.3482 22.7016 22.0841 22.892 21.8845L24.9754 19.8011C25.175 19.6107 25.4392 19.5028 25.715 19.499H26.7567V17.4156C26.7567 17.1393 26.6469 16.8744 26.4516 16.679C26.2562 16.4837 25.9913 16.3739 25.715 16.3739H22.5899V14.2905H25.715C26.5438 14.2905 27.3387 14.6198 27.9248 15.2058C28.5108 15.7919 28.8401 16.5868 28.8401 17.4156V20.5407C28.8401 20.8169 28.7303 21.0819 28.535 21.2772C28.3396 21.4726 28.0747 21.5824 27.7984 21.5824H26.1525L24.6733 23.0512V23.6657C24.6741 23.8028 24.6478 23.9388 24.596 24.0657C24.5441 24.1926 24.4678 24.308 24.3712 24.4053L22.2878 26.4887C22.1905 26.5853 22.075 26.6617 21.9481 26.7135C21.8212 26.7654 21.6853 26.7916 21.5482 26.7908Z" fill="#FA4616"/>
<path d="M26.4544 32.7076L24.9752 31.2285L26.7565 29.4576V29.2701L25.2877 27.8325H25.1106L23.3293 29.6138L21.8501 28.1346L23.9335 26.0512C24.1331 25.8609 24.3973 25.753 24.6731 25.7491H25.7148C25.8519 25.7483 25.9878 25.7746 26.1147 25.8264C26.2416 25.8783 26.3571 25.9547 26.4544 26.0512L28.5378 28.1346C28.6343 28.232 28.7107 28.3474 28.7625 28.4743C28.8144 28.6012 28.8407 28.7371 28.8399 28.8742V29.9159C28.8407 30.053 28.8144 30.1889 28.7625 30.3158C28.7107 30.4427 28.6343 30.5582 28.5378 30.6555L26.4544 32.7076Z" fill="#FA4616"/>
</svg>
