<svg width="64" height="64" viewBox="0 0 64 64" fill="none" xmlns="http://www.w3.org/2000/svg">
<path d="M31.9951 37.1031C31.8206 37.104 31.6486 37.061 31.495 36.9781L20.0344 30.7269C19.87 30.6369 19.7329 30.5043 19.6376 30.3429C19.5422 30.1816 19.4922 29.9975 19.4927 29.8101V17.3076C19.4922 17.1202 19.5422 16.9361 19.6376 16.7748C19.7329 16.6134 19.87 16.4808 20.0344 16.3908L31.495 10.1396C31.6534 10.0481 31.833 10 32.0159 10C32.1988 10 32.3785 10.0481 32.5369 10.1396L43.9974 16.3908C44.1618 16.4808 44.2989 16.6134 44.3943 16.7748C44.4896 16.9361 44.5397 17.1202 44.5392 17.3076V29.8101C44.5397 29.9975 44.4896 30.1816 44.3943 30.3429C44.2989 30.5043 44.1618 30.6369 43.9974 30.7269L32.5369 36.9781C32.3709 37.0681 32.1837 37.1113 31.9951 37.1031V37.1031ZM21.5764 29.237L31.9951 34.8735L42.4138 29.1849V17.9223L31.9951 12.2442L21.5764 17.9223V29.237Z" fill="#FA4616"/>
<path d="M32.0159 24.6841C31.8528 24.6831 31.6922 24.6438 31.5471 24.5695L23.2121 20.3186C23.0893 20.2568 22.9799 20.1713 22.8903 20.067C22.8007 19.9626 22.7326 19.8416 22.69 19.7109C22.6474 19.5801 22.631 19.4422 22.642 19.3051C22.6529 19.168 22.6909 19.0345 22.7537 18.9121C22.8804 18.6686 23.0982 18.4849 23.3596 18.401C23.6211 18.3171 23.905 18.3398 24.1498 18.4641L32.0159 22.4649L39.8508 18.4641C39.973 18.397 40.1074 18.3551 40.2461 18.3409C40.3848 18.3267 40.5249 18.3405 40.6582 18.3814C40.7914 18.4223 40.9151 18.4896 41.0219 18.5792C41.1287 18.6688 41.2165 18.779 41.2799 18.9031C41.3434 19.0272 41.3813 19.1628 41.3914 19.3019C41.4015 19.4409 41.3836 19.5806 41.3387 19.7126C41.2939 19.8446 41.223 19.9662 41.1302 20.0703C41.0375 20.1744 40.9248 20.2589 40.7989 20.3186L32.4639 24.5695C32.3242 24.6386 32.1716 24.6776 32.0159 24.6841V24.6841Z" fill="#FA4616"/>
<path d="M31.995 32.9357C31.7187 32.9357 31.4537 32.8259 31.2583 32.6305C31.0629 32.4351 30.9531 32.1701 30.9531 31.8938V23.5589C30.9531 23.2825 31.0629 23.0175 31.2583 22.8222C31.4537 22.6268 31.7187 22.517 31.995 22.517C32.2713 22.517 32.5363 22.6268 32.7317 22.8222C32.9271 23.0175 33.0369 23.2825 33.0369 23.5589V31.8938C33.0369 32.1701 32.9271 32.4351 32.7317 32.6305C32.5363 32.8259 32.2713 32.9357 31.995 32.9357Z" fill="#FA4616"/>
<path d="M47.6233 50.6474H45.5396C45.5656 49.2489 46.0364 47.8951 46.8835 46.7821L54.0933 39.5723C54.5725 38.3846 54.9893 31.1228 54.9164 29.8621C54.5096 27.4359 53.9351 25.0409 53.1973 22.6941C52.5484 23.0026 52.0049 23.4954 51.6345 24.111C51.0198 25.0904 51.051 26.2989 51.7386 28.4452C51.8009 28.6525 51.8009 28.8735 51.7386 29.0807L50.4363 33.2482L48.4463 32.6231L49.6549 28.7994C49.061 26.872 48.7277 24.8507 49.8633 23.0379C50.2789 22.3208 50.8597 21.7132 51.5573 21.2656C52.255 20.818 53.0494 20.5434 53.8745 20.4645C54.0832 20.4643 54.2871 20.5267 54.4598 20.6438C54.6326 20.7608 54.7662 20.927 54.8434 21.1209C55.8097 23.9324 56.5312 26.8222 57.0001 29.7579C57.0001 29.8517 56.8855 39.739 55.6561 40.9789L48.363 48.2719C47.9107 48.9844 47.6555 49.8041 47.6233 50.6474Z" fill="#404040"/>
<path d="M36.1628 50.6474H34.0791V45.4381C34.1416 43.6981 34.35 41.604 35.4231 40.5309L38.5487 37.4053C39.4594 36.7549 40.5554 36.4152 41.6743 36.4363C42.0488 36.4128 42.4212 36.3641 42.7891 36.2905L45.8314 33.2378C47.5713 31.5083 49.6342 31.7479 50.7802 32.894C51.0954 33.2343 51.3375 33.6355 51.4916 34.073C51.6457 34.5105 51.7086 34.9749 51.6764 35.4375C51.6442 35.9002 51.5176 36.3514 51.3043 36.7633C51.091 37.1752 50.7957 37.539 50.4364 37.8324L45.2271 43.0418L43.7476 41.5727L48.957 36.3634C49.7696 35.5507 49.7175 34.7797 49.3008 34.363C48.884 33.9462 48.113 33.9046 47.3108 34.7068L44.1852 37.8324C43.5122 38.3115 42.6974 38.5501 41.8723 38.5096C41.2341 38.5305 40.6039 38.6572 40.0073 38.8847L36.8817 42.0103C36.6421 42.2395 36.2253 43.0522 36.142 45.4693L36.1628 50.6474Z" fill="#404040"/>
<path d="M49.7065 54.8149H47.6228V51.6893H35.1204V54.8149H33.0366V50.6474C33.0366 50.3711 33.1464 50.1061 33.3418 49.9107C33.5371 49.7153 33.8022 49.6055 34.0785 49.6055H48.6646C48.941 49.6055 49.206 49.7153 49.4013 49.9107C49.5967 50.1061 49.7065 50.3711 49.7065 50.6474V54.8149Z" fill="#404040"/>
<path d="M18.4507 50.6474H16.367C16.3388 49.8017 16.0872 48.9785 15.6377 48.2616L8.34461 40.9685C7.10479 39.7287 6.99017 29.8413 7.00059 29.7476C7.46326 26.8037 8.18496 23.9065 9.15727 21.0896C9.23381 20.8974 9.36585 20.7323 9.53655 20.6155C9.70726 20.4986 9.90891 20.4351 10.1158 20.4333C10.9423 20.5071 11.7387 20.7796 12.4372 21.2277C13.1356 21.6758 13.7153 22.2861 14.127 23.0067C15.2626 24.8195 14.9292 26.8407 14.3354 28.7682L15.5439 32.5919L13.554 33.217L12.2516 29.0495C12.1893 28.8422 12.1893 28.6212 12.2516 28.414C12.9392 26.2781 12.9705 25.0592 12.3662 24.0798C11.995 23.4611 11.4471 22.9676 10.793 22.6629C10.0638 25.0156 9.48953 27.4135 9.07393 29.8413C9.001 31.0916 9.42814 38.3534 9.89698 39.5411L17.1067 46.7508C17.9602 47.8724 18.4313 49.2382 18.4507 50.6474Z" fill="#404040"/>
<path d="M29.9116 50.6474H27.8279V45.4381C27.9315 44.2438 27.6738 43.0459 27.0882 41.9999L23.9626 38.8743C23.3663 38.6459 22.7359 38.5191 22.0976 38.4993C21.2755 38.5415 20.4635 38.3026 19.7951 37.822L16.6695 34.6964C15.8568 33.8838 15.0754 33.9359 14.6691 34.3422C14.2628 34.7485 14.2107 35.5299 15.0129 36.3426L20.2223 41.5519L18.7428 43.021L13.5335 37.8116C13.176 37.5177 12.8825 37.1536 12.6713 36.7418C12.46 36.3301 12.3354 35.8793 12.3051 35.4175C12.2748 34.9557 12.3395 34.4926 12.4953 34.0568C12.651 33.6209 12.8944 33.2217 13.2105 32.8836C14.3461 31.7375 16.4194 31.4979 18.1489 33.2274L21.2016 36.2801C21.5659 36.3544 21.9349 36.4031 22.306 36.4259C23.4249 36.4048 24.5209 36.7446 25.4316 37.3949L28.5572 40.5205C29.7241 41.6874 29.9012 44.0941 29.9012 45.4277L29.9116 50.6474Z" fill="#404040"/>
<path d="M30.9531 54.8149H28.8694V51.6893H16.3669V54.8149H14.2832V50.6474C14.2832 50.3711 14.393 50.1061 14.5883 49.9107C14.7837 49.7153 15.0488 49.6055 15.3251 49.6055H29.9112C30.1875 49.6055 30.4525 49.7153 30.6479 49.9107C30.8433 50.1061 30.9531 50.3711 30.9531 50.6474V54.8149Z" fill="#404040"/>
</svg>
