<svg width="64" height="64" viewBox="0 0 64 64" fill="none" xmlns="http://www.w3.org/2000/svg">
<path d="M45.0975 52.0651C44.8618 52.0651 44.6358 51.9714 44.4692 51.8048C44.3026 51.6382 44.209 51.4122 44.209 51.1766V37.1477C44.209 36.912 44.3026 36.686 44.4692 36.5194C44.6358 36.3528 44.8618 36.2592 45.0975 36.2592C45.3331 36.2592 45.5591 36.3528 45.7257 36.5194C45.8923 36.686 45.9859 36.912 45.9859 37.1477V51.1766C45.9859 51.2933 45.9629 51.4088 45.9183 51.5166C45.8736 51.6244 45.8082 51.7223 45.7257 51.8048C45.6432 51.8873 45.5452 51.9528 45.4374 51.9974C45.3297 52.0421 45.2141 52.0651 45.0975 52.0651Z" fill="#404040"/>
<path d="M52.6227 32.2788C52.4455 32.2792 52.2723 32.2266 52.1252 32.1278C52.0282 32.0626 51.9451 31.9788 51.8805 31.8814C51.816 31.784 51.7713 31.6748 51.749 31.5601C51.7267 31.4454 51.7273 31.3274 51.7507 31.2129C51.7741 31.0984 51.8198 30.9896 51.8853 30.8928C52.8545 29.4766 53.3349 27.7827 53.2535 26.0684C52.987 23.9531 51.933 22.016 50.3017 20.6432C48.6704 19.2704 46.5817 18.5627 44.4519 18.6614C42.3221 18.76 40.3078 19.6576 38.8104 21.1754C37.313 22.6931 36.4426 24.7194 36.3726 26.8503C36.3803 27.4287 36.4701 28.003 36.6392 28.5561C36.7063 28.7824 36.6809 29.026 36.5684 29.2335C36.4559 29.4409 36.2657 29.5951 36.0395 29.6623C35.8133 29.7294 35.5696 29.704 35.3622 29.5915C35.1547 29.479 35.0005 29.2888 34.9333 29.0626C34.7236 28.3737 34.61 27.6591 34.5957 26.9391C34.6164 24.3195 35.64 21.8074 37.4559 19.9192C39.2718 18.031 41.7421 16.9103 44.3589 16.7874C46.9757 16.6645 49.5402 17.5489 51.5251 19.2586C53.5099 20.9683 54.7644 23.3735 55.0305 25.9796C55.1378 28.0778 54.5542 30.1532 53.369 31.8879C53.2867 32.0097 53.1754 32.1093 53.0452 32.1775C52.9149 32.2457 52.7698 32.2805 52.6227 32.2788V32.2788Z" fill="#404040"/>
<path d="M38.8254 41.4567C37.6817 41.4766 36.5517 41.2068 35.5403 40.6724C34.529 40.138 33.6694 39.3564 33.0414 38.4004C32.1098 36.9176 31.7178 35.1589 31.9314 33.4208C32.145 31.6827 32.9513 30.0713 34.2142 28.8582C35.1947 27.975 36.45 27.4571 37.7681 27.3922V27.3922C38.0037 27.3922 38.2297 27.4859 38.3963 27.6525C38.563 27.8191 38.6566 28.0451 38.6566 28.2807C38.6566 28.5163 38.563 28.7424 38.3963 28.909C38.2297 29.0756 38.0037 29.1692 37.7681 29.1692C36.903 29.2269 36.08 29.5636 35.4225 30.1287C34.4387 31.0453 33.806 32.2768 33.634 33.6104C33.4621 34.944 33.7616 36.2958 34.4808 37.4319C35.9556 39.6798 38.6921 40.2839 41.784 39.0489C41.9984 38.977 42.2323 38.9895 42.4378 39.084C42.6434 39.1785 42.8051 39.3478 42.8901 39.5574C42.9751 39.7671 42.9769 40.0012 42.8952 40.2122C42.8135 40.4231 42.6544 40.595 42.4503 40.6926C41.3018 41.1761 40.0714 41.4355 38.8254 41.4567Z" fill="#404040"/>
<path d="M49.6463 41.7321H49.3354C48.6836 41.705 48.0382 41.5915 47.4163 41.3945C47.1913 41.3238 47.0035 41.1667 46.8944 40.9576C46.7852 40.7484 46.7636 40.5045 46.8343 40.2795C46.905 40.0545 47.0622 39.8667 47.2713 39.7576C47.4804 39.6485 47.7243 39.6269 47.9494 39.6976C48.4209 39.85 48.9112 39.9367 49.4064 39.9552C50.58 40.0031 51.7388 39.6794 52.7177 39.0303C53.6966 38.3812 54.4456 37.4396 54.8582 36.3399C55.2707 35.2402 55.3256 34.0383 55.0152 32.9055C54.7047 31.7727 54.0447 30.7668 53.1291 30.031C53.0372 29.9584 52.9606 29.8682 52.9036 29.7658C52.8467 29.6633 52.8106 29.5507 52.7974 29.4343C52.7841 29.3178 52.7941 29.1999 52.8266 29.0873C52.8592 28.9747 52.9137 28.8697 52.987 28.7783C53.0603 28.687 53.1509 28.6111 53.2537 28.555C53.3564 28.4989 53.4692 28.4636 53.5856 28.4512C53.7021 28.4388 53.8198 28.4496 53.932 28.4828C54.0443 28.5161 54.1488 28.5712 54.2397 28.645C55.4296 29.5961 56.2945 30.8935 56.7147 32.3577C57.1349 33.8219 57.0896 35.3806 56.5851 36.8179C56.0807 38.2553 55.1419 39.5003 53.8988 40.3807C52.6557 41.2611 51.1696 41.7334 49.6463 41.7321V41.7321Z" fill="#404040"/>
<path d="M28.8826 48.8754C28.647 48.8754 28.421 48.7819 28.2544 48.6152C28.0877 48.4486 27.9941 48.2226 27.9941 47.987V44.8685C27.9941 44.6328 28.0877 44.4068 28.2544 44.2402C28.421 44.0736 28.647 43.98 28.8826 43.98C29.1182 43.98 29.3442 44.0736 29.5109 44.2402C29.6775 44.4068 29.7711 44.6328 29.7711 44.8685V47.987C29.7711 48.2226 29.6775 48.4486 29.5109 48.6152C29.3442 48.7819 29.1182 48.8754 28.8826 48.8754Z" fill="#FA4616"/>
<path d="M38.9227 45.6769H27.5325C27.2969 45.6769 27.0709 45.5833 26.9043 45.4167C26.7376 45.2501 26.644 45.0241 26.644 44.7885C26.644 44.5528 26.7376 44.3269 26.9043 44.1602C27.0709 43.9936 27.2969 43.9 27.5325 43.9H38.9227C39.1583 43.9 39.3843 43.9936 39.5509 44.1602C39.7175 44.3269 39.8111 44.5528 39.8111 44.7885C39.8111 45.0241 39.7175 45.2501 39.5509 45.4167C39.3843 45.5833 39.1583 45.6769 38.9227 45.6769Z" fill="#FA4616"/>
<path d="M39.5979 49.0887H26.8572C26.6216 49.0887 26.3956 48.9951 26.229 48.8285C26.0624 48.6618 25.9688 48.4359 25.9688 48.2002C25.9688 47.9646 26.0624 47.7386 26.229 47.572C26.3956 47.4053 26.6216 47.3118 26.8572 47.3118H39.5979C39.8335 47.3118 40.0595 47.4053 40.2261 47.572C40.3927 47.7386 40.4863 47.9646 40.4863 48.2002C40.4863 48.4359 40.3927 48.6618 40.2261 48.8285C40.0595 48.9951 39.8335 49.0887 39.5979 49.0887Z" fill="#FA4616"/>
<path d="M37.5721 48.8754C37.3364 48.8754 37.1104 48.7819 36.9438 48.6152C36.7772 48.4486 36.6836 48.2226 36.6836 47.987V44.8685C36.6836 44.6328 36.7772 44.4068 36.9438 44.2402C37.1104 44.0736 37.3364 43.98 37.5721 43.98C37.8077 43.98 38.0337 44.0736 38.2003 44.2402C38.3669 44.4068 38.4605 44.6328 38.4605 44.8685V47.987C38.4605 48.2226 38.3669 48.4486 38.2003 48.6152C38.0337 48.7819 37.8077 48.8754 37.5721 48.8754Z" fill="#FA4616"/>
<path d="M29.2913 52.065C29.0557 52.065 28.8297 51.9714 28.6631 51.8048C28.4964 51.6382 28.4028 51.4122 28.4028 51.1766V48.3424C28.4028 48.1067 28.4964 47.8807 28.6631 47.7141C28.8297 47.5475 29.0557 47.4539 29.2913 47.4539C29.5269 47.4539 29.7529 47.5475 29.9195 47.7141C30.0862 47.8807 30.1798 48.1067 30.1798 48.3424V51.1766C30.1798 51.4122 30.0862 51.6382 29.9195 51.8048C29.7529 51.9714 29.5269 52.065 29.2913 52.065Z" fill="#FA4616"/>
<path d="M37.2078 52.065C36.9722 52.065 36.7462 51.9714 36.5796 51.8048C36.4129 51.6382 36.3193 51.4122 36.3193 51.1766V48.3424C36.3193 48.1067 36.4129 47.8807 36.5796 47.7141C36.7462 47.5475 36.9722 47.4539 37.2078 47.4539C37.4434 47.4539 37.6694 47.5475 37.836 47.7141C38.0027 47.8807 38.0963 48.1067 38.0963 48.3424V51.1766C38.0963 51.4122 38.0027 51.6382 37.836 51.8048C37.6694 51.9714 37.4434 52.065 37.2078 52.065Z" fill="#FA4616"/>
<path d="M7.88847 53.0068C7.65283 53.0068 7.42685 52.9132 7.26023 52.7466C7.09361 52.58 7 52.354 7 52.1184V51.2299C7.33762 44.8507 16.0091 33.0341 31.3796 33.0341C31.6152 33.0341 31.8412 33.1276 32.0078 33.2943C32.1744 33.4609 32.268 33.6869 32.268 33.9225C32.268 34.1582 32.1744 34.3842 32.0078 34.5508C31.8412 34.7174 31.6152 34.811 31.3796 34.811C17.1197 34.811 9.07902 45.5259 8.77694 51.2743V52.1628C8.76553 52.3906 8.66691 52.6053 8.50151 52.7625C8.33611 52.9196 8.11661 53.0071 7.88847 53.0068Z" fill="#404040"/>
<path d="M21.4464 52.9002C21.2418 52.8986 21.0441 52.8264 20.8866 52.6959C19.5362 51.6031 19.6605 49.6395 19.7938 47.3651C19.9893 44.2465 20.2025 40.7104 16.6486 38.8002C16.5375 38.7503 16.4378 38.6781 16.3558 38.5881C16.2737 38.498 16.2111 38.3921 16.1717 38.2769C16.1323 38.1616 16.1171 38.0395 16.1269 37.918C16.1367 37.7966 16.1714 37.6785 16.2288 37.5711C16.2862 37.4636 16.365 37.3692 16.4605 37.2935C16.5559 37.2178 16.6659 37.1626 16.7836 37.1312C16.9013 37.0998 17.0242 37.093 17.1447 37.1111C17.2651 37.1292 17.3805 37.1719 17.4838 37.2365C22.0505 39.6798 21.7751 44.1843 21.5708 47.4717C21.4641 49.1775 21.3664 50.7946 22.0061 51.3099C22.1499 51.4252 22.2542 51.5824 22.3047 51.7597C22.3551 51.937 22.3492 52.1256 22.2877 52.2993C22.2262 52.4731 22.1122 52.6234 21.9614 52.7294C21.8107 52.8355 21.6307 52.8921 21.4464 52.8913V52.9002Z" fill="#404040"/>
<path d="M11.4866 39.5377C11.251 39.5377 11.025 39.444 10.8584 39.2774C10.6918 39.1108 10.5981 38.8848 10.5981 38.6492V11.8885C10.5981 11.6528 10.6918 11.4269 10.8584 11.2602C11.025 11.0936 11.251 11 11.4866 11H28.2076C28.4432 11 28.6692 11.0936 28.8358 11.2602C29.0024 11.4269 29.0961 11.6528 29.0961 11.8885V31.0439C29.0961 31.2795 29.0024 31.5055 28.8358 31.6721C28.6692 31.8387 28.4432 31.9324 28.2076 31.9324C27.9719 31.9324 27.746 31.8387 27.5793 31.6721C27.4127 31.5055 27.3191 31.2795 27.3191 31.0439V12.7769H12.3751V38.6492C12.3751 38.8848 12.2815 39.1108 12.1149 39.2774C11.9482 39.444 11.7222 39.5377 11.4866 39.5377Z" fill="#404040"/>
<path d="M17.9906 17.4681H15.2185C14.9829 17.4681 14.7569 17.3745 14.5903 17.2078C14.4237 17.0412 14.3301 16.8153 14.3301 16.5796C14.3301 16.344 14.4237 16.118 14.5903 15.9514C14.7569 15.7848 14.9829 15.6911 15.2185 15.6911H17.9906C18.2262 15.6911 18.4522 15.7848 18.6188 15.9514C18.7854 16.118 18.879 16.344 18.879 16.5796C18.879 16.8153 18.7854 17.0412 18.6188 17.2078C18.4522 17.3745 18.2262 17.4681 17.9906 17.4681Z" fill="#404040"/>
<path d="M17.9906 22.9499H15.2185C14.9829 22.9499 14.7569 22.8563 14.5903 22.6897C14.4237 22.5231 14.3301 22.2971 14.3301 22.0614C14.3301 21.8258 14.4237 21.5998 14.5903 21.4332C14.7569 21.2666 14.9829 21.173 15.2185 21.173H17.9906C18.2262 21.173 18.4522 21.2666 18.6188 21.4332C18.7854 21.5998 18.879 21.8258 18.879 22.0614C18.879 22.2971 18.7854 22.5231 18.6188 22.6897C18.4522 22.8563 18.2262 22.9499 17.9906 22.9499Z" fill="#404040"/>
<path d="M17.9906 28.4673H15.2185C14.9829 28.4673 14.7569 28.3737 14.5903 28.2071C14.4237 28.0405 14.3301 27.8145 14.3301 27.5789C14.3301 27.3432 14.4237 27.1172 14.5903 26.9506C14.7569 26.784 14.9829 26.6904 15.2185 26.6904H17.9906C18.2262 26.6904 18.4522 26.784 18.6188 26.9506C18.7854 27.1172 18.879 27.3432 18.879 27.5789C18.879 27.8145 18.7854 28.0405 18.6188 28.2071C18.4522 28.3737 18.2262 28.4673 17.9906 28.4673Z" fill="#404040"/>
<path d="M24.6711 17.4681H21.908C21.6724 17.4681 21.4464 17.3745 21.2798 17.2078C21.1131 17.0412 21.0195 16.8153 21.0195 16.5796C21.0195 16.344 21.1131 16.118 21.2798 15.9514C21.4464 15.7848 21.6724 15.6911 21.908 15.6911H24.6711C24.9068 15.6911 25.1328 15.7848 25.2994 15.9514C25.466 16.118 25.5596 16.344 25.5596 16.5796C25.5596 16.8153 25.466 17.0412 25.2994 17.2078C25.1328 17.3745 24.9068 17.4681 24.6711 17.4681Z" fill="#404040"/>
<path d="M24.6711 22.9499H21.908C21.6724 22.9499 21.4464 22.8563 21.2798 22.6897C21.1131 22.5231 21.0195 22.2971 21.0195 22.0614C21.0195 21.8258 21.1131 21.5998 21.2798 21.4332C21.4464 21.2666 21.6724 21.173 21.908 21.173H24.6711C24.9068 21.173 25.1328 21.2666 25.2994 21.4332C25.466 21.5998 25.5596 21.8258 25.5596 22.0614C25.5596 22.2971 25.466 22.5231 25.2994 22.6897C25.1328 22.8563 24.9068 22.9499 24.6711 22.9499Z" fill="#404040"/>
<path d="M24.6711 28.4673H21.908C21.6724 28.4673 21.4464 28.3737 21.2798 28.2071C21.1131 28.0405 21.0195 27.8145 21.0195 27.5789C21.0195 27.3432 21.1131 27.1172 21.2798 26.9506C21.4464 26.784 21.6724 26.6904 21.908 26.6904H24.6711C24.9068 26.6904 25.1328 26.784 25.2994 26.9506C25.466 27.1172 25.5596 27.3432 25.5596 27.5789C25.5596 27.8145 25.466 28.0405 25.2994 28.2071C25.1328 28.3737 24.9068 28.4673 24.6711 28.4673Z" fill="#404040"/>
<path d="M17.9906 33.9847H15.2185C14.9829 33.9847 14.7569 33.8911 14.5903 33.7245C14.4237 33.5579 14.3301 33.3319 14.3301 33.0963C14.3301 32.8606 14.4237 32.6346 14.5903 32.468C14.7569 32.3014 14.9829 32.2078 15.2185 32.2078H17.9906C18.2262 32.2078 18.4522 32.3014 18.6188 32.468C18.7854 32.6346 18.879 32.8606 18.879 33.0963C18.879 33.3319 18.7854 33.5579 18.6188 33.7245C18.4522 33.8911 18.2262 33.9847 17.9906 33.9847Z" fill="#404040"/>
<path d="M36.3905 19.4227C36.1548 19.4227 35.9288 19.3291 35.7622 19.1625C35.5956 18.9959 35.502 18.7699 35.502 18.5343V16.7573H30.9886C30.7529 16.7573 30.5269 16.6637 30.3603 16.4971C30.1937 16.3305 30.1001 16.1045 30.1001 15.8688C30.1001 15.6332 30.1937 15.4072 30.3603 15.2406C30.5269 15.074 30.7529 14.9804 30.9886 14.9804H36.3993C36.635 14.9804 36.861 15.074 37.0276 15.2406C37.1942 15.4072 37.2878 15.6332 37.2878 15.8688V18.5343C37.2878 18.6517 37.2645 18.7679 37.2193 18.8763C37.1741 18.9847 37.1079 19.083 37.0244 19.1656C36.941 19.2482 36.842 19.3135 36.7332 19.3576C36.6244 19.4018 36.5079 19.4239 36.3905 19.4227Z" fill="#404040"/>
<path d="M14.5256 52.758C14.3769 52.7578 14.2307 52.7203 14.1003 52.6489C13.9699 52.5775 13.8595 52.4745 13.7793 52.3494C13.415 51.7896 13.3617 50.0305 13.6016 47.1163C13.8859 43.749 12.1178 42.7806 12.0467 42.7361C11.839 42.6281 11.6824 42.4424 11.6109 42.2195C11.5393 41.9965 11.5587 41.7543 11.6647 41.5456C11.7696 41.3393 11.9509 41.1822 12.1699 41.1075C12.3889 41.0328 12.6284 41.0466 12.8375 41.1458C12.953 41.208 15.7605 42.6295 15.3696 47.2673C15.1031 50.4747 15.2985 51.372 15.3696 51.4964C15.4591 51.6913 15.4752 51.912 15.4147 52.1177C15.3543 52.3235 15.2215 52.5004 15.0409 52.6159C14.8878 52.7151 14.7079 52.7647 14.5256 52.758Z" fill="#404040"/>
<path d="M7.88847 53.0068C7.65283 53.0068 7.42685 52.9132 7.26023 52.7466C7.09361 52.58 7 52.354 7 52.1183C7 51.8827 7.09361 51.6567 7.26023 51.4901C7.42685 51.3235 7.65283 51.2299 7.88847 51.2299L54.2221 50.9722C54.4577 50.9722 54.6837 51.0658 54.8503 51.2324C55.017 51.399 55.1106 51.6251 55.1106 51.8607C55.1106 52.0963 55.017 52.3223 54.8503 52.4889C54.6837 52.6556 54.4577 52.7492 54.2221 52.7492L7.88847 53.0068Z" fill="#404040"/>
</svg>
