<svg width="64" height="64" viewBox="0 0 64 64" fill="none" xmlns="http://www.w3.org/2000/svg">
<path d="M51.8643 40.7892L49.8773 39.9097C50.7159 38.0489 51.2511 36.0657 51.4626 34.0357C51.4921 33.7689 51.6194 33.5225 51.8199 33.344C52.0204 33.1656 52.2799 33.0677 52.5483 33.0694H54.8393V30.8978H52.5483C52.2782 30.8992 52.0173 30.7998 51.8165 30.6191C51.6158 30.4384 51.4896 30.1894 51.4626 29.9206C51.2511 27.8905 50.7159 25.9075 49.8773 24.0466C49.7697 23.801 49.7566 23.5243 49.8408 23.2697C49.925 23.0151 50.1005 22.8006 50.3334 22.6677L52.3203 21.5167L51.2346 19.6384L49.2367 20.7893C49.0053 20.9247 48.7319 20.9696 48.4693 20.9155C48.2067 20.8614 47.9734 20.712 47.8144 20.4961C46.6057 18.8276 45.1398 17.3617 43.4713 16.153C43.2554 15.994 43.106 15.7607 43.0519 15.4981C42.9978 15.2355 43.0427 14.9621 43.1781 14.7307L44.329 12.7329L42.4506 11.6471L41.2997 13.634C41.165 13.865 40.9499 14.0382 40.6954 14.1203C40.441 14.2024 40.1651 14.1878 39.9208 14.0792C38.0577 13.2489 36.0754 12.7176 34.0468 12.5049C33.778 12.4779 33.529 12.3517 33.3483 12.1509C33.1676 11.9501 33.0683 11.6892 33.0696 11.4191V9.17154H30.8981V11.3431C30.8941 11.6306 30.7816 11.9059 30.5832 12.114C30.1923 12.494 30.2032 12.494 14.6115 12.4289C14.3497 12.4318 14.0956 12.34 13.896 12.1704C13.6965 12.0008 13.565 11.7648 13.5257 11.5059L9.83413 14.557L13.5149 17.3691V16.7719C13.5149 16.484 13.6293 16.2078 13.8329 16.0042C14.0365 15.8006 14.3127 15.6862 14.6006 15.6862H20.0295V17.8577H15.6864V19.5515C15.6864 19.7531 15.6303 19.9508 15.5243 20.1223C15.4182 20.2938 15.2666 20.4325 15.0862 20.5227C14.9059 20.6128 14.704 20.651 14.5031 20.6329C14.3023 20.6148 14.1105 20.5411 13.9492 20.4201L7.43455 15.4582C7.30401 15.3604 7.19721 15.2344 7.12202 15.0897C7.04683 14.945 7.0052 14.7851 7.00025 14.6221C6.99675 14.4589 7.03009 14.2971 7.09777 14.1486C7.16544 14.0001 7.26572 13.8688 7.39114 13.7644L13.9058 8.33551C14.0644 8.20335 14.2575 8.11917 14.4623 8.09286C14.6671 8.06655 14.8752 8.09917 15.0621 8.18693C15.249 8.27469 15.407 8.41394 15.5176 8.58833C15.6282 8.76272 15.6867 8.96504 15.6864 9.17154V10.2573C20.3444 10.2573 26.3595 10.2573 28.7157 10.2573V8.08577C28.7157 7.79781 28.8301 7.52165 29.0337 7.31803C29.2373 7.11441 29.5135 7 29.8014 7H34.1445C34.4325 7 34.7087 7.11441 34.9123 7.31803C35.1159 7.52165 35.2303 7.79781 35.2303 8.08577V10.4962C36.8243 10.7446 38.3863 11.167 39.8882 11.7557L41.0934 9.64928C41.1653 9.52577 41.2608 9.41764 41.3745 9.33112C41.4882 9.24459 41.6179 9.18138 41.7561 9.14507C41.8943 9.10875 42.0382 9.10007 42.1798 9.11952C42.3214 9.13897 42.4577 9.18615 42.581 9.25839L46.3377 11.4299C46.4623 11.5011 46.5716 11.5963 46.6592 11.71C46.7468 11.8237 46.811 11.9536 46.848 12.0923C46.9199 12.3675 46.8809 12.6598 46.7395 12.9066L45.5234 15.0239C46.7776 16.0284 47.9174 17.168 48.9219 18.4223L51.0283 17.2062C51.1515 17.134 51.2878 17.0868 51.4294 17.0674C51.5709 17.0479 51.7149 17.0566 51.8531 17.0929C51.9913 17.1292 52.121 17.1924 52.2347 17.279C52.3484 17.3655 52.4439 17.4736 52.5158 17.5971L54.6873 21.3648C54.8289 21.6141 54.866 21.9092 54.7908 22.1859C54.7155 22.4625 54.5339 22.6982 54.2856 22.8414L52.19 24.0574C52.8001 25.5555 53.2373 27.1182 53.4929 28.7154H55.9142C56.2022 28.7154 56.4783 28.8298 56.682 29.0334C56.8856 29.2371 57 29.5132 57 29.8012V34.1443C57 34.4322 56.8856 34.7084 56.682 34.912C56.4783 35.1156 56.2022 35.23 55.9142 35.23H53.4929C53.2031 37.148 52.6552 39.018 51.8643 40.7892V40.7892Z" fill="#404040"/>
<path d="M34.199 56.9454H29.8559C29.5679 56.9454 29.2917 56.831 29.0881 56.6274C28.8845 56.4238 28.7701 56.1476 28.7701 55.8597V53.5361C27.1797 53.2927 25.6212 52.874 24.123 52.2875L22.9069 54.383C22.8357 54.5077 22.7405 54.6169 22.6269 54.7045C22.5132 54.7921 22.3833 54.8563 22.2446 54.8933C22.1067 54.9304 21.9628 54.9399 21.8212 54.9213C21.6796 54.9026 21.5431 54.8563 21.4194 54.7848L17.6627 52.6024C17.5382 52.5314 17.4291 52.4366 17.3415 52.3233C17.2539 52.21 17.1895 52.0805 17.1522 51.9422C17.1149 51.804 17.1053 51.6597 17.1239 51.5177C17.1426 51.3757 17.1891 51.2388 17.2609 51.1149L18.4879 49.0085C17.23 48.0003 16.0867 46.857 15.0785 45.5991L12.9721 46.8261C12.8482 46.8978 12.7113 46.9444 12.5693 46.9631C12.4273 46.9817 12.283 46.9721 12.1448 46.9348C12.0065 46.8974 11.877 46.8331 11.7637 46.7455C11.6504 46.6579 11.5556 46.5487 11.4846 46.4243L9.31308 42.6676C9.17061 42.4196 9.13177 42.1254 9.20496 41.8489C9.27814 41.5724 9.45747 41.3359 9.70397 41.1909L11.8212 39.9314C11.2283 38.4121 10.8059 36.8317 10.5617 35.2192H8.14046C7.85249 35.2192 7.57631 35.1048 7.37268 34.9012C7.16906 34.6975 7.05469 34.4214 7.05469 34.1334V29.7903C7.05469 29.5024 7.16906 29.2262 7.37268 29.0226C7.57631 28.819 7.85249 28.7045 8.14046 28.7045H10.5617C10.8593 26.8058 11.407 24.9548 12.1904 23.1997L14.1773 24.0792C13.3529 25.9261 12.8182 27.889 12.5921 29.8989C12.5651 30.1677 12.4389 30.4167 12.2381 30.5974C12.0373 30.7781 11.7764 30.8774 11.5063 30.8761H9.21536V33.0476H11.5063C11.7747 33.046 12.0343 33.1439 12.2348 33.3223C12.4353 33.5008 12.5626 33.7472 12.5921 34.014C12.8105 36.0602 13.3453 38.0601 14.1773 39.9423C14.2838 40.1841 14.2984 40.4565 14.2185 40.7083C14.1385 40.9602 13.9695 41.1742 13.743 41.3104L11.7344 42.5047L12.8201 44.3939L14.8288 43.243C15.0604 43.1119 15.3322 43.0704 15.5924 43.1264C15.8526 43.1825 16.0832 43.3322 16.2403 43.547C17.452 45.2129 18.9175 46.6785 20.5834 47.8901C20.7983 48.0472 20.9479 48.2778 21.004 48.538C21.06 48.7982 21.0186 49.07 20.8874 49.3016L19.7365 51.2994L21.6149 52.3852L22.7658 50.3983C22.9005 50.1673 23.1157 49.9941 23.3701 49.912C23.6246 49.8299 23.9004 49.8445 24.1447 49.9531C26.008 50.7849 27.99 51.3198 30.0187 51.5383C30.2855 51.5678 30.5319 51.6951 30.7104 51.8957C30.8888 52.0962 30.9867 52.3557 30.985 52.6241V54.7956H33.1566V52.6241C33.1566 52.3361 33.271 52.0599 33.4746 51.8563C33.6782 51.6527 33.9544 51.5383 34.2424 51.5383H49.4431C49.7184 51.5376 49.9837 51.6415 50.1852 51.829C50.3868 52.0165 50.5097 52.2735 50.5289 52.5481L54.2097 49.4971L50.5289 46.6958V47.1735C50.5289 47.4615 50.4145 47.7376 50.2109 47.9413C50.0073 48.1449 49.7311 48.2593 49.4431 48.2593H44.0143V46.0877H48.3574V44.4808C48.359 44.2791 48.4168 44.0819 48.5241 43.9113C48.6315 43.7406 48.7843 43.6032 48.9654 43.5145C49.1399 43.4351 49.3322 43.4034 49.5229 43.4225C49.7136 43.4415 49.8959 43.5107 50.0512 43.6231L56.5658 48.5742C56.6958 48.6742 56.8014 48.8023 56.8747 48.949C56.9481 49.0957 56.9872 49.2571 56.9893 49.4211C56.9928 49.5842 56.9594 49.7461 56.8918 49.8946C56.8241 50.0431 56.7238 50.1744 56.5984 50.2788L50.0837 55.7077C49.9251 55.8398 49.732 55.924 49.5272 55.9503C49.3224 55.9766 49.1144 55.944 48.9274 55.8562C48.7405 55.7685 48.5825 55.6292 48.4719 55.4548C48.3613 55.2804 48.3028 55.0781 48.3031 54.8716V53.6881H35.2739V55.8597C35.2739 56.1458 35.161 56.4203 34.9597 56.6236C34.7584 56.8269 34.485 56.9426 34.199 56.9454Z" fill="#404040"/>
<path d="M32.0273 48.2593C28.8061 48.2593 25.6573 47.3041 22.979 45.5145C20.3007 43.7249 18.2132 41.1813 16.9805 38.2053C15.7478 35.2294 15.4253 31.9547 16.0537 28.7954C16.6821 25.6361 18.2333 22.7341 20.511 20.4564C22.7887 18.1787 25.6907 16.6275 28.8499 15.9991C32.0092 15.3707 35.2839 15.6932 38.2599 16.9259C41.2359 18.1586 43.7795 20.2461 45.5691 22.9244C47.3587 25.6027 48.3139 28.7516 48.3139 31.9727C48.3139 36.2922 46.598 40.4347 43.5436 43.4891C40.4893 46.5434 36.3468 48.2593 32.0273 48.2593ZM32.0273 17.8577C29.2356 17.8577 26.5066 18.6855 24.1854 20.2365C21.8642 21.7875 20.0551 23.992 18.9867 26.5711C17.9184 29.1503 17.6389 31.9884 18.1835 34.7264C18.7281 37.4645 20.0724 39.9795 22.0465 41.9535C24.0205 43.9276 26.5355 45.2719 29.2736 45.8165C32.0116 46.3612 34.8497 46.0816 37.4289 45.0133C40.0081 43.945 42.2125 42.1358 43.7635 39.8146C45.3145 37.4934 46.1423 34.7644 46.1423 31.9727C46.1423 28.2292 44.6552 24.639 42.0081 21.9919C39.361 19.3448 35.7708 17.8577 32.0273 17.8577V17.8577Z" fill="#FA4616"/>
<path d="M32.027 48.2593C27.1627 48.2593 23.3408 41.104 23.3408 31.9727C23.3408 22.8414 27.1627 15.6862 32.027 15.6862C36.8912 15.6862 40.7131 22.8414 40.7131 31.9727C40.7131 41.104 36.9021 48.2593 32.027 48.2593ZM32.027 17.8577C28.8782 17.8577 25.5124 23.5254 25.5124 31.9727C25.5124 40.42 28.8782 46.0877 32.027 46.0877C35.1757 46.0877 38.5416 40.4092 38.5416 31.9727C38.5416 23.5363 35.1757 17.8577 32.027 17.8577Z" fill="#FA4616"/>
<path d="M46.1426 25.469H17.9126V27.6405H46.1426V25.469Z" fill="#FA4616"/>
<path d="M45.0565 37.4124H18.998V39.584H45.0565V37.4124Z" fill="#FA4616"/>
<path d="M33.1129 16.7828H30.9414V47.1844H33.1129V16.7828Z" fill="#FA4616"/>
</svg>
