<svg width="64" height="64" viewBox="0 0 64 64" fill="none" xmlns="http://www.w3.org/2000/svg">
<path d="M17.2063 34.0554C16.9725 34.0615 16.7422 33.9972 16.5454 33.8707L16.2537 33.793C15.5982 33.6878 14.9981 33.362 14.5527 32.8696L14.0862 32.2766C13.7859 31.884 13.4613 31.5107 13.1142 31.1588C12.531 30.5756 12.5601 29.5745 12.6476 28.3206C12.6476 28.1165 12.6476 27.8443 12.6476 27.7665C12.4365 27.3203 12.1962 26.8884 11.9283 26.4737C11.7573 26.2176 11.6078 25.9478 11.4812 25.667C11.2479 25.0741 11.3063 24.5783 14.057 22.751L15.029 24.1701C14.4167 24.5783 13.7071 25.0935 13.3183 25.424L13.4058 25.5892C13.8509 26.1908 14.1805 26.8697 14.3778 27.5916C14.3998 27.873 14.3998 28.1558 14.3778 28.4372C14.3084 28.9533 14.3084 29.4764 14.3778 29.9924C14.7462 30.3885 15.0934 30.8038 15.4178 31.2366L15.8552 31.8003C16.0795 31.9872 16.3528 32.1053 16.6425 32.1406C16.8523 32.1862 17.0573 32.2513 17.2549 32.335C17.5491 32.215 17.8094 32.0248 18.0131 31.7809C18.0748 31.5661 18.1043 31.3434 18.1006 31.12C18.1046 30.7258 18.1736 30.335 18.3047 29.9633C18.6542 29.2464 19.196 28.6407 19.8696 28.2136L20.0835 28.0873C20.4625 27.8891 20.8236 27.6582 21.1624 27.3972C21.0846 27.2319 20.9388 26.9792 20.8319 26.7945C20.6656 26.5255 20.5163 26.2463 20.3848 25.9586C20.2833 25.7195 20.202 25.4725 20.1418 25.2199C20.1084 25.0757 20.0595 24.9356 19.996 24.8019L20.2876 23.1301C20.6814 23.2157 21.039 23.4217 21.3106 23.7195C21.5823 24.0173 21.7547 24.3921 21.8039 24.7922C21.8442 24.9557 21.8995 25.1152 21.9692 25.2685C22.0759 25.502 22.196 25.7291 22.3288 25.9489C22.7292 26.4543 22.9422 27.0829 22.9314 27.7276C22.8245 28.3983 22.1538 28.8941 20.9874 29.5842L20.8028 29.6814C20.4385 29.9289 20.1412 30.2628 19.9377 30.6534C19.8862 30.8501 19.8601 31.0527 19.8599 31.256C19.8663 31.7143 19.7734 32.1686 19.5878 32.5877C19.147 33.3016 18.4525 33.8224 17.6437 34.0457C17.4993 34.0714 17.3518 34.0746 17.2063 34.0554V34.0554Z" fill="#404040"/>
<path d="M19.8888 43.445C19.5943 43.4457 19.3075 43.3501 19.0723 43.1728C18.1003 42.473 18.8487 40.2568 19.0723 39.5473C18.8659 39.2641 18.6167 39.0149 18.3336 38.8085C17.987 38.5389 17.7574 38.1463 17.6923 37.7121C17.6271 37.2778 17.7314 36.8352 17.9837 36.4757C17.9984 36.194 17.9984 35.9118 17.9837 35.6301C17.9837 35.4454 17.9837 35.2996 17.9837 35.2121C18.0614 34.3762 18.9557 34.036 19.4611 33.861C20.5109 33.4625 21.2593 34.0749 22.1147 34.7747L22.348 34.9691C22.5327 35.1246 22.7368 35.2802 22.9312 35.426C23.7974 35.9545 24.49 36.7248 24.9238 37.6421C25.3126 38.8669 23.9518 40.0527 22.8145 40.84C22.3521 41.1988 21.9767 41.6573 21.7162 42.1814C21.5521 42.481 21.3287 42.7441 21.0597 42.9547C20.7906 43.1653 20.4815 43.3188 20.1512 43.4061C20.0653 43.4281 19.9774 43.4411 19.8888 43.445V43.445ZM19.4028 37.4672C20.229 38.1184 21.1038 39.0612 20.7442 40.0041C20.6101 40.3717 20.5029 40.7485 20.4234 41.1316C20.793 40.4597 21.3077 39.8787 21.93 39.4306C22.4993 39.102 22.985 38.6462 23.3492 38.099C22.9685 37.5788 22.4977 37.1311 21.9592 36.777L21.3371 36.291L21.0941 36.0966C20.5109 35.6106 20.2484 35.4065 20.1221 35.4551L19.743 35.6106C19.8053 36.1969 19.7044 36.7889 19.4514 37.3213C19.4446 37.3697 19.4446 37.4188 19.4514 37.4672H19.4028Z" fill="#404040"/>
<path d="M46.5218 16.7148H18.9849V18.4158H46.5218V16.7148Z" fill="#404040"/>
<path d="M56.7767 48.723H44.2378V47.022H55.9019V18.445H50.7891V16.744H56.7572C56.9824 16.7465 57.1975 16.8378 57.3558 16.9979C57.5141 17.1581 57.6029 17.3742 57.6029 17.5994V47.8482C57.6068 47.96 57.5884 48.0716 57.5489 48.1763C57.5093 48.281 57.4494 48.3768 57.3725 48.4582C57.2957 48.5396 57.2034 48.6049 57.1012 48.6503C56.9989 48.6958 56.8886 48.7205 56.7767 48.723V48.723Z" fill="#404040"/>
<path d="M40.6411 48.723H7.85537C7.7435 48.7243 7.6325 48.7034 7.52878 48.6614C7.42505 48.6195 7.33066 48.5574 7.2511 48.4788C7.17154 48.4001 7.10839 48.3065 7.06529 48.2032C7.02218 48.1 6.99999 47.9892 7 47.8773V17.6188C7 17.3919 7.09012 17.1744 7.25054 17.0139C7.41095 16.8535 7.62851 16.7634 7.85537 16.7634H15.3787V18.4644H8.70101V47.0414H40.6411V48.723Z" fill="#404040"/>
<path d="M49.1072 42.6868C48.872 42.6966 48.6394 42.635 48.4399 42.51C48.2404 42.3851 48.0833 42.2028 47.9893 41.987C47.981 41.9512 47.9644 41.9179 47.9407 41.8898C47.864 41.79 47.7926 41.6862 47.7269 41.5787L47.6589 41.4718H47.4742C46.8052 41.7295 46.0687 41.7535 45.3844 41.5398C45.2427 41.4706 45.118 41.3713 45.0189 41.2487C44.9199 41.1261 44.8488 40.9833 44.8109 40.8303C44.7871 40.5353 44.8269 40.2386 44.9275 39.9603C45.0281 39.6819 45.1872 39.4284 45.3941 39.2168C45.4552 39.1435 45.5105 39.0655 45.5593 38.9835C46.1698 38.1353 47.0804 37.5514 48.106 37.3505C48.4393 37.2263 48.764 37.0802 49.078 36.9131C49.2973 36.7685 49.5466 36.6755 49.807 36.641V36.641C49.9517 36.6276 50.0975 36.6469 50.2338 36.6973C50.37 36.7478 50.4932 36.8282 50.5943 36.9325C50.7757 36.835 50.9833 36.7976 51.1872 36.8256C51.9843 36.952 52.062 37.7976 52.1592 38.342C52.1534 38.4488 52.1534 38.5559 52.1592 38.6627C52.1928 38.8219 52.2484 38.9757 52.3245 39.1196C52.4414 39.3427 52.5109 39.5876 52.5286 39.8388C52.5096 40.0685 52.4417 40.2914 52.3294 40.4926C52.217 40.6938 52.0629 40.8686 51.8774 41.0053C51.7947 41.0814 51.7168 41.1626 51.6441 41.2483C51.0498 41.9007 50.2859 42.3752 49.4376 42.6188L49.1072 42.6868ZM47.8435 39.7708C48.1216 39.7957 48.3883 39.8932 48.6169 40.0535C48.8455 40.2139 49.028 40.4315 49.146 40.6845L49.2821 40.8886L49.3404 40.9567C49.6995 40.7484 50.0268 40.4898 50.3124 40.1888L50.604 39.8875L50.6721 39.8291C50.5982 39.6676 50.5333 39.5021 50.4777 39.3334C50.2924 39.3416 50.1081 39.3014 49.9431 39.2168C49.7051 39.1116 49.4977 38.9477 49.3404 38.7405C48.967 38.963 48.5485 39.0991 48.1157 39.139C47.7249 39.3204 47.3617 39.556 47.0368 39.8388C47.0368 39.8388 47.0368 39.8875 47.0368 39.9166C47.2978 39.8245 47.5685 39.7626 47.8435 39.7319V39.7708ZM46.0745 40.0721L47.1243 39.7417L46.0745 40.0721ZM47.1534 39.45V37.7685H47.2701L47.1534 39.45Z" fill="#404040"/>
<path d="M37.1226 42.1134H36.9477C36.5991 42.0229 36.2743 41.8578 35.9957 41.6296C35.7171 41.4014 35.4914 41.1154 35.3341 40.7914L35.1883 40.5873C35.0084 40.1979 34.9072 39.7767 34.8905 39.348C34.8738 38.9193 34.942 38.4915 35.0911 38.0892C35.0911 37.992 35.0912 37.8657 35.1592 37.7782L35.0037 37.613C34.7107 37.3724 34.4945 37.0514 34.3816 36.6896C34.353 36.611 34.3335 36.5295 34.3232 36.4466C34.3087 36.243 34.2305 36.0491 34.0997 35.8925C33.899 35.8809 33.6978 35.8809 33.4971 35.8925C32.9803 35.9168 32.4623 35.8875 31.9516 35.805C31.7055 35.7765 31.4689 35.6938 31.2588 35.5626C31.0486 35.4315 30.8703 35.2553 30.7365 35.0469C30.6152 34.7883 30.5522 34.5062 30.5522 34.2206C30.5522 33.9351 30.6152 33.653 30.7365 33.3945C30.7365 33.3167 30.8046 33.2 30.8143 33.1612C31.108 32.3088 31.633 31.555 32.3306 30.9839C33.1038 30.5601 33.9767 30.352 34.8579 30.3812C35.2601 30.4157 35.6459 30.5566 35.9757 30.7895C36.1933 30.9425 36.4371 31.0545 36.6949 31.12C37.1532 31.1776 37.6169 31.1776 38.0752 31.12H38.3474C39.4457 31.12 39.7082 32.3933 39.9123 33.3361C39.9123 33.4236 39.9123 33.5111 39.9609 33.5888C40.2074 33.6987 40.4607 33.7929 40.7191 33.8707C41.0676 33.9389 41.3984 34.0778 41.6911 34.279C41.8161 34.382 41.9148 34.5133 41.979 34.6621C42.0433 34.8108 42.0712 34.9727 42.0604 35.1343C41.8756 35.9965 41.4191 36.7767 40.758 37.3602C40.6018 37.7487 40.475 38.1483 40.3789 38.5558C40.3303 38.7405 40.2817 38.9252 40.2428 39.0904C39.8565 40.0489 39.2225 40.8875 38.4057 41.5204L38.2696 41.6468C37.9639 41.9477 37.5516 42.1155 37.1226 42.1134V42.1134ZM36.6075 39.625L36.763 39.8486C36.869 40.0234 36.9893 40.1892 37.1226 40.3443L37.2198 40.2568C37.7936 39.8131 38.259 39.2447 38.5806 38.5947C38.6292 38.4392 38.6681 38.2739 38.7167 38.099C38.9986 37.02 39.2027 36.3396 39.6887 35.9897C39.8557 35.8216 39.9996 35.6321 40.1164 35.426C39.4069 35.2121 38.5806 34.9205 38.3668 34.1623C38.3668 34.0262 38.2988 33.8513 38.2502 33.6569C38.2018 33.3738 38.1336 33.0945 38.0461 32.821C37.4914 32.8724 36.9325 32.8495 36.3839 32.7529C35.9313 32.6564 35.4998 32.4785 35.1106 32.228C35.0109 32.1574 34.9032 32.0987 34.7898 32.0531C34.3201 32.0451 33.8527 32.1208 33.4096 32.2766C33.0398 32.5984 32.7304 32.9835 32.4959 33.4139C32.4654 33.586 32.4199 33.7552 32.3598 33.9193L32.2918 34.104C32.6806 34.1656 33.0749 34.1852 33.4679 34.1623C34.0663 34.0757 34.6751 34.2218 35.1689 34.5706C35.6107 34.9632 35.8969 35.5012 35.9757 36.0869C35.9711 36.1322 35.9711 36.1778 35.9757 36.223L36.1506 36.4077C36.3607 36.5701 36.5317 36.7775 36.6511 37.0147C36.7705 37.2518 36.8353 37.5127 36.8408 37.7782C36.8153 38.011 36.7731 38.2416 36.7144 38.4683C36.6313 38.848 36.5954 39.2365 36.6075 39.625V39.625Z" fill="#404040"/>
<path d="M49.5839 34.8622C49.3592 34.8653 49.1365 34.819 48.9316 34.7266C48.7267 34.6343 48.5446 34.498 48.3981 34.3276C48.1506 34.079 47.9585 33.7809 47.8343 33.4528C47.7829 33.3181 47.7143 33.1907 47.6302 33.0737C47.4498 32.7775 47.2906 32.469 47.1539 32.1503C47.0664 31.985 46.9595 31.742 46.8429 31.5185C46.7735 31.6608 46.7118 31.8069 46.6582 31.9559C46.5641 32.2012 46.4504 32.4385 46.318 32.6654C46.2361 32.799 46.1257 32.9127 45.9946 32.9984C45.8635 33.0841 45.715 33.1397 45.5598 33.1612C44.8891 33.2486 44.1699 32.7335 43.0229 31.674C42.428 31.6616 41.8408 31.5363 41.2927 31.3046C40.9055 31.1114 40.5291 30.8973 40.1652 30.6631C40.0399 30.5732 39.9064 30.4951 39.7667 30.4298C39.2915 30.1647 38.8535 29.8379 38.4642 29.4578C38.1946 29.2945 37.8928 29.1917 37.5796 29.1565C37.1827 29.1585 36.7939 29.0435 36.4618 28.826L35.1788 29.0204L34.5276 29.1273C33.0015 29.3412 32.5835 28.515 32.5349 28.1553C32.4863 27.7957 32.3308 27.368 33.5069 25.6378C33.5372 25.5915 33.5731 25.549 33.6139 25.5115C33.8679 25.2525 34.1373 25.009 34.4206 24.7825C34.5782 24.5369 34.7179 24.2802 34.8386 24.0146C34.8763 23.9231 34.9326 23.8403 35.0038 23.7716C36.1314 22.5954 38.8919 23.3633 39.0377 23.3925C39.1835 23.4217 39.1932 23.3925 39.4459 23.3245C39.8062 23.1613 40.19 23.0563 40.5831 23.0134C41.0124 22.8878 41.4239 22.7082 41.8079 22.4788C42.5925 22.0195 43.4842 21.7748 44.3934 21.7692C44.8405 21.8276 45.6668 21.9053 46.5902 21.9734L46.4541 23.6744C45.4821 23.5966 44.6559 23.5091 44.1796 23.4508C43.5953 23.5393 43.032 23.7337 42.5175 24.0243C41.9515 24.3259 41.3412 24.5359 40.7095 24.6464C40.4896 24.67 40.2757 24.7326 40.0777 24.8311C39.6034 25.0747 39.0536 25.1269 38.542 24.9769C37.8029 24.7454 37.0178 24.702 36.2577 24.8505C35.7814 25.8225 35.5093 26.0169 35.3926 26.0947C35.276 26.1724 35.0622 26.3766 34.8191 26.6098C34.5761 26.8431 34.4984 27.125 34.372 27.3583L34.858 27.2805C35.6356 27.1542 36.2091 27.0667 36.4133 27.057C36.7249 27.0413 37.0328 27.1303 37.2881 27.3097C37.4144 27.3874 37.4533 27.3972 37.4727 27.3972C38.2346 27.416 38.9703 27.6783 39.5723 28.1456C39.8297 28.4031 40.1094 28.6373 40.4082 28.8454C40.6214 28.9454 40.8262 29.0625 41.0206 29.1954C41.2927 29.3606 41.6232 29.5647 41.9926 29.7397C42.4058 29.8925 42.8451 29.9619 43.2853 29.9438C43.5171 29.9326 43.744 30.0129 43.9171 30.1674L43.9949 30.2451C44.3407 30.5878 44.704 30.9122 45.0835 31.2171C45.4432 30.3521 45.9972 29.1176 47.0956 29.4384C47.8246 29.6619 48.2328 30.5076 48.6605 31.3824C48.7662 31.6258 48.8863 31.8628 49.0202 32.092L49.1271 32.2475C49.2121 31.881 49.3672 31.5344 49.5839 31.2269C49.6579 31.0993 49.7391 30.976 49.8269 30.8575C49.9888 30.6435 50.1319 30.4158 50.2546 30.1771V30.041C50.1089 29.6796 50.1006 29.2772 50.2313 28.9101C50.362 28.5429 50.6228 28.2364 50.9642 28.0484C51.4235 27.4199 51.6409 26.6469 51.5765 25.8711C51.4096 25.1491 50.9799 24.515 50.3713 24.0923L51.2364 22.6343C51.7716 22.9807 52.2292 23.4342 52.5805 23.9662C52.9318 24.4981 53.1691 25.0971 53.2775 25.7253C53.365 26.6973 53.0346 28.7482 51.8682 29.487V29.6036C51.9971 29.9717 51.9971 30.3727 51.8682 30.7409C51.6913 31.1243 51.4764 31.489 51.2266 31.8295L51.0322 32.1114C50.7989 32.4905 50.7989 32.6265 50.8573 32.7043C50.9594 32.8383 51.0341 32.9912 51.0771 33.1541C51.1202 33.317 51.1308 33.4868 51.1082 33.6537C51.0856 33.8207 51.0304 33.9816 50.9457 34.1273C50.8609 34.2729 50.7483 34.4004 50.6143 34.5025C50.3186 34.7304 49.9572 34.8566 49.5839 34.8622Z" fill="#404040"/>
<path d="M18.0516 12.2727H16.3506V26.0947H18.0516V12.2727Z" fill="#FA4616"/>
<path d="M15.6349 7L14.4321 8.2028L18.7691 12.5397L19.9719 11.3369L15.6349 7Z" fill="#FA4616"/>
<path d="M18.7728 7.0033L14.4351 11.3395L15.6376 12.5425L19.9753 8.20631L18.7728 7.0033Z" fill="#FA4616"/>
<path d="M43.2269 37.9045H41.5259V51.7265H43.2269V37.9045Z" fill="#FA4616"/>
<path d="M40.8166 51.4295L39.6138 52.6322L43.9507 56.9692L45.1535 55.7664L40.8166 51.4295Z" fill="#FA4616"/>
<path d="M43.9427 51.4608L39.605 55.797L40.8076 57L45.1453 52.6638L43.9427 51.4608Z" fill="#FA4616"/>
<path d="M49.4964 14.4986H47.7954V24.6658H49.4964V14.4986Z" fill="#FA4616"/>
<path d="M47.0785 9.28283L45.8755 10.4854L50.2117 14.8231L51.4147 13.6205L47.0785 9.28283Z" fill="#FA4616"/>
<path d="M50.2127 9.23478L45.875 13.571L47.0776 14.774L51.4153 10.4378L50.2127 9.23478Z" fill="#FA4616"/>
</svg>
