<svg width="64" height="64" viewBox="0 0 64 64" fill="none" xmlns="http://www.w3.org/2000/svg">
<path d="M48.3354 34.088V32.0051C49.1534 31.9717 49.9288 31.6319 50.5077 31.053C51.0866 30.4741 51.4264 29.6987 51.4598 28.8807V24.7149C51.4598 21.0907 48.1896 20.5491 46.2525 20.5491H41.0452C38.452 20.5491 37.723 21.5072 35.963 23.8505L35.6193 24.2983L33.9634 23.0382L34.2966 22.5903C36.1713 20.1013 37.421 18.4245 41.0452 18.4245H46.2525C49.7726 18.4245 53.5427 20.0596 53.5427 24.6732V28.839C53.5164 30.2158 52.9606 31.5294 51.9908 32.5069C51.021 33.4845 49.7119 34.0507 48.3354 34.088Z" fill="#FA4616"/>
<path d="M41.0448 32.0051H38.9619V27.9538L37.3268 28.7766L36.3999 26.9123L38.4828 25.8709C38.6288 25.8002 38.7893 25.7645 38.9515 25.7668H39.9929C40.2691 25.7668 40.534 25.8765 40.7293 26.0718C40.9246 26.2671 41.0344 26.532 41.0344 26.8082L41.0448 32.0051Z" fill="#FA4616"/>
<path d="M49.3764 25.7668H47.2935V36.1813H49.3764V25.7668Z" fill="#FA4616"/>
<path d="M55.6257 56.9999H8.04179C7.904 56.9993 7.76769 56.9714 7.64076 56.9177C7.51384 56.8641 7.39881 56.7859 7.30236 56.6875C7.20331 56.5877 7.12548 56.4689 7.07358 56.3382C7.02167 56.2075 6.99676 56.0677 7.00034 55.9272C7.15527 51.3639 8.54847 46.9287 11.0308 43.0965L12.77 44.2317C10.7009 47.4417 9.45275 51.1111 9.13531 54.917H54.5321C54.0818 49.2026 51.4952 43.8675 47.2877 39.9746C43.0802 36.0817 37.5607 33.9167 31.8285 33.9109C30.431 33.9098 29.0364 34.0389 27.6627 34.2963L27.2774 32.2134C28.786 31.9391 30.316 31.7996 31.8494 31.7968C38.3153 31.8077 44.5229 34.3364 49.1559 38.8469C53.7889 43.3575 56.483 49.495 56.6671 55.9584C56.6693 56.0972 56.6437 56.2351 56.5918 56.3638C56.54 56.4926 56.4629 56.6097 56.3651 56.7083C56.1669 56.8994 55.901 57.0043 55.6257 56.9999Z" fill="#404040"/>
<path d="M19.1748 55.9584H17.0919V53.9901C17.0523 53.5646 17.1049 53.1357 17.2463 52.7325C17.3876 52.3292 17.6144 51.9613 17.911 51.6538C18.2076 51.3463 18.5672 51.1064 18.965 50.9507C19.3629 50.7949 19.7897 50.7268 20.2163 50.7512H27.0169C27.4259 50.7024 27.8055 50.5142 28.092 50.2183C28.3784 49.9224 28.5541 49.5368 28.5895 49.1265V48.158C28.5599 47.7056 28.6201 47.2519 28.7666 46.8229C28.913 46.3939 29.1429 45.9981 29.443 45.6583C29.7431 45.3185 30.1074 45.0415 30.5151 44.8431C30.9227 44.6447 31.3655 44.529 31.818 44.5025V44.5025C32.1721 44.5025 32.7137 44.5025 32.7137 43.3048V42.3258C32.7137 41.4823 32.5366 41.3781 31.8285 41.3781H27.5064V39.2952H31.8285C32.2332 39.2568 32.6415 39.3093 33.0234 39.449C33.4052 39.5887 33.751 39.8119 34.0355 40.1024C34.32 40.3929 34.536 40.7433 34.6677 41.128C34.7994 41.5127 34.8434 41.9219 34.7966 42.3258V43.3048C34.7966 45.3252 33.6614 46.5749 31.8285 46.5854C31.089 46.5854 30.6308 47.3977 30.6308 48.158V49.1265C30.6003 50.0912 30.2069 51.009 29.5293 51.6963C28.8516 52.3836 27.9395 52.79 26.9753 52.8341H20.1746C19.6539 52.8341 19.1332 52.9694 19.1332 53.9901L19.1748 55.9584Z" fill="#404040"/>
<path d="M35.8378 55.9584H33.7549V54.4692C33.7549 51.626 36.5251 49.7097 39.1184 49.7097H43.9715C44.5131 49.7097 45.2108 49.1369 45.2108 48.6683V48.5537C45.2108 48.1267 44.5235 47.5956 43.9715 47.5956H42.0344C41.6393 47.6209 41.2432 47.5662 40.8698 47.4346C40.4964 47.3029 40.1535 47.0972 39.8617 46.8296C39.5698 46.5621 39.3351 46.2384 39.1716 45.8778C39.008 45.5173 38.9191 45.1274 38.9101 44.7316V43.7526C38.9101 42.1592 40.2535 40.3054 42.0344 40.3054H49.3246V42.3883H42.0344C41.6491 42.3883 40.993 43.1382 40.993 43.7526V44.7316C40.993 45.2211 41.4929 45.5127 42.0344 45.5127H43.9715C44.806 45.5097 45.6111 45.8208 46.2266 46.3843C46.8422 46.9477 47.2231 47.7222 47.2937 48.5537V48.6683C47.2267 49.5085 46.8494 50.2938 46.2353 50.8713C45.6213 51.4488 44.8143 51.7772 43.9715 51.7926H39.1184C37.5666 51.7926 35.8378 52.8966 35.8378 54.4692V55.9584Z" fill="#404040"/>
<path d="M25.423 47.6268H23.3401V25.7563C23.3401 25.4801 23.4499 25.2152 23.6452 25.0199C23.8405 24.8246 24.1054 24.7149 24.3816 24.7149H25.5063C25.7317 24.7149 25.9509 24.788 26.1312 24.9232L30.2241 28.0475C30.7165 28.3943 31.3003 28.5882 31.9023 28.6049C32.5044 28.6215 33.098 28.4603 33.6088 28.1413C32.3695 26.8499 30.1096 24.5066 28.8911 23.4027C26.9123 21.653 25.1523 20.5491 22.2987 20.5491H17.0914C16.3957 20.5031 15.6982 20.6062 15.0455 20.8516C14.3929 21.097 13.8002 21.479 13.3072 21.9721C12.8141 22.4651 12.4321 23.0578 12.1867 23.7104C11.9413 24.3631 11.8381 25.0606 11.8842 25.7563V29.9221C11.9546 30.7271 12.3063 31.4816 12.8777 32.0529C13.4491 32.6243 14.2035 32.9761 15.0085 33.0465V35.1294C13.6495 35.0614 12.3641 34.4909 11.4019 33.5287C10.4397 32.5665 9.86928 31.2812 9.80127 29.9221V25.7563C9.80127 20.7157 13.4568 18.4662 17.0914 18.4662H22.2987C23.7878 18.474 25.2606 18.7772 26.6318 19.3582C28.0029 19.9392 29.2452 20.7865 30.2866 21.8509C32.0779 23.4756 35.8167 27.4435 35.9729 27.6205C36.0682 27.722 36.1422 27.8416 36.1905 27.9722C36.2388 28.1028 36.2604 28.2417 36.2541 28.3808C36.2482 28.5216 36.2138 28.6597 36.1529 28.7868C36.092 28.9139 36.006 29.0274 35.9 29.1202C34.6399 30.1617 31.578 31.7239 28.9535 29.7034L25.423 26.9957V47.6268Z" fill="#404040"/>
<path d="M16.0502 24.7253H13.9673V47.6372H16.0502V24.7253Z" fill="#404040"/>
<path d="M20.2157 33.0569H18.1328V47.6372H20.2157V33.0569Z" fill="#404040"/>
<path d="M19.6953 17.4247C19.0989 17.4512 18.5033 17.3585 17.9432 17.152C17.3831 16.9455 16.8698 16.6293 16.4334 16.222C15.997 15.8146 15.6462 15.3244 15.4016 14.7798C15.157 14.2353 15.0234 13.6474 15.0088 13.0506V11.3843C15.0881 10.1954 15.6163 9.08101 16.4865 8.26695C17.3567 7.45289 18.5037 7 19.6953 7C20.8869 7 22.034 7.45289 22.9041 8.26695C23.7743 9.08101 24.3025 10.1954 24.3818 11.3843V13.0506C24.3658 13.647 24.2313 14.2342 23.9862 14.7781C23.7411 15.322 23.3903 15.8117 22.9542 16.2187C22.5181 16.6258 22.0054 16.942 21.4459 17.1491C20.8864 17.3561 20.2913 17.4498 19.6953 17.4247ZM19.6953 9.09314C19.3738 9.07195 19.0512 9.11447 18.7462 9.21826C18.4411 9.32205 18.1595 9.48508 17.9176 9.69796C17.6757 9.91084 17.4782 10.1694 17.3365 10.4588C17.1948 10.7482 17.1116 11.0627 17.0917 11.3843V13.0506C17.172 13.6845 17.4808 14.2672 17.9601 14.6896C18.4395 15.112 19.0564 15.3451 19.6953 15.3451C20.3342 15.3451 20.9512 15.112 21.4305 14.6896C21.9098 14.2672 22.2186 13.6845 22.2989 13.0506V11.3843C22.2791 11.0627 22.1959 10.7482 22.0542 10.4588C21.9124 10.1694 21.7149 9.91084 21.473 9.69796C21.2311 9.48508 20.9495 9.32205 20.6445 9.21826C20.3394 9.11447 20.0169 9.07195 19.6953 9.09314V9.09314Z" fill="#404040"/>
<path d="M44.6899 17.4247C44.0936 17.4512 43.4979 17.3585 42.9378 17.152C42.3777 16.9455 41.8644 16.6293 41.428 16.222C40.9916 15.8146 40.6408 15.3244 40.3962 14.7798C40.1516 14.2353 40.0181 13.6474 40.0034 13.0506V11.3843C40.0827 10.1954 40.611 9.08101 41.4811 8.26695C42.3513 7.45289 43.4984 7 44.6899 7C45.8815 7 47.0286 7.45289 47.8988 8.26695C48.7689 9.08101 49.2972 10.1954 49.3765 11.3843V13.0506C49.3604 13.647 49.2259 14.2342 48.9809 14.7781C48.7358 15.322 48.385 15.8117 47.9488 16.2187C47.5127 16.6258 47 16.942 46.4405 17.1491C45.881 17.3561 45.286 17.4498 44.6899 17.4247ZM44.6899 9.09314C44.3684 9.07195 44.0458 9.11447 43.7408 9.21826C43.4357 9.32205 43.1542 9.48508 42.9122 9.69796C42.6703 9.91084 42.4729 10.1694 42.3311 10.4588C42.1894 10.7482 42.1062 11.0627 42.0863 11.3843V13.0506C42.1667 13.6845 42.4754 14.2672 42.9548 14.6896C43.4341 15.112 44.051 15.3451 44.6899 15.3451C45.3288 15.3451 45.9458 15.112 46.4251 14.6896C46.9045 14.2672 47.2132 13.6845 47.2936 13.0506V11.3843C47.2737 11.0627 47.1905 10.7482 47.0488 10.4588C46.907 10.1694 46.7096 9.91084 46.4676 9.69796C46.2257 9.48508 45.9442 9.32205 45.6391 9.21826C45.334 9.11447 45.0115 9.07195 44.6899 9.09314V9.09314Z" fill="#FA4616"/>
</svg>
