<svg width="64" height="64" viewBox="0 0 64 64" fill="none" xmlns="http://www.w3.org/2000/svg">
<path d="M35.8741 46.4249C35.6519 46.4249 35.4387 46.3366 35.2816 46.1795C35.1244 46.0223 35.0361 45.8092 35.0361 45.5869C35.0361 45.3647 35.1244 45.1515 35.2816 44.9944C35.4387 44.8372 35.6519 44.7489 35.8741 44.7489C46.634 44.3132 52.0308 42.2349 52.0308 41.1707C52.0308 40.9484 52.119 40.7353 52.2762 40.5781C52.4334 40.421 52.6465 40.3327 52.8688 40.3327C53.091 40.3327 53.3042 40.421 53.4613 40.5781C53.6185 40.7353 53.7068 40.9484 53.7068 41.1707C53.7068 45.478 38.9077 46.2992 35.9412 46.4165L35.8741 46.4249Z" fill="#404040"/>
<path d="M28.1226 46.4249C25.1561 46.3076 10.3486 45.4864 10.3486 41.179C10.3486 40.9568 10.4369 40.7437 10.5941 40.5865C10.7512 40.4294 10.9644 40.341 11.1866 40.341C11.4089 40.341 11.622 40.4294 11.7792 40.5865C11.9364 40.7437 12.0246 40.9568 12.0246 41.179C12.0246 42.2265 17.4297 44.3216 28.1897 44.7573C28.4119 44.7573 28.6251 44.8456 28.7822 45.0028C28.9394 45.1599 29.0277 45.3731 29.0277 45.5953C29.0269 45.7105 29.0023 45.8244 28.9556 45.9297C28.9088 46.035 28.8409 46.1295 28.7559 46.2074C28.671 46.2852 28.5709 46.3447 28.462 46.3822C28.353 46.4196 28.2375 46.4342 28.1226 46.4249Z" fill="#404040"/>
<path d="M48.3104 26.2962C48.1327 26.2955 47.9597 26.2383 47.8166 26.1329C47.6735 26.0274 47.5677 25.8792 47.5143 25.7096C46.559 25.0308 40.8103 24.1342 31.9946 24.1342C23.1788 24.1342 17.4301 25.0308 16.4832 25.7096C16.4213 25.8981 16.2945 26.0586 16.1254 26.1624C15.9562 26.2662 15.7558 26.3065 15.5596 26.2764C15.3635 26.2462 15.1844 26.1474 15.0543 25.9976C14.9242 25.8477 14.8515 25.6566 14.8491 25.4582C14.8491 22.7514 26.8409 22.4582 31.9946 22.4582C37.1483 22.4582 49.1484 22.7514 49.1484 25.4582C49.1484 25.6804 49.0601 25.8936 48.903 26.0508C48.7458 26.2079 48.5327 26.2962 48.3104 26.2962Z" fill="#FA4616"/>
<path d="M35.874 46.2322C35.6518 46.2322 35.4386 46.1439 35.2815 45.9868C35.1243 45.8296 35.036 45.6165 35.036 45.3942V39.9807C35.0745 39.5586 35.0245 39.133 34.8893 38.7313C34.7541 38.3295 34.5367 37.9604 34.2509 37.6473C33.9651 37.3343 33.6171 37.0843 33.2293 36.9132C32.8414 36.7421 32.4222 36.6538 31.9983 36.6538C31.5744 36.6538 31.1551 36.7421 30.7673 36.9132C30.3795 37.0843 30.0315 37.3343 29.7457 37.6473C29.4599 37.9604 29.2424 38.3295 29.1072 38.7313C28.972 39.133 28.9221 39.5586 28.9605 39.9807V45.3942C28.9605 45.6165 28.8722 45.8296 28.7151 45.9868C28.5579 46.1439 28.3448 46.2322 28.1225 46.2322C27.9003 46.2322 27.6871 46.1439 27.53 45.9868C27.3728 45.8296 27.2845 45.6165 27.2845 45.3942V39.9807C27.2372 39.3327 27.3239 38.682 27.5394 38.069C27.7548 37.4561 28.0943 36.8942 28.5366 36.4183C28.979 35.9425 29.5147 35.5629 30.1103 35.3034C30.7059 35.0439 31.3486 34.9099 31.9983 34.9099C32.648 34.9099 33.2907 35.0439 33.8863 35.3034C34.4819 35.5629 35.0176 35.9425 35.46 36.4183C35.9023 36.8942 36.2418 37.4561 36.4572 38.069C36.6726 38.682 36.7594 39.3327 36.712 39.9807V45.3942C36.712 45.6165 36.6237 45.8296 36.4666 45.9868C36.3094 46.1439 36.0963 46.2322 35.874 46.2322Z" fill="#404040"/>
<path d="M26.5807 39.6958H26.5388C19.5583 39.369 13.8515 38.422 11.2872 37.1818C11.1882 37.1334 11.0996 37.0659 11.0266 36.9832C10.9537 36.9006 10.8977 36.8044 10.8619 36.7001C10.7896 36.4896 10.8039 36.2589 10.9017 36.0589C10.9995 35.8588 11.1728 35.7059 11.3833 35.6336C11.4876 35.5978 11.5979 35.5828 11.7079 35.5897C11.818 35.5965 11.9256 35.6249 12.0246 35.6734C14.3626 36.8214 19.9521 37.7265 26.6226 38.0365C26.8448 38.0421 27.0558 38.1357 27.209 38.2968C27.3622 38.4579 27.4452 38.6732 27.4396 38.8955C27.4341 39.1177 27.3405 39.3287 27.1794 39.4819C27.0183 39.6351 26.803 39.7181 26.5807 39.7125V39.6958Z" fill="#FA4616"/>
<path d="M37.5919 39.6874C37.3697 39.6874 37.1565 39.5991 36.9994 39.442C36.8422 39.2848 36.7539 39.0717 36.7539 38.8494C36.7539 38.6272 36.8422 38.414 36.9994 38.2569C37.1565 38.0997 37.3697 38.0114 37.5919 38.0114C44.1451 37.693 49.6507 36.788 51.9552 35.6567C52.1553 35.5589 52.3859 35.5445 52.5965 35.6168C52.8071 35.6891 52.9804 35.8421 53.0781 36.0421C53.1759 36.2421 53.1903 36.4728 53.118 36.6834C53.0457 36.894 52.8927 37.0673 52.6926 37.1651C50.1787 38.4053 44.5473 39.3522 37.6757 39.6791L37.5919 39.6874Z" fill="#FA4616"/>
<path d="M41.7737 25.8939C41.6156 25.8948 41.4608 25.8481 41.3296 25.7599C41.1427 25.6424 41.0097 25.4559 40.9595 25.2409C40.9093 25.026 40.9459 24.7999 41.0614 24.6118L41.8491 23.3632C41.968 23.1777 42.155 23.0464 42.3699 22.9978C42.5847 22.9492 42.8101 22.9871 42.9972 23.1034C43.0909 23.1616 43.1722 23.2377 43.2364 23.3274C43.3006 23.417 43.3464 23.5185 43.3713 23.626C43.3963 23.7334 43.3997 23.8447 43.3816 23.9535C43.3634 24.0622 43.3239 24.1663 43.2653 24.2598L42.486 25.5001C42.4105 25.6209 42.3055 25.7204 42.1809 25.7893C42.0563 25.8582 41.9161 25.8942 41.7737 25.8939V25.8939Z" fill="#FA4616"/>
<path d="M34.5165 25.5671C34.4441 25.5752 34.3711 25.5752 34.2987 25.5671C34.0844 25.51 33.9015 25.3705 33.79 25.1788C33.6785 24.9872 33.6474 24.7592 33.7037 24.5448L34.0305 23.3213C34.0975 23.1187 34.2393 22.9494 34.4269 22.8477C34.6145 22.7461 34.8339 22.7199 35.0401 22.7744C35.2464 22.8289 35.4242 22.96 35.5371 23.1411C35.65 23.3221 35.6896 23.5394 35.6478 23.7486L35.321 24.9721C35.2687 25.1446 35.1622 25.2957 35.0173 25.4029C34.8724 25.51 34.6968 25.5676 34.5165 25.5671Z" fill="#FA4616"/>
<path d="M22.2232 25.894C22.0808 25.8942 21.9406 25.8582 21.816 25.7893C21.6914 25.7204 21.5864 25.6209 21.5109 25.5001L20.7316 24.2598C20.6727 24.1669 20.6327 24.0632 20.6139 23.9548C20.5951 23.8463 20.5978 23.7352 20.6219 23.6278C20.6461 23.5204 20.6911 23.4189 20.7545 23.3289C20.8178 23.2389 20.8983 23.1623 20.9913 23.1034C21.0843 23.0445 21.188 23.0046 21.2965 22.9858C21.4049 22.967 21.516 22.9697 21.6234 22.9938C21.7307 23.0179 21.8323 23.063 21.9223 23.1264C22.0123 23.1897 22.0889 23.2702 22.1478 23.3632L22.9271 24.6118C22.9889 24.7073 23.0307 24.8143 23.0498 24.9263C23.0689 25.0384 23.065 25.1533 23.0384 25.2638C23.0117 25.3744 22.9629 25.4783 22.8948 25.5693C22.8266 25.6604 22.7407 25.7366 22.6422 25.7934C22.5137 25.8629 22.3692 25.8975 22.2232 25.894V25.894Z" fill="#FA4616"/>
<path d="M29.4801 25.5671C29.2897 25.5731 29.1031 25.5142 28.9508 25.4C28.7984 25.2857 28.6896 25.123 28.6421 24.9386L28.3152 23.7152C28.2585 23.4996 28.2898 23.2703 28.4022 23.0778C28.5146 22.8852 28.6988 22.7453 28.9144 22.6886C29.13 22.6319 29.3592 22.6632 29.5518 22.7756C29.7443 22.8879 29.8843 23.0722 29.9409 23.2878L30.2678 24.5112C30.324 24.7257 30.293 24.9537 30.1815 25.1453C30.0699 25.337 29.887 25.4766 29.6728 25.5336C29.6097 25.5507 29.5452 25.5619 29.4801 25.5671Z" fill="#FA4616"/>
<path d="M31.9939 28.6593C22.7172 28.6593 7.02148 27.5364 7.02148 23.3297C7.02148 19.1229 22.7172 18 31.9939 18C41.2705 18 56.9998 19.0894 56.9998 23.3297C56.9998 27.5699 41.2705 28.6593 31.9939 28.6593ZM31.9939 19.676C16.9099 19.676 8.69748 22.0894 8.69748 23.3297C8.69748 24.5699 16.9183 26.9833 31.9939 26.9833C47.0695 26.9833 55.3238 24.5699 55.3238 23.3297C55.3238 22.0894 47.0695 19.676 31.9939 19.676V19.676Z" fill="#404040"/>
<path d="M52.8101 42.0087H52.6509C52.4335 41.9679 52.241 41.8428 52.1154 41.6607C51.9899 41.4786 51.9414 41.2543 51.9805 41.0366L55.3241 23.1788C55.3434 23.0704 55.3838 22.9668 55.443 22.874C55.5023 22.7812 55.5792 22.701 55.6695 22.638C55.7598 22.575 55.8616 22.5303 55.9691 22.5066C56.0767 22.483 56.1878 22.4807 56.2962 22.5C56.4047 22.5202 56.5082 22.5616 56.6007 22.6218C56.6932 22.682 56.7728 22.7599 56.8351 22.851C56.8974 22.9421 56.9411 23.0446 56.9637 23.1526C56.9862 23.2607 56.9872 23.3721 56.9666 23.4805L53.6481 41.3215C53.6125 41.5168 53.5086 41.693 53.3552 41.8188C53.2017 41.9446 53.0086 42.0119 52.8101 42.0087V42.0087Z" fill="#404040"/>
<path d="M11.1532 42.0087C10.9548 42.0119 10.7616 41.9446 10.6082 41.8188C10.4547 41.693 10.3509 41.5168 10.3152 41.3215L7.01347 23.4805C6.99366 23.3705 6.99572 23.2576 7.01953 23.1484C7.04334 23.0391 7.08845 22.9356 7.15226 22.8438C7.21607 22.7519 7.29733 22.6736 7.39142 22.6132C7.48551 22.5528 7.59059 22.5115 7.70063 22.4917C7.81068 22.4719 7.92354 22.4739 8.03279 22.4978C8.14204 22.5216 8.24555 22.5666 8.33737 22.6304C8.42919 22.6942 8.50753 22.7756 8.56794 22.8696C8.62836 22.9637 8.66966 23.0688 8.68947 23.1788L11.9912 41.0198C12.0105 41.1282 12.0082 41.2394 11.9846 41.3469C11.9609 41.4544 11.9163 41.5563 11.8532 41.6465C11.7902 41.7368 11.71 41.8138 11.6172 41.8731C11.5244 41.9323 11.4208 41.9727 11.3124 41.9919L11.1532 42.0087Z" fill="#404040"/>
</svg>
