<svg width="64" height="64" viewBox="0 0 64 64" fill="none" xmlns="http://www.w3.org/2000/svg">
<path d="M32.6806 46.8977C31.3906 46.8383 30.1656 46.3144 29.2316 45.4225L20.9208 37.0598C20.2934 36.4938 19.8273 35.7716 19.57 34.9668C19.3127 34.162 19.2734 33.3034 19.456 32.4784L17.8043 30.8267C17.7029 30.7247 17.6237 30.6028 17.5719 30.4687C17.52 30.3346 17.4966 30.1912 17.503 30.0475C17.5075 29.9053 17.5412 29.7655 17.6019 29.6369C17.6627 29.5082 17.7492 29.3934 17.8562 29.2996L25.1281 23.0665C25.3184 22.8971 25.5643 22.8035 25.819 22.8035C26.0737 22.8035 26.3196 22.8971 26.5098 23.0665L29.377 25.6947C29.5595 25.8854 29.6626 26.1384 29.6653 26.4024C29.6681 26.6663 29.5702 26.9213 29.3917 27.1157C29.2131 27.3101 28.9673 27.4293 28.7041 27.449C28.4409 27.4687 28.1801 27.3875 27.9746 27.2219L25.7826 25.2169L20.069 30.1203L21.3467 31.4084C21.4785 31.5428 21.5713 31.7104 21.6152 31.8934C21.6591 32.0763 21.6525 32.2678 21.5961 32.4473C21.3912 32.9875 21.3602 33.5783 21.5073 34.137C21.6545 34.6957 21.9724 35.1945 22.4168 35.5638L30.7276 43.8746C32.8052 45.6822 34.0207 44.3525 34.4155 43.8746C34.5093 43.7677 34.6241 43.6811 34.7528 43.6204C34.8815 43.5596 35.0212 43.5259 35.1634 43.5214C35.6156 43.5505 36.0656 43.4381 36.4509 43.1999C36.8363 42.9616 37.1379 42.6092 37.3139 42.1917C37.3692 42.006 37.4754 41.8395 37.6204 41.711C37.7655 41.5825 37.9436 41.4971 38.1346 41.4645C38.6318 41.4222 39.1107 41.2566 39.5279 40.9828C39.9451 40.7089 40.2874 40.3353 40.5239 39.8958C40.63 39.7049 40.7936 39.5522 40.9914 39.4595C41.2575 39.3647 41.4971 39.2078 41.6904 39.0018C41.8838 38.7959 42.0252 38.5468 42.103 38.2752C42.1424 38.0365 42.1254 37.7919 42.0532 37.561C41.9811 37.33 41.8558 37.1193 41.6874 36.9455C41.5028 36.7402 41.4073 36.47 41.4219 36.1944C41.4365 35.9187 41.5601 35.6601 41.7653 35.4755C41.9706 35.2909 42.2408 35.1954 42.5165 35.21C42.7921 35.2247 43.0507 35.3482 43.2353 35.5535C43.6184 35.9666 43.8996 36.4635 44.0565 37.0046C44.2134 37.5457 44.2417 38.116 44.1391 38.67C44.0138 39.2079 43.7708 39.7114 43.4278 40.1443C43.0847 40.5772 42.65 40.9287 42.1549 41.1736C41.8083 41.7277 41.3538 42.2064 40.8183 42.5812C40.2829 42.956 39.6776 43.2192 39.0383 43.3552C38.6953 43.9702 38.2058 44.4911 37.6132 44.8717C37.0206 45.2522 36.3433 45.4807 35.6413 45.5368C35.265 45.9514 34.8087 46.2857 34.2999 46.5196C33.7911 46.7534 33.2403 46.882 32.6806 46.8977Z" fill="#404040"/>
<path d="M42.3727 37.361C42.1202 37.3607 41.8764 37.2684 41.6871 37.1013C39.8898 35.5119 34.7371 30.8059 34.6852 30.7539C33.709 30.6912 32.7292 30.793 31.7868 31.0552C31.1843 31.1799 30.5817 31.2942 30.0415 31.3669C29.2015 31.4063 28.3658 31.2258 27.6169 30.8432C26.8681 30.4606 26.2321 29.8891 25.7719 29.1853C25.5358 28.8983 25.3901 28.5477 25.3531 28.1779C25.3161 27.8081 25.3895 27.4357 25.5641 27.1076C26.364 25.8194 33.449 23.669 34.4567 23.9079L35.0592 24.0741C36.4069 24.5173 37.8013 24.8031 39.2146 24.926H41.2923C41.4449 24.9258 41.5957 24.9591 41.734 25.0238C41.8722 25.0884 41.9945 25.1827 42.0922 25.3L47.2865 31.5331C47.3969 31.6631 47.4736 31.8183 47.5098 31.985C47.5461 32.1517 47.5407 32.3247 47.4942 32.4888C47.0277 33.8987 46.1918 35.1578 45.0737 36.1352C44.6914 36.4504 44.2729 36.719 43.8271 36.9351C43.4201 37.1222 42.9956 37.2683 42.5597 37.3714C42.4972 37.3752 42.4344 37.3717 42.3727 37.361V37.361ZM34.2177 28.6243C34.561 28.5952 34.9067 28.6364 35.2336 28.7453C35.5604 28.8543 35.8616 29.0287 36.1188 29.258C36.1188 29.258 40.5755 33.3303 42.6428 35.169L42.9648 35.0236C43.264 34.8845 43.5435 34.7063 43.7959 34.4938C44.4684 33.912 44.998 33.1834 45.3438 32.3642L40.856 26.9725H39.2561C37.6317 26.8589 36.027 26.5485 34.4774 26.0479L34.0515 25.9233C31.806 26.4136 29.619 27.1414 27.5275 28.0945C27.7809 28.4596 28.1175 28.7592 28.5094 28.9688C28.9014 29.1783 29.3375 29.2916 29.7818 29.2996C30.2701 29.2372 30.8207 29.1333 31.3817 29.0191C32.3122 28.797 33.2619 28.6648 34.2177 28.6243V28.6243Z" fill="#404040"/>
<path d="M27.6009 47.1366C26.8202 47.1231 26.0515 46.9424 25.3466 46.6068C23.3686 45.4524 21.6779 43.8647 20.4016 41.9631L19.7575 41.1321C19.2532 40.5089 18.978 39.7314 18.978 38.9297C18.978 38.128 19.2532 37.3505 19.7575 36.7273L20.9003 35.595C21.099 35.4248 21.3546 35.3359 21.6161 35.346C21.8776 35.3561 22.1256 35.4645 22.3106 35.6495C22.4956 35.8345 22.604 36.0825 22.6141 36.344C22.6242 36.6054 22.5352 36.861 22.3651 37.0598L21.2327 38.2025C21.1073 38.4633 21.0565 38.7536 21.0858 39.0414C21.1151 39.3293 21.2235 39.6034 21.3989 39.8335L22.0742 40.6958C23.168 42.3448 24.616 43.729 26.3127 44.7473C26.5914 44.9088 26.9011 45.0099 27.2215 45.0439C27.5418 45.0779 27.8658 45.0441 28.1722 44.9446L29.2111 43.9058C29.4098 43.7356 29.6654 43.6467 29.9269 43.6568C30.1883 43.6669 30.4364 43.7753 30.6214 43.9603C30.8064 44.1453 30.9148 44.3933 30.9249 44.6547C30.935 44.9162 30.846 45.1718 30.6759 45.3706L29.637 46.4094C29.3636 46.6608 29.0425 46.8547 28.6927 46.9796C28.3429 47.1045 27.9717 47.1579 27.6009 47.1366Z" fill="#404040"/>
<path d="M35.1009 45.6718C34.8284 45.6707 34.5672 45.5625 34.3737 45.3706L31.2572 42.254C31.1484 42.1609 31.0601 42.0463 30.9977 41.9174C30.9354 41.7885 30.9003 41.6481 30.8948 41.5051C30.8893 41.362 30.9134 41.2193 30.9656 41.086C31.0179 40.9527 31.0971 40.8316 31.1983 40.7304C31.2996 40.6292 31.4206 40.5499 31.5539 40.4977C31.6873 40.4455 31.8299 40.4214 31.973 40.4269C32.116 40.4324 32.2564 40.4675 32.3853 40.5298C32.5142 40.5922 32.6288 40.6805 32.7219 40.7892L35.8385 43.9058C36.032 44.1004 36.1406 44.3637 36.1406 44.6382C36.1406 44.9126 36.032 45.1759 35.8385 45.3706C35.7414 45.4669 35.6263 45.543 35.4997 45.5947C35.3731 45.6464 35.2376 45.6726 35.1009 45.6718V45.6718Z" fill="#404040"/>
<path d="M38.2176 43.5942C37.9451 43.593 37.6839 43.4848 37.4904 43.2929L34.3739 40.1763C34.2651 40.0832 34.1768 39.9686 34.1144 39.8397C34.0521 39.7108 34.017 39.5704 34.0115 39.4274C34.006 39.2843 34.0301 39.1416 34.0823 39.0083C34.1346 38.875 34.2138 38.754 34.315 38.6527C34.4163 38.5515 34.5373 38.4722 34.6706 38.42C34.804 38.3678 34.9466 38.3437 35.0897 38.3492C35.2327 38.3547 35.3731 38.3898 35.502 38.4521C35.6309 38.5145 35.7455 38.6028 35.8386 38.7116L38.9552 41.8281C39.1487 42.0227 39.2573 42.2861 39.2573 42.5605C39.2573 42.835 39.1487 43.0982 38.9552 43.2929C38.8581 43.3892 38.743 43.4654 38.6164 43.5171C38.4898 43.5688 38.3543 43.5949 38.2176 43.5942V43.5942Z" fill="#404040"/>
<path d="M41.3338 41.5165C41.0613 41.5153 40.8001 41.4071 40.6066 41.2152L37.4901 38.0986C37.3813 38.0055 37.293 37.8909 37.2306 37.762C37.1683 37.6331 37.1333 37.4927 37.1277 37.3497C37.1222 37.2066 37.1463 37.0639 37.1985 36.9306C37.2508 36.7973 37.33 36.6762 37.4312 36.575C37.5325 36.4738 37.6535 36.3945 37.7869 36.3423C37.9202 36.2901 38.0628 36.266 38.2059 36.2715C38.349 36.277 38.4894 36.3121 38.6182 36.3744C38.7471 36.4368 38.8617 36.5251 38.9548 36.6338L42.0714 39.7504C42.2649 39.945 42.3735 40.2084 42.3735 40.4828C42.3735 40.7573 42.2649 41.0205 42.0714 41.2152C41.9743 41.3115 41.8592 41.3877 41.7326 41.4394C41.6061 41.491 41.4705 41.5172 41.3338 41.5165V41.5165Z" fill="#404040"/>
<path d="M11.3428 44.446C11.199 44.4461 11.0571 44.4142 10.9272 44.3525C9.47285 43.7188 8.51711 42.2748 7.51981 40.3633L7.0835 39.5218L7.8938 39.0128C8.53571 38.5802 9.26177 38.2881 10.0244 38.1556C10.7871 38.0232 11.5691 38.0533 12.3193 38.2441C13.3065 38.5705 14.2147 39.0995 14.9857 39.7972C15.7567 40.4948 16.3735 41.3458 16.7967 42.2956C16.8765 42.4165 16.9301 42.5528 16.9541 42.6958C16.9781 42.8387 16.9719 42.985 16.9359 43.1254C16.8999 43.2657 16.835 43.3971 16.7453 43.5108C16.6556 43.6246 16.543 43.7184 16.4149 43.7861C16.2868 43.8538 16.1459 43.8939 16.0013 43.9039C15.8568 43.9139 15.7117 43.8936 15.5755 43.8442C15.4393 43.7948 15.3149 43.7175 15.2103 43.6172C15.1058 43.5169 15.0233 43.3958 14.9684 43.2617C14.6722 42.5674 14.2361 41.9416 13.6874 41.4233C13.1387 40.905 12.4891 40.5052 11.7791 40.249C11.1475 40.0831 10.48 40.1157 9.86761 40.3425C10.2705 41.2122 10.9304 41.9373 11.7583 42.4202C11.9793 42.5143 12.1608 42.6821 12.272 42.895C12.3832 43.1079 12.4173 43.3527 12.3683 43.5879C12.3193 43.823 12.1903 44.0339 12.0034 44.1847C11.8164 44.3355 11.583 44.4168 11.3428 44.4148V44.446Z" fill="#FA4616"/>
<path d="M15.9964 50.9284H15.8925C14.1577 50.9284 12.4228 49.8896 10.6983 48.0196L10.0542 47.3028L10.7295 46.6068C11.2945 45.978 11.9869 45.4767 12.7607 45.1364C13.5345 44.7961 14.372 44.6244 15.2173 44.633C16.2246 44.7012 17.2067 44.9785 18.1009 45.4471C18.9952 45.9157 19.7821 46.5654 20.4115 47.3548L21.0556 48.082L20.3804 48.7676C19.8329 49.4046 19.1624 49.9243 18.409 50.2956C17.6557 50.6669 16.835 50.8822 15.9964 50.9284ZM13.0357 47.3963C13.7922 48.2183 14.823 48.7355 15.9341 48.8507C16.7508 48.839 17.5375 48.5412 18.1572 48.0092C17.3595 47.2455 16.3191 46.786 15.2173 46.7107C14.4369 46.7093 13.675 46.9487 13.0357 47.3963V47.3963Z" fill="#FA4616"/>
<path d="M13.9187 37.5273C13.6537 37.5277 13.3985 37.4269 13.2054 37.2453C13.0122 37.0638 12.8958 36.8153 12.8799 36.5507C12.8851 35.7606 12.7336 34.9773 12.434 34.2462C12.1344 33.5151 11.6928 32.8507 11.1346 32.2914C10.6038 31.8273 9.95145 31.5245 9.2543 31.4188C9.35198 32.7136 9.94778 33.92 10.9165 34.7847C11.1369 34.95 11.2826 35.1961 11.3216 35.4689C11.3605 35.7416 11.2895 36.0186 11.1242 36.2391C10.9589 36.4595 10.7128 36.6052 10.4401 36.6442C10.1673 36.6831 9.89026 36.6122 9.66984 36.4468C8.11157 35.2833 7.23893 33.2472 7.06233 30.3904L7 29.3515L8.03885 29.2684C8.84419 29.191 9.65685 29.2792 10.4268 29.5275C11.1968 29.7759 11.9079 30.1791 12.5163 30.7124C13.2855 31.4493 13.8996 32.3325 14.3224 33.3101C14.7452 34.2878 14.9682 35.3401 14.9784 36.4053C14.9868 36.5418 14.9682 36.6786 14.9237 36.8078C14.8791 36.9371 14.8095 37.0563 14.7187 37.1586C14.628 37.2609 14.518 37.3443 14.395 37.404C14.272 37.4637 14.1384 37.4985 14.0018 37.5065L13.9187 37.5273Z" fill="#FA4616"/>
<path d="M14.095 30.8475C13.9952 30.8621 13.8937 30.8621 13.7938 30.8475C13.5312 30.7681 13.3106 30.5882 13.1802 30.3468C13.0498 30.1055 13.0202 29.8224 13.0977 29.5593C13.9392 26.7752 13.3263 24.4793 11.5083 23.3262C11.1659 24.5861 11.3106 25.9287 11.9135 27.0868C12.0441 27.3205 12.0796 27.5956 12.0124 27.8547C11.9452 28.1139 11.7805 28.3371 11.5527 28.4778C11.3249 28.6185 11.0516 28.6658 10.7898 28.6099C10.528 28.5539 10.2978 28.3991 10.1474 28.1776C9.10856 26.4947 8.99428 24.2611 9.80459 21.5497L10.1162 20.5109L11.1551 20.8641C14.8118 22.1315 16.3493 25.8714 15.1027 30.2137C15.0199 30.4099 14.8789 30.5759 14.6986 30.6892C14.5184 30.8026 14.3077 30.8578 14.095 30.8475V30.8475Z" fill="#FA4616"/>
<path d="M16.5159 24.23C16.2718 24.2275 16.0365 24.1393 15.851 23.9807C15.7466 23.8927 15.6605 23.785 15.5977 23.6638C15.5349 23.5426 15.4966 23.4102 15.485 23.2741C15.4735 23.1381 15.4888 23.0011 15.5302 22.871C15.5716 22.7409 15.6383 22.6202 15.7263 22.5159C17.5963 20.2927 17.9495 17.9449 16.7652 16.1477C15.9535 17.1703 15.5567 18.461 15.6536 19.7629C15.6734 19.8993 15.6661 20.0383 15.6322 20.1719C15.5983 20.3055 15.5383 20.4312 15.4559 20.5416C15.3734 20.6521 15.27 20.7452 15.1515 20.8157C15.033 20.8862 14.9018 20.9326 14.7654 20.9524C14.629 20.9722 14.49 20.9649 14.3564 20.931C14.2228 20.897 14.0972 20.8371 13.9867 20.7547C13.8763 20.6722 13.7831 20.5687 13.7126 20.4503C13.6422 20.3318 13.5957 20.2006 13.5759 20.0642C13.285 18.1008 14.0746 16.0127 15.9029 13.8311L16.599 13L17.3989 13.7376C20.2453 16.3451 20.2142 20.4174 17.3158 23.8456C17.2191 23.9648 17.0973 24.061 16.9589 24.1275C16.8206 24.194 16.6693 24.2289 16.5159 24.23Z" fill="#FA4616"/>
<path d="M52.6264 44.446C52.4236 44.4467 52.2251 44.388 52.0553 44.2773C51.8855 44.1665 51.7518 44.0085 51.6707 43.8227C51.6153 43.6979 51.5851 43.5633 51.5818 43.4269C51.5785 43.2904 51.6021 43.1546 51.6513 43.0272C51.7005 42.8998 51.7743 42.7834 51.8686 42.6846C51.9628 42.5858 52.0756 42.5066 52.2005 42.4514C53.0344 41.9728 53.6988 41.2467 54.1016 40.3737C53.4891 40.1469 52.8217 40.1143 52.1901 40.2802C51.4801 40.5364 50.8305 40.9361 50.2818 41.4545C49.7331 41.9728 49.297 42.5986 49.0008 43.2928C48.9393 43.4169 48.8536 43.5274 48.7487 43.6179C48.6439 43.7084 48.522 43.7769 48.3903 43.8196C48.2586 43.8623 48.1196 43.8782 47.9817 43.8664C47.8437 43.8546 47.7095 43.8154 47.5869 43.751C47.4643 43.6866 47.3558 43.5983 47.2679 43.4914C47.1799 43.3844 47.1142 43.261 47.0746 43.1283C47.035 42.9956 47.0224 42.8563 47.0374 42.7187C47.0524 42.581 47.0948 42.4478 47.1621 42.3267C47.5886 41.3773 48.2077 40.5269 48.9803 39.8295C49.7529 39.132 50.6619 38.6027 51.6499 38.2752C52.4001 38.0844 53.1821 38.0543 53.9448 38.1868C54.7074 38.3193 55.4335 38.6114 56.0754 39.044L56.8857 39.553L56.4494 40.3944C55.4105 42.3267 54.4963 43.75 53.0419 44.3837C52.9091 44.4325 52.7677 44.4537 52.6264 44.446V44.446Z" fill="#FA4616"/>
<path d="M47.9824 50.9284C47.1385 50.8863 46.3119 50.6731 45.5529 50.3016C44.7939 49.9301 44.1184 49.4083 43.5673 48.7676L42.8921 48.082L43.5362 47.3548C44.1656 46.5654 44.9525 45.9157 45.8468 45.4471C46.7411 44.9785 47.7231 44.7012 48.7304 44.633C49.5736 44.6286 50.4082 44.8021 51.1797 45.1422C51.9513 45.4823 52.6423 45.9814 53.2079 46.6068L53.8935 47.3028L53.2494 48.0196C51.5665 49.9103 49.8316 50.8869 48.0552 50.9284H47.9824ZM45.8216 48.0092C46.4396 48.5443 47.2274 48.8425 48.0448 48.8507C49.1559 48.7355 50.1867 48.2183 50.9432 47.3963C50.306 46.9443 49.5427 46.7044 48.7616 46.7107C47.6598 46.786 46.6194 47.2455 45.8216 48.0092Z" fill="#FA4616"/>
<path d="M50.0608 37.5273H49.9985C49.862 37.5193 49.7284 37.4845 49.6054 37.4248C49.4824 37.3651 49.3723 37.2817 49.2816 37.1794C49.1909 37.0771 49.1213 36.9579 49.0767 36.8286C49.0322 36.6994 49.0136 36.5626 49.022 36.4261C49.0336 35.3597 49.2573 34.3062 49.68 33.3271C50.1027 32.3479 50.716 31.4627 51.4841 30.7228C52.0956 30.1949 52.8073 29.7959 53.5767 29.5496C54.346 29.3033 55.1571 29.2147 55.9615 29.2892L57.0004 29.3723L56.938 30.4112C56.7614 33.268 55.8992 35.3041 54.3305 36.4676C54.2214 36.5495 54.0972 36.6091 53.965 36.6429C53.8329 36.6768 53.6953 36.6843 53.5603 36.665C53.2875 36.626 53.0415 36.4803 52.8761 36.2599C52.7108 36.0395 52.6398 35.7624 52.6788 35.4897C52.7178 35.2169 52.8635 34.9708 53.0839 34.8055C54.0526 33.9409 54.6484 32.7344 54.7461 31.4396C54.0484 31.5436 53.3955 31.8466 52.8657 32.3122C52.3076 32.8715 51.8659 33.5359 51.5664 34.267C51.2668 34.9981 51.1152 35.7814 51.1205 36.5715C51.0993 36.836 50.9778 37.0824 50.7807 37.2601C50.5837 37.4378 50.3261 37.5334 50.0608 37.5273Z" fill="#FA4616"/>
<path d="M49.8837 30.8475C49.6532 30.8573 49.426 30.7902 49.2379 30.6566C49.0498 30.5231 48.9115 30.3307 48.8448 30.1099C47.5566 25.809 49.1357 22.0692 52.7925 20.7602L53.8313 20.407L54.143 21.4458C54.9636 24.1572 54.8494 26.3908 53.8001 28.0737C53.6429 28.2773 53.4157 28.4152 53.1625 28.4609C52.9094 28.5065 52.6483 28.4567 52.4298 28.321C52.2114 28.1852 52.051 27.9732 51.9798 27.7261C51.9086 27.4789 51.9317 27.2141 52.0445 26.9829C52.6474 25.8249 52.792 24.4822 52.4496 23.2223C50.6316 24.3962 50.0187 26.692 50.8602 29.4554C50.9065 29.6136 50.9145 29.7806 50.8834 29.9426C50.8524 30.1045 50.7833 30.2567 50.6818 30.3867C50.5803 30.5166 50.4493 30.6205 50.2997 30.6898C50.15 30.7591 49.9861 30.7917 49.8213 30.7851L49.8837 30.8475Z" fill="#FA4616"/>
<path d="M47.432 24.23C47.2794 24.2302 47.1286 24.1968 46.9904 24.1322C46.8521 24.0675 46.7298 23.9733 46.6321 23.856C43.7337 20.4278 43.7026 16.3659 46.549 13.748L47.3385 13.0104L48.045 13.8415C49.8733 16.0023 50.6525 18.1007 50.372 20.0746C50.332 20.3501 50.1843 20.5984 49.9612 20.765C49.7381 20.9316 49.458 21.0027 49.1825 20.9628C48.907 20.9228 48.6586 20.7751 48.492 20.552C48.3255 20.3289 48.2543 20.0488 48.2943 19.7733C48.3883 18.47 47.9877 17.1792 47.1723 16.1581C45.9776 17.9553 46.3205 20.3135 48.2112 22.5263C48.3403 22.6772 48.4234 22.8619 48.4507 23.0586C48.478 23.2553 48.4484 23.4557 48.3653 23.6361C48.2822 23.8165 48.1492 23.9693 47.9819 24.0764C47.8147 24.1835 47.6202 24.2404 47.4217 24.2404L47.432 24.23Z" fill="#FA4616"/>
</svg>
