<svg width="64" height="64" viewBox="0 0 64 64" fill="none" xmlns="http://www.w3.org/2000/svg">
<path d="M29.8752 47.625C29.6962 47.6245 29.5204 47.5778 29.3647 47.4896C29.2038 47.3991 29.0699 47.2676 28.9765 47.1083C28.8832 46.9491 28.8338 46.7679 28.8335 46.5833V30.9583C28.8346 30.7765 28.8832 30.5982 28.9746 30.4411C29.066 30.2839 29.1969 30.1534 29.3543 30.0625C34.9377 26.8021 39.0939 27.5729 43.1147 28.3125C46.4689 28.9271 49.9377 29.5729 54.521 27.8958C54.6783 27.839 54.8469 27.8208 55.0127 27.8429C55.1785 27.865 55.3365 27.9266 55.4734 28.0227C55.6103 28.1187 55.722 28.2463 55.7992 28.3947C55.8764 28.543 55.9168 28.7078 55.9168 28.875V44.5C55.9175 44.7128 55.853 44.9208 55.7319 45.0958C55.6109 45.2709 55.4391 45.4047 55.2397 45.4792C50.1147 47.3542 46.1981 46.625 42.7397 45.9896C38.7606 45.25 35.3231 44.6146 30.4064 47.4792C30.2456 47.5746 30.0621 47.6249 29.8752 47.625ZM30.9168 31.5625V44.8542C35.7293 42.5729 39.4793 43.2604 43.1147 43.9375C46.3022 44.5312 49.5835 45.1354 53.8335 43.7604V30.3125C49.396 31.5938 45.8752 30.9375 42.7397 30.3125C38.9064 29.6563 35.5627 29.0312 30.9168 31.5625Z" fill="#404040"/>
<path d="M30.9168 57H28.8335V26.7917C28.8335 25.9629 29.1627 25.168 29.7488 24.582C30.3348 23.9959 31.1297 23.6667 31.9585 23.6667C32.7873 23.6667 33.5822 23.9959 34.1682 24.582C34.7543 25.168 35.0835 25.9629 35.0835 26.7917V28.875H33.0002V26.7917C33.0002 26.5154 32.8904 26.2504 32.6951 26.0551C32.4997 25.8597 32.2348 25.75 31.9585 25.75C31.6822 25.75 31.4173 25.8597 31.2219 26.0551C31.0266 26.2504 30.9168 26.5154 30.9168 26.7917V57Z" fill="#404040"/>
<path d="M35.0833 44.5H33V57H35.0833V44.5Z" fill="#404040"/>
<path d="M19.4582 39.2917C19.2792 39.2911 19.1034 39.2445 18.9478 39.1563C18.7868 39.0658 18.6529 38.9342 18.5595 38.775C18.4662 38.6158 18.4168 38.4346 18.4165 38.25V22.625C18.4176 22.4432 18.4663 22.2649 18.5576 22.1077C18.649 21.9506 18.7799 21.82 18.9373 21.7292C24.5207 18.4687 28.6769 19.2396 32.6978 19.9792C36.0519 20.5937 39.5207 21.2396 44.104 19.5625C44.2613 19.5056 44.4299 19.4875 44.5957 19.5096C44.7615 19.5317 44.9195 19.5933 45.0564 19.6893C45.1933 19.7854 45.3051 19.913 45.3822 20.0613C45.4594 20.2097 45.4998 20.3744 45.4998 20.5417V26.7917C45.4998 27.0679 45.3901 27.3329 45.1947 27.5282C44.9994 27.7236 44.7344 27.8333 44.4582 27.8333C44.1819 27.8333 43.917 27.7236 43.7216 27.5282C43.5263 27.3329 43.4165 27.0679 43.4165 26.7917V21.9792C38.979 23.2604 35.4582 22.6042 32.3228 21.9792C28.479 21.2604 25.1457 20.6458 20.4998 23.1771V36.4688C22.4489 35.5109 24.5793 34.9783 26.7498 34.9063C26.8866 34.9015 27.023 34.9237 27.1512 34.9716C27.2795 35.0195 27.397 35.0922 27.4971 35.1856C27.5972 35.2789 27.6779 35.3911 27.7347 35.5156C27.7915 35.6401 27.8232 35.7747 27.828 35.9115C27.8328 36.0483 27.8105 36.1847 27.7626 36.3129C27.7147 36.4411 27.642 36.5586 27.5486 36.6587C27.4553 36.7588 27.3432 36.8396 27.2186 36.8963C27.0941 36.9531 26.9595 36.9848 26.8228 36.9896C24.4153 37.0955 22.0745 37.8125 20.0207 39.0729C19.8589 39.1998 19.6631 39.2759 19.4582 39.2917Z" fill="#FA4616"/>
<path d="M20.4998 57H18.4165V18.4583C18.4165 17.6295 18.7457 16.8347 19.3318 16.2486C19.9178 15.6626 20.7127 15.3333 21.5415 15.3333C22.3703 15.3333 23.1652 15.6626 23.7512 16.2486C24.3373 16.8347 24.6665 17.6295 24.6665 18.4583V20.5417H22.5832V18.4583C22.5832 18.1821 22.4734 17.9171 22.2781 17.7217C22.0827 17.5264 21.8178 17.4167 21.5415 17.4167C21.2652 17.4167 21.0003 17.5264 20.8049 17.7217C20.6096 17.9171 20.4998 18.1821 20.4998 18.4583V57Z" fill="#FA4616"/>
<path d="M24.6668 36.1667H22.5835V57H24.6668V36.1667Z" fill="#FA4616"/>
<path d="M9.04167 30.9583C8.86272 30.9578 8.68693 30.9112 8.53125 30.8229C8.37035 30.7325 8.23637 30.6009 8.14302 30.4417C8.04968 30.2824 8.00032 30.1013 8 29.9167V14.2917C8.0011 14.1099 8.04975 13.9316 8.14112 13.7744C8.23249 13.6172 8.3634 13.4867 8.52083 13.3958C14.1042 10.1354 18.2604 10.9063 22.2813 11.6458C25.6354 12.2604 29.1042 12.9063 33.7396 11.2292C33.8969 11.1723 34.0655 11.1542 34.2313 11.1762C34.397 11.1983 34.5551 11.26 34.692 11.356C34.8289 11.4521 34.9406 11.5797 35.0178 11.728C35.095 11.8764 35.1353 12.0411 35.1354 12.2083V18.4583C35.1354 18.7346 35.0257 18.9995 34.8303 19.1949C34.635 19.3902 34.37 19.5 34.0938 19.5C33.8175 19.5 33.5525 19.3902 33.3572 19.1949C33.1618 18.9995 33.0521 18.7346 33.0521 18.4583V13.6458C28.6146 14.9271 25.0937 14.2708 21.9583 13.6458C18.1146 12.9375 14.7813 12.3125 10.1354 14.8438V28.1354C12.0845 27.1776 14.2149 26.645 16.3854 26.5729C16.6617 26.5633 16.9305 26.6637 17.1327 26.8522C17.3349 27.0407 17.4539 27.3019 17.4635 27.5781C17.4732 27.8544 17.3727 28.1232 17.1842 28.3254C16.9957 28.5276 16.7346 28.6466 16.4583 28.6563C14.0509 28.7622 11.7101 29.4792 9.65625 30.7396C9.4801 30.8764 9.26466 30.9531 9.04167 30.9583V30.9583Z" fill="#404040"/>
<path d="M10.0833 57H8V10.125C8 9.2962 8.32924 8.50136 8.91529 7.9153C9.50134 7.32925 10.2962 7 11.125 7C11.9538 7 12.7487 7.32925 13.3347 7.9153C13.9208 8.50136 14.25 9.2962 14.25 10.125V12.2083H12.1667V10.125C12.1667 9.84873 12.0569 9.58376 11.8616 9.38841C11.6662 9.19306 11.4013 9.08333 11.125 9.08333C10.8487 9.08333 10.5838 9.19306 10.3884 9.38841C10.1931 9.58376 10.0833 9.84873 10.0833 10.125V57Z" fill="#404040"/>
<path d="M14.2498 27.8333H12.1665V57H14.2498V27.8333Z" fill="#404040"/>
</svg>
