<svg width="64" height="64" viewBox="0 0 64 64" fill="none" xmlns="http://www.w3.org/2000/svg">
<path d="M36.5993 27.1784H34.4752C34.1966 27.1773 33.9296 27.0667 33.7318 26.8705L28.7297 21.8683H21.731C21.4493 21.8683 21.1792 21.7564 20.98 21.5573C20.7808 21.3581 20.6689 21.088 20.6689 20.8063V19.7443C20.6689 18.6176 21.1165 17.5371 21.9132 16.7404C22.7099 15.9437 23.7904 15.4962 24.917 15.4962H27.6677L29.4837 13.6908C29.6798 13.4907 29.947 13.3761 30.2271 13.3721H31.9158L35.3567 9.9312L36.8648 11.4287L33.1052 15.1882C33.006 15.2866 32.8883 15.3645 32.7589 15.4174C32.6295 15.4702 32.491 15.497 32.3512 15.4962H30.6732L28.8571 17.3123C28.7579 17.4107 28.6402 17.4886 28.5108 17.5414C28.3814 17.5943 28.2429 17.621 28.1031 17.6202H24.917C24.3537 17.6202 23.8134 17.844 23.4151 18.2423C23.0168 18.6407 22.793 19.1809 22.793 19.7443H29.1651C29.3056 19.7449 29.4446 19.7733 29.5741 19.828C29.7035 19.8827 29.8208 19.9625 29.9192 20.0629L34.9213 25.0544H36.1639L36.9179 24.311C37.114 24.1109 37.3812 23.9963 37.6613 23.9924H44.0334V26.1164H38.1073L37.3533 26.8705C37.2541 26.9689 37.1364 27.0468 37.007 27.0996C36.8776 27.1525 36.739 27.1792 36.5993 27.1784Z" fill="#404040"/>
<path d="M27.0411 36.7366H24.917C24.6354 36.7366 24.3652 36.6247 24.1661 36.4256C23.9669 36.2264 23.855 35.9562 23.855 35.6746V30.8105L22.3576 29.3024H20.669C20.3873 29.3024 20.1172 29.1906 19.918 28.9914C19.7188 28.7922 19.6069 28.5221 19.6069 28.2404V26.1164C19.6075 25.9759 19.636 25.8369 19.6907 25.7074C19.7454 25.578 19.8252 25.4607 19.9255 25.3624L22.0496 23.2383C22.2474 23.0421 22.5144 22.9315 22.793 22.9303H25.9791C26.1188 22.9295 26.2574 22.9563 26.3868 23.0092C26.5162 23.062 26.6339 23.1399 26.7331 23.2383L30.9812 27.4864C31.0796 27.5856 31.1575 27.7033 31.2104 27.8327C31.2632 27.9621 31.29 28.1007 31.2892 28.2404V32.4885C31.29 32.6283 31.2632 32.7668 31.2104 32.8962C31.1575 33.0256 31.0796 33.1433 30.9812 33.2426L27.7951 36.4286C27.6959 36.5271 27.5782 36.6049 27.4488 36.6578C27.3194 36.7106 27.1809 36.7374 27.0411 36.7366V36.7366ZM25.9791 34.6126H26.6057L29.1651 32.0531V28.6546L25.5436 25.0544H23.2284L21.731 26.5306V27.1784H22.793C22.9335 27.179 23.0725 27.2075 23.202 27.2622C23.3314 27.3168 23.4487 27.3967 23.547 27.497L25.6711 29.6211C25.8673 29.8189 25.9779 30.0859 25.9791 30.3645V34.6126Z" fill="#404040"/>
<path d="M27.041 43.1087C23.1744 43.1059 19.4109 41.8618 16.3045 39.5595C13.198 37.2573 10.9127 34.0186 9.78498 30.3202C8.65725 26.6217 8.74666 22.6589 10.04 19.0151C11.3334 15.3713 13.7625 12.2389 16.9696 10.0791C20.1767 7.91935 23.9925 6.84626 27.8553 7.01778C31.718 7.1893 35.4237 8.5964 38.4268 11.0319C41.4298 13.4675 43.5717 16.8028 44.537 20.5469C45.5023 24.291 45.2402 28.2461 43.7891 31.8301C43.6835 32.092 43.4781 32.3013 43.2182 32.4118C42.9583 32.5224 42.6651 32.5251 42.4032 32.4195C42.1412 32.3139 41.9319 32.1085 41.8214 31.8486C41.7109 31.5887 41.7081 31.2955 41.8137 31.0335C42.5855 29.1349 42.9787 27.1038 42.9713 25.0544C42.9713 21.9036 42.037 18.8237 40.2866 16.2039C38.5361 13.5842 36.0481 11.5424 33.1373 10.3367C30.2264 9.13093 27.0233 8.81547 23.9331 9.43015C20.843 10.0448 18.0044 11.562 15.7765 13.7899C13.5487 16.0178 12.0314 18.8563 11.4168 21.9465C10.8021 25.0367 11.1176 28.2398 12.3233 31.1506C13.529 34.0615 15.5709 36.5495 18.1906 38.2999C20.8103 40.0504 23.8903 40.9847 27.041 40.9847C29.0871 40.9931 31.115 40.5998 33.0096 39.8271C33.1393 39.7748 33.278 39.7485 33.4178 39.7499C33.5577 39.7512 33.6959 39.78 33.8246 39.8348C33.9533 39.8895 34.07 39.969 34.1679 40.0689C34.2659 40.1687 34.3432 40.2868 34.3955 40.4165C34.4478 40.5462 34.474 40.685 34.4727 40.8248C34.4714 40.9647 34.4426 41.1029 34.3878 41.2316C34.3331 41.3603 34.2535 41.4769 34.1537 41.5748C34.0539 41.6728 33.9358 41.7502 33.8061 41.8025C31.6568 42.6715 29.3593 43.1151 27.041 43.1087Z" fill="#404040"/>
<path d="M47.6442 57C47.4548 56.9998 47.266 56.9785 47.0813 56.9363C46.7909 56.8699 46.5164 56.7466 46.274 56.5734C46.0315 56.4002 45.8258 56.1806 45.6688 55.9273L41.9093 49.2897L38.3197 52.7625C38.1015 53.0273 37.807 53.2183 37.4763 53.3095C37.1456 53.4007 36.7948 53.3877 36.4717 53.2723C36.1755 53.1412 35.9252 52.9245 35.753 52.6501C35.5808 52.3757 35.4945 52.0561 35.5053 51.7323V31.4265C35.5048 31.2302 35.5587 31.0375 35.6611 30.87C35.7635 30.7024 35.9103 30.5665 36.0852 30.4774C36.2602 30.3883 36.4564 30.3494 36.6521 30.3651C36.8478 30.3808 37.0354 30.4504 37.1939 30.5663L53.5384 42.4928C53.911 42.7365 54.1976 43.0911 54.3577 43.5066C54.5178 43.922 54.5432 44.3773 54.4305 44.808C54.2942 45.2595 54.0114 45.6528 53.6268 45.9258C53.2422 46.1989 52.7777 46.3362 52.3065 46.3161H48.5788L51.9242 52.1041C52.2195 52.6742 52.2828 53.3365 52.1006 53.9522C51.9185 54.5679 51.5051 55.0893 50.9471 55.407L49.0992 56.5752C48.6628 56.8487 48.1592 56.9958 47.6442 57V57ZM42.1536 46.5072H42.3129C42.4713 46.5307 42.6224 46.5897 42.7548 46.6798C42.8872 46.7699 42.9976 46.8888 43.0775 47.0276L47.5061 54.8441C47.5834 54.8628 47.6636 54.8659 47.742 54.8531C47.8204 54.8404 47.8955 54.812 47.9628 54.7697L49.8107 53.6015C50.0656 53.4422 50.1081 53.2086 50.0762 53.1449L45.8281 45.7744C45.7349 45.613 45.6859 45.4298 45.6859 45.2434C45.6859 45.057 45.7349 44.8738 45.8281 44.7124C45.9208 44.5519 46.0539 44.4184 46.2141 44.3253C46.3743 44.2321 46.5561 44.1825 46.7415 44.1814H52.3065L37.6612 33.5187V50.4473L41.4208 46.8046C41.6176 46.6148 41.8801 46.5083 42.1536 46.5072V46.5072Z" fill="#FA4616"/>
</svg>
