<svg width="64" height="64" viewBox="0 0 64 64" fill="none" xmlns="http://www.w3.org/2000/svg">
<path d="M12.2083 48.6266H10.125V45.5016C10.125 44.6728 10.4542 43.878 11.0403 43.2919C11.6263 42.7059 12.4212 42.3767 13.25 42.3767H19.4999V44.46H13.25C12.9737 44.46 12.7087 44.5697 12.5134 44.765C12.318 44.9604 12.2083 45.2254 12.2083 45.5016V48.6266Z" fill="#404040"/>
<path d="M30.9581 48.6266H28.8748V45.5016C28.8748 45.2254 28.765 44.9604 28.5697 44.765C28.3743 44.5697 28.1094 44.46 27.8331 44.46H23.6665V42.3767H27.8331C28.6619 42.3767 29.4567 42.7059 30.0428 43.2919C30.6288 43.878 30.9581 44.6728 30.9581 45.5016V48.6266Z" fill="#404040"/>
<path d="M34.0829 55.9181H7V50.7099C7 49.8811 7.32924 49.0862 7.91528 48.5002C8.50132 47.9141 9.29617 47.5849 10.125 47.5849H20.5415V49.6682H10.125C9.84869 49.6682 9.58374 49.778 9.3884 49.9733C9.19305 50.1687 9.0833 50.4336 9.0833 50.7099V53.8348H31.9996V50.7099C31.9996 50.4336 31.8899 50.1687 31.6945 49.9733C31.4992 49.778 31.2342 49.6682 30.958 49.6682H25.7497V47.5849H30.958C31.7868 47.5849 32.5816 47.9141 33.1676 48.5002C33.7537 49.0862 34.0829 49.8811 34.0829 50.7099V55.9181Z" fill="#404040"/>
<path d="M28.8746 43.4183H26.7913V37.783L29.4892 35.0851L24.708 30.3143V26.7519H26.7913V29.4498L32.4371 35.0851L28.8746 38.6475V43.4183Z" fill="#404040"/>
<path d="M33.0411 31.356L29.4891 27.7936H23.6663C22.2849 27.7936 20.9602 27.2448 19.9835 26.2681C19.0067 25.2914 18.458 23.9666 18.458 22.5853H20.5413C20.5413 23.4141 20.8705 24.2089 21.4566 24.795C22.0426 25.381 22.8375 25.7103 23.6663 25.7103H30.3537L33.0411 28.4081L35.1244 26.3248V24.0644L26.0412 14.9917L27.51 13.5229L37.1869 23.1999V27.1894L33.0411 31.356Z" fill="#404040"/>
<path d="M14.2916 43.4183H12.2083V36.5642L10.125 34.4809V21.5436C10.125 13.45 15.5728 8.00218 23.6665 8.00218C27.0179 7.94108 30.2651 9.16762 32.7392 11.4292L33.4788 12.1688L29.6143 16.0333L28.1247 14.5646L30.458 12.2313C28.4699 10.8163 26.0858 10.0653 23.6456 10.0855C16.7916 10.0855 12.1875 14.6896 12.1875 21.5436V33.6164L14.2708 35.6997L14.2916 43.4183Z" fill="#404040"/>
<path d="M40.2179 55.9181C38.507 55.9207 36.8061 55.6571 35.1763 55.1369L35.8117 53.1473C37.2355 53.6052 38.7222 53.8371 40.2179 53.8348C48.1865 53.8348 54.9156 46.6787 54.9156 38.2101C54.9365 36.2892 54.5736 34.3834 53.8481 32.6047C53.1226 30.8259 52.0492 29.21 50.6909 27.8516C49.3325 26.4933 47.7166 25.4199 45.9378 24.6944C44.1591 23.969 42.2533 23.606 40.3324 23.627H38.2491V21.5437H40.3324C42.5277 21.52 44.7056 21.9349 46.7383 22.764C48.7711 23.5932 50.6178 24.8199 52.1702 26.3723C53.7226 27.9247 54.9493 29.7714 55.7785 31.8042C56.6077 33.837 57.0226 36.0148 56.9989 38.2101C56.9989 47.8037 49.3219 55.9181 40.2179 55.9181Z" fill="#FA4616"/>
<path d="M40.4263 55.9181V53.8348C44.2595 53.8348 47.6241 46.5433 47.6241 38.2101C47.6241 30.1685 44.3533 23.627 40.3325 23.627V21.5437C45.6762 21.5437 49.7074 28.7102 49.7074 38.2101C49.7074 48.1474 45.6345 55.9181 40.4263 55.9181Z" fill="#FA4616"/>
<path d="M41.3748 22.5853H39.2915V54.8765H41.3748V22.5853Z" fill="#FA4616"/>
<path d="M53.8744 30.9185H34.083V33.0018H53.8744V30.9185Z" fill="#FA4616"/>
<path d="M53.8745 44.46H33.0415V46.5433H53.8745V44.46Z" fill="#FA4616"/>
</svg>
