<svg width="64" height="64" viewBox="0 0 64 64" fill="none" xmlns="http://www.w3.org/2000/svg">
<path d="M31.1037 46.6316H8.04799C7.77004 46.6316 7.50347 46.5211 7.30693 46.3246C7.1104 46.1281 7 45.8615 7 45.5836V12.048C7 11.77 7.1104 11.5035 7.30693 11.3069C7.50347 11.1104 7.77004 11 8.04799 11H49.9675C50.2454 11 50.512 11.1104 50.7085 11.3069C50.905 11.5035 51.0155 11.77 51.0155 12.048V27.7678H48.9195V13.096H9.09597V44.5356H31.1037V46.6316Z" fill="#404040"/>
<path d="M34.2477 19.3839H22.7199C22.4419 19.3839 22.1753 19.2735 21.9788 19.0769C21.7823 18.8804 21.6719 18.6139 21.6719 18.3359V12.048C21.6719 11.77 21.7823 11.5035 21.9788 11.3069C22.1753 11.1104 22.4419 11 22.7199 11H34.2477C34.5257 11 34.7922 11.1104 34.9887 11.3069C35.1853 11.5035 35.2957 11.77 35.2957 12.048V18.3359C35.2957 18.6139 35.1853 18.8804 34.9887 19.0769C34.7922 19.2735 34.5257 19.3839 34.2477 19.3839ZM23.7678 17.2879H33.1997V13.096H23.7678V17.2879Z" fill="#404040"/>
<path d="M13.2879 40.3436H11.1919V42.4396H13.2879V40.3436Z" fill="#404040"/>
<path d="M17.4798 40.3436H15.3838V42.4396H17.4798V40.3436Z" fill="#404040"/>
<path d="M21.6721 40.3436H19.5762V42.4396H21.6721V40.3436Z" fill="#404040"/>
<path d="M50.7086 45.8952L49.2266 47.3773L55.518 53.6687L57.0001 52.1867L50.7086 45.8952Z" fill="#404040"/>
<path d="M42.6524 50.813C40.3724 50.813 38.1436 50.1369 36.2478 48.8702C34.3521 47.6035 32.8745 45.8031 32.002 43.6967C31.1295 41.5902 30.9012 39.2724 31.346 37.0362C31.7908 34.8 32.8887 32.7459 34.5009 31.1337C36.1131 29.5215 38.1672 28.4236 40.4034 27.9788C42.6396 27.534 44.9575 27.7623 47.0639 28.6348C49.1703 29.5073 50.9707 30.9849 52.2374 32.8806C53.5041 34.7764 54.1802 37.0052 54.1802 39.2852C54.1802 42.3425 52.9657 45.2747 50.8038 47.4366C48.6419 49.5985 45.7097 50.813 42.6524 50.813V50.813ZM42.6524 29.8533C40.7869 29.8533 38.9634 30.4064 37.4123 31.4428C35.8612 32.4792 34.6523 33.9523 33.9384 35.6757C33.2246 37.3992 33.0378 39.2956 33.4017 41.1252C33.7657 42.9548 34.664 44.6354 35.983 45.9545C37.3021 47.2736 38.9827 48.1719 40.8123 48.5358C42.6419 48.8997 44.5383 48.713 46.2618 47.9991C47.9852 47.2852 49.4583 46.0763 50.4947 44.5252C51.5311 42.9742 52.0843 41.1506 52.0843 39.2852C52.0843 36.7837 51.0906 34.3846 49.3217 32.6158C47.5529 30.847 45.1539 29.8533 42.6524 29.8533Z" fill="#404040"/>
<path d="M38.4392 35.1037H36.3433V43.4876H38.4392V35.1037Z" fill="#FA4616"/>
<path d="M41.5833 35.1037H39.4873V43.4876H41.5833V35.1037Z" fill="#FA4616"/>
<path d="M45.7757 35.1037H43.6797V43.4876H45.7757V35.1037Z" fill="#FA4616"/>
<path d="M48.9197 35.1037H46.8237V43.4876H48.9197V35.1037Z" fill="#FA4616"/>
</svg>
