<svg width="64" height="64" viewBox="0 0 64 64" fill="none" xmlns="http://www.w3.org/2000/svg">
<path d="M19.3749 25.75H17.9894C17.7313 25.7493 17.4826 25.6528 17.2915 25.4792L15.3853 23.7396L16.7811 22.1979L18.3957 23.6667H19.3749V25.75Z" fill="#404040"/>
<path d="M41.4272 26.7917H40.2085V24.7083H41.1356L42.6252 23.8125C42.7903 23.7185 42.9768 23.6683 43.1668 23.6667H48.5418V16.375H50.6252V24.7083C50.6252 24.9846 50.5154 25.2495 50.3201 25.4449C50.1247 25.6402 49.8598 25.75 49.5835 25.75H43.4481L41.9585 26.6354C41.8006 26.7386 41.6158 26.793 41.4272 26.7917Z" fill="#404040"/>
<path d="M49.2394 38.25H45.4165C45.1402 38.25 44.8753 38.1402 44.6799 37.9449C44.4846 37.7495 44.3748 37.4846 44.3748 37.2083V35.6875L41.9373 33.0417H33.9582C33.6819 33.0417 33.4169 32.9319 33.2216 32.7366C33.0262 32.5412 32.9165 32.2763 32.9165 32V30.4375C32.9165 28.2083 34.9998 26.3646 37.0832 25.875V14.2917H39.1665V26.7917C39.1665 27.0679 39.0567 27.3329 38.8614 27.5282C38.666 27.7236 38.4011 27.8333 38.1248 27.8333C36.6665 27.8333 34.9998 29.2187 34.9998 30.4375V30.9583H42.3853C42.5298 30.9574 42.673 30.9865 42.8058 31.0439C42.9385 31.1013 43.0578 31.1857 43.1561 31.2917L46.1873 34.5833C46.361 34.7744 46.4575 35.0231 46.4582 35.2812V36.1667H48.8019L51.1769 33.7812L52.6561 35.25L49.979 37.9375C49.8825 38.0359 49.7675 38.1142 49.6405 38.1679C49.5136 38.2215 49.3772 38.2494 49.2394 38.25Z" fill="#404040"/>
<path d="M39.3644 50.75H36.0415C35.7652 50.75 35.5003 50.6402 35.3049 50.4449C35.1096 50.2495 34.9998 49.9846 34.9998 49.7083V43.3333L33.4998 41.375H30.8332C30.5569 41.375 30.2919 41.2652 30.0966 41.0699C29.9012 40.8745 29.7915 40.6096 29.7915 40.3333V35.125H31.8748V39.2917H34.0207C34.1797 39.2921 34.3366 39.3289 34.4793 39.3993C34.6219 39.4697 34.7466 39.5719 34.8436 39.6979L36.8748 42.3437C37.0122 42.5269 37.0854 42.7502 37.0832 42.9792V48.6667H38.8748L41.2498 45.8125V38.5208L38.4373 36.1354H33.9582V34.0521H38.8227C39.071 34.0521 39.3112 34.1407 39.4998 34.3021L42.9686 37.25C43.0829 37.3478 43.1747 37.4692 43.2376 37.6059C43.3006 37.7425 43.3332 37.8912 43.3332 38.0417V46.1562C43.3336 46.3996 43.2489 46.6355 43.0936 46.8229L40.1665 50.3437C40.0716 50.4671 39.9503 50.5676 39.8115 50.6379C39.6727 50.7082 39.52 50.7465 39.3644 50.75Z" fill="#404040"/>
<path d="M31.875 57C19.375 57 10 48.0417 10 36.1667C10 29.8021 12.6875 24.5521 18.2083 20.125L19.5104 21.75C14.5104 25.7604 12.0833 30.4688 12.0833 36.1667C12.0833 46.8542 20.5937 54.9167 31.875 54.9167C43.1562 54.9167 51.6667 46.8542 51.6667 36.1667C51.6733 33.1393 50.8169 30.1727 49.1979 27.6146L51.0208 26.5729C52.811 29.4407 53.7568 32.7548 53.75 36.1354C53.75 48.0521 44.3437 57 31.875 57Z" fill="#404040"/>
<path d="M44.2082 21.7708C42.9297 20.7518 41.5302 19.8947 40.0415 19.2188L40.9165 17.3229C42.5415 18.0738 44.0699 19.0181 45.4686 20.1354L44.2082 21.7708Z" fill="#404040"/>
<path d="M26.9271 18.0521L26.4062 16.0313C29.3844 15.2689 32.489 15.1376 35.5208 15.6458L35.1771 17.7291C32.4345 17.2627 29.6248 17.3727 26.9271 18.0521V18.0521Z" fill="#404040"/>
<path d="M18.333 38.25H15.3851C15.2472 38.2494 15.1109 38.2215 14.984 38.1679C14.857 38.1142 14.742 38.0359 14.6455 37.9375L11.1768 34.4687L12.6455 33.0417L15.7705 36.1667H17.2497V33.7292C17.2516 33.4894 17.3362 33.2576 17.4893 33.0729L20.6143 29.25C20.7122 29.1324 20.8348 29.0379 20.9735 28.973C21.1121 28.9082 21.2633 28.8748 21.4163 28.875H22.458V26.7917C22.458 25.9271 22.2913 25.75 21.4163 25.75C21.1401 25.75 20.8751 25.6402 20.6798 25.4449C20.4844 25.2495 20.3747 24.9846 20.3747 24.7083V16.375H22.458V23.7812C23.1142 23.9398 23.6892 24.3343 24.0734 24.8894C24.4576 25.4446 24.6241 26.1216 24.5413 26.7917V29.9167C24.5413 30.1929 24.4316 30.4579 24.2362 30.6532C24.0409 30.8486 23.7759 30.9583 23.4997 30.9583H21.9163L19.333 34.0833V37.2083C19.3332 37.4775 19.2292 37.7364 19.0428 37.9306C18.8564 38.1247 18.602 38.2392 18.333 38.25V38.25Z" fill="#404040"/>
<path d="M31.8748 24.7188H29.7915V35.1354H31.8748V24.7188Z" fill="#404040"/>
<path d="M22.4375 54.1146L21 52.6042L22.5 51.1771V50.2187C22.5006 50.0809 22.5285 49.9446 22.5821 49.8176C22.6358 49.6907 22.7141 49.5756 22.8125 49.4792L23.5417 48.7604V40.3333H25.625V49.1875C25.6244 49.3253 25.5965 49.4617 25.5429 49.5886C25.4892 49.7156 25.4109 49.8306 25.3125 49.9271L24.5833 50.6458V51.6146C24.5828 51.7549 24.5539 51.8937 24.4984 52.0225C24.4429 52.1514 24.362 52.2678 24.2604 52.3646L22.4375 54.1146Z" fill="#404040"/>
<path d="M18.3333 50.75H16.25V43.4583C16.25 42.6295 16.5792 41.8347 17.1653 41.2486C17.7513 40.6626 18.5462 40.3333 19.375 40.3333H20.4167V42.4167H19.375C19.0987 42.4167 18.8338 42.5264 18.6384 42.7218C18.4431 42.9171 18.3333 43.1821 18.3333 43.4583V50.75Z" fill="#404040"/>
<path d="M30.8332 26.7917C30.0091 26.7917 29.2035 26.5473 28.5183 26.0894C27.8331 25.6316 27.299 24.9809 26.9837 24.2195C26.6683 23.4581 26.5858 22.6204 26.7466 21.8121C26.9073 21.0039 27.3042 20.2614 27.8869 19.6787C28.4696 19.096 29.2121 18.6992 30.0203 18.5384C30.8286 18.3776 31.6663 18.4601 32.4277 18.7755C33.1891 19.0909 33.8398 19.6249 34.2976 20.3101C34.7555 20.9953 34.9999 21.8009 34.9999 22.625C34.9999 23.7301 34.5609 24.7899 33.7795 25.5713C32.9981 26.3527 31.9383 26.7917 30.8332 26.7917ZM30.8332 20.5417C30.4211 20.5417 30.0183 20.6639 29.6757 20.8928C29.3331 21.1217 29.0661 21.447 28.9084 21.8277C28.7508 22.2084 28.7095 22.6273 28.7899 23.0314C28.8703 23.4355 29.0687 23.8068 29.36 24.0981C29.6514 24.3895 30.0226 24.5879 30.4267 24.6683C30.8309 24.7487 31.2497 24.7074 31.6304 24.5497C32.0111 24.3921 32.3365 24.125 32.5654 23.7824C32.7943 23.4398 32.9165 23.037 32.9165 22.625C32.9165 22.0725 32.697 21.5426 32.3063 21.1519C31.9156 20.7612 31.3857 20.5417 30.8332 20.5417Z" fill="#FA4616"/>
<path d="M21.4582 17.4167C20.6341 17.4167 19.8285 17.1723 19.1433 16.7144C18.4581 16.2566 17.924 15.6059 17.6087 14.8445C17.2933 14.0831 17.2108 13.2454 17.3716 12.4371C17.5323 11.6289 17.9292 10.8864 18.5119 10.3037C19.0946 9.72099 19.8371 9.32418 20.6453 9.16341C21.4536 9.00263 22.2913 9.08512 23.0527 9.40049C23.8141 9.71585 24.4648 10.2499 24.9226 10.9351C25.3805 11.6203 25.6249 12.4259 25.6249 13.25C25.6249 14.3551 25.1859 15.4149 24.4045 16.1963C23.6231 16.9777 22.5633 17.4167 21.4582 17.4167ZM21.4582 11.1667C21.0461 11.1667 20.6433 11.2889 20.3007 11.5178C19.9581 11.7467 19.6911 12.072 19.5334 12.4527C19.3758 12.8334 19.3345 13.2523 19.4149 13.6564C19.4953 14.0605 19.6937 14.4318 19.985 14.7231C20.2764 15.0145 20.6476 15.2129 21.0517 15.2933C21.4559 15.3737 21.8747 15.3324 22.2554 15.1747C22.6361 15.0171 22.9615 14.75 23.1904 14.4074C23.4193 14.0648 23.5415 13.662 23.5415 13.25C23.5415 12.6975 23.322 12.1676 22.9313 11.7769C22.5406 11.3862 22.0107 11.1667 21.4582 11.1667Z" fill="#FA4616"/>
<path d="M38.1252 15.3333C37.3011 15.3333 36.4955 15.0889 35.8103 14.6311C35.1251 14.1733 34.591 13.5225 34.2757 12.7612C33.9603 11.9998 33.8778 11.162 34.0386 10.3538C34.1993 9.54553 34.5962 8.8031 35.1789 8.22038C35.7616 7.63766 36.504 7.24084 37.3123 7.08007C38.1206 6.9193 38.9583 7.00179 39.7197 7.31715C40.481 7.63252 41.1318 8.16657 41.5896 8.85177C42.0475 9.53698 42.2918 10.3426 42.2918 11.1667C42.2918 12.2717 41.8529 13.3315 41.0715 14.1129C40.2901 14.8943 39.2302 15.3333 38.1252 15.3333ZM38.1252 9.08333C37.7131 9.08333 37.3103 9.20552 36.9677 9.43444C36.6251 9.66336 36.3581 9.98871 36.2004 10.3694C36.0428 10.7501 36.0015 11.169 36.0819 11.5731C36.1623 11.9772 36.3607 12.3484 36.652 12.6398C36.9434 12.9312 37.3146 13.1296 37.7187 13.21C38.1228 13.2904 38.5417 13.2491 38.9224 13.0914C39.3031 12.9337 39.6285 12.6667 39.8574 12.3241C40.0863 11.9815 40.2085 11.5787 40.2085 11.1667C40.2085 10.6141 39.989 10.0842 39.5983 9.69352C39.2076 9.30282 38.6777 9.08333 38.1252 9.08333Z" fill="#FA4616"/>
<path d="M49.5832 18.4583C48.7591 18.4583 47.9535 18.2139 47.2683 17.7561C46.5831 17.2983 46.049 16.6475 45.7337 15.8862C45.4183 15.1248 45.3358 14.287 45.4966 13.4788C45.6573 12.6705 46.0542 11.9281 46.6369 11.3454C47.2196 10.7627 47.9621 10.3658 48.7703 10.2051C49.5786 10.0443 50.4163 10.1268 51.1777 10.4422C51.9391 10.7575 52.5898 11.2916 53.0476 11.9768C53.5055 12.662 53.7499 13.4676 53.7499 14.2917C53.7499 15.3967 53.3109 16.4565 52.5295 17.2379C51.7481 18.0193 50.6883 18.4583 49.5832 18.4583ZM49.5832 12.2083C49.1711 12.2083 48.7683 12.3305 48.4257 12.5594C48.0831 12.7884 47.8161 13.1137 47.6584 13.4944C47.5008 13.8751 47.4595 14.294 47.5399 14.6981C47.6203 15.1022 47.8187 15.4734 48.11 15.7648C48.4014 16.0562 48.7726 16.2546 49.1767 16.335C49.5809 16.4154 49.9997 16.3741 50.3804 16.2164C50.7611 16.0587 51.0865 15.7917 51.3154 15.4491C51.5443 15.1065 51.6665 14.7037 51.6665 14.2917C51.6665 13.7391 51.447 13.2092 51.0563 12.8185C50.6656 12.4278 50.1357 12.2083 49.5832 12.2083Z" fill="#FA4616"/>
<path d="M24.5832 41.375C23.7591 41.375 22.9535 41.1306 22.2683 40.6728C21.5831 40.2149 21.049 39.5642 20.7337 38.8028C20.4183 38.0415 20.3358 37.2037 20.4966 36.3954C20.6573 35.5872 21.0542 34.8448 21.6369 34.262C22.2196 33.6793 22.9621 33.2825 23.7703 33.1217C24.5786 32.961 25.4163 33.0435 26.1777 33.3588C26.9391 33.6742 27.5898 34.2082 28.0476 34.8934C28.5055 35.5786 28.7499 36.3842 28.7499 37.2083C28.7499 38.3134 28.3109 39.3732 27.5295 40.1546C26.7481 40.936 25.6883 41.375 24.5832 41.375ZM24.5832 35.125C24.1711 35.125 23.7683 35.2472 23.4257 35.4761C23.0831 35.705 22.8161 36.0304 22.6584 36.4111C22.5008 36.7917 22.4595 37.2106 22.5399 37.6147C22.6203 38.0189 22.8187 38.3901 23.11 38.6815C23.4014 38.9728 23.7726 39.1712 24.1767 39.2516C24.5809 39.332 24.9997 39.2907 25.3804 39.1331C25.7611 38.9754 26.0865 38.7084 26.3154 38.3658C26.5443 38.0232 26.6665 37.6204 26.6665 37.2083C26.6665 36.6558 26.447 36.1259 26.0563 35.7352C25.6656 35.3445 25.1357 35.125 24.5832 35.125Z" fill="#FA4616"/>
</svg>
