<svg width="64" height="64" viewBox="0 0 64 64" fill="none" xmlns="http://www.w3.org/2000/svg">
<path d="M49.9746 57H34.8013C34.5632 57 34.3349 56.9054 34.1665 56.737C33.9981 56.5686 33.9035 56.3403 33.9035 56.1021C33.9035 55.864 33.9981 55.6357 34.1665 55.4673C34.3349 55.2989 34.5632 55.2043 34.8013 55.2043H49.0768V8.79565H29.3875V23.0083C29.3875 23.2464 29.2929 23.4747 29.1245 23.6431C28.9561 23.8115 28.7277 23.9061 28.4896 23.9061C28.2515 23.9061 28.0231 23.8115 27.8548 23.6431C27.6864 23.4747 27.5918 23.2464 27.5918 23.0083V7.89783C27.5918 7.65971 27.6864 7.43136 27.8548 7.26298C28.0231 7.09461 28.2515 7 28.4896 7H49.9746C50.2127 7 50.4411 7.09461 50.6095 7.26298C50.7779 7.43136 50.8724 7.65971 50.8724 7.89783V56.1021C50.8724 56.3403 50.7779 56.5686 50.6095 56.737C50.4411 56.9054 50.2127 57 49.9746 57Z" fill="#404040"/>
<path d="M34.6401 57H13.8913C13.6532 57 13.4248 56.9054 13.2565 56.737C13.0881 56.5686 12.9935 56.3403 12.9935 56.1022V19.9377C12.9898 19.8002 13.0177 19.6637 13.0751 19.5387C13.1325 19.4138 13.2179 19.3037 13.3246 19.2169C13.4313 19.1302 13.5565 19.0691 13.6906 19.0384C13.8247 19.0077 13.964 19.0082 14.0978 19.0399L34.8466 23.8792C35.0475 23.9266 35.2259 24.0417 35.3518 24.2053C35.4777 24.3688 35.5434 24.5707 35.5379 24.777V56.1022C35.5379 56.3403 35.4433 56.5686 35.275 56.737C35.1066 56.9054 34.8782 57 34.6401 57ZM14.7891 55.2043H33.7423V25.4952L14.7891 21.069V55.2043Z" fill="#404040"/>
<path d="M15.3545 57H11.8978C11.6597 57 11.4313 56.9054 11.263 56.737C11.0946 56.5686 11 56.3403 11 56.1021C11 55.864 11.0946 55.6357 11.263 55.4673C11.4313 55.2989 11.6597 55.2043 11.8978 55.2043H15.3185C15.5567 55.2043 15.785 55.2989 15.9534 55.4673C16.1218 55.6357 16.2164 55.864 16.2164 56.1021C16.2164 56.3403 16.1218 56.5686 15.9534 56.737C15.785 56.9054 15.5567 57 15.3185 57H15.3545Z" fill="#404040"/>
<path d="M52.6685 57H49.975C49.7369 57 49.5085 56.9054 49.3401 56.737C49.1717 56.5686 49.0771 56.3403 49.0771 56.1021C49.0771 55.864 49.1717 55.6357 49.3401 55.4673C49.5085 55.2989 49.7369 55.2043 49.975 55.2043H52.6685C52.9066 55.2043 53.1349 55.2989 53.3033 55.4673C53.4717 55.6357 53.5663 55.864 53.5663 56.1021C53.5663 56.3403 53.4717 56.5686 53.3033 56.737C53.1349 56.9054 52.9066 57 52.6685 57Z" fill="#404040"/>
<path d="M46.015 13.9223H38.8324C38.5943 13.9223 38.3659 13.8277 38.1975 13.6593C38.0292 13.4909 37.9346 13.2626 37.9346 13.0244C37.9346 12.7863 38.0292 12.5579 38.1975 12.3895C38.3659 12.2212 38.5943 12.1266 38.8324 12.1266H46.015C46.2531 12.1266 46.4815 12.2212 46.6499 12.3895C46.8182 12.5579 46.9128 12.7863 46.9128 13.0244C46.9128 13.2626 46.8182 13.4909 46.6499 13.6593C46.4815 13.8277 46.2531 13.9223 46.015 13.9223Z" fill="#FA4616"/>
<path d="M35.3761 13.9223H32.4222C32.1841 13.9223 31.9558 13.8277 31.7874 13.6593C31.619 13.4909 31.5244 13.2626 31.5244 13.0244C31.5244 12.7863 31.619 12.5579 31.7874 12.3895C31.9558 12.2212 32.1841 12.1266 32.4222 12.1266H35.3761C35.6142 12.1266 35.8426 12.2212 36.0109 12.3895C36.1793 12.5579 36.2739 12.7863 36.2739 13.0244C36.2739 13.2626 36.1793 13.4909 36.0109 13.6593C35.8426 13.8277 35.6142 13.9223 35.3761 13.9223Z" fill="#FA4616"/>
<path d="M46.015 19.39H38.8324C38.5943 19.39 38.3659 19.2954 38.1975 19.127C38.0292 18.9586 37.9346 18.7303 37.9346 18.4922C37.9346 18.2541 38.0292 18.0257 38.1975 17.8573C38.3659 17.689 38.5943 17.5943 38.8324 17.5943H46.015C46.2531 17.5943 46.4815 17.689 46.6499 17.8573C46.8182 18.0257 46.9128 18.2541 46.9128 18.4922C46.9128 18.7303 46.8182 18.9586 46.6499 19.127C46.4815 19.2954 46.2531 19.39 46.015 19.39Z" fill="#FA4616"/>
<path d="M35.3761 19.39H32.4222C32.1841 19.39 31.9558 19.2954 31.7874 19.127C31.619 18.9586 31.5244 18.7303 31.5244 18.4922C31.5244 18.2541 31.619 18.0257 31.7874 17.8573C31.9558 17.689 32.1841 17.5943 32.4222 17.5943H35.3761C35.6142 17.5943 35.8426 17.689 36.0109 17.8573C36.1793 18.0257 36.2739 18.2541 36.2739 18.4922C36.2739 18.7303 36.1793 18.9586 36.0109 19.127C35.8426 19.2954 35.6142 19.39 35.3761 19.39Z" fill="#FA4616"/>
<path d="M46.015 24.8488H38.8324C38.5943 24.8488 38.3659 24.7542 38.1975 24.5858C38.0292 24.4174 37.9346 24.1891 37.9346 23.951C37.9346 23.7129 38.0292 23.4845 38.1975 23.3161C38.3659 23.1478 38.5943 23.0531 38.8324 23.0531H46.015C46.2531 23.0531 46.4815 23.1478 46.6499 23.3161C46.8182 23.4845 46.9128 23.7129 46.9128 23.951C46.9128 24.1891 46.8182 24.4174 46.6499 24.5858C46.4815 24.7542 46.2531 24.8488 46.015 24.8488Z" fill="#FA4616"/>
<path d="M46.015 30.3166H38.8324C38.5943 30.3166 38.3659 30.222 38.1975 30.0536C38.0292 29.8852 37.9346 29.6569 37.9346 29.4188C37.9346 29.1806 38.0292 28.9522 38.1975 28.7839C38.3659 28.6155 38.5943 28.5209 38.8324 28.5209H46.015C46.2531 28.5209 46.4815 28.6155 46.6499 28.7839C46.8182 28.9522 46.9128 29.1806 46.9128 29.4188C46.9128 29.6569 46.8182 29.8852 46.6499 30.0536C46.4815 30.222 46.2531 30.3166 46.015 30.3166Z" fill="#FA4616"/>
<path d="M46.015 35.7753H38.8324C38.5943 35.7753 38.3659 35.6807 38.1975 35.5124C38.0292 35.344 37.9346 35.1156 37.9346 34.8775C37.9346 34.6394 38.0292 34.411 38.1975 34.2427C38.3659 34.0743 38.5943 33.9797 38.8324 33.9797H46.015C46.2531 33.9797 46.4815 34.0743 46.6499 34.2427C46.8182 34.411 46.9128 34.6394 46.9128 34.8775C46.9128 35.1156 46.8182 35.344 46.6499 35.5124C46.4815 35.6807 46.2531 35.7753 46.015 35.7753Z" fill="#FA4616"/>
<path d="M46.015 41.2341H38.8324C38.5943 41.2341 38.3659 41.1395 38.1975 40.9712C38.0292 40.8028 37.9346 40.5744 37.9346 40.3363C37.9346 40.0982 38.0292 39.8698 38.1975 39.7015C38.3659 39.5331 38.5943 39.4385 38.8324 39.4385H46.015C46.2531 39.4385 46.4815 39.5331 46.6499 39.7015C46.8182 39.8698 46.9128 40.0982 46.9128 40.3363C46.9128 40.5744 46.8182 40.8028 46.6499 40.9712C46.4815 41.1395 46.2531 41.2341 46.015 41.2341Z" fill="#FA4616"/>
<path d="M46.015 46.675H38.8324C38.5943 46.675 38.3659 46.5804 38.1975 46.412C38.0292 46.2436 37.9346 46.0153 37.9346 45.7771C37.9346 45.539 38.0292 45.3107 38.1975 45.1423C38.3659 44.9739 38.5943 44.8793 38.8324 44.8793H46.015C46.2531 44.8793 46.4815 44.9739 46.6499 45.1423C46.8182 45.3107 46.9128 45.539 46.9128 45.7771C46.9128 46.0153 46.8182 46.2436 46.6499 46.412C46.4815 46.5804 46.2531 46.675 46.015 46.675Z" fill="#FA4616"/>
<path d="M46.015 52.1607H38.8324C38.5943 52.1607 38.3659 52.0661 38.1975 51.8977C38.0292 51.7293 37.9346 51.501 37.9346 51.2629C37.9346 51.0247 38.0292 50.7964 38.1975 50.628C38.3659 50.4596 38.5943 50.365 38.8324 50.365H46.015C46.2531 50.365 46.4815 50.4596 46.6499 50.628C46.8182 50.7964 46.9128 51.0247 46.9128 51.2629C46.9128 51.501 46.8182 51.7293 46.6499 51.8977C46.4815 52.0661 46.2531 52.1607 46.015 52.1607Z" fill="#FA4616"/>
<path d="M21.5314 27.6949H18.5775C18.3394 27.6949 18.111 27.6003 17.9427 27.4319C17.7743 27.2635 17.6797 27.0352 17.6797 26.7971C17.6797 26.559 17.7743 26.3306 17.9427 26.1622C18.111 25.9938 18.3394 25.8992 18.5775 25.8992H21.5314C21.7695 25.8992 21.9979 25.9938 22.1662 26.1622C22.3346 26.3306 22.4292 26.559 22.4292 26.7971C22.4292 27.0352 22.3346 27.2635 22.1662 27.4319C21.9979 27.6003 21.7695 27.6949 21.5314 27.6949Z" fill="#404040"/>
<path d="M21.5314 32.8395H18.5775C18.3394 32.8395 18.111 32.7449 17.9427 32.5765C17.7743 32.4081 17.6797 32.1798 17.6797 31.9417C17.6797 31.7035 17.7743 31.4751 17.9427 31.3068C18.111 31.1384 18.3394 31.0438 18.5775 31.0438H21.5314C21.7695 31.0438 21.9979 31.1384 22.1662 31.3068C22.3346 31.4751 22.4292 31.7035 22.4292 31.9417C22.4292 32.1798 22.3346 32.4081 22.1662 32.5765C21.9979 32.7449 21.7695 32.8395 21.5314 32.8395Z" fill="#404040"/>
<path d="M21.5314 37.984H18.5775C18.3394 37.984 18.111 37.8894 17.9427 37.721C17.7743 37.5527 17.6797 37.3243 17.6797 37.0862C17.6797 36.8481 17.7743 36.6197 17.9427 36.4513C18.111 36.283 18.3394 36.1884 18.5775 36.1884H21.5314C21.7695 36.1884 21.9979 36.283 22.1662 36.4513C22.3346 36.6197 22.4292 36.8481 22.4292 37.0862C22.4292 37.3243 22.3346 37.5527 22.1662 37.721C21.9979 37.8894 21.7695 37.984 21.5314 37.984Z" fill="#404040"/>
<path d="M21.5314 43.1285H18.5775C18.3394 43.1285 18.111 43.0339 17.9427 42.8656C17.7743 42.6972 17.6797 42.4688 17.6797 42.2307C17.6797 41.9926 17.7743 41.7642 17.9427 41.5959C18.111 41.4275 18.3394 41.3329 18.5775 41.3329H21.5314C21.7695 41.3329 21.9979 41.4275 22.1662 41.5959C22.3346 41.7642 22.4292 41.9926 22.4292 42.2307C22.4292 42.4688 22.3346 42.6972 22.1662 42.8656C21.9979 43.0339 21.7695 43.1285 21.5314 43.1285Z" fill="#404040"/>
<path d="M21.5314 48.2731H18.5775C18.3394 48.2731 18.111 48.1785 17.9427 48.0101C17.7743 47.8418 17.6797 47.6134 17.6797 47.3753C17.6797 47.1372 17.7743 46.9088 17.9427 46.7404C18.111 46.572 18.3394 46.4775 18.5775 46.4775H21.5314C21.7695 46.4775 21.9979 46.572 22.1662 46.7404C22.3346 46.9088 22.4292 47.1372 22.4292 47.3753C22.4292 47.6134 22.3346 47.8418 22.1662 48.0101C21.9979 48.1785 21.7695 48.2731 21.5314 48.2731Z" fill="#404040"/>
<path d="M21.5314 53.4177H18.5775C18.3394 53.4177 18.111 53.3231 17.9427 53.1547C17.7743 52.9863 17.6797 52.7579 17.6797 52.5198C17.6797 52.2817 17.7743 52.0534 17.9427 51.885C18.111 51.7166 18.3394 51.622 18.5775 51.622H21.5314C21.7695 51.622 21.9979 51.7166 22.1662 51.885C22.3346 52.0534 22.4292 52.2817 22.4292 52.5198C22.4292 52.7579 22.3346 52.9863 22.1662 53.1547C21.9979 53.3231 21.7695 53.4177 21.5314 53.4177Z" fill="#404040"/>
<path d="M29.9708 27.6949H27.017C26.7788 27.6949 26.5505 27.6003 26.3821 27.4319C26.2137 27.2635 26.1191 27.0352 26.1191 26.7971C26.1191 26.559 26.2137 26.3306 26.3821 26.1622C26.5505 25.9938 26.7788 25.8992 27.017 25.8992H29.9708C30.2089 25.8992 30.4373 25.9938 30.6057 26.1622C30.7741 26.3306 30.8686 26.559 30.8686 26.7971C30.8686 27.0352 30.7741 27.2635 30.6057 27.4319C30.4373 27.6003 30.2089 27.6949 29.9708 27.6949Z" fill="#404040"/>
<path d="M29.9708 32.8395H27.017C26.7788 32.8395 26.5505 32.7449 26.3821 32.5765C26.2137 32.4081 26.1191 32.1798 26.1191 31.9417C26.1191 31.7035 26.2137 31.4751 26.3821 31.3068C26.5505 31.1384 26.7788 31.0438 27.017 31.0438H29.9708C30.2089 31.0438 30.4373 31.1384 30.6057 31.3068C30.7741 31.4751 30.8686 31.7035 30.8686 31.9417C30.8686 32.1798 30.7741 32.4081 30.6057 32.5765C30.4373 32.7449 30.2089 32.8395 29.9708 32.8395Z" fill="#404040"/>
<path d="M29.9708 37.984H27.017C26.7788 37.984 26.5505 37.8894 26.3821 37.721C26.2137 37.5527 26.1191 37.3243 26.1191 37.0862C26.1191 36.8481 26.2137 36.6197 26.3821 36.4513C26.5505 36.283 26.7788 36.1884 27.017 36.1884H29.9708C30.2089 36.1884 30.4373 36.283 30.6057 36.4513C30.7741 36.6197 30.8686 36.8481 30.8686 37.0862C30.8686 37.3243 30.7741 37.5527 30.6057 37.721C30.4373 37.8894 30.2089 37.984 29.9708 37.984Z" fill="#404040"/>
<path d="M29.9708 43.1285H27.017C26.7788 43.1285 26.5505 43.0339 26.3821 42.8656C26.2137 42.6972 26.1191 42.4688 26.1191 42.2307C26.1191 41.9926 26.2137 41.7642 26.3821 41.5959C26.5505 41.4275 26.7788 41.3329 27.017 41.3329H29.9708C30.2089 41.3329 30.4373 41.4275 30.6057 41.5959C30.7741 41.7642 30.8686 41.9926 30.8686 42.2307C30.8686 42.4688 30.7741 42.6972 30.6057 42.8656C30.4373 43.0339 30.2089 43.1285 29.9708 43.1285Z" fill="#404040"/>
<path d="M29.9708 48.2731H27.017C26.7788 48.2731 26.5505 48.1785 26.3821 48.0101C26.2137 47.8418 26.1191 47.6134 26.1191 47.3753C26.1191 47.1372 26.2137 46.9088 26.3821 46.7404C26.5505 46.572 26.7788 46.4775 27.017 46.4775H29.9708C30.2089 46.4775 30.4373 46.572 30.6057 46.7404C30.7741 46.9088 30.8686 47.1372 30.8686 47.3753C30.8686 47.6134 30.7741 47.8418 30.6057 48.0101C30.4373 48.1785 30.2089 48.2731 29.9708 48.2731Z" fill="#404040"/>
<path d="M29.9708 53.4177H27.017C26.7788 53.4177 26.5505 53.3231 26.3821 53.1547C26.2137 52.9863 26.1191 52.7579 26.1191 52.5198C26.1191 52.2817 26.2137 52.0534 26.3821 51.885C26.5505 51.7166 26.7788 51.622 27.017 51.622H29.9708C30.2089 51.622 30.4373 51.7166 30.6057 51.885C30.7741 52.0534 30.8686 52.2817 30.8686 52.5198C30.8686 52.7579 30.7741 52.9863 30.6057 53.1547C30.4373 53.3231 30.2089 53.4177 29.9708 53.4177Z" fill="#404040"/>
</svg>
