<svg width="64" height="64" viewBox="0 0 64 64" fill="none" xmlns="http://www.w3.org/2000/svg">
<path d="M52.6521 57H8.08696C7.79868 57 7.52219 56.8855 7.31834 56.6816C7.1145 56.4778 7 56.2013 7 55.913V20.0435C7 19.7552 7.1145 19.4787 7.31834 19.2749C7.52219 19.071 7.79868 18.9565 8.08696 18.9565H25.4782V21.1305H9.17391V54.8261H52.6521C53.2287 54.8261 53.7816 54.5971 54.1893 54.1894C54.597 53.7817 54.8261 53.2287 54.8261 52.6522H57C57 53.8053 56.5419 54.9112 55.7265 55.7266C54.9111 56.5419 53.8053 57 52.6521 57Z" fill="#404040"/>
<path d="M57 52.6522H54.8261V21.1305H32V18.9565H55.913C56.2013 18.9565 56.4778 19.071 56.6816 19.2749C56.8854 19.4787 57 19.7552 57 20.0435V52.6522Z" fill="#404040"/>
<path d="M13.5216 38.5218H10.2607V36.3478H13.076L13.5216 35.9022V35.2609C13.5257 34.9742 13.6429 34.7007 13.8477 34.5L16.0216 32.3261C16.2223 32.1213 16.4958 32.0041 16.7825 32H18.9564V30.9131C18.9564 30.3365 18.7274 29.7836 18.3197 29.3759C17.912 28.9682 17.359 28.7391 16.7825 28.7391V26.5652C17.9356 26.5652 19.0415 27.0233 19.8569 27.8387C20.6722 28.6541 21.1303 29.7599 21.1303 30.9131V33.087C21.1303 33.3753 21.0158 33.6517 20.8119 33.8555C20.6081 34.0594 20.3316 34.1739 20.0433 34.1739H17.239L15.6955 35.7174V36.3478C15.6963 36.4909 15.6689 36.6327 15.6148 36.7651C15.5608 36.8976 15.481 37.018 15.3803 37.1196L14.2933 38.2065C14.1918 38.3073 14.0713 38.387 13.9389 38.441C13.8065 38.4951 13.6647 38.5226 13.5216 38.5218V38.5218Z" fill="#404040"/>
<path d="M13.8477 27.337L13.076 26.5652H10.2607V24.3913H13.5216C13.6654 24.3919 13.8077 24.421 13.9402 24.477C14.0726 24.533 14.1927 24.6147 14.2933 24.7174L15.3803 25.8044L13.8477 27.337Z" fill="#404040"/>
<path d="M42.8697 28.7392H41.7827V26.5652H42.424L44.2827 24.7174C44.4834 24.5126 44.7569 24.3954 45.0436 24.3913H53.7392V26.5652H45.5001L43.6305 28.4239C43.4281 28.6247 43.1548 28.7379 42.8697 28.7392V28.7392Z" fill="#404040"/>
<path d="M33.087 30.9131H30.9131V28.7391H32.6413L34.5 26.8913C34.7007 26.6865 34.9742 26.5693 35.2609 26.5652H39.6087V28.7391H35.7174L33.8587 30.5978C33.7572 30.6986 33.6367 30.7783 33.5043 30.8324C33.3719 30.8864 33.23 30.9139 33.087 30.9131V30.9131Z" fill="#404040"/>
<path d="M35.2611 52.6522H33.0872C32.7989 52.6522 32.5224 52.5376 32.3186 52.3338C32.1147 52.13 32.0002 51.8535 32.0002 51.5652V46.5869L30.4676 45.0435H27.6524C27.3641 45.0435 27.0876 44.929 26.8838 44.7251C26.6799 44.5213 26.5654 44.2448 26.5654 43.9565V41.7826C26.5654 40.6295 27.0235 39.5236 27.8389 38.7082C28.6542 37.8929 29.7601 37.4348 30.9133 37.4348H34.1741C34.3179 37.4354 34.4602 37.4645 34.5927 37.5205C34.7251 37.5765 34.8452 37.6582 34.9458 37.7609L39.2937 42.1087C39.4945 42.3111 39.6077 42.5844 39.6089 42.8696V48.3044C39.6097 48.4474 39.5823 48.5892 39.5282 48.7216C39.4741 48.8541 39.3944 48.9745 39.2937 49.0761L36.0328 52.3369C35.9312 52.4377 35.8108 52.5174 35.6784 52.5715C35.5459 52.6256 35.4041 52.653 35.2611 52.6522V52.6522ZM34.1741 50.4783H34.8154L37.435 47.8587V43.3261L33.7285 39.6087H30.9133C30.3367 39.6087 29.7838 39.8377 29.3761 40.2454C28.9684 40.6531 28.7393 41.2061 28.7393 41.7826V42.8696H30.9133C31.0571 42.8702 31.1993 42.8993 31.3318 42.9553C31.4643 43.0112 31.5843 43.0929 31.685 43.1956L33.8589 45.3696C34.0597 45.572 34.1729 45.8453 34.1741 46.1304V50.4783Z" fill="#404040"/>
<path d="M16.7824 52.6522H14.6085C14.3202 52.6522 14.0438 52.5376 13.8399 52.3338C13.6361 52.13 13.5216 51.8535 13.5216 51.5652V47.6739L11.6737 45.8152C11.571 45.7145 11.4893 45.5945 11.4333 45.462C11.3774 45.3296 11.3483 45.1873 11.3477 45.0435V41.7826C11.3517 41.4959 11.4689 41.2224 11.6737 41.0217L13.8476 38.8478C14.0483 38.643 14.3218 38.5258 14.6085 38.5218H18.9563C19.1002 38.5223 19.2424 38.5515 19.3749 38.6074C19.5074 38.6634 19.6274 38.7451 19.7281 38.8478L21.902 41.0217C22.1028 41.2242 22.216 41.4975 22.2172 41.7826V42.8696C22.218 43.0126 22.1906 43.1544 22.1365 43.2869C22.0824 43.4193 22.0027 43.5397 21.902 43.6413L20.0433 45.5V49.3913C20.0441 49.5344 20.0167 49.6762 19.9626 49.8086C19.9085 49.941 19.8288 50.0615 19.7281 50.163L17.5542 52.337C17.4526 52.4377 17.3322 52.5174 17.1997 52.5715C17.0673 52.6256 16.9255 52.653 16.7824 52.6522V52.6522ZM15.6955 50.4783H16.3368L17.8694 48.9457V45.0435C17.8735 44.7568 17.9907 44.4833 18.1955 44.2826L20.0433 42.4239V42.2391L18.5107 40.6957H15.065L13.5216 42.2391V44.5978L15.3803 46.4565C15.5811 46.659 15.6943 46.9322 15.6955 47.2174V50.4783Z" fill="#404040"/>
<path d="M39.6086 15.6957C38.7487 15.6957 37.908 15.4407 37.1931 14.9629C36.4781 14.4852 35.9208 13.8061 35.5917 13.0117C35.2626 12.2172 35.1765 11.343 35.3443 10.4996C35.512 9.65622 35.9261 8.88152 36.5342 8.27346C37.1423 7.66541 37.917 7.2513 38.7604 7.08354C39.6038 6.91578 40.478 7.00189 41.2724 7.33097C42.0669 7.66004 42.7459 8.21731 43.2237 8.93231C43.7014 9.64731 43.9564 10.4879 43.9564 11.3478C43.9564 12.501 43.4983 13.6068 42.683 14.4222C41.8676 15.2376 40.7617 15.6957 39.6086 15.6957ZM39.6086 9.17393C39.1786 9.17393 38.7583 9.30143 38.4008 9.54031C38.0433 9.77918 37.7647 10.1187 37.6002 10.5159C37.4356 10.9131 37.3926 11.3502 37.4764 11.7719C37.5603 12.1936 37.7674 12.581 38.0714 12.885C38.3754 13.1891 38.7628 13.3961 39.1845 13.48C39.6062 13.5638 40.0433 13.5208 40.4405 13.3563C40.8377 13.1917 41.1772 12.9131 41.4161 12.5556C41.655 12.1981 41.7825 11.7778 41.7825 11.3478C41.7825 10.7713 41.5535 10.2183 41.1458 9.81065C40.7381 9.40296 40.1851 9.17393 39.6086 9.17393Z" fill="#FA4616"/>
<path d="M15.6959 15.6957H13.522V30.9131H15.6959V15.6957Z" fill="#FA4616"/>
<path d="M53.7393 40.6957H45.0436C44.7585 40.6945 44.4852 40.5812 44.2828 40.3804L42.4241 38.5218H42.2393L41.4675 39.2935C41.366 39.3942 41.2455 39.4739 41.1131 39.528C40.9807 39.5821 40.8389 39.6095 40.6958 39.6087H38.5219C38.2367 39.6075 37.9635 39.4943 37.761 39.2935L33.7284 35.2609H28.7393C28.451 35.2609 28.1745 35.1464 27.9707 34.9425C27.7668 34.7387 27.6523 34.4622 27.6523 34.1739V22.2174H29.8263V33.087H34.1741C34.3179 33.0876 34.4602 33.1167 34.5926 33.1727C34.7251 33.2286 34.8451 33.3103 34.9458 33.413L38.9784 37.4348H40.2502L41.0219 36.6739C41.2226 36.4691 41.4961 36.3519 41.7828 36.3478H42.8697C43.0135 36.3484 43.1558 36.3775 43.2883 36.4335C43.4208 36.4895 43.5408 36.5712 43.6415 36.6739L45.5001 38.5218H53.7393V40.6957Z" fill="#FA4616"/>
<path d="M40.6954 14.6087H38.5215V32H40.6954V14.6087Z" fill="#FA4616"/>
<path d="M14.6086 16.7826C13.7487 16.7826 12.908 16.5276 12.1931 16.0499C11.4781 15.5721 10.9208 14.8931 10.5917 14.0986C10.2626 13.3042 10.1765 12.43 10.3443 11.5866C10.512 10.7432 10.9261 9.96847 11.5342 9.36042C12.1423 8.75236 12.917 8.33826 13.7604 8.1705C14.6038 8.00274 15.478 8.08885 16.2724 8.41792C17.0669 8.747 17.7459 9.30427 18.2237 10.0193C18.7014 10.7343 18.9564 11.5749 18.9564 12.4348C18.9564 13.5879 18.4983 14.6938 17.683 15.5092C16.8676 16.3246 15.7617 16.7826 14.6086 16.7826ZM14.6086 10.2609C14.1786 10.2609 13.7583 10.3884 13.4008 10.6273C13.0433 10.8661 12.7647 11.2056 12.6002 11.6029C12.4356 12.0001 12.3926 12.4372 12.4764 12.8589C12.5603 13.2806 12.7674 13.668 13.0714 13.972C13.3754 14.276 13.7628 14.483 14.1845 14.5669C14.6062 14.6508 15.0433 14.6078 15.4405 14.4432C15.8377 14.2787 16.1772 14.0001 16.4161 13.6426C16.655 13.2851 16.7825 12.8648 16.7825 12.4348C16.7825 11.8582 16.5535 11.3053 16.1458 10.8976C15.7381 10.4899 15.1851 10.2609 14.6086 10.2609Z" fill="#FA4616"/>
<path d="M28.739 23.3044C27.879 23.3044 27.0384 23.0493 26.3234 22.5716C25.6084 22.0939 25.0512 21.4148 24.7221 20.6204C24.393 19.8259 24.3069 18.9517 24.4747 18.1083C24.6424 17.2649 25.0565 16.4902 25.6646 15.8822C26.2726 15.2741 27.0473 14.86 27.8907 14.6922C28.7341 14.5245 29.6083 14.6106 30.4028 14.9397C31.1973 15.2687 31.8763 15.826 32.354 16.541C32.8318 17.256 33.0868 18.0966 33.0868 18.9565C33.0868 20.1096 32.6287 21.2155 31.8133 22.0309C30.998 22.8463 29.8921 23.3044 28.739 23.3044ZM28.739 16.7826C28.309 16.7826 27.8887 16.9101 27.5312 17.149C27.1737 17.3879 26.8951 17.7274 26.7305 18.1246C26.566 18.5218 26.5229 18.9589 26.6068 19.3806C26.6907 19.8023 26.8977 20.1897 27.2018 20.4937C27.5058 20.7977 27.8931 21.0048 28.3148 21.0886C28.7365 21.1725 29.1736 21.1295 29.5709 20.965C29.9681 20.8004 30.3076 20.5218 30.5465 20.1643C30.7854 19.8068 30.9129 19.3865 30.9129 18.9565C30.9129 18.38 30.6838 17.827 30.2761 17.4193C29.8685 17.0117 29.3155 16.7826 28.739 16.7826Z" fill="#FA4616"/>
</svg>
