<svg width="64" height="64" viewBox="0 0 64 64" fill="none" xmlns="http://www.w3.org/2000/svg">
<path d="M38.0078 22.7235C37.9976 21.4613 37.614 20.2303 36.9053 19.1858C36.1966 18.1413 35.1946 17.3299 34.0255 16.854C32.8565 16.378 31.5727 16.2588 30.3359 16.5113C29.0992 16.7638 27.9649 17.3767 27.076 18.2729C26.1871 19.169 25.5833 20.3082 25.3408 21.5469C25.0983 22.7857 25.2279 24.0685 25.7132 25.2336C26.1986 26.3988 27.018 27.3943 28.0682 28.0945C29.1184 28.7947 30.3524 29.1684 31.6146 29.1684C33.3167 29.1602 34.9459 28.4769 36.1445 27.2685C37.3432 26.0602 38.0133 24.4255 38.0078 22.7235V22.7235ZM27.3042 22.7235C27.3144 21.8707 27.5767 21.0401 28.0582 20.3361C28.5396 19.6322 29.2185 19.0865 30.0095 18.7677C30.8005 18.4489 31.6681 18.3713 32.5031 18.5447C33.3381 18.718 34.1031 19.1346 34.7018 19.7419C35.3005 20.3493 35.7061 21.1202 35.8674 21.9575C36.0288 22.7949 35.9388 23.6614 35.6088 24.4477C35.2787 25.234 34.7233 25.9051 34.0125 26.3764C33.3018 26.8477 32.4674 27.0981 31.6146 27.0961C31.0445 27.092 30.4808 26.9757 29.9556 26.7537C29.4304 26.5318 28.954 26.2086 28.5538 25.8025C28.1535 25.3965 27.8371 24.9156 27.6227 24.3873C27.4083 23.859 27.3001 23.2936 27.3042 22.7235V22.7235Z" fill="#FA4616"/>
<path d="M30.9308 50.5239C31.1206 50.6929 31.3658 50.7862 31.6199 50.7862C31.8739 50.7862 32.1191 50.6929 32.3089 50.5239C32.8995 49.9955 46.9915 37.4371 46.9915 22.7234C47.0447 20.6781 46.6878 18.6428 45.9418 16.7376C45.1958 14.8324 44.0759 13.0958 42.648 11.6304C41.2202 10.1649 39.5134 9.00022 37.6282 8.20497C35.743 7.40971 33.7177 7 31.6717 7C29.6256 7 27.6003 7.40971 25.7151 8.20497C23.83 9.00022 22.1231 10.1649 20.6953 11.6304C19.2675 13.0958 18.1475 14.8324 17.4016 16.7376C16.6556 18.6428 16.2987 20.6781 16.3519 22.7234C16.3001 37.4371 30.3402 49.9955 30.9308 50.5239ZM31.6147 9.3361C33.3677 9.34017 35.1027 9.68982 36.7204 10.3651C38.3381 11.0403 39.8069 12.0279 41.0426 13.2713C42.2783 14.5147 43.2567 15.9895 43.9219 17.6114C44.5871 19.2333 44.9259 20.9704 44.9191 22.7234C44.9191 34.7016 34.4745 45.6125 31.6665 48.3272C28.8688 45.6125 18.4242 34.7016 18.4242 22.7234C18.4103 19.2027 19.7893 15.8192 22.2604 13.3113C24.7315 10.8033 28.0941 9.37437 31.6147 9.3361V9.3361Z" fill="#404040"/>
<path d="M43.2511 47.8092C43.1151 47.7785 42.9743 47.775 42.8369 47.7988C42.6994 47.8226 42.568 47.8732 42.4502 47.9478C42.3323 48.0224 42.2302 48.1194 42.1499 48.2334C42.0695 48.3474 42.0124 48.4761 41.9818 48.6122C41.9512 48.7483 41.9477 48.889 41.9715 49.0265C41.9953 49.1639 42.0459 49.2953 42.1204 49.4132C42.195 49.531 42.2921 49.6331 42.4061 49.7134C42.52 49.7938 42.6488 49.8509 42.7848 49.8815C46.3804 50.7208 47.1575 51.6845 47.1575 51.871C47.1575 52.7724 41.7176 54.9795 31.6149 54.9795C21.5122 54.9795 16.0723 52.7724 16.0723 51.871C16.0723 51.6845 16.8598 50.7208 20.4554 49.8815C20.7302 49.8197 20.9692 49.6512 21.1198 49.4132C21.2704 49.1751 21.3202 48.887 21.2584 48.6122C21.1966 48.3374 21.0281 48.0984 20.79 47.9478C20.552 47.7972 20.2639 47.7473 19.9891 47.8092C16.0205 48.7417 14 50.0887 14 51.8191C14 55.9638 25.5222 57 31.6149 57C37.7076 57 49.2298 55.9638 49.2298 51.8191C49.2298 50.0887 47.2197 48.7417 43.2511 47.8092Z" fill="#FA4616"/>
</svg>
