<svg width="64" height="64" viewBox="0 0 64 64" fill="none" xmlns="http://www.w3.org/2000/svg">
<path d="M30.4454 42.8045L30.1712 40.4207C31.8747 40.0862 33.4417 39.257 34.6766 38.0369L36.1903 39.8844C34.6068 41.4052 32.6073 42.4216 30.4454 42.8045ZM28.2046 42.8045C27.4376 42.6842 26.6834 42.4926 25.9519 42.2324C24.8673 41.8391 23.3417 41.1239 21.9829 40.4803L23.0199 38.3349C24.2118 38.9189 25.7612 39.6341 26.7505 39.9797C27.3375 40.1943 27.9444 40.35 28.5622 40.4446L28.2046 42.8045ZM50.0759 42.4589C49.9805 42.292 49.8732 42.1013 49.766 41.8868C49.0555 40.2272 47.8259 38.8429 46.2618 37.9416L47.4537 35.8438C49.4256 36.952 50.9886 38.6654 51.9114 40.7306C51.9977 40.9102 52.0932 41.0852 52.1974 41.2551L50.0759 42.4589ZM37.8351 38.5971L36.381 36.702C38.1146 35.1796 40.3691 34.3854 42.6742 34.4851C43.36 34.5403 44.0411 34.6439 44.7123 34.795L44.1641 37.1192C43.6111 36.9906 43.0494 36.9029 42.4835 36.857C40.7681 36.8191 39.1039 37.4422 37.8351 38.5971V38.5971Z" fill="#FA4616"/>
<path d="M8.19191 56.2133C7.94481 56.2152 7.70324 56.1402 7.50062 55.9988C7.34493 55.8879 7.21819 55.7412 7.13106 55.5711C7.04394 55.4011 6.99899 55.2125 7.00002 55.0214V32.0775H9.38381V53.3528L22.1132 48.9785C22.334 48.9066 22.5719 48.9066 22.7926 48.9785L40.3135 53.4958L54.6162 48.1084V20.3015L40.6949 24.8665C40.4511 24.9474 40.1877 24.9474 39.944 24.8665L32.7926 22.4827L33.5435 20.23L40.3254 22.4827L55.4386 17.5363C55.6175 17.478 55.8076 17.4629 55.9934 17.4921C56.1792 17.5214 56.3555 17.5942 56.5078 17.7046C56.6601 17.8151 56.7841 17.96 56.8696 18.1276C56.9552 18.2951 56.9998 18.4805 57 18.6687V48.9189C57.0017 49.161 56.9296 49.3979 56.7933 49.5981C56.6571 49.7982 56.4631 49.9521 56.2372 50.0393L40.7425 55.8438C40.5054 55.915 40.2526 55.915 40.0155 55.8438L22.4946 51.3265L8.52565 56.0941C8.42097 56.1502 8.30847 56.1904 8.19191 56.2133V56.2133Z" fill="#404040"/>
<path d="M18.9189 39.2288C18.6631 39.2263 18.4149 39.1414 18.211 38.9869C18.007 38.8323 17.8583 38.6163 17.7866 38.3707C16.5947 34.497 14.3897 32.0298 12.2324 29.646C9.53873 26.6662 7 23.8653 7 18.9189C7 15.7578 8.25574 12.7262 10.491 10.491C12.7262 8.25575 15.7578 7 18.9189 7C22.08 7 25.1117 8.25575 27.3469 10.491C29.5821 12.7262 30.8379 15.7578 30.8379 18.9189C30.8379 23.8176 28.3111 26.6186 25.6174 29.646C23.4601 32.0298 21.2312 34.497 20.0632 38.3707C19.9909 38.6182 19.8404 38.8357 19.6341 38.9904C19.4278 39.1452 19.1768 39.2288 18.9189 39.2288V39.2288ZM18.9189 9.43147C16.4202 9.52587 14.0494 10.5608 12.2812 12.3289C10.5131 14.097 9.47818 16.4679 9.38379 18.9666C9.38379 22.9476 11.5292 25.3075 13.9964 28.0489C15.9556 30.0381 17.614 32.3028 18.9189 34.7711C20.2319 32.3047 21.8938 30.0406 23.8534 28.0489C26.3206 25.3075 28.4541 22.9476 28.4541 18.9666C28.3625 16.467 27.3284 14.0945 25.5597 12.3258C23.791 10.5571 21.4186 9.52311 18.9189 9.43147Z" fill="#FA4616"/>
<path d="M18.9072 23.6984C17.9643 23.6984 17.0425 23.4188 16.2585 22.895C15.4745 22.3711 14.8634 21.6265 14.5026 20.7553C14.1417 19.8842 14.0473 18.9256 14.2313 18.0008C14.4152 17.0759 14.8693 16.2264 15.5361 15.5597C16.2028 14.8929 17.0523 14.4389 17.9771 14.2549C18.9019 14.071 19.8605 14.1654 20.7317 14.5262C21.6029 14.8871 22.3475 15.4981 22.8713 16.2821C23.3952 17.0662 23.6748 17.9879 23.6748 18.9309C23.6748 20.1953 23.1725 21.408 22.2784 22.3021C21.3843 23.1961 20.1717 23.6984 18.9072 23.6984ZM18.9072 16.5471C18.4358 16.5471 17.9749 16.6869 17.5829 16.9488C17.1909 17.2108 16.8853 17.583 16.7049 18.0186C16.5245 18.4542 16.4773 18.9335 16.5692 19.3959C16.6612 19.8583 16.8883 20.2831 17.2216 20.6165C17.555 20.9498 17.9798 21.1769 18.4422 21.2689C18.9046 21.3608 19.3839 21.3136 19.8195 21.1332C20.255 20.9528 20.6273 20.6472 20.8893 20.2552C21.1512 19.8632 21.291 19.4023 21.291 18.9309C21.2816 18.3049 21.0263 17.7077 20.5803 17.2683C20.1343 16.829 19.5333 16.5828 18.9072 16.5828V16.5471Z" fill="#FA4616"/>
</svg>
