<svg width="64" height="64" viewBox="0 0 64 64" fill="none" xmlns="http://www.w3.org/2000/svg">
<path d="M54.8568 50.2886L51.0313 46.4072C50.9706 46.3317 50.894 46.2706 50.807 46.2281C50.72 46.1855 50.6248 46.1627 50.5279 46.1611C50.406 46.1817 50.29 46.2284 50.1877 46.2978C50.0854 46.3673 49.9992 46.458 49.9351 46.5638L48.5033 48.4206C48.2459 48.7842 47.9125 49.0876 47.5262 49.3097C47.1399 49.5318 46.71 49.6674 46.2662 49.7069C45.8447 49.7121 45.4269 49.6269 45.041 49.4571C44.6551 49.2873 44.3101 49.0369 44.0291 48.7226L41.8814 46.4295C41.7807 46.3289 41.6018 46.1275 41.3669 46.1499C41.2517 46.1695 41.1418 46.2124 41.0437 46.2758C40.9456 46.3393 40.8615 46.422 40.7964 46.519L39.1633 48.5213C38.8974 48.8679 38.56 49.1533 38.1739 49.3579C37.7879 49.5625 37.3623 49.6815 36.9262 49.7069C36.4987 49.7083 36.0762 49.6147 35.6893 49.4329C35.3024 49.251 34.9608 48.9855 34.689 48.6555L32.7315 46.4184C32.669 46.334 32.5903 46.2628 32.5 46.2091C32.4098 46.1553 32.3098 46.12 32.2058 46.1052V46.1052C32.0984 46.1179 31.9949 46.1535 31.9023 46.2094C31.8098 46.2654 31.7302 46.3404 31.6689 46.4295L29.8233 48.5548C29.5549 48.8936 29.2155 49.1694 28.829 49.3627C28.4424 49.5559 28.0181 49.662 27.5861 49.6734C27.1544 49.6605 26.7306 49.5538 26.3443 49.3606C25.958 49.1674 25.6183 48.8925 25.349 48.5548L23.5928 46.4743C23.5293 46.3804 23.4466 46.3009 23.3502 46.2412C23.2538 46.1814 23.1459 46.1427 23.0335 46.1275C22.9295 46.1378 22.8289 46.17 22.7382 46.2221C22.6476 46.2741 22.5691 46.3449 22.5078 46.4295L20.472 48.6667C20.1986 48.9932 19.8561 49.2549 19.4692 49.4329C19.0823 49.6109 18.6607 49.7006 18.2349 49.6958C17.7955 49.6686 17.3674 49.5453 16.9809 49.3346C16.5944 49.1239 16.2588 48.831 15.9978 48.4765L14.4318 46.519C14.3908 46.4094 14.32 46.3134 14.2273 46.242C14.1346 46.1706 14.0237 46.1266 13.9073 46.1149C13.7908 46.1033 13.6735 46.1245 13.5685 46.1761C13.4635 46.2278 13.375 46.3078 13.3132 46.4072L9.62192 50.2662L8 48.7114L11.7025 44.8635C11.9851 44.5528 12.3309 44.3061 12.7168 44.1402C13.1027 43.9743 13.5196 43.8929 13.9396 43.9016C14.3794 43.9323 14.8072 44.0583 15.1935 44.2708C15.5797 44.4832 15.9152 44.7771 16.1767 45.132L17.7315 47.0783C17.7761 47.1859 17.8497 47.279 17.9443 47.3471C18.0388 47.4151 18.1504 47.4555 18.2666 47.4636C18.3828 47.4718 18.4989 47.4474 18.602 47.3931C18.7051 47.3389 18.791 47.257 18.8501 47.1566L20.8859 44.9195C21.1598 44.5935 21.5024 44.3323 21.8892 44.1543C22.276 43.9764 22.6973 43.8863 23.123 43.8904C23.5551 43.9018 23.9793 44.0078 24.3659 44.2011C24.7524 44.3944 25.0918 44.6702 25.3602 45.009L27.1275 47.0895C27.1911 47.1834 27.2737 47.2628 27.3701 47.3226C27.4665 47.3824 27.5744 47.4211 27.6868 47.4363V47.4363C27.9042 47.4021 28.1003 47.2861 28.2349 47.1119L30.0693 44.9866C30.3366 44.6466 30.6758 44.37 31.0626 44.1767C31.4494 43.9833 31.8742 43.8779 32.3065 43.868V43.868C32.7335 43.8697 33.1549 43.9647 33.5413 44.1463C33.9278 44.328 34.2698 44.5918 34.5436 44.9195L36.5011 47.1566C36.5667 47.243 36.649 47.3153 36.7432 47.3691C36.8374 47.423 36.9415 47.4572 37.0492 47.4698C37.1646 47.4508 37.2748 47.4082 37.3729 47.3447C37.4711 47.2812 37.5551 47.1981 37.6197 47.1007L39.2528 45.0984C39.5182 44.7512 39.8555 44.4655 40.2416 44.2609C40.6278 44.0562 41.0536 43.9375 41.4899 43.9128C41.9119 43.9047 42.3306 43.9885 42.7169 44.1585C43.1032 44.3285 43.4479 44.5805 43.727 44.8971L45.8859 47.1342C45.9488 47.2153 46.0282 47.2822 46.1188 47.3303C46.2094 47.3785 46.3092 47.407 46.4116 47.4139C46.5329 47.3875 46.6477 47.3373 46.7494 47.2663C46.8512 47.1952 46.9379 47.1047 47.0045 47L48.4362 45.1432C48.6926 44.7795 49.026 44.4766 49.4127 44.2563C49.7993 44.0359 50.2297 43.9033 50.6734 43.868C51.0903 43.8508 51.5061 43.9238 51.8922 44.0821C52.2783 44.2404 52.6257 44.4803 52.9105 44.7852L56.7472 48.6555L54.8568 50.2886Z" fill="#FA4616"/>
<path d="M54.8569 57L51.0314 53.1186C50.9688 53.0453 50.8918 52.9857 50.8053 52.9433C50.7187 52.901 50.6243 52.8769 50.5281 52.8725C50.4061 52.8931 50.2901 52.9397 50.1878 53.0092C50.0855 53.0787 49.9994 53.1694 49.9352 53.2752L48.5035 55.132C48.246 55.4956 47.9126 55.799 47.5263 56.0211C47.1401 56.2432 46.7101 56.3787 46.2663 56.4183C45.8448 56.4235 45.427 56.3383 45.0412 56.1685C44.6553 55.9987 44.3102 55.7483 44.0292 55.434L41.8816 53.1409C41.8231 53.0579 41.7463 52.9894 41.657 52.9409C41.5678 52.8924 41.4685 52.8652 41.367 52.8613C41.2519 52.8809 41.1419 52.9238 41.0438 52.9872C40.9458 53.0507 40.8616 53.1334 40.7965 53.2304L39.1634 55.2327C38.8975 55.5793 38.5601 55.8647 38.1741 56.0693C37.788 56.2739 37.3625 56.3929 36.9263 56.4183C36.4984 56.4221 36.0752 56.3296 35.6879 56.1475C35.3006 55.9655 34.9593 55.6987 34.6892 55.3669L32.7317 53.1298C32.6691 53.0454 32.5904 52.9742 32.5002 52.9205C32.4099 52.8667 32.3099 52.8314 32.2059 52.8165V52.8165C32.0985 52.8293 31.9951 52.8649 31.9025 52.9208C31.8099 52.9768 31.7303 53.0518 31.669 53.1409L29.8234 55.2662C29.5551 55.605 29.2156 55.8808 28.8291 56.074C28.4425 56.2673 28.0183 56.3734 27.5863 56.3848C27.1545 56.3719 26.7308 56.2652 26.3444 56.072C25.9581 55.8788 25.6185 55.6039 25.3491 55.2662L23.593 53.1857C23.5294 53.0918 23.4467 53.0123 23.3504 52.9526C23.254 52.8928 23.1461 52.8541 23.0337 52.8389C22.8211 52.8389 22.6086 53.0179 22.5079 53.1409L20.4722 55.3781C20.1988 55.7046 19.8563 55.9663 19.4694 56.1443C19.0825 56.3223 18.6609 56.412 18.235 56.4072C17.7956 56.38 17.3676 56.2567 16.981 56.046C16.5945 55.8353 16.2589 55.5424 15.9979 55.1879L14.4319 53.2304C14.3679 53.1314 14.2843 53.0465 14.1861 52.9811C14.088 52.9156 13.9775 52.8711 13.8614 52.8501C13.6622 52.8715 13.4784 52.9674 13.3469 53.1186L9.65561 56.9776L8.03369 55.4228L11.7361 51.5749C12.0169 51.2618 12.3624 51.0136 12.7487 50.8475C13.135 50.6814 13.5529 50.6013 13.9733 50.613C14.4131 50.6437 14.8409 50.7697 15.2272 50.9822C15.6134 51.1946 15.9489 51.4885 16.2104 51.8434L17.7652 53.7897C17.8304 53.89 17.9158 53.9757 18.016 54.0411C18.1161 54.1066 18.2288 54.1505 18.3469 54.17C18.5513 54.1319 18.7367 54.0254 18.8726 53.868L20.9084 51.6309C21.1823 51.3049 21.5249 51.0437 21.9117 50.8657C22.2985 50.6878 22.7198 50.5977 23.1455 50.6018C23.5776 50.6132 24.0018 50.7192 24.3884 50.9125C24.7749 51.1058 25.1143 51.3816 25.3827 51.7204L27.15 53.8009C27.2136 53.8948 27.2962 53.9742 27.3926 54.034C27.489 54.0938 27.5969 54.1325 27.7093 54.1476V54.1476C27.9267 54.1135 28.1229 53.9974 28.2574 53.8233L30.0919 51.698C30.3591 51.358 30.6983 51.0814 31.0851 50.8881C31.4719 50.6947 31.8967 50.5893 32.329 50.5794V50.5794C32.756 50.5811 33.1774 50.6761 33.5638 50.8577C33.9503 51.0394 34.2923 51.3032 34.5661 51.6309L36.5236 53.868C36.6355 53.991 36.848 54.2036 37.0717 54.1812C37.1871 54.1622 37.2973 54.1196 37.3954 54.0561C37.4936 53.9926 37.5776 53.9095 37.6422 53.8121L39.2753 51.8098C39.5407 51.4626 39.878 51.1769 40.2641 50.9722C40.6503 50.7676 41.0761 50.6488 41.5124 50.6242C41.9344 50.6161 42.3531 50.6999 42.7394 50.8699C43.1257 51.0399 43.4704 51.2919 43.7496 51.6085L45.9084 53.8456C45.9713 53.9267 46.0507 53.9935 46.1413 54.0417C46.2319 54.0899 46.3317 54.1184 46.4341 54.1253C46.5554 54.0989 46.6702 54.0487 46.7719 53.9776C46.8737 53.9066 46.9604 53.8161 47.027 53.7114L48.4587 51.8546C48.7152 51.4908 49.0485 51.188 49.4352 50.9676C49.8218 50.7473 50.2522 50.6147 50.6959 50.5794C51.1128 50.5622 51.5286 50.6352 51.9147 50.7935C52.3008 50.9518 52.6482 51.1917 52.933 51.4966L56.7697 55.3669L54.8569 57Z" fill="#FA4616"/>
<path d="M45.5951 26.0156H43.358V19.3042H40.0023C39.7056 19.3042 39.4211 19.1864 39.2114 18.9766C39.0016 18.7668 38.8837 18.4823 38.8837 18.1857V14.83H25.4609V18.1857C25.4609 18.4823 25.3431 18.7668 25.1333 18.9766C24.9235 19.1864 24.639 19.3042 24.3424 19.3042H20.9866V26.0156H18.7495V18.1857C18.7495 17.889 18.8674 17.6045 19.0771 17.3947C19.2869 17.185 19.5714 17.0671 19.8681 17.0671H23.2238V13.7114C23.2238 13.4147 23.3416 13.1302 23.5514 12.9205C23.7612 12.7107 24.0457 12.5928 24.3424 12.5928H40.0023C40.299 12.5928 40.5835 12.7107 40.7932 12.9205C41.003 13.1302 41.1209 13.4147 41.1209 13.7114V17.0671H44.4766C44.7732 17.0671 45.0577 17.185 45.2675 17.3947C45.4773 17.6045 45.5951 17.889 45.5951 18.1857V26.0156Z" fill="#404040"/>
<path d="M36.6463 13.7114H34.4092V9.23714H29.9349V13.7114H27.6978V8.11857C27.6978 7.82191 27.8156 7.53739 28.0254 7.32762C28.2351 7.11785 28.5197 7 28.8163 7H35.5277C35.8244 7 36.1089 7.11785 36.3187 7.32762C36.5284 7.53739 36.6463 7.82191 36.6463 8.11857V13.7114Z" fill="#404040"/>
<path d="M47.7759 44.2595L45.6506 43.566C45.6506 43.4653 48.7602 34.0134 49.8787 29.9418C47.1718 28.5101 37.9325 23.7897 32.1718 22.6711C26.4 23.7897 17.1718 28.5101 14.4537 29.9418C15.5723 34.0134 18.6595 43.4653 18.6931 43.566L16.5678 44.2595C16.4112 43.8009 12.9325 33.0738 12.0935 29.6398C12.0335 29.3998 12.0547 29.1466 12.1538 28.9199C12.253 28.6932 12.4246 28.5058 12.6416 28.387C13.145 28.1186 24.8899 21.6756 32.004 20.434C32.1335 20.411 32.2661 20.411 32.3955 20.434C39.5096 21.7204 51.2546 28.1186 51.758 28.387C51.975 28.5058 52.1465 28.6932 52.2457 28.9199C52.3449 29.1466 52.3661 29.3998 52.3061 29.6398C51.4 33.1298 47.9213 43.8009 47.7759 44.2595Z" fill="#404040"/>
<path d="M33.2908 21.5414H31.0537V39.4385H33.2908V21.5414Z" fill="#404040"/>
<path d="M27.6981 28.2528H25.4609V30.4899H27.6981V28.2528Z" fill="#404040"/>
</svg>
