<svg width="64" height="64" viewBox="0 0 64 64" fill="none" xmlns="http://www.w3.org/2000/svg">
<path d="M38.6109 51.8746H33.2974V54H38.6109V51.8746Z" fill="#404040"/>
<path d="M31.1719 51.8746H25.8584V54H31.1719V51.8746Z" fill="#404040"/>
<path d="M53.4888 51.8746H48.1753V54H53.4888V51.8746Z" fill="#404040"/>
<path d="M46.0498 51.8746H40.7363V54H46.0498V51.8746Z" fill="#404040"/>
<path d="M23.2661 53.9469C21.7993 53.7643 20.4353 53.0976 19.3901 52.0524C18.3449 51.0072 17.6782 49.6432 17.4956 48.1764L19.621 47.9108C19.7434 48.9093 20.1956 49.8383 20.906 50.5506C21.6164 51.2629 22.5442 51.7177 23.5424 51.8427L23.2661 53.9469Z" fill="#404040"/>
<path d="M19.7164 46.2104L17.6548 45.6791C18.0245 44.2495 18.8587 42.9832 20.0263 42.0791C21.1939 41.1751 22.6287 40.6844 24.1054 40.6844V42.8098C23.1001 42.8088 22.123 43.1426 21.3284 43.7583C20.5337 44.374 19.9666 45.2368 19.7164 46.2104V46.2104Z" fill="#404040"/>
<path d="M32.2346 40.1849H25.8584V42.3103H32.2346V40.1849Z" fill="#404040"/>
<path d="M39.6734 40.1849H34.3599V42.3103H39.6734V40.1849Z" fill="#404040"/>
<path d="M49.1427 42.7248L48.8877 40.5994C49.8843 40.4748 50.8109 40.0216 51.5211 39.3114C52.2313 38.6012 52.6845 37.6746 52.8091 36.678L54.9345 36.9331C54.7535 38.4062 54.0851 39.7765 53.0356 40.8259C51.9861 41.8754 50.6159 42.5438 49.1427 42.7248V42.7248Z" fill="#404040"/>
<path d="M52.7029 35.0202C52.4524 34.0476 51.8849 33.1862 51.09 32.5723C50.2951 31.9583 49.3183 31.6268 48.314 31.6302V29.5048C49.7911 29.503 51.2268 29.9929 52.3948 30.8973C53.5627 31.8016 54.3964 33.0689 54.7646 34.4995L52.7029 35.0202Z" fill="#404040"/>
<path d="M38.6109 29.5579H33.2974V31.6833H38.6109V29.5579Z" fill="#404040"/>
<path d="M47.1123 40.1849H41.7988V42.3103H47.1123V40.1849Z" fill="#404040"/>
<path d="M46.0498 29.5579H40.7363V31.6833H46.0498V29.5579Z" fill="#404040"/>
<path d="M22.6919 22.119C21.2827 22.119 19.9312 21.5592 18.9347 20.5627C17.9382 19.5662 17.3784 18.2147 17.3784 16.8055C17.3784 15.3963 17.9382 14.0448 18.9347 13.0483C19.9312 12.0518 21.2827 11.492 22.6919 11.492V11.492C24.1011 11.492 25.4527 12.0518 26.4491 13.0483C27.4456 14.0448 28.0054 15.3963 28.0054 16.8055C28.0054 18.2147 27.4456 19.5662 26.4491 20.5627C25.4527 21.5592 24.1011 22.119 22.6919 22.119V22.119ZM22.6919 13.6174C22.2705 13.6072 21.8513 13.6827 21.4599 13.8393C21.0685 13.9959 20.713 14.2304 20.4149 14.5285C20.1168 14.8266 19.8823 15.1821 19.7257 15.5735C19.5691 15.9649 19.4936 16.3841 19.5038 16.8055C19.5038 17.651 19.8397 18.4619 20.4376 19.0598C21.0355 19.6577 21.8464 19.9936 22.6919 19.9936C23.5375 19.9936 24.3484 19.6577 24.9462 19.0598C25.5441 18.4619 25.88 17.651 25.88 16.8055C25.8902 16.3841 25.8147 15.9649 25.6581 15.5735C25.5015 15.1821 25.267 14.8266 24.9689 14.5285C24.6708 14.2304 24.3153 13.9959 23.9239 13.8393C23.5325 13.6827 23.1134 13.6072 22.6919 13.6174V13.6174Z" fill="#FA4616"/>
<path d="M22.6708 37.6345L21.8525 36.6674C21.5231 36.2742 13.7335 27.0074 12.1395 24.457C10.6302 22.1522 9.88644 19.43 10.0141 16.678C10.0141 13.3156 11.3498 10.0909 13.7274 7.7133C16.105 5.33572 19.3297 4 22.6921 4C26.0545 4 29.2792 5.33572 31.6568 7.7133C34.0344 10.0909 35.3701 13.3156 35.3701 16.678C35.4977 19.43 34.7539 22.1522 33.2447 24.457C31.6506 27.0074 23.861 36.2742 23.5316 36.6674L22.6708 37.6345ZM22.6708 6.1254C19.873 6.12821 17.1905 7.24091 15.2121 9.2193C13.2337 11.1977 12.121 13.8802 12.1182 16.678C11.9983 19.0342 12.6391 21.3664 13.946 23.3305C15.1682 25.2965 20.5879 31.8321 22.6708 34.3295C24.7962 31.8427 30.1735 25.2965 31.3956 23.3305C32.7025 21.3664 33.3434 19.0342 33.2234 16.678C33.2206 13.8802 32.1079 11.1977 30.1295 9.2193C28.1511 7.24091 25.4687 6.12821 22.6708 6.1254Z" fill="#FA4616"/>
</svg>
