<svg width="64" height="64" viewBox="0 0 64 64" fill="none" xmlns="http://www.w3.org/2000/svg">
<path d="M56.0668 54.9576H14.6798C14.4325 54.9576 14.1952 54.8593 14.0203 54.6844C13.8454 54.5095 13.7471 54.2722 13.7471 54.0248C13.7471 53.7774 13.8454 53.5402 14.0203 53.3652C14.1952 53.1903 14.4325 53.092 14.6798 53.092H56.0668C56.3142 53.092 56.5515 53.1903 56.7264 53.3652C56.9013 53.5402 56.9996 53.7774 56.9996 54.0248C56.9996 54.2722 56.9013 54.5095 56.7264 54.6844C56.5515 54.8593 56.3142 54.9576 56.0668 54.9576Z" fill="#404040"/>
<path d="M26.0876 54.9576H14.6798C14.4325 54.9576 14.1952 54.8593 14.0203 54.6844C13.8454 54.5095 13.7471 54.2722 13.7471 54.0248V23.999C13.7471 23.7516 13.8454 23.5143 14.0203 23.3394C14.1952 23.1645 14.4325 23.0662 14.6798 23.0662C14.9272 23.0662 15.1645 23.1645 15.3394 23.3394C15.5144 23.5143 15.6126 23.7516 15.6126 23.999V53.092H25.1549V23.999C25.1549 23.7516 25.2531 23.5143 25.428 23.3394C25.603 23.1645 25.8402 23.0662 26.0876 23.0662C26.335 23.0662 26.5722 23.1645 26.7472 23.3394C26.9221 23.5143 27.0204 23.7516 27.0204 23.999V54.0248C27.0204 54.2722 26.9221 54.5095 26.7472 54.6844C26.5722 54.8593 26.335 54.9576 26.0876 54.9576Z" fill="#404040"/>
<path d="M30.4902 24.9317H10.3144C10.1154 24.9303 9.92203 24.8653 9.7626 24.7462C9.60317 24.627 9.48601 24.46 9.4283 24.2695L7.04041 16.2756C7.00327 16.1536 6.99155 16.0252 7.00599 15.8985C7.02043 15.7717 7.06072 15.6493 7.12436 15.5388L10.6875 9.45709C10.7709 9.31648 10.8898 9.20022 11.0322 9.12C11.1746 9.03978 11.3356 8.99844 11.499 9.00004H29.3523C29.5141 9.00007 29.6732 9.0422 29.8139 9.12233C29.9545 9.20247 30.0719 9.31785 30.1544 9.45709L33.6337 15.5108C33.6989 15.6206 33.7408 15.7428 33.7568 15.8695C33.7729 15.9963 33.7627 16.125 33.727 16.2476L31.3391 24.2415C31.2883 24.4312 31.1789 24.6002 31.0265 24.7241C30.8741 24.8481 30.6864 24.9207 30.4902 24.9317ZM10.9767 23.0662H29.7907L31.8614 16.1357L28.774 10.8469H11.9841L8.89664 16.1171L10.9767 23.0662Z" fill="#404040"/>
<path d="M56.0672 54.9576C55.8199 54.9576 55.5826 54.8593 55.4077 54.6844C55.2328 54.5095 55.1345 54.2722 55.1345 54.0248V37.8972H26.088C25.8407 37.8972 25.6034 37.799 25.4285 37.624C25.2535 37.4491 25.1553 37.2119 25.1553 36.9645C25.1553 36.7171 25.2535 36.4798 25.4285 36.3049C25.6034 36.13 25.8407 36.0317 26.088 36.0317H56.0672C56.3146 36.0317 56.5519 36.13 56.7268 36.3049C56.9017 36.4798 57 36.7171 57 36.9645V53.9968C57.0038 54.1217 56.9824 54.246 56.9372 54.3624C56.892 54.4788 56.8239 54.585 56.7369 54.6746C56.6499 54.7642 56.5458 54.8354 56.4308 54.884C56.3157 54.9326 56.1921 54.9576 56.0672 54.9576Z" fill="#404040"/>
<path d="M16.9278 21.2566C16.707 21.2602 16.492 21.1853 16.3212 21.0453C16.1503 20.9052 16.0348 20.7091 15.9951 20.4918L15.1556 15.9399C15.1326 15.8192 15.1338 15.6951 15.1589 15.5749C15.184 15.4546 15.2326 15.3405 15.3019 15.2391C15.3713 15.1377 15.46 15.051 15.5629 14.984C15.6658 14.9169 15.781 14.8709 15.9018 14.8485C16.1441 14.8049 16.3938 14.8589 16.5965 14.9987C16.7992 15.1385 16.9384 15.3527 16.9838 15.5947L17.8326 20.1559C17.8762 20.3983 17.8222 20.648 17.6825 20.8507C17.5427 21.0534 17.3284 21.1926 17.0864 21.238L16.9278 21.2566Z" fill="#404040"/>
<path d="M23.9608 21.2566H23.7929C23.6723 21.2352 23.557 21.1902 23.4537 21.1243C23.3504 21.0583 23.2611 20.9727 23.191 20.8722C23.1208 20.7717 23.0711 20.6584 23.0447 20.5387C23.0184 20.419 23.0159 20.2953 23.0374 20.1746L23.8862 15.6133C23.9089 15.4909 23.9555 15.374 24.0233 15.2695C24.0911 15.165 24.1788 15.0749 24.2814 15.0043C24.3841 14.9338 24.4996 14.8841 24.6214 14.8581C24.7433 14.8322 24.869 14.8305 24.9915 14.8531C25.114 14.8758 25.2309 14.9224 25.3354 14.9902C25.4399 15.058 25.53 15.1457 25.6006 15.2484C25.6711 15.351 25.7208 15.4666 25.7468 15.5884C25.7727 15.7102 25.7744 15.836 25.7517 15.9585L24.9029 20.5104C24.8591 20.7259 24.7404 20.9189 24.5681 21.0554C24.3957 21.192 24.1806 21.2632 23.9608 21.2566Z" fill="#404040"/>
<path d="M31.1339 54.9576C30.8866 54.9576 30.6493 54.8593 30.4744 54.6844C30.2994 54.5095 30.2012 54.2722 30.2012 54.0248V42.5611C30.2012 42.3137 30.2994 42.0765 30.4744 41.9015C30.6493 41.7266 30.8866 41.6283 31.1339 41.6283H37.57C37.8174 41.6283 38.0547 41.7266 38.2296 41.9015C38.4045 42.0765 38.5028 42.3137 38.5028 42.5611C38.5028 42.8085 38.4045 43.0457 38.2296 43.2206C38.0547 43.3956 37.8174 43.4939 37.57 43.4939H32.0667V54.0715C32.0547 54.3107 31.9512 54.5361 31.7776 54.7011C31.6039 54.8661 31.3735 54.9579 31.1339 54.9576Z" fill="#404040"/>
<path d="M50.4235 54.9576C50.1761 54.9576 49.9388 54.8593 49.7639 54.6844C49.589 54.5095 49.4907 54.2722 49.4907 54.0248V43.4939H36.861C36.6136 43.4939 36.3764 43.3956 36.2014 43.2206C36.0265 43.0457 35.9282 42.8085 35.9282 42.5611C35.9282 42.3137 36.0265 42.0765 36.2014 41.9015C36.3764 41.7266 36.6136 41.6283 36.861 41.6283H50.4235C50.6709 41.6283 50.9081 41.7266 51.083 41.9015C51.258 42.0765 51.3562 42.3137 51.3562 42.5611V54.0715C51.3443 54.3107 51.2407 54.5361 51.0671 54.7011C50.8934 54.8661 50.663 54.9579 50.4235 54.9576Z" fill="#404040"/>
<path d="M17.6084 16.6954H10.6779C10.4305 16.6954 10.1932 16.5971 10.0183 16.4222C9.84338 16.2473 9.74512 16.01 9.74512 15.7626C9.74512 15.5152 9.84338 15.278 10.0183 15.103C10.1932 14.9281 10.4305 14.8299 10.6779 14.8299H17.6084C17.8557 14.8299 18.093 14.9281 18.2679 15.103C18.4428 15.278 18.5411 15.5152 18.5411 15.7626C18.5411 16.01 18.4428 16.2473 18.2679 16.4222C18.093 16.5971 17.8557 16.6954 17.6084 16.6954Z" fill="#404040"/>
<path d="M30.7235 16.6954H20.463C20.2157 16.6954 19.9784 16.5971 19.8035 16.4222C19.6285 16.2473 19.5303 16.01 19.5303 15.7626C19.5303 15.5152 19.6285 15.278 19.8035 15.103C19.9784 14.9281 20.2157 14.8299 20.463 14.8299H30.7235C30.9709 14.8299 31.2081 14.9281 31.3831 15.103C31.558 15.278 31.6563 15.5152 31.6563 15.7626C31.6563 16.01 31.558 16.2473 31.3831 16.4222C31.2081 16.5971 30.9709 16.6954 30.7235 16.6954Z" fill="#404040"/>
<path d="M37.7193 27.8606C37.5745 27.8606 37.4317 27.8269 37.3022 27.7621C37.1727 27.6974 37.06 27.6034 36.9731 27.4875L35.3967 25.3701C35.3238 25.2715 35.2711 25.1596 35.2415 25.0406C35.2119 24.9216 35.206 24.7979 35.2242 24.6767C35.2424 24.5554 35.2843 24.4389 35.3475 24.3338C35.4107 24.2287 35.494 24.1371 35.5926 24.0642C35.6912 23.9914 35.8032 23.9386 35.9222 23.909C36.0412 23.8794 36.1649 23.8735 36.2861 23.8917C36.4074 23.9099 36.5239 23.9518 36.6289 24.015C36.734 24.0783 36.8256 24.1615 36.8985 24.2601L38.0831 25.8552L49.7614 22.4599C49.9942 22.4063 50.2386 22.4441 50.4444 22.5654C50.6502 22.6867 50.8016 22.8824 50.8674 23.112C50.9331 23.3416 50.9083 23.5878 50.798 23.7997C50.6877 24.0116 50.5002 24.173 50.2744 24.2508L37.9805 27.8233C37.8959 27.8494 37.8078 27.862 37.7193 27.8606Z" fill="#FA4616"/>
<path d="M45.1717 29.5489C44.9863 29.5456 44.8054 29.4908 44.6494 29.3904C44.5476 29.3219 44.4603 29.234 44.3925 29.1317C44.3248 29.0294 44.2779 28.9148 44.2545 28.7944C44.2311 28.6739 44.2317 28.55 44.2562 28.4298C44.2808 28.3096 44.3288 28.1954 44.3975 28.0938L47.0093 24.2135L42.6439 22.1427C42.4389 22.0261 42.2857 21.8362 42.2151 21.6112C42.1445 21.3861 42.1618 21.1427 42.2635 20.9299C42.3652 20.7171 42.5437 20.5506 42.7631 20.4642C42.9825 20.3777 43.2266 20.3776 43.4461 20.4638L48.7909 22.9916C48.9103 23.0488 49.0161 23.1309 49.1014 23.2322C49.1866 23.3335 49.2493 23.4518 49.2852 23.5792C49.3224 23.7094 49.3308 23.846 49.3099 23.9796C49.2889 24.1133 49.2391 24.2409 49.164 24.3534L45.9459 29.1385C45.8604 29.2651 45.745 29.3687 45.61 29.4403C45.475 29.5119 45.3245 29.5492 45.1717 29.5489Z" fill="#FA4616"/>
<path d="M44.0807 50.3031C43.8333 50.3031 43.5961 50.2048 43.4211 50.0298C43.2462 49.8549 43.1479 49.6177 43.1479 49.3703V42.5611C43.1479 42.3137 43.2462 42.0765 43.4211 41.9015C43.5961 41.7266 43.8333 41.6283 44.0807 41.6283C44.3281 41.6283 44.5653 41.7266 44.7403 41.9015C44.9152 42.0765 45.0135 42.3137 45.0135 42.5611V49.4169C45.0015 49.6561 44.898 49.8816 44.7243 50.0466C44.5507 50.2116 44.3202 50.3034 44.0807 50.3031Z" fill="#404040"/>
<path d="M37.5231 50.3031C37.2757 50.3031 37.0384 50.2048 36.8635 50.0298C36.6886 49.8549 36.5903 49.6177 36.5903 49.3703V42.5611C36.5903 42.3137 36.6886 42.0765 36.8635 41.9015C37.0384 41.7266 37.2757 41.6283 37.5231 41.6283C37.7705 41.6283 38.0077 41.7266 38.1827 41.9015C38.3576 42.0765 38.4559 42.3137 38.4559 42.5611V49.4169C38.4439 49.6561 38.3403 49.8816 38.1667 50.0466C37.993 50.2116 37.7626 50.3034 37.5231 50.3031Z" fill="#404040"/>
</svg>
