<svg width="64" height="64" viewBox="0 0 64 64" fill="none" xmlns="http://www.w3.org/2000/svg">
<path d="M12.7547 31.8241H8.2168V29.5551H11.6203V27.2862C11.6209 27.1361 11.6513 26.9876 11.7097 26.8493C11.7681 26.711 11.8534 26.5857 11.9606 26.4807L14.2296 24.2117C14.4409 24.0021 14.7261 23.8839 15.0237 23.8827H16.1582V22.7482C16.1582 22.1464 15.9192 21.5693 15.4936 21.1438C15.0681 20.7183 14.491 20.4792 13.8892 20.4792H12.006V18.2103H13.9346C15.1382 18.2103 16.2924 18.6884 17.1434 19.5394C17.9945 20.3904 18.4726 21.5447 18.4726 22.7482V25.0172C18.4726 25.3181 18.353 25.6066 18.1403 25.8194C17.9275 26.0321 17.639 26.1517 17.3381 26.1517H15.5456L13.9346 27.7513V30.6896C13.9347 30.8425 13.904 30.9938 13.8441 31.1345C13.7843 31.2752 13.6966 31.4023 13.5864 31.5083C13.4762 31.6142 13.3458 31.6969 13.2029 31.7511C13.0599 31.8054 12.9075 31.8302 12.7547 31.8241V31.8241Z" fill="#404040"/>
<path d="M16.2488 49.1931L14.6379 47.5935L16.1581 46.0733V40.9C16.1587 40.7499 16.1891 40.6014 16.2475 40.4632C16.3059 40.3249 16.3912 40.1996 16.4984 40.0945L18.4271 38.1659V36.8612L16.6799 35.2276H12.142L9.64614 37.7235L8.03516 36.1238L10.8714 33.2876C11.0827 33.078 11.3679 32.9599 11.6655 32.9586H17.1678C17.4544 32.9596 17.73 33.069 17.9392 33.2649L20.3784 35.5339C20.4924 35.6397 20.5835 35.7678 20.646 35.9103C20.7084 36.0527 20.7409 36.2065 20.7414 36.3621V38.631C20.7423 38.7803 20.7137 38.9284 20.6572 39.0666C20.6007 39.2048 20.5176 39.3305 20.4124 39.4365L18.4725 41.3652V46.5725C18.4733 46.7218 18.4447 46.8698 18.3882 47.008C18.3318 47.1462 18.2486 47.2719 18.1434 47.3779L16.2488 49.1931Z" fill="#404040"/>
<path d="M36.579 48.8414H33.1756C32.8747 48.8414 32.5861 48.7219 32.3734 48.5091C32.1606 48.2963 32.0411 48.0078 32.0411 47.7069V42.4996L30.4415 40.9H27.5031C27.2023 40.9 26.9137 40.7804 26.7009 40.5677C26.4882 40.3549 26.3687 40.0664 26.3687 39.7655V35.2275C26.3693 35.0774 26.3997 34.929 26.4581 34.7907C26.5165 34.6524 26.6018 34.5271 26.709 34.4221L30.1124 31.0186C30.3238 30.809 30.609 30.6908 30.9066 30.6896H35.4446C35.5939 30.6887 35.7419 30.7173 35.8801 30.7738C36.0183 30.8303 36.144 30.9135 36.25 31.0186L41.9225 36.691C42.0276 36.7971 42.1108 36.9228 42.1673 37.061C42.2237 37.1992 42.2523 37.3472 42.2515 37.4965V43.169C42.2523 43.3183 42.2237 43.4663 42.1673 43.6045C42.1108 43.7427 42.0276 43.8684 41.9225 43.9744L37.3845 48.5124C37.2785 48.6175 37.1528 48.7007 37.0146 48.7572C36.8764 48.8137 36.7283 48.8423 36.579 48.8414ZM34.3101 46.5724H36.1139L39.9825 42.7038V37.9617L34.9794 32.9586H31.3831L28.6376 35.6927V38.631H30.9066C31.0559 38.6301 31.2039 38.6588 31.3421 38.7152C31.4804 38.7717 31.6061 38.8549 31.7121 38.96L33.9811 41.229C34.0862 41.335 34.1694 41.4607 34.2259 41.5989C34.2823 41.7372 34.3109 41.8852 34.3101 42.0345V46.5724Z" fill="#404040"/>
<path d="M30.9068 55.6483C27.4638 55.6603 24.0592 54.9258 20.9273 53.4956C17.7955 52.0653 15.0109 49.9732 12.7652 47.3634C10.5196 44.7536 8.86627 41.6881 7.91916 38.378C6.97204 35.0678 6.75363 31.5917 7.27896 28.1891C7.8043 24.7864 9.06092 21.5381 10.9622 18.6677C12.8636 15.7973 15.3644 13.3732 18.2926 11.5622C21.2208 9.75115 24.5067 8.59631 27.9241 8.17719C31.3414 7.75806 34.809 8.08461 38.0881 9.13434L37.4074 11.3012C33.073 9.93022 28.4161 9.9647 24.1024 11.3998C19.7888 12.8348 16.0393 15.597 13.3901 19.2913C10.7408 22.9856 9.32733 27.423 9.35181 31.969C9.37628 36.515 10.8374 40.9368 13.5263 44.6024C16.2152 48.268 19.9942 50.9896 24.323 52.3781C28.6519 53.7666 33.3089 53.751 37.6283 52.3334C41.9477 50.9158 45.7083 48.1689 48.3725 44.4853C51.0367 40.8018 52.4681 36.3702 52.462 31.8241C52.4658 31.1499 52.4354 30.4759 52.3713 29.8047L54.6402 29.6005C54.7083 30.3379 54.7424 31.0867 54.7424 31.8695C54.7303 38.1822 52.2134 44.232 47.7444 48.6904C43.2753 53.1489 37.2195 55.6514 30.9068 55.6483Z" fill="#404040"/>
<path d="M44.5209 31.8241C42.5015 31.8241 40.5274 31.2253 38.8484 30.1033C37.1693 28.9814 35.8606 27.3868 35.0878 25.5211C34.315 23.6554 34.1128 21.6024 34.5067 19.6218C34.9007 17.6412 35.8732 15.8218 37.3011 14.3939C38.7291 12.9659 40.5483 11.9935 42.529 11.5995C44.5096 11.2056 46.5626 11.4078 48.4283 12.1806C50.294 12.9534 51.8886 14.2621 53.0105 15.9411C54.1325 17.6202 54.7313 19.5943 54.7313 21.6137C54.7313 24.3217 53.6556 26.9187 51.7408 28.8335C49.8259 30.7484 47.2289 31.8241 44.5209 31.8241V31.8241ZM44.5209 13.6723C42.9503 13.6723 41.4149 14.1381 40.1089 15.0107C38.8029 15.8833 37.7851 17.1236 37.184 18.5747C36.5829 20.0258 36.4257 21.6225 36.7321 23.163C37.0385 24.7035 37.7949 26.1185 38.9055 27.2291C40.0161 28.3398 41.4312 29.0961 42.9716 29.4026C44.5121 29.709 46.1089 29.5517 47.56 28.9506C49.0111 28.3496 50.2514 27.3317 51.124 26.0257C51.9966 24.7198 52.4623 23.1844 52.4623 21.6137C52.4623 19.5075 51.6257 17.4876 50.1363 15.9983C48.647 14.509 46.6271 13.6723 44.5209 13.6723Z" fill="#FA4616"/>
<path d="M56.9998 20.4452H50.1929V22.7142H56.9998V20.4452Z" fill="#FA4616"/>
<path d="M38.8479 20.4452H32.041V22.7142H38.8479V20.4452Z" fill="#FA4616"/>
<path d="M45.6547 27.2521H43.3857V34.059H45.6547V27.2521Z" fill="#FA4616"/>
<path d="M45.6547 9.10031H43.3857V15.9072H45.6547V9.10031Z" fill="#FA4616"/>
<path d="M45.6547 20.4452H43.3857V22.7142H45.6547V20.4452Z" fill="#FA4616"/>
</svg>
