<svg width="64" height="64" viewBox="0 0 64 64" fill="none" xmlns="http://www.w3.org/2000/svg">
<path d="M57 22.1304H54.8261V19.1196C53.5435 18.2485 52.0287 17.7828 50.4783 17.7828C48.9278 17.7828 47.4131 18.2485 46.1305 19.1196V22.1304H43.9565V18.8696C43.9565 16.9456 48.1848 15.6087 50.4783 15.6087C52.7718 15.6087 57 16.9456 57 18.8696V22.1304Z" fill="#404040"/>
<path d="M50.4782 17.7826C49.3388 17.7396 48.2578 17.2677 47.4515 16.4614C46.6453 15.6552 46.1734 14.5742 46.1304 13.4348V12.3478C46.1304 11.1947 46.5884 10.0888 47.4038 9.27345C48.2192 8.45807 49.3251 8 50.4782 8C51.6313 8 52.7372 8.45807 53.5526 9.27345C54.3679 10.0888 54.826 11.1947 54.826 12.3478V13.4348C54.783 14.5742 54.3111 15.6552 53.5048 16.4614C52.6986 17.2677 51.6176 17.7396 50.4782 17.7826V17.7826ZM50.4782 10.1739C49.9158 10.2165 49.3872 10.4592 48.9884 10.858C48.5896 11.2569 48.3469 11.7854 48.3043 12.3478V13.4348C48.3043 14.0113 48.5333 14.5643 48.941 14.972C49.3487 15.3797 49.9016 15.6087 50.4782 15.6087C51.0548 15.6087 51.6077 15.3797 52.0154 14.972C52.4231 14.5643 52.6521 14.0113 52.6521 13.4348V12.3478C52.6095 11.7854 52.3668 11.2569 51.968 10.858C51.5692 10.4592 51.0406 10.2165 50.4782 10.1739V10.1739Z" fill="#404040"/>
<path d="M57 56.913H54.8261V53.9022C53.5435 53.0311 52.0287 52.5654 50.4783 52.5654C48.9278 52.5654 47.4131 53.0311 46.1305 53.9022V56.913H43.9565V53.6522C43.9565 51.7283 48.1848 50.3913 50.4783 50.3913C52.7718 50.3913 57 51.7283 57 53.6522V56.913Z" fill="#404040"/>
<path d="M50.4782 52.5652C49.3388 52.5222 48.2578 52.0503 47.4515 51.244C46.6453 50.4378 46.1734 49.3568 46.1304 48.2174V47.1304C46.1304 45.9773 46.5884 44.8714 47.4038 44.0561C48.2192 43.2407 49.3251 42.7826 50.4782 42.7826C51.6313 42.7826 52.7372 43.2407 53.5526 44.0561C54.3679 44.8714 54.826 45.9773 54.826 47.1304V48.2174C54.783 49.3568 54.3111 50.4378 53.5048 51.244C52.6986 52.0503 51.6176 52.5222 50.4782 52.5652V52.5652ZM50.4782 44.9565C49.9158 44.9991 49.3872 45.2418 48.9884 45.6406C48.5896 46.0395 48.3469 46.568 48.3043 47.1304V48.2174C48.3043 48.7939 48.5333 49.3469 48.941 49.7546C49.3487 50.1623 49.9016 50.3913 50.4782 50.3913C51.0548 50.3913 51.6077 50.1623 52.0154 49.7546C52.4231 49.3469 52.6521 48.7939 52.6521 48.2174V47.1304C52.6095 46.568 52.3668 46.0395 51.968 45.6406C51.5692 45.2418 51.0406 44.9991 50.4782 44.9565V44.9565Z" fill="#404040"/>
<path d="M32.054 49.3043C28.0181 49.3043 24.1475 47.7011 21.2937 44.8473C18.4399 41.9935 16.8366 38.1228 16.8366 34.0869C16.8265 32.0857 17.2133 30.1024 17.9744 28.2516C18.7356 26.4008 19.8561 24.7192 21.2712 23.3042C22.6863 21.8891 24.3679 20.7685 26.2187 20.0074C28.0695 19.2462 30.0528 18.8595 32.054 18.8696C36.0899 18.8696 39.9605 20.4728 42.8143 23.3266C45.6682 26.1804 47.2714 30.051 47.2714 34.0869C47.2786 36.0818 46.892 38.0585 46.1339 39.9038C45.3757 41.749 44.2609 43.4265 42.8534 44.8401C41.4458 46.2538 39.7731 47.3758 37.9311 48.1418C36.0892 48.9079 34.1141 49.3029 32.1192 49.3043H32.054ZM31.9779 21.0435C30.2622 21.0334 28.5616 21.3639 26.9745 22.0158C25.3874 22.6677 23.9455 23.6281 22.7323 24.8413C21.5191 26.0545 20.5587 27.4964 19.9068 29.0835C19.2548 30.6706 18.9244 32.3712 18.9345 34.0869C18.9345 37.5463 20.3087 40.864 22.7548 43.3101C25.2009 45.7562 28.5186 47.1304 31.9779 47.1304C33.6882 47.1319 35.3818 46.795 36.9613 46.1392C38.5408 45.4835 39.975 44.5217 41.1813 43.3094C42.3876 42.097 43.3421 40.658 43.99 39.0752C44.6379 37.4925 44.9662 35.7972 44.9562 34.0869C44.9419 30.6483 43.5703 27.3544 41.1398 24.9219C38.7093 22.4893 35.4166 21.115 31.9779 21.0978V21.0435Z" fill="#404040"/>
<path d="M53.6852 41.3044L51.62 40.6196C52.5248 37.8439 52.8337 34.9086 52.5265 32.0054C52.2193 29.1022 51.303 26.2966 49.8374 23.7717L51.7178 22.6848C53.7333 26.1478 54.8017 30.0802 54.8157 34.087C54.8322 36.5381 54.4504 38.9757 53.6852 41.3044V41.3044Z" fill="#FA4616"/>
<path d="M20.0435 22.1304H17.8696V19.1196C16.5869 18.2485 15.0722 17.7828 13.5217 17.7828C11.9713 17.7828 10.4566 18.2485 9.17391 19.1196V22.1304H7V18.8696C7 16.9456 11.2283 15.6087 13.5217 15.6087C15.8152 15.6087 20.0435 16.9456 20.0435 18.8696V22.1304Z" fill="#404040"/>
<path d="M13.5217 17.7826C12.3823 17.7396 11.3012 17.2677 10.495 16.4614C9.68876 15.6552 9.21687 14.5742 9.17383 13.4348V12.3478C9.17383 11.1947 9.6319 10.0888 10.4473 9.27345C11.2626 8.45807 12.3685 8 13.5217 8C14.6748 8 15.7806 8.45807 16.596 9.27345C17.4114 10.0888 17.8695 11.1947 17.8695 12.3478V13.4348C17.8264 14.5742 17.3545 15.6552 16.5483 16.4614C15.7421 17.2677 14.661 17.7396 13.5217 17.7826V17.7826ZM13.5217 10.1739C12.9592 10.2165 12.4307 10.4592 12.0318 10.858C11.633 11.2569 11.3903 11.7854 11.3477 12.3478V13.4348C11.3477 14.0113 11.5768 14.5643 11.9845 14.972C12.3922 15.3797 12.9451 15.6087 13.5217 15.6087C14.0982 15.6087 14.6511 15.3797 15.0588 14.972C15.4665 14.5643 15.6956 14.0113 15.6956 13.4348V12.3478C15.653 11.7854 15.4103 11.2569 15.0114 10.858C14.6126 10.4592 14.0841 10.2165 13.5217 10.1739V10.1739Z" fill="#404040"/>
<path d="M20.0435 56.913H17.8696V53.9022C16.5869 53.0311 15.0722 52.5654 13.5217 52.5654C11.9713 52.5654 10.4566 53.0311 9.17391 53.9022V56.913H7V53.6522C7 51.7283 11.2283 50.3913 13.5217 50.3913C15.8152 50.3913 20.0435 51.7283 20.0435 53.6522V56.913Z" fill="#404040"/>
<path d="M13.5217 52.5652C12.3823 52.5222 11.3012 52.0503 10.495 51.244C9.68876 50.4378 9.21687 49.3568 9.17383 48.2174V47.1304C9.17383 45.9773 9.6319 44.8714 10.4473 44.0561C11.2626 43.2407 12.3685 42.7826 13.5217 42.7826C14.6748 42.7826 15.7806 43.2407 16.596 44.0561C17.4114 44.8714 17.8695 45.9773 17.8695 47.1304V48.2174C17.8264 49.3568 17.3545 50.4378 16.5483 51.244C15.7421 52.0503 14.661 52.5222 13.5217 52.5652V52.5652ZM13.5217 44.9565C12.9592 44.9991 12.4307 45.2418 12.0318 45.6406C11.633 46.0395 11.3903 46.568 11.3477 47.1304V48.2174C11.3477 48.7939 11.5768 49.3469 11.9845 49.7546C12.3922 50.1623 12.9451 50.3913 13.5217 50.3913C14.0982 50.3913 14.6511 50.1623 15.0588 49.7546C15.4665 49.3469 15.6956 48.7939 15.6956 48.2174V47.1304C15.653 46.568 15.4103 46.0395 15.0114 45.6406C14.6126 45.2418 14.0841 44.9991 13.5217 44.9565V44.9565Z" fill="#404040"/>
<path d="M10.2718 41.3044C9.26154 38.2373 8.91355 34.9907 9.25082 31.7792C9.58808 28.5676 10.6029 25.4642 12.2283 22.6739L14.1088 23.7609C12.6391 26.2843 11.7213 29.0906 11.4159 31.9947C11.1105 34.8989 11.4244 37.8348 12.337 40.6087L10.2718 41.3044Z" fill="#FA4616"/>
<path d="M32.0655 56.913H31.8807C28.341 56.9211 24.8488 56.0983 21.6851 54.5109L22.6851 52.5652C25.5452 54.0009 28.7022 54.7455 31.9024 54.7391H32.0872C35.2909 54.7455 38.4515 54.001 41.3155 52.5652L42.2829 54.5109C39.1125 56.1016 35.6125 56.9245 32.0655 56.913V56.913Z" fill="#FA4616"/>
<path d="M21.5977 16.2391L20.5107 14.3587C23.9851 12.342 27.9283 11.2737 31.9455 11.2609H32.0107C36.0118 11.2701 39.9402 12.3309 43.402 14.3369L42.3151 16.2174C39.1788 14.3952 35.6162 13.4353 31.989 13.4353C28.3618 13.4353 24.7992 14.3952 21.6629 16.2174L21.5977 16.2391Z" fill="#FA4616"/>
<path d="M31.9784 49.3044C27.0871 49.3044 23.2827 42.6196 23.2827 34.087C23.2827 25.5544 27.1088 18.8696 31.9784 18.8696C36.8479 18.8696 40.674 25.5544 40.674 34.087C40.674 42.6196 36.8153 49.3044 31.9784 49.3044ZM31.9784 21.0435C28.424 21.0435 25.4566 27.0217 25.4566 34.087C25.4566 41.1522 28.4458 47.1304 31.9784 47.1304C35.511 47.1304 38.5001 41.1522 38.5001 34.087C38.5001 27.0217 35.5218 21.0435 31.9784 21.0435Z" fill="#404040"/>
<path d="M45.0435 27.5761H18.9565V29.75H45.0435V27.5761Z" fill="#404040"/>
<path d="M45.0435 38.4457H18.9565V40.6196H45.0435V38.4457Z" fill="#404040"/>
<path d="M33.087 19.9674H30.9131V48.2283H33.087V19.9674Z" fill="#404040"/>
</svg>
