<svg width="64" height="64" viewBox="0 0 64 64" fill="none" xmlns="http://www.w3.org/2000/svg">
<path d="M54.3028 57H9.90228C9.66299 57 9.43351 56.9049 9.2643 56.7357C9.09509 56.5665 9.00002 56.337 9.00002 56.0977V43.466C8.99926 43.343 9.02367 43.221 9.07177 43.1078C9.11987 42.9945 9.19064 42.8923 9.27972 42.8074L16.7505 35.8058L17.5535 19.6462C17.5643 19.3635 17.646 19.0882 17.7911 18.8454C17.9361 18.6026 18.1398 18.4002 18.3836 18.2567L18.546 18.1575C19.2949 17.6973 20.1701 17.2552 22.525 17.2552C24.8799 17.2552 25.7461 17.6702 26.504 18.1575L26.6574 18.2567C26.8999 18.4001 27.1034 18.6011 27.2497 18.8419C27.3961 19.0826 27.4808 19.3558 27.4965 19.6372L28.1912 32.702L40.5703 29.0929C40.7048 29.0537 40.8465 29.0463 40.9843 29.0714C41.1222 29.0964 41.2522 29.1532 41.3643 29.2373C41.4764 29.3213 41.5673 29.4303 41.63 29.5556C41.6926 29.6808 41.7252 29.819 41.7252 29.9591V32.711L54.0502 29.1019C54.1876 29.0617 54.3326 29.0548 54.4733 29.0817C54.6139 29.1087 54.7462 29.1687 54.859 29.2569C54.9719 29.345 55.0621 29.4588 55.1223 29.5888C55.1825 29.7187 55.2108 29.8611 55.2051 30.0042V56.1699C55.1869 56.3965 55.0839 56.6079 54.9166 56.7618C54.7493 56.9157 54.5301 57.0007 54.3028 57V57ZM10.8045 55.1955H53.4005V31.1681L41.0846 34.7772C40.9466 34.8191 40.8005 34.8274 40.6587 34.8013C40.5168 34.7752 40.3833 34.7154 40.2693 34.6271C40.1553 34.5387 40.0642 34.4243 40.0035 34.2934C39.9428 34.1625 39.9144 34.019 39.9207 33.8749V31.1681L27.6047 34.7772C27.4746 34.8154 27.3375 34.8238 27.2036 34.8017C27.0697 34.7796 26.9425 34.7276 26.8316 34.6496C26.7206 34.5715 26.6286 34.4694 26.5625 34.3509C26.4964 34.2324 26.4579 34.1006 26.4498 33.9651L25.6919 19.8086L25.5566 19.7274C25.1145 19.4567 24.5641 19.1139 22.525 19.1139C20.4859 19.1139 19.9355 19.4567 19.4843 19.7274L19.349 19.8086L18.5279 36.284C18.5175 36.5169 18.4173 36.7368 18.2482 36.8975L10.8045 43.8811V55.1955Z" fill="#404040"/>
<path d="M33.83 43.6194H31.3578C31.1185 43.6194 30.8891 43.5244 30.7198 43.3551C30.5506 43.1859 30.4556 42.9564 30.4556 42.7171V38.6299C30.4556 38.3906 30.5506 38.1611 30.7198 37.9919C30.8891 37.8227 31.1185 37.7276 31.3578 37.7276C31.5971 37.7276 31.8266 37.8227 31.9958 37.9919C32.1651 38.1611 32.2601 38.3906 32.2601 38.6299V41.8148H33.83C34.0693 41.8148 34.2988 41.9099 34.468 42.0791C34.6373 42.2483 34.7323 42.4778 34.7323 42.7171C34.7323 42.9564 34.6373 43.1859 34.468 43.3551C34.2988 43.5244 34.0693 43.6194 33.83 43.6194Z" fill="#FA4616"/>
<path d="M33.83 52.7955H31.3578C31.1185 52.7955 30.8891 52.7004 30.7198 52.5312C30.5506 52.362 30.4556 52.1325 30.4556 51.8932V47.8149C30.4556 47.5756 30.5506 47.3461 30.7198 47.1769C30.8891 47.0077 31.1185 46.9127 31.3578 46.9127C31.5971 46.9127 31.8266 47.0077 31.9958 47.1769C32.1651 47.3461 32.2601 47.5756 32.2601 47.8149V50.9909H33.83C34.0693 50.9909 34.2988 51.0859 34.468 51.2551C34.6373 51.4244 34.7323 51.6539 34.7323 51.8932C34.7323 52.1325 34.6373 52.362 34.468 52.5312C34.2988 52.7004 34.0693 52.7955 33.83 52.7955Z" fill="#FA4616"/>
<path d="M41.2197 43.6194H38.7475C38.5082 43.6194 38.2787 43.5244 38.1095 43.3551C37.9403 43.1859 37.8452 42.9564 37.8452 42.7171V38.6299C37.8452 38.3906 37.9403 38.1611 38.1095 37.9919C38.2787 37.8227 38.5082 37.7276 38.7475 37.7276C38.9868 37.7276 39.2163 37.8227 39.3855 37.9919C39.5547 38.1611 39.6497 38.3906 39.6497 38.6299V41.8148H41.2197C41.459 41.8148 41.6885 41.9099 41.8577 42.0791C42.0269 42.2483 42.1219 42.4778 42.1219 42.7171C42.1219 42.9564 42.0269 43.1859 41.8577 43.3551C41.6885 43.5244 41.459 43.6194 41.2197 43.6194Z" fill="#FA4616"/>
<path d="M41.2197 52.7955H38.7475C38.5082 52.7955 38.2787 52.7004 38.1095 52.5312C37.9403 52.362 37.8452 52.1325 37.8452 51.8932V47.8149C37.8452 47.5756 37.9403 47.3461 38.1095 47.1769C38.2787 47.0077 38.5082 46.9127 38.7475 46.9127C38.9868 46.9127 39.2163 47.0077 39.3855 47.1769C39.5547 47.3461 39.6497 47.5756 39.6497 47.8149V50.9909H41.2197C41.459 50.9909 41.6885 51.0859 41.8577 51.2551C42.0269 51.4244 42.1219 51.6539 42.1219 51.8932C42.1219 52.1325 42.0269 52.362 41.8577 52.5312C41.6885 52.7004 41.459 52.7955 41.2197 52.7955Z" fill="#FA4616"/>
<path d="M48.6098 52.7955H46.1376C45.8983 52.7955 45.6688 52.7004 45.4996 52.5312C45.3304 52.362 45.2354 52.1325 45.2354 51.8932V47.8149C45.2354 47.5756 45.3304 47.3461 45.4996 47.1769C45.6688 47.0077 45.8983 46.9127 46.1376 46.9127C46.3769 46.9127 46.6064 47.0077 46.7756 47.1769C46.9448 47.3461 47.0399 47.5756 47.0399 47.8149V50.9909H48.6098C48.8491 50.9909 49.0786 51.0859 49.2478 51.2551C49.417 51.4244 49.5121 51.6539 49.5121 51.8932C49.5121 52.1325 49.417 52.362 49.2478 52.5312C49.0786 52.7004 48.8491 52.7955 48.6098 52.7955Z" fill="#FA4616"/>
<path d="M48.6098 43.6194H46.1376C45.8983 43.6194 45.6688 43.5244 45.4996 43.3551C45.3304 43.1859 45.2354 42.9564 45.2354 42.7171V38.6299C45.2354 38.3906 45.3304 38.1611 45.4996 37.9919C45.6688 37.8227 45.8983 37.7276 46.1376 37.7276C46.3769 37.7276 46.6064 37.8227 46.7756 37.9919C46.9448 38.1611 47.0399 38.3906 47.0399 38.6299V41.8148H48.6098C48.8491 41.8148 49.0786 41.9099 49.2478 42.0791C49.417 42.2483 49.5121 42.4778 49.5121 42.7171C49.5121 42.9564 49.417 43.1859 49.2478 43.3551C49.0786 43.5244 48.8491 43.6194 48.6098 43.6194Z" fill="#FA4616"/>
<path d="M17.6259 53.039C17.3866 53.039 17.1571 52.944 16.9879 52.7748C16.8187 52.6055 16.7236 52.3761 16.7236 52.1368L16.8319 33.92C16.8319 33.6807 16.927 33.4512 17.0962 33.282C17.2654 33.1128 17.4949 33.0177 17.7342 33.0177H27.1448C27.3841 33.0177 27.6136 33.1128 27.7828 33.282C27.952 33.4512 28.0471 33.6807 28.0471 33.92C28.0471 34.1593 27.952 34.3888 27.7828 34.5581C27.6136 34.7273 27.3841 34.8223 27.1448 34.8223H18.6364L18.5282 52.1368C18.5282 52.3761 18.4331 52.6055 18.2639 52.7748C18.0947 52.944 17.8652 53.039 17.6259 53.039Z" fill="#404040"/>
<path d="M31.5114 22.6597C31.2721 22.6597 31.0426 22.5647 30.8734 22.3955C30.7042 22.2263 30.6091 21.9968 30.6091 21.7575C30.6091 21.5182 30.7042 21.2887 30.8734 21.1195C31.0426 20.9503 31.2721 20.8552 31.5114 20.8552H39.7851C40.4275 20.7874 41.05 20.593 41.6168 20.2833C42.1836 19.9736 42.6834 19.5546 43.0874 19.0507C43.6923 18.3308 44.081 17.4545 44.2087 16.523C44.3363 15.5915 44.1978 14.6429 43.8089 13.7869C43.4201 12.9308 42.7968 12.2024 42.0113 11.6857C41.2258 11.169 40.3101 10.8852 39.3701 10.8671C39.1559 10.86 38.9512 10.7768 38.7926 10.6325C38.0722 9.97535 37.2228 9.47549 36.2985 9.16479C35.3742 8.8541 34.3953 8.73939 33.4242 8.82798C32.0583 8.95345 30.758 9.47182 29.6804 10.3204C28.6028 11.1691 27.7941 12.3116 27.3519 13.61C27.3035 13.7529 27.2201 13.8814 27.1093 13.9837C26.9984 14.0861 26.8637 14.159 26.7174 14.1958C26.5711 14.2326 26.4179 14.2321 26.2718 14.1944C26.1257 14.1567 25.9914 14.083 25.8812 13.9799C25.3178 13.5231 24.6416 13.2267 23.9239 13.1219C23.2062 13.0171 22.4735 13.1078 21.803 13.3844C20.5037 13.8175 19.4932 14.6747 19.3488 15.4777C19.3057 15.717 19.1694 15.9294 18.9697 16.0681C18.7701 16.2069 18.5234 16.2606 18.2842 16.2175C18.0449 16.1745 17.8325 16.0381 17.6937 15.8384C17.555 15.6388 17.5012 15.3922 17.5443 15.1529C17.815 13.6822 19.2586 12.3198 21.2075 11.6701C21.9938 11.3831 22.83 11.2584 23.6659 11.3033C24.5017 11.3483 25.3198 11.5621 26.0707 11.9318C26.6681 10.7298 27.5301 9.67869 28.5919 8.85745C29.6536 8.0362 30.8877 7.46613 32.2013 7.19004C33.5149 6.91395 34.8739 6.93897 36.1765 7.26328C37.479 7.5876 38.6912 8.20277 39.722 9.06258C41.414 9.19859 42.9939 9.9631 44.1505 11.2056C45.3071 12.4481 45.9567 14.0785 45.9715 15.7759C45.9862 17.4734 45.3649 19.1148 44.23 20.3771C43.0951 21.6395 41.5287 22.4313 39.8393 22.5966L31.5114 22.6597Z" fill="#FA4616"/>
</svg>
